<?xml version="1.0" encoding="utf-8" standalone="no"?>
<!DOCTYPE svg PUBLIC "-//W3C//DTD SVG 1.1//EN"
  "http://www.w3.org/Graphics/SVG/1.1/DTD/svg11.dtd">
<svg height="357.238125pt" version="1.1" viewBox="0 0 880.665625 357.238125" width="880.665625pt" xmlns="http://www.w3.org/2000/svg" xmlns:xlink="http://www.w3.org/1999/xlink">
 <metadata>
  <rdf:RDF xmlns:cc="http://creativecommons.org/ns#" xmlns:dc="http://purl.org/dc/elements/1.1/" xmlns:rdf="http://www.w3.org/1999/02/22-rdf-syntax-ns#">
   <cc:Work>
    <dc:type rdf:resource="http://purl.org/dc/dcmitype/StillImage"/>
    <dc:date>2022-11-04T11:16:45.803682</dc:date>
    <dc:format>image/svg+xml</dc:format>
    <dc:creator>
     <cc:Agent>
      <dc:title>Matplotlib v3.4.3, https://matplotlib.org/</dc:title>
     </cc:Agent>
    </dc:creator>
   </cc:Work>
  </rdf:RDF>
 </metadata>
 <defs>
  <style type="text/css">*{stroke-linecap:butt;stroke-linejoin:round;}</style>
 </defs>
 <g id="figure_1">
  <g id="patch_1">
   <path d="M 0 357.238125 
L 880.665625 357.238125 
L 880.665625 0 
L 0 0 
z
" style="fill:#ffffff;"/>
  </g>
  <g id="axes_1">
   <g id="patch_2">
    <path d="M 36.465625 333.36 
L 873.465625 333.36 
L 873.465625 7.2 
L 36.465625 7.2 
z
" style="fill:#ffffff;"/>
   </g>
   <g id="matplotlib.axis_1">
    <g id="xtick_1">
     <g id="line2d_1">
      <defs>
       <path d="M 0 0 
L 0 3.5 
" id="md192f771c9" style="stroke:#000000;stroke-width:0.8;"/>
      </defs>
      <g>
       <use style="stroke:#000000;stroke-width:0.8;" x="44.934279" xlink:href="#md192f771c9" y="333.36"/>
      </g>
     </g>
     <g id="text_1">
      <!-- 6612.5 -->
      <g transform="translate(27.438967 347.958438)scale(0.1 -0.1)">
       <defs>
        <path d="M 2113 2584 
Q 1688 2584 1439 2293 
Q 1191 2003 1191 1497 
Q 1191 994 1439 701 
Q 1688 409 2113 409 
Q 2538 409 2786 701 
Q 3034 994 3034 1497 
Q 3034 2003 2786 2293 
Q 2538 2584 2113 2584 
z
M 3366 4563 
L 3366 3988 
Q 3128 4100 2886 4159 
Q 2644 4219 2406 4219 
Q 1781 4219 1451 3797 
Q 1122 3375 1075 2522 
Q 1259 2794 1537 2939 
Q 1816 3084 2150 3084 
Q 2853 3084 3261 2657 
Q 3669 2231 3669 1497 
Q 3669 778 3244 343 
Q 2819 -91 2113 -91 
Q 1303 -91 875 529 
Q 447 1150 447 2328 
Q 447 3434 972 4092 
Q 1497 4750 2381 4750 
Q 2619 4750 2861 4703 
Q 3103 4656 3366 4563 
z
" id="DejaVuSans-36" transform="scale(0.015625)"/>
        <path d="M 794 531 
L 1825 531 
L 1825 4091 
L 703 3866 
L 703 4441 
L 1819 4666 
L 2450 4666 
L 2450 531 
L 3481 531 
L 3481 0 
L 794 0 
L 794 531 
z
" id="DejaVuSans-31" transform="scale(0.015625)"/>
        <path d="M 1228 531 
L 3431 531 
L 3431 0 
L 469 0 
L 469 531 
Q 828 903 1448 1529 
Q 2069 2156 2228 2338 
Q 2531 2678 2651 2914 
Q 2772 3150 2772 3378 
Q 2772 3750 2511 3984 
Q 2250 4219 1831 4219 
Q 1534 4219 1204 4116 
Q 875 4013 500 3803 
L 500 4441 
Q 881 4594 1212 4672 
Q 1544 4750 1819 4750 
Q 2544 4750 2975 4387 
Q 3406 4025 3406 3419 
Q 3406 3131 3298 2873 
Q 3191 2616 2906 2266 
Q 2828 2175 2409 1742 
Q 1991 1309 1228 531 
z
" id="DejaVuSans-32" transform="scale(0.015625)"/>
        <path d="M 684 794 
L 1344 794 
L 1344 0 
L 684 0 
L 684 794 
z
" id="DejaVuSans-2e" transform="scale(0.015625)"/>
        <path d="M 691 4666 
L 3169 4666 
L 3169 4134 
L 1269 4134 
L 1269 2991 
Q 1406 3038 1543 3061 
Q 1681 3084 1819 3084 
Q 2600 3084 3056 2656 
Q 3513 2228 3513 1497 
Q 3513 744 3044 326 
Q 2575 -91 1722 -91 
Q 1428 -91 1123 -41 
Q 819 9 494 109 
L 494 744 
Q 775 591 1075 516 
Q 1375 441 1709 441 
Q 2250 441 2565 725 
Q 2881 1009 2881 1497 
Q 2881 1984 2565 2268 
Q 2250 2553 1709 2553 
Q 1456 2553 1204 2497 
Q 953 2441 691 2322 
L 691 4666 
z
" id="DejaVuSans-35" transform="scale(0.015625)"/>
       </defs>
       <use xlink:href="#DejaVuSans-36"/>
       <use x="63.623047" xlink:href="#DejaVuSans-36"/>
       <use x="127.246094" xlink:href="#DejaVuSans-31"/>
       <use x="190.869141" xlink:href="#DejaVuSans-32"/>
       <use x="254.492188" xlink:href="#DejaVuSans-2e"/>
       <use x="286.279297" xlink:href="#DejaVuSans-35"/>
      </g>
     </g>
    </g>
    <g id="xtick_2">
     <g id="line2d_2">
      <g>
       <use style="stroke:#000000;stroke-width:0.8;" x="199.316862" xlink:href="#md192f771c9" y="333.36"/>
      </g>
     </g>
     <g id="text_2">
      <!-- 6613.0 -->
      <g transform="translate(181.82155 347.958438)scale(0.1 -0.1)">
       <defs>
        <path d="M 2597 2516 
Q 3050 2419 3304 2112 
Q 3559 1806 3559 1356 
Q 3559 666 3084 287 
Q 2609 -91 1734 -91 
Q 1441 -91 1130 -33 
Q 819 25 488 141 
L 488 750 
Q 750 597 1062 519 
Q 1375 441 1716 441 
Q 2309 441 2620 675 
Q 2931 909 2931 1356 
Q 2931 1769 2642 2001 
Q 2353 2234 1838 2234 
L 1294 2234 
L 1294 2753 
L 1863 2753 
Q 2328 2753 2575 2939 
Q 2822 3125 2822 3475 
Q 2822 3834 2567 4026 
Q 2313 4219 1838 4219 
Q 1578 4219 1281 4162 
Q 984 4106 628 3988 
L 628 4550 
Q 988 4650 1302 4700 
Q 1616 4750 1894 4750 
Q 2613 4750 3031 4423 
Q 3450 4097 3450 3541 
Q 3450 3153 3228 2886 
Q 3006 2619 2597 2516 
z
" id="DejaVuSans-33" transform="scale(0.015625)"/>
        <path d="M 2034 4250 
Q 1547 4250 1301 3770 
Q 1056 3291 1056 2328 
Q 1056 1369 1301 889 
Q 1547 409 2034 409 
Q 2525 409 2770 889 
Q 3016 1369 3016 2328 
Q 3016 3291 2770 3770 
Q 2525 4250 2034 4250 
z
M 2034 4750 
Q 2819 4750 3233 4129 
Q 3647 3509 3647 2328 
Q 3647 1150 3233 529 
Q 2819 -91 2034 -91 
Q 1250 -91 836 529 
Q 422 1150 422 2328 
Q 422 3509 836 4129 
Q 1250 4750 2034 4750 
z
" id="DejaVuSans-30" transform="scale(0.015625)"/>
       </defs>
       <use xlink:href="#DejaVuSans-36"/>
       <use x="63.623047" xlink:href="#DejaVuSans-36"/>
       <use x="127.246094" xlink:href="#DejaVuSans-31"/>
       <use x="190.869141" xlink:href="#DejaVuSans-33"/>
       <use x="254.492188" xlink:href="#DejaVuSans-2e"/>
       <use x="286.279297" xlink:href="#DejaVuSans-30"/>
      </g>
     </g>
    </g>
    <g id="xtick_3">
     <g id="line2d_3">
      <g>
       <use style="stroke:#000000;stroke-width:0.8;" x="353.699445" xlink:href="#md192f771c9" y="333.36"/>
      </g>
     </g>
     <g id="text_3">
      <!-- 6613.5 -->
      <g transform="translate(336.204133 347.958438)scale(0.1 -0.1)">
       <use xlink:href="#DejaVuSans-36"/>
       <use x="63.623047" xlink:href="#DejaVuSans-36"/>
       <use x="127.246094" xlink:href="#DejaVuSans-31"/>
       <use x="190.869141" xlink:href="#DejaVuSans-33"/>
       <use x="254.492188" xlink:href="#DejaVuSans-2e"/>
       <use x="286.279297" xlink:href="#DejaVuSans-35"/>
      </g>
     </g>
    </g>
    <g id="xtick_4">
     <g id="line2d_4">
      <g>
       <use style="stroke:#000000;stroke-width:0.8;" x="508.082028" xlink:href="#md192f771c9" y="333.36"/>
      </g>
     </g>
     <g id="text_4">
      <!-- 6614.0 -->
      <g transform="translate(490.586715 347.958438)scale(0.1 -0.1)">
       <defs>
        <path d="M 2419 4116 
L 825 1625 
L 2419 1625 
L 2419 4116 
z
M 2253 4666 
L 3047 4666 
L 3047 1625 
L 3713 1625 
L 3713 1100 
L 3047 1100 
L 3047 0 
L 2419 0 
L 2419 1100 
L 313 1100 
L 313 1709 
L 2253 4666 
z
" id="DejaVuSans-34" transform="scale(0.015625)"/>
       </defs>
       <use xlink:href="#DejaVuSans-36"/>
       <use x="63.623047" xlink:href="#DejaVuSans-36"/>
       <use x="127.246094" xlink:href="#DejaVuSans-31"/>
       <use x="190.869141" xlink:href="#DejaVuSans-34"/>
       <use x="254.492188" xlink:href="#DejaVuSans-2e"/>
       <use x="286.279297" xlink:href="#DejaVuSans-30"/>
      </g>
     </g>
    </g>
    <g id="xtick_5">
     <g id="line2d_5">
      <g>
       <use style="stroke:#000000;stroke-width:0.8;" x="662.464611" xlink:href="#md192f771c9" y="333.36"/>
      </g>
     </g>
     <g id="text_5">
      <!-- 6614.5 -->
      <g transform="translate(644.969298 347.958438)scale(0.1 -0.1)">
       <use xlink:href="#DejaVuSans-36"/>
       <use x="63.623047" xlink:href="#DejaVuSans-36"/>
       <use x="127.246094" xlink:href="#DejaVuSans-31"/>
       <use x="190.869141" xlink:href="#DejaVuSans-34"/>
       <use x="254.492188" xlink:href="#DejaVuSans-2e"/>
       <use x="286.279297" xlink:href="#DejaVuSans-35"/>
      </g>
     </g>
    </g>
    <g id="xtick_6">
     <g id="line2d_6">
      <g>
       <use style="stroke:#000000;stroke-width:0.8;" x="816.847193" xlink:href="#md192f771c9" y="333.36"/>
      </g>
     </g>
     <g id="text_6">
      <!-- 6615.0 -->
      <g transform="translate(799.351881 347.958438)scale(0.1 -0.1)">
       <use xlink:href="#DejaVuSans-36"/>
       <use x="63.623047" xlink:href="#DejaVuSans-36"/>
       <use x="127.246094" xlink:href="#DejaVuSans-31"/>
       <use x="190.869141" xlink:href="#DejaVuSans-35"/>
       <use x="254.492188" xlink:href="#DejaVuSans-2e"/>
       <use x="286.279297" xlink:href="#DejaVuSans-30"/>
      </g>
     </g>
    </g>
   </g>
   <g id="matplotlib.axis_2">
    <g id="ytick_1">
     <g id="line2d_7">
      <defs>
       <path d="M 0 0 
L -3.5 0 
" id="mbefe3ab661" style="stroke:#000000;stroke-width:0.8;"/>
      </defs>
      <g>
       <use style="stroke:#000000;stroke-width:0.8;" x="36.465625" xlink:href="#mbefe3ab661" y="318.534545"/>
      </g>
     </g>
     <g id="text_7">
      <!-- 0.90 -->
      <g transform="translate(7.2 322.333764)scale(0.1 -0.1)">
       <defs>
        <path d="M 703 97 
L 703 672 
Q 941 559 1184 500 
Q 1428 441 1663 441 
Q 2288 441 2617 861 
Q 2947 1281 2994 2138 
Q 2813 1869 2534 1725 
Q 2256 1581 1919 1581 
Q 1219 1581 811 2004 
Q 403 2428 403 3163 
Q 403 3881 828 4315 
Q 1253 4750 1959 4750 
Q 2769 4750 3195 4129 
Q 3622 3509 3622 2328 
Q 3622 1225 3098 567 
Q 2575 -91 1691 -91 
Q 1453 -91 1209 -44 
Q 966 3 703 97 
z
M 1959 2075 
Q 2384 2075 2632 2365 
Q 2881 2656 2881 3163 
Q 2881 3666 2632 3958 
Q 2384 4250 1959 4250 
Q 1534 4250 1286 3958 
Q 1038 3666 1038 3163 
Q 1038 2656 1286 2365 
Q 1534 2075 1959 2075 
z
" id="DejaVuSans-39" transform="scale(0.015625)"/>
       </defs>
       <use xlink:href="#DejaVuSans-30"/>
       <use x="63.623047" xlink:href="#DejaVuSans-2e"/>
       <use x="95.410156" xlink:href="#DejaVuSans-39"/>
       <use x="159.033203" xlink:href="#DejaVuSans-30"/>
      </g>
     </g>
    </g>
    <g id="ytick_2">
     <g id="line2d_8">
      <g>
       <use style="stroke:#000000;stroke-width:0.8;" x="36.465625" xlink:href="#mbefe3ab661" y="259.232685"/>
      </g>
     </g>
     <g id="text_8">
      <!-- 0.92 -->
      <g transform="translate(7.2 263.031904)scale(0.1 -0.1)">
       <use xlink:href="#DejaVuSans-30"/>
       <use x="63.623047" xlink:href="#DejaVuSans-2e"/>
       <use x="95.410156" xlink:href="#DejaVuSans-39"/>
       <use x="159.033203" xlink:href="#DejaVuSans-32"/>
      </g>
     </g>
    </g>
    <g id="ytick_3">
     <g id="line2d_9">
      <g>
       <use style="stroke:#000000;stroke-width:0.8;" x="36.465625" xlink:href="#mbefe3ab661" y="199.930826"/>
      </g>
     </g>
     <g id="text_9">
      <!-- 0.94 -->
      <g transform="translate(7.2 203.730044)scale(0.1 -0.1)">
       <use xlink:href="#DejaVuSans-30"/>
       <use x="63.623047" xlink:href="#DejaVuSans-2e"/>
       <use x="95.410156" xlink:href="#DejaVuSans-39"/>
       <use x="159.033203" xlink:href="#DejaVuSans-34"/>
      </g>
     </g>
    </g>
    <g id="ytick_4">
     <g id="line2d_10">
      <g>
       <use style="stroke:#000000;stroke-width:0.8;" x="36.465625" xlink:href="#mbefe3ab661" y="140.628966"/>
      </g>
     </g>
     <g id="text_10">
      <!-- 0.96 -->
      <g transform="translate(7.2 144.428184)scale(0.1 -0.1)">
       <use xlink:href="#DejaVuSans-30"/>
       <use x="63.623047" xlink:href="#DejaVuSans-2e"/>
       <use x="95.410156" xlink:href="#DejaVuSans-39"/>
       <use x="159.033203" xlink:href="#DejaVuSans-36"/>
      </g>
     </g>
    </g>
    <g id="ytick_5">
     <g id="line2d_11">
      <g>
       <use style="stroke:#000000;stroke-width:0.8;" x="36.465625" xlink:href="#mbefe3ab661" y="81.327106"/>
      </g>
     </g>
     <g id="text_11">
      <!-- 0.98 -->
      <g transform="translate(7.2 85.126324)scale(0.1 -0.1)">
       <defs>
        <path d="M 2034 2216 
Q 1584 2216 1326 1975 
Q 1069 1734 1069 1313 
Q 1069 891 1326 650 
Q 1584 409 2034 409 
Q 2484 409 2743 651 
Q 3003 894 3003 1313 
Q 3003 1734 2745 1975 
Q 2488 2216 2034 2216 
z
M 1403 2484 
Q 997 2584 770 2862 
Q 544 3141 544 3541 
Q 544 4100 942 4425 
Q 1341 4750 2034 4750 
Q 2731 4750 3128 4425 
Q 3525 4100 3525 3541 
Q 3525 3141 3298 2862 
Q 3072 2584 2669 2484 
Q 3125 2378 3379 2068 
Q 3634 1759 3634 1313 
Q 3634 634 3220 271 
Q 2806 -91 2034 -91 
Q 1263 -91 848 271 
Q 434 634 434 1313 
Q 434 1759 690 2068 
Q 947 2378 1403 2484 
z
M 1172 3481 
Q 1172 3119 1398 2916 
Q 1625 2713 2034 2713 
Q 2441 2713 2670 2916 
Q 2900 3119 2900 3481 
Q 2900 3844 2670 4047 
Q 2441 4250 2034 4250 
Q 1625 4250 1398 4047 
Q 1172 3844 1172 3481 
z
" id="DejaVuSans-38" transform="scale(0.015625)"/>
       </defs>
       <use xlink:href="#DejaVuSans-30"/>
       <use x="63.623047" xlink:href="#DejaVuSans-2e"/>
       <use x="95.410156" xlink:href="#DejaVuSans-39"/>
       <use x="159.033203" xlink:href="#DejaVuSans-38"/>
      </g>
     </g>
    </g>
    <g id="ytick_6">
     <g id="line2d_12">
      <g>
       <use style="stroke:#000000;stroke-width:0.8;" x="36.465625" xlink:href="#mbefe3ab661" y="22.025246"/>
      </g>
     </g>
     <g id="text_12">
      <!-- 1.00 -->
      <g transform="translate(7.2 25.824464)scale(0.1 -0.1)">
       <use xlink:href="#DejaVuSans-31"/>
       <use x="63.623047" xlink:href="#DejaVuSans-2e"/>
       <use x="95.410156" xlink:href="#DejaVuSans-30"/>
       <use x="159.033203" xlink:href="#DejaVuSans-30"/>
      </g>
     </g>
    </g>
   </g>
   <g id="line2d_13">
    <path clip-path="url(#p287bdfc6d3)" d="M 827.665895 22.055657 
L 798.533665 22.236727 
L 779.112639 22.569083 
L 763.576085 23.050124 
L 750.952809 23.665346 
L 741.242703 24.345137 
L 732.503686 25.17489 
L 724.735734 26.145599 
L 717.938824 27.228304 
L 712.112938 28.372639 
L 706.287085 29.759342 
L 701.432232 31.133401 
L 696.577403 32.7375 
L 691.722597 34.603072 
L 687.838769 36.305537 
L 683.954955 38.212559 
L 680.071156 40.340019 
L 676.187372 42.702638 
L 672.303603 45.31341 
L 668.419849 48.183053 
L 664.536109 51.319515 
L 660.652384 54.727587 
L 656.768674 58.40865 
L 652.884978 62.36058 
L 649.001298 66.577814 
L 644.146718 72.208775 
L 639.292161 78.216929 
L 634.437627 84.573044 
L 628.612217 92.611749 
L 622.78684 101.037177 
L 615.990609 111.259219 
L 607.252664 124.825397 
L 588.806137 153.621246 
L 582.980987 162.290716 
L 578.126721 169.185916 
L 573.272478 175.69319 
L 569.3891 180.565769 
L 565.505737 185.101122 
L 561.622389 189.266435 
L 557.739055 193.035627 
L 554.826565 195.591741 
L 551.914083 197.911627 
L 549.001609 199.99576 
L 546.089143 201.848997 
L 543.176686 203.481028 
L 540.264237 204.906782 
L 536.380985 206.523221 
L 532.497747 207.87504 
L 526.672919 209.595643 
L 519.877327 211.583243 
L 515.994153 212.966631 
L 513.081781 214.234985 
L 510.169418 215.773078 
L 507.257063 217.645117 
L 505.315498 219.109182 
L 503.373937 220.766064 
L 501.432379 222.631347 
L 499.490825 224.718826 
L 497.549274 227.040101 
L 495.607727 229.604175 
L 492.695414 233.91774 
L 489.783109 238.795802 
L 486.870813 244.223853 
L 483.958524 250.164996 
L 481.046244 256.558178 
L 477.163217 265.633092 
L 464.543481 295.836476 
L 461.631256 301.962245 
L 459.689778 305.662422 
L 457.748303 308.991319 
L 455.806832 311.896438 
L 453.865365 314.328834 
L 451.923901 316.244175 
L 450.95317 316.99561 
L 449.982441 317.60376 
L 449.011712 318.064823 
L 448.040985 318.375459 
L 447.070258 318.532815 
L 446.099532 318.534545 
L 445.128807 318.378834 
L 444.158083 318.064404 
L 443.18736 317.590538 
L 442.216638 316.957084 
L 441.245916 316.164464 
L 440.275196 315.21368 
L 438.333758 312.844533 
L 436.392324 309.869227 
L 434.450894 306.316395 
L 432.509467 302.223325 
L 430.568044 297.635373 
L 427.655916 289.94253 
L 424.743797 281.459825 
L 420.860984 269.316737 
L 411.154016 238.381218 
L 408.241943 229.900674 
L 405.329879 222.15116 
L 403.388508 217.469904 
L 401.44714 213.221742 
L 399.505776 209.436885 
L 397.564416 206.137904 
L 395.623059 203.339731 
L 393.681706 201.049799 
L 391.740357 199.268307 
L 389.799011 197.988606 
L 387.857669 197.197679 
L 386.887 196.979832 
L 384.945663 196.885111 
L 383.004331 197.222555 
L 381.063002 197.961589 
L 379.121676 199.06813 
L 377.180355 200.505274 
L 375.239037 202.233966 
L 373.297723 204.213653 
L 370.385758 207.56304 
L 366.503152 212.51932 
L 355.826061 226.59747 
L 352.914146 229.997698 
L 350.00224 233.022309 
L 348.060974 234.790889 
L 346.119711 236.337574 
L 344.178452 237.645007 
L 342.237197 238.698371 
L 340.295946 239.485335 
L 338.354698 239.995982 
L 336.413454 240.222724 
L 334.472214 240.160213 
L 332.530977 239.805231 
L 330.589744 239.156588 
L 328.648514 238.215003 
L 326.707289 236.982988 
L 324.766067 235.464725 
L 322.824849 233.665946 
L 320.883634 231.593806 
L 318.942423 229.256759 
L 317.001216 226.664435 
L 314.089412 222.320921 
L 311.177617 217.467109 
L 308.265829 212.146609 
L 305.35405 206.40592 
L 301.471692 198.182121 
L 297.589347 189.415831 
L 292.736438 177.875975 
L 285.942403 161.03801 
L 271.38391 124.688082 
L 265.560571 110.848599 
L 260.707813 99.880302 
L 255.855079 89.536381 
L 251.972908 81.768116 
L 248.090752 74.488669 
L 244.208611 67.725521 
L 240.326485 61.498623 
L 237.414899 57.187974 
L 234.503323 53.188113 
L 231.591754 49.49857 
L 228.680194 46.116235 
L 225.768642 43.035381 
L 222.857098 40.24775 
L 219.945563 37.742702 
L 217.034036 35.507425 
L 214.122517 33.527214 
L 211.211007 31.785799 
L 208.299504 30.265719 
L 205.388011 28.94871 
L 201.506032 27.476321 
L 197.624068 26.287669 
L 193.742118 25.340103 
L 189.860184 24.59366 
L 185.007786 23.888465 
L 179.18494 23.296454 
L 172.391661 22.850144 
L 163.657511 22.515443 
L 151.04165 22.274856 
L 128.721661 22.108215 
L 110.283777 22.055995 
L 110.283777 22.055995 
" style="fill:none;stroke:#de5d5c;stroke-linecap:square;"/>
   </g>
   <g id="line2d_14">
    <path clip-path="url(#p287bdfc6d3)" d="M 835.42017 22.056454 
L 803.932992 22.238429 
L 783.896202 22.561814 
L 769.58445 22.995462 
L 758.135193 23.560969 
L 749.548334 24.188571 
L 741.915632 24.95922 
L 735.237064 25.854392 
L 729.512612 26.830302 
L 723.788191 28.040834 
L 719.017866 29.259287 
L 714.247563 30.694416 
L 709.477282 32.369266 
L 704.707023 34.304173 
L 699.936787 36.515492 
L 695.166573 39.014592 
L 690.396381 41.807273 
L 685.626211 44.893727 
L 680.856064 48.269098 
L 676.085939 51.924544 
L 671.315836 55.848662 
L 666.545756 60.029013 
L 660.821689 65.366721 
L 655.097654 71.037794 
L 649.373651 77.027566 
L 643.64968 83.32412 
L 637.925741 89.915917 
L 631.247854 97.959871 
L 624.570009 106.351156 
L 616.938241 116.297364 
L 606.444652 130.379287 
L 592.135387 149.593689 
L 585.457798 158.210172 
L 579.734186 165.250133 
L 574.964533 170.797209 
L 570.194903 175.996576 
L 566.379214 179.873706 
L 562.56354 183.477714 
L 558.747881 186.793065 
L 554.932235 189.809969 
L 551.116604 192.52557 
L 547.300987 194.945235 
L 543.485384 197.083928 
L 539.669796 198.967631 
L 534.900331 201.023482 
L 529.177001 203.196081 
L 520.592068 206.402718 
L 516.776565 208.066127 
L 513.914947 209.513306 
L 511.053337 211.192051 
L 508.191736 213.158013 
L 505.330142 215.466234 
L 502.468556 218.169143 
L 499.606978 221.314228 
L 496.745409 224.941428 
L 493.883847 229.080314 
L 491.022293 233.747162 
L 488.160748 238.942049 
L 485.29921 244.646138 
L 482.437681 250.819345 
L 478.62232 259.667537 
L 473.85314 271.402959 
L 466.222498 290.289182 
L 463.361022 296.871181 
L 460.499553 302.89564 
L 458.591913 306.509692 
L 456.684275 309.738791 
L 454.776641 312.531486 
L 452.869011 314.839888 
L 450.961384 316.620738 
L 450.007572 317.301334 
L 449.053761 317.836437 
L 448.099951 318.222386 
L 447.146142 318.45599 
L 446.192333 318.534545 
L 445.238526 318.455865 
L 444.284719 318.218292 
L 443.330913 317.820719 
L 442.377108 317.262603 
L 441.423304 316.543976 
L 440.469501 315.665453 
L 438.561898 313.434123 
L 436.654298 310.585335 
L 434.746701 307.14517 
L 432.839109 303.14879 
L 430.931519 298.639963 
L 429.023934 293.670388 
L 426.162562 285.482412 
L 423.301198 276.614322 
L 418.532276 260.993353 
L 412.809599 242.328276 
L 409.948273 233.608607 
L 407.086954 225.593825 
L 405.179413 220.73541 
L 403.271875 216.31984 
L 401.364341 212.385653 
L 399.456811 208.963297 
L 397.549284 206.074957 
L 395.641761 203.734525 
L 393.734241 201.947742 
L 392.780482 201.261602 
L 391.826725 200.712482 
L 390.872968 200.298954 
L 389.919212 200.019154 
L 388.965457 199.870802 
L 388.011703 199.851223 
L 387.05795 199.957366 
L 386.104197 200.185823 
L 384.196695 200.994426 
L 382.289197 202.243574 
L 380.381702 203.895632 
L 378.474211 205.909556 
L 376.566723 208.241654 
L 373.705498 212.236273 
L 370.844281 216.685602 
L 366.075604 224.679625 
L 359.399494 235.906449 
L 356.538317 240.347529 
L 353.677149 244.393596 
L 350.815988 247.94372 
L 348.908552 249.991785 
L 347.001119 251.758981 
L 345.093691 253.226371 
L 343.186265 254.37789 
L 341.278843 255.200273 
L 339.371425 255.682969 
L 337.464011 255.818052 
L 335.556599 255.600106 
L 333.649192 255.02612 
L 331.741788 254.09536 
L 329.834388 252.809252 
L 327.926991 251.171254 
L 326.019597 249.186731 
L 324.112208 246.862823 
L 322.204822 244.208324 
L 320.297439 241.233551 
L 318.39006 237.950223 
L 315.528998 232.475443 
L 312.667944 226.384557 
L 309.806898 219.731182 
L 306.945861 212.573067 
L 303.131156 202.349721 
L 299.316466 191.489468 
L 294.548123 177.257239 
L 285.965162 150.734756 
L 278.335924 127.378283 
L 273.567679 113.410919 
L 269.753099 102.781422 
L 265.938533 92.746596 
L 262.123982 83.389249 
L 259.263078 76.854346 
L 256.402182 70.754908 
L 253.541293 65.102833 
L 250.680413 59.903327 
L 247.819541 55.155151 
L 244.958677 50.85103 
L 242.097821 46.978209 
L 239.236973 43.51913 
L 236.376133 40.452203 
L 233.515301 37.752643 
L 230.654477 35.393332 
L 227.793661 33.345663 
L 224.932853 31.580354 
L 222.072053 30.068183 
L 219.211261 28.780631 
L 216.350477 27.690418 
L 212.536111 26.499772 
L 208.721759 25.559425 
L 203.953839 24.663068 
L 199.185942 24.004073 
L 193.464494 23.439907 
L 185.835947 22.945704 
L 176.300344 22.576167 
L 162.950648 22.298151 
L 141.972908 22.109538 
L 126.716641 22.056761 
L 126.716641 22.056761 
" style="fill:none;stroke:#9a3670;stroke-linecap:square;"/>
   </g>
   <g id="line2d_15">
    <path clip-path="url(#p287bdfc6d3)" d="M 74.51108 22.027466 
L 137.997673 22.150164 
L 159.64917 22.389635 
L 171.02538 22.718143 
L 178.731845 23.147005 
L 184.970412 23.715442 
L 190.108056 24.408514 
L 194.51175 25.223254 
L 198.54847 26.198009 
L 202.218215 27.313901 
L 205.520986 28.537444 
L 208.823756 29.998087 
L 212.126527 31.724266 
L 215.062323 33.503981 
L 217.99812 35.533833 
L 220.933916 37.830817 
L 223.869712 40.410081 
L 226.805508 43.284565 
L 229.741304 46.464719 
L 232.677101 49.958297 
L 235.612897 53.770242 
L 238.915668 58.441715 
L 242.218438 63.517391 
L 245.521209 68.991605 
L 249.190954 75.529393 
L 252.8607 82.52777 
L 256.897419 90.728023 
L 261.301114 100.226355 
L 266.071783 111.093481 
L 271.209426 123.356927 
L 277.814967 139.742552 
L 295.429745 183.832487 
L 300.200414 194.963837 
L 304.237133 203.800828 
L 307.539904 210.532442 
L 310.4757 216.075015 
L 313.411497 221.150344 
L 315.980318 225.170711 
L 318.54914 228.76763 
L 320.750987 231.493242 
L 322.952834 233.872863 
L 325.154681 235.8933 
L 326.989554 237.294582 
L 328.824427 238.433584 
L 330.659299 239.30642 
L 332.494172 239.910544 
L 334.329045 240.244848 
L 336.163917 240.309749 
L 337.99879 240.107286 
L 339.833662 239.641199 
L 341.668535 238.917021 
L 343.503408 237.942152 
L 345.33828 236.725933 
L 347.540128 234.964013 
L 349.741975 232.894545 
L 352.310796 230.128973 
L 354.879618 227.035029 
L 358.182389 222.672604 
L 362.586083 216.426577 
L 369.558599 206.487126 
L 372.494395 202.66699 
L 375.063217 199.675486 
L 377.265064 197.453439 
L 379.099937 195.891424 
L 380.934809 194.630741 
L 382.402708 193.862052 
L 383.870606 193.324446 
L 385.338504 193.033314 
L 386.806402 193.002808 
L 388.2743 193.24565 
L 389.742198 193.772946 
L 391.210096 194.594002 
L 392.677994 195.716153 
L 394.145892 197.144596 
L 395.613791 198.88224 
L 397.081689 200.929572 
L 398.916561 203.920869 
L 400.751434 207.382873 
L 402.586307 211.299194 
L 404.788154 216.565529 
L 406.990001 222.400054 
L 409.558823 229.836671 
L 412.494619 239.010103 
L 416.531339 252.402644 
L 424.604778 279.397499 
L 427.540574 288.415249 
L 430.109396 295.626691 
L 432.311243 301.180132 
L 434.146116 305.299737 
L 435.980989 308.91194 
L 437.815861 311.981576 
L 439.283759 314.02781 
L 440.751657 315.698456 
L 442.219555 316.986315 
L 443.320479 317.698558 
L 444.421403 318.192849 
L 445.522326 318.469833 
L 446.62325 318.531179 
L 447.724173 318.379554 
L 448.825097 318.018588 
L 449.926021 317.452837 
L 451.393919 316.389466 
L 452.861817 314.986952 
L 454.329715 313.262841 
L 456.164588 310.685617 
L 457.99946 307.679218 
L 460.201307 303.570123 
L 462.403154 298.994199 
L 465.338951 292.319239 
L 469.008696 283.350093 
L 480.384906 255.053082 
L 483.687677 247.623392 
L 486.623473 241.552409 
L 489.192295 236.703838 
L 491.761117 232.314001 
L 494.329938 228.392717 
L 496.531785 225.402392 
L 498.733633 222.745286 
L 500.93548 220.40724 
L 503.137327 218.369585 
L 505.339174 216.609971 
L 507.541021 215.103179 
L 510.109843 213.628242 
L 512.678665 212.414432 
L 515.614461 211.286708 
L 518.917232 210.265208 
L 523.320926 209.149653 
L 532.495289 206.893551 
L 536.165034 205.746006 
L 539.467805 204.496759 
L 542.770576 203.000085 
L 545.706372 201.437141 
L 548.642168 199.63943 
L 551.577964 197.59745 
L 554.513761 195.306795 
L 557.816531 192.432979 
L 561.119302 189.251232 
L 564.422073 185.773573 
L 568.091818 181.582849 
L 572.128538 176.608713 
L 576.532232 170.796609 
L 581.302901 164.115222 
L 586.807519 156.011877 
L 593.780035 145.326446 
L 607.358093 123.985888 
L 617.266405 108.644252 
L 624.238921 98.244605 
L 630.477488 89.34193 
L 635.982106 81.873606 
L 641.119749 75.280533 
L 645.890418 69.520063 
L 650.294112 64.535861 
L 654.697807 59.888773 
L 658.734526 55.935078 
L 662.771246 52.279094 
L 666.807966 48.921143 
L 670.844686 45.85724 
L 674.881406 43.07934 
L 678.918125 40.575804 
L 682.954845 38.332026 
L 686.991565 36.33115 
L 691.395259 34.403826 
L 695.798954 32.718914 
L 700.569622 31.138272 
L 705.707266 29.686371 
L 711.211884 28.37915 
L 717.083476 27.224186 
L 723.322043 26.221594 
L 730.294559 25.323188 
L 738.367999 24.513837 
L 747.542362 23.822732 
L 758.551598 23.226217 
L 771.762681 22.741326 
L 788.276534 22.367732 
L 808.093159 22.138432 
L 808.093159 22.138432 
" style="fill:none;stroke:#de5d5c;stroke-linecap:square;stroke-width:1.5;"/>
   </g>
   <g id="line2d_16">
    <path clip-path="url(#p287bdfc6d3)" d="M 74.51108 22.025455 
L 147.905985 22.137494 
L 169.557482 22.389744 
L 182.768565 22.752664 
L 191.575954 23.201072 
L 198.181495 23.742223 
L 203.686113 24.409117 
L 208.456782 25.217788 
L 212.493502 26.127982 
L 216.163247 27.185256 
L 219.466018 28.365975 
L 222.401814 29.631422 
L 225.33761 31.131879 
L 228.273406 32.89957 
L 230.842228 34.691617 
L 233.41105 36.736106 
L 235.979871 39.055106 
L 238.548693 41.669822 
L 241.117515 44.600059 
L 243.686336 47.863663 
L 246.255158 51.475974 
L 248.82398 55.449306 
L 251.392802 59.792474 
L 254.328598 65.215061 
L 257.264394 71.127495 
L 260.20019 77.522638 
L 263.502961 85.275132 
L 266.805732 93.58594 
L 270.475477 103.419059 
L 274.512197 114.87105 
L 279.282866 129.092232 
L 285.888407 149.56702 
L 297.264617 184.91331 
L 302.035286 198.937718 
L 306.072006 210.089987 
L 309.374777 218.589287 
L 312.310573 225.586896 
L 315.246369 231.992528 
L 317.815191 237.064335 
L 320.017038 240.985853 
L 322.218885 244.491843 
L 324.420732 247.563245 
L 326.255605 249.778708 
L 328.090478 251.672612 
L 329.92535 253.238187 
L 331.760223 254.470187 
L 333.228121 255.213122 
L 334.696019 255.739159 
L 336.163917 256.047985 
L 337.631815 256.140069 
L 339.099713 256.016692 
L 340.567612 255.679987 
L 342.03551 255.132968 
L 343.503408 254.379564 
L 345.33828 253.155098 
L 347.173153 251.627507 
L 349.008026 249.810917 
L 351.209873 247.273157 
L 353.41172 244.377046 
L 355.980542 240.597857 
L 358.916338 235.839309 
L 362.586083 229.414092 
L 373.228344 210.380305 
L 375.797166 206.338195 
L 377.999013 203.23725 
L 379.833886 200.967815 
L 381.668759 199.030052 
L 383.136657 197.746112 
L 384.604555 196.720267 
L 386.072453 195.970912 
L 387.540351 195.514918 
L 388.641275 195.374602 
L 389.742198 195.413493 
L 390.843122 195.636566 
L 391.944045 196.048062 
L 393.044969 196.651446 
L 394.512867 197.758896 
L 395.980765 199.215939 
L 397.448663 201.02355 
L 398.916561 203.179697 
L 400.384459 205.679239 
L 402.219332 209.273594 
L 404.054205 213.368003 
L 406.256052 218.897117 
L 408.457899 225.033216 
L 411.026721 232.847992 
L 414.329491 243.692569 
L 419.834109 262.774977 
L 424.604778 279.031954 
L 427.540574 288.315586 
L 430.109396 295.719602 
L 432.311243 301.398736 
L 434.146116 305.591138 
L 435.980989 309.24493 
L 437.448887 311.755595 
L 438.916785 313.88366 
L 440.384683 315.61813 
L 441.852581 316.951667 
L 442.953505 317.686362 
L 444.054428 318.19319 
L 445.155352 318.473076 
L 446.256275 318.52805 
L 447.357199 318.361211 
L 448.458122 317.976687 
L 449.559046 317.379586 
L 450.65997 316.57594 
L 452.127868 315.195162 
L 453.595766 313.478091 
L 455.063664 311.445507 
L 456.898537 308.495846 
L 458.733409 305.136615 
L 460.935256 300.636503 
L 463.504078 294.855187 
L 466.806849 286.807999 
L 471.944492 273.586778 
L 478.183059 257.682624 
L 481.852804 248.955031 
L 484.788601 242.488445 
L 487.724397 236.557143 
L 490.293219 231.839866 
L 492.86204 227.576958 
L 495.430862 223.767428 
L 497.999684 220.398937 
L 500.201531 217.846378 
L 502.403378 215.583715 
L 504.9722 213.281555 
L 507.541021 211.306502 
L 510.109843 209.617507 
L 513.045639 207.982941 
L 515.981435 206.602733 
L 519.651181 205.140715 
L 524.42185 203.502627 
L 534.697136 200.047988 
L 539.100831 198.281711 
L 542.770576 196.580913 
L 546.440321 194.634944 
L 550.110066 192.420489 
L 553.779812 189.923848 
L 557.449557 187.139707 
L 561.119302 184.069967 
L 564.789047 180.722669 
L 568.825767 176.735927 
L 573.229462 172.049658 
L 578.00013 166.617868 
L 583.137774 160.415424 
L 589.009366 152.969833 
L 596.348857 143.290872 
L 624.605895 105.642346 
L 631.578411 96.925082 
L 638.183953 89.022479 
L 644.42252 81.904373 
L 650.294112 75.52568 
L 656.165705 69.468248 
L 661.670323 64.091534 
L 667.17494 59.02065 
L 672.312584 54.578979 
L 677.450227 50.435303 
L 682.220896 46.869373 
L 686.991565 43.587421 
L 691.395259 40.817946 
L 695.798954 38.301913 
L 700.202648 36.038803 
L 704.606342 34.023594 
L 709.010037 32.246862 
L 713.413731 30.695258 
L 718.1844 29.24922 
L 723.322043 27.938393 
L 728.826661 26.782396 
L 734.698253 25.789788 
L 740.93682 24.958527 
L 748.276311 24.212766 
L 756.716725 23.58761 
L 766.992012 23.061402 
L 779.83612 22.638008 
L 796.716948 22.315215 
L 808.093159 22.188678 
L 808.093159 22.188678 
" style="fill:none;stroke:#9a3670;stroke-linecap:square;stroke-width:1.5;"/>
   </g>
   <g id="patch_3">
    <path d="M 36.465625 333.36 
L 36.465625 7.2 
" style="fill:none;stroke:#000000;stroke-linecap:square;stroke-linejoin:miter;stroke-width:0.8;"/>
   </g>
   <g id="patch_4">
    <path d="M 873.465625 333.36 
L 873.465625 7.2 
" style="fill:none;stroke:#000000;stroke-linecap:square;stroke-linejoin:miter;stroke-width:0.8;"/>
   </g>
   <g id="patch_5">
    <path d="M 36.465625 333.36 
L 873.465625 333.36 
" style="fill:none;stroke:#000000;stroke-linecap:square;stroke-linejoin:miter;stroke-width:0.8;"/>
   </g>
   <g id="patch_6">
    <path d="M 36.465625 7.2 
L 873.465625 7.2 
" style="fill:none;stroke:#000000;stroke-linecap:square;stroke-linejoin:miter;stroke-width:0.8;"/>
   </g>
   <g id="legend_1">
    <g id="patch_7">
     <path d="M 43.465625 328.36 
L 101.339063 328.36 
Q 103.339063 328.36 103.339063 326.36 
L 103.339063 283.0475 
Q 103.339063 281.0475 101.339063 281.0475 
L 43.465625 281.0475 
Q 41.465625 281.0475 41.465625 283.0475 
L 41.465625 326.36 
Q 41.465625 328.36 43.465625 328.36 
z
" style="fill:#ffffff;opacity:0.8;stroke:#cccccc;stroke-linejoin:miter;"/>
    </g>
    <g id="text_13">
     <!-- Delta_C -->
     <g transform="translate(53.071094 292.645938)scale(0.1 -0.1)">
      <defs>
       <path d="M 1259 4147 
L 1259 519 
L 2022 519 
Q 2988 519 3436 956 
Q 3884 1394 3884 2338 
Q 3884 3275 3436 3711 
Q 2988 4147 2022 4147 
L 1259 4147 
z
M 628 4666 
L 1925 4666 
Q 3281 4666 3915 4102 
Q 4550 3538 4550 2338 
Q 4550 1131 3912 565 
Q 3275 0 1925 0 
L 628 0 
L 628 4666 
z
" id="DejaVuSans-44" transform="scale(0.015625)"/>
       <path d="M 3597 1894 
L 3597 1613 
L 953 1613 
Q 991 1019 1311 708 
Q 1631 397 2203 397 
Q 2534 397 2845 478 
Q 3156 559 3463 722 
L 3463 178 
Q 3153 47 2828 -22 
Q 2503 -91 2169 -91 
Q 1331 -91 842 396 
Q 353 884 353 1716 
Q 353 2575 817 3079 
Q 1281 3584 2069 3584 
Q 2775 3584 3186 3129 
Q 3597 2675 3597 1894 
z
M 3022 2063 
Q 3016 2534 2758 2815 
Q 2500 3097 2075 3097 
Q 1594 3097 1305 2825 
Q 1016 2553 972 2059 
L 3022 2063 
z
" id="DejaVuSans-65" transform="scale(0.015625)"/>
       <path d="M 603 4863 
L 1178 4863 
L 1178 0 
L 603 0 
L 603 4863 
z
" id="DejaVuSans-6c" transform="scale(0.015625)"/>
       <path d="M 1172 4494 
L 1172 3500 
L 2356 3500 
L 2356 3053 
L 1172 3053 
L 1172 1153 
Q 1172 725 1289 603 
Q 1406 481 1766 481 
L 2356 481 
L 2356 0 
L 1766 0 
Q 1100 0 847 248 
Q 594 497 594 1153 
L 594 3053 
L 172 3053 
L 172 3500 
L 594 3500 
L 594 4494 
L 1172 4494 
z
" id="DejaVuSans-74" transform="scale(0.015625)"/>
       <path d="M 2194 1759 
Q 1497 1759 1228 1600 
Q 959 1441 959 1056 
Q 959 750 1161 570 
Q 1363 391 1709 391 
Q 2188 391 2477 730 
Q 2766 1069 2766 1631 
L 2766 1759 
L 2194 1759 
z
M 3341 1997 
L 3341 0 
L 2766 0 
L 2766 531 
Q 2569 213 2275 61 
Q 1981 -91 1556 -91 
Q 1019 -91 701 211 
Q 384 513 384 1019 
Q 384 1609 779 1909 
Q 1175 2209 1959 2209 
L 2766 2209 
L 2766 2266 
Q 2766 2663 2505 2880 
Q 2244 3097 1772 3097 
Q 1472 3097 1187 3025 
Q 903 2953 641 2809 
L 641 3341 
Q 956 3463 1253 3523 
Q 1550 3584 1831 3584 
Q 2591 3584 2966 3190 
Q 3341 2797 3341 1997 
z
" id="DejaVuSans-61" transform="scale(0.015625)"/>
       <path d="M 3263 -1063 
L 3263 -1509 
L -63 -1509 
L -63 -1063 
L 3263 -1063 
z
" id="DejaVuSans-5f" transform="scale(0.015625)"/>
       <path d="M 4122 4306 
L 4122 3641 
Q 3803 3938 3442 4084 
Q 3081 4231 2675 4231 
Q 1875 4231 1450 3742 
Q 1025 3253 1025 2328 
Q 1025 1406 1450 917 
Q 1875 428 2675 428 
Q 3081 428 3442 575 
Q 3803 722 4122 1019 
L 4122 359 
Q 3791 134 3420 21 
Q 3050 -91 2638 -91 
Q 1578 -91 968 557 
Q 359 1206 359 2328 
Q 359 3453 968 4101 
Q 1578 4750 2638 4750 
Q 3056 4750 3426 4639 
Q 3797 4528 4122 4306 
z
" id="DejaVuSans-43" transform="scale(0.015625)"/>
      </defs>
      <use xlink:href="#DejaVuSans-44"/>
      <use x="77.001953" xlink:href="#DejaVuSans-65"/>
      <use x="138.525391" xlink:href="#DejaVuSans-6c"/>
      <use x="166.308594" xlink:href="#DejaVuSans-74"/>
      <use x="205.517578" xlink:href="#DejaVuSans-61"/>
      <use x="266.796875" xlink:href="#DejaVuSans-5f"/>
      <use x="316.796875" xlink:href="#DejaVuSans-43"/>
     </g>
    </g>
    <g id="line2d_17">
     <path d="M 45.465625 304.102188 
L 65.465625 304.102188 
" style="fill:none;stroke:#de5d5c;stroke-linecap:square;"/>
    </g>
    <g id="line2d_18"/>
    <g id="text_14">
     <!-- 0 -->
     <g transform="translate(73.465625 307.602188)scale(0.1 -0.1)">
      <use xlink:href="#DejaVuSans-30"/>
     </g>
    </g>
    <g id="line2d_19">
     <path d="M 45.465625 318.780313 
L 65.465625 318.780313 
" style="fill:none;stroke:#9a3670;stroke-linecap:square;"/>
    </g>
    <g id="line2d_20"/>
    <g id="text_15">
     <!-- -0.17 -->
     <g transform="translate(73.465625 322.280313)scale(0.1 -0.1)">
      <defs>
       <path d="M 313 2009 
L 1997 2009 
L 1997 1497 
L 313 1497 
L 313 2009 
z
" id="DejaVuSans-2d" transform="scale(0.015625)"/>
       <path d="M 525 4666 
L 3525 4666 
L 3525 4397 
L 1831 0 
L 1172 0 
L 2766 4134 
L 525 4134 
L 525 4666 
z
" id="DejaVuSans-37" transform="scale(0.015625)"/>
      </defs>
      <use xlink:href="#DejaVuSans-2d"/>
      <use x="36.083984" xlink:href="#DejaVuSans-30"/>
      <use x="99.707031" xlink:href="#DejaVuSans-2e"/>
      <use x="131.494141" xlink:href="#DejaVuSans-31"/>
      <use x="195.117188" xlink:href="#DejaVuSans-37"/>
     </g>
    </g>
   </g>
  </g>
 </g>
 <defs>
  <clipPath id="p287bdfc6d3">
   <rect height="326.16" width="837" x="36.465625" y="7.2"/>
  </clipPath>
 </defs>
</svg>
