<?xml version="1.0" encoding="utf-8" standalone="no"?>
<!DOCTYPE svg PUBLIC "-//W3C//DTD SVG 1.1//EN"
  "http://www.w3.org/Graphics/SVG/1.1/DTD/svg11.dtd">
<svg height="386.034375pt" version="1.1" viewBox="0 0 894.34375 386.034375" width="894.34375pt" xmlns="http://www.w3.org/2000/svg" xmlns:xlink="http://www.w3.org/1999/xlink">
 <metadata>
  <rdf:RDF xmlns:cc="http://creativecommons.org/ns#" xmlns:dc="http://purl.org/dc/elements/1.1/" xmlns:rdf="http://www.w3.org/1999/02/22-rdf-syntax-ns#">
   <cc:Work>
    <dc:type rdf:resource="http://purl.org/dc/dcmitype/StillImage"/>
    <dc:date>2022-10-13T19:39:39.979859</dc:date>
    <dc:format>image/svg+xml</dc:format>
    <dc:creator>
     <cc:Agent>
      <dc:title>Matplotlib v3.4.3, https://matplotlib.org/</dc:title>
     </cc:Agent>
    </dc:creator>
   </cc:Work>
  </rdf:RDF>
 </metadata>
 <defs>
  <style type="text/css">*{stroke-linecap:butt;stroke-linejoin:round;}</style>
 </defs>
 <g id="figure_1">
  <g id="patch_1">
   <path d="M 0 386.034375 
L 894.34375 386.034375 
L 894.34375 0 
L 0 0 
z
" style="fill:#ffffff;"/>
  </g>
  <g id="axes_1">
   <g id="patch_2">
    <path d="M 50.14375 348.478125 
L 887.14375 348.478125 
L 887.14375 22.318125 
L 50.14375 22.318125 
z
" style="fill:#ffffff;"/>
   </g>
   <g id="matplotlib.axis_1">
    <g id="xtick_1">
     <g id="line2d_1">
      <defs>
       <path d="M 0 0 
L 0 3.5 
" id="m518a77d1d0" style="stroke:#000000;stroke-width:0.8;"/>
      </defs>
      <g>
       <use style="stroke:#000000;stroke-width:0.8;" x="143.891025" xlink:href="#m518a77d1d0" y="348.478125"/>
      </g>
     </g>
     <g id="text_1">
      <!-- 6612.5 -->
      <g transform="translate(126.395713 363.076562)scale(0.1 -0.1)">
       <defs>
        <path d="M 2113 2584 
Q 1688 2584 1439 2293 
Q 1191 2003 1191 1497 
Q 1191 994 1439 701 
Q 1688 409 2113 409 
Q 2538 409 2786 701 
Q 3034 994 3034 1497 
Q 3034 2003 2786 2293 
Q 2538 2584 2113 2584 
z
M 3366 4563 
L 3366 3988 
Q 3128 4100 2886 4159 
Q 2644 4219 2406 4219 
Q 1781 4219 1451 3797 
Q 1122 3375 1075 2522 
Q 1259 2794 1537 2939 
Q 1816 3084 2150 3084 
Q 2853 3084 3261 2657 
Q 3669 2231 3669 1497 
Q 3669 778 3244 343 
Q 2819 -91 2113 -91 
Q 1303 -91 875 529 
Q 447 1150 447 2328 
Q 447 3434 972 4092 
Q 1497 4750 2381 4750 
Q 2619 4750 2861 4703 
Q 3103 4656 3366 4563 
z
" id="DejaVuSans-36" transform="scale(0.015625)"/>
        <path d="M 794 531 
L 1825 531 
L 1825 4091 
L 703 3866 
L 703 4441 
L 1819 4666 
L 2450 4666 
L 2450 531 
L 3481 531 
L 3481 0 
L 794 0 
L 794 531 
z
" id="DejaVuSans-31" transform="scale(0.015625)"/>
        <path d="M 1228 531 
L 3431 531 
L 3431 0 
L 469 0 
L 469 531 
Q 828 903 1448 1529 
Q 2069 2156 2228 2338 
Q 2531 2678 2651 2914 
Q 2772 3150 2772 3378 
Q 2772 3750 2511 3984 
Q 2250 4219 1831 4219 
Q 1534 4219 1204 4116 
Q 875 4013 500 3803 
L 500 4441 
Q 881 4594 1212 4672 
Q 1544 4750 1819 4750 
Q 2544 4750 2975 4387 
Q 3406 4025 3406 3419 
Q 3406 3131 3298 2873 
Q 3191 2616 2906 2266 
Q 2828 2175 2409 1742 
Q 1991 1309 1228 531 
z
" id="DejaVuSans-32" transform="scale(0.015625)"/>
        <path d="M 684 794 
L 1344 794 
L 1344 0 
L 684 0 
L 684 794 
z
" id="DejaVuSans-2e" transform="scale(0.015625)"/>
        <path d="M 691 4666 
L 3169 4666 
L 3169 4134 
L 1269 4134 
L 1269 2991 
Q 1406 3038 1543 3061 
Q 1681 3084 1819 3084 
Q 2600 3084 3056 2656 
Q 3513 2228 3513 1497 
Q 3513 744 3044 326 
Q 2575 -91 1722 -91 
Q 1428 -91 1123 -41 
Q 819 9 494 109 
L 494 744 
Q 775 591 1075 516 
Q 1375 441 1709 441 
Q 2250 441 2565 725 
Q 2881 1009 2881 1497 
Q 2881 1984 2565 2268 
Q 2250 2553 1709 2553 
Q 1456 2553 1204 2497 
Q 953 2441 691 2322 
L 691 4666 
z
" id="DejaVuSans-35" transform="scale(0.015625)"/>
       </defs>
       <use xlink:href="#DejaVuSans-36"/>
       <use x="63.623047" xlink:href="#DejaVuSans-36"/>
       <use x="127.246094" xlink:href="#DejaVuSans-31"/>
       <use x="190.869141" xlink:href="#DejaVuSans-32"/>
       <use x="254.492188" xlink:href="#DejaVuSans-2e"/>
       <use x="286.279297" xlink:href="#DejaVuSans-35"/>
      </g>
     </g>
    </g>
    <g id="xtick_2">
     <g id="line2d_2">
      <g>
       <use style="stroke:#000000;stroke-width:0.8;" x="241.375109" xlink:href="#m518a77d1d0" y="348.478125"/>
      </g>
     </g>
     <g id="text_2">
      <!-- 6613.0 -->
      <g transform="translate(223.879796 363.076562)scale(0.1 -0.1)">
       <defs>
        <path d="M 2597 2516 
Q 3050 2419 3304 2112 
Q 3559 1806 3559 1356 
Q 3559 666 3084 287 
Q 2609 -91 1734 -91 
Q 1441 -91 1130 -33 
Q 819 25 488 141 
L 488 750 
Q 750 597 1062 519 
Q 1375 441 1716 441 
Q 2309 441 2620 675 
Q 2931 909 2931 1356 
Q 2931 1769 2642 2001 
Q 2353 2234 1838 2234 
L 1294 2234 
L 1294 2753 
L 1863 2753 
Q 2328 2753 2575 2939 
Q 2822 3125 2822 3475 
Q 2822 3834 2567 4026 
Q 2313 4219 1838 4219 
Q 1578 4219 1281 4162 
Q 984 4106 628 3988 
L 628 4550 
Q 988 4650 1302 4700 
Q 1616 4750 1894 4750 
Q 2613 4750 3031 4423 
Q 3450 4097 3450 3541 
Q 3450 3153 3228 2886 
Q 3006 2619 2597 2516 
z
" id="DejaVuSans-33" transform="scale(0.015625)"/>
        <path d="M 2034 4250 
Q 1547 4250 1301 3770 
Q 1056 3291 1056 2328 
Q 1056 1369 1301 889 
Q 1547 409 2034 409 
Q 2525 409 2770 889 
Q 3016 1369 3016 2328 
Q 3016 3291 2770 3770 
Q 2525 4250 2034 4250 
z
M 2034 4750 
Q 2819 4750 3233 4129 
Q 3647 3509 3647 2328 
Q 3647 1150 3233 529 
Q 2819 -91 2034 -91 
Q 1250 -91 836 529 
Q 422 1150 422 2328 
Q 422 3509 836 4129 
Q 1250 4750 2034 4750 
z
" id="DejaVuSans-30" transform="scale(0.015625)"/>
       </defs>
       <use xlink:href="#DejaVuSans-36"/>
       <use x="63.623047" xlink:href="#DejaVuSans-36"/>
       <use x="127.246094" xlink:href="#DejaVuSans-31"/>
       <use x="190.869141" xlink:href="#DejaVuSans-33"/>
       <use x="254.492188" xlink:href="#DejaVuSans-2e"/>
       <use x="286.279297" xlink:href="#DejaVuSans-30"/>
      </g>
     </g>
    </g>
    <g id="xtick_3">
     <g id="line2d_3">
      <g>
       <use style="stroke:#000000;stroke-width:0.8;" x="338.859193" xlink:href="#m518a77d1d0" y="348.478125"/>
      </g>
     </g>
     <g id="text_3">
      <!-- 6613.5 -->
      <g transform="translate(321.36388 363.076562)scale(0.1 -0.1)">
       <use xlink:href="#DejaVuSans-36"/>
       <use x="63.623047" xlink:href="#DejaVuSans-36"/>
       <use x="127.246094" xlink:href="#DejaVuSans-31"/>
       <use x="190.869141" xlink:href="#DejaVuSans-33"/>
       <use x="254.492188" xlink:href="#DejaVuSans-2e"/>
       <use x="286.279297" xlink:href="#DejaVuSans-35"/>
      </g>
     </g>
    </g>
    <g id="xtick_4">
     <g id="line2d_4">
      <g>
       <use style="stroke:#000000;stroke-width:0.8;" x="436.343276" xlink:href="#m518a77d1d0" y="348.478125"/>
      </g>
     </g>
     <g id="text_4">
      <!-- 6614.0 -->
      <g transform="translate(418.847964 363.076562)scale(0.1 -0.1)">
       <defs>
        <path d="M 2419 4116 
L 825 1625 
L 2419 1625 
L 2419 4116 
z
M 2253 4666 
L 3047 4666 
L 3047 1625 
L 3713 1625 
L 3713 1100 
L 3047 1100 
L 3047 0 
L 2419 0 
L 2419 1100 
L 313 1100 
L 313 1709 
L 2253 4666 
z
" id="DejaVuSans-34" transform="scale(0.015625)"/>
       </defs>
       <use xlink:href="#DejaVuSans-36"/>
       <use x="63.623047" xlink:href="#DejaVuSans-36"/>
       <use x="127.246094" xlink:href="#DejaVuSans-31"/>
       <use x="190.869141" xlink:href="#DejaVuSans-34"/>
       <use x="254.492188" xlink:href="#DejaVuSans-2e"/>
       <use x="286.279297" xlink:href="#DejaVuSans-30"/>
      </g>
     </g>
    </g>
    <g id="xtick_5">
     <g id="line2d_5">
      <g>
       <use style="stroke:#000000;stroke-width:0.8;" x="533.82736" xlink:href="#m518a77d1d0" y="348.478125"/>
      </g>
     </g>
     <g id="text_5">
      <!-- 6614.5 -->
      <g transform="translate(516.332047 363.076562)scale(0.1 -0.1)">
       <use xlink:href="#DejaVuSans-36"/>
       <use x="63.623047" xlink:href="#DejaVuSans-36"/>
       <use x="127.246094" xlink:href="#DejaVuSans-31"/>
       <use x="190.869141" xlink:href="#DejaVuSans-34"/>
       <use x="254.492188" xlink:href="#DejaVuSans-2e"/>
       <use x="286.279297" xlink:href="#DejaVuSans-35"/>
      </g>
     </g>
    </g>
    <g id="xtick_6">
     <g id="line2d_6">
      <g>
       <use style="stroke:#000000;stroke-width:0.8;" x="631.311444" xlink:href="#m518a77d1d0" y="348.478125"/>
      </g>
     </g>
     <g id="text_6">
      <!-- 6615.0 -->
      <g transform="translate(613.816131 363.076562)scale(0.1 -0.1)">
       <use xlink:href="#DejaVuSans-36"/>
       <use x="63.623047" xlink:href="#DejaVuSans-36"/>
       <use x="127.246094" xlink:href="#DejaVuSans-31"/>
       <use x="190.869141" xlink:href="#DejaVuSans-35"/>
       <use x="254.492188" xlink:href="#DejaVuSans-2e"/>
       <use x="286.279297" xlink:href="#DejaVuSans-30"/>
      </g>
     </g>
    </g>
    <g id="xtick_7">
     <g id="line2d_7">
      <g>
       <use style="stroke:#000000;stroke-width:0.8;" x="728.795527" xlink:href="#m518a77d1d0" y="348.478125"/>
      </g>
     </g>
     <g id="text_7">
      <!-- 6615.5 -->
      <g transform="translate(711.300215 363.076562)scale(0.1 -0.1)">
       <use xlink:href="#DejaVuSans-36"/>
       <use x="63.623047" xlink:href="#DejaVuSans-36"/>
       <use x="127.246094" xlink:href="#DejaVuSans-31"/>
       <use x="190.869141" xlink:href="#DejaVuSans-35"/>
       <use x="254.492188" xlink:href="#DejaVuSans-2e"/>
       <use x="286.279297" xlink:href="#DejaVuSans-35"/>
      </g>
     </g>
    </g>
    <g id="xtick_8">
     <g id="line2d_8">
      <g>
       <use style="stroke:#000000;stroke-width:0.8;" x="826.279611" xlink:href="#m518a77d1d0" y="348.478125"/>
      </g>
     </g>
     <g id="text_8">
      <!-- 6616.0 -->
      <g transform="translate(808.784299 363.076562)scale(0.1 -0.1)">
       <use xlink:href="#DejaVuSans-36"/>
       <use x="63.623047" xlink:href="#DejaVuSans-36"/>
       <use x="127.246094" xlink:href="#DejaVuSans-31"/>
       <use x="190.869141" xlink:href="#DejaVuSans-36"/>
       <use x="254.492188" xlink:href="#DejaVuSans-2e"/>
       <use x="286.279297" xlink:href="#DejaVuSans-30"/>
      </g>
     </g>
    </g>
    <g id="text_9">
     <!-- Wavelength -->
     <g transform="translate(438.98125 376.754687)scale(0.1 -0.1)">
      <defs>
       <path d="M 213 4666 
L 850 4666 
L 1831 722 
L 2809 4666 
L 3519 4666 
L 4500 722 
L 5478 4666 
L 6119 4666 
L 4947 0 
L 4153 0 
L 3169 4050 
L 2175 0 
L 1381 0 
L 213 4666 
z
" id="DejaVuSans-57" transform="scale(0.015625)"/>
       <path d="M 2194 1759 
Q 1497 1759 1228 1600 
Q 959 1441 959 1056 
Q 959 750 1161 570 
Q 1363 391 1709 391 
Q 2188 391 2477 730 
Q 2766 1069 2766 1631 
L 2766 1759 
L 2194 1759 
z
M 3341 1997 
L 3341 0 
L 2766 0 
L 2766 531 
Q 2569 213 2275 61 
Q 1981 -91 1556 -91 
Q 1019 -91 701 211 
Q 384 513 384 1019 
Q 384 1609 779 1909 
Q 1175 2209 1959 2209 
L 2766 2209 
L 2766 2266 
Q 2766 2663 2505 2880 
Q 2244 3097 1772 3097 
Q 1472 3097 1187 3025 
Q 903 2953 641 2809 
L 641 3341 
Q 956 3463 1253 3523 
Q 1550 3584 1831 3584 
Q 2591 3584 2966 3190 
Q 3341 2797 3341 1997 
z
" id="DejaVuSans-61" transform="scale(0.015625)"/>
       <path d="M 191 3500 
L 800 3500 
L 1894 563 
L 2988 3500 
L 3597 3500 
L 2284 0 
L 1503 0 
L 191 3500 
z
" id="DejaVuSans-76" transform="scale(0.015625)"/>
       <path d="M 3597 1894 
L 3597 1613 
L 953 1613 
Q 991 1019 1311 708 
Q 1631 397 2203 397 
Q 2534 397 2845 478 
Q 3156 559 3463 722 
L 3463 178 
Q 3153 47 2828 -22 
Q 2503 -91 2169 -91 
Q 1331 -91 842 396 
Q 353 884 353 1716 
Q 353 2575 817 3079 
Q 1281 3584 2069 3584 
Q 2775 3584 3186 3129 
Q 3597 2675 3597 1894 
z
M 3022 2063 
Q 3016 2534 2758 2815 
Q 2500 3097 2075 3097 
Q 1594 3097 1305 2825 
Q 1016 2553 972 2059 
L 3022 2063 
z
" id="DejaVuSans-65" transform="scale(0.015625)"/>
       <path d="M 603 4863 
L 1178 4863 
L 1178 0 
L 603 0 
L 603 4863 
z
" id="DejaVuSans-6c" transform="scale(0.015625)"/>
       <path d="M 3513 2113 
L 3513 0 
L 2938 0 
L 2938 2094 
Q 2938 2591 2744 2837 
Q 2550 3084 2163 3084 
Q 1697 3084 1428 2787 
Q 1159 2491 1159 1978 
L 1159 0 
L 581 0 
L 581 3500 
L 1159 3500 
L 1159 2956 
Q 1366 3272 1645 3428 
Q 1925 3584 2291 3584 
Q 2894 3584 3203 3211 
Q 3513 2838 3513 2113 
z
" id="DejaVuSans-6e" transform="scale(0.015625)"/>
       <path d="M 2906 1791 
Q 2906 2416 2648 2759 
Q 2391 3103 1925 3103 
Q 1463 3103 1205 2759 
Q 947 2416 947 1791 
Q 947 1169 1205 825 
Q 1463 481 1925 481 
Q 2391 481 2648 825 
Q 2906 1169 2906 1791 
z
M 3481 434 
Q 3481 -459 3084 -895 
Q 2688 -1331 1869 -1331 
Q 1566 -1331 1297 -1286 
Q 1028 -1241 775 -1147 
L 775 -588 
Q 1028 -725 1275 -790 
Q 1522 -856 1778 -856 
Q 2344 -856 2625 -561 
Q 2906 -266 2906 331 
L 2906 616 
Q 2728 306 2450 153 
Q 2172 0 1784 0 
Q 1141 0 747 490 
Q 353 981 353 1791 
Q 353 2603 747 3093 
Q 1141 3584 1784 3584 
Q 2172 3584 2450 3431 
Q 2728 3278 2906 2969 
L 2906 3500 
L 3481 3500 
L 3481 434 
z
" id="DejaVuSans-67" transform="scale(0.015625)"/>
       <path d="M 1172 4494 
L 1172 3500 
L 2356 3500 
L 2356 3053 
L 1172 3053 
L 1172 1153 
Q 1172 725 1289 603 
Q 1406 481 1766 481 
L 2356 481 
L 2356 0 
L 1766 0 
Q 1100 0 847 248 
Q 594 497 594 1153 
L 594 3053 
L 172 3053 
L 172 3500 
L 594 3500 
L 594 4494 
L 1172 4494 
z
" id="DejaVuSans-74" transform="scale(0.015625)"/>
       <path d="M 3513 2113 
L 3513 0 
L 2938 0 
L 2938 2094 
Q 2938 2591 2744 2837 
Q 2550 3084 2163 3084 
Q 1697 3084 1428 2787 
Q 1159 2491 1159 1978 
L 1159 0 
L 581 0 
L 581 4863 
L 1159 4863 
L 1159 2956 
Q 1366 3272 1645 3428 
Q 1925 3584 2291 3584 
Q 2894 3584 3203 3211 
Q 3513 2838 3513 2113 
z
" id="DejaVuSans-68" transform="scale(0.015625)"/>
      </defs>
      <use xlink:href="#DejaVuSans-57"/>
      <use x="92.501953" xlink:href="#DejaVuSans-61"/>
      <use x="153.78125" xlink:href="#DejaVuSans-76"/>
      <use x="212.960938" xlink:href="#DejaVuSans-65"/>
      <use x="274.484375" xlink:href="#DejaVuSans-6c"/>
      <use x="302.267578" xlink:href="#DejaVuSans-65"/>
      <use x="363.791016" xlink:href="#DejaVuSans-6e"/>
      <use x="427.169922" xlink:href="#DejaVuSans-67"/>
      <use x="490.646484" xlink:href="#DejaVuSans-74"/>
      <use x="529.855469" xlink:href="#DejaVuSans-68"/>
     </g>
    </g>
   </g>
   <g id="matplotlib.axis_2">
    <g id="ytick_1">
     <g id="line2d_9">
      <defs>
       <path d="M 0 0 
L -3.5 0 
" id="m92408c6c39" style="stroke:#000000;stroke-width:0.8;"/>
      </defs>
      <g>
       <use style="stroke:#000000;stroke-width:0.8;" x="50.14375" xlink:href="#m92408c6c39" y="333.65267"/>
      </g>
     </g>
     <g id="text_10">
      <!-- 0.94 -->
      <g transform="translate(20.878125 337.451889)scale(0.1 -0.1)">
       <defs>
        <path d="M 703 97 
L 703 672 
Q 941 559 1184 500 
Q 1428 441 1663 441 
Q 2288 441 2617 861 
Q 2947 1281 2994 2138 
Q 2813 1869 2534 1725 
Q 2256 1581 1919 1581 
Q 1219 1581 811 2004 
Q 403 2428 403 3163 
Q 403 3881 828 4315 
Q 1253 4750 1959 4750 
Q 2769 4750 3195 4129 
Q 3622 3509 3622 2328 
Q 3622 1225 3098 567 
Q 2575 -91 1691 -91 
Q 1453 -91 1209 -44 
Q 966 3 703 97 
z
M 1959 2075 
Q 2384 2075 2632 2365 
Q 2881 2656 2881 3163 
Q 2881 3666 2632 3958 
Q 2384 4250 1959 4250 
Q 1534 4250 1286 3958 
Q 1038 3666 1038 3163 
Q 1038 2656 1286 2365 
Q 1534 2075 1959 2075 
z
" id="DejaVuSans-39" transform="scale(0.015625)"/>
       </defs>
       <use xlink:href="#DejaVuSans-30"/>
       <use x="63.623047" xlink:href="#DejaVuSans-2e"/>
       <use x="95.410156" xlink:href="#DejaVuSans-39"/>
       <use x="159.033203" xlink:href="#DejaVuSans-34"/>
      </g>
     </g>
    </g>
    <g id="ytick_2">
     <g id="line2d_10">
      <g>
       <use style="stroke:#000000;stroke-width:0.8;" x="50.14375" xlink:href="#m92408c6c39" y="284.234489"/>
      </g>
     </g>
     <g id="text_11">
      <!-- 0.95 -->
      <g transform="translate(20.878125 288.033707)scale(0.1 -0.1)">
       <use xlink:href="#DejaVuSans-30"/>
       <use x="63.623047" xlink:href="#DejaVuSans-2e"/>
       <use x="95.410156" xlink:href="#DejaVuSans-39"/>
       <use x="159.033203" xlink:href="#DejaVuSans-35"/>
      </g>
     </g>
    </g>
    <g id="ytick_3">
     <g id="line2d_11">
      <g>
       <use style="stroke:#000000;stroke-width:0.8;" x="50.14375" xlink:href="#m92408c6c39" y="234.816307"/>
      </g>
     </g>
     <g id="text_12">
      <!-- 0.96 -->
      <g transform="translate(20.878125 238.615526)scale(0.1 -0.1)">
       <use xlink:href="#DejaVuSans-30"/>
       <use x="63.623047" xlink:href="#DejaVuSans-2e"/>
       <use x="95.410156" xlink:href="#DejaVuSans-39"/>
       <use x="159.033203" xlink:href="#DejaVuSans-36"/>
      </g>
     </g>
    </g>
    <g id="ytick_4">
     <g id="line2d_12">
      <g>
       <use style="stroke:#000000;stroke-width:0.8;" x="50.14375" xlink:href="#m92408c6c39" y="185.398125"/>
      </g>
     </g>
     <g id="text_13">
      <!-- 0.97 -->
      <g transform="translate(20.878125 189.197344)scale(0.1 -0.1)">
       <defs>
        <path d="M 525 4666 
L 3525 4666 
L 3525 4397 
L 1831 0 
L 1172 0 
L 2766 4134 
L 525 4134 
L 525 4666 
z
" id="DejaVuSans-37" transform="scale(0.015625)"/>
       </defs>
       <use xlink:href="#DejaVuSans-30"/>
       <use x="63.623047" xlink:href="#DejaVuSans-2e"/>
       <use x="95.410156" xlink:href="#DejaVuSans-39"/>
       <use x="159.033203" xlink:href="#DejaVuSans-37"/>
      </g>
     </g>
    </g>
    <g id="ytick_5">
     <g id="line2d_13">
      <g>
       <use style="stroke:#000000;stroke-width:0.8;" x="50.14375" xlink:href="#m92408c6c39" y="135.979943"/>
      </g>
     </g>
     <g id="text_14">
      <!-- 0.98 -->
      <g transform="translate(20.878125 139.779162)scale(0.1 -0.1)">
       <defs>
        <path d="M 2034 2216 
Q 1584 2216 1326 1975 
Q 1069 1734 1069 1313 
Q 1069 891 1326 650 
Q 1584 409 2034 409 
Q 2484 409 2743 651 
Q 3003 894 3003 1313 
Q 3003 1734 2745 1975 
Q 2488 2216 2034 2216 
z
M 1403 2484 
Q 997 2584 770 2862 
Q 544 3141 544 3541 
Q 544 4100 942 4425 
Q 1341 4750 2034 4750 
Q 2731 4750 3128 4425 
Q 3525 4100 3525 3541 
Q 3525 3141 3298 2862 
Q 3072 2584 2669 2484 
Q 3125 2378 3379 2068 
Q 3634 1759 3634 1313 
Q 3634 634 3220 271 
Q 2806 -91 2034 -91 
Q 1263 -91 848 271 
Q 434 634 434 1313 
Q 434 1759 690 2068 
Q 947 2378 1403 2484 
z
M 1172 3481 
Q 1172 3119 1398 2916 
Q 1625 2713 2034 2713 
Q 2441 2713 2670 2916 
Q 2900 3119 2900 3481 
Q 2900 3844 2670 4047 
Q 2441 4250 2034 4250 
Q 1625 4250 1398 4047 
Q 1172 3844 1172 3481 
z
" id="DejaVuSans-38" transform="scale(0.015625)"/>
       </defs>
       <use xlink:href="#DejaVuSans-30"/>
       <use x="63.623047" xlink:href="#DejaVuSans-2e"/>
       <use x="95.410156" xlink:href="#DejaVuSans-39"/>
       <use x="159.033203" xlink:href="#DejaVuSans-38"/>
      </g>
     </g>
    </g>
    <g id="ytick_6">
     <g id="line2d_14">
      <g>
       <use style="stroke:#000000;stroke-width:0.8;" x="50.14375" xlink:href="#m92408c6c39" y="86.561761"/>
      </g>
     </g>
     <g id="text_15">
      <!-- 0.99 -->
      <g transform="translate(20.878125 90.36098)scale(0.1 -0.1)">
       <use xlink:href="#DejaVuSans-30"/>
       <use x="63.623047" xlink:href="#DejaVuSans-2e"/>
       <use x="95.410156" xlink:href="#DejaVuSans-39"/>
       <use x="159.033203" xlink:href="#DejaVuSans-39"/>
      </g>
     </g>
    </g>
    <g id="ytick_7">
     <g id="line2d_15">
      <g>
       <use style="stroke:#000000;stroke-width:0.8;" x="50.14375" xlink:href="#m92408c6c39" y="37.14358"/>
      </g>
     </g>
     <g id="text_16">
      <!-- 1.00 -->
      <g transform="translate(20.878125 40.942798)scale(0.1 -0.1)">
       <use xlink:href="#DejaVuSans-31"/>
       <use x="63.623047" xlink:href="#DejaVuSans-2e"/>
       <use x="95.410156" xlink:href="#DejaVuSans-30"/>
       <use x="159.033203" xlink:href="#DejaVuSans-30"/>
      </g>
     </g>
    </g>
    <g id="text_17">
     <!-- Normalized Intenisty -->
     <g transform="translate(14.798438 237.105156)rotate(-90)scale(0.1 -0.1)">
      <defs>
       <path d="M 628 4666 
L 1478 4666 
L 3547 763 
L 3547 4666 
L 4159 4666 
L 4159 0 
L 3309 0 
L 1241 3903 
L 1241 0 
L 628 0 
L 628 4666 
z
" id="DejaVuSans-4e" transform="scale(0.015625)"/>
       <path d="M 1959 3097 
Q 1497 3097 1228 2736 
Q 959 2375 959 1747 
Q 959 1119 1226 758 
Q 1494 397 1959 397 
Q 2419 397 2687 759 
Q 2956 1122 2956 1747 
Q 2956 2369 2687 2733 
Q 2419 3097 1959 3097 
z
M 1959 3584 
Q 2709 3584 3137 3096 
Q 3566 2609 3566 1747 
Q 3566 888 3137 398 
Q 2709 -91 1959 -91 
Q 1206 -91 779 398 
Q 353 888 353 1747 
Q 353 2609 779 3096 
Q 1206 3584 1959 3584 
z
" id="DejaVuSans-6f" transform="scale(0.015625)"/>
       <path d="M 2631 2963 
Q 2534 3019 2420 3045 
Q 2306 3072 2169 3072 
Q 1681 3072 1420 2755 
Q 1159 2438 1159 1844 
L 1159 0 
L 581 0 
L 581 3500 
L 1159 3500 
L 1159 2956 
Q 1341 3275 1631 3429 
Q 1922 3584 2338 3584 
Q 2397 3584 2469 3576 
Q 2541 3569 2628 3553 
L 2631 2963 
z
" id="DejaVuSans-72" transform="scale(0.015625)"/>
       <path d="M 3328 2828 
Q 3544 3216 3844 3400 
Q 4144 3584 4550 3584 
Q 5097 3584 5394 3201 
Q 5691 2819 5691 2113 
L 5691 0 
L 5113 0 
L 5113 2094 
Q 5113 2597 4934 2840 
Q 4756 3084 4391 3084 
Q 3944 3084 3684 2787 
Q 3425 2491 3425 1978 
L 3425 0 
L 2847 0 
L 2847 2094 
Q 2847 2600 2669 2842 
Q 2491 3084 2119 3084 
Q 1678 3084 1418 2786 
Q 1159 2488 1159 1978 
L 1159 0 
L 581 0 
L 581 3500 
L 1159 3500 
L 1159 2956 
Q 1356 3278 1631 3431 
Q 1906 3584 2284 3584 
Q 2666 3584 2933 3390 
Q 3200 3197 3328 2828 
z
" id="DejaVuSans-6d" transform="scale(0.015625)"/>
       <path d="M 603 3500 
L 1178 3500 
L 1178 0 
L 603 0 
L 603 3500 
z
M 603 4863 
L 1178 4863 
L 1178 4134 
L 603 4134 
L 603 4863 
z
" id="DejaVuSans-69" transform="scale(0.015625)"/>
       <path d="M 353 3500 
L 3084 3500 
L 3084 2975 
L 922 459 
L 3084 459 
L 3084 0 
L 275 0 
L 275 525 
L 2438 3041 
L 353 3041 
L 353 3500 
z
" id="DejaVuSans-7a" transform="scale(0.015625)"/>
       <path d="M 2906 2969 
L 2906 4863 
L 3481 4863 
L 3481 0 
L 2906 0 
L 2906 525 
Q 2725 213 2448 61 
Q 2172 -91 1784 -91 
Q 1150 -91 751 415 
Q 353 922 353 1747 
Q 353 2572 751 3078 
Q 1150 3584 1784 3584 
Q 2172 3584 2448 3432 
Q 2725 3281 2906 2969 
z
M 947 1747 
Q 947 1113 1208 752 
Q 1469 391 1925 391 
Q 2381 391 2643 752 
Q 2906 1113 2906 1747 
Q 2906 2381 2643 2742 
Q 2381 3103 1925 3103 
Q 1469 3103 1208 2742 
Q 947 2381 947 1747 
z
" id="DejaVuSans-64" transform="scale(0.015625)"/>
       <path id="DejaVuSans-20" transform="scale(0.015625)"/>
       <path d="M 628 4666 
L 1259 4666 
L 1259 0 
L 628 0 
L 628 4666 
z
" id="DejaVuSans-49" transform="scale(0.015625)"/>
       <path d="M 2834 3397 
L 2834 2853 
Q 2591 2978 2328 3040 
Q 2066 3103 1784 3103 
Q 1356 3103 1142 2972 
Q 928 2841 928 2578 
Q 928 2378 1081 2264 
Q 1234 2150 1697 2047 
L 1894 2003 
Q 2506 1872 2764 1633 
Q 3022 1394 3022 966 
Q 3022 478 2636 193 
Q 2250 -91 1575 -91 
Q 1294 -91 989 -36 
Q 684 19 347 128 
L 347 722 
Q 666 556 975 473 
Q 1284 391 1588 391 
Q 1994 391 2212 530 
Q 2431 669 2431 922 
Q 2431 1156 2273 1281 
Q 2116 1406 1581 1522 
L 1381 1569 
Q 847 1681 609 1914 
Q 372 2147 372 2553 
Q 372 3047 722 3315 
Q 1072 3584 1716 3584 
Q 2034 3584 2315 3537 
Q 2597 3491 2834 3397 
z
" id="DejaVuSans-73" transform="scale(0.015625)"/>
       <path d="M 2059 -325 
Q 1816 -950 1584 -1140 
Q 1353 -1331 966 -1331 
L 506 -1331 
L 506 -850 
L 844 -850 
Q 1081 -850 1212 -737 
Q 1344 -625 1503 -206 
L 1606 56 
L 191 3500 
L 800 3500 
L 1894 763 
L 2988 3500 
L 3597 3500 
L 2059 -325 
z
" id="DejaVuSans-79" transform="scale(0.015625)"/>
      </defs>
      <use xlink:href="#DejaVuSans-4e"/>
      <use x="74.804688" xlink:href="#DejaVuSans-6f"/>
      <use x="135.986328" xlink:href="#DejaVuSans-72"/>
      <use x="175.349609" xlink:href="#DejaVuSans-6d"/>
      <use x="272.761719" xlink:href="#DejaVuSans-61"/>
      <use x="334.041016" xlink:href="#DejaVuSans-6c"/>
      <use x="361.824219" xlink:href="#DejaVuSans-69"/>
      <use x="389.607422" xlink:href="#DejaVuSans-7a"/>
      <use x="442.097656" xlink:href="#DejaVuSans-65"/>
      <use x="503.621094" xlink:href="#DejaVuSans-64"/>
      <use x="567.097656" xlink:href="#DejaVuSans-20"/>
      <use x="598.884766" xlink:href="#DejaVuSans-49"/>
      <use x="628.376953" xlink:href="#DejaVuSans-6e"/>
      <use x="691.755859" xlink:href="#DejaVuSans-74"/>
      <use x="730.964844" xlink:href="#DejaVuSans-65"/>
      <use x="792.488281" xlink:href="#DejaVuSans-6e"/>
      <use x="855.867188" xlink:href="#DejaVuSans-69"/>
      <use x="883.650391" xlink:href="#DejaVuSans-73"/>
      <use x="935.75" xlink:href="#DejaVuSans-74"/>
      <use x="974.958984" xlink:href="#DejaVuSans-79"/>
     </g>
    </g>
   </g>
   <g id="line2d_16">
    <path clip-path="url(#p892006933e)" d="M 88.189205 42.452277 
L 89.893811 40.836113 
L 93.038063 40.836113 
L 107.187293 40.836113 
L 114.523945 40.836113 
L 127.100951 41.65669 
L 140.202032 41.65669 
L 152.779039 41.65669 
L 165.356045 41.65669 
L 182.649527 41.246387 
L 192.082282 41.246387 
L 201.515037 41.246387 
L 214.092238 41.246387 
L 226.669245 40.425825 
L 237.150149 40.425825 
L 247.106978 42.477231 
L 257.063807 45.759492 
L 262.304162 49.862299 
L 268.59286 56.426854 
L 269.116739 58.478241 
L 276.453392 63.811927 
L 278.549689 72.838107 
L 280.121718 78.582091 
L 282.21782 82.684864 
L 283.790044 86.377432 
L 287.982444 92.53167 
L 287.982444 97.865322 
L 287.982444 104.840136 
L 291.126501 110.994374 
L 293.222799 116.328005 
L 294.795022 123.302819 
L 296.891125 128.226198 
L 297.939274 136.021588 
L 300.559451 144.227227 
L 301.6076 152.843159 
L 303.179628 159.40765 
L 307.896103 165.972176 
L 307.896103 175.408679 
L 308.420177 179.101198 
L 309.992206 187.717125 
L 312.088308 194.691974 
L 313.136457 201.256435 
L 314.708681 207.820961 
L 319.424961 214.385487 
L 319.424961 220.53973 
L 320.473109 228.335051 
L 322.045333 234.489289 
L 325.189584 244.33608 
L 330.954013 249.669776 
L 335.670293 250.080064 
L 341.434917 245.977228 
L 347.72342 237.361301 
L 349.295449 232.437888 
L 356.108026 226.693968 
L 362.920604 221.360267 
L 369.209107 227.514544 
L 369.209107 230.79674 
L 369.733182 236.951012 
L 371.829479 248.028629 
L 372.877433 252.951977 
L 373.925582 254.182837 
L 375.497611 261.157685 
L 376.545759 267.722142 
L 378.642057 273.876385 
L 379.165937 280.030657 
L 382.834263 288.646554 
L 383.358337 291.518527 
L 383.358337 297.262447 
L 384.406486 300.955 
L 387.550738 305.468155 
L 391.219064 310.391533 
L 394.363315 313.673764 
L 401.175893 312.442939 
L 402.747921 303.827007 
L 404.844219 297.67277 
L 406.940322 289.056838 
L 410.084573 282.902634 
L 412.180676 272.64559 
L 412.704751 268.132465 
L 416.373077 255.003443 
L 424.757878 251.310929 
L 425.805832 241.464103 
L 432.618409 232.437888 
L 435.238782 232.0276 
L 442.051359 232.0276 
L 449.911891 226.28368 
L 453.056142 216.436888 
L 460.916869 210.28265 
L 467.205372 193.050792 
L 475.065904 174.588108 
L 483.450705 156.535673 
L 491.311432 141.35525 
L 496.551786 129.457057 
L 504.412513 117.558865 
L 511.749165 108.53267 
L 522.753948 102.378427 
L 529.566526 93.762515 
L 535.331149 88.428848 
L 545.811858 86.787701 
L 552.100556 81.454054 
L 558.388865 74.889543 
L 568.869769 69.96615 
L 584.591222 69.555862 
L 591.403799 67.094153 
L 597.168228 65.863328 
L 608.173206 61.350238 
L 616.033738 58.478241 
L 627.562791 55.195995 
L 636.471471 51.093158 
L 646.817262 43.708091 
L 660.442612 37.14358 
L 665.158892 37.553848 
L 684.024402 39.194966 
L 696.601409 39.605254 
L 712.322862 40.425825 
L 728.568194 40.425825 
L 746.90963 40.425825 
L 762.630888 40.836113 
L 776.780118 40.836113 
L 795.645823 41.65669 
L 809.794858 41.65669 
L 827.088534 40.015542 
L 840.713494 40.015542 
L 849.098295 40.015542 
" style="fill:none;stroke:#1f77b4;stroke-linecap:square;stroke-width:1.5;"/>
   </g>
   <g id="line2d_17">
    <path clip-path="url(#p892006933e)" d="M 700.691129 37.14358 
L 627.105556 37.249961 
L 613.002613 37.508551 
L 601.965743 37.9278 
L 593.381641 38.468339 
L 586.63707 39.096459 
L 580.505703 39.894536 
L 575.600651 40.747108 
L 571.308761 41.698054 
L 567.0169 42.891187 
L 563.338184 44.151252 
L 559.65949 45.676206 
L 556.593927 47.184603 
L 553.528379 48.941728 
L 550.462846 50.979706 
L 547.397327 53.330882 
L 544.331822 56.026406 
L 541.266333 59.094594 
L 538.200857 62.559203 
L 535.135397 66.437828 
L 532.069951 70.740593 
L 529.004519 75.469333 
L 525.939102 80.617365 
L 522.8737 86.169866 
L 519.195236 93.335224 
L 515.516794 101.001401 
L 511.225304 110.498959 
L 506.320779 121.95198 
L 500.190175 136.901084 
L 485.476965 173.120143 
L 481.185675 182.953503 
L 477.507449 190.811416 
L 474.442277 196.850822 
L 471.377119 202.350062 
L 468.925004 206.320074 
L 466.472898 209.884069 
L 464.020801 213.029837 
L 461.568713 215.756994 
L 459.116635 218.078993 
L 456.664566 220.024987 
L 454.212506 221.641425 
L 451.760456 222.993243 
L 448.082398 224.713845 
L 443.791357 226.701443 
L 441.339347 228.08483 
L 439.500345 229.353184 
L 437.661348 230.891276 
L 435.822357 232.763313 
L 433.983371 235.030704 
L 432.14439 237.74954 
L 430.305414 240.967801 
L 428.466444 244.722362 
L 426.627479 249.035924 
L 424.788519 253.913983 
L 422.949564 259.342031 
L 420.497633 267.367736 
L 418.045711 276.148097 
L 413.754869 292.583057 
L 409.464057 308.787446 
L 407.012177 317.080382 
L 405.173273 322.494765 
L 403.94734 325.618136 
L 402.721409 328.292746 
L 401.495481 330.471826 
L 400.269555 332.113736 
L 399.043631 333.182949 
L 398.43067 333.493584 
L 397.817709 333.65094 
L 397.20475 333.65267 
L 396.59179 333.496959 
L 395.978832 333.182529 
L 395.365874 332.708664 
L 394.139959 331.282591 
L 392.914047 329.224444 
L 391.688137 326.549199 
L 390.46223 323.281001 
L 389.236325 319.452871 
L 387.397472 312.753513 
L 385.558624 305.060676 
L 383.106835 293.613718 
L 379.429168 275.018935 
L 375.138584 253.499399 
L 372.686835 242.346009 
L 370.848028 234.876773 
L 369.009228 228.339942 
L 367.170432 222.843751 
L 365.944571 219.793784 
L 364.718713 217.249264 
L 363.492857 215.213966 
L 362.267003 213.684612 
L 361.041151 212.651304 
L 359.815302 212.098043 
L 358.589455 212.003322 
L 357.363611 212.340765 
L 356.137769 213.079799 
L 354.911929 214.186339 
L 353.686092 215.623482 
L 352.460256 217.352173 
L 350.621508 220.402893 
L 348.169852 225.106547 
L 344.492385 232.856124 
L 340.814939 240.514167 
L 338.36332 245.115885 
L 336.524612 248.140494 
L 334.685909 250.711297 
L 333.46011 252.140364 
L 332.234313 253.322457 
L 331.008518 254.24401 
L 329.782726 254.893906 
L 328.556937 255.263407 
L 327.331149 255.346055 
L 326.105364 255.137582 
L 324.879582 254.635796 
L 323.653801 253.840478 
L 322.428023 252.753257 
L 321.202247 251.377497 
L 319.976474 249.718169 
L 318.750703 247.781732 
L 316.912051 244.374947 
L 315.073404 240.394034 
L 313.234762 235.875793 
L 311.396126 230.861415 
L 308.944618 223.48141 
L 306.493121 215.411786 
L 303.428761 204.534047 
L 299.75155 190.626925 
L 293.62291 166.377098 
L 286.268619 137.456365 
L 281.978655 121.5108 
L 278.301565 108.711497 
L 275.23734 98.783882 
L 272.17313 89.606966 
L 269.108933 81.236216 
L 266.657587 75.145594 
L 264.20625 69.605154 
L 261.754922 64.616885 
L 259.303604 60.17446 
L 256.852295 56.26331 
L 254.400995 52.861025 
L 251.949705 49.938113 
L 249.498424 47.459122 
L 247.047152 45.384048 
L 244.595889 43.669942 
L 242.144636 42.272589 
L 239.693392 41.148122 
L 237.242158 40.254456 
L 234.178128 39.402676 
L 231.114112 38.78272 
L 227.437313 38.264859 
L 222.534946 37.833648 
L 216.407041 37.538312 
L 206.602513 37.321678 
L 188.219425 37.184091 
L 145.327591 37.143762 
L 88.347141 37.14358 
L 88.347141 37.14358 
" style="fill:none;stroke:#ff7f0e;stroke-linecap:square;"/>
   </g>
   <g id="line2d_18">
    <path clip-path="url(#p892006933e)" d="M 162.567143 37.1458 
L 202.655424 37.268498 
L 216.327149 37.507969 
L 223.510599 37.836477 
L 228.376806 38.265338 
L 232.316117 38.833774 
L 235.560255 39.526846 
L 238.340945 40.341586 
L 240.889911 41.31634 
L 243.207153 42.432232 
L 245.524395 43.805836 
L 247.609912 45.294584 
L 249.69543 47.051996 
L 251.780947 49.105627 
L 253.866465 51.481363 
L 255.951982 54.202622 
L 258.0375 57.289637 
L 260.123017 60.75887 
L 262.440259 65.076612 
L 264.757501 69.891591 
L 267.074742 75.207194 
L 269.623708 81.628257 
L 272.172674 88.637006 
L 274.953364 96.926165 
L 277.965778 106.616564 
L 281.209916 117.802254 
L 284.917503 131.403965 
L 289.320262 148.425583 
L 304.614057 208.41311 
L 307.626472 218.919033 
L 310.175437 227.077394 
L 312.492679 233.792309 
L 314.578197 239.182192 
L 316.43199 243.398948 
L 318.054059 246.611428 
L 319.676128 249.353056 
L 321.066473 251.312492 
L 322.456818 252.900085 
L 323.615439 253.933013 
L 324.77406 254.698591 
L 325.932681 255.194836 
L 327.091302 255.42124 
L 328.249922 255.378857 
L 329.408543 255.070397 
L 330.567164 254.500308 
L 331.725785 253.674859 
L 332.884406 252.602219 
L 334.274751 251.003173 
L 335.89682 248.735091 
L 337.518889 246.073261 
L 339.372683 242.613117 
L 341.689924 237.790797 
L 345.165787 229.948287 
L 349.336822 220.617901 
L 351.422339 216.456438 
L 353.044408 213.638759 
L 354.434753 211.600242 
L 355.593374 210.214851 
L 356.751995 209.151399 
L 357.678892 208.554535 
L 358.605788 208.200406 
L 359.532685 208.103492 
L 360.459582 208.27689 
L 361.386478 208.732126 
L 362.313375 209.478974 
L 363.240272 210.525278 
L 364.167168 211.876782 
L 365.325789 214.000449 
L 366.48441 216.607819 
L 367.874755 220.368159 
L 369.2651 224.797675 
L 370.887169 230.764962 
L 372.740963 238.541477 
L 374.82648 248.320752 
L 377.60717 262.579693 
L 385.022344 301.347953 
L 387.107861 310.744832 
L 388.72993 317.160853 
L 390.351999 322.648494 
L 391.742344 326.530622 
L 392.900965 329.145938 
L 394.059586 331.174642 
L 394.986483 332.366069 
L 395.913379 333.170409 
L 396.608552 333.519693 
L 397.303724 333.65267 
L 397.998897 333.571679 
L 398.694069 333.280032 
L 399.389242 332.781982 
L 400.316139 331.805865 
L 401.243035 330.486581 
L 402.401656 328.38097 
L 403.560277 325.803748 
L 404.950622 322.148572 
L 406.572691 317.21052 
L 408.426484 310.845799 
L 410.97545 301.21059 
L 420.244417 265.152648 
L 422.561659 257.39946 
L 424.647176 251.166436 
L 426.50097 246.26392 
L 428.354763 241.973406 
L 430.208556 238.28373 
L 431.830625 235.525435 
L 433.452695 233.175853 
L 435.074764 231.199126 
L 436.696833 229.55431 
L 438.318902 228.196987 
L 440.172695 226.938207 
L 442.258213 225.81094 
L 444.807179 224.71029 
L 453.149249 221.350242 
L 455.466491 220.05708 
L 457.552008 218.646758 
L 459.637526 216.967603 
L 461.723043 214.995567 
L 463.808561 212.71566 
L 465.894078 210.121153 
L 468.21132 206.870408 
L 470.528561 203.242372 
L 473.077527 198.837869 
L 475.858217 193.577391 
L 478.870631 187.402466 
L 482.346494 179.759856 
L 486.517529 170.024051 
L 492.078909 156.432664 
L 507.14098 119.333462 
L 512.007187 108.073926 
L 516.178222 98.944585 
L 520.117533 90.856776 
L 523.593396 84.210515 
L 526.837534 78.460243 
L 530.081673 73.173239 
L 533.094087 68.692294 
L 536.106501 64.62795 
L 538.887191 61.242127 
L 541.667881 58.197659 
L 544.448571 55.479651 
L 547.229261 53.069008 
L 550.009951 50.94355 
L 553.022365 48.934817 
L 556.034779 47.2008 
L 559.278918 45.604618 
L 562.523056 44.253202 
L 565.998918 43.037708 
L 569.938229 41.904182 
L 574.109264 40.935925 
L 578.743748 40.08387 
L 584.073404 39.330352 
L 590.329956 38.676548 
L 597.745129 38.131147 
L 607.014096 37.684882 
L 618.36858 37.369538 
L 625.783754 37.256766 
L 625.783754 37.256766 
" style="fill:none;stroke:#2ca02c;stroke-linecap:square;stroke-width:1.5;"/>
   </g>
   <g id="line2d_19">
    <path clip-path="url(#p892006933e)" d="M 88.189205 42.452277 
L 89.893811 40.836113 
L 93.038063 40.836113 
L 107.187293 40.836113 
L 114.523945 40.836113 
L 127.100951 41.65669 
L 140.202032 41.65669 
L 152.779039 41.65669 
L 165.356045 41.65669 
L 182.649527 41.246387 
L 192.082282 41.246387 
L 201.515037 41.246387 
L 214.092238 41.246387 
L 226.669245 40.425825 
L 237.150149 40.425825 
L 247.106978 42.477231 
L 257.063807 45.759492 
L 262.304162 49.862299 
L 268.59286 56.426854 
L 269.116739 58.478241 
L 276.453392 63.811927 
L 278.549689 72.838107 
L 280.121718 78.582091 
L 282.21782 82.684864 
L 283.790044 86.377432 
L 287.982444 92.53167 
L 287.982444 97.865322 
L 287.982444 104.840136 
L 291.126501 110.994374 
L 293.222799 116.328005 
L 294.795022 123.302819 
L 296.891125 128.226198 
L 297.939274 136.021588 
L 300.559451 144.227227 
L 301.6076 152.843159 
L 303.179628 159.40765 
L 307.896103 165.972176 
L 307.896103 175.408679 
L 308.420177 179.101198 
L 309.992206 187.717125 
L 312.088308 194.691974 
L 313.136457 201.256435 
L 314.708681 207.820961 
L 319.424961 214.385487 
L 319.424961 220.53973 
L 320.473109 228.335051 
L 322.045333 234.489289 
L 325.189584 244.33608 
L 330.954013 249.669776 
L 335.670293 250.080064 
L 341.434917 245.977228 
L 347.72342 237.361301 
L 349.295449 232.437888 
L 356.108026 226.693968 
L 362.920604 221.360267 
L 369.209107 227.514544 
L 369.209107 230.79674 
L 369.733182 236.951012 
L 371.829479 248.028629 
L 372.877433 252.951977 
L 373.925582 254.182837 
L 375.497611 261.157685 
L 376.545759 267.722142 
L 378.642057 273.876385 
L 379.165937 280.030657 
L 382.834263 288.646554 
L 383.358337 291.518527 
L 383.358337 297.262447 
L 384.406486 300.955 
L 387.550738 305.468155 
L 391.219064 310.391533 
L 394.363315 313.673764 
L 401.175893 312.442939 
L 402.747921 303.827007 
L 404.844219 297.67277 
L 406.940322 289.056838 
L 410.084573 282.902634 
L 412.180676 272.64559 
L 412.704751 268.132465 
L 416.373077 255.003443 
L 424.757878 251.310929 
L 425.805832 241.464103 
L 432.618409 232.437888 
L 435.238782 232.0276 
L 442.051359 232.0276 
L 449.911891 226.28368 
L 453.056142 216.436888 
L 460.916869 210.28265 
L 467.205372 193.050792 
L 475.065904 174.588108 
L 483.450705 156.535673 
L 491.311432 141.35525 
L 496.551786 129.457057 
L 504.412513 117.558865 
L 511.749165 108.53267 
L 522.753948 102.378427 
L 529.566526 93.762515 
L 535.331149 88.428848 
L 545.811858 86.787701 
L 552.100556 81.454054 
L 558.388865 74.889543 
L 568.869769 69.96615 
L 584.591222 69.555862 
L 591.403799 67.094153 
L 597.168228 65.863328 
L 608.173206 61.350238 
L 616.033738 58.478241 
L 627.562791 55.195995 
L 636.471471 51.093158 
L 646.817262 43.708091 
L 660.442612 37.14358 
L 665.158892 37.553848 
L 684.024402 39.194966 
L 696.601409 39.605254 
L 712.322862 40.425825 
L 728.568194 40.425825 
L 746.90963 40.425825 
L 762.630888 40.836113 
L 776.780118 40.836113 
L 795.645823 41.65669 
L 809.794858 41.65669 
L 827.088534 40.015542 
L 840.713494 40.015542 
L 849.098295 40.015542 
" style="fill:none;stroke:#d62728;stroke-linecap:square;stroke-width:1.5;"/>
   </g>
   <g id="patch_3">
    <path d="M 50.14375 348.478125 
L 50.14375 22.318125 
" style="fill:none;stroke:#000000;stroke-linecap:square;stroke-linejoin:miter;stroke-width:0.8;"/>
   </g>
   <g id="patch_4">
    <path d="M 887.14375 348.478125 
L 887.14375 22.318125 
" style="fill:none;stroke:#000000;stroke-linecap:square;stroke-linejoin:miter;stroke-width:0.8;"/>
   </g>
   <g id="patch_5">
    <path d="M 50.14375 348.478125 
L 887.14375 348.478125 
" style="fill:none;stroke:#000000;stroke-linecap:square;stroke-linejoin:miter;stroke-width:0.8;"/>
   </g>
   <g id="patch_6">
    <path d="M 50.14375 22.318125 
L 887.14375 22.318125 
" style="fill:none;stroke:#000000;stroke-linecap:square;stroke-linejoin:miter;stroke-width:0.8;"/>
   </g>
   <g id="text_18">
    <!--  Temperature = 61.2K   ground_B =  0.00336 cm-1    Delta_B = -0.17,    zeta = -0.49 -->
    <g transform="translate(214.054375 16.318125)scale(0.12 -0.12)">
     <defs>
      <path d="M -19 4666 
L 3928 4666 
L 3928 4134 
L 2272 4134 
L 2272 0 
L 1638 0 
L 1638 4134 
L -19 4134 
L -19 4666 
z
" id="DejaVuSans-54" transform="scale(0.015625)"/>
      <path d="M 1159 525 
L 1159 -1331 
L 581 -1331 
L 581 3500 
L 1159 3500 
L 1159 2969 
Q 1341 3281 1617 3432 
Q 1894 3584 2278 3584 
Q 2916 3584 3314 3078 
Q 3713 2572 3713 1747 
Q 3713 922 3314 415 
Q 2916 -91 2278 -91 
Q 1894 -91 1617 61 
Q 1341 213 1159 525 
z
M 3116 1747 
Q 3116 2381 2855 2742 
Q 2594 3103 2138 3103 
Q 1681 3103 1420 2742 
Q 1159 2381 1159 1747 
Q 1159 1113 1420 752 
Q 1681 391 2138 391 
Q 2594 391 2855 752 
Q 3116 1113 3116 1747 
z
" id="DejaVuSans-70" transform="scale(0.015625)"/>
      <path d="M 544 1381 
L 544 3500 
L 1119 3500 
L 1119 1403 
Q 1119 906 1312 657 
Q 1506 409 1894 409 
Q 2359 409 2629 706 
Q 2900 1003 2900 1516 
L 2900 3500 
L 3475 3500 
L 3475 0 
L 2900 0 
L 2900 538 
Q 2691 219 2414 64 
Q 2138 -91 1772 -91 
Q 1169 -91 856 284 
Q 544 659 544 1381 
z
M 1991 3584 
L 1991 3584 
z
" id="DejaVuSans-75" transform="scale(0.015625)"/>
      <path d="M 678 2906 
L 4684 2906 
L 4684 2381 
L 678 2381 
L 678 2906 
z
M 678 1631 
L 4684 1631 
L 4684 1100 
L 678 1100 
L 678 1631 
z
" id="DejaVuSans-3d" transform="scale(0.015625)"/>
      <path d="M 628 4666 
L 1259 4666 
L 1259 2694 
L 3353 4666 
L 4166 4666 
L 1850 2491 
L 4331 0 
L 3500 0 
L 1259 2247 
L 1259 0 
L 628 0 
L 628 4666 
z
" id="DejaVuSans-4b" transform="scale(0.015625)"/>
      <path d="M 3263 -1063 
L 3263 -1509 
L -63 -1509 
L -63 -1063 
L 3263 -1063 
z
" id="DejaVuSans-5f" transform="scale(0.015625)"/>
      <path d="M 1259 2228 
L 1259 519 
L 2272 519 
Q 2781 519 3026 730 
Q 3272 941 3272 1375 
Q 3272 1813 3026 2020 
Q 2781 2228 2272 2228 
L 1259 2228 
z
M 1259 4147 
L 1259 2741 
L 2194 2741 
Q 2656 2741 2882 2914 
Q 3109 3088 3109 3444 
Q 3109 3797 2882 3972 
Q 2656 4147 2194 4147 
L 1259 4147 
z
M 628 4666 
L 2241 4666 
Q 2963 4666 3353 4366 
Q 3744 4066 3744 3513 
Q 3744 3084 3544 2831 
Q 3344 2578 2956 2516 
Q 3422 2416 3680 2098 
Q 3938 1781 3938 1306 
Q 3938 681 3513 340 
Q 3088 0 2303 0 
L 628 0 
L 628 4666 
z
" id="DejaVuSans-42" transform="scale(0.015625)"/>
      <path d="M 3122 3366 
L 3122 2828 
Q 2878 2963 2633 3030 
Q 2388 3097 2138 3097 
Q 1578 3097 1268 2742 
Q 959 2388 959 1747 
Q 959 1106 1268 751 
Q 1578 397 2138 397 
Q 2388 397 2633 464 
Q 2878 531 3122 666 
L 3122 134 
Q 2881 22 2623 -34 
Q 2366 -91 2075 -91 
Q 1284 -91 818 406 
Q 353 903 353 1747 
Q 353 2603 823 3093 
Q 1294 3584 2113 3584 
Q 2378 3584 2631 3529 
Q 2884 3475 3122 3366 
z
" id="DejaVuSans-63" transform="scale(0.015625)"/>
      <path d="M 313 2009 
L 1997 2009 
L 1997 1497 
L 313 1497 
L 313 2009 
z
" id="DejaVuSans-2d" transform="scale(0.015625)"/>
      <path d="M 1259 4147 
L 1259 519 
L 2022 519 
Q 2988 519 3436 956 
Q 3884 1394 3884 2338 
Q 3884 3275 3436 3711 
Q 2988 4147 2022 4147 
L 1259 4147 
z
M 628 4666 
L 1925 4666 
Q 3281 4666 3915 4102 
Q 4550 3538 4550 2338 
Q 4550 1131 3912 565 
Q 3275 0 1925 0 
L 628 0 
L 628 4666 
z
" id="DejaVuSans-44" transform="scale(0.015625)"/>
      <path d="M 750 794 
L 1409 794 
L 1409 256 
L 897 -744 
L 494 -744 
L 750 256 
L 750 794 
z
" id="DejaVuSans-2c" transform="scale(0.015625)"/>
     </defs>
     <use xlink:href="#DejaVuSans-20"/>
     <use x="31.787109" xlink:href="#DejaVuSans-54"/>
     <use x="75.871094" xlink:href="#DejaVuSans-65"/>
     <use x="137.394531" xlink:href="#DejaVuSans-6d"/>
     <use x="234.806641" xlink:href="#DejaVuSans-70"/>
     <use x="298.283203" xlink:href="#DejaVuSans-65"/>
     <use x="359.806641" xlink:href="#DejaVuSans-72"/>
     <use x="400.919922" xlink:href="#DejaVuSans-61"/>
     <use x="462.199219" xlink:href="#DejaVuSans-74"/>
     <use x="501.408203" xlink:href="#DejaVuSans-75"/>
     <use x="564.787109" xlink:href="#DejaVuSans-72"/>
     <use x="603.650391" xlink:href="#DejaVuSans-65"/>
     <use x="665.173828" xlink:href="#DejaVuSans-20"/>
     <use x="696.960938" xlink:href="#DejaVuSans-3d"/>
     <use x="780.75" xlink:href="#DejaVuSans-20"/>
     <use x="812.537109" xlink:href="#DejaVuSans-36"/>
     <use x="876.160156" xlink:href="#DejaVuSans-31"/>
     <use x="939.783203" xlink:href="#DejaVuSans-2e"/>
     <use x="971.570312" xlink:href="#DejaVuSans-32"/>
     <use x="1035.193359" xlink:href="#DejaVuSans-4b"/>
     <use x="1100.769531" xlink:href="#DejaVuSans-20"/>
     <use x="1132.556641" xlink:href="#DejaVuSans-20"/>
     <use x="1164.34375" xlink:href="#DejaVuSans-20"/>
     <use x="1196.130859" xlink:href="#DejaVuSans-67"/>
     <use x="1259.607422" xlink:href="#DejaVuSans-72"/>
     <use x="1298.470703" xlink:href="#DejaVuSans-6f"/>
     <use x="1359.652344" xlink:href="#DejaVuSans-75"/>
     <use x="1423.03125" xlink:href="#DejaVuSans-6e"/>
     <use x="1486.410156" xlink:href="#DejaVuSans-64"/>
     <use x="1549.886719" xlink:href="#DejaVuSans-5f"/>
     <use x="1599.886719" xlink:href="#DejaVuSans-42"/>
     <use x="1668.490234" xlink:href="#DejaVuSans-20"/>
     <use x="1700.277344" xlink:href="#DejaVuSans-3d"/>
     <use x="1784.066406" xlink:href="#DejaVuSans-20"/>
     <use x="1815.853516" xlink:href="#DejaVuSans-20"/>
     <use x="1847.640625" xlink:href="#DejaVuSans-30"/>
     <use x="1911.263672" xlink:href="#DejaVuSans-2e"/>
     <use x="1943.050781" xlink:href="#DejaVuSans-30"/>
     <use x="2006.673828" xlink:href="#DejaVuSans-30"/>
     <use x="2070.296875" xlink:href="#DejaVuSans-33"/>
     <use x="2133.919922" xlink:href="#DejaVuSans-33"/>
     <use x="2197.542969" xlink:href="#DejaVuSans-36"/>
     <use x="2261.166016" xlink:href="#DejaVuSans-20"/>
     <use x="2292.953125" xlink:href="#DejaVuSans-63"/>
     <use x="2347.933594" xlink:href="#DejaVuSans-6d"/>
     <use x="2445.345703" xlink:href="#DejaVuSans-2d"/>
     <use x="2481.429688" xlink:href="#DejaVuSans-31"/>
     <use x="2545.052734" xlink:href="#DejaVuSans-20"/>
     <use x="2576.839844" xlink:href="#DejaVuSans-20"/>
     <use x="2608.626953" xlink:href="#DejaVuSans-20"/>
     <use x="2640.414062" xlink:href="#DejaVuSans-20"/>
     <use x="2672.201172" xlink:href="#DejaVuSans-44"/>
     <use x="2749.203125" xlink:href="#DejaVuSans-65"/>
     <use x="2810.726562" xlink:href="#DejaVuSans-6c"/>
     <use x="2838.509766" xlink:href="#DejaVuSans-74"/>
     <use x="2877.71875" xlink:href="#DejaVuSans-61"/>
     <use x="2938.998047" xlink:href="#DejaVuSans-5f"/>
     <use x="2988.998047" xlink:href="#DejaVuSans-42"/>
     <use x="3057.601562" xlink:href="#DejaVuSans-20"/>
     <use x="3089.388672" xlink:href="#DejaVuSans-3d"/>
     <use x="3173.177734" xlink:href="#DejaVuSans-20"/>
     <use x="3204.964844" xlink:href="#DejaVuSans-2d"/>
     <use x="3241.048828" xlink:href="#DejaVuSans-30"/>
     <use x="3304.671875" xlink:href="#DejaVuSans-2e"/>
     <use x="3336.458984" xlink:href="#DejaVuSans-31"/>
     <use x="3400.082031" xlink:href="#DejaVuSans-37"/>
     <use x="3463.705078" xlink:href="#DejaVuSans-2c"/>
     <use x="3495.492188" xlink:href="#DejaVuSans-20"/>
     <use x="3527.279297" xlink:href="#DejaVuSans-20"/>
     <use x="3559.066406" xlink:href="#DejaVuSans-20"/>
     <use x="3590.853516" xlink:href="#DejaVuSans-20"/>
     <use x="3622.640625" xlink:href="#DejaVuSans-7a"/>
     <use x="3675.130859" xlink:href="#DejaVuSans-65"/>
     <use x="3736.654297" xlink:href="#DejaVuSans-74"/>
     <use x="3775.863281" xlink:href="#DejaVuSans-61"/>
     <use x="3837.142578" xlink:href="#DejaVuSans-20"/>
     <use x="3868.929688" xlink:href="#DejaVuSans-3d"/>
     <use x="3952.71875" xlink:href="#DejaVuSans-20"/>
     <use x="3984.505859" xlink:href="#DejaVuSans-2d"/>
     <use x="4020.589844" xlink:href="#DejaVuSans-30"/>
     <use x="4084.212891" xlink:href="#DejaVuSans-2e"/>
     <use x="4116" xlink:href="#DejaVuSans-34"/>
     <use x="4179.623047" xlink:href="#DejaVuSans-39"/>
    </g>
   </g>
   <g id="legend_1">
    <g id="patch_7">
     <path d="M 57.14375 343.478125 
L 171.979688 343.478125 
Q 173.979688 343.478125 173.979688 341.478125 
L 173.979688 283.765625 
Q 173.979688 281.765625 171.979688 281.765625 
L 57.14375 281.765625 
Q 55.14375 281.765625 55.14375 283.765625 
L 55.14375 341.478125 
Q 55.14375 343.478125 57.14375 343.478125 
z
" style="fill:#ffffff;opacity:0.8;stroke:#cccccc;stroke-linejoin:miter;"/>
    </g>
    <g id="line2d_20">
     <path d="M 59.14375 289.864062 
L 79.14375 289.864062 
" style="fill:none;stroke:#1f77b4;stroke-linecap:square;stroke-width:1.5;"/>
    </g>
    <g id="line2d_21"/>
    <g id="text_19">
     <!-- ccmarshall 2015 -->
     <g transform="translate(87.14375 293.364062)scale(0.1 -0.1)">
      <use xlink:href="#DejaVuSans-63"/>
      <use x="54.980469" xlink:href="#DejaVuSans-63"/>
      <use x="109.960938" xlink:href="#DejaVuSans-6d"/>
      <use x="207.373047" xlink:href="#DejaVuSans-61"/>
      <use x="268.652344" xlink:href="#DejaVuSans-72"/>
      <use x="309.765625" xlink:href="#DejaVuSans-73"/>
      <use x="361.865234" xlink:href="#DejaVuSans-68"/>
      <use x="425.244141" xlink:href="#DejaVuSans-61"/>
      <use x="486.523438" xlink:href="#DejaVuSans-6c"/>
      <use x="514.306641" xlink:href="#DejaVuSans-6c"/>
      <use x="542.089844" xlink:href="#DejaVuSans-20"/>
      <use x="573.876953" xlink:href="#DejaVuSans-32"/>
      <use x="637.5" xlink:href="#DejaVuSans-30"/>
      <use x="701.123047" xlink:href="#DejaVuSans-31"/>
      <use x="764.746094" xlink:href="#DejaVuSans-35"/>
     </g>
    </g>
    <g id="line2d_22">
     <path d="M 59.14375 304.542187 
L 79.14375 304.542187 
" style="fill:none;stroke:#ff7f0e;stroke-linecap:square;"/>
    </g>
    <g id="line2d_23"/>
    <g id="text_20">
     <!-- calculated -->
     <g transform="translate(87.14375 308.042187)scale(0.1 -0.1)">
      <use xlink:href="#DejaVuSans-63"/>
      <use x="54.980469" xlink:href="#DejaVuSans-61"/>
      <use x="116.259766" xlink:href="#DejaVuSans-6c"/>
      <use x="144.042969" xlink:href="#DejaVuSans-63"/>
      <use x="199.023438" xlink:href="#DejaVuSans-75"/>
      <use x="262.402344" xlink:href="#DejaVuSans-6c"/>
      <use x="290.185547" xlink:href="#DejaVuSans-61"/>
      <use x="351.464844" xlink:href="#DejaVuSans-74"/>
      <use x="390.673828" xlink:href="#DejaVuSans-65"/>
      <use x="452.197266" xlink:href="#DejaVuSans-64"/>
     </g>
    </g>
    <g id="line2d_24">
     <path d="M 59.14375 319.220312 
L 79.14375 319.220312 
" style="fill:none;stroke:#2ca02c;stroke-linecap:square;stroke-width:1.5;"/>
    </g>
    <g id="line2d_25"/>
    <g id="text_21">
     <!-- PGOPHER -->
     <g transform="translate(87.14375 322.720312)scale(0.1 -0.1)">
      <defs>
       <path d="M 1259 4147 
L 1259 2394 
L 2053 2394 
Q 2494 2394 2734 2622 
Q 2975 2850 2975 3272 
Q 2975 3691 2734 3919 
Q 2494 4147 2053 4147 
L 1259 4147 
z
M 628 4666 
L 2053 4666 
Q 2838 4666 3239 4311 
Q 3641 3956 3641 3272 
Q 3641 2581 3239 2228 
Q 2838 1875 2053 1875 
L 1259 1875 
L 1259 0 
L 628 0 
L 628 4666 
z
" id="DejaVuSans-50" transform="scale(0.015625)"/>
       <path d="M 3809 666 
L 3809 1919 
L 2778 1919 
L 2778 2438 
L 4434 2438 
L 4434 434 
Q 4069 175 3628 42 
Q 3188 -91 2688 -91 
Q 1594 -91 976 548 
Q 359 1188 359 2328 
Q 359 3472 976 4111 
Q 1594 4750 2688 4750 
Q 3144 4750 3555 4637 
Q 3966 4525 4313 4306 
L 4313 3634 
Q 3963 3931 3569 4081 
Q 3175 4231 2741 4231 
Q 1884 4231 1454 3753 
Q 1025 3275 1025 2328 
Q 1025 1384 1454 906 
Q 1884 428 2741 428 
Q 3075 428 3337 486 
Q 3600 544 3809 666 
z
" id="DejaVuSans-47" transform="scale(0.015625)"/>
       <path d="M 2522 4238 
Q 1834 4238 1429 3725 
Q 1025 3213 1025 2328 
Q 1025 1447 1429 934 
Q 1834 422 2522 422 
Q 3209 422 3611 934 
Q 4013 1447 4013 2328 
Q 4013 3213 3611 3725 
Q 3209 4238 2522 4238 
z
M 2522 4750 
Q 3503 4750 4090 4092 
Q 4678 3434 4678 2328 
Q 4678 1225 4090 567 
Q 3503 -91 2522 -91 
Q 1538 -91 948 565 
Q 359 1222 359 2328 
Q 359 3434 948 4092 
Q 1538 4750 2522 4750 
z
" id="DejaVuSans-4f" transform="scale(0.015625)"/>
       <path d="M 628 4666 
L 1259 4666 
L 1259 2753 
L 3553 2753 
L 3553 4666 
L 4184 4666 
L 4184 0 
L 3553 0 
L 3553 2222 
L 1259 2222 
L 1259 0 
L 628 0 
L 628 4666 
z
" id="DejaVuSans-48" transform="scale(0.015625)"/>
       <path d="M 628 4666 
L 3578 4666 
L 3578 4134 
L 1259 4134 
L 1259 2753 
L 3481 2753 
L 3481 2222 
L 1259 2222 
L 1259 531 
L 3634 531 
L 3634 0 
L 628 0 
L 628 4666 
z
" id="DejaVuSans-45" transform="scale(0.015625)"/>
       <path d="M 2841 2188 
Q 3044 2119 3236 1894 
Q 3428 1669 3622 1275 
L 4263 0 
L 3584 0 
L 2988 1197 
Q 2756 1666 2539 1819 
Q 2322 1972 1947 1972 
L 1259 1972 
L 1259 0 
L 628 0 
L 628 4666 
L 2053 4666 
Q 2853 4666 3247 4331 
Q 3641 3997 3641 3322 
Q 3641 2881 3436 2590 
Q 3231 2300 2841 2188 
z
M 1259 4147 
L 1259 2491 
L 2053 2491 
Q 2509 2491 2742 2702 
Q 2975 2913 2975 3322 
Q 2975 3731 2742 3939 
Q 2509 4147 2053 4147 
L 1259 4147 
z
" id="DejaVuSans-52" transform="scale(0.015625)"/>
      </defs>
      <use xlink:href="#DejaVuSans-50"/>
      <use x="60.302734" xlink:href="#DejaVuSans-47"/>
      <use x="137.792969" xlink:href="#DejaVuSans-4f"/>
      <use x="216.503906" xlink:href="#DejaVuSans-50"/>
      <use x="276.806641" xlink:href="#DejaVuSans-48"/>
      <use x="352.001953" xlink:href="#DejaVuSans-45"/>
      <use x="415.185547" xlink:href="#DejaVuSans-52"/>
     </g>
    </g>
    <g id="line2d_26">
     <path d="M 59.14375 333.898437 
L 79.14375 333.898437 
" style="fill:none;stroke:#d62728;stroke-linecap:square;stroke-width:1.5;"/>
    </g>
    <g id="line2d_27"/>
    <g id="text_22">
     <!-- ccmarshall 2015 -->
     <g transform="translate(87.14375 337.398437)scale(0.1 -0.1)">
      <use xlink:href="#DejaVuSans-63"/>
      <use x="54.980469" xlink:href="#DejaVuSans-63"/>
      <use x="109.960938" xlink:href="#DejaVuSans-6d"/>
      <use x="207.373047" xlink:href="#DejaVuSans-61"/>
      <use x="268.652344" xlink:href="#DejaVuSans-72"/>
      <use x="309.765625" xlink:href="#DejaVuSans-73"/>
      <use x="361.865234" xlink:href="#DejaVuSans-68"/>
      <use x="425.244141" xlink:href="#DejaVuSans-61"/>
      <use x="486.523438" xlink:href="#DejaVuSans-6c"/>
      <use x="514.306641" xlink:href="#DejaVuSans-6c"/>
      <use x="542.089844" xlink:href="#DejaVuSans-20"/>
      <use x="573.876953" xlink:href="#DejaVuSans-32"/>
      <use x="637.5" xlink:href="#DejaVuSans-30"/>
      <use x="701.123047" xlink:href="#DejaVuSans-31"/>
      <use x="764.746094" xlink:href="#DejaVuSans-35"/>
     </g>
    </g>
   </g>
  </g>
 </g>
 <defs>
  <clipPath id="p892006933e">
   <rect height="326.16" width="837" x="50.14375" y="22.318125"/>
  </clipPath>
 </defs>
</svg>
