<?xml version="1.0" encoding="utf-8" standalone="no"?>
<!DOCTYPE svg PUBLIC "-//W3C//DTD SVG 1.1//EN"
  "http://www.w3.org/Graphics/SVG/1.1/DTD/svg11.dtd">
<svg height="388.438125pt" version="1.1" viewBox="0 0 1005.94375 388.438125" width="1005.94375pt" xmlns="http://www.w3.org/2000/svg" xmlns:xlink="http://www.w3.org/1999/xlink">
 <metadata>
  <rdf:RDF xmlns:cc="http://creativecommons.org/ns#" xmlns:dc="http://purl.org/dc/elements/1.1/" xmlns:rdf="http://www.w3.org/1999/02/22-rdf-syntax-ns#">
   <cc:Work>
    <dc:type rdf:resource="http://purl.org/dc/dcmitype/StillImage"/>
    <dc:date>2022-11-23T07:08:03.690145</dc:date>
    <dc:format>image/svg+xml</dc:format>
    <dc:creator>
     <cc:Agent>
      <dc:title>Matplotlib v3.4.3, https://matplotlib.org/</dc:title>
     </cc:Agent>
    </dc:creator>
   </cc:Work>
  </rdf:RDF>
 </metadata>
 <defs>
  <style type="text/css">*{stroke-linecap:butt;stroke-linejoin:round;}</style>
 </defs>
 <g id="figure_1">
  <g id="patch_1">
   <path d="M 0 388.438125 
L 1005.94375 388.438125 
L 1005.94375 0 
L 0 0 
z
" style="fill:#ffffff;"/>
  </g>
  <g id="axes_1">
   <g id="patch_2">
    <path d="M 50.14375 350.16 
L 998.74375 350.16 
L 998.74375 24 
L 50.14375 24 
z
" style="fill:#ffffff;"/>
   </g>
   <g id="matplotlib.axis_1">
    <g id="xtick_1">
     <g id="line2d_1">
      <defs>
       <path d="M 0 0 
L 0 3.5 
" id="m94bc2574a3" style="stroke:#000000;stroke-width:0.8;"/>
      </defs>
      <g>
       <use style="stroke:#000000;stroke-width:0.8;" x="64.584475" xlink:href="#m94bc2574a3" y="350.16"/>
      </g>
     </g>
     <g id="text_1">
      <!-- −3 -->
      <g transform="translate(57.213381 364.758437)scale(0.1 -0.1)">
       <defs>
        <path d="M 678 2272 
L 4684 2272 
L 4684 1741 
L 678 1741 
L 678 2272 
z
" id="DejaVuSans-2212" transform="scale(0.015625)"/>
        <path d="M 2597 2516 
Q 3050 2419 3304 2112 
Q 3559 1806 3559 1356 
Q 3559 666 3084 287 
Q 2609 -91 1734 -91 
Q 1441 -91 1130 -33 
Q 819 25 488 141 
L 488 750 
Q 750 597 1062 519 
Q 1375 441 1716 441 
Q 2309 441 2620 675 
Q 2931 909 2931 1356 
Q 2931 1769 2642 2001 
Q 2353 2234 1838 2234 
L 1294 2234 
L 1294 2753 
L 1863 2753 
Q 2328 2753 2575 2939 
Q 2822 3125 2822 3475 
Q 2822 3834 2567 4026 
Q 2313 4219 1838 4219 
Q 1578 4219 1281 4162 
Q 984 4106 628 3988 
L 628 4550 
Q 988 4650 1302 4700 
Q 1616 4750 1894 4750 
Q 2613 4750 3031 4423 
Q 3450 4097 3450 3541 
Q 3450 3153 3228 2886 
Q 3006 2619 2597 2516 
z
" id="DejaVuSans-33" transform="scale(0.015625)"/>
       </defs>
       <use xlink:href="#DejaVuSans-2212"/>
       <use x="83.789062" xlink:href="#DejaVuSans-33"/>
      </g>
     </g>
    </g>
    <g id="xtick_2">
     <g id="line2d_2">
      <g>
       <use style="stroke:#000000;stroke-width:0.8;" x="216.884129" xlink:href="#m94bc2574a3" y="350.16"/>
      </g>
     </g>
     <g id="text_2">
      <!-- −2 -->
      <g transform="translate(209.513036 364.758437)scale(0.1 -0.1)">
       <defs>
        <path d="M 1228 531 
L 3431 531 
L 3431 0 
L 469 0 
L 469 531 
Q 828 903 1448 1529 
Q 2069 2156 2228 2338 
Q 2531 2678 2651 2914 
Q 2772 3150 2772 3378 
Q 2772 3750 2511 3984 
Q 2250 4219 1831 4219 
Q 1534 4219 1204 4116 
Q 875 4013 500 3803 
L 500 4441 
Q 881 4594 1212 4672 
Q 1544 4750 1819 4750 
Q 2544 4750 2975 4387 
Q 3406 4025 3406 3419 
Q 3406 3131 3298 2873 
Q 3191 2616 2906 2266 
Q 2828 2175 2409 1742 
Q 1991 1309 1228 531 
z
" id="DejaVuSans-32" transform="scale(0.015625)"/>
       </defs>
       <use xlink:href="#DejaVuSans-2212"/>
       <use x="83.789062" xlink:href="#DejaVuSans-32"/>
      </g>
     </g>
    </g>
    <g id="xtick_3">
     <g id="line2d_3">
      <g>
       <use style="stroke:#000000;stroke-width:0.8;" x="369.183784" xlink:href="#m94bc2574a3" y="350.16"/>
      </g>
     </g>
     <g id="text_3">
      <!-- −1 -->
      <g transform="translate(361.81269 364.758437)scale(0.1 -0.1)">
       <defs>
        <path d="M 794 531 
L 1825 531 
L 1825 4091 
L 703 3866 
L 703 4441 
L 1819 4666 
L 2450 4666 
L 2450 531 
L 3481 531 
L 3481 0 
L 794 0 
L 794 531 
z
" id="DejaVuSans-31" transform="scale(0.015625)"/>
       </defs>
       <use xlink:href="#DejaVuSans-2212"/>
       <use x="83.789062" xlink:href="#DejaVuSans-31"/>
      </g>
     </g>
    </g>
    <g id="xtick_4">
     <g id="line2d_4">
      <g>
       <use style="stroke:#000000;stroke-width:0.8;" x="521.483439" xlink:href="#m94bc2574a3" y="350.16"/>
      </g>
     </g>
     <g id="text_4">
      <!-- 0 -->
      <g transform="translate(518.302189 364.758437)scale(0.1 -0.1)">
       <defs>
        <path d="M 2034 4250 
Q 1547 4250 1301 3770 
Q 1056 3291 1056 2328 
Q 1056 1369 1301 889 
Q 1547 409 2034 409 
Q 2525 409 2770 889 
Q 3016 1369 3016 2328 
Q 3016 3291 2770 3770 
Q 2525 4250 2034 4250 
z
M 2034 4750 
Q 2819 4750 3233 4129 
Q 3647 3509 3647 2328 
Q 3647 1150 3233 529 
Q 2819 -91 2034 -91 
Q 1250 -91 836 529 
Q 422 1150 422 2328 
Q 422 3509 836 4129 
Q 1250 4750 2034 4750 
z
" id="DejaVuSans-30" transform="scale(0.015625)"/>
       </defs>
       <use xlink:href="#DejaVuSans-30"/>
      </g>
     </g>
    </g>
    <g id="xtick_5">
     <g id="line2d_5">
      <g>
       <use style="stroke:#000000;stroke-width:0.8;" x="673.783093" xlink:href="#m94bc2574a3" y="350.16"/>
      </g>
     </g>
     <g id="text_5">
      <!-- 1 -->
      <g transform="translate(670.601843 364.758437)scale(0.1 -0.1)">
       <use xlink:href="#DejaVuSans-31"/>
      </g>
     </g>
    </g>
    <g id="xtick_6">
     <g id="line2d_6">
      <g>
       <use style="stroke:#000000;stroke-width:0.8;" x="826.082748" xlink:href="#m94bc2574a3" y="350.16"/>
      </g>
     </g>
     <g id="text_6">
      <!-- 2 -->
      <g transform="translate(822.901498 364.758437)scale(0.1 -0.1)">
       <use xlink:href="#DejaVuSans-32"/>
      </g>
     </g>
    </g>
    <g id="xtick_7">
     <g id="line2d_7">
      <g>
       <use style="stroke:#000000;stroke-width:0.8;" x="978.382403" xlink:href="#m94bc2574a3" y="350.16"/>
      </g>
     </g>
     <g id="text_7">
      <!-- 3 -->
      <g transform="translate(975.201153 364.758437)scale(0.1 -0.1)">
       <use xlink:href="#DejaVuSans-33"/>
      </g>
     </g>
    </g>
    <g id="text_8">
     <!-- wavenumber (in $cm^{-1}$) -->
     <g transform="translate(466.94375 379.158437)scale(0.1 -0.1)">
      <defs>
       <path d="M 269 3500 
L 844 3500 
L 1563 769 
L 2278 3500 
L 2956 3500 
L 3675 769 
L 4391 3500 
L 4966 3500 
L 4050 0 
L 3372 0 
L 2619 2869 
L 1863 0 
L 1184 0 
L 269 3500 
z
" id="DejaVuSans-77" transform="scale(0.015625)"/>
       <path d="M 2194 1759 
Q 1497 1759 1228 1600 
Q 959 1441 959 1056 
Q 959 750 1161 570 
Q 1363 391 1709 391 
Q 2188 391 2477 730 
Q 2766 1069 2766 1631 
L 2766 1759 
L 2194 1759 
z
M 3341 1997 
L 3341 0 
L 2766 0 
L 2766 531 
Q 2569 213 2275 61 
Q 1981 -91 1556 -91 
Q 1019 -91 701 211 
Q 384 513 384 1019 
Q 384 1609 779 1909 
Q 1175 2209 1959 2209 
L 2766 2209 
L 2766 2266 
Q 2766 2663 2505 2880 
Q 2244 3097 1772 3097 
Q 1472 3097 1187 3025 
Q 903 2953 641 2809 
L 641 3341 
Q 956 3463 1253 3523 
Q 1550 3584 1831 3584 
Q 2591 3584 2966 3190 
Q 3341 2797 3341 1997 
z
" id="DejaVuSans-61" transform="scale(0.015625)"/>
       <path d="M 191 3500 
L 800 3500 
L 1894 563 
L 2988 3500 
L 3597 3500 
L 2284 0 
L 1503 0 
L 191 3500 
z
" id="DejaVuSans-76" transform="scale(0.015625)"/>
       <path d="M 3597 1894 
L 3597 1613 
L 953 1613 
Q 991 1019 1311 708 
Q 1631 397 2203 397 
Q 2534 397 2845 478 
Q 3156 559 3463 722 
L 3463 178 
Q 3153 47 2828 -22 
Q 2503 -91 2169 -91 
Q 1331 -91 842 396 
Q 353 884 353 1716 
Q 353 2575 817 3079 
Q 1281 3584 2069 3584 
Q 2775 3584 3186 3129 
Q 3597 2675 3597 1894 
z
M 3022 2063 
Q 3016 2534 2758 2815 
Q 2500 3097 2075 3097 
Q 1594 3097 1305 2825 
Q 1016 2553 972 2059 
L 3022 2063 
z
" id="DejaVuSans-65" transform="scale(0.015625)"/>
       <path d="M 3513 2113 
L 3513 0 
L 2938 0 
L 2938 2094 
Q 2938 2591 2744 2837 
Q 2550 3084 2163 3084 
Q 1697 3084 1428 2787 
Q 1159 2491 1159 1978 
L 1159 0 
L 581 0 
L 581 3500 
L 1159 3500 
L 1159 2956 
Q 1366 3272 1645 3428 
Q 1925 3584 2291 3584 
Q 2894 3584 3203 3211 
Q 3513 2838 3513 2113 
z
" id="DejaVuSans-6e" transform="scale(0.015625)"/>
       <path d="M 544 1381 
L 544 3500 
L 1119 3500 
L 1119 1403 
Q 1119 906 1312 657 
Q 1506 409 1894 409 
Q 2359 409 2629 706 
Q 2900 1003 2900 1516 
L 2900 3500 
L 3475 3500 
L 3475 0 
L 2900 0 
L 2900 538 
Q 2691 219 2414 64 
Q 2138 -91 1772 -91 
Q 1169 -91 856 284 
Q 544 659 544 1381 
z
M 1991 3584 
L 1991 3584 
z
" id="DejaVuSans-75" transform="scale(0.015625)"/>
       <path d="M 3328 2828 
Q 3544 3216 3844 3400 
Q 4144 3584 4550 3584 
Q 5097 3584 5394 3201 
Q 5691 2819 5691 2113 
L 5691 0 
L 5113 0 
L 5113 2094 
Q 5113 2597 4934 2840 
Q 4756 3084 4391 3084 
Q 3944 3084 3684 2787 
Q 3425 2491 3425 1978 
L 3425 0 
L 2847 0 
L 2847 2094 
Q 2847 2600 2669 2842 
Q 2491 3084 2119 3084 
Q 1678 3084 1418 2786 
Q 1159 2488 1159 1978 
L 1159 0 
L 581 0 
L 581 3500 
L 1159 3500 
L 1159 2956 
Q 1356 3278 1631 3431 
Q 1906 3584 2284 3584 
Q 2666 3584 2933 3390 
Q 3200 3197 3328 2828 
z
" id="DejaVuSans-6d" transform="scale(0.015625)"/>
       <path d="M 3116 1747 
Q 3116 2381 2855 2742 
Q 2594 3103 2138 3103 
Q 1681 3103 1420 2742 
Q 1159 2381 1159 1747 
Q 1159 1113 1420 752 
Q 1681 391 2138 391 
Q 2594 391 2855 752 
Q 3116 1113 3116 1747 
z
M 1159 2969 
Q 1341 3281 1617 3432 
Q 1894 3584 2278 3584 
Q 2916 3584 3314 3078 
Q 3713 2572 3713 1747 
Q 3713 922 3314 415 
Q 2916 -91 2278 -91 
Q 1894 -91 1617 61 
Q 1341 213 1159 525 
L 1159 0 
L 581 0 
L 581 4863 
L 1159 4863 
L 1159 2969 
z
" id="DejaVuSans-62" transform="scale(0.015625)"/>
       <path d="M 2631 2963 
Q 2534 3019 2420 3045 
Q 2306 3072 2169 3072 
Q 1681 3072 1420 2755 
Q 1159 2438 1159 1844 
L 1159 0 
L 581 0 
L 581 3500 
L 1159 3500 
L 1159 2956 
Q 1341 3275 1631 3429 
Q 1922 3584 2338 3584 
Q 2397 3584 2469 3576 
Q 2541 3569 2628 3553 
L 2631 2963 
z
" id="DejaVuSans-72" transform="scale(0.015625)"/>
       <path id="DejaVuSans-20" transform="scale(0.015625)"/>
       <path d="M 1984 4856 
Q 1566 4138 1362 3434 
Q 1159 2731 1159 2009 
Q 1159 1288 1364 580 
Q 1569 -128 1984 -844 
L 1484 -844 
Q 1016 -109 783 600 
Q 550 1309 550 2009 
Q 550 2706 781 3412 
Q 1013 4119 1484 4856 
L 1984 4856 
z
" id="DejaVuSans-28" transform="scale(0.015625)"/>
       <path d="M 603 3500 
L 1178 3500 
L 1178 0 
L 603 0 
L 603 3500 
z
M 603 4863 
L 1178 4863 
L 1178 4134 
L 603 4134 
L 603 4863 
z
" id="DejaVuSans-69" transform="scale(0.015625)"/>
       <path d="M 3431 3366 
L 3316 2797 
Q 3109 2947 2876 3022 
Q 2644 3097 2394 3097 
Q 2119 3097 1870 3000 
Q 1622 2903 1453 2725 
Q 1184 2453 1037 2087 
Q 891 1722 891 1331 
Q 891 859 1127 628 
Q 1363 397 1844 397 
Q 2081 397 2348 469 
Q 2616 541 2906 684 
L 2797 116 
Q 2547 13 2283 -39 
Q 2019 -91 1741 -91 
Q 1044 -91 669 257 
Q 294 606 294 1253 
Q 294 1797 489 2255 
Q 684 2713 1069 3078 
Q 1331 3328 1684 3456 
Q 2038 3584 2456 3584 
Q 2700 3584 2940 3529 
Q 3181 3475 3431 3366 
z
" id="DejaVuSans-Oblique-63" transform="scale(0.015625)"/>
       <path d="M 5747 2113 
L 5338 0 
L 4763 0 
L 5166 2094 
Q 5191 2228 5203 2325 
Q 5216 2422 5216 2491 
Q 5216 2772 5059 2928 
Q 4903 3084 4622 3084 
Q 4203 3084 3875 2770 
Q 3547 2456 3450 1953 
L 3066 0 
L 2491 0 
L 2900 2094 
Q 2925 2209 2937 2307 
Q 2950 2406 2950 2484 
Q 2950 2769 2794 2926 
Q 2638 3084 2363 3084 
Q 1938 3084 1609 2770 
Q 1281 2456 1184 1953 
L 800 0 
L 225 0 
L 909 3500 
L 1484 3500 
L 1375 2956 
Q 1609 3263 1923 3423 
Q 2238 3584 2597 3584 
Q 2978 3584 3223 3384 
Q 3469 3184 3519 2828 
Q 3781 3197 4126 3390 
Q 4472 3584 4856 3584 
Q 5306 3584 5551 3325 
Q 5797 3066 5797 2591 
Q 5797 2488 5784 2364 
Q 5772 2241 5747 2113 
z
" id="DejaVuSans-Oblique-6d" transform="scale(0.015625)"/>
       <path d="M 513 4856 
L 1013 4856 
Q 1481 4119 1714 3412 
Q 1947 2706 1947 2009 
Q 1947 1309 1714 600 
Q 1481 -109 1013 -844 
L 513 -844 
Q 928 -128 1133 580 
Q 1338 1288 1338 2009 
Q 1338 2731 1133 3434 
Q 928 4138 513 4856 
z
" id="DejaVuSans-29" transform="scale(0.015625)"/>
      </defs>
      <use transform="translate(0 0.684375)" xlink:href="#DejaVuSans-77"/>
      <use transform="translate(81.787109 0.684375)" xlink:href="#DejaVuSans-61"/>
      <use transform="translate(143.066406 0.684375)" xlink:href="#DejaVuSans-76"/>
      <use transform="translate(202.246094 0.684375)" xlink:href="#DejaVuSans-65"/>
      <use transform="translate(263.769531 0.684375)" xlink:href="#DejaVuSans-6e"/>
      <use transform="translate(327.148438 0.684375)" xlink:href="#DejaVuSans-75"/>
      <use transform="translate(390.527344 0.684375)" xlink:href="#DejaVuSans-6d"/>
      <use transform="translate(487.939453 0.684375)" xlink:href="#DejaVuSans-62"/>
      <use transform="translate(551.416016 0.684375)" xlink:href="#DejaVuSans-65"/>
      <use transform="translate(612.939453 0.684375)" xlink:href="#DejaVuSans-72"/>
      <use transform="translate(654.052734 0.684375)" xlink:href="#DejaVuSans-20"/>
      <use transform="translate(685.839844 0.684375)" xlink:href="#DejaVuSans-28"/>
      <use transform="translate(724.853516 0.684375)" xlink:href="#DejaVuSans-69"/>
      <use transform="translate(752.636719 0.684375)" xlink:href="#DejaVuSans-6e"/>
      <use transform="translate(816.015625 0.684375)" xlink:href="#DejaVuSans-20"/>
      <use transform="translate(847.802734 0.684375)" xlink:href="#DejaVuSans-Oblique-63"/>
      <use transform="translate(902.783203 0.684375)" xlink:href="#DejaVuSans-Oblique-6d"/>
      <use transform="translate(1004.845208 38.965625)scale(0.7)" xlink:href="#DejaVuSans-2212"/>
      <use transform="translate(1063.497552 38.965625)scale(0.7)" xlink:href="#DejaVuSans-31"/>
      <use transform="translate(1110.76806 0.684375)" xlink:href="#DejaVuSans-29"/>
     </g>
    </g>
   </g>
   <g id="matplotlib.axis_2">
    <g id="ytick_1">
     <g id="line2d_8">
      <defs>
       <path d="M 0 0 
L -3.5 0 
" id="m9b4916b7c1" style="stroke:#000000;stroke-width:0.8;"/>
      </defs>
      <g>
       <use style="stroke:#000000;stroke-width:0.8;" x="50.14375" xlink:href="#m9b4916b7c1" y="335.334545"/>
      </g>
     </g>
     <g id="text_9">
      <!-- 0.90 -->
      <g transform="translate(20.878125 339.133764)scale(0.1 -0.1)">
       <defs>
        <path d="M 684 794 
L 1344 794 
L 1344 0 
L 684 0 
L 684 794 
z
" id="DejaVuSans-2e" transform="scale(0.015625)"/>
        <path d="M 703 97 
L 703 672 
Q 941 559 1184 500 
Q 1428 441 1663 441 
Q 2288 441 2617 861 
Q 2947 1281 2994 2138 
Q 2813 1869 2534 1725 
Q 2256 1581 1919 1581 
Q 1219 1581 811 2004 
Q 403 2428 403 3163 
Q 403 3881 828 4315 
Q 1253 4750 1959 4750 
Q 2769 4750 3195 4129 
Q 3622 3509 3622 2328 
Q 3622 1225 3098 567 
Q 2575 -91 1691 -91 
Q 1453 -91 1209 -44 
Q 966 3 703 97 
z
M 1959 2075 
Q 2384 2075 2632 2365 
Q 2881 2656 2881 3163 
Q 2881 3666 2632 3958 
Q 2384 4250 1959 4250 
Q 1534 4250 1286 3958 
Q 1038 3666 1038 3163 
Q 1038 2656 1286 2365 
Q 1534 2075 1959 2075 
z
" id="DejaVuSans-39" transform="scale(0.015625)"/>
       </defs>
       <use xlink:href="#DejaVuSans-30"/>
       <use x="63.623047" xlink:href="#DejaVuSans-2e"/>
       <use x="95.410156" xlink:href="#DejaVuSans-39"/>
       <use x="159.033203" xlink:href="#DejaVuSans-30"/>
      </g>
     </g>
    </g>
    <g id="ytick_2">
     <g id="line2d_9">
      <g>
       <use style="stroke:#000000;stroke-width:0.8;" x="50.14375" xlink:href="#m9b4916b7c1" y="276.026757"/>
      </g>
     </g>
     <g id="text_10">
      <!-- 0.92 -->
      <g transform="translate(20.878125 279.825976)scale(0.1 -0.1)">
       <use xlink:href="#DejaVuSans-30"/>
       <use x="63.623047" xlink:href="#DejaVuSans-2e"/>
       <use x="95.410156" xlink:href="#DejaVuSans-39"/>
       <use x="159.033203" xlink:href="#DejaVuSans-32"/>
      </g>
     </g>
    </g>
    <g id="ytick_3">
     <g id="line2d_10">
      <g>
       <use style="stroke:#000000;stroke-width:0.8;" x="50.14375" xlink:href="#m9b4916b7c1" y="216.718968"/>
      </g>
     </g>
     <g id="text_11">
      <!-- 0.94 -->
      <g transform="translate(20.878125 220.518187)scale(0.1 -0.1)">
       <defs>
        <path d="M 2419 4116 
L 825 1625 
L 2419 1625 
L 2419 4116 
z
M 2253 4666 
L 3047 4666 
L 3047 1625 
L 3713 1625 
L 3713 1100 
L 3047 1100 
L 3047 0 
L 2419 0 
L 2419 1100 
L 313 1100 
L 313 1709 
L 2253 4666 
z
" id="DejaVuSans-34" transform="scale(0.015625)"/>
       </defs>
       <use xlink:href="#DejaVuSans-30"/>
       <use x="63.623047" xlink:href="#DejaVuSans-2e"/>
       <use x="95.410156" xlink:href="#DejaVuSans-39"/>
       <use x="159.033203" xlink:href="#DejaVuSans-34"/>
      </g>
     </g>
    </g>
    <g id="ytick_4">
     <g id="line2d_11">
      <g>
       <use style="stroke:#000000;stroke-width:0.8;" x="50.14375" xlink:href="#m9b4916b7c1" y="157.41118"/>
      </g>
     </g>
     <g id="text_12">
      <!-- 0.96 -->
      <g transform="translate(20.878125 161.210399)scale(0.1 -0.1)">
       <defs>
        <path d="M 2113 2584 
Q 1688 2584 1439 2293 
Q 1191 2003 1191 1497 
Q 1191 994 1439 701 
Q 1688 409 2113 409 
Q 2538 409 2786 701 
Q 3034 994 3034 1497 
Q 3034 2003 2786 2293 
Q 2538 2584 2113 2584 
z
M 3366 4563 
L 3366 3988 
Q 3128 4100 2886 4159 
Q 2644 4219 2406 4219 
Q 1781 4219 1451 3797 
Q 1122 3375 1075 2522 
Q 1259 2794 1537 2939 
Q 1816 3084 2150 3084 
Q 2853 3084 3261 2657 
Q 3669 2231 3669 1497 
Q 3669 778 3244 343 
Q 2819 -91 2113 -91 
Q 1303 -91 875 529 
Q 447 1150 447 2328 
Q 447 3434 972 4092 
Q 1497 4750 2381 4750 
Q 2619 4750 2861 4703 
Q 3103 4656 3366 4563 
z
" id="DejaVuSans-36" transform="scale(0.015625)"/>
       </defs>
       <use xlink:href="#DejaVuSans-30"/>
       <use x="63.623047" xlink:href="#DejaVuSans-2e"/>
       <use x="95.410156" xlink:href="#DejaVuSans-39"/>
       <use x="159.033203" xlink:href="#DejaVuSans-36"/>
      </g>
     </g>
    </g>
    <g id="ytick_5">
     <g id="line2d_12">
      <g>
       <use style="stroke:#000000;stroke-width:0.8;" x="50.14375" xlink:href="#m9b4916b7c1" y="98.103391"/>
      </g>
     </g>
     <g id="text_13">
      <!-- 0.98 -->
      <g transform="translate(20.878125 101.90261)scale(0.1 -0.1)">
       <defs>
        <path d="M 2034 2216 
Q 1584 2216 1326 1975 
Q 1069 1734 1069 1313 
Q 1069 891 1326 650 
Q 1584 409 2034 409 
Q 2484 409 2743 651 
Q 3003 894 3003 1313 
Q 3003 1734 2745 1975 
Q 2488 2216 2034 2216 
z
M 1403 2484 
Q 997 2584 770 2862 
Q 544 3141 544 3541 
Q 544 4100 942 4425 
Q 1341 4750 2034 4750 
Q 2731 4750 3128 4425 
Q 3525 4100 3525 3541 
Q 3525 3141 3298 2862 
Q 3072 2584 2669 2484 
Q 3125 2378 3379 2068 
Q 3634 1759 3634 1313 
Q 3634 634 3220 271 
Q 2806 -91 2034 -91 
Q 1263 -91 848 271 
Q 434 634 434 1313 
Q 434 1759 690 2068 
Q 947 2378 1403 2484 
z
M 1172 3481 
Q 1172 3119 1398 2916 
Q 1625 2713 2034 2713 
Q 2441 2713 2670 2916 
Q 2900 3119 2900 3481 
Q 2900 3844 2670 4047 
Q 2441 4250 2034 4250 
Q 1625 4250 1398 4047 
Q 1172 3844 1172 3481 
z
" id="DejaVuSans-38" transform="scale(0.015625)"/>
       </defs>
       <use xlink:href="#DejaVuSans-30"/>
       <use x="63.623047" xlink:href="#DejaVuSans-2e"/>
       <use x="95.410156" xlink:href="#DejaVuSans-39"/>
       <use x="159.033203" xlink:href="#DejaVuSans-38"/>
      </g>
     </g>
    </g>
    <g id="ytick_6">
     <g id="line2d_13">
      <g>
       <use style="stroke:#000000;stroke-width:0.8;" x="50.14375" xlink:href="#m9b4916b7c1" y="38.795603"/>
      </g>
     </g>
     <g id="text_14">
      <!-- 1.00 -->
      <g transform="translate(20.878125 42.594822)scale(0.1 -0.1)">
       <use xlink:href="#DejaVuSans-31"/>
       <use x="63.623047" xlink:href="#DejaVuSans-2e"/>
       <use x="95.410156" xlink:href="#DejaVuSans-30"/>
       <use x="159.033203" xlink:href="#DejaVuSans-30"/>
      </g>
     </g>
    </g>
    <g id="text_15">
     <!-- Normalized Intensity -->
     <g transform="translate(14.798438 238.787031)rotate(-90)scale(0.1 -0.1)">
      <defs>
       <path d="M 628 4666 
L 1478 4666 
L 3547 763 
L 3547 4666 
L 4159 4666 
L 4159 0 
L 3309 0 
L 1241 3903 
L 1241 0 
L 628 0 
L 628 4666 
z
" id="DejaVuSans-4e" transform="scale(0.015625)"/>
       <path d="M 1959 3097 
Q 1497 3097 1228 2736 
Q 959 2375 959 1747 
Q 959 1119 1226 758 
Q 1494 397 1959 397 
Q 2419 397 2687 759 
Q 2956 1122 2956 1747 
Q 2956 2369 2687 2733 
Q 2419 3097 1959 3097 
z
M 1959 3584 
Q 2709 3584 3137 3096 
Q 3566 2609 3566 1747 
Q 3566 888 3137 398 
Q 2709 -91 1959 -91 
Q 1206 -91 779 398 
Q 353 888 353 1747 
Q 353 2609 779 3096 
Q 1206 3584 1959 3584 
z
" id="DejaVuSans-6f" transform="scale(0.015625)"/>
       <path d="M 603 4863 
L 1178 4863 
L 1178 0 
L 603 0 
L 603 4863 
z
" id="DejaVuSans-6c" transform="scale(0.015625)"/>
       <path d="M 353 3500 
L 3084 3500 
L 3084 2975 
L 922 459 
L 3084 459 
L 3084 0 
L 275 0 
L 275 525 
L 2438 3041 
L 353 3041 
L 353 3500 
z
" id="DejaVuSans-7a" transform="scale(0.015625)"/>
       <path d="M 2906 2969 
L 2906 4863 
L 3481 4863 
L 3481 0 
L 2906 0 
L 2906 525 
Q 2725 213 2448 61 
Q 2172 -91 1784 -91 
Q 1150 -91 751 415 
Q 353 922 353 1747 
Q 353 2572 751 3078 
Q 1150 3584 1784 3584 
Q 2172 3584 2448 3432 
Q 2725 3281 2906 2969 
z
M 947 1747 
Q 947 1113 1208 752 
Q 1469 391 1925 391 
Q 2381 391 2643 752 
Q 2906 1113 2906 1747 
Q 2906 2381 2643 2742 
Q 2381 3103 1925 3103 
Q 1469 3103 1208 2742 
Q 947 2381 947 1747 
z
" id="DejaVuSans-64" transform="scale(0.015625)"/>
       <path d="M 628 4666 
L 1259 4666 
L 1259 0 
L 628 0 
L 628 4666 
z
" id="DejaVuSans-49" transform="scale(0.015625)"/>
       <path d="M 1172 4494 
L 1172 3500 
L 2356 3500 
L 2356 3053 
L 1172 3053 
L 1172 1153 
Q 1172 725 1289 603 
Q 1406 481 1766 481 
L 2356 481 
L 2356 0 
L 1766 0 
Q 1100 0 847 248 
Q 594 497 594 1153 
L 594 3053 
L 172 3053 
L 172 3500 
L 594 3500 
L 594 4494 
L 1172 4494 
z
" id="DejaVuSans-74" transform="scale(0.015625)"/>
       <path d="M 2834 3397 
L 2834 2853 
Q 2591 2978 2328 3040 
Q 2066 3103 1784 3103 
Q 1356 3103 1142 2972 
Q 928 2841 928 2578 
Q 928 2378 1081 2264 
Q 1234 2150 1697 2047 
L 1894 2003 
Q 2506 1872 2764 1633 
Q 3022 1394 3022 966 
Q 3022 478 2636 193 
Q 2250 -91 1575 -91 
Q 1294 -91 989 -36 
Q 684 19 347 128 
L 347 722 
Q 666 556 975 473 
Q 1284 391 1588 391 
Q 1994 391 2212 530 
Q 2431 669 2431 922 
Q 2431 1156 2273 1281 
Q 2116 1406 1581 1522 
L 1381 1569 
Q 847 1681 609 1914 
Q 372 2147 372 2553 
Q 372 3047 722 3315 
Q 1072 3584 1716 3584 
Q 2034 3584 2315 3537 
Q 2597 3491 2834 3397 
z
" id="DejaVuSans-73" transform="scale(0.015625)"/>
       <path d="M 2059 -325 
Q 1816 -950 1584 -1140 
Q 1353 -1331 966 -1331 
L 506 -1331 
L 506 -850 
L 844 -850 
Q 1081 -850 1212 -737 
Q 1344 -625 1503 -206 
L 1606 56 
L 191 3500 
L 800 3500 
L 1894 763 
L 2988 3500 
L 3597 3500 
L 2059 -325 
z
" id="DejaVuSans-79" transform="scale(0.015625)"/>
      </defs>
      <use xlink:href="#DejaVuSans-4e"/>
      <use x="74.804688" xlink:href="#DejaVuSans-6f"/>
      <use x="135.986328" xlink:href="#DejaVuSans-72"/>
      <use x="175.349609" xlink:href="#DejaVuSans-6d"/>
      <use x="272.761719" xlink:href="#DejaVuSans-61"/>
      <use x="334.041016" xlink:href="#DejaVuSans-6c"/>
      <use x="361.824219" xlink:href="#DejaVuSans-69"/>
      <use x="389.607422" xlink:href="#DejaVuSans-7a"/>
      <use x="442.097656" xlink:href="#DejaVuSans-65"/>
      <use x="503.621094" xlink:href="#DejaVuSans-64"/>
      <use x="567.097656" xlink:href="#DejaVuSans-20"/>
      <use x="598.884766" xlink:href="#DejaVuSans-49"/>
      <use x="628.376953" xlink:href="#DejaVuSans-6e"/>
      <use x="691.755859" xlink:href="#DejaVuSans-74"/>
      <use x="730.964844" xlink:href="#DejaVuSans-65"/>
      <use x="792.488281" xlink:href="#DejaVuSans-6e"/>
      <use x="855.867188" xlink:href="#DejaVuSans-73"/>
      <use x="907.966797" xlink:href="#DejaVuSans-69"/>
      <use x="935.75" xlink:href="#DejaVuSans-74"/>
      <use x="974.958984" xlink:href="#DejaVuSans-79"/>
     </g>
    </g>
   </g>
   <g id="line2d_14">
    <path clip-path="url(#pd847e9aff9)" d="M 143.254027 38.828052 
L 178.248493 38.982412 
L 198.245331 39.278661 
L 210.743355 39.649344 
L 220.741774 40.121929 
L 230.740193 40.826812 
L 238.239007 41.564433 
L 245.737821 42.536841 
L 253.236635 43.805014 
L 258.235845 44.849687 
L 263.235054 46.081252 
L 268.234264 47.525569 
L 273.233473 49.210348 
L 278.232683 51.164872 
L 283.231892 53.419621 
L 288.231102 56.005758 
L 293.230311 58.954487 
L 298.229521 62.296257 
L 303.22873 66.059828 
L 308.22794 70.271184 
L 313.227149 74.952317 
L 318.226359 80.119893 
L 323.225568 85.783823 
L 328.224778 91.945789 
L 333.223987 98.597755 
L 338.223197 105.720533 
L 343.222406 113.282459 
L 348.221616 121.238259 
L 353.220825 129.528188 
L 360.719639 142.42198 
L 378.216873 172.862316 
L 383.216082 181.092025 
L 388.215292 188.858091 
L 393.214501 196.01656 
L 395.714106 199.324277 
L 398.21371 202.428988 
L 400.713315 205.315446 
L 403.21292 207.969738 
L 405.712525 210.37959 
L 408.212129 212.534691 
L 410.711734 214.427041 
L 413.211339 216.05131 
L 415.710944 217.405213 
L 418.210548 218.489883 
L 420.710153 219.310252 
L 423.209758 219.875412 
L 425.709363 220.198959 
L 428.208967 220.29929 
L 430.708572 220.199855 
L 433.208177 219.929332 
L 438.207386 219.016251 
L 445.706201 217.380211 
L 448.205805 216.972557 
L 450.70541 216.731042 
L 453.205015 216.717138 
L 455.70462 216.992666 
L 458.204224 217.618316 
L 460.703829 218.651991 
L 463.203434 220.147026 
L 465.703039 222.150308 
L 468.202643 224.700368 
L 470.702248 227.825499 
L 473.201853 231.541982 
L 475.701458 235.852492 
L 478.201062 240.744775 
L 480.700667 246.190662 
L 483.200272 252.145512 
L 485.699876 258.548135 
L 490.699086 272.37251 
L 500.697505 301.089552 
L 503.19711 307.760844 
L 505.696714 313.965399 
L 508.196319 319.577128 
L 510.695924 324.47926 
L 513.195529 328.567957 
L 515.695133 331.755606 
L 518.194738 333.973635 
L 520.694343 335.174762 
L 523.193948 335.334545 
L 525.693552 334.452205 
L 528.193157 332.550646 
L 530.692762 329.675708 
L 533.192367 325.894656 
L 535.691971 321.29399 
L 538.191576 315.97666 
L 540.691181 310.058807 
L 543.190786 303.666164 
L 548.189995 289.98461 
L 555.688809 269.176729 
L 558.188414 262.641054 
L 560.688019 256.472061 
L 563.187624 250.748189 
L 565.687228 245.531781 
L 568.186833 240.868576 
L 570.686438 236.787742 
L 573.186042 233.302387 
L 575.685647 230.410519 
L 578.185252 228.096333 
L 580.684857 226.331793 
L 583.184461 225.078394 
L 585.684066 224.289037 
L 588.183671 223.909948 
L 590.683276 223.882567 
L 593.18288 224.145346 
L 595.682485 224.635428 
L 600.681695 226.048373 
L 608.180509 228.377488 
L 610.680114 229.003597 
L 613.179718 229.482431 
L 615.679323 229.778569 
L 618.178928 229.861971 
L 620.678533 229.707914 
L 623.178137 229.296832 
L 625.677742 228.614084 
L 628.177347 227.649661 
L 630.676952 226.397851 
L 633.176556 224.856884 
L 635.676161 223.028557 
L 638.175766 220.917855 
L 640.675371 218.532579 
L 643.174975 215.88298 
L 645.67458 212.981412 
L 648.174185 209.841996 
L 650.67379 206.480314 
L 655.672999 199.15803 
L 660.672208 191.157827 
L 665.671418 182.629894 
L 673.170232 169.177341 
L 693.16707 132.684471 
L 698.16628 124.037738 
L 703.165489 115.754437 
L 708.164699 107.893904 
L 713.163908 100.500588 
L 718.163118 93.604999 
L 723.162327 87.224923 
L 728.161537 81.366811 
L 733.160746 76.027283 
L 738.159956 71.194663 
L 743.159165 66.850509 
L 748.158375 62.971073 
L 753.157584 59.528669 
L 758.156793 56.492913 
L 763.156003 53.831824 
L 768.155212 51.512778 
L 773.154422 49.503299 
L 778.153631 47.771715 
L 783.152841 46.287664 
L 788.15205 45.022472 
L 793.15126 43.94942 
L 798.150469 43.043907 
L 805.649284 41.951367 
L 813.148098 41.119534 
L 820.646912 40.492726 
L 830.645331 39.897952 
L 843.143355 39.426545 
L 858.140983 39.110738 
L 880.637426 38.9023 
L 905.633473 38.826377 
L 905.633473 38.826377 
" style="fill:none;stroke:#e98768;stroke-linecap:square;stroke-width:1.5;"/>
   </g>
   <g id="line2d_15">
    <path clip-path="url(#pd847e9aff9)" d="M 130.756003 38.828696 
L 168.250074 38.997112 
L 188.246912 39.298605 
L 200.744936 39.666616 
L 210.743355 40.128213 
L 220.741774 40.807458 
L 228.240588 41.510675 
L 235.739402 42.429841 
L 243.238216 43.619263 
L 248.237426 44.59335 
L 253.236635 45.736737 
L 258.235845 47.072342 
L 263.235054 48.624739 
L 268.234264 50.419956 
L 273.233473 52.48518 
L 278.232683 54.848362 
L 283.231892 57.537714 
L 288.231102 60.581089 
L 293.230311 64.005238 
L 298.229521 67.83495 
L 303.22873 72.092072 
L 308.22794 76.794431 
L 313.227149 81.954663 
L 318.226359 87.578981 
L 323.225568 93.665915 
L 328.224778 100.205057 
L 333.223987 107.175863 
L 338.223197 114.546571 
L 343.222406 122.273277 
L 350.72122 134.403136 
L 360.719639 151.18215 
L 370.718058 167.941063 
L 375.717268 176.024967 
L 380.716477 183.741839 
L 385.715687 190.959151 
L 390.714896 197.545292 
L 393.214501 200.562075 
L 395.714106 203.374856 
L 398.21371 205.969981 
L 400.713315 208.335049 
L 403.21292 210.45918 
L 405.712525 212.333303 
L 408.212129 213.950457 
L 410.711734 215.306116 
L 413.211339 216.398517 
L 415.710944 217.229004 
L 418.210548 217.802376 
L 420.710153 218.127219 
L 423.209758 218.216237 
L 425.709363 218.086548 
L 428.208967 217.759943 
L 430.708572 217.263088 
L 435.707782 215.890346 
L 443.206596 213.507332 
L 445.706201 212.824812 
L 448.205805 212.291819 
L 450.70541 211.96839 
L 453.205015 211.915684 
L 455.70462 212.194674 
L 458.204224 212.86467 
L 460.703829 213.981677 
L 463.203434 215.59663 
L 465.703039 217.753558 
L 468.202643 220.48772 
L 470.702248 223.823774 
L 473.201853 227.774077 
L 475.701458 232.337162 
L 478.201062 237.496488 
L 480.700667 243.219542 
L 483.200272 249.457356 
L 485.699876 256.144512 
L 490.699086 270.526635 
L 500.697505 300.217091 
L 503.19711 307.085836 
L 505.696714 313.4653 
L 508.196319 319.22789 
L 510.695924 324.255624 
L 513.195529 328.443722 
L 515.695133 331.703858 
L 518.194738 333.966952 
L 520.694343 335.185386 
L 523.193948 335.334545 
L 525.693552 334.413623 
L 528.193157 332.445645 
L 530.692762 329.47673 
L 533.192367 325.574601 
L 535.691971 320.826417 
L 538.191576 315.336021 
L 540.691181 309.220713 
L 543.190786 302.607691 
L 548.189995 288.42412 
L 555.688809 266.747747 
L 558.188414 259.904359 
L 560.688019 253.424746 
L 563.187624 247.391472 
L 565.687228 241.871189 
L 568.186833 236.914064 
L 570.686438 232.553733 
L 573.186042 228.807733 
L 575.685647 225.678377 
L 578.185252 223.153963 
L 580.684857 221.210282 
L 583.184461 219.812307 
L 585.684066 218.916012 
L 588.183671 218.470239 
L 590.683276 218.418546 
L 593.18288 218.700982 
L 595.682485 219.255747 
L 598.18209 220.020696 
L 603.181299 221.938605 
L 610.680114 224.949956 
L 613.179718 225.794559 
L 615.679323 226.491978 
L 618.178928 227.009212 
L 620.678533 227.318323 
L 623.178137 227.396333 
L 625.677742 227.225027 
L 628.177347 226.790711 
L 630.676952 226.08392 
L 633.176556 225.099101 
L 635.676161 223.834277 
L 638.175766 222.290705 
L 640.675371 220.472534 
L 643.174975 218.386472 
L 645.67458 216.041463 
L 648.174185 213.448377 
L 650.67379 210.619723 
L 653.173394 207.569372 
L 655.672999 204.312305 
L 660.672208 197.242114 
L 665.671418 189.542737 
L 670.670627 181.352366 
L 678.169442 168.446441 
L 698.16628 133.358134 
L 703.165489 124.998672 
L 708.164699 116.964724 
L 713.163908 109.312719 
L 718.163118 102.085908 
L 723.162327 95.315113 
L 728.161537 89.019713 
L 733.160746 83.208783 
L 738.159956 77.88235 
L 743.159165 73.03269 
L 748.158375 68.645628 
L 753.157584 64.701806 
L 758.156793 61.17788 
L 763.156003 58.04762 
L 768.155212 55.282907 
L 773.154422 52.854605 
L 778.153631 50.733311 
L 783.152841 48.889978 
L 788.15205 47.296422 
L 793.15126 45.925714 
L 798.150469 44.752471 
L 803.149679 43.753056 
L 810.648493 42.532763 
L 818.147307 41.589672 
L 825.646122 40.867987 
L 835.644541 40.170573 
L 845.642959 39.696225 
L 858.140983 39.317516 
L 875.638216 39.032121 
L 900.634264 38.868654 
L 918.131497 38.827057 
L 918.131497 38.827057 
" style="fill:none;stroke:#de5d5c;stroke-linecap:square;stroke-width:1.5;"/>
   </g>
   <g id="line2d_16">
    <path clip-path="url(#pd847e9aff9)" d="M 118.257979 38.82861 
L 155.75205 38.985291 
L 175.748888 39.2568 
L 190.746517 39.669695 
L 203.244541 40.255336 
L 213.242959 40.964901 
L 220.741774 41.69022 
L 228.240588 42.628376 
L 235.739402 43.830369 
L 240.738612 44.807155 
L 245.737821 45.946884 
L 250.737031 47.270655 
L 255.73624 48.801001 
L 260.73545 50.561692 
L 265.734659 52.577481 
L 270.733869 54.873753 
L 275.733078 57.476089 
L 280.732288 60.409726 
L 285.731497 63.698929 
L 290.730707 67.366249 
L 295.729916 71.431693 
L 300.729125 75.911808 
L 305.728335 80.818685 
L 310.727544 86.158912 
L 315.726754 91.932495 
L 320.725963 98.131782 
L 325.725173 104.740422 
L 330.724382 111.732407 
L 335.723592 119.071233 
L 343.222406 130.62239 
L 350.72122 142.634131 
L 365.718849 166.909915 
L 370.718058 174.703729 
L 375.717268 182.157274 
L 380.716477 189.148898 
L 385.715687 195.556804 
L 388.215292 198.504787 
L 390.714896 201.263288 
L 393.214501 203.819072 
L 395.714106 206.159857 
L 398.21371 208.274526 
L 400.713315 210.153362 
L 403.21292 211.7883 
L 405.712525 213.173194 
L 408.212129 214.304102 
L 410.711734 215.179583 
L 413.211339 215.801003 
L 415.710944 216.172855 
L 418.210548 216.303066 
L 420.710153 216.203313 
L 423.209758 215.889308 
L 425.709363 215.381061 
L 428.208967 214.703104 
L 433.208177 212.9597 
L 443.206596 209.038209 
L 445.706201 208.250588 
L 448.205805 207.651551 
L 450.70541 207.300856 
L 453.205015 207.258917 
L 455.70462 207.585497 
L 458.204224 208.338238 
L 460.703829 209.571032 
L 463.203434 211.332295 
L 465.703039 213.663156 
L 468.202643 216.595647 
L 470.702248 220.150936 
L 473.201853 224.337679 
L 475.701458 229.150574 
L 478.201062 234.569185 
L 480.700667 240.557116 
L 483.200272 247.061602 
L 485.699876 254.013575 
L 490.699086 268.9063 
L 500.697505 299.464066 
L 503.19711 306.505243 
L 505.696714 313.036466 
L 508.196319 318.929194 
L 510.695924 324.064736 
L 513.195529 328.337799 
L 515.695133 331.659699 
L 518.194738 333.961121 
L 520.694343 335.1943 
L 523.193948 335.334545 
L 525.693552 334.381028 
L 528.193157 332.356811 
L 530.692762 329.308118 
L 533.192367 325.302865 
L 535.691971 320.428525 
L 538.191576 314.789409 
L 540.691181 308.503487 
L 543.190786 301.698857 
L 548.189995 287.07413 
L 555.688809 264.618656 
L 558.188414 257.494025 
L 560.688019 250.727442 
L 563.187624 244.404937 
L 565.687228 238.596859 
L 568.186833 233.357241 
L 570.686438 228.723687 
L 573.186042 224.717737 
L 575.685647 221.345659 
L 578.185252 218.599591 
L 580.684857 216.458971 
L 583.184461 214.892163 
L 585.684066 213.858216 
L 588.183671 213.30868 
L 590.683276 213.189408 
L 593.18288 213.442309 
L 595.682485 214.006978 
L 598.18209 214.822197 
L 600.681695 215.827254 
L 605.680904 218.173267 
L 610.680114 220.608313 
L 615.679323 222.757804 
L 618.178928 223.628365 
L 620.678533 224.320597 
L 623.178137 224.808791 
L 625.677742 225.071829 
L 628.177347 225.092979 
L 630.676952 224.859638 
L 633.176556 224.363048 
L 635.676161 223.597997 
L 638.175766 222.562504 
L 640.675371 221.257508 
L 643.174975 219.686563 
L 645.67458 217.855533 
L 648.174185 215.772312 
L 650.67379 213.44655 
L 653.173394 210.889398 
L 655.672999 208.113273 
L 658.172604 205.131632 
L 663.171813 198.609629 
L 668.171023 191.444504 
L 673.170232 183.762543 
L 678.169442 175.690763 
L 685.668256 163.12212 
L 700.665884 137.708664 
L 708.164699 125.501041 
L 713.163908 117.717672 
L 718.163118 110.282155 
L 723.162327 103.235975 
L 728.161537 96.609511 
L 733.160746 90.422852 
L 738.159956 84.68674 
L 743.159165 79.403627 
L 748.158375 74.568777 
L 753.157584 70.171377 
L 758.156793 66.19564 
L 763.156003 62.621848 
L 768.155212 59.427332 
L 773.154422 56.587361 
L 778.153631 54.075941 
L 783.152841 51.86651 
L 788.15205 49.93252 
L 793.15126 48.247935 
L 798.150469 46.787619 
L 803.149679 45.527634 
L 808.148888 44.445468 
L 815.647703 43.110267 
L 823.146517 42.064763 
L 830.645331 41.253806 
L 840.64375 40.457435 
L 850.642169 39.905267 
L 863.140193 39.454644 
L 878.137821 39.140776 
L 900.634264 38.921713 
L 930.629521 38.827046 
L 930.629521 38.827046 
" style="fill:none;stroke:#c14168;stroke-linecap:square;stroke-width:1.5;"/>
   </g>
   <g id="line2d_17">
    <path clip-path="url(#pd847e9aff9)" d="M 105.759956 38.827932 
L 145.753631 38.992487 
L 165.750469 39.261094 
L 180.748098 39.660998 
L 193.246122 40.219618 
L 203.244541 40.888865 
L 210.743355 41.567557 
L 218.242169 42.439915 
L 225.740983 43.551287 
L 233.239797 44.954223 
L 238.239007 46.080726 
L 243.238216 47.382668 
L 248.237426 48.880725 
L 253.236635 50.596649 
L 258.235845 52.553039 
L 263.235054 54.773036 
L 268.234264 57.279947 
L 273.233473 60.096776 
L 278.232683 63.245685 
L 283.231892 66.747365 
L 288.231102 70.62032 
L 293.230311 74.880089 
L 298.229521 79.538397 
L 303.22873 84.602253 
L 308.22794 90.073032 
L 313.227149 95.945534 
L 318.226359 102.20708 
L 323.225568 108.836659 
L 328.224778 115.804167 
L 333.223987 123.06978 
L 340.722801 134.414931 
L 353.220825 153.957662 
L 363.219244 169.405512 
L 368.218454 176.795068 
L 373.217663 183.816383 
L 378.216873 190.356883 
L 383.216082 196.30471 
L 385.715687 199.022518 
L 388.215292 201.552469 
L 390.714896 203.882574 
L 393.214501 206.001732 
L 395.714106 207.899918 
L 398.21371 209.568389 
L 400.713315 210.999903 
L 403.21292 212.188956 
L 405.712525 213.132033 
L 408.212129 213.827871 
L 410.711734 214.277738 
L 413.211339 214.485723 
L 415.710944 214.459017 
L 418.210548 214.208211 
L 420.710153 213.74757 
L 423.209758 213.0953 
L 425.709363 212.273771 
L 430.708572 210.234355 
L 443.206596 204.593483 
L 445.706201 203.75112 
L 448.205805 203.132422 
L 450.70541 202.796516 
L 453.205015 202.802775 
L 455.70462 203.209515 
L 458.204224 204.07253 
L 460.703829 205.443497 
L 463.203434 207.368264 
L 465.703039 209.885095 
L 468.202643 213.022899 
L 470.702248 216.799523 
L 473.201853 221.220165 
L 475.701458 226.275995 
L 478.201062 231.943048 
L 480.700667 238.181467 
L 483.200272 244.935156 
L 485.699876 252.131912 
L 490.699086 267.489638 
L 498.1979 291.232667 
L 500.697505 298.817301 
L 503.19711 306.008508 
L 505.696714 312.67089 
L 508.196319 318.675405 
L 510.695924 323.903047 
L 513.195529 328.248349 
L 515.695133 331.62255 
L 518.194738 333.956314 
L 520.694343 335.201877 
L 523.193948 335.334545 
L 525.693552 334.353476 
L 528.193157 332.281705 
L 530.692762 329.165422 
L 533.192367 325.072534 
L 535.691971 320.090554 
L 538.191576 314.323933 
L 540.691181 307.890914 
L 543.190786 300.920059 
L 548.189995 285.908546 
L 555.688809 262.756286 
L 558.188414 255.375735 
L 560.688019 248.34548 
L 563.187624 241.754457 
L 565.687228 235.676178 
L 568.186833 230.16805 
L 570.686438 225.271197 
L 573.186042 221.010763 
L 575.685647 217.396634 
L 578.185252 214.424515 
L 580.684857 212.077287 
L 583.184461 210.32657 
L 585.684066 209.134427 
L 588.183671 208.455123 
L 590.683276 208.236894 
L 593.18288 208.423653 
L 595.682485 208.956612 
L 598.18209 209.77575 
L 600.681695 210.821147 
L 605.680904 213.358193 
L 613.179718 217.48064 
L 618.178928 219.907567 
L 620.678533 220.913791 
L 623.178137 221.743181 
L 625.677742 222.372274 
L 628.177347 222.781845 
L 630.676952 222.956681 
L 633.176556 222.885327 
L 635.676161 222.559817 
L 638.175766 221.975384 
L 640.675371 221.130173 
L 643.174975 220.024961 
L 645.67458 218.662872 
L 648.174185 217.04912 
L 650.67379 215.19075 
L 653.173394 213.096401 
L 655.672999 210.776081 
L 658.172604 208.240964 
L 660.672208 205.50319 
L 663.171813 202.575693 
L 668.171023 196.206233 
L 673.170232 189.245915 
L 678.169442 181.811473 
L 683.168651 174.019466 
L 690.667465 161.907678 
L 708.164699 133.435788 
L 715.663513 121.824903 
L 720.662722 114.442778 
L 725.661932 107.400956 
L 730.661141 100.733782 
L 735.660351 94.465974 
L 740.65956 88.613368 
L 745.65877 83.183767 
L 750.657979 78.177863 
L 755.657189 73.590189 
L 760.656398 69.410085 
L 765.655608 65.622633 
L 770.654817 62.20955 
L 775.654027 59.150026 
L 780.653236 56.421478 
L 785.652446 54.000236 
L 790.651655 51.862132 
L 795.650865 49.98301 
L 800.650074 48.339147 
L 805.649284 46.907592 
L 810.648493 45.666436 
L 815.647703 44.595005 
L 823.146517 43.264268 
L 830.645331 42.213355 
L 838.144145 41.390823 
L 848.142564 40.574184 
L 858.140983 40.000307 
L 870.639007 39.524542 
L 885.636635 39.186375 
L 908.133078 38.943614 
L 943.127544 38.82647 
L 943.127544 38.82647 
" style="fill:none;stroke:#9a3670;stroke-linecap:square;stroke-width:1.5;"/>
   </g>
   <g id="line2d_18">
    <path clip-path="url(#pd847e9aff9)" d="M 93.261932 38.826796 
L 135.755212 38.996675 
L 158.251655 39.309017 
L 173.249284 39.730339 
L 185.747307 40.308478 
L 195.745726 40.991679 
L 203.244541 41.67759 
L 210.743355 42.551962 
L 218.242169 43.657224 
L 225.740983 45.042241 
L 230.740193 46.148048 
L 235.739402 47.420534 
L 240.738612 48.878695 
L 245.737821 50.542477 
L 250.737031 52.432573 
L 255.73624 54.570156 
L 260.73545 56.97655 
L 265.734659 59.672838 
L 270.733869 62.679386 
L 275.733078 66.015308 
L 280.732288 69.697856 
L 285.731497 73.741752 
L 290.730707 78.158454 
L 295.729916 82.95539 
L 300.729125 88.135153 
L 305.728335 93.694695 
L 310.727544 99.624522 
L 315.726754 105.907942 
L 320.725963 112.520367 
L 325.725173 119.428725 
L 333.223987 130.251699 
L 343.222406 145.248294 
L 355.72043 164.096031 
L 363.219244 174.936991 
L 368.218454 181.76521 
L 373.217663 188.153457 
L 378.216873 193.997844 
L 380.716477 196.684324 
L 383.216082 199.197386 
L 385.715687 201.525456 
L 388.215292 203.657629 
L 390.714896 205.583826 
L 393.214501 207.294955 
L 395.714106 208.783093 
L 398.21371 210.041676 
L 400.713315 211.06571 
L 403.21292 211.851991 
L 405.712525 212.399341 
L 408.212129 212.708859 
L 410.711734 212.784176 
L 413.211339 212.631726 
L 415.710944 212.26101 
L 418.210548 211.684868 
L 420.710153 210.91973 
L 423.209758 209.985854 
L 428.208967 207.713245 
L 440.706991 201.298824 
L 443.206596 200.243745 
L 445.706201 199.38647 
L 448.205805 198.784242 
L 450.70541 198.495313 
L 453.205015 198.577814 
L 455.70462 199.088461 
L 458.204224 200.081105 
L 460.703829 201.60516 
L 463.203434 203.703929 
L 465.703039 206.412881 
L 468.202643 209.757935 
L 470.702248 213.753802 
L 473.201853 218.402465 
L 475.701458 223.69186 
L 478.201062 229.594833 
L 480.700667 236.068441 
L 483.200272 243.053676 
L 488.199481 258.244214 
L 500.697505 298.264462 
L 503.19711 305.585779 
L 505.696714 312.3611 
L 508.196319 318.461235 
L 510.695924 323.767179 
L 513.195529 328.173559 
L 515.695133 331.591758 
L 518.194738 333.952585 
L 520.694343 335.208392 
L 523.193948 335.334545 
L 525.693552 334.330193 
L 528.193157 332.218289 
L 530.692762 329.044888 
L 533.192367 324.877725 
L 535.691971 319.804143 
L 538.191576 313.928468 
L 540.691181 307.36891 
L 543.190786 300.254143 
L 548.189995 284.904142 
L 555.688809 261.130017 
L 560.688019 246.245636 
L 563.187624 239.406472 
L 565.687228 233.076001 
L 568.186833 227.314567 
L 570.686438 222.166414 
L 573.186042 217.659928 
L 575.685647 213.8083 
L 578.185252 210.61053 
L 580.684857 208.052729 
L 583.184461 206.109618 
L 585.684066 204.746171 
L 588.183671 203.919331 
L 590.683276 203.579728 
L 593.18288 203.673362 
L 595.682485 204.143184 
L 598.18209 204.930561 
L 600.681695 205.976588 
L 603.181299 207.223234 
L 608.180509 210.096278 
L 615.679323 214.6037 
L 620.678533 217.246258 
L 623.178137 218.357121 
L 625.677742 219.292502 
L 628.177347 220.031138 
L 630.676952 220.555654 
L 633.176556 220.852338 
L 635.676161 220.910885 
L 638.175766 220.724145 
L 640.675371 220.287848 
L 643.174975 219.600345 
L 645.67458 218.662347 
L 648.174185 217.47668 
L 650.67379 216.048045 
L 653.173394 214.382795 
L 655.672999 212.488725 
L 658.172604 210.37488 
L 660.672208 208.051365 
L 663.171813 205.529185 
L 665.671418 202.820084 
L 670.670627 196.89094 
L 675.669837 190.367489 
L 680.669046 183.357017 
L 685.668256 175.967366 
L 693.16707 164.402104 
L 715.663513 129.199294 
L 723.162327 118.159655 
L 728.161537 111.159702 
L 733.160746 104.492271 
L 738.159956 98.185565 
L 743.159165 92.259424 
L 748.158375 86.726006 
L 753.157584 81.590554 
L 758.156793 76.852197 
L 763.156003 72.504795 
L 768.155212 68.537761 
L 773.154422 64.936869 
L 778.153631 61.685028 
L 783.152841 58.762987 
L 788.15205 56.14999 
L 793.15126 53.824361 
L 798.150469 51.764004 
L 803.149679 49.946848 
L 808.148888 48.351206 
L 813.148098 46.956075 
L 818.147307 45.741364 
L 825.646122 44.216347 
L 833.144936 42.995856 
L 840.64375 42.02753 
L 848.142564 41.265699 
L 858.140983 40.504294 
L 868.139402 39.964667 
L 880.637426 39.512614 
L 895.635054 39.18677 
L 918.131497 38.948032 
L 955.625568 38.825455 
L 955.625568 38.825455 
" style="fill:none;stroke:#722c6e;stroke-linecap:square;stroke-width:1.5;"/>
   </g>
   <g id="patch_3">
    <path d="M 50.14375 350.16 
L 50.14375 24 
" style="fill:none;stroke:#000000;stroke-linecap:square;stroke-linejoin:miter;stroke-width:0.8;"/>
   </g>
   <g id="patch_4">
    <path d="M 998.74375 350.16 
L 998.74375 24 
" style="fill:none;stroke:#000000;stroke-linecap:square;stroke-linejoin:miter;stroke-width:0.8;"/>
   </g>
   <g id="patch_5">
    <path d="M 50.14375 350.16 
L 998.74375 350.16 
" style="fill:none;stroke:#000000;stroke-linecap:square;stroke-linejoin:miter;stroke-width:0.8;"/>
   </g>
   <g id="patch_6">
    <path d="M 50.14375 24 
L 998.74375 24 
" style="fill:none;stroke:#000000;stroke-linecap:square;stroke-linejoin:miter;stroke-width:0.8;"/>
   </g>
   <g id="text_16">
    <!-- Profile variations: B = 0.01  $\Delta B =$ 0% ,  $\Delta C =$ 0% , $\zeta  = $-0.6, $\sigma = $0.1953$cm^{-1}$ -->
    <g transform="translate(298.36375 18)scale(0.12 -0.12)">
     <defs>
      <path d="M 1259 4147 
L 1259 2394 
L 2053 2394 
Q 2494 2394 2734 2622 
Q 2975 2850 2975 3272 
Q 2975 3691 2734 3919 
Q 2494 4147 2053 4147 
L 1259 4147 
z
M 628 4666 
L 2053 4666 
Q 2838 4666 3239 4311 
Q 3641 3956 3641 3272 
Q 3641 2581 3239 2228 
Q 2838 1875 2053 1875 
L 1259 1875 
L 1259 0 
L 628 0 
L 628 4666 
z
" id="DejaVuSans-50" transform="scale(0.015625)"/>
      <path d="M 2375 4863 
L 2375 4384 
L 1825 4384 
Q 1516 4384 1395 4259 
Q 1275 4134 1275 3809 
L 1275 3500 
L 2222 3500 
L 2222 3053 
L 1275 3053 
L 1275 0 
L 697 0 
L 697 3053 
L 147 3053 
L 147 3500 
L 697 3500 
L 697 3744 
Q 697 4328 969 4595 
Q 1241 4863 1831 4863 
L 2375 4863 
z
" id="DejaVuSans-66" transform="scale(0.015625)"/>
      <path d="M 750 794 
L 1409 794 
L 1409 0 
L 750 0 
L 750 794 
z
M 750 3309 
L 1409 3309 
L 1409 2516 
L 750 2516 
L 750 3309 
z
" id="DejaVuSans-3a" transform="scale(0.015625)"/>
      <path d="M 1259 2228 
L 1259 519 
L 2272 519 
Q 2781 519 3026 730 
Q 3272 941 3272 1375 
Q 3272 1813 3026 2020 
Q 2781 2228 2272 2228 
L 1259 2228 
z
M 1259 4147 
L 1259 2741 
L 2194 2741 
Q 2656 2741 2882 2914 
Q 3109 3088 3109 3444 
Q 3109 3797 2882 3972 
Q 2656 4147 2194 4147 
L 1259 4147 
z
M 628 4666 
L 2241 4666 
Q 2963 4666 3353 4366 
Q 3744 4066 3744 3513 
Q 3744 3084 3544 2831 
Q 3344 2578 2956 2516 
Q 3422 2416 3680 2098 
Q 3938 1781 3938 1306 
Q 3938 681 3513 340 
Q 3088 0 2303 0 
L 628 0 
L 628 4666 
z
" id="DejaVuSans-42" transform="scale(0.015625)"/>
      <path d="M 678 2906 
L 4684 2906 
L 4684 2381 
L 678 2381 
L 678 2906 
z
M 678 1631 
L 4684 1631 
L 4684 1100 
L 678 1100 
L 678 1631 
z
" id="DejaVuSans-3d" transform="scale(0.015625)"/>
      <path d="M 2188 4044 
L 906 525 
L 3472 525 
L 2188 4044 
z
M 50 0 
L 1831 4666 
L 2547 4666 
L 4325 0 
L 50 0 
z
" id="DejaVuSans-394" transform="scale(0.015625)"/>
      <path d="M 1081 4666 
L 2694 4666 
Q 3350 4666 3675 4422 
Q 4000 4178 4000 3688 
Q 4000 3238 3720 2911 
Q 3441 2584 2988 2516 
Q 3375 2428 3569 2181 
Q 3763 1934 3763 1522 
Q 3763 819 3242 409 
Q 2722 0 1819 0 
L 172 0 
L 1081 4666 
z
M 1234 2228 
L 903 519 
L 1919 519 
Q 2491 519 2800 781 
Q 3109 1044 3109 1522 
Q 3109 1891 2904 2059 
Q 2700 2228 2247 2228 
L 1234 2228 
z
M 1606 4147 
L 1331 2741 
L 2272 2741 
Q 2775 2741 3058 2959 
Q 3341 3178 3341 3566 
Q 3341 3869 3150 4008 
Q 2959 4147 2541 4147 
L 1606 4147 
z
" id="DejaVuSans-Oblique-42" transform="scale(0.015625)"/>
      <path d="M 4653 2053 
Q 4381 2053 4226 1822 
Q 4072 1591 4072 1178 
Q 4072 772 4226 539 
Q 4381 306 4653 306 
Q 4919 306 5073 539 
Q 5228 772 5228 1178 
Q 5228 1588 5073 1820 
Q 4919 2053 4653 2053 
z
M 4653 2450 
Q 5147 2450 5437 2106 
Q 5728 1763 5728 1178 
Q 5728 594 5436 251 
Q 5144 -91 4653 -91 
Q 4153 -91 3862 251 
Q 3572 594 3572 1178 
Q 3572 1766 3864 2108 
Q 4156 2450 4653 2450 
z
M 1428 4353 
Q 1159 4353 1004 4120 
Q 850 3888 850 3481 
Q 850 3069 1003 2837 
Q 1156 2606 1428 2606 
Q 1700 2606 1854 2837 
Q 2009 3069 2009 3481 
Q 2009 3884 1853 4118 
Q 1697 4353 1428 4353 
z
M 4250 4750 
L 4750 4750 
L 1831 -91 
L 1331 -91 
L 4250 4750 
z
M 1428 4750 
Q 1922 4750 2215 4408 
Q 2509 4066 2509 3481 
Q 2509 2891 2217 2550 
Q 1925 2209 1428 2209 
Q 931 2209 642 2551 
Q 353 2894 353 3481 
Q 353 4063 643 4406 
Q 934 4750 1428 4750 
z
" id="DejaVuSans-25" transform="scale(0.015625)"/>
      <path d="M 750 794 
L 1409 794 
L 1409 256 
L 897 -744 
L 494 -744 
L 750 256 
L 750 794 
z
" id="DejaVuSans-2c" transform="scale(0.015625)"/>
      <path d="M 4447 4306 
L 4319 3641 
Q 4019 3944 3683 4091 
Q 3347 4238 2956 4238 
Q 2422 4238 2017 3981 
Q 1613 3725 1319 3200 
Q 1131 2863 1032 2486 
Q 934 2109 934 1728 
Q 934 1091 1264 756 
Q 1594 422 2222 422 
Q 2656 422 3056 561 
Q 3456 700 3834 978 
L 3688 231 
Q 3316 72 2936 -9 
Q 2556 -91 2175 -91 
Q 1278 -91 773 396 
Q 269 884 269 1753 
Q 269 2309 461 2846 
Q 653 3384 1013 3828 
Q 1394 4300 1883 4525 
Q 2372 4750 3022 4750 
Q 3422 4750 3780 4639 
Q 4138 4528 4447 4306 
z
" id="DejaVuSans-Oblique-43" transform="scale(0.015625)"/>
      <path d="M 1966 397 
Q 2378 394 2578 159 
Q 2794 -88 2722 -463 
Q 2650 -822 2372 -1072 
Q 2069 -1344 1559 -1344 
Q 1606 -1109 1650 -872 
Q 1863 -888 2022 -750 
Q 2144 -641 2166 -525 
Q 2197 -359 2125 -222 
Q 2050 -91 1872 -91 
Q -22 -91 316 1669 
Q 616 3206 2609 4284 
L 947 4284 
L 1059 4863 
L 3778 4863 
L 3666 4284 
Q 1181 3147 894 1669 
Q 647 397 1966 397 
z
" id="DejaVuSans-Oblique-3b6" transform="scale(0.015625)"/>
      <path d="M 313 2009 
L 1997 2009 
L 1997 1497 
L 313 1497 
L 313 2009 
z
" id="DejaVuSans-2d" transform="scale(0.015625)"/>
      <path d="M 2219 3044 
Q 1744 3044 1422 2700 
Q 1081 2341 969 1747 
Q 844 1119 1044 756 
Q 1241 397 1706 397 
Q 2166 397 2503 759 
Q 2844 1122 2966 1747 
Q 3075 2319 2881 2700 
Q 2700 3044 2219 3044 
z
M 2309 3503 
L 4219 3500 
L 4106 2925 
L 3463 2925 
Q 3706 2438 3575 1747 
Q 3406 888 2884 400 
Q 2359 -91 1609 -91 
Q 856 -91 525 400 
Q 194 888 363 1747 
Q 528 2609 1050 3097 
Q 1484 3503 2309 3503 
z
" id="DejaVuSans-Oblique-3c3" transform="scale(0.015625)"/>
      <path d="M 691 4666 
L 3169 4666 
L 3169 4134 
L 1269 4134 
L 1269 2991 
Q 1406 3038 1543 3061 
Q 1681 3084 1819 3084 
Q 2600 3084 3056 2656 
Q 3513 2228 3513 1497 
Q 3513 744 3044 326 
Q 2575 -91 1722 -91 
Q 1428 -91 1123 -41 
Q 819 9 494 109 
L 494 744 
Q 775 591 1075 516 
Q 1375 441 1709 441 
Q 2250 441 2565 725 
Q 2881 1009 2881 1497 
Q 2881 1984 2565 2268 
Q 2250 2553 1709 2553 
Q 1456 2553 1204 2497 
Q 953 2441 691 2322 
L 691 4666 
z
" id="DejaVuSans-35" transform="scale(0.015625)"/>
     </defs>
     <use transform="translate(0 0.684375)" xlink:href="#DejaVuSans-50"/>
     <use transform="translate(60.302734 0.684375)" xlink:href="#DejaVuSans-72"/>
     <use transform="translate(101.416016 0.684375)" xlink:href="#DejaVuSans-6f"/>
     <use transform="translate(162.597656 0.684375)" xlink:href="#DejaVuSans-66"/>
     <use transform="translate(197.802734 0.684375)" xlink:href="#DejaVuSans-69"/>
     <use transform="translate(225.585938 0.684375)" xlink:href="#DejaVuSans-6c"/>
     <use transform="translate(253.369141 0.684375)" xlink:href="#DejaVuSans-65"/>
     <use transform="translate(314.892578 0.684375)" xlink:href="#DejaVuSans-20"/>
     <use transform="translate(346.679688 0.684375)" xlink:href="#DejaVuSans-76"/>
     <use transform="translate(405.859375 0.684375)" xlink:href="#DejaVuSans-61"/>
     <use transform="translate(467.138672 0.684375)" xlink:href="#DejaVuSans-72"/>
     <use transform="translate(508.251953 0.684375)" xlink:href="#DejaVuSans-69"/>
     <use transform="translate(536.035156 0.684375)" xlink:href="#DejaVuSans-61"/>
     <use transform="translate(597.314453 0.684375)" xlink:href="#DejaVuSans-74"/>
     <use transform="translate(636.523438 0.684375)" xlink:href="#DejaVuSans-69"/>
     <use transform="translate(664.306641 0.684375)" xlink:href="#DejaVuSans-6f"/>
     <use transform="translate(725.488281 0.684375)" xlink:href="#DejaVuSans-6e"/>
     <use transform="translate(788.867188 0.684375)" xlink:href="#DejaVuSans-73"/>
     <use transform="translate(840.966797 0.684375)" xlink:href="#DejaVuSans-3a"/>
     <use transform="translate(874.658203 0.684375)" xlink:href="#DejaVuSans-20"/>
     <use transform="translate(906.445312 0.684375)" xlink:href="#DejaVuSans-42"/>
     <use transform="translate(975.048828 0.684375)" xlink:href="#DejaVuSans-20"/>
     <use transform="translate(1006.835938 0.684375)" xlink:href="#DejaVuSans-3d"/>
     <use transform="translate(1090.625 0.684375)" xlink:href="#DejaVuSans-20"/>
     <use transform="translate(1122.412109 0.684375)" xlink:href="#DejaVuSans-30"/>
     <use transform="translate(1186.035156 0.684375)" xlink:href="#DejaVuSans-2e"/>
     <use transform="translate(1217.822266 0.684375)" xlink:href="#DejaVuSans-30"/>
     <use transform="translate(1281.445312 0.684375)" xlink:href="#DejaVuSans-31"/>
     <use transform="translate(1345.068359 0.684375)" xlink:href="#DejaVuSans-20"/>
     <use transform="translate(1376.855469 0.684375)" xlink:href="#DejaVuSans-20"/>
     <use transform="translate(1408.642578 0.684375)" xlink:href="#DejaVuSans-394"/>
     <use transform="translate(1477.050781 0.684375)" xlink:href="#DejaVuSans-Oblique-42"/>
     <use transform="translate(1565.136719 0.684375)" xlink:href="#DejaVuSans-3d"/>
     <use transform="translate(1668.408203 0.684375)" xlink:href="#DejaVuSans-20"/>
     <use transform="translate(1700.195312 0.684375)" xlink:href="#DejaVuSans-30"/>
     <use transform="translate(1763.818359 0.684375)" xlink:href="#DejaVuSans-25"/>
     <use transform="translate(1858.837891 0.684375)" xlink:href="#DejaVuSans-20"/>
     <use transform="translate(1890.625 0.684375)" xlink:href="#DejaVuSans-2c"/>
     <use transform="translate(1922.412109 0.684375)" xlink:href="#DejaVuSans-20"/>
     <use transform="translate(1954.199219 0.684375)" xlink:href="#DejaVuSans-20"/>
     <use transform="translate(1985.986328 0.684375)" xlink:href="#DejaVuSans-394"/>
     <use transform="translate(2054.394531 0.684375)" xlink:href="#DejaVuSans-Oblique-43"/>
     <use transform="translate(2143.701172 0.684375)" xlink:href="#DejaVuSans-3d"/>
     <use transform="translate(2246.972656 0.684375)" xlink:href="#DejaVuSans-20"/>
     <use transform="translate(2278.759766 0.684375)" xlink:href="#DejaVuSans-30"/>
     <use transform="translate(2342.382812 0.684375)" xlink:href="#DejaVuSans-25"/>
     <use transform="translate(2437.402344 0.684375)" xlink:href="#DejaVuSans-20"/>
     <use transform="translate(2469.189453 0.684375)" xlink:href="#DejaVuSans-2c"/>
     <use transform="translate(2500.976562 0.684375)" xlink:href="#DejaVuSans-20"/>
     <use transform="translate(2532.763672 0.684375)" xlink:href="#DejaVuSans-Oblique-3b6"/>
     <use transform="translate(2606.640625 0.684375)" xlink:href="#DejaVuSans-3d"/>
     <use transform="translate(2709.912109 0.684375)" xlink:href="#DejaVuSans-2d"/>
     <use transform="translate(2745.996094 0.684375)" xlink:href="#DejaVuSans-30"/>
     <use transform="translate(2809.619141 0.684375)" xlink:href="#DejaVuSans-2e"/>
     <use transform="translate(2841.40625 0.684375)" xlink:href="#DejaVuSans-36"/>
     <use transform="translate(2905.029297 0.684375)" xlink:href="#DejaVuSans-2c"/>
     <use transform="translate(2936.816406 0.684375)" xlink:href="#DejaVuSans-20"/>
     <use transform="translate(2968.603516 0.684375)" xlink:href="#DejaVuSans-Oblique-3c3"/>
     <use transform="translate(3051.464844 0.684375)" xlink:href="#DejaVuSans-3d"/>
     <use transform="translate(3154.736328 0.684375)" xlink:href="#DejaVuSans-30"/>
     <use transform="translate(3218.359375 0.684375)" xlink:href="#DejaVuSans-2e"/>
     <use transform="translate(3250.146484 0.684375)" xlink:href="#DejaVuSans-31"/>
     <use transform="translate(3313.769531 0.684375)" xlink:href="#DejaVuSans-39"/>
     <use transform="translate(3377.392578 0.684375)" xlink:href="#DejaVuSans-35"/>
     <use transform="translate(3441.015625 0.684375)" xlink:href="#DejaVuSans-33"/>
     <use transform="translate(3504.638672 0.684375)" xlink:href="#DejaVuSans-Oblique-63"/>
     <use transform="translate(3559.619141 0.684375)" xlink:href="#DejaVuSans-Oblique-6d"/>
     <use transform="translate(3661.681146 38.965625)scale(0.7)" xlink:href="#DejaVuSans-2212"/>
     <use transform="translate(3720.33349 38.965625)scale(0.7)" xlink:href="#DejaVuSans-31"/>
    </g>
   </g>
   <g id="legend_1">
    <g id="patch_7">
     <path d="M 57.14375 345.16 
L 124.482813 345.16 
Q 126.482813 345.16 126.482813 343.16 
L 126.482813 256.09125 
Q 126.482813 254.09125 124.482813 254.09125 
L 57.14375 254.09125 
Q 55.14375 254.09125 55.14375 256.09125 
L 55.14375 343.16 
Q 55.14375 345.16 57.14375 345.16 
z
" style="fill:#ffffff;opacity:0.8;stroke:#cccccc;stroke-linejoin:miter;"/>
    </g>
    <g id="text_17">
     <!-- Temperature -->
     <g transform="translate(59.14375 265.689687)scale(0.1 -0.1)">
      <defs>
       <path d="M -19 4666 
L 3928 4666 
L 3928 4134 
L 2272 4134 
L 2272 0 
L 1638 0 
L 1638 4134 
L -19 4134 
L -19 4666 
z
" id="DejaVuSans-54" transform="scale(0.015625)"/>
       <path d="M 1159 525 
L 1159 -1331 
L 581 -1331 
L 581 3500 
L 1159 3500 
L 1159 2969 
Q 1341 3281 1617 3432 
Q 1894 3584 2278 3584 
Q 2916 3584 3314 3078 
Q 3713 2572 3713 1747 
Q 3713 922 3314 415 
Q 2916 -91 2278 -91 
Q 1894 -91 1617 61 
Q 1341 213 1159 525 
z
M 3116 1747 
Q 3116 2381 2855 2742 
Q 2594 3103 2138 3103 
Q 1681 3103 1420 2742 
Q 1159 2381 1159 1747 
Q 1159 1113 1420 752 
Q 1681 391 2138 391 
Q 2594 391 2855 752 
Q 3116 1113 3116 1747 
z
" id="DejaVuSans-70" transform="scale(0.015625)"/>
      </defs>
      <use xlink:href="#DejaVuSans-54"/>
      <use x="44.083984" xlink:href="#DejaVuSans-65"/>
      <use x="105.607422" xlink:href="#DejaVuSans-6d"/>
      <use x="203.019531" xlink:href="#DejaVuSans-70"/>
      <use x="266.496094" xlink:href="#DejaVuSans-65"/>
      <use x="328.019531" xlink:href="#DejaVuSans-72"/>
      <use x="369.132812" xlink:href="#DejaVuSans-61"/>
      <use x="430.412109" xlink:href="#DejaVuSans-74"/>
      <use x="469.621094" xlink:href="#DejaVuSans-75"/>
      <use x="533" xlink:href="#DejaVuSans-72"/>
      <use x="571.863281" xlink:href="#DejaVuSans-65"/>
     </g>
    </g>
    <g id="line2d_19">
     <path d="M 59.317969 276.867812 
L 79.317969 276.867812 
" style="fill:none;stroke:#e98768;stroke-linecap:square;stroke-width:1.5;"/>
    </g>
    <g id="line2d_20"/>
    <g id="text_18">
     <!-- 14.0 -->
     <g transform="translate(87.317969 280.367812)scale(0.1 -0.1)">
      <use xlink:href="#DejaVuSans-31"/>
      <use x="63.623047" xlink:href="#DejaVuSans-34"/>
      <use x="127.246094" xlink:href="#DejaVuSans-2e"/>
      <use x="159.033203" xlink:href="#DejaVuSans-30"/>
     </g>
    </g>
    <g id="line2d_21">
     <path d="M 59.317969 291.545937 
L 79.317969 291.545937 
" style="fill:none;stroke:#de5d5c;stroke-linecap:square;stroke-width:1.5;"/>
    </g>
    <g id="line2d_22"/>
    <g id="text_19">
     <!-- 15.125 -->
     <g transform="translate(87.317969 295.045937)scale(0.1 -0.1)">
      <use xlink:href="#DejaVuSans-31"/>
      <use x="63.623047" xlink:href="#DejaVuSans-35"/>
      <use x="127.246094" xlink:href="#DejaVuSans-2e"/>
      <use x="159.033203" xlink:href="#DejaVuSans-31"/>
      <use x="222.65625" xlink:href="#DejaVuSans-32"/>
      <use x="286.279297" xlink:href="#DejaVuSans-35"/>
     </g>
    </g>
    <g id="line2d_23">
     <path d="M 59.317969 306.224062 
L 79.317969 306.224062 
" style="fill:none;stroke:#c14168;stroke-linecap:square;stroke-width:1.5;"/>
    </g>
    <g id="line2d_24"/>
    <g id="text_20">
     <!-- 16.25 -->
     <g transform="translate(87.317969 309.724062)scale(0.1 -0.1)">
      <use xlink:href="#DejaVuSans-31"/>
      <use x="63.623047" xlink:href="#DejaVuSans-36"/>
      <use x="127.246094" xlink:href="#DejaVuSans-2e"/>
      <use x="159.033203" xlink:href="#DejaVuSans-32"/>
      <use x="222.65625" xlink:href="#DejaVuSans-35"/>
     </g>
    </g>
    <g id="line2d_25">
     <path d="M 59.317969 320.902187 
L 79.317969 320.902187 
" style="fill:none;stroke:#9a3670;stroke-linecap:square;stroke-width:1.5;"/>
    </g>
    <g id="line2d_26"/>
    <g id="text_21">
     <!-- 17.375 -->
     <g transform="translate(87.317969 324.402187)scale(0.1 -0.1)">
      <defs>
       <path d="M 525 4666 
L 3525 4666 
L 3525 4397 
L 1831 0 
L 1172 0 
L 2766 4134 
L 525 4134 
L 525 4666 
z
" id="DejaVuSans-37" transform="scale(0.015625)"/>
      </defs>
      <use xlink:href="#DejaVuSans-31"/>
      <use x="63.623047" xlink:href="#DejaVuSans-37"/>
      <use x="127.246094" xlink:href="#DejaVuSans-2e"/>
      <use x="159.033203" xlink:href="#DejaVuSans-33"/>
      <use x="222.65625" xlink:href="#DejaVuSans-37"/>
      <use x="286.279297" xlink:href="#DejaVuSans-35"/>
     </g>
    </g>
    <g id="line2d_27">
     <path d="M 59.317969 335.580312 
L 79.317969 335.580312 
" style="fill:none;stroke:#722c6e;stroke-linecap:square;stroke-width:1.5;"/>
    </g>
    <g id="line2d_28"/>
    <g id="text_22">
     <!-- 18.5 -->
     <g transform="translate(87.317969 339.080312)scale(0.1 -0.1)">
      <use xlink:href="#DejaVuSans-31"/>
      <use x="63.623047" xlink:href="#DejaVuSans-38"/>
      <use x="127.246094" xlink:href="#DejaVuSans-2e"/>
      <use x="159.033203" xlink:href="#DejaVuSans-35"/>
     </g>
    </g>
   </g>
  </g>
 </g>
 <defs>
  <clipPath id="pd847e9aff9">
   <rect height="326.16" width="948.6" x="50.14375" y="24"/>
  </clipPath>
 </defs>
</svg>
