<?xml version="1.0" encoding="utf-8" standalone="no"?>
<!DOCTYPE svg PUBLIC "-//W3C//DTD SVG 1.1//EN"
  "http://www.w3.org/Graphics/SVG/1.1/DTD/svg11.dtd">
<svg height="388.438125pt" version="1.1" viewBox="0 0 1005.94375 388.438125" width="1005.94375pt" xmlns="http://www.w3.org/2000/svg" xmlns:xlink="http://www.w3.org/1999/xlink">
 <metadata>
  <rdf:RDF xmlns:cc="http://creativecommons.org/ns#" xmlns:dc="http://purl.org/dc/elements/1.1/" xmlns:rdf="http://www.w3.org/1999/02/22-rdf-syntax-ns#">
   <cc:Work>
    <dc:type rdf:resource="http://purl.org/dc/dcmitype/StillImage"/>
    <dc:date>2022-11-23T07:04:19.066939</dc:date>
    <dc:format>image/svg+xml</dc:format>
    <dc:creator>
     <cc:Agent>
      <dc:title>Matplotlib v3.4.3, https://matplotlib.org/</dc:title>
     </cc:Agent>
    </dc:creator>
   </cc:Work>
  </rdf:RDF>
 </metadata>
 <defs>
  <style type="text/css">*{stroke-linecap:butt;stroke-linejoin:round;}</style>
 </defs>
 <g id="figure_1">
  <g id="patch_1">
   <path d="M 0 388.438125 
L 1005.94375 388.438125 
L 1005.94375 0 
L 0 0 
z
" style="fill:#ffffff;"/>
  </g>
  <g id="axes_1">
   <g id="patch_2">
    <path d="M 50.14375 350.16 
L 998.74375 350.16 
L 998.74375 24 
L 50.14375 24 
z
" style="fill:#ffffff;"/>
   </g>
   <g id="matplotlib.axis_1">
    <g id="xtick_1">
     <g id="line2d_1">
      <defs>
       <path d="M 0 0 
L 0 3.5 
" id="mbc8990dbfa" style="stroke:#000000;stroke-width:0.8;"/>
      </defs>
      <g>
       <use style="stroke:#000000;stroke-width:0.8;" x="55.180964" xlink:href="#mbc8990dbfa" y="350.16"/>
      </g>
     </g>
     <g id="text_1">
      <!-- −3 -->
      <g transform="translate(47.80987 364.758437)scale(0.1 -0.1)">
       <defs>
        <path d="M 678 2272 
L 4684 2272 
L 4684 1741 
L 678 1741 
L 678 2272 
z
" id="DejaVuSans-2212" transform="scale(0.015625)"/>
        <path d="M 2597 2516 
Q 3050 2419 3304 2112 
Q 3559 1806 3559 1356 
Q 3559 666 3084 287 
Q 2609 -91 1734 -91 
Q 1441 -91 1130 -33 
Q 819 25 488 141 
L 488 750 
Q 750 597 1062 519 
Q 1375 441 1716 441 
Q 2309 441 2620 675 
Q 2931 909 2931 1356 
Q 2931 1769 2642 2001 
Q 2353 2234 1838 2234 
L 1294 2234 
L 1294 2753 
L 1863 2753 
Q 2328 2753 2575 2939 
Q 2822 3125 2822 3475 
Q 2822 3834 2567 4026 
Q 2313 4219 1838 4219 
Q 1578 4219 1281 4162 
Q 984 4106 628 3988 
L 628 4550 
Q 988 4650 1302 4700 
Q 1616 4750 1894 4750 
Q 2613 4750 3031 4423 
Q 3450 4097 3450 3541 
Q 3450 3153 3228 2886 
Q 3006 2619 2597 2516 
z
" id="DejaVuSans-33" transform="scale(0.015625)"/>
       </defs>
       <use xlink:href="#DejaVuSans-2212"/>
       <use x="83.789062" xlink:href="#DejaVuSans-33"/>
      </g>
     </g>
    </g>
    <g id="xtick_2">
     <g id="line2d_2">
      <g>
       <use style="stroke:#000000;stroke-width:0.8;" x="211.28397" xlink:href="#mbc8990dbfa" y="350.16"/>
      </g>
     </g>
     <g id="text_2">
      <!-- −2 -->
      <g transform="translate(203.912877 364.758437)scale(0.1 -0.1)">
       <defs>
        <path d="M 1228 531 
L 3431 531 
L 3431 0 
L 469 0 
L 469 531 
Q 828 903 1448 1529 
Q 2069 2156 2228 2338 
Q 2531 2678 2651 2914 
Q 2772 3150 2772 3378 
Q 2772 3750 2511 3984 
Q 2250 4219 1831 4219 
Q 1534 4219 1204 4116 
Q 875 4013 500 3803 
L 500 4441 
Q 881 4594 1212 4672 
Q 1544 4750 1819 4750 
Q 2544 4750 2975 4387 
Q 3406 4025 3406 3419 
Q 3406 3131 3298 2873 
Q 3191 2616 2906 2266 
Q 2828 2175 2409 1742 
Q 1991 1309 1228 531 
z
" id="DejaVuSans-32" transform="scale(0.015625)"/>
       </defs>
       <use xlink:href="#DejaVuSans-2212"/>
       <use x="83.789062" xlink:href="#DejaVuSans-32"/>
      </g>
     </g>
    </g>
    <g id="xtick_3">
     <g id="line2d_3">
      <g>
       <use style="stroke:#000000;stroke-width:0.8;" x="367.386977" xlink:href="#mbc8990dbfa" y="350.16"/>
      </g>
     </g>
     <g id="text_3">
      <!-- −1 -->
      <g transform="translate(360.015883 364.758437)scale(0.1 -0.1)">
       <defs>
        <path d="M 794 531 
L 1825 531 
L 1825 4091 
L 703 3866 
L 703 4441 
L 1819 4666 
L 2450 4666 
L 2450 531 
L 3481 531 
L 3481 0 
L 794 0 
L 794 531 
z
" id="DejaVuSans-31" transform="scale(0.015625)"/>
       </defs>
       <use xlink:href="#DejaVuSans-2212"/>
       <use x="83.789062" xlink:href="#DejaVuSans-31"/>
      </g>
     </g>
    </g>
    <g id="xtick_4">
     <g id="line2d_4">
      <g>
       <use style="stroke:#000000;stroke-width:0.8;" x="523.489983" xlink:href="#mbc8990dbfa" y="350.16"/>
      </g>
     </g>
     <g id="text_4">
      <!-- 0 -->
      <g transform="translate(520.308733 364.758437)scale(0.1 -0.1)">
       <defs>
        <path d="M 2034 4250 
Q 1547 4250 1301 3770 
Q 1056 3291 1056 2328 
Q 1056 1369 1301 889 
Q 1547 409 2034 409 
Q 2525 409 2770 889 
Q 3016 1369 3016 2328 
Q 3016 3291 2770 3770 
Q 2525 4250 2034 4250 
z
M 2034 4750 
Q 2819 4750 3233 4129 
Q 3647 3509 3647 2328 
Q 3647 1150 3233 529 
Q 2819 -91 2034 -91 
Q 1250 -91 836 529 
Q 422 1150 422 2328 
Q 422 3509 836 4129 
Q 1250 4750 2034 4750 
z
" id="DejaVuSans-30" transform="scale(0.015625)"/>
       </defs>
       <use xlink:href="#DejaVuSans-30"/>
      </g>
     </g>
    </g>
    <g id="xtick_5">
     <g id="line2d_5">
      <g>
       <use style="stroke:#000000;stroke-width:0.8;" x="679.59299" xlink:href="#mbc8990dbfa" y="350.16"/>
      </g>
     </g>
     <g id="text_5">
      <!-- 1 -->
      <g transform="translate(676.41174 364.758437)scale(0.1 -0.1)">
       <use xlink:href="#DejaVuSans-31"/>
      </g>
     </g>
    </g>
    <g id="xtick_6">
     <g id="line2d_6">
      <g>
       <use style="stroke:#000000;stroke-width:0.8;" x="835.695997" xlink:href="#mbc8990dbfa" y="350.16"/>
      </g>
     </g>
     <g id="text_6">
      <!-- 2 -->
      <g transform="translate(832.514747 364.758437)scale(0.1 -0.1)">
       <use xlink:href="#DejaVuSans-32"/>
      </g>
     </g>
    </g>
    <g id="xtick_7">
     <g id="line2d_7">
      <g>
       <use style="stroke:#000000;stroke-width:0.8;" x="991.799003" xlink:href="#mbc8990dbfa" y="350.16"/>
      </g>
     </g>
     <g id="text_7">
      <!-- 3 -->
      <g transform="translate(988.617753 364.758437)scale(0.1 -0.1)">
       <use xlink:href="#DejaVuSans-33"/>
      </g>
     </g>
    </g>
    <g id="text_8">
     <!-- wavenumber (in $cm^{-1}$) -->
     <g transform="translate(466.94375 379.158437)scale(0.1 -0.1)">
      <defs>
       <path d="M 269 3500 
L 844 3500 
L 1563 769 
L 2278 3500 
L 2956 3500 
L 3675 769 
L 4391 3500 
L 4966 3500 
L 4050 0 
L 3372 0 
L 2619 2869 
L 1863 0 
L 1184 0 
L 269 3500 
z
" id="DejaVuSans-77" transform="scale(0.015625)"/>
       <path d="M 2194 1759 
Q 1497 1759 1228 1600 
Q 959 1441 959 1056 
Q 959 750 1161 570 
Q 1363 391 1709 391 
Q 2188 391 2477 730 
Q 2766 1069 2766 1631 
L 2766 1759 
L 2194 1759 
z
M 3341 1997 
L 3341 0 
L 2766 0 
L 2766 531 
Q 2569 213 2275 61 
Q 1981 -91 1556 -91 
Q 1019 -91 701 211 
Q 384 513 384 1019 
Q 384 1609 779 1909 
Q 1175 2209 1959 2209 
L 2766 2209 
L 2766 2266 
Q 2766 2663 2505 2880 
Q 2244 3097 1772 3097 
Q 1472 3097 1187 3025 
Q 903 2953 641 2809 
L 641 3341 
Q 956 3463 1253 3523 
Q 1550 3584 1831 3584 
Q 2591 3584 2966 3190 
Q 3341 2797 3341 1997 
z
" id="DejaVuSans-61" transform="scale(0.015625)"/>
       <path d="M 191 3500 
L 800 3500 
L 1894 563 
L 2988 3500 
L 3597 3500 
L 2284 0 
L 1503 0 
L 191 3500 
z
" id="DejaVuSans-76" transform="scale(0.015625)"/>
       <path d="M 3597 1894 
L 3597 1613 
L 953 1613 
Q 991 1019 1311 708 
Q 1631 397 2203 397 
Q 2534 397 2845 478 
Q 3156 559 3463 722 
L 3463 178 
Q 3153 47 2828 -22 
Q 2503 -91 2169 -91 
Q 1331 -91 842 396 
Q 353 884 353 1716 
Q 353 2575 817 3079 
Q 1281 3584 2069 3584 
Q 2775 3584 3186 3129 
Q 3597 2675 3597 1894 
z
M 3022 2063 
Q 3016 2534 2758 2815 
Q 2500 3097 2075 3097 
Q 1594 3097 1305 2825 
Q 1016 2553 972 2059 
L 3022 2063 
z
" id="DejaVuSans-65" transform="scale(0.015625)"/>
       <path d="M 3513 2113 
L 3513 0 
L 2938 0 
L 2938 2094 
Q 2938 2591 2744 2837 
Q 2550 3084 2163 3084 
Q 1697 3084 1428 2787 
Q 1159 2491 1159 1978 
L 1159 0 
L 581 0 
L 581 3500 
L 1159 3500 
L 1159 2956 
Q 1366 3272 1645 3428 
Q 1925 3584 2291 3584 
Q 2894 3584 3203 3211 
Q 3513 2838 3513 2113 
z
" id="DejaVuSans-6e" transform="scale(0.015625)"/>
       <path d="M 544 1381 
L 544 3500 
L 1119 3500 
L 1119 1403 
Q 1119 906 1312 657 
Q 1506 409 1894 409 
Q 2359 409 2629 706 
Q 2900 1003 2900 1516 
L 2900 3500 
L 3475 3500 
L 3475 0 
L 2900 0 
L 2900 538 
Q 2691 219 2414 64 
Q 2138 -91 1772 -91 
Q 1169 -91 856 284 
Q 544 659 544 1381 
z
M 1991 3584 
L 1991 3584 
z
" id="DejaVuSans-75" transform="scale(0.015625)"/>
       <path d="M 3328 2828 
Q 3544 3216 3844 3400 
Q 4144 3584 4550 3584 
Q 5097 3584 5394 3201 
Q 5691 2819 5691 2113 
L 5691 0 
L 5113 0 
L 5113 2094 
Q 5113 2597 4934 2840 
Q 4756 3084 4391 3084 
Q 3944 3084 3684 2787 
Q 3425 2491 3425 1978 
L 3425 0 
L 2847 0 
L 2847 2094 
Q 2847 2600 2669 2842 
Q 2491 3084 2119 3084 
Q 1678 3084 1418 2786 
Q 1159 2488 1159 1978 
L 1159 0 
L 581 0 
L 581 3500 
L 1159 3500 
L 1159 2956 
Q 1356 3278 1631 3431 
Q 1906 3584 2284 3584 
Q 2666 3584 2933 3390 
Q 3200 3197 3328 2828 
z
" id="DejaVuSans-6d" transform="scale(0.015625)"/>
       <path d="M 3116 1747 
Q 3116 2381 2855 2742 
Q 2594 3103 2138 3103 
Q 1681 3103 1420 2742 
Q 1159 2381 1159 1747 
Q 1159 1113 1420 752 
Q 1681 391 2138 391 
Q 2594 391 2855 752 
Q 3116 1113 3116 1747 
z
M 1159 2969 
Q 1341 3281 1617 3432 
Q 1894 3584 2278 3584 
Q 2916 3584 3314 3078 
Q 3713 2572 3713 1747 
Q 3713 922 3314 415 
Q 2916 -91 2278 -91 
Q 1894 -91 1617 61 
Q 1341 213 1159 525 
L 1159 0 
L 581 0 
L 581 4863 
L 1159 4863 
L 1159 2969 
z
" id="DejaVuSans-62" transform="scale(0.015625)"/>
       <path d="M 2631 2963 
Q 2534 3019 2420 3045 
Q 2306 3072 2169 3072 
Q 1681 3072 1420 2755 
Q 1159 2438 1159 1844 
L 1159 0 
L 581 0 
L 581 3500 
L 1159 3500 
L 1159 2956 
Q 1341 3275 1631 3429 
Q 1922 3584 2338 3584 
Q 2397 3584 2469 3576 
Q 2541 3569 2628 3553 
L 2631 2963 
z
" id="DejaVuSans-72" transform="scale(0.015625)"/>
       <path id="DejaVuSans-20" transform="scale(0.015625)"/>
       <path d="M 1984 4856 
Q 1566 4138 1362 3434 
Q 1159 2731 1159 2009 
Q 1159 1288 1364 580 
Q 1569 -128 1984 -844 
L 1484 -844 
Q 1016 -109 783 600 
Q 550 1309 550 2009 
Q 550 2706 781 3412 
Q 1013 4119 1484 4856 
L 1984 4856 
z
" id="DejaVuSans-28" transform="scale(0.015625)"/>
       <path d="M 603 3500 
L 1178 3500 
L 1178 0 
L 603 0 
L 603 3500 
z
M 603 4863 
L 1178 4863 
L 1178 4134 
L 603 4134 
L 603 4863 
z
" id="DejaVuSans-69" transform="scale(0.015625)"/>
       <path d="M 3431 3366 
L 3316 2797 
Q 3109 2947 2876 3022 
Q 2644 3097 2394 3097 
Q 2119 3097 1870 3000 
Q 1622 2903 1453 2725 
Q 1184 2453 1037 2087 
Q 891 1722 891 1331 
Q 891 859 1127 628 
Q 1363 397 1844 397 
Q 2081 397 2348 469 
Q 2616 541 2906 684 
L 2797 116 
Q 2547 13 2283 -39 
Q 2019 -91 1741 -91 
Q 1044 -91 669 257 
Q 294 606 294 1253 
Q 294 1797 489 2255 
Q 684 2713 1069 3078 
Q 1331 3328 1684 3456 
Q 2038 3584 2456 3584 
Q 2700 3584 2940 3529 
Q 3181 3475 3431 3366 
z
" id="DejaVuSans-Oblique-63" transform="scale(0.015625)"/>
       <path d="M 5747 2113 
L 5338 0 
L 4763 0 
L 5166 2094 
Q 5191 2228 5203 2325 
Q 5216 2422 5216 2491 
Q 5216 2772 5059 2928 
Q 4903 3084 4622 3084 
Q 4203 3084 3875 2770 
Q 3547 2456 3450 1953 
L 3066 0 
L 2491 0 
L 2900 2094 
Q 2925 2209 2937 2307 
Q 2950 2406 2950 2484 
Q 2950 2769 2794 2926 
Q 2638 3084 2363 3084 
Q 1938 3084 1609 2770 
Q 1281 2456 1184 1953 
L 800 0 
L 225 0 
L 909 3500 
L 1484 3500 
L 1375 2956 
Q 1609 3263 1923 3423 
Q 2238 3584 2597 3584 
Q 2978 3584 3223 3384 
Q 3469 3184 3519 2828 
Q 3781 3197 4126 3390 
Q 4472 3584 4856 3584 
Q 5306 3584 5551 3325 
Q 5797 3066 5797 2591 
Q 5797 2488 5784 2364 
Q 5772 2241 5747 2113 
z
" id="DejaVuSans-Oblique-6d" transform="scale(0.015625)"/>
       <path d="M 513 4856 
L 1013 4856 
Q 1481 4119 1714 3412 
Q 1947 2706 1947 2009 
Q 1947 1309 1714 600 
Q 1481 -109 1013 -844 
L 513 -844 
Q 928 -128 1133 580 
Q 1338 1288 1338 2009 
Q 1338 2731 1133 3434 
Q 928 4138 513 4856 
z
" id="DejaVuSans-29" transform="scale(0.015625)"/>
      </defs>
      <use transform="translate(0 0.684375)" xlink:href="#DejaVuSans-77"/>
      <use transform="translate(81.787109 0.684375)" xlink:href="#DejaVuSans-61"/>
      <use transform="translate(143.066406 0.684375)" xlink:href="#DejaVuSans-76"/>
      <use transform="translate(202.246094 0.684375)" xlink:href="#DejaVuSans-65"/>
      <use transform="translate(263.769531 0.684375)" xlink:href="#DejaVuSans-6e"/>
      <use transform="translate(327.148438 0.684375)" xlink:href="#DejaVuSans-75"/>
      <use transform="translate(390.527344 0.684375)" xlink:href="#DejaVuSans-6d"/>
      <use transform="translate(487.939453 0.684375)" xlink:href="#DejaVuSans-62"/>
      <use transform="translate(551.416016 0.684375)" xlink:href="#DejaVuSans-65"/>
      <use transform="translate(612.939453 0.684375)" xlink:href="#DejaVuSans-72"/>
      <use transform="translate(654.052734 0.684375)" xlink:href="#DejaVuSans-20"/>
      <use transform="translate(685.839844 0.684375)" xlink:href="#DejaVuSans-28"/>
      <use transform="translate(724.853516 0.684375)" xlink:href="#DejaVuSans-69"/>
      <use transform="translate(752.636719 0.684375)" xlink:href="#DejaVuSans-6e"/>
      <use transform="translate(816.015625 0.684375)" xlink:href="#DejaVuSans-20"/>
      <use transform="translate(847.802734 0.684375)" xlink:href="#DejaVuSans-Oblique-63"/>
      <use transform="translate(902.783203 0.684375)" xlink:href="#DejaVuSans-Oblique-6d"/>
      <use transform="translate(1004.845208 38.965625)scale(0.7)" xlink:href="#DejaVuSans-2212"/>
      <use transform="translate(1063.497552 38.965625)scale(0.7)" xlink:href="#DejaVuSans-31"/>
      <use transform="translate(1110.76806 0.684375)" xlink:href="#DejaVuSans-29"/>
     </g>
    </g>
   </g>
   <g id="matplotlib.axis_2">
    <g id="ytick_1">
     <g id="line2d_8">
      <defs>
       <path d="M 0 0 
L -3.5 0 
" id="mb8e949b6f4" style="stroke:#000000;stroke-width:0.8;"/>
      </defs>
      <g>
       <use style="stroke:#000000;stroke-width:0.8;" x="50.14375" xlink:href="#mb8e949b6f4" y="335.334545"/>
      </g>
     </g>
     <g id="text_9">
      <!-- 0.90 -->
      <g transform="translate(20.878125 339.133764)scale(0.1 -0.1)">
       <defs>
        <path d="M 684 794 
L 1344 794 
L 1344 0 
L 684 0 
L 684 794 
z
" id="DejaVuSans-2e" transform="scale(0.015625)"/>
        <path d="M 703 97 
L 703 672 
Q 941 559 1184 500 
Q 1428 441 1663 441 
Q 2288 441 2617 861 
Q 2947 1281 2994 2138 
Q 2813 1869 2534 1725 
Q 2256 1581 1919 1581 
Q 1219 1581 811 2004 
Q 403 2428 403 3163 
Q 403 3881 828 4315 
Q 1253 4750 1959 4750 
Q 2769 4750 3195 4129 
Q 3622 3509 3622 2328 
Q 3622 1225 3098 567 
Q 2575 -91 1691 -91 
Q 1453 -91 1209 -44 
Q 966 3 703 97 
z
M 1959 2075 
Q 2384 2075 2632 2365 
Q 2881 2656 2881 3163 
Q 2881 3666 2632 3958 
Q 2384 4250 1959 4250 
Q 1534 4250 1286 3958 
Q 1038 3666 1038 3163 
Q 1038 2656 1286 2365 
Q 1534 2075 1959 2075 
z
" id="DejaVuSans-39" transform="scale(0.015625)"/>
       </defs>
       <use xlink:href="#DejaVuSans-30"/>
       <use x="63.623047" xlink:href="#DejaVuSans-2e"/>
       <use x="95.410156" xlink:href="#DejaVuSans-39"/>
       <use x="159.033203" xlink:href="#DejaVuSans-30"/>
      </g>
     </g>
    </g>
    <g id="ytick_2">
     <g id="line2d_9">
      <g>
       <use style="stroke:#000000;stroke-width:0.8;" x="50.14375" xlink:href="#mb8e949b6f4" y="276.026772"/>
      </g>
     </g>
     <g id="text_10">
      <!-- 0.92 -->
      <g transform="translate(20.878125 279.825991)scale(0.1 -0.1)">
       <use xlink:href="#DejaVuSans-30"/>
       <use x="63.623047" xlink:href="#DejaVuSans-2e"/>
       <use x="95.410156" xlink:href="#DejaVuSans-39"/>
       <use x="159.033203" xlink:href="#DejaVuSans-32"/>
      </g>
     </g>
    </g>
    <g id="ytick_3">
     <g id="line2d_10">
      <g>
       <use style="stroke:#000000;stroke-width:0.8;" x="50.14375" xlink:href="#mb8e949b6f4" y="216.718999"/>
      </g>
     </g>
     <g id="text_11">
      <!-- 0.94 -->
      <g transform="translate(20.878125 220.518218)scale(0.1 -0.1)">
       <defs>
        <path d="M 2419 4116 
L 825 1625 
L 2419 1625 
L 2419 4116 
z
M 2253 4666 
L 3047 4666 
L 3047 1625 
L 3713 1625 
L 3713 1100 
L 3047 1100 
L 3047 0 
L 2419 0 
L 2419 1100 
L 313 1100 
L 313 1709 
L 2253 4666 
z
" id="DejaVuSans-34" transform="scale(0.015625)"/>
       </defs>
       <use xlink:href="#DejaVuSans-30"/>
       <use x="63.623047" xlink:href="#DejaVuSans-2e"/>
       <use x="95.410156" xlink:href="#DejaVuSans-39"/>
       <use x="159.033203" xlink:href="#DejaVuSans-34"/>
      </g>
     </g>
    </g>
    <g id="ytick_4">
     <g id="line2d_11">
      <g>
       <use style="stroke:#000000;stroke-width:0.8;" x="50.14375" xlink:href="#mb8e949b6f4" y="157.411225"/>
      </g>
     </g>
     <g id="text_12">
      <!-- 0.96 -->
      <g transform="translate(20.878125 161.210444)scale(0.1 -0.1)">
       <defs>
        <path d="M 2113 2584 
Q 1688 2584 1439 2293 
Q 1191 2003 1191 1497 
Q 1191 994 1439 701 
Q 1688 409 2113 409 
Q 2538 409 2786 701 
Q 3034 994 3034 1497 
Q 3034 2003 2786 2293 
Q 2538 2584 2113 2584 
z
M 3366 4563 
L 3366 3988 
Q 3128 4100 2886 4159 
Q 2644 4219 2406 4219 
Q 1781 4219 1451 3797 
Q 1122 3375 1075 2522 
Q 1259 2794 1537 2939 
Q 1816 3084 2150 3084 
Q 2853 3084 3261 2657 
Q 3669 2231 3669 1497 
Q 3669 778 3244 343 
Q 2819 -91 2113 -91 
Q 1303 -91 875 529 
Q 447 1150 447 2328 
Q 447 3434 972 4092 
Q 1497 4750 2381 4750 
Q 2619 4750 2861 4703 
Q 3103 4656 3366 4563 
z
" id="DejaVuSans-36" transform="scale(0.015625)"/>
       </defs>
       <use xlink:href="#DejaVuSans-30"/>
       <use x="63.623047" xlink:href="#DejaVuSans-2e"/>
       <use x="95.410156" xlink:href="#DejaVuSans-39"/>
       <use x="159.033203" xlink:href="#DejaVuSans-36"/>
      </g>
     </g>
    </g>
    <g id="ytick_5">
     <g id="line2d_12">
      <g>
       <use style="stroke:#000000;stroke-width:0.8;" x="50.14375" xlink:href="#mb8e949b6f4" y="98.103452"/>
      </g>
     </g>
     <g id="text_13">
      <!-- 0.98 -->
      <g transform="translate(20.878125 101.902671)scale(0.1 -0.1)">
       <defs>
        <path d="M 2034 2216 
Q 1584 2216 1326 1975 
Q 1069 1734 1069 1313 
Q 1069 891 1326 650 
Q 1584 409 2034 409 
Q 2484 409 2743 651 
Q 3003 894 3003 1313 
Q 3003 1734 2745 1975 
Q 2488 2216 2034 2216 
z
M 1403 2484 
Q 997 2584 770 2862 
Q 544 3141 544 3541 
Q 544 4100 942 4425 
Q 1341 4750 2034 4750 
Q 2731 4750 3128 4425 
Q 3525 4100 3525 3541 
Q 3525 3141 3298 2862 
Q 3072 2584 2669 2484 
Q 3125 2378 3379 2068 
Q 3634 1759 3634 1313 
Q 3634 634 3220 271 
Q 2806 -91 2034 -91 
Q 1263 -91 848 271 
Q 434 634 434 1313 
Q 434 1759 690 2068 
Q 947 2378 1403 2484 
z
M 1172 3481 
Q 1172 3119 1398 2916 
Q 1625 2713 2034 2713 
Q 2441 2713 2670 2916 
Q 2900 3119 2900 3481 
Q 2900 3844 2670 4047 
Q 2441 4250 2034 4250 
Q 1625 4250 1398 4047 
Q 1172 3844 1172 3481 
z
" id="DejaVuSans-38" transform="scale(0.015625)"/>
       </defs>
       <use xlink:href="#DejaVuSans-30"/>
       <use x="63.623047" xlink:href="#DejaVuSans-2e"/>
       <use x="95.410156" xlink:href="#DejaVuSans-39"/>
       <use x="159.033203" xlink:href="#DejaVuSans-38"/>
      </g>
     </g>
    </g>
    <g id="ytick_6">
     <g id="line2d_13">
      <g>
       <use style="stroke:#000000;stroke-width:0.8;" x="50.14375" xlink:href="#mb8e949b6f4" y="38.795679"/>
      </g>
     </g>
     <g id="text_14">
      <!-- 1.00 -->
      <g transform="translate(20.878125 42.594898)scale(0.1 -0.1)">
       <use xlink:href="#DejaVuSans-31"/>
       <use x="63.623047" xlink:href="#DejaVuSans-2e"/>
       <use x="95.410156" xlink:href="#DejaVuSans-30"/>
       <use x="159.033203" xlink:href="#DejaVuSans-30"/>
      </g>
     </g>
    </g>
    <g id="text_15">
     <!-- Normalized Intensity -->
     <g transform="translate(14.798438 238.787031)rotate(-90)scale(0.1 -0.1)">
      <defs>
       <path d="M 628 4666 
L 1478 4666 
L 3547 763 
L 3547 4666 
L 4159 4666 
L 4159 0 
L 3309 0 
L 1241 3903 
L 1241 0 
L 628 0 
L 628 4666 
z
" id="DejaVuSans-4e" transform="scale(0.015625)"/>
       <path d="M 1959 3097 
Q 1497 3097 1228 2736 
Q 959 2375 959 1747 
Q 959 1119 1226 758 
Q 1494 397 1959 397 
Q 2419 397 2687 759 
Q 2956 1122 2956 1747 
Q 2956 2369 2687 2733 
Q 2419 3097 1959 3097 
z
M 1959 3584 
Q 2709 3584 3137 3096 
Q 3566 2609 3566 1747 
Q 3566 888 3137 398 
Q 2709 -91 1959 -91 
Q 1206 -91 779 398 
Q 353 888 353 1747 
Q 353 2609 779 3096 
Q 1206 3584 1959 3584 
z
" id="DejaVuSans-6f" transform="scale(0.015625)"/>
       <path d="M 603 4863 
L 1178 4863 
L 1178 0 
L 603 0 
L 603 4863 
z
" id="DejaVuSans-6c" transform="scale(0.015625)"/>
       <path d="M 353 3500 
L 3084 3500 
L 3084 2975 
L 922 459 
L 3084 459 
L 3084 0 
L 275 0 
L 275 525 
L 2438 3041 
L 353 3041 
L 353 3500 
z
" id="DejaVuSans-7a" transform="scale(0.015625)"/>
       <path d="M 2906 2969 
L 2906 4863 
L 3481 4863 
L 3481 0 
L 2906 0 
L 2906 525 
Q 2725 213 2448 61 
Q 2172 -91 1784 -91 
Q 1150 -91 751 415 
Q 353 922 353 1747 
Q 353 2572 751 3078 
Q 1150 3584 1784 3584 
Q 2172 3584 2448 3432 
Q 2725 3281 2906 2969 
z
M 947 1747 
Q 947 1113 1208 752 
Q 1469 391 1925 391 
Q 2381 391 2643 752 
Q 2906 1113 2906 1747 
Q 2906 2381 2643 2742 
Q 2381 3103 1925 3103 
Q 1469 3103 1208 2742 
Q 947 2381 947 1747 
z
" id="DejaVuSans-64" transform="scale(0.015625)"/>
       <path d="M 628 4666 
L 1259 4666 
L 1259 0 
L 628 0 
L 628 4666 
z
" id="DejaVuSans-49" transform="scale(0.015625)"/>
       <path d="M 1172 4494 
L 1172 3500 
L 2356 3500 
L 2356 3053 
L 1172 3053 
L 1172 1153 
Q 1172 725 1289 603 
Q 1406 481 1766 481 
L 2356 481 
L 2356 0 
L 1766 0 
Q 1100 0 847 248 
Q 594 497 594 1153 
L 594 3053 
L 172 3053 
L 172 3500 
L 594 3500 
L 594 4494 
L 1172 4494 
z
" id="DejaVuSans-74" transform="scale(0.015625)"/>
       <path d="M 2834 3397 
L 2834 2853 
Q 2591 2978 2328 3040 
Q 2066 3103 1784 3103 
Q 1356 3103 1142 2972 
Q 928 2841 928 2578 
Q 928 2378 1081 2264 
Q 1234 2150 1697 2047 
L 1894 2003 
Q 2506 1872 2764 1633 
Q 3022 1394 3022 966 
Q 3022 478 2636 193 
Q 2250 -91 1575 -91 
Q 1294 -91 989 -36 
Q 684 19 347 128 
L 347 722 
Q 666 556 975 473 
Q 1284 391 1588 391 
Q 1994 391 2212 530 
Q 2431 669 2431 922 
Q 2431 1156 2273 1281 
Q 2116 1406 1581 1522 
L 1381 1569 
Q 847 1681 609 1914 
Q 372 2147 372 2553 
Q 372 3047 722 3315 
Q 1072 3584 1716 3584 
Q 2034 3584 2315 3537 
Q 2597 3491 2834 3397 
z
" id="DejaVuSans-73" transform="scale(0.015625)"/>
       <path d="M 2059 -325 
Q 1816 -950 1584 -1140 
Q 1353 -1331 966 -1331 
L 506 -1331 
L 506 -850 
L 844 -850 
Q 1081 -850 1212 -737 
Q 1344 -625 1503 -206 
L 1606 56 
L 191 3500 
L 800 3500 
L 1894 763 
L 2988 3500 
L 3597 3500 
L 2059 -325 
z
" id="DejaVuSans-79" transform="scale(0.015625)"/>
      </defs>
      <use xlink:href="#DejaVuSans-4e"/>
      <use x="74.804688" xlink:href="#DejaVuSans-6f"/>
      <use x="135.986328" xlink:href="#DejaVuSans-72"/>
      <use x="175.349609" xlink:href="#DejaVuSans-6d"/>
      <use x="272.761719" xlink:href="#DejaVuSans-61"/>
      <use x="334.041016" xlink:href="#DejaVuSans-6c"/>
      <use x="361.824219" xlink:href="#DejaVuSans-69"/>
      <use x="389.607422" xlink:href="#DejaVuSans-7a"/>
      <use x="442.097656" xlink:href="#DejaVuSans-65"/>
      <use x="503.621094" xlink:href="#DejaVuSans-64"/>
      <use x="567.097656" xlink:href="#DejaVuSans-20"/>
      <use x="598.884766" xlink:href="#DejaVuSans-49"/>
      <use x="628.376953" xlink:href="#DejaVuSans-6e"/>
      <use x="691.755859" xlink:href="#DejaVuSans-74"/>
      <use x="730.964844" xlink:href="#DejaVuSans-65"/>
      <use x="792.488281" xlink:href="#DejaVuSans-6e"/>
      <use x="855.867188" xlink:href="#DejaVuSans-73"/>
      <use x="907.966797" xlink:href="#DejaVuSans-69"/>
      <use x="935.75" xlink:href="#DejaVuSans-74"/>
      <use x="974.958984" xlink:href="#DejaVuSans-79"/>
     </g>
    </g>
   </g>
   <g id="line2d_14">
    <path clip-path="url(#p60abac4106)" d="M 130.631023 38.825455 
L 169.437386 38.998133 
L 189.559205 39.305805 
L 203.931932 39.754138 
L 213.992841 40.262961 
L 222.616477 40.886522 
L 231.240114 41.744032 
L 238.426477 42.6893 
L 244.175568 43.632264 
L 249.924659 44.772994 
L 255.67375 46.144325 
L 261.422841 47.782275 
L 265.734659 49.209025 
L 270.046477 50.824942 
L 274.358295 52.647997 
L 278.670114 54.696581 
L 282.981932 56.989259 
L 287.29375 59.544478 
L 291.605568 62.380218 
L 295.917386 65.513599 
L 300.229205 68.960432 
L 304.541023 72.734723 
L 308.852841 76.848143 
L 313.164659 81.30945 
L 317.476477 86.123894 
L 321.788295 91.292599 
L 326.100114 96.811948 
L 330.411932 102.672985 
L 334.72375 108.860841 
L 340.472841 117.581916 
L 346.221932 126.775734 
L 353.408295 138.789461 
L 364.906477 158.64149 
L 373.530114 173.38794 
L 379.279205 182.807057 
L 383.591023 189.513004 
L 387.902841 195.815945 
L 392.214659 201.631133 
L 395.089205 205.196936 
L 397.96375 208.487882 
L 400.838295 211.483759 
L 403.712841 214.16681 
L 406.587386 216.522292 
L 409.461932 218.539073 
L 412.336477 220.210254 
L 415.211023 221.533825 
L 418.085568 222.513315 
L 420.960114 223.158447 
L 423.834659 223.485755 
L 426.709205 223.519143 
L 429.58375 223.290354 
L 432.458295 222.839308 
L 436.770114 221.853855 
L 446.831023 219.220616 
L 449.705568 218.721727 
L 452.580114 218.489726 
L 455.454659 218.612185 
L 456.891932 218.833383 
L 458.329205 219.175222 
L 459.766477 219.647769 
L 461.20375 220.260622 
L 462.641023 221.022811 
L 464.078295 221.942693 
L 465.515568 223.027843 
L 466.952841 224.284951 
L 468.390114 225.71972 
L 469.827386 227.336763 
L 471.264659 229.139505 
L 474.139205 233.309319 
L 477.01375 238.229573 
L 479.888295 243.876727 
L 482.762841 250.201768 
L 485.637386 257.129562 
L 488.511932 264.559208 
L 492.82375 276.364686 
L 501.447386 300.381564 
L 504.321932 307.84804 
L 507.196477 314.734636 
L 510.071023 320.863917 
L 511.508295 323.593094 
L 512.945568 326.073641 
L 514.382841 328.288685 
L 515.820114 330.223054 
L 517.257386 331.863432 
L 518.694659 333.19849 
L 520.131932 334.219007 
L 521.569205 334.917965 
L 523.006477 335.290618 
L 524.44375 335.334545 
L 525.881023 335.049675 
L 527.318295 334.438286 
L 528.755568 333.504982 
L 530.192841 332.256646 
L 531.630114 330.702371 
L 533.067386 328.85336 
L 534.504659 326.722817 
L 535.941932 324.325811 
L 538.816477 318.801075 
L 541.691023 312.430817 
L 544.565568 305.385331 
L 548.877386 293.951708 
L 558.938295 266.464245 
L 561.812841 259.162227 
L 564.687386 252.359996 
L 567.561932 246.159329 
L 570.436477 240.636213 
L 573.311023 235.840447 
L 576.185568 231.796249 
L 577.622841 230.056914 
L 579.060114 228.50375 
L 580.497386 227.133373 
L 581.934659 225.941201 
L 583.371932 224.92155 
L 584.809205 224.067736 
L 586.246477 223.372177 
L 587.68375 222.8265 
L 589.121023 222.421645 
L 590.558295 222.147973 
L 593.432841 221.953331 
L 596.307386 222.157701 
L 599.181932 222.673204 
L 602.056477 223.411696 
L 607.805568 225.217619 
L 612.117386 226.551572 
L 614.991932 227.301315 
L 617.866477 227.871022 
L 620.741023 228.211406 
L 623.615568 228.281579 
L 626.490114 228.048901 
L 629.364659 227.488661 
L 632.239205 226.583614 
L 635.11375 225.323434 
L 637.988295 223.704097 
L 640.862841 221.727233 
L 643.737386 219.399476 
L 646.611932 216.731805 
L 649.486477 213.738921 
L 652.361023 210.438644 
L 655.235568 206.85135 
L 658.110114 202.999452 
L 662.421932 196.7782 
L 666.73375 190.100905 
L 671.045568 183.055435 
L 676.794659 173.240783 
L 686.855568 155.469597 
L 696.916477 137.767091 
L 704.102841 125.611801 
L 709.851932 116.357158 
L 715.601023 107.614625 
L 719.912841 101.432463 
L 724.224659 95.592724 
L 728.536477 90.107638 
L 732.848295 84.98368 
L 737.160114 80.222167 
L 741.471932 75.819881 
L 745.78375 71.769694 
L 750.095568 68.061189 
L 754.407386 64.681255 
L 758.719205 61.61466 
L 763.031023 58.844572 
L 767.342841 56.35304 
L 771.654659 54.121429 
L 775.966477 52.130798 
L 780.278295 50.362229 
L 784.590114 48.797102 
L 790.339205 46.995561 
L 796.088295 45.482761 
L 801.837386 44.220643 
L 807.586477 43.174301 
L 814.772841 42.12204 
L 821.959205 41.303611 
L 830.582841 40.565569 
L 840.64375 39.959336 
L 852.141932 39.504915 
L 866.514659 39.169196 
L 886.636477 38.94203 
L 918.256477 38.826249 
L 918.256477 38.826249 
" style="fill:none;stroke:#e98768;stroke-linecap:square;stroke-width:1.5;"/>
   </g>
   <g id="line2d_15">
    <path clip-path="url(#p60abac4106)" d="M 120.570114 38.826326 
L 159.376477 39.000412 
L 179.498295 39.300107 
L 193.871023 39.727401 
L 205.369205 40.290254 
L 215.430114 41.024421 
L 224.05375 41.901217 
L 231.240114 42.858102 
L 238.426477 44.070787 
L 244.175568 45.261495 
L 249.924659 46.681834 
L 255.67375 48.365722 
L 259.985568 49.823389 
L 264.297386 51.465819 
L 268.609205 53.309592 
L 272.921023 55.371584 
L 277.232841 57.668733 
L 281.544659 60.217774 
L 285.856477 63.034923 
L 290.168295 66.135527 
L 294.480114 69.533662 
L 298.791932 73.2417 
L 303.10375 77.26984 
L 307.415568 81.625607 
L 311.727386 86.313329 
L 316.039205 91.333612 
L 320.351023 96.6828 
L 324.662841 102.35246 
L 328.974659 108.32889 
L 334.72375 116.740226 
L 340.472841 125.598666 
L 347.659205 137.171275 
L 357.720114 153.916829 
L 367.781023 170.618299 
L 373.530114 179.801772 
L 377.841932 186.378102 
L 382.15375 192.599003 
L 386.465568 198.384873 
L 389.340114 201.962142 
L 392.214659 205.289878 
L 395.089205 208.347649 
L 397.96375 211.116771 
L 400.838295 213.580768 
L 403.712841 215.725854 
L 406.587386 217.54146 
L 409.461932 219.020793 
L 412.336477 220.161417 
L 415.211023 220.965854 
L 418.085568 221.442189 
L 420.960114 221.604662 
L 423.834659 221.474223 
L 426.709205 221.079027 
L 429.58375 220.454831 
L 433.895568 219.186772 
L 446.831023 214.886274 
L 449.705568 214.30182 
L 452.580114 214.032707 
L 454.017386 214.0435 
L 455.454659 214.165472 
L 456.891932 214.409079 
L 458.329205 214.784461 
L 459.766477 215.301348 
L 461.20375 215.968963 
L 462.641023 216.795917 
L 464.078295 217.790108 
L 465.515568 218.95862 
L 466.952841 220.307613 
L 468.390114 221.84223 
L 469.827386 223.566497 
L 471.264659 225.483227 
L 474.139205 229.898757 
L 477.01375 235.08398 
L 479.888295 241.009949 
L 482.762841 247.622222 
L 485.637386 254.840331 
L 489.949205 266.564886 
L 495.698295 283.134811 
L 501.447386 299.533756 
L 504.321932 307.203195 
L 507.196477 314.267654 
L 510.071023 320.547941 
L 511.508295 323.342113 
L 512.945568 325.880462 
L 514.382841 328.146001 
L 515.820114 330.123461 
L 517.257386 331.799445 
L 518.694659 333.16256 
L 520.131932 334.203537 
L 521.569205 334.915317 
L 523.006477 335.293132 
L 524.44375 335.334545 
L 525.881023 335.039485 
L 527.318295 334.410236 
L 528.755568 333.451426 
L 530.192841 332.169969 
L 531.630114 330.575004 
L 533.067386 328.677794 
L 534.504659 326.49162 
L 535.941932 324.03164 
L 537.379205 321.314748 
L 540.25375 315.185425 
L 543.128295 308.266739 
L 546.002841 300.737601 
L 550.314659 288.711651 
L 558.938295 264.329768 
L 561.812841 256.726936 
L 564.687386 249.6216 
L 567.561932 243.120696 
L 570.436477 237.3056 
L 573.311023 232.231611 
L 576.185568 227.928438 
L 577.622841 226.068514 
L 579.060114 224.401561 
L 580.497386 222.924823 
L 581.934659 221.634318 
L 583.371932 220.52494 
L 584.809205 219.590546 
L 586.246477 218.824067 
L 587.68375 218.217603 
L 589.121023 217.76253 
L 590.558295 217.449602 
L 591.995568 217.269054 
L 593.432841 217.210699 
L 596.307386 217.418296 
L 599.181932 217.986053 
L 602.056477 218.826613 
L 606.368295 220.411743 
L 614.991932 223.776853 
L 617.866477 224.705189 
L 620.741023 225.442739 
L 623.615568 225.944928 
L 626.490114 226.175104 
L 629.364659 226.104287 
L 632.239205 225.710781 
L 635.11375 224.97969 
L 637.988295 223.902365 
L 640.862841 222.475821 
L 643.737386 220.702132 
L 646.611932 218.58783 
L 649.486477 216.143321 
L 652.361023 213.382325 
L 655.235568 210.32135 
L 658.110114 206.979194 
L 660.984659 203.376494 
L 665.296477 197.532454 
L 669.608295 191.230478 
L 673.920114 184.55171 
L 679.669205 175.201549 
L 688.292841 160.603461 
L 702.665568 136.155734 
L 709.851932 124.457041 
L 715.601023 115.545063 
L 721.350114 107.115792 
L 725.661932 101.145675 
L 729.97375 95.496536 
L 734.285568 90.179733 
L 738.597386 85.201485 
L 742.909205 80.563395 
L 747.221023 76.262983 
L 751.532841 72.294227 
L 755.844659 68.648102 
L 760.156477 65.313098 
L 764.468295 62.275719 
L 768.780114 59.520942 
L 773.091932 57.032642 
L 777.40375 54.793979 
L 781.715568 52.787738 
L 786.027386 50.996628 
L 790.339205 49.403534 
L 796.088295 47.558605 
L 801.837386 45.998022 
L 807.586477 44.686088 
L 813.335568 43.589802 
L 820.521932 42.477135 
L 827.708295 41.602409 
L 836.331932 40.803939 
L 846.392841 40.138139 
L 857.891023 39.629905 
L 872.26375 39.245761 
L 890.948295 38.990026 
L 919.69375 38.844326 
L 928.317386 38.827063 
L 928.317386 38.827063 
" style="fill:none;stroke:#de5d5c;stroke-linecap:square;stroke-width:1.5;"/>
   </g>
   <g id="line2d_16">
    <path clip-path="url(#p60abac4106)" d="M 110.509205 38.82579 
L 149.315568 38.997803 
L 169.437386 39.287088 
L 183.810114 39.691357 
L 195.308295 40.216713 
L 205.369205 40.895308 
L 213.992841 41.699832 
L 221.179205 42.573124 
L 228.365568 43.675119 
L 234.114659 44.75353 
L 239.86375 46.036607 
L 245.612841 47.55446 
L 251.361932 49.339508 
L 255.67375 50.874267 
L 259.985568 52.593717 
L 264.297386 54.513253 
L 268.609205 56.648406 
L 272.921023 59.014612 
L 277.232841 61.626964 
L 281.544659 64.499911 
L 285.856477 67.646934 
L 290.168295 71.08018 
L 294.480114 74.810068 
L 298.791932 78.844866 
L 303.10375 83.190248 
L 307.415568 87.848837 
L 311.727386 92.819738 
L 316.039205 98.098078 
L 320.351023 103.674559 
L 326.100114 111.548461 
L 331.849205 119.878566 
L 337.598295 128.599035 
L 344.784659 139.918139 
L 367.781023 176.662355 
L 373.530114 185.201345 
L 377.841932 191.22396 
L 382.15375 196.837125 
L 386.465568 201.968436 
L 389.340114 205.087493 
L 392.214659 207.942847 
L 395.089205 210.517157 
L 397.96375 212.795053 
L 400.838295 214.763562 
L 403.712841 216.412567 
L 406.587386 217.735303 
L 409.461932 218.728878 
L 412.336477 219.394818 
L 415.211023 219.739622 
L 418.085568 219.77532 
L 420.960114 219.520015 
L 423.834659 218.998385 
L 426.709205 218.242116 
L 429.58375 217.290239 
L 433.895568 215.599641 
L 442.519205 212.010151 
L 445.39375 211.010922 
L 448.268295 210.242903 
L 451.142841 209.790818 
L 454.017386 209.740221 
L 455.454659 209.891866 
L 456.891932 210.175126 
L 458.329205 210.599821 
L 459.766477 211.175323 
L 461.20375 211.91046 
L 462.641023 212.813414 
L 464.078295 213.891623 
L 465.515568 215.151678 
L 466.952841 216.599222 
L 468.390114 218.238856 
L 469.827386 220.074039 
L 471.264659 222.107005 
L 474.139205 226.768566 
L 477.01375 232.213817 
L 479.888295 238.408872 
L 482.762841 245.294411 
L 485.637386 252.785257 
L 489.949205 264.908323 
L 502.884659 302.782554 
L 505.759205 310.340922 
L 508.63375 317.179316 
L 511.508295 323.124558 
L 512.945568 325.71318 
L 514.382841 328.02255 
L 515.820114 330.03735 
L 517.257386 331.744144 
L 518.694659 333.13151 
L 520.131932 334.190156 
L 521.569205 334.913007 
L 523.006477 335.295284 
L 524.44375 335.334545 
L 525.881023 335.030716 
L 527.318295 334.386085 
L 528.755568 333.405285 
L 530.192841 332.095246 
L 531.630114 330.465121 
L 533.067386 328.526203 
L 534.504659 326.291806 
L 535.941932 323.777134 
L 537.379205 320.999138 
L 540.25375 314.728679 
L 543.128295 307.644303 
L 546.002841 299.926037 
L 550.314659 287.57587 
L 558.938295 262.428289 
L 561.812841 254.546878 
L 564.687386 247.157731 
L 567.561932 240.372245 
L 570.436477 234.27654 
L 573.311023 228.930845 
L 576.185568 224.369871 
L 577.622841 222.387815 
L 579.060114 220.604056 
L 580.497386 219.01643 
L 581.934659 217.621533 
L 583.371932 216.414813 
L 584.809205 215.39066 
L 586.246477 214.542508 
L 587.68375 213.862934 
L 589.121023 213.343756 
L 590.558295 212.976139 
L 591.995568 212.750689 
L 593.432841 212.657556 
L 594.870114 212.686526 
L 597.744659 213.068646 
L 600.619205 213.811435 
L 603.49375 214.828839 
L 607.805568 216.686416 
L 617.866477 221.239439 
L 620.741023 222.304487 
L 623.615568 223.169005 
L 626.490114 223.793083 
L 629.364659 224.144212 
L 632.239205 224.196957 
L 635.11375 223.93253 
L 637.988295 223.338296 
L 640.862841 222.407237 
L 643.737386 221.137398 
L 646.611932 219.531331 
L 649.486477 217.595548 
L 652.361023 215.340003 
L 655.235568 212.777593 
L 658.110114 209.923694 
L 660.984659 206.795729 
L 663.859205 203.412772 
L 668.171023 197.905036 
L 672.482841 191.942027 
L 676.794659 185.598797 
L 682.54375 176.680544 
L 689.730114 165.039461 
L 709.851932 132.043565 
L 715.601023 123.074458 
L 721.350114 114.493419 
L 727.099205 106.370145 
L 731.411023 100.609721 
L 735.722841 95.151491 
L 740.034659 90.005838 
L 744.346477 85.178563 
L 748.658295 80.671325 
L 752.970114 76.482111 
L 757.281932 72.605707 
L 761.59375 69.034166 
L 765.905568 65.757264 
L 770.217386 62.762932 
L 774.529205 60.037664 
L 778.841023 57.566892 
L 783.152841 55.335332 
L 787.464659 53.327287 
L 791.776477 51.526916 
L 796.088295 49.918469 
L 801.837386 48.045751 
L 807.586477 46.451435 
L 813.335568 45.102099 
L 819.084659 43.966632 
L 826.271023 42.804769 
L 833.457386 41.882634 
L 842.081023 41.031689 
L 850.704659 40.400196 
L 860.765568 39.872537 
L 873.701023 39.428868 
L 889.511023 39.116909 
L 912.507386 38.907545 
L 938.378295 38.82646 
L 938.378295 38.82646 
" style="fill:none;stroke:#c14168;stroke-linecap:square;stroke-width:1.5;"/>
   </g>
   <g id="line2d_17">
    <path clip-path="url(#p60abac4106)" d="M 101.885568 38.826238 
L 139.254659 38.989779 
L 160.81375 39.29617 
L 175.186477 39.697812 
L 186.684659 40.211922 
L 196.745568 40.868477 
L 205.369205 41.640097 
L 212.555568 42.472139 
L 219.741932 43.516344 
L 226.928295 44.81645 
L 232.677386 46.07382 
L 238.426477 47.554353 
L 244.175568 49.287954 
L 249.924659 51.306282 
L 254.236477 53.026686 
L 258.548295 54.940002 
L 262.860114 57.060516 
L 267.171932 59.402374 
L 271.48375 61.979358 
L 275.795568 64.804616 
L 280.107386 67.890373 
L 284.419205 71.247604 
L 288.731023 74.885691 
L 293.042841 78.812044 
L 297.354659 83.031717 
L 301.666477 87.547003 
L 305.978295 92.357026 
L 310.290114 97.457342 
L 314.601932 102.839542 
L 320.351023 110.431609 
L 326.100114 118.458394 
L 331.849205 126.860797 
L 339.035568 137.774974 
L 351.971023 157.98078 
L 360.594659 171.27015 
L 366.34375 179.763155 
L 370.655568 185.827977 
L 374.967386 191.554946 
L 379.279205 196.875254 
L 383.591023 201.72177 
L 386.465568 204.657931 
L 389.340114 207.33755 
L 392.214659 209.744474 
L 395.089205 211.864301 
L 397.96375 213.684762 
L 400.838295 215.196118 
L 403.712841 216.391598 
L 406.587386 217.267865 
L 409.461932 217.825505 
L 412.336477 218.069534 
L 415.211023 218.009918 
L 418.085568 217.662089 
L 420.960114 217.047439 
L 423.834659 216.193773 
L 426.709205 215.135697 
L 431.021023 213.258491 
L 442.519205 207.885213 
L 445.39375 206.828759 
L 448.268295 206.043754 
L 451.142841 205.614086 
L 452.580114 205.558845 
L 454.017386 205.62388 
L 455.454659 205.819357 
L 456.891932 206.155145 
L 458.329205 206.640727 
L 459.766477 207.285105 
L 461.20375 208.096705 
L 462.641023 209.08328 
L 464.078295 210.25181 
L 465.515568 211.608407 
L 466.952841 213.15821 
L 468.390114 214.9053 
L 469.827386 216.852598 
L 471.264659 219.001789 
L 474.139205 223.905891 
L 477.01375 229.603362 
L 479.888295 236.055817 
L 482.762841 243.199556 
L 485.637386 250.945254 
L 489.949205 263.436034 
L 502.884659 302.216086 
L 505.759205 309.922643 
L 508.63375 316.887425 
L 511.508295 322.936748 
L 512.945568 325.568952 
L 514.382841 327.916238 
L 515.820114 329.963276 
L 517.257386 331.696625 
L 518.694659 333.104862 
L 520.131932 334.178694 
L 521.569205 334.911048 
L 523.006477 335.297146 
L 524.44375 335.334545 
L 525.881023 335.02317 
L 527.318295 334.365308 
L 528.755568 333.365586 
L 530.192841 332.030931 
L 531.630114 330.370494 
L 533.067386 328.395566 
L 534.504659 326.119462 
L 535.941932 323.557397 
L 537.379205 320.726335 
L 540.25375 314.332837 
L 543.128295 307.103199 
L 546.002841 299.218067 
L 550.314659 286.57929 
L 558.938295 260.737551 
L 563.250114 248.703939 
L 566.124659 241.33748 
L 568.999205 234.619412 
L 571.87375 228.627227 
L 574.748295 223.412786 
L 577.622841 219.003035 
L 579.060114 217.101888 
L 580.497386 215.401528 
L 581.934659 213.899098 
L 583.371932 212.590578 
L 584.809205 211.470872 
L 586.246477 210.533905 
L 587.68375 209.772723 
L 589.121023 209.179588 
L 590.558295 208.746076 
L 591.995568 208.463178 
L 593.432841 208.321393 
L 594.870114 208.310826 
L 597.744659 208.642309 
L 600.619205 209.373837 
L 603.49375 210.420592 
L 606.368295 211.698933 
L 610.680114 213.875519 
L 617.866477 217.590009 
L 622.178295 219.529021 
L 625.052841 220.595393 
L 627.927386 221.43423 
L 630.801932 222.013588 
L 633.676477 222.308193 
L 636.551023 222.299034 
L 639.425568 221.972885 
L 642.300114 221.321804 
L 645.174659 220.34262 
L 648.049205 219.036415 
L 650.92375 217.408025 
L 653.798295 215.465563 
L 656.672841 213.219965 
L 659.547386 210.684571 
L 662.421932 207.874728 
L 665.296477 204.807432 
L 668.171023 201.500996 
L 672.482841 196.135444 
L 676.794659 190.343576 
L 681.106477 184.195391 
L 686.855568 175.564954 
L 694.041932 164.309782 
L 715.601023 130.15336 
L 721.350114 121.51707 
L 727.099205 113.254588 
L 732.848295 105.428438 
L 737.160114 99.87357 
L 741.471932 94.604317 
L 745.78375 89.630059 
L 750.095568 84.956073 
L 754.407386 80.583922 
L 758.719205 76.511868 
L 763.031023 72.735279 
L 767.342841 69.247046 
L 771.654659 66.037977 
L 775.966477 63.097181 
L 780.278295 60.412428 
L 784.590114 57.97048 
L 788.901932 55.757399 
L 793.21375 53.75882 
L 797.525568 51.960193 
L 803.274659 49.847982 
L 809.02375 48.031662 
L 814.772841 46.47871 
L 820.521932 45.158329 
L 826.271023 44.041772 
L 833.457386 42.892578 
L 840.64375 41.974123 
L 849.267386 41.11962 
L 859.328295 40.38983 
L 870.826477 39.815972 
L 883.761932 39.400424 
L 901.009205 39.084966 
L 925.442841 38.888285 
L 947.001932 38.826885 
L 947.001932 38.826885 
" style="fill:none;stroke:#9a3670;stroke-linecap:square;stroke-width:1.5;"/>
   </g>
   <g id="line2d_18">
    <path clip-path="url(#p60abac4106)" d="M 93.261932 38.825644 
L 130.631023 38.98869 
L 152.190114 39.295562 
L 168.000114 39.744099 
L 179.498295 40.270173 
L 189.559205 40.933495 
L 198.182841 41.705253 
L 206.806477 42.719372 
L 213.992841 43.7944 
L 221.179205 45.122792 
L 226.928295 46.399295 
L 232.677386 47.894156 
L 238.426477 49.635431 
L 244.175568 51.652669 
L 248.487386 53.365103 
L 252.799205 55.263144 
L 257.111023 57.35997 
L 261.422841 59.668594 
L 265.734659 62.201655 
L 270.046477 64.971185 
L 274.358295 67.988345 
L 278.670114 71.263135 
L 282.981932 74.804092 
L 287.29375 78.617955 
L 291.605568 82.709322 
L 295.917386 87.0803 
L 300.229205 91.730139 
L 304.541023 96.654883 
L 308.852841 101.847021 
L 314.601932 109.165527 
L 320.351023 116.899983 
L 326.100114 124.99747 
L 333.286477 135.524936 
L 344.784659 152.89671 
L 354.845568 168.022788 
L 360.594659 176.351108 
L 366.34375 184.269313 
L 370.655568 189.84788 
L 374.967386 195.046434 
L 379.279205 199.801886 
L 382.15375 202.696016 
L 385.028295 205.349368 
L 387.902841 207.74617 
L 390.777386 209.872064 
L 393.651932 211.71441 
L 396.526477 213.262634 
L 399.401023 214.50859 
L 402.275568 215.44696 
L 405.150114 216.075679 
L 408.024659 216.396384 
L 410.899205 216.414889 
L 413.77375 216.141658 
L 416.648295 215.592297 
L 419.522841 214.788019 
L 422.397386 213.756079 
L 425.271932 212.530158 
L 429.58375 210.417813 
L 441.081932 204.469917 
L 443.956477 203.269706 
L 446.831023 202.336511 
L 449.705568 201.752468 
L 451.142841 201.617311 
L 452.580114 201.600472 
L 454.017386 201.712074 
L 455.454659 201.961997 
L 456.891932 202.359792 
L 458.329205 202.914597 
L 459.766477 203.635038 
L 461.20375 204.529142 
L 462.641023 205.604237 
L 464.078295 206.866857 
L 465.515568 208.322647 
L 466.952841 209.976264 
L 468.390114 211.831291 
L 469.827386 213.890142 
L 472.701932 218.622655 
L 475.576477 224.166789 
L 478.451023 230.492276 
L 481.325568 237.544146 
L 484.200114 245.242066 
L 487.074659 253.480589 
L 491.386477 266.563148 
L 501.447386 297.578033 
L 504.321932 305.726028 
L 507.196477 313.204631 
L 510.071023 319.832621 
L 511.508295 322.77532 
L 512.945568 325.445177 
L 514.382841 327.82514 
L 515.820114 329.899902 
L 517.257386 331.656042 
L 518.694659 333.082158 
L 520.131932 334.168974 
L 521.569205 334.909435 
L 523.006477 335.298771 
L 524.44375 335.334545 
L 525.881023 335.01668 
L 527.318295 334.347456 
L 528.755568 333.33149 
L 530.192841 331.975689 
L 531.630114 330.289186 
L 533.067386 328.283247 
L 534.504659 325.971165 
L 535.941932 323.368132 
L 537.379205 320.491093 
L 540.25375 313.990569 
L 543.128295 306.633826 
L 546.002841 298.601728 
L 550.314659 285.706451 
L 560.375568 254.997944 
L 563.250114 246.844564 
L 566.124659 239.229151 
L 568.999205 232.258126 
L 571.87375 226.012798 
L 574.748295 220.549078 
L 577.622841 215.898104 
L 579.060114 213.880686 
L 580.497386 212.06765 
L 581.934659 210.456655 
L 583.371932 209.044185 
L 584.809205 207.825637 
L 586.246477 206.795413 
L 587.68375 205.947014 
L 589.121023 205.273137 
L 590.558295 204.765769 
L 591.995568 204.416286 
L 593.432841 204.215548 
L 594.870114 204.153984 
L 596.307386 204.22169 
L 599.181932 204.704112 
L 602.056477 205.579953 
L 604.931023 206.765945 
L 607.805568 208.180432 
L 612.117386 210.560419 
L 620.741023 215.391677 
L 625.052841 217.449302 
L 627.927386 218.582161 
L 630.801932 219.482743 
L 633.676477 220.123073 
L 636.551023 220.481274 
L 639.425568 220.541139 
L 642.300114 220.291663 
L 645.174659 219.726565 
L 648.049205 218.843808 
L 650.92375 217.645129 
L 653.798295 216.135591 
L 656.672841 214.323154 
L 659.547386 212.218275 
L 662.421932 209.833541 
L 665.296477 207.183325 
L 668.171023 204.283469 
L 671.045568 201.150999 
L 675.357386 196.055589 
L 679.669205 190.540533 
L 683.981023 184.67087 
L 689.730114 176.406116 
L 696.916477 165.584113 
L 722.787386 126.035582 
L 728.536477 117.801799 
L 734.285568 109.945121 
L 740.034659 102.517786 
L 744.346477 97.252334 
L 748.658295 92.26098 
L 752.970114 87.550839 
L 757.281932 83.125463 
L 761.59375 78.985187 
L 765.905568 75.127497 
L 770.217386 71.54739 
L 774.529205 68.237736 
L 778.841023 65.189622 
L 783.152841 62.392686 
L 787.464659 59.835426 
L 791.776477 57.505491 
L 796.088295 55.389941 
L 800.400114 53.475487 
L 806.149205 51.212485 
L 811.898295 49.251461 
L 817.647386 47.561523 
L 823.396477 46.113042 
L 829.145568 44.878022 
L 836.331932 43.594859 
L 843.518295 42.558167 
L 850.704659 41.72674 
L 859.328295 40.949649 
L 869.389205 40.281621 
L 880.887386 39.751616 
L 895.260114 39.330683 
L 913.944659 39.032887 
L 939.815568 38.863925 
L 955.625568 38.8263 
L 955.625568 38.8263 
" style="fill:none;stroke:#722c6e;stroke-linecap:square;stroke-width:1.5;"/>
   </g>
   <g id="patch_3">
    <path d="M 50.14375 350.16 
L 50.14375 24 
" style="fill:none;stroke:#000000;stroke-linecap:square;stroke-linejoin:miter;stroke-width:0.8;"/>
   </g>
   <g id="patch_4">
    <path d="M 998.74375 350.16 
L 998.74375 24 
" style="fill:none;stroke:#000000;stroke-linecap:square;stroke-linejoin:miter;stroke-width:0.8;"/>
   </g>
   <g id="patch_5">
    <path d="M 50.14375 350.16 
L 998.74375 350.16 
" style="fill:none;stroke:#000000;stroke-linecap:square;stroke-linejoin:miter;stroke-width:0.8;"/>
   </g>
   <g id="patch_6">
    <path d="M 50.14375 24 
L 998.74375 24 
" style="fill:none;stroke:#000000;stroke-linecap:square;stroke-linejoin:miter;stroke-width:0.8;"/>
   </g>
   <g id="text_16">
    <!-- Profile variations: B = 0.005  $\Delta B =$ 0% ,  $\Delta C =$ 0% , $\zeta  = $-0.6, $\sigma = $0.1953$cm^{-1}$ -->
    <g transform="translate(294.52375 18)scale(0.12 -0.12)">
     <defs>
      <path d="M 1259 4147 
L 1259 2394 
L 2053 2394 
Q 2494 2394 2734 2622 
Q 2975 2850 2975 3272 
Q 2975 3691 2734 3919 
Q 2494 4147 2053 4147 
L 1259 4147 
z
M 628 4666 
L 2053 4666 
Q 2838 4666 3239 4311 
Q 3641 3956 3641 3272 
Q 3641 2581 3239 2228 
Q 2838 1875 2053 1875 
L 1259 1875 
L 1259 0 
L 628 0 
L 628 4666 
z
" id="DejaVuSans-50" transform="scale(0.015625)"/>
      <path d="M 2375 4863 
L 2375 4384 
L 1825 4384 
Q 1516 4384 1395 4259 
Q 1275 4134 1275 3809 
L 1275 3500 
L 2222 3500 
L 2222 3053 
L 1275 3053 
L 1275 0 
L 697 0 
L 697 3053 
L 147 3053 
L 147 3500 
L 697 3500 
L 697 3744 
Q 697 4328 969 4595 
Q 1241 4863 1831 4863 
L 2375 4863 
z
" id="DejaVuSans-66" transform="scale(0.015625)"/>
      <path d="M 750 794 
L 1409 794 
L 1409 0 
L 750 0 
L 750 794 
z
M 750 3309 
L 1409 3309 
L 1409 2516 
L 750 2516 
L 750 3309 
z
" id="DejaVuSans-3a" transform="scale(0.015625)"/>
      <path d="M 1259 2228 
L 1259 519 
L 2272 519 
Q 2781 519 3026 730 
Q 3272 941 3272 1375 
Q 3272 1813 3026 2020 
Q 2781 2228 2272 2228 
L 1259 2228 
z
M 1259 4147 
L 1259 2741 
L 2194 2741 
Q 2656 2741 2882 2914 
Q 3109 3088 3109 3444 
Q 3109 3797 2882 3972 
Q 2656 4147 2194 4147 
L 1259 4147 
z
M 628 4666 
L 2241 4666 
Q 2963 4666 3353 4366 
Q 3744 4066 3744 3513 
Q 3744 3084 3544 2831 
Q 3344 2578 2956 2516 
Q 3422 2416 3680 2098 
Q 3938 1781 3938 1306 
Q 3938 681 3513 340 
Q 3088 0 2303 0 
L 628 0 
L 628 4666 
z
" id="DejaVuSans-42" transform="scale(0.015625)"/>
      <path d="M 678 2906 
L 4684 2906 
L 4684 2381 
L 678 2381 
L 678 2906 
z
M 678 1631 
L 4684 1631 
L 4684 1100 
L 678 1100 
L 678 1631 
z
" id="DejaVuSans-3d" transform="scale(0.015625)"/>
      <path d="M 691 4666 
L 3169 4666 
L 3169 4134 
L 1269 4134 
L 1269 2991 
Q 1406 3038 1543 3061 
Q 1681 3084 1819 3084 
Q 2600 3084 3056 2656 
Q 3513 2228 3513 1497 
Q 3513 744 3044 326 
Q 2575 -91 1722 -91 
Q 1428 -91 1123 -41 
Q 819 9 494 109 
L 494 744 
Q 775 591 1075 516 
Q 1375 441 1709 441 
Q 2250 441 2565 725 
Q 2881 1009 2881 1497 
Q 2881 1984 2565 2268 
Q 2250 2553 1709 2553 
Q 1456 2553 1204 2497 
Q 953 2441 691 2322 
L 691 4666 
z
" id="DejaVuSans-35" transform="scale(0.015625)"/>
      <path d="M 2188 4044 
L 906 525 
L 3472 525 
L 2188 4044 
z
M 50 0 
L 1831 4666 
L 2547 4666 
L 4325 0 
L 50 0 
z
" id="DejaVuSans-394" transform="scale(0.015625)"/>
      <path d="M 1081 4666 
L 2694 4666 
Q 3350 4666 3675 4422 
Q 4000 4178 4000 3688 
Q 4000 3238 3720 2911 
Q 3441 2584 2988 2516 
Q 3375 2428 3569 2181 
Q 3763 1934 3763 1522 
Q 3763 819 3242 409 
Q 2722 0 1819 0 
L 172 0 
L 1081 4666 
z
M 1234 2228 
L 903 519 
L 1919 519 
Q 2491 519 2800 781 
Q 3109 1044 3109 1522 
Q 3109 1891 2904 2059 
Q 2700 2228 2247 2228 
L 1234 2228 
z
M 1606 4147 
L 1331 2741 
L 2272 2741 
Q 2775 2741 3058 2959 
Q 3341 3178 3341 3566 
Q 3341 3869 3150 4008 
Q 2959 4147 2541 4147 
L 1606 4147 
z
" id="DejaVuSans-Oblique-42" transform="scale(0.015625)"/>
      <path d="M 4653 2053 
Q 4381 2053 4226 1822 
Q 4072 1591 4072 1178 
Q 4072 772 4226 539 
Q 4381 306 4653 306 
Q 4919 306 5073 539 
Q 5228 772 5228 1178 
Q 5228 1588 5073 1820 
Q 4919 2053 4653 2053 
z
M 4653 2450 
Q 5147 2450 5437 2106 
Q 5728 1763 5728 1178 
Q 5728 594 5436 251 
Q 5144 -91 4653 -91 
Q 4153 -91 3862 251 
Q 3572 594 3572 1178 
Q 3572 1766 3864 2108 
Q 4156 2450 4653 2450 
z
M 1428 4353 
Q 1159 4353 1004 4120 
Q 850 3888 850 3481 
Q 850 3069 1003 2837 
Q 1156 2606 1428 2606 
Q 1700 2606 1854 2837 
Q 2009 3069 2009 3481 
Q 2009 3884 1853 4118 
Q 1697 4353 1428 4353 
z
M 4250 4750 
L 4750 4750 
L 1831 -91 
L 1331 -91 
L 4250 4750 
z
M 1428 4750 
Q 1922 4750 2215 4408 
Q 2509 4066 2509 3481 
Q 2509 2891 2217 2550 
Q 1925 2209 1428 2209 
Q 931 2209 642 2551 
Q 353 2894 353 3481 
Q 353 4063 643 4406 
Q 934 4750 1428 4750 
z
" id="DejaVuSans-25" transform="scale(0.015625)"/>
      <path d="M 750 794 
L 1409 794 
L 1409 256 
L 897 -744 
L 494 -744 
L 750 256 
L 750 794 
z
" id="DejaVuSans-2c" transform="scale(0.015625)"/>
      <path d="M 4447 4306 
L 4319 3641 
Q 4019 3944 3683 4091 
Q 3347 4238 2956 4238 
Q 2422 4238 2017 3981 
Q 1613 3725 1319 3200 
Q 1131 2863 1032 2486 
Q 934 2109 934 1728 
Q 934 1091 1264 756 
Q 1594 422 2222 422 
Q 2656 422 3056 561 
Q 3456 700 3834 978 
L 3688 231 
Q 3316 72 2936 -9 
Q 2556 -91 2175 -91 
Q 1278 -91 773 396 
Q 269 884 269 1753 
Q 269 2309 461 2846 
Q 653 3384 1013 3828 
Q 1394 4300 1883 4525 
Q 2372 4750 3022 4750 
Q 3422 4750 3780 4639 
Q 4138 4528 4447 4306 
z
" id="DejaVuSans-Oblique-43" transform="scale(0.015625)"/>
      <path d="M 1966 397 
Q 2378 394 2578 159 
Q 2794 -88 2722 -463 
Q 2650 -822 2372 -1072 
Q 2069 -1344 1559 -1344 
Q 1606 -1109 1650 -872 
Q 1863 -888 2022 -750 
Q 2144 -641 2166 -525 
Q 2197 -359 2125 -222 
Q 2050 -91 1872 -91 
Q -22 -91 316 1669 
Q 616 3206 2609 4284 
L 947 4284 
L 1059 4863 
L 3778 4863 
L 3666 4284 
Q 1181 3147 894 1669 
Q 647 397 1966 397 
z
" id="DejaVuSans-Oblique-3b6" transform="scale(0.015625)"/>
      <path d="M 313 2009 
L 1997 2009 
L 1997 1497 
L 313 1497 
L 313 2009 
z
" id="DejaVuSans-2d" transform="scale(0.015625)"/>
      <path d="M 2219 3044 
Q 1744 3044 1422 2700 
Q 1081 2341 969 1747 
Q 844 1119 1044 756 
Q 1241 397 1706 397 
Q 2166 397 2503 759 
Q 2844 1122 2966 1747 
Q 3075 2319 2881 2700 
Q 2700 3044 2219 3044 
z
M 2309 3503 
L 4219 3500 
L 4106 2925 
L 3463 2925 
Q 3706 2438 3575 1747 
Q 3406 888 2884 400 
Q 2359 -91 1609 -91 
Q 856 -91 525 400 
Q 194 888 363 1747 
Q 528 2609 1050 3097 
Q 1484 3503 2309 3503 
z
" id="DejaVuSans-Oblique-3c3" transform="scale(0.015625)"/>
     </defs>
     <use transform="translate(0 0.684375)" xlink:href="#DejaVuSans-50"/>
     <use transform="translate(60.302734 0.684375)" xlink:href="#DejaVuSans-72"/>
     <use transform="translate(101.416016 0.684375)" xlink:href="#DejaVuSans-6f"/>
     <use transform="translate(162.597656 0.684375)" xlink:href="#DejaVuSans-66"/>
     <use transform="translate(197.802734 0.684375)" xlink:href="#DejaVuSans-69"/>
     <use transform="translate(225.585938 0.684375)" xlink:href="#DejaVuSans-6c"/>
     <use transform="translate(253.369141 0.684375)" xlink:href="#DejaVuSans-65"/>
     <use transform="translate(314.892578 0.684375)" xlink:href="#DejaVuSans-20"/>
     <use transform="translate(346.679688 0.684375)" xlink:href="#DejaVuSans-76"/>
     <use transform="translate(405.859375 0.684375)" xlink:href="#DejaVuSans-61"/>
     <use transform="translate(467.138672 0.684375)" xlink:href="#DejaVuSans-72"/>
     <use transform="translate(508.251953 0.684375)" xlink:href="#DejaVuSans-69"/>
     <use transform="translate(536.035156 0.684375)" xlink:href="#DejaVuSans-61"/>
     <use transform="translate(597.314453 0.684375)" xlink:href="#DejaVuSans-74"/>
     <use transform="translate(636.523438 0.684375)" xlink:href="#DejaVuSans-69"/>
     <use transform="translate(664.306641 0.684375)" xlink:href="#DejaVuSans-6f"/>
     <use transform="translate(725.488281 0.684375)" xlink:href="#DejaVuSans-6e"/>
     <use transform="translate(788.867188 0.684375)" xlink:href="#DejaVuSans-73"/>
     <use transform="translate(840.966797 0.684375)" xlink:href="#DejaVuSans-3a"/>
     <use transform="translate(874.658203 0.684375)" xlink:href="#DejaVuSans-20"/>
     <use transform="translate(906.445312 0.684375)" xlink:href="#DejaVuSans-42"/>
     <use transform="translate(975.048828 0.684375)" xlink:href="#DejaVuSans-20"/>
     <use transform="translate(1006.835938 0.684375)" xlink:href="#DejaVuSans-3d"/>
     <use transform="translate(1090.625 0.684375)" xlink:href="#DejaVuSans-20"/>
     <use transform="translate(1122.412109 0.684375)" xlink:href="#DejaVuSans-30"/>
     <use transform="translate(1186.035156 0.684375)" xlink:href="#DejaVuSans-2e"/>
     <use transform="translate(1217.822266 0.684375)" xlink:href="#DejaVuSans-30"/>
     <use transform="translate(1281.445312 0.684375)" xlink:href="#DejaVuSans-30"/>
     <use transform="translate(1345.068359 0.684375)" xlink:href="#DejaVuSans-35"/>
     <use transform="translate(1408.691406 0.684375)" xlink:href="#DejaVuSans-20"/>
     <use transform="translate(1440.478516 0.684375)" xlink:href="#DejaVuSans-20"/>
     <use transform="translate(1472.265625 0.684375)" xlink:href="#DejaVuSans-394"/>
     <use transform="translate(1540.673828 0.684375)" xlink:href="#DejaVuSans-Oblique-42"/>
     <use transform="translate(1628.759766 0.684375)" xlink:href="#DejaVuSans-3d"/>
     <use transform="translate(1732.03125 0.684375)" xlink:href="#DejaVuSans-20"/>
     <use transform="translate(1763.818359 0.684375)" xlink:href="#DejaVuSans-30"/>
     <use transform="translate(1827.441406 0.684375)" xlink:href="#DejaVuSans-25"/>
     <use transform="translate(1922.460938 0.684375)" xlink:href="#DejaVuSans-20"/>
     <use transform="translate(1954.248047 0.684375)" xlink:href="#DejaVuSans-2c"/>
     <use transform="translate(1986.035156 0.684375)" xlink:href="#DejaVuSans-20"/>
     <use transform="translate(2017.822266 0.684375)" xlink:href="#DejaVuSans-20"/>
     <use transform="translate(2049.609375 0.684375)" xlink:href="#DejaVuSans-394"/>
     <use transform="translate(2118.017578 0.684375)" xlink:href="#DejaVuSans-Oblique-43"/>
     <use transform="translate(2207.324219 0.684375)" xlink:href="#DejaVuSans-3d"/>
     <use transform="translate(2310.595703 0.684375)" xlink:href="#DejaVuSans-20"/>
     <use transform="translate(2342.382812 0.684375)" xlink:href="#DejaVuSans-30"/>
     <use transform="translate(2406.005859 0.684375)" xlink:href="#DejaVuSans-25"/>
     <use transform="translate(2501.025391 0.684375)" xlink:href="#DejaVuSans-20"/>
     <use transform="translate(2532.8125 0.684375)" xlink:href="#DejaVuSans-2c"/>
     <use transform="translate(2564.599609 0.684375)" xlink:href="#DejaVuSans-20"/>
     <use transform="translate(2596.386719 0.684375)" xlink:href="#DejaVuSans-Oblique-3b6"/>
     <use transform="translate(2670.263672 0.684375)" xlink:href="#DejaVuSans-3d"/>
     <use transform="translate(2773.535156 0.684375)" xlink:href="#DejaVuSans-2d"/>
     <use transform="translate(2809.619141 0.684375)" xlink:href="#DejaVuSans-30"/>
     <use transform="translate(2873.242188 0.684375)" xlink:href="#DejaVuSans-2e"/>
     <use transform="translate(2905.029297 0.684375)" xlink:href="#DejaVuSans-36"/>
     <use transform="translate(2968.652344 0.684375)" xlink:href="#DejaVuSans-2c"/>
     <use transform="translate(3000.439453 0.684375)" xlink:href="#DejaVuSans-20"/>
     <use transform="translate(3032.226562 0.684375)" xlink:href="#DejaVuSans-Oblique-3c3"/>
     <use transform="translate(3115.087891 0.684375)" xlink:href="#DejaVuSans-3d"/>
     <use transform="translate(3218.359375 0.684375)" xlink:href="#DejaVuSans-30"/>
     <use transform="translate(3281.982422 0.684375)" xlink:href="#DejaVuSans-2e"/>
     <use transform="translate(3313.769531 0.684375)" xlink:href="#DejaVuSans-31"/>
     <use transform="translate(3377.392578 0.684375)" xlink:href="#DejaVuSans-39"/>
     <use transform="translate(3441.015625 0.684375)" xlink:href="#DejaVuSans-35"/>
     <use transform="translate(3504.638672 0.684375)" xlink:href="#DejaVuSans-33"/>
     <use transform="translate(3568.261719 0.684375)" xlink:href="#DejaVuSans-Oblique-63"/>
     <use transform="translate(3623.242188 0.684375)" xlink:href="#DejaVuSans-Oblique-6d"/>
     <use transform="translate(3725.304193 38.965625)scale(0.7)" xlink:href="#DejaVuSans-2212"/>
     <use transform="translate(3783.956536 38.965625)scale(0.7)" xlink:href="#DejaVuSans-31"/>
    </g>
   </g>
   <g id="legend_1">
    <g id="patch_7">
     <path d="M 57.14375 345.16 
L 124.482813 345.16 
Q 126.482813 345.16 126.482813 343.16 
L 126.482813 256.09125 
Q 126.482813 254.09125 124.482813 254.09125 
L 57.14375 254.09125 
Q 55.14375 254.09125 55.14375 256.09125 
L 55.14375 343.16 
Q 55.14375 345.16 57.14375 345.16 
z
" style="fill:#ffffff;opacity:0.8;stroke:#cccccc;stroke-linejoin:miter;"/>
    </g>
    <g id="text_17">
     <!-- Temperature -->
     <g transform="translate(59.14375 265.689687)scale(0.1 -0.1)">
      <defs>
       <path d="M -19 4666 
L 3928 4666 
L 3928 4134 
L 2272 4134 
L 2272 0 
L 1638 0 
L 1638 4134 
L -19 4134 
L -19 4666 
z
" id="DejaVuSans-54" transform="scale(0.015625)"/>
       <path d="M 1159 525 
L 1159 -1331 
L 581 -1331 
L 581 3500 
L 1159 3500 
L 1159 2969 
Q 1341 3281 1617 3432 
Q 1894 3584 2278 3584 
Q 2916 3584 3314 3078 
Q 3713 2572 3713 1747 
Q 3713 922 3314 415 
Q 2916 -91 2278 -91 
Q 1894 -91 1617 61 
Q 1341 213 1159 525 
z
M 3116 1747 
Q 3116 2381 2855 2742 
Q 2594 3103 2138 3103 
Q 1681 3103 1420 2742 
Q 1159 2381 1159 1747 
Q 1159 1113 1420 752 
Q 1681 391 2138 391 
Q 2594 391 2855 752 
Q 3116 1113 3116 1747 
z
" id="DejaVuSans-70" transform="scale(0.015625)"/>
      </defs>
      <use xlink:href="#DejaVuSans-54"/>
      <use x="44.083984" xlink:href="#DejaVuSans-65"/>
      <use x="105.607422" xlink:href="#DejaVuSans-6d"/>
      <use x="203.019531" xlink:href="#DejaVuSans-70"/>
      <use x="266.496094" xlink:href="#DejaVuSans-65"/>
      <use x="328.019531" xlink:href="#DejaVuSans-72"/>
      <use x="369.132812" xlink:href="#DejaVuSans-61"/>
      <use x="430.412109" xlink:href="#DejaVuSans-74"/>
      <use x="469.621094" xlink:href="#DejaVuSans-75"/>
      <use x="533" xlink:href="#DejaVuSans-72"/>
      <use x="571.863281" xlink:href="#DejaVuSans-65"/>
     </g>
    </g>
    <g id="line2d_19">
     <path d="M 65.680469 276.867812 
L 85.680469 276.867812 
" style="fill:none;stroke:#e98768;stroke-linecap:square;stroke-width:1.5;"/>
    </g>
    <g id="line2d_20"/>
    <g id="text_18">
     <!-- 28.5 -->
     <g transform="translate(93.680469 280.367812)scale(0.1 -0.1)">
      <use xlink:href="#DejaVuSans-32"/>
      <use x="63.623047" xlink:href="#DejaVuSans-38"/>
      <use x="127.246094" xlink:href="#DejaVuSans-2e"/>
      <use x="159.033203" xlink:href="#DejaVuSans-35"/>
     </g>
    </g>
    <g id="line2d_21">
     <path d="M 65.680469 291.545937 
L 85.680469 291.545937 
" style="fill:none;stroke:#de5d5c;stroke-linecap:square;stroke-width:1.5;"/>
    </g>
    <g id="line2d_22"/>
    <g id="text_19">
     <!-- 30.5 -->
     <g transform="translate(93.680469 295.045937)scale(0.1 -0.1)">
      <use xlink:href="#DejaVuSans-33"/>
      <use x="63.623047" xlink:href="#DejaVuSans-30"/>
      <use x="127.246094" xlink:href="#DejaVuSans-2e"/>
      <use x="159.033203" xlink:href="#DejaVuSans-35"/>
     </g>
    </g>
    <g id="line2d_23">
     <path d="M 65.680469 306.224062 
L 85.680469 306.224062 
" style="fill:none;stroke:#c14168;stroke-linecap:square;stroke-width:1.5;"/>
    </g>
    <g id="line2d_24"/>
    <g id="text_20">
     <!-- 32.5 -->
     <g transform="translate(93.680469 309.724062)scale(0.1 -0.1)">
      <use xlink:href="#DejaVuSans-33"/>
      <use x="63.623047" xlink:href="#DejaVuSans-32"/>
      <use x="127.246094" xlink:href="#DejaVuSans-2e"/>
      <use x="159.033203" xlink:href="#DejaVuSans-35"/>
     </g>
    </g>
    <g id="line2d_25">
     <path d="M 65.680469 320.902187 
L 85.680469 320.902187 
" style="fill:none;stroke:#9a3670;stroke-linecap:square;stroke-width:1.5;"/>
    </g>
    <g id="line2d_26"/>
    <g id="text_21">
     <!-- 34.5 -->
     <g transform="translate(93.680469 324.402187)scale(0.1 -0.1)">
      <use xlink:href="#DejaVuSans-33"/>
      <use x="63.623047" xlink:href="#DejaVuSans-34"/>
      <use x="127.246094" xlink:href="#DejaVuSans-2e"/>
      <use x="159.033203" xlink:href="#DejaVuSans-35"/>
     </g>
    </g>
    <g id="line2d_27">
     <path d="M 65.680469 335.580312 
L 85.680469 335.580312 
" style="fill:none;stroke:#722c6e;stroke-linecap:square;stroke-width:1.5;"/>
    </g>
    <g id="line2d_28"/>
    <g id="text_22">
     <!-- 36.5 -->
     <g transform="translate(93.680469 339.080312)scale(0.1 -0.1)">
      <use xlink:href="#DejaVuSans-33"/>
      <use x="63.623047" xlink:href="#DejaVuSans-36"/>
      <use x="127.246094" xlink:href="#DejaVuSans-2e"/>
      <use x="159.033203" xlink:href="#DejaVuSans-35"/>
     </g>
    </g>
   </g>
  </g>
 </g>
 <defs>
  <clipPath id="p60abac4106">
   <rect height="326.16" width="948.6" x="50.14375" y="24"/>
  </clipPath>
 </defs>
</svg>
