<?xml version="1.0" encoding="utf-8" standalone="no"?>
<!DOCTYPE svg PUBLIC "-//W3C//DTD SVG 1.1//EN"
  "http://www.w3.org/Graphics/SVG/1.1/DTD/svg11.dtd">
<svg height="388.438125pt" version="1.1" viewBox="0 0 1005.94375 388.438125" width="1005.94375pt" xmlns="http://www.w3.org/2000/svg" xmlns:xlink="http://www.w3.org/1999/xlink">
 <metadata>
  <rdf:RDF xmlns:cc="http://creativecommons.org/ns#" xmlns:dc="http://purl.org/dc/elements/1.1/" xmlns:rdf="http://www.w3.org/1999/02/22-rdf-syntax-ns#">
   <cc:Work>
    <dc:type rdf:resource="http://purl.org/dc/dcmitype/StillImage"/>
    <dc:date>2022-11-23T07:11:38.104189</dc:date>
    <dc:format>image/svg+xml</dc:format>
    <dc:creator>
     <cc:Agent>
      <dc:title>Matplotlib v3.4.3, https://matplotlib.org/</dc:title>
     </cc:Agent>
    </dc:creator>
   </cc:Work>
  </rdf:RDF>
 </metadata>
 <defs>
  <style type="text/css">*{stroke-linecap:butt;stroke-linejoin:round;}</style>
 </defs>
 <g id="figure_1">
  <g id="patch_1">
   <path d="M 0 388.438125 
L 1005.94375 388.438125 
L 1005.94375 0 
L 0 0 
z
" style="fill:#ffffff;"/>
  </g>
  <g id="axes_1">
   <g id="patch_2">
    <path d="M 50.14375 350.16 
L 998.74375 350.16 
L 998.74375 24 
L 50.14375 24 
z
" style="fill:#ffffff;"/>
   </g>
   <g id="matplotlib.axis_1">
    <g id="xtick_1">
     <g id="line2d_1">
      <defs>
       <path d="M 0 0 
L 0 3.5 
" id="m4491e1a183" style="stroke:#000000;stroke-width:0.8;"/>
      </defs>
      <g>
       <use style="stroke:#000000;stroke-width:0.8;" x="199.984677" xlink:href="#m4491e1a183" y="350.16"/>
      </g>
     </g>
     <g id="text_1">
      <!-- −2 -->
      <g transform="translate(192.613584 364.758437)scale(0.1 -0.1)">
       <defs>
        <path d="M 678 2272 
L 4684 2272 
L 4684 1741 
L 678 1741 
L 678 2272 
z
" id="DejaVuSans-2212" transform="scale(0.015625)"/>
        <path d="M 1228 531 
L 3431 531 
L 3431 0 
L 469 0 
L 469 531 
Q 828 903 1448 1529 
Q 2069 2156 2228 2338 
Q 2531 2678 2651 2914 
Q 2772 3150 2772 3378 
Q 2772 3750 2511 3984 
Q 2250 4219 1831 4219 
Q 1534 4219 1204 4116 
Q 875 4013 500 3803 
L 500 4441 
Q 881 4594 1212 4672 
Q 1544 4750 1819 4750 
Q 2544 4750 2975 4387 
Q 3406 4025 3406 3419 
Q 3406 3131 3298 2873 
Q 3191 2616 2906 2266 
Q 2828 2175 2409 1742 
Q 1991 1309 1228 531 
z
" id="DejaVuSans-32" transform="scale(0.015625)"/>
       </defs>
       <use xlink:href="#DejaVuSans-2212"/>
       <use x="83.789062" xlink:href="#DejaVuSans-32"/>
      </g>
     </g>
    </g>
    <g id="xtick_2">
     <g id="line2d_2">
      <g>
       <use style="stroke:#000000;stroke-width:0.8;" x="355.252096" xlink:href="#m4491e1a183" y="350.16"/>
      </g>
     </g>
     <g id="text_2">
      <!-- −1 -->
      <g transform="translate(347.881002 364.758437)scale(0.1 -0.1)">
       <defs>
        <path d="M 794 531 
L 1825 531 
L 1825 4091 
L 703 3866 
L 703 4441 
L 1819 4666 
L 2450 4666 
L 2450 531 
L 3481 531 
L 3481 0 
L 794 0 
L 794 531 
z
" id="DejaVuSans-31" transform="scale(0.015625)"/>
       </defs>
       <use xlink:href="#DejaVuSans-2212"/>
       <use x="83.789062" xlink:href="#DejaVuSans-31"/>
      </g>
     </g>
    </g>
    <g id="xtick_3">
     <g id="line2d_3">
      <g>
       <use style="stroke:#000000;stroke-width:0.8;" x="510.519515" xlink:href="#m4491e1a183" y="350.16"/>
      </g>
     </g>
     <g id="text_3">
      <!-- 0 -->
      <g transform="translate(507.338265 364.758437)scale(0.1 -0.1)">
       <defs>
        <path d="M 2034 4250 
Q 1547 4250 1301 3770 
Q 1056 3291 1056 2328 
Q 1056 1369 1301 889 
Q 1547 409 2034 409 
Q 2525 409 2770 889 
Q 3016 1369 3016 2328 
Q 3016 3291 2770 3770 
Q 2525 4250 2034 4250 
z
M 2034 4750 
Q 2819 4750 3233 4129 
Q 3647 3509 3647 2328 
Q 3647 1150 3233 529 
Q 2819 -91 2034 -91 
Q 1250 -91 836 529 
Q 422 1150 422 2328 
Q 422 3509 836 4129 
Q 1250 4750 2034 4750 
z
" id="DejaVuSans-30" transform="scale(0.015625)"/>
       </defs>
       <use xlink:href="#DejaVuSans-30"/>
      </g>
     </g>
    </g>
    <g id="xtick_4">
     <g id="line2d_4">
      <g>
       <use style="stroke:#000000;stroke-width:0.8;" x="665.786933" xlink:href="#m4491e1a183" y="350.16"/>
      </g>
     </g>
     <g id="text_4">
      <!-- 1 -->
      <g transform="translate(662.605683 364.758437)scale(0.1 -0.1)">
       <use xlink:href="#DejaVuSans-31"/>
      </g>
     </g>
    </g>
    <g id="xtick_5">
     <g id="line2d_5">
      <g>
       <use style="stroke:#000000;stroke-width:0.8;" x="821.054352" xlink:href="#m4491e1a183" y="350.16"/>
      </g>
     </g>
     <g id="text_5">
      <!-- 2 -->
      <g transform="translate(817.873102 364.758437)scale(0.1 -0.1)">
       <use xlink:href="#DejaVuSans-32"/>
      </g>
     </g>
    </g>
    <g id="xtick_6">
     <g id="line2d_6">
      <g>
       <use style="stroke:#000000;stroke-width:0.8;" x="976.321771" xlink:href="#m4491e1a183" y="350.16"/>
      </g>
     </g>
     <g id="text_6">
      <!-- 3 -->
      <g transform="translate(973.140521 364.758437)scale(0.1 -0.1)">
       <defs>
        <path d="M 2597 2516 
Q 3050 2419 3304 2112 
Q 3559 1806 3559 1356 
Q 3559 666 3084 287 
Q 2609 -91 1734 -91 
Q 1441 -91 1130 -33 
Q 819 25 488 141 
L 488 750 
Q 750 597 1062 519 
Q 1375 441 1716 441 
Q 2309 441 2620 675 
Q 2931 909 2931 1356 
Q 2931 1769 2642 2001 
Q 2353 2234 1838 2234 
L 1294 2234 
L 1294 2753 
L 1863 2753 
Q 2328 2753 2575 2939 
Q 2822 3125 2822 3475 
Q 2822 3834 2567 4026 
Q 2313 4219 1838 4219 
Q 1578 4219 1281 4162 
Q 984 4106 628 3988 
L 628 4550 
Q 988 4650 1302 4700 
Q 1616 4750 1894 4750 
Q 2613 4750 3031 4423 
Q 3450 4097 3450 3541 
Q 3450 3153 3228 2886 
Q 3006 2619 2597 2516 
z
" id="DejaVuSans-33" transform="scale(0.015625)"/>
       </defs>
       <use xlink:href="#DejaVuSans-33"/>
      </g>
     </g>
    </g>
    <g id="text_7">
     <!-- wavenumber (in $cm^{-1}$) -->
     <g transform="translate(466.94375 379.158437)scale(0.1 -0.1)">
      <defs>
       <path d="M 269 3500 
L 844 3500 
L 1563 769 
L 2278 3500 
L 2956 3500 
L 3675 769 
L 4391 3500 
L 4966 3500 
L 4050 0 
L 3372 0 
L 2619 2869 
L 1863 0 
L 1184 0 
L 269 3500 
z
" id="DejaVuSans-77" transform="scale(0.015625)"/>
       <path d="M 2194 1759 
Q 1497 1759 1228 1600 
Q 959 1441 959 1056 
Q 959 750 1161 570 
Q 1363 391 1709 391 
Q 2188 391 2477 730 
Q 2766 1069 2766 1631 
L 2766 1759 
L 2194 1759 
z
M 3341 1997 
L 3341 0 
L 2766 0 
L 2766 531 
Q 2569 213 2275 61 
Q 1981 -91 1556 -91 
Q 1019 -91 701 211 
Q 384 513 384 1019 
Q 384 1609 779 1909 
Q 1175 2209 1959 2209 
L 2766 2209 
L 2766 2266 
Q 2766 2663 2505 2880 
Q 2244 3097 1772 3097 
Q 1472 3097 1187 3025 
Q 903 2953 641 2809 
L 641 3341 
Q 956 3463 1253 3523 
Q 1550 3584 1831 3584 
Q 2591 3584 2966 3190 
Q 3341 2797 3341 1997 
z
" id="DejaVuSans-61" transform="scale(0.015625)"/>
       <path d="M 191 3500 
L 800 3500 
L 1894 563 
L 2988 3500 
L 3597 3500 
L 2284 0 
L 1503 0 
L 191 3500 
z
" id="DejaVuSans-76" transform="scale(0.015625)"/>
       <path d="M 3597 1894 
L 3597 1613 
L 953 1613 
Q 991 1019 1311 708 
Q 1631 397 2203 397 
Q 2534 397 2845 478 
Q 3156 559 3463 722 
L 3463 178 
Q 3153 47 2828 -22 
Q 2503 -91 2169 -91 
Q 1331 -91 842 396 
Q 353 884 353 1716 
Q 353 2575 817 3079 
Q 1281 3584 2069 3584 
Q 2775 3584 3186 3129 
Q 3597 2675 3597 1894 
z
M 3022 2063 
Q 3016 2534 2758 2815 
Q 2500 3097 2075 3097 
Q 1594 3097 1305 2825 
Q 1016 2553 972 2059 
L 3022 2063 
z
" id="DejaVuSans-65" transform="scale(0.015625)"/>
       <path d="M 3513 2113 
L 3513 0 
L 2938 0 
L 2938 2094 
Q 2938 2591 2744 2837 
Q 2550 3084 2163 3084 
Q 1697 3084 1428 2787 
Q 1159 2491 1159 1978 
L 1159 0 
L 581 0 
L 581 3500 
L 1159 3500 
L 1159 2956 
Q 1366 3272 1645 3428 
Q 1925 3584 2291 3584 
Q 2894 3584 3203 3211 
Q 3513 2838 3513 2113 
z
" id="DejaVuSans-6e" transform="scale(0.015625)"/>
       <path d="M 544 1381 
L 544 3500 
L 1119 3500 
L 1119 1403 
Q 1119 906 1312 657 
Q 1506 409 1894 409 
Q 2359 409 2629 706 
Q 2900 1003 2900 1516 
L 2900 3500 
L 3475 3500 
L 3475 0 
L 2900 0 
L 2900 538 
Q 2691 219 2414 64 
Q 2138 -91 1772 -91 
Q 1169 -91 856 284 
Q 544 659 544 1381 
z
M 1991 3584 
L 1991 3584 
z
" id="DejaVuSans-75" transform="scale(0.015625)"/>
       <path d="M 3328 2828 
Q 3544 3216 3844 3400 
Q 4144 3584 4550 3584 
Q 5097 3584 5394 3201 
Q 5691 2819 5691 2113 
L 5691 0 
L 5113 0 
L 5113 2094 
Q 5113 2597 4934 2840 
Q 4756 3084 4391 3084 
Q 3944 3084 3684 2787 
Q 3425 2491 3425 1978 
L 3425 0 
L 2847 0 
L 2847 2094 
Q 2847 2600 2669 2842 
Q 2491 3084 2119 3084 
Q 1678 3084 1418 2786 
Q 1159 2488 1159 1978 
L 1159 0 
L 581 0 
L 581 3500 
L 1159 3500 
L 1159 2956 
Q 1356 3278 1631 3431 
Q 1906 3584 2284 3584 
Q 2666 3584 2933 3390 
Q 3200 3197 3328 2828 
z
" id="DejaVuSans-6d" transform="scale(0.015625)"/>
       <path d="M 3116 1747 
Q 3116 2381 2855 2742 
Q 2594 3103 2138 3103 
Q 1681 3103 1420 2742 
Q 1159 2381 1159 1747 
Q 1159 1113 1420 752 
Q 1681 391 2138 391 
Q 2594 391 2855 752 
Q 3116 1113 3116 1747 
z
M 1159 2969 
Q 1341 3281 1617 3432 
Q 1894 3584 2278 3584 
Q 2916 3584 3314 3078 
Q 3713 2572 3713 1747 
Q 3713 922 3314 415 
Q 2916 -91 2278 -91 
Q 1894 -91 1617 61 
Q 1341 213 1159 525 
L 1159 0 
L 581 0 
L 581 4863 
L 1159 4863 
L 1159 2969 
z
" id="DejaVuSans-62" transform="scale(0.015625)"/>
       <path d="M 2631 2963 
Q 2534 3019 2420 3045 
Q 2306 3072 2169 3072 
Q 1681 3072 1420 2755 
Q 1159 2438 1159 1844 
L 1159 0 
L 581 0 
L 581 3500 
L 1159 3500 
L 1159 2956 
Q 1341 3275 1631 3429 
Q 1922 3584 2338 3584 
Q 2397 3584 2469 3576 
Q 2541 3569 2628 3553 
L 2631 2963 
z
" id="DejaVuSans-72" transform="scale(0.015625)"/>
       <path id="DejaVuSans-20" transform="scale(0.015625)"/>
       <path d="M 1984 4856 
Q 1566 4138 1362 3434 
Q 1159 2731 1159 2009 
Q 1159 1288 1364 580 
Q 1569 -128 1984 -844 
L 1484 -844 
Q 1016 -109 783 600 
Q 550 1309 550 2009 
Q 550 2706 781 3412 
Q 1013 4119 1484 4856 
L 1984 4856 
z
" id="DejaVuSans-28" transform="scale(0.015625)"/>
       <path d="M 603 3500 
L 1178 3500 
L 1178 0 
L 603 0 
L 603 3500 
z
M 603 4863 
L 1178 4863 
L 1178 4134 
L 603 4134 
L 603 4863 
z
" id="DejaVuSans-69" transform="scale(0.015625)"/>
       <path d="M 3431 3366 
L 3316 2797 
Q 3109 2947 2876 3022 
Q 2644 3097 2394 3097 
Q 2119 3097 1870 3000 
Q 1622 2903 1453 2725 
Q 1184 2453 1037 2087 
Q 891 1722 891 1331 
Q 891 859 1127 628 
Q 1363 397 1844 397 
Q 2081 397 2348 469 
Q 2616 541 2906 684 
L 2797 116 
Q 2547 13 2283 -39 
Q 2019 -91 1741 -91 
Q 1044 -91 669 257 
Q 294 606 294 1253 
Q 294 1797 489 2255 
Q 684 2713 1069 3078 
Q 1331 3328 1684 3456 
Q 2038 3584 2456 3584 
Q 2700 3584 2940 3529 
Q 3181 3475 3431 3366 
z
" id="DejaVuSans-Oblique-63" transform="scale(0.015625)"/>
       <path d="M 5747 2113 
L 5338 0 
L 4763 0 
L 5166 2094 
Q 5191 2228 5203 2325 
Q 5216 2422 5216 2491 
Q 5216 2772 5059 2928 
Q 4903 3084 4622 3084 
Q 4203 3084 3875 2770 
Q 3547 2456 3450 1953 
L 3066 0 
L 2491 0 
L 2900 2094 
Q 2925 2209 2937 2307 
Q 2950 2406 2950 2484 
Q 2950 2769 2794 2926 
Q 2638 3084 2363 3084 
Q 1938 3084 1609 2770 
Q 1281 2456 1184 1953 
L 800 0 
L 225 0 
L 909 3500 
L 1484 3500 
L 1375 2956 
Q 1609 3263 1923 3423 
Q 2238 3584 2597 3584 
Q 2978 3584 3223 3384 
Q 3469 3184 3519 2828 
Q 3781 3197 4126 3390 
Q 4472 3584 4856 3584 
Q 5306 3584 5551 3325 
Q 5797 3066 5797 2591 
Q 5797 2488 5784 2364 
Q 5772 2241 5747 2113 
z
" id="DejaVuSans-Oblique-6d" transform="scale(0.015625)"/>
       <path d="M 513 4856 
L 1013 4856 
Q 1481 4119 1714 3412 
Q 1947 2706 1947 2009 
Q 1947 1309 1714 600 
Q 1481 -109 1013 -844 
L 513 -844 
Q 928 -128 1133 580 
Q 1338 1288 1338 2009 
Q 1338 2731 1133 3434 
Q 928 4138 513 4856 
z
" id="DejaVuSans-29" transform="scale(0.015625)"/>
      </defs>
      <use transform="translate(0 0.684375)" xlink:href="#DejaVuSans-77"/>
      <use transform="translate(81.787109 0.684375)" xlink:href="#DejaVuSans-61"/>
      <use transform="translate(143.066406 0.684375)" xlink:href="#DejaVuSans-76"/>
      <use transform="translate(202.246094 0.684375)" xlink:href="#DejaVuSans-65"/>
      <use transform="translate(263.769531 0.684375)" xlink:href="#DejaVuSans-6e"/>
      <use transform="translate(327.148438 0.684375)" xlink:href="#DejaVuSans-75"/>
      <use transform="translate(390.527344 0.684375)" xlink:href="#DejaVuSans-6d"/>
      <use transform="translate(487.939453 0.684375)" xlink:href="#DejaVuSans-62"/>
      <use transform="translate(551.416016 0.684375)" xlink:href="#DejaVuSans-65"/>
      <use transform="translate(612.939453 0.684375)" xlink:href="#DejaVuSans-72"/>
      <use transform="translate(654.052734 0.684375)" xlink:href="#DejaVuSans-20"/>
      <use transform="translate(685.839844 0.684375)" xlink:href="#DejaVuSans-28"/>
      <use transform="translate(724.853516 0.684375)" xlink:href="#DejaVuSans-69"/>
      <use transform="translate(752.636719 0.684375)" xlink:href="#DejaVuSans-6e"/>
      <use transform="translate(816.015625 0.684375)" xlink:href="#DejaVuSans-20"/>
      <use transform="translate(847.802734 0.684375)" xlink:href="#DejaVuSans-Oblique-63"/>
      <use transform="translate(902.783203 0.684375)" xlink:href="#DejaVuSans-Oblique-6d"/>
      <use transform="translate(1004.845208 38.965625)scale(0.7)" xlink:href="#DejaVuSans-2212"/>
      <use transform="translate(1063.497552 38.965625)scale(0.7)" xlink:href="#DejaVuSans-31"/>
      <use transform="translate(1110.76806 0.684375)" xlink:href="#DejaVuSans-29"/>
     </g>
    </g>
   </g>
   <g id="matplotlib.axis_2">
    <g id="ytick_1">
     <g id="line2d_7">
      <defs>
       <path d="M 0 0 
L -3.5 0 
" id="me2d9d03a69" style="stroke:#000000;stroke-width:0.8;"/>
      </defs>
      <g>
       <use style="stroke:#000000;stroke-width:0.8;" x="50.14375" xlink:href="#me2d9d03a69" y="335.334545"/>
      </g>
     </g>
     <g id="text_8">
      <!-- 0.90 -->
      <g transform="translate(20.878125 339.133764)scale(0.1 -0.1)">
       <defs>
        <path d="M 684 794 
L 1344 794 
L 1344 0 
L 684 0 
L 684 794 
z
" id="DejaVuSans-2e" transform="scale(0.015625)"/>
        <path d="M 703 97 
L 703 672 
Q 941 559 1184 500 
Q 1428 441 1663 441 
Q 2288 441 2617 861 
Q 2947 1281 2994 2138 
Q 2813 1869 2534 1725 
Q 2256 1581 1919 1581 
Q 1219 1581 811 2004 
Q 403 2428 403 3163 
Q 403 3881 828 4315 
Q 1253 4750 1959 4750 
Q 2769 4750 3195 4129 
Q 3622 3509 3622 2328 
Q 3622 1225 3098 567 
Q 2575 -91 1691 -91 
Q 1453 -91 1209 -44 
Q 966 3 703 97 
z
M 1959 2075 
Q 2384 2075 2632 2365 
Q 2881 2656 2881 3163 
Q 2881 3666 2632 3958 
Q 2384 4250 1959 4250 
Q 1534 4250 1286 3958 
Q 1038 3666 1038 3163 
Q 1038 2656 1286 2365 
Q 1534 2075 1959 2075 
z
" id="DejaVuSans-39" transform="scale(0.015625)"/>
       </defs>
       <use xlink:href="#DejaVuSans-30"/>
       <use x="63.623047" xlink:href="#DejaVuSans-2e"/>
       <use x="95.410156" xlink:href="#DejaVuSans-39"/>
       <use x="159.033203" xlink:href="#DejaVuSans-30"/>
      </g>
     </g>
    </g>
    <g id="ytick_2">
     <g id="line2d_8">
      <g>
       <use style="stroke:#000000;stroke-width:0.8;" x="50.14375" xlink:href="#me2d9d03a69" y="276.026576"/>
      </g>
     </g>
     <g id="text_9">
      <!-- 0.92 -->
      <g transform="translate(20.878125 279.825794)scale(0.1 -0.1)">
       <use xlink:href="#DejaVuSans-30"/>
       <use x="63.623047" xlink:href="#DejaVuSans-2e"/>
       <use x="95.410156" xlink:href="#DejaVuSans-39"/>
       <use x="159.033203" xlink:href="#DejaVuSans-32"/>
      </g>
     </g>
    </g>
    <g id="ytick_3">
     <g id="line2d_9">
      <g>
       <use style="stroke:#000000;stroke-width:0.8;" x="50.14375" xlink:href="#me2d9d03a69" y="216.718606"/>
      </g>
     </g>
     <g id="text_10">
      <!-- 0.94 -->
      <g transform="translate(20.878125 220.517824)scale(0.1 -0.1)">
       <defs>
        <path d="M 2419 4116 
L 825 1625 
L 2419 1625 
L 2419 4116 
z
M 2253 4666 
L 3047 4666 
L 3047 1625 
L 3713 1625 
L 3713 1100 
L 3047 1100 
L 3047 0 
L 2419 0 
L 2419 1100 
L 313 1100 
L 313 1709 
L 2253 4666 
z
" id="DejaVuSans-34" transform="scale(0.015625)"/>
       </defs>
       <use xlink:href="#DejaVuSans-30"/>
       <use x="63.623047" xlink:href="#DejaVuSans-2e"/>
       <use x="95.410156" xlink:href="#DejaVuSans-39"/>
       <use x="159.033203" xlink:href="#DejaVuSans-34"/>
      </g>
     </g>
    </g>
    <g id="ytick_4">
     <g id="line2d_10">
      <g>
       <use style="stroke:#000000;stroke-width:0.8;" x="50.14375" xlink:href="#me2d9d03a69" y="157.410636"/>
      </g>
     </g>
     <g id="text_11">
      <!-- 0.96 -->
      <g transform="translate(20.878125 161.209854)scale(0.1 -0.1)">
       <defs>
        <path d="M 2113 2584 
Q 1688 2584 1439 2293 
Q 1191 2003 1191 1497 
Q 1191 994 1439 701 
Q 1688 409 2113 409 
Q 2538 409 2786 701 
Q 3034 994 3034 1497 
Q 3034 2003 2786 2293 
Q 2538 2584 2113 2584 
z
M 3366 4563 
L 3366 3988 
Q 3128 4100 2886 4159 
Q 2644 4219 2406 4219 
Q 1781 4219 1451 3797 
Q 1122 3375 1075 2522 
Q 1259 2794 1537 2939 
Q 1816 3084 2150 3084 
Q 2853 3084 3261 2657 
Q 3669 2231 3669 1497 
Q 3669 778 3244 343 
Q 2819 -91 2113 -91 
Q 1303 -91 875 529 
Q 447 1150 447 2328 
Q 447 3434 972 4092 
Q 1497 4750 2381 4750 
Q 2619 4750 2861 4703 
Q 3103 4656 3366 4563 
z
" id="DejaVuSans-36" transform="scale(0.015625)"/>
       </defs>
       <use xlink:href="#DejaVuSans-30"/>
       <use x="63.623047" xlink:href="#DejaVuSans-2e"/>
       <use x="95.410156" xlink:href="#DejaVuSans-39"/>
       <use x="159.033203" xlink:href="#DejaVuSans-36"/>
      </g>
     </g>
    </g>
    <g id="ytick_5">
     <g id="line2d_11">
      <g>
       <use style="stroke:#000000;stroke-width:0.8;" x="50.14375" xlink:href="#me2d9d03a69" y="98.102666"/>
      </g>
     </g>
     <g id="text_12">
      <!-- 0.98 -->
      <g transform="translate(20.878125 101.901884)scale(0.1 -0.1)">
       <defs>
        <path d="M 2034 2216 
Q 1584 2216 1326 1975 
Q 1069 1734 1069 1313 
Q 1069 891 1326 650 
Q 1584 409 2034 409 
Q 2484 409 2743 651 
Q 3003 894 3003 1313 
Q 3003 1734 2745 1975 
Q 2488 2216 2034 2216 
z
M 1403 2484 
Q 997 2584 770 2862 
Q 544 3141 544 3541 
Q 544 4100 942 4425 
Q 1341 4750 2034 4750 
Q 2731 4750 3128 4425 
Q 3525 4100 3525 3541 
Q 3525 3141 3298 2862 
Q 3072 2584 2669 2484 
Q 3125 2378 3379 2068 
Q 3634 1759 3634 1313 
Q 3634 634 3220 271 
Q 2806 -91 2034 -91 
Q 1263 -91 848 271 
Q 434 634 434 1313 
Q 434 1759 690 2068 
Q 947 2378 1403 2484 
z
M 1172 3481 
Q 1172 3119 1398 2916 
Q 1625 2713 2034 2713 
Q 2441 2713 2670 2916 
Q 2900 3119 2900 3481 
Q 2900 3844 2670 4047 
Q 2441 4250 2034 4250 
Q 1625 4250 1398 4047 
Q 1172 3844 1172 3481 
z
" id="DejaVuSans-38" transform="scale(0.015625)"/>
       </defs>
       <use xlink:href="#DejaVuSans-30"/>
       <use x="63.623047" xlink:href="#DejaVuSans-2e"/>
       <use x="95.410156" xlink:href="#DejaVuSans-39"/>
       <use x="159.033203" xlink:href="#DejaVuSans-38"/>
      </g>
     </g>
    </g>
    <g id="ytick_6">
     <g id="line2d_12">
      <g>
       <use style="stroke:#000000;stroke-width:0.8;" x="50.14375" xlink:href="#me2d9d03a69" y="38.794696"/>
      </g>
     </g>
     <g id="text_13">
      <!-- 1.00 -->
      <g transform="translate(20.878125 42.593915)scale(0.1 -0.1)">
       <use xlink:href="#DejaVuSans-31"/>
       <use x="63.623047" xlink:href="#DejaVuSans-2e"/>
       <use x="95.410156" xlink:href="#DejaVuSans-30"/>
       <use x="159.033203" xlink:href="#DejaVuSans-30"/>
      </g>
     </g>
    </g>
    <g id="text_14">
     <!-- Normalized Intensity -->
     <g transform="translate(14.798438 238.787031)rotate(-90)scale(0.1 -0.1)">
      <defs>
       <path d="M 628 4666 
L 1478 4666 
L 3547 763 
L 3547 4666 
L 4159 4666 
L 4159 0 
L 3309 0 
L 1241 3903 
L 1241 0 
L 628 0 
L 628 4666 
z
" id="DejaVuSans-4e" transform="scale(0.015625)"/>
       <path d="M 1959 3097 
Q 1497 3097 1228 2736 
Q 959 2375 959 1747 
Q 959 1119 1226 758 
Q 1494 397 1959 397 
Q 2419 397 2687 759 
Q 2956 1122 2956 1747 
Q 2956 2369 2687 2733 
Q 2419 3097 1959 3097 
z
M 1959 3584 
Q 2709 3584 3137 3096 
Q 3566 2609 3566 1747 
Q 3566 888 3137 398 
Q 2709 -91 1959 -91 
Q 1206 -91 779 398 
Q 353 888 353 1747 
Q 353 2609 779 3096 
Q 1206 3584 1959 3584 
z
" id="DejaVuSans-6f" transform="scale(0.015625)"/>
       <path d="M 603 4863 
L 1178 4863 
L 1178 0 
L 603 0 
L 603 4863 
z
" id="DejaVuSans-6c" transform="scale(0.015625)"/>
       <path d="M 353 3500 
L 3084 3500 
L 3084 2975 
L 922 459 
L 3084 459 
L 3084 0 
L 275 0 
L 275 525 
L 2438 3041 
L 353 3041 
L 353 3500 
z
" id="DejaVuSans-7a" transform="scale(0.015625)"/>
       <path d="M 2906 2969 
L 2906 4863 
L 3481 4863 
L 3481 0 
L 2906 0 
L 2906 525 
Q 2725 213 2448 61 
Q 2172 -91 1784 -91 
Q 1150 -91 751 415 
Q 353 922 353 1747 
Q 353 2572 751 3078 
Q 1150 3584 1784 3584 
Q 2172 3584 2448 3432 
Q 2725 3281 2906 2969 
z
M 947 1747 
Q 947 1113 1208 752 
Q 1469 391 1925 391 
Q 2381 391 2643 752 
Q 2906 1113 2906 1747 
Q 2906 2381 2643 2742 
Q 2381 3103 1925 3103 
Q 1469 3103 1208 2742 
Q 947 2381 947 1747 
z
" id="DejaVuSans-64" transform="scale(0.015625)"/>
       <path d="M 628 4666 
L 1259 4666 
L 1259 0 
L 628 0 
L 628 4666 
z
" id="DejaVuSans-49" transform="scale(0.015625)"/>
       <path d="M 1172 4494 
L 1172 3500 
L 2356 3500 
L 2356 3053 
L 1172 3053 
L 1172 1153 
Q 1172 725 1289 603 
Q 1406 481 1766 481 
L 2356 481 
L 2356 0 
L 1766 0 
Q 1100 0 847 248 
Q 594 497 594 1153 
L 594 3053 
L 172 3053 
L 172 3500 
L 594 3500 
L 594 4494 
L 1172 4494 
z
" id="DejaVuSans-74" transform="scale(0.015625)"/>
       <path d="M 2834 3397 
L 2834 2853 
Q 2591 2978 2328 3040 
Q 2066 3103 1784 3103 
Q 1356 3103 1142 2972 
Q 928 2841 928 2578 
Q 928 2378 1081 2264 
Q 1234 2150 1697 2047 
L 1894 2003 
Q 2506 1872 2764 1633 
Q 3022 1394 3022 966 
Q 3022 478 2636 193 
Q 2250 -91 1575 -91 
Q 1294 -91 989 -36 
Q 684 19 347 128 
L 347 722 
Q 666 556 975 473 
Q 1284 391 1588 391 
Q 1994 391 2212 530 
Q 2431 669 2431 922 
Q 2431 1156 2273 1281 
Q 2116 1406 1581 1522 
L 1381 1569 
Q 847 1681 609 1914 
Q 372 2147 372 2553 
Q 372 3047 722 3315 
Q 1072 3584 1716 3584 
Q 2034 3584 2315 3537 
Q 2597 3491 2834 3397 
z
" id="DejaVuSans-73" transform="scale(0.015625)"/>
       <path d="M 2059 -325 
Q 1816 -950 1584 -1140 
Q 1353 -1331 966 -1331 
L 506 -1331 
L 506 -850 
L 844 -850 
Q 1081 -850 1212 -737 
Q 1344 -625 1503 -206 
L 1606 56 
L 191 3500 
L 800 3500 
L 1894 763 
L 2988 3500 
L 3597 3500 
L 2059 -325 
z
" id="DejaVuSans-79" transform="scale(0.015625)"/>
      </defs>
      <use xlink:href="#DejaVuSans-4e"/>
      <use x="74.804688" xlink:href="#DejaVuSans-6f"/>
      <use x="135.986328" xlink:href="#DejaVuSans-72"/>
      <use x="175.349609" xlink:href="#DejaVuSans-6d"/>
      <use x="272.761719" xlink:href="#DejaVuSans-61"/>
      <use x="334.041016" xlink:href="#DejaVuSans-6c"/>
      <use x="361.824219" xlink:href="#DejaVuSans-69"/>
      <use x="389.607422" xlink:href="#DejaVuSans-7a"/>
      <use x="442.097656" xlink:href="#DejaVuSans-65"/>
      <use x="503.621094" xlink:href="#DejaVuSans-64"/>
      <use x="567.097656" xlink:href="#DejaVuSans-20"/>
      <use x="598.884766" xlink:href="#DejaVuSans-49"/>
      <use x="628.376953" xlink:href="#DejaVuSans-6e"/>
      <use x="691.755859" xlink:href="#DejaVuSans-74"/>
      <use x="730.964844" xlink:href="#DejaVuSans-65"/>
      <use x="792.488281" xlink:href="#DejaVuSans-6e"/>
      <use x="855.867188" xlink:href="#DejaVuSans-73"/>
      <use x="907.966797" xlink:href="#DejaVuSans-69"/>
      <use x="935.75" xlink:href="#DejaVuSans-74"/>
      <use x="974.958984" xlink:href="#DejaVuSans-79"/>
     </g>
    </g>
   </g>
   <g id="line2d_13">
    <path clip-path="url(#pa8a7d277f1)" d="M 127.756477 38.832967 
L 139.254659 38.862131 
L 150.752841 38.912171 
L 162.251023 38.996696 
L 173.749205 39.137062 
L 185.247386 39.365943 
L 196.745568 39.73199 
L 208.24375 40.305531 
L 219.741932 41.185031 
L 231.240114 42.50355 
L 242.738295 44.433915 
L 254.236477 47.190617 
L 265.734659 51.025832 
L 277.232841 56.216532 
L 288.731023 63.039829 
L 300.229205 71.734648 
L 311.727386 82.449916 
L 323.225568 95.182748 
L 334.72375 109.714246 
L 346.221932 125.555084 
L 357.720114 141.917071 
L 369.218295 157.730135 
L 380.716477 171.727489 
L 392.214659 182.627491 
L 403.712841 189.448485 
L 415.211023 191.986808 
L 426.709205 191.420391 
L 438.207386 190.806499 
L 449.705568 194.944879 
L 461.20375 208.951165 
L 472.701932 235.419462 
L 484.200114 271.398636 
L 495.698295 307.630327 
L 507.196477 331.891147 
L 518.694659 335.334545 
L 530.192841 317.70165 
L 541.691023 287.470483 
L 553.189205 256.83589 
L 564.687386 235.317663 
L 576.185568 226.175436 
L 587.68375 226.915812 
L 599.181932 232.212877 
L 610.680114 236.826341 
L 622.178295 237.206394 
L 633.676477 231.796124 
L 645.174659 220.625994 
L 656.672841 204.725554 
L 668.171023 185.608421 
L 679.669205 164.894921 
L 691.167386 144.062068 
L 702.665568 124.297487 
L 714.16375 106.436467 
L 725.661932 90.962723 
L 737.160114 78.052966 
L 748.658295 67.645792 
L 760.156477 59.517935 
L 771.654659 53.355227 
L 783.152841 48.810579 
L 794.651023 45.545851 
L 806.149205 43.257963 
L 817.647386 41.691754 
L 829.145568 40.643028 
L 840.64375 39.955252 
L 852.141932 39.51287 
L 863.640114 39.233394 
L 875.138295 39.059703 
L 886.636477 38.953324 
L 898.134659 38.888993 
L 909.632841 38.850497 
L 921.131023 38.827647 
" style="fill:none;stroke:#e98768;stroke-linecap:square;stroke-width:1.5;"/>
   </g>
   <g id="line2d_14">
    <path clip-path="url(#pa8a7d277f1)" d="M 116.258295 38.829992 
L 127.756477 38.856057 
L 139.254659 38.900274 
L 150.752841 38.974203 
L 162.251023 39.095873 
L 173.749205 39.292741 
L 185.247386 39.605577 
L 196.745568 40.093277 
L 208.24375 40.838435 
L 219.741932 41.953171 
L 231.240114 43.584271 
L 242.738295 45.916187 
L 254.236477 49.169858 
L 265.734659 53.594904 
L 277.232841 59.452631 
L 288.731023 66.987758 
L 300.229205 76.388088 
L 311.727386 87.733553 
L 323.225568 100.9392 
L 334.72375 115.700324 
L 346.221932 131.451533 
L 357.720114 147.35435 
L 369.218295 162.3301 
L 380.716477 175.157363 
L 392.214659 184.659034 
L 403.712841 190.012172 
L 415.211023 191.208063 
L 426.709205 189.622552 
L 438.207386 188.465769 
L 449.705568 192.592279 
L 461.20375 207.040219 
L 472.701932 234.207101 
L 484.200114 270.894216 
L 495.698295 307.632761 
L 507.196477 332.07682 
L 518.694659 335.334545 
L 530.192841 317.144979 
L 541.691023 286.026226 
L 553.189205 254.291916 
L 564.687386 231.680009 
L 576.185568 221.72646 
L 587.68375 222.183236 
L 599.181932 227.857449 
L 610.680114 233.498026 
L 622.178295 235.42065 
L 633.676477 231.857835 
L 645.174659 222.60466 
L 656.672841 208.472863 
L 668.171023 190.805465 
L 679.669205 171.115899 
L 691.167386 150.841806 
L 702.665568 131.191871 
L 714.16375 113.068028 
L 725.661932 97.047653 
L 737.160114 83.409851 
L 748.658295 72.189336 
L 760.156477 63.242576 
L 771.654659 56.313826 
L 783.152841 51.0926 
L 794.651023 47.258154 
L 806.149205 44.509898 
L 817.647386 42.585028 
L 829.145568 41.265934 
L 840.64375 40.380386 
L 852.141932 39.797273 
L 863.640114 39.42017 
L 875.138295 39.18032 
L 886.636477 39.030058 
L 898.134659 38.937179 
L 909.632841 38.880432 
L 921.131023 38.846088 
L 932.629205 38.825455 
" style="fill:none;stroke:#de5d5c;stroke-linecap:square;stroke-width:1.5;"/>
   </g>
   <g id="line2d_15">
    <path clip-path="url(#pa8a7d277f1)" d="M 104.760114 38.826994 
L 116.258295 38.850152 
L 127.756477 38.889026 
L 139.254659 38.953415 
L 150.752841 39.058512 
L 162.251023 39.227362 
L 173.749205 39.494096 
L 185.247386 39.907994 
L 196.745568 40.538271 
L 208.24375 41.47926 
L 219.741932 42.855331 
L 231.240114 44.824464 
L 242.738295 47.578924 
L 254.236477 51.341072 
L 265.734659 56.352112 
L 277.232841 62.851752 
L 288.731023 71.047476 
L 300.229205 81.073621 
L 311.727386 92.942685 
L 323.225568 106.494157 
L 334.72375 121.349226 
L 346.221932 136.882414 
L 357.720114 152.223062 
L 369.218295 166.300873 
L 380.716477 177.951971 
L 392.214659 186.107825 
L 403.712841 190.098057 
L 415.211023 190.092488 
L 426.709205 187.640489 
L 438.207386 186.07741 
L 449.705568 190.288453 
L 461.20375 205.220836 
L 472.701932 233.078033 
L 484.200114 270.43241 
L 495.698295 307.633319 
L 507.196477 332.240539 
L 518.694659 335.334545 
L 530.192841 316.65291 
L 541.691023 284.736676 
L 553.189205 251.988374 
L 564.687386 228.33099 
L 576.185568 217.551193 
L 587.68375 217.636256 
L 599.181932 223.53427 
L 610.680114 230.006267 
L 622.178295 233.264857 
L 633.676477 231.364656 
L 645.174659 223.892828 
L 656.672841 211.460884 
L 668.171023 195.246737 
L 679.669205 176.650655 
L 691.167386 157.055487 
L 702.665568 137.670383 
L 714.16375 119.442454 
L 725.661932 103.02407 
L 737.160114 88.783223 
L 748.658295 76.843318 
L 760.156477 67.138837 
L 771.654659 59.475195 
L 783.152841 53.584065 
L 794.651023 49.168855 
L 806.149205 45.938132 
L 817.647386 43.627156 
L 829.145568 42.009237 
L 840.64375 40.899334 
L 852.141932 40.152403 
L 863.640114 39.658711 
L 875.138295 39.337825 
L 886.636477 39.132451 
L 898.134659 39.002831 
L 909.632841 38.922028 
L 921.131023 38.872186 
L 932.629205 38.841706 
" style="fill:none;stroke:#c14168;stroke-linecap:square;stroke-width:1.5;"/>
   </g>
   <g id="line2d_16">
    <path clip-path="url(#pa8a7d277f1)" d="M 104.760114 38.844528 
L 116.258295 38.878561 
L 127.756477 38.934444 
L 139.254659 39.024963 
L 150.752841 39.169439 
L 162.251023 39.396425 
L 173.749205 39.747125 
L 185.247386 40.279493 
L 196.745568 41.072795 
L 208.24375 42.232189 
L 219.741932 43.892516 
L 231.240114 46.220144 
L 242.738295 49.411296 
L 254.236477 53.685039 
L 265.734659 59.26908 
L 277.232841 66.376877 
L 288.731023 75.175519 
L 300.229205 85.745387 
L 311.727386 98.034773 
L 323.225568 111.815133 
L 334.72375 126.645188 
L 346.221932 141.853956 
L 357.720114 156.553974 
L 369.218295 169.696661 
L 380.716477 180.183978 
L 392.214659 187.056792 
L 403.712841 189.789437 
L 415.211023 188.714182 
L 426.709205 185.531958 
L 438.207386 183.679681 
L 449.705568 188.053545 
L 461.20375 203.500183 
L 472.701932 232.033275 
L 484.200114 270.013898 
L 495.698295 307.634868 
L 507.196477 332.385862 
L 518.694659 335.334545 
L 530.192841 316.217641 
L 541.691023 283.584916 
L 553.189205 249.902556 
L 564.687386 225.249784 
L 576.185568 213.640659 
L 587.68375 213.287036 
L 599.181932 219.28248 
L 610.680114 226.4178 
L 622.178295 230.828354 
L 633.676477 230.418911 
L 645.174659 224.593552 
L 656.672841 213.781045 
L 668.171023 199.001956 
L 679.669205 181.541108 
L 691.167386 162.71581 
L 702.665568 143.719424 
L 714.16375 125.52597 
L 725.661932 108.845765 
L 737.160114 94.122259 
L 748.658295 81.558956 
L 760.156477 71.164726 
L 771.654659 62.806759 
L 783.152841 56.262516 
L 794.651023 51.264859 
L 806.149205 47.537275 
L 817.647386 44.818421 
L 829.145568 42.87689 
L 840.64375 41.51801 
L 852.141932 40.584831 
L 863.640114 39.955369 
L 875.138295 39.537843 
L 886.636477 39.265181 
L 898.134659 39.089651 
L 909.632841 38.9781 
L 921.131023 38.908007 
L 932.629205 38.864388 
L 944.127386 38.837452 
" style="fill:none;stroke:#9a3670;stroke-linecap:square;stroke-width:1.5;"/>
   </g>
   <g id="line2d_17">
    <path clip-path="url(#pa8a7d277f1)" d="M 93.261932 38.839258 
L 104.760114 38.868947 
L 116.258295 38.917306 
L 127.756477 38.995081 
L 139.254659 39.118459 
L 150.752841 39.311312 
L 162.251023 39.608072 
L 173.749205 40.057227 
L 185.247386 40.725311 
L 196.745568 41.701075 
L 208.24375 43.099272 
L 219.741932 45.063175 
L 231.240114 47.764611 
L 242.738295 51.400028 
L 254.236477 56.180954 
L 265.734659 62.317367 
L 277.232841 69.993045 
L 288.731023 79.332988 
L 300.229205 90.364608 
L 311.727386 102.976363 
L 323.225568 116.87968 
L 334.72375 131.581948 
L 346.221932 146.379677 
L 357.720114 160.381419 
L 369.218295 172.570519 
L 380.716477 181.920005 
L 392.214659 187.578672 
L 403.712841 189.156769 
L 415.211023 187.13369 
L 426.709205 183.342315 
L 438.207386 181.300954 
L 449.705568 185.900876 
L 461.20375 201.881359 
L 472.701932 231.07166 
L 484.200114 269.638082 
L 495.698295 307.639298 
L 507.196477 332.515651 
L 518.694659 335.334545 
L 530.192841 315.832448 
L 541.691023 282.556041 
L 553.189205 248.013785 
L 564.687386 222.416102 
L 576.185568 209.983275 
L 587.68375 209.140792 
L 599.181932 215.129672 
L 610.680114 222.784082 
L 622.178295 228.183343 
L 633.676477 229.106367 
L 645.174659 224.796382 
L 656.672841 215.516223 
L 668.171023 202.138189 
L 679.669205 185.832249 
L 691.167386 167.843137 
L 702.665568 149.335876 
L 714.16375 131.296125 
L 725.661932 114.476956 
L 737.160114 99.384411 
L 748.658295 86.29296 
L 760.156477 75.280925 
L 771.654659 66.276202 
L 783.152841 59.104004 
L 794.651023 53.530556 
L 806.149205 49.299052 
L 817.647386 46.156342 
L 829.145568 43.870512 
L 840.64375 42.240559 
L 852.141932 41.099933 
L 863.640114 40.315798 
L 875.138295 39.785687 
L 886.636477 39.432878 
L 898.134659 39.201453 
L 909.632841 39.051651 
L 921.131023 38.955832 
L 932.629205 38.895177 
L 944.127386 38.857115 
L 955.625568 38.833396 
" style="fill:none;stroke:#722c6e;stroke-linecap:square;stroke-width:1.5;"/>
   </g>
   <g id="patch_3">
    <path d="M 50.14375 350.16 
L 50.14375 24 
" style="fill:none;stroke:#000000;stroke-linecap:square;stroke-linejoin:miter;stroke-width:0.8;"/>
   </g>
   <g id="patch_4">
    <path d="M 998.74375 350.16 
L 998.74375 24 
" style="fill:none;stroke:#000000;stroke-linecap:square;stroke-linejoin:miter;stroke-width:0.8;"/>
   </g>
   <g id="patch_5">
    <path d="M 50.14375 350.16 
L 998.74375 350.16 
" style="fill:none;stroke:#000000;stroke-linecap:square;stroke-linejoin:miter;stroke-width:0.8;"/>
   </g>
   <g id="patch_6">
    <path d="M 50.14375 24 
L 998.74375 24 
" style="fill:none;stroke:#000000;stroke-linecap:square;stroke-linejoin:miter;stroke-width:0.8;"/>
   </g>
   <g id="text_15">
    <!-- Profile variations: B = 0.05  $\Delta B =$ 0% ,  $\Delta C =$ 0% , $\zeta  = $-0.6, $\sigma = $0.1953$cm^{-1}$ -->
    <g transform="translate(298.36375 18)scale(0.12 -0.12)">
     <defs>
      <path d="M 1259 4147 
L 1259 2394 
L 2053 2394 
Q 2494 2394 2734 2622 
Q 2975 2850 2975 3272 
Q 2975 3691 2734 3919 
Q 2494 4147 2053 4147 
L 1259 4147 
z
M 628 4666 
L 2053 4666 
Q 2838 4666 3239 4311 
Q 3641 3956 3641 3272 
Q 3641 2581 3239 2228 
Q 2838 1875 2053 1875 
L 1259 1875 
L 1259 0 
L 628 0 
L 628 4666 
z
" id="DejaVuSans-50" transform="scale(0.015625)"/>
      <path d="M 2375 4863 
L 2375 4384 
L 1825 4384 
Q 1516 4384 1395 4259 
Q 1275 4134 1275 3809 
L 1275 3500 
L 2222 3500 
L 2222 3053 
L 1275 3053 
L 1275 0 
L 697 0 
L 697 3053 
L 147 3053 
L 147 3500 
L 697 3500 
L 697 3744 
Q 697 4328 969 4595 
Q 1241 4863 1831 4863 
L 2375 4863 
z
" id="DejaVuSans-66" transform="scale(0.015625)"/>
      <path d="M 750 794 
L 1409 794 
L 1409 0 
L 750 0 
L 750 794 
z
M 750 3309 
L 1409 3309 
L 1409 2516 
L 750 2516 
L 750 3309 
z
" id="DejaVuSans-3a" transform="scale(0.015625)"/>
      <path d="M 1259 2228 
L 1259 519 
L 2272 519 
Q 2781 519 3026 730 
Q 3272 941 3272 1375 
Q 3272 1813 3026 2020 
Q 2781 2228 2272 2228 
L 1259 2228 
z
M 1259 4147 
L 1259 2741 
L 2194 2741 
Q 2656 2741 2882 2914 
Q 3109 3088 3109 3444 
Q 3109 3797 2882 3972 
Q 2656 4147 2194 4147 
L 1259 4147 
z
M 628 4666 
L 2241 4666 
Q 2963 4666 3353 4366 
Q 3744 4066 3744 3513 
Q 3744 3084 3544 2831 
Q 3344 2578 2956 2516 
Q 3422 2416 3680 2098 
Q 3938 1781 3938 1306 
Q 3938 681 3513 340 
Q 3088 0 2303 0 
L 628 0 
L 628 4666 
z
" id="DejaVuSans-42" transform="scale(0.015625)"/>
      <path d="M 678 2906 
L 4684 2906 
L 4684 2381 
L 678 2381 
L 678 2906 
z
M 678 1631 
L 4684 1631 
L 4684 1100 
L 678 1100 
L 678 1631 
z
" id="DejaVuSans-3d" transform="scale(0.015625)"/>
      <path d="M 691 4666 
L 3169 4666 
L 3169 4134 
L 1269 4134 
L 1269 2991 
Q 1406 3038 1543 3061 
Q 1681 3084 1819 3084 
Q 2600 3084 3056 2656 
Q 3513 2228 3513 1497 
Q 3513 744 3044 326 
Q 2575 -91 1722 -91 
Q 1428 -91 1123 -41 
Q 819 9 494 109 
L 494 744 
Q 775 591 1075 516 
Q 1375 441 1709 441 
Q 2250 441 2565 725 
Q 2881 1009 2881 1497 
Q 2881 1984 2565 2268 
Q 2250 2553 1709 2553 
Q 1456 2553 1204 2497 
Q 953 2441 691 2322 
L 691 4666 
z
" id="DejaVuSans-35" transform="scale(0.015625)"/>
      <path d="M 2188 4044 
L 906 525 
L 3472 525 
L 2188 4044 
z
M 50 0 
L 1831 4666 
L 2547 4666 
L 4325 0 
L 50 0 
z
" id="DejaVuSans-394" transform="scale(0.015625)"/>
      <path d="M 1081 4666 
L 2694 4666 
Q 3350 4666 3675 4422 
Q 4000 4178 4000 3688 
Q 4000 3238 3720 2911 
Q 3441 2584 2988 2516 
Q 3375 2428 3569 2181 
Q 3763 1934 3763 1522 
Q 3763 819 3242 409 
Q 2722 0 1819 0 
L 172 0 
L 1081 4666 
z
M 1234 2228 
L 903 519 
L 1919 519 
Q 2491 519 2800 781 
Q 3109 1044 3109 1522 
Q 3109 1891 2904 2059 
Q 2700 2228 2247 2228 
L 1234 2228 
z
M 1606 4147 
L 1331 2741 
L 2272 2741 
Q 2775 2741 3058 2959 
Q 3341 3178 3341 3566 
Q 3341 3869 3150 4008 
Q 2959 4147 2541 4147 
L 1606 4147 
z
" id="DejaVuSans-Oblique-42" transform="scale(0.015625)"/>
      <path d="M 4653 2053 
Q 4381 2053 4226 1822 
Q 4072 1591 4072 1178 
Q 4072 772 4226 539 
Q 4381 306 4653 306 
Q 4919 306 5073 539 
Q 5228 772 5228 1178 
Q 5228 1588 5073 1820 
Q 4919 2053 4653 2053 
z
M 4653 2450 
Q 5147 2450 5437 2106 
Q 5728 1763 5728 1178 
Q 5728 594 5436 251 
Q 5144 -91 4653 -91 
Q 4153 -91 3862 251 
Q 3572 594 3572 1178 
Q 3572 1766 3864 2108 
Q 4156 2450 4653 2450 
z
M 1428 4353 
Q 1159 4353 1004 4120 
Q 850 3888 850 3481 
Q 850 3069 1003 2837 
Q 1156 2606 1428 2606 
Q 1700 2606 1854 2837 
Q 2009 3069 2009 3481 
Q 2009 3884 1853 4118 
Q 1697 4353 1428 4353 
z
M 4250 4750 
L 4750 4750 
L 1831 -91 
L 1331 -91 
L 4250 4750 
z
M 1428 4750 
Q 1922 4750 2215 4408 
Q 2509 4066 2509 3481 
Q 2509 2891 2217 2550 
Q 1925 2209 1428 2209 
Q 931 2209 642 2551 
Q 353 2894 353 3481 
Q 353 4063 643 4406 
Q 934 4750 1428 4750 
z
" id="DejaVuSans-25" transform="scale(0.015625)"/>
      <path d="M 750 794 
L 1409 794 
L 1409 256 
L 897 -744 
L 494 -744 
L 750 256 
L 750 794 
z
" id="DejaVuSans-2c" transform="scale(0.015625)"/>
      <path d="M 4447 4306 
L 4319 3641 
Q 4019 3944 3683 4091 
Q 3347 4238 2956 4238 
Q 2422 4238 2017 3981 
Q 1613 3725 1319 3200 
Q 1131 2863 1032 2486 
Q 934 2109 934 1728 
Q 934 1091 1264 756 
Q 1594 422 2222 422 
Q 2656 422 3056 561 
Q 3456 700 3834 978 
L 3688 231 
Q 3316 72 2936 -9 
Q 2556 -91 2175 -91 
Q 1278 -91 773 396 
Q 269 884 269 1753 
Q 269 2309 461 2846 
Q 653 3384 1013 3828 
Q 1394 4300 1883 4525 
Q 2372 4750 3022 4750 
Q 3422 4750 3780 4639 
Q 4138 4528 4447 4306 
z
" id="DejaVuSans-Oblique-43" transform="scale(0.015625)"/>
      <path d="M 1966 397 
Q 2378 394 2578 159 
Q 2794 -88 2722 -463 
Q 2650 -822 2372 -1072 
Q 2069 -1344 1559 -1344 
Q 1606 -1109 1650 -872 
Q 1863 -888 2022 -750 
Q 2144 -641 2166 -525 
Q 2197 -359 2125 -222 
Q 2050 -91 1872 -91 
Q -22 -91 316 1669 
Q 616 3206 2609 4284 
L 947 4284 
L 1059 4863 
L 3778 4863 
L 3666 4284 
Q 1181 3147 894 1669 
Q 647 397 1966 397 
z
" id="DejaVuSans-Oblique-3b6" transform="scale(0.015625)"/>
      <path d="M 313 2009 
L 1997 2009 
L 1997 1497 
L 313 1497 
L 313 2009 
z
" id="DejaVuSans-2d" transform="scale(0.015625)"/>
      <path d="M 2219 3044 
Q 1744 3044 1422 2700 
Q 1081 2341 969 1747 
Q 844 1119 1044 756 
Q 1241 397 1706 397 
Q 2166 397 2503 759 
Q 2844 1122 2966 1747 
Q 3075 2319 2881 2700 
Q 2700 3044 2219 3044 
z
M 2309 3503 
L 4219 3500 
L 4106 2925 
L 3463 2925 
Q 3706 2438 3575 1747 
Q 3406 888 2884 400 
Q 2359 -91 1609 -91 
Q 856 -91 525 400 
Q 194 888 363 1747 
Q 528 2609 1050 3097 
Q 1484 3503 2309 3503 
z
" id="DejaVuSans-Oblique-3c3" transform="scale(0.015625)"/>
     </defs>
     <use transform="translate(0 0.684375)" xlink:href="#DejaVuSans-50"/>
     <use transform="translate(60.302734 0.684375)" xlink:href="#DejaVuSans-72"/>
     <use transform="translate(101.416016 0.684375)" xlink:href="#DejaVuSans-6f"/>
     <use transform="translate(162.597656 0.684375)" xlink:href="#DejaVuSans-66"/>
     <use transform="translate(197.802734 0.684375)" xlink:href="#DejaVuSans-69"/>
     <use transform="translate(225.585938 0.684375)" xlink:href="#DejaVuSans-6c"/>
     <use transform="translate(253.369141 0.684375)" xlink:href="#DejaVuSans-65"/>
     <use transform="translate(314.892578 0.684375)" xlink:href="#DejaVuSans-20"/>
     <use transform="translate(346.679688 0.684375)" xlink:href="#DejaVuSans-76"/>
     <use transform="translate(405.859375 0.684375)" xlink:href="#DejaVuSans-61"/>
     <use transform="translate(467.138672 0.684375)" xlink:href="#DejaVuSans-72"/>
     <use transform="translate(508.251953 0.684375)" xlink:href="#DejaVuSans-69"/>
     <use transform="translate(536.035156 0.684375)" xlink:href="#DejaVuSans-61"/>
     <use transform="translate(597.314453 0.684375)" xlink:href="#DejaVuSans-74"/>
     <use transform="translate(636.523438 0.684375)" xlink:href="#DejaVuSans-69"/>
     <use transform="translate(664.306641 0.684375)" xlink:href="#DejaVuSans-6f"/>
     <use transform="translate(725.488281 0.684375)" xlink:href="#DejaVuSans-6e"/>
     <use transform="translate(788.867188 0.684375)" xlink:href="#DejaVuSans-73"/>
     <use transform="translate(840.966797 0.684375)" xlink:href="#DejaVuSans-3a"/>
     <use transform="translate(874.658203 0.684375)" xlink:href="#DejaVuSans-20"/>
     <use transform="translate(906.445312 0.684375)" xlink:href="#DejaVuSans-42"/>
     <use transform="translate(975.048828 0.684375)" xlink:href="#DejaVuSans-20"/>
     <use transform="translate(1006.835938 0.684375)" xlink:href="#DejaVuSans-3d"/>
     <use transform="translate(1090.625 0.684375)" xlink:href="#DejaVuSans-20"/>
     <use transform="translate(1122.412109 0.684375)" xlink:href="#DejaVuSans-30"/>
     <use transform="translate(1186.035156 0.684375)" xlink:href="#DejaVuSans-2e"/>
     <use transform="translate(1217.822266 0.684375)" xlink:href="#DejaVuSans-30"/>
     <use transform="translate(1281.445312 0.684375)" xlink:href="#DejaVuSans-35"/>
     <use transform="translate(1345.068359 0.684375)" xlink:href="#DejaVuSans-20"/>
     <use transform="translate(1376.855469 0.684375)" xlink:href="#DejaVuSans-20"/>
     <use transform="translate(1408.642578 0.684375)" xlink:href="#DejaVuSans-394"/>
     <use transform="translate(1477.050781 0.684375)" xlink:href="#DejaVuSans-Oblique-42"/>
     <use transform="translate(1565.136719 0.684375)" xlink:href="#DejaVuSans-3d"/>
     <use transform="translate(1668.408203 0.684375)" xlink:href="#DejaVuSans-20"/>
     <use transform="translate(1700.195312 0.684375)" xlink:href="#DejaVuSans-30"/>
     <use transform="translate(1763.818359 0.684375)" xlink:href="#DejaVuSans-25"/>
     <use transform="translate(1858.837891 0.684375)" xlink:href="#DejaVuSans-20"/>
     <use transform="translate(1890.625 0.684375)" xlink:href="#DejaVuSans-2c"/>
     <use transform="translate(1922.412109 0.684375)" xlink:href="#DejaVuSans-20"/>
     <use transform="translate(1954.199219 0.684375)" xlink:href="#DejaVuSans-20"/>
     <use transform="translate(1985.986328 0.684375)" xlink:href="#DejaVuSans-394"/>
     <use transform="translate(2054.394531 0.684375)" xlink:href="#DejaVuSans-Oblique-43"/>
     <use transform="translate(2143.701172 0.684375)" xlink:href="#DejaVuSans-3d"/>
     <use transform="translate(2246.972656 0.684375)" xlink:href="#DejaVuSans-20"/>
     <use transform="translate(2278.759766 0.684375)" xlink:href="#DejaVuSans-30"/>
     <use transform="translate(2342.382812 0.684375)" xlink:href="#DejaVuSans-25"/>
     <use transform="translate(2437.402344 0.684375)" xlink:href="#DejaVuSans-20"/>
     <use transform="translate(2469.189453 0.684375)" xlink:href="#DejaVuSans-2c"/>
     <use transform="translate(2500.976562 0.684375)" xlink:href="#DejaVuSans-20"/>
     <use transform="translate(2532.763672 0.684375)" xlink:href="#DejaVuSans-Oblique-3b6"/>
     <use transform="translate(2606.640625 0.684375)" xlink:href="#DejaVuSans-3d"/>
     <use transform="translate(2709.912109 0.684375)" xlink:href="#DejaVuSans-2d"/>
     <use transform="translate(2745.996094 0.684375)" xlink:href="#DejaVuSans-30"/>
     <use transform="translate(2809.619141 0.684375)" xlink:href="#DejaVuSans-2e"/>
     <use transform="translate(2841.40625 0.684375)" xlink:href="#DejaVuSans-36"/>
     <use transform="translate(2905.029297 0.684375)" xlink:href="#DejaVuSans-2c"/>
     <use transform="translate(2936.816406 0.684375)" xlink:href="#DejaVuSans-20"/>
     <use transform="translate(2968.603516 0.684375)" xlink:href="#DejaVuSans-Oblique-3c3"/>
     <use transform="translate(3051.464844 0.684375)" xlink:href="#DejaVuSans-3d"/>
     <use transform="translate(3154.736328 0.684375)" xlink:href="#DejaVuSans-30"/>
     <use transform="translate(3218.359375 0.684375)" xlink:href="#DejaVuSans-2e"/>
     <use transform="translate(3250.146484 0.684375)" xlink:href="#DejaVuSans-31"/>
     <use transform="translate(3313.769531 0.684375)" xlink:href="#DejaVuSans-39"/>
     <use transform="translate(3377.392578 0.684375)" xlink:href="#DejaVuSans-35"/>
     <use transform="translate(3441.015625 0.684375)" xlink:href="#DejaVuSans-33"/>
     <use transform="translate(3504.638672 0.684375)" xlink:href="#DejaVuSans-Oblique-63"/>
     <use transform="translate(3559.619141 0.684375)" xlink:href="#DejaVuSans-Oblique-6d"/>
     <use transform="translate(3661.681146 38.965625)scale(0.7)" xlink:href="#DejaVuSans-2212"/>
     <use transform="translate(3720.33349 38.965625)scale(0.7)" xlink:href="#DejaVuSans-31"/>
    </g>
   </g>
   <g id="legend_1">
    <g id="patch_7">
     <path d="M 57.14375 345.16 
L 200.484375 345.16 
Q 202.484375 345.16 202.484375 343.16 
L 202.484375 256.09125 
Q 202.484375 254.09125 200.484375 254.09125 
L 57.14375 254.09125 
Q 55.14375 254.09125 55.14375 256.09125 
L 55.14375 343.16 
Q 55.14375 345.16 57.14375 345.16 
z
" style="fill:#ffffff;opacity:0.8;stroke:#cccccc;stroke-linejoin:miter;"/>
    </g>
    <g id="text_16">
     <!-- Temperature -->
     <g transform="translate(97.144531 265.689687)scale(0.1 -0.1)">
      <defs>
       <path d="M -19 4666 
L 3928 4666 
L 3928 4134 
L 2272 4134 
L 2272 0 
L 1638 0 
L 1638 4134 
L -19 4134 
L -19 4666 
z
" id="DejaVuSans-54" transform="scale(0.015625)"/>
       <path d="M 1159 525 
L 1159 -1331 
L 581 -1331 
L 581 3500 
L 1159 3500 
L 1159 2969 
Q 1341 3281 1617 3432 
Q 1894 3584 2278 3584 
Q 2916 3584 3314 3078 
Q 3713 2572 3713 1747 
Q 3713 922 3314 415 
Q 2916 -91 2278 -91 
Q 1894 -91 1617 61 
Q 1341 213 1159 525 
z
M 3116 1747 
Q 3116 2381 2855 2742 
Q 2594 3103 2138 3103 
Q 1681 3103 1420 2742 
Q 1159 2381 1159 1747 
Q 1159 1113 1420 752 
Q 1681 391 2138 391 
Q 2594 391 2855 752 
Q 3116 1113 3116 1747 
z
" id="DejaVuSans-70" transform="scale(0.015625)"/>
      </defs>
      <use xlink:href="#DejaVuSans-54"/>
      <use x="44.083984" xlink:href="#DejaVuSans-65"/>
      <use x="105.607422" xlink:href="#DejaVuSans-6d"/>
      <use x="203.019531" xlink:href="#DejaVuSans-70"/>
      <use x="266.496094" xlink:href="#DejaVuSans-65"/>
      <use x="328.019531" xlink:href="#DejaVuSans-72"/>
      <use x="369.132812" xlink:href="#DejaVuSans-61"/>
      <use x="430.412109" xlink:href="#DejaVuSans-74"/>
      <use x="469.621094" xlink:href="#DejaVuSans-75"/>
      <use x="533" xlink:href="#DejaVuSans-72"/>
      <use x="571.863281" xlink:href="#DejaVuSans-65"/>
     </g>
    </g>
    <g id="line2d_18">
     <path d="M 59.14375 276.867812 
L 79.14375 276.867812 
" style="fill:none;stroke:#e98768;stroke-linecap:square;stroke-width:1.5;"/>
    </g>
    <g id="line2d_19"/>
    <g id="text_17">
     <!-- 3.0 -->
     <g transform="translate(87.14375 280.367812)scale(0.1 -0.1)">
      <use xlink:href="#DejaVuSans-33"/>
      <use x="63.623047" xlink:href="#DejaVuSans-2e"/>
      <use x="95.410156" xlink:href="#DejaVuSans-30"/>
     </g>
    </g>
    <g id="line2d_20">
     <path d="M 59.14375 291.545937 
L 79.14375 291.545937 
" style="fill:none;stroke:#de5d5c;stroke-linecap:square;stroke-width:1.5;"/>
    </g>
    <g id="line2d_21"/>
    <g id="text_18">
     <!-- 3.175 -->
     <g transform="translate(87.14375 295.045937)scale(0.1 -0.1)">
      <defs>
       <path d="M 525 4666 
L 3525 4666 
L 3525 4397 
L 1831 0 
L 1172 0 
L 2766 4134 
L 525 4134 
L 525 4666 
z
" id="DejaVuSans-37" transform="scale(0.015625)"/>
      </defs>
      <use xlink:href="#DejaVuSans-33"/>
      <use x="63.623047" xlink:href="#DejaVuSans-2e"/>
      <use x="95.410156" xlink:href="#DejaVuSans-31"/>
      <use x="159.033203" xlink:href="#DejaVuSans-37"/>
      <use x="222.65625" xlink:href="#DejaVuSans-35"/>
     </g>
    </g>
    <g id="line2d_22">
     <path d="M 59.14375 306.224062 
L 79.14375 306.224062 
" style="fill:none;stroke:#c14168;stroke-linecap:square;stroke-width:1.5;"/>
    </g>
    <g id="line2d_23"/>
    <g id="text_19">
     <!-- 3.35 -->
     <g transform="translate(87.14375 309.724062)scale(0.1 -0.1)">
      <use xlink:href="#DejaVuSans-33"/>
      <use x="63.623047" xlink:href="#DejaVuSans-2e"/>
      <use x="95.410156" xlink:href="#DejaVuSans-33"/>
      <use x="159.033203" xlink:href="#DejaVuSans-35"/>
     </g>
    </g>
    <g id="line2d_24">
     <path d="M 59.14375 320.902187 
L 79.14375 320.902187 
" style="fill:none;stroke:#9a3670;stroke-linecap:square;stroke-width:1.5;"/>
    </g>
    <g id="line2d_25"/>
    <g id="text_20">
     <!-- 3.5250000000000004 -->
     <g transform="translate(87.14375 324.402187)scale(0.1 -0.1)">
      <use xlink:href="#DejaVuSans-33"/>
      <use x="63.623047" xlink:href="#DejaVuSans-2e"/>
      <use x="95.410156" xlink:href="#DejaVuSans-35"/>
      <use x="159.033203" xlink:href="#DejaVuSans-32"/>
      <use x="222.65625" xlink:href="#DejaVuSans-35"/>
      <use x="286.279297" xlink:href="#DejaVuSans-30"/>
      <use x="349.902344" xlink:href="#DejaVuSans-30"/>
      <use x="413.525391" xlink:href="#DejaVuSans-30"/>
      <use x="477.148438" xlink:href="#DejaVuSans-30"/>
      <use x="540.771484" xlink:href="#DejaVuSans-30"/>
      <use x="604.394531" xlink:href="#DejaVuSans-30"/>
      <use x="668.017578" xlink:href="#DejaVuSans-30"/>
      <use x="731.640625" xlink:href="#DejaVuSans-30"/>
      <use x="795.263672" xlink:href="#DejaVuSans-30"/>
      <use x="858.886719" xlink:href="#DejaVuSans-30"/>
      <use x="922.509766" xlink:href="#DejaVuSans-30"/>
      <use x="986.132812" xlink:href="#DejaVuSans-30"/>
      <use x="1049.755859" xlink:href="#DejaVuSans-34"/>
     </g>
    </g>
    <g id="line2d_26">
     <path d="M 59.14375 335.580312 
L 79.14375 335.580312 
" style="fill:none;stroke:#722c6e;stroke-linecap:square;stroke-width:1.5;"/>
    </g>
    <g id="line2d_27"/>
    <g id="text_21">
     <!-- 3.7 -->
     <g transform="translate(87.14375 339.080312)scale(0.1 -0.1)">
      <use xlink:href="#DejaVuSans-33"/>
      <use x="63.623047" xlink:href="#DejaVuSans-2e"/>
      <use x="95.410156" xlink:href="#DejaVuSans-37"/>
     </g>
    </g>
   </g>
  </g>
 </g>
 <defs>
  <clipPath id="pa8a7d277f1">
   <rect height="326.16" width="948.6" x="50.14375" y="24"/>
  </clipPath>
 </defs>
</svg>
