<?xml version="1.0" encoding="utf-8" standalone="no"?>
<!DOCTYPE svg PUBLIC "-//W3C//DTD SVG 1.1//EN"
  "http://www.w3.org/Graphics/SVG/1.1/DTD/svg11.dtd">
<svg height="497.158125pt" version="1.1" viewBox="0 0 894.34375 497.158125" width="894.34375pt" xmlns="http://www.w3.org/2000/svg" xmlns:xlink="http://www.w3.org/1999/xlink">
 <metadata>
  <rdf:RDF xmlns:cc="http://creativecommons.org/ns#" xmlns:dc="http://purl.org/dc/elements/1.1/" xmlns:rdf="http://www.w3.org/1999/02/22-rdf-syntax-ns#">
   <cc:Work>
    <dc:type rdf:resource="http://purl.org/dc/dcmitype/StillImage"/>
    <dc:date>2022-11-24T15:25:57.213874</dc:date>
    <dc:format>image/svg+xml</dc:format>
    <dc:creator>
     <cc:Agent>
      <dc:title>Matplotlib v3.4.3, https://matplotlib.org/</dc:title>
     </cc:Agent>
    </dc:creator>
   </cc:Work>
  </rdf:RDF>
 </metadata>
 <defs>
  <style type="text/css">*{stroke-linecap:butt;stroke-linejoin:round;}</style>
 </defs>
 <g id="figure_1">
  <g id="patch_1">
   <path d="M 0 497.158125 
L 894.34375 497.158125 
L 894.34375 0 
L 0 0 
z
" style="fill:#ffffff;"/>
  </g>
  <g id="axes_1">
   <g id="patch_2">
    <path d="M 50.14375 458.88 
L 887.14375 458.88 
L 887.14375 24 
L 50.14375 24 
z
" style="fill:#ffffff;"/>
   </g>
   <g id="matplotlib.axis_1">
    <g id="xtick_1">
     <g id="line2d_1">
      <defs>
       <path d="M 0 0 
L 0 3.5 
" id="m3b6b6d7a14" style="stroke:#000000;stroke-width:0.8;"/>
      </defs>
      <g>
       <use style="stroke:#000000;stroke-width:0.8;" x="96.423677" xlink:href="#m3b6b6d7a14" y="458.88"/>
      </g>
     </g>
     <g id="text_1">
      <!-- −3 -->
      <g transform="translate(89.052584 473.478437)scale(0.1 -0.1)">
       <defs>
        <path d="M 678 2272 
L 4684 2272 
L 4684 1741 
L 678 1741 
L 678 2272 
z
" id="DejaVuSans-2212" transform="scale(0.015625)"/>
        <path d="M 2597 2516 
Q 3050 2419 3304 2112 
Q 3559 1806 3559 1356 
Q 3559 666 3084 287 
Q 2609 -91 1734 -91 
Q 1441 -91 1130 -33 
Q 819 25 488 141 
L 488 750 
Q 750 597 1062 519 
Q 1375 441 1716 441 
Q 2309 441 2620 675 
Q 2931 909 2931 1356 
Q 2931 1769 2642 2001 
Q 2353 2234 1838 2234 
L 1294 2234 
L 1294 2753 
L 1863 2753 
Q 2328 2753 2575 2939 
Q 2822 3125 2822 3475 
Q 2822 3834 2567 4026 
Q 2313 4219 1838 4219 
Q 1578 4219 1281 4162 
Q 984 4106 628 3988 
L 628 4550 
Q 988 4650 1302 4700 
Q 1616 4750 1894 4750 
Q 2613 4750 3031 4423 
Q 3450 4097 3450 3541 
Q 3450 3153 3228 2886 
Q 3006 2619 2597 2516 
z
" id="DejaVuSans-33" transform="scale(0.015625)"/>
       </defs>
       <use xlink:href="#DejaVuSans-2212"/>
       <use x="83.789062" xlink:href="#DejaVuSans-33"/>
      </g>
     </g>
    </g>
    <g id="xtick_2">
     <g id="line2d_2">
      <g>
       <use style="stroke:#000000;stroke-width:0.8;" x="216.832323" xlink:href="#m3b6b6d7a14" y="458.88"/>
      </g>
     </g>
     <g id="text_2">
      <!-- −2 -->
      <g transform="translate(209.461229 473.478437)scale(0.1 -0.1)">
       <defs>
        <path d="M 1228 531 
L 3431 531 
L 3431 0 
L 469 0 
L 469 531 
Q 828 903 1448 1529 
Q 2069 2156 2228 2338 
Q 2531 2678 2651 2914 
Q 2772 3150 2772 3378 
Q 2772 3750 2511 3984 
Q 2250 4219 1831 4219 
Q 1534 4219 1204 4116 
Q 875 4013 500 3803 
L 500 4441 
Q 881 4594 1212 4672 
Q 1544 4750 1819 4750 
Q 2544 4750 2975 4387 
Q 3406 4025 3406 3419 
Q 3406 3131 3298 2873 
Q 3191 2616 2906 2266 
Q 2828 2175 2409 1742 
Q 1991 1309 1228 531 
z
" id="DejaVuSans-32" transform="scale(0.015625)"/>
       </defs>
       <use xlink:href="#DejaVuSans-2212"/>
       <use x="83.789062" xlink:href="#DejaVuSans-32"/>
      </g>
     </g>
    </g>
    <g id="xtick_3">
     <g id="line2d_3">
      <g>
       <use style="stroke:#000000;stroke-width:0.8;" x="337.240969" xlink:href="#m3b6b6d7a14" y="458.88"/>
      </g>
     </g>
     <g id="text_3">
      <!-- −1 -->
      <g transform="translate(329.869875 473.478437)scale(0.1 -0.1)">
       <defs>
        <path d="M 794 531 
L 1825 531 
L 1825 4091 
L 703 3866 
L 703 4441 
L 1819 4666 
L 2450 4666 
L 2450 531 
L 3481 531 
L 3481 0 
L 794 0 
L 794 531 
z
" id="DejaVuSans-31" transform="scale(0.015625)"/>
       </defs>
       <use xlink:href="#DejaVuSans-2212"/>
       <use x="83.789062" xlink:href="#DejaVuSans-31"/>
      </g>
     </g>
    </g>
    <g id="xtick_4">
     <g id="line2d_4">
      <g>
       <use style="stroke:#000000;stroke-width:0.8;" x="457.649615" xlink:href="#m3b6b6d7a14" y="458.88"/>
      </g>
     </g>
     <g id="text_4">
      <!-- 0 -->
      <g transform="translate(454.468365 473.478437)scale(0.1 -0.1)">
       <defs>
        <path d="M 2034 4250 
Q 1547 4250 1301 3770 
Q 1056 3291 1056 2328 
Q 1056 1369 1301 889 
Q 1547 409 2034 409 
Q 2525 409 2770 889 
Q 3016 1369 3016 2328 
Q 3016 3291 2770 3770 
Q 2525 4250 2034 4250 
z
M 2034 4750 
Q 2819 4750 3233 4129 
Q 3647 3509 3647 2328 
Q 3647 1150 3233 529 
Q 2819 -91 2034 -91 
Q 1250 -91 836 529 
Q 422 1150 422 2328 
Q 422 3509 836 4129 
Q 1250 4750 2034 4750 
z
" id="DejaVuSans-30" transform="scale(0.015625)"/>
       </defs>
       <use xlink:href="#DejaVuSans-30"/>
      </g>
     </g>
    </g>
    <g id="xtick_5">
     <g id="line2d_5">
      <g>
       <use style="stroke:#000000;stroke-width:0.8;" x="578.05826" xlink:href="#m3b6b6d7a14" y="458.88"/>
      </g>
     </g>
     <g id="text_5">
      <!-- 1 -->
      <g transform="translate(574.87701 473.478437)scale(0.1 -0.1)">
       <use xlink:href="#DejaVuSans-31"/>
      </g>
     </g>
    </g>
    <g id="xtick_6">
     <g id="line2d_6">
      <g>
       <use style="stroke:#000000;stroke-width:0.8;" x="698.466906" xlink:href="#m3b6b6d7a14" y="458.88"/>
      </g>
     </g>
     <g id="text_6">
      <!-- 2 -->
      <g transform="translate(695.285656 473.478437)scale(0.1 -0.1)">
       <use xlink:href="#DejaVuSans-32"/>
      </g>
     </g>
    </g>
    <g id="xtick_7">
     <g id="line2d_7">
      <g>
       <use style="stroke:#000000;stroke-width:0.8;" x="818.875552" xlink:href="#m3b6b6d7a14" y="458.88"/>
      </g>
     </g>
     <g id="text_7">
      <!-- 3 -->
      <g transform="translate(815.694302 473.478437)scale(0.1 -0.1)">
       <use xlink:href="#DejaVuSans-33"/>
      </g>
     </g>
    </g>
    <g id="text_8">
     <!-- wavenumber (in $cm^{-1}$) -->
     <g transform="translate(411.14375 487.878437)scale(0.1 -0.1)">
      <defs>
       <path d="M 269 3500 
L 844 3500 
L 1563 769 
L 2278 3500 
L 2956 3500 
L 3675 769 
L 4391 3500 
L 4966 3500 
L 4050 0 
L 3372 0 
L 2619 2869 
L 1863 0 
L 1184 0 
L 269 3500 
z
" id="DejaVuSans-77" transform="scale(0.015625)"/>
       <path d="M 2194 1759 
Q 1497 1759 1228 1600 
Q 959 1441 959 1056 
Q 959 750 1161 570 
Q 1363 391 1709 391 
Q 2188 391 2477 730 
Q 2766 1069 2766 1631 
L 2766 1759 
L 2194 1759 
z
M 3341 1997 
L 3341 0 
L 2766 0 
L 2766 531 
Q 2569 213 2275 61 
Q 1981 -91 1556 -91 
Q 1019 -91 701 211 
Q 384 513 384 1019 
Q 384 1609 779 1909 
Q 1175 2209 1959 2209 
L 2766 2209 
L 2766 2266 
Q 2766 2663 2505 2880 
Q 2244 3097 1772 3097 
Q 1472 3097 1187 3025 
Q 903 2953 641 2809 
L 641 3341 
Q 956 3463 1253 3523 
Q 1550 3584 1831 3584 
Q 2591 3584 2966 3190 
Q 3341 2797 3341 1997 
z
" id="DejaVuSans-61" transform="scale(0.015625)"/>
       <path d="M 191 3500 
L 800 3500 
L 1894 563 
L 2988 3500 
L 3597 3500 
L 2284 0 
L 1503 0 
L 191 3500 
z
" id="DejaVuSans-76" transform="scale(0.015625)"/>
       <path d="M 3597 1894 
L 3597 1613 
L 953 1613 
Q 991 1019 1311 708 
Q 1631 397 2203 397 
Q 2534 397 2845 478 
Q 3156 559 3463 722 
L 3463 178 
Q 3153 47 2828 -22 
Q 2503 -91 2169 -91 
Q 1331 -91 842 396 
Q 353 884 353 1716 
Q 353 2575 817 3079 
Q 1281 3584 2069 3584 
Q 2775 3584 3186 3129 
Q 3597 2675 3597 1894 
z
M 3022 2063 
Q 3016 2534 2758 2815 
Q 2500 3097 2075 3097 
Q 1594 3097 1305 2825 
Q 1016 2553 972 2059 
L 3022 2063 
z
" id="DejaVuSans-65" transform="scale(0.015625)"/>
       <path d="M 3513 2113 
L 3513 0 
L 2938 0 
L 2938 2094 
Q 2938 2591 2744 2837 
Q 2550 3084 2163 3084 
Q 1697 3084 1428 2787 
Q 1159 2491 1159 1978 
L 1159 0 
L 581 0 
L 581 3500 
L 1159 3500 
L 1159 2956 
Q 1366 3272 1645 3428 
Q 1925 3584 2291 3584 
Q 2894 3584 3203 3211 
Q 3513 2838 3513 2113 
z
" id="DejaVuSans-6e" transform="scale(0.015625)"/>
       <path d="M 544 1381 
L 544 3500 
L 1119 3500 
L 1119 1403 
Q 1119 906 1312 657 
Q 1506 409 1894 409 
Q 2359 409 2629 706 
Q 2900 1003 2900 1516 
L 2900 3500 
L 3475 3500 
L 3475 0 
L 2900 0 
L 2900 538 
Q 2691 219 2414 64 
Q 2138 -91 1772 -91 
Q 1169 -91 856 284 
Q 544 659 544 1381 
z
M 1991 3584 
L 1991 3584 
z
" id="DejaVuSans-75" transform="scale(0.015625)"/>
       <path d="M 3328 2828 
Q 3544 3216 3844 3400 
Q 4144 3584 4550 3584 
Q 5097 3584 5394 3201 
Q 5691 2819 5691 2113 
L 5691 0 
L 5113 0 
L 5113 2094 
Q 5113 2597 4934 2840 
Q 4756 3084 4391 3084 
Q 3944 3084 3684 2787 
Q 3425 2491 3425 1978 
L 3425 0 
L 2847 0 
L 2847 2094 
Q 2847 2600 2669 2842 
Q 2491 3084 2119 3084 
Q 1678 3084 1418 2786 
Q 1159 2488 1159 1978 
L 1159 0 
L 581 0 
L 581 3500 
L 1159 3500 
L 1159 2956 
Q 1356 3278 1631 3431 
Q 1906 3584 2284 3584 
Q 2666 3584 2933 3390 
Q 3200 3197 3328 2828 
z
" id="DejaVuSans-6d" transform="scale(0.015625)"/>
       <path d="M 3116 1747 
Q 3116 2381 2855 2742 
Q 2594 3103 2138 3103 
Q 1681 3103 1420 2742 
Q 1159 2381 1159 1747 
Q 1159 1113 1420 752 
Q 1681 391 2138 391 
Q 2594 391 2855 752 
Q 3116 1113 3116 1747 
z
M 1159 2969 
Q 1341 3281 1617 3432 
Q 1894 3584 2278 3584 
Q 2916 3584 3314 3078 
Q 3713 2572 3713 1747 
Q 3713 922 3314 415 
Q 2916 -91 2278 -91 
Q 1894 -91 1617 61 
Q 1341 213 1159 525 
L 1159 0 
L 581 0 
L 581 4863 
L 1159 4863 
L 1159 2969 
z
" id="DejaVuSans-62" transform="scale(0.015625)"/>
       <path d="M 2631 2963 
Q 2534 3019 2420 3045 
Q 2306 3072 2169 3072 
Q 1681 3072 1420 2755 
Q 1159 2438 1159 1844 
L 1159 0 
L 581 0 
L 581 3500 
L 1159 3500 
L 1159 2956 
Q 1341 3275 1631 3429 
Q 1922 3584 2338 3584 
Q 2397 3584 2469 3576 
Q 2541 3569 2628 3553 
L 2631 2963 
z
" id="DejaVuSans-72" transform="scale(0.015625)"/>
       <path id="DejaVuSans-20" transform="scale(0.015625)"/>
       <path d="M 1984 4856 
Q 1566 4138 1362 3434 
Q 1159 2731 1159 2009 
Q 1159 1288 1364 580 
Q 1569 -128 1984 -844 
L 1484 -844 
Q 1016 -109 783 600 
Q 550 1309 550 2009 
Q 550 2706 781 3412 
Q 1013 4119 1484 4856 
L 1984 4856 
z
" id="DejaVuSans-28" transform="scale(0.015625)"/>
       <path d="M 603 3500 
L 1178 3500 
L 1178 0 
L 603 0 
L 603 3500 
z
M 603 4863 
L 1178 4863 
L 1178 4134 
L 603 4134 
L 603 4863 
z
" id="DejaVuSans-69" transform="scale(0.015625)"/>
       <path d="M 3431 3366 
L 3316 2797 
Q 3109 2947 2876 3022 
Q 2644 3097 2394 3097 
Q 2119 3097 1870 3000 
Q 1622 2903 1453 2725 
Q 1184 2453 1037 2087 
Q 891 1722 891 1331 
Q 891 859 1127 628 
Q 1363 397 1844 397 
Q 2081 397 2348 469 
Q 2616 541 2906 684 
L 2797 116 
Q 2547 13 2283 -39 
Q 2019 -91 1741 -91 
Q 1044 -91 669 257 
Q 294 606 294 1253 
Q 294 1797 489 2255 
Q 684 2713 1069 3078 
Q 1331 3328 1684 3456 
Q 2038 3584 2456 3584 
Q 2700 3584 2940 3529 
Q 3181 3475 3431 3366 
z
" id="DejaVuSans-Oblique-63" transform="scale(0.015625)"/>
       <path d="M 5747 2113 
L 5338 0 
L 4763 0 
L 5166 2094 
Q 5191 2228 5203 2325 
Q 5216 2422 5216 2491 
Q 5216 2772 5059 2928 
Q 4903 3084 4622 3084 
Q 4203 3084 3875 2770 
Q 3547 2456 3450 1953 
L 3066 0 
L 2491 0 
L 2900 2094 
Q 2925 2209 2937 2307 
Q 2950 2406 2950 2484 
Q 2950 2769 2794 2926 
Q 2638 3084 2363 3084 
Q 1938 3084 1609 2770 
Q 1281 2456 1184 1953 
L 800 0 
L 225 0 
L 909 3500 
L 1484 3500 
L 1375 2956 
Q 1609 3263 1923 3423 
Q 2238 3584 2597 3584 
Q 2978 3584 3223 3384 
Q 3469 3184 3519 2828 
Q 3781 3197 4126 3390 
Q 4472 3584 4856 3584 
Q 5306 3584 5551 3325 
Q 5797 3066 5797 2591 
Q 5797 2488 5784 2364 
Q 5772 2241 5747 2113 
z
" id="DejaVuSans-Oblique-6d" transform="scale(0.015625)"/>
       <path d="M 513 4856 
L 1013 4856 
Q 1481 4119 1714 3412 
Q 1947 2706 1947 2009 
Q 1947 1309 1714 600 
Q 1481 -109 1013 -844 
L 513 -844 
Q 928 -128 1133 580 
Q 1338 1288 1338 2009 
Q 1338 2731 1133 3434 
Q 928 4138 513 4856 
z
" id="DejaVuSans-29" transform="scale(0.015625)"/>
      </defs>
      <use transform="translate(0 0.684375)" xlink:href="#DejaVuSans-77"/>
      <use transform="translate(81.787109 0.684375)" xlink:href="#DejaVuSans-61"/>
      <use transform="translate(143.066406 0.684375)" xlink:href="#DejaVuSans-76"/>
      <use transform="translate(202.246094 0.684375)" xlink:href="#DejaVuSans-65"/>
      <use transform="translate(263.769531 0.684375)" xlink:href="#DejaVuSans-6e"/>
      <use transform="translate(327.148438 0.684375)" xlink:href="#DejaVuSans-75"/>
      <use transform="translate(390.527344 0.684375)" xlink:href="#DejaVuSans-6d"/>
      <use transform="translate(487.939453 0.684375)" xlink:href="#DejaVuSans-62"/>
      <use transform="translate(551.416016 0.684375)" xlink:href="#DejaVuSans-65"/>
      <use transform="translate(612.939453 0.684375)" xlink:href="#DejaVuSans-72"/>
      <use transform="translate(654.052734 0.684375)" xlink:href="#DejaVuSans-20"/>
      <use transform="translate(685.839844 0.684375)" xlink:href="#DejaVuSans-28"/>
      <use transform="translate(724.853516 0.684375)" xlink:href="#DejaVuSans-69"/>
      <use transform="translate(752.636719 0.684375)" xlink:href="#DejaVuSans-6e"/>
      <use transform="translate(816.015625 0.684375)" xlink:href="#DejaVuSans-20"/>
      <use transform="translate(847.802734 0.684375)" xlink:href="#DejaVuSans-Oblique-63"/>
      <use transform="translate(902.783203 0.684375)" xlink:href="#DejaVuSans-Oblique-6d"/>
      <use transform="translate(1004.845208 38.965625)scale(0.7)" xlink:href="#DejaVuSans-2212"/>
      <use transform="translate(1063.497552 38.965625)scale(0.7)" xlink:href="#DejaVuSans-31"/>
      <use transform="translate(1110.76806 0.684375)" xlink:href="#DejaVuSans-29"/>
     </g>
    </g>
   </g>
   <g id="matplotlib.axis_2">
    <g id="ytick_1">
     <g id="line2d_8">
      <defs>
       <path d="M 0 0 
L -3.5 0 
" id="m4d0fb141e0" style="stroke:#000000;stroke-width:0.8;"/>
      </defs>
      <g>
       <use style="stroke:#000000;stroke-width:0.8;" x="50.14375" xlink:href="#m4d0fb141e0" y="439.112727"/>
      </g>
     </g>
     <g id="text_9">
      <!-- 0.90 -->
      <g transform="translate(20.878125 442.911946)scale(0.1 -0.1)">
       <defs>
        <path d="M 684 794 
L 1344 794 
L 1344 0 
L 684 0 
L 684 794 
z
" id="DejaVuSans-2e" transform="scale(0.015625)"/>
        <path d="M 703 97 
L 703 672 
Q 941 559 1184 500 
Q 1428 441 1663 441 
Q 2288 441 2617 861 
Q 2947 1281 2994 2138 
Q 2813 1869 2534 1725 
Q 2256 1581 1919 1581 
Q 1219 1581 811 2004 
Q 403 2428 403 3163 
Q 403 3881 828 4315 
Q 1253 4750 1959 4750 
Q 2769 4750 3195 4129 
Q 3622 3509 3622 2328 
Q 3622 1225 3098 567 
Q 2575 -91 1691 -91 
Q 1453 -91 1209 -44 
Q 966 3 703 97 
z
M 1959 2075 
Q 2384 2075 2632 2365 
Q 2881 2656 2881 3163 
Q 2881 3666 2632 3958 
Q 2384 4250 1959 4250 
Q 1534 4250 1286 3958 
Q 1038 3666 1038 3163 
Q 1038 2656 1286 2365 
Q 1534 2075 1959 2075 
z
" id="DejaVuSans-39" transform="scale(0.015625)"/>
       </defs>
       <use xlink:href="#DejaVuSans-30"/>
       <use x="63.623047" xlink:href="#DejaVuSans-2e"/>
       <use x="95.410156" xlink:href="#DejaVuSans-39"/>
       <use x="159.033203" xlink:href="#DejaVuSans-30"/>
      </g>
     </g>
    </g>
    <g id="ytick_2">
     <g id="line2d_9">
      <g>
       <use style="stroke:#000000;stroke-width:0.8;" x="50.14375" xlink:href="#m4d0fb141e0" y="360.035703"/>
      </g>
     </g>
     <g id="text_10">
      <!-- 0.92 -->
      <g transform="translate(20.878125 363.834922)scale(0.1 -0.1)">
       <use xlink:href="#DejaVuSans-30"/>
       <use x="63.623047" xlink:href="#DejaVuSans-2e"/>
       <use x="95.410156" xlink:href="#DejaVuSans-39"/>
       <use x="159.033203" xlink:href="#DejaVuSans-32"/>
      </g>
     </g>
    </g>
    <g id="ytick_3">
     <g id="line2d_10">
      <g>
       <use style="stroke:#000000;stroke-width:0.8;" x="50.14375" xlink:href="#m4d0fb141e0" y="280.958679"/>
      </g>
     </g>
     <g id="text_11">
      <!-- 0.94 -->
      <g transform="translate(20.878125 284.757898)scale(0.1 -0.1)">
       <defs>
        <path d="M 2419 4116 
L 825 1625 
L 2419 1625 
L 2419 4116 
z
M 2253 4666 
L 3047 4666 
L 3047 1625 
L 3713 1625 
L 3713 1100 
L 3047 1100 
L 3047 0 
L 2419 0 
L 2419 1100 
L 313 1100 
L 313 1709 
L 2253 4666 
z
" id="DejaVuSans-34" transform="scale(0.015625)"/>
       </defs>
       <use xlink:href="#DejaVuSans-30"/>
       <use x="63.623047" xlink:href="#DejaVuSans-2e"/>
       <use x="95.410156" xlink:href="#DejaVuSans-39"/>
       <use x="159.033203" xlink:href="#DejaVuSans-34"/>
      </g>
     </g>
    </g>
    <g id="ytick_4">
     <g id="line2d_11">
      <g>
       <use style="stroke:#000000;stroke-width:0.8;" x="50.14375" xlink:href="#m4d0fb141e0" y="201.881655"/>
      </g>
     </g>
     <g id="text_12">
      <!-- 0.96 -->
      <g transform="translate(20.878125 205.680874)scale(0.1 -0.1)">
       <defs>
        <path d="M 2113 2584 
Q 1688 2584 1439 2293 
Q 1191 2003 1191 1497 
Q 1191 994 1439 701 
Q 1688 409 2113 409 
Q 2538 409 2786 701 
Q 3034 994 3034 1497 
Q 3034 2003 2786 2293 
Q 2538 2584 2113 2584 
z
M 3366 4563 
L 3366 3988 
Q 3128 4100 2886 4159 
Q 2644 4219 2406 4219 
Q 1781 4219 1451 3797 
Q 1122 3375 1075 2522 
Q 1259 2794 1537 2939 
Q 1816 3084 2150 3084 
Q 2853 3084 3261 2657 
Q 3669 2231 3669 1497 
Q 3669 778 3244 343 
Q 2819 -91 2113 -91 
Q 1303 -91 875 529 
Q 447 1150 447 2328 
Q 447 3434 972 4092 
Q 1497 4750 2381 4750 
Q 2619 4750 2861 4703 
Q 3103 4656 3366 4563 
z
" id="DejaVuSans-36" transform="scale(0.015625)"/>
       </defs>
       <use xlink:href="#DejaVuSans-30"/>
       <use x="63.623047" xlink:href="#DejaVuSans-2e"/>
       <use x="95.410156" xlink:href="#DejaVuSans-39"/>
       <use x="159.033203" xlink:href="#DejaVuSans-36"/>
      </g>
     </g>
    </g>
    <g id="ytick_5">
     <g id="line2d_12">
      <g>
       <use style="stroke:#000000;stroke-width:0.8;" x="50.14375" xlink:href="#m4d0fb141e0" y="122.804631"/>
      </g>
     </g>
     <g id="text_13">
      <!-- 0.98 -->
      <g transform="translate(20.878125 126.60385)scale(0.1 -0.1)">
       <defs>
        <path d="M 2034 2216 
Q 1584 2216 1326 1975 
Q 1069 1734 1069 1313 
Q 1069 891 1326 650 
Q 1584 409 2034 409 
Q 2484 409 2743 651 
Q 3003 894 3003 1313 
Q 3003 1734 2745 1975 
Q 2488 2216 2034 2216 
z
M 1403 2484 
Q 997 2584 770 2862 
Q 544 3141 544 3541 
Q 544 4100 942 4425 
Q 1341 4750 2034 4750 
Q 2731 4750 3128 4425 
Q 3525 4100 3525 3541 
Q 3525 3141 3298 2862 
Q 3072 2584 2669 2484 
Q 3125 2378 3379 2068 
Q 3634 1759 3634 1313 
Q 3634 634 3220 271 
Q 2806 -91 2034 -91 
Q 1263 -91 848 271 
Q 434 634 434 1313 
Q 434 1759 690 2068 
Q 947 2378 1403 2484 
z
M 1172 3481 
Q 1172 3119 1398 2916 
Q 1625 2713 2034 2713 
Q 2441 2713 2670 2916 
Q 2900 3119 2900 3481 
Q 2900 3844 2670 4047 
Q 2441 4250 2034 4250 
Q 1625 4250 1398 4047 
Q 1172 3844 1172 3481 
z
" id="DejaVuSans-38" transform="scale(0.015625)"/>
       </defs>
       <use xlink:href="#DejaVuSans-30"/>
       <use x="63.623047" xlink:href="#DejaVuSans-2e"/>
       <use x="95.410156" xlink:href="#DejaVuSans-39"/>
       <use x="159.033203" xlink:href="#DejaVuSans-38"/>
      </g>
     </g>
    </g>
    <g id="ytick_6">
     <g id="line2d_13">
      <g>
       <use style="stroke:#000000;stroke-width:0.8;" x="50.14375" xlink:href="#m4d0fb141e0" y="43.727607"/>
      </g>
     </g>
     <g id="text_14">
      <!-- 1.00 -->
      <g transform="translate(20.878125 47.526826)scale(0.1 -0.1)">
       <use xlink:href="#DejaVuSans-31"/>
       <use x="63.623047" xlink:href="#DejaVuSans-2e"/>
       <use x="95.410156" xlink:href="#DejaVuSans-30"/>
       <use x="159.033203" xlink:href="#DejaVuSans-30"/>
      </g>
     </g>
    </g>
    <g id="text_15">
     <!-- Normalized Intensity -->
     <g transform="translate(14.798438 293.147031)rotate(-90)scale(0.1 -0.1)">
      <defs>
       <path d="M 628 4666 
L 1478 4666 
L 3547 763 
L 3547 4666 
L 4159 4666 
L 4159 0 
L 3309 0 
L 1241 3903 
L 1241 0 
L 628 0 
L 628 4666 
z
" id="DejaVuSans-4e" transform="scale(0.015625)"/>
       <path d="M 1959 3097 
Q 1497 3097 1228 2736 
Q 959 2375 959 1747 
Q 959 1119 1226 758 
Q 1494 397 1959 397 
Q 2419 397 2687 759 
Q 2956 1122 2956 1747 
Q 2956 2369 2687 2733 
Q 2419 3097 1959 3097 
z
M 1959 3584 
Q 2709 3584 3137 3096 
Q 3566 2609 3566 1747 
Q 3566 888 3137 398 
Q 2709 -91 1959 -91 
Q 1206 -91 779 398 
Q 353 888 353 1747 
Q 353 2609 779 3096 
Q 1206 3584 1959 3584 
z
" id="DejaVuSans-6f" transform="scale(0.015625)"/>
       <path d="M 603 4863 
L 1178 4863 
L 1178 0 
L 603 0 
L 603 4863 
z
" id="DejaVuSans-6c" transform="scale(0.015625)"/>
       <path d="M 353 3500 
L 3084 3500 
L 3084 2975 
L 922 459 
L 3084 459 
L 3084 0 
L 275 0 
L 275 525 
L 2438 3041 
L 353 3041 
L 353 3500 
z
" id="DejaVuSans-7a" transform="scale(0.015625)"/>
       <path d="M 2906 2969 
L 2906 4863 
L 3481 4863 
L 3481 0 
L 2906 0 
L 2906 525 
Q 2725 213 2448 61 
Q 2172 -91 1784 -91 
Q 1150 -91 751 415 
Q 353 922 353 1747 
Q 353 2572 751 3078 
Q 1150 3584 1784 3584 
Q 2172 3584 2448 3432 
Q 2725 3281 2906 2969 
z
M 947 1747 
Q 947 1113 1208 752 
Q 1469 391 1925 391 
Q 2381 391 2643 752 
Q 2906 1113 2906 1747 
Q 2906 2381 2643 2742 
Q 2381 3103 1925 3103 
Q 1469 3103 1208 2742 
Q 947 2381 947 1747 
z
" id="DejaVuSans-64" transform="scale(0.015625)"/>
       <path d="M 628 4666 
L 1259 4666 
L 1259 0 
L 628 0 
L 628 4666 
z
" id="DejaVuSans-49" transform="scale(0.015625)"/>
       <path d="M 1172 4494 
L 1172 3500 
L 2356 3500 
L 2356 3053 
L 1172 3053 
L 1172 1153 
Q 1172 725 1289 603 
Q 1406 481 1766 481 
L 2356 481 
L 2356 0 
L 1766 0 
Q 1100 0 847 248 
Q 594 497 594 1153 
L 594 3053 
L 172 3053 
L 172 3500 
L 594 3500 
L 594 4494 
L 1172 4494 
z
" id="DejaVuSans-74" transform="scale(0.015625)"/>
       <path d="M 2834 3397 
L 2834 2853 
Q 2591 2978 2328 3040 
Q 2066 3103 1784 3103 
Q 1356 3103 1142 2972 
Q 928 2841 928 2578 
Q 928 2378 1081 2264 
Q 1234 2150 1697 2047 
L 1894 2003 
Q 2506 1872 2764 1633 
Q 3022 1394 3022 966 
Q 3022 478 2636 193 
Q 2250 -91 1575 -91 
Q 1294 -91 989 -36 
Q 684 19 347 128 
L 347 722 
Q 666 556 975 473 
Q 1284 391 1588 391 
Q 1994 391 2212 530 
Q 2431 669 2431 922 
Q 2431 1156 2273 1281 
Q 2116 1406 1581 1522 
L 1381 1569 
Q 847 1681 609 1914 
Q 372 2147 372 2553 
Q 372 3047 722 3315 
Q 1072 3584 1716 3584 
Q 2034 3584 2315 3537 
Q 2597 3491 2834 3397 
z
" id="DejaVuSans-73" transform="scale(0.015625)"/>
       <path d="M 2059 -325 
Q 1816 -950 1584 -1140 
Q 1353 -1331 966 -1331 
L 506 -1331 
L 506 -850 
L 844 -850 
Q 1081 -850 1212 -737 
Q 1344 -625 1503 -206 
L 1606 56 
L 191 3500 
L 800 3500 
L 1894 763 
L 2988 3500 
L 3597 3500 
L 2059 -325 
z
" id="DejaVuSans-79" transform="scale(0.015625)"/>
      </defs>
      <use xlink:href="#DejaVuSans-4e"/>
      <use x="74.804688" xlink:href="#DejaVuSans-6f"/>
      <use x="135.986328" xlink:href="#DejaVuSans-72"/>
      <use x="175.349609" xlink:href="#DejaVuSans-6d"/>
      <use x="272.761719" xlink:href="#DejaVuSans-61"/>
      <use x="334.041016" xlink:href="#DejaVuSans-6c"/>
      <use x="361.824219" xlink:href="#DejaVuSans-69"/>
      <use x="389.607422" xlink:href="#DejaVuSans-7a"/>
      <use x="442.097656" xlink:href="#DejaVuSans-65"/>
      <use x="503.621094" xlink:href="#DejaVuSans-64"/>
      <use x="567.097656" xlink:href="#DejaVuSans-20"/>
      <use x="598.884766" xlink:href="#DejaVuSans-49"/>
      <use x="628.376953" xlink:href="#DejaVuSans-6e"/>
      <use x="691.755859" xlink:href="#DejaVuSans-74"/>
      <use x="730.964844" xlink:href="#DejaVuSans-65"/>
      <use x="792.488281" xlink:href="#DejaVuSans-6e"/>
      <use x="855.867188" xlink:href="#DejaVuSans-73"/>
      <use x="907.966797" xlink:href="#DejaVuSans-69"/>
      <use x="935.75" xlink:href="#DejaVuSans-74"/>
      <use x="974.958984" xlink:href="#DejaVuSans-79"/>
     </g>
    </g>
   </g>
   <g id="line2d_14">
    <path clip-path="url(#p3623cf0899)" d="M 141.586334 43.774158 
L 148.260975 43.793158 
L 154.935616 43.820312 
L 161.610257 43.859191 
L 168.284898 43.914882 
L 174.959539 43.99457 
L 181.634181 44.108308 
L 188.308822 44.270008 
L 194.983463 44.498684 
L 201.658104 44.81997 
L 208.332745 45.267925 
L 215.007386 45.887078 
L 221.682028 46.734642 
L 228.356669 47.88276 
L 235.03131 49.420549 
L 241.705951 51.455635 
L 248.380592 54.114769 
L 255.055233 57.543026 
L 261.729874 61.901038 
L 268.404516 67.359681 
L 275.079157 74.09173 
L 281.753798 82.260106 
L 288.428439 92.002669 
L 295.10308 103.41385 
L 301.777721 116.52395 
L 308.452362 131.27755 
L 315.127004 147.513064 
L 321.801645 164.946161 
L 328.476286 183.160286 
L 335.150927 201.607978 
L 341.825568 219.626958 
L 348.500209 236.475081 
L 355.17485 251.388104 
L 361.849492 263.663612 
L 368.524133 272.77259 
L 375.198774 278.495721 
L 381.873415 281.072478 
L 388.548056 281.335418 
L 395.222697 280.780447 
L 401.897339 281.502926 
L 408.57198 285.925567 
L 415.246621 296.279904 
L 421.921262 313.894266 
L 428.595903 338.473183 
L 435.270544 367.666143 
L 441.945185 397.227311 
L 448.619827 421.898682 
L 455.294468 436.838682 
L 461.969109 439.112727 
L 468.64375 428.65144 
L 475.318391 408.26757 
L 481.993032 382.727545 
L 488.667673 357.277992 
L 495.342315 336.213957 
L 502.016956 321.970225 
L 508.691597 314.921137 
L 515.366238 313.771523 
L 522.040879 316.252721 
L 528.71552 319.833977 
L 535.390161 322.262125 
L 542.064803 321.866945 
L 548.739444 317.658966 
L 555.414085 309.285261 
L 562.088726 296.909627 
L 568.763367 281.066652 
L 575.438008 262.519757 
L 582.11265 242.138334 
L 588.787291 220.799774 
L 595.461932 199.317201 
L 602.136573 178.391175 
L 608.811214 158.58249 
L 615.485855 140.302524 
L 622.160496 123.817355 
L 628.835138 109.261802 
L 635.509779 96.659757 
L 642.18442 85.947599 
L 648.859061 76.998016 
L 655.533702 69.642257 
L 662.208343 63.689465 
L 668.882984 58.942391 
L 675.557626 55.209264 
L 682.232267 52.312018 
L 688.906908 50.091306 
L 695.581549 48.408887 
L 702.25619 47.148014 
L 708.930831 46.212413 
L 715.605472 45.524375 
L 722.280114 45.022381 
L 728.954755 44.658591 
L 735.629396 44.396402 
L 742.304037 44.208219 
L 748.978678 44.073519 
L 755.653319 43.977219 
L 762.327961 43.908357 
L 769.002602 43.859034 
L 775.677243 43.823603 
L 782.351884 43.798049 
L 789.026525 43.779531 
" style="fill:none;stroke:#e98768;stroke-linecap:square;stroke-width:1.5;"/>
   </g>
   <g id="line2d_15">
    <path clip-path="url(#p3623cf0899)" d="M 128.237051 43.775873 
L 134.911693 43.794433 
L 141.586334 43.820514 
L 148.260975 43.857232 
L 154.935616 43.908968 
L 161.610257 43.981823 
L 168.284898 44.084226 
L 174.959539 44.227709 
L 181.634181 44.427876 
L 188.308822 44.705582 
L 194.983463 45.08834 
L 201.658104 45.611927 
L 208.332745 46.322152 
L 215.007386 47.276698 
L 221.682028 48.546891 
L 228.356669 50.219199 
L 235.03131 52.39618 
L 241.705951 55.196555 
L 248.380592 58.753985 
L 255.055233 63.214146 
L 261.729874 68.729673 
L 268.404516 75.452616 
L 275.079157 83.524189 
L 281.753798 93.061811 
L 288.428439 104.143733 
L 295.10308 116.791932 
L 301.777721 130.954384 
L 308.452362 146.48828 
L 315.127004 163.146206 
L 321.801645 180.567679 
L 328.476286 198.278722 
L 335.150927 215.702353 
L 341.825568 232.182931 
L 348.500209 247.027302 
L 355.17485 259.565462 
L 361.849492 269.232869 
L 368.524133 275.674747 
L 375.198774 278.868615 
L 381.873415 279.252841 
L 388.548056 277.83464 
L 395.222697 276.23138 
L 401.897339 276.580799 
L 408.57198 281.254058 
L 415.246621 292.341319 
L 421.921262 310.966583 
L 428.595903 336.612396 
L 435.270544 366.738536 
L 441.945185 396.977431 
L 448.619827 422.024094 
L 455.294468 437.041446 
L 461.969109 439.112727 
L 468.64375 428.170558 
L 475.318391 407.012139 
L 481.993032 380.39789 
L 488.667673 353.617338 
L 495.342315 331.084942 
L 502.016956 315.430024 
L 508.691597 307.264554 
L 515.366238 305.524189 
L 522.040879 308.115165 
L 528.71552 312.592456 
L 535.390161 316.688516 
L 542.064803 318.628038 
L 548.739444 317.248668 
L 555.414085 311.985493 
L 562.088726 302.77951 
L 568.763367 289.955754 
L 575.438008 274.099384 
L 582.11265 255.944413 
L 588.787291 236.281222 
L 595.461932 215.884432 
L 602.136573 195.46043 
L 608.811214 175.61283 
L 615.485855 156.823581 
L 622.160496 139.447114 
L 628.835138 123.71476 
L 635.509779 109.746624 
L 642.18442 97.568254 
L 648.859061 87.129706 
L 655.533702 78.325019 
L 662.208343 71.010564 
L 668.882984 65.021218 
L 675.557626 60.18376 
L 682.232267 56.327276 
L 688.906908 53.290641 
L 695.581549 50.927381 
L 702.25619 49.10832 
L 708.930831 47.722478 
L 715.605472 46.676687 
L 722.280114 45.894338 
L 728.954755 45.313609 
L 735.629396 44.885466 
L 742.304037 44.571623 
L 748.978678 44.342617 
L 755.653319 44.176076 
L 762.327961 44.05521 
L 769.002602 43.967558 
L 775.677243 43.903958 
L 782.351884 43.857726 
L 789.026525 43.824024 
L 795.701166 43.79936 
L 802.375807 43.78123 
L 809.050449 43.767837 
" style="fill:none;stroke:#de5d5c;stroke-linecap:square;stroke-width:1.5;"/>
   </g>
   <g id="line2d_16">
    <path clip-path="url(#p3623cf0899)" d="M 114.887769 43.776146 
L 121.56241 43.793812 
L 128.237051 43.818264 
L 134.911693 43.852183 
L 141.586334 43.899284 
L 148.260975 43.964686 
L 154.935616 44.055383 
L 161.610257 44.180853 
L 168.284898 44.353814 
L 174.959539 44.591143 
L 181.634181 44.914976 
L 188.308822 45.353975 
L 194.983463 45.944743 
L 201.658104 46.733332 
L 208.332745 47.776751 
L 215.007386 49.144358 
L 221.682028 50.918931 
L 228.356669 53.197206 
L 235.03131 56.0896 
L 241.705951 59.718783 
L 248.380592 64.216797 
L 255.055233 69.720383 
L 261.729874 76.364275 
L 268.404516 84.272312 
L 275.079157 93.546399 
L 281.753798 104.253583 
L 288.428439 116.411788 
L 295.10308 129.975076 
L 301.777721 144.819645 
L 308.452362 160.732086 
L 315.127004 177.401703 
L 321.801645 194.418887 
L 328.476286 211.281688 
L 335.150927 227.412729 
L 341.825568 242.188653 
L 348.500209 254.98418 
L 355.17485 265.232724 
L 361.849492 272.504856 
L 368.524133 276.604297 
L 375.198774 277.677143 
L 381.873415 276.322154 
L 388.548056 273.676626 
L 395.222697 271.434556 
L 401.897339 271.737766 
L 408.57198 276.880616 
L 415.246621 288.804277 
L 421.921262 308.439648 
L 428.595903 335.074456 
L 435.270544 366.015564 
L 441.945185 396.812285 
L 448.619827 422.146152 
L 455.294468 437.208486 
L 461.969109 439.112727 
L 468.64375 427.793891 
L 475.318391 406.021914 
L 481.993032 378.527459 
L 488.667673 350.608499 
L 495.342315 326.757557 
L 502.016956 309.756818 
L 508.691597 300.421945 
L 515.366238 297.900545 
L 522.040879 300.274324 
L 528.71552 305.204393 
L 535.390161 310.445683 
L 542.064803 314.165159 
L 548.739444 315.078496 
L 555.414085 312.456631 
L 562.088726 306.05715 
L 568.763367 296.022827 
L 575.438008 282.773953 
L 582.11265 266.908608 
L 588.787291 249.117115 
L 595.461932 230.11265 
L 602.136573 210.577888 
L 608.811214 191.12669 
L 615.485855 172.279332 
L 622.160496 154.449533 
L 628.835138 137.941321 
L 635.509779 122.953664 
L 642.18442 109.590751 
L 648.859061 97.87593 
L 655.533702 87.767498 
L 662.208343 79.174805 
L 668.882984 71.973524 
L 675.557626 66.01923 
L 682.232267 61.158812 
L 688.906908 57.239517 
L 695.581549 54.115631 
L 702.25619 51.653018 
L 708.930831 49.731797 
L 715.605472 48.247518 
L 722.280114 47.11119 
L 728.954755 46.248498 
L 735.629396 45.598503 
L 742.304037 45.112056 
L 748.978678 44.75012 
L 755.653319 44.482122 
L 762.327961 44.284427 
L 769.002602 44.138975 
L 775.677243 44.032118 
L 782.351884 43.953636 
L 789.026525 43.895945 
L 795.701166 43.853453 
L 802.375807 43.822066 
L 809.050449 43.798795 
L 815.72509 43.781467 
L 822.399731 43.768504 
" style="fill:none;stroke:#c14168;stroke-linecap:square;stroke-width:1.5;"/>
   </g>
   <g id="line2d_17">
    <path clip-path="url(#p3623cf0899)" d="M 101.538487 43.775288 
L 108.213128 43.791771 
L 114.887769 43.814282 
L 121.56241 43.845096 
L 128.237051 43.887332 
L 134.911693 43.945244 
L 141.586334 44.024595 
L 148.260975 44.133126 
L 154.935616 44.281153 
L 161.610257 44.482282 
L 168.284898 44.754273 
L 174.959539 45.120042 
L 181.634181 45.608794 
L 188.308822 46.25725 
L 194.983463 47.11093 
L 201.658104 48.225381 
L 208.332745 49.667264 
L 215.007386 51.515109 
L 221.682028 53.859572 
L 228.356669 56.802942 
L 235.03131 60.457655 
L 241.705951 64.94356 
L 248.380592 70.383687 
L 255.055233 76.898333 
L 261.729874 84.597382 
L 268.404516 93.570884 
L 275.079157 103.878132 
L 281.753798 115.535656 
L 288.428439 128.504837 
L 295.10308 142.680059 
L 301.777721 157.878578 
L 308.452362 173.833485 
L 315.127004 190.19128 
L 321.801645 206.515672 
L 328.476286 222.299238 
L 335.150927 236.984558 
L 341.825568 249.996414 
L 348.500209 260.786605 
L 355.17485 268.89274 
L 361.849492 274.011818 
L 368.524133 276.087784 
L 375.198774 275.408492 
L 381.873415 272.700048 
L 388.548056 269.194157 
L 395.222697 266.627801 
L 401.897339 267.120376 
L 408.57198 272.874611 
L 415.246621 285.682307 
L 421.921262 306.295255 
L 428.595903 333.831507 
L 435.270544 365.47573 
L 441.945185 396.724238 
L 448.619827 422.269721 
L 455.294468 437.34857 
L 461.969109 439.112727 
L 468.64375 427.499914 
L 475.318391 405.245106 
L 481.993032 377.032954 
L 488.667673 348.145028 
L 495.342315 323.120381 
L 502.016956 304.860254 
L 508.691597 294.354121 
L 515.366238 290.941718 
L 522.040879 292.87475 
L 528.71552 297.930613 
L 535.390161 303.910757 
L 542.064803 308.958409 
L 548.739444 311.706201 
L 555.414085 311.299757 
L 562.088726 307.34767 
L 568.763367 299.83721 
L 575.438008 289.04091 
L 582.11265 275.427623 
L 588.787291 259.584284 
L 595.461932 242.15056 
L 602.136573 223.766617 
L 608.811214 205.033436 
L 615.485855 186.484679 
L 622.160496 168.568946 
L 628.835138 151.641059 
L 635.509779 135.960858 
L 642.18442 121.697946 
L 648.859061 108.940745 
L 655.533702 97.708349 
L 662.208343 87.96377 
L 668.882984 79.627421 
L 675.557626 72.58992 
L 682.232267 66.723551 
L 688.906908 61.892002 
L 695.581549 57.958184 
L 702.25619 54.790144 
L 708.930831 52.265202 
L 715.605472 50.272528 
L 722.280114 48.714438 
L 728.954755 47.506677 
L 735.629396 46.577972 
L 742.304037 45.869078 
L 748.978678 45.331535 
L 755.653319 44.926285 
L 762.327961 44.622276 
L 769.002602 44.395128 
L 775.677243 44.22592 
L 782.351884 44.100121 
L 789.026525 44.006681 
L 795.701166 43.937266 
L 802.375807 43.885637 
L 809.050449 43.847157 
L 815.72509 43.818391 
L 822.399731 43.796808 
L 829.074372 43.780549 
L 835.749013 43.768247 
" style="fill:none;stroke:#9a3670;stroke-linecap:square;stroke-width:1.5;"/>
   </g>
   <g id="line2d_18">
    <path clip-path="url(#p3623cf0899)" d="M 88.189205 43.773594 
L 94.863846 43.788743 
L 101.538487 43.80918 
L 108.213128 43.836819 
L 114.887769 43.874259 
L 121.56241 43.925014 
L 128.237051 43.993803 
L 134.911693 44.086923 
L 141.586334 44.212712 
L 148.260975 44.382109 
L 154.935616 44.609338 
L 161.610257 44.912692 
L 168.284898 45.31545 
L 174.959539 45.84687 
L 181.634181 46.543259 
L 188.308822 47.44905 
L 194.983463 48.617811 
L 201.658104 50.113087 
L 208.332745 52.008928 
L 215.007386 54.389952 
L 221.682028 57.350743 
L 228.356669 60.994384 
L 235.03131 65.429931 
L 241.705951 70.768618 
L 248.380592 77.118679 
L 255.055233 84.57871 
L 261.729874 93.229606 
L 268.404516 103.125274 
L 275.079157 114.282458 
L 281.753798 126.670215 
L 288.428439 140.199777 
L 295.10308 154.715703 
L 301.777721 169.9894 
L 308.452362 185.716175 
L 315.127004 201.517082 
L 321.801645 216.946804 
L 328.476286 231.508825 
L 335.150927 244.679082 
L 341.825568 255.939306 
L 348.500209 264.821198 
L 355.17485 270.962454 
L 361.849492 274.175088 
L 368.524133 274.524929 
L 375.198774 272.417536 
L 381.873415 268.678732 
L 388.548056 264.60645 
L 395.222697 261.955622 
L 401.897339 262.805157 
L 408.57198 269.258272 
L 415.246621 282.961269 
L 421.921262 304.50167 
L 428.595903 332.850429 
L 435.270544 365.095494 
L 441.945185 396.703647 
L 448.619827 422.396792 
L 455.294468 437.467867 
L 461.969109 439.112727 
L 468.64375 427.272023 
L 475.318391 404.64084 
L 481.993032 375.846824 
L 488.667673 346.137261 
L 495.342315 320.07364 
L 502.016956 300.648894 
L 508.691597 289.000428 
L 515.366238 284.640878 
L 522.040879 285.983325 
L 528.71552 290.925139 
L 535.390161 297.329563 
L 542.064803 303.34033 
L 548.739444 307.536613 
L 555.414085 308.969817 
L 562.088726 307.128683 
L 568.763367 301.869442 
L 575.438008 293.33475 
L 582.11265 281.874519 
L 588.787291 267.974771 
L 595.461932 252.196858 
L 602.136573 235.127478 
L 608.811214 217.339156 
L 615.485855 199.360546 
L 622.160496 181.655722 
L 628.835138 164.611537 
L 635.509779 148.531979 
L 642.18442 133.638352 
L 648.859061 120.074027 
L 655.533702 107.912527 
L 662.208343 97.167726 
L 668.882984 87.80511 
L 675.557626 79.753171 
L 682.232267 72.914226 
L 688.906908 67.174145 
L 695.581549 62.410677 
L 702.25619 58.50021 
L 708.930831 55.322959 
L 715.605472 52.76669 
L 722.280114 50.729125 
L 728.954755 49.119261 
L 735.629396 47.8578 
L 742.304037 46.876929 
L 748.978678 46.119626 
L 755.653319 45.538687 
L 762.327961 45.095585 
L 769.002602 44.75929 
L 775.677243 44.505112 
L 782.351884 44.313625 
L 789.026525 44.169704 
L 795.701166 44.061682 
L 802.375807 43.980639 
L 809.050449 43.919802 
L 815.72509 43.874068 
L 822.399731 43.839608 
L 829.074372 43.813566 
L 835.749013 43.793813 
L 842.423654 43.778773 
L 849.098295 43.767273 
" style="fill:none;stroke:#722c6e;stroke-linecap:square;stroke-width:1.5;"/>
   </g>
   <g id="patch_3">
    <path d="M 50.14375 458.88 
L 50.14375 24 
" style="fill:none;stroke:#000000;stroke-linecap:square;stroke-linejoin:miter;stroke-width:0.8;"/>
   </g>
   <g id="patch_4">
    <path d="M 887.14375 458.88 
L 887.14375 24 
" style="fill:none;stroke:#000000;stroke-linecap:square;stroke-linejoin:miter;stroke-width:0.8;"/>
   </g>
   <g id="patch_5">
    <path d="M 50.14375 458.88 
L 887.14375 458.88 
" style="fill:none;stroke:#000000;stroke-linecap:square;stroke-linejoin:miter;stroke-width:0.8;"/>
   </g>
   <g id="patch_6">
    <path d="M 50.14375 24 
L 887.14375 24 
" style="fill:none;stroke:#000000;stroke-linecap:square;stroke-linejoin:miter;stroke-width:0.8;"/>
   </g>
   <g id="text_16">
    <!-- Profile variations B = 0.0349  $\Delta B =$ 0% ,  $\Delta C =$ 0% , $\zeta  = $-0.45, $\sigma = $0.1953$cm^{-1}$ -->
    <g transform="translate(233.14375 18)scale(0.12 -0.12)">
     <defs>
      <path d="M 1259 4147 
L 1259 2394 
L 2053 2394 
Q 2494 2394 2734 2622 
Q 2975 2850 2975 3272 
Q 2975 3691 2734 3919 
Q 2494 4147 2053 4147 
L 1259 4147 
z
M 628 4666 
L 2053 4666 
Q 2838 4666 3239 4311 
Q 3641 3956 3641 3272 
Q 3641 2581 3239 2228 
Q 2838 1875 2053 1875 
L 1259 1875 
L 1259 0 
L 628 0 
L 628 4666 
z
" id="DejaVuSans-50" transform="scale(0.015625)"/>
      <path d="M 2375 4863 
L 2375 4384 
L 1825 4384 
Q 1516 4384 1395 4259 
Q 1275 4134 1275 3809 
L 1275 3500 
L 2222 3500 
L 2222 3053 
L 1275 3053 
L 1275 0 
L 697 0 
L 697 3053 
L 147 3053 
L 147 3500 
L 697 3500 
L 697 3744 
Q 697 4328 969 4595 
Q 1241 4863 1831 4863 
L 2375 4863 
z
" id="DejaVuSans-66" transform="scale(0.015625)"/>
      <path d="M 1259 2228 
L 1259 519 
L 2272 519 
Q 2781 519 3026 730 
Q 3272 941 3272 1375 
Q 3272 1813 3026 2020 
Q 2781 2228 2272 2228 
L 1259 2228 
z
M 1259 4147 
L 1259 2741 
L 2194 2741 
Q 2656 2741 2882 2914 
Q 3109 3088 3109 3444 
Q 3109 3797 2882 3972 
Q 2656 4147 2194 4147 
L 1259 4147 
z
M 628 4666 
L 2241 4666 
Q 2963 4666 3353 4366 
Q 3744 4066 3744 3513 
Q 3744 3084 3544 2831 
Q 3344 2578 2956 2516 
Q 3422 2416 3680 2098 
Q 3938 1781 3938 1306 
Q 3938 681 3513 340 
Q 3088 0 2303 0 
L 628 0 
L 628 4666 
z
" id="DejaVuSans-42" transform="scale(0.015625)"/>
      <path d="M 678 2906 
L 4684 2906 
L 4684 2381 
L 678 2381 
L 678 2906 
z
M 678 1631 
L 4684 1631 
L 4684 1100 
L 678 1100 
L 678 1631 
z
" id="DejaVuSans-3d" transform="scale(0.015625)"/>
      <path d="M 2188 4044 
L 906 525 
L 3472 525 
L 2188 4044 
z
M 50 0 
L 1831 4666 
L 2547 4666 
L 4325 0 
L 50 0 
z
" id="DejaVuSans-394" transform="scale(0.015625)"/>
      <path d="M 1081 4666 
L 2694 4666 
Q 3350 4666 3675 4422 
Q 4000 4178 4000 3688 
Q 4000 3238 3720 2911 
Q 3441 2584 2988 2516 
Q 3375 2428 3569 2181 
Q 3763 1934 3763 1522 
Q 3763 819 3242 409 
Q 2722 0 1819 0 
L 172 0 
L 1081 4666 
z
M 1234 2228 
L 903 519 
L 1919 519 
Q 2491 519 2800 781 
Q 3109 1044 3109 1522 
Q 3109 1891 2904 2059 
Q 2700 2228 2247 2228 
L 1234 2228 
z
M 1606 4147 
L 1331 2741 
L 2272 2741 
Q 2775 2741 3058 2959 
Q 3341 3178 3341 3566 
Q 3341 3869 3150 4008 
Q 2959 4147 2541 4147 
L 1606 4147 
z
" id="DejaVuSans-Oblique-42" transform="scale(0.015625)"/>
      <path d="M 4653 2053 
Q 4381 2053 4226 1822 
Q 4072 1591 4072 1178 
Q 4072 772 4226 539 
Q 4381 306 4653 306 
Q 4919 306 5073 539 
Q 5228 772 5228 1178 
Q 5228 1588 5073 1820 
Q 4919 2053 4653 2053 
z
M 4653 2450 
Q 5147 2450 5437 2106 
Q 5728 1763 5728 1178 
Q 5728 594 5436 251 
Q 5144 -91 4653 -91 
Q 4153 -91 3862 251 
Q 3572 594 3572 1178 
Q 3572 1766 3864 2108 
Q 4156 2450 4653 2450 
z
M 1428 4353 
Q 1159 4353 1004 4120 
Q 850 3888 850 3481 
Q 850 3069 1003 2837 
Q 1156 2606 1428 2606 
Q 1700 2606 1854 2837 
Q 2009 3069 2009 3481 
Q 2009 3884 1853 4118 
Q 1697 4353 1428 4353 
z
M 4250 4750 
L 4750 4750 
L 1831 -91 
L 1331 -91 
L 4250 4750 
z
M 1428 4750 
Q 1922 4750 2215 4408 
Q 2509 4066 2509 3481 
Q 2509 2891 2217 2550 
Q 1925 2209 1428 2209 
Q 931 2209 642 2551 
Q 353 2894 353 3481 
Q 353 4063 643 4406 
Q 934 4750 1428 4750 
z
" id="DejaVuSans-25" transform="scale(0.015625)"/>
      <path d="M 750 794 
L 1409 794 
L 1409 256 
L 897 -744 
L 494 -744 
L 750 256 
L 750 794 
z
" id="DejaVuSans-2c" transform="scale(0.015625)"/>
      <path d="M 4447 4306 
L 4319 3641 
Q 4019 3944 3683 4091 
Q 3347 4238 2956 4238 
Q 2422 4238 2017 3981 
Q 1613 3725 1319 3200 
Q 1131 2863 1032 2486 
Q 934 2109 934 1728 
Q 934 1091 1264 756 
Q 1594 422 2222 422 
Q 2656 422 3056 561 
Q 3456 700 3834 978 
L 3688 231 
Q 3316 72 2936 -9 
Q 2556 -91 2175 -91 
Q 1278 -91 773 396 
Q 269 884 269 1753 
Q 269 2309 461 2846 
Q 653 3384 1013 3828 
Q 1394 4300 1883 4525 
Q 2372 4750 3022 4750 
Q 3422 4750 3780 4639 
Q 4138 4528 4447 4306 
z
" id="DejaVuSans-Oblique-43" transform="scale(0.015625)"/>
      <path d="M 1966 397 
Q 2378 394 2578 159 
Q 2794 -88 2722 -463 
Q 2650 -822 2372 -1072 
Q 2069 -1344 1559 -1344 
Q 1606 -1109 1650 -872 
Q 1863 -888 2022 -750 
Q 2144 -641 2166 -525 
Q 2197 -359 2125 -222 
Q 2050 -91 1872 -91 
Q -22 -91 316 1669 
Q 616 3206 2609 4284 
L 947 4284 
L 1059 4863 
L 3778 4863 
L 3666 4284 
Q 1181 3147 894 1669 
Q 647 397 1966 397 
z
" id="DejaVuSans-Oblique-3b6" transform="scale(0.015625)"/>
      <path d="M 313 2009 
L 1997 2009 
L 1997 1497 
L 313 1497 
L 313 2009 
z
" id="DejaVuSans-2d" transform="scale(0.015625)"/>
      <path d="M 691 4666 
L 3169 4666 
L 3169 4134 
L 1269 4134 
L 1269 2991 
Q 1406 3038 1543 3061 
Q 1681 3084 1819 3084 
Q 2600 3084 3056 2656 
Q 3513 2228 3513 1497 
Q 3513 744 3044 326 
Q 2575 -91 1722 -91 
Q 1428 -91 1123 -41 
Q 819 9 494 109 
L 494 744 
Q 775 591 1075 516 
Q 1375 441 1709 441 
Q 2250 441 2565 725 
Q 2881 1009 2881 1497 
Q 2881 1984 2565 2268 
Q 2250 2553 1709 2553 
Q 1456 2553 1204 2497 
Q 953 2441 691 2322 
L 691 4666 
z
" id="DejaVuSans-35" transform="scale(0.015625)"/>
      <path d="M 2219 3044 
Q 1744 3044 1422 2700 
Q 1081 2341 969 1747 
Q 844 1119 1044 756 
Q 1241 397 1706 397 
Q 2166 397 2503 759 
Q 2844 1122 2966 1747 
Q 3075 2319 2881 2700 
Q 2700 3044 2219 3044 
z
M 2309 3503 
L 4219 3500 
L 4106 2925 
L 3463 2925 
Q 3706 2438 3575 1747 
Q 3406 888 2884 400 
Q 2359 -91 1609 -91 
Q 856 -91 525 400 
Q 194 888 363 1747 
Q 528 2609 1050 3097 
Q 1484 3503 2309 3503 
z
" id="DejaVuSans-Oblique-3c3" transform="scale(0.015625)"/>
     </defs>
     <use transform="translate(0 0.684375)" xlink:href="#DejaVuSans-50"/>
     <use transform="translate(60.302734 0.684375)" xlink:href="#DejaVuSans-72"/>
     <use transform="translate(101.416016 0.684375)" xlink:href="#DejaVuSans-6f"/>
     <use transform="translate(162.597656 0.684375)" xlink:href="#DejaVuSans-66"/>
     <use transform="translate(197.802734 0.684375)" xlink:href="#DejaVuSans-69"/>
     <use transform="translate(225.585938 0.684375)" xlink:href="#DejaVuSans-6c"/>
     <use transform="translate(253.369141 0.684375)" xlink:href="#DejaVuSans-65"/>
     <use transform="translate(314.892578 0.684375)" xlink:href="#DejaVuSans-20"/>
     <use transform="translate(346.679688 0.684375)" xlink:href="#DejaVuSans-76"/>
     <use transform="translate(405.859375 0.684375)" xlink:href="#DejaVuSans-61"/>
     <use transform="translate(467.138672 0.684375)" xlink:href="#DejaVuSans-72"/>
     <use transform="translate(508.251953 0.684375)" xlink:href="#DejaVuSans-69"/>
     <use transform="translate(536.035156 0.684375)" xlink:href="#DejaVuSans-61"/>
     <use transform="translate(597.314453 0.684375)" xlink:href="#DejaVuSans-74"/>
     <use transform="translate(636.523438 0.684375)" xlink:href="#DejaVuSans-69"/>
     <use transform="translate(664.306641 0.684375)" xlink:href="#DejaVuSans-6f"/>
     <use transform="translate(725.488281 0.684375)" xlink:href="#DejaVuSans-6e"/>
     <use transform="translate(788.867188 0.684375)" xlink:href="#DejaVuSans-73"/>
     <use transform="translate(840.966797 0.684375)" xlink:href="#DejaVuSans-20"/>
     <use transform="translate(872.753906 0.684375)" xlink:href="#DejaVuSans-42"/>
     <use transform="translate(941.357422 0.684375)" xlink:href="#DejaVuSans-20"/>
     <use transform="translate(973.144531 0.684375)" xlink:href="#DejaVuSans-3d"/>
     <use transform="translate(1056.933594 0.684375)" xlink:href="#DejaVuSans-20"/>
     <use transform="translate(1088.720703 0.684375)" xlink:href="#DejaVuSans-30"/>
     <use transform="translate(1152.34375 0.684375)" xlink:href="#DejaVuSans-2e"/>
     <use transform="translate(1184.130859 0.684375)" xlink:href="#DejaVuSans-30"/>
     <use transform="translate(1247.753906 0.684375)" xlink:href="#DejaVuSans-33"/>
     <use transform="translate(1311.376953 0.684375)" xlink:href="#DejaVuSans-34"/>
     <use transform="translate(1375 0.684375)" xlink:href="#DejaVuSans-39"/>
     <use transform="translate(1438.623047 0.684375)" xlink:href="#DejaVuSans-20"/>
     <use transform="translate(1470.410156 0.684375)" xlink:href="#DejaVuSans-20"/>
     <use transform="translate(1502.197266 0.684375)" xlink:href="#DejaVuSans-394"/>
     <use transform="translate(1570.605469 0.684375)" xlink:href="#DejaVuSans-Oblique-42"/>
     <use transform="translate(1658.691406 0.684375)" xlink:href="#DejaVuSans-3d"/>
     <use transform="translate(1761.962891 0.684375)" xlink:href="#DejaVuSans-20"/>
     <use transform="translate(1793.75 0.684375)" xlink:href="#DejaVuSans-30"/>
     <use transform="translate(1857.373047 0.684375)" xlink:href="#DejaVuSans-25"/>
     <use transform="translate(1952.392578 0.684375)" xlink:href="#DejaVuSans-20"/>
     <use transform="translate(1984.179688 0.684375)" xlink:href="#DejaVuSans-2c"/>
     <use transform="translate(2015.966797 0.684375)" xlink:href="#DejaVuSans-20"/>
     <use transform="translate(2047.753906 0.684375)" xlink:href="#DejaVuSans-20"/>
     <use transform="translate(2079.541016 0.684375)" xlink:href="#DejaVuSans-394"/>
     <use transform="translate(2147.949219 0.684375)" xlink:href="#DejaVuSans-Oblique-43"/>
     <use transform="translate(2237.255859 0.684375)" xlink:href="#DejaVuSans-3d"/>
     <use transform="translate(2340.527344 0.684375)" xlink:href="#DejaVuSans-20"/>
     <use transform="translate(2372.314453 0.684375)" xlink:href="#DejaVuSans-30"/>
     <use transform="translate(2435.9375 0.684375)" xlink:href="#DejaVuSans-25"/>
     <use transform="translate(2530.957031 0.684375)" xlink:href="#DejaVuSans-20"/>
     <use transform="translate(2562.744141 0.684375)" xlink:href="#DejaVuSans-2c"/>
     <use transform="translate(2594.53125 0.684375)" xlink:href="#DejaVuSans-20"/>
     <use transform="translate(2626.318359 0.684375)" xlink:href="#DejaVuSans-Oblique-3b6"/>
     <use transform="translate(2700.195312 0.684375)" xlink:href="#DejaVuSans-3d"/>
     <use transform="translate(2803.466797 0.684375)" xlink:href="#DejaVuSans-2d"/>
     <use transform="translate(2839.550781 0.684375)" xlink:href="#DejaVuSans-30"/>
     <use transform="translate(2903.173828 0.684375)" xlink:href="#DejaVuSans-2e"/>
     <use transform="translate(2934.960938 0.684375)" xlink:href="#DejaVuSans-34"/>
     <use transform="translate(2998.583984 0.684375)" xlink:href="#DejaVuSans-35"/>
     <use transform="translate(3062.207031 0.684375)" xlink:href="#DejaVuSans-2c"/>
     <use transform="translate(3093.994141 0.684375)" xlink:href="#DejaVuSans-20"/>
     <use transform="translate(3125.78125 0.684375)" xlink:href="#DejaVuSans-Oblique-3c3"/>
     <use transform="translate(3208.642578 0.684375)" xlink:href="#DejaVuSans-3d"/>
     <use transform="translate(3311.914062 0.684375)" xlink:href="#DejaVuSans-30"/>
     <use transform="translate(3375.537109 0.684375)" xlink:href="#DejaVuSans-2e"/>
     <use transform="translate(3407.324219 0.684375)" xlink:href="#DejaVuSans-31"/>
     <use transform="translate(3470.947266 0.684375)" xlink:href="#DejaVuSans-39"/>
     <use transform="translate(3534.570312 0.684375)" xlink:href="#DejaVuSans-35"/>
     <use transform="translate(3598.193359 0.684375)" xlink:href="#DejaVuSans-33"/>
     <use transform="translate(3661.816406 0.684375)" xlink:href="#DejaVuSans-Oblique-63"/>
     <use transform="translate(3716.796875 0.684375)" xlink:href="#DejaVuSans-Oblique-6d"/>
     <use transform="translate(3818.85888 38.965625)scale(0.7)" xlink:href="#DejaVuSans-2212"/>
     <use transform="translate(3877.511224 38.965625)scale(0.7)" xlink:href="#DejaVuSans-31"/>
    </g>
   </g>
   <g id="legend_1">
    <g id="patch_7">
     <path d="M 57.14375 453.88 
L 154.315625 453.88 
Q 156.315625 453.88 156.315625 451.88 
L 156.315625 364.81125 
Q 156.315625 362.81125 154.315625 362.81125 
L 57.14375 362.81125 
Q 55.14375 362.81125 55.14375 364.81125 
L 55.14375 451.88 
Q 55.14375 453.88 57.14375 453.88 
z
" style="fill:#ffffff;opacity:0.8;stroke:#cccccc;stroke-linejoin:miter;"/>
    </g>
    <g id="text_17">
     <!-- Temperature (in K) -->
     <g transform="translate(59.14375 374.409687)scale(0.1 -0.1)">
      <defs>
       <path d="M -19 4666 
L 3928 4666 
L 3928 4134 
L 2272 4134 
L 2272 0 
L 1638 0 
L 1638 4134 
L -19 4134 
L -19 4666 
z
" id="DejaVuSans-54" transform="scale(0.015625)"/>
       <path d="M 1159 525 
L 1159 -1331 
L 581 -1331 
L 581 3500 
L 1159 3500 
L 1159 2969 
Q 1341 3281 1617 3432 
Q 1894 3584 2278 3584 
Q 2916 3584 3314 3078 
Q 3713 2572 3713 1747 
Q 3713 922 3314 415 
Q 2916 -91 2278 -91 
Q 1894 -91 1617 61 
Q 1341 213 1159 525 
z
M 3116 1747 
Q 3116 2381 2855 2742 
Q 2594 3103 2138 3103 
Q 1681 3103 1420 2742 
Q 1159 2381 1159 1747 
Q 1159 1113 1420 752 
Q 1681 391 2138 391 
Q 2594 391 2855 752 
Q 3116 1113 3116 1747 
z
" id="DejaVuSans-70" transform="scale(0.015625)"/>
       <path d="M 628 4666 
L 1259 4666 
L 1259 2694 
L 3353 4666 
L 4166 4666 
L 1850 2491 
L 4331 0 
L 3500 0 
L 1259 2247 
L 1259 0 
L 628 0 
L 628 4666 
z
" id="DejaVuSans-4b" transform="scale(0.015625)"/>
      </defs>
      <use xlink:href="#DejaVuSans-54"/>
      <use x="44.083984" xlink:href="#DejaVuSans-65"/>
      <use x="105.607422" xlink:href="#DejaVuSans-6d"/>
      <use x="203.019531" xlink:href="#DejaVuSans-70"/>
      <use x="266.496094" xlink:href="#DejaVuSans-65"/>
      <use x="328.019531" xlink:href="#DejaVuSans-72"/>
      <use x="369.132812" xlink:href="#DejaVuSans-61"/>
      <use x="430.412109" xlink:href="#DejaVuSans-74"/>
      <use x="469.621094" xlink:href="#DejaVuSans-75"/>
      <use x="533" xlink:href="#DejaVuSans-72"/>
      <use x="571.863281" xlink:href="#DejaVuSans-65"/>
      <use x="633.386719" xlink:href="#DejaVuSans-20"/>
      <use x="665.173828" xlink:href="#DejaVuSans-28"/>
      <use x="704.1875" xlink:href="#DejaVuSans-69"/>
      <use x="731.970703" xlink:href="#DejaVuSans-6e"/>
      <use x="795.349609" xlink:href="#DejaVuSans-20"/>
      <use x="827.136719" xlink:href="#DejaVuSans-4b"/>
      <use x="892.712891" xlink:href="#DejaVuSans-29"/>
     </g>
    </g>
    <g id="line2d_19">
     <path d="M 83.778125 385.587812 
L 103.778125 385.587812 
" style="fill:none;stroke:#e98768;stroke-linecap:square;stroke-width:1.5;"/>
    </g>
    <g id="line2d_20"/>
    <g id="text_18">
     <!-- 5 -->
     <g transform="translate(111.778125 389.087812)scale(0.1 -0.1)">
      <use xlink:href="#DejaVuSans-35"/>
     </g>
    </g>
    <g id="line2d_21">
     <path d="M 83.778125 400.265937 
L 103.778125 400.265937 
" style="fill:none;stroke:#de5d5c;stroke-linecap:square;stroke-width:1.5;"/>
    </g>
    <g id="line2d_22"/>
    <g id="text_19">
     <!-- 5.5 -->
     <g transform="translate(111.778125 403.765937)scale(0.1 -0.1)">
      <use xlink:href="#DejaVuSans-35"/>
      <use x="63.623047" xlink:href="#DejaVuSans-2e"/>
      <use x="95.410156" xlink:href="#DejaVuSans-35"/>
     </g>
    </g>
    <g id="line2d_23">
     <path d="M 83.778125 414.944062 
L 103.778125 414.944062 
" style="fill:none;stroke:#c14168;stroke-linecap:square;stroke-width:1.5;"/>
    </g>
    <g id="line2d_24"/>
    <g id="text_20">
     <!-- 6 -->
     <g transform="translate(111.778125 418.444062)scale(0.1 -0.1)">
      <use xlink:href="#DejaVuSans-36"/>
     </g>
    </g>
    <g id="line2d_25">
     <path d="M 83.778125 429.622187 
L 103.778125 429.622187 
" style="fill:none;stroke:#9a3670;stroke-linecap:square;stroke-width:1.5;"/>
    </g>
    <g id="line2d_26"/>
    <g id="text_21">
     <!-- 6.5 -->
     <g transform="translate(111.778125 433.122187)scale(0.1 -0.1)">
      <use xlink:href="#DejaVuSans-36"/>
      <use x="63.623047" xlink:href="#DejaVuSans-2e"/>
      <use x="95.410156" xlink:href="#DejaVuSans-35"/>
     </g>
    </g>
    <g id="line2d_27">
     <path d="M 83.778125 444.300312 
L 103.778125 444.300312 
" style="fill:none;stroke:#722c6e;stroke-linecap:square;stroke-width:1.5;"/>
    </g>
    <g id="line2d_28"/>
    <g id="text_22">
     <!-- 7 -->
     <g transform="translate(111.778125 447.800312)scale(0.1 -0.1)">
      <defs>
       <path d="M 525 4666 
L 3525 4666 
L 3525 4397 
L 1831 0 
L 1172 0 
L 2766 4134 
L 525 4134 
L 525 4666 
z
" id="DejaVuSans-37" transform="scale(0.015625)"/>
      </defs>
      <use xlink:href="#DejaVuSans-37"/>
     </g>
    </g>
   </g>
  </g>
 </g>
 <defs>
  <clipPath id="p3623cf0899">
   <rect height="434.88" width="837" x="50.14375" y="24"/>
  </clipPath>
 </defs>
</svg>
