<?xml version="1.0" encoding="utf-8" standalone="no"?>
<!DOCTYPE svg PUBLIC "-//W3C//DTD SVG 1.1//EN"
  "http://www.w3.org/Graphics/SVG/1.1/DTD/svg11.dtd">
<svg height="388.438125pt" version="1.1" viewBox="0 0 1005.94375 388.438125" width="1005.94375pt" xmlns="http://www.w3.org/2000/svg" xmlns:xlink="http://www.w3.org/1999/xlink">
 <metadata>
  <rdf:RDF xmlns:cc="http://creativecommons.org/ns#" xmlns:dc="http://purl.org/dc/elements/1.1/" xmlns:rdf="http://www.w3.org/1999/02/22-rdf-syntax-ns#">
   <cc:Work>
    <dc:type rdf:resource="http://purl.org/dc/dcmitype/StillImage"/>
    <dc:date>2022-11-23T07:30:06.400460</dc:date>
    <dc:format>image/svg+xml</dc:format>
    <dc:creator>
     <cc:Agent>
      <dc:title>Matplotlib v3.4.3, https://matplotlib.org/</dc:title>
     </cc:Agent>
    </dc:creator>
   </cc:Work>
  </rdf:RDF>
 </metadata>
 <defs>
  <style type="text/css">*{stroke-linecap:butt;stroke-linejoin:round;}</style>
 </defs>
 <g id="figure_1">
  <g id="patch_1">
   <path d="M 0 388.438125 
L 1005.94375 388.438125 
L 1005.94375 0 
L 0 0 
z
" style="fill:#ffffff;"/>
  </g>
  <g id="axes_1">
   <g id="patch_2">
    <path d="M 50.14375 350.16 
L 998.74375 350.16 
L 998.74375 24 
L 50.14375 24 
z
" style="fill:#ffffff;"/>
   </g>
   <g id="matplotlib.axis_1">
    <g id="xtick_1">
     <g id="line2d_1">
      <defs>
       <path d="M 0 0 
L 0 3.5 
" id="mcff58d1be5" style="stroke:#000000;stroke-width:0.8;"/>
      </defs>
      <g>
       <use style="stroke:#000000;stroke-width:0.8;" x="193.993444" xlink:href="#mcff58d1be5" y="350.16"/>
      </g>
     </g>
     <g id="text_1">
      <!-- −2 -->
      <g transform="translate(186.62235 364.758437)scale(0.1 -0.1)">
       <defs>
        <path d="M 678 2272 
L 4684 2272 
L 4684 1741 
L 678 1741 
L 678 2272 
z
" id="DejaVuSans-2212" transform="scale(0.015625)"/>
        <path d="M 1228 531 
L 3431 531 
L 3431 0 
L 469 0 
L 469 531 
Q 828 903 1448 1529 
Q 2069 2156 2228 2338 
Q 2531 2678 2651 2914 
Q 2772 3150 2772 3378 
Q 2772 3750 2511 3984 
Q 2250 4219 1831 4219 
Q 1534 4219 1204 4116 
Q 875 4013 500 3803 
L 500 4441 
Q 881 4594 1212 4672 
Q 1544 4750 1819 4750 
Q 2544 4750 2975 4387 
Q 3406 4025 3406 3419 
Q 3406 3131 3298 2873 
Q 3191 2616 2906 2266 
Q 2828 2175 2409 1742 
Q 1991 1309 1228 531 
z
" id="DejaVuSans-32" transform="scale(0.015625)"/>
       </defs>
       <use xlink:href="#DejaVuSans-2212"/>
       <use x="83.789062" xlink:href="#DejaVuSans-32"/>
      </g>
     </g>
    </g>
    <g id="xtick_2">
     <g id="line2d_2">
      <g>
       <use style="stroke:#000000;stroke-width:0.8;" x="358.842275" xlink:href="#mcff58d1be5" y="350.16"/>
      </g>
     </g>
     <g id="text_2">
      <!-- −1 -->
      <g transform="translate(351.471181 364.758437)scale(0.1 -0.1)">
       <defs>
        <path d="M 794 531 
L 1825 531 
L 1825 4091 
L 703 3866 
L 703 4441 
L 1819 4666 
L 2450 4666 
L 2450 531 
L 3481 531 
L 3481 0 
L 794 0 
L 794 531 
z
" id="DejaVuSans-31" transform="scale(0.015625)"/>
       </defs>
       <use xlink:href="#DejaVuSans-2212"/>
       <use x="83.789062" xlink:href="#DejaVuSans-31"/>
      </g>
     </g>
    </g>
    <g id="xtick_3">
     <g id="line2d_3">
      <g>
       <use style="stroke:#000000;stroke-width:0.8;" x="523.691106" xlink:href="#mcff58d1be5" y="350.16"/>
      </g>
     </g>
     <g id="text_3">
      <!-- 0 -->
      <g transform="translate(520.509856 364.758437)scale(0.1 -0.1)">
       <defs>
        <path d="M 2034 4250 
Q 1547 4250 1301 3770 
Q 1056 3291 1056 2328 
Q 1056 1369 1301 889 
Q 1547 409 2034 409 
Q 2525 409 2770 889 
Q 3016 1369 3016 2328 
Q 3016 3291 2770 3770 
Q 2525 4250 2034 4250 
z
M 2034 4750 
Q 2819 4750 3233 4129 
Q 3647 3509 3647 2328 
Q 3647 1150 3233 529 
Q 2819 -91 2034 -91 
Q 1250 -91 836 529 
Q 422 1150 422 2328 
Q 422 3509 836 4129 
Q 1250 4750 2034 4750 
z
" id="DejaVuSans-30" transform="scale(0.015625)"/>
       </defs>
       <use xlink:href="#DejaVuSans-30"/>
      </g>
     </g>
    </g>
    <g id="xtick_4">
     <g id="line2d_4">
      <g>
       <use style="stroke:#000000;stroke-width:0.8;" x="688.539937" xlink:href="#mcff58d1be5" y="350.16"/>
      </g>
     </g>
     <g id="text_4">
      <!-- 1 -->
      <g transform="translate(685.358687 364.758437)scale(0.1 -0.1)">
       <use xlink:href="#DejaVuSans-31"/>
      </g>
     </g>
    </g>
    <g id="xtick_5">
     <g id="line2d_5">
      <g>
       <use style="stroke:#000000;stroke-width:0.8;" x="853.388768" xlink:href="#mcff58d1be5" y="350.16"/>
      </g>
     </g>
     <g id="text_5">
      <!-- 2 -->
      <g transform="translate(850.207518 364.758437)scale(0.1 -0.1)">
       <use xlink:href="#DejaVuSans-32"/>
      </g>
     </g>
    </g>
    <g id="text_6">
     <!-- wavenumber (in $cm^{-1}$) -->
     <g transform="translate(466.94375 379.158437)scale(0.1 -0.1)">
      <defs>
       <path d="M 269 3500 
L 844 3500 
L 1563 769 
L 2278 3500 
L 2956 3500 
L 3675 769 
L 4391 3500 
L 4966 3500 
L 4050 0 
L 3372 0 
L 2619 2869 
L 1863 0 
L 1184 0 
L 269 3500 
z
" id="DejaVuSans-77" transform="scale(0.015625)"/>
       <path d="M 2194 1759 
Q 1497 1759 1228 1600 
Q 959 1441 959 1056 
Q 959 750 1161 570 
Q 1363 391 1709 391 
Q 2188 391 2477 730 
Q 2766 1069 2766 1631 
L 2766 1759 
L 2194 1759 
z
M 3341 1997 
L 3341 0 
L 2766 0 
L 2766 531 
Q 2569 213 2275 61 
Q 1981 -91 1556 -91 
Q 1019 -91 701 211 
Q 384 513 384 1019 
Q 384 1609 779 1909 
Q 1175 2209 1959 2209 
L 2766 2209 
L 2766 2266 
Q 2766 2663 2505 2880 
Q 2244 3097 1772 3097 
Q 1472 3097 1187 3025 
Q 903 2953 641 2809 
L 641 3341 
Q 956 3463 1253 3523 
Q 1550 3584 1831 3584 
Q 2591 3584 2966 3190 
Q 3341 2797 3341 1997 
z
" id="DejaVuSans-61" transform="scale(0.015625)"/>
       <path d="M 191 3500 
L 800 3500 
L 1894 563 
L 2988 3500 
L 3597 3500 
L 2284 0 
L 1503 0 
L 191 3500 
z
" id="DejaVuSans-76" transform="scale(0.015625)"/>
       <path d="M 3597 1894 
L 3597 1613 
L 953 1613 
Q 991 1019 1311 708 
Q 1631 397 2203 397 
Q 2534 397 2845 478 
Q 3156 559 3463 722 
L 3463 178 
Q 3153 47 2828 -22 
Q 2503 -91 2169 -91 
Q 1331 -91 842 396 
Q 353 884 353 1716 
Q 353 2575 817 3079 
Q 1281 3584 2069 3584 
Q 2775 3584 3186 3129 
Q 3597 2675 3597 1894 
z
M 3022 2063 
Q 3016 2534 2758 2815 
Q 2500 3097 2075 3097 
Q 1594 3097 1305 2825 
Q 1016 2553 972 2059 
L 3022 2063 
z
" id="DejaVuSans-65" transform="scale(0.015625)"/>
       <path d="M 3513 2113 
L 3513 0 
L 2938 0 
L 2938 2094 
Q 2938 2591 2744 2837 
Q 2550 3084 2163 3084 
Q 1697 3084 1428 2787 
Q 1159 2491 1159 1978 
L 1159 0 
L 581 0 
L 581 3500 
L 1159 3500 
L 1159 2956 
Q 1366 3272 1645 3428 
Q 1925 3584 2291 3584 
Q 2894 3584 3203 3211 
Q 3513 2838 3513 2113 
z
" id="DejaVuSans-6e" transform="scale(0.015625)"/>
       <path d="M 544 1381 
L 544 3500 
L 1119 3500 
L 1119 1403 
Q 1119 906 1312 657 
Q 1506 409 1894 409 
Q 2359 409 2629 706 
Q 2900 1003 2900 1516 
L 2900 3500 
L 3475 3500 
L 3475 0 
L 2900 0 
L 2900 538 
Q 2691 219 2414 64 
Q 2138 -91 1772 -91 
Q 1169 -91 856 284 
Q 544 659 544 1381 
z
M 1991 3584 
L 1991 3584 
z
" id="DejaVuSans-75" transform="scale(0.015625)"/>
       <path d="M 3328 2828 
Q 3544 3216 3844 3400 
Q 4144 3584 4550 3584 
Q 5097 3584 5394 3201 
Q 5691 2819 5691 2113 
L 5691 0 
L 5113 0 
L 5113 2094 
Q 5113 2597 4934 2840 
Q 4756 3084 4391 3084 
Q 3944 3084 3684 2787 
Q 3425 2491 3425 1978 
L 3425 0 
L 2847 0 
L 2847 2094 
Q 2847 2600 2669 2842 
Q 2491 3084 2119 3084 
Q 1678 3084 1418 2786 
Q 1159 2488 1159 1978 
L 1159 0 
L 581 0 
L 581 3500 
L 1159 3500 
L 1159 2956 
Q 1356 3278 1631 3431 
Q 1906 3584 2284 3584 
Q 2666 3584 2933 3390 
Q 3200 3197 3328 2828 
z
" id="DejaVuSans-6d" transform="scale(0.015625)"/>
       <path d="M 3116 1747 
Q 3116 2381 2855 2742 
Q 2594 3103 2138 3103 
Q 1681 3103 1420 2742 
Q 1159 2381 1159 1747 
Q 1159 1113 1420 752 
Q 1681 391 2138 391 
Q 2594 391 2855 752 
Q 3116 1113 3116 1747 
z
M 1159 2969 
Q 1341 3281 1617 3432 
Q 1894 3584 2278 3584 
Q 2916 3584 3314 3078 
Q 3713 2572 3713 1747 
Q 3713 922 3314 415 
Q 2916 -91 2278 -91 
Q 1894 -91 1617 61 
Q 1341 213 1159 525 
L 1159 0 
L 581 0 
L 581 4863 
L 1159 4863 
L 1159 2969 
z
" id="DejaVuSans-62" transform="scale(0.015625)"/>
       <path d="M 2631 2963 
Q 2534 3019 2420 3045 
Q 2306 3072 2169 3072 
Q 1681 3072 1420 2755 
Q 1159 2438 1159 1844 
L 1159 0 
L 581 0 
L 581 3500 
L 1159 3500 
L 1159 2956 
Q 1341 3275 1631 3429 
Q 1922 3584 2338 3584 
Q 2397 3584 2469 3576 
Q 2541 3569 2628 3553 
L 2631 2963 
z
" id="DejaVuSans-72" transform="scale(0.015625)"/>
       <path id="DejaVuSans-20" transform="scale(0.015625)"/>
       <path d="M 1984 4856 
Q 1566 4138 1362 3434 
Q 1159 2731 1159 2009 
Q 1159 1288 1364 580 
Q 1569 -128 1984 -844 
L 1484 -844 
Q 1016 -109 783 600 
Q 550 1309 550 2009 
Q 550 2706 781 3412 
Q 1013 4119 1484 4856 
L 1984 4856 
z
" id="DejaVuSans-28" transform="scale(0.015625)"/>
       <path d="M 603 3500 
L 1178 3500 
L 1178 0 
L 603 0 
L 603 3500 
z
M 603 4863 
L 1178 4863 
L 1178 4134 
L 603 4134 
L 603 4863 
z
" id="DejaVuSans-69" transform="scale(0.015625)"/>
       <path d="M 3431 3366 
L 3316 2797 
Q 3109 2947 2876 3022 
Q 2644 3097 2394 3097 
Q 2119 3097 1870 3000 
Q 1622 2903 1453 2725 
Q 1184 2453 1037 2087 
Q 891 1722 891 1331 
Q 891 859 1127 628 
Q 1363 397 1844 397 
Q 2081 397 2348 469 
Q 2616 541 2906 684 
L 2797 116 
Q 2547 13 2283 -39 
Q 2019 -91 1741 -91 
Q 1044 -91 669 257 
Q 294 606 294 1253 
Q 294 1797 489 2255 
Q 684 2713 1069 3078 
Q 1331 3328 1684 3456 
Q 2038 3584 2456 3584 
Q 2700 3584 2940 3529 
Q 3181 3475 3431 3366 
z
" id="DejaVuSans-Oblique-63" transform="scale(0.015625)"/>
       <path d="M 5747 2113 
L 5338 0 
L 4763 0 
L 5166 2094 
Q 5191 2228 5203 2325 
Q 5216 2422 5216 2491 
Q 5216 2772 5059 2928 
Q 4903 3084 4622 3084 
Q 4203 3084 3875 2770 
Q 3547 2456 3450 1953 
L 3066 0 
L 2491 0 
L 2900 2094 
Q 2925 2209 2937 2307 
Q 2950 2406 2950 2484 
Q 2950 2769 2794 2926 
Q 2638 3084 2363 3084 
Q 1938 3084 1609 2770 
Q 1281 2456 1184 1953 
L 800 0 
L 225 0 
L 909 3500 
L 1484 3500 
L 1375 2956 
Q 1609 3263 1923 3423 
Q 2238 3584 2597 3584 
Q 2978 3584 3223 3384 
Q 3469 3184 3519 2828 
Q 3781 3197 4126 3390 
Q 4472 3584 4856 3584 
Q 5306 3584 5551 3325 
Q 5797 3066 5797 2591 
Q 5797 2488 5784 2364 
Q 5772 2241 5747 2113 
z
" id="DejaVuSans-Oblique-6d" transform="scale(0.015625)"/>
       <path d="M 513 4856 
L 1013 4856 
Q 1481 4119 1714 3412 
Q 1947 2706 1947 2009 
Q 1947 1309 1714 600 
Q 1481 -109 1013 -844 
L 513 -844 
Q 928 -128 1133 580 
Q 1338 1288 1338 2009 
Q 1338 2731 1133 3434 
Q 928 4138 513 4856 
z
" id="DejaVuSans-29" transform="scale(0.015625)"/>
      </defs>
      <use transform="translate(0 0.684375)" xlink:href="#DejaVuSans-77"/>
      <use transform="translate(81.787109 0.684375)" xlink:href="#DejaVuSans-61"/>
      <use transform="translate(143.066406 0.684375)" xlink:href="#DejaVuSans-76"/>
      <use transform="translate(202.246094 0.684375)" xlink:href="#DejaVuSans-65"/>
      <use transform="translate(263.769531 0.684375)" xlink:href="#DejaVuSans-6e"/>
      <use transform="translate(327.148438 0.684375)" xlink:href="#DejaVuSans-75"/>
      <use transform="translate(390.527344 0.684375)" xlink:href="#DejaVuSans-6d"/>
      <use transform="translate(487.939453 0.684375)" xlink:href="#DejaVuSans-62"/>
      <use transform="translate(551.416016 0.684375)" xlink:href="#DejaVuSans-65"/>
      <use transform="translate(612.939453 0.684375)" xlink:href="#DejaVuSans-72"/>
      <use transform="translate(654.052734 0.684375)" xlink:href="#DejaVuSans-20"/>
      <use transform="translate(685.839844 0.684375)" xlink:href="#DejaVuSans-28"/>
      <use transform="translate(724.853516 0.684375)" xlink:href="#DejaVuSans-69"/>
      <use transform="translate(752.636719 0.684375)" xlink:href="#DejaVuSans-6e"/>
      <use transform="translate(816.015625 0.684375)" xlink:href="#DejaVuSans-20"/>
      <use transform="translate(847.802734 0.684375)" xlink:href="#DejaVuSans-Oblique-63"/>
      <use transform="translate(902.783203 0.684375)" xlink:href="#DejaVuSans-Oblique-6d"/>
      <use transform="translate(1004.845208 38.965625)scale(0.7)" xlink:href="#DejaVuSans-2212"/>
      <use transform="translate(1063.497552 38.965625)scale(0.7)" xlink:href="#DejaVuSans-31"/>
      <use transform="translate(1110.76806 0.684375)" xlink:href="#DejaVuSans-29"/>
     </g>
    </g>
   </g>
   <g id="matplotlib.axis_2">
    <g id="ytick_1">
     <g id="line2d_6">
      <defs>
       <path d="M 0 0 
L -3.5 0 
" id="m2bdc8f1930" style="stroke:#000000;stroke-width:0.8;"/>
      </defs>
      <g>
       <use style="stroke:#000000;stroke-width:0.8;" x="50.14375" xlink:href="#m2bdc8f1930" y="335.334545"/>
      </g>
     </g>
     <g id="text_7">
      <!-- 0.90 -->
      <g transform="translate(20.878125 339.133764)scale(0.1 -0.1)">
       <defs>
        <path d="M 684 794 
L 1344 794 
L 1344 0 
L 684 0 
L 684 794 
z
" id="DejaVuSans-2e" transform="scale(0.015625)"/>
        <path d="M 703 97 
L 703 672 
Q 941 559 1184 500 
Q 1428 441 1663 441 
Q 2288 441 2617 861 
Q 2947 1281 2994 2138 
Q 2813 1869 2534 1725 
Q 2256 1581 1919 1581 
Q 1219 1581 811 2004 
Q 403 2428 403 3163 
Q 403 3881 828 4315 
Q 1253 4750 1959 4750 
Q 2769 4750 3195 4129 
Q 3622 3509 3622 2328 
Q 3622 1225 3098 567 
Q 2575 -91 1691 -91 
Q 1453 -91 1209 -44 
Q 966 3 703 97 
z
M 1959 2075 
Q 2384 2075 2632 2365 
Q 2881 2656 2881 3163 
Q 2881 3666 2632 3958 
Q 2384 4250 1959 4250 
Q 1534 4250 1286 3958 
Q 1038 3666 1038 3163 
Q 1038 2656 1286 2365 
Q 1534 2075 1959 2075 
z
" id="DejaVuSans-39" transform="scale(0.015625)"/>
       </defs>
       <use xlink:href="#DejaVuSans-30"/>
       <use x="63.623047" xlink:href="#DejaVuSans-2e"/>
       <use x="95.410156" xlink:href="#DejaVuSans-39"/>
       <use x="159.033203" xlink:href="#DejaVuSans-30"/>
      </g>
     </g>
    </g>
    <g id="ytick_2">
     <g id="line2d_7">
      <g>
       <use style="stroke:#000000;stroke-width:0.8;" x="50.14375" xlink:href="#m2bdc8f1930" y="276.026796"/>
      </g>
     </g>
     <g id="text_8">
      <!-- 0.92 -->
      <g transform="translate(20.878125 279.826014)scale(0.1 -0.1)">
       <use xlink:href="#DejaVuSans-30"/>
       <use x="63.623047" xlink:href="#DejaVuSans-2e"/>
       <use x="95.410156" xlink:href="#DejaVuSans-39"/>
       <use x="159.033203" xlink:href="#DejaVuSans-32"/>
      </g>
     </g>
    </g>
    <g id="ytick_3">
     <g id="line2d_8">
      <g>
       <use style="stroke:#000000;stroke-width:0.8;" x="50.14375" xlink:href="#m2bdc8f1930" y="216.719046"/>
      </g>
     </g>
     <g id="text_9">
      <!-- 0.94 -->
      <g transform="translate(20.878125 220.518265)scale(0.1 -0.1)">
       <defs>
        <path d="M 2419 4116 
L 825 1625 
L 2419 1625 
L 2419 4116 
z
M 2253 4666 
L 3047 4666 
L 3047 1625 
L 3713 1625 
L 3713 1100 
L 3047 1100 
L 3047 0 
L 2419 0 
L 2419 1100 
L 313 1100 
L 313 1709 
L 2253 4666 
z
" id="DejaVuSans-34" transform="scale(0.015625)"/>
       </defs>
       <use xlink:href="#DejaVuSans-30"/>
       <use x="63.623047" xlink:href="#DejaVuSans-2e"/>
       <use x="95.410156" xlink:href="#DejaVuSans-39"/>
       <use x="159.033203" xlink:href="#DejaVuSans-34"/>
      </g>
     </g>
    </g>
    <g id="ytick_4">
     <g id="line2d_9">
      <g>
       <use style="stroke:#000000;stroke-width:0.8;" x="50.14375" xlink:href="#m2bdc8f1930" y="157.411296"/>
      </g>
     </g>
     <g id="text_10">
      <!-- 0.96 -->
      <g transform="translate(20.878125 161.210515)scale(0.1 -0.1)">
       <defs>
        <path d="M 2113 2584 
Q 1688 2584 1439 2293 
Q 1191 2003 1191 1497 
Q 1191 994 1439 701 
Q 1688 409 2113 409 
Q 2538 409 2786 701 
Q 3034 994 3034 1497 
Q 3034 2003 2786 2293 
Q 2538 2584 2113 2584 
z
M 3366 4563 
L 3366 3988 
Q 3128 4100 2886 4159 
Q 2644 4219 2406 4219 
Q 1781 4219 1451 3797 
Q 1122 3375 1075 2522 
Q 1259 2794 1537 2939 
Q 1816 3084 2150 3084 
Q 2853 3084 3261 2657 
Q 3669 2231 3669 1497 
Q 3669 778 3244 343 
Q 2819 -91 2113 -91 
Q 1303 -91 875 529 
Q 447 1150 447 2328 
Q 447 3434 972 4092 
Q 1497 4750 2381 4750 
Q 2619 4750 2861 4703 
Q 3103 4656 3366 4563 
z
" id="DejaVuSans-36" transform="scale(0.015625)"/>
       </defs>
       <use xlink:href="#DejaVuSans-30"/>
       <use x="63.623047" xlink:href="#DejaVuSans-2e"/>
       <use x="95.410156" xlink:href="#DejaVuSans-39"/>
       <use x="159.033203" xlink:href="#DejaVuSans-36"/>
      </g>
     </g>
    </g>
    <g id="ytick_5">
     <g id="line2d_10">
      <g>
       <use style="stroke:#000000;stroke-width:0.8;" x="50.14375" xlink:href="#m2bdc8f1930" y="98.103546"/>
      </g>
     </g>
     <g id="text_11">
      <!-- 0.98 -->
      <g transform="translate(20.878125 101.902765)scale(0.1 -0.1)">
       <defs>
        <path d="M 2034 2216 
Q 1584 2216 1326 1975 
Q 1069 1734 1069 1313 
Q 1069 891 1326 650 
Q 1584 409 2034 409 
Q 2484 409 2743 651 
Q 3003 894 3003 1313 
Q 3003 1734 2745 1975 
Q 2488 2216 2034 2216 
z
M 1403 2484 
Q 997 2584 770 2862 
Q 544 3141 544 3541 
Q 544 4100 942 4425 
Q 1341 4750 2034 4750 
Q 2731 4750 3128 4425 
Q 3525 4100 3525 3541 
Q 3525 3141 3298 2862 
Q 3072 2584 2669 2484 
Q 3125 2378 3379 2068 
Q 3634 1759 3634 1313 
Q 3634 634 3220 271 
Q 2806 -91 2034 -91 
Q 1263 -91 848 271 
Q 434 634 434 1313 
Q 434 1759 690 2068 
Q 947 2378 1403 2484 
z
M 1172 3481 
Q 1172 3119 1398 2916 
Q 1625 2713 2034 2713 
Q 2441 2713 2670 2916 
Q 2900 3119 2900 3481 
Q 2900 3844 2670 4047 
Q 2441 4250 2034 4250 
Q 1625 4250 1398 4047 
Q 1172 3844 1172 3481 
z
" id="DejaVuSans-38" transform="scale(0.015625)"/>
       </defs>
       <use xlink:href="#DejaVuSans-30"/>
       <use x="63.623047" xlink:href="#DejaVuSans-2e"/>
       <use x="95.410156" xlink:href="#DejaVuSans-39"/>
       <use x="159.033203" xlink:href="#DejaVuSans-38"/>
      </g>
     </g>
    </g>
    <g id="ytick_6">
     <g id="line2d_11">
      <g>
       <use style="stroke:#000000;stroke-width:0.8;" x="50.14375" xlink:href="#m2bdc8f1930" y="38.795796"/>
      </g>
     </g>
     <g id="text_12">
      <!-- 1.00 -->
      <g transform="translate(20.878125 42.595015)scale(0.1 -0.1)">
       <use xlink:href="#DejaVuSans-31"/>
       <use x="63.623047" xlink:href="#DejaVuSans-2e"/>
       <use x="95.410156" xlink:href="#DejaVuSans-30"/>
       <use x="159.033203" xlink:href="#DejaVuSans-30"/>
      </g>
     </g>
    </g>
    <g id="text_13">
     <!-- Normalized Intensity -->
     <g transform="translate(14.798438 238.787031)rotate(-90)scale(0.1 -0.1)">
      <defs>
       <path d="M 628 4666 
L 1478 4666 
L 3547 763 
L 3547 4666 
L 4159 4666 
L 4159 0 
L 3309 0 
L 1241 3903 
L 1241 0 
L 628 0 
L 628 4666 
z
" id="DejaVuSans-4e" transform="scale(0.015625)"/>
       <path d="M 1959 3097 
Q 1497 3097 1228 2736 
Q 959 2375 959 1747 
Q 959 1119 1226 758 
Q 1494 397 1959 397 
Q 2419 397 2687 759 
Q 2956 1122 2956 1747 
Q 2956 2369 2687 2733 
Q 2419 3097 1959 3097 
z
M 1959 3584 
Q 2709 3584 3137 3096 
Q 3566 2609 3566 1747 
Q 3566 888 3137 398 
Q 2709 -91 1959 -91 
Q 1206 -91 779 398 
Q 353 888 353 1747 
Q 353 2609 779 3096 
Q 1206 3584 1959 3584 
z
" id="DejaVuSans-6f" transform="scale(0.015625)"/>
       <path d="M 603 4863 
L 1178 4863 
L 1178 0 
L 603 0 
L 603 4863 
z
" id="DejaVuSans-6c" transform="scale(0.015625)"/>
       <path d="M 353 3500 
L 3084 3500 
L 3084 2975 
L 922 459 
L 3084 459 
L 3084 0 
L 275 0 
L 275 525 
L 2438 3041 
L 353 3041 
L 353 3500 
z
" id="DejaVuSans-7a" transform="scale(0.015625)"/>
       <path d="M 2906 2969 
L 2906 4863 
L 3481 4863 
L 3481 0 
L 2906 0 
L 2906 525 
Q 2725 213 2448 61 
Q 2172 -91 1784 -91 
Q 1150 -91 751 415 
Q 353 922 353 1747 
Q 353 2572 751 3078 
Q 1150 3584 1784 3584 
Q 2172 3584 2448 3432 
Q 2725 3281 2906 2969 
z
M 947 1747 
Q 947 1113 1208 752 
Q 1469 391 1925 391 
Q 2381 391 2643 752 
Q 2906 1113 2906 1747 
Q 2906 2381 2643 2742 
Q 2381 3103 1925 3103 
Q 1469 3103 1208 2742 
Q 947 2381 947 1747 
z
" id="DejaVuSans-64" transform="scale(0.015625)"/>
       <path d="M 628 4666 
L 1259 4666 
L 1259 0 
L 628 0 
L 628 4666 
z
" id="DejaVuSans-49" transform="scale(0.015625)"/>
       <path d="M 1172 4494 
L 1172 3500 
L 2356 3500 
L 2356 3053 
L 1172 3053 
L 1172 1153 
Q 1172 725 1289 603 
Q 1406 481 1766 481 
L 2356 481 
L 2356 0 
L 1766 0 
Q 1100 0 847 248 
Q 594 497 594 1153 
L 594 3053 
L 172 3053 
L 172 3500 
L 594 3500 
L 594 4494 
L 1172 4494 
z
" id="DejaVuSans-74" transform="scale(0.015625)"/>
       <path d="M 2834 3397 
L 2834 2853 
Q 2591 2978 2328 3040 
Q 2066 3103 1784 3103 
Q 1356 3103 1142 2972 
Q 928 2841 928 2578 
Q 928 2378 1081 2264 
Q 1234 2150 1697 2047 
L 1894 2003 
Q 2506 1872 2764 1633 
Q 3022 1394 3022 966 
Q 3022 478 2636 193 
Q 2250 -91 1575 -91 
Q 1294 -91 989 -36 
Q 684 19 347 128 
L 347 722 
Q 666 556 975 473 
Q 1284 391 1588 391 
Q 1994 391 2212 530 
Q 2431 669 2431 922 
Q 2431 1156 2273 1281 
Q 2116 1406 1581 1522 
L 1381 1569 
Q 847 1681 609 1914 
Q 372 2147 372 2553 
Q 372 3047 722 3315 
Q 1072 3584 1716 3584 
Q 2034 3584 2315 3537 
Q 2597 3491 2834 3397 
z
" id="DejaVuSans-73" transform="scale(0.015625)"/>
       <path d="M 2059 -325 
Q 1816 -950 1584 -1140 
Q 1353 -1331 966 -1331 
L 506 -1331 
L 506 -850 
L 844 -850 
Q 1081 -850 1212 -737 
Q 1344 -625 1503 -206 
L 1606 56 
L 191 3500 
L 800 3500 
L 1894 763 
L 2988 3500 
L 3597 3500 
L 2059 -325 
z
" id="DejaVuSans-79" transform="scale(0.015625)"/>
      </defs>
      <use xlink:href="#DejaVuSans-4e"/>
      <use x="74.804688" xlink:href="#DejaVuSans-6f"/>
      <use x="135.986328" xlink:href="#DejaVuSans-72"/>
      <use x="175.349609" xlink:href="#DejaVuSans-6d"/>
      <use x="272.761719" xlink:href="#DejaVuSans-61"/>
      <use x="334.041016" xlink:href="#DejaVuSans-6c"/>
      <use x="361.824219" xlink:href="#DejaVuSans-69"/>
      <use x="389.607422" xlink:href="#DejaVuSans-7a"/>
      <use x="442.097656" xlink:href="#DejaVuSans-65"/>
      <use x="503.621094" xlink:href="#DejaVuSans-64"/>
      <use x="567.097656" xlink:href="#DejaVuSans-20"/>
      <use x="598.884766" xlink:href="#DejaVuSans-49"/>
      <use x="628.376953" xlink:href="#DejaVuSans-6e"/>
      <use x="691.755859" xlink:href="#DejaVuSans-74"/>
      <use x="730.964844" xlink:href="#DejaVuSans-65"/>
      <use x="792.488281" xlink:href="#DejaVuSans-6e"/>
      <use x="855.867188" xlink:href="#DejaVuSans-73"/>
      <use x="907.966797" xlink:href="#DejaVuSans-69"/>
      <use x="935.75" xlink:href="#DejaVuSans-74"/>
      <use x="974.958984" xlink:href="#DejaVuSans-79"/>
     </g>
    </g>
   </g>
   <g id="line2d_12">
    <path clip-path="url(#pb788920bbd)" d="M 96.739205 38.825657 
L 132.671023 38.99487 
L 151.216477 39.282762 
L 163.966477 39.698981 
L 173.239205 40.21293 
L 181.352841 40.889762 
L 188.307386 41.70268 
L 194.102841 42.589535 
L 199.898295 43.706484 
L 205.69375 45.091524 
L 210.330114 46.417334 
L 214.966477 47.955589 
L 219.602841 49.721598 
L 224.239205 51.728138 
L 228.875568 53.985099 
L 233.511932 56.499337 
L 238.148295 59.274715 
L 242.784659 62.312358 
L 247.421023 65.611046 
L 252.057386 69.167699 
L 256.69375 72.977889 
L 261.330114 77.036277 
L 267.125568 82.449238 
L 272.921023 88.228234 
L 278.716477 94.359485 
L 284.511932 100.827035 
L 290.307386 107.611304 
L 297.261932 116.134851 
L 304.216477 125.020973 
L 312.330114 135.743817 
L 340.148295 172.950344 
L 345.94375 180.172811 
L 350.580114 185.654102 
L 355.216477 190.80902 
L 359.852841 195.579609 
L 363.330114 198.871028 
L 366.807386 201.890989 
L 370.284659 204.617341 
L 373.761932 207.029372 
L 377.239205 209.108218 
L 380.716477 210.83732 
L 383.034659 211.788832 
L 385.352841 212.575457 
L 387.671023 213.194675 
L 389.989205 213.644793 
L 392.307386 213.925039 
L 394.625568 214.035657 
L 396.94375 213.978005 
L 399.261932 213.754661 
L 401.580114 213.369528 
L 403.898295 212.82795 
L 407.375568 211.737768 
L 410.852841 210.34184 
L 414.330114 208.679725 
L 418.966477 206.136513 
L 424.761932 202.64375 
L 431.716477 198.480009 
L 435.19375 196.632011 
L 438.671023 195.084187 
L 440.989205 194.276432 
L 443.307386 193.689328 
L 445.625568 193.358648 
L 447.94375 193.319915 
L 450.261932 193.607814 
L 452.580114 194.255576 
L 454.898295 195.294284 
L 457.216477 196.752163 
L 459.534659 198.653826 
L 461.852841 201.019519 
L 464.171023 203.864361 
L 466.489205 207.19762 
L 468.807386 211.022023 
L 471.125568 215.33315 
L 473.44375 220.118907 
L 475.761932 225.359119 
L 478.080114 231.025264 
L 481.557386 240.239898 
L 485.034659 250.167691 
L 489.671023 264.163107 
L 498.94375 292.519152 
L 502.421023 302.414859 
L 504.739205 308.553895 
L 507.057386 314.228972 
L 509.375568 319.3615 
L 511.69375 323.879065 
L 514.011932 327.716933 
L 516.330114 330.819424 
L 517.489205 332.080277 
L 518.648295 333.141107 
L 519.807386 333.998 
L 520.966477 334.647793 
L 522.125568 335.088091 
L 523.284659 335.317282 
L 524.44375 335.334545 
L 525.602841 335.139857 
L 526.761932 334.733986 
L 527.921023 334.118497 
L 529.080114 333.295735 
L 530.239205 332.268816 
L 531.398295 331.041608 
L 532.557386 329.618711 
L 534.875568 326.207754 
L 537.19375 322.086321 
L 539.511932 317.314509 
L 541.830114 311.960843 
L 544.148295 306.100845 
L 547.625568 296.539663 
L 552.261932 282.802273 
L 563.852841 247.740987 
L 567.330114 238.083976 
L 570.807386 229.195775 
L 573.125568 223.771813 
L 575.44375 218.788864 
L 577.761932 214.271558 
L 580.080114 210.236276 
L 582.398295 206.691485 
L 584.716477 203.638202 
L 587.034659 201.070561 
L 589.352841 198.976459 
L 591.671023 197.338266 
L 593.989205 196.133564 
L 596.307386 195.335911 
L 598.625568 194.915593 
L 600.94375 194.840362 
L 603.261932 195.076141 
L 605.580114 195.58768 
L 607.898295 196.339163 
L 610.216477 197.294754 
L 613.69375 199.033689 
L 617.171023 201.037168 
L 624.125568 205.413075 
L 629.921023 208.994244 
L 633.398295 210.952841 
L 636.875568 212.692454 
L 640.352841 214.162889 
L 643.830114 215.323911 
L 646.148295 215.910371 
L 648.466477 216.338306 
L 650.784659 216.602218 
L 653.102841 216.698058 
L 655.421023 216.623116 
L 657.739205 216.375915 
L 660.057386 215.956108 
L 662.375568 215.364375 
L 664.69375 214.60233 
L 667.011932 213.672428 
L 670.489205 211.970062 
L 673.966477 209.911033 
L 677.44375 207.511838 
L 680.921023 204.791337 
L 684.398295 201.770294 
L 687.875568 198.470963 
L 691.352841 194.91671 
L 695.989205 189.822956 
L 700.625568 184.377343 
L 706.421023 177.164862 
L 713.375568 168.063602 
L 722.648295 155.473866 
L 741.19375 130.156613 
L 749.307386 119.513635 
L 756.261932 110.763384 
L 762.057386 103.782782 
L 767.852841 97.114849 
L 773.648295 90.781216 
L 779.44375 84.799504 
L 785.239205 79.184877 
L 789.875568 74.966748 
L 794.511932 70.998918 
L 799.148295 67.287394 
L 803.784659 63.837346 
L 808.421023 60.65267 
L 813.057386 57.735473 
L 817.69375 55.085556 
L 822.330114 52.699974 
L 826.966477 50.572738 
L 831.602841 48.694704 
L 836.239205 47.053676 
L 840.875568 45.634725 
L 845.511932 44.420676 
L 851.307386 43.162525 
L 857.102841 42.156542 
L 862.898295 41.364011 
L 869.852841 40.642839 
L 877.966477 40.046267 
L 887.239205 39.595018 
L 898.830114 39.253848 
L 915.057386 39.006224 
L 941.716477 38.84974 
L 952.148295 38.825474 
L 952.148295 38.825474 
" style="fill:none;stroke:#e98768;stroke-linecap:square;stroke-width:1.5;"/>
   </g>
   <g id="line2d_13">
    <path clip-path="url(#pb788920bbd)" d="M 95.580114 38.825687 
L 131.511932 38.997793 
L 150.057386 39.289345 
L 162.807386 39.708546 
L 172.080114 40.224821 
L 180.19375 40.904184 
L 187.148295 41.720313 
L 192.94375 42.611289 
L 198.739205 43.73448 
L 203.375568 44.826408 
L 208.011932 46.111349 
L 212.648295 47.607543 
L 217.284659 49.331312 
L 221.921023 51.296454 
L 226.557386 53.51379 
L 231.19375 55.990909 
L 235.830114 58.732134 
L 240.466477 61.738699 
L 245.102841 65.009117 
L 249.739205 68.539683 
L 254.375568 72.325022 
L 259.011932 76.358628 
L 264.807386 81.73874 
L 270.602841 87.480515 
L 276.398295 93.568093 
L 282.19375 99.984133 
L 287.989205 106.708571 
L 294.94375 115.150111 
L 301.898295 123.945698 
L 310.011932 134.558074 
L 325.080114 154.74761 
L 334.352841 167.008591 
L 341.307386 175.845226 
L 347.102841 182.829563 
L 351.739205 188.090196 
L 356.375568 192.998932 
L 359.852841 196.415666 
L 363.330114 199.579579 
L 366.807386 202.468261 
L 370.284659 205.060432 
L 373.761932 207.336305 
L 377.239205 209.277996 
L 380.716477 210.869969 
L 383.034659 211.730599 
L 385.352841 212.427145 
L 387.671023 212.957414 
L 389.989205 213.320042 
L 392.307386 213.51459 
L 394.625568 213.541633 
L 396.94375 213.402859 
L 399.261932 213.101175 
L 401.580114 212.64081 
L 405.057386 211.665534 
L 408.534659 210.372035 
L 412.011932 208.794639 
L 415.489205 206.977042 
L 420.125568 204.274298 
L 432.875568 196.537034 
L 436.352841 194.77528 
L 438.671023 193.788921 
L 440.989205 192.99342 
L 443.307386 192.424139 
L 445.625568 192.116646 
L 447.94375 192.106205 
L 450.261932 192.427203 
L 452.580114 193.112522 
L 454.898295 194.192864 
L 457.216477 195.696027 
L 459.534659 197.64617 
L 461.852841 200.063055 
L 464.171023 202.961297 
L 466.489205 206.349643 
L 468.807386 210.230298 
L 471.125568 214.598315 
L 473.44375 219.441083 
L 475.761932 224.73793 
L 478.080114 230.459855 
L 481.557386 239.755596 
L 485.034659 249.760244 
L 489.671023 263.849626 
L 498.94375 292.358061 
L 502.421023 302.297623 
L 504.739205 308.461829 
L 507.057386 314.158874 
L 509.375568 319.310235 
L 511.69375 323.843577 
L 514.011932 327.694247 
L 516.330114 330.806647 
L 517.489205 332.071392 
L 518.648295 333.135416 
L 519.807386 333.994812 
L 520.966477 334.646422 
L 522.125568 335.087855 
L 523.284659 335.317503 
L 524.44375 335.334545 
L 525.602841 335.138958 
L 526.761932 334.73151 
L 527.921023 334.113762 
L 529.080114 333.288054 
L 530.239205 332.257498 
L 531.398295 331.025956 
L 532.557386 329.598019 
L 534.875568 326.174828 
L 537.19375 322.038228 
L 539.511932 317.248228 
L 541.830114 311.873274 
L 544.148295 305.988811 
L 547.625568 296.384851 
L 551.102841 286.104901 
L 565.011932 243.972679 
L 568.489205 234.471548 
L 571.966477 225.789493 
L 574.284659 220.524636 
L 576.602841 215.713748 
L 578.921023 211.377802 
L 581.239205 207.52969 
L 583.557386 204.174617 
L 585.875568 201.310612 
L 588.19375 198.929126 
L 590.511932 197.015711 
L 592.830114 195.550737 
L 595.148295 194.510141 
L 597.466477 193.866179 
L 599.784659 193.588173 
L 602.102841 193.643227 
L 604.421023 193.996905 
L 606.739205 194.613865 
L 609.057386 195.458432 
L 611.375568 196.495112 
L 614.852841 198.334352 
L 619.489205 201.143102 
L 632.239205 209.175628 
L 635.716477 211.071092 
L 639.19375 212.723835 
L 642.671023 214.089478 
L 646.148295 215.133058 
L 648.466477 215.636535 
L 650.784659 215.979206 
L 653.102841 216.156697 
L 655.421023 216.165969 
L 657.739205 216.005211 
L 660.057386 215.673743 
L 662.375568 215.17191 
L 664.69375 214.500994 
L 667.011932 213.663121 
L 669.330114 212.661178 
L 672.807386 210.858616 
L 676.284659 208.709621 
L 679.761932 206.231309 
L 683.239205 203.442893 
L 686.716477 200.365266 
L 690.19375 197.020614 
L 694.830114 192.185787 
L 699.466477 186.973904 
L 704.102841 181.442235 
L 709.898295 174.16473 
L 716.852841 165.0422 
L 727.284659 150.925539 
L 742.352841 130.54799 
L 750.466477 119.957783 
L 757.421023 111.231851 
L 764.375568 102.896473 
L 770.171023 96.283184 
L 775.966477 89.996109 
L 781.761932 84.0541 
L 787.557386 78.474315 
L 792.19375 74.282207 
L 796.830114 70.340181 
L 801.466477 66.655479 
L 806.102841 63.234299 
L 810.739205 60.081259 
L 815.375568 57.198827 
L 820.011932 54.586778 
L 824.648295 52.241777 
L 829.284659 50.157136 
L 833.921023 48.322791 
L 838.557386 46.725509 
L 843.19375 45.349306 
L 847.830114 44.176028 
L 853.625568 42.964827 
L 859.421023 42.000278 
L 865.216477 41.243056 
L 872.171023 40.556079 
L 880.284659 39.989004 
L 889.557386 39.560169 
L 902.307386 39.211419 
L 919.69375 38.975936 
L 948.671023 38.834817 
L 953.307386 38.825455 
L 953.307386 38.825455 
" style="fill:none;stroke:#de5d5c;stroke-linecap:square;stroke-width:1.5;"/>
   </g>
   <g id="line2d_14">
    <path clip-path="url(#pb788920bbd)" d="M 94.421023 38.825622 
L 130.352841 39.000263 
L 148.898295 39.295071 
L 161.648295 39.716694 
L 170.921023 40.234564 
L 179.034659 40.915439 
L 185.989205 41.73351 
L 191.784659 42.627205 
L 197.580114 43.754884 
L 202.216477 44.852283 
L 206.852841 46.144931 
L 211.489205 47.651598 
L 216.125568 49.389101 
L 220.761932 51.371639 
L 225.398295 53.610284 
L 230.034659 56.112675 
L 234.671023 58.882936 
L 239.307386 61.921832 
L 243.94375 65.227137 
L 248.580114 68.794151 
L 253.216477 72.616297 
L 257.852841 76.685721 
L 263.648295 82.107055 
L 269.44375 87.883573 
L 275.239205 93.996957 
L 281.034659 100.427866 
L 286.830114 107.154812 
L 293.784659 115.581991 
L 300.739205 124.344178 
L 310.011932 136.423517 
L 335.511932 170.01121 
L 341.307386 177.20394 
L 347.102841 184.02433 
L 351.739205 189.140648 
L 356.375568 193.894807 
L 359.852841 197.189805 
L 363.330114 200.227818 
L 366.807386 202.987234 
L 370.284659 205.447628 
L 373.761932 207.590122 
L 377.239205 209.397786 
L 380.716477 210.85608 
L 383.034659 211.62829 
L 385.352841 212.237339 
L 387.671023 212.681346 
L 389.989205 212.959268 
L 392.307386 213.070982 
L 394.625568 213.017381 
L 396.94375 212.800473 
L 399.261932 212.423477 
L 401.580114 211.890932 
L 405.057386 210.81392 
L 408.534659 209.427399 
L 412.011932 207.766626 
L 415.489205 205.87615 
L 420.125568 203.093867 
L 431.716477 195.899672 
L 435.19375 194.04317 
L 437.511932 192.979694 
L 439.830114 192.095228 
L 442.148295 191.424716 
L 444.466477 191.003492 
L 446.784659 190.866807 
L 449.102841 191.049282 
L 451.421023 191.584313 
L 453.739205 192.503413 
L 456.057386 193.835525 
L 458.375568 195.606287 
L 460.69375 197.837291 
L 463.011932 200.54533 
L 465.330114 203.741674 
L 467.648295 207.431365 
L 469.966477 211.612591 
L 472.284659 216.276123 
L 474.602841 221.404864 
L 476.921023 226.97353 
L 480.398295 236.075465 
L 483.875568 245.940737 
L 488.511932 259.949043 
L 500.102841 295.609837 
L 503.580114 305.333301 
L 505.898295 311.29668 
L 508.216477 316.749888 
L 510.534659 321.617382 
L 512.852841 325.830578 
L 515.171023 329.329277 
L 516.330114 330.794489 
L 517.489205 332.062942 
L 518.648295 333.130009 
L 519.807386 333.991788 
L 520.966477 334.645126 
L 522.125568 335.087637 
L 523.284659 335.317717 
L 524.44375 335.334545 
L 525.602841 335.138099 
L 526.761932 334.729145 
L 527.921023 334.109241 
L 529.080114 333.280724 
L 530.239205 332.246698 
L 531.398295 331.011019 
L 532.557386 329.57827 
L 534.875568 326.143395 
L 537.19375 321.992292 
L 539.511932 317.184884 
L 541.830114 311.789526 
L 544.148295 305.88158 
L 547.625568 296.23648 
L 551.102841 285.90818 
L 565.011932 243.514299 
L 568.489205 233.933686 
L 571.966477 225.168582 
L 574.284659 219.847069 
L 576.602841 214.979026 
L 578.921023 210.585912 
L 581.239205 206.681123 
L 583.557386 203.270378 
L 585.875568 200.352221 
L 588.19375 197.918617 
L 590.511932 195.955616 
L 592.830114 194.444067 
L 595.148295 193.360362 
L 597.466477 192.677181 
L 599.784659 192.364235 
L 602.102841 192.388976 
L 604.421023 192.717276 
L 606.739205 193.314057 
L 609.057386 194.143861 
L 611.375568 195.171367 
L 614.852841 197.007592 
L 618.330114 199.097938 
L 625.284659 203.627546 
L 631.080114 207.329719 
L 635.716477 209.9958 
L 639.19375 211.731631 
L 642.671023 213.190237 
L 646.148295 214.335731 
L 648.466477 214.911639 
L 650.784659 215.329981 
L 653.102841 215.58607 
L 655.421023 215.676553 
L 657.739205 215.599302 
L 660.057386 215.353315 
L 662.375568 214.938616 
L 664.69375 214.356167 
L 667.011932 213.607777 
L 669.330114 212.696018 
L 672.807386 211.029369 
L 676.284659 209.016146 
L 679.761932 206.672481 
L 683.239205 204.016644 
L 686.716477 201.068636 
L 690.19375 197.849806 
L 693.671023 194.382513 
L 698.307386 189.412872 
L 702.94375 184.098224 
L 708.739205 177.054865 
L 715.69375 168.157385 
L 724.966477 155.826099 
L 745.830114 127.863126 
L 753.94375 117.432364 
L 760.898295 108.84695 
L 767.852841 100.650002 
L 773.648295 94.148656 
L 779.44375 87.970492 
L 785.239205 82.135685 
L 791.034659 76.663534 
L 795.671023 72.559494 
L 800.307386 68.708547 
L 804.94375 65.118818 
L 809.580114 61.796968 
L 814.216477 58.747563 
L 818.852841 55.972474 
L 823.489205 53.470372 
L 828.125568 51.236399 
L 832.761932 49.262062 
L 837.398295 47.535375 
L 842.034659 46.041226 
L 846.671023 44.761948 
L 851.307386 43.678021 
L 857.102841 42.566411 
L 862.898295 41.687141 
L 869.852841 40.883537 
L 877.966477 40.215347 
L 887.239205 39.706963 
L 898.830114 39.320075 
L 915.057386 39.037293 
L 939.398295 38.86601 
L 953.307386 38.827493 
L 953.307386 38.827493 
" style="fill:none;stroke:#c14168;stroke-linecap:square;stroke-width:1.5;"/>
   </g>
   <g id="line2d_15">
    <path clip-path="url(#pb788920bbd)" d="M 93.261932 38.825466 
L 129.19375 39.002277 
L 147.739205 39.299933 
L 160.489205 39.72344 
L 169.761932 40.242209 
L 177.875568 40.923624 
L 184.830114 41.742419 
L 190.625568 42.637479 
L 196.421023 43.767941 
L 201.057386 44.869178 
L 205.69375 46.167664 
L 210.330114 47.682719 
L 214.966477 49.431688 
L 219.602841 51.429223 
L 224.239205 53.686715 
L 228.875568 56.211925 
L 233.511932 59.00886 
L 238.148295 62.077899 
L 242.784659 65.416145 
L 247.421023 69.017963 
L 252.057386 72.875614 
L 256.69375 76.979916 
L 262.489205 82.441806 
L 268.284659 88.252923 
L 274.080114 94.392422 
L 279.875568 100.838869 
L 286.830114 108.947205 
L 293.784659 117.418288 
L 301.898295 127.682804 
L 312.330114 141.297506 
L 330.875568 165.602433 
L 337.830114 174.313066 
L 343.625568 181.21642 
L 348.261932 186.432188 
L 352.898295 191.316716 
L 357.534659 195.816129 
L 361.011932 198.906151 
L 364.489205 201.72836 
L 367.966477 204.262305 
L 371.44375 206.488894 
L 374.921023 208.390755 
L 378.398295 209.952647 
L 380.716477 210.798665 
L 383.034659 211.484883 
L 385.352841 212.00897 
L 387.671023 212.369349 
L 389.989205 212.565279 
L 392.307386 212.596947 
L 394.625568 212.46555 
L 396.94375 212.1734 
L 399.261932 211.724017 
L 402.739205 210.766089 
L 406.216477 209.488005 
L 409.69375 207.92015 
L 413.171023 206.101657 
L 417.807386 203.372516 
L 424.761932 198.929299 
L 430.557386 195.306232 
L 434.034659 193.361291 
L 437.511932 191.717702 
L 439.830114 190.845417 
L 442.148295 190.192374 
L 444.466477 189.793715 
L 446.784659 189.684455 
L 449.102841 189.898937 
L 451.421023 190.470235 
L 453.739205 191.429503 
L 456.057386 192.805286 
L 458.375568 194.622796 
L 460.69375 196.903167 
L 463.011932 199.662717 
L 465.330114 202.912222 
L 467.648295 206.656227 
L 469.966477 210.892415 
L 472.284659 215.611064 
L 474.602841 220.794597 
L 476.921023 226.417271 
L 480.398295 235.597813 
L 483.875568 245.537667 
L 488.511932 259.637303 
L 500.102841 295.476136 
L 503.580114 305.237905 
L 505.898295 311.222992 
L 508.216477 316.694928 
L 510.534659 321.578258 
L 512.852841 325.804494 
L 515.171023 329.313527 
L 516.330114 330.782919 
L 517.489205 332.054907 
L 518.648295 333.124872 
L 519.807386 333.988918 
L 520.966477 334.6439 
L 522.125568 335.087436 
L 523.284659 335.317923 
L 524.44375 335.334545 
L 525.602841 335.137277 
L 526.761932 334.726885 
L 527.921023 334.104924 
L 529.080114 333.273725 
L 530.239205 332.236388 
L 531.398295 330.99676 
L 532.557386 329.559418 
L 534.875568 326.11338 
L 537.19375 321.948409 
L 539.511932 317.124333 
L 541.830114 311.709413 
L 544.148295 305.778923 
L 547.625568 296.094248 
L 551.102841 285.71933 
L 566.171023 239.772164 
L 569.648295 230.366779 
L 571.966477 224.567069 
L 574.284659 219.190028 
L 576.602841 214.265873 
L 578.921023 209.816533 
L 581.239205 205.855894 
L 583.557386 202.390177 
L 585.875568 199.41843 
L 588.19375 196.933118 
L 590.511932 194.92078 
L 592.830114 193.362738 
L 595.148295 192.235829 
L 597.466477 191.513154 
L 599.784659 191.164806 
L 602.102841 191.158585 
L 604.421023 191.460669 
L 606.739205 192.036243 
L 609.057386 192.850071 
L 611.375568 193.867006 
L 614.852841 195.697787 
L 618.330114 197.795404 
L 624.125568 201.601692 
L 631.080114 206.161576 
L 635.716477 208.916081 
L 639.19375 210.730661 
L 642.671023 212.277792 
L 646.148295 213.520712 
L 649.625568 214.431204 
L 651.94375 214.843123 
L 654.261932 215.09376 
L 656.580114 215.180083 
L 658.898295 215.100234 
L 661.216477 214.853427 
L 663.534659 214.439859 
L 665.852841 213.860618 
L 668.171023 213.117601 
L 670.489205 212.21343 
L 673.966477 210.562349 
L 677.44375 208.569656 
L 680.921023 206.251297 
L 684.398295 203.625259 
L 687.875568 200.711174 
L 691.352841 197.529958 
L 694.830114 194.103488 
L 699.466477 189.192364 
L 704.102841 183.939715 
L 709.898295 176.976712 
L 715.69375 169.670029 
L 723.807386 159.053464 
L 751.625568 122.23133 
L 758.580114 113.496563 
L 765.534659 105.104433 
L 771.330114 98.409897 
L 777.125568 92.014109 
L 782.921023 85.940099 
L 788.716477 80.210025 
L 794.511932 74.845689 
L 799.148295 70.831784 
L 803.784659 67.075521 
L 808.421023 63.5856 
L 813.057386 60.368731 
L 817.69375 57.428956 
L 822.330114 54.767069 
L 826.966477 52.380188 
L 831.602841 50.261567 
L 836.239205 48.400656 
L 840.875568 46.783413 
L 845.511932 45.392843 
L 850.148295 44.209699 
L 855.94375 42.990856 
L 861.739205 42.022125 
L 867.534659 41.262662 
L 874.489205 40.57405 
L 882.602841 40.005171 
L 893.034659 39.531954 
L 905.784659 39.19763 
L 924.330114 38.959541 
L 954.466477 38.8273 
L 954.466477 38.8273 
" style="fill:none;stroke:#9a3670;stroke-linecap:square;stroke-width:1.5;"/>
   </g>
   <g id="line2d_16">
    <path clip-path="url(#pb788920bbd)" d="M 93.261932 38.827397 
L 128.034659 39.003831 
L 146.580114 39.303927 
L 159.330114 39.728801 
L 168.602841 40.247807 
L 176.716477 40.928839 
L 183.671023 41.747198 
L 189.466477 42.642324 
L 195.261932 43.773915 
L 199.898295 44.877399 
L 204.534659 46.179887 
L 209.171023 47.701268 
L 213.807386 49.459446 
L 218.44375 51.469574 
L 223.080114 53.743426 
L 227.716477 56.288961 
L 232.352841 59.110155 
L 236.989205 62.207082 
L 241.625568 65.576255 
L 246.261932 69.211168 
L 250.898295 73.102968 
L 255.534659 77.241172 
L 261.330114 82.742935 
L 267.125568 88.588536 
L 272.921023 94.754528 
L 278.716477 101.217294 
L 285.671023 109.329577 
L 292.625568 117.786195 
L 300.739205 128.010505 
L 311.171023 141.53995 
L 328.557386 164.156522 
L 335.511932 172.83793 
L 341.307386 179.739041 
L 345.94375 184.969833 
L 350.580114 189.885873 
L 355.216477 194.434429 
L 358.69375 197.57338 
L 362.171023 200.45509 
L 365.648295 203.059154 
L 369.125568 205.366346 
L 372.602841 207.358958 
L 376.080114 209.021177 
L 379.557386 210.339499 
L 381.875568 211.021897 
L 384.19375 211.544221 
L 386.511932 211.904798 
L 388.830114 212.102754 
L 391.148295 212.138093 
L 393.466477 212.01179 
L 395.784659 211.72588 
L 398.102841 211.283554 
L 401.580114 210.33689 
L 405.057386 209.069481 
L 408.534659 207.509861 
L 412.011932 205.694998 
L 416.648295 202.959247 
L 422.44375 199.229356 
L 429.398295 194.754819 
L 432.875568 192.727609 
L 436.352841 190.97735 
L 438.671023 190.019313 
L 440.989205 189.268242 
L 443.307386 188.75899 
L 445.625568 188.526483 
L 447.94375 188.605215 
L 450.261932 189.028671 
L 452.580114 189.828713 
L 454.898295 191.034905 
L 457.216477 192.673809 
L 459.534659 194.768255 
L 461.852841 197.336603 
L 464.171023 200.392013 
L 466.489205 203.941742 
L 468.807386 207.986487 
L 471.125568 212.519805 
L 473.44375 217.52762 
L 475.761932 222.987847 
L 479.239205 231.957815 
L 482.716477 241.738031 
L 487.352841 255.72469 
L 500.102841 295.348003 
L 503.580114 305.146627 
L 505.898295 311.152556 
L 508.216477 316.642444 
L 510.534659 321.540934 
L 512.852841 325.779632 
L 515.171023 329.298531 
L 516.330114 330.771909 
L 517.489205 332.047267 
L 518.648295 333.119991 
L 519.807386 333.986196 
L 520.966477 334.642742 
L 522.125568 335.087251 
L 523.284659 335.318124 
L 524.44375 335.334545 
L 525.602841 335.136491 
L 526.761932 334.724726 
L 527.921023 334.1008 
L 529.080114 333.267042 
L 530.239205 332.226544 
L 531.398295 330.983147 
L 532.557386 329.541418 
L 534.875568 326.084713 
L 537.19375 321.906477 
L 539.511932 317.066441 
L 541.830114 311.632763 
L 544.148295 305.680621 
L 547.625568 295.95787 
L 551.102841 285.537991 
L 566.171023 239.319722 
L 569.648295 229.837272 
L 571.966477 223.984243 
L 574.284659 218.552788 
L 576.602841 213.573554 
L 578.921023 209.06893 
L 581.239205 205.053278 
L 583.557386 201.533306 
L 585.875568 198.508555 
L 588.19375 195.97198 
L 590.511932 193.910599 
L 592.830114 192.306197 
L 595.148295 191.136053 
L 597.466477 190.373677 
L 599.784659 189.989545 
L 602.102841 189.951799 
L 604.421023 190.226924 
L 606.739205 190.780367 
L 609.057386 191.577113 
L 611.375568 192.582196 
L 614.852841 194.40529 
L 618.330114 196.507566 
L 624.125568 200.349198 
L 632.239205 205.733324 
L 636.875568 208.489196 
L 640.352841 210.29719 
L 643.830114 211.833885 
L 647.307386 213.0646 
L 650.784659 213.962891 
L 653.102841 214.367415 
L 655.421023 214.611677 
L 657.739205 214.692954 
L 660.057386 214.609641 
L 662.375568 214.361158 
L 664.69375 213.947864 
L 667.011932 213.370964 
L 669.330114 212.632435 
L 672.807386 211.227604 
L 676.284659 209.476837 
L 679.761932 207.394374 
L 683.239205 204.996669 
L 686.716477 202.301992 
L 690.19375 199.330057 
L 693.671023 196.101697 
L 698.307386 191.435824 
L 702.94375 186.40529 
L 707.580114 181.0634 
L 713.375568 174.028832 
L 720.330114 165.195895 
L 729.602841 153.020986 
L 749.307386 127.037926 
L 757.421023 116.738583 
L 764.375568 108.236048 
L 771.330114 100.092926 
L 777.125568 93.615778 
L 782.921023 87.446307 
L 788.716477 81.609188 
L 794.511932 76.129046 
L 799.148295 72.018241 
L 803.784659 68.163054 
L 808.421023 64.573819 
L 813.057386 61.258824 
L 817.69375 58.223585 
L 822.330114 55.47021 
L 826.966477 52.996932 
L 831.602841 50.797884 
L 836.239205 48.863143 
L 840.875568 47.179038 
L 845.511932 45.728704 
L 850.148295 44.492806 
L 855.94375 43.217447 
L 861.739205 42.201877 
L 867.534659 41.404189 
L 874.489205 40.679427 
L 882.602841 40.07924 
L 891.875568 39.622739 
L 904.625568 39.247915 
L 922.011932 38.991526 
L 949.830114 38.840055 
L 955.625568 38.827015 
L 955.625568 38.827015 
" style="fill:none;stroke:#722c6e;stroke-linecap:square;stroke-width:1.5;"/>
   </g>
   <g id="patch_3">
    <path d="M 50.14375 350.16 
L 50.14375 24 
" style="fill:none;stroke:#000000;stroke-linecap:square;stroke-linejoin:miter;stroke-width:0.8;"/>
   </g>
   <g id="patch_4">
    <path d="M 998.74375 350.16 
L 998.74375 24 
" style="fill:none;stroke:#000000;stroke-linecap:square;stroke-linejoin:miter;stroke-width:0.8;"/>
   </g>
   <g id="patch_5">
    <path d="M 50.14375 350.16 
L 998.74375 350.16 
" style="fill:none;stroke:#000000;stroke-linecap:square;stroke-linejoin:miter;stroke-width:0.8;"/>
   </g>
   <g id="patch_6">
    <path d="M 50.14375 24 
L 998.74375 24 
" style="fill:none;stroke:#000000;stroke-linecap:square;stroke-linejoin:miter;stroke-width:0.8;"/>
   </g>
   <g id="text_14">
    <!-- Profile variations for Hexabenzocoronene ($C_{42}H_{18} $): B = 0.00349  $\Delta B =$ 0% ,  $\Delta C =$ 0% , $\zeta  = $-0.6, $\sigma = $0.1953$cm^{-1}$ -->
    <g transform="translate(186.88375 18)scale(0.12 -0.12)">
     <defs>
      <path d="M 1259 4147 
L 1259 2394 
L 2053 2394 
Q 2494 2394 2734 2622 
Q 2975 2850 2975 3272 
Q 2975 3691 2734 3919 
Q 2494 4147 2053 4147 
L 1259 4147 
z
M 628 4666 
L 2053 4666 
Q 2838 4666 3239 4311 
Q 3641 3956 3641 3272 
Q 3641 2581 3239 2228 
Q 2838 1875 2053 1875 
L 1259 1875 
L 1259 0 
L 628 0 
L 628 4666 
z
" id="DejaVuSans-50" transform="scale(0.015625)"/>
      <path d="M 2375 4863 
L 2375 4384 
L 1825 4384 
Q 1516 4384 1395 4259 
Q 1275 4134 1275 3809 
L 1275 3500 
L 2222 3500 
L 2222 3053 
L 1275 3053 
L 1275 0 
L 697 0 
L 697 3053 
L 147 3053 
L 147 3500 
L 697 3500 
L 697 3744 
Q 697 4328 969 4595 
Q 1241 4863 1831 4863 
L 2375 4863 
z
" id="DejaVuSans-66" transform="scale(0.015625)"/>
      <path d="M 628 4666 
L 1259 4666 
L 1259 2753 
L 3553 2753 
L 3553 4666 
L 4184 4666 
L 4184 0 
L 3553 0 
L 3553 2222 
L 1259 2222 
L 1259 0 
L 628 0 
L 628 4666 
z
" id="DejaVuSans-48" transform="scale(0.015625)"/>
      <path d="M 3513 3500 
L 2247 1797 
L 3578 0 
L 2900 0 
L 1881 1375 
L 863 0 
L 184 0 
L 1544 1831 
L 300 3500 
L 978 3500 
L 1906 2253 
L 2834 3500 
L 3513 3500 
z
" id="DejaVuSans-78" transform="scale(0.015625)"/>
      <path d="M 3122 3366 
L 3122 2828 
Q 2878 2963 2633 3030 
Q 2388 3097 2138 3097 
Q 1578 3097 1268 2742 
Q 959 2388 959 1747 
Q 959 1106 1268 751 
Q 1578 397 2138 397 
Q 2388 397 2633 464 
Q 2878 531 3122 666 
L 3122 134 
Q 2881 22 2623 -34 
Q 2366 -91 2075 -91 
Q 1284 -91 818 406 
Q 353 903 353 1747 
Q 353 2603 823 3093 
Q 1294 3584 2113 3584 
Q 2378 3584 2631 3529 
Q 2884 3475 3122 3366 
z
" id="DejaVuSans-63" transform="scale(0.015625)"/>
      <path d="M 4447 4306 
L 4319 3641 
Q 4019 3944 3683 4091 
Q 3347 4238 2956 4238 
Q 2422 4238 2017 3981 
Q 1613 3725 1319 3200 
Q 1131 2863 1032 2486 
Q 934 2109 934 1728 
Q 934 1091 1264 756 
Q 1594 422 2222 422 
Q 2656 422 3056 561 
Q 3456 700 3834 978 
L 3688 231 
Q 3316 72 2936 -9 
Q 2556 -91 2175 -91 
Q 1278 -91 773 396 
Q 269 884 269 1753 
Q 269 2309 461 2846 
Q 653 3384 1013 3828 
Q 1394 4300 1883 4525 
Q 2372 4750 3022 4750 
Q 3422 4750 3780 4639 
Q 4138 4528 4447 4306 
z
" id="DejaVuSans-Oblique-43" transform="scale(0.015625)"/>
      <path d="M 1081 4666 
L 1716 4666 
L 1344 2753 
L 3634 2753 
L 4006 4666 
L 4641 4666 
L 3731 0 
L 3097 0 
L 3531 2222 
L 1241 2222 
L 806 0 
L 172 0 
L 1081 4666 
z
" id="DejaVuSans-Oblique-48" transform="scale(0.015625)"/>
      <path d="M 750 794 
L 1409 794 
L 1409 0 
L 750 0 
L 750 794 
z
M 750 3309 
L 1409 3309 
L 1409 2516 
L 750 2516 
L 750 3309 
z
" id="DejaVuSans-3a" transform="scale(0.015625)"/>
      <path d="M 1259 2228 
L 1259 519 
L 2272 519 
Q 2781 519 3026 730 
Q 3272 941 3272 1375 
Q 3272 1813 3026 2020 
Q 2781 2228 2272 2228 
L 1259 2228 
z
M 1259 4147 
L 1259 2741 
L 2194 2741 
Q 2656 2741 2882 2914 
Q 3109 3088 3109 3444 
Q 3109 3797 2882 3972 
Q 2656 4147 2194 4147 
L 1259 4147 
z
M 628 4666 
L 2241 4666 
Q 2963 4666 3353 4366 
Q 3744 4066 3744 3513 
Q 3744 3084 3544 2831 
Q 3344 2578 2956 2516 
Q 3422 2416 3680 2098 
Q 3938 1781 3938 1306 
Q 3938 681 3513 340 
Q 3088 0 2303 0 
L 628 0 
L 628 4666 
z
" id="DejaVuSans-42" transform="scale(0.015625)"/>
      <path d="M 678 2906 
L 4684 2906 
L 4684 2381 
L 678 2381 
L 678 2906 
z
M 678 1631 
L 4684 1631 
L 4684 1100 
L 678 1100 
L 678 1631 
z
" id="DejaVuSans-3d" transform="scale(0.015625)"/>
      <path d="M 2597 2516 
Q 3050 2419 3304 2112 
Q 3559 1806 3559 1356 
Q 3559 666 3084 287 
Q 2609 -91 1734 -91 
Q 1441 -91 1130 -33 
Q 819 25 488 141 
L 488 750 
Q 750 597 1062 519 
Q 1375 441 1716 441 
Q 2309 441 2620 675 
Q 2931 909 2931 1356 
Q 2931 1769 2642 2001 
Q 2353 2234 1838 2234 
L 1294 2234 
L 1294 2753 
L 1863 2753 
Q 2328 2753 2575 2939 
Q 2822 3125 2822 3475 
Q 2822 3834 2567 4026 
Q 2313 4219 1838 4219 
Q 1578 4219 1281 4162 
Q 984 4106 628 3988 
L 628 4550 
Q 988 4650 1302 4700 
Q 1616 4750 1894 4750 
Q 2613 4750 3031 4423 
Q 3450 4097 3450 3541 
Q 3450 3153 3228 2886 
Q 3006 2619 2597 2516 
z
" id="DejaVuSans-33" transform="scale(0.015625)"/>
      <path d="M 2188 4044 
L 906 525 
L 3472 525 
L 2188 4044 
z
M 50 0 
L 1831 4666 
L 2547 4666 
L 4325 0 
L 50 0 
z
" id="DejaVuSans-394" transform="scale(0.015625)"/>
      <path d="M 1081 4666 
L 2694 4666 
Q 3350 4666 3675 4422 
Q 4000 4178 4000 3688 
Q 4000 3238 3720 2911 
Q 3441 2584 2988 2516 
Q 3375 2428 3569 2181 
Q 3763 1934 3763 1522 
Q 3763 819 3242 409 
Q 2722 0 1819 0 
L 172 0 
L 1081 4666 
z
M 1234 2228 
L 903 519 
L 1919 519 
Q 2491 519 2800 781 
Q 3109 1044 3109 1522 
Q 3109 1891 2904 2059 
Q 2700 2228 2247 2228 
L 1234 2228 
z
M 1606 4147 
L 1331 2741 
L 2272 2741 
Q 2775 2741 3058 2959 
Q 3341 3178 3341 3566 
Q 3341 3869 3150 4008 
Q 2959 4147 2541 4147 
L 1606 4147 
z
" id="DejaVuSans-Oblique-42" transform="scale(0.015625)"/>
      <path d="M 4653 2053 
Q 4381 2053 4226 1822 
Q 4072 1591 4072 1178 
Q 4072 772 4226 539 
Q 4381 306 4653 306 
Q 4919 306 5073 539 
Q 5228 772 5228 1178 
Q 5228 1588 5073 1820 
Q 4919 2053 4653 2053 
z
M 4653 2450 
Q 5147 2450 5437 2106 
Q 5728 1763 5728 1178 
Q 5728 594 5436 251 
Q 5144 -91 4653 -91 
Q 4153 -91 3862 251 
Q 3572 594 3572 1178 
Q 3572 1766 3864 2108 
Q 4156 2450 4653 2450 
z
M 1428 4353 
Q 1159 4353 1004 4120 
Q 850 3888 850 3481 
Q 850 3069 1003 2837 
Q 1156 2606 1428 2606 
Q 1700 2606 1854 2837 
Q 2009 3069 2009 3481 
Q 2009 3884 1853 4118 
Q 1697 4353 1428 4353 
z
M 4250 4750 
L 4750 4750 
L 1831 -91 
L 1331 -91 
L 4250 4750 
z
M 1428 4750 
Q 1922 4750 2215 4408 
Q 2509 4066 2509 3481 
Q 2509 2891 2217 2550 
Q 1925 2209 1428 2209 
Q 931 2209 642 2551 
Q 353 2894 353 3481 
Q 353 4063 643 4406 
Q 934 4750 1428 4750 
z
" id="DejaVuSans-25" transform="scale(0.015625)"/>
      <path d="M 750 794 
L 1409 794 
L 1409 256 
L 897 -744 
L 494 -744 
L 750 256 
L 750 794 
z
" id="DejaVuSans-2c" transform="scale(0.015625)"/>
      <path d="M 1966 397 
Q 2378 394 2578 159 
Q 2794 -88 2722 -463 
Q 2650 -822 2372 -1072 
Q 2069 -1344 1559 -1344 
Q 1606 -1109 1650 -872 
Q 1863 -888 2022 -750 
Q 2144 -641 2166 -525 
Q 2197 -359 2125 -222 
Q 2050 -91 1872 -91 
Q -22 -91 316 1669 
Q 616 3206 2609 4284 
L 947 4284 
L 1059 4863 
L 3778 4863 
L 3666 4284 
Q 1181 3147 894 1669 
Q 647 397 1966 397 
z
" id="DejaVuSans-Oblique-3b6" transform="scale(0.015625)"/>
      <path d="M 313 2009 
L 1997 2009 
L 1997 1497 
L 313 1497 
L 313 2009 
z
" id="DejaVuSans-2d" transform="scale(0.015625)"/>
      <path d="M 2219 3044 
Q 1744 3044 1422 2700 
Q 1081 2341 969 1747 
Q 844 1119 1044 756 
Q 1241 397 1706 397 
Q 2166 397 2503 759 
Q 2844 1122 2966 1747 
Q 3075 2319 2881 2700 
Q 2700 3044 2219 3044 
z
M 2309 3503 
L 4219 3500 
L 4106 2925 
L 3463 2925 
Q 3706 2438 3575 1747 
Q 3406 888 2884 400 
Q 2359 -91 1609 -91 
Q 856 -91 525 400 
Q 194 888 363 1747 
Q 528 2609 1050 3097 
Q 1484 3503 2309 3503 
z
" id="DejaVuSans-Oblique-3c3" transform="scale(0.015625)"/>
      <path d="M 691 4666 
L 3169 4666 
L 3169 4134 
L 1269 4134 
L 1269 2991 
Q 1406 3038 1543 3061 
Q 1681 3084 1819 3084 
Q 2600 3084 3056 2656 
Q 3513 2228 3513 1497 
Q 3513 744 3044 326 
Q 2575 -91 1722 -91 
Q 1428 -91 1123 -41 
Q 819 9 494 109 
L 494 744 
Q 775 591 1075 516 
Q 1375 441 1709 441 
Q 2250 441 2565 725 
Q 2881 1009 2881 1497 
Q 2881 1984 2565 2268 
Q 2250 2553 1709 2553 
Q 1456 2553 1204 2497 
Q 953 2441 691 2322 
L 691 4666 
z
" id="DejaVuSans-35" transform="scale(0.015625)"/>
     </defs>
     <use transform="translate(0 0.684375)" xlink:href="#DejaVuSans-50"/>
     <use transform="translate(60.302734 0.684375)" xlink:href="#DejaVuSans-72"/>
     <use transform="translate(101.416016 0.684375)" xlink:href="#DejaVuSans-6f"/>
     <use transform="translate(162.597656 0.684375)" xlink:href="#DejaVuSans-66"/>
     <use transform="translate(197.802734 0.684375)" xlink:href="#DejaVuSans-69"/>
     <use transform="translate(225.585938 0.684375)" xlink:href="#DejaVuSans-6c"/>
     <use transform="translate(253.369141 0.684375)" xlink:href="#DejaVuSans-65"/>
     <use transform="translate(314.892578 0.684375)" xlink:href="#DejaVuSans-20"/>
     <use transform="translate(346.679688 0.684375)" xlink:href="#DejaVuSans-76"/>
     <use transform="translate(405.859375 0.684375)" xlink:href="#DejaVuSans-61"/>
     <use transform="translate(467.138672 0.684375)" xlink:href="#DejaVuSans-72"/>
     <use transform="translate(508.251953 0.684375)" xlink:href="#DejaVuSans-69"/>
     <use transform="translate(536.035156 0.684375)" xlink:href="#DejaVuSans-61"/>
     <use transform="translate(597.314453 0.684375)" xlink:href="#DejaVuSans-74"/>
     <use transform="translate(636.523438 0.684375)" xlink:href="#DejaVuSans-69"/>
     <use transform="translate(664.306641 0.684375)" xlink:href="#DejaVuSans-6f"/>
     <use transform="translate(725.488281 0.684375)" xlink:href="#DejaVuSans-6e"/>
     <use transform="translate(788.867188 0.684375)" xlink:href="#DejaVuSans-73"/>
     <use transform="translate(840.966797 0.684375)" xlink:href="#DejaVuSans-20"/>
     <use transform="translate(872.753906 0.684375)" xlink:href="#DejaVuSans-66"/>
     <use transform="translate(907.958984 0.684375)" xlink:href="#DejaVuSans-6f"/>
     <use transform="translate(969.140625 0.684375)" xlink:href="#DejaVuSans-72"/>
     <use transform="translate(1010.253906 0.684375)" xlink:href="#DejaVuSans-20"/>
     <use transform="translate(1042.041016 0.684375)" xlink:href="#DejaVuSans-48"/>
     <use transform="translate(1117.236328 0.684375)" xlink:href="#DejaVuSans-65"/>
     <use transform="translate(1178.759766 0.684375)" xlink:href="#DejaVuSans-78"/>
     <use transform="translate(1237.939453 0.684375)" xlink:href="#DejaVuSans-61"/>
     <use transform="translate(1299.21875 0.684375)" xlink:href="#DejaVuSans-62"/>
     <use transform="translate(1362.695312 0.684375)" xlink:href="#DejaVuSans-65"/>
     <use transform="translate(1424.21875 0.684375)" xlink:href="#DejaVuSans-6e"/>
     <use transform="translate(1487.597656 0.684375)" xlink:href="#DejaVuSans-7a"/>
     <use transform="translate(1540.087891 0.684375)" xlink:href="#DejaVuSans-6f"/>
     <use transform="translate(1601.269531 0.684375)" xlink:href="#DejaVuSans-63"/>
     <use transform="translate(1656.25 0.684375)" xlink:href="#DejaVuSans-6f"/>
     <use transform="translate(1717.431641 0.684375)" xlink:href="#DejaVuSans-72"/>
     <use transform="translate(1758.544922 0.684375)" xlink:href="#DejaVuSans-6f"/>
     <use transform="translate(1819.726562 0.684375)" xlink:href="#DejaVuSans-6e"/>
     <use transform="translate(1883.105469 0.684375)" xlink:href="#DejaVuSans-65"/>
     <use transform="translate(1944.628906 0.684375)" xlink:href="#DejaVuSans-6e"/>
     <use transform="translate(2008.007812 0.684375)" xlink:href="#DejaVuSans-65"/>
     <use transform="translate(2069.53125 0.684375)" xlink:href="#DejaVuSans-20"/>
     <use transform="translate(2101.318359 0.684375)" xlink:href="#DejaVuSans-28"/>
     <use transform="translate(2140.332031 0.684375)" xlink:href="#DejaVuSans-Oblique-43"/>
     <use transform="translate(2210.15625 -15.721875)scale(0.7)" xlink:href="#DejaVuSans-34"/>
     <use transform="translate(2254.692383 -15.721875)scale(0.7)" xlink:href="#DejaVuSans-32"/>
     <use transform="translate(2301.962891 0.684375)" xlink:href="#DejaVuSans-Oblique-48"/>
     <use transform="translate(2377.158203 -15.721875)scale(0.7)" xlink:href="#DejaVuSans-31"/>
     <use transform="translate(2421.694336 -15.721875)scale(0.7)" xlink:href="#DejaVuSans-38"/>
     <use transform="translate(2468.964844 0.684375)" xlink:href="#DejaVuSans-29"/>
     <use transform="translate(2507.978516 0.684375)" xlink:href="#DejaVuSans-3a"/>
     <use transform="translate(2541.669922 0.684375)" xlink:href="#DejaVuSans-20"/>
     <use transform="translate(2573.457031 0.684375)" xlink:href="#DejaVuSans-42"/>
     <use transform="translate(2642.060547 0.684375)" xlink:href="#DejaVuSans-20"/>
     <use transform="translate(2673.847656 0.684375)" xlink:href="#DejaVuSans-3d"/>
     <use transform="translate(2757.636719 0.684375)" xlink:href="#DejaVuSans-20"/>
     <use transform="translate(2789.423828 0.684375)" xlink:href="#DejaVuSans-30"/>
     <use transform="translate(2853.046875 0.684375)" xlink:href="#DejaVuSans-2e"/>
     <use transform="translate(2884.833984 0.684375)" xlink:href="#DejaVuSans-30"/>
     <use transform="translate(2948.457031 0.684375)" xlink:href="#DejaVuSans-30"/>
     <use transform="translate(3012.080078 0.684375)" xlink:href="#DejaVuSans-33"/>
     <use transform="translate(3075.703125 0.684375)" xlink:href="#DejaVuSans-34"/>
     <use transform="translate(3139.326172 0.684375)" xlink:href="#DejaVuSans-39"/>
     <use transform="translate(3202.949219 0.684375)" xlink:href="#DejaVuSans-20"/>
     <use transform="translate(3234.736328 0.684375)" xlink:href="#DejaVuSans-20"/>
     <use transform="translate(3266.523438 0.684375)" xlink:href="#DejaVuSans-394"/>
     <use transform="translate(3334.931641 0.684375)" xlink:href="#DejaVuSans-Oblique-42"/>
     <use transform="translate(3423.017578 0.684375)" xlink:href="#DejaVuSans-3d"/>
     <use transform="translate(3526.289062 0.684375)" xlink:href="#DejaVuSans-20"/>
     <use transform="translate(3558.076172 0.684375)" xlink:href="#DejaVuSans-30"/>
     <use transform="translate(3621.699219 0.684375)" xlink:href="#DejaVuSans-25"/>
     <use transform="translate(3716.71875 0.684375)" xlink:href="#DejaVuSans-20"/>
     <use transform="translate(3748.505859 0.684375)" xlink:href="#DejaVuSans-2c"/>
     <use transform="translate(3780.292969 0.684375)" xlink:href="#DejaVuSans-20"/>
     <use transform="translate(3812.080078 0.684375)" xlink:href="#DejaVuSans-20"/>
     <use transform="translate(3843.867188 0.684375)" xlink:href="#DejaVuSans-394"/>
     <use transform="translate(3912.275391 0.684375)" xlink:href="#DejaVuSans-Oblique-43"/>
     <use transform="translate(4001.582031 0.684375)" xlink:href="#DejaVuSans-3d"/>
     <use transform="translate(4104.853516 0.684375)" xlink:href="#DejaVuSans-20"/>
     <use transform="translate(4136.640625 0.684375)" xlink:href="#DejaVuSans-30"/>
     <use transform="translate(4200.263672 0.684375)" xlink:href="#DejaVuSans-25"/>
     <use transform="translate(4295.283203 0.684375)" xlink:href="#DejaVuSans-20"/>
     <use transform="translate(4327.070312 0.684375)" xlink:href="#DejaVuSans-2c"/>
     <use transform="translate(4358.857422 0.684375)" xlink:href="#DejaVuSans-20"/>
     <use transform="translate(4390.644531 0.684375)" xlink:href="#DejaVuSans-Oblique-3b6"/>
     <use transform="translate(4464.521484 0.684375)" xlink:href="#DejaVuSans-3d"/>
     <use transform="translate(4567.792969 0.684375)" xlink:href="#DejaVuSans-2d"/>
     <use transform="translate(4603.876953 0.684375)" xlink:href="#DejaVuSans-30"/>
     <use transform="translate(4667.5 0.684375)" xlink:href="#DejaVuSans-2e"/>
     <use transform="translate(4699.287109 0.684375)" xlink:href="#DejaVuSans-36"/>
     <use transform="translate(4762.910156 0.684375)" xlink:href="#DejaVuSans-2c"/>
     <use transform="translate(4794.697266 0.684375)" xlink:href="#DejaVuSans-20"/>
     <use transform="translate(4826.484375 0.684375)" xlink:href="#DejaVuSans-Oblique-3c3"/>
     <use transform="translate(4909.345703 0.684375)" xlink:href="#DejaVuSans-3d"/>
     <use transform="translate(5012.617188 0.684375)" xlink:href="#DejaVuSans-30"/>
     <use transform="translate(5076.240234 0.684375)" xlink:href="#DejaVuSans-2e"/>
     <use transform="translate(5108.027344 0.684375)" xlink:href="#DejaVuSans-31"/>
     <use transform="translate(5171.650391 0.684375)" xlink:href="#DejaVuSans-39"/>
     <use transform="translate(5235.273438 0.684375)" xlink:href="#DejaVuSans-35"/>
     <use transform="translate(5298.896484 0.684375)" xlink:href="#DejaVuSans-33"/>
     <use transform="translate(5362.519531 0.684375)" xlink:href="#DejaVuSans-Oblique-63"/>
     <use transform="translate(5417.5 0.684375)" xlink:href="#DejaVuSans-Oblique-6d"/>
     <use transform="translate(5519.562005 38.965625)scale(0.7)" xlink:href="#DejaVuSans-2212"/>
     <use transform="translate(5578.214349 38.965625)scale(0.7)" xlink:href="#DejaVuSans-31"/>
    </g>
   </g>
   <g id="legend_1">
    <g id="patch_7">
     <path d="M 57.14375 345.16 
L 124.482813 345.16 
Q 126.482813 345.16 126.482813 343.16 
L 126.482813 256.09125 
Q 126.482813 254.09125 124.482813 254.09125 
L 57.14375 254.09125 
Q 55.14375 254.09125 55.14375 256.09125 
L 55.14375 343.16 
Q 55.14375 345.16 57.14375 345.16 
z
" style="fill:#ffffff;opacity:0.8;stroke:#cccccc;stroke-linejoin:miter;"/>
    </g>
    <g id="text_15">
     <!-- Temperature -->
     <g transform="translate(59.14375 265.689687)scale(0.1 -0.1)">
      <defs>
       <path d="M -19 4666 
L 3928 4666 
L 3928 4134 
L 2272 4134 
L 2272 0 
L 1638 0 
L 1638 4134 
L -19 4134 
L -19 4666 
z
" id="DejaVuSans-54" transform="scale(0.015625)"/>
       <path d="M 1159 525 
L 1159 -1331 
L 581 -1331 
L 581 3500 
L 1159 3500 
L 1159 2969 
Q 1341 3281 1617 3432 
Q 1894 3584 2278 3584 
Q 2916 3584 3314 3078 
Q 3713 2572 3713 1747 
Q 3713 922 3314 415 
Q 2916 -91 2278 -91 
Q 1894 -91 1617 61 
Q 1341 213 1159 525 
z
M 3116 1747 
Q 3116 2381 2855 2742 
Q 2594 3103 2138 3103 
Q 1681 3103 1420 2742 
Q 1159 2381 1159 1747 
Q 1159 1113 1420 752 
Q 1681 391 2138 391 
Q 2594 391 2855 752 
Q 3116 1113 3116 1747 
z
" id="DejaVuSans-70" transform="scale(0.015625)"/>
      </defs>
      <use xlink:href="#DejaVuSans-54"/>
      <use x="44.083984" xlink:href="#DejaVuSans-65"/>
      <use x="105.607422" xlink:href="#DejaVuSans-6d"/>
      <use x="203.019531" xlink:href="#DejaVuSans-70"/>
      <use x="266.496094" xlink:href="#DejaVuSans-65"/>
      <use x="328.019531" xlink:href="#DejaVuSans-72"/>
      <use x="369.132812" xlink:href="#DejaVuSans-61"/>
      <use x="430.412109" xlink:href="#DejaVuSans-74"/>
      <use x="469.621094" xlink:href="#DejaVuSans-75"/>
      <use x="533" xlink:href="#DejaVuSans-72"/>
      <use x="571.863281" xlink:href="#DejaVuSans-65"/>
     </g>
    </g>
    <g id="line2d_17">
     <path d="M 65.680469 276.867812 
L 85.680469 276.867812 
" style="fill:none;stroke:#e98768;stroke-linecap:square;stroke-width:1.5;"/>
    </g>
    <g id="line2d_18"/>
    <g id="text_16">
     <!-- 59.0 -->
     <g transform="translate(93.680469 280.367812)scale(0.1 -0.1)">
      <use xlink:href="#DejaVuSans-35"/>
      <use x="63.623047" xlink:href="#DejaVuSans-39"/>
      <use x="127.246094" xlink:href="#DejaVuSans-2e"/>
      <use x="159.033203" xlink:href="#DejaVuSans-30"/>
     </g>
    </g>
    <g id="line2d_19">
     <path d="M 65.680469 291.545937 
L 85.680469 291.545937 
" style="fill:none;stroke:#de5d5c;stroke-linecap:square;stroke-width:1.5;"/>
    </g>
    <g id="line2d_20"/>
    <g id="text_17">
     <!-- 60.0 -->
     <g transform="translate(93.680469 295.045937)scale(0.1 -0.1)">
      <use xlink:href="#DejaVuSans-36"/>
      <use x="63.623047" xlink:href="#DejaVuSans-30"/>
      <use x="127.246094" xlink:href="#DejaVuSans-2e"/>
      <use x="159.033203" xlink:href="#DejaVuSans-30"/>
     </g>
    </g>
    <g id="line2d_21">
     <path d="M 65.680469 306.224062 
L 85.680469 306.224062 
" style="fill:none;stroke:#c14168;stroke-linecap:square;stroke-width:1.5;"/>
    </g>
    <g id="line2d_22"/>
    <g id="text_18">
     <!-- 61.0 -->
     <g transform="translate(93.680469 309.724062)scale(0.1 -0.1)">
      <use xlink:href="#DejaVuSans-36"/>
      <use x="63.623047" xlink:href="#DejaVuSans-31"/>
      <use x="127.246094" xlink:href="#DejaVuSans-2e"/>
      <use x="159.033203" xlink:href="#DejaVuSans-30"/>
     </g>
    </g>
    <g id="line2d_23">
     <path d="M 65.680469 320.902187 
L 85.680469 320.902187 
" style="fill:none;stroke:#9a3670;stroke-linecap:square;stroke-width:1.5;"/>
    </g>
    <g id="line2d_24"/>
    <g id="text_19">
     <!-- 62.0 -->
     <g transform="translate(93.680469 324.402187)scale(0.1 -0.1)">
      <use xlink:href="#DejaVuSans-36"/>
      <use x="63.623047" xlink:href="#DejaVuSans-32"/>
      <use x="127.246094" xlink:href="#DejaVuSans-2e"/>
      <use x="159.033203" xlink:href="#DejaVuSans-30"/>
     </g>
    </g>
    <g id="line2d_25">
     <path d="M 65.680469 335.580312 
L 85.680469 335.580312 
" style="fill:none;stroke:#722c6e;stroke-linecap:square;stroke-width:1.5;"/>
    </g>
    <g id="line2d_26"/>
    <g id="text_20">
     <!-- 63.0 -->
     <g transform="translate(93.680469 339.080312)scale(0.1 -0.1)">
      <use xlink:href="#DejaVuSans-36"/>
      <use x="63.623047" xlink:href="#DejaVuSans-33"/>
      <use x="127.246094" xlink:href="#DejaVuSans-2e"/>
      <use x="159.033203" xlink:href="#DejaVuSans-30"/>
     </g>
    </g>
   </g>
  </g>
 </g>
 <defs>
  <clipPath id="pb788920bbd">
   <rect height="326.16" width="948.6" x="50.14375" y="24"/>
  </clipPath>
 </defs>
</svg>
