<?xml version="1.0" encoding="utf-8" standalone="no"?>
<!DOCTYPE svg PUBLIC "-//W3C//DTD SVG 1.1//EN"
  "http://www.w3.org/Graphics/SVG/1.1/DTD/svg11.dtd">
<svg height="372.35625pt" version="1.1" viewBox="0 0 898.160938 372.35625" width="898.160938pt" xmlns="http://www.w3.org/2000/svg" xmlns:xlink="http://www.w3.org/1999/xlink">
 <metadata>
  <rdf:RDF xmlns:cc="http://creativecommons.org/ns#" xmlns:dc="http://purl.org/dc/elements/1.1/" xmlns:rdf="http://www.w3.org/1999/02/22-rdf-syntax-ns#">
   <cc:Work>
    <dc:type rdf:resource="http://purl.org/dc/dcmitype/StillImage"/>
    <dc:date>2022-09-30T10:56:54.578058</dc:date>
    <dc:format>image/svg+xml</dc:format>
    <dc:creator>
     <cc:Agent>
      <dc:title>Matplotlib v3.4.3, https://matplotlib.org/</dc:title>
     </cc:Agent>
    </dc:creator>
   </cc:Work>
  </rdf:RDF>
 </metadata>
 <defs>
  <style type="text/css">*{stroke-linecap:butt;stroke-linejoin:round;}</style>
 </defs>
 <g id="figure_1">
  <g id="patch_1">
   <path d="M 0 372.35625 
L 898.160938 372.35625 
L 898.160938 0 
L 0 0 
z
" style="fill:#ffffff;"/>
  </g>
  <g id="axes_1">
   <g id="patch_2">
    <path d="M 36.465625 348.478125 
L 873.465625 348.478125 
L 873.465625 22.318125 
L 36.465625 22.318125 
z
" style="fill:#ffffff;"/>
   </g>
   <g id="matplotlib.axis_1">
    <g id="xtick_1">
     <g id="line2d_1">
      <defs>
       <path d="M 0 0 
L 0 3.5 
" id="m834a63bdad" style="stroke:#000000;stroke-width:0.8;"/>
      </defs>
      <g>
       <use style="stroke:#000000;stroke-width:0.8;" x="36.465625" xlink:href="#m834a63bdad" y="348.478125"/>
      </g>
     </g>
     <g id="text_1">
      <!-- 6612.5 -->
      <g transform="translate(18.970313 363.076563)scale(0.1 -0.1)">
       <defs>
        <path d="M 2113 2584 
Q 1688 2584 1439 2293 
Q 1191 2003 1191 1497 
Q 1191 994 1439 701 
Q 1688 409 2113 409 
Q 2538 409 2786 701 
Q 3034 994 3034 1497 
Q 3034 2003 2786 2293 
Q 2538 2584 2113 2584 
z
M 3366 4563 
L 3366 3988 
Q 3128 4100 2886 4159 
Q 2644 4219 2406 4219 
Q 1781 4219 1451 3797 
Q 1122 3375 1075 2522 
Q 1259 2794 1537 2939 
Q 1816 3084 2150 3084 
Q 2853 3084 3261 2657 
Q 3669 2231 3669 1497 
Q 3669 778 3244 343 
Q 2819 -91 2113 -91 
Q 1303 -91 875 529 
Q 447 1150 447 2328 
Q 447 3434 972 4092 
Q 1497 4750 2381 4750 
Q 2619 4750 2861 4703 
Q 3103 4656 3366 4563 
z
" id="DejaVuSans-36" transform="scale(0.015625)"/>
        <path d="M 794 531 
L 1825 531 
L 1825 4091 
L 703 3866 
L 703 4441 
L 1819 4666 
L 2450 4666 
L 2450 531 
L 3481 531 
L 3481 0 
L 794 0 
L 794 531 
z
" id="DejaVuSans-31" transform="scale(0.015625)"/>
        <path d="M 1228 531 
L 3431 531 
L 3431 0 
L 469 0 
L 469 531 
Q 828 903 1448 1529 
Q 2069 2156 2228 2338 
Q 2531 2678 2651 2914 
Q 2772 3150 2772 3378 
Q 2772 3750 2511 3984 
Q 2250 4219 1831 4219 
Q 1534 4219 1204 4116 
Q 875 4013 500 3803 
L 500 4441 
Q 881 4594 1212 4672 
Q 1544 4750 1819 4750 
Q 2544 4750 2975 4387 
Q 3406 4025 3406 3419 
Q 3406 3131 3298 2873 
Q 3191 2616 2906 2266 
Q 2828 2175 2409 1742 
Q 1991 1309 1228 531 
z
" id="DejaVuSans-32" transform="scale(0.015625)"/>
        <path d="M 684 794 
L 1344 794 
L 1344 0 
L 684 0 
L 684 794 
z
" id="DejaVuSans-2e" transform="scale(0.015625)"/>
        <path d="M 691 4666 
L 3169 4666 
L 3169 4134 
L 1269 4134 
L 1269 2991 
Q 1406 3038 1543 3061 
Q 1681 3084 1819 3084 
Q 2600 3084 3056 2656 
Q 3513 2228 3513 1497 
Q 3513 744 3044 326 
Q 2575 -91 1722 -91 
Q 1428 -91 1123 -41 
Q 819 9 494 109 
L 494 744 
Q 775 591 1075 516 
Q 1375 441 1709 441 
Q 2250 441 2565 725 
Q 2881 1009 2881 1497 
Q 2881 1984 2565 2268 
Q 2250 2553 1709 2553 
Q 1456 2553 1204 2497 
Q 953 2441 691 2322 
L 691 4666 
z
" id="DejaVuSans-35" transform="scale(0.015625)"/>
       </defs>
       <use xlink:href="#DejaVuSans-36"/>
       <use x="63.623047" xlink:href="#DejaVuSans-36"/>
       <use x="127.246094" xlink:href="#DejaVuSans-31"/>
       <use x="190.869141" xlink:href="#DejaVuSans-32"/>
       <use x="254.492188" xlink:href="#DejaVuSans-2e"/>
       <use x="286.279297" xlink:href="#DejaVuSans-35"/>
      </g>
     </g>
    </g>
    <g id="xtick_2">
     <g id="line2d_2">
      <g>
       <use style="stroke:#000000;stroke-width:0.8;" x="175.965625" xlink:href="#m834a63bdad" y="348.478125"/>
      </g>
     </g>
     <g id="text_2">
      <!-- 6613.0 -->
      <g transform="translate(158.470313 363.076563)scale(0.1 -0.1)">
       <defs>
        <path d="M 2597 2516 
Q 3050 2419 3304 2112 
Q 3559 1806 3559 1356 
Q 3559 666 3084 287 
Q 2609 -91 1734 -91 
Q 1441 -91 1130 -33 
Q 819 25 488 141 
L 488 750 
Q 750 597 1062 519 
Q 1375 441 1716 441 
Q 2309 441 2620 675 
Q 2931 909 2931 1356 
Q 2931 1769 2642 2001 
Q 2353 2234 1838 2234 
L 1294 2234 
L 1294 2753 
L 1863 2753 
Q 2328 2753 2575 2939 
Q 2822 3125 2822 3475 
Q 2822 3834 2567 4026 
Q 2313 4219 1838 4219 
Q 1578 4219 1281 4162 
Q 984 4106 628 3988 
L 628 4550 
Q 988 4650 1302 4700 
Q 1616 4750 1894 4750 
Q 2613 4750 3031 4423 
Q 3450 4097 3450 3541 
Q 3450 3153 3228 2886 
Q 3006 2619 2597 2516 
z
" id="DejaVuSans-33" transform="scale(0.015625)"/>
        <path d="M 2034 4250 
Q 1547 4250 1301 3770 
Q 1056 3291 1056 2328 
Q 1056 1369 1301 889 
Q 1547 409 2034 409 
Q 2525 409 2770 889 
Q 3016 1369 3016 2328 
Q 3016 3291 2770 3770 
Q 2525 4250 2034 4250 
z
M 2034 4750 
Q 2819 4750 3233 4129 
Q 3647 3509 3647 2328 
Q 3647 1150 3233 529 
Q 2819 -91 2034 -91 
Q 1250 -91 836 529 
Q 422 1150 422 2328 
Q 422 3509 836 4129 
Q 1250 4750 2034 4750 
z
" id="DejaVuSans-30" transform="scale(0.015625)"/>
       </defs>
       <use xlink:href="#DejaVuSans-36"/>
       <use x="63.623047" xlink:href="#DejaVuSans-36"/>
       <use x="127.246094" xlink:href="#DejaVuSans-31"/>
       <use x="190.869141" xlink:href="#DejaVuSans-33"/>
       <use x="254.492188" xlink:href="#DejaVuSans-2e"/>
       <use x="286.279297" xlink:href="#DejaVuSans-30"/>
      </g>
     </g>
    </g>
    <g id="xtick_3">
     <g id="line2d_3">
      <g>
       <use style="stroke:#000000;stroke-width:0.8;" x="315.465625" xlink:href="#m834a63bdad" y="348.478125"/>
      </g>
     </g>
     <g id="text_3">
      <!-- 6613.5 -->
      <g transform="translate(297.970313 363.076563)scale(0.1 -0.1)">
       <use xlink:href="#DejaVuSans-36"/>
       <use x="63.623047" xlink:href="#DejaVuSans-36"/>
       <use x="127.246094" xlink:href="#DejaVuSans-31"/>
       <use x="190.869141" xlink:href="#DejaVuSans-33"/>
       <use x="254.492188" xlink:href="#DejaVuSans-2e"/>
       <use x="286.279297" xlink:href="#DejaVuSans-35"/>
      </g>
     </g>
    </g>
    <g id="xtick_4">
     <g id="line2d_4">
      <g>
       <use style="stroke:#000000;stroke-width:0.8;" x="454.965625" xlink:href="#m834a63bdad" y="348.478125"/>
      </g>
     </g>
     <g id="text_4">
      <!-- 6614.0 -->
      <g transform="translate(437.470313 363.076563)scale(0.1 -0.1)">
       <defs>
        <path d="M 2419 4116 
L 825 1625 
L 2419 1625 
L 2419 4116 
z
M 2253 4666 
L 3047 4666 
L 3047 1625 
L 3713 1625 
L 3713 1100 
L 3047 1100 
L 3047 0 
L 2419 0 
L 2419 1100 
L 313 1100 
L 313 1709 
L 2253 4666 
z
" id="DejaVuSans-34" transform="scale(0.015625)"/>
       </defs>
       <use xlink:href="#DejaVuSans-36"/>
       <use x="63.623047" xlink:href="#DejaVuSans-36"/>
       <use x="127.246094" xlink:href="#DejaVuSans-31"/>
       <use x="190.869141" xlink:href="#DejaVuSans-34"/>
       <use x="254.492188" xlink:href="#DejaVuSans-2e"/>
       <use x="286.279297" xlink:href="#DejaVuSans-30"/>
      </g>
     </g>
    </g>
    <g id="xtick_5">
     <g id="line2d_5">
      <g>
       <use style="stroke:#000000;stroke-width:0.8;" x="594.465625" xlink:href="#m834a63bdad" y="348.478125"/>
      </g>
     </g>
     <g id="text_5">
      <!-- 6614.5 -->
      <g transform="translate(576.970313 363.076563)scale(0.1 -0.1)">
       <use xlink:href="#DejaVuSans-36"/>
       <use x="63.623047" xlink:href="#DejaVuSans-36"/>
       <use x="127.246094" xlink:href="#DejaVuSans-31"/>
       <use x="190.869141" xlink:href="#DejaVuSans-34"/>
       <use x="254.492188" xlink:href="#DejaVuSans-2e"/>
       <use x="286.279297" xlink:href="#DejaVuSans-35"/>
      </g>
     </g>
    </g>
    <g id="xtick_6">
     <g id="line2d_6">
      <g>
       <use style="stroke:#000000;stroke-width:0.8;" x="733.965625" xlink:href="#m834a63bdad" y="348.478125"/>
      </g>
     </g>
     <g id="text_6">
      <!-- 6615.0 -->
      <g transform="translate(716.470313 363.076563)scale(0.1 -0.1)">
       <use xlink:href="#DejaVuSans-36"/>
       <use x="63.623047" xlink:href="#DejaVuSans-36"/>
       <use x="127.246094" xlink:href="#DejaVuSans-31"/>
       <use x="190.869141" xlink:href="#DejaVuSans-35"/>
       <use x="254.492188" xlink:href="#DejaVuSans-2e"/>
       <use x="286.279297" xlink:href="#DejaVuSans-30"/>
      </g>
     </g>
    </g>
    <g id="xtick_7">
     <g id="line2d_7">
      <g>
       <use style="stroke:#000000;stroke-width:0.8;" x="873.465625" xlink:href="#m834a63bdad" y="348.478125"/>
      </g>
     </g>
     <g id="text_7">
      <!-- 6615.5 -->
      <g transform="translate(855.970313 363.076563)scale(0.1 -0.1)">
       <use xlink:href="#DejaVuSans-36"/>
       <use x="63.623047" xlink:href="#DejaVuSans-36"/>
       <use x="127.246094" xlink:href="#DejaVuSans-31"/>
       <use x="190.869141" xlink:href="#DejaVuSans-35"/>
       <use x="254.492188" xlink:href="#DejaVuSans-2e"/>
       <use x="286.279297" xlink:href="#DejaVuSans-35"/>
      </g>
     </g>
    </g>
   </g>
   <g id="matplotlib.axis_2">
    <g id="ytick_1">
     <g id="line2d_8">
      <defs>
       <path d="M 0 0 
L -3.5 0 
" id="m10ffd91df4" style="stroke:#000000;stroke-width:0.8;"/>
      </defs>
      <g>
       <use style="stroke:#000000;stroke-width:0.8;" x="36.465625" xlink:href="#m10ffd91df4" y="333.65267"/>
      </g>
     </g>
     <g id="text_8">
      <!-- 0.92 -->
      <g transform="translate(7.2 337.451889)scale(0.1 -0.1)">
       <defs>
        <path d="M 703 97 
L 703 672 
Q 941 559 1184 500 
Q 1428 441 1663 441 
Q 2288 441 2617 861 
Q 2947 1281 2994 2138 
Q 2813 1869 2534 1725 
Q 2256 1581 1919 1581 
Q 1219 1581 811 2004 
Q 403 2428 403 3163 
Q 403 3881 828 4315 
Q 1253 4750 1959 4750 
Q 2769 4750 3195 4129 
Q 3622 3509 3622 2328 
Q 3622 1225 3098 567 
Q 2575 -91 1691 -91 
Q 1453 -91 1209 -44 
Q 966 3 703 97 
z
M 1959 2075 
Q 2384 2075 2632 2365 
Q 2881 2656 2881 3163 
Q 2881 3666 2632 3958 
Q 2384 4250 1959 4250 
Q 1534 4250 1286 3958 
Q 1038 3666 1038 3163 
Q 1038 2656 1286 2365 
Q 1534 2075 1959 2075 
z
" id="DejaVuSans-39" transform="scale(0.015625)"/>
       </defs>
       <use xlink:href="#DejaVuSans-30"/>
       <use x="63.623047" xlink:href="#DejaVuSans-2e"/>
       <use x="95.410156" xlink:href="#DejaVuSans-39"/>
       <use x="159.033203" xlink:href="#DejaVuSans-32"/>
      </g>
     </g>
    </g>
    <g id="ytick_2">
     <g id="line2d_9">
      <g>
       <use style="stroke:#000000;stroke-width:0.8;" x="36.465625" xlink:href="#m10ffd91df4" y="296.589034"/>
      </g>
     </g>
     <g id="text_9">
      <!-- 0.93 -->
      <g transform="translate(7.2 300.388253)scale(0.1 -0.1)">
       <use xlink:href="#DejaVuSans-30"/>
       <use x="63.623047" xlink:href="#DejaVuSans-2e"/>
       <use x="95.410156" xlink:href="#DejaVuSans-39"/>
       <use x="159.033203" xlink:href="#DejaVuSans-33"/>
      </g>
     </g>
    </g>
    <g id="ytick_3">
     <g id="line2d_10">
      <g>
       <use style="stroke:#000000;stroke-width:0.8;" x="36.465625" xlink:href="#m10ffd91df4" y="259.525398"/>
      </g>
     </g>
     <g id="text_10">
      <!-- 0.94 -->
      <g transform="translate(7.2 263.324616)scale(0.1 -0.1)">
       <use xlink:href="#DejaVuSans-30"/>
       <use x="63.623047" xlink:href="#DejaVuSans-2e"/>
       <use x="95.410156" xlink:href="#DejaVuSans-39"/>
       <use x="159.033203" xlink:href="#DejaVuSans-34"/>
      </g>
     </g>
    </g>
    <g id="ytick_4">
     <g id="line2d_11">
      <g>
       <use style="stroke:#000000;stroke-width:0.8;" x="36.465625" xlink:href="#m10ffd91df4" y="222.461761"/>
      </g>
     </g>
     <g id="text_11">
      <!-- 0.95 -->
      <g transform="translate(7.2 226.26098)scale(0.1 -0.1)">
       <use xlink:href="#DejaVuSans-30"/>
       <use x="63.623047" xlink:href="#DejaVuSans-2e"/>
       <use x="95.410156" xlink:href="#DejaVuSans-39"/>
       <use x="159.033203" xlink:href="#DejaVuSans-35"/>
      </g>
     </g>
    </g>
    <g id="ytick_5">
     <g id="line2d_12">
      <g>
       <use style="stroke:#000000;stroke-width:0.8;" x="36.465625" xlink:href="#m10ffd91df4" y="185.398125"/>
      </g>
     </g>
     <g id="text_12">
      <!-- 0.96 -->
      <g transform="translate(7.2 189.197344)scale(0.1 -0.1)">
       <use xlink:href="#DejaVuSans-30"/>
       <use x="63.623047" xlink:href="#DejaVuSans-2e"/>
       <use x="95.410156" xlink:href="#DejaVuSans-39"/>
       <use x="159.033203" xlink:href="#DejaVuSans-36"/>
      </g>
     </g>
    </g>
    <g id="ytick_6">
     <g id="line2d_13">
      <g>
       <use style="stroke:#000000;stroke-width:0.8;" x="36.465625" xlink:href="#m10ffd91df4" y="148.334489"/>
      </g>
     </g>
     <g id="text_13">
      <!-- 0.97 -->
      <g transform="translate(7.2 152.133707)scale(0.1 -0.1)">
       <defs>
        <path d="M 525 4666 
L 3525 4666 
L 3525 4397 
L 1831 0 
L 1172 0 
L 2766 4134 
L 525 4134 
L 525 4666 
z
" id="DejaVuSans-37" transform="scale(0.015625)"/>
       </defs>
       <use xlink:href="#DejaVuSans-30"/>
       <use x="63.623047" xlink:href="#DejaVuSans-2e"/>
       <use x="95.410156" xlink:href="#DejaVuSans-39"/>
       <use x="159.033203" xlink:href="#DejaVuSans-37"/>
      </g>
     </g>
    </g>
    <g id="ytick_7">
     <g id="line2d_14">
      <g>
       <use style="stroke:#000000;stroke-width:0.8;" x="36.465625" xlink:href="#m10ffd91df4" y="111.270852"/>
      </g>
     </g>
     <g id="text_14">
      <!-- 0.98 -->
      <g transform="translate(7.2 115.070071)scale(0.1 -0.1)">
       <defs>
        <path d="M 2034 2216 
Q 1584 2216 1326 1975 
Q 1069 1734 1069 1313 
Q 1069 891 1326 650 
Q 1584 409 2034 409 
Q 2484 409 2743 651 
Q 3003 894 3003 1313 
Q 3003 1734 2745 1975 
Q 2488 2216 2034 2216 
z
M 1403 2484 
Q 997 2584 770 2862 
Q 544 3141 544 3541 
Q 544 4100 942 4425 
Q 1341 4750 2034 4750 
Q 2731 4750 3128 4425 
Q 3525 4100 3525 3541 
Q 3525 3141 3298 2862 
Q 3072 2584 2669 2484 
Q 3125 2378 3379 2068 
Q 3634 1759 3634 1313 
Q 3634 634 3220 271 
Q 2806 -91 2034 -91 
Q 1263 -91 848 271 
Q 434 634 434 1313 
Q 434 1759 690 2068 
Q 947 2378 1403 2484 
z
M 1172 3481 
Q 1172 3119 1398 2916 
Q 1625 2713 2034 2713 
Q 2441 2713 2670 2916 
Q 2900 3119 2900 3481 
Q 2900 3844 2670 4047 
Q 2441 4250 2034 4250 
Q 1625 4250 1398 4047 
Q 1172 3844 1172 3481 
z
" id="DejaVuSans-38" transform="scale(0.015625)"/>
       </defs>
       <use xlink:href="#DejaVuSans-30"/>
       <use x="63.623047" xlink:href="#DejaVuSans-2e"/>
       <use x="95.410156" xlink:href="#DejaVuSans-39"/>
       <use x="159.033203" xlink:href="#DejaVuSans-38"/>
      </g>
     </g>
    </g>
    <g id="ytick_8">
     <g id="line2d_15">
      <g>
       <use style="stroke:#000000;stroke-width:0.8;" x="36.465625" xlink:href="#m10ffd91df4" y="74.207216"/>
      </g>
     </g>
     <g id="text_15">
      <!-- 0.99 -->
      <g transform="translate(7.2 78.006435)scale(0.1 -0.1)">
       <use xlink:href="#DejaVuSans-30"/>
       <use x="63.623047" xlink:href="#DejaVuSans-2e"/>
       <use x="95.410156" xlink:href="#DejaVuSans-39"/>
       <use x="159.033203" xlink:href="#DejaVuSans-39"/>
      </g>
     </g>
    </g>
    <g id="ytick_9">
     <g id="line2d_16">
      <g>
       <use style="stroke:#000000;stroke-width:0.8;" x="36.465625" xlink:href="#m10ffd91df4" y="37.14358"/>
      </g>
     </g>
     <g id="text_16">
      <!-- 1.00 -->
      <g transform="translate(7.2 40.942798)scale(0.1 -0.1)">
       <use xlink:href="#DejaVuSans-31"/>
       <use x="63.623047" xlink:href="#DejaVuSans-2e"/>
       <use x="95.410156" xlink:href="#DejaVuSans-30"/>
       <use x="159.033203" xlink:href="#DejaVuSans-30"/>
      </g>
     </g>
    </g>
   </g>
   <g id="line2d_17">
    <path clip-path="url(#pcd3ca1aee3)" d="M 828.13427 37.14358 
L 717.874812 37.250511 
L 694.9425 37.525756 
L 677.302648 37.948474 
L 663.191009 38.48904 
L 651.725461 39.12715 
L 642.023955 39.865979 
L 633.204492 40.752739 
L 625.267048 41.78057 
L 618.211599 42.927428 
L 612.038126 44.15467 
L 606.74661 45.40764 
L 601.455125 46.881206 
L 596.16367 48.614713 
L 591.754147 50.291008 
L 587.344646 52.210699 
L 582.935165 54.408828 
L 579.407596 56.394156 
L 575.88004 58.605088 
L 572.352498 61.06566 
L 568.824969 63.801542 
L 565.297454 66.839762 
L 561.769952 70.20829 
L 558.242464 73.935459 
L 554.714989 78.049211 
L 551.187528 82.57618 
L 547.66008 87.540632 
L 544.132645 92.9633 
L 540.605225 98.860174 
L 537.077817 105.241322 
L 533.550423 112.109806 
L 530.023043 119.460785 
L 526.495676 127.280855 
L 522.086486 137.680725 
L 517.677317 148.714708 
L 512.386343 162.672443 
L 506.213578 179.711682 
L 496.513601 207.317631 
L 487.695529 232.163708 
L 482.404727 246.442399 
L 477.995748 257.763203 
L 473.58679 268.425279 
L 470.059638 276.409962 
L 466.532501 283.864285 
L 463.005377 290.758367 
L 459.478266 297.075096 
L 455.951169 302.810367 
L 453.305854 306.734809 
L 450.660548 310.344261 
L 448.015249 313.649259 
L 445.369958 316.662519 
L 442.724674 319.398064 
L 440.079398 321.870248 
L 437.434129 324.092708 
L 434.788868 326.077318 
L 432.143615 327.833202 
L 429.498369 329.365895 
L 426.853131 330.676721 
L 424.2079 331.762464 
L 421.562677 332.615407 
L 418.917461 333.223773 
L 416.272253 333.5726 
L 413.627053 333.645037 
L 410.98186 333.424026 
L 408.336675 332.894286 
L 405.691497 332.044489 
L 403.046327 330.869491 
L 400.401165 329.372448 
L 397.75601 327.566655 
L 395.110863 325.476933 
L 392.465723 323.140422 
L 388.938882 319.728498 
L 377.476742 308.210514 
L 374.831653 305.942378 
L 372.186571 303.993236 
L 370.423188 302.906078 
L 368.659807 302.009785 
L 366.896431 301.319102 
L 365.133057 300.845418 
L 363.369687 300.596433 
L 361.606321 300.575914 
L 359.842957 300.783509 
L 358.079598 301.214657 
L 356.316241 301.860569 
L 354.552888 302.708296 
L 352.789538 303.740872 
L 350.14452 305.589936 
L 347.499509 307.722848 
L 343.091175 311.632823 
L 338.682861 315.524604 
L 336.037883 317.614943 
L 333.392913 319.370886 
L 331.629604 320.296825 
L 329.866298 320.987866 
L 328.102995 321.412615 
L 326.339696 321.542004 
L 324.5764 321.349603 
L 322.813108 320.811889 
L 321.049819 319.908473 
L 319.286533 318.622271 
L 317.52325 316.939637 
L 315.759971 314.850443 
L 313.996696 312.348118 
L 312.233424 309.429649 
L 310.470155 306.095538 
L 308.706889 302.349726 
L 306.943627 298.199488 
L 304.29874 291.239567 
L 301.653861 283.441892 
L 299.008989 274.868302 
L 296.364125 265.592911 
L 292.837651 252.281511 
L 289.311191 238.097151 
L 284.021526 215.716121 
L 271.679092 162.720837 
L 267.27112 144.971504 
L 263.744757 131.634585 
L 260.218408 119.215938 
L 257.573655 110.566505 
L 254.92891 102.519349 
L 252.284172 95.091 
L 249.639442 88.286662 
L 246.994719 82.101043 
L 244.350004 76.519444 
L 241.705297 71.519041 
L 239.060597 67.070314 
L 236.415904 63.138534 
L 233.77122 59.685258 
L 231.126542 56.669766 
L 228.481873 54.050377 
L 225.837211 51.785625 
L 223.192557 49.83524 
L 220.54791 48.160938 
L 217.903271 46.727014 
L 215.258639 45.500736 
L 211.732475 44.138127 
L 208.206325 43.031542 
L 203.798656 41.931549 
L 199.391008 41.072964 
L 194.101859 40.277337 
L 187.931222 39.579964 
L 179.997608 38.930285 
L 170.301061 38.380052 
L 157.960148 37.919969 
L 142.093503 37.563615 
L 120.056949 37.309207 
L 86.562394 37.171625 
L 6.356693 37.143587 
L -1 37.143582 
L -1 37.143582 
" style="fill:none;stroke:#e77e63;stroke-linecap:square;"/>
   </g>
   <g id="line2d_18">
    <path clip-path="url(#pcd3ca1aee3)" d="M 818.976973 37.14358 
L 712.958274 37.250507 
L 692.273119 37.509945 
L 675.8977 37.921666 
L 662.108099 38.482515 
L 650.9042 39.153021 
L 641.424084 39.936987 
L 633.667697 40.779423 
L 626.773187 41.725735 
L 619.878727 42.90722 
L 613.846118 44.180512 
L 608.675341 45.488511 
L 603.504593 47.035408 
L 599.195659 48.538298 
L 594.886744 50.266489 
L 590.57785 52.252975 
L 587.130749 54.052831 
L 583.683661 56.062276 
L 580.236586 58.303501 
L 576.789524 60.799955 
L 573.342475 63.576014 
L 569.895438 66.656498 
L 566.448414 70.066042 
L 563.001404 73.828325 
L 559.554406 77.965162 
L 556.107421 82.495498 
L 552.660449 87.434354 
L 549.21349 92.791783 
L 545.766543 98.571912 
L 542.31961 104.772145 
L 538.872689 111.382597 
L 534.564057 120.195215 
L 530.255444 129.570416 
L 525.946852 139.440534 
L 520.776567 151.820941 
L 513.8829 168.96463 
L 495.787268 214.405227 
L 490.617153 226.709254 
L 485.447067 238.412555 
L 481.138684 247.612561 
L 476.830321 256.247984 
L 473.383645 262.723799 
L 469.936982 268.805173 
L 466.490331 274.494074 
L 463.043694 279.803537 
L 459.59707 284.757536 
L 455.288807 290.502683 
L 450.980565 295.829218 
L 445.810701 301.799449 
L 439.779229 308.371782 
L 432.886167 315.540627 
L 427.716404 320.652847 
L 423.408291 324.614568 
L 419.961814 327.470656 
L 417.376965 329.358245 
L 414.792124 330.969556 
L 412.207289 332.249776 
L 410.48407 332.892459 
L 408.760855 333.348601 
L 407.037642 333.60412 
L 405.314433 333.646531 
L 403.591227 333.465363 
L 401.868024 333.052562 
L 400.144825 332.402854 
L 398.421628 331.514068 
L 396.698435 330.387397 
L 394.975245 329.027602 
L 393.252059 327.44313 
L 390.667285 324.672814 
L 388.082518 321.481799 
L 385.497758 317.944068 
L 382.051424 312.843934 
L 372.574069 298.527154 
L 369.989353 295.072102 
L 367.404645 292.006513 
L 365.681509 290.22162 
L 363.958377 288.668621 
L 362.235249 287.36447 
L 360.512123 286.321929 
L 358.789001 285.54934 
L 357.065882 285.050483 
L 355.342766 284.824516 
L 353.619653 284.866014 
L 351.896544 285.16507 
L 350.173437 285.707488 
L 348.450334 286.475037 
L 346.727235 287.445776 
L 344.142591 289.226744 
L 341.557954 291.310115 
L 337.250243 295.15608 
L 332.942552 298.995406 
L 330.357947 301.064476 
L 327.773349 302.815451 
L 326.050288 303.752093 
L 324.32723 304.469081 
L 322.604175 304.938761 
L 320.881124 305.135926 
L 319.158075 305.038012 
L 317.43503 304.625265 
L 315.711988 303.88085 
L 313.98895 302.790938 
L 312.265914 301.344743 
L 310.542882 299.534529 
L 308.819853 297.355587 
L 307.096827 294.806179 
L 305.373805 291.887455 
L 303.650785 288.603354 
L 301.927769 284.960476 
L 299.343251 278.844069 
L 296.75874 271.982124 
L 294.174237 264.425982 
L 291.58974 256.236353 
L 288.143756 244.451102 
L 284.697785 231.842741 
L 280.390339 215.22265 
L 272.636987 184.108856 
L 265.745174 156.732228 
L 261.437817 140.443997 
L 257.991945 128.117747 
L 254.546087 116.553143 
L 251.100241 105.846314 
L 248.515865 98.420606 
L 245.931497 91.533264 
L 243.347136 85.192693 
L 240.762781 79.398649 
L 238.178435 74.14288 
L 235.594095 69.409965 
L 233.009763 65.178288 
L 230.425438 61.421125 
L 227.84112 58.107788 
L 225.256809 55.20477 
L 222.672506 52.676861 
L 220.08821 50.488181 
L 217.503921 48.603104 
L 214.919639 46.987047 
L 212.335365 45.607111 
L 209.751097 44.432567 
L 206.305419 43.137614 
L 202.859754 42.09855 
L 198.55269 41.083211 
L 194.245646 40.308605 
L 189.077221 39.610411 
L 183.047427 39.018409 
L 175.294893 38.486514 
L 164.958283 38.019747 
L 151.176316 37.640642 
L 132.226448 37.361437 
L 104.663698 37.196288 
L 51.263214 37.144302 
L -1 37.14358 
L -1 37.14358 
" style="fill:none;stroke:#d64f5f;stroke-linecap:square;"/>
   </g>
   <g id="line2d_19">
    <path clip-path="url(#pcd3ca1aee3)" d="M 810.897125 37.14358 
L 708.065179 37.252255 
L 688.680113 37.512492 
L 673.509475 37.925197 
L 660.867468 38.481408 
L 650.753986 39.129247 
L 641.483392 39.949044 
L 633.89843 40.839066 
L 627.156294 41.848005 
L 621.256965 42.943463 
L 616.200428 44.076216 
L 611.143918 45.424015 
L 606.087436 47.027457 
L 601.873722 48.5929 
L 597.660028 50.399844 
L 593.446352 52.482955 
L 590.075426 54.373643 
L 586.704512 56.48592 
L 583.33361 58.841233 
L 579.96272 61.46141 
L 576.591843 64.368119 
L 573.220978 67.582216 
L 569.850126 71.122986 
L 566.479286 75.00731 
L 563.108458 79.248791 
L 559.737642 83.856898 
L 556.366839 88.836172 
L 552.996048 94.185559 
L 549.625269 99.897919 
L 545.411813 107.527625 
L 541.198376 115.662553 
L 536.984959 124.247526 
L 531.928883 135.046435 
L 525.187492 150.056994 
L 504.963614 195.684559 
L 499.907714 206.391048 
L 494.851841 216.538621 
L 490.638635 224.493122 
L 486.425449 231.945048 
L 482.212281 238.870196 
L 478.841761 244.028478 
L 475.471253 248.85729 
L 471.258136 254.46238 
L 467.045038 259.650347 
L 461.989345 265.455799 
L 453.563253 274.655971 
L 447.665034 281.240593 
L 443.452044 286.240938 
L 439.239072 291.587647 
L 435.02612 297.307208 
L 429.970603 304.588175 
L 419.859653 319.334719 
L 416.48936 323.749614 
L 413.961649 326.694918 
L 411.433945 329.227563 
L 409.748813 330.643443 
L 408.063683 331.812471 
L 406.378557 332.711837 
L 404.693434 333.320999 
L 403.008314 333.622209 
L 401.323197 333.601 
L 399.638083 333.246632 
L 397.952973 332.552481 
L 396.267865 331.516353 
L 394.58276 330.140723 
L 392.897659 328.432878 
L 391.21256 326.404972 
L 389.527465 324.073973 
L 386.999828 320.057703 
L 384.472197 315.500411 
L 381.944574 310.512736 
L 377.731883 301.591585 
L 370.991619 287.180905 
L 367.621505 280.618678 
L 365.093928 276.223822 
L 362.566357 272.394701 
L 360.881314 270.196782 
L 359.196274 268.304415 
L 357.511237 266.730723 
L 355.826204 265.483823 
L 354.141173 264.566801 
L 352.456145 263.977767 
L 350.771121 263.709996 
L 349.086099 263.752144 
L 347.401081 264.088528 
L 345.716065 264.699469 
L 344.031053 265.561682 
L 342.346044 266.648704 
L 339.818536 268.636284 
L 337.291035 270.956034 
L 333.078548 275.245746 
L 328.02359 280.41142 
L 325.496121 282.729461 
L 322.968659 284.726218 
L 321.283688 285.830296 
L 319.598721 286.721753 
L 317.913756 287.376686 
L 316.228795 287.773684 
L 314.543836 287.893927 
L 312.858881 287.721258 
L 311.173929 287.242214 
L 309.488979 286.446038 
L 307.804033 285.324653 
L 306.11909 283.872619 
L 304.43415 282.087063 
L 302.749213 279.967591 
L 301.06428 277.516185 
L 299.379349 274.737082 
L 297.694421 271.636647 
L 295.167035 266.40227 
L 292.639657 260.49991 
L 290.112285 253.973533 
L 287.58492 246.874111 
L 284.215111 236.615723 
L 280.845314 225.587385 
L 276.633085 210.960033 
L 270.735997 189.486238 
L 259.784362 149.285219 
L 255.57223 134.596811 
L 251.360116 120.724844 
L 247.99044 110.3488 
L 244.620775 100.700721 
L 241.251123 91.838199 
L 238.723892 85.729216 
L 236.196668 80.089863 
L 233.66945 74.920668 
L 231.14224 70.215925 
L 228.615037 65.964218 
L 226.08784 62.149061 
L 223.560651 58.749644 
L 221.033468 55.741642 
L 218.506292 53.098067 
L 215.979123 50.790116 
L 213.451962 48.787995 
L 210.924807 47.061675 
L 208.397659 45.581578 
L 205.870517 44.319154 
L 202.501007 42.928028 
L 199.131508 41.817115 
L 195.762022 40.934304 
L 191.550182 40.083769 
L 186.495999 39.340914 
L 180.599487 38.740131 
L 173.018313 38.233864 
L 162.910178 37.822123 
L 148.590509 37.496191 
L 127.532577 37.268919 
L 93.840885 37.15871 
L -1 37.14358 
L -1 37.14358 
" style="fill:none;stroke:#aa3a6e;stroke-linecap:square;"/>
   </g>
   <g id="line2d_20">
    <path clip-path="url(#pcd3ca1aee3)" d="M 803.894479 37.14358 
L 704.080579 37.250603 
L 685.933757 37.505355 
L 671.911457 37.910823 
L 660.36384 38.453469 
L 650.465999 39.136208 
L 642.217878 39.921543 
L 634.794633 40.857868 
L 628.196243 41.930459 
L 622.42269 43.105631 
L 617.473959 44.329871 
L 612.525255 45.795553 
L 608.401355 47.234013 
L 604.277474 48.901292 
L 600.153611 50.829932 
L 596.029766 53.054909 
L 592.730704 55.072853 
L 589.431653 57.322991 
L 586.132614 59.824183 
L 582.833587 62.594492 
L 579.534572 65.650555 
L 576.235569 69.006893 
L 572.936577 72.675223 
L 569.637597 76.663786 
L 566.338629 80.976762 
L 563.039673 85.613786 
L 558.915994 91.857305 
L 554.792334 98.577336 
L 550.668692 105.740538 
L 545.720346 114.857802 
L 540.772027 124.452603 
L 534.174309 137.792105 
L 511.907359 183.467237 
L 506.959221 192.881511 
L 502.835793 200.306375 
L 498.712384 207.279637 
L 494.588992 213.748688 
L 491.290293 218.535769 
L 487.991605 222.96707 
L 484.692929 227.043019 
L 481.394264 230.775148 
L 478.095612 234.18718 
L 474.796971 237.315815 
L 470.673687 240.90559 
L 464.90112 245.566879 
L 458.303944 250.897562 
L 455.005374 253.790761 
L 451.706816 256.967242 
L 448.40827 260.519259 
L 445.934368 263.478071 
L 443.460472 266.719288 
L 440.986583 270.260724 
L 438.512701 274.109977 
L 435.214202 279.711717 
L 431.915714 285.803336 
L 427.792622 293.957238 
L 417.072667 315.610674 
L 414.598849 320.074645 
L 412.125037 324.092056 
L 410.475834 326.462962 
L 408.826633 328.547935 
L 407.177435 330.314653 
L 405.528239 331.733279 
L 403.879047 332.777103 
L 402.229858 333.423136 
L 400.580672 333.65267 
L 398.931489 333.451775 
L 397.282308 332.811714 
L 395.633131 331.729278 
L 393.983956 330.207021 
L 392.334785 328.253387 
L 390.685616 325.882724 
L 389.036451 323.115185 
L 387.387288 319.976511 
L 384.91355 314.641773 
L 382.439818 308.667299 
L 379.141519 299.958321 
L 373.369525 283.764907 
L 369.246693 272.464235 
L 365.948442 264.156845 
L 363.474761 258.57074 
L 361.001087 253.663248 
L 359.351974 250.812663 
L 357.702864 248.322175 
L 356.053758 246.205616 
L 354.404654 244.471355 
L 352.755553 243.122358 
L 351.106455 242.156327 
L 349.457361 241.565919 
L 347.808269 241.33904 
L 346.15918 241.459188 
L 344.510094 241.905858 
L 342.861011 242.654976 
L 341.211931 243.679368 
L 339.562853 244.949239 
L 337.089243 247.244038 
L 334.61564 249.904846 
L 331.317512 253.81638 
L 323.896767 262.769308 
L 321.423199 265.404214 
L 318.949637 267.6989 
L 317.3006 268.997608 
L 315.651566 270.085276 
L 314.002534 270.942122 
L 312.353506 271.550778 
L 310.70448 271.896314 
L 309.055457 271.966235 
L 307.406438 271.750458 
L 305.757421 271.241266 
L 304.108407 270.433245 
L 302.459396 269.323206 
L 300.810388 267.91009 
L 299.161383 266.194867 
L 297.512381 264.180421 
L 295.863382 261.871432 
L 294.214386 259.274247 
L 291.740898 254.855747 
L 289.267416 249.8393 
L 286.79394 244.263437 
L 284.320472 238.171808 
L 281.022523 229.330456 
L 277.724587 219.779468 
L 273.602184 207.039165 
L 268.655323 190.916729 
L 250.517063 130.805142 
L 246.394781 118.256518 
L 242.272517 106.509771 
L 238.97472 97.777511 
L 235.676934 89.691608 
L 232.37916 82.286899 
L 229.905837 77.192621 
L 227.432521 72.495194 
L 224.959211 68.192381 
L 222.485908 64.277491 
L 220.012612 60.73973 
L 217.539322 57.564637 
L 215.066039 54.734609 
L 212.592762 52.229462 
L 210.119493 50.027039 
L 207.646229 48.10382 
L 205.172973 46.435525 
L 202.699723 44.997674 
L 200.22648 43.766106 
L 196.928832 42.404611 
L 193.631197 41.31617 
L 190.333573 40.453286 
L 186.21156 39.62831 
L 182.089565 39.020794 
L 177.143195 38.500841 
L 170.548077 38.046374 
L 161.479867 37.681942 
L 148.289902 37.410308 
L 126.856611 37.224699 
L 88.11308 37.148203 
L -1 37.14358 
L -1 37.14358 
" style="fill:none;stroke:#7a2e70;stroke-linecap:square;"/>
   </g>
   <g id="patch_3">
    <path d="M 36.465625 348.478125 
L 36.465625 22.318125 
" style="fill:none;stroke:#000000;stroke-linecap:square;stroke-linejoin:miter;stroke-width:0.8;"/>
   </g>
   <g id="patch_4">
    <path d="M 873.465625 348.478125 
L 873.465625 22.318125 
" style="fill:none;stroke:#000000;stroke-linecap:square;stroke-linejoin:miter;stroke-width:0.8;"/>
   </g>
   <g id="patch_5">
    <path d="M 36.465625 348.478125 
L 873.465625 348.478125 
" style="fill:none;stroke:#000000;stroke-linecap:square;stroke-linejoin:miter;stroke-width:0.8;"/>
   </g>
   <g id="patch_6">
    <path d="M 36.465625 22.318125 
L 873.465625 22.318125 
" style="fill:none;stroke:#000000;stroke-linecap:square;stroke-linejoin:miter;stroke-width:0.8;"/>
   </g>
   <g id="text_17">
    <!-- ground_B =  0.003 Delta_B = -0.17,  zeta = -0.4 -->
    <g transform="translate(310.162188 16.318125)scale(0.12 -0.12)">
     <defs>
      <path d="M 2906 1791 
Q 2906 2416 2648 2759 
Q 2391 3103 1925 3103 
Q 1463 3103 1205 2759 
Q 947 2416 947 1791 
Q 947 1169 1205 825 
Q 1463 481 1925 481 
Q 2391 481 2648 825 
Q 2906 1169 2906 1791 
z
M 3481 434 
Q 3481 -459 3084 -895 
Q 2688 -1331 1869 -1331 
Q 1566 -1331 1297 -1286 
Q 1028 -1241 775 -1147 
L 775 -588 
Q 1028 -725 1275 -790 
Q 1522 -856 1778 -856 
Q 2344 -856 2625 -561 
Q 2906 -266 2906 331 
L 2906 616 
Q 2728 306 2450 153 
Q 2172 0 1784 0 
Q 1141 0 747 490 
Q 353 981 353 1791 
Q 353 2603 747 3093 
Q 1141 3584 1784 3584 
Q 2172 3584 2450 3431 
Q 2728 3278 2906 2969 
L 2906 3500 
L 3481 3500 
L 3481 434 
z
" id="DejaVuSans-67" transform="scale(0.015625)"/>
      <path d="M 2631 2963 
Q 2534 3019 2420 3045 
Q 2306 3072 2169 3072 
Q 1681 3072 1420 2755 
Q 1159 2438 1159 1844 
L 1159 0 
L 581 0 
L 581 3500 
L 1159 3500 
L 1159 2956 
Q 1341 3275 1631 3429 
Q 1922 3584 2338 3584 
Q 2397 3584 2469 3576 
Q 2541 3569 2628 3553 
L 2631 2963 
z
" id="DejaVuSans-72" transform="scale(0.015625)"/>
      <path d="M 1959 3097 
Q 1497 3097 1228 2736 
Q 959 2375 959 1747 
Q 959 1119 1226 758 
Q 1494 397 1959 397 
Q 2419 397 2687 759 
Q 2956 1122 2956 1747 
Q 2956 2369 2687 2733 
Q 2419 3097 1959 3097 
z
M 1959 3584 
Q 2709 3584 3137 3096 
Q 3566 2609 3566 1747 
Q 3566 888 3137 398 
Q 2709 -91 1959 -91 
Q 1206 -91 779 398 
Q 353 888 353 1747 
Q 353 2609 779 3096 
Q 1206 3584 1959 3584 
z
" id="DejaVuSans-6f" transform="scale(0.015625)"/>
      <path d="M 544 1381 
L 544 3500 
L 1119 3500 
L 1119 1403 
Q 1119 906 1312 657 
Q 1506 409 1894 409 
Q 2359 409 2629 706 
Q 2900 1003 2900 1516 
L 2900 3500 
L 3475 3500 
L 3475 0 
L 2900 0 
L 2900 538 
Q 2691 219 2414 64 
Q 2138 -91 1772 -91 
Q 1169 -91 856 284 
Q 544 659 544 1381 
z
M 1991 3584 
L 1991 3584 
z
" id="DejaVuSans-75" transform="scale(0.015625)"/>
      <path d="M 3513 2113 
L 3513 0 
L 2938 0 
L 2938 2094 
Q 2938 2591 2744 2837 
Q 2550 3084 2163 3084 
Q 1697 3084 1428 2787 
Q 1159 2491 1159 1978 
L 1159 0 
L 581 0 
L 581 3500 
L 1159 3500 
L 1159 2956 
Q 1366 3272 1645 3428 
Q 1925 3584 2291 3584 
Q 2894 3584 3203 3211 
Q 3513 2838 3513 2113 
z
" id="DejaVuSans-6e" transform="scale(0.015625)"/>
      <path d="M 2906 2969 
L 2906 4863 
L 3481 4863 
L 3481 0 
L 2906 0 
L 2906 525 
Q 2725 213 2448 61 
Q 2172 -91 1784 -91 
Q 1150 -91 751 415 
Q 353 922 353 1747 
Q 353 2572 751 3078 
Q 1150 3584 1784 3584 
Q 2172 3584 2448 3432 
Q 2725 3281 2906 2969 
z
M 947 1747 
Q 947 1113 1208 752 
Q 1469 391 1925 391 
Q 2381 391 2643 752 
Q 2906 1113 2906 1747 
Q 2906 2381 2643 2742 
Q 2381 3103 1925 3103 
Q 1469 3103 1208 2742 
Q 947 2381 947 1747 
z
" id="DejaVuSans-64" transform="scale(0.015625)"/>
      <path d="M 3263 -1063 
L 3263 -1509 
L -63 -1509 
L -63 -1063 
L 3263 -1063 
z
" id="DejaVuSans-5f" transform="scale(0.015625)"/>
      <path d="M 1259 2228 
L 1259 519 
L 2272 519 
Q 2781 519 3026 730 
Q 3272 941 3272 1375 
Q 3272 1813 3026 2020 
Q 2781 2228 2272 2228 
L 1259 2228 
z
M 1259 4147 
L 1259 2741 
L 2194 2741 
Q 2656 2741 2882 2914 
Q 3109 3088 3109 3444 
Q 3109 3797 2882 3972 
Q 2656 4147 2194 4147 
L 1259 4147 
z
M 628 4666 
L 2241 4666 
Q 2963 4666 3353 4366 
Q 3744 4066 3744 3513 
Q 3744 3084 3544 2831 
Q 3344 2578 2956 2516 
Q 3422 2416 3680 2098 
Q 3938 1781 3938 1306 
Q 3938 681 3513 340 
Q 3088 0 2303 0 
L 628 0 
L 628 4666 
z
" id="DejaVuSans-42" transform="scale(0.015625)"/>
      <path id="DejaVuSans-20" transform="scale(0.015625)"/>
      <path d="M 678 2906 
L 4684 2906 
L 4684 2381 
L 678 2381 
L 678 2906 
z
M 678 1631 
L 4684 1631 
L 4684 1100 
L 678 1100 
L 678 1631 
z
" id="DejaVuSans-3d" transform="scale(0.015625)"/>
      <path d="M 1259 4147 
L 1259 519 
L 2022 519 
Q 2988 519 3436 956 
Q 3884 1394 3884 2338 
Q 3884 3275 3436 3711 
Q 2988 4147 2022 4147 
L 1259 4147 
z
M 628 4666 
L 1925 4666 
Q 3281 4666 3915 4102 
Q 4550 3538 4550 2338 
Q 4550 1131 3912 565 
Q 3275 0 1925 0 
L 628 0 
L 628 4666 
z
" id="DejaVuSans-44" transform="scale(0.015625)"/>
      <path d="M 3597 1894 
L 3597 1613 
L 953 1613 
Q 991 1019 1311 708 
Q 1631 397 2203 397 
Q 2534 397 2845 478 
Q 3156 559 3463 722 
L 3463 178 
Q 3153 47 2828 -22 
Q 2503 -91 2169 -91 
Q 1331 -91 842 396 
Q 353 884 353 1716 
Q 353 2575 817 3079 
Q 1281 3584 2069 3584 
Q 2775 3584 3186 3129 
Q 3597 2675 3597 1894 
z
M 3022 2063 
Q 3016 2534 2758 2815 
Q 2500 3097 2075 3097 
Q 1594 3097 1305 2825 
Q 1016 2553 972 2059 
L 3022 2063 
z
" id="DejaVuSans-65" transform="scale(0.015625)"/>
      <path d="M 603 4863 
L 1178 4863 
L 1178 0 
L 603 0 
L 603 4863 
z
" id="DejaVuSans-6c" transform="scale(0.015625)"/>
      <path d="M 1172 4494 
L 1172 3500 
L 2356 3500 
L 2356 3053 
L 1172 3053 
L 1172 1153 
Q 1172 725 1289 603 
Q 1406 481 1766 481 
L 2356 481 
L 2356 0 
L 1766 0 
Q 1100 0 847 248 
Q 594 497 594 1153 
L 594 3053 
L 172 3053 
L 172 3500 
L 594 3500 
L 594 4494 
L 1172 4494 
z
" id="DejaVuSans-74" transform="scale(0.015625)"/>
      <path d="M 2194 1759 
Q 1497 1759 1228 1600 
Q 959 1441 959 1056 
Q 959 750 1161 570 
Q 1363 391 1709 391 
Q 2188 391 2477 730 
Q 2766 1069 2766 1631 
L 2766 1759 
L 2194 1759 
z
M 3341 1997 
L 3341 0 
L 2766 0 
L 2766 531 
Q 2569 213 2275 61 
Q 1981 -91 1556 -91 
Q 1019 -91 701 211 
Q 384 513 384 1019 
Q 384 1609 779 1909 
Q 1175 2209 1959 2209 
L 2766 2209 
L 2766 2266 
Q 2766 2663 2505 2880 
Q 2244 3097 1772 3097 
Q 1472 3097 1187 3025 
Q 903 2953 641 2809 
L 641 3341 
Q 956 3463 1253 3523 
Q 1550 3584 1831 3584 
Q 2591 3584 2966 3190 
Q 3341 2797 3341 1997 
z
" id="DejaVuSans-61" transform="scale(0.015625)"/>
      <path d="M 313 2009 
L 1997 2009 
L 1997 1497 
L 313 1497 
L 313 2009 
z
" id="DejaVuSans-2d" transform="scale(0.015625)"/>
      <path d="M 750 794 
L 1409 794 
L 1409 256 
L 897 -744 
L 494 -744 
L 750 256 
L 750 794 
z
" id="DejaVuSans-2c" transform="scale(0.015625)"/>
      <path d="M 353 3500 
L 3084 3500 
L 3084 2975 
L 922 459 
L 3084 459 
L 3084 0 
L 275 0 
L 275 525 
L 2438 3041 
L 353 3041 
L 353 3500 
z
" id="DejaVuSans-7a" transform="scale(0.015625)"/>
     </defs>
     <use xlink:href="#DejaVuSans-67"/>
     <use x="63.476562" xlink:href="#DejaVuSans-72"/>
     <use x="102.339844" xlink:href="#DejaVuSans-6f"/>
     <use x="163.521484" xlink:href="#DejaVuSans-75"/>
     <use x="226.900391" xlink:href="#DejaVuSans-6e"/>
     <use x="290.279297" xlink:href="#DejaVuSans-64"/>
     <use x="353.755859" xlink:href="#DejaVuSans-5f"/>
     <use x="403.755859" xlink:href="#DejaVuSans-42"/>
     <use x="472.359375" xlink:href="#DejaVuSans-20"/>
     <use x="504.146484" xlink:href="#DejaVuSans-3d"/>
     <use x="587.935547" xlink:href="#DejaVuSans-20"/>
     <use x="619.722656" xlink:href="#DejaVuSans-20"/>
     <use x="651.509766" xlink:href="#DejaVuSans-30"/>
     <use x="715.132812" xlink:href="#DejaVuSans-2e"/>
     <use x="746.919922" xlink:href="#DejaVuSans-30"/>
     <use x="810.542969" xlink:href="#DejaVuSans-30"/>
     <use x="874.166016" xlink:href="#DejaVuSans-33"/>
     <use x="937.789062" xlink:href="#DejaVuSans-20"/>
     <use x="969.576172" xlink:href="#DejaVuSans-44"/>
     <use x="1046.578125" xlink:href="#DejaVuSans-65"/>
     <use x="1108.101562" xlink:href="#DejaVuSans-6c"/>
     <use x="1135.884766" xlink:href="#DejaVuSans-74"/>
     <use x="1175.09375" xlink:href="#DejaVuSans-61"/>
     <use x="1236.373047" xlink:href="#DejaVuSans-5f"/>
     <use x="1286.373047" xlink:href="#DejaVuSans-42"/>
     <use x="1354.976562" xlink:href="#DejaVuSans-20"/>
     <use x="1386.763672" xlink:href="#DejaVuSans-3d"/>
     <use x="1470.552734" xlink:href="#DejaVuSans-20"/>
     <use x="1502.339844" xlink:href="#DejaVuSans-2d"/>
     <use x="1538.423828" xlink:href="#DejaVuSans-30"/>
     <use x="1602.046875" xlink:href="#DejaVuSans-2e"/>
     <use x="1633.833984" xlink:href="#DejaVuSans-31"/>
     <use x="1697.457031" xlink:href="#DejaVuSans-37"/>
     <use x="1761.080078" xlink:href="#DejaVuSans-2c"/>
     <use x="1792.867188" xlink:href="#DejaVuSans-20"/>
     <use x="1824.654297" xlink:href="#DejaVuSans-20"/>
     <use x="1856.441406" xlink:href="#DejaVuSans-7a"/>
     <use x="1908.931641" xlink:href="#DejaVuSans-65"/>
     <use x="1970.455078" xlink:href="#DejaVuSans-74"/>
     <use x="2009.664062" xlink:href="#DejaVuSans-61"/>
     <use x="2070.943359" xlink:href="#DejaVuSans-20"/>
     <use x="2102.730469" xlink:href="#DejaVuSans-3d"/>
     <use x="2186.519531" xlink:href="#DejaVuSans-20"/>
     <use x="2218.306641" xlink:href="#DejaVuSans-2d"/>
     <use x="2254.390625" xlink:href="#DejaVuSans-30"/>
     <use x="2318.013672" xlink:href="#DejaVuSans-2e"/>
     <use x="2349.800781" xlink:href="#DejaVuSans-34"/>
    </g>
   </g>
   <g id="legend_1">
    <g id="patch_7">
     <path d="M 43.465625 343.478125 
L 94.976563 343.478125 
Q 96.976563 343.478125 96.976563 341.478125 
L 96.976563 269.0875 
Q 96.976563 267.0875 94.976563 267.0875 
L 43.465625 267.0875 
Q 41.465625 267.0875 41.465625 269.0875 
L 41.465625 341.478125 
Q 41.465625 343.478125 43.465625 343.478125 
z
" style="fill:#ffffff;opacity:0.8;stroke:#cccccc;stroke-linejoin:miter;"/>
    </g>
    <g id="text_18">
     <!-- zeta -->
     <g transform="translate(58.496094 278.685938)scale(0.1 -0.1)">
      <use xlink:href="#DejaVuSans-7a"/>
      <use x="52.490234" xlink:href="#DejaVuSans-65"/>
      <use x="114.013672" xlink:href="#DejaVuSans-74"/>
      <use x="153.222656" xlink:href="#DejaVuSans-61"/>
     </g>
    </g>
    <g id="line2d_21">
     <path d="M 45.465625 289.864063 
L 65.465625 289.864063 
" style="fill:none;stroke:#e77e63;stroke-linecap:square;"/>
    </g>
    <g id="line2d_22"/>
    <g id="text_19">
     <!-- -0.1 -->
     <g transform="translate(73.465625 293.364063)scale(0.1 -0.1)">
      <use xlink:href="#DejaVuSans-2d"/>
      <use x="36.083984" xlink:href="#DejaVuSans-30"/>
      <use x="99.707031" xlink:href="#DejaVuSans-2e"/>
      <use x="131.494141" xlink:href="#DejaVuSans-31"/>
     </g>
    </g>
    <g id="line2d_23">
     <path d="M 45.465625 304.542188 
L 65.465625 304.542188 
" style="fill:none;stroke:#d64f5f;stroke-linecap:square;"/>
    </g>
    <g id="line2d_24"/>
    <g id="text_20">
     <!-- -0.2 -->
     <g transform="translate(73.465625 308.042188)scale(0.1 -0.1)">
      <use xlink:href="#DejaVuSans-2d"/>
      <use x="36.083984" xlink:href="#DejaVuSans-30"/>
      <use x="99.707031" xlink:href="#DejaVuSans-2e"/>
      <use x="131.494141" xlink:href="#DejaVuSans-32"/>
     </g>
    </g>
    <g id="line2d_25">
     <path d="M 45.465625 319.220313 
L 65.465625 319.220313 
" style="fill:none;stroke:#aa3a6e;stroke-linecap:square;"/>
    </g>
    <g id="line2d_26"/>
    <g id="text_21">
     <!-- -0.3 -->
     <g transform="translate(73.465625 322.720313)scale(0.1 -0.1)">
      <use xlink:href="#DejaVuSans-2d"/>
      <use x="36.083984" xlink:href="#DejaVuSans-30"/>
      <use x="99.707031" xlink:href="#DejaVuSans-2e"/>
      <use x="131.494141" xlink:href="#DejaVuSans-33"/>
     </g>
    </g>
    <g id="line2d_27">
     <path d="M 45.465625 333.898438 
L 65.465625 333.898438 
" style="fill:none;stroke:#7a2e70;stroke-linecap:square;"/>
    </g>
    <g id="line2d_28"/>
    <g id="text_22">
     <!-- -0.4 -->
     <g transform="translate(73.465625 337.398438)scale(0.1 -0.1)">
      <use xlink:href="#DejaVuSans-2d"/>
      <use x="36.083984" xlink:href="#DejaVuSans-30"/>
      <use x="99.707031" xlink:href="#DejaVuSans-2e"/>
      <use x="131.494141" xlink:href="#DejaVuSans-34"/>
     </g>
    </g>
   </g>
  </g>
 </g>
 <defs>
  <clipPath id="pcd3ca1aee3">
   <rect height="326.16" width="837" x="36.465625" y="22.318125"/>
  </clipPath>
 </defs>
</svg>
