<?xml version="1.0" encoding="utf-8" standalone="no"?>
<!DOCTYPE svg PUBLIC "-//W3C//DTD SVG 1.1//EN"
  "http://www.w3.org/Graphics/SVG/1.1/DTD/svg11.dtd">
<svg height="372.35625pt" version="1.1" viewBox="0 0 898.160938 372.35625" width="898.160938pt" xmlns="http://www.w3.org/2000/svg" xmlns:xlink="http://www.w3.org/1999/xlink">
 <metadata>
  <rdf:RDF xmlns:cc="http://creativecommons.org/ns#" xmlns:dc="http://purl.org/dc/elements/1.1/" xmlns:rdf="http://www.w3.org/1999/02/22-rdf-syntax-ns#">
   <cc:Work>
    <dc:type rdf:resource="http://purl.org/dc/dcmitype/StillImage"/>
    <dc:date>2022-09-30T10:52:46.671185</dc:date>
    <dc:format>image/svg+xml</dc:format>
    <dc:creator>
     <cc:Agent>
      <dc:title>Matplotlib v3.4.3, https://matplotlib.org/</dc:title>
     </cc:Agent>
    </dc:creator>
   </cc:Work>
  </rdf:RDF>
 </metadata>
 <defs>
  <style type="text/css">*{stroke-linecap:butt;stroke-linejoin:round;}</style>
 </defs>
 <g id="figure_1">
  <g id="patch_1">
   <path d="M 0 372.35625 
L 898.160938 372.35625 
L 898.160938 0 
L 0 0 
z
" style="fill:#ffffff;"/>
  </g>
  <g id="axes_1">
   <g id="patch_2">
    <path d="M 36.465625 348.478125 
L 873.465625 348.478125 
L 873.465625 22.318125 
L 36.465625 22.318125 
z
" style="fill:#ffffff;"/>
   </g>
   <g id="matplotlib.axis_1">
    <g id="xtick_1">
     <g id="line2d_1">
      <defs>
       <path d="M 0 0 
L 0 3.5 
" id="m541cfad8e4" style="stroke:#000000;stroke-width:0.8;"/>
      </defs>
      <g>
       <use style="stroke:#000000;stroke-width:0.8;" x="36.465625" xlink:href="#m541cfad8e4" y="348.478125"/>
      </g>
     </g>
     <g id="text_1">
      <!-- 6612.5 -->
      <g transform="translate(18.970313 363.076563)scale(0.1 -0.1)">
       <defs>
        <path d="M 2113 2584 
Q 1688 2584 1439 2293 
Q 1191 2003 1191 1497 
Q 1191 994 1439 701 
Q 1688 409 2113 409 
Q 2538 409 2786 701 
Q 3034 994 3034 1497 
Q 3034 2003 2786 2293 
Q 2538 2584 2113 2584 
z
M 3366 4563 
L 3366 3988 
Q 3128 4100 2886 4159 
Q 2644 4219 2406 4219 
Q 1781 4219 1451 3797 
Q 1122 3375 1075 2522 
Q 1259 2794 1537 2939 
Q 1816 3084 2150 3084 
Q 2853 3084 3261 2657 
Q 3669 2231 3669 1497 
Q 3669 778 3244 343 
Q 2819 -91 2113 -91 
Q 1303 -91 875 529 
Q 447 1150 447 2328 
Q 447 3434 972 4092 
Q 1497 4750 2381 4750 
Q 2619 4750 2861 4703 
Q 3103 4656 3366 4563 
z
" id="DejaVuSans-36" transform="scale(0.015625)"/>
        <path d="M 794 531 
L 1825 531 
L 1825 4091 
L 703 3866 
L 703 4441 
L 1819 4666 
L 2450 4666 
L 2450 531 
L 3481 531 
L 3481 0 
L 794 0 
L 794 531 
z
" id="DejaVuSans-31" transform="scale(0.015625)"/>
        <path d="M 1228 531 
L 3431 531 
L 3431 0 
L 469 0 
L 469 531 
Q 828 903 1448 1529 
Q 2069 2156 2228 2338 
Q 2531 2678 2651 2914 
Q 2772 3150 2772 3378 
Q 2772 3750 2511 3984 
Q 2250 4219 1831 4219 
Q 1534 4219 1204 4116 
Q 875 4013 500 3803 
L 500 4441 
Q 881 4594 1212 4672 
Q 1544 4750 1819 4750 
Q 2544 4750 2975 4387 
Q 3406 4025 3406 3419 
Q 3406 3131 3298 2873 
Q 3191 2616 2906 2266 
Q 2828 2175 2409 1742 
Q 1991 1309 1228 531 
z
" id="DejaVuSans-32" transform="scale(0.015625)"/>
        <path d="M 684 794 
L 1344 794 
L 1344 0 
L 684 0 
L 684 794 
z
" id="DejaVuSans-2e" transform="scale(0.015625)"/>
        <path d="M 691 4666 
L 3169 4666 
L 3169 4134 
L 1269 4134 
L 1269 2991 
Q 1406 3038 1543 3061 
Q 1681 3084 1819 3084 
Q 2600 3084 3056 2656 
Q 3513 2228 3513 1497 
Q 3513 744 3044 326 
Q 2575 -91 1722 -91 
Q 1428 -91 1123 -41 
Q 819 9 494 109 
L 494 744 
Q 775 591 1075 516 
Q 1375 441 1709 441 
Q 2250 441 2565 725 
Q 2881 1009 2881 1497 
Q 2881 1984 2565 2268 
Q 2250 2553 1709 2553 
Q 1456 2553 1204 2497 
Q 953 2441 691 2322 
L 691 4666 
z
" id="DejaVuSans-35" transform="scale(0.015625)"/>
       </defs>
       <use xlink:href="#DejaVuSans-36"/>
       <use x="63.623047" xlink:href="#DejaVuSans-36"/>
       <use x="127.246094" xlink:href="#DejaVuSans-31"/>
       <use x="190.869141" xlink:href="#DejaVuSans-32"/>
       <use x="254.492188" xlink:href="#DejaVuSans-2e"/>
       <use x="286.279297" xlink:href="#DejaVuSans-35"/>
      </g>
     </g>
    </g>
    <g id="xtick_2">
     <g id="line2d_2">
      <g>
       <use style="stroke:#000000;stroke-width:0.8;" x="175.965625" xlink:href="#m541cfad8e4" y="348.478125"/>
      </g>
     </g>
     <g id="text_2">
      <!-- 6613.0 -->
      <g transform="translate(158.470313 363.076563)scale(0.1 -0.1)">
       <defs>
        <path d="M 2597 2516 
Q 3050 2419 3304 2112 
Q 3559 1806 3559 1356 
Q 3559 666 3084 287 
Q 2609 -91 1734 -91 
Q 1441 -91 1130 -33 
Q 819 25 488 141 
L 488 750 
Q 750 597 1062 519 
Q 1375 441 1716 441 
Q 2309 441 2620 675 
Q 2931 909 2931 1356 
Q 2931 1769 2642 2001 
Q 2353 2234 1838 2234 
L 1294 2234 
L 1294 2753 
L 1863 2753 
Q 2328 2753 2575 2939 
Q 2822 3125 2822 3475 
Q 2822 3834 2567 4026 
Q 2313 4219 1838 4219 
Q 1578 4219 1281 4162 
Q 984 4106 628 3988 
L 628 4550 
Q 988 4650 1302 4700 
Q 1616 4750 1894 4750 
Q 2613 4750 3031 4423 
Q 3450 4097 3450 3541 
Q 3450 3153 3228 2886 
Q 3006 2619 2597 2516 
z
" id="DejaVuSans-33" transform="scale(0.015625)"/>
        <path d="M 2034 4250 
Q 1547 4250 1301 3770 
Q 1056 3291 1056 2328 
Q 1056 1369 1301 889 
Q 1547 409 2034 409 
Q 2525 409 2770 889 
Q 3016 1369 3016 2328 
Q 3016 3291 2770 3770 
Q 2525 4250 2034 4250 
z
M 2034 4750 
Q 2819 4750 3233 4129 
Q 3647 3509 3647 2328 
Q 3647 1150 3233 529 
Q 2819 -91 2034 -91 
Q 1250 -91 836 529 
Q 422 1150 422 2328 
Q 422 3509 836 4129 
Q 1250 4750 2034 4750 
z
" id="DejaVuSans-30" transform="scale(0.015625)"/>
       </defs>
       <use xlink:href="#DejaVuSans-36"/>
       <use x="63.623047" xlink:href="#DejaVuSans-36"/>
       <use x="127.246094" xlink:href="#DejaVuSans-31"/>
       <use x="190.869141" xlink:href="#DejaVuSans-33"/>
       <use x="254.492188" xlink:href="#DejaVuSans-2e"/>
       <use x="286.279297" xlink:href="#DejaVuSans-30"/>
      </g>
     </g>
    </g>
    <g id="xtick_3">
     <g id="line2d_3">
      <g>
       <use style="stroke:#000000;stroke-width:0.8;" x="315.465625" xlink:href="#m541cfad8e4" y="348.478125"/>
      </g>
     </g>
     <g id="text_3">
      <!-- 6613.5 -->
      <g transform="translate(297.970313 363.076563)scale(0.1 -0.1)">
       <use xlink:href="#DejaVuSans-36"/>
       <use x="63.623047" xlink:href="#DejaVuSans-36"/>
       <use x="127.246094" xlink:href="#DejaVuSans-31"/>
       <use x="190.869141" xlink:href="#DejaVuSans-33"/>
       <use x="254.492188" xlink:href="#DejaVuSans-2e"/>
       <use x="286.279297" xlink:href="#DejaVuSans-35"/>
      </g>
     </g>
    </g>
    <g id="xtick_4">
     <g id="line2d_4">
      <g>
       <use style="stroke:#000000;stroke-width:0.8;" x="454.965625" xlink:href="#m541cfad8e4" y="348.478125"/>
      </g>
     </g>
     <g id="text_4">
      <!-- 6614.0 -->
      <g transform="translate(437.470313 363.076563)scale(0.1 -0.1)">
       <defs>
        <path d="M 2419 4116 
L 825 1625 
L 2419 1625 
L 2419 4116 
z
M 2253 4666 
L 3047 4666 
L 3047 1625 
L 3713 1625 
L 3713 1100 
L 3047 1100 
L 3047 0 
L 2419 0 
L 2419 1100 
L 313 1100 
L 313 1709 
L 2253 4666 
z
" id="DejaVuSans-34" transform="scale(0.015625)"/>
       </defs>
       <use xlink:href="#DejaVuSans-36"/>
       <use x="63.623047" xlink:href="#DejaVuSans-36"/>
       <use x="127.246094" xlink:href="#DejaVuSans-31"/>
       <use x="190.869141" xlink:href="#DejaVuSans-34"/>
       <use x="254.492188" xlink:href="#DejaVuSans-2e"/>
       <use x="286.279297" xlink:href="#DejaVuSans-30"/>
      </g>
     </g>
    </g>
    <g id="xtick_5">
     <g id="line2d_5">
      <g>
       <use style="stroke:#000000;stroke-width:0.8;" x="594.465625" xlink:href="#m541cfad8e4" y="348.478125"/>
      </g>
     </g>
     <g id="text_5">
      <!-- 6614.5 -->
      <g transform="translate(576.970313 363.076563)scale(0.1 -0.1)">
       <use xlink:href="#DejaVuSans-36"/>
       <use x="63.623047" xlink:href="#DejaVuSans-36"/>
       <use x="127.246094" xlink:href="#DejaVuSans-31"/>
       <use x="190.869141" xlink:href="#DejaVuSans-34"/>
       <use x="254.492188" xlink:href="#DejaVuSans-2e"/>
       <use x="286.279297" xlink:href="#DejaVuSans-35"/>
      </g>
     </g>
    </g>
    <g id="xtick_6">
     <g id="line2d_6">
      <g>
       <use style="stroke:#000000;stroke-width:0.8;" x="733.965625" xlink:href="#m541cfad8e4" y="348.478125"/>
      </g>
     </g>
     <g id="text_6">
      <!-- 6615.0 -->
      <g transform="translate(716.470313 363.076563)scale(0.1 -0.1)">
       <use xlink:href="#DejaVuSans-36"/>
       <use x="63.623047" xlink:href="#DejaVuSans-36"/>
       <use x="127.246094" xlink:href="#DejaVuSans-31"/>
       <use x="190.869141" xlink:href="#DejaVuSans-35"/>
       <use x="254.492188" xlink:href="#DejaVuSans-2e"/>
       <use x="286.279297" xlink:href="#DejaVuSans-30"/>
      </g>
     </g>
    </g>
    <g id="xtick_7">
     <g id="line2d_7">
      <g>
       <use style="stroke:#000000;stroke-width:0.8;" x="873.465625" xlink:href="#m541cfad8e4" y="348.478125"/>
      </g>
     </g>
     <g id="text_7">
      <!-- 6615.5 -->
      <g transform="translate(855.970313 363.076563)scale(0.1 -0.1)">
       <use xlink:href="#DejaVuSans-36"/>
       <use x="63.623047" xlink:href="#DejaVuSans-36"/>
       <use x="127.246094" xlink:href="#DejaVuSans-31"/>
       <use x="190.869141" xlink:href="#DejaVuSans-35"/>
       <use x="254.492188" xlink:href="#DejaVuSans-2e"/>
       <use x="286.279297" xlink:href="#DejaVuSans-35"/>
      </g>
     </g>
    </g>
   </g>
   <g id="matplotlib.axis_2">
    <g id="ytick_1">
     <g id="line2d_8">
      <defs>
       <path d="M 0 0 
L -3.5 0 
" id="m7b940d7390" style="stroke:#000000;stroke-width:0.8;"/>
      </defs>
      <g>
       <use style="stroke:#000000;stroke-width:0.8;" x="36.465625" xlink:href="#m7b940d7390" y="333.65267"/>
      </g>
     </g>
     <g id="text_8">
      <!-- 0.92 -->
      <g transform="translate(7.2 337.451889)scale(0.1 -0.1)">
       <defs>
        <path d="M 703 97 
L 703 672 
Q 941 559 1184 500 
Q 1428 441 1663 441 
Q 2288 441 2617 861 
Q 2947 1281 2994 2138 
Q 2813 1869 2534 1725 
Q 2256 1581 1919 1581 
Q 1219 1581 811 2004 
Q 403 2428 403 3163 
Q 403 3881 828 4315 
Q 1253 4750 1959 4750 
Q 2769 4750 3195 4129 
Q 3622 3509 3622 2328 
Q 3622 1225 3098 567 
Q 2575 -91 1691 -91 
Q 1453 -91 1209 -44 
Q 966 3 703 97 
z
M 1959 2075 
Q 2384 2075 2632 2365 
Q 2881 2656 2881 3163 
Q 2881 3666 2632 3958 
Q 2384 4250 1959 4250 
Q 1534 4250 1286 3958 
Q 1038 3666 1038 3163 
Q 1038 2656 1286 2365 
Q 1534 2075 1959 2075 
z
" id="DejaVuSans-39" transform="scale(0.015625)"/>
       </defs>
       <use xlink:href="#DejaVuSans-30"/>
       <use x="63.623047" xlink:href="#DejaVuSans-2e"/>
       <use x="95.410156" xlink:href="#DejaVuSans-39"/>
       <use x="159.033203" xlink:href="#DejaVuSans-32"/>
      </g>
     </g>
    </g>
    <g id="ytick_2">
     <g id="line2d_9">
      <g>
       <use style="stroke:#000000;stroke-width:0.8;" x="36.465625" xlink:href="#m7b940d7390" y="296.589034"/>
      </g>
     </g>
     <g id="text_9">
      <!-- 0.93 -->
      <g transform="translate(7.2 300.388253)scale(0.1 -0.1)">
       <use xlink:href="#DejaVuSans-30"/>
       <use x="63.623047" xlink:href="#DejaVuSans-2e"/>
       <use x="95.410156" xlink:href="#DejaVuSans-39"/>
       <use x="159.033203" xlink:href="#DejaVuSans-33"/>
      </g>
     </g>
    </g>
    <g id="ytick_3">
     <g id="line2d_10">
      <g>
       <use style="stroke:#000000;stroke-width:0.8;" x="36.465625" xlink:href="#m7b940d7390" y="259.525398"/>
      </g>
     </g>
     <g id="text_10">
      <!-- 0.94 -->
      <g transform="translate(7.2 263.324616)scale(0.1 -0.1)">
       <use xlink:href="#DejaVuSans-30"/>
       <use x="63.623047" xlink:href="#DejaVuSans-2e"/>
       <use x="95.410156" xlink:href="#DejaVuSans-39"/>
       <use x="159.033203" xlink:href="#DejaVuSans-34"/>
      </g>
     </g>
    </g>
    <g id="ytick_4">
     <g id="line2d_11">
      <g>
       <use style="stroke:#000000;stroke-width:0.8;" x="36.465625" xlink:href="#m7b940d7390" y="222.461761"/>
      </g>
     </g>
     <g id="text_11">
      <!-- 0.95 -->
      <g transform="translate(7.2 226.26098)scale(0.1 -0.1)">
       <use xlink:href="#DejaVuSans-30"/>
       <use x="63.623047" xlink:href="#DejaVuSans-2e"/>
       <use x="95.410156" xlink:href="#DejaVuSans-39"/>
       <use x="159.033203" xlink:href="#DejaVuSans-35"/>
      </g>
     </g>
    </g>
    <g id="ytick_5">
     <g id="line2d_12">
      <g>
       <use style="stroke:#000000;stroke-width:0.8;" x="36.465625" xlink:href="#m7b940d7390" y="185.398125"/>
      </g>
     </g>
     <g id="text_12">
      <!-- 0.96 -->
      <g transform="translate(7.2 189.197344)scale(0.1 -0.1)">
       <use xlink:href="#DejaVuSans-30"/>
       <use x="63.623047" xlink:href="#DejaVuSans-2e"/>
       <use x="95.410156" xlink:href="#DejaVuSans-39"/>
       <use x="159.033203" xlink:href="#DejaVuSans-36"/>
      </g>
     </g>
    </g>
    <g id="ytick_6">
     <g id="line2d_13">
      <g>
       <use style="stroke:#000000;stroke-width:0.8;" x="36.465625" xlink:href="#m7b940d7390" y="148.334489"/>
      </g>
     </g>
     <g id="text_13">
      <!-- 0.97 -->
      <g transform="translate(7.2 152.133707)scale(0.1 -0.1)">
       <defs>
        <path d="M 525 4666 
L 3525 4666 
L 3525 4397 
L 1831 0 
L 1172 0 
L 2766 4134 
L 525 4134 
L 525 4666 
z
" id="DejaVuSans-37" transform="scale(0.015625)"/>
       </defs>
       <use xlink:href="#DejaVuSans-30"/>
       <use x="63.623047" xlink:href="#DejaVuSans-2e"/>
       <use x="95.410156" xlink:href="#DejaVuSans-39"/>
       <use x="159.033203" xlink:href="#DejaVuSans-37"/>
      </g>
     </g>
    </g>
    <g id="ytick_7">
     <g id="line2d_14">
      <g>
       <use style="stroke:#000000;stroke-width:0.8;" x="36.465625" xlink:href="#m7b940d7390" y="111.270852"/>
      </g>
     </g>
     <g id="text_14">
      <!-- 0.98 -->
      <g transform="translate(7.2 115.070071)scale(0.1 -0.1)">
       <defs>
        <path d="M 2034 2216 
Q 1584 2216 1326 1975 
Q 1069 1734 1069 1313 
Q 1069 891 1326 650 
Q 1584 409 2034 409 
Q 2484 409 2743 651 
Q 3003 894 3003 1313 
Q 3003 1734 2745 1975 
Q 2488 2216 2034 2216 
z
M 1403 2484 
Q 997 2584 770 2862 
Q 544 3141 544 3541 
Q 544 4100 942 4425 
Q 1341 4750 2034 4750 
Q 2731 4750 3128 4425 
Q 3525 4100 3525 3541 
Q 3525 3141 3298 2862 
Q 3072 2584 2669 2484 
Q 3125 2378 3379 2068 
Q 3634 1759 3634 1313 
Q 3634 634 3220 271 
Q 2806 -91 2034 -91 
Q 1263 -91 848 271 
Q 434 634 434 1313 
Q 434 1759 690 2068 
Q 947 2378 1403 2484 
z
M 1172 3481 
Q 1172 3119 1398 2916 
Q 1625 2713 2034 2713 
Q 2441 2713 2670 2916 
Q 2900 3119 2900 3481 
Q 2900 3844 2670 4047 
Q 2441 4250 2034 4250 
Q 1625 4250 1398 4047 
Q 1172 3844 1172 3481 
z
" id="DejaVuSans-38" transform="scale(0.015625)"/>
       </defs>
       <use xlink:href="#DejaVuSans-30"/>
       <use x="63.623047" xlink:href="#DejaVuSans-2e"/>
       <use x="95.410156" xlink:href="#DejaVuSans-39"/>
       <use x="159.033203" xlink:href="#DejaVuSans-38"/>
      </g>
     </g>
    </g>
    <g id="ytick_8">
     <g id="line2d_15">
      <g>
       <use style="stroke:#000000;stroke-width:0.8;" x="36.465625" xlink:href="#m7b940d7390" y="74.207216"/>
      </g>
     </g>
     <g id="text_15">
      <!-- 0.99 -->
      <g transform="translate(7.2 78.006435)scale(0.1 -0.1)">
       <use xlink:href="#DejaVuSans-30"/>
       <use x="63.623047" xlink:href="#DejaVuSans-2e"/>
       <use x="95.410156" xlink:href="#DejaVuSans-39"/>
       <use x="159.033203" xlink:href="#DejaVuSans-39"/>
      </g>
     </g>
    </g>
    <g id="ytick_9">
     <g id="line2d_16">
      <g>
       <use style="stroke:#000000;stroke-width:0.8;" x="36.465625" xlink:href="#m7b940d7390" y="37.14358"/>
      </g>
     </g>
     <g id="text_16">
      <!-- 1.00 -->
      <g transform="translate(7.2 40.942798)scale(0.1 -0.1)">
       <use xlink:href="#DejaVuSans-31"/>
       <use x="63.623047" xlink:href="#DejaVuSans-2e"/>
       <use x="95.410156" xlink:href="#DejaVuSans-30"/>
       <use x="159.033203" xlink:href="#DejaVuSans-30"/>
      </g>
     </g>
    </g>
   </g>
   <g id="line2d_17">
    <path clip-path="url(#p74acabc92c)" d="M 784.635169 37.14358 
L 673.175798 37.252388 
L 655.661978 37.512209 
L 643.720928 37.903176 
L 634.964256 38.391831 
L 627.799768 38.995206 
L 621.43138 39.758513 
L 615.859078 40.670414 
L 611.082845 41.69177 
L 607.10267 42.755087 
L 603.122512 44.051621 
L 599.142372 45.623208 
L 595.958272 47.108434 
L 592.774182 48.821707 
L 589.590104 50.786394 
L 586.406037 53.024995 
L 583.221981 55.558337 
L 580.037935 58.404753 
L 576.853901 61.579276 
L 573.669878 65.092932 
L 570.485866 68.952163 
L 567.301864 73.158419 
L 564.117874 77.707976 
L 560.933895 82.591945 
L 556.953936 89.145671 
L 552.973995 96.163121 
L 548.99407 103.597935 
L 544.218184 112.993992 
L 538.646347 124.476249 
L 531.482607 139.777873 
L 517.155294 170.539255 
L 511.583621 181.889348 
L 507.603875 189.562526 
L 503.624146 196.761806 
L 500.440375 202.113493 
L 497.256616 207.049605 
L 494.072867 211.524389 
L 491.685063 214.552978 
L 489.297265 217.28433 
L 486.909473 219.706539 
L 484.521687 221.811045 
L 482.133908 223.593221 
L 479.746135 225.05298 
L 477.358367 226.195376 
L 474.970606 227.031179 
L 472.582852 227.577413 
L 470.195103 227.857821 
L 467.807361 227.903232 
L 465.419624 227.751804 
L 462.235986 227.323502 
L 452.685135 225.811764 
L 450.297438 225.747065 
L 447.909747 225.96035 
L 446.317957 226.295556 
L 444.726169 226.811569 
L 443.134384 227.530082 
L 441.542602 228.47156 
L 439.950822 229.654855 
L 438.359045 231.096816 
L 436.767271 232.811887 
L 435.1755 234.811717 
L 433.583731 237.104777 
L 431.991965 239.695992 
L 429.604322 244.143018 
L 427.216685 249.247963 
L 424.829053 254.973696 
L 422.441428 261.259228 
L 419.257938 270.360372 
L 415.27859 282.509657 
L 408.91167 302.129516 
L 405.728226 311.171866 
L 403.34065 317.27618 
L 400.953081 322.613631 
L 399.361371 325.670073 
L 397.769665 328.277678 
L 396.177961 330.401299 
L 394.586259 332.011375 
L 392.994561 333.084507 
L 392.198713 333.414211 
L 391.402865 333.603932 
L 390.607018 333.65267 
L 389.811172 333.559879 
L 389.015326 333.325466 
L 388.219482 332.949798 
L 387.423638 332.433701 
L 385.831951 330.98579 
L 384.240268 328.997345 
L 382.648587 326.49093 
L 381.056909 323.49568 
L 379.465234 320.046811 
L 377.873562 316.185005 
L 375.486058 309.718571 
L 373.098561 302.595542 
L 369.915241 292.394189 
L 360.365346 261.179184 
L 357.977888 254.137747 
L 355.590436 247.680952 
L 353.20299 241.907445 
L 350.81555 236.889103 
L 349.223927 233.986292 
L 347.632307 231.446253 
L 346.040689 229.270649 
L 344.449074 227.456374 
L 342.857462 225.995874 
L 341.265853 224.877518 
L 339.674247 224.08601 
L 338.082643 223.602819 
L 336.491042 223.406634 
L 334.899443 223.47382 
L 333.307848 223.778872 
L 331.716255 224.294863 
L 330.124665 224.993871 
L 327.737285 226.323106 
L 325.349911 227.903189 
L 321.370969 230.836952 
L 316.59626 234.349162 
L 313.413135 236.395052 
L 311.025798 237.662275 
L 308.638468 238.639589 
L 307.046917 239.107444 
L 305.45537 239.415073 
L 303.863825 239.553028 
L 302.272283 239.513524 
L 300.680744 239.290378 
L 299.089207 238.878939 
L 297.497673 238.276009 
L 295.906142 237.479759 
L 294.314614 236.489646 
L 292.723088 235.306318 
L 290.335805 233.173163 
L 287.948528 230.61954 
L 285.561257 227.659968 
L 283.173993 224.312725 
L 280.786734 220.599207 
L 278.399482 216.543318 
L 275.216489 210.64777 
L 272.033506 204.254629 
L 268.054793 195.666414 
L 264.076098 186.539713 
L 258.505953 173.10779 
L 250.548662 153.216231 
L 241.000002 129.415205 
L 235.429997 116.091487 
L 230.655733 105.237868 
L 226.677199 96.700541 
L 222.698682 88.701017 
L 219.515881 82.729525 
L 216.33309 77.165716 
L 213.150311 72.027932 
L 209.967543 67.327548 
L 206.784785 63.068592 
L 203.602039 59.247661 
L 200.419304 55.854176 
L 197.236579 52.870962 
L 194.053866 50.275131 
L 190.871163 48.039192 
L 187.688472 46.132308 
L 184.505791 44.521608 
L 181.323122 43.173456 
L 178.140463 42.05461 
L 174.162155 40.930156 
L 170.183865 40.05695 
L 165.409939 39.269907 
L 159.84039 38.620146 
L 153.475232 38.123246 
L 145.518846 37.735903 
L 134.380022 37.437444 
L 117.672037 37.239813 
L 88.234896 37.151802 
L -1 37.14358 
L -1 37.14358 
" style="fill:none;stroke:#ea916e;stroke-linecap:square;"/>
   </g>
   <g id="line2d_18">
    <path clip-path="url(#p74acabc92c)" d="M 785.321938 37.14358 
L 684.145354 37.251891 
L 667.416436 37.498781 
L 654.670798 37.903393 
L 645.111685 38.415041 
L 637.145833 39.05061 
L 630.773201 39.754465 
L 625.197184 40.56311 
L 619.6212 41.606367 
L 614.841813 42.736706 
L 610.859009 43.882397 
L 606.876222 45.247685 
L 602.893453 46.868011 
L 599.707249 48.373195 
L 596.521057 50.08562 
L 593.334876 52.025184 
L 590.148705 54.211211 
L 586.962546 56.661816 
L 583.776398 59.393238 
L 580.590261 62.419169 
L 577.404134 65.750122 
L 574.218019 69.392891 
L 571.031915 73.35013 
L 567.845821 77.62009 
L 563.86322 83.387362 
L 559.880636 89.611328 
L 555.89807 96.26018 
L 551.119012 104.742033 
L 546.33998 113.693347 
L 540.764473 124.602473 
L 532.799522 140.738554 
L 519.259262 168.245425 
L 513.683919 179.025962 
L 508.90508 187.755946 
L 504.922734 194.5574 
L 501.736869 199.627573 
L 498.551015 204.323459 
L 495.365172 208.607825 
L 492.17934 212.448902 
L 489.789973 215.02382 
L 487.400612 217.32865 
L 485.011258 219.36009 
L 482.62191 221.118904 
L 480.232567 222.610447 
L 477.843232 223.845153 
L 475.453902 224.838978 
L 473.064579 225.613771 
L 470.675261 226.197555 
L 467.489514 226.739103 
L 462.710915 227.25218 
L 457.93234 227.779198 
L 454.746637 228.377206 
L 452.357368 229.065719 
L 449.968104 230.034446 
L 448.375265 230.86851 
L 446.782429 231.875084 
L 445.189595 233.071857 
L 443.596764 234.475188 
L 442.003936 236.099763 
L 440.411111 237.958258 
L 438.818289 240.06099 
L 436.42906 243.688887 
L 434.039838 247.895407 
L 431.650621 252.675676 
L 429.261411 258.005418 
L 426.872208 263.839604 
L 423.686612 272.285208 
L 419.704633 283.598068 
L 411.740727 306.486599 
L 409.351568 312.761493 
L 406.962416 318.474799 
L 404.57327 323.468989 
L 402.980509 326.32628 
L 401.387751 328.759726 
L 399.794996 330.734475 
L 398.202244 332.220581 
L 396.609494 333.193615 
L 395.81312 333.481732 
L 395.016747 333.63518 
L 394.220375 333.65267 
L 393.424003 333.53334 
L 392.627632 333.276755 
L 391.831262 332.882919 
L 391.034892 332.352272 
L 389.442155 330.884501 
L 387.84942 328.885714 
L 386.256689 326.375034 
L 384.66396 323.378174 
L 383.071233 319.927048 
L 381.47851 316.059269 
L 379.08943 309.571011 
L 376.700356 302.404248 
L 373.514934 292.102436 
L 363.162387 257.847611 
L 360.773354 250.81074 
L 358.384328 244.403455 
L 355.995308 238.727352 
L 354.402631 235.387448 
L 352.809957 232.421477 
L 351.217285 229.839263 
L 349.624617 227.645324 
L 348.031951 225.839075 
L 346.439288 224.41511 
L 344.846628 223.363528 
L 343.25397 222.67032 
L 341.661316 222.317788 
L 340.068663 222.284988 
L 338.476014 222.548193 
L 336.883368 223.081358 
L 335.290724 223.856592 
L 333.698083 224.844606 
L 331.309126 226.65927 
L 328.920176 228.780557 
L 324.938606 232.716484 
L 319.364437 238.306515 
L 316.179213 241.160725 
L 313.790302 243.002927 
L 311.401397 244.520432 
L 309.808797 245.325841 
L 308.2162 245.950897 
L 306.623606 246.384551 
L 305.031014 246.617579 
L 303.438426 246.642528 
L 301.84584 246.453645 
L 300.253256 246.046808 
L 298.660676 245.419442 
L 297.068098 244.570433 
L 295.475523 243.500036 
L 293.882951 242.209781 
L 292.290381 240.702381 
L 289.901532 238.042709 
L 287.512689 234.920117 
L 285.123852 231.355783 
L 282.735021 227.374479 
L 280.346197 223.00391 
L 277.161107 216.623084 
L 273.976029 209.679411 
L 270.790961 202.251772 
L 266.809642 192.408871 
L 262.032082 179.98391 
L 254.865788 160.631567 
L 244.514573 132.638889 
L 238.94089 118.218401 
L 234.163474 106.517338 
L 230.182313 97.356378 
L 226.201169 88.818204 
L 223.016266 82.480849 
L 219.831374 76.61037 
L 216.646494 71.224756 
L 213.461624 66.333574 
L 210.276765 61.937691 
L 207.888129 58.961472 
L 205.499498 56.253365 
L 203.110873 53.804672 
L 200.722255 51.604558 
L 198.333643 49.640355 
L 195.945037 47.897899 
L 192.760239 45.893022 
L 189.575452 44.21693 
L 186.390675 42.830591 
L 183.20591 41.695494 
L 180.021156 40.774827 
L 176.040229 39.873739 
L 172.059318 39.194965 
L 167.282249 38.603245 
L 161.709032 38.133053 
L 154.543518 37.754524 
L 144.193428 37.457546 
L 128.27044 37.256781 
L 99.609754 37.156437 
L -1 37.14358 
L -1 37.14358 
" style="fill:none;stroke:#e5715e;stroke-linecap:square;"/>
   </g>
   <g id="line2d_19">
    <path clip-path="url(#p74acabc92c)" d="M 835.155232 37.14358 
L 734.489343 37.253005 
L 715.880046 37.516496 
L 700.654536 37.955475 
L 687.966803 38.537626 
L 676.970909 39.258054 
L 667.666793 40.0796 
L 659.208587 41.050642 
L 651.596268 42.160399 
L 644.829815 43.382644 
L 638.90921 44.674645 
L 632.988642 46.215726 
L 627.9139 47.769834 
L 622.839186 49.574221 
L 618.610279 51.295848 
L 614.381391 53.240661 
L 610.152523 55.433722 
L 605.923674 57.901135 
L 601.694844 60.669326 
L 597.466034 63.764081 
L 594.083 66.491189 
L 590.699978 69.453495 
L 587.316969 72.659989 
L 583.933972 76.117343 
L 579.705243 80.797433 
L 575.476534 85.87588 
L 571.247844 91.344674 
L 567.019173 97.186928 
L 562.790522 103.377116 
L 557.716166 111.217129 
L 551.796119 120.841894 
L 545.030398 132.314563 
L 534.881909 150.033223 
L 523.042147 170.641095 
L 516.276637 182.001693 
L 510.356856 191.518163 
L 505.282788 199.281075 
L 500.208749 206.631251 
L 495.134737 213.544216 
L 490.060753 220.024024 
L 484.986797 226.110723 
L 479.067217 232.827672 
L 464.691252 248.858815 
L 460.46307 254.008012 
L 457.080538 258.434677 
L 453.698019 263.199602 
L 450.315511 268.348501 
L 446.933017 273.906462 
L 443.550534 279.870887 
L 439.322449 287.837772 
L 433.403162 299.626886 
L 427.483913 311.402313 
L 424.101502 317.67626 
L 421.564702 321.9631 
L 419.027909 325.757342 
L 417.336717 327.952849 
L 415.645529 329.839671 
L 413.954343 331.38369 
L 412.263161 332.552836 
L 410.571982 333.31779 
L 408.880806 333.65267 
L 408.035219 333.651851 
L 407.189633 333.535704 
L 406.344047 333.302253 
L 404.652879 332.477206 
L 402.961714 331.167812 
L 401.270552 329.371173 
L 399.579393 327.090745 
L 397.888237 324.336566 
L 396.197084 321.125371 
L 394.505934 317.480573 
L 392.814788 313.432113 
L 390.278074 306.683305 
L 387.741367 299.255103 
L 384.359101 288.592567 
L 374.21238 255.891065 
L 371.675717 248.62491 
L 369.139061 242.095568 
L 367.447961 238.227556 
L 365.756864 234.792224 
L 364.06577 231.821002 
L 362.374679 229.338735 
L 360.683591 227.363443 
L 358.992507 225.906201 
L 357.301425 224.971142 
L 356.455886 224.69885 
L 355.610347 224.55557 
L 354.764809 224.539934 
L 353.919271 224.650181 
L 353.073735 224.884167 
L 351.382664 225.71295 
L 349.691597 227.002013 
L 348.000532 228.721915 
L 346.309471 230.838593 
L 344.618413 233.313948 
L 342.927357 236.106455 
L 340.390781 240.792298 
L 337.008689 247.719838 
L 326.016976 271.111048 
L 323.480446 275.767231 
L 320.943922 279.850887 
L 319.252911 282.198041 
L 317.561902 284.209594 
L 315.870896 285.859038 
L 314.179894 287.123382 
L 312.488895 287.983232 
L 310.797898 288.422833 
L 309.106905 288.430087 
L 307.415915 287.99654 
L 305.724928 287.117338 
L 304.033944 285.791163 
L 302.342963 284.020135 
L 300.651986 281.809693 
L 298.961011 279.168458 
L 297.27004 276.108063 
L 295.579071 272.642971 
L 293.888106 268.790268 
L 291.351664 262.327672 
L 288.815229 255.111936 
L 286.278801 247.226694 
L 282.896907 235.828905 
L 279.515026 223.629683 
L 274.442228 204.33893 
L 261.760355 155.412013 
L 257.533102 140.137735 
L 254.151314 128.602825 
L 250.769539 117.773996 
L 247.387775 107.712938 
L 244.006025 98.456904 
L 241.46972 92.053334 
L 238.933422 86.11147 
L 236.397131 80.625945 
L 233.860846 75.587099 
L 231.324569 70.981687 
L 228.788299 66.793531 
L 226.252036 63.004115 
L 223.71578 59.593108 
L 221.179531 56.538827 
L 218.643289 53.818646 
L 216.107053 51.409356 
L 213.570825 49.287485 
L 211.034604 47.429581 
L 208.49839 45.812474 
L 205.962182 44.413507 
L 202.580583 42.849763 
L 199.198997 41.58553 
L 195.817422 40.574935 
L 192.435861 39.776139 
L 188.208926 39.018849 
L 183.13663 38.381943 
L 177.218986 37.904307 
L 169.610643 37.555072 
L 159.466283 37.334666 
L 140.86858 37.198241 
L 93.530662 37.144949 
L -1 37.14358 
L -1 37.14358 
" style="fill:none;stroke:#d9535d;stroke-linecap:square;"/>
   </g>
   <g id="line2d_20">
    <path clip-path="url(#p74acabc92c)" d="M 899.160938 37.144772 
L 847.387376 37.260529 
L 819.208819 37.562189 
L 793.946016 38.043981 
L 772.570339 38.667397 
L 755.081516 39.398954 
L 740.507751 40.221309 
L 727.87734 41.138916 
L 716.218653 42.198694 
L 705.531653 43.390664 
L 695.816305 44.695238 
L 687.07258 46.083103 
L 678.328938 47.709539 
L 670.55688 49.389554 
L 663.756384 51.069659 
L 656.955938 52.975684 
L 651.127024 54.814372 
L 645.298147 56.867277 
L 639.469307 59.160692 
L 633.640503 61.723109 
L 628.783195 64.085775 
L 623.925913 66.674609 
L 619.068656 69.508476 
L 614.211424 72.606585 
L 609.354218 75.988231 
L 604.497038 79.672389 
L 599.639884 83.677103 
L 594.782754 88.018625 
L 589.925651 92.710326 
L 585.068573 97.761468 
L 580.21152 103.175982 
L 575.354494 108.951466 
L 570.497492 115.078609 
L 565.640517 121.541168 
L 559.812179 129.706838 
L 553.983879 138.274159 
L 547.184242 148.702527 
L 539.413289 161.076606 
L 529.699691 177.021287 
L 497.645541 230.073965 
L 489.875005 242.244949 
L 483.075841 252.442585 
L 477.248025 260.780262 
L 471.420246 268.688676 
L 466.563792 274.905643 
L 461.707363 280.73222 
L 457.822239 285.068492 
L 453.937131 289.066909 
L 451.02331 291.808756 
L 448.109499 294.296434 
L 445.195697 296.493537 
L 442.281904 298.358116 
L 440.339381 299.393317 
L 438.396862 300.244702 
L 436.454346 300.8964 
L 434.511835 301.332042 
L 432.569328 301.535042 
L 430.626825 301.488958 
L 428.684326 301.177909 
L 426.741832 300.587061 
L 424.799341 299.70318 
L 422.856854 298.51523 
L 420.914372 297.015018 
L 418.971893 295.197871 
L 417.029419 293.063314 
L 415.086949 290.615749 
L 413.144483 287.865095 
L 411.202021 284.827361 
L 408.288335 279.783799 
L 405.374659 274.252574 
L 401.489772 266.369881 
L 394.691258 252.466396 
L 391.777625 247.068077 
L 389.835208 243.84503 
L 387.892795 241.012331 
L 385.950386 238.644437 
L 384.007981 236.811486 
L 383.03678 236.11585 
L 382.065581 235.577262 
L 381.094382 235.202369 
L 380.123184 234.997174 
L 379.151987 234.966974 
L 378.180791 235.116307 
L 377.209597 235.448901 
L 376.238403 235.967623 
L 375.26721 236.674439 
L 374.296019 237.570371 
L 373.324828 238.655468 
L 372.353638 239.928775 
L 370.411262 243.031065 
L 368.46889 246.848895 
L 366.526522 251.337193 
L 364.584158 256.434467 
L 362.641798 262.063589 
L 359.728266 271.300762 
L 355.843571 284.523687 
L 350.987725 301.119991 
L 348.07423 310.335481 
L 346.131905 315.906065 
L 344.189584 320.881916 
L 342.247267 325.157905 
L 340.304954 328.641887 
L 339.333799 330.062115 
L 338.362645 331.256637 
L 337.391493 332.218378 
L 336.420341 332.941355 
L 335.44919 333.4207 
L 334.47804 333.65267 
L 333.506892 333.63465 
L 332.535744 333.365147 
L 331.564597 332.843784 
L 330.593451 332.071273 
L 329.622307 331.049393 
L 328.651163 329.780958 
L 327.680021 328.26977 
L 326.708879 326.520582 
L 324.766599 322.331633 
L 322.824323 317.269008 
L 320.882051 311.399054 
L 318.939783 304.797417 
L 316.997519 297.546799 
L 314.084132 285.646162 
L 311.170753 272.786627 
L 306.315142 250.035285 
L 296.603997 203.913646 
L 292.719568 186.5318 
L 288.835155 170.206879 
L 285.921856 158.749727 
L 283.008566 148.002624 
L 280.095285 137.973492 
L 277.182014 128.653122 
L 274.268752 120.019806 
L 271.355499 112.043399 
L 268.442255 104.688692 
L 265.52902 97.918075 
L 262.615795 91.693537 
L 259.702579 85.978059 
L 256.789372 80.736517 
L 253.876174 75.936174 
L 250.962985 71.546878 
L 248.049806 67.54103 
L 245.136636 63.893409 
L 242.223475 60.580907 
L 239.310323 57.582211 
L 236.39718 54.877477 
L 233.484047 52.448013 
L 230.570923 50.275996 
L 227.657808 48.344224 
L 224.744702 46.635931 
L 221.831605 45.13465 
L 217.947491 43.426914 
L 214.063393 42.020421 
L 210.179311 40.878065 
L 206.295245 39.963929 
L 201.440187 39.090266 
L 196.585153 38.458116 
L 190.759147 37.94171 
L 183.962186 37.574542 
L 175.22331 37.331396 
L 161.629668 37.195086 
L 126.675507 37.146882 
L -1 37.14358 
L -1 37.14358 
" style="fill:none;stroke:#c14168;stroke-linecap:square;"/>
   </g>
   <g id="line2d_21">
    <path clip-path="url(#p74acabc92c)" d="M 899.160938 37.310768 
L 864.344895 37.673655 
L 834.299284 38.188701 
L 810.470701 38.810256 
L 790.786684 39.536047 
L 773.175025 40.408735 
L 757.635604 41.407974 
L 744.168318 42.495484 
L 731.737152 43.729579 
L 721.377974 44.969096 
L 712.054814 46.286957 
L 702.731748 47.835732 
L 694.444657 49.439653 
L 686.157641 51.288286 
L 678.906562 53.129886 
L 671.655541 55.202036 
L 664.404577 57.52702 
L 658.18951 59.740255 
L 651.974485 62.176308 
L 645.759502 64.856279 
L 639.54456 67.804067 
L 634.365474 70.484325 
L 629.186418 73.385973 
L 624.00739 76.527144 
L 618.828391 79.927032 
L 613.649422 83.605618 
L 608.470481 87.583197 
L 603.29157 91.879685 
L 598.112688 96.513639 
L 592.933834 101.50101 
L 587.75501 106.85371 
L 582.576215 112.578147 
L 577.397449 118.673937 
L 572.218712 125.133045 
L 567.040004 131.939547 
L 560.825593 140.532597 
L 554.611223 149.53997 
L 547.361179 160.490304 
L 539.075483 173.457247 
L 527.682773 191.781109 
L 508.004788 223.523391 
L 500.755109 234.808941 
L 494.541144 244.12553 
L 489.362872 251.561264 
L 484.184629 258.635666 
L 479.006416 265.288508 
L 474.863865 270.265539 
L 470.721334 274.899391 
L 466.578821 279.153787 
L 463.471948 282.071533 
L 460.365086 284.734347 
L 457.258235 287.121161 
L 454.151394 289.208465 
L 451.044563 290.970089 
L 447.937743 292.377173 
L 445.866535 293.102897 
L 443.795332 293.647442 
L 441.724134 294.000856 
L 439.65294 294.153179 
L 437.581751 294.094699 
L 435.510566 293.816281 
L 433.439387 293.309752 
L 431.368211 292.56837 
L 429.297041 291.587342 
L 427.225875 290.364414 
L 425.154714 288.900497 
L 423.083558 287.200322 
L 421.012406 285.273109 
L 417.905687 281.989529 
L 414.798978 278.301809 
L 410.656716 272.943257 
L 403.407802 263.389548 
L 400.301143 259.742546 
L 398.230042 257.629741 
L 396.158946 255.854657 
L 394.087854 254.487112 
L 393.05231 253.977079 
L 392.016768 253.593378 
L 390.981226 253.343349 
L 389.945685 253.233811 
L 388.910146 253.270984 
L 387.874608 253.460412 
L 386.839071 253.806897 
L 385.803535 254.314423 
L 384.768 254.986093 
L 383.732467 255.824069 
L 382.696935 256.829513 
L 380.625873 259.342186 
L 378.554817 262.511781 
L 376.483765 266.307661 
L 374.412718 270.680511 
L 372.341675 275.562588 
L 369.23512 283.649611 
L 365.093062 295.291566 
L 359.915517 309.797994 
L 357.844507 315.148538 
L 355.773501 320.037351 
L 353.702501 324.337421 
L 351.631505 327.932707 
L 350.596008 329.433588 
L 349.560513 330.721329 
L 348.525019 331.785851 
L 347.489526 332.618259 
L 346.454035 333.2109 
L 345.418544 333.557395 
L 344.383055 333.65267 
L 343.347567 333.492972 
L 342.31208 333.075872 
L 341.276594 332.400259 
L 340.241109 331.466325 
L 339.205625 330.275534 
L 338.170143 328.83059 
L 337.134662 327.135385 
L 336.099182 325.194945 
L 334.028225 320.603762 
L 331.957273 315.117407 
L 329.886326 308.809747 
L 327.815383 301.765411 
L 325.744445 294.076905 
L 322.638047 281.550283 
L 318.496199 263.514849 
L 311.248009 230.385985 
L 306.070766 207.067329 
L 301.928992 189.306817 
L 297.787237 172.649621 
L 294.680933 160.977944 
L 291.574639 150.044703 
L 288.468356 139.854328 
L 285.362083 130.393184 
L 282.255821 121.635037 
L 279.149569 113.545667 
L 276.043327 106.086529 
L 272.937096 99.217512 
L 269.830876 92.898878 
L 266.724666 87.092533 
L 263.618466 81.762758 
L 260.512277 76.876552 
L 257.406098 72.403693 
L 254.29993 68.316625 
L 251.193772 64.590226 
L 248.087625 61.201523 
L 244.981488 58.129375 
L 241.875362 55.354154 
L 238.769246 52.85744 
L 235.663141 50.621731 
L 232.557045 48.630197 
L 229.450961 46.866466 
L 226.344887 45.314457 
L 223.238823 43.958275 
L 219.097421 42.427407 
L 214.956038 41.17963 
L 210.814673 40.178575 
L 206.673327 39.388982 
L 201.496671 38.648453 
L 196.320043 38.125821 
L 190.108128 37.712387 
L 181.825641 37.40385 
L 170.437341 37.226386 
L 147.661165 37.152823 
L -1 37.14358 
L -1 37.14358 
" style="fill:none;stroke:#a3386f;stroke-linecap:square;"/>
   </g>
   <g id="patch_3">
    <path d="M 36.465625 348.478125 
L 36.465625 22.318125 
" style="fill:none;stroke:#000000;stroke-linecap:square;stroke-linejoin:miter;stroke-width:0.8;"/>
   </g>
   <g id="patch_4">
    <path d="M 873.465625 348.478125 
L 873.465625 22.318125 
" style="fill:none;stroke:#000000;stroke-linecap:square;stroke-linejoin:miter;stroke-width:0.8;"/>
   </g>
   <g id="patch_5">
    <path d="M 36.465625 348.478125 
L 873.465625 348.478125 
" style="fill:none;stroke:#000000;stroke-linecap:square;stroke-linejoin:miter;stroke-width:0.8;"/>
   </g>
   <g id="patch_6">
    <path d="M 36.465625 22.318125 
L 873.465625 22.318125 
" style="fill:none;stroke:#000000;stroke-linecap:square;stroke-linejoin:miter;stroke-width:0.8;"/>
   </g>
   <g id="text_17">
    <!-- ground_B =  0.003 Delta_B = -0.9,  zeta = -0.49 -->
    <g transform="translate(310.162188 16.318125)scale(0.12 -0.12)">
     <defs>
      <path d="M 2906 1791 
Q 2906 2416 2648 2759 
Q 2391 3103 1925 3103 
Q 1463 3103 1205 2759 
Q 947 2416 947 1791 
Q 947 1169 1205 825 
Q 1463 481 1925 481 
Q 2391 481 2648 825 
Q 2906 1169 2906 1791 
z
M 3481 434 
Q 3481 -459 3084 -895 
Q 2688 -1331 1869 -1331 
Q 1566 -1331 1297 -1286 
Q 1028 -1241 775 -1147 
L 775 -588 
Q 1028 -725 1275 -790 
Q 1522 -856 1778 -856 
Q 2344 -856 2625 -561 
Q 2906 -266 2906 331 
L 2906 616 
Q 2728 306 2450 153 
Q 2172 0 1784 0 
Q 1141 0 747 490 
Q 353 981 353 1791 
Q 353 2603 747 3093 
Q 1141 3584 1784 3584 
Q 2172 3584 2450 3431 
Q 2728 3278 2906 2969 
L 2906 3500 
L 3481 3500 
L 3481 434 
z
" id="DejaVuSans-67" transform="scale(0.015625)"/>
      <path d="M 2631 2963 
Q 2534 3019 2420 3045 
Q 2306 3072 2169 3072 
Q 1681 3072 1420 2755 
Q 1159 2438 1159 1844 
L 1159 0 
L 581 0 
L 581 3500 
L 1159 3500 
L 1159 2956 
Q 1341 3275 1631 3429 
Q 1922 3584 2338 3584 
Q 2397 3584 2469 3576 
Q 2541 3569 2628 3553 
L 2631 2963 
z
" id="DejaVuSans-72" transform="scale(0.015625)"/>
      <path d="M 1959 3097 
Q 1497 3097 1228 2736 
Q 959 2375 959 1747 
Q 959 1119 1226 758 
Q 1494 397 1959 397 
Q 2419 397 2687 759 
Q 2956 1122 2956 1747 
Q 2956 2369 2687 2733 
Q 2419 3097 1959 3097 
z
M 1959 3584 
Q 2709 3584 3137 3096 
Q 3566 2609 3566 1747 
Q 3566 888 3137 398 
Q 2709 -91 1959 -91 
Q 1206 -91 779 398 
Q 353 888 353 1747 
Q 353 2609 779 3096 
Q 1206 3584 1959 3584 
z
" id="DejaVuSans-6f" transform="scale(0.015625)"/>
      <path d="M 544 1381 
L 544 3500 
L 1119 3500 
L 1119 1403 
Q 1119 906 1312 657 
Q 1506 409 1894 409 
Q 2359 409 2629 706 
Q 2900 1003 2900 1516 
L 2900 3500 
L 3475 3500 
L 3475 0 
L 2900 0 
L 2900 538 
Q 2691 219 2414 64 
Q 2138 -91 1772 -91 
Q 1169 -91 856 284 
Q 544 659 544 1381 
z
M 1991 3584 
L 1991 3584 
z
" id="DejaVuSans-75" transform="scale(0.015625)"/>
      <path d="M 3513 2113 
L 3513 0 
L 2938 0 
L 2938 2094 
Q 2938 2591 2744 2837 
Q 2550 3084 2163 3084 
Q 1697 3084 1428 2787 
Q 1159 2491 1159 1978 
L 1159 0 
L 581 0 
L 581 3500 
L 1159 3500 
L 1159 2956 
Q 1366 3272 1645 3428 
Q 1925 3584 2291 3584 
Q 2894 3584 3203 3211 
Q 3513 2838 3513 2113 
z
" id="DejaVuSans-6e" transform="scale(0.015625)"/>
      <path d="M 2906 2969 
L 2906 4863 
L 3481 4863 
L 3481 0 
L 2906 0 
L 2906 525 
Q 2725 213 2448 61 
Q 2172 -91 1784 -91 
Q 1150 -91 751 415 
Q 353 922 353 1747 
Q 353 2572 751 3078 
Q 1150 3584 1784 3584 
Q 2172 3584 2448 3432 
Q 2725 3281 2906 2969 
z
M 947 1747 
Q 947 1113 1208 752 
Q 1469 391 1925 391 
Q 2381 391 2643 752 
Q 2906 1113 2906 1747 
Q 2906 2381 2643 2742 
Q 2381 3103 1925 3103 
Q 1469 3103 1208 2742 
Q 947 2381 947 1747 
z
" id="DejaVuSans-64" transform="scale(0.015625)"/>
      <path d="M 3263 -1063 
L 3263 -1509 
L -63 -1509 
L -63 -1063 
L 3263 -1063 
z
" id="DejaVuSans-5f" transform="scale(0.015625)"/>
      <path d="M 1259 2228 
L 1259 519 
L 2272 519 
Q 2781 519 3026 730 
Q 3272 941 3272 1375 
Q 3272 1813 3026 2020 
Q 2781 2228 2272 2228 
L 1259 2228 
z
M 1259 4147 
L 1259 2741 
L 2194 2741 
Q 2656 2741 2882 2914 
Q 3109 3088 3109 3444 
Q 3109 3797 2882 3972 
Q 2656 4147 2194 4147 
L 1259 4147 
z
M 628 4666 
L 2241 4666 
Q 2963 4666 3353 4366 
Q 3744 4066 3744 3513 
Q 3744 3084 3544 2831 
Q 3344 2578 2956 2516 
Q 3422 2416 3680 2098 
Q 3938 1781 3938 1306 
Q 3938 681 3513 340 
Q 3088 0 2303 0 
L 628 0 
L 628 4666 
z
" id="DejaVuSans-42" transform="scale(0.015625)"/>
      <path id="DejaVuSans-20" transform="scale(0.015625)"/>
      <path d="M 678 2906 
L 4684 2906 
L 4684 2381 
L 678 2381 
L 678 2906 
z
M 678 1631 
L 4684 1631 
L 4684 1100 
L 678 1100 
L 678 1631 
z
" id="DejaVuSans-3d" transform="scale(0.015625)"/>
      <path d="M 1259 4147 
L 1259 519 
L 2022 519 
Q 2988 519 3436 956 
Q 3884 1394 3884 2338 
Q 3884 3275 3436 3711 
Q 2988 4147 2022 4147 
L 1259 4147 
z
M 628 4666 
L 1925 4666 
Q 3281 4666 3915 4102 
Q 4550 3538 4550 2338 
Q 4550 1131 3912 565 
Q 3275 0 1925 0 
L 628 0 
L 628 4666 
z
" id="DejaVuSans-44" transform="scale(0.015625)"/>
      <path d="M 3597 1894 
L 3597 1613 
L 953 1613 
Q 991 1019 1311 708 
Q 1631 397 2203 397 
Q 2534 397 2845 478 
Q 3156 559 3463 722 
L 3463 178 
Q 3153 47 2828 -22 
Q 2503 -91 2169 -91 
Q 1331 -91 842 396 
Q 353 884 353 1716 
Q 353 2575 817 3079 
Q 1281 3584 2069 3584 
Q 2775 3584 3186 3129 
Q 3597 2675 3597 1894 
z
M 3022 2063 
Q 3016 2534 2758 2815 
Q 2500 3097 2075 3097 
Q 1594 3097 1305 2825 
Q 1016 2553 972 2059 
L 3022 2063 
z
" id="DejaVuSans-65" transform="scale(0.015625)"/>
      <path d="M 603 4863 
L 1178 4863 
L 1178 0 
L 603 0 
L 603 4863 
z
" id="DejaVuSans-6c" transform="scale(0.015625)"/>
      <path d="M 1172 4494 
L 1172 3500 
L 2356 3500 
L 2356 3053 
L 1172 3053 
L 1172 1153 
Q 1172 725 1289 603 
Q 1406 481 1766 481 
L 2356 481 
L 2356 0 
L 1766 0 
Q 1100 0 847 248 
Q 594 497 594 1153 
L 594 3053 
L 172 3053 
L 172 3500 
L 594 3500 
L 594 4494 
L 1172 4494 
z
" id="DejaVuSans-74" transform="scale(0.015625)"/>
      <path d="M 2194 1759 
Q 1497 1759 1228 1600 
Q 959 1441 959 1056 
Q 959 750 1161 570 
Q 1363 391 1709 391 
Q 2188 391 2477 730 
Q 2766 1069 2766 1631 
L 2766 1759 
L 2194 1759 
z
M 3341 1997 
L 3341 0 
L 2766 0 
L 2766 531 
Q 2569 213 2275 61 
Q 1981 -91 1556 -91 
Q 1019 -91 701 211 
Q 384 513 384 1019 
Q 384 1609 779 1909 
Q 1175 2209 1959 2209 
L 2766 2209 
L 2766 2266 
Q 2766 2663 2505 2880 
Q 2244 3097 1772 3097 
Q 1472 3097 1187 3025 
Q 903 2953 641 2809 
L 641 3341 
Q 956 3463 1253 3523 
Q 1550 3584 1831 3584 
Q 2591 3584 2966 3190 
Q 3341 2797 3341 1997 
z
" id="DejaVuSans-61" transform="scale(0.015625)"/>
      <path d="M 313 2009 
L 1997 2009 
L 1997 1497 
L 313 1497 
L 313 2009 
z
" id="DejaVuSans-2d" transform="scale(0.015625)"/>
      <path d="M 750 794 
L 1409 794 
L 1409 256 
L 897 -744 
L 494 -744 
L 750 256 
L 750 794 
z
" id="DejaVuSans-2c" transform="scale(0.015625)"/>
      <path d="M 353 3500 
L 3084 3500 
L 3084 2975 
L 922 459 
L 3084 459 
L 3084 0 
L 275 0 
L 275 525 
L 2438 3041 
L 353 3041 
L 353 3500 
z
" id="DejaVuSans-7a" transform="scale(0.015625)"/>
     </defs>
     <use xlink:href="#DejaVuSans-67"/>
     <use x="63.476562" xlink:href="#DejaVuSans-72"/>
     <use x="102.339844" xlink:href="#DejaVuSans-6f"/>
     <use x="163.521484" xlink:href="#DejaVuSans-75"/>
     <use x="226.900391" xlink:href="#DejaVuSans-6e"/>
     <use x="290.279297" xlink:href="#DejaVuSans-64"/>
     <use x="353.755859" xlink:href="#DejaVuSans-5f"/>
     <use x="403.755859" xlink:href="#DejaVuSans-42"/>
     <use x="472.359375" xlink:href="#DejaVuSans-20"/>
     <use x="504.146484" xlink:href="#DejaVuSans-3d"/>
     <use x="587.935547" xlink:href="#DejaVuSans-20"/>
     <use x="619.722656" xlink:href="#DejaVuSans-20"/>
     <use x="651.509766" xlink:href="#DejaVuSans-30"/>
     <use x="715.132812" xlink:href="#DejaVuSans-2e"/>
     <use x="746.919922" xlink:href="#DejaVuSans-30"/>
     <use x="810.542969" xlink:href="#DejaVuSans-30"/>
     <use x="874.166016" xlink:href="#DejaVuSans-33"/>
     <use x="937.789062" xlink:href="#DejaVuSans-20"/>
     <use x="969.576172" xlink:href="#DejaVuSans-44"/>
     <use x="1046.578125" xlink:href="#DejaVuSans-65"/>
     <use x="1108.101562" xlink:href="#DejaVuSans-6c"/>
     <use x="1135.884766" xlink:href="#DejaVuSans-74"/>
     <use x="1175.09375" xlink:href="#DejaVuSans-61"/>
     <use x="1236.373047" xlink:href="#DejaVuSans-5f"/>
     <use x="1286.373047" xlink:href="#DejaVuSans-42"/>
     <use x="1354.976562" xlink:href="#DejaVuSans-20"/>
     <use x="1386.763672" xlink:href="#DejaVuSans-3d"/>
     <use x="1470.552734" xlink:href="#DejaVuSans-20"/>
     <use x="1502.339844" xlink:href="#DejaVuSans-2d"/>
     <use x="1538.423828" xlink:href="#DejaVuSans-30"/>
     <use x="1602.046875" xlink:href="#DejaVuSans-2e"/>
     <use x="1633.833984" xlink:href="#DejaVuSans-39"/>
     <use x="1697.457031" xlink:href="#DejaVuSans-2c"/>
     <use x="1729.244141" xlink:href="#DejaVuSans-20"/>
     <use x="1761.03125" xlink:href="#DejaVuSans-20"/>
     <use x="1792.818359" xlink:href="#DejaVuSans-7a"/>
     <use x="1845.308594" xlink:href="#DejaVuSans-65"/>
     <use x="1906.832031" xlink:href="#DejaVuSans-74"/>
     <use x="1946.041016" xlink:href="#DejaVuSans-61"/>
     <use x="2007.320312" xlink:href="#DejaVuSans-20"/>
     <use x="2039.107422" xlink:href="#DejaVuSans-3d"/>
     <use x="2122.896484" xlink:href="#DejaVuSans-20"/>
     <use x="2154.683594" xlink:href="#DejaVuSans-2d"/>
     <use x="2190.767578" xlink:href="#DejaVuSans-30"/>
     <use x="2254.390625" xlink:href="#DejaVuSans-2e"/>
     <use x="2286.177734" xlink:href="#DejaVuSans-34"/>
     <use x="2349.800781" xlink:href="#DejaVuSans-39"/>
    </g>
   </g>
   <g id="legend_1">
    <g id="patch_7">
     <path d="M 43.465625 343.478125 
L 101.339063 343.478125 
Q 103.339063 343.478125 103.339063 341.478125 
L 103.339063 254.13125 
Q 103.339063 252.13125 101.339063 252.13125 
L 43.465625 252.13125 
Q 41.465625 252.13125 41.465625 254.13125 
L 41.465625 341.478125 
Q 41.465625 343.478125 43.465625 343.478125 
z
" style="fill:#ffffff;opacity:0.8;stroke:#cccccc;stroke-linejoin:miter;"/>
    </g>
    <g id="text_18">
     <!-- delta_B -->
     <g transform="translate(53.807813 263.729688)scale(0.1 -0.1)">
      <use xlink:href="#DejaVuSans-64"/>
      <use x="63.476562" xlink:href="#DejaVuSans-65"/>
      <use x="125" xlink:href="#DejaVuSans-6c"/>
      <use x="152.783203" xlink:href="#DejaVuSans-74"/>
      <use x="191.992188" xlink:href="#DejaVuSans-61"/>
      <use x="253.271484" xlink:href="#DejaVuSans-5f"/>
      <use x="303.271484" xlink:href="#DejaVuSans-42"/>
     </g>
    </g>
    <g id="line2d_22">
     <path d="M 45.465625 275.185938 
L 65.465625 275.185938 
" style="fill:none;stroke:#ea916e;stroke-linecap:square;"/>
    </g>
    <g id="line2d_23"/>
    <g id="text_19">
     <!-- -0.05 -->
     <g transform="translate(73.465625 278.685938)scale(0.1 -0.1)">
      <use xlink:href="#DejaVuSans-2d"/>
      <use x="36.083984" xlink:href="#DejaVuSans-30"/>
      <use x="99.707031" xlink:href="#DejaVuSans-2e"/>
      <use x="131.494141" xlink:href="#DejaVuSans-30"/>
      <use x="195.117188" xlink:href="#DejaVuSans-35"/>
     </g>
    </g>
    <g id="line2d_24">
     <path d="M 45.465625 289.864063 
L 65.465625 289.864063 
" style="fill:none;stroke:#e5715e;stroke-linecap:square;"/>
    </g>
    <g id="line2d_25"/>
    <g id="text_20">
     <!-- -0.1 -->
     <g transform="translate(73.465625 293.364063)scale(0.1 -0.1)">
      <use xlink:href="#DejaVuSans-2d"/>
      <use x="36.083984" xlink:href="#DejaVuSans-30"/>
      <use x="99.707031" xlink:href="#DejaVuSans-2e"/>
      <use x="131.494141" xlink:href="#DejaVuSans-31"/>
     </g>
    </g>
    <g id="line2d_26">
     <path d="M 45.465625 304.542188 
L 65.465625 304.542188 
" style="fill:none;stroke:#d9535d;stroke-linecap:square;"/>
    </g>
    <g id="line2d_27"/>
    <g id="text_21">
     <!-- -0.3 -->
     <g transform="translate(73.465625 308.042188)scale(0.1 -0.1)">
      <use xlink:href="#DejaVuSans-2d"/>
      <use x="36.083984" xlink:href="#DejaVuSans-30"/>
      <use x="99.707031" xlink:href="#DejaVuSans-2e"/>
      <use x="131.494141" xlink:href="#DejaVuSans-33"/>
     </g>
    </g>
    <g id="line2d_28">
     <path d="M 45.465625 319.220313 
L 65.465625 319.220313 
" style="fill:none;stroke:#c14168;stroke-linecap:square;"/>
    </g>
    <g id="line2d_29"/>
    <g id="text_22">
     <!-- -0.7 -->
     <g transform="translate(73.465625 322.720313)scale(0.1 -0.1)">
      <use xlink:href="#DejaVuSans-2d"/>
      <use x="36.083984" xlink:href="#DejaVuSans-30"/>
      <use x="99.707031" xlink:href="#DejaVuSans-2e"/>
      <use x="131.494141" xlink:href="#DejaVuSans-37"/>
     </g>
    </g>
    <g id="line2d_30">
     <path d="M 45.465625 333.898438 
L 65.465625 333.898438 
" style="fill:none;stroke:#a3386f;stroke-linecap:square;"/>
    </g>
    <g id="line2d_31"/>
    <g id="text_23">
     <!-- -0.9 -->
     <g transform="translate(73.465625 337.398438)scale(0.1 -0.1)">
      <use xlink:href="#DejaVuSans-2d"/>
      <use x="36.083984" xlink:href="#DejaVuSans-30"/>
      <use x="99.707031" xlink:href="#DejaVuSans-2e"/>
      <use x="131.494141" xlink:href="#DejaVuSans-39"/>
     </g>
    </g>
   </g>
  </g>
 </g>
 <defs>
  <clipPath id="p74acabc92c">
   <rect height="326.16" width="837" x="36.465625" y="22.318125"/>
  </clipPath>
 </defs>
</svg>
