<?xml version="1.0" encoding="utf-8" standalone="no"?>
<!DOCTYPE svg PUBLIC "-//W3C//DTD SVG 1.1//EN"
  "http://www.w3.org/Graphics/SVG/1.1/DTD/svg11.dtd">
<svg height="372.35625pt" version="1.1" viewBox="0 0 898.160938 372.35625" width="898.160938pt" xmlns="http://www.w3.org/2000/svg" xmlns:xlink="http://www.w3.org/1999/xlink">
 <metadata>
  <rdf:RDF xmlns:cc="http://creativecommons.org/ns#" xmlns:dc="http://purl.org/dc/elements/1.1/" xmlns:rdf="http://www.w3.org/1999/02/22-rdf-syntax-ns#">
   <cc:Work>
    <dc:type rdf:resource="http://purl.org/dc/dcmitype/StillImage"/>
    <dc:date>2022-09-30T10:49:51.385281</dc:date>
    <dc:format>image/svg+xml</dc:format>
    <dc:creator>
     <cc:Agent>
      <dc:title>Matplotlib v3.4.3, https://matplotlib.org/</dc:title>
     </cc:Agent>
    </dc:creator>
   </cc:Work>
  </rdf:RDF>
 </metadata>
 <defs>
  <style type="text/css">*{stroke-linecap:butt;stroke-linejoin:round;}</style>
 </defs>
 <g id="figure_1">
  <g id="patch_1">
   <path d="M 0 372.35625 
L 898.160938 372.35625 
L 898.160938 0 
L 0 0 
z
" style="fill:#ffffff;"/>
  </g>
  <g id="axes_1">
   <g id="patch_2">
    <path d="M 36.465625 348.478125 
L 873.465625 348.478125 
L 873.465625 22.318125 
L 36.465625 22.318125 
z
" style="fill:#ffffff;"/>
   </g>
   <g id="matplotlib.axis_1">
    <g id="xtick_1">
     <g id="line2d_1">
      <defs>
       <path d="M 0 0 
L 0 3.5 
" id="m00da31e371" style="stroke:#000000;stroke-width:0.8;"/>
      </defs>
      <g>
       <use style="stroke:#000000;stroke-width:0.8;" x="36.465625" xlink:href="#m00da31e371" y="348.478125"/>
      </g>
     </g>
     <g id="text_1">
      <!-- 6612.5 -->
      <g transform="translate(18.970313 363.076563)scale(0.1 -0.1)">
       <defs>
        <path d="M 2113 2584 
Q 1688 2584 1439 2293 
Q 1191 2003 1191 1497 
Q 1191 994 1439 701 
Q 1688 409 2113 409 
Q 2538 409 2786 701 
Q 3034 994 3034 1497 
Q 3034 2003 2786 2293 
Q 2538 2584 2113 2584 
z
M 3366 4563 
L 3366 3988 
Q 3128 4100 2886 4159 
Q 2644 4219 2406 4219 
Q 1781 4219 1451 3797 
Q 1122 3375 1075 2522 
Q 1259 2794 1537 2939 
Q 1816 3084 2150 3084 
Q 2853 3084 3261 2657 
Q 3669 2231 3669 1497 
Q 3669 778 3244 343 
Q 2819 -91 2113 -91 
Q 1303 -91 875 529 
Q 447 1150 447 2328 
Q 447 3434 972 4092 
Q 1497 4750 2381 4750 
Q 2619 4750 2861 4703 
Q 3103 4656 3366 4563 
z
" id="DejaVuSans-36" transform="scale(0.015625)"/>
        <path d="M 794 531 
L 1825 531 
L 1825 4091 
L 703 3866 
L 703 4441 
L 1819 4666 
L 2450 4666 
L 2450 531 
L 3481 531 
L 3481 0 
L 794 0 
L 794 531 
z
" id="DejaVuSans-31" transform="scale(0.015625)"/>
        <path d="M 1228 531 
L 3431 531 
L 3431 0 
L 469 0 
L 469 531 
Q 828 903 1448 1529 
Q 2069 2156 2228 2338 
Q 2531 2678 2651 2914 
Q 2772 3150 2772 3378 
Q 2772 3750 2511 3984 
Q 2250 4219 1831 4219 
Q 1534 4219 1204 4116 
Q 875 4013 500 3803 
L 500 4441 
Q 881 4594 1212 4672 
Q 1544 4750 1819 4750 
Q 2544 4750 2975 4387 
Q 3406 4025 3406 3419 
Q 3406 3131 3298 2873 
Q 3191 2616 2906 2266 
Q 2828 2175 2409 1742 
Q 1991 1309 1228 531 
z
" id="DejaVuSans-32" transform="scale(0.015625)"/>
        <path d="M 684 794 
L 1344 794 
L 1344 0 
L 684 0 
L 684 794 
z
" id="DejaVuSans-2e" transform="scale(0.015625)"/>
        <path d="M 691 4666 
L 3169 4666 
L 3169 4134 
L 1269 4134 
L 1269 2991 
Q 1406 3038 1543 3061 
Q 1681 3084 1819 3084 
Q 2600 3084 3056 2656 
Q 3513 2228 3513 1497 
Q 3513 744 3044 326 
Q 2575 -91 1722 -91 
Q 1428 -91 1123 -41 
Q 819 9 494 109 
L 494 744 
Q 775 591 1075 516 
Q 1375 441 1709 441 
Q 2250 441 2565 725 
Q 2881 1009 2881 1497 
Q 2881 1984 2565 2268 
Q 2250 2553 1709 2553 
Q 1456 2553 1204 2497 
Q 953 2441 691 2322 
L 691 4666 
z
" id="DejaVuSans-35" transform="scale(0.015625)"/>
       </defs>
       <use xlink:href="#DejaVuSans-36"/>
       <use x="63.623047" xlink:href="#DejaVuSans-36"/>
       <use x="127.246094" xlink:href="#DejaVuSans-31"/>
       <use x="190.869141" xlink:href="#DejaVuSans-32"/>
       <use x="254.492188" xlink:href="#DejaVuSans-2e"/>
       <use x="286.279297" xlink:href="#DejaVuSans-35"/>
      </g>
     </g>
    </g>
    <g id="xtick_2">
     <g id="line2d_2">
      <g>
       <use style="stroke:#000000;stroke-width:0.8;" x="175.965625" xlink:href="#m00da31e371" y="348.478125"/>
      </g>
     </g>
     <g id="text_2">
      <!-- 6613.0 -->
      <g transform="translate(158.470313 363.076563)scale(0.1 -0.1)">
       <defs>
        <path d="M 2597 2516 
Q 3050 2419 3304 2112 
Q 3559 1806 3559 1356 
Q 3559 666 3084 287 
Q 2609 -91 1734 -91 
Q 1441 -91 1130 -33 
Q 819 25 488 141 
L 488 750 
Q 750 597 1062 519 
Q 1375 441 1716 441 
Q 2309 441 2620 675 
Q 2931 909 2931 1356 
Q 2931 1769 2642 2001 
Q 2353 2234 1838 2234 
L 1294 2234 
L 1294 2753 
L 1863 2753 
Q 2328 2753 2575 2939 
Q 2822 3125 2822 3475 
Q 2822 3834 2567 4026 
Q 2313 4219 1838 4219 
Q 1578 4219 1281 4162 
Q 984 4106 628 3988 
L 628 4550 
Q 988 4650 1302 4700 
Q 1616 4750 1894 4750 
Q 2613 4750 3031 4423 
Q 3450 4097 3450 3541 
Q 3450 3153 3228 2886 
Q 3006 2619 2597 2516 
z
" id="DejaVuSans-33" transform="scale(0.015625)"/>
        <path d="M 2034 4250 
Q 1547 4250 1301 3770 
Q 1056 3291 1056 2328 
Q 1056 1369 1301 889 
Q 1547 409 2034 409 
Q 2525 409 2770 889 
Q 3016 1369 3016 2328 
Q 3016 3291 2770 3770 
Q 2525 4250 2034 4250 
z
M 2034 4750 
Q 2819 4750 3233 4129 
Q 3647 3509 3647 2328 
Q 3647 1150 3233 529 
Q 2819 -91 2034 -91 
Q 1250 -91 836 529 
Q 422 1150 422 2328 
Q 422 3509 836 4129 
Q 1250 4750 2034 4750 
z
" id="DejaVuSans-30" transform="scale(0.015625)"/>
       </defs>
       <use xlink:href="#DejaVuSans-36"/>
       <use x="63.623047" xlink:href="#DejaVuSans-36"/>
       <use x="127.246094" xlink:href="#DejaVuSans-31"/>
       <use x="190.869141" xlink:href="#DejaVuSans-33"/>
       <use x="254.492188" xlink:href="#DejaVuSans-2e"/>
       <use x="286.279297" xlink:href="#DejaVuSans-30"/>
      </g>
     </g>
    </g>
    <g id="xtick_3">
     <g id="line2d_3">
      <g>
       <use style="stroke:#000000;stroke-width:0.8;" x="315.465625" xlink:href="#m00da31e371" y="348.478125"/>
      </g>
     </g>
     <g id="text_3">
      <!-- 6613.5 -->
      <g transform="translate(297.970313 363.076563)scale(0.1 -0.1)">
       <use xlink:href="#DejaVuSans-36"/>
       <use x="63.623047" xlink:href="#DejaVuSans-36"/>
       <use x="127.246094" xlink:href="#DejaVuSans-31"/>
       <use x="190.869141" xlink:href="#DejaVuSans-33"/>
       <use x="254.492188" xlink:href="#DejaVuSans-2e"/>
       <use x="286.279297" xlink:href="#DejaVuSans-35"/>
      </g>
     </g>
    </g>
    <g id="xtick_4">
     <g id="line2d_4">
      <g>
       <use style="stroke:#000000;stroke-width:0.8;" x="454.965625" xlink:href="#m00da31e371" y="348.478125"/>
      </g>
     </g>
     <g id="text_4">
      <!-- 6614.0 -->
      <g transform="translate(437.470313 363.076563)scale(0.1 -0.1)">
       <defs>
        <path d="M 2419 4116 
L 825 1625 
L 2419 1625 
L 2419 4116 
z
M 2253 4666 
L 3047 4666 
L 3047 1625 
L 3713 1625 
L 3713 1100 
L 3047 1100 
L 3047 0 
L 2419 0 
L 2419 1100 
L 313 1100 
L 313 1709 
L 2253 4666 
z
" id="DejaVuSans-34" transform="scale(0.015625)"/>
       </defs>
       <use xlink:href="#DejaVuSans-36"/>
       <use x="63.623047" xlink:href="#DejaVuSans-36"/>
       <use x="127.246094" xlink:href="#DejaVuSans-31"/>
       <use x="190.869141" xlink:href="#DejaVuSans-34"/>
       <use x="254.492188" xlink:href="#DejaVuSans-2e"/>
       <use x="286.279297" xlink:href="#DejaVuSans-30"/>
      </g>
     </g>
    </g>
    <g id="xtick_5">
     <g id="line2d_5">
      <g>
       <use style="stroke:#000000;stroke-width:0.8;" x="594.465625" xlink:href="#m00da31e371" y="348.478125"/>
      </g>
     </g>
     <g id="text_5">
      <!-- 6614.5 -->
      <g transform="translate(576.970313 363.076563)scale(0.1 -0.1)">
       <use xlink:href="#DejaVuSans-36"/>
       <use x="63.623047" xlink:href="#DejaVuSans-36"/>
       <use x="127.246094" xlink:href="#DejaVuSans-31"/>
       <use x="190.869141" xlink:href="#DejaVuSans-34"/>
       <use x="254.492188" xlink:href="#DejaVuSans-2e"/>
       <use x="286.279297" xlink:href="#DejaVuSans-35"/>
      </g>
     </g>
    </g>
    <g id="xtick_6">
     <g id="line2d_6">
      <g>
       <use style="stroke:#000000;stroke-width:0.8;" x="733.965625" xlink:href="#m00da31e371" y="348.478125"/>
      </g>
     </g>
     <g id="text_6">
      <!-- 6615.0 -->
      <g transform="translate(716.470313 363.076563)scale(0.1 -0.1)">
       <use xlink:href="#DejaVuSans-36"/>
       <use x="63.623047" xlink:href="#DejaVuSans-36"/>
       <use x="127.246094" xlink:href="#DejaVuSans-31"/>
       <use x="190.869141" xlink:href="#DejaVuSans-35"/>
       <use x="254.492188" xlink:href="#DejaVuSans-2e"/>
       <use x="286.279297" xlink:href="#DejaVuSans-30"/>
      </g>
     </g>
    </g>
    <g id="xtick_7">
     <g id="line2d_7">
      <g>
       <use style="stroke:#000000;stroke-width:0.8;" x="873.465625" xlink:href="#m00da31e371" y="348.478125"/>
      </g>
     </g>
     <g id="text_7">
      <!-- 6615.5 -->
      <g transform="translate(855.970313 363.076563)scale(0.1 -0.1)">
       <use xlink:href="#DejaVuSans-36"/>
       <use x="63.623047" xlink:href="#DejaVuSans-36"/>
       <use x="127.246094" xlink:href="#DejaVuSans-31"/>
       <use x="190.869141" xlink:href="#DejaVuSans-35"/>
       <use x="254.492188" xlink:href="#DejaVuSans-2e"/>
       <use x="286.279297" xlink:href="#DejaVuSans-35"/>
      </g>
     </g>
    </g>
   </g>
   <g id="matplotlib.axis_2">
    <g id="ytick_1">
     <g id="line2d_8">
      <defs>
       <path d="M 0 0 
L -3.5 0 
" id="md5992e806d" style="stroke:#000000;stroke-width:0.8;"/>
      </defs>
      <g>
       <use style="stroke:#000000;stroke-width:0.8;" x="36.465625" xlink:href="#md5992e806d" y="333.65267"/>
      </g>
     </g>
     <g id="text_8">
      <!-- 0.92 -->
      <g transform="translate(7.2 337.451889)scale(0.1 -0.1)">
       <defs>
        <path d="M 703 97 
L 703 672 
Q 941 559 1184 500 
Q 1428 441 1663 441 
Q 2288 441 2617 861 
Q 2947 1281 2994 2138 
Q 2813 1869 2534 1725 
Q 2256 1581 1919 1581 
Q 1219 1581 811 2004 
Q 403 2428 403 3163 
Q 403 3881 828 4315 
Q 1253 4750 1959 4750 
Q 2769 4750 3195 4129 
Q 3622 3509 3622 2328 
Q 3622 1225 3098 567 
Q 2575 -91 1691 -91 
Q 1453 -91 1209 -44 
Q 966 3 703 97 
z
M 1959 2075 
Q 2384 2075 2632 2365 
Q 2881 2656 2881 3163 
Q 2881 3666 2632 3958 
Q 2384 4250 1959 4250 
Q 1534 4250 1286 3958 
Q 1038 3666 1038 3163 
Q 1038 2656 1286 2365 
Q 1534 2075 1959 2075 
z
" id="DejaVuSans-39" transform="scale(0.015625)"/>
       </defs>
       <use xlink:href="#DejaVuSans-30"/>
       <use x="63.623047" xlink:href="#DejaVuSans-2e"/>
       <use x="95.410156" xlink:href="#DejaVuSans-39"/>
       <use x="159.033203" xlink:href="#DejaVuSans-32"/>
      </g>
     </g>
    </g>
    <g id="ytick_2">
     <g id="line2d_9">
      <g>
       <use style="stroke:#000000;stroke-width:0.8;" x="36.465625" xlink:href="#md5992e806d" y="296.589034"/>
      </g>
     </g>
     <g id="text_9">
      <!-- 0.93 -->
      <g transform="translate(7.2 300.388253)scale(0.1 -0.1)">
       <use xlink:href="#DejaVuSans-30"/>
       <use x="63.623047" xlink:href="#DejaVuSans-2e"/>
       <use x="95.410156" xlink:href="#DejaVuSans-39"/>
       <use x="159.033203" xlink:href="#DejaVuSans-33"/>
      </g>
     </g>
    </g>
    <g id="ytick_3">
     <g id="line2d_10">
      <g>
       <use style="stroke:#000000;stroke-width:0.8;" x="36.465625" xlink:href="#md5992e806d" y="259.525398"/>
      </g>
     </g>
     <g id="text_10">
      <!-- 0.94 -->
      <g transform="translate(7.2 263.324616)scale(0.1 -0.1)">
       <use xlink:href="#DejaVuSans-30"/>
       <use x="63.623047" xlink:href="#DejaVuSans-2e"/>
       <use x="95.410156" xlink:href="#DejaVuSans-39"/>
       <use x="159.033203" xlink:href="#DejaVuSans-34"/>
      </g>
     </g>
    </g>
    <g id="ytick_4">
     <g id="line2d_11">
      <g>
       <use style="stroke:#000000;stroke-width:0.8;" x="36.465625" xlink:href="#md5992e806d" y="222.461761"/>
      </g>
     </g>
     <g id="text_11">
      <!-- 0.95 -->
      <g transform="translate(7.2 226.26098)scale(0.1 -0.1)">
       <use xlink:href="#DejaVuSans-30"/>
       <use x="63.623047" xlink:href="#DejaVuSans-2e"/>
       <use x="95.410156" xlink:href="#DejaVuSans-39"/>
       <use x="159.033203" xlink:href="#DejaVuSans-35"/>
      </g>
     </g>
    </g>
    <g id="ytick_5">
     <g id="line2d_12">
      <g>
       <use style="stroke:#000000;stroke-width:0.8;" x="36.465625" xlink:href="#md5992e806d" y="185.398125"/>
      </g>
     </g>
     <g id="text_12">
      <!-- 0.96 -->
      <g transform="translate(7.2 189.197344)scale(0.1 -0.1)">
       <use xlink:href="#DejaVuSans-30"/>
       <use x="63.623047" xlink:href="#DejaVuSans-2e"/>
       <use x="95.410156" xlink:href="#DejaVuSans-39"/>
       <use x="159.033203" xlink:href="#DejaVuSans-36"/>
      </g>
     </g>
    </g>
    <g id="ytick_6">
     <g id="line2d_13">
      <g>
       <use style="stroke:#000000;stroke-width:0.8;" x="36.465625" xlink:href="#md5992e806d" y="148.334489"/>
      </g>
     </g>
     <g id="text_13">
      <!-- 0.97 -->
      <g transform="translate(7.2 152.133707)scale(0.1 -0.1)">
       <defs>
        <path d="M 525 4666 
L 3525 4666 
L 3525 4397 
L 1831 0 
L 1172 0 
L 2766 4134 
L 525 4134 
L 525 4666 
z
" id="DejaVuSans-37" transform="scale(0.015625)"/>
       </defs>
       <use xlink:href="#DejaVuSans-30"/>
       <use x="63.623047" xlink:href="#DejaVuSans-2e"/>
       <use x="95.410156" xlink:href="#DejaVuSans-39"/>
       <use x="159.033203" xlink:href="#DejaVuSans-37"/>
      </g>
     </g>
    </g>
    <g id="ytick_7">
     <g id="line2d_14">
      <g>
       <use style="stroke:#000000;stroke-width:0.8;" x="36.465625" xlink:href="#md5992e806d" y="111.270852"/>
      </g>
     </g>
     <g id="text_14">
      <!-- 0.98 -->
      <g transform="translate(7.2 115.070071)scale(0.1 -0.1)">
       <defs>
        <path d="M 2034 2216 
Q 1584 2216 1326 1975 
Q 1069 1734 1069 1313 
Q 1069 891 1326 650 
Q 1584 409 2034 409 
Q 2484 409 2743 651 
Q 3003 894 3003 1313 
Q 3003 1734 2745 1975 
Q 2488 2216 2034 2216 
z
M 1403 2484 
Q 997 2584 770 2862 
Q 544 3141 544 3541 
Q 544 4100 942 4425 
Q 1341 4750 2034 4750 
Q 2731 4750 3128 4425 
Q 3525 4100 3525 3541 
Q 3525 3141 3298 2862 
Q 3072 2584 2669 2484 
Q 3125 2378 3379 2068 
Q 3634 1759 3634 1313 
Q 3634 634 3220 271 
Q 2806 -91 2034 -91 
Q 1263 -91 848 271 
Q 434 634 434 1313 
Q 434 1759 690 2068 
Q 947 2378 1403 2484 
z
M 1172 3481 
Q 1172 3119 1398 2916 
Q 1625 2713 2034 2713 
Q 2441 2713 2670 2916 
Q 2900 3119 2900 3481 
Q 2900 3844 2670 4047 
Q 2441 4250 2034 4250 
Q 1625 4250 1398 4047 
Q 1172 3844 1172 3481 
z
" id="DejaVuSans-38" transform="scale(0.015625)"/>
       </defs>
       <use xlink:href="#DejaVuSans-30"/>
       <use x="63.623047" xlink:href="#DejaVuSans-2e"/>
       <use x="95.410156" xlink:href="#DejaVuSans-39"/>
       <use x="159.033203" xlink:href="#DejaVuSans-38"/>
      </g>
     </g>
    </g>
    <g id="ytick_8">
     <g id="line2d_15">
      <g>
       <use style="stroke:#000000;stroke-width:0.8;" x="36.465625" xlink:href="#md5992e806d" y="74.207216"/>
      </g>
     </g>
     <g id="text_15">
      <!-- 0.99 -->
      <g transform="translate(7.2 78.006435)scale(0.1 -0.1)">
       <use xlink:href="#DejaVuSans-30"/>
       <use x="63.623047" xlink:href="#DejaVuSans-2e"/>
       <use x="95.410156" xlink:href="#DejaVuSans-39"/>
       <use x="159.033203" xlink:href="#DejaVuSans-39"/>
      </g>
     </g>
    </g>
    <g id="ytick_9">
     <g id="line2d_16">
      <g>
       <use style="stroke:#000000;stroke-width:0.8;" x="36.465625" xlink:href="#md5992e806d" y="37.14358"/>
      </g>
     </g>
     <g id="text_16">
      <!-- 1.00 -->
      <g transform="translate(7.2 40.942798)scale(0.1 -0.1)">
       <use xlink:href="#DejaVuSans-31"/>
       <use x="63.623047" xlink:href="#DejaVuSans-2e"/>
       <use x="95.410156" xlink:href="#DejaVuSans-30"/>
       <use x="159.033203" xlink:href="#DejaVuSans-30"/>
      </g>
     </g>
    </g>
   </g>
   <g id="line2d_17">
    <path clip-path="url(#p382b880a76)" d="M 605.5668 37.143582 
L 545.847461 37.254413 
L 536.760074 37.501583 
L 530.701866 37.877373 
L 525.941873 38.388994 
L 522.047352 39.021103 
L 518.585569 39.803454 
L 515.55652 40.70621 
L 512.52748 41.860583 
L 509.931169 43.089419 
L 507.334864 44.576794 
L 504.738567 46.360835 
L 502.574992 48.102925 
L 500.411422 50.102414 
L 498.247857 52.383063 
L 496.084297 54.968257 
L 493.920742 57.880493 
L 491.757192 61.140809 
L 489.593647 64.76819 
L 487.430108 68.778944 
L 484.833867 74.115954 
L 482.237633 80.038538 
L 479.641407 86.55228 
L 477.045188 93.652272 
L 474.016275 102.654348 
L 470.987372 112.386346 
L 467.52578 124.316242 
L 463.631506 138.610237 
L 458.871859 157.018429 
L 451.083399 188.233326 
L 443.295005 219.151518 
L 438.102779 238.855965 
L 433.775946 254.462941 
L 429.881814 267.761973 
L 425.987698 280.257125 
L 422.526275 290.59968 
L 419.497541 298.979404 
L 416.901492 305.601688 
L 414.305449 311.647861 
L 412.142086 316.20387 
L 409.978728 320.285268 
L 407.815375 323.860514 
L 406.084696 326.337644 
L 404.354021 328.461771 
L 402.623348 330.224556 
L 400.892679 331.621209 
L 399.59468 332.427769 
L 398.296682 333.029029 
L 396.998686 333.427568 
L 395.700692 333.627343 
L 394.402699 333.633664 
L 393.104709 333.453128 
L 391.80672 333.093533 
L 390.076071 332.351005 
L 388.345426 331.329524 
L 386.614784 330.054718 
L 384.451485 328.145941 
L 382.288192 325.936104 
L 379.692247 322.957295 
L 376.663654 319.12506 
L 373.202416 314.377788 
L 369.30854 308.628652 
L 365.84733 303.111691 
L 362.818782 297.867552 
L 360.222892 292.961325 
L 357.627009 287.574249 
L 355.031133 281.606045 
L 352.867909 276.119969 
L 350.704689 270.11719 
L 348.108833 262.18147 
L 345.512984 253.413521 
L 342.917143 243.810546 
L 340.321308 233.406349 
L 337.292844 220.351719 
L 333.831754 204.438282 
L 329.072777 181.44124 
L 320.852784 141.574507 
L 316.959128 123.930525 
L 313.930741 111.195827 
L 311.334988 101.106271 
L 308.739242 91.854025 
L 306.143504 83.480405 
L 303.980395 77.18462 
L 301.81729 71.504525 
L 299.654191 66.424932 
L 297.491096 61.921881 
L 295.328007 57.964347 
L 293.164923 54.515959 
L 291.001844 51.536662 
L 288.83877 48.984261 
L 286.675701 46.8158 
L 284.512637 44.988746 
L 282.349578 43.461966 
L 280.186524 42.196487 
L 278.023475 41.156054 
L 275.427824 40.158121 
L 272.832179 39.385602 
L 269.803936 38.710697 
L 266.3431 38.167092 
L 262.017073 37.72977 
L 256.393267 37.416248 
L 248.606516 37.231252 
L 233.898389 37.151753 
L 173.33798 37.14358 
L 173.33798 37.14358 
" style="fill:none;stroke:#ea916e;stroke-linecap:square;"/>
   </g>
   <g id="line2d_18">
    <path clip-path="url(#p382b880a76)" d="M 798.513488 37.14358 
L 700.54557 37.253376 
L 683.543933 37.507559 
L 670.590514 37.909167 
L 660.065996 38.44061 
L 651.160728 39.096375 
L 643.065104 39.921297 
L 636.588657 40.79256 
L 630.921802 41.754867 
L 625.254982 42.951752 
L 620.397736 44.206469 
L 615.540515 45.71576 
L 611.492851 47.201633 
L 607.445204 48.926553 
L 603.397575 50.922197 
L 600.159485 52.735638 
L 596.921406 54.760129 
L 593.683338 57.012045 
L 590.445282 59.506798 
L 587.207237 62.258287 
L 583.969204 65.278323 
L 580.731182 68.576076 
L 577.493171 72.157575 
L 574.255171 76.025291 
L 570.207688 81.259952 
L 566.160222 86.927892 
L 562.112775 93.00794 
L 558.065345 99.46984 
L 553.208452 107.673728 
L 547.542109 117.763962 
L 541.066332 129.803289 
L 529.733831 151.476797 
L 521.639273 166.775688 
L 515.973124 177.057931 
L 511.116453 185.420462 
L 507.069247 191.977888 
L 503.022058 198.090388 
L 499.78432 202.620367 
L 496.546593 206.803393 
L 493.308878 210.62154 
L 490.071174 214.065202 
L 486.833481 217.134828 
L 483.5958 219.842589 
L 480.35813 222.213885 
L 477.120471 224.288575 
L 473.882824 226.121811 
L 469.026375 228.577852 
L 461.741748 232.226063 
L 458.504155 234.118797 
L 456.075968 235.754101 
L 453.647786 237.632151 
L 451.219612 239.80318 
L 448.791443 242.31385 
L 446.363281 245.205274 
L 443.935126 248.510905 
L 441.506977 252.254361 
L 439.078834 256.447267 
L 436.650698 261.087216 
L 434.222568 266.155957 
L 430.985071 273.517229 
L 427.747586 281.440526 
L 422.082014 296.045416 
L 417.225837 308.372457 
L 413.9884 315.919608 
L 411.560329 320.980161 
L 409.941619 323.987111 
L 408.322912 326.65236 
L 406.704208 328.937125 
L 405.085506 330.805767 
L 403.466808 332.226502 
L 401.848112 333.172076 
L 401.038765 333.459549 
L 400.229419 333.620372 
L 399.420074 333.65267 
L 398.610729 333.554955 
L 397.801385 333.326133 
L 396.992042 332.965513 
L 396.182699 332.472822 
L 394.564016 331.092224 
L 392.945336 329.190592 
L 391.326658 326.780995 
L 389.707984 323.883233 
L 388.089312 320.523625 
L 386.470643 316.734673 
L 384.042645 310.331278 
L 381.614654 303.199162 
L 378.377342 292.853724 
L 367.046839 255.332554 
L 364.618892 248.244648 
L 362.190952 241.840321 
L 359.763018 236.23247 
L 358.144399 232.979467 
L 356.525782 230.136646 
L 354.907169 227.71606 
L 353.288558 225.723984 
L 351.66995 224.161065 
L 350.051345 223.022569 
L 348.432743 222.298687 
L 346.814144 221.974908 
L 345.195548 222.032437 
L 343.576954 222.44866 
L 341.958363 223.197627 
L 340.339775 224.250555 
L 338.72119 225.576334 
L 337.102608 227.142033 
L 334.67474 229.865238 
L 332.246879 232.932195 
L 328.200457 238.483062 
L 322.535496 246.285223 
L 319.298391 250.306341 
L 316.87057 252.949518 
L 314.442755 255.189208 
L 312.824216 256.426289 
L 311.205679 257.439462 
L 309.587145 258.214881 
L 307.968614 258.740894 
L 306.350086 259.007997 
L 304.73156 259.008778 
L 303.113038 258.737843 
L 301.494518 258.191737 
L 299.876001 257.36885 
L 298.257487 256.269327 
L 296.638976 254.894958 
L 295.020467 253.249077 
L 293.401962 251.336452 
L 291.783459 249.163171 
L 289.35571 245.430789 
L 286.927968 241.157762 
L 284.500232 236.377957 
L 282.072502 231.129143 
L 278.835539 223.47217 
L 275.598588 215.1575 
L 271.552415 204.003718 
L 266.69703 189.787267 
L 260.223224 170.021244 
L 249.703385 137.869114 
L 244.848115 123.738587 
L 240.802077 112.568965 
L 236.756056 102.080421 
L 233.519252 94.247461 
L 230.28246 86.954248 
L 227.045679 80.230215 
L 223.808909 74.093926 
L 220.572151 68.552895 
L 218.144589 64.786116 
L 215.717034 61.347172 
L 213.289486 58.227674 
L 210.861943 55.416416 
L 208.434408 52.899706 
L 206.006878 50.661756 
L 203.579355 48.685092 
L 201.151839 46.950993 
L 198.724328 45.439938 
L 196.296824 44.132033 
L 193.060163 42.669888 
L 189.823512 41.487792 
L 186.586873 40.542432 
L 182.54109 39.633381 
L 178.495325 38.963794 
L 173.64043 38.396114 
L 167.976418 37.961513 
L 160.694168 37.628663 
L 150.175465 37.384272 
L 132.374855 37.221093 
L 95.156508 37.147859 
L -1 37.14358 
L -1 37.14358 
" style="fill:none;stroke:#e5715e;stroke-linecap:square;"/>
   </g>
   <g id="line2d_19">
    <path clip-path="url(#p382b880a76)" d="M 899.160938 37.218884 
L 853.011758 37.427029 
L 827.996557 37.736579 
L 809.235602 38.181086 
L 795.165135 38.714497 
L 782.658234 39.392904 
L 771.714835 40.190701 
L 760.771565 41.227742 
L 751.391723 42.350847 
L 743.575261 43.485582 
L 735.758864 44.832699 
L 727.942535 46.42531 
L 721.689518 47.900184 
L 715.436544 49.574496 
L 709.183613 51.468331 
L 702.930724 53.60221 
L 696.677877 55.996784 
L 690.425073 58.672475 
L 684.172311 61.649027 
L 677.919591 64.944984 
L 673.230079 67.636721 
L 668.540591 70.523771 
L 663.851127 73.611353 
L 659.161686 76.903538 
L 654.47227 80.403047 
L 648.219751 85.393341 
L 641.967275 90.751905 
L 635.714841 96.470095 
L 629.46245 102.531936 
L 623.210101 108.913292 
L 616.957795 115.58112 
L 609.142471 124.252947 
L 599.76417 135.01135 
L 577.881838 160.269363 
L 571.629839 167.118941 
L 565.377882 173.615468 
L 560.688942 178.189489 
L 556.000026 182.455472 
L 551.311133 186.367168 
L 546.622265 189.880205 
L 543.496366 191.980213 
L 540.370477 193.873454 
L 537.244599 195.549884 
L 534.118732 197.000804 
L 530.992875 198.219117 
L 527.867029 199.199605 
L 524.741193 199.939226 
L 521.615368 200.437431 
L 518.489554 200.6965 
L 515.36375 200.721899 
L 512.237957 200.522647 
L 509.112174 200.111693 
L 505.986402 199.5063 
L 502.860641 198.728419 
L 498.172018 197.298712 
L 491.920559 195.086696 
L 484.106294 192.342305 
L 480.980607 191.430807 
L 477.85493 190.724088 
L 474.729264 190.294955 
L 471.603609 190.220513 
L 470.040785 190.341295 
L 468.477964 190.581011 
L 466.915145 190.949932 
L 465.352329 191.458311 
L 463.789516 192.116307 
L 462.226705 192.933908 
L 460.663897 193.920842 
L 459.101092 195.086478 
L 457.53829 196.439722 
L 455.97549 197.988905 
L 454.412692 199.741661 
L 452.849898 201.704801 
L 451.287106 203.88418 
L 449.724316 206.284554 
L 448.161529 208.909442 
L 445.035964 214.839748 
L 441.910409 221.672899 
L 438.784864 229.377637 
L 435.659331 237.889524 
L 432.533807 247.107606 
L 427.845542 261.942835 
L 416.90635 297.589929 
L 413.78089 306.854973 
L 410.655441 315.171405 
L 409.092721 318.881484 
L 407.530003 322.245633 
L 405.967288 325.230594 
L 404.404575 327.805364 
L 402.841865 329.941631 
L 401.279158 331.614206 
L 399.716453 332.801412 
L 398.153751 333.485443 
L 396.591051 333.65267 
L 395.028355 333.293904 
L 393.465661 332.404588 
L 391.902969 330.984935 
L 390.34028 329.039989 
L 388.777594 326.579629 
L 387.214911 323.618485 
L 385.65223 320.1758 
L 384.089552 316.27521 
L 382.526876 311.94447 
L 380.964203 307.215116 
L 377.838865 296.703214 
L 374.713538 285.051465 
L 370.025567 266.192413 
L 362.212334 234.038022 
L 359.08706 221.892562 
L 355.961796 210.579318 
L 352.836543 200.316349 
L 349.7113 191.268968 
L 348.148683 187.238102 
L 346.586068 183.548936 
L 345.023456 180.2074 
L 343.460847 177.216456 
L 341.89824 174.576274 
L 340.335636 172.284425 
L 338.773034 170.336096 
L 337.210435 168.724315 
L 335.647839 167.440171 
L 334.085246 166.473055 
L 332.522655 165.81088 
L 330.960067 165.440307 
L 329.397481 165.346963 
L 327.834898 165.515642 
L 326.272318 165.930496 
L 324.70974 166.575222 
L 323.147165 167.433214 
L 321.584593 168.487725 
L 320.022023 169.72199 
L 316.896891 172.663357 
L 313.771771 176.127076 
L 310.64666 179.988782 
L 305.959015 186.274841 
L 293.458743 203.593533 
L 288.771184 209.535403 
L 285.646159 213.164166 
L 282.521144 216.473869 
L 279.396139 219.42726 
L 276.271145 221.993825 
L 273.146162 224.149297 
L 270.021189 225.875187 
L 266.896227 227.158351 
L 263.771276 227.990587 
L 262.208804 228.236302 
L 260.646335 228.368258 
L 259.083868 228.386656 
L 257.521404 228.291937 
L 254.396485 227.766067 
L 251.271575 226.798639 
L 248.146677 225.400878 
L 245.021789 223.586937 
L 241.896911 221.373597 
L 238.772044 218.77997 
L 235.647188 215.827211 
L 232.522342 212.538224 
L 229.397507 208.937386 
L 226.272683 205.050263 
L 221.585466 198.740908 
L 216.898273 191.939013 
L 212.211103 184.737825 
L 205.961581 174.675307 
L 196.587378 159.023678 
L 184.088588 138.123011 
L 177.839256 128.029803 
L 171.589967 118.351161 
L 166.903028 111.425833 
L 162.216113 104.824118 
L 157.529221 98.571485 
L 152.842353 92.686061 
L 148.15551 87.17914 
L 143.468689 82.055771 
L 138.781893 77.315417 
L 134.095121 72.952648 
L 129.408372 68.95786 
L 124.721647 65.317983 
L 120.034946 62.017169 
L 115.348269 59.037453 
L 110.661616 56.359354 
L 105.974986 53.962431 
L 101.288381 51.825767 
L 96.601799 49.928393 
L 91.91524 48.249644 
L 87.228706 46.769449 
L 80.980031 45.071581 
L 74.731398 43.649739 
L 68.482807 42.464651 
L 62.234259 41.48085 
L 54.423633 40.486402 
L 46.613073 39.704103 
L 37.240488 38.983726 
L 26.305927 38.370145 
L 13.809443 37.886632 
L -1 37.529124 
L -1 37.529124 
" style="fill:none;stroke:#d9535d;stroke-linecap:square;"/>
   </g>
   <g id="line2d_20">
    <path clip-path="url(#p382b880a76)" d="M 899.160938 37.817139 
L 877.879317 38.272137 
L 860.848876 38.835913 
L 845.947498 39.53922 
L 833.175079 40.351202 
L 822.531532 41.215163 
L 811.888108 42.287676 
L 801.244807 43.610088 
L 792.730254 44.87906 
L 784.21578 46.363793 
L 775.701384 48.092232 
L 767.187067 50.093821 
L 760.801381 51.792591 
L 754.415739 53.675216 
L 748.030141 55.754728 
L 741.644588 58.043918 
L 735.259078 60.555096 
L 728.873613 63.299821 
L 722.488192 66.288591 
L 716.102815 69.530512 
L 709.717482 73.032934 
L 703.332194 76.801059 
L 696.946949 80.837536 
L 690.561749 85.142037 
L 684.176593 89.710828 
L 677.791481 94.536347 
L 671.406414 99.606789 
L 665.02139 104.905717 
L 656.508094 112.288617 
L 647.994877 119.973607 
L 637.353466 129.876569 
L 613.942793 151.808977 
L 605.429968 159.41039 
L 599.045401 164.827272 
L 592.660878 169.921582 
L 588.404555 173.102791 
L 584.14825 176.086946 
L 579.891965 178.852879 
L 575.6357 181.379982 
L 571.379455 183.64851 
L 567.123229 185.63991 
L 562.867023 187.337203 
L 558.610836 188.725393 
L 554.35467 189.791937 
L 550.098522 190.52726 
L 545.842395 190.925323 
L 541.586287 190.984252 
L 537.330198 190.70702 
L 533.07413 190.102191 
L 528.81808 189.184717 
L 524.562051 187.976776 
L 520.306041 186.508652 
L 516.050051 184.819631 
L 509.666102 181.982391 
L 496.898338 176.064184 
L 492.642456 174.343016 
L 488.386593 172.92873 
L 486.258669 172.3759 
L 484.13075 171.948282 
L 482.002836 171.663427 
L 479.874927 171.539446 
L 477.747022 171.594922 
L 475.619123 171.84881 
L 473.491228 172.320306 
L 471.363339 173.028703 
L 469.235454 173.993216 
L 467.107574 175.232783 
L 464.979699 176.765828 
L 462.851829 178.609998 
L 460.723964 180.78187 
L 458.596104 183.296606 
L 456.468249 186.167595 
L 454.340399 189.406041 
L 452.212553 193.02053 
L 450.084713 197.016561 
L 447.956877 201.396065 
L 445.829046 206.156895 
L 443.701221 211.292328 
L 441.5734 216.790561 
L 437.317773 228.80007 
L 433.062165 241.972879 
L 428.806577 255.991547 
L 418.167694 291.704807 
L 413.912175 304.723496 
L 411.784422 310.634517 
L 409.656675 316.035576 
L 407.528933 320.846418 
L 405.401195 324.991326 
L 403.273463 328.400878 
L 401.145735 331.013659 
L 399.018012 332.777852 
L 396.890294 333.65267 
L 394.762582 333.609566 
L 392.634873 332.63316 
L 390.50717 330.72187 
L 388.379472 327.888193 
L 386.251779 324.158627 
L 384.12409 319.573245 
L 381.996407 314.184904 
L 379.868728 308.058142 
L 377.741055 301.267779 
L 375.613386 293.897281 
L 371.358063 277.781951 
L 367.10276 260.481163 
L 358.592212 225.414906 
L 354.336968 209.037472 
L 352.209353 201.387444 
L 350.081743 194.169001 
L 347.954138 187.425027 
L 345.826538 181.189262 
L 343.698943 175.486571 
L 341.571353 170.33337 
L 339.443767 165.738195 
L 337.316187 161.702374 
L 335.188611 158.220767 
L 333.061041 155.28255 
L 330.933475 152.872015 
L 328.805914 150.969358 
L 326.678358 149.551439 
L 324.550807 148.592497 
L 322.423261 148.064816 
L 320.29572 147.939317 
L 318.168184 148.18609 
L 316.040652 148.774858 
L 313.913126 149.675369 
L 311.785604 150.857722 
L 309.658087 152.292642 
L 307.530576 153.951688 
L 305.403069 155.807421 
L 301.14807 160.004884 
L 296.89309 164.68925 
L 290.510658 172.250718 
L 279.873369 185.088784 
L 275.618488 189.969878 
L 271.363626 194.569269 
L 267.108784 198.815492 
L 262.853962 202.649509 
L 258.599159 206.023528 
L 254.344376 208.899942 
L 252.216992 210.14235 
L 250.089612 211.250407 
L 247.962238 212.22188 
L 245.834868 213.055021 
L 243.707504 213.748541 
L 241.580144 214.301591 
L 239.452789 214.713742 
L 237.325439 214.984967 
L 235.198094 215.115624 
L 233.070754 215.106435 
L 230.943419 214.958474 
L 228.816089 214.673144 
L 226.688764 214.252165 
L 224.561443 213.697556 
L 222.434128 213.011621 
L 220.306817 212.196927 
L 218.179511 211.256297 
L 213.924914 209.009667 
L 209.670337 206.298721 
L 205.41578 203.153461 
L 201.161242 199.606413 
L 196.906724 195.692134 
L 192.652225 191.44674 
L 188.397746 186.907436 
L 184.143287 182.112072 
L 177.761634 174.522136 
L 171.380026 166.568921 
L 160.744111 152.838976 
L 143.726901 130.775021 
L 135.218414 120.173142 
L 128.8371 112.555529 
L 122.45583 105.286762 
L 116.074605 98.410094 
L 109.693423 91.957107 
L 103.312286 85.948477 
L 99.058219 82.195256 
L 94.804171 78.645408 
L 90.550144 75.29827 
L 86.296136 72.151741 
L 82.042147 69.202441 
L 77.788178 66.445872 
L 73.534229 63.876576 
L 69.280299 61.488289 
L 65.026389 59.274087 
L 58.645561 56.262796 
L 52.264776 53.599696 
L 45.884036 51.257029 
L 39.503341 49.206696 
L 33.122689 47.420907 
L 26.742081 45.872696 
L 20.361518 44.536326 
L 13.980998 43.387585 
L 5.473708 42.109192 
L -1 41.303562 
L -1 41.303562 
" style="fill:none;stroke:#c14168;stroke-linecap:square;"/>
   </g>
   <g id="line2d_21">
    <path clip-path="url(#p382b880a76)" d="M 899.160938 76.130572 
L 891.39921 78.891664 
L 879.603978 83.328195 
L 867.808896 88.030108 
L 856.013965 92.979778 
L 844.219185 98.153141 
L 832.424556 103.519259 
L 814.732895 111.844402 
L 767.556789 134.404733 
L 755.76314 139.769907 
L 743.969641 144.871109 
L 732.176293 149.623873 
L 726.279675 151.842605 
L 720.383095 153.941753 
L 714.486553 155.910506 
L 708.590049 157.738178 
L 702.693582 159.414288 
L 696.797153 160.928631 
L 690.900761 162.271378 
L 685.004407 163.433156 
L 679.108091 164.405162 
L 673.211813 165.17926 
L 667.315572 165.748106 
L 661.419369 166.105274 
L 655.523203 166.245392 
L 649.627076 166.164299 
L 643.730986 165.859211 
L 637.834933 165.328902 
L 631.938919 164.573912 
L 626.042942 163.596764 
L 620.147002 162.402216 
L 614.2511 160.99753 
L 608.355236 159.392764 
L 602.45941 157.601098 
L 596.563621 155.63918 
L 590.66787 153.527501 
L 578.876481 148.958407 
L 555.294155 139.446083 
L 549.398668 137.2681 
L 543.503218 135.291469 
L 537.607806 133.589123 
L 531.712432 132.241238 
L 525.817095 131.335163 
L 519.921796 130.965164 
L 514.026535 131.231929 
L 508.131311 132.241798 
L 502.236125 134.105655 
L 496.340977 136.937433 
L 490.445867 140.852173 
L 484.550794 145.963524 
L 478.655758 152.380524 
L 472.760761 160.203304 
L 466.865801 169.517058 
L 460.970878 180.38314 
L 455.075994 192.825648 
L 449.181147 206.811596 
L 443.286337 222.223298 
L 437.391565 238.823621 
L 419.707476 290.868651 
L 413.812855 306.395354 
L 407.918272 319.358983 
L 402.023726 328.731977 
L 396.129218 333.65267 
L 390.234748 333.567867 
L 384.340315 328.335792 
L 378.44592 318.260553 
L 372.551562 304.047683 
L 366.657243 286.692887 
L 360.762961 267.333815 
L 348.974509 226.998751 
L 343.08034 207.831216 
L 337.186209 190.176921 
L 331.292115 174.399703 
L 325.398059 160.682509 
L 319.50404 149.069761 
L 313.610059 139.508418 
L 307.716116 131.882473 
L 301.82221 126.03925 
L 295.928343 121.80808 
L 290.034512 119.012838 
L 284.14072 117.479956 
L 278.246965 117.043292 
L 272.353247 117.546882 
L 266.459568 118.846314 
L 260.565926 120.809212 
L 254.672321 123.315164 
L 248.778755 126.25531 
L 242.885226 129.531727 
L 236.991734 133.056709 
L 225.204864 140.548022 
L 207.524842 151.959375 
L 201.631577 155.610679 
L 195.738349 159.120209 
L 189.845158 162.456268 
L 183.952006 165.591588 
L 178.058891 168.502933 
L 172.165814 171.17075 
L 166.272774 173.578855 
L 160.379772 175.714165 
L 154.486808 177.566453 
L 148.593881 179.128131 
L 142.700992 180.394063 
L 136.808141 181.361383 
L 130.915327 182.02934 
L 125.022551 182.399148 
L 119.129812 182.473839 
L 113.237111 182.258137 
L 107.344448 181.75832 
L 101.451823 180.982092 
L 95.559235 179.938464 
L 89.666684 178.63762 
L 83.774172 177.090798 
L 77.881697 175.310167 
L 71.989259 173.308704 
L 66.09686 171.100071 
L 60.204498 168.698498 
L 54.312173 166.118666 
L 48.419886 163.375593 
L 42.527637 160.484521 
L 30.743252 154.319831 
L 18.959017 147.747078 
L 7.174932 140.886001 
L -1 136.014655 
L -1 136.014655 
" style="fill:none;stroke:#a3386f;stroke-linecap:square;"/>
   </g>
   <g id="line2d_22">
    <path clip-path="url(#p382b880a76)" d="M 899.160938 138.866086 
L 895.099896 139.768356 
L 881.66469 142.497887 
L 868.22968 144.938304 
L 854.794865 147.056875 
L 841.360246 148.82229 
L 827.925823 150.205259 
L 814.491595 151.179157 
L 801.057563 151.72074 
L 787.623726 151.810931 
L 774.190085 151.435706 
L 760.75664 150.587101 
L 747.32339 149.264371 
L 733.890335 147.475347 
L 720.457476 145.238023 
L 707.024813 142.582422 
L 693.592345 139.552782 
L 680.160072 136.210085 
L 666.727996 132.634927 
L 639.864428 125.227088 
L 626.432938 121.683469 
L 613.001643 118.492465 
L 599.570544 115.882875 
L 586.13964 114.12184 
L 572.708932 113.515612 
L 559.278419 114.408213 
L 545.848102 117.177064 
L 532.41798 122.22437 
L 518.988054 129.962752 
L 505.558323 140.793748 
L 492.128788 155.080446 
L 478.699448 173.1255 
L 465.270303 195.180503 
L 451.841354 221.463701 
L 438.412601 251.879507 
L 424.984043 284.777539 
L 411.55568 314.94614 
L 398.127513 333.65267 
L 384.699541 333.470245 
L 371.271764 314.236099 
L 357.844184 282.961597 
L 344.416798 248.070625 
L 330.989608 215.016244 
L 317.562613 186.141571 
L 304.135814 162.160374 
L 290.70921 143.099386 
L 277.282802 128.647577 
L 263.856589 118.315881 
L 250.430571 111.543525 
L 237.004749 107.764431 
L 223.579122 106.442926 
L 210.15369 107.09075 
L 196.728454 109.273629 
L 183.303413 112.612092 
L 169.878568 116.779096 
L 156.453918 121.495972 
L 129.605204 131.677289 
L 116.18114 136.782026 
L 102.757271 141.707804 
L 89.333598 146.345653 
L 75.91012 150.608119 
L 62.486837 154.42629 
L 49.06375 157.747307 
L 35.640858 160.532305 
L 22.218161 162.754709 
L 8.79566 164.39882 
L -1 165.17226 
L -1 165.17226 
" style="fill:none;stroke:#863071;stroke-linecap:square;"/>
   </g>
   <g id="line2d_23">
    <path clip-path="url(#p382b880a76)" d="M 899.160938 144.685829 
L 881.06553 145.357629 
L 861.977495 145.457727 
L 842.889854 144.926026 
L 823.802608 143.75081 
L 804.715757 141.934478 
L 785.629301 139.496674 
L 766.54324 136.478094 
L 747.457573 132.945124 
L 728.372301 128.995437 
L 671.118853 116.237158 
L 652.03516 112.472165 
L 632.951862 109.505529 
L 613.868958 107.780183 
L 594.786448 107.817483 
L 575.704334 110.213611 
L 556.622614 115.626582 
L 537.541288 124.748998 
L 518.460358 138.259598 
L 499.379821 156.748508 
L 480.29968 180.653845 
L 461.219933 210.446232 
L 442.14058 247.185028 
L 423.061622 290.165731 
L 403.983059 326.806085 
L 384.90489 333.65267 
L 365.827115 305.883029 
L 346.749735 263.462509 
L 327.67275 222.508862 
L 308.596159 187.399279 
L 289.519962 158.900043 
L 270.44416 137.070385 
L 251.368752 121.409397 
L 232.293739 111.10228 
L 213.21912 105.24503 
L 194.144895 102.960261 
L 175.071065 103.449099 
L 155.997629 106.011186 
L 136.924588 110.048321 
L 117.85194 115.059592 
L 98.779688 120.63227 
L 60.636365 132.186763 
L 41.565295 137.686595 
L 22.494619 142.764434 
L 3.424338 147.293407 
L -1 148.194998 
L -1 148.194998 
" style="fill:none;stroke:#672a6b;stroke-linecap:square;"/>
   </g>
   <g id="patch_3">
    <path d="M 36.465625 348.478125 
L 36.465625 22.318125 
" style="fill:none;stroke:#000000;stroke-linecap:square;stroke-linejoin:miter;stroke-width:0.8;"/>
   </g>
   <g id="patch_4">
    <path d="M 873.465625 348.478125 
L 873.465625 22.318125 
" style="fill:none;stroke:#000000;stroke-linecap:square;stroke-linejoin:miter;stroke-width:0.8;"/>
   </g>
   <g id="patch_5">
    <path d="M 36.465625 348.478125 
L 873.465625 348.478125 
" style="fill:none;stroke:#000000;stroke-linecap:square;stroke-linejoin:miter;stroke-width:0.8;"/>
   </g>
   <g id="patch_6">
    <path d="M 36.465625 22.318125 
L 873.465625 22.318125 
" style="fill:none;stroke:#000000;stroke-linecap:square;stroke-linejoin:miter;stroke-width:0.8;"/>
   </g>
   <g id="text_17">
    <!-- ground_B =  0.1 Delta_B = -0.17,  zeta = -0.49 -->
    <g transform="translate(313.979688 16.318125)scale(0.12 -0.12)">
     <defs>
      <path d="M 2906 1791 
Q 2906 2416 2648 2759 
Q 2391 3103 1925 3103 
Q 1463 3103 1205 2759 
Q 947 2416 947 1791 
Q 947 1169 1205 825 
Q 1463 481 1925 481 
Q 2391 481 2648 825 
Q 2906 1169 2906 1791 
z
M 3481 434 
Q 3481 -459 3084 -895 
Q 2688 -1331 1869 -1331 
Q 1566 -1331 1297 -1286 
Q 1028 -1241 775 -1147 
L 775 -588 
Q 1028 -725 1275 -790 
Q 1522 -856 1778 -856 
Q 2344 -856 2625 -561 
Q 2906 -266 2906 331 
L 2906 616 
Q 2728 306 2450 153 
Q 2172 0 1784 0 
Q 1141 0 747 490 
Q 353 981 353 1791 
Q 353 2603 747 3093 
Q 1141 3584 1784 3584 
Q 2172 3584 2450 3431 
Q 2728 3278 2906 2969 
L 2906 3500 
L 3481 3500 
L 3481 434 
z
" id="DejaVuSans-67" transform="scale(0.015625)"/>
      <path d="M 2631 2963 
Q 2534 3019 2420 3045 
Q 2306 3072 2169 3072 
Q 1681 3072 1420 2755 
Q 1159 2438 1159 1844 
L 1159 0 
L 581 0 
L 581 3500 
L 1159 3500 
L 1159 2956 
Q 1341 3275 1631 3429 
Q 1922 3584 2338 3584 
Q 2397 3584 2469 3576 
Q 2541 3569 2628 3553 
L 2631 2963 
z
" id="DejaVuSans-72" transform="scale(0.015625)"/>
      <path d="M 1959 3097 
Q 1497 3097 1228 2736 
Q 959 2375 959 1747 
Q 959 1119 1226 758 
Q 1494 397 1959 397 
Q 2419 397 2687 759 
Q 2956 1122 2956 1747 
Q 2956 2369 2687 2733 
Q 2419 3097 1959 3097 
z
M 1959 3584 
Q 2709 3584 3137 3096 
Q 3566 2609 3566 1747 
Q 3566 888 3137 398 
Q 2709 -91 1959 -91 
Q 1206 -91 779 398 
Q 353 888 353 1747 
Q 353 2609 779 3096 
Q 1206 3584 1959 3584 
z
" id="DejaVuSans-6f" transform="scale(0.015625)"/>
      <path d="M 544 1381 
L 544 3500 
L 1119 3500 
L 1119 1403 
Q 1119 906 1312 657 
Q 1506 409 1894 409 
Q 2359 409 2629 706 
Q 2900 1003 2900 1516 
L 2900 3500 
L 3475 3500 
L 3475 0 
L 2900 0 
L 2900 538 
Q 2691 219 2414 64 
Q 2138 -91 1772 -91 
Q 1169 -91 856 284 
Q 544 659 544 1381 
z
M 1991 3584 
L 1991 3584 
z
" id="DejaVuSans-75" transform="scale(0.015625)"/>
      <path d="M 3513 2113 
L 3513 0 
L 2938 0 
L 2938 2094 
Q 2938 2591 2744 2837 
Q 2550 3084 2163 3084 
Q 1697 3084 1428 2787 
Q 1159 2491 1159 1978 
L 1159 0 
L 581 0 
L 581 3500 
L 1159 3500 
L 1159 2956 
Q 1366 3272 1645 3428 
Q 1925 3584 2291 3584 
Q 2894 3584 3203 3211 
Q 3513 2838 3513 2113 
z
" id="DejaVuSans-6e" transform="scale(0.015625)"/>
      <path d="M 2906 2969 
L 2906 4863 
L 3481 4863 
L 3481 0 
L 2906 0 
L 2906 525 
Q 2725 213 2448 61 
Q 2172 -91 1784 -91 
Q 1150 -91 751 415 
Q 353 922 353 1747 
Q 353 2572 751 3078 
Q 1150 3584 1784 3584 
Q 2172 3584 2448 3432 
Q 2725 3281 2906 2969 
z
M 947 1747 
Q 947 1113 1208 752 
Q 1469 391 1925 391 
Q 2381 391 2643 752 
Q 2906 1113 2906 1747 
Q 2906 2381 2643 2742 
Q 2381 3103 1925 3103 
Q 1469 3103 1208 2742 
Q 947 2381 947 1747 
z
" id="DejaVuSans-64" transform="scale(0.015625)"/>
      <path d="M 3263 -1063 
L 3263 -1509 
L -63 -1509 
L -63 -1063 
L 3263 -1063 
z
" id="DejaVuSans-5f" transform="scale(0.015625)"/>
      <path d="M 1259 2228 
L 1259 519 
L 2272 519 
Q 2781 519 3026 730 
Q 3272 941 3272 1375 
Q 3272 1813 3026 2020 
Q 2781 2228 2272 2228 
L 1259 2228 
z
M 1259 4147 
L 1259 2741 
L 2194 2741 
Q 2656 2741 2882 2914 
Q 3109 3088 3109 3444 
Q 3109 3797 2882 3972 
Q 2656 4147 2194 4147 
L 1259 4147 
z
M 628 4666 
L 2241 4666 
Q 2963 4666 3353 4366 
Q 3744 4066 3744 3513 
Q 3744 3084 3544 2831 
Q 3344 2578 2956 2516 
Q 3422 2416 3680 2098 
Q 3938 1781 3938 1306 
Q 3938 681 3513 340 
Q 3088 0 2303 0 
L 628 0 
L 628 4666 
z
" id="DejaVuSans-42" transform="scale(0.015625)"/>
      <path id="DejaVuSans-20" transform="scale(0.015625)"/>
      <path d="M 678 2906 
L 4684 2906 
L 4684 2381 
L 678 2381 
L 678 2906 
z
M 678 1631 
L 4684 1631 
L 4684 1100 
L 678 1100 
L 678 1631 
z
" id="DejaVuSans-3d" transform="scale(0.015625)"/>
      <path d="M 1259 4147 
L 1259 519 
L 2022 519 
Q 2988 519 3436 956 
Q 3884 1394 3884 2338 
Q 3884 3275 3436 3711 
Q 2988 4147 2022 4147 
L 1259 4147 
z
M 628 4666 
L 1925 4666 
Q 3281 4666 3915 4102 
Q 4550 3538 4550 2338 
Q 4550 1131 3912 565 
Q 3275 0 1925 0 
L 628 0 
L 628 4666 
z
" id="DejaVuSans-44" transform="scale(0.015625)"/>
      <path d="M 3597 1894 
L 3597 1613 
L 953 1613 
Q 991 1019 1311 708 
Q 1631 397 2203 397 
Q 2534 397 2845 478 
Q 3156 559 3463 722 
L 3463 178 
Q 3153 47 2828 -22 
Q 2503 -91 2169 -91 
Q 1331 -91 842 396 
Q 353 884 353 1716 
Q 353 2575 817 3079 
Q 1281 3584 2069 3584 
Q 2775 3584 3186 3129 
Q 3597 2675 3597 1894 
z
M 3022 2063 
Q 3016 2534 2758 2815 
Q 2500 3097 2075 3097 
Q 1594 3097 1305 2825 
Q 1016 2553 972 2059 
L 3022 2063 
z
" id="DejaVuSans-65" transform="scale(0.015625)"/>
      <path d="M 603 4863 
L 1178 4863 
L 1178 0 
L 603 0 
L 603 4863 
z
" id="DejaVuSans-6c" transform="scale(0.015625)"/>
      <path d="M 1172 4494 
L 1172 3500 
L 2356 3500 
L 2356 3053 
L 1172 3053 
L 1172 1153 
Q 1172 725 1289 603 
Q 1406 481 1766 481 
L 2356 481 
L 2356 0 
L 1766 0 
Q 1100 0 847 248 
Q 594 497 594 1153 
L 594 3053 
L 172 3053 
L 172 3500 
L 594 3500 
L 594 4494 
L 1172 4494 
z
" id="DejaVuSans-74" transform="scale(0.015625)"/>
      <path d="M 2194 1759 
Q 1497 1759 1228 1600 
Q 959 1441 959 1056 
Q 959 750 1161 570 
Q 1363 391 1709 391 
Q 2188 391 2477 730 
Q 2766 1069 2766 1631 
L 2766 1759 
L 2194 1759 
z
M 3341 1997 
L 3341 0 
L 2766 0 
L 2766 531 
Q 2569 213 2275 61 
Q 1981 -91 1556 -91 
Q 1019 -91 701 211 
Q 384 513 384 1019 
Q 384 1609 779 1909 
Q 1175 2209 1959 2209 
L 2766 2209 
L 2766 2266 
Q 2766 2663 2505 2880 
Q 2244 3097 1772 3097 
Q 1472 3097 1187 3025 
Q 903 2953 641 2809 
L 641 3341 
Q 956 3463 1253 3523 
Q 1550 3584 1831 3584 
Q 2591 3584 2966 3190 
Q 3341 2797 3341 1997 
z
" id="DejaVuSans-61" transform="scale(0.015625)"/>
      <path d="M 313 2009 
L 1997 2009 
L 1997 1497 
L 313 1497 
L 313 2009 
z
" id="DejaVuSans-2d" transform="scale(0.015625)"/>
      <path d="M 750 794 
L 1409 794 
L 1409 256 
L 897 -744 
L 494 -744 
L 750 256 
L 750 794 
z
" id="DejaVuSans-2c" transform="scale(0.015625)"/>
      <path d="M 353 3500 
L 3084 3500 
L 3084 2975 
L 922 459 
L 3084 459 
L 3084 0 
L 275 0 
L 275 525 
L 2438 3041 
L 353 3041 
L 353 3500 
z
" id="DejaVuSans-7a" transform="scale(0.015625)"/>
     </defs>
     <use xlink:href="#DejaVuSans-67"/>
     <use x="63.476562" xlink:href="#DejaVuSans-72"/>
     <use x="102.339844" xlink:href="#DejaVuSans-6f"/>
     <use x="163.521484" xlink:href="#DejaVuSans-75"/>
     <use x="226.900391" xlink:href="#DejaVuSans-6e"/>
     <use x="290.279297" xlink:href="#DejaVuSans-64"/>
     <use x="353.755859" xlink:href="#DejaVuSans-5f"/>
     <use x="403.755859" xlink:href="#DejaVuSans-42"/>
     <use x="472.359375" xlink:href="#DejaVuSans-20"/>
     <use x="504.146484" xlink:href="#DejaVuSans-3d"/>
     <use x="587.935547" xlink:href="#DejaVuSans-20"/>
     <use x="619.722656" xlink:href="#DejaVuSans-20"/>
     <use x="651.509766" xlink:href="#DejaVuSans-30"/>
     <use x="715.132812" xlink:href="#DejaVuSans-2e"/>
     <use x="746.919922" xlink:href="#DejaVuSans-31"/>
     <use x="810.542969" xlink:href="#DejaVuSans-20"/>
     <use x="842.330078" xlink:href="#DejaVuSans-44"/>
     <use x="919.332031" xlink:href="#DejaVuSans-65"/>
     <use x="980.855469" xlink:href="#DejaVuSans-6c"/>
     <use x="1008.638672" xlink:href="#DejaVuSans-74"/>
     <use x="1047.847656" xlink:href="#DejaVuSans-61"/>
     <use x="1109.126953" xlink:href="#DejaVuSans-5f"/>
     <use x="1159.126953" xlink:href="#DejaVuSans-42"/>
     <use x="1227.730469" xlink:href="#DejaVuSans-20"/>
     <use x="1259.517578" xlink:href="#DejaVuSans-3d"/>
     <use x="1343.306641" xlink:href="#DejaVuSans-20"/>
     <use x="1375.09375" xlink:href="#DejaVuSans-2d"/>
     <use x="1411.177734" xlink:href="#DejaVuSans-30"/>
     <use x="1474.800781" xlink:href="#DejaVuSans-2e"/>
     <use x="1506.587891" xlink:href="#DejaVuSans-31"/>
     <use x="1570.210938" xlink:href="#DejaVuSans-37"/>
     <use x="1633.833984" xlink:href="#DejaVuSans-2c"/>
     <use x="1665.621094" xlink:href="#DejaVuSans-20"/>
     <use x="1697.408203" xlink:href="#DejaVuSans-20"/>
     <use x="1729.195312" xlink:href="#DejaVuSans-7a"/>
     <use x="1781.685547" xlink:href="#DejaVuSans-65"/>
     <use x="1843.208984" xlink:href="#DejaVuSans-74"/>
     <use x="1882.417969" xlink:href="#DejaVuSans-61"/>
     <use x="1943.697266" xlink:href="#DejaVuSans-20"/>
     <use x="1975.484375" xlink:href="#DejaVuSans-3d"/>
     <use x="2059.273438" xlink:href="#DejaVuSans-20"/>
     <use x="2091.060547" xlink:href="#DejaVuSans-2d"/>
     <use x="2127.144531" xlink:href="#DejaVuSans-30"/>
     <use x="2190.767578" xlink:href="#DejaVuSans-2e"/>
     <use x="2222.554688" xlink:href="#DejaVuSans-34"/>
     <use x="2286.177734" xlink:href="#DejaVuSans-39"/>
    </g>
   </g>
   <g id="legend_1">
    <g id="patch_7">
     <path d="M 43.465625 343.478125 
L 104.09375 343.478125 
Q 106.09375 343.478125 106.09375 341.478125 
L 106.09375 224.775 
Q 106.09375 222.775 104.09375 222.775 
L 43.465625 222.775 
Q 41.465625 222.775 41.465625 224.775 
L 41.465625 341.478125 
Q 41.465625 343.478125 43.465625 343.478125 
z
" style="fill:#ffffff;opacity:0.8;stroke:#cccccc;stroke-linejoin:miter;"/>
    </g>
    <g id="text_18">
     <!-- ground_B -->
     <g transform="translate(50.160938 234.373438)scale(0.1 -0.1)">
      <use xlink:href="#DejaVuSans-67"/>
      <use x="63.476562" xlink:href="#DejaVuSans-72"/>
      <use x="102.339844" xlink:href="#DejaVuSans-6f"/>
      <use x="163.521484" xlink:href="#DejaVuSans-75"/>
      <use x="226.900391" xlink:href="#DejaVuSans-6e"/>
      <use x="290.279297" xlink:href="#DejaVuSans-64"/>
      <use x="353.755859" xlink:href="#DejaVuSans-5f"/>
      <use x="403.755859" xlink:href="#DejaVuSans-42"/>
     </g>
    </g>
    <g id="line2d_24">
     <path d="M 45.465625 245.829688 
L 65.465625 245.829688 
" style="fill:none;stroke:#ea916e;stroke-linecap:square;"/>
    </g>
    <g id="line2d_25"/>
    <g id="text_19">
     <!-- 0.001 -->
     <g transform="translate(73.465625 249.329688)scale(0.1 -0.1)">
      <use xlink:href="#DejaVuSans-30"/>
      <use x="63.623047" xlink:href="#DejaVuSans-2e"/>
      <use x="95.410156" xlink:href="#DejaVuSans-30"/>
      <use x="159.033203" xlink:href="#DejaVuSans-30"/>
      <use x="222.65625" xlink:href="#DejaVuSans-31"/>
     </g>
    </g>
    <g id="line2d_26">
     <path d="M 45.465625 260.507813 
L 65.465625 260.507813 
" style="fill:none;stroke:#e5715e;stroke-linecap:square;"/>
    </g>
    <g id="line2d_27"/>
    <g id="text_20">
     <!-- 0.003 -->
     <g transform="translate(73.465625 264.007813)scale(0.1 -0.1)">
      <use xlink:href="#DejaVuSans-30"/>
      <use x="63.623047" xlink:href="#DejaVuSans-2e"/>
      <use x="95.410156" xlink:href="#DejaVuSans-30"/>
      <use x="159.033203" xlink:href="#DejaVuSans-30"/>
      <use x="222.65625" xlink:href="#DejaVuSans-33"/>
     </g>
    </g>
    <g id="line2d_28">
     <path d="M 45.465625 275.185938 
L 65.465625 275.185938 
" style="fill:none;stroke:#d9535d;stroke-linecap:square;"/>
    </g>
    <g id="line2d_29"/>
    <g id="text_21">
     <!-- 0.007 -->
     <g transform="translate(73.465625 278.685938)scale(0.1 -0.1)">
      <use xlink:href="#DejaVuSans-30"/>
      <use x="63.623047" xlink:href="#DejaVuSans-2e"/>
      <use x="95.410156" xlink:href="#DejaVuSans-30"/>
      <use x="159.033203" xlink:href="#DejaVuSans-30"/>
      <use x="222.65625" xlink:href="#DejaVuSans-37"/>
     </g>
    </g>
    <g id="line2d_30">
     <path d="M 45.465625 289.864063 
L 65.465625 289.864063 
" style="fill:none;stroke:#c14168;stroke-linecap:square;"/>
    </g>
    <g id="line2d_31"/>
    <g id="text_22">
     <!-- 0.01 -->
     <g transform="translate(73.465625 293.364063)scale(0.1 -0.1)">
      <use xlink:href="#DejaVuSans-30"/>
      <use x="63.623047" xlink:href="#DejaVuSans-2e"/>
      <use x="95.410156" xlink:href="#DejaVuSans-30"/>
      <use x="159.033203" xlink:href="#DejaVuSans-31"/>
     </g>
    </g>
    <g id="line2d_32">
     <path d="M 45.465625 304.542188 
L 65.465625 304.542188 
" style="fill:none;stroke:#a3386f;stroke-linecap:square;"/>
    </g>
    <g id="line2d_33"/>
    <g id="text_23">
     <!-- 0.03 -->
     <g transform="translate(73.465625 308.042188)scale(0.1 -0.1)">
      <use xlink:href="#DejaVuSans-30"/>
      <use x="63.623047" xlink:href="#DejaVuSans-2e"/>
      <use x="95.410156" xlink:href="#DejaVuSans-30"/>
      <use x="159.033203" xlink:href="#DejaVuSans-33"/>
     </g>
    </g>
    <g id="line2d_34">
     <path d="M 45.465625 319.220313 
L 65.465625 319.220313 
" style="fill:none;stroke:#863071;stroke-linecap:square;"/>
    </g>
    <g id="line2d_35"/>
    <g id="text_24">
     <!-- 0.07 -->
     <g transform="translate(73.465625 322.720313)scale(0.1 -0.1)">
      <use xlink:href="#DejaVuSans-30"/>
      <use x="63.623047" xlink:href="#DejaVuSans-2e"/>
      <use x="95.410156" xlink:href="#DejaVuSans-30"/>
      <use x="159.033203" xlink:href="#DejaVuSans-37"/>
     </g>
    </g>
    <g id="line2d_36">
     <path d="M 45.465625 333.898438 
L 65.465625 333.898438 
" style="fill:none;stroke:#672a6b;stroke-linecap:square;"/>
    </g>
    <g id="line2d_37"/>
    <g id="text_25">
     <!-- 0.1 -->
     <g transform="translate(73.465625 337.398438)scale(0.1 -0.1)">
      <use xlink:href="#DejaVuSans-30"/>
      <use x="63.623047" xlink:href="#DejaVuSans-2e"/>
      <use x="95.410156" xlink:href="#DejaVuSans-31"/>
     </g>
    </g>
   </g>
  </g>
 </g>
 <defs>
  <clipPath id="p382b880a76">
   <rect height="326.16" width="837" x="36.465625" y="22.318125"/>
  </clipPath>
 </defs>
</svg>
