<?xml version="1.0" encoding="utf-8" standalone="no"?>
<!DOCTYPE svg PUBLIC "-//W3C//DTD SVG 1.1//EN"
  "http://www.w3.org/Graphics/SVG/1.1/DTD/svg11.dtd">
<svg height="372.35625pt" version="1.1" viewBox="0 0 880.665625 372.35625" width="880.665625pt" xmlns="http://www.w3.org/2000/svg" xmlns:xlink="http://www.w3.org/1999/xlink">
 <metadata>
  <rdf:RDF xmlns:cc="http://creativecommons.org/ns#" xmlns:dc="http://purl.org/dc/elements/1.1/" xmlns:rdf="http://www.w3.org/1999/02/22-rdf-syntax-ns#">
   <cc:Work>
    <dc:type rdf:resource="http://purl.org/dc/dcmitype/StillImage"/>
    <dc:date>2022-10-14T09:52:35.549687</dc:date>
    <dc:format>image/svg+xml</dc:format>
    <dc:creator>
     <cc:Agent>
      <dc:title>Matplotlib v3.4.3, https://matplotlib.org/</dc:title>
     </cc:Agent>
    </dc:creator>
   </cc:Work>
  </rdf:RDF>
 </metadata>
 <defs>
  <style type="text/css">*{stroke-linecap:butt;stroke-linejoin:round;}</style>
 </defs>
 <g id="figure_1">
  <g id="patch_1">
   <path d="M 0 372.35625 
L 880.665625 372.35625 
L 880.665625 0 
L 0 0 
z
" style="fill:#ffffff;"/>
  </g>
  <g id="axes_1">
   <g id="patch_2">
    <path d="M 36.465625 348.478125 
L 873.465625 348.478125 
L 873.465625 22.318125 
L 36.465625 22.318125 
z
" style="fill:#ffffff;"/>
   </g>
   <g id="matplotlib.axis_1">
    <g id="xtick_1">
     <g id="line2d_1">
      <defs>
       <path d="M 0 0 
L 0 3.5 
" id="ma0781d3fad" style="stroke:#000000;stroke-width:0.8;"/>
      </defs>
      <g>
       <use style="stroke:#000000;stroke-width:0.8;" x="122.027576" xlink:href="#ma0781d3fad" y="348.478125"/>
      </g>
     </g>
     <g id="text_1">
      <!-- 6610 -->
      <g transform="translate(109.302576 363.076563)scale(0.1 -0.1)">
       <defs>
        <path d="M 2113 2584 
Q 1688 2584 1439 2293 
Q 1191 2003 1191 1497 
Q 1191 994 1439 701 
Q 1688 409 2113 409 
Q 2538 409 2786 701 
Q 3034 994 3034 1497 
Q 3034 2003 2786 2293 
Q 2538 2584 2113 2584 
z
M 3366 4563 
L 3366 3988 
Q 3128 4100 2886 4159 
Q 2644 4219 2406 4219 
Q 1781 4219 1451 3797 
Q 1122 3375 1075 2522 
Q 1259 2794 1537 2939 
Q 1816 3084 2150 3084 
Q 2853 3084 3261 2657 
Q 3669 2231 3669 1497 
Q 3669 778 3244 343 
Q 2819 -91 2113 -91 
Q 1303 -91 875 529 
Q 447 1150 447 2328 
Q 447 3434 972 4092 
Q 1497 4750 2381 4750 
Q 2619 4750 2861 4703 
Q 3103 4656 3366 4563 
z
" id="DejaVuSans-36" transform="scale(0.015625)"/>
        <path d="M 794 531 
L 1825 531 
L 1825 4091 
L 703 3866 
L 703 4441 
L 1819 4666 
L 2450 4666 
L 2450 531 
L 3481 531 
L 3481 0 
L 794 0 
L 794 531 
z
" id="DejaVuSans-31" transform="scale(0.015625)"/>
        <path d="M 2034 4250 
Q 1547 4250 1301 3770 
Q 1056 3291 1056 2328 
Q 1056 1369 1301 889 
Q 1547 409 2034 409 
Q 2525 409 2770 889 
Q 3016 1369 3016 2328 
Q 3016 3291 2770 3770 
Q 2525 4250 2034 4250 
z
M 2034 4750 
Q 2819 4750 3233 4129 
Q 3647 3509 3647 2328 
Q 3647 1150 3233 529 
Q 2819 -91 2034 -91 
Q 1250 -91 836 529 
Q 422 1150 422 2328 
Q 422 3509 836 4129 
Q 1250 4750 2034 4750 
z
" id="DejaVuSans-30" transform="scale(0.015625)"/>
       </defs>
       <use xlink:href="#DejaVuSans-36"/>
       <use x="63.623047" xlink:href="#DejaVuSans-36"/>
       <use x="127.246094" xlink:href="#DejaVuSans-31"/>
       <use x="190.869141" xlink:href="#DejaVuSans-30"/>
      </g>
     </g>
    </g>
    <g id="xtick_2">
     <g id="line2d_2">
      <g>
       <use style="stroke:#000000;stroke-width:0.8;" x="298.231013" xlink:href="#ma0781d3fad" y="348.478125"/>
      </g>
     </g>
     <g id="text_2">
      <!-- 6612 -->
      <g transform="translate(285.506013 363.076563)scale(0.1 -0.1)">
       <defs>
        <path d="M 1228 531 
L 3431 531 
L 3431 0 
L 469 0 
L 469 531 
Q 828 903 1448 1529 
Q 2069 2156 2228 2338 
Q 2531 2678 2651 2914 
Q 2772 3150 2772 3378 
Q 2772 3750 2511 3984 
Q 2250 4219 1831 4219 
Q 1534 4219 1204 4116 
Q 875 4013 500 3803 
L 500 4441 
Q 881 4594 1212 4672 
Q 1544 4750 1819 4750 
Q 2544 4750 2975 4387 
Q 3406 4025 3406 3419 
Q 3406 3131 3298 2873 
Q 3191 2616 2906 2266 
Q 2828 2175 2409 1742 
Q 1991 1309 1228 531 
z
" id="DejaVuSans-32" transform="scale(0.015625)"/>
       </defs>
       <use xlink:href="#DejaVuSans-36"/>
       <use x="63.623047" xlink:href="#DejaVuSans-36"/>
       <use x="127.246094" xlink:href="#DejaVuSans-31"/>
       <use x="190.869141" xlink:href="#DejaVuSans-32"/>
      </g>
     </g>
    </g>
    <g id="xtick_3">
     <g id="line2d_3">
      <g>
       <use style="stroke:#000000;stroke-width:0.8;" x="474.434449" xlink:href="#ma0781d3fad" y="348.478125"/>
      </g>
     </g>
     <g id="text_3">
      <!-- 6614 -->
      <g transform="translate(461.709449 363.076563)scale(0.1 -0.1)">
       <defs>
        <path d="M 2419 4116 
L 825 1625 
L 2419 1625 
L 2419 4116 
z
M 2253 4666 
L 3047 4666 
L 3047 1625 
L 3713 1625 
L 3713 1100 
L 3047 1100 
L 3047 0 
L 2419 0 
L 2419 1100 
L 313 1100 
L 313 1709 
L 2253 4666 
z
" id="DejaVuSans-34" transform="scale(0.015625)"/>
       </defs>
       <use xlink:href="#DejaVuSans-36"/>
       <use x="63.623047" xlink:href="#DejaVuSans-36"/>
       <use x="127.246094" xlink:href="#DejaVuSans-31"/>
       <use x="190.869141" xlink:href="#DejaVuSans-34"/>
      </g>
     </g>
    </g>
    <g id="xtick_4">
     <g id="line2d_4">
      <g>
       <use style="stroke:#000000;stroke-width:0.8;" x="650.637885" xlink:href="#ma0781d3fad" y="348.478125"/>
      </g>
     </g>
     <g id="text_4">
      <!-- 6616 -->
      <g transform="translate(637.912885 363.076563)scale(0.1 -0.1)">
       <use xlink:href="#DejaVuSans-36"/>
       <use x="63.623047" xlink:href="#DejaVuSans-36"/>
       <use x="127.246094" xlink:href="#DejaVuSans-31"/>
       <use x="190.869141" xlink:href="#DejaVuSans-36"/>
      </g>
     </g>
    </g>
    <g id="xtick_5">
     <g id="line2d_5">
      <g>
       <use style="stroke:#000000;stroke-width:0.8;" x="826.841322" xlink:href="#ma0781d3fad" y="348.478125"/>
      </g>
     </g>
     <g id="text_5">
      <!-- 6618 -->
      <g transform="translate(814.116322 363.076563)scale(0.1 -0.1)">
       <defs>
        <path d="M 2034 2216 
Q 1584 2216 1326 1975 
Q 1069 1734 1069 1313 
Q 1069 891 1326 650 
Q 1584 409 2034 409 
Q 2484 409 2743 651 
Q 3003 894 3003 1313 
Q 3003 1734 2745 1975 
Q 2488 2216 2034 2216 
z
M 1403 2484 
Q 997 2584 770 2862 
Q 544 3141 544 3541 
Q 544 4100 942 4425 
Q 1341 4750 2034 4750 
Q 2731 4750 3128 4425 
Q 3525 4100 3525 3541 
Q 3525 3141 3298 2862 
Q 3072 2584 2669 2484 
Q 3125 2378 3379 2068 
Q 3634 1759 3634 1313 
Q 3634 634 3220 271 
Q 2806 -91 2034 -91 
Q 1263 -91 848 271 
Q 434 634 434 1313 
Q 434 1759 690 2068 
Q 947 2378 1403 2484 
z
M 1172 3481 
Q 1172 3119 1398 2916 
Q 1625 2713 2034 2713 
Q 2441 2713 2670 2916 
Q 2900 3119 2900 3481 
Q 2900 3844 2670 4047 
Q 2441 4250 2034 4250 
Q 1625 4250 1398 4047 
Q 1172 3844 1172 3481 
z
" id="DejaVuSans-38" transform="scale(0.015625)"/>
       </defs>
       <use xlink:href="#DejaVuSans-36"/>
       <use x="63.623047" xlink:href="#DejaVuSans-36"/>
       <use x="127.246094" xlink:href="#DejaVuSans-31"/>
       <use x="190.869141" xlink:href="#DejaVuSans-38"/>
      </g>
     </g>
    </g>
   </g>
   <g id="matplotlib.axis_2">
    <g id="ytick_1">
     <g id="line2d_6">
      <defs>
       <path d="M 0 0 
L -3.5 0 
" id="m9b3311d807" style="stroke:#000000;stroke-width:0.8;"/>
      </defs>
      <g>
       <use style="stroke:#000000;stroke-width:0.8;" x="36.465625" xlink:href="#m9b3311d807" y="333.65267"/>
      </g>
     </g>
     <g id="text_6">
      <!-- 0.90 -->
      <g transform="translate(7.2 337.451889)scale(0.1 -0.1)">
       <defs>
        <path d="M 684 794 
L 1344 794 
L 1344 0 
L 684 0 
L 684 794 
z
" id="DejaVuSans-2e" transform="scale(0.015625)"/>
        <path d="M 703 97 
L 703 672 
Q 941 559 1184 500 
Q 1428 441 1663 441 
Q 2288 441 2617 861 
Q 2947 1281 2994 2138 
Q 2813 1869 2534 1725 
Q 2256 1581 1919 1581 
Q 1219 1581 811 2004 
Q 403 2428 403 3163 
Q 403 3881 828 4315 
Q 1253 4750 1959 4750 
Q 2769 4750 3195 4129 
Q 3622 3509 3622 2328 
Q 3622 1225 3098 567 
Q 2575 -91 1691 -91 
Q 1453 -91 1209 -44 
Q 966 3 703 97 
z
M 1959 2075 
Q 2384 2075 2632 2365 
Q 2881 2656 2881 3163 
Q 2881 3666 2632 3958 
Q 2384 4250 1959 4250 
Q 1534 4250 1286 3958 
Q 1038 3666 1038 3163 
Q 1038 2656 1286 2365 
Q 1534 2075 1959 2075 
z
" id="DejaVuSans-39" transform="scale(0.015625)"/>
       </defs>
       <use xlink:href="#DejaVuSans-30"/>
       <use x="63.623047" xlink:href="#DejaVuSans-2e"/>
       <use x="95.410156" xlink:href="#DejaVuSans-39"/>
       <use x="159.033203" xlink:href="#DejaVuSans-30"/>
      </g>
     </g>
    </g>
    <g id="ytick_2">
     <g id="line2d_7">
      <g>
       <use style="stroke:#000000;stroke-width:0.8;" x="36.465625" xlink:href="#m9b3311d807" y="274.350852"/>
      </g>
     </g>
     <g id="text_7">
      <!-- 0.92 -->
      <g transform="translate(7.2 278.150071)scale(0.1 -0.1)">
       <use xlink:href="#DejaVuSans-30"/>
       <use x="63.623047" xlink:href="#DejaVuSans-2e"/>
       <use x="95.410156" xlink:href="#DejaVuSans-39"/>
       <use x="159.033203" xlink:href="#DejaVuSans-32"/>
      </g>
     </g>
    </g>
    <g id="ytick_3">
     <g id="line2d_8">
      <g>
       <use style="stroke:#000000;stroke-width:0.8;" x="36.465625" xlink:href="#m9b3311d807" y="215.049034"/>
      </g>
     </g>
     <g id="text_8">
      <!-- 0.94 -->
      <g transform="translate(7.2 218.848253)scale(0.1 -0.1)">
       <use xlink:href="#DejaVuSans-30"/>
       <use x="63.623047" xlink:href="#DejaVuSans-2e"/>
       <use x="95.410156" xlink:href="#DejaVuSans-39"/>
       <use x="159.033203" xlink:href="#DejaVuSans-34"/>
      </g>
     </g>
    </g>
    <g id="ytick_4">
     <g id="line2d_9">
      <g>
       <use style="stroke:#000000;stroke-width:0.8;" x="36.465625" xlink:href="#m9b3311d807" y="155.747216"/>
      </g>
     </g>
     <g id="text_9">
      <!-- 0.96 -->
      <g transform="translate(7.2 159.546435)scale(0.1 -0.1)">
       <use xlink:href="#DejaVuSans-30"/>
       <use x="63.623047" xlink:href="#DejaVuSans-2e"/>
       <use x="95.410156" xlink:href="#DejaVuSans-39"/>
       <use x="159.033203" xlink:href="#DejaVuSans-36"/>
      </g>
     </g>
    </g>
    <g id="ytick_5">
     <g id="line2d_10">
      <g>
       <use style="stroke:#000000;stroke-width:0.8;" x="36.465625" xlink:href="#m9b3311d807" y="96.445398"/>
      </g>
     </g>
     <g id="text_10">
      <!-- 0.98 -->
      <g transform="translate(7.2 100.244616)scale(0.1 -0.1)">
       <use xlink:href="#DejaVuSans-30"/>
       <use x="63.623047" xlink:href="#DejaVuSans-2e"/>
       <use x="95.410156" xlink:href="#DejaVuSans-39"/>
       <use x="159.033203" xlink:href="#DejaVuSans-38"/>
      </g>
     </g>
    </g>
    <g id="ytick_6">
     <g id="line2d_11">
      <g>
       <use style="stroke:#000000;stroke-width:0.8;" x="36.465625" xlink:href="#m9b3311d807" y="37.14358"/>
      </g>
     </g>
     <g id="text_11">
      <!-- 1.00 -->
      <g transform="translate(7.2 40.942798)scale(0.1 -0.1)">
       <use xlink:href="#DejaVuSans-31"/>
       <use x="63.623047" xlink:href="#DejaVuSans-2e"/>
       <use x="95.410156" xlink:href="#DejaVuSans-30"/>
       <use x="159.033203" xlink:href="#DejaVuSans-30"/>
      </g>
     </g>
    </g>
   </g>
   <g id="line2d_12">
    <path clip-path="url(#p9abf6c8085)" d="M 835.42017 37.14358 
L 633.383698 37.252634 
L 614.330881 37.490473 
L 602.899788 37.834809 
L 594.517272 38.290448 
L 587.659029 38.882573 
L 582.324952 39.552277 
L 577.752963 40.333836 
L 573.943027 41.181343 
L 570.133141 42.260901 
L 567.085269 43.334911 
L 564.037428 44.640347 
L 560.989618 46.227316 
L 558.703782 47.638023 
L 556.417965 49.270103 
L 554.132164 51.15686 
L 551.846382 53.335672 
L 549.560618 55.848114 
L 547.274872 58.739955 
L 544.989144 62.060965 
L 542.703433 65.864486 
L 540.417741 70.206703 
L 538.132066 75.145562 
L 535.846409 80.739266 
L 533.560771 87.044315 
L 531.27515 94.113048 
L 528.989547 101.990682 
L 526.703962 110.711879 
L 524.418395 120.296917 
L 522.132846 130.747576 
L 519.847315 142.042937 
L 516.799968 158.330706 
L 513.752653 175.833785 
L 509.18174 203.671821 
L 502.325505 245.865254 
L 499.278342 263.282457 
L 496.99299 275.253648 
L 494.707656 286.011967 
L 493.18411 292.403784 
L 491.660572 298.111239 
L 490.137042 303.097356 
L 488.61352 307.34058 
L 487.090006 310.836869 
L 485.566499 313.601468 
L 484.043001 315.67022 
L 482.519511 317.100268 
L 480.996029 317.969956 
L 479.472555 318.377682 
L 477.949088 318.439452 
L 475.663904 318.169005 
L 473.378737 317.873229 
L 471.855303 317.877379 
L 470.331876 318.164178 
L 468.808457 318.797416 
L 467.285047 319.790588 
L 465.761644 321.0966 
L 461.191484 325.466054 
L 460.429798 325.978707 
L 459.668114 326.346631 
L 458.906431 326.53932 
L 458.144751 326.528777 
L 457.383072 326.290654 
L 456.621396 325.805325 
L 455.859722 325.058842 
L 455.098049 324.043731 
L 454.336379 322.75958 
L 452.813044 319.419679 
L 451.289717 315.183989 
L 449.004741 307.728646 
L 445.958135 297.615641 
L 444.434844 293.34957 
L 442.911561 290.061406 
L 442.149922 288.863981 
L 441.388286 287.995019 
L 440.626651 287.469454 
L 439.865019 287.295617 
L 439.103388 287.475323 
L 438.341759 288.004103 
L 437.580133 288.871556 
L 436.818508 290.061807 
L 436.056886 291.554031 
L 434.533646 295.339901 
L 433.010415 299.986424 
L 430.725583 307.944998 
L 427.679168 318.798129 
L 426.155972 323.658054 
L 424.632785 327.781848 
L 423.109605 330.941249 
L 422.348018 332.098572 
L 421.586433 332.947132 
L 420.824851 333.469921 
L 420.06327 333.65267 
L 419.301691 333.483856 
L 418.540114 332.954677 
L 417.778539 332.059018 
L 417.016966 330.793388 
L 416.255396 329.156849 
L 415.493827 327.150916 
L 413.970695 322.048574 
L 412.447571 315.543291 
L 410.924455 307.723312 
L 409.401347 298.703372 
L 407.1167 283.225744 
L 404.832071 265.879579 
L 401.785927 240.819665 
L 393.409195 170.39148 
L 390.36317 147.302253 
L 388.078672 131.549838 
L 385.794193 117.299138 
L 383.509731 104.612042 
L 381.225287 93.485328 
L 378.940861 83.863168 
L 377.41792 78.238401 
L 375.894987 73.2051 
L 374.372063 68.724127 
L 372.849146 64.754001 
L 371.326237 61.252143 
L 369.803336 58.175939 
L 368.280443 55.483631 
L 366.757558 53.135027 
L 365.234681 51.092043 
L 363.711812 49.319096 
L 362.188951 47.78335 
L 359.904674 45.859758 
L 357.620416 44.314294 
L 355.336175 43.072266 
L 353.051952 42.072054 
L 350.006349 41.029593 
L 346.960778 40.237468 
L 343.153859 39.49915 
L 338.585622 38.867236 
L 333.256103 38.358888 
L 326.404007 37.930745 
L 317.26813 37.590814 
L 304.326128 37.345979 
L 283.011143 37.197868 
L 234.297035 37.14588 
L 74.51108 37.14358 
L 74.51108 37.14358 
" style="fill:none;stroke:#e98768;stroke-linecap:square;"/>
   </g>
   <g id="line2d_13">
    <path clip-path="url(#p9abf6c8085)" d="M 830.958676 37.14358 
L 632.38906 37.250875 
L 613.592129 37.490616 
L 602.314553 37.843423 
L 594.044607 38.316544 
L 588.030249 38.855364 
L 582.767787 39.531783 
L 578.257181 40.326771 
L 574.498396 41.193684 
L 570.73966 42.303052 
L 567.732706 43.410558 
L 564.725782 44.759966 
L 561.71889 46.403061 
L 559.463742 47.864687 
L 557.20861 49.55567 
L 554.953496 51.509366 
L 552.6984 53.762777 
L 550.443321 56.356529 
L 548.18826 59.33471 
L 545.933215 62.744503 
L 543.678189 66.635597 
L 541.42318 71.059305 
L 539.168188 76.067356 
L 536.913214 81.710335 
L 534.658257 88.035728 
L 532.403318 95.085582 
L 530.148396 102.893782 
L 527.893491 111.483008 
L 525.638604 120.861449 
L 523.383735 131.019397 
L 520.377269 145.71895 
L 517.370835 161.60467 
L 513.612835 182.773181 
L 502.339127 247.765731 
L 499.332879 263.094958 
L 497.078213 273.400658 
L 494.823564 282.475759 
L 493.320475 287.769885 
L 491.817394 292.424932 
L 490.31432 296.42664 
L 488.811254 299.776163 
L 487.308195 302.491571 
L 485.805145 304.608995 
L 484.302102 306.183319 
L 482.799067 307.288263 
L 481.29604 308.015714 
L 479.79302 308.474085 
L 475.284008 309.495808 
L 473.78102 310.158682 
L 472.278039 311.183723 
L 470.775066 312.657108 
L 469.2721 314.623898 
L 467.769143 317.074914 
L 466.266193 319.935947 
L 461.00593 330.490793 
L 460.254472 331.61658 
L 459.503015 332.530917 
L 458.751561 333.196784 
L 458.000108 333.580446 
L 457.248657 333.65267 
L 456.497209 333.38987 
L 455.745762 332.775104 
L 454.994317 331.79891 
L 454.242874 330.459912 
L 453.491433 328.765171 
L 451.988557 324.379116 
L 450.485689 318.862146 
L 448.231401 309.217902 
L 445.225711 296.052803 
L 443.722877 290.319655 
L 442.220051 285.646694 
L 441.468642 283.793572 
L 440.717234 282.295404 
L 439.965827 281.168156 
L 439.214423 280.420935 
L 438.463021 280.056172 
L 437.711621 280.069939 
L 436.960223 280.452372 
L 436.208826 281.188178 
L 435.457432 282.257201 
L 434.706039 283.63503 
L 433.20326 287.201908 
L 431.700489 291.631966 
L 429.446346 299.266025 
L 425.68948 312.165726 
L 424.186748 316.580538 
L 422.684023 320.211179 
L 421.932663 321.670669 
L 421.181305 322.864641 
L 420.42995 323.774888 
L 419.678596 324.385656 
L 418.927244 324.683653 
L 418.175894 324.658041 
L 417.424546 324.30041 
L 416.6732 323.604732 
L 415.921856 322.567309 
L 415.170514 321.186699 
L 414.419174 319.463635 
L 413.667836 317.400932 
L 412.165165 312.277646 
L 410.662502 305.876871 
L 409.159847 298.284564 
L 407.6572 289.608397 
L 405.403243 274.838953 
L 403.149304 258.38652 
L 400.144079 234.703626 
L 391.879869 168.077067 
L 388.874761 146.061529 
L 386.620949 130.950804 
L 384.367155 117.197782 
L 382.113379 104.871113 
L 379.85962 93.98132 
L 377.605879 84.49088 
L 375.352154 76.324998 
L 373.849681 71.567644 
L 372.347216 67.319679 
L 370.844758 63.544422 
L 369.342309 60.204116 
L 367.839867 57.260836 
L 366.337432 54.67725 
L 364.835006 52.41724 
L 363.332587 50.446388 
L 361.830176 48.732331 
L 359.576574 46.577644 
L 357.322989 44.842597 
L 355.069422 43.448703 
L 352.815872 42.329659 
L 350.56234 41.430432 
L 347.557657 40.496943 
L 344.553006 39.792138 
L 340.797235 39.141083 
L 336.290373 38.590722 
L 330.281334 38.104944 
L 322.770208 37.732401 
L 312.254958 37.445786 
L 296.482794 37.2557 
L 267.193898 37.160719 
L 150.818421 37.143583 
L 80.264974 37.14358 
L 80.264974 37.14358 
" style="fill:none;stroke:#de5d5c;stroke-linecap:square;"/>
   </g>
   <g id="line2d_14">
    <path clip-path="url(#p9abf6c8085)" d="M 803.94884 37.14358 
L 624.038563 37.251206 
L 610.464935 37.489963 
L 602.321061 37.834632 
L 596.213306 38.292751 
L 591.462917 38.837473 
L 587.391218 39.490755 
L 583.319575 40.374108 
L 579.926583 41.335295 
L 576.53363 42.551641 
L 573.819296 43.745321 
L 571.104988 45.169288 
L 568.390705 46.858203 
L 565.676447 48.849312 
L 562.962215 51.181916 
L 560.248007 53.896606 
L 558.212368 56.207973 
L 556.176744 58.77419 
L 553.4626 62.620122 
L 550.748481 66.98291 
L 548.034387 71.891951 
L 545.320319 77.368583 
L 542.606276 83.423487 
L 539.892259 90.05392 
L 537.178266 97.240888 
L 533.785811 106.947317 
L 530.393396 117.340241 
L 525.64408 132.687589 
L 517.502577 159.141972 
L 514.110351 169.240838 
L 511.396599 176.506734 
L 509.361301 181.334365 
L 507.326018 185.526871 
L 505.96917 187.926649 
L 504.612329 189.983465 
L 503.255494 191.677468 
L 501.898665 192.992379 
L 500.541843 193.916337 
L 499.185027 194.442835 
L 497.828217 194.571754 
L 496.471413 194.310501 
L 495.114616 193.675233 
L 493.757825 192.692162 
L 492.401041 191.398919 
L 490.365876 188.991639 
L 486.973966 184.35251 
L 484.938839 181.747817 
L 483.582096 180.3543 
L 482.225358 179.414878 
L 481.546992 179.168259 
L 480.868628 179.100068 
L 480.190265 179.23331 
L 479.511903 179.591358 
L 478.833543 180.197751 
L 478.155185 181.075929 
L 477.476828 182.248951 
L 476.798473 183.739154 
L 476.12012 185.567774 
L 475.441768 187.754519 
L 474.085068 193.270736 
L 472.728375 200.396118 
L 471.371689 209.180647 
L 470.015009 219.596807 
L 468.658335 231.520902 
L 466.623335 251.68582 
L 461.87506 301.329579 
L 460.518424 313.341364 
L 459.161794 323.089968 
L 458.483481 326.90947 
L 457.80517 329.9297 
L 457.126861 332.090527 
L 456.448553 333.34338 
L 455.770247 333.65267 
L 455.091942 332.996925 
L 454.413639 331.369589 
L 453.735338 328.779458 
L 453.057038 325.250715 
L 452.37874 320.822568 
L 451.022148 309.495113 
L 449.665563 295.373559 
L 447.630696 270.584381 
L 442.88273 210.338816 
L 441.526182 195.777213 
L 440.169641 183.315064 
L 438.813106 173.19482 
L 437.456577 165.506127 
L 436.778315 162.565063 
L 436.100055 160.20761 
L 435.421796 158.412681 
L 434.743539 157.154588 
L 434.065283 156.403936 
L 433.387029 156.128475 
L 432.708777 156.293889 
L 432.030526 156.864503 
L 431.352276 157.803921 
L 430.674029 159.075571 
L 429.317538 162.471125 
L 427.961053 166.770896 
L 425.926338 174.351833 
L 419.144058 201.177059 
L 417.109405 207.793983 
L 415.752977 211.537585 
L 414.396556 214.679641 
L 413.040141 217.178934 
L 411.683733 219.007349 
L 411.005531 219.664455 
L 410.32733 220.148587 
L 409.649131 220.459365 
L 408.970934 220.59701 
L 408.292738 220.562308 
L 407.614544 220.356587 
L 406.936352 219.981687 
L 406.258161 219.439924 
L 405.579972 218.734073 
L 404.223598 216.8433 
L 402.86723 214.339582 
L 401.510869 211.258667 
L 400.154514 207.640987 
L 398.798165 203.530832 
L 396.763654 196.546395 
L 394.729157 188.729373 
L 392.016517 177.312608 
L 387.947603 158.887547 
L 380.488076 124.804477 
L 377.097445 110.517768 
L 374.384969 100.006537 
L 371.672518 90.435162 
L 368.960092 81.86243 
L 366.925789 76.097969 
L 364.891501 70.895471 
L 362.857226 66.237001 
L 360.822966 62.096963 
L 358.78872 58.444034 
L 356.754488 55.242946 
L 354.720271 52.456091 
L 352.686068 50.044895 
L 350.651878 47.970975 
L 348.617704 46.197055 
L 346.583543 44.687678 
L 344.549396 43.409699 
L 341.837223 42.013358 
L 339.125075 40.909977 
L 336.412952 40.044019 
L 333.022834 39.224719 
L 329.632756 38.629138 
L 325.564714 38.129208 
L 320.140746 37.709637 
L 313.360928 37.424385 
L 303.191498 37.241425 
L 283.531605 37.156943 
L 187.285079 37.143581 
L 126.300225 37.14358 
L 126.300225 37.14358 
" style="fill:none;stroke:#c14168;stroke-linecap:square;"/>
   </g>
   <g id="line2d_15">
    <path clip-path="url(#p9abf6c8085)" d="M 791.891685 37.14358 
L 644.980432 37.251424 
L 630.963726 37.487393 
L 621.82276 37.840678 
L 614.510193 38.336253 
L 608.416527 38.973285 
L 603.541686 39.687107 
L 599.276267 40.504457 
L 595.010911 41.544485 
L 591.354941 42.648367 
L 587.699017 43.982401 
L 584.043138 45.581293 
L 580.996608 47.142203 
L 577.95011 48.933651 
L 574.903643 50.976803 
L 571.857209 53.291939 
L 568.810806 55.897664 
L 565.764435 58.809997 
L 562.718096 62.041327 
L 559.671788 65.599256 
L 556.625513 69.485355 
L 553.579269 73.693851 
L 549.923819 79.148587 
L 546.268415 85.002121 
L 542.003834 92.243534 
L 535.302476 104.147462 
L 528.601273 115.926214 
L 524.946136 121.903243 
L 521.900224 126.448072 
L 519.463517 129.705513 
L 517.02683 132.553659 
L 515.199328 134.381037 
L 513.371838 135.91339 
L 511.54436 137.124611 
L 509.716892 137.990225 
L 508.498587 138.364148 
L 507.280287 138.568464 
L 506.061992 138.597742 
L 504.843702 138.447198 
L 503.625418 138.112767 
L 502.407138 137.591172 
L 501.188863 136.880006 
L 499.970594 135.97782 
L 498.143199 134.265832 
L 496.315816 132.12725 
L 494.488444 129.573207 
L 492.661084 126.624263 
L 490.833735 123.313923 
L 488.397288 118.432486 
L 482.306259 105.66781 
L 481.088069 103.583486 
L 479.869883 101.946951 
L 479.260793 101.355761 
L 478.651703 100.952722 
L 478.042615 100.768766 
L 477.433528 100.837486 
L 476.824442 101.195009 
L 476.215358 101.879777 
L 475.606275 102.932215 
L 474.997193 104.394261 
L 474.388112 106.308761 
L 473.779033 108.718708 
L 473.169955 111.666331 
L 471.951802 119.33312 
L 470.733655 129.587432 
L 469.515513 142.613231 
L 468.297376 158.451239 
L 467.079244 176.951392 
L 465.252056 208.794581 
L 460.988661 287.629576 
L 459.770559 306.152053 
L 458.552463 320.630786 
L 457.943417 326.022523 
L 457.334372 330.039667 
L 456.725328 332.601757 
L 456.116286 333.65267 
L 455.507245 333.162384 
L 454.898205 331.128011 
L 454.289166 327.574073 
L 453.680129 322.551978 
L 453.071093 316.138733 
L 451.853025 299.562074 
L 450.634961 278.880136 
L 448.807876 242.943161 
L 445.76276 180.978211 
L 443.935705 148.665698 
L 442.717675 130.654599 
L 441.49965 115.828186 
L 440.28163 104.218162 
L 439.063615 95.66345 
L 438.45461 92.443009 
L 437.845605 89.868035 
L 437.236603 87.889781 
L 436.627601 86.457793 
L 436.0186 85.521197 
L 435.409601 85.029796 
L 434.800603 84.934967 
L 434.191607 85.190356 
L 433.582612 85.752397 
L 432.973618 86.580661 
L 431.755633 88.890889 
L 430.537654 91.86493 
L 428.710695 97.136315 
L 425.665788 106.950053 
L 420.794004 122.686491 
L 418.358143 129.87035 
L 415.922301 136.332495 
L 414.095434 140.619356 
L 412.268578 144.372869 
L 410.441733 147.55549 
L 409.223843 149.345978 
L 408.005958 150.864428 
L 406.788078 152.106995 
L 405.570204 153.071743 
L 404.352334 153.75861 
L 403.134469 154.169349 
L 401.91661 154.307458 
L 400.698755 154.178095 
L 399.480906 153.787977 
L 398.263062 153.145274 
L 397.045223 152.259484 
L 395.827389 151.14131 
L 394.000647 149.054335 
L 392.173917 146.514692 
L 390.347198 143.569495 
L 387.911591 139.097741 
L 385.476005 134.114703 
L 382.43155 127.352075 
L 377.560489 115.831675 
L 370.25405 98.496211 
L 366.600899 90.368276 
L 363.556641 84.042447 
L 360.512416 78.187845 
L 357.468222 72.837593 
L 354.42406 68.003002 
L 351.988753 64.502943 
L 349.553467 61.31979 
L 347.118201 58.440016 
L 344.682956 55.84716 
L 342.24773 53.522845 
L 339.812525 51.447628 
L 336.768548 49.173714 
L 333.724602 47.219815 
L 330.680689 45.549233 
L 327.636807 44.127579 
L 324.592956 42.923197 
L 320.940378 41.724477 
L 317.287846 40.753282 
L 313.026616 39.856983 
L 308.156715 39.082401 
L 302.678174 38.455032 
L 296.591027 37.979421 
L 288.677926 37.597241 
L 278.330349 37.338864 
L 262.505354 37.192436 
L 225.989417 37.144638 
L 183.393277 37.14358 
L 183.393277 37.14358 
" style="fill:none;stroke:#9a3670;stroke-linecap:square;"/>
   </g>
   <g id="line2d_16">
    <path clip-path="url(#p9abf6c8085)" d="M 803.94884 37.14358 
L 686.371987 37.251172 
L 668.705576 37.491016 
L 657.155041 37.853848 
L 648.322587 38.3374 
L 640.849181 38.961731 
L 634.734719 39.676008 
L 629.29975 40.510476 
L 623.864881 41.57892 
L 619.109455 42.745896 
L 615.033436 43.949015 
L 610.957475 45.367127 
L 606.881571 47.028263 
L 602.805724 48.961727 
L 599.409228 50.802634 
L 596.012772 52.870932 
L 592.616355 55.183685 
L 589.219978 57.757167 
L 585.823641 60.606348 
L 582.427343 63.744296 
L 579.031084 67.181499 
L 575.634866 70.925092 
L 572.238687 74.978009 
L 568.842547 79.338044 
L 564.767232 84.963233 
L 560.691974 90.989951 
L 555.937578 98.466182 
L 550.504077 107.461154 
L 535.562474 132.540139 
L 532.166762 137.731467 
L 528.771089 142.487603 
L 526.05458 145.889755 
L 524.017214 148.160125 
L 521.979863 150.155941 
L 519.942526 151.847266 
L 517.905203 153.204875 
L 515.867895 154.200872 
L 514.509697 154.651104 
L 513.151505 154.922117 
L 511.79332 155.00768 
L 510.435141 154.902465 
L 509.076969 154.602249 
L 507.718803 154.104148 
L 506.360643 153.406902 
L 505.00249 152.51121 
L 503.644342 151.420123 
L 501.607134 149.430881 
L 499.569939 147.050709 
L 497.532759 144.336471 
L 494.13749 139.317442 
L 490.74226 134.251532 
L 488.705142 131.590811 
L 487.34707 130.149202 
L 485.989006 129.094155 
L 485.309976 128.748282 
L 484.630947 128.544801 
L 483.95192 128.500723 
L 483.272895 128.633846 
L 482.593871 128.962696 
L 481.914849 129.506448 
L 481.235829 130.284828 
L 480.55681 131.31798 
L 479.877792 132.626318 
L 479.198776 134.230331 
L 478.519762 136.150371 
L 477.161738 141.017617 
L 475.803721 147.37711 
L 474.44571 155.354662 
L 473.087705 165.038425 
L 471.729707 176.462012 
L 470.371715 189.585963 
L 468.334739 212.143675 
L 465.618793 246.005829 
L 462.223895 288.67839 
L 460.865948 303.657553 
L 459.508006 316.300983 
L 458.150071 325.890446 
L 457.471106 329.344356 
L 456.792142 331.819442 
L 456.11318 333.267128 
L 455.43422 333.65267 
L 454.755261 332.95624 
L 454.076304 331.173665 
L 453.397348 328.316776 
L 452.718394 324.41336 
L 452.039442 319.506695 
L 450.681541 306.928645 
L 449.323647 291.196985 
L 447.286818 263.403204 
L 441.855344 184.973166 
L 440.497491 168.302723 
L 439.139645 153.740183 
L 437.781804 141.474315 
L 436.423971 131.553563 
L 435.066143 123.912126 
L 434.387232 120.901557 
L 433.708322 118.399248 
L 433.029414 116.377793 
L 432.350507 114.807892 
L 431.671602 113.659038 
L 430.992699 112.900121 
L 430.313797 112.499944 
L 429.634896 112.427657 
L 428.955998 112.653112 
L 428.2771 113.147143 
L 427.598205 113.881783 
L 426.240419 115.967855 
L 424.882639 118.7161 
L 423.524865 121.955564 
L 421.488216 127.419867 
L 413.341764 150.245924 
L 411.305186 155.130661 
L 409.268623 159.437172 
L 407.232074 163.100397 
L 405.874382 165.163919 
L 404.516697 166.915547 
L 403.159019 168.351521 
L 401.801346 169.471188 
L 400.44368 170.276694 
L 399.08602 170.772692 
L 397.728367 170.966081 
L 396.37072 170.865753 
L 395.013079 170.482354 
L 393.655444 169.828046 
L 392.297816 168.916281 
L 390.940194 167.761577 
L 389.582579 166.379304 
L 387.546167 163.914353 
L 385.50977 161.029216 
L 383.473387 157.78046 
L 380.758232 152.980043 
L 377.364324 146.405806 
L 373.291686 137.97829 
L 359.716638 109.443815 
L 355.644247 101.539626 
L 351.571913 94.142674 
L 348.178344 88.40139 
L 344.784816 83.058536 
L 341.391327 78.116523 
L 337.997877 73.570301 
L 334.604467 69.4094 
L 331.211096 65.619465 
L 327.817765 62.183395 
L 324.424474 59.08219 
L 321.031222 56.295604 
L 317.638009 53.802648 
L 314.244836 51.582011 
L 310.851703 49.612399 
L 307.458609 47.872835 
L 303.386948 46.060319 
L 299.315345 44.51589 
L 295.243798 43.207685 
L 290.493732 41.940606 
L 285.743744 40.911903 
L 280.31528 39.979194 
L 274.20838 39.180606 
L 267.423086 38.535274 
L 259.280941 38.008345 
L 249.78206 37.627371 
L 236.891216 37.354031 
L 217.895224 37.19984 
L 176.515387 37.145609 
L 125.646597 37.14358 
L 125.646597 37.14358 
" style="fill:none;stroke:#722c6e;stroke-linecap:square;"/>
   </g>
   <g id="patch_3">
    <path d="M 36.465625 348.478125 
L 36.465625 22.318125 
" style="fill:none;stroke:#000000;stroke-linecap:square;stroke-linejoin:miter;stroke-width:0.8;"/>
   </g>
   <g id="patch_4">
    <path d="M 873.465625 348.478125 
L 873.465625 22.318125 
" style="fill:none;stroke:#000000;stroke-linecap:square;stroke-linejoin:miter;stroke-width:0.8;"/>
   </g>
   <g id="patch_5">
    <path d="M 36.465625 348.478125 
L 873.465625 348.478125 
" style="fill:none;stroke:#000000;stroke-linecap:square;stroke-linejoin:miter;stroke-width:0.8;"/>
   </g>
   <g id="patch_6">
    <path d="M 36.465625 22.318125 
L 873.465625 22.318125 
" style="fill:none;stroke:#000000;stroke-linecap:square;stroke-linejoin:miter;stroke-width:0.8;"/>
   </g>
   <g id="text_12">
    <!--  Temperature = 50K   ground_B =  0.01 cm-1    Delta_B = -0.2 -->
    <g transform="translate(268.140625 16.318125)scale(0.12 -0.12)">
     <defs>
      <path id="DejaVuSans-20" transform="scale(0.015625)"/>
      <path d="M -19 4666 
L 3928 4666 
L 3928 4134 
L 2272 4134 
L 2272 0 
L 1638 0 
L 1638 4134 
L -19 4134 
L -19 4666 
z
" id="DejaVuSans-54" transform="scale(0.015625)"/>
      <path d="M 3597 1894 
L 3597 1613 
L 953 1613 
Q 991 1019 1311 708 
Q 1631 397 2203 397 
Q 2534 397 2845 478 
Q 3156 559 3463 722 
L 3463 178 
Q 3153 47 2828 -22 
Q 2503 -91 2169 -91 
Q 1331 -91 842 396 
Q 353 884 353 1716 
Q 353 2575 817 3079 
Q 1281 3584 2069 3584 
Q 2775 3584 3186 3129 
Q 3597 2675 3597 1894 
z
M 3022 2063 
Q 3016 2534 2758 2815 
Q 2500 3097 2075 3097 
Q 1594 3097 1305 2825 
Q 1016 2553 972 2059 
L 3022 2063 
z
" id="DejaVuSans-65" transform="scale(0.015625)"/>
      <path d="M 3328 2828 
Q 3544 3216 3844 3400 
Q 4144 3584 4550 3584 
Q 5097 3584 5394 3201 
Q 5691 2819 5691 2113 
L 5691 0 
L 5113 0 
L 5113 2094 
Q 5113 2597 4934 2840 
Q 4756 3084 4391 3084 
Q 3944 3084 3684 2787 
Q 3425 2491 3425 1978 
L 3425 0 
L 2847 0 
L 2847 2094 
Q 2847 2600 2669 2842 
Q 2491 3084 2119 3084 
Q 1678 3084 1418 2786 
Q 1159 2488 1159 1978 
L 1159 0 
L 581 0 
L 581 3500 
L 1159 3500 
L 1159 2956 
Q 1356 3278 1631 3431 
Q 1906 3584 2284 3584 
Q 2666 3584 2933 3390 
Q 3200 3197 3328 2828 
z
" id="DejaVuSans-6d" transform="scale(0.015625)"/>
      <path d="M 1159 525 
L 1159 -1331 
L 581 -1331 
L 581 3500 
L 1159 3500 
L 1159 2969 
Q 1341 3281 1617 3432 
Q 1894 3584 2278 3584 
Q 2916 3584 3314 3078 
Q 3713 2572 3713 1747 
Q 3713 922 3314 415 
Q 2916 -91 2278 -91 
Q 1894 -91 1617 61 
Q 1341 213 1159 525 
z
M 3116 1747 
Q 3116 2381 2855 2742 
Q 2594 3103 2138 3103 
Q 1681 3103 1420 2742 
Q 1159 2381 1159 1747 
Q 1159 1113 1420 752 
Q 1681 391 2138 391 
Q 2594 391 2855 752 
Q 3116 1113 3116 1747 
z
" id="DejaVuSans-70" transform="scale(0.015625)"/>
      <path d="M 2631 2963 
Q 2534 3019 2420 3045 
Q 2306 3072 2169 3072 
Q 1681 3072 1420 2755 
Q 1159 2438 1159 1844 
L 1159 0 
L 581 0 
L 581 3500 
L 1159 3500 
L 1159 2956 
Q 1341 3275 1631 3429 
Q 1922 3584 2338 3584 
Q 2397 3584 2469 3576 
Q 2541 3569 2628 3553 
L 2631 2963 
z
" id="DejaVuSans-72" transform="scale(0.015625)"/>
      <path d="M 2194 1759 
Q 1497 1759 1228 1600 
Q 959 1441 959 1056 
Q 959 750 1161 570 
Q 1363 391 1709 391 
Q 2188 391 2477 730 
Q 2766 1069 2766 1631 
L 2766 1759 
L 2194 1759 
z
M 3341 1997 
L 3341 0 
L 2766 0 
L 2766 531 
Q 2569 213 2275 61 
Q 1981 -91 1556 -91 
Q 1019 -91 701 211 
Q 384 513 384 1019 
Q 384 1609 779 1909 
Q 1175 2209 1959 2209 
L 2766 2209 
L 2766 2266 
Q 2766 2663 2505 2880 
Q 2244 3097 1772 3097 
Q 1472 3097 1187 3025 
Q 903 2953 641 2809 
L 641 3341 
Q 956 3463 1253 3523 
Q 1550 3584 1831 3584 
Q 2591 3584 2966 3190 
Q 3341 2797 3341 1997 
z
" id="DejaVuSans-61" transform="scale(0.015625)"/>
      <path d="M 1172 4494 
L 1172 3500 
L 2356 3500 
L 2356 3053 
L 1172 3053 
L 1172 1153 
Q 1172 725 1289 603 
Q 1406 481 1766 481 
L 2356 481 
L 2356 0 
L 1766 0 
Q 1100 0 847 248 
Q 594 497 594 1153 
L 594 3053 
L 172 3053 
L 172 3500 
L 594 3500 
L 594 4494 
L 1172 4494 
z
" id="DejaVuSans-74" transform="scale(0.015625)"/>
      <path d="M 544 1381 
L 544 3500 
L 1119 3500 
L 1119 1403 
Q 1119 906 1312 657 
Q 1506 409 1894 409 
Q 2359 409 2629 706 
Q 2900 1003 2900 1516 
L 2900 3500 
L 3475 3500 
L 3475 0 
L 2900 0 
L 2900 538 
Q 2691 219 2414 64 
Q 2138 -91 1772 -91 
Q 1169 -91 856 284 
Q 544 659 544 1381 
z
M 1991 3584 
L 1991 3584 
z
" id="DejaVuSans-75" transform="scale(0.015625)"/>
      <path d="M 678 2906 
L 4684 2906 
L 4684 2381 
L 678 2381 
L 678 2906 
z
M 678 1631 
L 4684 1631 
L 4684 1100 
L 678 1100 
L 678 1631 
z
" id="DejaVuSans-3d" transform="scale(0.015625)"/>
      <path d="M 691 4666 
L 3169 4666 
L 3169 4134 
L 1269 4134 
L 1269 2991 
Q 1406 3038 1543 3061 
Q 1681 3084 1819 3084 
Q 2600 3084 3056 2656 
Q 3513 2228 3513 1497 
Q 3513 744 3044 326 
Q 2575 -91 1722 -91 
Q 1428 -91 1123 -41 
Q 819 9 494 109 
L 494 744 
Q 775 591 1075 516 
Q 1375 441 1709 441 
Q 2250 441 2565 725 
Q 2881 1009 2881 1497 
Q 2881 1984 2565 2268 
Q 2250 2553 1709 2553 
Q 1456 2553 1204 2497 
Q 953 2441 691 2322 
L 691 4666 
z
" id="DejaVuSans-35" transform="scale(0.015625)"/>
      <path d="M 628 4666 
L 1259 4666 
L 1259 2694 
L 3353 4666 
L 4166 4666 
L 1850 2491 
L 4331 0 
L 3500 0 
L 1259 2247 
L 1259 0 
L 628 0 
L 628 4666 
z
" id="DejaVuSans-4b" transform="scale(0.015625)"/>
      <path d="M 2906 1791 
Q 2906 2416 2648 2759 
Q 2391 3103 1925 3103 
Q 1463 3103 1205 2759 
Q 947 2416 947 1791 
Q 947 1169 1205 825 
Q 1463 481 1925 481 
Q 2391 481 2648 825 
Q 2906 1169 2906 1791 
z
M 3481 434 
Q 3481 -459 3084 -895 
Q 2688 -1331 1869 -1331 
Q 1566 -1331 1297 -1286 
Q 1028 -1241 775 -1147 
L 775 -588 
Q 1028 -725 1275 -790 
Q 1522 -856 1778 -856 
Q 2344 -856 2625 -561 
Q 2906 -266 2906 331 
L 2906 616 
Q 2728 306 2450 153 
Q 2172 0 1784 0 
Q 1141 0 747 490 
Q 353 981 353 1791 
Q 353 2603 747 3093 
Q 1141 3584 1784 3584 
Q 2172 3584 2450 3431 
Q 2728 3278 2906 2969 
L 2906 3500 
L 3481 3500 
L 3481 434 
z
" id="DejaVuSans-67" transform="scale(0.015625)"/>
      <path d="M 1959 3097 
Q 1497 3097 1228 2736 
Q 959 2375 959 1747 
Q 959 1119 1226 758 
Q 1494 397 1959 397 
Q 2419 397 2687 759 
Q 2956 1122 2956 1747 
Q 2956 2369 2687 2733 
Q 2419 3097 1959 3097 
z
M 1959 3584 
Q 2709 3584 3137 3096 
Q 3566 2609 3566 1747 
Q 3566 888 3137 398 
Q 2709 -91 1959 -91 
Q 1206 -91 779 398 
Q 353 888 353 1747 
Q 353 2609 779 3096 
Q 1206 3584 1959 3584 
z
" id="DejaVuSans-6f" transform="scale(0.015625)"/>
      <path d="M 3513 2113 
L 3513 0 
L 2938 0 
L 2938 2094 
Q 2938 2591 2744 2837 
Q 2550 3084 2163 3084 
Q 1697 3084 1428 2787 
Q 1159 2491 1159 1978 
L 1159 0 
L 581 0 
L 581 3500 
L 1159 3500 
L 1159 2956 
Q 1366 3272 1645 3428 
Q 1925 3584 2291 3584 
Q 2894 3584 3203 3211 
Q 3513 2838 3513 2113 
z
" id="DejaVuSans-6e" transform="scale(0.015625)"/>
      <path d="M 2906 2969 
L 2906 4863 
L 3481 4863 
L 3481 0 
L 2906 0 
L 2906 525 
Q 2725 213 2448 61 
Q 2172 -91 1784 -91 
Q 1150 -91 751 415 
Q 353 922 353 1747 
Q 353 2572 751 3078 
Q 1150 3584 1784 3584 
Q 2172 3584 2448 3432 
Q 2725 3281 2906 2969 
z
M 947 1747 
Q 947 1113 1208 752 
Q 1469 391 1925 391 
Q 2381 391 2643 752 
Q 2906 1113 2906 1747 
Q 2906 2381 2643 2742 
Q 2381 3103 1925 3103 
Q 1469 3103 1208 2742 
Q 947 2381 947 1747 
z
" id="DejaVuSans-64" transform="scale(0.015625)"/>
      <path d="M 3263 -1063 
L 3263 -1509 
L -63 -1509 
L -63 -1063 
L 3263 -1063 
z
" id="DejaVuSans-5f" transform="scale(0.015625)"/>
      <path d="M 1259 2228 
L 1259 519 
L 2272 519 
Q 2781 519 3026 730 
Q 3272 941 3272 1375 
Q 3272 1813 3026 2020 
Q 2781 2228 2272 2228 
L 1259 2228 
z
M 1259 4147 
L 1259 2741 
L 2194 2741 
Q 2656 2741 2882 2914 
Q 3109 3088 3109 3444 
Q 3109 3797 2882 3972 
Q 2656 4147 2194 4147 
L 1259 4147 
z
M 628 4666 
L 2241 4666 
Q 2963 4666 3353 4366 
Q 3744 4066 3744 3513 
Q 3744 3084 3544 2831 
Q 3344 2578 2956 2516 
Q 3422 2416 3680 2098 
Q 3938 1781 3938 1306 
Q 3938 681 3513 340 
Q 3088 0 2303 0 
L 628 0 
L 628 4666 
z
" id="DejaVuSans-42" transform="scale(0.015625)"/>
      <path d="M 3122 3366 
L 3122 2828 
Q 2878 2963 2633 3030 
Q 2388 3097 2138 3097 
Q 1578 3097 1268 2742 
Q 959 2388 959 1747 
Q 959 1106 1268 751 
Q 1578 397 2138 397 
Q 2388 397 2633 464 
Q 2878 531 3122 666 
L 3122 134 
Q 2881 22 2623 -34 
Q 2366 -91 2075 -91 
Q 1284 -91 818 406 
Q 353 903 353 1747 
Q 353 2603 823 3093 
Q 1294 3584 2113 3584 
Q 2378 3584 2631 3529 
Q 2884 3475 3122 3366 
z
" id="DejaVuSans-63" transform="scale(0.015625)"/>
      <path d="M 313 2009 
L 1997 2009 
L 1997 1497 
L 313 1497 
L 313 2009 
z
" id="DejaVuSans-2d" transform="scale(0.015625)"/>
      <path d="M 1259 4147 
L 1259 519 
L 2022 519 
Q 2988 519 3436 956 
Q 3884 1394 3884 2338 
Q 3884 3275 3436 3711 
Q 2988 4147 2022 4147 
L 1259 4147 
z
M 628 4666 
L 1925 4666 
Q 3281 4666 3915 4102 
Q 4550 3538 4550 2338 
Q 4550 1131 3912 565 
Q 3275 0 1925 0 
L 628 0 
L 628 4666 
z
" id="DejaVuSans-44" transform="scale(0.015625)"/>
      <path d="M 603 4863 
L 1178 4863 
L 1178 0 
L 603 0 
L 603 4863 
z
" id="DejaVuSans-6c" transform="scale(0.015625)"/>
     </defs>
     <use xlink:href="#DejaVuSans-20"/>
     <use x="31.787109" xlink:href="#DejaVuSans-54"/>
     <use x="75.871094" xlink:href="#DejaVuSans-65"/>
     <use x="137.394531" xlink:href="#DejaVuSans-6d"/>
     <use x="234.806641" xlink:href="#DejaVuSans-70"/>
     <use x="298.283203" xlink:href="#DejaVuSans-65"/>
     <use x="359.806641" xlink:href="#DejaVuSans-72"/>
     <use x="400.919922" xlink:href="#DejaVuSans-61"/>
     <use x="462.199219" xlink:href="#DejaVuSans-74"/>
     <use x="501.408203" xlink:href="#DejaVuSans-75"/>
     <use x="564.787109" xlink:href="#DejaVuSans-72"/>
     <use x="603.650391" xlink:href="#DejaVuSans-65"/>
     <use x="665.173828" xlink:href="#DejaVuSans-20"/>
     <use x="696.960938" xlink:href="#DejaVuSans-3d"/>
     <use x="780.75" xlink:href="#DejaVuSans-20"/>
     <use x="812.537109" xlink:href="#DejaVuSans-35"/>
     <use x="876.160156" xlink:href="#DejaVuSans-30"/>
     <use x="939.783203" xlink:href="#DejaVuSans-4b"/>
     <use x="1005.359375" xlink:href="#DejaVuSans-20"/>
     <use x="1037.146484" xlink:href="#DejaVuSans-20"/>
     <use x="1068.933594" xlink:href="#DejaVuSans-20"/>
     <use x="1100.720703" xlink:href="#DejaVuSans-67"/>
     <use x="1164.197266" xlink:href="#DejaVuSans-72"/>
     <use x="1203.060547" xlink:href="#DejaVuSans-6f"/>
     <use x="1264.242188" xlink:href="#DejaVuSans-75"/>
     <use x="1327.621094" xlink:href="#DejaVuSans-6e"/>
     <use x="1391" xlink:href="#DejaVuSans-64"/>
     <use x="1454.476562" xlink:href="#DejaVuSans-5f"/>
     <use x="1504.476562" xlink:href="#DejaVuSans-42"/>
     <use x="1573.080078" xlink:href="#DejaVuSans-20"/>
     <use x="1604.867188" xlink:href="#DejaVuSans-3d"/>
     <use x="1688.65625" xlink:href="#DejaVuSans-20"/>
     <use x="1720.443359" xlink:href="#DejaVuSans-20"/>
     <use x="1752.230469" xlink:href="#DejaVuSans-30"/>
     <use x="1815.853516" xlink:href="#DejaVuSans-2e"/>
     <use x="1847.640625" xlink:href="#DejaVuSans-30"/>
     <use x="1911.263672" xlink:href="#DejaVuSans-31"/>
     <use x="1974.886719" xlink:href="#DejaVuSans-20"/>
     <use x="2006.673828" xlink:href="#DejaVuSans-63"/>
     <use x="2061.654297" xlink:href="#DejaVuSans-6d"/>
     <use x="2159.066406" xlink:href="#DejaVuSans-2d"/>
     <use x="2195.150391" xlink:href="#DejaVuSans-31"/>
     <use x="2258.773438" xlink:href="#DejaVuSans-20"/>
     <use x="2290.560547" xlink:href="#DejaVuSans-20"/>
     <use x="2322.347656" xlink:href="#DejaVuSans-20"/>
     <use x="2354.134766" xlink:href="#DejaVuSans-20"/>
     <use x="2385.921875" xlink:href="#DejaVuSans-44"/>
     <use x="2462.923828" xlink:href="#DejaVuSans-65"/>
     <use x="2524.447266" xlink:href="#DejaVuSans-6c"/>
     <use x="2552.230469" xlink:href="#DejaVuSans-74"/>
     <use x="2591.439453" xlink:href="#DejaVuSans-61"/>
     <use x="2652.71875" xlink:href="#DejaVuSans-5f"/>
     <use x="2702.71875" xlink:href="#DejaVuSans-42"/>
     <use x="2771.322266" xlink:href="#DejaVuSans-20"/>
     <use x="2803.109375" xlink:href="#DejaVuSans-3d"/>
     <use x="2886.898438" xlink:href="#DejaVuSans-20"/>
     <use x="2918.685547" xlink:href="#DejaVuSans-2d"/>
     <use x="2954.769531" xlink:href="#DejaVuSans-30"/>
     <use x="3018.392578" xlink:href="#DejaVuSans-2e"/>
     <use x="3050.179688" xlink:href="#DejaVuSans-32"/>
    </g>
   </g>
   <g id="legend_1">
    <g id="patch_7">
     <path d="M 43.465625 343.478125 
L 101.339063 343.478125 
Q 103.339063 343.478125 103.339063 341.478125 
L 103.339063 254.409375 
Q 103.339063 252.409375 101.339063 252.409375 
L 43.465625 252.409375 
Q 41.465625 252.409375 41.465625 254.409375 
L 41.465625 341.478125 
Q 41.465625 343.478125 43.465625 343.478125 
z
" style="fill:#ffffff;opacity:0.8;stroke:#cccccc;stroke-linejoin:miter;"/>
    </g>
    <g id="text_13">
     <!-- zeta -->
     <g transform="translate(61.677344 264.007813)scale(0.1 -0.1)">
      <defs>
       <path d="M 353 3500 
L 3084 3500 
L 3084 2975 
L 922 459 
L 3084 459 
L 3084 0 
L 275 0 
L 275 525 
L 2438 3041 
L 353 3041 
L 353 3500 
z
" id="DejaVuSans-7a" transform="scale(0.015625)"/>
      </defs>
      <use xlink:href="#DejaVuSans-7a"/>
      <use x="52.490234" xlink:href="#DejaVuSans-65"/>
      <use x="114.013672" xlink:href="#DejaVuSans-74"/>
      <use x="153.222656" xlink:href="#DejaVuSans-61"/>
     </g>
    </g>
    <g id="line2d_17">
     <path d="M 45.465625 275.185938 
L 65.465625 275.185938 
" style="fill:none;stroke:#e98768;stroke-linecap:square;"/>
    </g>
    <g id="line2d_18"/>
    <g id="text_14">
     <!-- -0.05 -->
     <g transform="translate(73.465625 278.685938)scale(0.1 -0.1)">
      <use xlink:href="#DejaVuSans-2d"/>
      <use x="36.083984" xlink:href="#DejaVuSans-30"/>
      <use x="99.707031" xlink:href="#DejaVuSans-2e"/>
      <use x="131.494141" xlink:href="#DejaVuSans-30"/>
      <use x="195.117188" xlink:href="#DejaVuSans-35"/>
     </g>
    </g>
    <g id="line2d_19">
     <path d="M 45.465625 289.864063 
L 65.465625 289.864063 
" style="fill:none;stroke:#de5d5c;stroke-linecap:square;"/>
    </g>
    <g id="line2d_20"/>
    <g id="text_15">
     <!-- -0.1 -->
     <g transform="translate(73.465625 293.364063)scale(0.1 -0.1)">
      <use xlink:href="#DejaVuSans-2d"/>
      <use x="36.083984" xlink:href="#DejaVuSans-30"/>
      <use x="99.707031" xlink:href="#DejaVuSans-2e"/>
      <use x="131.494141" xlink:href="#DejaVuSans-31"/>
     </g>
    </g>
    <g id="line2d_21">
     <path d="M 45.465625 304.542188 
L 65.465625 304.542188 
" style="fill:none;stroke:#c14168;stroke-linecap:square;"/>
    </g>
    <g id="line2d_22"/>
    <g id="text_16">
     <!-- -0.5 -->
     <g transform="translate(73.465625 308.042188)scale(0.1 -0.1)">
      <use xlink:href="#DejaVuSans-2d"/>
      <use x="36.083984" xlink:href="#DejaVuSans-30"/>
      <use x="99.707031" xlink:href="#DejaVuSans-2e"/>
      <use x="131.494141" xlink:href="#DejaVuSans-35"/>
     </g>
    </g>
    <g id="line2d_23">
     <path d="M 45.465625 319.220313 
L 65.465625 319.220313 
" style="fill:none;stroke:#9a3670;stroke-linecap:square;"/>
    </g>
    <g id="line2d_24"/>
    <g id="text_17">
     <!-- -1 -->
     <g transform="translate(73.465625 322.720313)scale(0.1 -0.1)">
      <use xlink:href="#DejaVuSans-2d"/>
      <use x="36.083984" xlink:href="#DejaVuSans-31"/>
     </g>
    </g>
    <g id="line2d_25">
     <path d="M 45.465625 333.898438 
L 65.465625 333.898438 
" style="fill:none;stroke:#722c6e;stroke-linecap:square;"/>
    </g>
    <g id="line2d_26"/>
    <g id="text_18">
     <!-- -1.5 -->
     <g transform="translate(73.465625 337.398438)scale(0.1 -0.1)">
      <use xlink:href="#DejaVuSans-2d"/>
      <use x="36.083984" xlink:href="#DejaVuSans-31"/>
      <use x="99.707031" xlink:href="#DejaVuSans-2e"/>
      <use x="131.494141" xlink:href="#DejaVuSans-35"/>
     </g>
    </g>
   </g>
  </g>
 </g>
 <defs>
  <clipPath id="p9abf6c8085">
   <rect height="326.16" width="837" x="36.465625" y="22.318125"/>
  </clipPath>
 </defs>
</svg>
