<?xml version="1.0" encoding="utf-8" standalone="no"?>
<!DOCTYPE svg PUBLIC "-//W3C//DTD SVG 1.1//EN"
  "http://www.w3.org/Graphics/SVG/1.1/DTD/svg11.dtd">
<svg height="509.897187pt" version="1.1" viewBox="0 0 913.341406 509.897187" width="913.341406pt" xmlns="http://www.w3.org/2000/svg" xmlns:xlink="http://www.w3.org/1999/xlink">
 <metadata>
  <rdf:RDF xmlns:cc="http://creativecommons.org/ns#" xmlns:dc="http://purl.org/dc/elements/1.1/" xmlns:rdf="http://www.w3.org/1999/02/22-rdf-syntax-ns#">
   <cc:Work>
    <dc:type rdf:resource="http://purl.org/dc/dcmitype/StillImage"/>
    <dc:date>2023-01-12T11:06:29.927224</dc:date>
    <dc:format>image/svg+xml</dc:format>
    <dc:creator>
     <cc:Agent>
      <dc:title>Matplotlib v3.4.3, https://matplotlib.org/</dc:title>
     </cc:Agent>
    </dc:creator>
   </cc:Work>
  </rdf:RDF>
 </metadata>
 <defs>
  <style type="text/css">*{stroke-linecap:butt;stroke-linejoin:round;}</style>
 </defs>
 <g id="figure_1">
  <g id="patch_1">
   <path d="M 0 509.897187 
L 913.341406 509.897187 
L 913.341406 0 
L 0 0 
z
" style="fill:#ffffff;"/>
  </g>
  <g id="axes_1">
   <g id="patch_2">
    <path d="M 69.141406 461.58 
L 906.141406 461.58 
L 906.141406 26.7 
L 69.141406 26.7 
z
" style="fill:#ffffff;"/>
   </g>
   <g id="matplotlib.axis_1">
    <g id="xtick_1">
     <g id="line2d_1">
      <defs>
       <path d="M 0 0 
L 0 3.5 
" id="m7e1d77a726" style="stroke:#000000;stroke-width:0.8;"/>
      </defs>
      <g>
       <use style="stroke:#000000;stroke-width:0.8;" x="115.444693" xlink:href="#m7e1d77a726" y="461.58"/>
      </g>
     </g>
     <g id="text_1">
      <!-- −3 -->
      <g transform="translate(104.388053 479.977656)scale(0.15 -0.15)">
       <defs>
        <path d="M 678 2272 
L 4684 2272 
L 4684 1741 
L 678 1741 
L 678 2272 
z
" id="DejaVuSans-2212" transform="scale(0.015625)"/>
        <path d="M 2597 2516 
Q 3050 2419 3304 2112 
Q 3559 1806 3559 1356 
Q 3559 666 3084 287 
Q 2609 -91 1734 -91 
Q 1441 -91 1130 -33 
Q 819 25 488 141 
L 488 750 
Q 750 597 1062 519 
Q 1375 441 1716 441 
Q 2309 441 2620 675 
Q 2931 909 2931 1356 
Q 2931 1769 2642 2001 
Q 2353 2234 1838 2234 
L 1294 2234 
L 1294 2753 
L 1863 2753 
Q 2328 2753 2575 2939 
Q 2822 3125 2822 3475 
Q 2822 3834 2567 4026 
Q 2313 4219 1838 4219 
Q 1578 4219 1281 4162 
Q 984 4106 628 3988 
L 628 4550 
Q 988 4650 1302 4700 
Q 1616 4750 1894 4750 
Q 2613 4750 3031 4423 
Q 3450 4097 3450 3541 
Q 3450 3153 3228 2886 
Q 3006 2619 2597 2516 
z
" id="DejaVuSans-33" transform="scale(0.015625)"/>
       </defs>
       <use xlink:href="#DejaVuSans-2212"/>
       <use x="83.789062" xlink:href="#DejaVuSans-33"/>
      </g>
     </g>
    </g>
    <g id="xtick_2">
     <g id="line2d_2">
      <g>
       <use style="stroke:#000000;stroke-width:0.8;" x="255.654434" xlink:href="#m7e1d77a726" y="461.58"/>
      </g>
     </g>
     <g id="text_2">
      <!-- −2 -->
      <g transform="translate(244.597793 479.977656)scale(0.15 -0.15)">
       <defs>
        <path d="M 1228 531 
L 3431 531 
L 3431 0 
L 469 0 
L 469 531 
Q 828 903 1448 1529 
Q 2069 2156 2228 2338 
Q 2531 2678 2651 2914 
Q 2772 3150 2772 3378 
Q 2772 3750 2511 3984 
Q 2250 4219 1831 4219 
Q 1534 4219 1204 4116 
Q 875 4013 500 3803 
L 500 4441 
Q 881 4594 1212 4672 
Q 1544 4750 1819 4750 
Q 2544 4750 2975 4387 
Q 3406 4025 3406 3419 
Q 3406 3131 3298 2873 
Q 3191 2616 2906 2266 
Q 2828 2175 2409 1742 
Q 1991 1309 1228 531 
z
" id="DejaVuSans-32" transform="scale(0.015625)"/>
       </defs>
       <use xlink:href="#DejaVuSans-2212"/>
       <use x="83.789062" xlink:href="#DejaVuSans-32"/>
      </g>
     </g>
    </g>
    <g id="xtick_3">
     <g id="line2d_3">
      <g>
       <use style="stroke:#000000;stroke-width:0.8;" x="395.864175" xlink:href="#m7e1d77a726" y="461.58"/>
      </g>
     </g>
     <g id="text_3">
      <!-- −1 -->
      <g transform="translate(384.807534 479.977656)scale(0.15 -0.15)">
       <defs>
        <path d="M 794 531 
L 1825 531 
L 1825 4091 
L 703 3866 
L 703 4441 
L 1819 4666 
L 2450 4666 
L 2450 531 
L 3481 531 
L 3481 0 
L 794 0 
L 794 531 
z
" id="DejaVuSans-31" transform="scale(0.015625)"/>
       </defs>
       <use xlink:href="#DejaVuSans-2212"/>
       <use x="83.789062" xlink:href="#DejaVuSans-31"/>
      </g>
     </g>
    </g>
    <g id="xtick_4">
     <g id="line2d_4">
      <g>
       <use style="stroke:#000000;stroke-width:0.8;" x="536.073915" xlink:href="#m7e1d77a726" y="461.58"/>
      </g>
     </g>
     <g id="text_4">
      <!-- 0 -->
      <g transform="translate(531.30204 479.977656)scale(0.15 -0.15)">
       <defs>
        <path d="M 2034 4250 
Q 1547 4250 1301 3770 
Q 1056 3291 1056 2328 
Q 1056 1369 1301 889 
Q 1547 409 2034 409 
Q 2525 409 2770 889 
Q 3016 1369 3016 2328 
Q 3016 3291 2770 3770 
Q 2525 4250 2034 4250 
z
M 2034 4750 
Q 2819 4750 3233 4129 
Q 3647 3509 3647 2328 
Q 3647 1150 3233 529 
Q 2819 -91 2034 -91 
Q 1250 -91 836 529 
Q 422 1150 422 2328 
Q 422 3509 836 4129 
Q 1250 4750 2034 4750 
z
" id="DejaVuSans-30" transform="scale(0.015625)"/>
       </defs>
       <use xlink:href="#DejaVuSans-30"/>
      </g>
     </g>
    </g>
    <g id="xtick_5">
     <g id="line2d_5">
      <g>
       <use style="stroke:#000000;stroke-width:0.8;" x="676.283656" xlink:href="#m7e1d77a726" y="461.58"/>
      </g>
     </g>
     <g id="text_5">
      <!-- 1 -->
      <g transform="translate(671.511781 479.977656)scale(0.15 -0.15)">
       <use xlink:href="#DejaVuSans-31"/>
      </g>
     </g>
    </g>
    <g id="xtick_6">
     <g id="line2d_6">
      <g>
       <use style="stroke:#000000;stroke-width:0.8;" x="816.493397" xlink:href="#m7e1d77a726" y="461.58"/>
      </g>
     </g>
     <g id="text_6">
      <!-- 2 -->
      <g transform="translate(811.721522 479.977656)scale(0.15 -0.15)">
       <use xlink:href="#DejaVuSans-32"/>
      </g>
     </g>
    </g>
    <g id="text_7">
     <!-- Wavenumber (in cm$^{-1}$) -->
     <g transform="translate(400.341406 499.577656)scale(0.15 -0.15)">
      <defs>
       <path d="M 213 4666 
L 850 4666 
L 1831 722 
L 2809 4666 
L 3519 4666 
L 4500 722 
L 5478 4666 
L 6119 4666 
L 4947 0 
L 4153 0 
L 3169 4050 
L 2175 0 
L 1381 0 
L 213 4666 
z
" id="DejaVuSans-57" transform="scale(0.015625)"/>
       <path d="M 2194 1759 
Q 1497 1759 1228 1600 
Q 959 1441 959 1056 
Q 959 750 1161 570 
Q 1363 391 1709 391 
Q 2188 391 2477 730 
Q 2766 1069 2766 1631 
L 2766 1759 
L 2194 1759 
z
M 3341 1997 
L 3341 0 
L 2766 0 
L 2766 531 
Q 2569 213 2275 61 
Q 1981 -91 1556 -91 
Q 1019 -91 701 211 
Q 384 513 384 1019 
Q 384 1609 779 1909 
Q 1175 2209 1959 2209 
L 2766 2209 
L 2766 2266 
Q 2766 2663 2505 2880 
Q 2244 3097 1772 3097 
Q 1472 3097 1187 3025 
Q 903 2953 641 2809 
L 641 3341 
Q 956 3463 1253 3523 
Q 1550 3584 1831 3584 
Q 2591 3584 2966 3190 
Q 3341 2797 3341 1997 
z
" id="DejaVuSans-61" transform="scale(0.015625)"/>
       <path d="M 191 3500 
L 800 3500 
L 1894 563 
L 2988 3500 
L 3597 3500 
L 2284 0 
L 1503 0 
L 191 3500 
z
" id="DejaVuSans-76" transform="scale(0.015625)"/>
       <path d="M 3597 1894 
L 3597 1613 
L 953 1613 
Q 991 1019 1311 708 
Q 1631 397 2203 397 
Q 2534 397 2845 478 
Q 3156 559 3463 722 
L 3463 178 
Q 3153 47 2828 -22 
Q 2503 -91 2169 -91 
Q 1331 -91 842 396 
Q 353 884 353 1716 
Q 353 2575 817 3079 
Q 1281 3584 2069 3584 
Q 2775 3584 3186 3129 
Q 3597 2675 3597 1894 
z
M 3022 2063 
Q 3016 2534 2758 2815 
Q 2500 3097 2075 3097 
Q 1594 3097 1305 2825 
Q 1016 2553 972 2059 
L 3022 2063 
z
" id="DejaVuSans-65" transform="scale(0.015625)"/>
       <path d="M 3513 2113 
L 3513 0 
L 2938 0 
L 2938 2094 
Q 2938 2591 2744 2837 
Q 2550 3084 2163 3084 
Q 1697 3084 1428 2787 
Q 1159 2491 1159 1978 
L 1159 0 
L 581 0 
L 581 3500 
L 1159 3500 
L 1159 2956 
Q 1366 3272 1645 3428 
Q 1925 3584 2291 3584 
Q 2894 3584 3203 3211 
Q 3513 2838 3513 2113 
z
" id="DejaVuSans-6e" transform="scale(0.015625)"/>
       <path d="M 544 1381 
L 544 3500 
L 1119 3500 
L 1119 1403 
Q 1119 906 1312 657 
Q 1506 409 1894 409 
Q 2359 409 2629 706 
Q 2900 1003 2900 1516 
L 2900 3500 
L 3475 3500 
L 3475 0 
L 2900 0 
L 2900 538 
Q 2691 219 2414 64 
Q 2138 -91 1772 -91 
Q 1169 -91 856 284 
Q 544 659 544 1381 
z
M 1991 3584 
L 1991 3584 
z
" id="DejaVuSans-75" transform="scale(0.015625)"/>
       <path d="M 3328 2828 
Q 3544 3216 3844 3400 
Q 4144 3584 4550 3584 
Q 5097 3584 5394 3201 
Q 5691 2819 5691 2113 
L 5691 0 
L 5113 0 
L 5113 2094 
Q 5113 2597 4934 2840 
Q 4756 3084 4391 3084 
Q 3944 3084 3684 2787 
Q 3425 2491 3425 1978 
L 3425 0 
L 2847 0 
L 2847 2094 
Q 2847 2600 2669 2842 
Q 2491 3084 2119 3084 
Q 1678 3084 1418 2786 
Q 1159 2488 1159 1978 
L 1159 0 
L 581 0 
L 581 3500 
L 1159 3500 
L 1159 2956 
Q 1356 3278 1631 3431 
Q 1906 3584 2284 3584 
Q 2666 3584 2933 3390 
Q 3200 3197 3328 2828 
z
" id="DejaVuSans-6d" transform="scale(0.015625)"/>
       <path d="M 3116 1747 
Q 3116 2381 2855 2742 
Q 2594 3103 2138 3103 
Q 1681 3103 1420 2742 
Q 1159 2381 1159 1747 
Q 1159 1113 1420 752 
Q 1681 391 2138 391 
Q 2594 391 2855 752 
Q 3116 1113 3116 1747 
z
M 1159 2969 
Q 1341 3281 1617 3432 
Q 1894 3584 2278 3584 
Q 2916 3584 3314 3078 
Q 3713 2572 3713 1747 
Q 3713 922 3314 415 
Q 2916 -91 2278 -91 
Q 1894 -91 1617 61 
Q 1341 213 1159 525 
L 1159 0 
L 581 0 
L 581 4863 
L 1159 4863 
L 1159 2969 
z
" id="DejaVuSans-62" transform="scale(0.015625)"/>
       <path d="M 2631 2963 
Q 2534 3019 2420 3045 
Q 2306 3072 2169 3072 
Q 1681 3072 1420 2755 
Q 1159 2438 1159 1844 
L 1159 0 
L 581 0 
L 581 3500 
L 1159 3500 
L 1159 2956 
Q 1341 3275 1631 3429 
Q 1922 3584 2338 3584 
Q 2397 3584 2469 3576 
Q 2541 3569 2628 3553 
L 2631 2963 
z
" id="DejaVuSans-72" transform="scale(0.015625)"/>
       <path id="DejaVuSans-20" transform="scale(0.015625)"/>
       <path d="M 1984 4856 
Q 1566 4138 1362 3434 
Q 1159 2731 1159 2009 
Q 1159 1288 1364 580 
Q 1569 -128 1984 -844 
L 1484 -844 
Q 1016 -109 783 600 
Q 550 1309 550 2009 
Q 550 2706 781 3412 
Q 1013 4119 1484 4856 
L 1984 4856 
z
" id="DejaVuSans-28" transform="scale(0.015625)"/>
       <path d="M 603 3500 
L 1178 3500 
L 1178 0 
L 603 0 
L 603 3500 
z
M 603 4863 
L 1178 4863 
L 1178 4134 
L 603 4134 
L 603 4863 
z
" id="DejaVuSans-69" transform="scale(0.015625)"/>
       <path d="M 3122 3366 
L 3122 2828 
Q 2878 2963 2633 3030 
Q 2388 3097 2138 3097 
Q 1578 3097 1268 2742 
Q 959 2388 959 1747 
Q 959 1106 1268 751 
Q 1578 397 2138 397 
Q 2388 397 2633 464 
Q 2878 531 3122 666 
L 3122 134 
Q 2881 22 2623 -34 
Q 2366 -91 2075 -91 
Q 1284 -91 818 406 
Q 353 903 353 1747 
Q 353 2603 823 3093 
Q 1294 3584 2113 3584 
Q 2378 3584 2631 3529 
Q 2884 3475 3122 3366 
z
" id="DejaVuSans-63" transform="scale(0.015625)"/>
       <path d="M 513 4856 
L 1013 4856 
Q 1481 4119 1714 3412 
Q 1947 2706 1947 2009 
Q 1947 1309 1714 600 
Q 1481 -109 1013 -844 
L 513 -844 
Q 928 -128 1133 580 
Q 1338 1288 1338 2009 
Q 1338 2731 1133 3434 
Q 928 4138 513 4856 
z
" id="DejaVuSans-29" transform="scale(0.015625)"/>
      </defs>
      <use transform="translate(0 0.684375)" xlink:href="#DejaVuSans-57"/>
      <use transform="translate(98.876953 0.684375)" xlink:href="#DejaVuSans-61"/>
      <use transform="translate(160.15625 0.684375)" xlink:href="#DejaVuSans-76"/>
      <use transform="translate(219.335938 0.684375)" xlink:href="#DejaVuSans-65"/>
      <use transform="translate(280.859375 0.684375)" xlink:href="#DejaVuSans-6e"/>
      <use transform="translate(344.238281 0.684375)" xlink:href="#DejaVuSans-75"/>
      <use transform="translate(407.617188 0.684375)" xlink:href="#DejaVuSans-6d"/>
      <use transform="translate(505.029297 0.684375)" xlink:href="#DejaVuSans-62"/>
      <use transform="translate(568.505859 0.684375)" xlink:href="#DejaVuSans-65"/>
      <use transform="translate(630.029297 0.684375)" xlink:href="#DejaVuSans-72"/>
      <use transform="translate(671.142578 0.684375)" xlink:href="#DejaVuSans-20"/>
      <use transform="translate(702.929688 0.684375)" xlink:href="#DejaVuSans-28"/>
      <use transform="translate(741.943359 0.684375)" xlink:href="#DejaVuSans-69"/>
      <use transform="translate(769.726562 0.684375)" xlink:href="#DejaVuSans-6e"/>
      <use transform="translate(833.105469 0.684375)" xlink:href="#DejaVuSans-20"/>
      <use transform="translate(864.892578 0.684375)" xlink:href="#DejaVuSans-63"/>
      <use transform="translate(919.873047 0.684375)" xlink:href="#DejaVuSans-6d"/>
      <use transform="translate(1018.242188 38.965625)scale(0.7)" xlink:href="#DejaVuSans-2212"/>
      <use transform="translate(1076.894531 38.965625)scale(0.7)" xlink:href="#DejaVuSans-31"/>
      <use transform="translate(1124.165039 0.684375)" xlink:href="#DejaVuSans-29"/>
     </g>
    </g>
   </g>
   <g id="matplotlib.axis_2">
    <g id="ytick_1">
     <g id="line2d_7">
      <defs>
       <path d="M 0 0 
L -3.5 0 
" id="maf4880c5d4" style="stroke:#000000;stroke-width:0.8;"/>
      </defs>
      <g>
       <use style="stroke:#000000;stroke-width:0.8;" x="69.141406" xlink:href="#maf4880c5d4" y="453.574725"/>
      </g>
     </g>
     <g id="text_8">
      <!-- −4.0 -->
      <g transform="translate(25.717188 459.273553)scale(0.15 -0.15)">
       <defs>
        <path d="M 2419 4116 
L 825 1625 
L 2419 1625 
L 2419 4116 
z
M 2253 4666 
L 3047 4666 
L 3047 1625 
L 3713 1625 
L 3713 1100 
L 3047 1100 
L 3047 0 
L 2419 0 
L 2419 1100 
L 313 1100 
L 313 1709 
L 2253 4666 
z
" id="DejaVuSans-34" transform="scale(0.015625)"/>
        <path d="M 684 794 
L 1344 794 
L 1344 0 
L 684 0 
L 684 794 
z
" id="DejaVuSans-2e" transform="scale(0.015625)"/>
       </defs>
       <use xlink:href="#DejaVuSans-2212"/>
       <use x="83.789062" xlink:href="#DejaVuSans-34"/>
       <use x="147.412109" xlink:href="#DejaVuSans-2e"/>
       <use x="179.199219" xlink:href="#DejaVuSans-30"/>
      </g>
     </g>
    </g>
    <g id="ytick_2">
     <g id="line2d_8">
      <g>
       <use style="stroke:#000000;stroke-width:0.8;" x="69.141406" xlink:href="#maf4880c5d4" y="402.681623"/>
      </g>
     </g>
     <g id="text_9">
      <!-- −3.5 -->
      <g transform="translate(25.717188 408.380451)scale(0.15 -0.15)">
       <defs>
        <path d="M 691 4666 
L 3169 4666 
L 3169 4134 
L 1269 4134 
L 1269 2991 
Q 1406 3038 1543 3061 
Q 1681 3084 1819 3084 
Q 2600 3084 3056 2656 
Q 3513 2228 3513 1497 
Q 3513 744 3044 326 
Q 2575 -91 1722 -91 
Q 1428 -91 1123 -41 
Q 819 9 494 109 
L 494 744 
Q 775 591 1075 516 
Q 1375 441 1709 441 
Q 2250 441 2565 725 
Q 2881 1009 2881 1497 
Q 2881 1984 2565 2268 
Q 2250 2553 1709 2553 
Q 1456 2553 1204 2497 
Q 953 2441 691 2322 
L 691 4666 
z
" id="DejaVuSans-35" transform="scale(0.015625)"/>
       </defs>
       <use xlink:href="#DejaVuSans-2212"/>
       <use x="83.789062" xlink:href="#DejaVuSans-33"/>
       <use x="147.412109" xlink:href="#DejaVuSans-2e"/>
       <use x="179.199219" xlink:href="#DejaVuSans-35"/>
      </g>
     </g>
    </g>
    <g id="ytick_3">
     <g id="line2d_9">
      <g>
       <use style="stroke:#000000;stroke-width:0.8;" x="69.141406" xlink:href="#maf4880c5d4" y="351.788521"/>
      </g>
     </g>
     <g id="text_10">
      <!-- −3.0 -->
      <g transform="translate(25.717188 357.487349)scale(0.15 -0.15)">
       <use xlink:href="#DejaVuSans-2212"/>
       <use x="83.789062" xlink:href="#DejaVuSans-33"/>
       <use x="147.412109" xlink:href="#DejaVuSans-2e"/>
       <use x="179.199219" xlink:href="#DejaVuSans-30"/>
      </g>
     </g>
    </g>
    <g id="ytick_4">
     <g id="line2d_10">
      <g>
       <use style="stroke:#000000;stroke-width:0.8;" x="69.141406" xlink:href="#maf4880c5d4" y="300.895419"/>
      </g>
     </g>
     <g id="text_11">
      <!-- −2.5 -->
      <g transform="translate(25.717188 306.594247)scale(0.15 -0.15)">
       <use xlink:href="#DejaVuSans-2212"/>
       <use x="83.789062" xlink:href="#DejaVuSans-32"/>
       <use x="147.412109" xlink:href="#DejaVuSans-2e"/>
       <use x="179.199219" xlink:href="#DejaVuSans-35"/>
      </g>
     </g>
    </g>
    <g id="ytick_5">
     <g id="line2d_11">
      <g>
       <use style="stroke:#000000;stroke-width:0.8;" x="69.141406" xlink:href="#maf4880c5d4" y="250.002317"/>
      </g>
     </g>
     <g id="text_12">
      <!-- −2.0 -->
      <g transform="translate(25.717188 255.701145)scale(0.15 -0.15)">
       <use xlink:href="#DejaVuSans-2212"/>
       <use x="83.789062" xlink:href="#DejaVuSans-32"/>
       <use x="147.412109" xlink:href="#DejaVuSans-2e"/>
       <use x="179.199219" xlink:href="#DejaVuSans-30"/>
      </g>
     </g>
    </g>
    <g id="ytick_6">
     <g id="line2d_12">
      <g>
       <use style="stroke:#000000;stroke-width:0.8;" x="69.141406" xlink:href="#maf4880c5d4" y="199.109215"/>
      </g>
     </g>
     <g id="text_13">
      <!-- −1.5 -->
      <g transform="translate(25.717188 204.808043)scale(0.15 -0.15)">
       <use xlink:href="#DejaVuSans-2212"/>
       <use x="83.789062" xlink:href="#DejaVuSans-31"/>
       <use x="147.412109" xlink:href="#DejaVuSans-2e"/>
       <use x="179.199219" xlink:href="#DejaVuSans-35"/>
      </g>
     </g>
    </g>
    <g id="ytick_7">
     <g id="line2d_13">
      <g>
       <use style="stroke:#000000;stroke-width:0.8;" x="69.141406" xlink:href="#maf4880c5d4" y="148.216113"/>
      </g>
     </g>
     <g id="text_14">
      <!-- −1.0 -->
      <g transform="translate(25.717188 153.914941)scale(0.15 -0.15)">
       <use xlink:href="#DejaVuSans-2212"/>
       <use x="83.789062" xlink:href="#DejaVuSans-31"/>
       <use x="147.412109" xlink:href="#DejaVuSans-2e"/>
       <use x="179.199219" xlink:href="#DejaVuSans-30"/>
      </g>
     </g>
    </g>
    <g id="ytick_8">
     <g id="line2d_14">
      <g>
       <use style="stroke:#000000;stroke-width:0.8;" x="69.141406" xlink:href="#maf4880c5d4" y="97.323011"/>
      </g>
     </g>
     <g id="text_15">
      <!-- −0.5 -->
      <g transform="translate(25.717188 103.021839)scale(0.15 -0.15)">
       <use xlink:href="#DejaVuSans-2212"/>
       <use x="83.789062" xlink:href="#DejaVuSans-30"/>
       <use x="147.412109" xlink:href="#DejaVuSans-2e"/>
       <use x="179.199219" xlink:href="#DejaVuSans-35"/>
      </g>
     </g>
    </g>
    <g id="ytick_9">
     <g id="line2d_15">
      <g>
       <use style="stroke:#000000;stroke-width:0.8;" x="69.141406" xlink:href="#maf4880c5d4" y="46.429909"/>
      </g>
     </g>
     <g id="text_16">
      <!-- 0.0 -->
      <g transform="translate(38.286719 52.128738)scale(0.15 -0.15)">
       <use xlink:href="#DejaVuSans-30"/>
       <use x="63.623047" xlink:href="#DejaVuSans-2e"/>
       <use x="95.410156" xlink:href="#DejaVuSans-30"/>
      </g>
     </g>
    </g>
    <g id="text_17">
     <!-- Normalized Intensity -->
     <g transform="translate(18.597656 321.700547)rotate(-90)scale(0.15 -0.15)">
      <defs>
       <path d="M 628 4666 
L 1478 4666 
L 3547 763 
L 3547 4666 
L 4159 4666 
L 4159 0 
L 3309 0 
L 1241 3903 
L 1241 0 
L 628 0 
L 628 4666 
z
" id="DejaVuSans-4e" transform="scale(0.015625)"/>
       <path d="M 1959 3097 
Q 1497 3097 1228 2736 
Q 959 2375 959 1747 
Q 959 1119 1226 758 
Q 1494 397 1959 397 
Q 2419 397 2687 759 
Q 2956 1122 2956 1747 
Q 2956 2369 2687 2733 
Q 2419 3097 1959 3097 
z
M 1959 3584 
Q 2709 3584 3137 3096 
Q 3566 2609 3566 1747 
Q 3566 888 3137 398 
Q 2709 -91 1959 -91 
Q 1206 -91 779 398 
Q 353 888 353 1747 
Q 353 2609 779 3096 
Q 1206 3584 1959 3584 
z
" id="DejaVuSans-6f" transform="scale(0.015625)"/>
       <path d="M 603 4863 
L 1178 4863 
L 1178 0 
L 603 0 
L 603 4863 
z
" id="DejaVuSans-6c" transform="scale(0.015625)"/>
       <path d="M 353 3500 
L 3084 3500 
L 3084 2975 
L 922 459 
L 3084 459 
L 3084 0 
L 275 0 
L 275 525 
L 2438 3041 
L 353 3041 
L 353 3500 
z
" id="DejaVuSans-7a" transform="scale(0.015625)"/>
       <path d="M 2906 2969 
L 2906 4863 
L 3481 4863 
L 3481 0 
L 2906 0 
L 2906 525 
Q 2725 213 2448 61 
Q 2172 -91 1784 -91 
Q 1150 -91 751 415 
Q 353 922 353 1747 
Q 353 2572 751 3078 
Q 1150 3584 1784 3584 
Q 2172 3584 2448 3432 
Q 2725 3281 2906 2969 
z
M 947 1747 
Q 947 1113 1208 752 
Q 1469 391 1925 391 
Q 2381 391 2643 752 
Q 2906 1113 2906 1747 
Q 2906 2381 2643 2742 
Q 2381 3103 1925 3103 
Q 1469 3103 1208 2742 
Q 947 2381 947 1747 
z
" id="DejaVuSans-64" transform="scale(0.015625)"/>
       <path d="M 628 4666 
L 1259 4666 
L 1259 0 
L 628 0 
L 628 4666 
z
" id="DejaVuSans-49" transform="scale(0.015625)"/>
       <path d="M 1172 4494 
L 1172 3500 
L 2356 3500 
L 2356 3053 
L 1172 3053 
L 1172 1153 
Q 1172 725 1289 603 
Q 1406 481 1766 481 
L 2356 481 
L 2356 0 
L 1766 0 
Q 1100 0 847 248 
Q 594 497 594 1153 
L 594 3053 
L 172 3053 
L 172 3500 
L 594 3500 
L 594 4494 
L 1172 4494 
z
" id="DejaVuSans-74" transform="scale(0.015625)"/>
       <path d="M 2834 3397 
L 2834 2853 
Q 2591 2978 2328 3040 
Q 2066 3103 1784 3103 
Q 1356 3103 1142 2972 
Q 928 2841 928 2578 
Q 928 2378 1081 2264 
Q 1234 2150 1697 2047 
L 1894 2003 
Q 2506 1872 2764 1633 
Q 3022 1394 3022 966 
Q 3022 478 2636 193 
Q 2250 -91 1575 -91 
Q 1294 -91 989 -36 
Q 684 19 347 128 
L 347 722 
Q 666 556 975 473 
Q 1284 391 1588 391 
Q 1994 391 2212 530 
Q 2431 669 2431 922 
Q 2431 1156 2273 1281 
Q 2116 1406 1581 1522 
L 1381 1569 
Q 847 1681 609 1914 
Q 372 2147 372 2553 
Q 372 3047 722 3315 
Q 1072 3584 1716 3584 
Q 2034 3584 2315 3537 
Q 2597 3491 2834 3397 
z
" id="DejaVuSans-73" transform="scale(0.015625)"/>
       <path d="M 2059 -325 
Q 1816 -950 1584 -1140 
Q 1353 -1331 966 -1331 
L 506 -1331 
L 506 -850 
L 844 -850 
Q 1081 -850 1212 -737 
Q 1344 -625 1503 -206 
L 1606 56 
L 191 3500 
L 800 3500 
L 1894 763 
L 2988 3500 
L 3597 3500 
L 2059 -325 
z
" id="DejaVuSans-79" transform="scale(0.015625)"/>
      </defs>
      <use xlink:href="#DejaVuSans-4e"/>
      <use x="74.804688" xlink:href="#DejaVuSans-6f"/>
      <use x="135.986328" xlink:href="#DejaVuSans-72"/>
      <use x="175.349609" xlink:href="#DejaVuSans-6d"/>
      <use x="272.761719" xlink:href="#DejaVuSans-61"/>
      <use x="334.041016" xlink:href="#DejaVuSans-6c"/>
      <use x="361.824219" xlink:href="#DejaVuSans-69"/>
      <use x="389.607422" xlink:href="#DejaVuSans-7a"/>
      <use x="442.097656" xlink:href="#DejaVuSans-65"/>
      <use x="503.621094" xlink:href="#DejaVuSans-64"/>
      <use x="567.097656" xlink:href="#DejaVuSans-20"/>
      <use x="598.884766" xlink:href="#DejaVuSans-49"/>
      <use x="628.376953" xlink:href="#DejaVuSans-6e"/>
      <use x="691.755859" xlink:href="#DejaVuSans-74"/>
      <use x="730.964844" xlink:href="#DejaVuSans-65"/>
      <use x="792.488281" xlink:href="#DejaVuSans-6e"/>
      <use x="855.867188" xlink:href="#DejaVuSans-73"/>
      <use x="907.966797" xlink:href="#DejaVuSans-69"/>
      <use x="935.75" xlink:href="#DejaVuSans-74"/>
      <use x="974.958984" xlink:href="#DejaVuSans-79"/>
     </g>
    </g>
    <g id="text_18">
     <!-- 1e6 -->
     <g transform="translate(69.141406 23.7)scale(0.1 -0.1)">
      <defs>
       <path d="M 2113 2584 
Q 1688 2584 1439 2293 
Q 1191 2003 1191 1497 
Q 1191 994 1439 701 
Q 1688 409 2113 409 
Q 2538 409 2786 701 
Q 3034 994 3034 1497 
Q 3034 2003 2786 2293 
Q 2538 2584 2113 2584 
z
M 3366 4563 
L 3366 3988 
Q 3128 4100 2886 4159 
Q 2644 4219 2406 4219 
Q 1781 4219 1451 3797 
Q 1122 3375 1075 2522 
Q 1259 2794 1537 2939 
Q 1816 3084 2150 3084 
Q 2853 3084 3261 2657 
Q 3669 2231 3669 1497 
Q 3669 778 3244 343 
Q 2819 -91 2113 -91 
Q 1303 -91 875 529 
Q 447 1150 447 2328 
Q 447 3434 972 4092 
Q 1497 4750 2381 4750 
Q 2619 4750 2861 4703 
Q 3103 4656 3366 4563 
z
" id="DejaVuSans-36" transform="scale(0.015625)"/>
      </defs>
      <use xlink:href="#DejaVuSans-31"/>
      <use x="63.623047" xlink:href="#DejaVuSans-65"/>
      <use x="125.146484" xlink:href="#DejaVuSans-36"/>
     </g>
    </g>
   </g>
   <g id="line2d_16">
    <path clip-path="url(#p0817f836dd)" d="M 107.186861 46.467273 
L 141.16521 46.663935 
L 163.817443 47.000973 
L 181.321441 47.473312 
L 194.706851 48.051154 
L 205.00332 48.699028 
L 214.270143 49.504844 
L 221.477671 50.332164 
L 228.6852 51.391791 
L 234.863082 52.534794 
L 240.011316 53.690723 
L 245.159551 55.066757 
L 250.307786 56.699225 
L 254.426374 58.215691 
L 258.544961 59.941112 
L 262.663549 61.895422 
L 266.782137 64.097627 
L 270.900725 66.565094 
L 275.019313 69.312845 
L 279.1379 72.352935 
L 283.256488 75.693973 
L 287.375076 79.340843 
L 291.493664 83.29465 
L 295.612251 87.552924 
L 299.730839 92.110041 
L 303.849427 96.957821 
L 308.997662 103.410885 
L 314.145896 110.280406 
L 319.294131 117.543478 
L 324.442366 125.17743 
L 329.5906 133.160145 
L 335.768482 143.168534 
L 341.946364 153.606095 
L 349.153892 166.26058 
L 357.391068 181.230635 
L 368.717184 202.346783 
L 382.102595 227.240127 
L 389.310123 240.170247 
L 395.488005 250.763913 
L 400.63624 259.139301 
L 404.754827 265.489531 
L 408.873415 271.492979 
L 412.992003 277.123806 
L 417.110591 282.3649 
L 421.229178 287.210043 
L 425.347766 291.666112 
L 429.466354 295.755191 
L 433.584942 299.516429 
L 438.733176 303.846518 
L 445.940705 309.504316 
L 453.148234 315.214185 
L 457.266821 318.763855 
L 460.355762 321.667848 
L 463.444703 324.842115 
L 466.533644 328.339241 
L 469.622585 332.204996 
L 472.711526 336.475296 
L 475.800466 341.173048 
L 478.889407 346.305004 
L 481.978348 351.858812 
L 485.067289 357.800468 
L 489.185877 366.222945 
L 495.363758 379.483637 
L 501.54164 392.576903 
L 504.630581 398.661209 
L 507.719522 404.199659 
L 509.778816 407.498629 
L 511.838109 410.421261 
L 513.897403 412.917271 
L 515.956697 414.939942 
L 518.015991 416.447266 
L 519.045638 416.996108 
L 520.075285 417.403055 
L 521.104932 417.664659 
L 522.134579 417.777963 
L 523.164226 417.740522 
L 524.193873 417.550425 
L 525.22352 417.206321 
L 526.253167 416.707436 
L 527.282814 416.053585 
L 528.312461 415.245188 
L 530.371754 413.169511 
L 532.431048 410.496108 
L 534.490342 407.250578 
L 536.549636 403.468206 
L 538.60893 399.193535 
L 540.668224 394.479715 
L 543.757165 386.720656 
L 546.846105 378.344647 
L 559.201869 343.947886 
L 562.29081 336.445953 
L 564.350104 331.936478 
L 566.409397 327.885208 
L 568.468691 324.338375 
L 570.527985 321.333226 
L 572.587279 318.897561 
L 574.646573 317.04946 
L 575.67622 316.34872 
L 576.705867 315.797223 
L 577.735514 315.394496 
L 578.765161 315.139479 
L 579.794808 315.030541 
L 580.824455 315.065489 
L 581.854102 315.241591 
L 582.883748 315.555594 
L 583.913395 316.003744 
L 585.972689 317.285116 
L 588.031983 319.046609 
L 590.091277 321.242759 
L 592.150571 323.822645 
L 594.209865 326.730843 
L 597.298806 331.579024 
L 601.417393 338.623137 
L 608.624922 351.120349 
L 611.713863 356.005669 
L 613.773157 358.963759 
L 615.832451 361.623338 
L 617.891745 363.937915 
L 619.951038 365.865336 
L 622.010332 367.368015 
L 624.069626 368.413108 
L 625.099273 368.755116 
L 626.12892 368.972606 
L 627.158567 369.062839 
L 628.188214 369.023384 
L 629.217861 368.852111 
L 630.247508 368.547192 
L 631.277155 368.1071 
L 632.306802 367.530602 
L 633.336449 366.816755 
L 635.395743 364.974685 
L 637.455036 362.579017 
L 639.51433 359.632218 
L 641.573624 356.1409 
L 643.632918 352.115605 
L 645.692212 347.570568 
L 647.751506 342.523476 
L 649.8108 336.995218 
L 652.899741 327.853502 
L 655.988681 317.774803 
L 659.077622 306.862007 
L 662.166563 295.227397 
L 666.285151 278.799222 
L 671.433386 257.212188 
L 688.937384 182.63669 
L 693.055971 166.373502 
L 697.174559 151.060168 
L 700.2635 140.291983 
L 703.352441 130.193161 
L 706.441382 120.7979 
L 709.530322 112.126508 
L 712.619263 104.185989 
L 715.708204 96.970982 
L 718.797145 90.465004 
L 721.886086 84.641935 
L 724.975027 79.467668 
L 728.063967 74.901853 
L 731.152908 70.899646 
L 734.241849 67.413395 
L 737.33079 64.394209 
L 740.419731 61.793335 
L 743.508672 59.563341 
L 746.597612 57.659053 
L 749.686553 56.038266 
L 752.775494 54.662232 
L 755.864435 53.495931 
L 759.983023 52.213751 
L 764.10161 51.185855 
L 769.249845 50.179689 
L 774.39808 49.408876 
L 780.575962 48.710401 
L 787.78349 48.115811 
L 797.050313 47.583363 
L 809.406076 47.126259 
L 824.85078 46.791823 
L 846.473366 46.560641 
L 868.095952 46.468607 
L 868.095952 46.468607 
" style="fill:none;stroke:#e98768;stroke-linecap:square;stroke-width:1.5;"/>
   </g>
   <g id="line2d_17">
    <path clip-path="url(#p0817f836dd)" d="M 111.562107 46.469008 
L 143.044071 46.658178 
L 165.386111 47.007473 
L 181.634866 47.47274 
L 193.821433 48.023624 
L 203.976906 48.69213 
L 212.101284 49.426504 
L 219.210114 50.268251 
L 225.303398 51.181528 
L 231.396681 52.316986 
L 236.474418 53.469099 
L 241.552154 54.84315 
L 246.62989 56.474343 
L 250.692079 57.988972 
L 254.754268 59.71021 
L 258.816457 61.656018 
L 262.878646 63.842993 
L 266.940835 66.285716 
L 271.003024 68.996153 
L 275.065213 71.983178 
L 279.127402 75.25227 
L 283.189591 78.805419 
L 287.25178 82.641265 
L 291.313969 86.755453 
L 295.376158 91.141172 
L 300.453894 96.991934 
L 305.53163 103.234391 
L 310.609366 109.848733 
L 315.687103 116.815784 
L 320.764839 124.117598 
L 326.858122 133.297748 
L 332.951406 142.905564 
L 339.044689 152.906582 
L 346.15352 165.012232 
L 354.277898 179.307595 
L 367.480012 203.088052 
L 378.651032 223.02058 
L 385.759862 235.222659 
L 391.853146 245.18481 
L 396.930882 253.035334 
L 400.993071 258.970213 
L 405.05526 264.564669 
L 409.117449 269.794221 
L 413.179638 274.642033 
L 417.241827 279.10078 
L 421.304016 283.174659 
L 425.366205 286.881464 
L 429.428394 290.254596 
L 433.490583 293.344851 
L 438.568319 296.917668 
L 450.754886 305.30001 
L 454.817075 308.478655 
L 457.863717 311.139404 
L 460.910358 314.107583 
L 463.957 317.443757 
L 467.003642 321.203184 
L 470.050283 325.432762 
L 473.096925 330.167733 
L 476.143567 335.428282 
L 479.190209 341.216174 
L 482.23685 347.51164 
L 485.283492 354.270714 
L 489.345681 363.8789 
L 495.438965 379.046264 
L 501.532248 394.061885 
L 504.57889 401.05844 
L 507.625531 407.445615 
L 509.656626 411.263656 
L 511.68772 414.660155 
L 513.718815 417.578423 
L 515.749909 419.965703 
L 517.781004 421.7744 
L 518.796551 422.448615 
L 519.812098 422.963281 
L 520.827646 423.314421 
L 521.843193 423.498588 
L 522.85874 423.512896 
L 523.874287 423.355042 
L 524.889835 423.023332 
L 525.905382 422.516699 
L 526.920929 421.83472 
L 527.936476 420.977633 
L 528.952024 419.946342 
L 530.983118 417.368149 
L 533.014213 414.120915 
L 535.045307 410.236153 
L 537.076402 405.755793 
L 539.107496 400.731615 
L 541.138591 395.224465 
L 544.185232 386.210818 
L 548.247421 373.199244 
L 558.402894 339.977212 
L 561.449535 331.000639 
L 563.48063 325.511226 
L 565.511724 320.491901 
L 567.542819 315.996687 
L 569.573913 312.070337 
L 571.605008 308.747816 
L 573.636102 306.053981 
L 575.667197 304.003482 
L 576.682744 303.221287 
L 577.698291 302.600846 
L 578.713838 302.141188 
L 579.729386 301.840756 
L 580.744933 301.697419 
L 581.76048 301.708495 
L 582.776027 301.870772 
L 583.791575 302.180531 
L 584.807122 302.633572 
L 585.822669 303.225239 
L 587.853764 304.803712 
L 589.884858 306.870657 
L 591.915953 309.375338 
L 593.947047 312.262549 
L 595.978142 315.473598 
L 599.024783 320.763014 
L 603.086972 328.366912 
L 610.195803 341.785046 
L 613.242445 347.061944 
L 616.289086 351.795202 
L 618.320181 354.571194 
L 620.351275 356.995281 
L 622.38237 359.030908 
L 624.413464 360.645943 
L 626.444559 361.812728 
L 627.460106 362.220609 
L 628.475653 362.508082 
L 629.491201 362.672941 
L 630.506748 362.713254 
L 631.522295 362.627357 
L 632.537842 362.413852 
L 633.55339 362.071601 
L 634.568937 361.599725 
L 635.584484 360.997596 
L 637.615579 359.40129 
L 639.646673 357.282493 
L 641.677768 354.644687 
L 643.708862 351.49483 
L 645.739957 347.843152 
L 647.771051 343.702934 
L 649.802146 339.090303 
L 651.83324 334.024002 
L 654.879882 325.620777 
L 657.926523 316.32522 
L 660.973165 306.227064 
L 664.019807 295.423806 
L 668.081996 280.102486 
L 673.159732 259.841286 
L 680.268563 230.335183 
L 689.408488 192.497031 
L 694.486224 172.44084 
L 698.548413 157.238113 
L 702.610602 142.961685 
L 705.657244 132.939935 
L 708.703886 123.551106 
L 711.750527 114.822948 
L 714.797169 106.771323 
L 717.843811 99.400663 
L 720.890453 92.70471 
L 723.937094 86.667533 
L 726.983736 81.264744 
L 730.030378 76.464886 
L 733.077019 72.230905 
L 736.123661 68.521658 
L 739.170303 65.293379 
L 742.216945 62.501063 
L 745.263586 60.099702 
L 748.310228 58.045357 
L 751.35687 56.296032 
L 754.403512 54.812347 
L 757.450153 53.558016 
L 760.496795 52.500129 
L 764.558984 51.344878 
L 768.621173 50.426885 
L 773.698909 49.538236 
L 779.792193 48.752966 
L 786.901023 48.105653 
L 795.025401 47.598239 
L 806.196421 47.147907 
L 820.414082 46.811818 
L 840.725027 46.572531 
L 863.067067 46.469332 
L 863.067067 46.469332 
" style="fill:none;stroke:#de5d5c;stroke-linecap:square;stroke-width:1.5;"/>
   </g>
   <g id="line2d_18">
    <path clip-path="url(#p0817f836dd)" d="M 114.964104 46.468734 
L 146.008978 46.666093 
L 166.037929 46.998226 
L 181.059642 47.446741 
L 193.077013 48.016244 
L 203.091488 48.718614 
L 211.103069 49.499893 
L 218.113201 50.403435 
L 224.121887 51.389436 
L 230.130572 52.619142 
L 235.13781 53.867747 
L 240.145047 55.354834 
L 245.152285 57.114441 
L 249.158075 58.74104 
L 253.163865 60.58003 
L 257.169656 62.646315 
L 261.175446 64.952734 
L 265.181236 67.509541 
L 269.187026 70.324009 
L 273.192816 73.400212 
L 277.198606 76.739012 
L 281.204397 80.338259 
L 285.210187 84.193194 
L 290.217425 89.360905 
L 295.224662 94.901209 
L 300.2319 100.796564 
L 305.239138 107.029819 
L 310.246375 113.585353 
L 316.255061 121.85819 
L 322.263746 130.554169 
L 328.272431 139.651745 
L 334.281116 149.124622 
L 341.291249 160.602132 
L 349.30283 174.179261 
L 361.3202 195.086867 
L 373.337571 215.913675 
L 380.347703 227.631453 
L 386.356389 237.221432 
L 391.363626 244.792867 
L 396.370864 251.907343 
L 400.376654 257.228397 
L 404.382444 262.191858 
L 408.388235 266.778538 
L 412.394025 270.977353 
L 416.399815 274.78703 
L 420.405605 278.217964 
L 424.411395 281.294149 
L 428.417185 284.055105 
L 432.422976 286.557663 
L 438.431661 289.997686 
L 446.443241 294.54935 
L 450.449031 297.103493 
L 453.453374 299.264267 
L 456.457717 301.710741 
L 459.462059 304.511589 
L 462.466402 307.733668 
L 465.470745 311.439298 
L 468.475087 315.683164 
L 471.47943 320.508912 
L 474.483772 325.945547 
L 477.488115 332.003789 
L 480.492458 338.672569 
L 483.4968 345.915892 
L 486.501143 353.670305 
L 490.506933 364.640285 
L 503.525751 401.190934 
L 506.530094 408.667458 
L 508.532989 413.206106 
L 510.535884 417.310175 
L 512.538779 420.915248 
L 514.541674 423.960557 
L 516.544569 426.390325 
L 517.546017 427.35864 
L 518.547464 428.155076 
L 519.548912 428.774638 
L 520.550359 429.212871 
L 521.551807 429.465898 
L 522.553254 429.530446 
L 523.554702 429.403877 
L 524.55615 429.084207 
L 525.557597 428.570136 
L 526.559045 427.861057 
L 527.560492 426.957075 
L 528.56194 425.85902 
L 529.563387 424.568449 
L 531.566282 421.419651 
L 533.569177 417.537758 
L 535.572073 412.961313 
L 537.574968 407.739858 
L 539.577863 401.933216 
L 542.582205 392.279581 
L 545.586548 381.733271 
L 549.592338 366.799579 
L 556.602471 340.386173 
L 559.606814 329.770551 
L 562.611156 319.990662 
L 564.614051 314.05578 
L 566.616946 308.661074 
L 568.619841 303.85771 
L 570.622737 299.686727 
L 572.625632 296.178699 
L 574.628527 293.353604 
L 575.629974 292.200518 
L 576.631422 291.220906 
L 577.632869 290.414352 
L 578.634317 289.779826 
L 579.635764 289.315706 
L 580.637212 289.019788 
L 581.63866 288.88932 
L 582.640107 288.921016 
L 583.641555 289.111085 
L 584.643002 289.455259 
L 585.64445 289.948821 
L 586.645897 290.586629 
L 588.648792 292.272501 
L 590.651687 294.464476 
L 592.654582 297.109372 
L 594.657478 300.150214 
L 596.660373 303.527211 
L 599.664715 309.087833 
L 603.670505 317.097206 
L 611.682086 333.327454 
L 614.686428 338.904819 
L 617.690771 343.943902 
L 619.693666 346.933614 
L 621.696561 349.583944 
L 623.699456 351.862079 
L 625.702351 353.739321 
L 627.705246 355.191081 
L 629.708142 356.196813 
L 630.709589 356.527088 
L 631.711037 356.739944 
L 632.712484 356.833911 
L 633.713932 356.807753 
L 634.715379 356.660461 
L 635.716827 356.391251 
L 636.718274 355.999555 
L 638.721169 354.84751 
L 640.724065 353.203978 
L 642.72696 351.071766 
L 644.729855 348.456661 
L 646.73275 345.36724 
L 648.735645 341.814683 
L 650.73854 337.812586 
L 652.741435 333.376773 
L 654.74433 328.525108 
L 657.748673 320.511506 
L 660.753015 311.680489 
L 663.757358 302.112707 
L 666.761701 291.894703 
L 670.767491 277.417389 
L 675.774729 258.267462 
L 682.784861 230.302297 
L 692.799337 190.234333 
L 697.806574 171.058428 
L 701.812365 156.458308 
L 705.818155 142.680264 
L 709.823945 129.845637 
L 712.828288 120.894518 
L 715.83263 112.552193 
L 718.836973 104.834968 
L 721.841316 97.749215 
L 724.845658 91.291856 
L 727.850001 85.451081 
L 730.854343 80.207265 
L 733.858686 75.534064 
L 736.863029 71.399617 
L 739.867371 67.767818 
L 742.871714 64.599599 
L 745.876057 61.854167 
L 748.880399 59.490155 
L 751.884742 57.46665 
L 754.889084 55.744064 
L 757.893427 54.284843 
L 760.89777 53.053997 
L 763.902112 52.019462 
L 767.907903 50.895913 
L 771.913693 50.010556 
L 776.92093 49.163637 
L 782.929616 48.428342 
L 789.939748 47.836501 
L 798.952776 47.341298 
L 809.968699 46.972303 
L 825.99186 46.679705 
L 849.025153 46.500844 
L 858.038181 46.470245 
L 858.038181 46.470245 
" style="fill:none;stroke:#c14168;stroke-linecap:square;stroke-width:1.5;"/>
   </g>
   <g id="line2d_19">
    <path clip-path="url(#p0817f836dd)" d="M 118.412265 46.469194 
L 148.033046 46.666441 
L 166.792875 46.996274 
L 181.603266 47.474349 
L 192.464219 48.033861 
L 201.350454 48.698371 
L 209.249329 49.514854 
L 216.160845 50.466365 
L 222.085001 51.509112 
L 227.021798 52.574251 
L 231.958595 53.849793 
L 236.895392 55.36729 
L 241.832189 57.158385 
L 245.781627 58.808618 
L 249.731064 60.667371 
L 253.680502 62.746824 
L 257.629939 65.056793 
L 261.579377 67.60435 
L 265.528815 70.393601 
L 269.478252 73.425649 
L 273.42769 76.698765 
L 278.364487 81.122562 
L 283.301284 85.903977 
L 288.238081 91.027823 
L 293.174878 96.478043 
L 298.111675 102.239427 
L 303.048472 108.298768 
L 308.972628 115.948267 
L 314.896784 123.996548 
L 320.820941 132.430174 
L 326.745097 141.233032 
L 333.656613 151.937911 
L 340.568129 163.055679 
L 349.454363 177.815747 
L 374.138348 219.194761 
L 380.062505 228.54856 
L 384.999302 235.975552 
L 389.936099 242.989925 
L 393.885536 248.258848 
L 397.834974 253.190116 
L 401.784411 257.758376 
L 405.733849 261.944582 
L 409.683287 265.737432 
L 413.632724 269.134923 
L 416.594802 271.428528 
L 420.54424 274.163375 
L 424.493677 276.559423 
L 428.443115 278.665222 
L 433.379912 280.992053 
L 446.215584 286.781454 
L 449.177662 288.404034 
L 452.139741 290.272475 
L 455.101819 292.459363 
L 458.063897 295.038564 
L 460.038616 297.012112 
L 462.013335 299.213348 
L 463.988053 301.662014 
L 465.962772 304.376311 
L 467.937491 307.372443 
L 469.91221 310.664123 
L 471.886929 314.262064 
L 474.849007 320.247884 
L 477.811085 326.944864 
L 480.773163 334.335756 
L 483.735241 342.375984 
L 486.697319 350.991044 
L 490.646757 363.184041 
L 503.482429 403.822031 
L 506.444507 412.144747 
L 508.419226 417.203339 
L 510.393945 421.784794 
L 512.368664 425.818833 
L 514.343383 429.239209 
L 516.318101 431.985138 
L 517.305461 433.088025 
L 518.29282 434.002682 
L 519.28018 434.723653 
L 520.267539 435.246067 
L 521.254898 435.565673 
L 522.242258 435.678875 
L 523.229617 435.582752 
L 524.216977 435.275095 
L 525.204336 434.75442 
L 526.191695 434.019992 
L 527.179055 433.071836 
L 528.166414 431.910753 
L 529.153774 430.538322 
L 531.128492 427.16966 
L 533.103211 422.994117 
L 535.07793 418.052216 
L 537.052649 412.396225 
L 539.027367 406.089397 
L 541.989446 395.571458 
L 544.951524 384.038529 
L 548.900961 367.631198 
L 556.799837 334.297336 
L 559.761915 322.634062 
L 562.723993 311.892851 
L 564.698712 305.368093 
L 566.673431 299.425424 
L 568.648149 294.116272 
L 570.622868 289.481429 
L 572.597587 285.550804 
L 574.572306 282.343399 
L 576.547025 279.867491 
L 577.534384 278.903589 
L 578.521743 278.120999 
L 579.509103 277.51793 
L 580.496462 277.092022 
L 581.483822 276.840363 
L 582.471181 276.759522 
L 583.45854 276.845573 
L 584.4459 277.094123 
L 585.433259 277.500343 
L 586.420619 278.058997 
L 587.407978 278.764475 
L 589.382697 280.591769 
L 591.357416 282.931022 
L 593.332134 285.727034 
L 595.306853 288.921589 
L 598.268931 294.328479 
L 601.231009 300.288671 
L 606.167806 310.891076 
L 612.091963 323.600145 
L 615.054041 329.533271 
L 618.016119 334.97809 
L 619.990838 338.270296 
L 621.965557 341.251351 
L 623.940276 343.890362 
L 625.914994 346.160211 
L 627.889713 348.037507 
L 629.864432 349.50251 
L 631.839151 350.539033 
L 633.81387 351.134325 
L 634.801229 351.263435 
L 635.788588 351.278947 
L 636.775948 351.180175 
L 637.763307 350.966623 
L 639.738026 350.194097 
L 641.712745 348.960979 
L 643.687464 347.269585 
L 645.662182 345.124775 
L 647.636901 342.533797 
L 649.61162 339.50612 
L 651.586339 336.053278 
L 653.561057 332.188708 
L 655.535776 327.927594 
L 658.497854 320.829499 
L 661.459933 312.939817 
L 664.422011 304.32729 
L 667.384089 295.065789 
L 671.333527 281.842871 
L 675.282964 267.798372 
L 680.219761 249.391308 
L 688.118636 218.899925 
L 697.004871 184.782638 
L 701.941668 166.639327 
L 705.891106 152.808871 
L 709.840543 139.7301 
L 713.789981 127.511435 
L 716.752059 118.963028 
L 719.714137 110.971304 
L 722.676215 103.553132 
L 725.638293 96.716875 
L 728.600372 90.462645 
L 731.56245 84.782761 
L 734.524528 79.662401 
L 737.486606 75.08041 
L 740.448684 71.010252 
L 743.410763 67.421046 
L 746.372841 64.278647 
L 749.334919 61.546735 
L 752.296997 59.187857 
L 755.259075 57.164391 
L 758.221154 55.439404 
L 761.183232 53.977372 
L 764.14531 52.744759 
L 767.107388 51.710449 
L 771.056826 50.591144 
L 775.006263 49.714776 
L 779.94306 48.885089 
L 784.879857 48.277478 
L 790.804014 47.757006 
L 798.702889 47.297892 
L 809.563842 46.923745 
L 824.374233 46.657816 
L 847.083499 46.490987 
L 853.007656 46.471413 
L 853.007656 46.471413 
" style="fill:none;stroke:#9a3670;stroke-linecap:square;stroke-width:1.5;"/>
   </g>
   <g id="line2d_20">
    <path clip-path="url(#p0817f836dd)" d="M 122.48137 46.472389 
L 149.745866 46.666457 
L 167.273042 46.994525 
L 180.90529 47.464494 
L 191.616342 48.05942 
L 200.37993 48.778075 
L 207.196054 49.543059 
L 213.038446 50.388238 
L 218.880838 51.452493 
L 223.749498 52.540687 
L 228.618158 53.842956 
L 233.486818 55.388972 
L 238.355477 57.20748 
L 242.250405 58.876231 
L 246.145333 60.747844 
L 250.040261 62.831759 
L 253.935189 65.13488 
L 257.830117 67.661351 
L 261.725045 70.412491 
L 265.619973 73.386929 
L 270.488633 77.413099 
L 275.357293 81.770851 
L 280.225953 86.446036 
L 285.094613 91.423613 
L 289.963273 96.68941 
L 295.805665 103.372106 
L 301.648057 110.437264 
L 307.490449 117.874743 
L 313.332841 125.677331 
L 319.175233 133.837036 
L 325.017625 142.340811 
L 331.833749 152.666485 
L 339.623605 164.928713 
L 349.360925 180.751877 
L 367.861832 210.990653 
L 374.677956 221.633823 
L 380.520348 230.302738 
L 385.389008 237.109392 
L 389.283936 242.230813 
L 393.178864 247.028591 
L 397.073792 251.473831 
L 400.96872 255.542772 
L 404.863648 259.218118 
L 407.784844 261.710344 
L 410.70604 263.97515 
L 413.627236 266.015367 
L 416.548432 267.837611 
L 419.469628 269.452703 
L 423.364556 271.311364 
L 427.259484 272.880678 
L 432.128144 274.54174 
L 443.812928 278.287263 
L 446.734124 279.477402 
L 449.65532 280.902599 
L 452.576516 282.638106 
L 454.52398 284.006009 
L 456.471444 285.569979 
L 458.418908 287.353375 
L 460.366372 289.379101 
L 462.313836 291.669226 
L 464.2613 294.244555 
L 466.208764 297.124165 
L 468.156228 300.324911 
L 470.103692 303.860902 
L 472.051156 307.742965 
L 473.99862 311.978095 
L 476.919816 318.997202 
L 479.841012 326.803119 
L 482.762207 335.355101 
L 485.683403 344.581002 
L 489.578331 357.743065 
L 495.420723 378.590047 
L 501.263115 399.313804 
L 504.184311 409.020905 
L 507.105507 417.936536 
L 509.052971 423.307264 
L 511.000435 428.128554 
L 512.947899 432.326187 
L 514.895363 435.830983 
L 516.842827 438.580297 
L 517.816559 439.654214 
L 518.790291 440.519455 
L 519.764023 441.170648 
L 520.737755 441.603079 
L 521.711487 441.812727 
L 522.685219 441.796289 
L 523.658951 441.551211 
L 524.632683 441.075711 
L 525.606415 440.3688 
L 526.580147 439.430293 
L 527.553879 438.260829 
L 528.527611 436.861872 
L 529.501343 435.235718 
L 531.448807 431.315145 
L 533.396271 426.533952 
L 535.343735 420.939763 
L 537.291199 414.59233 
L 539.238663 407.562607 
L 542.159859 395.918324 
L 545.081055 383.23143 
L 548.975983 365.284001 
L 556.765839 329.042382 
L 559.687035 316.39345 
L 562.608231 304.738417 
L 564.555695 297.646759 
L 566.503159 291.171875 
L 568.450623 285.365346 
L 570.398087 280.267719 
L 572.345551 275.908345 
L 574.293015 272.305447 
L 576.240479 269.46639 
L 577.214211 268.332744 
L 578.187943 267.388137 
L 579.161675 266.630666 
L 580.135407 266.05786 
L 581.109139 265.666709 
L 582.082871 265.453691 
L 583.056603 265.4148 
L 584.030335 265.545578 
L 585.004067 265.841143 
L 585.977799 266.296221 
L 586.951531 266.905178 
L 587.925263 267.662054 
L 589.872727 269.594262 
L 591.820191 272.039788 
L 593.767655 274.942329 
L 595.715119 278.243288 
L 598.636315 283.810349 
L 601.557511 289.934686 
L 606.42617 300.836514 
L 613.242294 316.108042 
L 616.16349 322.194351 
L 619.084686 327.800129 
L 622.005882 332.806404 
L 623.953346 335.760115 
L 625.90081 338.376297 
L 627.848274 340.632616 
L 629.795738 342.510022 
L 631.743202 343.992642 
L 633.690666 345.067663 
L 635.63813 345.72521 
L 637.585594 345.958215 
L 639.533058 345.762286 
L 641.480522 345.135568 
L 643.427986 344.07861 
L 645.37545 342.594226 
L 647.322914 340.687359 
L 649.270378 338.364943 
L 651.217842 335.635771 
L 653.165306 332.510358 
L 655.11277 329.000809 
L 657.060234 325.120691 
L 659.98143 318.638615 
L 662.902626 311.411781 
L 665.823822 303.500576 
L 668.745018 294.96965 
L 672.639946 282.749089 
L 676.534874 269.716242 
L 681.403534 252.547054 
L 688.219658 227.484668 
L 700.878174 180.655641 
L 705.746834 163.474953 
L 710.615494 147.171241 
L 714.510422 134.909515 
L 718.40535 123.443728 
L 721.326546 115.410892 
L 724.247741 107.889148 
L 727.168937 100.893766 
L 730.090133 94.432858 
L 733.011329 88.507502 
L 735.932525 83.112031 
L 738.853721 78.234488 
L 741.774917 73.857236 
L 744.696113 69.957687 
L 747.617309 66.509138 
L 750.538505 63.48167 
L 753.459701 60.843068 
L 756.380897 58.559734 
L 759.302093 56.597555 
L 762.223289 54.922687 
L 765.144485 53.502249 
L 768.065681 52.304892 
L 770.986877 51.301252 
L 774.881805 50.217984 
L 778.776733 49.374098 
L 783.645393 48.582013 
L 788.514053 48.009794 
L 794.356445 47.529269 
L 802.146301 47.118549 
L 812.857353 46.800009 
L 828.437065 46.579736 
L 848.885436 46.470336 
L 848.885436 46.470336 
" style="fill:none;stroke:#722c6e;stroke-linecap:square;stroke-width:1.5;"/>
   </g>
   <g id="patch_3">
    <path d="M 69.141406 461.58 
L 69.141406 26.7 
" style="fill:none;stroke:#000000;stroke-linecap:square;stroke-linejoin:miter;stroke-width:0.8;"/>
   </g>
   <g id="patch_4">
    <path d="M 906.141406 461.58 
L 906.141406 26.7 
" style="fill:none;stroke:#000000;stroke-linecap:square;stroke-linejoin:miter;stroke-width:0.8;"/>
   </g>
   <g id="patch_5">
    <path d="M 69.141406 461.58 
L 906.141406 461.58 
" style="fill:none;stroke:#000000;stroke-linecap:square;stroke-linejoin:miter;stroke-width:0.8;"/>
   </g>
   <g id="patch_6">
    <path d="M 69.141406 26.7 
L 906.141406 26.7 
" style="fill:none;stroke:#000000;stroke-linecap:square;stroke-linejoin:miter;stroke-width:0.8;"/>
   </g>
   <g id="text_19">
    <!-- T = 61.2 K, B = 0.00336 cm$^{-1}$ sigma = 0.1953 cm$^{-1}$ -->
    <g transform="translate(290.391406 20.7)scale(0.15 -0.15)">
     <defs>
      <path d="M -19 4666 
L 3928 4666 
L 3928 4134 
L 2272 4134 
L 2272 0 
L 1638 0 
L 1638 4134 
L -19 4134 
L -19 4666 
z
" id="DejaVuSans-54" transform="scale(0.015625)"/>
      <path d="M 678 2906 
L 4684 2906 
L 4684 2381 
L 678 2381 
L 678 2906 
z
M 678 1631 
L 4684 1631 
L 4684 1100 
L 678 1100 
L 678 1631 
z
" id="DejaVuSans-3d" transform="scale(0.015625)"/>
      <path d="M 628 4666 
L 1259 4666 
L 1259 2694 
L 3353 4666 
L 4166 4666 
L 1850 2491 
L 4331 0 
L 3500 0 
L 1259 2247 
L 1259 0 
L 628 0 
L 628 4666 
z
" id="DejaVuSans-4b" transform="scale(0.015625)"/>
      <path d="M 750 794 
L 1409 794 
L 1409 256 
L 897 -744 
L 494 -744 
L 750 256 
L 750 794 
z
" id="DejaVuSans-2c" transform="scale(0.015625)"/>
      <path d="M 1259 2228 
L 1259 519 
L 2272 519 
Q 2781 519 3026 730 
Q 3272 941 3272 1375 
Q 3272 1813 3026 2020 
Q 2781 2228 2272 2228 
L 1259 2228 
z
M 1259 4147 
L 1259 2741 
L 2194 2741 
Q 2656 2741 2882 2914 
Q 3109 3088 3109 3444 
Q 3109 3797 2882 3972 
Q 2656 4147 2194 4147 
L 1259 4147 
z
M 628 4666 
L 2241 4666 
Q 2963 4666 3353 4366 
Q 3744 4066 3744 3513 
Q 3744 3084 3544 2831 
Q 3344 2578 2956 2516 
Q 3422 2416 3680 2098 
Q 3938 1781 3938 1306 
Q 3938 681 3513 340 
Q 3088 0 2303 0 
L 628 0 
L 628 4666 
z
" id="DejaVuSans-42" transform="scale(0.015625)"/>
      <path d="M 2906 1791 
Q 2906 2416 2648 2759 
Q 2391 3103 1925 3103 
Q 1463 3103 1205 2759 
Q 947 2416 947 1791 
Q 947 1169 1205 825 
Q 1463 481 1925 481 
Q 2391 481 2648 825 
Q 2906 1169 2906 1791 
z
M 3481 434 
Q 3481 -459 3084 -895 
Q 2688 -1331 1869 -1331 
Q 1566 -1331 1297 -1286 
Q 1028 -1241 775 -1147 
L 775 -588 
Q 1028 -725 1275 -790 
Q 1522 -856 1778 -856 
Q 2344 -856 2625 -561 
Q 2906 -266 2906 331 
L 2906 616 
Q 2728 306 2450 153 
Q 2172 0 1784 0 
Q 1141 0 747 490 
Q 353 981 353 1791 
Q 353 2603 747 3093 
Q 1141 3584 1784 3584 
Q 2172 3584 2450 3431 
Q 2728 3278 2906 2969 
L 2906 3500 
L 3481 3500 
L 3481 434 
z
" id="DejaVuSans-67" transform="scale(0.015625)"/>
      <path d="M 703 97 
L 703 672 
Q 941 559 1184 500 
Q 1428 441 1663 441 
Q 2288 441 2617 861 
Q 2947 1281 2994 2138 
Q 2813 1869 2534 1725 
Q 2256 1581 1919 1581 
Q 1219 1581 811 2004 
Q 403 2428 403 3163 
Q 403 3881 828 4315 
Q 1253 4750 1959 4750 
Q 2769 4750 3195 4129 
Q 3622 3509 3622 2328 
Q 3622 1225 3098 567 
Q 2575 -91 1691 -91 
Q 1453 -91 1209 -44 
Q 966 3 703 97 
z
M 1959 2075 
Q 2384 2075 2632 2365 
Q 2881 2656 2881 3163 
Q 2881 3666 2632 3958 
Q 2384 4250 1959 4250 
Q 1534 4250 1286 3958 
Q 1038 3666 1038 3163 
Q 1038 2656 1286 2365 
Q 1534 2075 1959 2075 
z
" id="DejaVuSans-39" transform="scale(0.015625)"/>
     </defs>
     <use transform="translate(0 0.684375)" xlink:href="#DejaVuSans-54"/>
     <use transform="translate(61.083984 0.684375)" xlink:href="#DejaVuSans-20"/>
     <use transform="translate(92.871094 0.684375)" xlink:href="#DejaVuSans-3d"/>
     <use transform="translate(176.660156 0.684375)" xlink:href="#DejaVuSans-20"/>
     <use transform="translate(208.447266 0.684375)" xlink:href="#DejaVuSans-36"/>
     <use transform="translate(272.070312 0.684375)" xlink:href="#DejaVuSans-31"/>
     <use transform="translate(335.693359 0.684375)" xlink:href="#DejaVuSans-2e"/>
     <use transform="translate(361.980469 0.684375)" xlink:href="#DejaVuSans-32"/>
     <use transform="translate(425.603516 0.684375)" xlink:href="#DejaVuSans-20"/>
     <use transform="translate(457.390625 0.684375)" xlink:href="#DejaVuSans-4b"/>
     <use transform="translate(522.966797 0.684375)" xlink:href="#DejaVuSans-2c"/>
     <use transform="translate(554.753906 0.684375)" xlink:href="#DejaVuSans-20"/>
     <use transform="translate(586.541016 0.684375)" xlink:href="#DejaVuSans-42"/>
     <use transform="translate(655.144531 0.684375)" xlink:href="#DejaVuSans-20"/>
     <use transform="translate(686.931641 0.684375)" xlink:href="#DejaVuSans-3d"/>
     <use transform="translate(770.720703 0.684375)" xlink:href="#DejaVuSans-20"/>
     <use transform="translate(802.507812 0.684375)" xlink:href="#DejaVuSans-30"/>
     <use transform="translate(866.130859 0.684375)" xlink:href="#DejaVuSans-2e"/>
     <use transform="translate(897.917969 0.684375)" xlink:href="#DejaVuSans-30"/>
     <use transform="translate(961.541016 0.684375)" xlink:href="#DejaVuSans-30"/>
     <use transform="translate(1025.164062 0.684375)" xlink:href="#DejaVuSans-33"/>
     <use transform="translate(1088.787109 0.684375)" xlink:href="#DejaVuSans-33"/>
     <use transform="translate(1152.410156 0.684375)" xlink:href="#DejaVuSans-36"/>
     <use transform="translate(1216.033203 0.684375)" xlink:href="#DejaVuSans-20"/>
     <use transform="translate(1247.820312 0.684375)" xlink:href="#DejaVuSans-63"/>
     <use transform="translate(1302.800781 0.684375)" xlink:href="#DejaVuSans-6d"/>
     <use transform="translate(1401.169922 38.965625)scale(0.7)" xlink:href="#DejaVuSans-2212"/>
     <use transform="translate(1459.822266 38.965625)scale(0.7)" xlink:href="#DejaVuSans-31"/>
     <use transform="translate(1507.092773 0.684375)" xlink:href="#DejaVuSans-20"/>
     <use transform="translate(1538.879883 0.684375)" xlink:href="#DejaVuSans-73"/>
     <use transform="translate(1590.979492 0.684375)" xlink:href="#DejaVuSans-69"/>
     <use transform="translate(1618.762695 0.684375)" xlink:href="#DejaVuSans-67"/>
     <use transform="translate(1682.239258 0.684375)" xlink:href="#DejaVuSans-6d"/>
     <use transform="translate(1779.651367 0.684375)" xlink:href="#DejaVuSans-61"/>
     <use transform="translate(1840.930664 0.684375)" xlink:href="#DejaVuSans-20"/>
     <use transform="translate(1872.717773 0.684375)" xlink:href="#DejaVuSans-3d"/>
     <use transform="translate(1956.506836 0.684375)" xlink:href="#DejaVuSans-20"/>
     <use transform="translate(1988.293945 0.684375)" xlink:href="#DejaVuSans-30"/>
     <use transform="translate(2051.916992 0.684375)" xlink:href="#DejaVuSans-2e"/>
     <use transform="translate(2083.704102 0.684375)" xlink:href="#DejaVuSans-31"/>
     <use transform="translate(2147.327148 0.684375)" xlink:href="#DejaVuSans-39"/>
     <use transform="translate(2210.950195 0.684375)" xlink:href="#DejaVuSans-35"/>
     <use transform="translate(2274.573242 0.684375)" xlink:href="#DejaVuSans-33"/>
     <use transform="translate(2338.196289 0.684375)" xlink:href="#DejaVuSans-20"/>
     <use transform="translate(2369.983398 0.684375)" xlink:href="#DejaVuSans-63"/>
     <use transform="translate(2424.963867 0.684375)" xlink:href="#DejaVuSans-6d"/>
     <use transform="translate(2523.333008 38.965625)scale(0.7)" xlink:href="#DejaVuSans-2212"/>
     <use transform="translate(2581.985352 38.965625)scale(0.7)" xlink:href="#DejaVuSans-31"/>
    </g>
   </g>
   <g id="legend_1">
    <g id="patch_7">
     <path d="M 79.641406 454.08 
L 166.451563 454.08 
Q 169.451563 454.08 169.451563 451.08 
L 169.451563 325.315937 
Q 169.451563 322.315937 166.451563 322.315937 
L 79.641406 322.315937 
Q 76.641406 322.315937 76.641406 325.315937 
L 76.641406 451.08 
Q 76.641406 454.08 79.641406 454.08 
z
" style="fill:#ffffff;opacity:0.8;stroke:#cccccc;stroke-linejoin:miter;"/>
    </g>
    <g id="text_20">
     <!-- zeta -->
     <g transform="translate(112.321484 335.914375)scale(0.1 -0.1)">
      <use xlink:href="#DejaVuSans-7a"/>
      <use x="52.490234" xlink:href="#DejaVuSans-65"/>
      <use x="114.013672" xlink:href="#DejaVuSans-74"/>
      <use x="153.222656" xlink:href="#DejaVuSans-61"/>
     </g>
    </g>
    <g id="line2d_21">
     <path d="M 82.641406 351.641719 
L 112.641406 351.641719 
" style="fill:none;stroke:#e98768;stroke-linecap:square;stroke-width:1.5;"/>
    </g>
    <g id="line2d_22"/>
    <g id="text_21">
     <!-- -0.35 -->
     <g transform="translate(124.641406 356.891719)scale(0.15 -0.15)">
      <defs>
       <path d="M 313 2009 
L 1997 2009 
L 1997 1497 
L 313 1497 
L 313 2009 
z
" id="DejaVuSans-2d" transform="scale(0.015625)"/>
      </defs>
      <use xlink:href="#DejaVuSans-2d"/>
      <use x="36.083984" xlink:href="#DejaVuSans-30"/>
      <use x="99.707031" xlink:href="#DejaVuSans-2e"/>
      <use x="131.494141" xlink:href="#DejaVuSans-33"/>
      <use x="195.117188" xlink:href="#DejaVuSans-35"/>
     </g>
    </g>
    <g id="line2d_23">
     <path d="M 82.641406 373.658906 
L 112.641406 373.658906 
" style="fill:none;stroke:#de5d5c;stroke-linecap:square;stroke-width:1.5;"/>
    </g>
    <g id="line2d_24"/>
    <g id="text_22">
     <!-- -0.4 -->
     <g transform="translate(124.641406 378.908906)scale(0.15 -0.15)">
      <use xlink:href="#DejaVuSans-2d"/>
      <use x="36.083984" xlink:href="#DejaVuSans-30"/>
      <use x="99.707031" xlink:href="#DejaVuSans-2e"/>
      <use x="131.494141" xlink:href="#DejaVuSans-34"/>
     </g>
    </g>
    <g id="line2d_25">
     <path d="M 82.641406 395.676094 
L 112.641406 395.676094 
" style="fill:none;stroke:#c14168;stroke-linecap:square;stroke-width:1.5;"/>
    </g>
    <g id="line2d_26"/>
    <g id="text_23">
     <!-- -0.45 -->
     <g transform="translate(124.641406 400.926094)scale(0.15 -0.15)">
      <use xlink:href="#DejaVuSans-2d"/>
      <use x="36.083984" xlink:href="#DejaVuSans-30"/>
      <use x="99.707031" xlink:href="#DejaVuSans-2e"/>
      <use x="131.494141" xlink:href="#DejaVuSans-34"/>
      <use x="195.117188" xlink:href="#DejaVuSans-35"/>
     </g>
    </g>
    <g id="line2d_27">
     <path d="M 82.641406 417.693281 
L 112.641406 417.693281 
" style="fill:none;stroke:#9a3670;stroke-linecap:square;stroke-width:1.5;"/>
    </g>
    <g id="line2d_28"/>
    <g id="text_24">
     <!-- -0.5 -->
     <g transform="translate(124.641406 422.943281)scale(0.15 -0.15)">
      <use xlink:href="#DejaVuSans-2d"/>
      <use x="36.083984" xlink:href="#DejaVuSans-30"/>
      <use x="99.707031" xlink:href="#DejaVuSans-2e"/>
      <use x="131.494141" xlink:href="#DejaVuSans-35"/>
     </g>
    </g>
    <g id="line2d_29">
     <path d="M 82.641406 439.710469 
L 112.641406 439.710469 
" style="fill:none;stroke:#722c6e;stroke-linecap:square;stroke-width:1.5;"/>
    </g>
    <g id="line2d_30"/>
    <g id="text_25">
     <!-- -0.55 -->
     <g transform="translate(124.641406 444.960469)scale(0.15 -0.15)">
      <use xlink:href="#DejaVuSans-2d"/>
      <use x="36.083984" xlink:href="#DejaVuSans-30"/>
      <use x="99.707031" xlink:href="#DejaVuSans-2e"/>
      <use x="131.494141" xlink:href="#DejaVuSans-35"/>
      <use x="195.117188" xlink:href="#DejaVuSans-35"/>
     </g>
    </g>
   </g>
  </g>
 </g>
 <defs>
  <clipPath id="p0817f836dd">
   <rect height="434.88" width="837" x="69.141406" y="26.7"/>
  </clipPath>
 </defs>
</svg>
