<?xml version="1.0" encoding="utf-8" standalone="no"?>
<!DOCTYPE svg PUBLIC "-//W3C//DTD SVG 1.1//EN"
  "http://www.w3.org/Graphics/SVG/1.1/DTD/svg11.dtd">
<svg height="509.897187pt" version="1.1" viewBox="0 0 899.030469 509.897187" width="899.030469pt" xmlns="http://www.w3.org/2000/svg" xmlns:xlink="http://www.w3.org/1999/xlink">
 <metadata>
  <rdf:RDF xmlns:cc="http://creativecommons.org/ns#" xmlns:dc="http://purl.org/dc/elements/1.1/" xmlns:rdf="http://www.w3.org/1999/02/22-rdf-syntax-ns#">
   <cc:Work>
    <dc:type rdf:resource="http://purl.org/dc/dcmitype/StillImage"/>
    <dc:date>2023-01-10T21:11:27.299640</dc:date>
    <dc:format>image/svg+xml</dc:format>
    <dc:creator>
     <cc:Agent>
      <dc:title>Matplotlib v3.4.3, https://matplotlib.org/</dc:title>
     </cc:Agent>
    </dc:creator>
   </cc:Work>
  </rdf:RDF>
 </metadata>
 <defs>
  <style type="text/css">*{stroke-linecap:butt;stroke-linejoin:round;}</style>
 </defs>
 <g id="figure_1">
  <g id="patch_1">
   <path d="M 0 509.897187 
L 899.030469 509.897187 
L 899.030469 0 
L 0 0 
z
" style="fill:#ffffff;"/>
  </g>
  <g id="axes_1">
   <g id="patch_2">
    <path d="M 54.830469 461.58 
L 891.830469 461.58 
L 891.830469 26.7 
L 54.830469 26.7 
z
" style="fill:#ffffff;"/>
   </g>
   <g id="matplotlib.axis_1">
    <g id="xtick_1">
     <g id="line2d_1">
      <defs>
       <path d="M 0 0 
L 0 3.5 
" id="m9b4714058c" style="stroke:#000000;stroke-width:0.8;"/>
      </defs>
      <g>
       <use style="stroke:#000000;stroke-width:0.8;" x="100.788895" xlink:href="#m9b4714058c" y="461.58"/>
      </g>
     </g>
     <g id="text_1">
      <!-- −4 -->
      <g transform="translate(89.732254 479.977656)scale(0.15 -0.15)">
       <defs>
        <path d="M 678 2272 
L 4684 2272 
L 4684 1741 
L 678 1741 
L 678 2272 
z
" id="DejaVuSans-2212" transform="scale(0.015625)"/>
        <path d="M 2419 4116 
L 825 1625 
L 2419 1625 
L 2419 4116 
z
M 2253 4666 
L 3047 4666 
L 3047 1625 
L 3713 1625 
L 3713 1100 
L 3047 1100 
L 3047 0 
L 2419 0 
L 2419 1100 
L 313 1100 
L 313 1709 
L 2253 4666 
z
" id="DejaVuSans-34" transform="scale(0.015625)"/>
       </defs>
       <use xlink:href="#DejaVuSans-2212"/>
       <use x="83.789062" xlink:href="#DejaVuSans-34"/>
      </g>
     </g>
    </g>
    <g id="xtick_2">
     <g id="line2d_2">
      <g>
       <use style="stroke:#000000;stroke-width:0.8;" x="214.802047" xlink:href="#m9b4714058c" y="461.58"/>
      </g>
     </g>
     <g id="text_2">
      <!-- −3 -->
      <g transform="translate(203.745407 479.977656)scale(0.15 -0.15)">
       <defs>
        <path d="M 2597 2516 
Q 3050 2419 3304 2112 
Q 3559 1806 3559 1356 
Q 3559 666 3084 287 
Q 2609 -91 1734 -91 
Q 1441 -91 1130 -33 
Q 819 25 488 141 
L 488 750 
Q 750 597 1062 519 
Q 1375 441 1716 441 
Q 2309 441 2620 675 
Q 2931 909 2931 1356 
Q 2931 1769 2642 2001 
Q 2353 2234 1838 2234 
L 1294 2234 
L 1294 2753 
L 1863 2753 
Q 2328 2753 2575 2939 
Q 2822 3125 2822 3475 
Q 2822 3834 2567 4026 
Q 2313 4219 1838 4219 
Q 1578 4219 1281 4162 
Q 984 4106 628 3988 
L 628 4550 
Q 988 4650 1302 4700 
Q 1616 4750 1894 4750 
Q 2613 4750 3031 4423 
Q 3450 4097 3450 3541 
Q 3450 3153 3228 2886 
Q 3006 2619 2597 2516 
z
" id="DejaVuSans-33" transform="scale(0.015625)"/>
       </defs>
       <use xlink:href="#DejaVuSans-2212"/>
       <use x="83.789062" xlink:href="#DejaVuSans-33"/>
      </g>
     </g>
    </g>
    <g id="xtick_3">
     <g id="line2d_3">
      <g>
       <use style="stroke:#000000;stroke-width:0.8;" x="328.815199" xlink:href="#m9b4714058c" y="461.58"/>
      </g>
     </g>
     <g id="text_3">
      <!-- −2 -->
      <g transform="translate(317.758559 479.977656)scale(0.15 -0.15)">
       <defs>
        <path d="M 1228 531 
L 3431 531 
L 3431 0 
L 469 0 
L 469 531 
Q 828 903 1448 1529 
Q 2069 2156 2228 2338 
Q 2531 2678 2651 2914 
Q 2772 3150 2772 3378 
Q 2772 3750 2511 3984 
Q 2250 4219 1831 4219 
Q 1534 4219 1204 4116 
Q 875 4013 500 3803 
L 500 4441 
Q 881 4594 1212 4672 
Q 1544 4750 1819 4750 
Q 2544 4750 2975 4387 
Q 3406 4025 3406 3419 
Q 3406 3131 3298 2873 
Q 3191 2616 2906 2266 
Q 2828 2175 2409 1742 
Q 1991 1309 1228 531 
z
" id="DejaVuSans-32" transform="scale(0.015625)"/>
       </defs>
       <use xlink:href="#DejaVuSans-2212"/>
       <use x="83.789062" xlink:href="#DejaVuSans-32"/>
      </g>
     </g>
    </g>
    <g id="xtick_4">
     <g id="line2d_4">
      <g>
       <use style="stroke:#000000;stroke-width:0.8;" x="442.828351" xlink:href="#m9b4714058c" y="461.58"/>
      </g>
     </g>
     <g id="text_4">
      <!-- −1 -->
      <g transform="translate(431.771711 479.977656)scale(0.15 -0.15)">
       <defs>
        <path d="M 794 531 
L 1825 531 
L 1825 4091 
L 703 3866 
L 703 4441 
L 1819 4666 
L 2450 4666 
L 2450 531 
L 3481 531 
L 3481 0 
L 794 0 
L 794 531 
z
" id="DejaVuSans-31" transform="scale(0.015625)"/>
       </defs>
       <use xlink:href="#DejaVuSans-2212"/>
       <use x="83.789062" xlink:href="#DejaVuSans-31"/>
      </g>
     </g>
    </g>
    <g id="xtick_5">
     <g id="line2d_5">
      <g>
       <use style="stroke:#000000;stroke-width:0.8;" x="556.841504" xlink:href="#m9b4714058c" y="461.58"/>
      </g>
     </g>
     <g id="text_5">
      <!-- 0 -->
      <g transform="translate(552.069629 479.977656)scale(0.15 -0.15)">
       <defs>
        <path d="M 2034 4250 
Q 1547 4250 1301 3770 
Q 1056 3291 1056 2328 
Q 1056 1369 1301 889 
Q 1547 409 2034 409 
Q 2525 409 2770 889 
Q 3016 1369 3016 2328 
Q 3016 3291 2770 3770 
Q 2525 4250 2034 4250 
z
M 2034 4750 
Q 2819 4750 3233 4129 
Q 3647 3509 3647 2328 
Q 3647 1150 3233 529 
Q 2819 -91 2034 -91 
Q 1250 -91 836 529 
Q 422 1150 422 2328 
Q 422 3509 836 4129 
Q 1250 4750 2034 4750 
z
" id="DejaVuSans-30" transform="scale(0.015625)"/>
       </defs>
       <use xlink:href="#DejaVuSans-30"/>
      </g>
     </g>
    </g>
    <g id="xtick_6">
     <g id="line2d_6">
      <g>
       <use style="stroke:#000000;stroke-width:0.8;" x="670.854656" xlink:href="#m9b4714058c" y="461.58"/>
      </g>
     </g>
     <g id="text_6">
      <!-- 1 -->
      <g transform="translate(666.082781 479.977656)scale(0.15 -0.15)">
       <use xlink:href="#DejaVuSans-31"/>
      </g>
     </g>
    </g>
    <g id="xtick_7">
     <g id="line2d_7">
      <g>
       <use style="stroke:#000000;stroke-width:0.8;" x="784.867808" xlink:href="#m9b4714058c" y="461.58"/>
      </g>
     </g>
     <g id="text_7">
      <!-- 2 -->
      <g transform="translate(780.095933 479.977656)scale(0.15 -0.15)">
       <use xlink:href="#DejaVuSans-32"/>
      </g>
     </g>
    </g>
    <g id="text_8">
     <!-- Wavenumber (in cm$^{-1}$) -->
     <g transform="translate(386.030469 499.577656)scale(0.15 -0.15)">
      <defs>
       <path d="M 213 4666 
L 850 4666 
L 1831 722 
L 2809 4666 
L 3519 4666 
L 4500 722 
L 5478 4666 
L 6119 4666 
L 4947 0 
L 4153 0 
L 3169 4050 
L 2175 0 
L 1381 0 
L 213 4666 
z
" id="DejaVuSans-57" transform="scale(0.015625)"/>
       <path d="M 2194 1759 
Q 1497 1759 1228 1600 
Q 959 1441 959 1056 
Q 959 750 1161 570 
Q 1363 391 1709 391 
Q 2188 391 2477 730 
Q 2766 1069 2766 1631 
L 2766 1759 
L 2194 1759 
z
M 3341 1997 
L 3341 0 
L 2766 0 
L 2766 531 
Q 2569 213 2275 61 
Q 1981 -91 1556 -91 
Q 1019 -91 701 211 
Q 384 513 384 1019 
Q 384 1609 779 1909 
Q 1175 2209 1959 2209 
L 2766 2209 
L 2766 2266 
Q 2766 2663 2505 2880 
Q 2244 3097 1772 3097 
Q 1472 3097 1187 3025 
Q 903 2953 641 2809 
L 641 3341 
Q 956 3463 1253 3523 
Q 1550 3584 1831 3584 
Q 2591 3584 2966 3190 
Q 3341 2797 3341 1997 
z
" id="DejaVuSans-61" transform="scale(0.015625)"/>
       <path d="M 191 3500 
L 800 3500 
L 1894 563 
L 2988 3500 
L 3597 3500 
L 2284 0 
L 1503 0 
L 191 3500 
z
" id="DejaVuSans-76" transform="scale(0.015625)"/>
       <path d="M 3597 1894 
L 3597 1613 
L 953 1613 
Q 991 1019 1311 708 
Q 1631 397 2203 397 
Q 2534 397 2845 478 
Q 3156 559 3463 722 
L 3463 178 
Q 3153 47 2828 -22 
Q 2503 -91 2169 -91 
Q 1331 -91 842 396 
Q 353 884 353 1716 
Q 353 2575 817 3079 
Q 1281 3584 2069 3584 
Q 2775 3584 3186 3129 
Q 3597 2675 3597 1894 
z
M 3022 2063 
Q 3016 2534 2758 2815 
Q 2500 3097 2075 3097 
Q 1594 3097 1305 2825 
Q 1016 2553 972 2059 
L 3022 2063 
z
" id="DejaVuSans-65" transform="scale(0.015625)"/>
       <path d="M 3513 2113 
L 3513 0 
L 2938 0 
L 2938 2094 
Q 2938 2591 2744 2837 
Q 2550 3084 2163 3084 
Q 1697 3084 1428 2787 
Q 1159 2491 1159 1978 
L 1159 0 
L 581 0 
L 581 3500 
L 1159 3500 
L 1159 2956 
Q 1366 3272 1645 3428 
Q 1925 3584 2291 3584 
Q 2894 3584 3203 3211 
Q 3513 2838 3513 2113 
z
" id="DejaVuSans-6e" transform="scale(0.015625)"/>
       <path d="M 544 1381 
L 544 3500 
L 1119 3500 
L 1119 1403 
Q 1119 906 1312 657 
Q 1506 409 1894 409 
Q 2359 409 2629 706 
Q 2900 1003 2900 1516 
L 2900 3500 
L 3475 3500 
L 3475 0 
L 2900 0 
L 2900 538 
Q 2691 219 2414 64 
Q 2138 -91 1772 -91 
Q 1169 -91 856 284 
Q 544 659 544 1381 
z
M 1991 3584 
L 1991 3584 
z
" id="DejaVuSans-75" transform="scale(0.015625)"/>
       <path d="M 3328 2828 
Q 3544 3216 3844 3400 
Q 4144 3584 4550 3584 
Q 5097 3584 5394 3201 
Q 5691 2819 5691 2113 
L 5691 0 
L 5113 0 
L 5113 2094 
Q 5113 2597 4934 2840 
Q 4756 3084 4391 3084 
Q 3944 3084 3684 2787 
Q 3425 2491 3425 1978 
L 3425 0 
L 2847 0 
L 2847 2094 
Q 2847 2600 2669 2842 
Q 2491 3084 2119 3084 
Q 1678 3084 1418 2786 
Q 1159 2488 1159 1978 
L 1159 0 
L 581 0 
L 581 3500 
L 1159 3500 
L 1159 2956 
Q 1356 3278 1631 3431 
Q 1906 3584 2284 3584 
Q 2666 3584 2933 3390 
Q 3200 3197 3328 2828 
z
" id="DejaVuSans-6d" transform="scale(0.015625)"/>
       <path d="M 3116 1747 
Q 3116 2381 2855 2742 
Q 2594 3103 2138 3103 
Q 1681 3103 1420 2742 
Q 1159 2381 1159 1747 
Q 1159 1113 1420 752 
Q 1681 391 2138 391 
Q 2594 391 2855 752 
Q 3116 1113 3116 1747 
z
M 1159 2969 
Q 1341 3281 1617 3432 
Q 1894 3584 2278 3584 
Q 2916 3584 3314 3078 
Q 3713 2572 3713 1747 
Q 3713 922 3314 415 
Q 2916 -91 2278 -91 
Q 1894 -91 1617 61 
Q 1341 213 1159 525 
L 1159 0 
L 581 0 
L 581 4863 
L 1159 4863 
L 1159 2969 
z
" id="DejaVuSans-62" transform="scale(0.015625)"/>
       <path d="M 2631 2963 
Q 2534 3019 2420 3045 
Q 2306 3072 2169 3072 
Q 1681 3072 1420 2755 
Q 1159 2438 1159 1844 
L 1159 0 
L 581 0 
L 581 3500 
L 1159 3500 
L 1159 2956 
Q 1341 3275 1631 3429 
Q 1922 3584 2338 3584 
Q 2397 3584 2469 3576 
Q 2541 3569 2628 3553 
L 2631 2963 
z
" id="DejaVuSans-72" transform="scale(0.015625)"/>
       <path id="DejaVuSans-20" transform="scale(0.015625)"/>
       <path d="M 1984 4856 
Q 1566 4138 1362 3434 
Q 1159 2731 1159 2009 
Q 1159 1288 1364 580 
Q 1569 -128 1984 -844 
L 1484 -844 
Q 1016 -109 783 600 
Q 550 1309 550 2009 
Q 550 2706 781 3412 
Q 1013 4119 1484 4856 
L 1984 4856 
z
" id="DejaVuSans-28" transform="scale(0.015625)"/>
       <path d="M 603 3500 
L 1178 3500 
L 1178 0 
L 603 0 
L 603 3500 
z
M 603 4863 
L 1178 4863 
L 1178 4134 
L 603 4134 
L 603 4863 
z
" id="DejaVuSans-69" transform="scale(0.015625)"/>
       <path d="M 3122 3366 
L 3122 2828 
Q 2878 2963 2633 3030 
Q 2388 3097 2138 3097 
Q 1578 3097 1268 2742 
Q 959 2388 959 1747 
Q 959 1106 1268 751 
Q 1578 397 2138 397 
Q 2388 397 2633 464 
Q 2878 531 3122 666 
L 3122 134 
Q 2881 22 2623 -34 
Q 2366 -91 2075 -91 
Q 1284 -91 818 406 
Q 353 903 353 1747 
Q 353 2603 823 3093 
Q 1294 3584 2113 3584 
Q 2378 3584 2631 3529 
Q 2884 3475 3122 3366 
z
" id="DejaVuSans-63" transform="scale(0.015625)"/>
       <path d="M 513 4856 
L 1013 4856 
Q 1481 4119 1714 3412 
Q 1947 2706 1947 2009 
Q 1947 1309 1714 600 
Q 1481 -109 1013 -844 
L 513 -844 
Q 928 -128 1133 580 
Q 1338 1288 1338 2009 
Q 1338 2731 1133 3434 
Q 928 4138 513 4856 
z
" id="DejaVuSans-29" transform="scale(0.015625)"/>
      </defs>
      <use transform="translate(0 0.684375)" xlink:href="#DejaVuSans-57"/>
      <use transform="translate(98.876953 0.684375)" xlink:href="#DejaVuSans-61"/>
      <use transform="translate(160.15625 0.684375)" xlink:href="#DejaVuSans-76"/>
      <use transform="translate(219.335938 0.684375)" xlink:href="#DejaVuSans-65"/>
      <use transform="translate(280.859375 0.684375)" xlink:href="#DejaVuSans-6e"/>
      <use transform="translate(344.238281 0.684375)" xlink:href="#DejaVuSans-75"/>
      <use transform="translate(407.617188 0.684375)" xlink:href="#DejaVuSans-6d"/>
      <use transform="translate(505.029297 0.684375)" xlink:href="#DejaVuSans-62"/>
      <use transform="translate(568.505859 0.684375)" xlink:href="#DejaVuSans-65"/>
      <use transform="translate(630.029297 0.684375)" xlink:href="#DejaVuSans-72"/>
      <use transform="translate(671.142578 0.684375)" xlink:href="#DejaVuSans-20"/>
      <use transform="translate(702.929688 0.684375)" xlink:href="#DejaVuSans-28"/>
      <use transform="translate(741.943359 0.684375)" xlink:href="#DejaVuSans-69"/>
      <use transform="translate(769.726562 0.684375)" xlink:href="#DejaVuSans-6e"/>
      <use transform="translate(833.105469 0.684375)" xlink:href="#DejaVuSans-20"/>
      <use transform="translate(864.892578 0.684375)" xlink:href="#DejaVuSans-63"/>
      <use transform="translate(919.873047 0.684375)" xlink:href="#DejaVuSans-6d"/>
      <use transform="translate(1018.242188 38.965625)scale(0.7)" xlink:href="#DejaVuSans-2212"/>
      <use transform="translate(1076.894531 38.965625)scale(0.7)" xlink:href="#DejaVuSans-31"/>
      <use transform="translate(1124.165039 0.684375)" xlink:href="#DejaVuSans-29"/>
     </g>
    </g>
   </g>
   <g id="matplotlib.axis_2">
    <g id="ytick_1">
     <g id="line2d_8">
      <defs>
       <path d="M 0 0 
L -3.5 0 
" id="m7877b697ec" style="stroke:#000000;stroke-width:0.8;"/>
      </defs>
      <g>
       <use style="stroke:#000000;stroke-width:0.8;" x="54.830469" xlink:href="#m7877b697ec" y="387.873569"/>
      </g>
     </g>
     <g id="text_9">
      <!-- −4 -->
      <g transform="translate(25.717188 393.572397)scale(0.15 -0.15)">
       <use xlink:href="#DejaVuSans-2212"/>
       <use x="83.789062" xlink:href="#DejaVuSans-34"/>
      </g>
     </g>
    </g>
    <g id="ytick_2">
     <g id="line2d_9">
      <g>
       <use style="stroke:#000000;stroke-width:0.8;" x="54.830469" xlink:href="#m7877b697ec" y="302.51355"/>
      </g>
     </g>
     <g id="text_10">
      <!-- −3 -->
      <g transform="translate(25.717188 308.212378)scale(0.15 -0.15)">
       <use xlink:href="#DejaVuSans-2212"/>
       <use x="83.789062" xlink:href="#DejaVuSans-33"/>
      </g>
     </g>
    </g>
    <g id="ytick_3">
     <g id="line2d_10">
      <g>
       <use style="stroke:#000000;stroke-width:0.8;" x="54.830469" xlink:href="#m7877b697ec" y="217.153531"/>
      </g>
     </g>
     <g id="text_11">
      <!-- −2 -->
      <g transform="translate(25.717188 222.852359)scale(0.15 -0.15)">
       <use xlink:href="#DejaVuSans-2212"/>
       <use x="83.789062" xlink:href="#DejaVuSans-32"/>
      </g>
     </g>
    </g>
    <g id="ytick_4">
     <g id="line2d_11">
      <g>
       <use style="stroke:#000000;stroke-width:0.8;" x="54.830469" xlink:href="#m7877b697ec" y="131.793512"/>
      </g>
     </g>
     <g id="text_12">
      <!-- −1 -->
      <g transform="translate(25.717188 137.49234)scale(0.15 -0.15)">
       <use xlink:href="#DejaVuSans-2212"/>
       <use x="83.789062" xlink:href="#DejaVuSans-31"/>
      </g>
     </g>
    </g>
    <g id="ytick_5">
     <g id="line2d_12">
      <g>
       <use style="stroke:#000000;stroke-width:0.8;" x="54.830469" xlink:href="#m7877b697ec" y="46.433493"/>
      </g>
     </g>
     <g id="text_13">
      <!-- 0 -->
      <g transform="translate(38.286719 52.132321)scale(0.15 -0.15)">
       <use xlink:href="#DejaVuSans-30"/>
      </g>
     </g>
    </g>
    <g id="text_14">
     <!-- Normalized Intensity -->
     <g transform="translate(18.597656 321.700547)rotate(-90)scale(0.15 -0.15)">
      <defs>
       <path d="M 628 4666 
L 1478 4666 
L 3547 763 
L 3547 4666 
L 4159 4666 
L 4159 0 
L 3309 0 
L 1241 3903 
L 1241 0 
L 628 0 
L 628 4666 
z
" id="DejaVuSans-4e" transform="scale(0.015625)"/>
       <path d="M 1959 3097 
Q 1497 3097 1228 2736 
Q 959 2375 959 1747 
Q 959 1119 1226 758 
Q 1494 397 1959 397 
Q 2419 397 2687 759 
Q 2956 1122 2956 1747 
Q 2956 2369 2687 2733 
Q 2419 3097 1959 3097 
z
M 1959 3584 
Q 2709 3584 3137 3096 
Q 3566 2609 3566 1747 
Q 3566 888 3137 398 
Q 2709 -91 1959 -91 
Q 1206 -91 779 398 
Q 353 888 353 1747 
Q 353 2609 779 3096 
Q 1206 3584 1959 3584 
z
" id="DejaVuSans-6f" transform="scale(0.015625)"/>
       <path d="M 603 4863 
L 1178 4863 
L 1178 0 
L 603 0 
L 603 4863 
z
" id="DejaVuSans-6c" transform="scale(0.015625)"/>
       <path d="M 353 3500 
L 3084 3500 
L 3084 2975 
L 922 459 
L 3084 459 
L 3084 0 
L 275 0 
L 275 525 
L 2438 3041 
L 353 3041 
L 353 3500 
z
" id="DejaVuSans-7a" transform="scale(0.015625)"/>
       <path d="M 2906 2969 
L 2906 4863 
L 3481 4863 
L 3481 0 
L 2906 0 
L 2906 525 
Q 2725 213 2448 61 
Q 2172 -91 1784 -91 
Q 1150 -91 751 415 
Q 353 922 353 1747 
Q 353 2572 751 3078 
Q 1150 3584 1784 3584 
Q 2172 3584 2448 3432 
Q 2725 3281 2906 2969 
z
M 947 1747 
Q 947 1113 1208 752 
Q 1469 391 1925 391 
Q 2381 391 2643 752 
Q 2906 1113 2906 1747 
Q 2906 2381 2643 2742 
Q 2381 3103 1925 3103 
Q 1469 3103 1208 2742 
Q 947 2381 947 1747 
z
" id="DejaVuSans-64" transform="scale(0.015625)"/>
       <path d="M 628 4666 
L 1259 4666 
L 1259 0 
L 628 0 
L 628 4666 
z
" id="DejaVuSans-49" transform="scale(0.015625)"/>
       <path d="M 1172 4494 
L 1172 3500 
L 2356 3500 
L 2356 3053 
L 1172 3053 
L 1172 1153 
Q 1172 725 1289 603 
Q 1406 481 1766 481 
L 2356 481 
L 2356 0 
L 1766 0 
Q 1100 0 847 248 
Q 594 497 594 1153 
L 594 3053 
L 172 3053 
L 172 3500 
L 594 3500 
L 594 4494 
L 1172 4494 
z
" id="DejaVuSans-74" transform="scale(0.015625)"/>
       <path d="M 2834 3397 
L 2834 2853 
Q 2591 2978 2328 3040 
Q 2066 3103 1784 3103 
Q 1356 3103 1142 2972 
Q 928 2841 928 2578 
Q 928 2378 1081 2264 
Q 1234 2150 1697 2047 
L 1894 2003 
Q 2506 1872 2764 1633 
Q 3022 1394 3022 966 
Q 3022 478 2636 193 
Q 2250 -91 1575 -91 
Q 1294 -91 989 -36 
Q 684 19 347 128 
L 347 722 
Q 666 556 975 473 
Q 1284 391 1588 391 
Q 1994 391 2212 530 
Q 2431 669 2431 922 
Q 2431 1156 2273 1281 
Q 2116 1406 1581 1522 
L 1381 1569 
Q 847 1681 609 1914 
Q 372 2147 372 2553 
Q 372 3047 722 3315 
Q 1072 3584 1716 3584 
Q 2034 3584 2315 3537 
Q 2597 3491 2834 3397 
z
" id="DejaVuSans-73" transform="scale(0.015625)"/>
       <path d="M 2059 -325 
Q 1816 -950 1584 -1140 
Q 1353 -1331 966 -1331 
L 506 -1331 
L 506 -850 
L 844 -850 
Q 1081 -850 1212 -737 
Q 1344 -625 1503 -206 
L 1606 56 
L 191 3500 
L 800 3500 
L 1894 763 
L 2988 3500 
L 3597 3500 
L 2059 -325 
z
" id="DejaVuSans-79" transform="scale(0.015625)"/>
      </defs>
      <use xlink:href="#DejaVuSans-4e"/>
      <use x="74.804688" xlink:href="#DejaVuSans-6f"/>
      <use x="135.986328" xlink:href="#DejaVuSans-72"/>
      <use x="175.349609" xlink:href="#DejaVuSans-6d"/>
      <use x="272.761719" xlink:href="#DejaVuSans-61"/>
      <use x="334.041016" xlink:href="#DejaVuSans-6c"/>
      <use x="361.824219" xlink:href="#DejaVuSans-69"/>
      <use x="389.607422" xlink:href="#DejaVuSans-7a"/>
      <use x="442.097656" xlink:href="#DejaVuSans-65"/>
      <use x="503.621094" xlink:href="#DejaVuSans-64"/>
      <use x="567.097656" xlink:href="#DejaVuSans-20"/>
      <use x="598.884766" xlink:href="#DejaVuSans-49"/>
      <use x="628.376953" xlink:href="#DejaVuSans-6e"/>
      <use x="691.755859" xlink:href="#DejaVuSans-74"/>
      <use x="730.964844" xlink:href="#DejaVuSans-65"/>
      <use x="792.488281" xlink:href="#DejaVuSans-6e"/>
      <use x="855.867188" xlink:href="#DejaVuSans-73"/>
      <use x="907.966797" xlink:href="#DejaVuSans-69"/>
      <use x="935.75" xlink:href="#DejaVuSans-74"/>
      <use x="974.958984" xlink:href="#DejaVuSans-79"/>
     </g>
    </g>
    <g id="text_15">
     <!-- 1e6 -->
     <g transform="translate(54.830469 23.7)scale(0.1 -0.1)">
      <defs>
       <path d="M 2113 2584 
Q 1688 2584 1439 2293 
Q 1191 2003 1191 1497 
Q 1191 994 1439 701 
Q 1688 409 2113 409 
Q 2538 409 2786 701 
Q 3034 994 3034 1497 
Q 3034 2003 2786 2293 
Q 2538 2584 2113 2584 
z
M 3366 4563 
L 3366 3988 
Q 3128 4100 2886 4159 
Q 2644 4219 2406 4219 
Q 1781 4219 1451 3797 
Q 1122 3375 1075 2522 
Q 1259 2794 1537 2939 
Q 1816 3084 2150 3084 
Q 2853 3084 3261 2657 
Q 3669 2231 3669 1497 
Q 3669 778 3244 343 
Q 2819 -91 2113 -91 
Q 1303 -91 875 529 
Q 447 1150 447 2328 
Q 447 3434 972 4092 
Q 1497 4750 2381 4750 
Q 2619 4750 2861 4703 
Q 3103 4656 3366 4563 
z
" id="DejaVuSans-36" transform="scale(0.015625)"/>
      </defs>
      <use xlink:href="#DejaVuSans-31"/>
      <use x="63.623047" xlink:href="#DejaVuSans-65"/>
      <use x="125.146484" xlink:href="#DejaVuSans-36"/>
     </g>
    </g>
   </g>
   <g id="line2d_13">
    <path clip-path="url(#pf19e3dce13)" d="M 260.891909 46.468908 
L 286.66987 46.658466 
L 301.169973 46.966424 
L 311.64227 47.404146 
L 318.892321 47.908985 
L 324.53125 48.488066 
L 329.364618 49.172236 
L 334.197986 50.091808 
L 338.225792 51.090358 
L 342.253599 52.352419 
L 345.475844 53.58842 
L 348.698089 55.057691 
L 351.920334 56.790476 
L 355.142579 58.816568 
L 358.364824 61.164193 
L 361.587069 63.858857 
L 364.809315 66.922269 
L 368.03156 70.371414 
L 371.253805 74.217868 
L 374.47605 78.46742 
L 377.698295 83.120015 
L 380.92054 88.170007 
L 384.142785 93.606672 
L 387.365031 99.414889 
L 391.392837 107.168764 
L 395.420643 115.430643 
L 399.44845 124.151864 
L 404.281818 135.147836 
L 409.920747 148.576823 
L 417.170798 166.498863 
L 431.670901 202.582615 
L 436.504269 213.964121 
L 440.532075 222.917223 
L 443.75432 229.627252 
L 446.976566 235.854101 
L 450.198811 241.524909 
L 452.615495 245.371523 
L 455.032178 248.839844 
L 457.448862 251.905905 
L 459.865546 254.549173 
L 462.28223 256.753306 
L 463.893353 257.972927 
L 465.504475 258.990247 
L 467.115598 259.804564 
L 468.72672 260.41655 
L 470.337843 260.828367 
L 471.948965 261.043778 
L 473.560088 261.068259 
L 475.171211 260.909103 
L 476.782333 260.575517 
L 478.393456 260.078717 
L 480.81014 259.057163 
L 483.226823 257.752772 
L 486.449069 255.687725 
L 495.310243 249.645633 
L 497.726927 248.379242 
L 499.338049 247.737861 
L 500.949172 247.299938 
L 502.560294 247.100651 
L 504.171417 247.174528 
L 505.782539 247.554895 
L 507.393662 248.273266 
L 509.004785 249.358714 
L 510.615907 250.837212 
L 512.22703 252.730962 
L 513.838152 255.057729 
L 515.449275 257.830189 
L 517.060397 261.055315 
L 518.67152 264.733817 
L 520.282642 268.859645 
L 522.699326 275.856208 
L 525.11601 283.751633 
L 527.532694 292.431216 
L 530.754939 304.954986 
L 537.199429 331.439924 
L 540.421675 344.24566 
L 542.838358 353.146999 
L 545.255042 361.157005 
L 546.866165 365.881679 
L 548.477287 370.037655 
L 550.08841 373.567123 
L 551.699533 376.420429 
L 553.310655 378.55711 
L 554.116216 379.346795 
L 554.921778 379.946736 
L 555.727339 380.354803 
L 556.5329 380.569562 
L 557.338462 380.590283 
L 558.144023 380.416943 
L 558.949584 380.050225 
L 559.755145 379.491518 
L 560.560707 378.742905 
L 561.366268 377.807157 
L 562.977391 375.388666 
L 564.588513 372.271256 
L 566.199636 368.499805 
L 567.810758 364.127921 
L 569.421881 359.216836 
L 571.838565 350.988532 
L 574.255249 341.948305 
L 578.283055 325.79239 
L 584.727545 299.778983 
L 587.94979 287.863489 
L 590.366474 279.763632 
L 592.783158 272.527185 
L 594.394281 268.228552 
L 596.005403 264.371583 
L 597.616526 260.966115 
L 599.227648 258.014993 
L 600.838771 255.514518 
L 602.449893 253.454968 
L 604.061016 251.821187 
L 605.672139 250.593222 
L 607.283261 249.746976 
L 608.894384 249.254882 
L 610.505506 249.086569 
L 612.116629 249.209507 
L 613.727751 249.58963 
L 615.338874 250.191921 
L 617.755558 251.434417 
L 620.172242 252.978277 
L 624.200048 255.910767 
L 629.033416 259.428274 
L 631.4501 260.973849 
L 633.866784 262.275801 
L 636.283467 263.271913 
L 637.89459 263.740383 
L 639.505713 264.037506 
L 641.116835 264.152866 
L 642.727958 264.078023 
L 644.33908 263.806419 
L 645.950203 263.333278 
L 647.561325 262.655496 
L 649.172448 261.771533 
L 650.783571 260.681297 
L 652.394693 259.386032 
L 654.005816 257.888206 
L 656.4225 255.269763 
L 658.839183 252.220021 
L 661.255867 248.759435 
L 663.672551 244.91198 
L 666.089235 240.704433 
L 669.31148 234.584458 
L 672.533725 227.948489 
L 676.561532 219.042473 
L 680.589338 209.595215 
L 686.228267 195.732338 
L 695.895002 171.190666 
L 704.756177 148.946183 
L 710.395106 135.361447 
L 715.228473 124.247909 
L 720.061841 113.734866 
L 724.089647 105.500665 
L 728.117454 97.797396 
L 731.339699 92.04575 
L 734.561944 86.679125 
L 737.784189 81.711378 
L 741.006434 77.151488 
L 744.22868 73.002921 
L 747.450925 69.263219 
L 750.67317 65.92389 
L 753.895415 62.970625 
L 757.11766 60.383842 
L 760.339905 58.139523 
L 763.56215 56.210246 
L 766.784395 54.566347 
L 770.006641 53.17709 
L 773.228886 52.011777 
L 777.256692 50.824966 
L 781.284499 49.88782 
L 786.117866 49.02558 
L 790.951234 48.383705 
L 797.395724 47.775399 
L 804.645776 47.320386 
L 814.312511 46.944711 
L 828.007053 46.659514 
L 848.146085 46.489065 
L 853.785014 46.468631 
L 853.785014 46.468631 
" style="fill:none;stroke:#e98768;stroke-linecap:square;stroke-width:1.5;"/>
   </g>
   <g id="line2d_14">
    <path clip-path="url(#pf19e3dce13)" d="M 208.888645 46.467385 
L 234.676041 46.654447 
L 251.59902 46.986967 
L 264.492718 47.459453 
L 274.162992 48.032671 
L 282.221554 48.74005 
L 288.668403 49.524206 
L 294.309396 50.424856 
L 299.144532 51.398456 
L 303.979669 52.598323 
L 308.00895 53.800439 
L 312.038231 55.211879 
L 316.067511 56.855566 
L 320.096792 58.752166 
L 324.126073 60.918816 
L 328.155354 63.368038 
L 332.184634 66.10701 
L 336.213915 69.137343 
L 340.243196 72.455444 
L 344.272476 76.053429 
L 348.301757 79.920472 
L 353.136894 84.898897 
L 357.972031 90.226656 
L 362.807168 95.88638 
L 367.642304 101.865262 
L 373.283297 109.232571 
L 378.92429 117.011921 
L 384.565283 125.189563 
L 390.206276 133.741087 
L 396.653125 143.917807 
L 404.711687 157.097465 
L 424.85809 190.349926 
L 430.499083 199.128373 
L 435.33422 206.260947 
L 439.363501 211.864365 
L 443.392782 217.112995 
L 447.422062 221.972576 
L 451.451343 226.41952 
L 454.674768 229.672898 
L 457.898192 232.658602 
L 461.121617 235.38816 
L 465.150897 238.473798 
L 469.180178 241.261417 
L 474.821171 244.860082 
L 481.26802 249.010519 
L 484.491445 251.331291 
L 487.714869 253.968771 
L 490.132438 256.229592 
L 492.550006 258.792096 
L 494.967575 261.708488 
L 497.385143 265.027659 
L 499.802711 268.792795 
L 502.22028 273.038722 
L 504.637848 277.789058 
L 507.055417 283.053282 
L 509.472985 288.823841 
L 511.890554 295.073492 
L 515.113978 304.06322 
L 519.143259 316.086381 
L 527.20182 340.56381 
L 529.619389 347.316544 
L 532.036957 353.465037 
L 533.648669 357.132554 
L 535.260382 360.389275 
L 536.872094 363.181544 
L 538.483806 365.459255 
L 540.095518 367.176976 
L 540.901375 367.813189 
L 541.707231 368.295038 
L 542.513087 368.618634 
L 543.318943 368.780572 
L 544.124799 368.777959 
L 544.930655 368.608436 
L 545.736511 368.270202 
L 546.542368 367.762031 
L 547.348224 367.083291 
L 548.15408 366.233959 
L 549.765792 364.026514 
L 551.377504 361.151978 
L 552.989217 357.632707 
L 554.600929 353.501009 
L 556.212641 348.798799 
L 558.63021 340.789549 
L 561.047778 331.819229 
L 564.271203 318.782839 
L 573.941476 278.468192 
L 576.359045 269.546622 
L 578.776613 261.56716 
L 580.388325 256.86272 
L 582.000038 252.702683 
L 583.61175 249.121878 
L 585.223462 246.145984 
L 586.835175 243.791452 
L 588.446887 242.065601 
L 589.252743 241.438284 
L 590.058599 240.966884 
L 590.864455 240.64989 
L 591.670311 240.485295 
L 592.476168 240.470613 
L 593.282024 240.602905 
L 594.08788 240.878798 
L 594.893736 241.294507 
L 596.505448 242.52834 
L 598.117161 244.26688 
L 599.728873 246.46767 
L 601.340585 249.084163 
L 602.952297 252.066575 
L 605.369866 257.111651 
L 607.787434 262.680061 
L 611.816715 272.622794 
L 617.457708 286.551385 
L 620.681132 293.810511 
L 623.098701 298.665226 
L 625.516269 302.883033 
L 627.127982 305.290953 
L 628.739694 307.345573 
L 630.351406 309.024863 
L 631.963118 310.310136 
L 633.574831 311.185986 
L 635.186543 311.640216 
L 636.798255 311.663747 
L 638.409968 311.250514 
L 640.02168 310.397361 
L 641.633392 309.10392 
L 643.245104 307.372489 
L 644.856817 305.207907 
L 646.468529 302.617423 
L 648.080241 299.610562 
L 649.691954 296.198993 
L 651.303666 292.396392 
L 653.721234 285.993787 
L 656.138803 278.80637 
L 658.556371 270.901486 
L 660.973939 262.353132 
L 664.197364 250.092586 
L 668.226645 233.66443 
L 673.061782 212.878752 
L 685.149624 160.321591 
L 689.178904 143.940289 
L 692.402329 131.614396 
L 695.625754 120.113377 
L 698.849178 109.528543 
L 701.266746 102.228904 
L 703.684315 95.493806 
L 706.101883 89.328205 
L 708.519452 83.728196 
L 710.93702 78.681764 
L 713.354589 74.16972 
L 715.772157 70.166788 
L 718.189725 66.642777 
L 720.607294 63.563802 
L 723.024862 60.893497 
L 725.442431 58.594165 
L 727.859999 56.62784 
L 730.277568 54.957215 
L 732.695136 53.546417 
L 735.112704 52.361627 
L 738.336129 51.079753 
L 741.559554 50.077914 
L 744.782978 49.299048 
L 748.812259 48.567027 
L 753.647396 47.947069 
L 759.288389 47.464075 
L 766.541094 47.076249 
L 777.017224 46.765253 
L 792.32849 46.55518 
L 809.251469 46.467646 
L 809.251469 46.467646 
" style="fill:none;stroke:#de5d5c;stroke-linecap:square;stroke-width:1.5;"/>
   </g>
   <g id="line2d_15">
    <path clip-path="url(#pf19e3dce13)" d="M 151.691756 46.467273 
L 178.993429 46.65591 
L 199.676514 47.019407 
L 215.395659 47.50846 
L 227.805511 48.115586 
L 237.733392 48.822339 
L 246.006626 49.626936 
L 253.452537 50.576175 
L 260.071124 51.6484 
L 265.862388 52.801927 
L 271.653652 54.191825 
L 276.617593 55.596285 
L 281.581534 57.216841 
L 286.545474 59.067593 
L 291.509415 61.156957 
L 296.473355 63.486698 
L 301.437296 66.05189 
L 306.401236 68.84196 
L 312.1925 72.362302 
L 317.983764 76.145852 
L 323.775028 80.173352 
L 330.393616 85.061921 
L 337.012203 90.256728 
L 342.803467 95.065773 
L 348.594731 100.137656 
L 354.385995 105.489194 
L 360.177259 111.13437 
L 365.968523 117.08224 
L 371.759787 123.336098 
L 377.551051 129.893317 
L 384.169639 137.74718 
L 390.788226 145.961087 
L 398.234137 155.582078 
L 406.507371 166.643316 
L 422.226516 188.145966 
L 432.981721 202.658397 
L 441.254955 213.451804 
L 449.528189 223.861573 
L 460.283394 236.982668 
L 470.211275 249.192612 
L 476.002539 256.702 
L 480.139156 262.389097 
L 484.275773 268.437441 
L 488.41239 274.919024 
L 492.549007 281.884439 
L 496.685625 289.347041 
L 500.822242 297.264356 
L 506.613506 308.870417 
L 513.232093 322.085814 
L 516.541387 328.217232 
L 519.023357 332.403217 
L 521.505327 336.10204 
L 523.159974 338.235031 
L 524.814621 340.057615 
L 526.469268 341.53251 
L 528.123915 342.623723 
L 529.778562 343.297369 
L 530.605885 343.467801 
L 531.433208 343.522522 
L 532.260532 343.458274 
L 533.087855 343.272088 
L 533.915179 342.961319 
L 534.742502 342.523666 
L 536.397149 341.260388 
L 538.051796 339.471705 
L 539.706443 337.154093 
L 541.36109 334.311655 
L 543.015736 330.9566 
L 544.670383 327.109575 
L 546.32503 322.799825 
L 548.807 315.552654 
L 551.288971 307.514091 
L 554.598264 295.918228 
L 562.871499 266.246638 
L 565.353469 258.292841 
L 567.008116 253.491416 
L 568.662763 249.180175 
L 570.31741 245.429567 
L 571.972056 242.303293 
L 573.626703 239.857228 
L 574.454027 238.904363 
L 575.28135 238.138489 
L 576.108674 237.564002 
L 576.935997 237.184659 
L 577.76332 237.00357 
L 578.590644 237.023179 
L 579.417967 237.245262 
L 580.245291 237.670912 
L 581.072614 238.300543 
L 581.899938 239.133881 
L 582.727261 240.16997 
L 584.381908 242.843175 
L 586.036555 246.299007 
L 587.691201 250.505819 
L 589.345848 255.421878 
L 591.000495 260.995901 
L 593.482465 270.456663 
L 595.964436 281.023536 
L 599.273729 296.358636 
L 609.201611 343.777877 
L 611.683581 354.197885 
L 613.338228 360.480859 
L 614.992875 366.128342 
L 616.647521 371.057088 
L 618.302168 375.190691 
L 619.956815 378.46063 
L 620.784139 379.75271 
L 621.611462 380.807241 
L 622.438785 381.618294 
L 623.266109 382.1806 
L 624.093432 382.489568 
L 624.920756 382.541308 
L 625.748079 382.332646 
L 626.575403 381.861139 
L 627.402726 381.125087 
L 628.230049 380.123541 
L 629.057373 378.856312 
L 629.884696 377.323973 
L 631.539343 373.47006 
L 633.19399 368.581546 
L 634.848637 362.690053 
L 636.503284 355.838629 
L 638.157931 348.081096 
L 639.812577 339.481198 
L 642.294548 325.16297 
L 644.776518 309.390972 
L 648.085812 286.630046 
L 653.049752 250.340977 
L 659.66834 201.883897 
L 662.977633 179.101417 
L 666.286927 157.956661 
L 668.768897 143.381753 
L 671.250868 130.013323 
L 673.732838 117.901749 
L 676.214808 107.05942 
L 678.696778 97.465515 
L 681.178749 89.071567 
L 682.833396 84.108303 
L 684.488042 79.622565 
L 686.142689 75.587082 
L 687.797336 71.972941 
L 689.451983 68.750248 
L 691.10663 65.888718 
L 692.761277 63.358201 
L 694.415924 61.129125 
L 696.07057 59.172877 
L 697.725217 57.462095 
L 699.379864 55.970906 
L 701.861834 54.093358 
L 704.343805 52.581551 
L 706.825775 51.370427 
L 709.307745 50.403999 
L 712.617039 49.41532 
L 715.926333 48.687426 
L 720.06295 48.039924 
L 725.02689 47.522313 
L 731.645478 47.098971 
L 740.746035 46.781494 
L 753.98321 46.568112 
L 771.357002 46.467466 
L 771.357002 46.467466 
" style="fill:none;stroke:#c14168;stroke-linecap:square;stroke-width:1.5;"/>
   </g>
   <g id="line2d_16">
    <path clip-path="url(#pf19e3dce13)" d="M 92.875923 46.473041 
L 122.874494 46.675074 
L 147.730452 47.060137 
L 166.586696 47.558537 
L 181.15743 48.152204 
L 193.156858 48.851911 
L 203.442082 49.665551 
L 212.870204 50.643354 
L 220.584122 51.653766 
L 228.29804 52.896846 
L 235.154856 54.231902 
L 242.011672 55.8132 
L 248.011386 57.416488 
L 254.011101 59.233507 
L 260.010815 61.264029 
L 266.867631 63.834266 
L 273.724447 66.647239 
L 281.438365 70.066056 
L 289.152283 73.722429 
L 296.866201 77.605483 
L 304.580119 81.733042 
L 311.436935 85.641483 
L 318.293751 89.81678 
L 324.293465 93.722062 
L 330.293179 97.889282 
L 336.292893 102.339034 
L 342.292607 107.085603 
L 348.292321 112.136382 
L 354.292035 117.492007 
L 360.291749 123.147015 
L 366.291463 129.090832 
L 373.148279 136.218573 
L 380.005096 143.678094 
L 387.719014 152.429862 
L 395.432932 161.519691 
L 404.003952 171.960564 
L 413.432074 183.78818 
L 424.5744 198.123055 
L 438.288032 216.13825 
L 453.715868 236.768844 
L 466.572398 254.318526 
L 477.714724 269.915895 
L 496.570968 296.522753 
L 500.856478 302.121941 
L 504.284886 306.250435 
L 506.856192 309.058222 
L 509.427499 311.548216 
L 511.998805 313.649815 
L 513.713009 314.797882 
L 515.427213 315.716524 
L 517.141417 316.382321 
L 518.855621 316.772124 
L 520.569825 316.863575 
L 522.284029 316.6357 
L 523.998233 316.069564 
L 525.712437 315.14897 
L 527.426641 313.861201 
L 529.140845 312.197784 
L 530.855049 310.155256 
L 532.569253 307.73592 
L 534.283457 304.948555 
L 535.997661 301.809065 
L 538.568967 296.493402 
L 541.140273 290.554638 
L 544.568681 281.944807 
L 551.425497 264.337297 
L 553.996803 258.446073 
L 555.711007 254.985133 
L 557.425211 252.010678 
L 559.139415 249.619068 
L 559.996517 248.671218 
L 560.853619 247.903803 
L 561.710721 247.32771 
L 562.567823 246.953378 
L 563.424925 246.790725 
L 564.282027 246.849076 
L 565.139129 247.137097 
L 565.996231 247.662726 
L 566.853333 248.433103 
L 567.710435 249.454509 
L 568.567537 250.732296 
L 569.424639 252.270836 
L 570.281741 254.073454 
L 571.995945 258.478703 
L 573.710149 263.951875 
L 575.424353 270.477154 
L 577.138557 278.018071 
L 578.852761 286.516901 
L 580.566965 295.894495 
L 583.138271 311.383683 
L 586.566679 334.00965 
L 595.137699 392.164212 
L 597.709005 407.428226 
L 599.423209 416.44098 
L 601.137413 424.315372 
L 602.851617 430.889944 
L 603.708719 433.644398 
L 604.565821 436.022071 
L 605.422923 438.008616 
L 606.280025 439.591249 
L 607.137127 440.75882 
L 607.994229 441.501879 
L 608.851331 441.812727 
L 609.708433 441.685463 
L 610.565535 441.116012 
L 611.422637 440.102145 
L 612.279739 438.64349 
L 613.136841 436.741526 
L 613.993943 434.399572 
L 614.851045 431.622752 
L 616.565249 424.79384 
L 618.279453 416.330292 
L 619.993657 406.33303 
L 621.707861 394.925721 
L 623.422065 382.2516 
L 625.993371 361.216831 
L 628.564677 338.276899 
L 632.850187 297.480394 
L 639.707004 231.599798 
L 643.135412 200.911096 
L 645.706718 179.606311 
L 648.278024 160.03532 
L 650.84933 142.342127 
L 653.420636 126.589393 
L 655.13484 117.164026 
L 656.849044 108.581069 
L 658.563248 100.813187 
L 660.277452 93.824997 
L 661.991656 87.574818 
L 663.70586 82.016334 
L 665.420064 77.100141 
L 667.134268 72.775147 
L 668.848472 68.989796 
L 670.562676 65.693121 
L 672.27688 62.835619 
L 673.991084 60.369937 
L 675.705288 58.251404 
L 677.419492 56.438402 
L 679.133696 54.892595 
L 680.8479 53.579047 
L 682.562104 52.466232 
L 685.13341 51.112606 
L 687.704716 50.066152 
L 690.276022 49.259799 
L 693.70443 48.466317 
L 697.132838 47.906562 
L 701.418348 47.43002 
L 707.418062 47.022116 
L 715.13198 46.739744 
L 727.131408 46.544423 
L 738.273734 46.474332 
L 738.273734 46.474332 
" style="fill:none;stroke:#9a3670;stroke-linecap:square;stroke-width:1.5;"/>
   </g>
   <g id="patch_3">
    <path d="M 54.830469 461.58 
L 54.830469 26.7 
" style="fill:none;stroke:#000000;stroke-linecap:square;stroke-linejoin:miter;stroke-width:0.8;"/>
   </g>
   <g id="patch_4">
    <path d="M 891.830469 461.58 
L 891.830469 26.7 
" style="fill:none;stroke:#000000;stroke-linecap:square;stroke-linejoin:miter;stroke-width:0.8;"/>
   </g>
   <g id="patch_5">
    <path d="M 54.830469 461.58 
L 891.830469 461.58 
" style="fill:none;stroke:#000000;stroke-linecap:square;stroke-linejoin:miter;stroke-width:0.8;"/>
   </g>
   <g id="patch_6">
    <path d="M 54.830469 26.7 
L 891.830469 26.7 
" style="fill:none;stroke:#000000;stroke-linecap:square;stroke-linejoin:miter;stroke-width:0.8;"/>
   </g>
   <g id="text_16">
    <!-- T = 61.2 K, B = 0.00336 cm$^{-1}$ sigma = 0.1953 cm$^{-1}$ -->
    <g transform="translate(276.080469 20.7)scale(0.15 -0.15)">
     <defs>
      <path d="M -19 4666 
L 3928 4666 
L 3928 4134 
L 2272 4134 
L 2272 0 
L 1638 0 
L 1638 4134 
L -19 4134 
L -19 4666 
z
" id="DejaVuSans-54" transform="scale(0.015625)"/>
      <path d="M 678 2906 
L 4684 2906 
L 4684 2381 
L 678 2381 
L 678 2906 
z
M 678 1631 
L 4684 1631 
L 4684 1100 
L 678 1100 
L 678 1631 
z
" id="DejaVuSans-3d" transform="scale(0.015625)"/>
      <path d="M 684 794 
L 1344 794 
L 1344 0 
L 684 0 
L 684 794 
z
" id="DejaVuSans-2e" transform="scale(0.015625)"/>
      <path d="M 628 4666 
L 1259 4666 
L 1259 2694 
L 3353 4666 
L 4166 4666 
L 1850 2491 
L 4331 0 
L 3500 0 
L 1259 2247 
L 1259 0 
L 628 0 
L 628 4666 
z
" id="DejaVuSans-4b" transform="scale(0.015625)"/>
      <path d="M 750 794 
L 1409 794 
L 1409 256 
L 897 -744 
L 494 -744 
L 750 256 
L 750 794 
z
" id="DejaVuSans-2c" transform="scale(0.015625)"/>
      <path d="M 1259 2228 
L 1259 519 
L 2272 519 
Q 2781 519 3026 730 
Q 3272 941 3272 1375 
Q 3272 1813 3026 2020 
Q 2781 2228 2272 2228 
L 1259 2228 
z
M 1259 4147 
L 1259 2741 
L 2194 2741 
Q 2656 2741 2882 2914 
Q 3109 3088 3109 3444 
Q 3109 3797 2882 3972 
Q 2656 4147 2194 4147 
L 1259 4147 
z
M 628 4666 
L 2241 4666 
Q 2963 4666 3353 4366 
Q 3744 4066 3744 3513 
Q 3744 3084 3544 2831 
Q 3344 2578 2956 2516 
Q 3422 2416 3680 2098 
Q 3938 1781 3938 1306 
Q 3938 681 3513 340 
Q 3088 0 2303 0 
L 628 0 
L 628 4666 
z
" id="DejaVuSans-42" transform="scale(0.015625)"/>
      <path d="M 2906 1791 
Q 2906 2416 2648 2759 
Q 2391 3103 1925 3103 
Q 1463 3103 1205 2759 
Q 947 2416 947 1791 
Q 947 1169 1205 825 
Q 1463 481 1925 481 
Q 2391 481 2648 825 
Q 2906 1169 2906 1791 
z
M 3481 434 
Q 3481 -459 3084 -895 
Q 2688 -1331 1869 -1331 
Q 1566 -1331 1297 -1286 
Q 1028 -1241 775 -1147 
L 775 -588 
Q 1028 -725 1275 -790 
Q 1522 -856 1778 -856 
Q 2344 -856 2625 -561 
Q 2906 -266 2906 331 
L 2906 616 
Q 2728 306 2450 153 
Q 2172 0 1784 0 
Q 1141 0 747 490 
Q 353 981 353 1791 
Q 353 2603 747 3093 
Q 1141 3584 1784 3584 
Q 2172 3584 2450 3431 
Q 2728 3278 2906 2969 
L 2906 3500 
L 3481 3500 
L 3481 434 
z
" id="DejaVuSans-67" transform="scale(0.015625)"/>
      <path d="M 703 97 
L 703 672 
Q 941 559 1184 500 
Q 1428 441 1663 441 
Q 2288 441 2617 861 
Q 2947 1281 2994 2138 
Q 2813 1869 2534 1725 
Q 2256 1581 1919 1581 
Q 1219 1581 811 2004 
Q 403 2428 403 3163 
Q 403 3881 828 4315 
Q 1253 4750 1959 4750 
Q 2769 4750 3195 4129 
Q 3622 3509 3622 2328 
Q 3622 1225 3098 567 
Q 2575 -91 1691 -91 
Q 1453 -91 1209 -44 
Q 966 3 703 97 
z
M 1959 2075 
Q 2384 2075 2632 2365 
Q 2881 2656 2881 3163 
Q 2881 3666 2632 3958 
Q 2384 4250 1959 4250 
Q 1534 4250 1286 3958 
Q 1038 3666 1038 3163 
Q 1038 2656 1286 2365 
Q 1534 2075 1959 2075 
z
" id="DejaVuSans-39" transform="scale(0.015625)"/>
      <path d="M 691 4666 
L 3169 4666 
L 3169 4134 
L 1269 4134 
L 1269 2991 
Q 1406 3038 1543 3061 
Q 1681 3084 1819 3084 
Q 2600 3084 3056 2656 
Q 3513 2228 3513 1497 
Q 3513 744 3044 326 
Q 2575 -91 1722 -91 
Q 1428 -91 1123 -41 
Q 819 9 494 109 
L 494 744 
Q 775 591 1075 516 
Q 1375 441 1709 441 
Q 2250 441 2565 725 
Q 2881 1009 2881 1497 
Q 2881 1984 2565 2268 
Q 2250 2553 1709 2553 
Q 1456 2553 1204 2497 
Q 953 2441 691 2322 
L 691 4666 
z
" id="DejaVuSans-35" transform="scale(0.015625)"/>
     </defs>
     <use transform="translate(0 0.684375)" xlink:href="#DejaVuSans-54"/>
     <use transform="translate(61.083984 0.684375)" xlink:href="#DejaVuSans-20"/>
     <use transform="translate(92.871094 0.684375)" xlink:href="#DejaVuSans-3d"/>
     <use transform="translate(176.660156 0.684375)" xlink:href="#DejaVuSans-20"/>
     <use transform="translate(208.447266 0.684375)" xlink:href="#DejaVuSans-36"/>
     <use transform="translate(272.070312 0.684375)" xlink:href="#DejaVuSans-31"/>
     <use transform="translate(335.693359 0.684375)" xlink:href="#DejaVuSans-2e"/>
     <use transform="translate(361.980469 0.684375)" xlink:href="#DejaVuSans-32"/>
     <use transform="translate(425.603516 0.684375)" xlink:href="#DejaVuSans-20"/>
     <use transform="translate(457.390625 0.684375)" xlink:href="#DejaVuSans-4b"/>
     <use transform="translate(522.966797 0.684375)" xlink:href="#DejaVuSans-2c"/>
     <use transform="translate(554.753906 0.684375)" xlink:href="#DejaVuSans-20"/>
     <use transform="translate(586.541016 0.684375)" xlink:href="#DejaVuSans-42"/>
     <use transform="translate(655.144531 0.684375)" xlink:href="#DejaVuSans-20"/>
     <use transform="translate(686.931641 0.684375)" xlink:href="#DejaVuSans-3d"/>
     <use transform="translate(770.720703 0.684375)" xlink:href="#DejaVuSans-20"/>
     <use transform="translate(802.507812 0.684375)" xlink:href="#DejaVuSans-30"/>
     <use transform="translate(866.130859 0.684375)" xlink:href="#DejaVuSans-2e"/>
     <use transform="translate(897.917969 0.684375)" xlink:href="#DejaVuSans-30"/>
     <use transform="translate(961.541016 0.684375)" xlink:href="#DejaVuSans-30"/>
     <use transform="translate(1025.164062 0.684375)" xlink:href="#DejaVuSans-33"/>
     <use transform="translate(1088.787109 0.684375)" xlink:href="#DejaVuSans-33"/>
     <use transform="translate(1152.410156 0.684375)" xlink:href="#DejaVuSans-36"/>
     <use transform="translate(1216.033203 0.684375)" xlink:href="#DejaVuSans-20"/>
     <use transform="translate(1247.820312 0.684375)" xlink:href="#DejaVuSans-63"/>
     <use transform="translate(1302.800781 0.684375)" xlink:href="#DejaVuSans-6d"/>
     <use transform="translate(1401.169922 38.965625)scale(0.7)" xlink:href="#DejaVuSans-2212"/>
     <use transform="translate(1459.822266 38.965625)scale(0.7)" xlink:href="#DejaVuSans-31"/>
     <use transform="translate(1507.092773 0.684375)" xlink:href="#DejaVuSans-20"/>
     <use transform="translate(1538.879883 0.684375)" xlink:href="#DejaVuSans-73"/>
     <use transform="translate(1590.979492 0.684375)" xlink:href="#DejaVuSans-69"/>
     <use transform="translate(1618.762695 0.684375)" xlink:href="#DejaVuSans-67"/>
     <use transform="translate(1682.239258 0.684375)" xlink:href="#DejaVuSans-6d"/>
     <use transform="translate(1779.651367 0.684375)" xlink:href="#DejaVuSans-61"/>
     <use transform="translate(1840.930664 0.684375)" xlink:href="#DejaVuSans-20"/>
     <use transform="translate(1872.717773 0.684375)" xlink:href="#DejaVuSans-3d"/>
     <use transform="translate(1956.506836 0.684375)" xlink:href="#DejaVuSans-20"/>
     <use transform="translate(1988.293945 0.684375)" xlink:href="#DejaVuSans-30"/>
     <use transform="translate(2051.916992 0.684375)" xlink:href="#DejaVuSans-2e"/>
     <use transform="translate(2083.704102 0.684375)" xlink:href="#DejaVuSans-31"/>
     <use transform="translate(2147.327148 0.684375)" xlink:href="#DejaVuSans-39"/>
     <use transform="translate(2210.950195 0.684375)" xlink:href="#DejaVuSans-35"/>
     <use transform="translate(2274.573242 0.684375)" xlink:href="#DejaVuSans-33"/>
     <use transform="translate(2338.196289 0.684375)" xlink:href="#DejaVuSans-20"/>
     <use transform="translate(2369.983398 0.684375)" xlink:href="#DejaVuSans-63"/>
     <use transform="translate(2424.963867 0.684375)" xlink:href="#DejaVuSans-6d"/>
     <use transform="translate(2523.333008 38.965625)scale(0.7)" xlink:href="#DejaVuSans-2212"/>
     <use transform="translate(2581.985352 38.965625)scale(0.7)" xlink:href="#DejaVuSans-31"/>
    </g>
   </g>
   <g id="legend_1">
    <g id="patch_7">
     <path d="M 65.330469 454.08 
L 142.596875 454.08 
Q 145.596875 454.08 145.596875 451.08 
L 145.596875 364.51125 
Q 145.596875 361.51125 142.596875 361.51125 
L 65.330469 361.51125 
Q 62.330469 361.51125 62.330469 364.51125 
L 62.330469 451.08 
Q 62.330469 454.08 65.330469 454.08 
z
" style="fill:#ffffff;opacity:0.8;stroke:#cccccc;stroke-linejoin:miter;"/>
    </g>
    <g id="line2d_17">
     <path d="M 68.330469 373.658906 
L 98.330469 373.658906 
" style="fill:none;stroke:#e98768;stroke-linecap:square;stroke-width:1.5;"/>
    </g>
    <g id="line2d_18"/>
    <g id="text_17">
     <!-- 0 -->
     <g transform="translate(110.330469 378.908906)scale(0.15 -0.15)">
      <use xlink:href="#DejaVuSans-30"/>
     </g>
    </g>
    <g id="line2d_19">
     <path d="M 68.330469 395.676094 
L 98.330469 395.676094 
" style="fill:none;stroke:#de5d5c;stroke-linecap:square;stroke-width:1.5;"/>
    </g>
    <g id="line2d_20"/>
    <g id="text_18">
     <!-- -0.2 -->
     <g transform="translate(110.330469 400.926094)scale(0.15 -0.15)">
      <defs>
       <path d="M 313 2009 
L 1997 2009 
L 1997 1497 
L 313 1497 
L 313 2009 
z
" id="DejaVuSans-2d" transform="scale(0.015625)"/>
      </defs>
      <use xlink:href="#DejaVuSans-2d"/>
      <use x="36.083984" xlink:href="#DejaVuSans-30"/>
      <use x="99.707031" xlink:href="#DejaVuSans-2e"/>
      <use x="131.494141" xlink:href="#DejaVuSans-32"/>
     </g>
    </g>
    <g id="line2d_21">
     <path d="M 68.330469 417.693281 
L 98.330469 417.693281 
" style="fill:none;stroke:#c14168;stroke-linecap:square;stroke-width:1.5;"/>
    </g>
    <g id="line2d_22"/>
    <g id="text_19">
     <!-- -0.4 -->
     <g transform="translate(110.330469 422.943281)scale(0.15 -0.15)">
      <use xlink:href="#DejaVuSans-2d"/>
      <use x="36.083984" xlink:href="#DejaVuSans-30"/>
      <use x="99.707031" xlink:href="#DejaVuSans-2e"/>
      <use x="131.494141" xlink:href="#DejaVuSans-34"/>
     </g>
    </g>
    <g id="line2d_23">
     <path d="M 68.330469 439.710469 
L 98.330469 439.710469 
" style="fill:none;stroke:#9a3670;stroke-linecap:square;stroke-width:1.5;"/>
    </g>
    <g id="line2d_24"/>
    <g id="text_20">
     <!-- -0.6 -->
     <g transform="translate(110.330469 444.960469)scale(0.15 -0.15)">
      <use xlink:href="#DejaVuSans-2d"/>
      <use x="36.083984" xlink:href="#DejaVuSans-30"/>
      <use x="99.707031" xlink:href="#DejaVuSans-2e"/>
      <use x="131.494141" xlink:href="#DejaVuSans-36"/>
     </g>
    </g>
   </g>
  </g>
 </g>
 <defs>
  <clipPath id="pf19e3dce13">
   <rect height="434.88" width="837" x="54.830469" y="26.7"/>
  </clipPath>
 </defs>
</svg>
