<?xml version="1.0" encoding="utf-8" standalone="no"?>
<!DOCTYPE svg PUBLIC "-//W3C//DTD SVG 1.1//EN"
  "http://www.w3.org/Graphics/SVG/1.1/DTD/svg11.dtd">
<svg height="509.897187pt" version="1.1" viewBox="0 0 899.030469 509.897187" width="899.030469pt" xmlns="http://www.w3.org/2000/svg" xmlns:xlink="http://www.w3.org/1999/xlink">
 <metadata>
  <rdf:RDF xmlns:cc="http://creativecommons.org/ns#" xmlns:dc="http://purl.org/dc/elements/1.1/" xmlns:rdf="http://www.w3.org/1999/02/22-rdf-syntax-ns#">
   <cc:Work>
    <dc:type rdf:resource="http://purl.org/dc/dcmitype/StillImage"/>
    <dc:date>2023-01-10T20:48:35.772573</dc:date>
    <dc:format>image/svg+xml</dc:format>
    <dc:creator>
     <cc:Agent>
      <dc:title>Matplotlib v3.4.3, https://matplotlib.org/</dc:title>
     </cc:Agent>
    </dc:creator>
   </cc:Work>
  </rdf:RDF>
 </metadata>
 <defs>
  <style type="text/css">*{stroke-linecap:butt;stroke-linejoin:round;}</style>
 </defs>
 <g id="figure_1">
  <g id="patch_1">
   <path d="M 0 509.897187 
L 899.030469 509.897187 
L 899.030469 0 
L 0 0 
z
" style="fill:#ffffff;"/>
  </g>
  <g id="axes_1">
   <g id="patch_2">
    <path d="M 54.830469 461.58 
L 891.830469 461.58 
L 891.830469 26.7 
L 54.830469 26.7 
z
" style="fill:#ffffff;"/>
   </g>
   <g id="matplotlib.axis_1">
    <g id="xtick_1">
     <g id="line2d_1">
      <defs>
       <path d="M 0 0 
L 0 3.5 
" id="md640314575" style="stroke:#000000;stroke-width:0.8;"/>
      </defs>
      <g>
       <use style="stroke:#000000;stroke-width:0.8;" x="110.528748" xlink:href="#md640314575" y="461.58"/>
      </g>
     </g>
     <g id="text_1">
      <!-- −3 -->
      <g transform="translate(99.472108 479.977656)scale(0.15 -0.15)">
       <defs>
        <path d="M 678 2272 
L 4684 2272 
L 4684 1741 
L 678 1741 
L 678 2272 
z
" id="DejaVuSans-2212" transform="scale(0.015625)"/>
        <path d="M 2597 2516 
Q 3050 2419 3304 2112 
Q 3559 1806 3559 1356 
Q 3559 666 3084 287 
Q 2609 -91 1734 -91 
Q 1441 -91 1130 -33 
Q 819 25 488 141 
L 488 750 
Q 750 597 1062 519 
Q 1375 441 1716 441 
Q 2309 441 2620 675 
Q 2931 909 2931 1356 
Q 2931 1769 2642 2001 
Q 2353 2234 1838 2234 
L 1294 2234 
L 1294 2753 
L 1863 2753 
Q 2328 2753 2575 2939 
Q 2822 3125 2822 3475 
Q 2822 3834 2567 4026 
Q 2313 4219 1838 4219 
Q 1578 4219 1281 4162 
Q 984 4106 628 3988 
L 628 4550 
Q 988 4650 1302 4700 
Q 1616 4750 1894 4750 
Q 2613 4750 3031 4423 
Q 3450 4097 3450 3541 
Q 3450 3153 3228 2886 
Q 3006 2619 2597 2516 
z
" id="DejaVuSans-33" transform="scale(0.015625)"/>
       </defs>
       <use xlink:href="#DejaVuSans-2212"/>
       <use x="83.789062" xlink:href="#DejaVuSans-33"/>
      </g>
     </g>
    </g>
    <g id="xtick_2">
     <g id="line2d_2">
      <g>
       <use style="stroke:#000000;stroke-width:0.8;" x="248.664967" xlink:href="#md640314575" y="461.58"/>
      </g>
     </g>
     <g id="text_2">
      <!-- −2 -->
      <g transform="translate(237.608327 479.977656)scale(0.15 -0.15)">
       <defs>
        <path d="M 1228 531 
L 3431 531 
L 3431 0 
L 469 0 
L 469 531 
Q 828 903 1448 1529 
Q 2069 2156 2228 2338 
Q 2531 2678 2651 2914 
Q 2772 3150 2772 3378 
Q 2772 3750 2511 3984 
Q 2250 4219 1831 4219 
Q 1534 4219 1204 4116 
Q 875 4013 500 3803 
L 500 4441 
Q 881 4594 1212 4672 
Q 1544 4750 1819 4750 
Q 2544 4750 2975 4387 
Q 3406 4025 3406 3419 
Q 3406 3131 3298 2873 
Q 3191 2616 2906 2266 
Q 2828 2175 2409 1742 
Q 1991 1309 1228 531 
z
" id="DejaVuSans-32" transform="scale(0.015625)"/>
       </defs>
       <use xlink:href="#DejaVuSans-2212"/>
       <use x="83.789062" xlink:href="#DejaVuSans-32"/>
      </g>
     </g>
    </g>
    <g id="xtick_3">
     <g id="line2d_3">
      <g>
       <use style="stroke:#000000;stroke-width:0.8;" x="386.801186" xlink:href="#md640314575" y="461.58"/>
      </g>
     </g>
     <g id="text_3">
      <!-- −1 -->
      <g transform="translate(375.744546 479.977656)scale(0.15 -0.15)">
       <defs>
        <path d="M 794 531 
L 1825 531 
L 1825 4091 
L 703 3866 
L 703 4441 
L 1819 4666 
L 2450 4666 
L 2450 531 
L 3481 531 
L 3481 0 
L 794 0 
L 794 531 
z
" id="DejaVuSans-31" transform="scale(0.015625)"/>
       </defs>
       <use xlink:href="#DejaVuSans-2212"/>
       <use x="83.789062" xlink:href="#DejaVuSans-31"/>
      </g>
     </g>
    </g>
    <g id="xtick_4">
     <g id="line2d_4">
      <g>
       <use style="stroke:#000000;stroke-width:0.8;" x="524.937405" xlink:href="#md640314575" y="461.58"/>
      </g>
     </g>
     <g id="text_4">
      <!-- 0 -->
      <g transform="translate(520.16553 479.977656)scale(0.15 -0.15)">
       <defs>
        <path d="M 2034 4250 
Q 1547 4250 1301 3770 
Q 1056 3291 1056 2328 
Q 1056 1369 1301 889 
Q 1547 409 2034 409 
Q 2525 409 2770 889 
Q 3016 1369 3016 2328 
Q 3016 3291 2770 3770 
Q 2525 4250 2034 4250 
z
M 2034 4750 
Q 2819 4750 3233 4129 
Q 3647 3509 3647 2328 
Q 3647 1150 3233 529 
Q 2819 -91 2034 -91 
Q 1250 -91 836 529 
Q 422 1150 422 2328 
Q 422 3509 836 4129 
Q 1250 4750 2034 4750 
z
" id="DejaVuSans-30" transform="scale(0.015625)"/>
       </defs>
       <use xlink:href="#DejaVuSans-30"/>
      </g>
     </g>
    </g>
    <g id="xtick_5">
     <g id="line2d_5">
      <g>
       <use style="stroke:#000000;stroke-width:0.8;" x="663.073624" xlink:href="#md640314575" y="461.58"/>
      </g>
     </g>
     <g id="text_5">
      <!-- 1 -->
      <g transform="translate(658.301749 479.977656)scale(0.15 -0.15)">
       <use xlink:href="#DejaVuSans-31"/>
      </g>
     </g>
    </g>
    <g id="xtick_6">
     <g id="line2d_6">
      <g>
       <use style="stroke:#000000;stroke-width:0.8;" x="801.209843" xlink:href="#md640314575" y="461.58"/>
      </g>
     </g>
     <g id="text_6">
      <!-- 2 -->
      <g transform="translate(796.437968 479.977656)scale(0.15 -0.15)">
       <use xlink:href="#DejaVuSans-32"/>
      </g>
     </g>
    </g>
    <g id="text_7">
     <!-- Wavenumber (in cm$^{-1}$) -->
     <g transform="translate(386.030469 499.577656)scale(0.15 -0.15)">
      <defs>
       <path d="M 213 4666 
L 850 4666 
L 1831 722 
L 2809 4666 
L 3519 4666 
L 4500 722 
L 5478 4666 
L 6119 4666 
L 4947 0 
L 4153 0 
L 3169 4050 
L 2175 0 
L 1381 0 
L 213 4666 
z
" id="DejaVuSans-57" transform="scale(0.015625)"/>
       <path d="M 2194 1759 
Q 1497 1759 1228 1600 
Q 959 1441 959 1056 
Q 959 750 1161 570 
Q 1363 391 1709 391 
Q 2188 391 2477 730 
Q 2766 1069 2766 1631 
L 2766 1759 
L 2194 1759 
z
M 3341 1997 
L 3341 0 
L 2766 0 
L 2766 531 
Q 2569 213 2275 61 
Q 1981 -91 1556 -91 
Q 1019 -91 701 211 
Q 384 513 384 1019 
Q 384 1609 779 1909 
Q 1175 2209 1959 2209 
L 2766 2209 
L 2766 2266 
Q 2766 2663 2505 2880 
Q 2244 3097 1772 3097 
Q 1472 3097 1187 3025 
Q 903 2953 641 2809 
L 641 3341 
Q 956 3463 1253 3523 
Q 1550 3584 1831 3584 
Q 2591 3584 2966 3190 
Q 3341 2797 3341 1997 
z
" id="DejaVuSans-61" transform="scale(0.015625)"/>
       <path d="M 191 3500 
L 800 3500 
L 1894 563 
L 2988 3500 
L 3597 3500 
L 2284 0 
L 1503 0 
L 191 3500 
z
" id="DejaVuSans-76" transform="scale(0.015625)"/>
       <path d="M 3597 1894 
L 3597 1613 
L 953 1613 
Q 991 1019 1311 708 
Q 1631 397 2203 397 
Q 2534 397 2845 478 
Q 3156 559 3463 722 
L 3463 178 
Q 3153 47 2828 -22 
Q 2503 -91 2169 -91 
Q 1331 -91 842 396 
Q 353 884 353 1716 
Q 353 2575 817 3079 
Q 1281 3584 2069 3584 
Q 2775 3584 3186 3129 
Q 3597 2675 3597 1894 
z
M 3022 2063 
Q 3016 2534 2758 2815 
Q 2500 3097 2075 3097 
Q 1594 3097 1305 2825 
Q 1016 2553 972 2059 
L 3022 2063 
z
" id="DejaVuSans-65" transform="scale(0.015625)"/>
       <path d="M 3513 2113 
L 3513 0 
L 2938 0 
L 2938 2094 
Q 2938 2591 2744 2837 
Q 2550 3084 2163 3084 
Q 1697 3084 1428 2787 
Q 1159 2491 1159 1978 
L 1159 0 
L 581 0 
L 581 3500 
L 1159 3500 
L 1159 2956 
Q 1366 3272 1645 3428 
Q 1925 3584 2291 3584 
Q 2894 3584 3203 3211 
Q 3513 2838 3513 2113 
z
" id="DejaVuSans-6e" transform="scale(0.015625)"/>
       <path d="M 544 1381 
L 544 3500 
L 1119 3500 
L 1119 1403 
Q 1119 906 1312 657 
Q 1506 409 1894 409 
Q 2359 409 2629 706 
Q 2900 1003 2900 1516 
L 2900 3500 
L 3475 3500 
L 3475 0 
L 2900 0 
L 2900 538 
Q 2691 219 2414 64 
Q 2138 -91 1772 -91 
Q 1169 -91 856 284 
Q 544 659 544 1381 
z
M 1991 3584 
L 1991 3584 
z
" id="DejaVuSans-75" transform="scale(0.015625)"/>
       <path d="M 3328 2828 
Q 3544 3216 3844 3400 
Q 4144 3584 4550 3584 
Q 5097 3584 5394 3201 
Q 5691 2819 5691 2113 
L 5691 0 
L 5113 0 
L 5113 2094 
Q 5113 2597 4934 2840 
Q 4756 3084 4391 3084 
Q 3944 3084 3684 2787 
Q 3425 2491 3425 1978 
L 3425 0 
L 2847 0 
L 2847 2094 
Q 2847 2600 2669 2842 
Q 2491 3084 2119 3084 
Q 1678 3084 1418 2786 
Q 1159 2488 1159 1978 
L 1159 0 
L 581 0 
L 581 3500 
L 1159 3500 
L 1159 2956 
Q 1356 3278 1631 3431 
Q 1906 3584 2284 3584 
Q 2666 3584 2933 3390 
Q 3200 3197 3328 2828 
z
" id="DejaVuSans-6d" transform="scale(0.015625)"/>
       <path d="M 3116 1747 
Q 3116 2381 2855 2742 
Q 2594 3103 2138 3103 
Q 1681 3103 1420 2742 
Q 1159 2381 1159 1747 
Q 1159 1113 1420 752 
Q 1681 391 2138 391 
Q 2594 391 2855 752 
Q 3116 1113 3116 1747 
z
M 1159 2969 
Q 1341 3281 1617 3432 
Q 1894 3584 2278 3584 
Q 2916 3584 3314 3078 
Q 3713 2572 3713 1747 
Q 3713 922 3314 415 
Q 2916 -91 2278 -91 
Q 1894 -91 1617 61 
Q 1341 213 1159 525 
L 1159 0 
L 581 0 
L 581 4863 
L 1159 4863 
L 1159 2969 
z
" id="DejaVuSans-62" transform="scale(0.015625)"/>
       <path d="M 2631 2963 
Q 2534 3019 2420 3045 
Q 2306 3072 2169 3072 
Q 1681 3072 1420 2755 
Q 1159 2438 1159 1844 
L 1159 0 
L 581 0 
L 581 3500 
L 1159 3500 
L 1159 2956 
Q 1341 3275 1631 3429 
Q 1922 3584 2338 3584 
Q 2397 3584 2469 3576 
Q 2541 3569 2628 3553 
L 2631 2963 
z
" id="DejaVuSans-72" transform="scale(0.015625)"/>
       <path id="DejaVuSans-20" transform="scale(0.015625)"/>
       <path d="M 1984 4856 
Q 1566 4138 1362 3434 
Q 1159 2731 1159 2009 
Q 1159 1288 1364 580 
Q 1569 -128 1984 -844 
L 1484 -844 
Q 1016 -109 783 600 
Q 550 1309 550 2009 
Q 550 2706 781 3412 
Q 1013 4119 1484 4856 
L 1984 4856 
z
" id="DejaVuSans-28" transform="scale(0.015625)"/>
       <path d="M 603 3500 
L 1178 3500 
L 1178 0 
L 603 0 
L 603 3500 
z
M 603 4863 
L 1178 4863 
L 1178 4134 
L 603 4134 
L 603 4863 
z
" id="DejaVuSans-69" transform="scale(0.015625)"/>
       <path d="M 3122 3366 
L 3122 2828 
Q 2878 2963 2633 3030 
Q 2388 3097 2138 3097 
Q 1578 3097 1268 2742 
Q 959 2388 959 1747 
Q 959 1106 1268 751 
Q 1578 397 2138 397 
Q 2388 397 2633 464 
Q 2878 531 3122 666 
L 3122 134 
Q 2881 22 2623 -34 
Q 2366 -91 2075 -91 
Q 1284 -91 818 406 
Q 353 903 353 1747 
Q 353 2603 823 3093 
Q 1294 3584 2113 3584 
Q 2378 3584 2631 3529 
Q 2884 3475 3122 3366 
z
" id="DejaVuSans-63" transform="scale(0.015625)"/>
       <path d="M 513 4856 
L 1013 4856 
Q 1481 4119 1714 3412 
Q 1947 2706 1947 2009 
Q 1947 1309 1714 600 
Q 1481 -109 1013 -844 
L 513 -844 
Q 928 -128 1133 580 
Q 1338 1288 1338 2009 
Q 1338 2731 1133 3434 
Q 928 4138 513 4856 
z
" id="DejaVuSans-29" transform="scale(0.015625)"/>
      </defs>
      <use transform="translate(0 0.684375)" xlink:href="#DejaVuSans-57"/>
      <use transform="translate(98.876953 0.684375)" xlink:href="#DejaVuSans-61"/>
      <use transform="translate(160.15625 0.684375)" xlink:href="#DejaVuSans-76"/>
      <use transform="translate(219.335938 0.684375)" xlink:href="#DejaVuSans-65"/>
      <use transform="translate(280.859375 0.684375)" xlink:href="#DejaVuSans-6e"/>
      <use transform="translate(344.238281 0.684375)" xlink:href="#DejaVuSans-75"/>
      <use transform="translate(407.617188 0.684375)" xlink:href="#DejaVuSans-6d"/>
      <use transform="translate(505.029297 0.684375)" xlink:href="#DejaVuSans-62"/>
      <use transform="translate(568.505859 0.684375)" xlink:href="#DejaVuSans-65"/>
      <use transform="translate(630.029297 0.684375)" xlink:href="#DejaVuSans-72"/>
      <use transform="translate(671.142578 0.684375)" xlink:href="#DejaVuSans-20"/>
      <use transform="translate(702.929688 0.684375)" xlink:href="#DejaVuSans-28"/>
      <use transform="translate(741.943359 0.684375)" xlink:href="#DejaVuSans-69"/>
      <use transform="translate(769.726562 0.684375)" xlink:href="#DejaVuSans-6e"/>
      <use transform="translate(833.105469 0.684375)" xlink:href="#DejaVuSans-20"/>
      <use transform="translate(864.892578 0.684375)" xlink:href="#DejaVuSans-63"/>
      <use transform="translate(919.873047 0.684375)" xlink:href="#DejaVuSans-6d"/>
      <use transform="translate(1018.242188 38.965625)scale(0.7)" xlink:href="#DejaVuSans-2212"/>
      <use transform="translate(1076.894531 38.965625)scale(0.7)" xlink:href="#DejaVuSans-31"/>
      <use transform="translate(1124.165039 0.684375)" xlink:href="#DejaVuSans-29"/>
     </g>
    </g>
   </g>
   <g id="matplotlib.axis_2">
    <g id="ytick_1">
     <g id="line2d_7">
      <defs>
       <path d="M 0 0 
L -3.5 0 
" id="mb2dc597d7a" style="stroke:#000000;stroke-width:0.8;"/>
      </defs>
      <g>
       <use style="stroke:#000000;stroke-width:0.8;" x="54.830469" xlink:href="#mb2dc597d7a" y="405.552375"/>
      </g>
     </g>
     <g id="text_8">
      <!-- −6 -->
      <g transform="translate(25.717188 411.251204)scale(0.15 -0.15)">
       <defs>
        <path d="M 2113 2584 
Q 1688 2584 1439 2293 
Q 1191 2003 1191 1497 
Q 1191 994 1439 701 
Q 1688 409 2113 409 
Q 2538 409 2786 701 
Q 3034 994 3034 1497 
Q 3034 2003 2786 2293 
Q 2538 2584 2113 2584 
z
M 3366 4563 
L 3366 3988 
Q 3128 4100 2886 4159 
Q 2644 4219 2406 4219 
Q 1781 4219 1451 3797 
Q 1122 3375 1075 2522 
Q 1259 2794 1537 2939 
Q 1816 3084 2150 3084 
Q 2853 3084 3261 2657 
Q 3669 2231 3669 1497 
Q 3669 778 3244 343 
Q 2819 -91 2113 -91 
Q 1303 -91 875 529 
Q 447 1150 447 2328 
Q 447 3434 972 4092 
Q 1497 4750 2381 4750 
Q 2619 4750 2861 4703 
Q 3103 4656 3366 4563 
z
" id="DejaVuSans-36" transform="scale(0.015625)"/>
       </defs>
       <use xlink:href="#DejaVuSans-2212"/>
       <use x="83.789062" xlink:href="#DejaVuSans-36"/>
      </g>
     </g>
    </g>
    <g id="ytick_2">
     <g id="line2d_8">
      <g>
       <use style="stroke:#000000;stroke-width:0.8;" x="54.830469" xlink:href="#mb2dc597d7a" y="345.704753"/>
      </g>
     </g>
     <g id="text_9">
      <!-- −5 -->
      <g transform="translate(25.717188 351.403581)scale(0.15 -0.15)">
       <defs>
        <path d="M 691 4666 
L 3169 4666 
L 3169 4134 
L 1269 4134 
L 1269 2991 
Q 1406 3038 1543 3061 
Q 1681 3084 1819 3084 
Q 2600 3084 3056 2656 
Q 3513 2228 3513 1497 
Q 3513 744 3044 326 
Q 2575 -91 1722 -91 
Q 1428 -91 1123 -41 
Q 819 9 494 109 
L 494 744 
Q 775 591 1075 516 
Q 1375 441 1709 441 
Q 2250 441 2565 725 
Q 2881 1009 2881 1497 
Q 2881 1984 2565 2268 
Q 2250 2553 1709 2553 
Q 1456 2553 1204 2497 
Q 953 2441 691 2322 
L 691 4666 
z
" id="DejaVuSans-35" transform="scale(0.015625)"/>
       </defs>
       <use xlink:href="#DejaVuSans-2212"/>
       <use x="83.789062" xlink:href="#DejaVuSans-35"/>
      </g>
     </g>
    </g>
    <g id="ytick_3">
     <g id="line2d_9">
      <g>
       <use style="stroke:#000000;stroke-width:0.8;" x="54.830469" xlink:href="#mb2dc597d7a" y="285.857131"/>
      </g>
     </g>
     <g id="text_10">
      <!-- −4 -->
      <g transform="translate(25.717188 291.555959)scale(0.15 -0.15)">
       <defs>
        <path d="M 2419 4116 
L 825 1625 
L 2419 1625 
L 2419 4116 
z
M 2253 4666 
L 3047 4666 
L 3047 1625 
L 3713 1625 
L 3713 1100 
L 3047 1100 
L 3047 0 
L 2419 0 
L 2419 1100 
L 313 1100 
L 313 1709 
L 2253 4666 
z
" id="DejaVuSans-34" transform="scale(0.015625)"/>
       </defs>
       <use xlink:href="#DejaVuSans-2212"/>
       <use x="83.789062" xlink:href="#DejaVuSans-34"/>
      </g>
     </g>
    </g>
    <g id="ytick_4">
     <g id="line2d_10">
      <g>
       <use style="stroke:#000000;stroke-width:0.8;" x="54.830469" xlink:href="#mb2dc597d7a" y="226.009508"/>
      </g>
     </g>
     <g id="text_11">
      <!-- −3 -->
      <g transform="translate(25.717188 231.708336)scale(0.15 -0.15)">
       <use xlink:href="#DejaVuSans-2212"/>
       <use x="83.789062" xlink:href="#DejaVuSans-33"/>
      </g>
     </g>
    </g>
    <g id="ytick_5">
     <g id="line2d_11">
      <g>
       <use style="stroke:#000000;stroke-width:0.8;" x="54.830469" xlink:href="#mb2dc597d7a" y="166.161886"/>
      </g>
     </g>
     <g id="text_12">
      <!-- −2 -->
      <g transform="translate(25.717188 171.860714)scale(0.15 -0.15)">
       <use xlink:href="#DejaVuSans-2212"/>
       <use x="83.789062" xlink:href="#DejaVuSans-32"/>
      </g>
     </g>
    </g>
    <g id="ytick_6">
     <g id="line2d_12">
      <g>
       <use style="stroke:#000000;stroke-width:0.8;" x="54.830469" xlink:href="#mb2dc597d7a" y="106.314263"/>
      </g>
     </g>
     <g id="text_13">
      <!-- −1 -->
      <g transform="translate(25.717188 112.013092)scale(0.15 -0.15)">
       <use xlink:href="#DejaVuSans-2212"/>
       <use x="83.789062" xlink:href="#DejaVuSans-31"/>
      </g>
     </g>
    </g>
    <g id="ytick_7">
     <g id="line2d_13">
      <g>
       <use style="stroke:#000000;stroke-width:0.8;" x="54.830469" xlink:href="#mb2dc597d7a" y="46.466641"/>
      </g>
     </g>
     <g id="text_14">
      <!-- 0 -->
      <g transform="translate(38.286719 52.165469)scale(0.15 -0.15)">
       <use xlink:href="#DejaVuSans-30"/>
      </g>
     </g>
    </g>
    <g id="text_15">
     <!-- Normalized Intensity -->
     <g transform="translate(18.597656 321.700547)rotate(-90)scale(0.15 -0.15)">
      <defs>
       <path d="M 628 4666 
L 1478 4666 
L 3547 763 
L 3547 4666 
L 4159 4666 
L 4159 0 
L 3309 0 
L 1241 3903 
L 1241 0 
L 628 0 
L 628 4666 
z
" id="DejaVuSans-4e" transform="scale(0.015625)"/>
       <path d="M 1959 3097 
Q 1497 3097 1228 2736 
Q 959 2375 959 1747 
Q 959 1119 1226 758 
Q 1494 397 1959 397 
Q 2419 397 2687 759 
Q 2956 1122 2956 1747 
Q 2956 2369 2687 2733 
Q 2419 3097 1959 3097 
z
M 1959 3584 
Q 2709 3584 3137 3096 
Q 3566 2609 3566 1747 
Q 3566 888 3137 398 
Q 2709 -91 1959 -91 
Q 1206 -91 779 398 
Q 353 888 353 1747 
Q 353 2609 779 3096 
Q 1206 3584 1959 3584 
z
" id="DejaVuSans-6f" transform="scale(0.015625)"/>
       <path d="M 603 4863 
L 1178 4863 
L 1178 0 
L 603 0 
L 603 4863 
z
" id="DejaVuSans-6c" transform="scale(0.015625)"/>
       <path d="M 353 3500 
L 3084 3500 
L 3084 2975 
L 922 459 
L 3084 459 
L 3084 0 
L 275 0 
L 275 525 
L 2438 3041 
L 353 3041 
L 353 3500 
z
" id="DejaVuSans-7a" transform="scale(0.015625)"/>
       <path d="M 2906 2969 
L 2906 4863 
L 3481 4863 
L 3481 0 
L 2906 0 
L 2906 525 
Q 2725 213 2448 61 
Q 2172 -91 1784 -91 
Q 1150 -91 751 415 
Q 353 922 353 1747 
Q 353 2572 751 3078 
Q 1150 3584 1784 3584 
Q 2172 3584 2448 3432 
Q 2725 3281 2906 2969 
z
M 947 1747 
Q 947 1113 1208 752 
Q 1469 391 1925 391 
Q 2381 391 2643 752 
Q 2906 1113 2906 1747 
Q 2906 2381 2643 2742 
Q 2381 3103 1925 3103 
Q 1469 3103 1208 2742 
Q 947 2381 947 1747 
z
" id="DejaVuSans-64" transform="scale(0.015625)"/>
       <path d="M 628 4666 
L 1259 4666 
L 1259 0 
L 628 0 
L 628 4666 
z
" id="DejaVuSans-49" transform="scale(0.015625)"/>
       <path d="M 1172 4494 
L 1172 3500 
L 2356 3500 
L 2356 3053 
L 1172 3053 
L 1172 1153 
Q 1172 725 1289 603 
Q 1406 481 1766 481 
L 2356 481 
L 2356 0 
L 1766 0 
Q 1100 0 847 248 
Q 594 497 594 1153 
L 594 3053 
L 172 3053 
L 172 3500 
L 594 3500 
L 594 4494 
L 1172 4494 
z
" id="DejaVuSans-74" transform="scale(0.015625)"/>
       <path d="M 2834 3397 
L 2834 2853 
Q 2591 2978 2328 3040 
Q 2066 3103 1784 3103 
Q 1356 3103 1142 2972 
Q 928 2841 928 2578 
Q 928 2378 1081 2264 
Q 1234 2150 1697 2047 
L 1894 2003 
Q 2506 1872 2764 1633 
Q 3022 1394 3022 966 
Q 3022 478 2636 193 
Q 2250 -91 1575 -91 
Q 1294 -91 989 -36 
Q 684 19 347 128 
L 347 722 
Q 666 556 975 473 
Q 1284 391 1588 391 
Q 1994 391 2212 530 
Q 2431 669 2431 922 
Q 2431 1156 2273 1281 
Q 2116 1406 1581 1522 
L 1381 1569 
Q 847 1681 609 1914 
Q 372 2147 372 2553 
Q 372 3047 722 3315 
Q 1072 3584 1716 3584 
Q 2034 3584 2315 3537 
Q 2597 3491 2834 3397 
z
" id="DejaVuSans-73" transform="scale(0.015625)"/>
       <path d="M 2059 -325 
Q 1816 -950 1584 -1140 
Q 1353 -1331 966 -1331 
L 506 -1331 
L 506 -850 
L 844 -850 
Q 1081 -850 1212 -737 
Q 1344 -625 1503 -206 
L 1606 56 
L 191 3500 
L 800 3500 
L 1894 763 
L 2988 3500 
L 3597 3500 
L 2059 -325 
z
" id="DejaVuSans-79" transform="scale(0.015625)"/>
      </defs>
      <use xlink:href="#DejaVuSans-4e"/>
      <use x="74.804688" xlink:href="#DejaVuSans-6f"/>
      <use x="135.986328" xlink:href="#DejaVuSans-72"/>
      <use x="175.349609" xlink:href="#DejaVuSans-6d"/>
      <use x="272.761719" xlink:href="#DejaVuSans-61"/>
      <use x="334.041016" xlink:href="#DejaVuSans-6c"/>
      <use x="361.824219" xlink:href="#DejaVuSans-69"/>
      <use x="389.607422" xlink:href="#DejaVuSans-7a"/>
      <use x="442.097656" xlink:href="#DejaVuSans-65"/>
      <use x="503.621094" xlink:href="#DejaVuSans-64"/>
      <use x="567.097656" xlink:href="#DejaVuSans-20"/>
      <use x="598.884766" xlink:href="#DejaVuSans-49"/>
      <use x="628.376953" xlink:href="#DejaVuSans-6e"/>
      <use x="691.755859" xlink:href="#DejaVuSans-74"/>
      <use x="730.964844" xlink:href="#DejaVuSans-65"/>
      <use x="792.488281" xlink:href="#DejaVuSans-6e"/>
      <use x="855.867188" xlink:href="#DejaVuSans-73"/>
      <use x="907.966797" xlink:href="#DejaVuSans-69"/>
      <use x="935.75" xlink:href="#DejaVuSans-74"/>
      <use x="974.958984" xlink:href="#DejaVuSans-79"/>
     </g>
    </g>
    <g id="text_16">
     <!-- 1e6 -->
     <g transform="translate(54.830469 23.7)scale(0.1 -0.1)">
      <use xlink:href="#DejaVuSans-31"/>
      <use x="63.623047" xlink:href="#DejaVuSans-65"/>
      <use x="125.146484" xlink:href="#DejaVuSans-36"/>
     </g>
    </g>
   </g>
   <g id="line2d_14">
    <path clip-path="url(#paf62d44e22)" d="M 379.680119 46.467322 
L 426.505294 46.580313 
L 441.138161 46.825391 
L 452.844455 47.239887 
L 462.5997 47.794014 
L 472.354944 48.555088 
L 485.036762 49.791456 
L 504.547252 51.726022 
L 513.326972 52.33926 
L 520.155644 52.614376 
L 526.984315 52.682296 
L 533.812986 52.535096 
L 541.617182 52.120179 
L 550.396902 51.398691 
L 563.07872 50.090059 
L 578.687112 48.511473 
L 588.442357 47.740854 
L 598.197602 47.189623 
L 608.928371 46.813092 
L 622.585714 46.580648 
L 644.047252 46.479903 
L 668.435364 46.467273 
L 668.435364 46.467273 
" style="fill:none;stroke:#e98768;stroke-linecap:square;stroke-width:1.5;"/>
   </g>
   <g id="line2d_15">
    <path clip-path="url(#paf62d44e22)" d="M 317.246553 46.469766 
L 361.145154 46.588635 
L 376.753546 46.839873 
L 387.484315 47.217367 
L 396.264035 47.737262 
L 404.068231 48.423225 
L 410.896902 49.240248 
L 417.725574 50.291666 
L 424.554245 51.596083 
L 431.382916 53.154168 
L 438.211588 54.944463 
L 446.015783 57.21779 
L 458.697602 61.193491 
L 473.330469 65.746433 
L 483.085714 68.558023 
L 491.865434 70.852996 
L 498.694105 72.425585 
L 504.547252 73.572614 
L 510.400399 74.482893 
L 515.278021 75.027144 
L 520.155644 75.355285 
L 525.033266 75.45814 
L 529.910888 75.338475 
L 534.788511 75.009939 
L 540.641658 74.369892 
L 546.494804 73.499726 
L 553.323476 72.237397 
L 560.152147 70.734793 
L 566.980818 68.995454 
L 573.80949 67.015802 
L 580.638161 64.809211 
L 589.417881 61.721166 
L 606.001797 55.819283 
L 612.830469 53.669637 
L 618.683616 52.059076 
L 624.536762 50.6913 
L 630.389909 49.571302 
L 636.243056 48.686235 
L 642.096203 48.01061 
L 648.924874 47.443582 
L 656.72907 47.020593 
L 666.484315 46.722246 
L 680.141658 46.544002 
L 706.480818 46.472363 
L 712.333965 46.469737 
L 712.333965 46.469737 
" style="fill:none;stroke:#de5d5c;stroke-linecap:square;stroke-width:1.5;"/>
   </g>
   <g id="line2d_16">
    <path clip-path="url(#paf62d44e22)" d="M 195.305993 46.476653 
L 244.082217 46.61404 
L 264.568231 46.889429 
L 279.201098 47.305273 
L 290.907392 47.862584 
L 300.662637 48.552026 
L 309.442357 49.410077 
L 317.246553 50.414703 
L 324.075224 51.522042 
L 329.928371 52.669946 
L 335.781518 54.026417 
L 341.634665 55.614853 
L 347.487811 57.45706 
L 353.340958 59.5718 
L 358.218581 61.55256 
L 363.096203 63.737079 
L 368.94935 66.628006 
L 374.802497 69.804648 
L 380.655644 73.246644 
L 387.484315 77.551538 
L 395.288511 82.753649 
L 415.774525 96.592677 
L 421.627672 100.217352 
L 426.505294 103.016936 
L 431.382916 105.583924 
L 436.260539 107.906711 
L 441.138161 109.995691 
L 446.991308 112.245862 
L 466.501797 119.425973 
L 470.403895 121.188679 
L 474.305993 123.163335 
L 478.208091 125.365637 
L 483.085714 128.422712 
L 488.93886 132.423369 
L 497.718581 138.496102 
L 501.620679 140.915757 
L 504.547252 142.500716 
L 507.473825 143.82829 
L 510.400399 144.850361 
L 512.351448 145.342235 
L 514.302497 145.671864 
L 516.253546 145.833006 
L 518.204595 145.822232 
L 520.155644 145.639088 
L 522.106693 145.286173 
L 524.057741 144.769144 
L 526.984315 143.70555 
L 529.910888 142.333568 
L 532.837462 140.706233 
L 536.73956 138.24844 
L 549.421378 129.888871 
L 552.347951 128.259631 
L 555.274525 126.844445 
L 558.201098 125.668621 
L 561.127672 124.743105 
L 564.054245 124.06459 
L 566.980818 123.616365 
L 569.907392 123.369814 
L 573.80949 123.287099 
L 579.662637 123.458729 
L 585.515783 123.610286 
L 589.417881 123.497039 
L 592.344455 123.223511 
L 595.271028 122.747437 
L 598.197602 122.04019 
L 601.124175 121.081267 
L 604.050748 119.858431 
L 606.977322 118.367535 
L 609.903895 116.612066 
L 612.830469 114.602471 
L 615.757042 112.355328 
L 619.65914 109.027834 
L 623.561238 105.379799 
L 628.43886 100.478371 
L 635.267532 93.246713 
L 645.998301 81.884813 
L 650.875923 77.024874 
L 655.753546 72.487202 
L 659.655644 69.132149 
L 663.557741 66.045115 
L 667.459839 63.237973 
L 671.361937 60.714291 
L 675.264035 58.470445 
L 679.166133 56.496837 
L 683.068231 54.779157 
L 686.970329 53.299616 
L 690.872427 52.038098 
L 694.774525 50.973193 
L 699.652147 49.885348 
L 704.529769 49.02895 
L 710.382916 48.251786 
L 717.211588 47.614526 
L 725.015783 47.14363 
L 734.771028 46.807175 
L 748.428371 46.593882 
L 771.840958 46.491986 
L 786.473825 46.476777 
L 786.473825 46.476777 
" style="fill:none;stroke:#c14168;stroke-linecap:square;stroke-width:1.5;"/>
   </g>
   <g id="line2d_17">
    <path clip-path="url(#paf62d44e22)" d="M 105.557741 46.493469 
L 135.799 46.667601 
L 155.30949 46.992865 
L 169.942357 47.44059 
L 181.648651 48.002775 
L 191.403895 48.683596 
L 199.208091 49.427631 
L 206.036762 50.274622 
L 212.865434 51.357218 
L 218.718581 52.517674 
L 223.596203 53.680333 
L 228.473825 55.047631 
L 233.351448 56.644452 
L 238.22907 58.493961 
L 243.106693 60.616006 
L 247.984315 63.025518 
L 252.861937 65.731122 
L 257.73956 68.734193 
L 262.617182 72.02853 
L 267.494804 75.600777 
L 272.372427 79.431569 
L 278.225574 84.336336 
L 284.07872 89.534646 
L 290.907392 95.911835 
L 298.711588 103.537653 
L 307.491308 112.462562 
L 317.246553 122.719613 
L 329.928371 136.426448 
L 349.43886 157.561623 
L 357.243056 165.647799 
L 363.096203 171.424471 
L 368.94935 176.874813 
L 373.826972 181.118838 
L 378.704595 185.05526 
L 383.582217 188.656144 
L 387.484315 191.281695 
L 391.386413 193.674192 
L 395.288511 195.832928 
L 399.190609 197.762643 
L 403.092707 199.47421 
L 407.970329 201.33463 
L 412.847951 202.934088 
L 418.701098 204.612953 
L 430.407392 207.895164 
L 434.30949 209.232689 
L 438.211588 210.839347 
L 441.138161 212.28084 
L 444.064734 213.973352 
L 446.991308 215.960432 
L 449.917881 218.284263 
L 452.844455 220.98403 
L 455.771028 224.094037 
L 458.697602 227.641614 
L 461.624175 231.644855 
L 464.550748 236.110283 
L 467.477322 241.030542 
L 470.403895 246.382246 
L 474.305993 254.114934 
L 478.208091 262.387733 
L 491.865434 291.976594 
L 494.792007 297.522901 
L 496.743056 300.878428 
L 498.694105 303.904407 
L 500.645154 306.554628 
L 502.596203 308.785427 
L 504.547252 310.556588 
L 506.498301 311.832247 
L 507.473825 312.274453 
L 508.44935 312.581733 
L 509.424874 312.751193 
L 510.400399 312.780359 
L 511.375923 312.667194 
L 512.351448 312.410116 
L 513.326972 312.008014 
L 514.302497 311.460261 
L 515.278021 310.766722 
L 517.22907 308.944283 
L 519.180119 306.549795 
L 521.131168 303.600557 
L 523.082217 300.121969 
L 525.033266 296.147267 
L 526.984315 291.717081 
L 529.910888 284.323194 
L 532.837462 276.197283 
L 536.73956 264.58662 
L 546.494804 235.021197 
L 549.421378 226.91487 
L 552.347951 219.513219 
L 554.299 215.049624 
L 556.250049 211.009083 
L 558.201098 207.423715 
L 560.152147 204.318572 
L 562.103196 201.71155 
L 564.054245 199.613426 
L 566.005294 198.028029 
L 567.956343 196.952522 
L 568.931867 196.603359 
L 569.907392 196.377783 
L 570.882916 196.273749 
L 571.858441 196.28888 
L 572.833965 196.42049 
L 574.785014 197.020948 
L 576.736063 198.048097 
L 578.687112 199.471154 
L 580.638161 201.256215 
L 582.58921 203.366891 
L 584.540259 205.764925 
L 587.466832 209.81407 
L 590.393406 214.284679 
L 594.295504 220.666618 
L 604.050748 236.850406 
L 606.977322 241.300846 
L 609.903895 245.390643 
L 612.830469 249.039509 
L 614.781518 251.192607 
L 616.732567 253.101188 
L 618.683616 254.749752 
L 620.634665 256.124912 
L 622.585714 257.215331 
L 624.536762 258.011652 
L 626.487811 258.506428 
L 628.43886 258.694044 
L 630.389909 258.570642 
L 632.340958 258.134037 
L 634.292007 257.383646 
L 636.243056 256.320408 
L 638.194105 254.946709 
L 640.145154 253.266309 
L 642.096203 251.284274 
L 644.047252 249.006906 
L 645.998301 246.441679 
L 647.94935 243.597174 
L 650.875923 238.828117 
L 653.802497 233.489236 
L 656.72907 227.621794 
L 659.655644 221.271286 
L 663.557741 212.138294 
L 667.459839 202.360978 
L 672.337462 189.440416 
L 679.166133 170.551678 
L 689.896902 140.742053 
L 694.774525 127.826329 
L 698.676623 118.018487 
L 702.57872 108.790721 
L 706.480818 100.226767 
L 709.407392 94.277236 
L 712.333965 88.753338 
L 715.260539 83.664811 
L 718.187112 79.014106 
L 721.113686 74.796821 
L 724.040259 71.002311 
L 726.966832 67.614465 
L 729.893406 64.612597 
L 732.819979 61.972414 
L 735.746553 59.666998 
L 738.673126 57.667774 
L 741.5997 55.945419 
L 744.526273 54.470674 
L 747.452846 53.215042 
L 751.354944 51.835006 
L 755.257042 50.737045 
L 759.15914 49.868499 
L 764.036762 49.036913 
L 769.889909 48.317592 
L 776.718581 47.744651 
L 785.498301 47.2744 
L 797.204595 46.910902 
L 813.788511 46.651794 
L 839.152147 46.505777 
L 844.029769 46.49442 
L 844.029769 46.49442 
" style="fill:none;stroke:#9a3670;stroke-linecap:square;stroke-width:1.5;"/>
   </g>
   <g id="line2d_18">
    <path clip-path="url(#paf62d44e22)" d="M 92.875923 46.50651 
L 113.361937 46.686124 
L 127.01928 47.017723 
L 137.750049 47.489956 
L 147.505294 48.145069 
L 156.285014 48.968436 
L 164.08921 49.928259 
L 170.917881 50.980254 
L 177.746553 52.270183 
L 183.5997 53.602086 
L 189.452846 55.183193 
L 194.330469 56.724527 
L 199.208091 58.502719 
L 204.085714 60.553536 
L 207.987811 62.417005 
L 211.889909 64.502041 
L 215.792007 66.831289 
L 219.694105 69.427671 
L 223.596203 72.313605 
L 227.498301 75.510047 
L 231.400399 79.035363 
L 235.302497 82.904091 
L 239.204595 87.125658 
L 243.106693 91.703153 
L 247.00879 96.63227 
L 250.910888 101.900543 
L 255.788511 108.930038 
L 260.666133 116.396784 
L 266.51928 125.824053 
L 274.323476 138.921385 
L 291.882916 168.641041 
L 298.711588 179.658963 
L 304.564734 188.688599 
L 310.417881 197.288439 
L 316.271028 205.436259 
L 321.148651 211.872786 
L 326.026273 217.982659 
L 330.903895 223.758595 
L 335.781518 229.189369 
L 340.65914 234.259328 
L 345.536762 238.949125 
L 349.43886 242.412973 
L 353.340958 245.609223 
L 357.243056 248.528515 
L 361.145154 251.163945 
L 365.047252 253.512246 
L 368.94935 255.57492 
L 372.851448 257.359291 
L 376.753546 258.879384 
L 380.655644 260.156581 
L 384.557741 261.22 
L 389.435364 262.305647 
L 396.264035 263.534441 
L 406.01928 265.260262 
L 409.921378 266.143883 
L 413.823476 267.247592 
L 416.750049 268.266574 
L 419.676623 269.487154 
L 422.603196 270.944257 
L 425.529769 272.673627 
L 428.456343 274.711715 
L 431.382916 277.095463 
L 434.30949 279.861992 
L 437.236063 283.0481 
L 440.162637 286.689578 
L 443.08921 290.820263 
L 446.015783 295.470841 
L 448.942357 300.667349 
L 451.86893 306.429413 
L 454.795504 312.768211 
L 457.722077 319.684243 
L 460.648651 327.164953 
L 463.575224 335.182323 
L 467.477322 346.624983 
L 471.37942 358.77382 
L 478.208091 380.991793 
L 484.061238 399.833913 
L 487.963336 411.543255 
L 490.889909 419.535193 
L 492.840958 424.368531 
L 494.792007 428.732354 
L 496.743056 432.564721 
L 498.694105 435.80604 
L 500.645154 438.400167 
L 501.620679 439.438201 
L 502.596203 440.295506 
L 503.571727 440.966521 
L 504.547252 441.446109 
L 505.522776 441.72958 
L 506.498301 441.812727 
L 507.473825 441.691851 
L 508.44935 441.363791 
L 509.424874 440.825946 
L 510.400399 440.076301 
L 511.375923 439.113445 
L 512.351448 437.93659 
L 513.326972 436.545589 
L 515.278021 433.123824 
L 517.22907 428.860153 
L 519.180119 423.777311 
L 521.131168 417.908726 
L 523.082217 411.298281 
L 525.033266 403.999858 
L 527.959839 391.902935 
L 530.886413 378.650541 
L 534.788511 359.676479 
L 547.470329 296.378216 
L 550.396902 283.274235 
L 553.323476 271.315829 
L 555.274525 264.086762 
L 557.225574 257.514567 
L 559.176623 251.642486 
L 561.127672 246.504476 
L 563.07872 242.125181 
L 565.029769 238.520064 
L 566.980818 235.695688 
L 567.956343 234.575994 
L 568.931867 233.650128 
L 569.907392 232.916611 
L 570.882916 232.373503 
L 571.858441 232.018428 
L 572.833965 231.848592 
L 573.80949 231.860812 
L 574.785014 232.05153 
L 575.760539 232.41685 
L 576.736063 232.952548 
L 577.711588 233.654111 
L 578.687112 234.516748 
L 580.638161 236.704882 
L 582.58921 239.474137 
L 584.540259 242.778878 
L 586.491308 246.571375 
L 588.442357 250.802468 
L 591.36893 257.862075 
L 594.295504 265.6268 
L 598.197602 276.788649 
L 604.050748 294.499593 
L 611.854944 318.126435 
L 615.757042 329.270297 
L 618.683616 337.122782 
L 621.610189 344.436235 
L 624.536762 351.124743 
L 627.463336 357.110357 
L 629.414385 360.67514 
L 631.365434 363.876843 
L 633.316483 366.697585 
L 635.267532 369.120748 
L 637.218581 371.130943 
L 639.16963 372.714 
L 641.120679 373.856958 
L 643.071727 374.548091 
L 644.047252 374.720902 
L 645.022776 374.776934 
L 645.998301 374.715084 
L 646.973825 374.534337 
L 647.94935 374.233765 
L 648.924874 373.812531 
L 650.875923 372.605212 
L 652.826972 370.907644 
L 654.778021 368.71677 
L 656.72907 366.031337 
L 658.680119 362.852035 
L 660.631168 359.181633 
L 662.582217 355.025119 
L 664.533266 350.38984 
L 666.484315 345.285625 
L 668.435364 339.7249 
L 671.361937 330.56167 
L 674.288511 320.468599 
L 677.215084 309.522405 
L 680.141658 297.813589 
L 684.043755 281.196088 
L 688.921378 259.202358 
L 696.725574 222.619771 
L 703.554245 190.966054 
L 708.431867 169.505421 
L 712.333965 153.408667 
L 715.260539 142.092352 
L 718.187112 131.494152 
L 721.113686 121.657586 
L 724.040259 112.608406 
L 726.966832 104.355416 
L 729.893406 96.891844 
L 732.819979 90.19717 
L 735.746553 84.23927 
L 738.673126 78.976753 
L 741.5997 74.36134 
L 744.526273 70.340183 
L 747.452846 66.858008 
L 750.37942 63.859027 
L 753.305993 61.288539 
L 756.232567 59.094219 
L 759.15914 57.227085 
L 762.085714 55.642148 
L 765.012287 54.298791 
L 767.93886 53.160911 
L 771.840958 51.909285 
L 775.743056 50.903793 
L 780.620679 49.915926 
L 785.498301 49.15559 
L 791.351448 48.46399 
L 798.180119 47.87558 
L 806.959839 47.355769 
L 817.690609 46.957083 
L 831.347951 46.679823 
L 850.858441 46.519794 
L 853.785014 46.508783 
L 853.785014 46.508783 
" style="fill:none;stroke:#722c6e;stroke-linecap:square;stroke-width:1.5;"/>
   </g>
   <g id="patch_3">
    <path d="M 54.830469 461.58 
L 54.830469 26.7 
" style="fill:none;stroke:#000000;stroke-linecap:square;stroke-linejoin:miter;stroke-width:0.8;"/>
   </g>
   <g id="patch_4">
    <path d="M 891.830469 461.58 
L 891.830469 26.7 
" style="fill:none;stroke:#000000;stroke-linecap:square;stroke-linejoin:miter;stroke-width:0.8;"/>
   </g>
   <g id="patch_5">
    <path d="M 54.830469 461.58 
L 891.830469 461.58 
" style="fill:none;stroke:#000000;stroke-linecap:square;stroke-linejoin:miter;stroke-width:0.8;"/>
   </g>
   <g id="patch_6">
    <path d="M 54.830469 26.7 
L 891.830469 26.7 
" style="fill:none;stroke:#000000;stroke-linecap:square;stroke-linejoin:miter;stroke-width:0.8;"/>
   </g>
   <g id="text_17">
    <!-- B = 0.00336 cm$^{-1}$   $\Delta B =$ -0.17% ,  $\Delta C =$ -0.17% , sigma = 0.1953 cm$^{-1}$ -->
    <g transform="translate(201.755469 20.7)scale(0.15 -0.15)">
     <defs>
      <path d="M 1259 2228 
L 1259 519 
L 2272 519 
Q 2781 519 3026 730 
Q 3272 941 3272 1375 
Q 3272 1813 3026 2020 
Q 2781 2228 2272 2228 
L 1259 2228 
z
M 1259 4147 
L 1259 2741 
L 2194 2741 
Q 2656 2741 2882 2914 
Q 3109 3088 3109 3444 
Q 3109 3797 2882 3972 
Q 2656 4147 2194 4147 
L 1259 4147 
z
M 628 4666 
L 2241 4666 
Q 2963 4666 3353 4366 
Q 3744 4066 3744 3513 
Q 3744 3084 3544 2831 
Q 3344 2578 2956 2516 
Q 3422 2416 3680 2098 
Q 3938 1781 3938 1306 
Q 3938 681 3513 340 
Q 3088 0 2303 0 
L 628 0 
L 628 4666 
z
" id="DejaVuSans-42" transform="scale(0.015625)"/>
      <path d="M 678 2906 
L 4684 2906 
L 4684 2381 
L 678 2381 
L 678 2906 
z
M 678 1631 
L 4684 1631 
L 4684 1100 
L 678 1100 
L 678 1631 
z
" id="DejaVuSans-3d" transform="scale(0.015625)"/>
      <path d="M 684 794 
L 1344 794 
L 1344 0 
L 684 0 
L 684 794 
z
" id="DejaVuSans-2e" transform="scale(0.015625)"/>
      <path d="M 2188 4044 
L 906 525 
L 3472 525 
L 2188 4044 
z
M 50 0 
L 1831 4666 
L 2547 4666 
L 4325 0 
L 50 0 
z
" id="DejaVuSans-394" transform="scale(0.015625)"/>
      <path d="M 1081 4666 
L 2694 4666 
Q 3350 4666 3675 4422 
Q 4000 4178 4000 3688 
Q 4000 3238 3720 2911 
Q 3441 2584 2988 2516 
Q 3375 2428 3569 2181 
Q 3763 1934 3763 1522 
Q 3763 819 3242 409 
Q 2722 0 1819 0 
L 172 0 
L 1081 4666 
z
M 1234 2228 
L 903 519 
L 1919 519 
Q 2491 519 2800 781 
Q 3109 1044 3109 1522 
Q 3109 1891 2904 2059 
Q 2700 2228 2247 2228 
L 1234 2228 
z
M 1606 4147 
L 1331 2741 
L 2272 2741 
Q 2775 2741 3058 2959 
Q 3341 3178 3341 3566 
Q 3341 3869 3150 4008 
Q 2959 4147 2541 4147 
L 1606 4147 
z
" id="DejaVuSans-Oblique-42" transform="scale(0.015625)"/>
      <path d="M 313 2009 
L 1997 2009 
L 1997 1497 
L 313 1497 
L 313 2009 
z
" id="DejaVuSans-2d" transform="scale(0.015625)"/>
      <path d="M 525 4666 
L 3525 4666 
L 3525 4397 
L 1831 0 
L 1172 0 
L 2766 4134 
L 525 4134 
L 525 4666 
z
" id="DejaVuSans-37" transform="scale(0.015625)"/>
      <path d="M 4653 2053 
Q 4381 2053 4226 1822 
Q 4072 1591 4072 1178 
Q 4072 772 4226 539 
Q 4381 306 4653 306 
Q 4919 306 5073 539 
Q 5228 772 5228 1178 
Q 5228 1588 5073 1820 
Q 4919 2053 4653 2053 
z
M 4653 2450 
Q 5147 2450 5437 2106 
Q 5728 1763 5728 1178 
Q 5728 594 5436 251 
Q 5144 -91 4653 -91 
Q 4153 -91 3862 251 
Q 3572 594 3572 1178 
Q 3572 1766 3864 2108 
Q 4156 2450 4653 2450 
z
M 1428 4353 
Q 1159 4353 1004 4120 
Q 850 3888 850 3481 
Q 850 3069 1003 2837 
Q 1156 2606 1428 2606 
Q 1700 2606 1854 2837 
Q 2009 3069 2009 3481 
Q 2009 3884 1853 4118 
Q 1697 4353 1428 4353 
z
M 4250 4750 
L 4750 4750 
L 1831 -91 
L 1331 -91 
L 4250 4750 
z
M 1428 4750 
Q 1922 4750 2215 4408 
Q 2509 4066 2509 3481 
Q 2509 2891 2217 2550 
Q 1925 2209 1428 2209 
Q 931 2209 642 2551 
Q 353 2894 353 3481 
Q 353 4063 643 4406 
Q 934 4750 1428 4750 
z
" id="DejaVuSans-25" transform="scale(0.015625)"/>
      <path d="M 750 794 
L 1409 794 
L 1409 256 
L 897 -744 
L 494 -744 
L 750 256 
L 750 794 
z
" id="DejaVuSans-2c" transform="scale(0.015625)"/>
      <path d="M 4447 4306 
L 4319 3641 
Q 4019 3944 3683 4091 
Q 3347 4238 2956 4238 
Q 2422 4238 2017 3981 
Q 1613 3725 1319 3200 
Q 1131 2863 1032 2486 
Q 934 2109 934 1728 
Q 934 1091 1264 756 
Q 1594 422 2222 422 
Q 2656 422 3056 561 
Q 3456 700 3834 978 
L 3688 231 
Q 3316 72 2936 -9 
Q 2556 -91 2175 -91 
Q 1278 -91 773 396 
Q 269 884 269 1753 
Q 269 2309 461 2846 
Q 653 3384 1013 3828 
Q 1394 4300 1883 4525 
Q 2372 4750 3022 4750 
Q 3422 4750 3780 4639 
Q 4138 4528 4447 4306 
z
" id="DejaVuSans-Oblique-43" transform="scale(0.015625)"/>
      <path d="M 2906 1791 
Q 2906 2416 2648 2759 
Q 2391 3103 1925 3103 
Q 1463 3103 1205 2759 
Q 947 2416 947 1791 
Q 947 1169 1205 825 
Q 1463 481 1925 481 
Q 2391 481 2648 825 
Q 2906 1169 2906 1791 
z
M 3481 434 
Q 3481 -459 3084 -895 
Q 2688 -1331 1869 -1331 
Q 1566 -1331 1297 -1286 
Q 1028 -1241 775 -1147 
L 775 -588 
Q 1028 -725 1275 -790 
Q 1522 -856 1778 -856 
Q 2344 -856 2625 -561 
Q 2906 -266 2906 331 
L 2906 616 
Q 2728 306 2450 153 
Q 2172 0 1784 0 
Q 1141 0 747 490 
Q 353 981 353 1791 
Q 353 2603 747 3093 
Q 1141 3584 1784 3584 
Q 2172 3584 2450 3431 
Q 2728 3278 2906 2969 
L 2906 3500 
L 3481 3500 
L 3481 434 
z
" id="DejaVuSans-67" transform="scale(0.015625)"/>
      <path d="M 703 97 
L 703 672 
Q 941 559 1184 500 
Q 1428 441 1663 441 
Q 2288 441 2617 861 
Q 2947 1281 2994 2138 
Q 2813 1869 2534 1725 
Q 2256 1581 1919 1581 
Q 1219 1581 811 2004 
Q 403 2428 403 3163 
Q 403 3881 828 4315 
Q 1253 4750 1959 4750 
Q 2769 4750 3195 4129 
Q 3622 3509 3622 2328 
Q 3622 1225 3098 567 
Q 2575 -91 1691 -91 
Q 1453 -91 1209 -44 
Q 966 3 703 97 
z
M 1959 2075 
Q 2384 2075 2632 2365 
Q 2881 2656 2881 3163 
Q 2881 3666 2632 3958 
Q 2384 4250 1959 4250 
Q 1534 4250 1286 3958 
Q 1038 3666 1038 3163 
Q 1038 2656 1286 2365 
Q 1534 2075 1959 2075 
z
" id="DejaVuSans-39" transform="scale(0.015625)"/>
     </defs>
     <use transform="translate(0 0.684375)" xlink:href="#DejaVuSans-42"/>
     <use transform="translate(68.603516 0.684375)" xlink:href="#DejaVuSans-20"/>
     <use transform="translate(100.390625 0.684375)" xlink:href="#DejaVuSans-3d"/>
     <use transform="translate(184.179688 0.684375)" xlink:href="#DejaVuSans-20"/>
     <use transform="translate(215.966797 0.684375)" xlink:href="#DejaVuSans-30"/>
     <use transform="translate(279.589844 0.684375)" xlink:href="#DejaVuSans-2e"/>
     <use transform="translate(311.376953 0.684375)" xlink:href="#DejaVuSans-30"/>
     <use transform="translate(375 0.684375)" xlink:href="#DejaVuSans-30"/>
     <use transform="translate(438.623047 0.684375)" xlink:href="#DejaVuSans-33"/>
     <use transform="translate(502.246094 0.684375)" xlink:href="#DejaVuSans-33"/>
     <use transform="translate(565.869141 0.684375)" xlink:href="#DejaVuSans-36"/>
     <use transform="translate(629.492188 0.684375)" xlink:href="#DejaVuSans-20"/>
     <use transform="translate(661.279297 0.684375)" xlink:href="#DejaVuSans-63"/>
     <use transform="translate(716.259766 0.684375)" xlink:href="#DejaVuSans-6d"/>
     <use transform="translate(814.628906 38.965625)scale(0.7)" xlink:href="#DejaVuSans-2212"/>
     <use transform="translate(873.28125 38.965625)scale(0.7)" xlink:href="#DejaVuSans-31"/>
     <use transform="translate(920.551758 0.684375)" xlink:href="#DejaVuSans-20"/>
     <use transform="translate(952.338867 0.684375)" xlink:href="#DejaVuSans-20"/>
     <use transform="translate(984.125977 0.684375)" xlink:href="#DejaVuSans-20"/>
     <use transform="translate(1015.913086 0.684375)" xlink:href="#DejaVuSans-394"/>
     <use transform="translate(1084.321289 0.684375)" xlink:href="#DejaVuSans-Oblique-42"/>
     <use transform="translate(1172.407227 0.684375)" xlink:href="#DejaVuSans-3d"/>
     <use transform="translate(1275.678711 0.684375)" xlink:href="#DejaVuSans-20"/>
     <use transform="translate(1307.46582 0.684375)" xlink:href="#DejaVuSans-2d"/>
     <use transform="translate(1343.549805 0.684375)" xlink:href="#DejaVuSans-30"/>
     <use transform="translate(1407.172852 0.684375)" xlink:href="#DejaVuSans-2e"/>
     <use transform="translate(1438.959961 0.684375)" xlink:href="#DejaVuSans-31"/>
     <use transform="translate(1502.583008 0.684375)" xlink:href="#DejaVuSans-37"/>
     <use transform="translate(1566.206055 0.684375)" xlink:href="#DejaVuSans-25"/>
     <use transform="translate(1661.225586 0.684375)" xlink:href="#DejaVuSans-20"/>
     <use transform="translate(1693.012695 0.684375)" xlink:href="#DejaVuSans-2c"/>
     <use transform="translate(1724.799805 0.684375)" xlink:href="#DejaVuSans-20"/>
     <use transform="translate(1756.586914 0.684375)" xlink:href="#DejaVuSans-20"/>
     <use transform="translate(1788.374023 0.684375)" xlink:href="#DejaVuSans-394"/>
     <use transform="translate(1856.782227 0.684375)" xlink:href="#DejaVuSans-Oblique-43"/>
     <use transform="translate(1946.088867 0.684375)" xlink:href="#DejaVuSans-3d"/>
     <use transform="translate(2049.360352 0.684375)" xlink:href="#DejaVuSans-20"/>
     <use transform="translate(2081.147461 0.684375)" xlink:href="#DejaVuSans-2d"/>
     <use transform="translate(2117.231445 0.684375)" xlink:href="#DejaVuSans-30"/>
     <use transform="translate(2180.854492 0.684375)" xlink:href="#DejaVuSans-2e"/>
     <use transform="translate(2212.641602 0.684375)" xlink:href="#DejaVuSans-31"/>
     <use transform="translate(2276.264648 0.684375)" xlink:href="#DejaVuSans-37"/>
     <use transform="translate(2339.887695 0.684375)" xlink:href="#DejaVuSans-25"/>
     <use transform="translate(2434.907227 0.684375)" xlink:href="#DejaVuSans-20"/>
     <use transform="translate(2466.694336 0.684375)" xlink:href="#DejaVuSans-2c"/>
     <use transform="translate(2498.481445 0.684375)" xlink:href="#DejaVuSans-20"/>
     <use transform="translate(2530.268555 0.684375)" xlink:href="#DejaVuSans-73"/>
     <use transform="translate(2582.368164 0.684375)" xlink:href="#DejaVuSans-69"/>
     <use transform="translate(2610.151367 0.684375)" xlink:href="#DejaVuSans-67"/>
     <use transform="translate(2673.62793 0.684375)" xlink:href="#DejaVuSans-6d"/>
     <use transform="translate(2771.040039 0.684375)" xlink:href="#DejaVuSans-61"/>
     <use transform="translate(2832.319336 0.684375)" xlink:href="#DejaVuSans-20"/>
     <use transform="translate(2864.106445 0.684375)" xlink:href="#DejaVuSans-3d"/>
     <use transform="translate(2947.895508 0.684375)" xlink:href="#DejaVuSans-20"/>
     <use transform="translate(2979.682617 0.684375)" xlink:href="#DejaVuSans-30"/>
     <use transform="translate(3043.305664 0.684375)" xlink:href="#DejaVuSans-2e"/>
     <use transform="translate(3075.092773 0.684375)" xlink:href="#DejaVuSans-31"/>
     <use transform="translate(3138.71582 0.684375)" xlink:href="#DejaVuSans-39"/>
     <use transform="translate(3202.338867 0.684375)" xlink:href="#DejaVuSans-35"/>
     <use transform="translate(3265.961914 0.684375)" xlink:href="#DejaVuSans-33"/>
     <use transform="translate(3329.584961 0.684375)" xlink:href="#DejaVuSans-20"/>
     <use transform="translate(3361.37207 0.684375)" xlink:href="#DejaVuSans-63"/>
     <use transform="translate(3416.352539 0.684375)" xlink:href="#DejaVuSans-6d"/>
     <use transform="translate(3514.72168 38.965625)scale(0.7)" xlink:href="#DejaVuSans-2212"/>
     <use transform="translate(3573.374023 38.965625)scale(0.7)" xlink:href="#DejaVuSans-31"/>
    </g>
   </g>
   <g id="legend_1">
    <g id="patch_7">
     <path d="M 65.330469 454.08 
L 156.565625 454.08 
Q 159.565625 454.08 159.565625 451.08 
L 159.565625 342.494062 
Q 159.565625 339.494062 156.565625 339.494062 
L 65.330469 339.494062 
Q 62.330469 339.494062 62.330469 342.494062 
L 62.330469 451.08 
Q 62.330469 454.08 65.330469 454.08 
z
" style="fill:#ffffff;opacity:0.8;stroke:#cccccc;stroke-linejoin:miter;"/>
    </g>
    <g id="line2d_19">
     <path d="M 68.330469 351.641719 
L 98.330469 351.641719 
" style="fill:none;stroke:#e98768;stroke-linecap:square;stroke-width:1.5;"/>
    </g>
    <g id="line2d_20"/>
    <g id="text_18">
     <!-- 2.7 K -->
     <g transform="translate(110.330469 356.891719)scale(0.15 -0.15)">
      <defs>
       <path d="M 628 4666 
L 1259 4666 
L 1259 2694 
L 3353 4666 
L 4166 4666 
L 1850 2491 
L 4331 0 
L 3500 0 
L 1259 2247 
L 1259 0 
L 628 0 
L 628 4666 
z
" id="DejaVuSans-4b" transform="scale(0.015625)"/>
      </defs>
      <use xlink:href="#DejaVuSans-32"/>
      <use x="63.623047" xlink:href="#DejaVuSans-2e"/>
      <use x="95.410156" xlink:href="#DejaVuSans-37"/>
      <use x="159.033203" xlink:href="#DejaVuSans-20"/>
      <use x="190.820312" xlink:href="#DejaVuSans-4b"/>
     </g>
    </g>
    <g id="line2d_21">
     <path d="M 68.330469 373.658906 
L 98.330469 373.658906 
" style="fill:none;stroke:#de5d5c;stroke-linecap:square;stroke-width:1.5;"/>
    </g>
    <g id="line2d_22"/>
    <g id="text_19">
     <!-- 10 K -->
     <g transform="translate(110.330469 378.908906)scale(0.15 -0.15)">
      <use xlink:href="#DejaVuSans-31"/>
      <use x="63.623047" xlink:href="#DejaVuSans-30"/>
      <use x="127.246094" xlink:href="#DejaVuSans-20"/>
      <use x="159.033203" xlink:href="#DejaVuSans-4b"/>
     </g>
    </g>
    <g id="line2d_23">
     <path d="M 68.330469 395.676094 
L 98.330469 395.676094 
" style="fill:none;stroke:#c14168;stroke-linecap:square;stroke-width:1.5;"/>
    </g>
    <g id="line2d_24"/>
    <g id="text_20">
     <!-- 30 K -->
     <g transform="translate(110.330469 400.926094)scale(0.15 -0.15)">
      <use xlink:href="#DejaVuSans-33"/>
      <use x="63.623047" xlink:href="#DejaVuSans-30"/>
      <use x="127.246094" xlink:href="#DejaVuSans-20"/>
      <use x="159.033203" xlink:href="#DejaVuSans-4b"/>
     </g>
    </g>
    <g id="line2d_25">
     <path d="M 68.330469 417.693281 
L 98.330469 417.693281 
" style="fill:none;stroke:#9a3670;stroke-linecap:square;stroke-width:1.5;"/>
    </g>
    <g id="line2d_26"/>
    <g id="text_21">
     <!-- 70 K -->
     <g transform="translate(110.330469 422.943281)scale(0.15 -0.15)">
      <use xlink:href="#DejaVuSans-37"/>
      <use x="63.623047" xlink:href="#DejaVuSans-30"/>
      <use x="127.246094" xlink:href="#DejaVuSans-20"/>
      <use x="159.033203" xlink:href="#DejaVuSans-4b"/>
     </g>
    </g>
    <g id="line2d_27">
     <path d="M 68.330469 439.710469 
L 98.330469 439.710469 
" style="fill:none;stroke:#722c6e;stroke-linecap:square;stroke-width:1.5;"/>
    </g>
    <g id="line2d_28"/>
    <g id="text_22">
     <!-- 100 K -->
     <g transform="translate(110.330469 444.960469)scale(0.15 -0.15)">
      <use xlink:href="#DejaVuSans-31"/>
      <use x="63.623047" xlink:href="#DejaVuSans-30"/>
      <use x="127.246094" xlink:href="#DejaVuSans-30"/>
      <use x="190.869141" xlink:href="#DejaVuSans-20"/>
      <use x="222.65625" xlink:href="#DejaVuSans-4b"/>
     </g>
    </g>
   </g>
  </g>
 </g>
 <defs>
  <clipPath id="paf62d44e22">
   <rect height="434.88" width="837" x="54.830469" y="26.7"/>
  </clipPath>
 </defs>
</svg>
