<?xml version="1.0" encoding="utf-8" standalone="no"?>
<!DOCTYPE svg PUBLIC "-//W3C//DTD SVG 1.1//EN"
  "http://www.w3.org/Graphics/SVG/1.1/DTD/svg11.dtd">
<svg height="497.158125pt" version="1.1" viewBox="0 0 894.34375 497.158125" width="894.34375pt" xmlns="http://www.w3.org/2000/svg" xmlns:xlink="http://www.w3.org/1999/xlink">
 <metadata>
  <rdf:RDF xmlns:cc="http://creativecommons.org/ns#" xmlns:dc="http://purl.org/dc/elements/1.1/" xmlns:rdf="http://www.w3.org/1999/02/22-rdf-syntax-ns#">
   <cc:Work>
    <dc:type rdf:resource="http://purl.org/dc/dcmitype/StillImage"/>
    <dc:date>2022-12-03T12:29:17.599807</dc:date>
    <dc:format>image/svg+xml</dc:format>
    <dc:creator>
     <cc:Agent>
      <dc:title>Matplotlib v3.4.3, https://matplotlib.org/</dc:title>
     </cc:Agent>
    </dc:creator>
   </cc:Work>
  </rdf:RDF>
 </metadata>
 <defs>
  <style type="text/css">*{stroke-linecap:butt;stroke-linejoin:round;}</style>
 </defs>
 <g id="figure_1">
  <g id="patch_1">
   <path d="M 0 497.158125 
L 894.34375 497.158125 
L 894.34375 0 
L 0 0 
z
" style="fill:#ffffff;"/>
  </g>
  <g id="axes_1">
   <g id="patch_2">
    <path d="M 50.14375 458.88 
L 887.14375 458.88 
L 887.14375 24 
L 50.14375 24 
z
" style="fill:#ffffff;"/>
   </g>
   <g id="matplotlib.axis_1">
    <g id="xtick_1">
     <g id="line2d_1">
      <defs>
       <path d="M 0 0 
L 0 3.5 
" id="m8c4c2d55ae" style="stroke:#000000;stroke-width:0.8;"/>
      </defs>
      <g>
       <use style="stroke:#000000;stroke-width:0.8;" x="111.739947" xlink:href="#m8c4c2d55ae" y="458.88"/>
      </g>
     </g>
     <g id="text_1">
      <!-- −6 -->
      <g transform="translate(104.368853 473.478437)scale(0.1 -0.1)">
       <defs>
        <path d="M 678 2272 
L 4684 2272 
L 4684 1741 
L 678 1741 
L 678 2272 
z
" id="DejaVuSans-2212" transform="scale(0.015625)"/>
        <path d="M 2113 2584 
Q 1688 2584 1439 2293 
Q 1191 2003 1191 1497 
Q 1191 994 1439 701 
Q 1688 409 2113 409 
Q 2538 409 2786 701 
Q 3034 994 3034 1497 
Q 3034 2003 2786 2293 
Q 2538 2584 2113 2584 
z
M 3366 4563 
L 3366 3988 
Q 3128 4100 2886 4159 
Q 2644 4219 2406 4219 
Q 1781 4219 1451 3797 
Q 1122 3375 1075 2522 
Q 1259 2794 1537 2939 
Q 1816 3084 2150 3084 
Q 2853 3084 3261 2657 
Q 3669 2231 3669 1497 
Q 3669 778 3244 343 
Q 2819 -91 2113 -91 
Q 1303 -91 875 529 
Q 447 1150 447 2328 
Q 447 3434 972 4092 
Q 1497 4750 2381 4750 
Q 2619 4750 2861 4703 
Q 3103 4656 3366 4563 
z
" id="DejaVuSans-36" transform="scale(0.015625)"/>
       </defs>
       <use xlink:href="#DejaVuSans-2212"/>
       <use x="83.789062" xlink:href="#DejaVuSans-36"/>
      </g>
     </g>
    </g>
    <g id="xtick_2">
     <g id="line2d_2">
      <g>
       <use style="stroke:#000000;stroke-width:0.8;" x="228.095807" xlink:href="#m8c4c2d55ae" y="458.88"/>
      </g>
     </g>
     <g id="text_2">
      <!-- −4 -->
      <g transform="translate(220.724713 473.478437)scale(0.1 -0.1)">
       <defs>
        <path d="M 2419 4116 
L 825 1625 
L 2419 1625 
L 2419 4116 
z
M 2253 4666 
L 3047 4666 
L 3047 1625 
L 3713 1625 
L 3713 1100 
L 3047 1100 
L 3047 0 
L 2419 0 
L 2419 1100 
L 313 1100 
L 313 1709 
L 2253 4666 
z
" id="DejaVuSans-34" transform="scale(0.015625)"/>
       </defs>
       <use xlink:href="#DejaVuSans-2212"/>
       <use x="83.789062" xlink:href="#DejaVuSans-34"/>
      </g>
     </g>
    </g>
    <g id="xtick_3">
     <g id="line2d_3">
      <g>
       <use style="stroke:#000000;stroke-width:0.8;" x="344.451667" xlink:href="#m8c4c2d55ae" y="458.88"/>
      </g>
     </g>
     <g id="text_3">
      <!-- −2 -->
      <g transform="translate(337.080574 473.478437)scale(0.1 -0.1)">
       <defs>
        <path d="M 1228 531 
L 3431 531 
L 3431 0 
L 469 0 
L 469 531 
Q 828 903 1448 1529 
Q 2069 2156 2228 2338 
Q 2531 2678 2651 2914 
Q 2772 3150 2772 3378 
Q 2772 3750 2511 3984 
Q 2250 4219 1831 4219 
Q 1534 4219 1204 4116 
Q 875 4013 500 3803 
L 500 4441 
Q 881 4594 1212 4672 
Q 1544 4750 1819 4750 
Q 2544 4750 2975 4387 
Q 3406 4025 3406 3419 
Q 3406 3131 3298 2873 
Q 3191 2616 2906 2266 
Q 2828 2175 2409 1742 
Q 1991 1309 1228 531 
z
" id="DejaVuSans-32" transform="scale(0.015625)"/>
       </defs>
       <use xlink:href="#DejaVuSans-2212"/>
       <use x="83.789062" xlink:href="#DejaVuSans-32"/>
      </g>
     </g>
    </g>
    <g id="xtick_4">
     <g id="line2d_4">
      <g>
       <use style="stroke:#000000;stroke-width:0.8;" x="460.807528" xlink:href="#m8c4c2d55ae" y="458.88"/>
      </g>
     </g>
     <g id="text_4">
      <!-- 0 -->
      <g transform="translate(457.626278 473.478437)scale(0.1 -0.1)">
       <defs>
        <path d="M 2034 4250 
Q 1547 4250 1301 3770 
Q 1056 3291 1056 2328 
Q 1056 1369 1301 889 
Q 1547 409 2034 409 
Q 2525 409 2770 889 
Q 3016 1369 3016 2328 
Q 3016 3291 2770 3770 
Q 2525 4250 2034 4250 
z
M 2034 4750 
Q 2819 4750 3233 4129 
Q 3647 3509 3647 2328 
Q 3647 1150 3233 529 
Q 2819 -91 2034 -91 
Q 1250 -91 836 529 
Q 422 1150 422 2328 
Q 422 3509 836 4129 
Q 1250 4750 2034 4750 
z
" id="DejaVuSans-30" transform="scale(0.015625)"/>
       </defs>
       <use xlink:href="#DejaVuSans-30"/>
      </g>
     </g>
    </g>
    <g id="xtick_5">
     <g id="line2d_5">
      <g>
       <use style="stroke:#000000;stroke-width:0.8;" x="577.163388" xlink:href="#m8c4c2d55ae" y="458.88"/>
      </g>
     </g>
     <g id="text_5">
      <!-- 2 -->
      <g transform="translate(573.982138 473.478437)scale(0.1 -0.1)">
       <use xlink:href="#DejaVuSans-32"/>
      </g>
     </g>
    </g>
    <g id="xtick_6">
     <g id="line2d_6">
      <g>
       <use style="stroke:#000000;stroke-width:0.8;" x="693.519249" xlink:href="#m8c4c2d55ae" y="458.88"/>
      </g>
     </g>
     <g id="text_6">
      <!-- 4 -->
      <g transform="translate(690.337999 473.478437)scale(0.1 -0.1)">
       <use xlink:href="#DejaVuSans-34"/>
      </g>
     </g>
    </g>
    <g id="xtick_7">
     <g id="line2d_7">
      <g>
       <use style="stroke:#000000;stroke-width:0.8;" x="809.875109" xlink:href="#m8c4c2d55ae" y="458.88"/>
      </g>
     </g>
     <g id="text_7">
      <!-- 6 -->
      <g transform="translate(806.693859 473.478437)scale(0.1 -0.1)">
       <use xlink:href="#DejaVuSans-36"/>
      </g>
     </g>
    </g>
    <g id="text_8">
     <!-- wavenumber (in $cm^{-1}$) -->
     <g transform="translate(411.14375 487.878437)scale(0.1 -0.1)">
      <defs>
       <path d="M 269 3500 
L 844 3500 
L 1563 769 
L 2278 3500 
L 2956 3500 
L 3675 769 
L 4391 3500 
L 4966 3500 
L 4050 0 
L 3372 0 
L 2619 2869 
L 1863 0 
L 1184 0 
L 269 3500 
z
" id="DejaVuSans-77" transform="scale(0.015625)"/>
       <path d="M 2194 1759 
Q 1497 1759 1228 1600 
Q 959 1441 959 1056 
Q 959 750 1161 570 
Q 1363 391 1709 391 
Q 2188 391 2477 730 
Q 2766 1069 2766 1631 
L 2766 1759 
L 2194 1759 
z
M 3341 1997 
L 3341 0 
L 2766 0 
L 2766 531 
Q 2569 213 2275 61 
Q 1981 -91 1556 -91 
Q 1019 -91 701 211 
Q 384 513 384 1019 
Q 384 1609 779 1909 
Q 1175 2209 1959 2209 
L 2766 2209 
L 2766 2266 
Q 2766 2663 2505 2880 
Q 2244 3097 1772 3097 
Q 1472 3097 1187 3025 
Q 903 2953 641 2809 
L 641 3341 
Q 956 3463 1253 3523 
Q 1550 3584 1831 3584 
Q 2591 3584 2966 3190 
Q 3341 2797 3341 1997 
z
" id="DejaVuSans-61" transform="scale(0.015625)"/>
       <path d="M 191 3500 
L 800 3500 
L 1894 563 
L 2988 3500 
L 3597 3500 
L 2284 0 
L 1503 0 
L 191 3500 
z
" id="DejaVuSans-76" transform="scale(0.015625)"/>
       <path d="M 3597 1894 
L 3597 1613 
L 953 1613 
Q 991 1019 1311 708 
Q 1631 397 2203 397 
Q 2534 397 2845 478 
Q 3156 559 3463 722 
L 3463 178 
Q 3153 47 2828 -22 
Q 2503 -91 2169 -91 
Q 1331 -91 842 396 
Q 353 884 353 1716 
Q 353 2575 817 3079 
Q 1281 3584 2069 3584 
Q 2775 3584 3186 3129 
Q 3597 2675 3597 1894 
z
M 3022 2063 
Q 3016 2534 2758 2815 
Q 2500 3097 2075 3097 
Q 1594 3097 1305 2825 
Q 1016 2553 972 2059 
L 3022 2063 
z
" id="DejaVuSans-65" transform="scale(0.015625)"/>
       <path d="M 3513 2113 
L 3513 0 
L 2938 0 
L 2938 2094 
Q 2938 2591 2744 2837 
Q 2550 3084 2163 3084 
Q 1697 3084 1428 2787 
Q 1159 2491 1159 1978 
L 1159 0 
L 581 0 
L 581 3500 
L 1159 3500 
L 1159 2956 
Q 1366 3272 1645 3428 
Q 1925 3584 2291 3584 
Q 2894 3584 3203 3211 
Q 3513 2838 3513 2113 
z
" id="DejaVuSans-6e" transform="scale(0.015625)"/>
       <path d="M 544 1381 
L 544 3500 
L 1119 3500 
L 1119 1403 
Q 1119 906 1312 657 
Q 1506 409 1894 409 
Q 2359 409 2629 706 
Q 2900 1003 2900 1516 
L 2900 3500 
L 3475 3500 
L 3475 0 
L 2900 0 
L 2900 538 
Q 2691 219 2414 64 
Q 2138 -91 1772 -91 
Q 1169 -91 856 284 
Q 544 659 544 1381 
z
M 1991 3584 
L 1991 3584 
z
" id="DejaVuSans-75" transform="scale(0.015625)"/>
       <path d="M 3328 2828 
Q 3544 3216 3844 3400 
Q 4144 3584 4550 3584 
Q 5097 3584 5394 3201 
Q 5691 2819 5691 2113 
L 5691 0 
L 5113 0 
L 5113 2094 
Q 5113 2597 4934 2840 
Q 4756 3084 4391 3084 
Q 3944 3084 3684 2787 
Q 3425 2491 3425 1978 
L 3425 0 
L 2847 0 
L 2847 2094 
Q 2847 2600 2669 2842 
Q 2491 3084 2119 3084 
Q 1678 3084 1418 2786 
Q 1159 2488 1159 1978 
L 1159 0 
L 581 0 
L 581 3500 
L 1159 3500 
L 1159 2956 
Q 1356 3278 1631 3431 
Q 1906 3584 2284 3584 
Q 2666 3584 2933 3390 
Q 3200 3197 3328 2828 
z
" id="DejaVuSans-6d" transform="scale(0.015625)"/>
       <path d="M 3116 1747 
Q 3116 2381 2855 2742 
Q 2594 3103 2138 3103 
Q 1681 3103 1420 2742 
Q 1159 2381 1159 1747 
Q 1159 1113 1420 752 
Q 1681 391 2138 391 
Q 2594 391 2855 752 
Q 3116 1113 3116 1747 
z
M 1159 2969 
Q 1341 3281 1617 3432 
Q 1894 3584 2278 3584 
Q 2916 3584 3314 3078 
Q 3713 2572 3713 1747 
Q 3713 922 3314 415 
Q 2916 -91 2278 -91 
Q 1894 -91 1617 61 
Q 1341 213 1159 525 
L 1159 0 
L 581 0 
L 581 4863 
L 1159 4863 
L 1159 2969 
z
" id="DejaVuSans-62" transform="scale(0.015625)"/>
       <path d="M 2631 2963 
Q 2534 3019 2420 3045 
Q 2306 3072 2169 3072 
Q 1681 3072 1420 2755 
Q 1159 2438 1159 1844 
L 1159 0 
L 581 0 
L 581 3500 
L 1159 3500 
L 1159 2956 
Q 1341 3275 1631 3429 
Q 1922 3584 2338 3584 
Q 2397 3584 2469 3576 
Q 2541 3569 2628 3553 
L 2631 2963 
z
" id="DejaVuSans-72" transform="scale(0.015625)"/>
       <path id="DejaVuSans-20" transform="scale(0.015625)"/>
       <path d="M 1984 4856 
Q 1566 4138 1362 3434 
Q 1159 2731 1159 2009 
Q 1159 1288 1364 580 
Q 1569 -128 1984 -844 
L 1484 -844 
Q 1016 -109 783 600 
Q 550 1309 550 2009 
Q 550 2706 781 3412 
Q 1013 4119 1484 4856 
L 1984 4856 
z
" id="DejaVuSans-28" transform="scale(0.015625)"/>
       <path d="M 603 3500 
L 1178 3500 
L 1178 0 
L 603 0 
L 603 3500 
z
M 603 4863 
L 1178 4863 
L 1178 4134 
L 603 4134 
L 603 4863 
z
" id="DejaVuSans-69" transform="scale(0.015625)"/>
       <path d="M 3431 3366 
L 3316 2797 
Q 3109 2947 2876 3022 
Q 2644 3097 2394 3097 
Q 2119 3097 1870 3000 
Q 1622 2903 1453 2725 
Q 1184 2453 1037 2087 
Q 891 1722 891 1331 
Q 891 859 1127 628 
Q 1363 397 1844 397 
Q 2081 397 2348 469 
Q 2616 541 2906 684 
L 2797 116 
Q 2547 13 2283 -39 
Q 2019 -91 1741 -91 
Q 1044 -91 669 257 
Q 294 606 294 1253 
Q 294 1797 489 2255 
Q 684 2713 1069 3078 
Q 1331 3328 1684 3456 
Q 2038 3584 2456 3584 
Q 2700 3584 2940 3529 
Q 3181 3475 3431 3366 
z
" id="DejaVuSans-Oblique-63" transform="scale(0.015625)"/>
       <path d="M 5747 2113 
L 5338 0 
L 4763 0 
L 5166 2094 
Q 5191 2228 5203 2325 
Q 5216 2422 5216 2491 
Q 5216 2772 5059 2928 
Q 4903 3084 4622 3084 
Q 4203 3084 3875 2770 
Q 3547 2456 3450 1953 
L 3066 0 
L 2491 0 
L 2900 2094 
Q 2925 2209 2937 2307 
Q 2950 2406 2950 2484 
Q 2950 2769 2794 2926 
Q 2638 3084 2363 3084 
Q 1938 3084 1609 2770 
Q 1281 2456 1184 1953 
L 800 0 
L 225 0 
L 909 3500 
L 1484 3500 
L 1375 2956 
Q 1609 3263 1923 3423 
Q 2238 3584 2597 3584 
Q 2978 3584 3223 3384 
Q 3469 3184 3519 2828 
Q 3781 3197 4126 3390 
Q 4472 3584 4856 3584 
Q 5306 3584 5551 3325 
Q 5797 3066 5797 2591 
Q 5797 2488 5784 2364 
Q 5772 2241 5747 2113 
z
" id="DejaVuSans-Oblique-6d" transform="scale(0.015625)"/>
       <path d="M 794 531 
L 1825 531 
L 1825 4091 
L 703 3866 
L 703 4441 
L 1819 4666 
L 2450 4666 
L 2450 531 
L 3481 531 
L 3481 0 
L 794 0 
L 794 531 
z
" id="DejaVuSans-31" transform="scale(0.015625)"/>
       <path d="M 513 4856 
L 1013 4856 
Q 1481 4119 1714 3412 
Q 1947 2706 1947 2009 
Q 1947 1309 1714 600 
Q 1481 -109 1013 -844 
L 513 -844 
Q 928 -128 1133 580 
Q 1338 1288 1338 2009 
Q 1338 2731 1133 3434 
Q 928 4138 513 4856 
z
" id="DejaVuSans-29" transform="scale(0.015625)"/>
      </defs>
      <use transform="translate(0 0.684375)" xlink:href="#DejaVuSans-77"/>
      <use transform="translate(81.787109 0.684375)" xlink:href="#DejaVuSans-61"/>
      <use transform="translate(143.066406 0.684375)" xlink:href="#DejaVuSans-76"/>
      <use transform="translate(202.246094 0.684375)" xlink:href="#DejaVuSans-65"/>
      <use transform="translate(263.769531 0.684375)" xlink:href="#DejaVuSans-6e"/>
      <use transform="translate(327.148438 0.684375)" xlink:href="#DejaVuSans-75"/>
      <use transform="translate(390.527344 0.684375)" xlink:href="#DejaVuSans-6d"/>
      <use transform="translate(487.939453 0.684375)" xlink:href="#DejaVuSans-62"/>
      <use transform="translate(551.416016 0.684375)" xlink:href="#DejaVuSans-65"/>
      <use transform="translate(612.939453 0.684375)" xlink:href="#DejaVuSans-72"/>
      <use transform="translate(654.052734 0.684375)" xlink:href="#DejaVuSans-20"/>
      <use transform="translate(685.839844 0.684375)" xlink:href="#DejaVuSans-28"/>
      <use transform="translate(724.853516 0.684375)" xlink:href="#DejaVuSans-69"/>
      <use transform="translate(752.636719 0.684375)" xlink:href="#DejaVuSans-6e"/>
      <use transform="translate(816.015625 0.684375)" xlink:href="#DejaVuSans-20"/>
      <use transform="translate(847.802734 0.684375)" xlink:href="#DejaVuSans-Oblique-63"/>
      <use transform="translate(902.783203 0.684375)" xlink:href="#DejaVuSans-Oblique-6d"/>
      <use transform="translate(1004.845208 38.965625)scale(0.7)" xlink:href="#DejaVuSans-2212"/>
      <use transform="translate(1063.497552 38.965625)scale(0.7)" xlink:href="#DejaVuSans-31"/>
      <use transform="translate(1110.76806 0.684375)" xlink:href="#DejaVuSans-29"/>
     </g>
    </g>
   </g>
   <g id="matplotlib.axis_2">
    <g id="ytick_1">
     <g id="line2d_8">
      <defs>
       <path d="M 0 0 
L -3.5 0 
" id="m2e81f59f32" style="stroke:#000000;stroke-width:0.8;"/>
      </defs>
      <g>
       <use style="stroke:#000000;stroke-width:0.8;" x="50.14375" xlink:href="#m2e81f59f32" y="439.112727"/>
      </g>
     </g>
     <g id="text_9">
      <!-- 0.90 -->
      <g transform="translate(20.878125 442.911946)scale(0.1 -0.1)">
       <defs>
        <path d="M 684 794 
L 1344 794 
L 1344 0 
L 684 0 
L 684 794 
z
" id="DejaVuSans-2e" transform="scale(0.015625)"/>
        <path d="M 703 97 
L 703 672 
Q 941 559 1184 500 
Q 1428 441 1663 441 
Q 2288 441 2617 861 
Q 2947 1281 2994 2138 
Q 2813 1869 2534 1725 
Q 2256 1581 1919 1581 
Q 1219 1581 811 2004 
Q 403 2428 403 3163 
Q 403 3881 828 4315 
Q 1253 4750 1959 4750 
Q 2769 4750 3195 4129 
Q 3622 3509 3622 2328 
Q 3622 1225 3098 567 
Q 2575 -91 1691 -91 
Q 1453 -91 1209 -44 
Q 966 3 703 97 
z
M 1959 2075 
Q 2384 2075 2632 2365 
Q 2881 2656 2881 3163 
Q 2881 3666 2632 3958 
Q 2384 4250 1959 4250 
Q 1534 4250 1286 3958 
Q 1038 3666 1038 3163 
Q 1038 2656 1286 2365 
Q 1534 2075 1959 2075 
z
" id="DejaVuSans-39" transform="scale(0.015625)"/>
       </defs>
       <use xlink:href="#DejaVuSans-30"/>
       <use x="63.623047" xlink:href="#DejaVuSans-2e"/>
       <use x="95.410156" xlink:href="#DejaVuSans-39"/>
       <use x="159.033203" xlink:href="#DejaVuSans-30"/>
      </g>
     </g>
    </g>
    <g id="ytick_2">
     <g id="line2d_9">
      <g>
       <use style="stroke:#000000;stroke-width:0.8;" x="50.14375" xlink:href="#m2e81f59f32" y="360.035198"/>
      </g>
     </g>
     <g id="text_10">
      <!-- 0.92 -->
      <g transform="translate(20.878125 363.834416)scale(0.1 -0.1)">
       <use xlink:href="#DejaVuSans-30"/>
       <use x="63.623047" xlink:href="#DejaVuSans-2e"/>
       <use x="95.410156" xlink:href="#DejaVuSans-39"/>
       <use x="159.033203" xlink:href="#DejaVuSans-32"/>
      </g>
     </g>
    </g>
    <g id="ytick_3">
     <g id="line2d_10">
      <g>
       <use style="stroke:#000000;stroke-width:0.8;" x="50.14375" xlink:href="#m2e81f59f32" y="280.957668"/>
      </g>
     </g>
     <g id="text_11">
      <!-- 0.94 -->
      <g transform="translate(20.878125 284.756887)scale(0.1 -0.1)">
       <use xlink:href="#DejaVuSans-30"/>
       <use x="63.623047" xlink:href="#DejaVuSans-2e"/>
       <use x="95.410156" xlink:href="#DejaVuSans-39"/>
       <use x="159.033203" xlink:href="#DejaVuSans-34"/>
      </g>
     </g>
    </g>
    <g id="ytick_4">
     <g id="line2d_11">
      <g>
       <use style="stroke:#000000;stroke-width:0.8;" x="50.14375" xlink:href="#m2e81f59f32" y="201.880138"/>
      </g>
     </g>
     <g id="text_12">
      <!-- 0.96 -->
      <g transform="translate(20.878125 205.679357)scale(0.1 -0.1)">
       <use xlink:href="#DejaVuSans-30"/>
       <use x="63.623047" xlink:href="#DejaVuSans-2e"/>
       <use x="95.410156" xlink:href="#DejaVuSans-39"/>
       <use x="159.033203" xlink:href="#DejaVuSans-36"/>
      </g>
     </g>
    </g>
    <g id="ytick_5">
     <g id="line2d_12">
      <g>
       <use style="stroke:#000000;stroke-width:0.8;" x="50.14375" xlink:href="#m2e81f59f32" y="122.802609"/>
      </g>
     </g>
     <g id="text_13">
      <!-- 0.98 -->
      <g transform="translate(20.878125 126.601827)scale(0.1 -0.1)">
       <defs>
        <path d="M 2034 2216 
Q 1584 2216 1326 1975 
Q 1069 1734 1069 1313 
Q 1069 891 1326 650 
Q 1584 409 2034 409 
Q 2484 409 2743 651 
Q 3003 894 3003 1313 
Q 3003 1734 2745 1975 
Q 2488 2216 2034 2216 
z
M 1403 2484 
Q 997 2584 770 2862 
Q 544 3141 544 3541 
Q 544 4100 942 4425 
Q 1341 4750 2034 4750 
Q 2731 4750 3128 4425 
Q 3525 4100 3525 3541 
Q 3525 3141 3298 2862 
Q 3072 2584 2669 2484 
Q 3125 2378 3379 2068 
Q 3634 1759 3634 1313 
Q 3634 634 3220 271 
Q 2806 -91 2034 -91 
Q 1263 -91 848 271 
Q 434 634 434 1313 
Q 434 1759 690 2068 
Q 947 2378 1403 2484 
z
M 1172 3481 
Q 1172 3119 1398 2916 
Q 1625 2713 2034 2713 
Q 2441 2713 2670 2916 
Q 2900 3119 2900 3481 
Q 2900 3844 2670 4047 
Q 2441 4250 2034 4250 
Q 1625 4250 1398 4047 
Q 1172 3844 1172 3481 
z
" id="DejaVuSans-38" transform="scale(0.015625)"/>
       </defs>
       <use xlink:href="#DejaVuSans-30"/>
       <use x="63.623047" xlink:href="#DejaVuSans-2e"/>
       <use x="95.410156" xlink:href="#DejaVuSans-39"/>
       <use x="159.033203" xlink:href="#DejaVuSans-38"/>
      </g>
     </g>
    </g>
    <g id="ytick_6">
     <g id="line2d_13">
      <g>
       <use style="stroke:#000000;stroke-width:0.8;" x="50.14375" xlink:href="#m2e81f59f32" y="43.725079"/>
      </g>
     </g>
     <g id="text_14">
      <!-- 1.00 -->
      <g transform="translate(20.878125 47.524298)scale(0.1 -0.1)">
       <use xlink:href="#DejaVuSans-31"/>
       <use x="63.623047" xlink:href="#DejaVuSans-2e"/>
       <use x="95.410156" xlink:href="#DejaVuSans-30"/>
       <use x="159.033203" xlink:href="#DejaVuSans-30"/>
      </g>
     </g>
    </g>
    <g id="text_15">
     <!-- Normalized Intensity -->
     <g transform="translate(14.798438 293.147031)rotate(-90)scale(0.1 -0.1)">
      <defs>
       <path d="M 628 4666 
L 1478 4666 
L 3547 763 
L 3547 4666 
L 4159 4666 
L 4159 0 
L 3309 0 
L 1241 3903 
L 1241 0 
L 628 0 
L 628 4666 
z
" id="DejaVuSans-4e" transform="scale(0.015625)"/>
       <path d="M 1959 3097 
Q 1497 3097 1228 2736 
Q 959 2375 959 1747 
Q 959 1119 1226 758 
Q 1494 397 1959 397 
Q 2419 397 2687 759 
Q 2956 1122 2956 1747 
Q 2956 2369 2687 2733 
Q 2419 3097 1959 3097 
z
M 1959 3584 
Q 2709 3584 3137 3096 
Q 3566 2609 3566 1747 
Q 3566 888 3137 398 
Q 2709 -91 1959 -91 
Q 1206 -91 779 398 
Q 353 888 353 1747 
Q 353 2609 779 3096 
Q 1206 3584 1959 3584 
z
" id="DejaVuSans-6f" transform="scale(0.015625)"/>
       <path d="M 603 4863 
L 1178 4863 
L 1178 0 
L 603 0 
L 603 4863 
z
" id="DejaVuSans-6c" transform="scale(0.015625)"/>
       <path d="M 353 3500 
L 3084 3500 
L 3084 2975 
L 922 459 
L 3084 459 
L 3084 0 
L 275 0 
L 275 525 
L 2438 3041 
L 353 3041 
L 353 3500 
z
" id="DejaVuSans-7a" transform="scale(0.015625)"/>
       <path d="M 2906 2969 
L 2906 4863 
L 3481 4863 
L 3481 0 
L 2906 0 
L 2906 525 
Q 2725 213 2448 61 
Q 2172 -91 1784 -91 
Q 1150 -91 751 415 
Q 353 922 353 1747 
Q 353 2572 751 3078 
Q 1150 3584 1784 3584 
Q 2172 3584 2448 3432 
Q 2725 3281 2906 2969 
z
M 947 1747 
Q 947 1113 1208 752 
Q 1469 391 1925 391 
Q 2381 391 2643 752 
Q 2906 1113 2906 1747 
Q 2906 2381 2643 2742 
Q 2381 3103 1925 3103 
Q 1469 3103 1208 2742 
Q 947 2381 947 1747 
z
" id="DejaVuSans-64" transform="scale(0.015625)"/>
       <path d="M 628 4666 
L 1259 4666 
L 1259 0 
L 628 0 
L 628 4666 
z
" id="DejaVuSans-49" transform="scale(0.015625)"/>
       <path d="M 1172 4494 
L 1172 3500 
L 2356 3500 
L 2356 3053 
L 1172 3053 
L 1172 1153 
Q 1172 725 1289 603 
Q 1406 481 1766 481 
L 2356 481 
L 2356 0 
L 1766 0 
Q 1100 0 847 248 
Q 594 497 594 1153 
L 594 3053 
L 172 3053 
L 172 3500 
L 594 3500 
L 594 4494 
L 1172 4494 
z
" id="DejaVuSans-74" transform="scale(0.015625)"/>
       <path d="M 2834 3397 
L 2834 2853 
Q 2591 2978 2328 3040 
Q 2066 3103 1784 3103 
Q 1356 3103 1142 2972 
Q 928 2841 928 2578 
Q 928 2378 1081 2264 
Q 1234 2150 1697 2047 
L 1894 2003 
Q 2506 1872 2764 1633 
Q 3022 1394 3022 966 
Q 3022 478 2636 193 
Q 2250 -91 1575 -91 
Q 1294 -91 989 -36 
Q 684 19 347 128 
L 347 722 
Q 666 556 975 473 
Q 1284 391 1588 391 
Q 1994 391 2212 530 
Q 2431 669 2431 922 
Q 2431 1156 2273 1281 
Q 2116 1406 1581 1522 
L 1381 1569 
Q 847 1681 609 1914 
Q 372 2147 372 2553 
Q 372 3047 722 3315 
Q 1072 3584 1716 3584 
Q 2034 3584 2315 3537 
Q 2597 3491 2834 3397 
z
" id="DejaVuSans-73" transform="scale(0.015625)"/>
       <path d="M 2059 -325 
Q 1816 -950 1584 -1140 
Q 1353 -1331 966 -1331 
L 506 -1331 
L 506 -850 
L 844 -850 
Q 1081 -850 1212 -737 
Q 1344 -625 1503 -206 
L 1606 56 
L 191 3500 
L 800 3500 
L 1894 763 
L 2988 3500 
L 3597 3500 
L 2059 -325 
z
" id="DejaVuSans-79" transform="scale(0.015625)"/>
      </defs>
      <use xlink:href="#DejaVuSans-4e"/>
      <use x="74.804688" xlink:href="#DejaVuSans-6f"/>
      <use x="135.986328" xlink:href="#DejaVuSans-72"/>
      <use x="175.349609" xlink:href="#DejaVuSans-6d"/>
      <use x="272.761719" xlink:href="#DejaVuSans-61"/>
      <use x="334.041016" xlink:href="#DejaVuSans-6c"/>
      <use x="361.824219" xlink:href="#DejaVuSans-69"/>
      <use x="389.607422" xlink:href="#DejaVuSans-7a"/>
      <use x="442.097656" xlink:href="#DejaVuSans-65"/>
      <use x="503.621094" xlink:href="#DejaVuSans-64"/>
      <use x="567.097656" xlink:href="#DejaVuSans-20"/>
      <use x="598.884766" xlink:href="#DejaVuSans-49"/>
      <use x="628.376953" xlink:href="#DejaVuSans-6e"/>
      <use x="691.755859" xlink:href="#DejaVuSans-74"/>
      <use x="730.964844" xlink:href="#DejaVuSans-65"/>
      <use x="792.488281" xlink:href="#DejaVuSans-6e"/>
      <use x="855.867188" xlink:href="#DejaVuSans-73"/>
      <use x="907.966797" xlink:href="#DejaVuSans-69"/>
      <use x="935.75" xlink:href="#DejaVuSans-74"/>
      <use x="974.958984" xlink:href="#DejaVuSans-79"/>
     </g>
    </g>
   </g>
   <g id="line2d_14">
    <path clip-path="url(#pbe71f37464)" d="M 258.392554 43.773614 
L 263.398535 43.790669 
L 268.404516 43.813734 
L 273.410496 43.845014 
L 278.416477 43.887605 
L 283.422458 43.945908 
L 288.428439 44.026256 
L 293.43442 44.137867 
L 298.440401 44.294276 
L 303.446382 44.51546 
L 308.452362 44.83093 
L 313.458343 45.284093 
L 318.464324 45.938179 
L 323.470305 46.883956 
L 328.476286 48.249144 
L 333.482267 50.209018 
L 338.488248 52.996899 
L 343.494228 56.91226 
L 348.500209 62.322948 
L 353.50619 69.656969 
L 358.512171 79.378623 
L 363.518152 91.944168 
L 368.524133 107.734265 
L 373.530114 126.964537 
L 378.536094 149.582002 
L 383.542075 175.163155 
L 388.548056 202.837875 
L 393.554037 231.269783 
L 398.560018 258.725351 
L 403.565999 283.258163 
L 408.57198 303.019221 
L 413.577961 316.679134 
L 418.583941 323.915847 
L 423.589922 325.882953 
L 428.595903 325.511188 
L 433.601884 327.363025 
L 438.607865 336.571738 
L 443.613846 356.480171 
L 448.619827 385.575578 
L 453.625807 416.04166 
L 458.631788 436.596109 
L 463.637769 439.112727 
L 468.64375 424.111919 
L 473.649731 400.24451 
L 478.655712 378.391858 
L 483.661693 365.615539 
L 488.667673 362.994178 
L 493.673654 367.132858 
L 498.679635 372.886496 
L 503.685616 375.486535 
L 508.691597 371.635502 
L 513.697578 359.815196 
L 518.703559 340.126099 
L 523.709539 313.883494 
L 528.71552 283.124919 
L 533.721501 250.138572 
L 538.727482 217.083322 
L 543.733463 185.734167 
L 548.739444 157.355783 
L 553.745425 132.684815 
L 558.751406 111.98966 
L 563.757386 95.173946 
L 568.763367 81.894046 
L 573.769348 71.668863 
L 578.775329 63.96905 
L 583.78131 58.280689 
L 588.787291 54.144255 
L 593.793272 51.173144 
L 598.799252 49.05736 
L 603.805233 47.557899 
L 608.811214 46.496349 
L 613.817195 45.743004 
L 618.823176 45.205519 
L 623.829157 44.819156 
L 628.835138 44.538983 
L 633.841118 44.333957 
L 638.847099 44.182613 
L 643.85308 44.070033 
L 648.859061 43.985746 
L 653.865042 43.922324 
L 658.871023 43.874422 
L 663.877004 43.838151 
L 668.882984 43.810643 
L 673.888965 43.789767 
L 678.894946 43.773922 
" style="fill:none;stroke:#e5715e;stroke-linecap:square;stroke-width:1.5;"/>
   </g>
   <g id="line2d_15">
    <path clip-path="url(#pbe71f37464)" d="M 425.297209 458.88 
L 425.297209 24 
" style="fill:none;stroke:#1f77b4;stroke-linecap:square;stroke-width:1.5;"/>
   </g>
   <g id="line2d_16">
    <path clip-path="url(#pbe71f37464)" d="M 503.200235 458.88 
L 503.200235 24 
" style="fill:none;stroke:#1f77b4;stroke-linecap:square;stroke-width:1.5;"/>
   </g>
   <g id="line2d_17">
    <path clip-path="url(#pbe71f37464)" d="M 198.320783 43.76988 
L 203.326764 43.78151 
L 208.332745 43.796136 
L 213.338726 43.814546 
L 218.344707 43.837748 
L 223.350688 43.867039 
L 228.356669 43.904107 
L 233.36265 43.951157 
L 238.36863 44.0111 
L 243.374611 44.087805 
L 248.380592 44.186457 
L 253.386573 44.314042 
L 258.392554 44.480018 
L 263.398535 44.697211 
L 268.404516 44.983015 
L 273.410496 45.360943 
L 278.416477 45.862602 
L 283.422458 46.530123 
L 288.428439 47.419045 
L 293.43442 48.601585 
L 298.440401 50.170115 
L 303.446382 52.240539 
L 308.452362 54.95508 
L 313.458343 58.483798 
L 318.464324 63.023959 
L 323.470305 68.796241 
L 328.476286 76.036658 
L 333.482267 84.983211 
L 338.488248 95.856552 
L 343.494228 108.834514 
L 348.500209 124.021229 
L 353.50619 141.412689 
L 358.512171 160.861968 
L 363.518152 182.04869 
L 368.524133 204.458574 
L 373.530114 227.379676 
L 378.536094 249.921964 
L 383.542075 271.065887 
L 388.548056 289.743403 
L 393.554037 304.951421 
L 398.560018 315.893016 
L 403.565999 322.136259 
L 408.57198 323.774713 
L 413.577961 321.568553 
L 418.583941 317.042665 
L 423.589922 312.517331 
L 428.595903 311.030268 
L 433.601884 316.02485 
L 438.607865 330.51232 
L 443.613846 355.411602 
L 448.619827 387.46898 
L 453.625807 418.513536 
L 458.631788 438.10845 
L 463.637769 439.112727 
L 468.64375 422.119916 
L 473.649731 394.888573 
L 478.655712 367.435366 
L 483.661693 347.090433 
L 488.667673 336.638758 
L 493.673654 335.227048 
L 498.679635 340.11425 
L 503.685616 348.018091 
L 508.691597 355.866764 
L 513.697578 361.169345 
L 518.703559 362.178854 
L 523.709539 357.925183 
L 528.71552 348.155773 
L 533.721501 333.214407 
L 538.727482 313.886233 
L 543.733463 291.233323 
L 548.739444 266.439958 
L 553.745425 240.681199 
L 558.751406 215.022559 
L 563.757386 190.353451 
L 568.763367 167.352793 
L 573.769348 146.482142 
L 578.775329 127.99996 
L 583.78131 111.990044 
L 588.787291 98.397545 
L 593.793272 87.067011 
L 598.799252 77.77827 
L 603.805233 70.27743 
L 608.811214 64.301583 
L 613.817195 59.596884 
L 618.823176 55.930472 
L 623.829157 53.097144 
L 628.835138 50.921918 
L 633.841118 49.259668 
L 638.847099 47.992837 
L 643.85308 47.02811 
L 648.859061 46.292683 
L 653.865042 45.730564 
L 658.871023 45.299187 
L 663.877004 44.966478 
L 668.882984 44.708414 
L 673.888965 44.507062 
L 678.894946 44.349037 
L 683.900927 44.224334 
L 688.906908 44.125438 
L 693.912889 44.04667 
L 698.91887 43.983707 
L 703.92485 43.933232 
L 708.930831 43.892677 
L 713.936812 43.860036 
L 718.942793 43.833735 
L 723.948774 43.812527 
L 728.954755 43.795419 
L 733.960736 43.781617 
L 738.966717 43.770485 
" style="fill:none;stroke:#c14168;stroke-linecap:square;stroke-width:1.5;"/>
   </g>
   <g id="line2d_18">
    <path clip-path="url(#pbe71f37464)" d="M 408.202382 458.88 
L 408.202382 24 
" style="fill:none;stroke:#1f77b4;stroke-linecap:square;stroke-width:1.5;"/>
   </g>
   <g id="line2d_19">
    <path clip-path="url(#pbe71f37464)" d="M 517.160745 458.88 
L 517.160745 24 
" style="fill:none;stroke:#1f77b4;stroke-linecap:square;stroke-width:1.5;"/>
   </g>
   <g id="line2d_20">
    <path clip-path="url(#pbe71f37464)" d="M 88.189205 43.767273 
L 138.249013 43.937013 
L 163.278917 44.208642 
L 178.29686 44.533226 
L 193.314803 45.103928 
L 203.326764 45.71963 
L 213.338726 46.639263 
L 218.344707 47.259049 
L 223.350688 48.018076 
L 228.356669 48.946973 
L 233.36265 50.082128 
L 238.36863 51.466335 
L 243.374611 53.149343 
L 248.380592 55.188266 
L 253.386573 57.647739 
L 258.392554 60.599759 
L 263.398535 64.123065 
L 268.404516 68.301986 
L 273.410496 73.224612 
L 278.416477 78.980208 
L 283.422458 85.655784 
L 288.428439 93.331791 
L 293.43442 102.076946 
L 298.440401 111.942274 
L 303.446382 122.95454 
L 308.452362 135.109313 
L 313.458343 148.364045 
L 318.464324 162.631617 
L 323.470305 177.77493 
L 328.476286 193.603149 
L 343.494228 242.475438 
L 348.500209 258.079436 
L 353.50619 272.67799 
L 358.512171 285.854224 
L 363.518152 297.208522 
L 368.524133 306.38564 
L 373.530114 313.10481 
L 378.536094 317.191528 
L 383.542075 318.609294 
L 388.548056 317.489223 
L 393.554037 314.155114 
L 398.560018 309.141211 
L 408.57198 297.293581 
L 413.577961 292.574745 
L 418.583941 290.342732 
L 423.589922 291.996074 
L 428.595903 298.977249 
L 433.601884 312.651992 
L 438.607865 333.901225 
L 443.613846 362.127874 
L 448.619827 393.865501 
L 453.625807 422.268821 
L 458.631788 439.112727 
L 463.637769 438.983689 
L 468.64375 422.549057 
L 473.649731 395.952532 
L 478.655712 367.019969 
L 483.661693 341.672387 
L 488.667673 322.768338 
L 493.673654 310.859416 
L 498.679635 305.317765 
L 503.685616 305.032384 
L 508.691597 308.705001 
L 513.697578 314.983724 
L 523.709539 330.228661 
L 528.71552 336.974225 
L 533.721501 341.971695 
L 538.727482 344.616133 
L 543.733463 344.518068 
L 548.739444 341.49041 
L 553.745425 335.526695 
L 558.751406 326.773409 
L 563.757386 315.498902 
L 568.763367 302.061113 
L 573.769348 286.876053 
L 578.775329 270.388592 
L 583.78131 253.046734 
L 598.799252 200.003783 
L 603.805233 183.13393 
L 608.811214 167.108164 
L 613.817195 152.102565 
L 618.823176 138.237759 
L 623.829157 125.583812 
L 628.835138 114.166549 
L 633.841118 103.97466 
L 638.847099 94.967073 
L 643.85308 87.080138 
L 648.859061 80.234301 
L 653.865042 74.34005 
L 658.871023 69.302985 
L 663.877004 65.027961 
L 668.882984 61.42233 
L 673.888965 58.398318 
L 678.894946 55.874654 
L 683.900927 53.777541 
L 688.906908 52.041095 
L 693.912889 50.607377 
L 698.91887 49.426103 
L 703.92485 48.454153 
L 708.930831 47.654938 
L 713.936812 46.997709 
L 723.948774 46.011102 
L 733.960736 45.338493 
L 743.972697 44.87534 
L 758.99064 44.428932 
L 779.014563 44.098776 
L 809.050449 43.872753 
L 849.098295 43.767828 
L 849.098295 43.767828 
" style="fill:none;stroke:#863071;stroke-linecap:square;stroke-width:1.5;"/>
   </g>
   <g id="line2d_21">
    <path clip-path="url(#pbe71f37464)" d="M 383.835682 458.88 
L 383.835682 24 
" style="fill:none;stroke:#1f77b4;stroke-linecap:square;stroke-width:1.5;"/>
   </g>
   <g id="line2d_22">
    <path clip-path="url(#pbe71f37464)" d="M 541.051471 458.88 
L 541.051471 24 
" style="fill:none;stroke:#1f77b4;stroke-linecap:square;stroke-width:1.5;"/>
   </g>
   <g id="patch_3">
    <path d="M 50.14375 458.88 
L 50.14375 24 
" style="fill:none;stroke:#000000;stroke-linecap:square;stroke-linejoin:miter;stroke-width:0.8;"/>
   </g>
   <g id="patch_4">
    <path d="M 887.14375 458.88 
L 887.14375 24 
" style="fill:none;stroke:#000000;stroke-linecap:square;stroke-linejoin:miter;stroke-width:0.8;"/>
   </g>
   <g id="patch_5">
    <path d="M 50.14375 458.88 
L 887.14375 458.88 
" style="fill:none;stroke:#000000;stroke-linecap:square;stroke-linejoin:miter;stroke-width:0.8;"/>
   </g>
   <g id="patch_6">
    <path d="M 50.14375 24 
L 887.14375 24 
" style="fill:none;stroke:#000000;stroke-linecap:square;stroke-linejoin:miter;stroke-width:0.8;"/>
   </g>
   <g id="text_16">
    <!-- B = 0.05  $\Delta B =$ 0% ,  $\Delta C =$ 0% , $\zeta  = $-0.2, $\sigma = $0.1953$cm^{-1}$ -->
    <g transform="translate(297.28375 18)scale(0.12 -0.12)">
     <defs>
      <path d="M 1259 2228 
L 1259 519 
L 2272 519 
Q 2781 519 3026 730 
Q 3272 941 3272 1375 
Q 3272 1813 3026 2020 
Q 2781 2228 2272 2228 
L 1259 2228 
z
M 1259 4147 
L 1259 2741 
L 2194 2741 
Q 2656 2741 2882 2914 
Q 3109 3088 3109 3444 
Q 3109 3797 2882 3972 
Q 2656 4147 2194 4147 
L 1259 4147 
z
M 628 4666 
L 2241 4666 
Q 2963 4666 3353 4366 
Q 3744 4066 3744 3513 
Q 3744 3084 3544 2831 
Q 3344 2578 2956 2516 
Q 3422 2416 3680 2098 
Q 3938 1781 3938 1306 
Q 3938 681 3513 340 
Q 3088 0 2303 0 
L 628 0 
L 628 4666 
z
" id="DejaVuSans-42" transform="scale(0.015625)"/>
      <path d="M 678 2906 
L 4684 2906 
L 4684 2381 
L 678 2381 
L 678 2906 
z
M 678 1631 
L 4684 1631 
L 4684 1100 
L 678 1100 
L 678 1631 
z
" id="DejaVuSans-3d" transform="scale(0.015625)"/>
      <path d="M 691 4666 
L 3169 4666 
L 3169 4134 
L 1269 4134 
L 1269 2991 
Q 1406 3038 1543 3061 
Q 1681 3084 1819 3084 
Q 2600 3084 3056 2656 
Q 3513 2228 3513 1497 
Q 3513 744 3044 326 
Q 2575 -91 1722 -91 
Q 1428 -91 1123 -41 
Q 819 9 494 109 
L 494 744 
Q 775 591 1075 516 
Q 1375 441 1709 441 
Q 2250 441 2565 725 
Q 2881 1009 2881 1497 
Q 2881 1984 2565 2268 
Q 2250 2553 1709 2553 
Q 1456 2553 1204 2497 
Q 953 2441 691 2322 
L 691 4666 
z
" id="DejaVuSans-35" transform="scale(0.015625)"/>
      <path d="M 2188 4044 
L 906 525 
L 3472 525 
L 2188 4044 
z
M 50 0 
L 1831 4666 
L 2547 4666 
L 4325 0 
L 50 0 
z
" id="DejaVuSans-394" transform="scale(0.015625)"/>
      <path d="M 1081 4666 
L 2694 4666 
Q 3350 4666 3675 4422 
Q 4000 4178 4000 3688 
Q 4000 3238 3720 2911 
Q 3441 2584 2988 2516 
Q 3375 2428 3569 2181 
Q 3763 1934 3763 1522 
Q 3763 819 3242 409 
Q 2722 0 1819 0 
L 172 0 
L 1081 4666 
z
M 1234 2228 
L 903 519 
L 1919 519 
Q 2491 519 2800 781 
Q 3109 1044 3109 1522 
Q 3109 1891 2904 2059 
Q 2700 2228 2247 2228 
L 1234 2228 
z
M 1606 4147 
L 1331 2741 
L 2272 2741 
Q 2775 2741 3058 2959 
Q 3341 3178 3341 3566 
Q 3341 3869 3150 4008 
Q 2959 4147 2541 4147 
L 1606 4147 
z
" id="DejaVuSans-Oblique-42" transform="scale(0.015625)"/>
      <path d="M 4653 2053 
Q 4381 2053 4226 1822 
Q 4072 1591 4072 1178 
Q 4072 772 4226 539 
Q 4381 306 4653 306 
Q 4919 306 5073 539 
Q 5228 772 5228 1178 
Q 5228 1588 5073 1820 
Q 4919 2053 4653 2053 
z
M 4653 2450 
Q 5147 2450 5437 2106 
Q 5728 1763 5728 1178 
Q 5728 594 5436 251 
Q 5144 -91 4653 -91 
Q 4153 -91 3862 251 
Q 3572 594 3572 1178 
Q 3572 1766 3864 2108 
Q 4156 2450 4653 2450 
z
M 1428 4353 
Q 1159 4353 1004 4120 
Q 850 3888 850 3481 
Q 850 3069 1003 2837 
Q 1156 2606 1428 2606 
Q 1700 2606 1854 2837 
Q 2009 3069 2009 3481 
Q 2009 3884 1853 4118 
Q 1697 4353 1428 4353 
z
M 4250 4750 
L 4750 4750 
L 1831 -91 
L 1331 -91 
L 4250 4750 
z
M 1428 4750 
Q 1922 4750 2215 4408 
Q 2509 4066 2509 3481 
Q 2509 2891 2217 2550 
Q 1925 2209 1428 2209 
Q 931 2209 642 2551 
Q 353 2894 353 3481 
Q 353 4063 643 4406 
Q 934 4750 1428 4750 
z
" id="DejaVuSans-25" transform="scale(0.015625)"/>
      <path d="M 750 794 
L 1409 794 
L 1409 256 
L 897 -744 
L 494 -744 
L 750 256 
L 750 794 
z
" id="DejaVuSans-2c" transform="scale(0.015625)"/>
      <path d="M 4447 4306 
L 4319 3641 
Q 4019 3944 3683 4091 
Q 3347 4238 2956 4238 
Q 2422 4238 2017 3981 
Q 1613 3725 1319 3200 
Q 1131 2863 1032 2486 
Q 934 2109 934 1728 
Q 934 1091 1264 756 
Q 1594 422 2222 422 
Q 2656 422 3056 561 
Q 3456 700 3834 978 
L 3688 231 
Q 3316 72 2936 -9 
Q 2556 -91 2175 -91 
Q 1278 -91 773 396 
Q 269 884 269 1753 
Q 269 2309 461 2846 
Q 653 3384 1013 3828 
Q 1394 4300 1883 4525 
Q 2372 4750 3022 4750 
Q 3422 4750 3780 4639 
Q 4138 4528 4447 4306 
z
" id="DejaVuSans-Oblique-43" transform="scale(0.015625)"/>
      <path d="M 1966 397 
Q 2378 394 2578 159 
Q 2794 -88 2722 -463 
Q 2650 -822 2372 -1072 
Q 2069 -1344 1559 -1344 
Q 1606 -1109 1650 -872 
Q 1863 -888 2022 -750 
Q 2144 -641 2166 -525 
Q 2197 -359 2125 -222 
Q 2050 -91 1872 -91 
Q -22 -91 316 1669 
Q 616 3206 2609 4284 
L 947 4284 
L 1059 4863 
L 3778 4863 
L 3666 4284 
Q 1181 3147 894 1669 
Q 647 397 1966 397 
z
" id="DejaVuSans-Oblique-3b6" transform="scale(0.015625)"/>
      <path d="M 313 2009 
L 1997 2009 
L 1997 1497 
L 313 1497 
L 313 2009 
z
" id="DejaVuSans-2d" transform="scale(0.015625)"/>
      <path d="M 2219 3044 
Q 1744 3044 1422 2700 
Q 1081 2341 969 1747 
Q 844 1119 1044 756 
Q 1241 397 1706 397 
Q 2166 397 2503 759 
Q 2844 1122 2966 1747 
Q 3075 2319 2881 2700 
Q 2700 3044 2219 3044 
z
M 2309 3503 
L 4219 3500 
L 4106 2925 
L 3463 2925 
Q 3706 2438 3575 1747 
Q 3406 888 2884 400 
Q 2359 -91 1609 -91 
Q 856 -91 525 400 
Q 194 888 363 1747 
Q 528 2609 1050 3097 
Q 1484 3503 2309 3503 
z
" id="DejaVuSans-Oblique-3c3" transform="scale(0.015625)"/>
      <path d="M 2597 2516 
Q 3050 2419 3304 2112 
Q 3559 1806 3559 1356 
Q 3559 666 3084 287 
Q 2609 -91 1734 -91 
Q 1441 -91 1130 -33 
Q 819 25 488 141 
L 488 750 
Q 750 597 1062 519 
Q 1375 441 1716 441 
Q 2309 441 2620 675 
Q 2931 909 2931 1356 
Q 2931 1769 2642 2001 
Q 2353 2234 1838 2234 
L 1294 2234 
L 1294 2753 
L 1863 2753 
Q 2328 2753 2575 2939 
Q 2822 3125 2822 3475 
Q 2822 3834 2567 4026 
Q 2313 4219 1838 4219 
Q 1578 4219 1281 4162 
Q 984 4106 628 3988 
L 628 4550 
Q 988 4650 1302 4700 
Q 1616 4750 1894 4750 
Q 2613 4750 3031 4423 
Q 3450 4097 3450 3541 
Q 3450 3153 3228 2886 
Q 3006 2619 2597 2516 
z
" id="DejaVuSans-33" transform="scale(0.015625)"/>
     </defs>
     <use transform="translate(0 0.684375)" xlink:href="#DejaVuSans-42"/>
     <use transform="translate(68.603516 0.684375)" xlink:href="#DejaVuSans-20"/>
     <use transform="translate(100.390625 0.684375)" xlink:href="#DejaVuSans-3d"/>
     <use transform="translate(184.179688 0.684375)" xlink:href="#DejaVuSans-20"/>
     <use transform="translate(215.966797 0.684375)" xlink:href="#DejaVuSans-30"/>
     <use transform="translate(279.589844 0.684375)" xlink:href="#DejaVuSans-2e"/>
     <use transform="translate(311.376953 0.684375)" xlink:href="#DejaVuSans-30"/>
     <use transform="translate(375 0.684375)" xlink:href="#DejaVuSans-35"/>
     <use transform="translate(438.623047 0.684375)" xlink:href="#DejaVuSans-20"/>
     <use transform="translate(470.410156 0.684375)" xlink:href="#DejaVuSans-20"/>
     <use transform="translate(502.197266 0.684375)" xlink:href="#DejaVuSans-394"/>
     <use transform="translate(570.605469 0.684375)" xlink:href="#DejaVuSans-Oblique-42"/>
     <use transform="translate(658.691406 0.684375)" xlink:href="#DejaVuSans-3d"/>
     <use transform="translate(761.962891 0.684375)" xlink:href="#DejaVuSans-20"/>
     <use transform="translate(793.75 0.684375)" xlink:href="#DejaVuSans-30"/>
     <use transform="translate(857.373047 0.684375)" xlink:href="#DejaVuSans-25"/>
     <use transform="translate(952.392578 0.684375)" xlink:href="#DejaVuSans-20"/>
     <use transform="translate(984.179688 0.684375)" xlink:href="#DejaVuSans-2c"/>
     <use transform="translate(1015.966797 0.684375)" xlink:href="#DejaVuSans-20"/>
     <use transform="translate(1047.753906 0.684375)" xlink:href="#DejaVuSans-20"/>
     <use transform="translate(1079.541016 0.684375)" xlink:href="#DejaVuSans-394"/>
     <use transform="translate(1147.949219 0.684375)" xlink:href="#DejaVuSans-Oblique-43"/>
     <use transform="translate(1237.255859 0.684375)" xlink:href="#DejaVuSans-3d"/>
     <use transform="translate(1340.527344 0.684375)" xlink:href="#DejaVuSans-20"/>
     <use transform="translate(1372.314453 0.684375)" xlink:href="#DejaVuSans-30"/>
     <use transform="translate(1435.9375 0.684375)" xlink:href="#DejaVuSans-25"/>
     <use transform="translate(1530.957031 0.684375)" xlink:href="#DejaVuSans-20"/>
     <use transform="translate(1562.744141 0.684375)" xlink:href="#DejaVuSans-2c"/>
     <use transform="translate(1594.53125 0.684375)" xlink:href="#DejaVuSans-20"/>
     <use transform="translate(1626.318359 0.684375)" xlink:href="#DejaVuSans-Oblique-3b6"/>
     <use transform="translate(1700.195312 0.684375)" xlink:href="#DejaVuSans-3d"/>
     <use transform="translate(1803.466797 0.684375)" xlink:href="#DejaVuSans-2d"/>
     <use transform="translate(1839.550781 0.684375)" xlink:href="#DejaVuSans-30"/>
     <use transform="translate(1903.173828 0.684375)" xlink:href="#DejaVuSans-2e"/>
     <use transform="translate(1929.460938 0.684375)" xlink:href="#DejaVuSans-32"/>
     <use transform="translate(1993.083984 0.684375)" xlink:href="#DejaVuSans-2c"/>
     <use transform="translate(2024.871094 0.684375)" xlink:href="#DejaVuSans-20"/>
     <use transform="translate(2056.658203 0.684375)" xlink:href="#DejaVuSans-Oblique-3c3"/>
     <use transform="translate(2139.519531 0.684375)" xlink:href="#DejaVuSans-3d"/>
     <use transform="translate(2242.791016 0.684375)" xlink:href="#DejaVuSans-30"/>
     <use transform="translate(2306.414062 0.684375)" xlink:href="#DejaVuSans-2e"/>
     <use transform="translate(2338.201172 0.684375)" xlink:href="#DejaVuSans-31"/>
     <use transform="translate(2401.824219 0.684375)" xlink:href="#DejaVuSans-39"/>
     <use transform="translate(2465.447266 0.684375)" xlink:href="#DejaVuSans-35"/>
     <use transform="translate(2529.070312 0.684375)" xlink:href="#DejaVuSans-33"/>
     <use transform="translate(2592.693359 0.684375)" xlink:href="#DejaVuSans-Oblique-63"/>
     <use transform="translate(2647.673828 0.684375)" xlink:href="#DejaVuSans-Oblique-6d"/>
     <use transform="translate(2749.735833 38.965625)scale(0.7)" xlink:href="#DejaVuSans-2212"/>
     <use transform="translate(2808.388177 38.965625)scale(0.7)" xlink:href="#DejaVuSans-31"/>
    </g>
   </g>
   <g id="legend_1">
    <g id="patch_7">
     <path d="M 57.14375 453.88 
L 235.664063 453.88 
Q 237.664063 453.88 237.664063 451.88 
L 237.664063 394.1675 
Q 237.664063 392.1675 235.664063 392.1675 
L 57.14375 392.1675 
Q 55.14375 392.1675 55.14375 394.1675 
L 55.14375 451.88 
Q 55.14375 453.88 57.14375 453.88 
z
" style="fill:#ffffff;opacity:0.8;stroke:#cccccc;stroke-linejoin:miter;"/>
    </g>
    <g id="text_17">
     <!-- Temp,   QR - PQ -->
     <g transform="translate(107.379688 403.765937)scale(0.1 -0.1)">
      <defs>
       <path d="M -19 4666 
L 3928 4666 
L 3928 4134 
L 2272 4134 
L 2272 0 
L 1638 0 
L 1638 4134 
L -19 4134 
L -19 4666 
z
" id="DejaVuSans-54" transform="scale(0.015625)"/>
       <path d="M 1159 525 
L 1159 -1331 
L 581 -1331 
L 581 3500 
L 1159 3500 
L 1159 2969 
Q 1341 3281 1617 3432 
Q 1894 3584 2278 3584 
Q 2916 3584 3314 3078 
Q 3713 2572 3713 1747 
Q 3713 922 3314 415 
Q 2916 -91 2278 -91 
Q 1894 -91 1617 61 
Q 1341 213 1159 525 
z
M 3116 1747 
Q 3116 2381 2855 2742 
Q 2594 3103 2138 3103 
Q 1681 3103 1420 2742 
Q 1159 2381 1159 1747 
Q 1159 1113 1420 752 
Q 1681 391 2138 391 
Q 2594 391 2855 752 
Q 3116 1113 3116 1747 
z
" id="DejaVuSans-70" transform="scale(0.015625)"/>
       <path d="M 2522 4238 
Q 1834 4238 1429 3725 
Q 1025 3213 1025 2328 
Q 1025 1447 1429 934 
Q 1834 422 2522 422 
Q 3209 422 3611 934 
Q 4013 1447 4013 2328 
Q 4013 3213 3611 3725 
Q 3209 4238 2522 4238 
z
M 3406 84 
L 4238 -825 
L 3475 -825 
L 2784 -78 
Q 2681 -84 2626 -87 
Q 2572 -91 2522 -91 
Q 1538 -91 948 567 
Q 359 1225 359 2328 
Q 359 3434 948 4092 
Q 1538 4750 2522 4750 
Q 3503 4750 4090 4092 
Q 4678 3434 4678 2328 
Q 4678 1516 4351 937 
Q 4025 359 3406 84 
z
" id="DejaVuSans-51" transform="scale(0.015625)"/>
       <path d="M 2841 2188 
Q 3044 2119 3236 1894 
Q 3428 1669 3622 1275 
L 4263 0 
L 3584 0 
L 2988 1197 
Q 2756 1666 2539 1819 
Q 2322 1972 1947 1972 
L 1259 1972 
L 1259 0 
L 628 0 
L 628 4666 
L 2053 4666 
Q 2853 4666 3247 4331 
Q 3641 3997 3641 3322 
Q 3641 2881 3436 2590 
Q 3231 2300 2841 2188 
z
M 1259 4147 
L 1259 2491 
L 2053 2491 
Q 2509 2491 2742 2702 
Q 2975 2913 2975 3322 
Q 2975 3731 2742 3939 
Q 2509 4147 2053 4147 
L 1259 4147 
z
" id="DejaVuSans-52" transform="scale(0.015625)"/>
       <path d="M 1259 4147 
L 1259 2394 
L 2053 2394 
Q 2494 2394 2734 2622 
Q 2975 2850 2975 3272 
Q 2975 3691 2734 3919 
Q 2494 4147 2053 4147 
L 1259 4147 
z
M 628 4666 
L 2053 4666 
Q 2838 4666 3239 4311 
Q 3641 3956 3641 3272 
Q 3641 2581 3239 2228 
Q 2838 1875 2053 1875 
L 1259 1875 
L 1259 0 
L 628 0 
L 628 4666 
z
" id="DejaVuSans-50" transform="scale(0.015625)"/>
      </defs>
      <use xlink:href="#DejaVuSans-54"/>
      <use x="44.083984" xlink:href="#DejaVuSans-65"/>
      <use x="105.607422" xlink:href="#DejaVuSans-6d"/>
      <use x="203.019531" xlink:href="#DejaVuSans-70"/>
      <use x="266.496094" xlink:href="#DejaVuSans-2c"/>
      <use x="298.283203" xlink:href="#DejaVuSans-20"/>
      <use x="330.070312" xlink:href="#DejaVuSans-20"/>
      <use x="361.857422" xlink:href="#DejaVuSans-20"/>
      <use x="393.644531" xlink:href="#DejaVuSans-51"/>
      <use x="472.355469" xlink:href="#DejaVuSans-52"/>
      <use x="541.837891" xlink:href="#DejaVuSans-20"/>
      <use x="573.625" xlink:href="#DejaVuSans-2d"/>
      <use x="609.708984" xlink:href="#DejaVuSans-20"/>
      <use x="641.496094" xlink:href="#DejaVuSans-50"/>
      <use x="701.798828" xlink:href="#DejaVuSans-51"/>
     </g>
    </g>
    <g id="line2d_23">
     <path d="M 59.14375 414.944062 
L 79.14375 414.944062 
" style="fill:none;stroke:#e5715e;stroke-linecap:square;stroke-width:1.5;"/>
    </g>
    <g id="line2d_24"/>
    <g id="text_18">
     <!-- 6 K, 0.08232557115339911 -->
     <g transform="translate(87.14375 418.444062)scale(0.1 -0.1)">
      <defs>
       <path d="M 628 4666 
L 1259 4666 
L 1259 2694 
L 3353 4666 
L 4166 4666 
L 1850 2491 
L 4331 0 
L 3500 0 
L 1259 2247 
L 1259 0 
L 628 0 
L 628 4666 
z
" id="DejaVuSans-4b" transform="scale(0.015625)"/>
       <path d="M 525 4666 
L 3525 4666 
L 3525 4397 
L 1831 0 
L 1172 0 
L 2766 4134 
L 525 4134 
L 525 4666 
z
" id="DejaVuSans-37" transform="scale(0.015625)"/>
      </defs>
      <use xlink:href="#DejaVuSans-36"/>
      <use x="63.623047" xlink:href="#DejaVuSans-20"/>
      <use x="95.410156" xlink:href="#DejaVuSans-4b"/>
      <use x="160.986328" xlink:href="#DejaVuSans-2c"/>
      <use x="192.773438" xlink:href="#DejaVuSans-20"/>
      <use x="224.560547" xlink:href="#DejaVuSans-30"/>
      <use x="288.183594" xlink:href="#DejaVuSans-2e"/>
      <use x="319.970703" xlink:href="#DejaVuSans-30"/>
      <use x="383.59375" xlink:href="#DejaVuSans-38"/>
      <use x="447.216797" xlink:href="#DejaVuSans-32"/>
      <use x="510.839844" xlink:href="#DejaVuSans-33"/>
      <use x="574.462891" xlink:href="#DejaVuSans-32"/>
      <use x="638.085938" xlink:href="#DejaVuSans-35"/>
      <use x="701.708984" xlink:href="#DejaVuSans-35"/>
      <use x="765.332031" xlink:href="#DejaVuSans-37"/>
      <use x="828.955078" xlink:href="#DejaVuSans-31"/>
      <use x="892.578125" xlink:href="#DejaVuSans-31"/>
      <use x="956.201172" xlink:href="#DejaVuSans-35"/>
      <use x="1019.824219" xlink:href="#DejaVuSans-33"/>
      <use x="1083.447266" xlink:href="#DejaVuSans-33"/>
      <use x="1147.070312" xlink:href="#DejaVuSans-39"/>
      <use x="1210.693359" xlink:href="#DejaVuSans-39"/>
      <use x="1274.316406" xlink:href="#DejaVuSans-31"/>
      <use x="1337.939453" xlink:href="#DejaVuSans-31"/>
     </g>
    </g>
    <g id="line2d_25">
     <path d="M 59.14375 429.622187 
L 79.14375 429.622187 
" style="fill:none;stroke:#c14168;stroke-linecap:square;stroke-width:1.5;"/>
    </g>
    <g id="line2d_26"/>
    <g id="text_19">
     <!-- 10 K, 0.04357115048818294 -->
     <g transform="translate(87.14375 433.122187)scale(0.1 -0.1)">
      <use xlink:href="#DejaVuSans-31"/>
      <use x="63.623047" xlink:href="#DejaVuSans-30"/>
      <use x="127.246094" xlink:href="#DejaVuSans-20"/>
      <use x="159.033203" xlink:href="#DejaVuSans-4b"/>
      <use x="224.609375" xlink:href="#DejaVuSans-2c"/>
      <use x="256.396484" xlink:href="#DejaVuSans-20"/>
      <use x="288.183594" xlink:href="#DejaVuSans-30"/>
      <use x="351.806641" xlink:href="#DejaVuSans-2e"/>
      <use x="383.59375" xlink:href="#DejaVuSans-30"/>
      <use x="447.216797" xlink:href="#DejaVuSans-34"/>
      <use x="510.839844" xlink:href="#DejaVuSans-33"/>
      <use x="574.462891" xlink:href="#DejaVuSans-35"/>
      <use x="638.085938" xlink:href="#DejaVuSans-37"/>
      <use x="701.708984" xlink:href="#DejaVuSans-31"/>
      <use x="765.332031" xlink:href="#DejaVuSans-31"/>
      <use x="828.955078" xlink:href="#DejaVuSans-35"/>
      <use x="892.578125" xlink:href="#DejaVuSans-30"/>
      <use x="956.201172" xlink:href="#DejaVuSans-34"/>
      <use x="1019.824219" xlink:href="#DejaVuSans-38"/>
      <use x="1083.447266" xlink:href="#DejaVuSans-38"/>
      <use x="1147.070312" xlink:href="#DejaVuSans-31"/>
      <use x="1210.693359" xlink:href="#DejaVuSans-38"/>
      <use x="1274.316406" xlink:href="#DejaVuSans-32"/>
      <use x="1337.939453" xlink:href="#DejaVuSans-39"/>
      <use x="1401.5625" xlink:href="#DejaVuSans-34"/>
     </g>
    </g>
    <g id="line2d_27">
     <path d="M 59.14375 444.300312 
L 79.14375 444.300312 
" style="fill:none;stroke:#863071;stroke-linecap:square;stroke-width:1.5;"/>
    </g>
    <g id="line2d_28"/>
    <g id="text_20">
     <!-- 20 K, 0.04630127947550555 -->
     <g transform="translate(87.14375 447.800312)scale(0.1 -0.1)">
      <use xlink:href="#DejaVuSans-32"/>
      <use x="63.623047" xlink:href="#DejaVuSans-30"/>
      <use x="127.246094" xlink:href="#DejaVuSans-20"/>
      <use x="159.033203" xlink:href="#DejaVuSans-4b"/>
      <use x="224.609375" xlink:href="#DejaVuSans-2c"/>
      <use x="256.396484" xlink:href="#DejaVuSans-20"/>
      <use x="288.183594" xlink:href="#DejaVuSans-30"/>
      <use x="351.806641" xlink:href="#DejaVuSans-2e"/>
      <use x="383.59375" xlink:href="#DejaVuSans-30"/>
      <use x="447.216797" xlink:href="#DejaVuSans-34"/>
      <use x="510.839844" xlink:href="#DejaVuSans-36"/>
      <use x="574.462891" xlink:href="#DejaVuSans-33"/>
      <use x="638.085938" xlink:href="#DejaVuSans-30"/>
      <use x="701.708984" xlink:href="#DejaVuSans-31"/>
      <use x="765.332031" xlink:href="#DejaVuSans-32"/>
      <use x="828.955078" xlink:href="#DejaVuSans-37"/>
      <use x="892.578125" xlink:href="#DejaVuSans-39"/>
      <use x="956.201172" xlink:href="#DejaVuSans-34"/>
      <use x="1019.824219" xlink:href="#DejaVuSans-37"/>
      <use x="1083.447266" xlink:href="#DejaVuSans-35"/>
      <use x="1147.070312" xlink:href="#DejaVuSans-35"/>
      <use x="1210.693359" xlink:href="#DejaVuSans-30"/>
      <use x="1274.316406" xlink:href="#DejaVuSans-35"/>
      <use x="1337.939453" xlink:href="#DejaVuSans-35"/>
      <use x="1401.5625" xlink:href="#DejaVuSans-35"/>
     </g>
    </g>
   </g>
  </g>
 </g>
 <defs>
  <clipPath id="pbe71f37464">
   <rect height="434.88" width="837" x="50.14375" y="24"/>
  </clipPath>
 </defs>
</svg>
