<?xml version="1.0" encoding="utf-8" standalone="no"?>
<!DOCTYPE svg PUBLIC "-//W3C//DTD SVG 1.1//EN"
  "http://www.w3.org/Graphics/SVG/1.1/DTD/svg11.dtd">
<svg height="392.058125pt" version="1.1" viewBox="0 0 885.8625 392.058125" width="885.8625pt" xmlns="http://www.w3.org/2000/svg" xmlns:xlink="http://www.w3.org/1999/xlink">
 <metadata>
  <rdf:RDF xmlns:cc="http://creativecommons.org/ns#" xmlns:dc="http://purl.org/dc/elements/1.1/" xmlns:rdf="http://www.w3.org/1999/02/22-rdf-syntax-ns#">
   <cc:Work>
    <dc:type rdf:resource="http://purl.org/dc/dcmitype/StillImage"/>
    <dc:date>2022-11-23T15:50:21.196207</dc:date>
    <dc:format>image/svg+xml</dc:format>
    <dc:creator>
     <cc:Agent>
      <dc:title>Matplotlib v3.4.3, https://matplotlib.org/</dc:title>
     </cc:Agent>
    </dc:creator>
   </cc:Work>
  </rdf:RDF>
 </metadata>
 <defs>
  <style type="text/css">*{stroke-linecap:butt;stroke-linejoin:round;}</style>
 </defs>
 <g id="figure_1">
  <g id="patch_1">
   <path d="M 0 392.058125 
L 885.8625 392.058125 
L 885.8625 0 
L 0 0 
z
" style="fill:#ffffff;"/>
  </g>
  <g id="axes_1">
   <g id="patch_2">
    <path d="M 41.6625 348.48 
L 878.6625 348.48 
L 878.6625 22.32 
L 41.6625 22.32 
z
" style="fill:#ffffff;"/>
   </g>
   <g id="matplotlib.axis_1">
    <g id="xtick_1">
     <g id="line2d_1">
      <defs>
       <path d="M 0 0 
L 0 3.5 
" id="ma6bf90bb1e" style="stroke:#000000;stroke-width:0.8;"/>
      </defs>
      <g>
       <use style="stroke:#000000;stroke-width:0.8;" x="49.181141" xlink:href="#ma6bf90bb1e" y="348.48"/>
      </g>
     </g>
     <g id="text_1">
      <!-- 0 -->
      <g transform="translate(45.999891 363.078438)scale(0.1 -0.1)">
       <defs>
        <path d="M 2034 4250 
Q 1547 4250 1301 3770 
Q 1056 3291 1056 2328 
Q 1056 1369 1301 889 
Q 1547 409 2034 409 
Q 2525 409 2770 889 
Q 3016 1369 3016 2328 
Q 3016 3291 2770 3770 
Q 2525 4250 2034 4250 
z
M 2034 4750 
Q 2819 4750 3233 4129 
Q 3647 3509 3647 2328 
Q 3647 1150 3233 529 
Q 2819 -91 2034 -91 
Q 1250 -91 836 529 
Q 422 1150 422 2328 
Q 422 3509 836 4129 
Q 1250 4750 2034 4750 
z
" id="DejaVuSans-30" transform="scale(0.015625)"/>
       </defs>
       <use xlink:href="#DejaVuSans-30"/>
      </g>
     </g>
    </g>
    <g id="xtick_2">
     <g id="line2d_2">
      <g>
       <use style="stroke:#000000;stroke-width:0.8;" x="162.243413" xlink:href="#ma6bf90bb1e" y="348.48"/>
      </g>
     </g>
     <g id="text_2">
      <!-- 10 -->
      <g transform="translate(155.880913 363.078438)scale(0.1 -0.1)">
       <defs>
        <path d="M 794 531 
L 1825 531 
L 1825 4091 
L 703 3866 
L 703 4441 
L 1819 4666 
L 2450 4666 
L 2450 531 
L 3481 531 
L 3481 0 
L 794 0 
L 794 531 
z
" id="DejaVuSans-31" transform="scale(0.015625)"/>
       </defs>
       <use xlink:href="#DejaVuSans-31"/>
       <use x="63.623047" xlink:href="#DejaVuSans-30"/>
      </g>
     </g>
    </g>
    <g id="xtick_3">
     <g id="line2d_3">
      <g>
       <use style="stroke:#000000;stroke-width:0.8;" x="275.305685" xlink:href="#ma6bf90bb1e" y="348.48"/>
      </g>
     </g>
     <g id="text_3">
      <!-- 20 -->
      <g transform="translate(268.943185 363.078438)scale(0.1 -0.1)">
       <defs>
        <path d="M 1228 531 
L 3431 531 
L 3431 0 
L 469 0 
L 469 531 
Q 828 903 1448 1529 
Q 2069 2156 2228 2338 
Q 2531 2678 2651 2914 
Q 2772 3150 2772 3378 
Q 2772 3750 2511 3984 
Q 2250 4219 1831 4219 
Q 1534 4219 1204 4116 
Q 875 4013 500 3803 
L 500 4441 
Q 881 4594 1212 4672 
Q 1544 4750 1819 4750 
Q 2544 4750 2975 4387 
Q 3406 4025 3406 3419 
Q 3406 3131 3298 2873 
Q 3191 2616 2906 2266 
Q 2828 2175 2409 1742 
Q 1991 1309 1228 531 
z
" id="DejaVuSans-32" transform="scale(0.015625)"/>
       </defs>
       <use xlink:href="#DejaVuSans-32"/>
       <use x="63.623047" xlink:href="#DejaVuSans-30"/>
      </g>
     </g>
    </g>
    <g id="xtick_4">
     <g id="line2d_4">
      <g>
       <use style="stroke:#000000;stroke-width:0.8;" x="388.367957" xlink:href="#ma6bf90bb1e" y="348.48"/>
      </g>
     </g>
     <g id="text_4">
      <!-- 30 -->
      <g transform="translate(382.005457 363.078438)scale(0.1 -0.1)">
       <defs>
        <path d="M 2597 2516 
Q 3050 2419 3304 2112 
Q 3559 1806 3559 1356 
Q 3559 666 3084 287 
Q 2609 -91 1734 -91 
Q 1441 -91 1130 -33 
Q 819 25 488 141 
L 488 750 
Q 750 597 1062 519 
Q 1375 441 1716 441 
Q 2309 441 2620 675 
Q 2931 909 2931 1356 
Q 2931 1769 2642 2001 
Q 2353 2234 1838 2234 
L 1294 2234 
L 1294 2753 
L 1863 2753 
Q 2328 2753 2575 2939 
Q 2822 3125 2822 3475 
Q 2822 3834 2567 4026 
Q 2313 4219 1838 4219 
Q 1578 4219 1281 4162 
Q 984 4106 628 3988 
L 628 4550 
Q 988 4650 1302 4700 
Q 1616 4750 1894 4750 
Q 2613 4750 3031 4423 
Q 3450 4097 3450 3541 
Q 3450 3153 3228 2886 
Q 3006 2619 2597 2516 
z
" id="DejaVuSans-33" transform="scale(0.015625)"/>
       </defs>
       <use xlink:href="#DejaVuSans-33"/>
       <use x="63.623047" xlink:href="#DejaVuSans-30"/>
      </g>
     </g>
    </g>
    <g id="xtick_5">
     <g id="line2d_5">
      <g>
       <use style="stroke:#000000;stroke-width:0.8;" x="501.430229" xlink:href="#ma6bf90bb1e" y="348.48"/>
      </g>
     </g>
     <g id="text_5">
      <!-- 40 -->
      <g transform="translate(495.067729 363.078438)scale(0.1 -0.1)">
       <defs>
        <path d="M 2419 4116 
L 825 1625 
L 2419 1625 
L 2419 4116 
z
M 2253 4666 
L 3047 4666 
L 3047 1625 
L 3713 1625 
L 3713 1100 
L 3047 1100 
L 3047 0 
L 2419 0 
L 2419 1100 
L 313 1100 
L 313 1709 
L 2253 4666 
z
" id="DejaVuSans-34" transform="scale(0.015625)"/>
       </defs>
       <use xlink:href="#DejaVuSans-34"/>
       <use x="63.623047" xlink:href="#DejaVuSans-30"/>
      </g>
     </g>
    </g>
    <g id="xtick_6">
     <g id="line2d_6">
      <g>
       <use style="stroke:#000000;stroke-width:0.8;" x="614.492501" xlink:href="#ma6bf90bb1e" y="348.48"/>
      </g>
     </g>
     <g id="text_6">
      <!-- 50 -->
      <g transform="translate(608.130001 363.078438)scale(0.1 -0.1)">
       <defs>
        <path d="M 691 4666 
L 3169 4666 
L 3169 4134 
L 1269 4134 
L 1269 2991 
Q 1406 3038 1543 3061 
Q 1681 3084 1819 3084 
Q 2600 3084 3056 2656 
Q 3513 2228 3513 1497 
Q 3513 744 3044 326 
Q 2575 -91 1722 -91 
Q 1428 -91 1123 -41 
Q 819 9 494 109 
L 494 744 
Q 775 591 1075 516 
Q 1375 441 1709 441 
Q 2250 441 2565 725 
Q 2881 1009 2881 1497 
Q 2881 1984 2565 2268 
Q 2250 2553 1709 2553 
Q 1456 2553 1204 2497 
Q 953 2441 691 2322 
L 691 4666 
z
" id="DejaVuSans-35" transform="scale(0.015625)"/>
       </defs>
       <use xlink:href="#DejaVuSans-35"/>
       <use x="63.623047" xlink:href="#DejaVuSans-30"/>
      </g>
     </g>
    </g>
    <g id="xtick_7">
     <g id="line2d_7">
      <g>
       <use style="stroke:#000000;stroke-width:0.8;" x="727.554773" xlink:href="#ma6bf90bb1e" y="348.48"/>
      </g>
     </g>
     <g id="text_7">
      <!-- 60 -->
      <g transform="translate(721.192273 363.078438)scale(0.1 -0.1)">
       <defs>
        <path d="M 2113 2584 
Q 1688 2584 1439 2293 
Q 1191 2003 1191 1497 
Q 1191 994 1439 701 
Q 1688 409 2113 409 
Q 2538 409 2786 701 
Q 3034 994 3034 1497 
Q 3034 2003 2786 2293 
Q 2538 2584 2113 2584 
z
M 3366 4563 
L 3366 3988 
Q 3128 4100 2886 4159 
Q 2644 4219 2406 4219 
Q 1781 4219 1451 3797 
Q 1122 3375 1075 2522 
Q 1259 2794 1537 2939 
Q 1816 3084 2150 3084 
Q 2853 3084 3261 2657 
Q 3669 2231 3669 1497 
Q 3669 778 3244 343 
Q 2819 -91 2113 -91 
Q 1303 -91 875 529 
Q 447 1150 447 2328 
Q 447 3434 972 4092 
Q 1497 4750 2381 4750 
Q 2619 4750 2861 4703 
Q 3103 4656 3366 4563 
z
" id="DejaVuSans-36" transform="scale(0.015625)"/>
       </defs>
       <use xlink:href="#DejaVuSans-36"/>
       <use x="63.623047" xlink:href="#DejaVuSans-30"/>
      </g>
     </g>
    </g>
    <g id="xtick_8">
     <g id="line2d_8">
      <g>
       <use style="stroke:#000000;stroke-width:0.8;" x="840.617045" xlink:href="#ma6bf90bb1e" y="348.48"/>
      </g>
     </g>
     <g id="text_8">
      <!-- 70 -->
      <g transform="translate(834.254545 363.078438)scale(0.1 -0.1)">
       <defs>
        <path d="M 525 4666 
L 3525 4666 
L 3525 4397 
L 1831 0 
L 1172 0 
L 2766 4134 
L 525 4134 
L 525 4666 
z
" id="DejaVuSans-37" transform="scale(0.015625)"/>
       </defs>
       <use xlink:href="#DejaVuSans-37"/>
       <use x="63.623047" xlink:href="#DejaVuSans-30"/>
      </g>
     </g>
    </g>
    <g id="text_9">
     <!-- Rotational temperature $T_{rot}$ ( in K) -->
     <g transform="translate(375.1625 382.758125)scale(0.1 -0.1)">
      <defs>
       <path d="M 2841 2188 
Q 3044 2119 3236 1894 
Q 3428 1669 3622 1275 
L 4263 0 
L 3584 0 
L 2988 1197 
Q 2756 1666 2539 1819 
Q 2322 1972 1947 1972 
L 1259 1972 
L 1259 0 
L 628 0 
L 628 4666 
L 2053 4666 
Q 2853 4666 3247 4331 
Q 3641 3997 3641 3322 
Q 3641 2881 3436 2590 
Q 3231 2300 2841 2188 
z
M 1259 4147 
L 1259 2491 
L 2053 2491 
Q 2509 2491 2742 2702 
Q 2975 2913 2975 3322 
Q 2975 3731 2742 3939 
Q 2509 4147 2053 4147 
L 1259 4147 
z
" id="DejaVuSans-52" transform="scale(0.015625)"/>
       <path d="M 1959 3097 
Q 1497 3097 1228 2736 
Q 959 2375 959 1747 
Q 959 1119 1226 758 
Q 1494 397 1959 397 
Q 2419 397 2687 759 
Q 2956 1122 2956 1747 
Q 2956 2369 2687 2733 
Q 2419 3097 1959 3097 
z
M 1959 3584 
Q 2709 3584 3137 3096 
Q 3566 2609 3566 1747 
Q 3566 888 3137 398 
Q 2709 -91 1959 -91 
Q 1206 -91 779 398 
Q 353 888 353 1747 
Q 353 2609 779 3096 
Q 1206 3584 1959 3584 
z
" id="DejaVuSans-6f" transform="scale(0.015625)"/>
       <path d="M 1172 4494 
L 1172 3500 
L 2356 3500 
L 2356 3053 
L 1172 3053 
L 1172 1153 
Q 1172 725 1289 603 
Q 1406 481 1766 481 
L 2356 481 
L 2356 0 
L 1766 0 
Q 1100 0 847 248 
Q 594 497 594 1153 
L 594 3053 
L 172 3053 
L 172 3500 
L 594 3500 
L 594 4494 
L 1172 4494 
z
" id="DejaVuSans-74" transform="scale(0.015625)"/>
       <path d="M 2194 1759 
Q 1497 1759 1228 1600 
Q 959 1441 959 1056 
Q 959 750 1161 570 
Q 1363 391 1709 391 
Q 2188 391 2477 730 
Q 2766 1069 2766 1631 
L 2766 1759 
L 2194 1759 
z
M 3341 1997 
L 3341 0 
L 2766 0 
L 2766 531 
Q 2569 213 2275 61 
Q 1981 -91 1556 -91 
Q 1019 -91 701 211 
Q 384 513 384 1019 
Q 384 1609 779 1909 
Q 1175 2209 1959 2209 
L 2766 2209 
L 2766 2266 
Q 2766 2663 2505 2880 
Q 2244 3097 1772 3097 
Q 1472 3097 1187 3025 
Q 903 2953 641 2809 
L 641 3341 
Q 956 3463 1253 3523 
Q 1550 3584 1831 3584 
Q 2591 3584 2966 3190 
Q 3341 2797 3341 1997 
z
" id="DejaVuSans-61" transform="scale(0.015625)"/>
       <path d="M 603 3500 
L 1178 3500 
L 1178 0 
L 603 0 
L 603 3500 
z
M 603 4863 
L 1178 4863 
L 1178 4134 
L 603 4134 
L 603 4863 
z
" id="DejaVuSans-69" transform="scale(0.015625)"/>
       <path d="M 3513 2113 
L 3513 0 
L 2938 0 
L 2938 2094 
Q 2938 2591 2744 2837 
Q 2550 3084 2163 3084 
Q 1697 3084 1428 2787 
Q 1159 2491 1159 1978 
L 1159 0 
L 581 0 
L 581 3500 
L 1159 3500 
L 1159 2956 
Q 1366 3272 1645 3428 
Q 1925 3584 2291 3584 
Q 2894 3584 3203 3211 
Q 3513 2838 3513 2113 
z
" id="DejaVuSans-6e" transform="scale(0.015625)"/>
       <path d="M 603 4863 
L 1178 4863 
L 1178 0 
L 603 0 
L 603 4863 
z
" id="DejaVuSans-6c" transform="scale(0.015625)"/>
       <path id="DejaVuSans-20" transform="scale(0.015625)"/>
       <path d="M 3597 1894 
L 3597 1613 
L 953 1613 
Q 991 1019 1311 708 
Q 1631 397 2203 397 
Q 2534 397 2845 478 
Q 3156 559 3463 722 
L 3463 178 
Q 3153 47 2828 -22 
Q 2503 -91 2169 -91 
Q 1331 -91 842 396 
Q 353 884 353 1716 
Q 353 2575 817 3079 
Q 1281 3584 2069 3584 
Q 2775 3584 3186 3129 
Q 3597 2675 3597 1894 
z
M 3022 2063 
Q 3016 2534 2758 2815 
Q 2500 3097 2075 3097 
Q 1594 3097 1305 2825 
Q 1016 2553 972 2059 
L 3022 2063 
z
" id="DejaVuSans-65" transform="scale(0.015625)"/>
       <path d="M 3328 2828 
Q 3544 3216 3844 3400 
Q 4144 3584 4550 3584 
Q 5097 3584 5394 3201 
Q 5691 2819 5691 2113 
L 5691 0 
L 5113 0 
L 5113 2094 
Q 5113 2597 4934 2840 
Q 4756 3084 4391 3084 
Q 3944 3084 3684 2787 
Q 3425 2491 3425 1978 
L 3425 0 
L 2847 0 
L 2847 2094 
Q 2847 2600 2669 2842 
Q 2491 3084 2119 3084 
Q 1678 3084 1418 2786 
Q 1159 2488 1159 1978 
L 1159 0 
L 581 0 
L 581 3500 
L 1159 3500 
L 1159 2956 
Q 1356 3278 1631 3431 
Q 1906 3584 2284 3584 
Q 2666 3584 2933 3390 
Q 3200 3197 3328 2828 
z
" id="DejaVuSans-6d" transform="scale(0.015625)"/>
       <path d="M 1159 525 
L 1159 -1331 
L 581 -1331 
L 581 3500 
L 1159 3500 
L 1159 2969 
Q 1341 3281 1617 3432 
Q 1894 3584 2278 3584 
Q 2916 3584 3314 3078 
Q 3713 2572 3713 1747 
Q 3713 922 3314 415 
Q 2916 -91 2278 -91 
Q 1894 -91 1617 61 
Q 1341 213 1159 525 
z
M 3116 1747 
Q 3116 2381 2855 2742 
Q 2594 3103 2138 3103 
Q 1681 3103 1420 2742 
Q 1159 2381 1159 1747 
Q 1159 1113 1420 752 
Q 1681 391 2138 391 
Q 2594 391 2855 752 
Q 3116 1113 3116 1747 
z
" id="DejaVuSans-70" transform="scale(0.015625)"/>
       <path d="M 2631 2963 
Q 2534 3019 2420 3045 
Q 2306 3072 2169 3072 
Q 1681 3072 1420 2755 
Q 1159 2438 1159 1844 
L 1159 0 
L 581 0 
L 581 3500 
L 1159 3500 
L 1159 2956 
Q 1341 3275 1631 3429 
Q 1922 3584 2338 3584 
Q 2397 3584 2469 3576 
Q 2541 3569 2628 3553 
L 2631 2963 
z
" id="DejaVuSans-72" transform="scale(0.015625)"/>
       <path d="M 544 1381 
L 544 3500 
L 1119 3500 
L 1119 1403 
Q 1119 906 1312 657 
Q 1506 409 1894 409 
Q 2359 409 2629 706 
Q 2900 1003 2900 1516 
L 2900 3500 
L 3475 3500 
L 3475 0 
L 2900 0 
L 2900 538 
Q 2691 219 2414 64 
Q 2138 -91 1772 -91 
Q 1169 -91 856 284 
Q 544 659 544 1381 
z
M 1991 3584 
L 1991 3584 
z
" id="DejaVuSans-75" transform="scale(0.015625)"/>
       <path d="M 378 4666 
L 4325 4666 
L 4225 4134 
L 2559 4134 
L 1759 0 
L 1125 0 
L 1925 4134 
L 275 4134 
L 378 4666 
z
" id="DejaVuSans-Oblique-54" transform="scale(0.015625)"/>
       <path d="M 2853 2969 
Q 2766 3016 2653 3041 
Q 2541 3066 2413 3066 
Q 1953 3066 1609 2717 
Q 1266 2369 1153 1784 
L 800 0 
L 225 0 
L 909 3500 
L 1484 3500 
L 1375 2956 
Q 1603 3259 1920 3421 
Q 2238 3584 2597 3584 
Q 2691 3584 2781 3573 
Q 2872 3563 2963 3538 
L 2853 2969 
z
" id="DejaVuSans-Oblique-72" transform="scale(0.015625)"/>
       <path d="M 1625 -91 
Q 1009 -91 651 289 
Q 294 669 294 1325 
Q 294 1706 417 2101 
Q 541 2497 738 2766 
Q 1047 3184 1428 3384 
Q 1809 3584 2291 3584 
Q 2888 3584 3255 3212 
Q 3622 2841 3622 2241 
Q 3622 1825 3500 1412 
Q 3378 1000 3181 728 
Q 2875 309 2494 109 
Q 2113 -91 1625 -91 
z
M 891 1344 
Q 891 869 1089 633 
Q 1288 397 1691 397 
Q 2269 397 2648 901 
Q 3028 1406 3028 2181 
Q 3028 2634 2825 2865 
Q 2622 3097 2228 3097 
Q 1903 3097 1650 2945 
Q 1397 2794 1197 2484 
Q 1050 2253 970 1956 
Q 891 1659 891 1344 
z
" id="DejaVuSans-Oblique-6f" transform="scale(0.015625)"/>
       <path d="M 2706 3500 
L 2619 3053 
L 1472 3053 
L 1100 1153 
Q 1081 1047 1072 975 
Q 1063 903 1063 863 
Q 1063 663 1183 572 
Q 1303 481 1569 481 
L 2150 481 
L 2053 0 
L 1503 0 
Q 991 0 739 200 
Q 488 400 488 806 
Q 488 878 497 964 
Q 506 1050 525 1153 
L 897 3053 
L 409 3053 
L 500 3500 
L 978 3500 
L 1172 4494 
L 1747 4494 
L 1556 3500 
L 2706 3500 
z
" id="DejaVuSans-Oblique-74" transform="scale(0.015625)"/>
       <path d="M 1984 4856 
Q 1566 4138 1362 3434 
Q 1159 2731 1159 2009 
Q 1159 1288 1364 580 
Q 1569 -128 1984 -844 
L 1484 -844 
Q 1016 -109 783 600 
Q 550 1309 550 2009 
Q 550 2706 781 3412 
Q 1013 4119 1484 4856 
L 1984 4856 
z
" id="DejaVuSans-28" transform="scale(0.015625)"/>
       <path d="M 628 4666 
L 1259 4666 
L 1259 2694 
L 3353 4666 
L 4166 4666 
L 1850 2491 
L 4331 0 
L 3500 0 
L 1259 2247 
L 1259 0 
L 628 0 
L 628 4666 
z
" id="DejaVuSans-4b" transform="scale(0.015625)"/>
       <path d="M 513 4856 
L 1013 4856 
Q 1481 4119 1714 3412 
Q 1947 2706 1947 2009 
Q 1947 1309 1714 600 
Q 1481 -109 1013 -844 
L 513 -844 
Q 928 -128 1133 580 
Q 1338 1288 1338 2009 
Q 1338 2731 1133 3434 
Q 928 4138 513 4856 
z
" id="DejaVuSans-29" transform="scale(0.015625)"/>
      </defs>
      <use transform="translate(0 0.015625)" xlink:href="#DejaVuSans-52"/>
      <use transform="translate(69.482422 0.015625)" xlink:href="#DejaVuSans-6f"/>
      <use transform="translate(130.664062 0.015625)" xlink:href="#DejaVuSans-74"/>
      <use transform="translate(169.873047 0.015625)" xlink:href="#DejaVuSans-61"/>
      <use transform="translate(231.152344 0.015625)" xlink:href="#DejaVuSans-74"/>
      <use transform="translate(270.361328 0.015625)" xlink:href="#DejaVuSans-69"/>
      <use transform="translate(298.144531 0.015625)" xlink:href="#DejaVuSans-6f"/>
      <use transform="translate(359.326172 0.015625)" xlink:href="#DejaVuSans-6e"/>
      <use transform="translate(422.705078 0.015625)" xlink:href="#DejaVuSans-61"/>
      <use transform="translate(483.984375 0.015625)" xlink:href="#DejaVuSans-6c"/>
      <use transform="translate(511.767578 0.015625)" xlink:href="#DejaVuSans-20"/>
      <use transform="translate(543.554688 0.015625)" xlink:href="#DejaVuSans-74"/>
      <use transform="translate(582.763672 0.015625)" xlink:href="#DejaVuSans-65"/>
      <use transform="translate(644.287109 0.015625)" xlink:href="#DejaVuSans-6d"/>
      <use transform="translate(741.699219 0.015625)" xlink:href="#DejaVuSans-70"/>
      <use transform="translate(805.175781 0.015625)" xlink:href="#DejaVuSans-65"/>
      <use transform="translate(866.699219 0.015625)" xlink:href="#DejaVuSans-72"/>
      <use transform="translate(907.8125 0.015625)" xlink:href="#DejaVuSans-61"/>
      <use transform="translate(969.091797 0.015625)" xlink:href="#DejaVuSans-74"/>
      <use transform="translate(1008.300781 0.015625)" xlink:href="#DejaVuSans-75"/>
      <use transform="translate(1071.679688 0.015625)" xlink:href="#DejaVuSans-72"/>
      <use transform="translate(1112.792969 0.015625)" xlink:href="#DejaVuSans-65"/>
      <use transform="translate(1174.316406 0.015625)" xlink:href="#DejaVuSans-20"/>
      <use transform="translate(1206.103516 0.015625)" xlink:href="#DejaVuSans-Oblique-54"/>
      <use transform="translate(1267.1875 -16.390625)scale(0.7)" xlink:href="#DejaVuSans-Oblique-72"/>
      <use transform="translate(1295.966797 -16.390625)scale(0.7)" xlink:href="#DejaVuSans-Oblique-6f"/>
      <use transform="translate(1338.793945 -16.390625)scale(0.7)" xlink:href="#DejaVuSans-Oblique-74"/>
      <use transform="translate(1368.974609 0.015625)" xlink:href="#DejaVuSans-20"/>
      <use transform="translate(1400.761719 0.015625)" xlink:href="#DejaVuSans-28"/>
      <use transform="translate(1439.775391 0.015625)" xlink:href="#DejaVuSans-20"/>
      <use transform="translate(1471.5625 0.015625)" xlink:href="#DejaVuSans-69"/>
      <use transform="translate(1499.345703 0.015625)" xlink:href="#DejaVuSans-6e"/>
      <use transform="translate(1562.724609 0.015625)" xlink:href="#DejaVuSans-20"/>
      <use transform="translate(1594.511719 0.015625)" xlink:href="#DejaVuSans-4b"/>
      <use transform="translate(1660.087891 0.015625)" xlink:href="#DejaVuSans-29"/>
     </g>
    </g>
   </g>
   <g id="matplotlib.axis_2">
    <g id="ytick_1">
     <g id="line2d_9">
      <defs>
       <path d="M 0 0 
L -3.5 0 
" id="mfe01d59f15" style="stroke:#000000;stroke-width:0.8;"/>
      </defs>
      <g>
       <use style="stroke:#000000;stroke-width:0.8;" x="41.6625" xlink:href="#mfe01d59f15" y="338.046613"/>
      </g>
     </g>
     <g id="text_10">
      <!-- 1 -->
      <g transform="translate(28.3 341.845832)scale(0.1 -0.1)">
       <use xlink:href="#DejaVuSans-31"/>
      </g>
     </g>
    </g>
    <g id="ytick_2">
     <g id="line2d_10">
      <g>
       <use style="stroke:#000000;stroke-width:0.8;" x="41.6625" xlink:href="#mfe01d59f15" y="288.805641"/>
      </g>
     </g>
     <g id="text_11">
      <!-- 2 -->
      <g transform="translate(28.3 292.60486)scale(0.1 -0.1)">
       <use xlink:href="#DejaVuSans-32"/>
      </g>
     </g>
    </g>
    <g id="ytick_3">
     <g id="line2d_11">
      <g>
       <use style="stroke:#000000;stroke-width:0.8;" x="41.6625" xlink:href="#mfe01d59f15" y="239.564669"/>
      </g>
     </g>
     <g id="text_12">
      <!-- 3 -->
      <g transform="translate(28.3 243.363887)scale(0.1 -0.1)">
       <use xlink:href="#DejaVuSans-33"/>
      </g>
     </g>
    </g>
    <g id="ytick_4">
     <g id="line2d_12">
      <g>
       <use style="stroke:#000000;stroke-width:0.8;" x="41.6625" xlink:href="#mfe01d59f15" y="190.323697"/>
      </g>
     </g>
     <g id="text_13">
      <!-- 4 -->
      <g transform="translate(28.3 194.122915)scale(0.1 -0.1)">
       <use xlink:href="#DejaVuSans-34"/>
      </g>
     </g>
    </g>
    <g id="ytick_5">
     <g id="line2d_13">
      <g>
       <use style="stroke:#000000;stroke-width:0.8;" x="41.6625" xlink:href="#mfe01d59f15" y="141.082725"/>
      </g>
     </g>
     <g id="text_14">
      <!-- 5 -->
      <g transform="translate(28.3 144.881943)scale(0.1 -0.1)">
       <use xlink:href="#DejaVuSans-35"/>
      </g>
     </g>
    </g>
    <g id="ytick_6">
     <g id="line2d_14">
      <g>
       <use style="stroke:#000000;stroke-width:0.8;" x="41.6625" xlink:href="#mfe01d59f15" y="91.841752"/>
      </g>
     </g>
     <g id="text_15">
      <!-- 6 -->
      <g transform="translate(28.3 95.640971)scale(0.1 -0.1)">
       <use xlink:href="#DejaVuSans-36"/>
      </g>
     </g>
    </g>
    <g id="ytick_7">
     <g id="line2d_15">
      <g>
       <use style="stroke:#000000;stroke-width:0.8;" x="41.6625" xlink:href="#mfe01d59f15" y="42.60078"/>
      </g>
     </g>
     <g id="text_16">
      <!-- 7 -->
      <g transform="translate(28.3 46.399999)scale(0.1 -0.1)">
       <use xlink:href="#DejaVuSans-37"/>
      </g>
     </g>
    </g>
    <g id="text_17">
     <!-- Peak Separation $\Delta \nu_{PR}$ (in $cm^{-1}$) -->
     <g transform="translate(16.2 263.5)rotate(-90)scale(0.1 -0.1)">
      <defs>
       <path d="M 1259 4147 
L 1259 2394 
L 2053 2394 
Q 2494 2394 2734 2622 
Q 2975 2850 2975 3272 
Q 2975 3691 2734 3919 
Q 2494 4147 2053 4147 
L 1259 4147 
z
M 628 4666 
L 2053 4666 
Q 2838 4666 3239 4311 
Q 3641 3956 3641 3272 
Q 3641 2581 3239 2228 
Q 2838 1875 2053 1875 
L 1259 1875 
L 1259 0 
L 628 0 
L 628 4666 
z
" id="DejaVuSans-50" transform="scale(0.015625)"/>
       <path d="M 581 4863 
L 1159 4863 
L 1159 1991 
L 2875 3500 
L 3609 3500 
L 1753 1863 
L 3688 0 
L 2938 0 
L 1159 1709 
L 1159 0 
L 581 0 
L 581 4863 
z
" id="DejaVuSans-6b" transform="scale(0.015625)"/>
       <path d="M 3425 4513 
L 3425 3897 
Q 3066 4069 2747 4153 
Q 2428 4238 2131 4238 
Q 1616 4238 1336 4038 
Q 1056 3838 1056 3469 
Q 1056 3159 1242 3001 
Q 1428 2844 1947 2747 
L 2328 2669 
Q 3034 2534 3370 2195 
Q 3706 1856 3706 1288 
Q 3706 609 3251 259 
Q 2797 -91 1919 -91 
Q 1588 -91 1214 -16 
Q 841 59 441 206 
L 441 856 
Q 825 641 1194 531 
Q 1563 422 1919 422 
Q 2459 422 2753 634 
Q 3047 847 3047 1241 
Q 3047 1584 2836 1778 
Q 2625 1972 2144 2069 
L 1759 2144 
Q 1053 2284 737 2584 
Q 422 2884 422 3419 
Q 422 4038 858 4394 
Q 1294 4750 2059 4750 
Q 2388 4750 2728 4690 
Q 3069 4631 3425 4513 
z
" id="DejaVuSans-53" transform="scale(0.015625)"/>
       <path d="M 2188 4044 
L 906 525 
L 3472 525 
L 2188 4044 
z
M 50 0 
L 1831 4666 
L 2547 4666 
L 4325 0 
L 50 0 
z
" id="DejaVuSans-394" transform="scale(0.015625)"/>
       <path d="M 959 0 
L 572 3500 
L 1191 3500 
L 1522 563 
Q 1972 950 2391 1488 
Q 2706 1891 2788 2241 
Q 2825 2406 2809 2719 
Q 2794 3091 2544 3500 
L 3125 3500 
L 3125 3500 
Q 3288 3222 3353 2834 
Q 3416 2478 3369 2234 
Q 3250 1622 2719 1075 
Q 2025 363 1572 0 
L 959 0 
z
" id="DejaVuSans-Oblique-3bd" transform="scale(0.015625)"/>
       <path d="M 1081 4666 
L 2541 4666 
Q 3178 4666 3512 4369 
Q 3847 4072 3847 3500 
Q 3847 2731 3353 2303 
Q 2859 1875 1966 1875 
L 1172 1875 
L 806 0 
L 172 0 
L 1081 4666 
z
M 1613 4147 
L 1275 2394 
L 2069 2394 
Q 2606 2394 2893 2669 
Q 3181 2944 3181 3456 
Q 3181 3784 2986 3965 
Q 2791 4147 2438 4147 
L 1613 4147 
z
" id="DejaVuSans-Oblique-50" transform="scale(0.015625)"/>
       <path d="M 1613 4147 
L 1294 2491 
L 2106 2491 
Q 2584 2491 2879 2755 
Q 3175 3019 3175 3444 
Q 3175 3784 2976 3965 
Q 2778 4147 2406 4147 
L 1613 4147 
z
M 2772 2241 
Q 2972 2194 3105 2009 
Q 3238 1825 3413 1275 
L 3809 0 
L 3144 0 
L 2778 1197 
Q 2638 1659 2453 1815 
Q 2269 1972 1888 1972 
L 1191 1972 
L 806 0 
L 172 0 
L 1081 4666 
L 2503 4666 
Q 3150 4666 3495 4373 
Q 3841 4081 3841 3531 
Q 3841 3044 3547 2687 
Q 3253 2331 2772 2241 
z
" id="DejaVuSans-Oblique-52" transform="scale(0.015625)"/>
       <path d="M 3431 3366 
L 3316 2797 
Q 3109 2947 2876 3022 
Q 2644 3097 2394 3097 
Q 2119 3097 1870 3000 
Q 1622 2903 1453 2725 
Q 1184 2453 1037 2087 
Q 891 1722 891 1331 
Q 891 859 1127 628 
Q 1363 397 1844 397 
Q 2081 397 2348 469 
Q 2616 541 2906 684 
L 2797 116 
Q 2547 13 2283 -39 
Q 2019 -91 1741 -91 
Q 1044 -91 669 257 
Q 294 606 294 1253 
Q 294 1797 489 2255 
Q 684 2713 1069 3078 
Q 1331 3328 1684 3456 
Q 2038 3584 2456 3584 
Q 2700 3584 2940 3529 
Q 3181 3475 3431 3366 
z
" id="DejaVuSans-Oblique-63" transform="scale(0.015625)"/>
       <path d="M 5747 2113 
L 5338 0 
L 4763 0 
L 5166 2094 
Q 5191 2228 5203 2325 
Q 5216 2422 5216 2491 
Q 5216 2772 5059 2928 
Q 4903 3084 4622 3084 
Q 4203 3084 3875 2770 
Q 3547 2456 3450 1953 
L 3066 0 
L 2491 0 
L 2900 2094 
Q 2925 2209 2937 2307 
Q 2950 2406 2950 2484 
Q 2950 2769 2794 2926 
Q 2638 3084 2363 3084 
Q 1938 3084 1609 2770 
Q 1281 2456 1184 1953 
L 800 0 
L 225 0 
L 909 3500 
L 1484 3500 
L 1375 2956 
Q 1609 3263 1923 3423 
Q 2238 3584 2597 3584 
Q 2978 3584 3223 3384 
Q 3469 3184 3519 2828 
Q 3781 3197 4126 3390 
Q 4472 3584 4856 3584 
Q 5306 3584 5551 3325 
Q 5797 3066 5797 2591 
Q 5797 2488 5784 2364 
Q 5772 2241 5747 2113 
z
" id="DejaVuSans-Oblique-6d" transform="scale(0.015625)"/>
       <path d="M 678 2272 
L 4684 2272 
L 4684 1741 
L 678 1741 
L 678 2272 
z
" id="DejaVuSans-2212" transform="scale(0.015625)"/>
      </defs>
      <use transform="translate(0 0.684375)" xlink:href="#DejaVuSans-50"/>
      <use transform="translate(60.302734 0.684375)" xlink:href="#DejaVuSans-65"/>
      <use transform="translate(121.826172 0.684375)" xlink:href="#DejaVuSans-61"/>
      <use transform="translate(183.105469 0.684375)" xlink:href="#DejaVuSans-6b"/>
      <use transform="translate(241.015625 0.684375)" xlink:href="#DejaVuSans-20"/>
      <use transform="translate(272.802734 0.684375)" xlink:href="#DejaVuSans-53"/>
      <use transform="translate(336.279297 0.684375)" xlink:href="#DejaVuSans-65"/>
      <use transform="translate(397.802734 0.684375)" xlink:href="#DejaVuSans-70"/>
      <use transform="translate(461.279297 0.684375)" xlink:href="#DejaVuSans-61"/>
      <use transform="translate(522.558594 0.684375)" xlink:href="#DejaVuSans-72"/>
      <use transform="translate(563.671875 0.684375)" xlink:href="#DejaVuSans-61"/>
      <use transform="translate(624.951172 0.684375)" xlink:href="#DejaVuSans-74"/>
      <use transform="translate(664.160156 0.684375)" xlink:href="#DejaVuSans-69"/>
      <use transform="translate(691.943359 0.684375)" xlink:href="#DejaVuSans-6f"/>
      <use transform="translate(753.125 0.684375)" xlink:href="#DejaVuSans-6e"/>
      <use transform="translate(816.503906 0.684375)" xlink:href="#DejaVuSans-20"/>
      <use transform="translate(848.291016 0.684375)" xlink:href="#DejaVuSans-394"/>
      <use transform="translate(916.699219 0.684375)" xlink:href="#DejaVuSans-Oblique-3bd"/>
      <use transform="translate(972.558594 -15.721875)scale(0.7)" xlink:href="#DejaVuSans-Oblique-50"/>
      <use transform="translate(1014.770508 -15.721875)scale(0.7)" xlink:href="#DejaVuSans-Oblique-52"/>
      <use transform="translate(1066.142578 0.684375)" xlink:href="#DejaVuSans-20"/>
      <use transform="translate(1097.929688 0.684375)" xlink:href="#DejaVuSans-28"/>
      <use transform="translate(1136.943359 0.684375)" xlink:href="#DejaVuSans-69"/>
      <use transform="translate(1164.726562 0.684375)" xlink:href="#DejaVuSans-6e"/>
      <use transform="translate(1228.105469 0.684375)" xlink:href="#DejaVuSans-20"/>
      <use transform="translate(1259.892578 0.684375)" xlink:href="#DejaVuSans-Oblique-63"/>
      <use transform="translate(1314.873047 0.684375)" xlink:href="#DejaVuSans-Oblique-6d"/>
      <use transform="translate(1416.935052 38.965625)scale(0.7)" xlink:href="#DejaVuSans-2212"/>
      <use transform="translate(1475.587396 38.965625)scale(0.7)" xlink:href="#DejaVuSans-31"/>
      <use transform="translate(1522.857904 0.684375)" xlink:href="#DejaVuSans-29"/>
     </g>
    </g>
   </g>
   <g id="line2d_16">
    <path clip-path="url(#pc885905571)" d="M 614.492501 328.420095 
L 727.554773 319.191678 
L 840.617045 312.043133 
" style="fill:none;stroke:#82eb32;stroke-linecap:square;stroke-width:2;"/>
    <defs>
     <path d="M 0 3 
C 0.795609 3 1.55874 2.683901 2.12132 2.12132 
C 2.683901 1.55874 3 0.795609 3 0 
C 3 -0.795609 2.683901 -1.55874 2.12132 -2.12132 
C 1.55874 -2.683901 0.795609 -3 0 -3 
C -0.795609 -3 -1.55874 -2.683901 -2.12132 -2.12132 
C -2.683901 -1.55874 -3 -0.795609 -3 0 
C -3 0.795609 -2.683901 1.55874 -2.12132 2.12132 
C -1.55874 2.683901 -0.795609 3 0 3 
z
" id="m2711fe6f99" style="stroke:#82eb32;"/>
    </defs>
    <g clip-path="url(#pc885905571)">
     <use style="fill:#82eb32;stroke:#82eb32;" x="614.492501" xlink:href="#m2711fe6f99" y="328.420095"/>
     <use style="fill:#82eb32;stroke:#82eb32;" x="727.554773" xlink:href="#m2711fe6f99" y="319.191678"/>
     <use style="fill:#82eb32;stroke:#82eb32;" x="840.617045" xlink:href="#m2711fe6f99" y="312.043133"/>
    </g>
   </g>
   <g id="line2d_17">
    <path clip-path="url(#pc885905571)" d="M 444.899093 327.997336 
L 501.430229 321.42675 
L 614.492501 311.562103 
L 727.554773 303.440818 
L 840.617045 296.20756 
" style="fill:none;stroke:#6fe415;stroke-linecap:square;stroke-width:2;"/>
    <defs>
     <path d="M 0 3 
C 0.795609 3 1.55874 2.683901 2.12132 2.12132 
C 2.683901 1.55874 3 0.795609 3 0 
C 3 -0.795609 2.683901 -1.55874 2.12132 -2.12132 
C 1.55874 -2.683901 0.795609 -3 0 -3 
C -0.795609 -3 -1.55874 -2.683901 -2.12132 -2.12132 
C -2.683901 -1.55874 -3 -0.795609 -3 0 
C -3 0.795609 -2.683901 1.55874 -2.12132 2.12132 
C -1.55874 2.683901 -0.795609 3 0 3 
z
" id="m2a4a093754" style="stroke:#6fe415;"/>
    </defs>
    <g clip-path="url(#pc885905571)">
     <use style="fill:#6fe415;stroke:#6fe415;" x="444.899093" xlink:href="#m2a4a093754" y="327.997336"/>
     <use style="fill:#6fe415;stroke:#6fe415;" x="501.430229" xlink:href="#m2a4a093754" y="321.42675"/>
     <use style="fill:#6fe415;stroke:#6fe415;" x="614.492501" xlink:href="#m2a4a093754" y="311.562103"/>
     <use style="fill:#6fe415;stroke:#6fe415;" x="727.554773" xlink:href="#m2a4a093754" y="303.440818"/>
     <use style="fill:#6fe415;stroke:#6fe415;" x="840.617045" xlink:href="#m2a4a093754" y="296.20756"/>
    </g>
   </g>
   <g id="line2d_18">
    <path clip-path="url(#pc885905571)" d="M 331.836821 331.182216 
L 388.367957 322.924787 
L 501.430229 311.431547 
L 614.492501 302.219783 
L 727.554773 294.136232 
L 840.617045 286.788087 
" style="fill:none;stroke:#5fc312;stroke-linecap:square;stroke-width:2;"/>
    <defs>
     <path d="M 0 3 
C 0.795609 3 1.55874 2.683901 2.12132 2.12132 
C 2.683901 1.55874 3 0.795609 3 0 
C 3 -0.795609 2.683901 -1.55874 2.12132 -2.12132 
C 1.55874 -2.683901 0.795609 -3 0 -3 
C -0.795609 -3 -1.55874 -2.683901 -2.12132 -2.12132 
C -2.683901 -1.55874 -3 -0.795609 -3 0 
C -3 0.795609 -2.683901 1.55874 -2.12132 2.12132 
C -1.55874 2.683901 -0.795609 3 0 3 
z
" id="mb8296ad1ea" style="stroke:#5fc312;"/>
    </defs>
    <g clip-path="url(#pc885905571)">
     <use style="fill:#5fc312;stroke:#5fc312;" x="331.836821" xlink:href="#mb8296ad1ea" y="331.182216"/>
     <use style="fill:#5fc312;stroke:#5fc312;" x="388.367957" xlink:href="#mb8296ad1ea" y="322.924787"/>
     <use style="fill:#5fc312;stroke:#5fc312;" x="501.430229" xlink:href="#mb8296ad1ea" y="311.431547"/>
     <use style="fill:#5fc312;stroke:#5fc312;" x="614.492501" xlink:href="#mb8296ad1ea" y="302.219783"/>
     <use style="fill:#5fc312;stroke:#5fc312;" x="727.554773" xlink:href="#mb8296ad1ea" y="294.136232"/>
     <use style="fill:#5fc312;stroke:#5fc312;" x="840.617045" xlink:href="#mb8296ad1ea" y="286.788087"/>
    </g>
   </g>
   <g id="line2d_19">
    <path clip-path="url(#pc885905571)" d="M 275.305685 333.181202 
L 388.367957 316.734866 
L 501.430229 305.710809 
L 614.492501 296.365395 
L 727.554773 287.982893 
L 840.617045 280.280343 
" style="fill:none;stroke:#4fa30f;stroke-linecap:square;stroke-width:2;"/>
    <defs>
     <path d="M 0 3 
C 0.795609 3 1.55874 2.683901 2.12132 2.12132 
C 2.683901 1.55874 3 0.795609 3 0 
C 3 -0.795609 2.683901 -1.55874 2.12132 -2.12132 
C 1.55874 -2.683901 0.795609 -3 0 -3 
C -0.795609 -3 -1.55874 -2.683901 -2.12132 -2.12132 
C -2.683901 -1.55874 -3 -0.795609 -3 0 
C -3 0.795609 -2.683901 1.55874 -2.12132 2.12132 
C -1.55874 2.683901 -0.795609 3 0 3 
z
" id="m1c7d233bc1" style="stroke:#4fa30f;"/>
    </defs>
    <g clip-path="url(#pc885905571)">
     <use style="fill:#4fa30f;stroke:#4fa30f;" x="275.305685" xlink:href="#m1c7d233bc1" y="333.181202"/>
     <use style="fill:#4fa30f;stroke:#4fa30f;" x="388.367957" xlink:href="#m1c7d233bc1" y="316.734866"/>
     <use style="fill:#4fa30f;stroke:#4fa30f;" x="501.430229" xlink:href="#m1c7d233bc1" y="305.710809"/>
     <use style="fill:#4fa30f;stroke:#4fa30f;" x="614.492501" xlink:href="#m1c7d233bc1" y="296.365395"/>
     <use style="fill:#4fa30f;stroke:#4fa30f;" x="727.554773" xlink:href="#m1c7d233bc1" y="287.982893"/>
     <use style="fill:#4fa30f;stroke:#4fa30f;" x="840.617045" xlink:href="#m1c7d233bc1" y="280.280343"/>
    </g>
   </g>
   <g id="line2d_20">
    <path clip-path="url(#pc885905571)" d="M 252.693231 332.362769 
L 388.367957 312.586828 
L 501.430229 301.33387 
L 614.492501 291.591464 
L 727.554773 282.792542 
L 840.617045 274.689968 
" style="fill:none;stroke:#4fa30f;stroke-linecap:square;stroke-width:2;"/>
    <g clip-path="url(#pc885905571)">
     <use style="fill:#4fa30f;stroke:#4fa30f;" x="252.693231" xlink:href="#m1c7d233bc1" y="332.362769"/>
     <use style="fill:#4fa30f;stroke:#4fa30f;" x="388.367957" xlink:href="#m1c7d233bc1" y="312.586828"/>
     <use style="fill:#4fa30f;stroke:#4fa30f;" x="501.430229" xlink:href="#m1c7d233bc1" y="301.33387"/>
     <use style="fill:#4fa30f;stroke:#4fa30f;" x="614.492501" xlink:href="#m1c7d233bc1" y="291.591464"/>
     <use style="fill:#4fa30f;stroke:#4fa30f;" x="727.554773" xlink:href="#m1c7d233bc1" y="282.792542"/>
     <use style="fill:#4fa30f;stroke:#4fa30f;" x="840.617045" xlink:href="#m1c7d233bc1" y="274.689968"/>
    </g>
   </g>
   <g id="line2d_21">
    <path clip-path="url(#pc885905571)" d="M 252.693231 328.863798 
L 388.367957 309.28024 
L 501.430229 297.609488 
L 614.492501 287.462406 
L 727.554773 278.292084 
L 840.617045 269.846486 
" style="fill:none;stroke:#3f820c;stroke-linecap:square;stroke-width:2;"/>
    <defs>
     <path d="M 0 3 
C 0.795609 3 1.55874 2.683901 2.12132 2.12132 
C 2.683901 1.55874 3 0.795609 3 0 
C 3 -0.795609 2.683901 -1.55874 2.12132 -2.12132 
C 1.55874 -2.683901 0.795609 -3 0 -3 
C -0.795609 -3 -1.55874 -2.683901 -2.12132 -2.12132 
C -2.683901 -1.55874 -3 -0.795609 -3 0 
C -3 0.795609 -2.683901 1.55874 -2.12132 2.12132 
C -1.55874 2.683901 -0.795609 3 0 3 
z
" id="mba77af799c" style="stroke:#3f820c;"/>
    </defs>
    <g clip-path="url(#pc885905571)">
     <use style="fill:#3f820c;stroke:#3f820c;" x="252.693231" xlink:href="#mba77af799c" y="328.863798"/>
     <use style="fill:#3f820c;stroke:#3f820c;" x="388.367957" xlink:href="#mba77af799c" y="309.28024"/>
     <use style="fill:#3f820c;stroke:#3f820c;" x="501.430229" xlink:href="#mba77af799c" y="297.609488"/>
     <use style="fill:#3f820c;stroke:#3f820c;" x="614.492501" xlink:href="#mba77af799c" y="287.462406"/>
     <use style="fill:#3f820c;stroke:#3f820c;" x="727.554773" xlink:href="#mba77af799c" y="278.292084"/>
     <use style="fill:#3f820c;stroke:#3f820c;" x="840.617045" xlink:href="#mba77af799c" y="269.846486"/>
    </g>
   </g>
   <g id="line2d_22">
    <path clip-path="url(#pc885905571)" d="M 252.693231 327.138982 
L 388.367957 306.671272 
L 501.430229 294.493323 
L 614.492501 283.948317 
L 727.554773 274.443831 
L 840.617045 265.703138 
" style="fill:none;stroke:#2f6109;stroke-linecap:square;stroke-width:2;"/>
    <defs>
     <path d="M 0 3 
C 0.795609 3 1.55874 2.683901 2.12132 2.12132 
C 2.683901 1.55874 3 0.795609 3 0 
C 3 -0.795609 2.683901 -1.55874 2.12132 -2.12132 
C 1.55874 -2.683901 0.795609 -3 0 -3 
C -0.795609 -3 -1.55874 -2.683901 -2.12132 -2.12132 
C -2.683901 -1.55874 -3 -0.795609 -3 0 
C -3 0.795609 -2.683901 1.55874 -2.12132 2.12132 
C -1.55874 2.683901 -0.795609 3 0 3 
z
" id="ma731730795" style="stroke:#2f6109;"/>
    </defs>
    <g clip-path="url(#pc885905571)">
     <use style="fill:#2f6109;stroke:#2f6109;" x="252.693231" xlink:href="#ma731730795" y="327.138982"/>
     <use style="fill:#2f6109;stroke:#2f6109;" x="388.367957" xlink:href="#ma731730795" y="306.671272"/>
     <use style="fill:#2f6109;stroke:#2f6109;" x="501.430229" xlink:href="#ma731730795" y="294.493323"/>
     <use style="fill:#2f6109;stroke:#2f6109;" x="614.492501" xlink:href="#ma731730795" y="283.948317"/>
     <use style="fill:#2f6109;stroke:#2f6109;" x="727.554773" xlink:href="#ma731730795" y="274.443831"/>
     <use style="fill:#2f6109;stroke:#2f6109;" x="840.617045" xlink:href="#ma731730795" y="265.703138"/>
    </g>
   </g>
   <g id="line2d_23">
    <path clip-path="url(#pc885905571)" d="M 252.693231 327.809065 
L 388.367957 305.101065 
L 501.430229 292.297973 
L 614.492501 281.295634 
L 727.554773 271.401325 
L 840.617045 262.31596 
" style="fill:none;stroke:#2f6109;stroke-linecap:square;stroke-width:2;"/>
    <g clip-path="url(#pc885905571)">
     <use style="fill:#2f6109;stroke:#2f6109;" x="252.693231" xlink:href="#ma731730795" y="327.809065"/>
     <use style="fill:#2f6109;stroke:#2f6109;" x="388.367957" xlink:href="#ma731730795" y="305.101065"/>
     <use style="fill:#2f6109;stroke:#2f6109;" x="501.430229" xlink:href="#ma731730795" y="292.297973"/>
     <use style="fill:#2f6109;stroke:#2f6109;" x="614.492501" xlink:href="#ma731730795" y="281.295634"/>
     <use style="fill:#2f6109;stroke:#2f6109;" x="727.554773" xlink:href="#ma731730795" y="271.401325"/>
     <use style="fill:#2f6109;stroke:#2f6109;" x="840.617045" xlink:href="#ma731730795" y="262.31596"/>
    </g>
   </g>
   <g id="line2d_24">
    <path clip-path="url(#pc885905571)" d="M 286.611912 323.222418 
L 388.367957 305.493065 
L 501.430229 291.922289 
L 614.492501 280.464562 
L 727.554773 270.20095 
L 840.617045 260.67367 
" style="fill:none;stroke:#1f4106;stroke-linecap:square;stroke-width:2;"/>
    <defs>
     <path d="M 0 3 
C 0.795609 3 1.55874 2.683901 2.12132 2.12132 
C 2.683901 1.55874 3 0.795609 3 0 
C 3 -0.795609 2.683901 -1.55874 2.12132 -2.12132 
C 1.55874 -2.683901 0.795609 -3 0 -3 
C -0.795609 -3 -1.55874 -2.683901 -2.12132 -2.12132 
C -2.683901 -1.55874 -3 -0.795609 -3 0 
C -3 0.795609 -2.683901 1.55874 -2.12132 2.12132 
C -1.55874 2.683901 -0.795609 3 0 3 
z
" id="m4de674b020" style="stroke:#1f4106;"/>
    </defs>
    <g clip-path="url(#pc885905571)">
     <use style="fill:#1f4106;stroke:#1f4106;" x="286.611912" xlink:href="#m4de674b020" y="323.222418"/>
     <use style="fill:#1f4106;stroke:#1f4106;" x="388.367957" xlink:href="#m4de674b020" y="305.493065"/>
     <use style="fill:#1f4106;stroke:#1f4106;" x="501.430229" xlink:href="#m4de674b020" y="291.922289"/>
     <use style="fill:#1f4106;stroke:#1f4106;" x="614.492501" xlink:href="#m4de674b020" y="280.464562"/>
     <use style="fill:#1f4106;stroke:#1f4106;" x="727.554773" xlink:href="#m4de674b020" y="270.20095"/>
     <use style="fill:#1f4106;stroke:#1f4106;" x="840.617045" xlink:href="#m4de674b020" y="260.67367"/>
    </g>
   </g>
   <g id="line2d_25">
    <path clip-path="url(#pc885905571)" d="M 331.836821 328.735328 
L 388.367957 319.229519 
L 501.430229 305.727845 
L 614.492501 294.789994 
L 727.554773 285.21236 
L 840.617045 276.544803 
" style="fill:none;stroke:#ffcc70;stroke-linecap:square;stroke-width:2;"/>
    <defs>
     <path d="M 0 3 
C 0.795609 3 1.55874 2.683901 2.12132 2.12132 
C 2.683901 1.55874 3 0.795609 3 0 
C 3 -0.795609 2.683901 -1.55874 2.12132 -2.12132 
C 1.55874 -2.683901 0.795609 -3 0 -3 
C -0.795609 -3 -1.55874 -2.683901 -2.12132 -2.12132 
C -2.683901 -1.55874 -3 -0.795609 -3 0 
C -3 0.795609 -2.683901 1.55874 -2.12132 2.12132 
C -1.55874 2.683901 -0.795609 3 0 3 
z
" id="m76d0486f19" style="stroke:#ffcc70;"/>
    </defs>
    <g clip-path="url(#pc885905571)">
     <use style="fill:#ffcc70;stroke:#ffcc70;" x="331.836821" xlink:href="#m76d0486f19" y="328.735328"/>
     <use style="fill:#ffcc70;stroke:#ffcc70;" x="388.367957" xlink:href="#m76d0486f19" y="319.229519"/>
     <use style="fill:#ffcc70;stroke:#ffcc70;" x="501.430229" xlink:href="#m76d0486f19" y="305.727845"/>
     <use style="fill:#ffcc70;stroke:#ffcc70;" x="614.492501" xlink:href="#m76d0486f19" y="294.789994"/>
     <use style="fill:#ffcc70;stroke:#ffcc70;" x="727.554773" xlink:href="#m76d0486f19" y="285.21236"/>
     <use style="fill:#ffcc70;stroke:#ffcc70;" x="840.617045" xlink:href="#m76d0486f19" y="276.544803"/>
    </g>
   </g>
   <g id="line2d_26">
    <path clip-path="url(#pc885905571)" d="M 241.387004 330.104354 
L 388.367957 303.508866 
L 501.430229 289.809919 
L 614.492501 278.053509 
L 727.554773 267.533201 
L 840.617045 257.906779 
" style="fill:none;stroke:#ffcc70;stroke-linecap:square;stroke-width:2;"/>
    <g clip-path="url(#pc885905571)">
     <use style="fill:#ffcc70;stroke:#ffcc70;" x="241.387004" xlink:href="#m76d0486f19" y="330.104354"/>
     <use style="fill:#ffcc70;stroke:#ffcc70;" x="388.367957" xlink:href="#m76d0486f19" y="303.508866"/>
     <use style="fill:#ffcc70;stroke:#ffcc70;" x="501.430229" xlink:href="#m76d0486f19" y="289.809919"/>
     <use style="fill:#ffcc70;stroke:#ffcc70;" x="614.492501" xlink:href="#m76d0486f19" y="278.053509"/>
     <use style="fill:#ffcc70;stroke:#ffcc70;" x="727.554773" xlink:href="#m76d0486f19" y="267.533201"/>
     <use style="fill:#ffcc70;stroke:#ffcc70;" x="840.617045" xlink:href="#m76d0486f19" y="257.906779"/>
    </g>
   </g>
   <g id="line2d_27">
    <path clip-path="url(#pc885905571)" d="M 196.162095 329.429698 
L 275.305685 311.512684 
L 388.367957 294.223913 
L 501.430229 280.096321 
L 614.492501 267.713434 
L 727.554773 256.52524 
L 840.617045 246.23196 
" style="fill:none;stroke:#ffbb3f;stroke-linecap:square;stroke-width:2;"/>
    <defs>
     <path d="M 0 3 
C 0.795609 3 1.55874 2.683901 2.12132 2.12132 
C 2.683901 1.55874 3 0.795609 3 0 
C 3 -0.795609 2.683901 -1.55874 2.12132 -2.12132 
C 1.55874 -2.683901 0.795609 -3 0 -3 
C -0.795609 -3 -1.55874 -2.683901 -2.12132 -2.12132 
C -2.683901 -1.55874 -3 -0.795609 -3 0 
C -3 0.795609 -2.683901 1.55874 -2.12132 2.12132 
C -1.55874 2.683901 -0.795609 3 0 3 
z
" id="mbba2092915" style="stroke:#ffbb3f;"/>
    </defs>
    <g clip-path="url(#pc885905571)">
     <use style="fill:#ffbb3f;stroke:#ffbb3f;" x="196.162095" xlink:href="#mbba2092915" y="329.429698"/>
     <use style="fill:#ffbb3f;stroke:#ffbb3f;" x="275.305685" xlink:href="#mbba2092915" y="311.512684"/>
     <use style="fill:#ffbb3f;stroke:#ffbb3f;" x="388.367957" xlink:href="#mbba2092915" y="294.223913"/>
     <use style="fill:#ffbb3f;stroke:#ffbb3f;" x="501.430229" xlink:href="#mbba2092915" y="280.096321"/>
     <use style="fill:#ffbb3f;stroke:#ffbb3f;" x="614.492501" xlink:href="#mbba2092915" y="267.713434"/>
     <use style="fill:#ffbb3f;stroke:#ffbb3f;" x="727.554773" xlink:href="#mbba2092915" y="256.52524"/>
     <use style="fill:#ffbb3f;stroke:#ffbb3f;" x="840.617045" xlink:href="#mbba2092915" y="246.23196"/>
    </g>
   </g>
   <g id="line2d_28">
    <path clip-path="url(#pc885905571)" d="M 162.243413 333.654545 
L 275.305685 305.802633 
L 388.367957 288.071374 
L 501.430229 273.192927 
L 614.492501 260.058672 
L 727.554773 248.163625 
L 840.617045 237.210323 
" style="fill:none;stroke:#ffaa0e;stroke-linecap:square;stroke-width:2;"/>
    <defs>
     <path d="M 0 3 
C 0.795609 3 1.55874 2.683901 2.12132 2.12132 
C 2.683901 1.55874 3 0.795609 3 0 
C 3 -0.795609 2.683901 -1.55874 2.12132 -2.12132 
C 1.55874 -2.683901 0.795609 -3 0 -3 
C -0.795609 -3 -1.55874 -2.683901 -2.12132 -2.12132 
C -2.683901 -1.55874 -3 -0.795609 -3 0 
C -3 0.795609 -2.683901 1.55874 -2.12132 2.12132 
C -1.55874 2.683901 -0.795609 3 0 3 
z
" id="m51a9d18a1f" style="stroke:#ffaa0e;"/>
    </defs>
    <g clip-path="url(#pc885905571)">
     <use style="fill:#ffaa0e;stroke:#ffaa0e;" x="162.243413" xlink:href="#m51a9d18a1f" y="333.654545"/>
     <use style="fill:#ffaa0e;stroke:#ffaa0e;" x="275.305685" xlink:href="#m51a9d18a1f" y="305.802633"/>
     <use style="fill:#ffaa0e;stroke:#ffaa0e;" x="388.367957" xlink:href="#m51a9d18a1f" y="288.071374"/>
     <use style="fill:#ffaa0e;stroke:#ffaa0e;" x="501.430229" xlink:href="#m51a9d18a1f" y="273.192927"/>
     <use style="fill:#ffaa0e;stroke:#ffaa0e;" x="614.492501" xlink:href="#m51a9d18a1f" y="260.058672"/>
     <use style="fill:#ffaa0e;stroke:#ffaa0e;" x="727.554773" xlink:href="#m51a9d18a1f" y="248.163625"/>
     <use style="fill:#ffaa0e;stroke:#ffaa0e;" x="840.617045" xlink:href="#m51a9d18a1f" y="237.210323"/>
    </g>
   </g>
   <g id="line2d_29">
    <path clip-path="url(#pc885905571)" d="M 162.243413 327.950568 
L 275.305685 301.447539 
L 388.367957 282.905287 
L 501.430229 267.249448 
L 614.492501 253.421445 
L 727.554773 240.897075 
L 840.617045 229.364557 
" style="fill:none;stroke:#dc8e00;stroke-linecap:square;stroke-width:2;"/>
    <defs>
     <path d="M 0 3 
C 0.795609 3 1.55874 2.683901 2.12132 2.12132 
C 2.683901 1.55874 3 0.795609 3 0 
C 3 -0.795609 2.683901 -1.55874 2.12132 -2.12132 
C 1.55874 -2.683901 0.795609 -3 0 -3 
C -0.795609 -3 -1.55874 -2.683901 -2.12132 -2.12132 
C -2.683901 -1.55874 -3 -0.795609 -3 0 
C -3 0.795609 -2.683901 1.55874 -2.12132 2.12132 
C -1.55874 2.683901 -0.795609 3 0 3 
z
" id="m1014a65636" style="stroke:#dc8e00;"/>
    </defs>
    <g clip-path="url(#pc885905571)">
     <use style="fill:#dc8e00;stroke:#dc8e00;" x="162.243413" xlink:href="#m1014a65636" y="327.950568"/>
     <use style="fill:#dc8e00;stroke:#dc8e00;" x="275.305685" xlink:href="#m1014a65636" y="301.447539"/>
     <use style="fill:#dc8e00;stroke:#dc8e00;" x="388.367957" xlink:href="#m1014a65636" y="282.905287"/>
     <use style="fill:#dc8e00;stroke:#dc8e00;" x="501.430229" xlink:href="#m1014a65636" y="267.249448"/>
     <use style="fill:#dc8e00;stroke:#dc8e00;" x="614.492501" xlink:href="#m1014a65636" y="253.421445"/>
     <use style="fill:#dc8e00;stroke:#dc8e00;" x="727.554773" xlink:href="#m1014a65636" y="240.897075"/>
     <use style="fill:#dc8e00;stroke:#dc8e00;" x="840.617045" xlink:href="#m1014a65636" y="229.364557"/>
    </g>
   </g>
   <g id="line2d_30">
    <path clip-path="url(#pc885905571)" d="M 150.937186 329.222797 
L 275.305685 297.748682 
L 388.367957 278.430481 
L 501.430229 262.111923 
L 614.492501 247.69649 
L 727.554773 234.638904 
L 840.617045 222.61454 
" style="fill:none;stroke:#dc8e00;stroke-linecap:square;stroke-width:2;"/>
    <g clip-path="url(#pc885905571)">
     <use style="fill:#dc8e00;stroke:#dc8e00;" x="150.937186" xlink:href="#m1014a65636" y="329.222797"/>
     <use style="fill:#dc8e00;stroke:#dc8e00;" x="275.305685" xlink:href="#m1014a65636" y="297.748682"/>
     <use style="fill:#dc8e00;stroke:#dc8e00;" x="388.367957" xlink:href="#m1014a65636" y="278.430481"/>
     <use style="fill:#dc8e00;stroke:#dc8e00;" x="501.430229" xlink:href="#m1014a65636" y="262.111923"/>
     <use style="fill:#dc8e00;stroke:#dc8e00;" x="614.492501" xlink:href="#m1014a65636" y="247.69649"/>
     <use style="fill:#dc8e00;stroke:#dc8e00;" x="727.554773" xlink:href="#m1014a65636" y="234.638904"/>
     <use style="fill:#dc8e00;stroke:#dc8e00;" x="840.617045" xlink:href="#m1014a65636" y="222.61454"/>
    </g>
   </g>
   <g id="line2d_31">
    <path clip-path="url(#pc885905571)" d="M 150.937186 327.606659 
L 275.305685 294.664775 
L 388.367957 274.616958 
L 501.430229 257.732262 
L 614.492501 242.825028 
L 727.554773 229.323175 
L 840.617045 216.888249 
" style="fill:none;stroke:#ab6e00;stroke-linecap:square;stroke-width:2;"/>
    <defs>
     <path d="M 0 3 
C 0.795609 3 1.55874 2.683901 2.12132 2.12132 
C 2.683901 1.55874 3 0.795609 3 0 
C 3 -0.795609 2.683901 -1.55874 2.12132 -2.12132 
C 1.55874 -2.683901 0.795609 -3 0 -3 
C -0.795609 -3 -1.55874 -2.683901 -2.12132 -2.12132 
C -2.683901 -1.55874 -3 -0.795609 -3 0 
C -3 0.795609 -2.683901 1.55874 -2.12132 2.12132 
C -1.55874 2.683901 -0.795609 3 0 3 
z
" id="m8c1d0ac2ec" style="stroke:#ab6e00;"/>
    </defs>
    <g clip-path="url(#pc885905571)">
     <use style="fill:#ab6e00;stroke:#ab6e00;" x="150.937186" xlink:href="#m8c1d0ac2ec" y="327.606659"/>
     <use style="fill:#ab6e00;stroke:#ab6e00;" x="275.305685" xlink:href="#m8c1d0ac2ec" y="294.664775"/>
     <use style="fill:#ab6e00;stroke:#ab6e00;" x="388.367957" xlink:href="#m8c1d0ac2ec" y="274.616958"/>
     <use style="fill:#ab6e00;stroke:#ab6e00;" x="501.430229" xlink:href="#m8c1d0ac2ec" y="257.732262"/>
     <use style="fill:#ab6e00;stroke:#ab6e00;" x="614.492501" xlink:href="#m8c1d0ac2ec" y="242.825028"/>
     <use style="fill:#ab6e00;stroke:#ab6e00;" x="727.554773" xlink:href="#m8c1d0ac2ec" y="229.323175"/>
     <use style="fill:#ab6e00;stroke:#ab6e00;" x="840.617045" xlink:href="#m8c1d0ac2ec" y="216.888249"/>
    </g>
   </g>
   <g id="line2d_32">
    <path clip-path="url(#pc885905571)" d="M 156.5903 325.490468 
L 275.305685 292.518314 
L 388.367957 271.66874 
L 501.430229 254.227805 
L 614.492501 238.867896 
L 727.554773 224.972193 
L 840.617045 212.1814 
" style="fill:none;stroke:#7a4f00;stroke-linecap:square;stroke-width:2;"/>
    <defs>
     <path d="M 0 3 
C 0.795609 3 1.55874 2.683901 2.12132 2.12132 
C 2.683901 1.55874 3 0.795609 3 0 
C 3 -0.795609 2.683901 -1.55874 2.12132 -2.12132 
C 1.55874 -2.683901 0.795609 -3 0 -3 
C -0.795609 -3 -1.55874 -2.683901 -2.12132 -2.12132 
C -2.683901 -1.55874 -3 -0.795609 -3 0 
C -3 0.795609 -2.683901 1.55874 -2.12132 2.12132 
C -1.55874 2.683901 -0.795609 3 0 3 
z
" id="m90b3bf5c11" style="stroke:#7a4f00;"/>
    </defs>
    <g clip-path="url(#pc885905571)">
     <use style="fill:#7a4f00;stroke:#7a4f00;" x="156.5903" xlink:href="#m90b3bf5c11" y="325.490468"/>
     <use style="fill:#7a4f00;stroke:#7a4f00;" x="275.305685" xlink:href="#m90b3bf5c11" y="292.518314"/>
     <use style="fill:#7a4f00;stroke:#7a4f00;" x="388.367957" xlink:href="#m90b3bf5c11" y="271.66874"/>
     <use style="fill:#7a4f00;stroke:#7a4f00;" x="501.430229" xlink:href="#m90b3bf5c11" y="254.227805"/>
     <use style="fill:#7a4f00;stroke:#7a4f00;" x="614.492501" xlink:href="#m90b3bf5c11" y="238.867896"/>
     <use style="fill:#7a4f00;stroke:#7a4f00;" x="727.554773" xlink:href="#m90b3bf5c11" y="224.972193"/>
     <use style="fill:#7a4f00;stroke:#7a4f00;" x="840.617045" xlink:href="#m90b3bf5c11" y="212.1814"/>
    </g>
   </g>
   <g id="line2d_33">
    <path clip-path="url(#pc885905571)" d="M 173.54964 321.528991 
L 275.305685 292.232722 
L 388.367957 270.543477 
L 501.430229 252.573819 
L 614.492501 236.810436 
L 727.554773 222.578639 
L 840.617045 209.497661 
" style="fill:none;stroke:#492f00;stroke-linecap:square;stroke-width:2;"/>
    <defs>
     <path d="M 0 3 
C 0.795609 3 1.55874 2.683901 2.12132 2.12132 
C 2.683901 1.55874 3 0.795609 3 0 
C 3 -0.795609 2.683901 -1.55874 2.12132 -2.12132 
C 1.55874 -2.683901 0.795609 -3 0 -3 
C -0.795609 -3 -1.55874 -2.683901 -2.12132 -2.12132 
C -2.683901 -1.55874 -3 -0.795609 -3 0 
C -3 0.795609 -2.683901 1.55874 -2.12132 2.12132 
C -1.55874 2.683901 -0.795609 3 0 3 
z
" id="m69648e3135" style="stroke:#492f00;"/>
    </defs>
    <g clip-path="url(#pc885905571)">
     <use style="fill:#492f00;stroke:#492f00;" x="173.54964" xlink:href="#m69648e3135" y="321.528991"/>
     <use style="fill:#492f00;stroke:#492f00;" x="275.305685" xlink:href="#m69648e3135" y="292.232722"/>
     <use style="fill:#492f00;stroke:#492f00;" x="388.367957" xlink:href="#m69648e3135" y="270.543477"/>
     <use style="fill:#492f00;stroke:#492f00;" x="501.430229" xlink:href="#m69648e3135" y="252.573819"/>
     <use style="fill:#492f00;stroke:#492f00;" x="614.492501" xlink:href="#m69648e3135" y="236.810436"/>
     <use style="fill:#492f00;stroke:#492f00;" x="727.554773" xlink:href="#m69648e3135" y="222.578639"/>
     <use style="fill:#492f00;stroke:#492f00;" x="840.617045" xlink:href="#m69648e3135" y="209.497661"/>
    </g>
   </g>
   <g id="line2d_34">
    <path clip-path="url(#pc885905571)" d="M 128.324732 326.833222 
L 162.243413 311.210008 
L 275.305685 276.784975 
L 388.367957 251.174816 
L 501.430229 229.718357 
L 614.492501 210.88479 
L 727.554773 193.876748 
L 840.617045 178.263094 
" style="fill:none;stroke:#619bcc;stroke-linecap:square;stroke-width:2;"/>
    <defs>
     <path d="M 0 3 
C 0.795609 3 1.55874 2.683901 2.12132 2.12132 
C 2.683901 1.55874 3 0.795609 3 0 
C 3 -0.795609 2.683901 -1.55874 2.12132 -2.12132 
C 1.55874 -2.683901 0.795609 -3 0 -3 
C -0.795609 -3 -1.55874 -2.683901 -2.12132 -2.12132 
C -2.683901 -1.55874 -3 -0.795609 -3 0 
C -3 0.795609 -2.683901 1.55874 -2.12132 2.12132 
C -1.55874 2.683901 -0.795609 3 0 3 
z
" id="m8206764c7a" style="stroke:#619bcc;"/>
    </defs>
    <g clip-path="url(#pc885905571)">
     <use style="fill:#619bcc;stroke:#619bcc;" x="128.324732" xlink:href="#m8206764c7a" y="326.833222"/>
     <use style="fill:#619bcc;stroke:#619bcc;" x="162.243413" xlink:href="#m8206764c7a" y="311.210008"/>
     <use style="fill:#619bcc;stroke:#619bcc;" x="275.305685" xlink:href="#m8206764c7a" y="276.784975"/>
     <use style="fill:#619bcc;stroke:#619bcc;" x="388.367957" xlink:href="#m8206764c7a" y="251.174816"/>
     <use style="fill:#619bcc;stroke:#619bcc;" x="501.430229" xlink:href="#m8206764c7a" y="229.718357"/>
     <use style="fill:#619bcc;stroke:#619bcc;" x="614.492501" xlink:href="#m8206764c7a" y="210.88479"/>
     <use style="fill:#619bcc;stroke:#619bcc;" x="727.554773" xlink:href="#m8206764c7a" y="193.876748"/>
     <use style="fill:#619bcc;stroke:#619bcc;" x="840.617045" xlink:href="#m8206764c7a" y="178.263094"/>
    </g>
   </g>
   <g id="line2d_35">
    <path clip-path="url(#pc885905571)" d="M 117.018504 321.351572 
L 162.243413 295.066777 
L 275.305685 254.222378 
L 388.367957 223.632833 
L 501.430229 197.985743 
L 614.492501 175.441297 
L 727.554773 155.07604 
L 840.617045 136.36436 
" style="fill:none;stroke:#3d84bf;stroke-linecap:square;stroke-width:2;"/>
    <defs>
     <path d="M 0 3 
C 0.795609 3 1.55874 2.683901 2.12132 2.12132 
C 2.683901 1.55874 3 0.795609 3 0 
C 3 -0.795609 2.683901 -1.55874 2.12132 -2.12132 
C 1.55874 -2.683901 0.795609 -3 0 -3 
C -0.795609 -3 -1.55874 -2.683901 -2.12132 -2.12132 
C -2.683901 -1.55874 -3 -0.795609 -3 0 
C -3 0.795609 -2.683901 1.55874 -2.12132 2.12132 
C -1.55874 2.683901 -0.795609 3 0 3 
z
" id="mbaa4f13526" style="stroke:#3d84bf;"/>
    </defs>
    <g clip-path="url(#pc885905571)">
     <use style="fill:#3d84bf;stroke:#3d84bf;" x="117.018504" xlink:href="#mbaa4f13526" y="321.351572"/>
     <use style="fill:#3d84bf;stroke:#3d84bf;" x="162.243413" xlink:href="#mbaa4f13526" y="295.066777"/>
     <use style="fill:#3d84bf;stroke:#3d84bf;" x="275.305685" xlink:href="#mbaa4f13526" y="254.222378"/>
     <use style="fill:#3d84bf;stroke:#3d84bf;" x="388.367957" xlink:href="#mbaa4f13526" y="223.632833"/>
     <use style="fill:#3d84bf;stroke:#3d84bf;" x="501.430229" xlink:href="#mbaa4f13526" y="197.985743"/>
     <use style="fill:#3d84bf;stroke:#3d84bf;" x="614.492501" xlink:href="#mbaa4f13526" y="175.441297"/>
     <use style="fill:#3d84bf;stroke:#3d84bf;" x="727.554773" xlink:href="#mbaa4f13526" y="155.07604"/>
     <use style="fill:#3d84bf;stroke:#3d84bf;" x="840.617045" xlink:href="#mbaa4f13526" y="136.36436"/>
    </g>
   </g>
   <g id="line2d_36">
    <path clip-path="url(#pc885905571)" d="M 94.40605 324.456679 
L 162.243413 278.357951 
L 275.305685 232.965628 
L 388.367957 198.332074 
L 501.430229 169.153154 
L 614.492501 143.443615 
L 727.554773 120.19973 
L 840.617045 98.821114 
" style="fill:none;stroke:#316a9a;stroke-linecap:square;stroke-width:2;"/>
    <defs>
     <path d="M 0 3 
C 0.795609 3 1.55874 2.683901 2.12132 2.12132 
C 2.683901 1.55874 3 0.795609 3 0 
C 3 -0.795609 2.683901 -1.55874 2.12132 -2.12132 
C 1.55874 -2.683901 0.795609 -3 0 -3 
C -0.795609 -3 -1.55874 -2.683901 -2.12132 -2.12132 
C -2.683901 -1.55874 -3 -0.795609 -3 0 
C -3 0.795609 -2.683901 1.55874 -2.12132 2.12132 
C -1.55874 2.683901 -0.795609 3 0 3 
z
" id="m2928c2eb55" style="stroke:#316a9a;"/>
    </defs>
    <g clip-path="url(#pc885905571)">
     <use style="fill:#316a9a;stroke:#316a9a;" x="94.40605" xlink:href="#m2928c2eb55" y="324.456679"/>
     <use style="fill:#316a9a;stroke:#316a9a;" x="162.243413" xlink:href="#m2928c2eb55" y="278.357951"/>
     <use style="fill:#316a9a;stroke:#316a9a;" x="275.305685" xlink:href="#m2928c2eb55" y="232.965628"/>
     <use style="fill:#316a9a;stroke:#316a9a;" x="388.367957" xlink:href="#m2928c2eb55" y="198.332074"/>
     <use style="fill:#316a9a;stroke:#316a9a;" x="501.430229" xlink:href="#m2928c2eb55" y="169.153154"/>
     <use style="fill:#316a9a;stroke:#316a9a;" x="614.492501" xlink:href="#m2928c2eb55" y="143.443615"/>
     <use style="fill:#316a9a;stroke:#316a9a;" x="727.554773" xlink:href="#m2928c2eb55" y="120.19973"/>
     <use style="fill:#316a9a;stroke:#316a9a;" x="840.617045" xlink:href="#m2928c2eb55" y="98.821114"/>
    </g>
   </g>
   <g id="line2d_37">
    <path clip-path="url(#pc885905571)" d="M 83.099823 324.392601 
L 162.243413 268.119952 
L 275.305685 219.54744 
L 388.367957 182.183813 
L 501.430229 150.635602 
L 614.492501 122.822161 
L 727.554773 97.656298 
L 840.617045 74.501416 
" style="fill:none;stroke:#255075;stroke-linecap:square;stroke-width:2;"/>
    <defs>
     <path d="M 0 3 
C 0.795609 3 1.55874 2.683901 2.12132 2.12132 
C 2.683901 1.55874 3 0.795609 3 0 
C 3 -0.795609 2.683901 -1.55874 2.12132 -2.12132 
C 1.55874 -2.683901 0.795609 -3 0 -3 
C -0.795609 -3 -1.55874 -2.683901 -2.12132 -2.12132 
C -2.683901 -1.55874 -3 -0.795609 -3 0 
C -3 0.795609 -2.683901 1.55874 -2.12132 2.12132 
C -1.55874 2.683901 -0.795609 3 0 3 
z
" id="md58a6a4b4b" style="stroke:#255075;"/>
    </defs>
    <g clip-path="url(#pc885905571)">
     <use style="fill:#255075;stroke:#255075;" x="83.099823" xlink:href="#md58a6a4b4b" y="324.392601"/>
     <use style="fill:#255075;stroke:#255075;" x="162.243413" xlink:href="#md58a6a4b4b" y="268.119952"/>
     <use style="fill:#255075;stroke:#255075;" x="275.305685" xlink:href="#md58a6a4b4b" y="219.54744"/>
     <use style="fill:#255075;stroke:#255075;" x="388.367957" xlink:href="#md58a6a4b4b" y="182.183813"/>
     <use style="fill:#255075;stroke:#255075;" x="501.430229" xlink:href="#md58a6a4b4b" y="150.635602"/>
     <use style="fill:#255075;stroke:#255075;" x="614.492501" xlink:href="#md58a6a4b4b" y="122.822161"/>
     <use style="fill:#255075;stroke:#255075;" x="727.554773" xlink:href="#md58a6a4b4b" y="97.656298"/>
     <use style="fill:#255075;stroke:#255075;" x="840.617045" xlink:href="#md58a6a4b4b" y="74.501416"/>
    </g>
   </g>
   <g id="line2d_38">
    <path clip-path="url(#pc885905571)" d="M 79.707955 321.854984 
L 162.243413 260.642918 
L 275.305685 208.966012 
L 388.367957 169.16789 
L 501.430229 135.566974 
L 614.492501 105.934062 
L 727.554773 79.134171 
L 840.617045 54.485473 
" style="fill:none;stroke:#193750;stroke-linecap:square;stroke-width:2;"/>
    <defs>
     <path d="M 0 3 
C 0.795609 3 1.55874 2.683901 2.12132 2.12132 
C 2.683901 1.55874 3 0.795609 3 0 
C 3 -0.795609 2.683901 -1.55874 2.12132 -2.12132 
C 1.55874 -2.683901 0.795609 -3 0 -3 
C -0.795609 -3 -1.55874 -2.683901 -2.12132 -2.12132 
C -2.683901 -1.55874 -3 -0.795609 -3 0 
C -3 0.795609 -2.683901 1.55874 -2.12132 2.12132 
C -1.55874 2.683901 -0.795609 3 0 3 
z
" id="m878fcdbfa1" style="stroke:#193750;"/>
    </defs>
    <g clip-path="url(#pc885905571)">
     <use style="fill:#193750;stroke:#193750;" x="79.707955" xlink:href="#m878fcdbfa1" y="321.854984"/>
     <use style="fill:#193750;stroke:#193750;" x="162.243413" xlink:href="#m878fcdbfa1" y="260.642918"/>
     <use style="fill:#193750;stroke:#193750;" x="275.305685" xlink:href="#m878fcdbfa1" y="208.966012"/>
     <use style="fill:#193750;stroke:#193750;" x="388.367957" xlink:href="#m878fcdbfa1" y="169.16789"/>
     <use style="fill:#193750;stroke:#193750;" x="501.430229" xlink:href="#m878fcdbfa1" y="135.566974"/>
     <use style="fill:#193750;stroke:#193750;" x="614.492501" xlink:href="#m878fcdbfa1" y="105.934062"/>
     <use style="fill:#193750;stroke:#193750;" x="727.554773" xlink:href="#m878fcdbfa1" y="79.134171"/>
     <use style="fill:#193750;stroke:#193750;" x="840.617045" xlink:href="#m878fcdbfa1" y="54.485473"/>
    </g>
   </g>
   <g id="line2d_39">
    <path clip-path="url(#pc885905571)" d="M 79.707955 317.540181 
L 162.243413 254.21059 
L 275.305685 199.796193 
L 388.367957 157.891786 
L 501.430229 122.514946 
L 614.492501 91.320383 
L 727.554773 63.097081 
L 840.617045 37.145455 
" style="fill:none;stroke:#0d1d2b;stroke-linecap:square;stroke-width:2;"/>
    <defs>
     <path d="M 0 3 
C 0.795609 3 1.55874 2.683901 2.12132 2.12132 
C 2.683901 1.55874 3 0.795609 3 0 
C 3 -0.795609 2.683901 -1.55874 2.12132 -2.12132 
C 1.55874 -2.683901 0.795609 -3 0 -3 
C -0.795609 -3 -1.55874 -2.683901 -2.12132 -2.12132 
C -2.683901 -1.55874 -3 -0.795609 -3 0 
C -3 0.795609 -2.683901 1.55874 -2.12132 2.12132 
C -1.55874 2.683901 -0.795609 3 0 3 
z
" id="m0afd9e041d" style="stroke:#0d1d2b;"/>
    </defs>
    <g clip-path="url(#pc885905571)">
     <use style="fill:#0d1d2b;stroke:#0d1d2b;" x="79.707955" xlink:href="#m0afd9e041d" y="317.540181"/>
     <use style="fill:#0d1d2b;stroke:#0d1d2b;" x="162.243413" xlink:href="#m0afd9e041d" y="254.21059"/>
     <use style="fill:#0d1d2b;stroke:#0d1d2b;" x="275.305685" xlink:href="#m0afd9e041d" y="199.796193"/>
     <use style="fill:#0d1d2b;stroke:#0d1d2b;" x="388.367957" xlink:href="#m0afd9e041d" y="157.891786"/>
     <use style="fill:#0d1d2b;stroke:#0d1d2b;" x="501.430229" xlink:href="#m0afd9e041d" y="122.514946"/>
     <use style="fill:#0d1d2b;stroke:#0d1d2b;" x="614.492501" xlink:href="#m0afd9e041d" y="91.320383"/>
     <use style="fill:#0d1d2b;stroke:#0d1d2b;" x="727.554773" xlink:href="#m0afd9e041d" y="63.097081"/>
     <use style="fill:#0d1d2b;stroke:#0d1d2b;" x="840.617045" xlink:href="#m0afd9e041d" y="37.145455"/>
    </g>
   </g>
   <g id="patch_3">
    <path d="M 41.6625 348.48 
L 41.6625 22.32 
" style="fill:none;stroke:#000000;stroke-linecap:square;stroke-linejoin:miter;stroke-width:0.8;"/>
   </g>
   <g id="patch_4">
    <path d="M 878.6625 348.48 
L 878.6625 22.32 
" style="fill:none;stroke:#000000;stroke-linecap:square;stroke-linejoin:miter;stroke-width:0.8;"/>
   </g>
   <g id="patch_5">
    <path d="M 41.6625 348.48 
L 878.6625 348.48 
" style="fill:none;stroke:#000000;stroke-linecap:square;stroke-linejoin:miter;stroke-width:0.8;"/>
   </g>
   <g id="patch_6">
    <path d="M 41.6625 22.32 
L 878.6625 22.32 
" style="fill:none;stroke:#000000;stroke-linecap:square;stroke-linejoin:miter;stroke-width:0.8;"/>
   </g>
   <g id="text_18">
    <!-- Peak Separation $\Delta \nu_{PR}$ as a function of Rotational temperature $T_{rot}$ -->
    <g transform="translate(263.7225 16.32)scale(0.12 -0.12)">
     <defs>
      <path d="M 2834 3397 
L 2834 2853 
Q 2591 2978 2328 3040 
Q 2066 3103 1784 3103 
Q 1356 3103 1142 2972 
Q 928 2841 928 2578 
Q 928 2378 1081 2264 
Q 1234 2150 1697 2047 
L 1894 2003 
Q 2506 1872 2764 1633 
Q 3022 1394 3022 966 
Q 3022 478 2636 193 
Q 2250 -91 1575 -91 
Q 1294 -91 989 -36 
Q 684 19 347 128 
L 347 722 
Q 666 556 975 473 
Q 1284 391 1588 391 
Q 1994 391 2212 530 
Q 2431 669 2431 922 
Q 2431 1156 2273 1281 
Q 2116 1406 1581 1522 
L 1381 1569 
Q 847 1681 609 1914 
Q 372 2147 372 2553 
Q 372 3047 722 3315 
Q 1072 3584 1716 3584 
Q 2034 3584 2315 3537 
Q 2597 3491 2834 3397 
z
" id="DejaVuSans-73" transform="scale(0.015625)"/>
      <path d="M 2375 4863 
L 2375 4384 
L 1825 4384 
Q 1516 4384 1395 4259 
Q 1275 4134 1275 3809 
L 1275 3500 
L 2222 3500 
L 2222 3053 
L 1275 3053 
L 1275 0 
L 697 0 
L 697 3053 
L 147 3053 
L 147 3500 
L 697 3500 
L 697 3744 
Q 697 4328 969 4595 
Q 1241 4863 1831 4863 
L 2375 4863 
z
" id="DejaVuSans-66" transform="scale(0.015625)"/>
      <path d="M 3122 3366 
L 3122 2828 
Q 2878 2963 2633 3030 
Q 2388 3097 2138 3097 
Q 1578 3097 1268 2742 
Q 959 2388 959 1747 
Q 959 1106 1268 751 
Q 1578 397 2138 397 
Q 2388 397 2633 464 
Q 2878 531 3122 666 
L 3122 134 
Q 2881 22 2623 -34 
Q 2366 -91 2075 -91 
Q 1284 -91 818 406 
Q 353 903 353 1747 
Q 353 2603 823 3093 
Q 1294 3584 2113 3584 
Q 2378 3584 2631 3529 
Q 2884 3475 3122 3366 
z
" id="DejaVuSans-63" transform="scale(0.015625)"/>
     </defs>
     <use transform="translate(0 0.015625)" xlink:href="#DejaVuSans-50"/>
     <use transform="translate(60.302734 0.015625)" xlink:href="#DejaVuSans-65"/>
     <use transform="translate(121.826172 0.015625)" xlink:href="#DejaVuSans-61"/>
     <use transform="translate(183.105469 0.015625)" xlink:href="#DejaVuSans-6b"/>
     <use transform="translate(241.015625 0.015625)" xlink:href="#DejaVuSans-20"/>
     <use transform="translate(272.802734 0.015625)" xlink:href="#DejaVuSans-53"/>
     <use transform="translate(336.279297 0.015625)" xlink:href="#DejaVuSans-65"/>
     <use transform="translate(397.802734 0.015625)" xlink:href="#DejaVuSans-70"/>
     <use transform="translate(461.279297 0.015625)" xlink:href="#DejaVuSans-61"/>
     <use transform="translate(522.558594 0.015625)" xlink:href="#DejaVuSans-72"/>
     <use transform="translate(563.671875 0.015625)" xlink:href="#DejaVuSans-61"/>
     <use transform="translate(624.951172 0.015625)" xlink:href="#DejaVuSans-74"/>
     <use transform="translate(664.160156 0.015625)" xlink:href="#DejaVuSans-69"/>
     <use transform="translate(691.943359 0.015625)" xlink:href="#DejaVuSans-6f"/>
     <use transform="translate(753.125 0.015625)" xlink:href="#DejaVuSans-6e"/>
     <use transform="translate(816.503906 0.015625)" xlink:href="#DejaVuSans-20"/>
     <use transform="translate(848.291016 0.015625)" xlink:href="#DejaVuSans-394"/>
     <use transform="translate(916.699219 0.015625)" xlink:href="#DejaVuSans-Oblique-3bd"/>
     <use transform="translate(972.558594 -16.390625)scale(0.7)" xlink:href="#DejaVuSans-Oblique-50"/>
     <use transform="translate(1014.770508 -16.390625)scale(0.7)" xlink:href="#DejaVuSans-Oblique-52"/>
     <use transform="translate(1066.142578 0.015625)" xlink:href="#DejaVuSans-20"/>
     <use transform="translate(1097.929688 0.015625)" xlink:href="#DejaVuSans-61"/>
     <use transform="translate(1159.208984 0.015625)" xlink:href="#DejaVuSans-73"/>
     <use transform="translate(1211.308594 0.015625)" xlink:href="#DejaVuSans-20"/>
     <use transform="translate(1243.095703 0.015625)" xlink:href="#DejaVuSans-61"/>
     <use transform="translate(1304.375 0.015625)" xlink:href="#DejaVuSans-20"/>
     <use transform="translate(1336.162109 0.015625)" xlink:href="#DejaVuSans-66"/>
     <use transform="translate(1371.367188 0.015625)" xlink:href="#DejaVuSans-75"/>
     <use transform="translate(1434.746094 0.015625)" xlink:href="#DejaVuSans-6e"/>
     <use transform="translate(1498.125 0.015625)" xlink:href="#DejaVuSans-63"/>
     <use transform="translate(1553.105469 0.015625)" xlink:href="#DejaVuSans-74"/>
     <use transform="translate(1592.314453 0.015625)" xlink:href="#DejaVuSans-69"/>
     <use transform="translate(1620.097656 0.015625)" xlink:href="#DejaVuSans-6f"/>
     <use transform="translate(1681.279297 0.015625)" xlink:href="#DejaVuSans-6e"/>
     <use transform="translate(1744.658203 0.015625)" xlink:href="#DejaVuSans-20"/>
     <use transform="translate(1776.445312 0.015625)" xlink:href="#DejaVuSans-6f"/>
     <use transform="translate(1837.626953 0.015625)" xlink:href="#DejaVuSans-66"/>
     <use transform="translate(1872.832031 0.015625)" xlink:href="#DejaVuSans-20"/>
     <use transform="translate(1904.619141 0.015625)" xlink:href="#DejaVuSans-52"/>
     <use transform="translate(1974.101562 0.015625)" xlink:href="#DejaVuSans-6f"/>
     <use transform="translate(2035.283203 0.015625)" xlink:href="#DejaVuSans-74"/>
     <use transform="translate(2074.492188 0.015625)" xlink:href="#DejaVuSans-61"/>
     <use transform="translate(2135.771484 0.015625)" xlink:href="#DejaVuSans-74"/>
     <use transform="translate(2174.980469 0.015625)" xlink:href="#DejaVuSans-69"/>
     <use transform="translate(2202.763672 0.015625)" xlink:href="#DejaVuSans-6f"/>
     <use transform="translate(2263.945312 0.015625)" xlink:href="#DejaVuSans-6e"/>
     <use transform="translate(2327.324219 0.015625)" xlink:href="#DejaVuSans-61"/>
     <use transform="translate(2388.603516 0.015625)" xlink:href="#DejaVuSans-6c"/>
     <use transform="translate(2416.386719 0.015625)" xlink:href="#DejaVuSans-20"/>
     <use transform="translate(2448.173828 0.015625)" xlink:href="#DejaVuSans-74"/>
     <use transform="translate(2487.382812 0.015625)" xlink:href="#DejaVuSans-65"/>
     <use transform="translate(2548.90625 0.015625)" xlink:href="#DejaVuSans-6d"/>
     <use transform="translate(2646.318359 0.015625)" xlink:href="#DejaVuSans-70"/>
     <use transform="translate(2709.794922 0.015625)" xlink:href="#DejaVuSans-65"/>
     <use transform="translate(2771.318359 0.015625)" xlink:href="#DejaVuSans-72"/>
     <use transform="translate(2812.431641 0.015625)" xlink:href="#DejaVuSans-61"/>
     <use transform="translate(2873.710938 0.015625)" xlink:href="#DejaVuSans-74"/>
     <use transform="translate(2912.919922 0.015625)" xlink:href="#DejaVuSans-75"/>
     <use transform="translate(2976.298828 0.015625)" xlink:href="#DejaVuSans-72"/>
     <use transform="translate(3017.412109 0.015625)" xlink:href="#DejaVuSans-65"/>
     <use transform="translate(3078.935547 0.015625)" xlink:href="#DejaVuSans-20"/>
     <use transform="translate(3110.722656 0.015625)" xlink:href="#DejaVuSans-Oblique-54"/>
     <use transform="translate(3171.806641 -16.390625)scale(0.7)" xlink:href="#DejaVuSans-Oblique-72"/>
     <use transform="translate(3200.585938 -16.390625)scale(0.7)" xlink:href="#DejaVuSans-Oblique-6f"/>
     <use transform="translate(3243.413086 -16.390625)scale(0.7)" xlink:href="#DejaVuSans-Oblique-74"/>
    </g>
   </g>
   <g id="legend_1">
    <g id="patch_7">
     <path d="M 48.6625 74.354375 
L 160.3625 74.354375 
Q 162.3625 74.354375 162.3625 72.354375 
L 162.3625 29.32 
Q 162.3625 27.32 160.3625 27.32 
L 48.6625 27.32 
Q 46.6625 27.32 46.6625 29.32 
L 46.6625 72.354375 
Q 46.6625 74.354375 48.6625 74.354375 
z
" style="fill:#ffffff;opacity:0.8;stroke:#cccccc;stroke-linejoin:miter;"/>
    </g>
    <g id="line2d_40">
     <path d="M 50.6625 35.418437 
L 70.6625 35.418437 
" style="fill:none;stroke:#4fa30f;stroke-linecap:square;stroke-width:2;"/>
    </g>
    <g id="line2d_41">
     <g>
      <use style="fill:#4fa30f;stroke:#4fa30f;" x="60.6625" xlink:href="#m1c7d233bc1" y="35.418437"/>
     </g>
    </g>
    <g id="text_19">
     <!-- B = 0.005 $cm^{-1}$ -->
     <g transform="translate(78.6625 38.918437)scale(0.1 -0.1)">
      <defs>
       <path d="M 1259 2228 
L 1259 519 
L 2272 519 
Q 2781 519 3026 730 
Q 3272 941 3272 1375 
Q 3272 1813 3026 2020 
Q 2781 2228 2272 2228 
L 1259 2228 
z
M 1259 4147 
L 1259 2741 
L 2194 2741 
Q 2656 2741 2882 2914 
Q 3109 3088 3109 3444 
Q 3109 3797 2882 3972 
Q 2656 4147 2194 4147 
L 1259 4147 
z
M 628 4666 
L 2241 4666 
Q 2963 4666 3353 4366 
Q 3744 4066 3744 3513 
Q 3744 3084 3544 2831 
Q 3344 2578 2956 2516 
Q 3422 2416 3680 2098 
Q 3938 1781 3938 1306 
Q 3938 681 3513 340 
Q 3088 0 2303 0 
L 628 0 
L 628 4666 
z
" id="DejaVuSans-42" transform="scale(0.015625)"/>
       <path d="M 678 2906 
L 4684 2906 
L 4684 2381 
L 678 2381 
L 678 2906 
z
M 678 1631 
L 4684 1631 
L 4684 1100 
L 678 1100 
L 678 1631 
z
" id="DejaVuSans-3d" transform="scale(0.015625)"/>
       <path d="M 684 794 
L 1344 794 
L 1344 0 
L 684 0 
L 684 794 
z
" id="DejaVuSans-2e" transform="scale(0.015625)"/>
      </defs>
      <use transform="translate(0 0.684375)" xlink:href="#DejaVuSans-42"/>
      <use transform="translate(68.603516 0.684375)" xlink:href="#DejaVuSans-20"/>
      <use transform="translate(100.390625 0.684375)" xlink:href="#DejaVuSans-3d"/>
      <use transform="translate(184.179688 0.684375)" xlink:href="#DejaVuSans-20"/>
      <use transform="translate(215.966797 0.684375)" xlink:href="#DejaVuSans-30"/>
      <use transform="translate(279.589844 0.684375)" xlink:href="#DejaVuSans-2e"/>
      <use transform="translate(311.376953 0.684375)" xlink:href="#DejaVuSans-30"/>
      <use transform="translate(375 0.684375)" xlink:href="#DejaVuSans-30"/>
      <use transform="translate(438.623047 0.684375)" xlink:href="#DejaVuSans-35"/>
      <use transform="translate(502.246094 0.684375)" xlink:href="#DejaVuSans-20"/>
      <use transform="translate(534.033203 0.684375)" xlink:href="#DejaVuSans-Oblique-63"/>
      <use transform="translate(589.013672 0.684375)" xlink:href="#DejaVuSans-Oblique-6d"/>
      <use transform="translate(691.075677 38.965625)scale(0.7)" xlink:href="#DejaVuSans-2212"/>
      <use transform="translate(749.728021 38.965625)scale(0.7)" xlink:href="#DejaVuSans-31"/>
     </g>
    </g>
    <g id="line2d_42">
     <path d="M 50.6625 50.096563 
L 70.6625 50.096563 
" style="fill:none;stroke:#dc8e00;stroke-linecap:square;stroke-width:2;"/>
    </g>
    <g id="line2d_43">
     <g>
      <use style="fill:#dc8e00;stroke:#dc8e00;" x="60.6625" xlink:href="#m1014a65636" y="50.096563"/>
     </g>
    </g>
    <g id="text_20">
     <!-- B = 0.01 $cm^{-1}$ -->
     <g transform="translate(78.6625 53.596563)scale(0.1 -0.1)">
      <use transform="translate(0 0.684375)" xlink:href="#DejaVuSans-42"/>
      <use transform="translate(68.603516 0.684375)" xlink:href="#DejaVuSans-20"/>
      <use transform="translate(100.390625 0.684375)" xlink:href="#DejaVuSans-3d"/>
      <use transform="translate(184.179688 0.684375)" xlink:href="#DejaVuSans-20"/>
      <use transform="translate(215.966797 0.684375)" xlink:href="#DejaVuSans-30"/>
      <use transform="translate(279.589844 0.684375)" xlink:href="#DejaVuSans-2e"/>
      <use transform="translate(311.376953 0.684375)" xlink:href="#DejaVuSans-30"/>
      <use transform="translate(375 0.684375)" xlink:href="#DejaVuSans-31"/>
      <use transform="translate(438.623047 0.684375)" xlink:href="#DejaVuSans-20"/>
      <use transform="translate(470.410156 0.684375)" xlink:href="#DejaVuSans-Oblique-63"/>
      <use transform="translate(525.390625 0.684375)" xlink:href="#DejaVuSans-Oblique-6d"/>
      <use transform="translate(627.45263 38.965625)scale(0.7)" xlink:href="#DejaVuSans-2212"/>
      <use transform="translate(686.104974 38.965625)scale(0.7)" xlink:href="#DejaVuSans-31"/>
     </g>
    </g>
    <g id="line2d_44">
     <path d="M 50.6625 64.774687 
L 70.6625 64.774687 
" style="fill:none;stroke:#316a9a;stroke-linecap:square;stroke-width:2;"/>
    </g>
    <g id="line2d_45">
     <g>
      <use style="fill:#316a9a;stroke:#316a9a;" x="60.6625" xlink:href="#m2928c2eb55" y="64.774687"/>
     </g>
    </g>
    <g id="text_21">
     <!-- B = 0.05 $cm^{-1}$ -->
     <g transform="translate(78.6625 68.274687)scale(0.1 -0.1)">
      <use transform="translate(0 0.684375)" xlink:href="#DejaVuSans-42"/>
      <use transform="translate(68.603516 0.684375)" xlink:href="#DejaVuSans-20"/>
      <use transform="translate(100.390625 0.684375)" xlink:href="#DejaVuSans-3d"/>
      <use transform="translate(184.179688 0.684375)" xlink:href="#DejaVuSans-20"/>
      <use transform="translate(215.966797 0.684375)" xlink:href="#DejaVuSans-30"/>
      <use transform="translate(279.589844 0.684375)" xlink:href="#DejaVuSans-2e"/>
      <use transform="translate(311.376953 0.684375)" xlink:href="#DejaVuSans-30"/>
      <use transform="translate(375 0.684375)" xlink:href="#DejaVuSans-35"/>
      <use transform="translate(438.623047 0.684375)" xlink:href="#DejaVuSans-20"/>
      <use transform="translate(470.410156 0.684375)" xlink:href="#DejaVuSans-Oblique-63"/>
      <use transform="translate(525.390625 0.684375)" xlink:href="#DejaVuSans-Oblique-6d"/>
      <use transform="translate(627.45263 38.965625)scale(0.7)" xlink:href="#DejaVuSans-2212"/>
      <use transform="translate(686.104974 38.965625)scale(0.7)" xlink:href="#DejaVuSans-31"/>
     </g>
    </g>
   </g>
  </g>
 </g>
 <defs>
  <clipPath id="pc885905571">
   <rect height="326.16" width="837" x="41.6625" y="22.32"/>
  </clipPath>
 </defs>
</svg>
