<?xml version="1.0" encoding="utf-8" standalone="no"?>
<!DOCTYPE svg PUBLIC "-//W3C//DTD SVG 1.1//EN"
  "http://www.w3.org/Graphics/SVG/1.1/DTD/svg11.dtd">
<svg height="497.158125pt" version="1.1" viewBox="0 0 894.34375 497.158125" width="894.34375pt" xmlns="http://www.w3.org/2000/svg" xmlns:xlink="http://www.w3.org/1999/xlink">
 <metadata>
  <rdf:RDF xmlns:cc="http://creativecommons.org/ns#" xmlns:dc="http://purl.org/dc/elements/1.1/" xmlns:rdf="http://www.w3.org/1999/02/22-rdf-syntax-ns#">
   <cc:Work>
    <dc:type rdf:resource="http://purl.org/dc/dcmitype/StillImage"/>
    <dc:date>2022-12-02T17:35:30.574754</dc:date>
    <dc:format>image/svg+xml</dc:format>
    <dc:creator>
     <cc:Agent>
      <dc:title>Matplotlib v3.4.3, https://matplotlib.org/</dc:title>
     </cc:Agent>
    </dc:creator>
   </cc:Work>
  </rdf:RDF>
 </metadata>
 <defs>
  <style type="text/css">*{stroke-linecap:butt;stroke-linejoin:round;}</style>
 </defs>
 <g id="figure_1">
  <g id="patch_1">
   <path d="M 0 497.158125 
L 894.34375 497.158125 
L 894.34375 0 
L 0 0 
z
" style="fill:#ffffff;"/>
  </g>
  <g id="axes_1">
   <g id="patch_2">
    <path d="M 50.14375 458.88 
L 887.14375 458.88 
L 887.14375 24 
L 50.14375 24 
z
" style="fill:#ffffff;"/>
   </g>
   <g id="matplotlib.axis_1">
    <g id="xtick_1">
     <g id="line2d_1">
      <defs>
       <path d="M 0 0 
L 0 3.5 
" id="m397b1c82d2" style="stroke:#000000;stroke-width:0.8;"/>
      </defs>
      <g>
       <use style="stroke:#000000;stroke-width:0.8;" x="150.836801" xlink:href="#m397b1c82d2" y="458.88"/>
      </g>
     </g>
     <g id="text_1">
      <!-- −10 -->
      <g transform="translate(140.284457 473.478437)scale(0.1 -0.1)">
       <defs>
        <path d="M 678 2272 
L 4684 2272 
L 4684 1741 
L 678 1741 
L 678 2272 
z
" id="DejaVuSans-2212" transform="scale(0.015625)"/>
        <path d="M 794 531 
L 1825 531 
L 1825 4091 
L 703 3866 
L 703 4441 
L 1819 4666 
L 2450 4666 
L 2450 531 
L 3481 531 
L 3481 0 
L 794 0 
L 794 531 
z
" id="DejaVuSans-31" transform="scale(0.015625)"/>
        <path d="M 2034 4250 
Q 1547 4250 1301 3770 
Q 1056 3291 1056 2328 
Q 1056 1369 1301 889 
Q 1547 409 2034 409 
Q 2525 409 2770 889 
Q 3016 1369 3016 2328 
Q 3016 3291 2770 3770 
Q 2525 4250 2034 4250 
z
M 2034 4750 
Q 2819 4750 3233 4129 
Q 3647 3509 3647 2328 
Q 3647 1150 3233 529 
Q 2819 -91 2034 -91 
Q 1250 -91 836 529 
Q 422 1150 422 2328 
Q 422 3509 836 4129 
Q 1250 4750 2034 4750 
z
" id="DejaVuSans-30" transform="scale(0.015625)"/>
       </defs>
       <use xlink:href="#DejaVuSans-2212"/>
       <use x="83.789062" xlink:href="#DejaVuSans-31"/>
       <use x="147.412109" xlink:href="#DejaVuSans-30"/>
      </g>
     </g>
    </g>
    <g id="xtick_2">
     <g id="line2d_2">
      <g>
       <use style="stroke:#000000;stroke-width:0.8;" x="307.628386" xlink:href="#m397b1c82d2" y="458.88"/>
      </g>
     </g>
     <g id="text_2">
      <!-- −5 -->
      <g transform="translate(300.257292 473.478437)scale(0.1 -0.1)">
       <defs>
        <path d="M 691 4666 
L 3169 4666 
L 3169 4134 
L 1269 4134 
L 1269 2991 
Q 1406 3038 1543 3061 
Q 1681 3084 1819 3084 
Q 2600 3084 3056 2656 
Q 3513 2228 3513 1497 
Q 3513 744 3044 326 
Q 2575 -91 1722 -91 
Q 1428 -91 1123 -41 
Q 819 9 494 109 
L 494 744 
Q 775 591 1075 516 
Q 1375 441 1709 441 
Q 2250 441 2565 725 
Q 2881 1009 2881 1497 
Q 2881 1984 2565 2268 
Q 2250 2553 1709 2553 
Q 1456 2553 1204 2497 
Q 953 2441 691 2322 
L 691 4666 
z
" id="DejaVuSans-35" transform="scale(0.015625)"/>
       </defs>
       <use xlink:href="#DejaVuSans-2212"/>
       <use x="83.789062" xlink:href="#DejaVuSans-35"/>
      </g>
     </g>
    </g>
    <g id="xtick_3">
     <g id="line2d_3">
      <g>
       <use style="stroke:#000000;stroke-width:0.8;" x="464.419971" xlink:href="#m397b1c82d2" y="458.88"/>
      </g>
     </g>
     <g id="text_3">
      <!-- 0 -->
      <g transform="translate(461.238721 473.478437)scale(0.1 -0.1)">
       <use xlink:href="#DejaVuSans-30"/>
      </g>
     </g>
    </g>
    <g id="xtick_4">
     <g id="line2d_4">
      <g>
       <use style="stroke:#000000;stroke-width:0.8;" x="621.211556" xlink:href="#m397b1c82d2" y="458.88"/>
      </g>
     </g>
     <g id="text_4">
      <!-- 5 -->
      <g transform="translate(618.030306 473.478437)scale(0.1 -0.1)">
       <use xlink:href="#DejaVuSans-35"/>
      </g>
     </g>
    </g>
    <g id="xtick_5">
     <g id="line2d_5">
      <g>
       <use style="stroke:#000000;stroke-width:0.8;" x="778.003141" xlink:href="#m397b1c82d2" y="458.88"/>
      </g>
     </g>
     <g id="text_5">
      <!-- 10 -->
      <g transform="translate(771.640641 473.478437)scale(0.1 -0.1)">
       <use xlink:href="#DejaVuSans-31"/>
       <use x="63.623047" xlink:href="#DejaVuSans-30"/>
      </g>
     </g>
    </g>
    <g id="text_6">
     <!-- wavenumber (in $cm^{-1}$) -->
     <g transform="translate(411.14375 487.878437)scale(0.1 -0.1)">
      <defs>
       <path d="M 269 3500 
L 844 3500 
L 1563 769 
L 2278 3500 
L 2956 3500 
L 3675 769 
L 4391 3500 
L 4966 3500 
L 4050 0 
L 3372 0 
L 2619 2869 
L 1863 0 
L 1184 0 
L 269 3500 
z
" id="DejaVuSans-77" transform="scale(0.015625)"/>
       <path d="M 2194 1759 
Q 1497 1759 1228 1600 
Q 959 1441 959 1056 
Q 959 750 1161 570 
Q 1363 391 1709 391 
Q 2188 391 2477 730 
Q 2766 1069 2766 1631 
L 2766 1759 
L 2194 1759 
z
M 3341 1997 
L 3341 0 
L 2766 0 
L 2766 531 
Q 2569 213 2275 61 
Q 1981 -91 1556 -91 
Q 1019 -91 701 211 
Q 384 513 384 1019 
Q 384 1609 779 1909 
Q 1175 2209 1959 2209 
L 2766 2209 
L 2766 2266 
Q 2766 2663 2505 2880 
Q 2244 3097 1772 3097 
Q 1472 3097 1187 3025 
Q 903 2953 641 2809 
L 641 3341 
Q 956 3463 1253 3523 
Q 1550 3584 1831 3584 
Q 2591 3584 2966 3190 
Q 3341 2797 3341 1997 
z
" id="DejaVuSans-61" transform="scale(0.015625)"/>
       <path d="M 191 3500 
L 800 3500 
L 1894 563 
L 2988 3500 
L 3597 3500 
L 2284 0 
L 1503 0 
L 191 3500 
z
" id="DejaVuSans-76" transform="scale(0.015625)"/>
       <path d="M 3597 1894 
L 3597 1613 
L 953 1613 
Q 991 1019 1311 708 
Q 1631 397 2203 397 
Q 2534 397 2845 478 
Q 3156 559 3463 722 
L 3463 178 
Q 3153 47 2828 -22 
Q 2503 -91 2169 -91 
Q 1331 -91 842 396 
Q 353 884 353 1716 
Q 353 2575 817 3079 
Q 1281 3584 2069 3584 
Q 2775 3584 3186 3129 
Q 3597 2675 3597 1894 
z
M 3022 2063 
Q 3016 2534 2758 2815 
Q 2500 3097 2075 3097 
Q 1594 3097 1305 2825 
Q 1016 2553 972 2059 
L 3022 2063 
z
" id="DejaVuSans-65" transform="scale(0.015625)"/>
       <path d="M 3513 2113 
L 3513 0 
L 2938 0 
L 2938 2094 
Q 2938 2591 2744 2837 
Q 2550 3084 2163 3084 
Q 1697 3084 1428 2787 
Q 1159 2491 1159 1978 
L 1159 0 
L 581 0 
L 581 3500 
L 1159 3500 
L 1159 2956 
Q 1366 3272 1645 3428 
Q 1925 3584 2291 3584 
Q 2894 3584 3203 3211 
Q 3513 2838 3513 2113 
z
" id="DejaVuSans-6e" transform="scale(0.015625)"/>
       <path d="M 544 1381 
L 544 3500 
L 1119 3500 
L 1119 1403 
Q 1119 906 1312 657 
Q 1506 409 1894 409 
Q 2359 409 2629 706 
Q 2900 1003 2900 1516 
L 2900 3500 
L 3475 3500 
L 3475 0 
L 2900 0 
L 2900 538 
Q 2691 219 2414 64 
Q 2138 -91 1772 -91 
Q 1169 -91 856 284 
Q 544 659 544 1381 
z
M 1991 3584 
L 1991 3584 
z
" id="DejaVuSans-75" transform="scale(0.015625)"/>
       <path d="M 3328 2828 
Q 3544 3216 3844 3400 
Q 4144 3584 4550 3584 
Q 5097 3584 5394 3201 
Q 5691 2819 5691 2113 
L 5691 0 
L 5113 0 
L 5113 2094 
Q 5113 2597 4934 2840 
Q 4756 3084 4391 3084 
Q 3944 3084 3684 2787 
Q 3425 2491 3425 1978 
L 3425 0 
L 2847 0 
L 2847 2094 
Q 2847 2600 2669 2842 
Q 2491 3084 2119 3084 
Q 1678 3084 1418 2786 
Q 1159 2488 1159 1978 
L 1159 0 
L 581 0 
L 581 3500 
L 1159 3500 
L 1159 2956 
Q 1356 3278 1631 3431 
Q 1906 3584 2284 3584 
Q 2666 3584 2933 3390 
Q 3200 3197 3328 2828 
z
" id="DejaVuSans-6d" transform="scale(0.015625)"/>
       <path d="M 3116 1747 
Q 3116 2381 2855 2742 
Q 2594 3103 2138 3103 
Q 1681 3103 1420 2742 
Q 1159 2381 1159 1747 
Q 1159 1113 1420 752 
Q 1681 391 2138 391 
Q 2594 391 2855 752 
Q 3116 1113 3116 1747 
z
M 1159 2969 
Q 1341 3281 1617 3432 
Q 1894 3584 2278 3584 
Q 2916 3584 3314 3078 
Q 3713 2572 3713 1747 
Q 3713 922 3314 415 
Q 2916 -91 2278 -91 
Q 1894 -91 1617 61 
Q 1341 213 1159 525 
L 1159 0 
L 581 0 
L 581 4863 
L 1159 4863 
L 1159 2969 
z
" id="DejaVuSans-62" transform="scale(0.015625)"/>
       <path d="M 2631 2963 
Q 2534 3019 2420 3045 
Q 2306 3072 2169 3072 
Q 1681 3072 1420 2755 
Q 1159 2438 1159 1844 
L 1159 0 
L 581 0 
L 581 3500 
L 1159 3500 
L 1159 2956 
Q 1341 3275 1631 3429 
Q 1922 3584 2338 3584 
Q 2397 3584 2469 3576 
Q 2541 3569 2628 3553 
L 2631 2963 
z
" id="DejaVuSans-72" transform="scale(0.015625)"/>
       <path id="DejaVuSans-20" transform="scale(0.015625)"/>
       <path d="M 1984 4856 
Q 1566 4138 1362 3434 
Q 1159 2731 1159 2009 
Q 1159 1288 1364 580 
Q 1569 -128 1984 -844 
L 1484 -844 
Q 1016 -109 783 600 
Q 550 1309 550 2009 
Q 550 2706 781 3412 
Q 1013 4119 1484 4856 
L 1984 4856 
z
" id="DejaVuSans-28" transform="scale(0.015625)"/>
       <path d="M 603 3500 
L 1178 3500 
L 1178 0 
L 603 0 
L 603 3500 
z
M 603 4863 
L 1178 4863 
L 1178 4134 
L 603 4134 
L 603 4863 
z
" id="DejaVuSans-69" transform="scale(0.015625)"/>
       <path d="M 3431 3366 
L 3316 2797 
Q 3109 2947 2876 3022 
Q 2644 3097 2394 3097 
Q 2119 3097 1870 3000 
Q 1622 2903 1453 2725 
Q 1184 2453 1037 2087 
Q 891 1722 891 1331 
Q 891 859 1127 628 
Q 1363 397 1844 397 
Q 2081 397 2348 469 
Q 2616 541 2906 684 
L 2797 116 
Q 2547 13 2283 -39 
Q 2019 -91 1741 -91 
Q 1044 -91 669 257 
Q 294 606 294 1253 
Q 294 1797 489 2255 
Q 684 2713 1069 3078 
Q 1331 3328 1684 3456 
Q 2038 3584 2456 3584 
Q 2700 3584 2940 3529 
Q 3181 3475 3431 3366 
z
" id="DejaVuSans-Oblique-63" transform="scale(0.015625)"/>
       <path d="M 5747 2113 
L 5338 0 
L 4763 0 
L 5166 2094 
Q 5191 2228 5203 2325 
Q 5216 2422 5216 2491 
Q 5216 2772 5059 2928 
Q 4903 3084 4622 3084 
Q 4203 3084 3875 2770 
Q 3547 2456 3450 1953 
L 3066 0 
L 2491 0 
L 2900 2094 
Q 2925 2209 2937 2307 
Q 2950 2406 2950 2484 
Q 2950 2769 2794 2926 
Q 2638 3084 2363 3084 
Q 1938 3084 1609 2770 
Q 1281 2456 1184 1953 
L 800 0 
L 225 0 
L 909 3500 
L 1484 3500 
L 1375 2956 
Q 1609 3263 1923 3423 
Q 2238 3584 2597 3584 
Q 2978 3584 3223 3384 
Q 3469 3184 3519 2828 
Q 3781 3197 4126 3390 
Q 4472 3584 4856 3584 
Q 5306 3584 5551 3325 
Q 5797 3066 5797 2591 
Q 5797 2488 5784 2364 
Q 5772 2241 5747 2113 
z
" id="DejaVuSans-Oblique-6d" transform="scale(0.015625)"/>
       <path d="M 513 4856 
L 1013 4856 
Q 1481 4119 1714 3412 
Q 1947 2706 1947 2009 
Q 1947 1309 1714 600 
Q 1481 -109 1013 -844 
L 513 -844 
Q 928 -128 1133 580 
Q 1338 1288 1338 2009 
Q 1338 2731 1133 3434 
Q 928 4138 513 4856 
z
" id="DejaVuSans-29" transform="scale(0.015625)"/>
      </defs>
      <use transform="translate(0 0.684375)" xlink:href="#DejaVuSans-77"/>
      <use transform="translate(81.787109 0.684375)" xlink:href="#DejaVuSans-61"/>
      <use transform="translate(143.066406 0.684375)" xlink:href="#DejaVuSans-76"/>
      <use transform="translate(202.246094 0.684375)" xlink:href="#DejaVuSans-65"/>
      <use transform="translate(263.769531 0.684375)" xlink:href="#DejaVuSans-6e"/>
      <use transform="translate(327.148438 0.684375)" xlink:href="#DejaVuSans-75"/>
      <use transform="translate(390.527344 0.684375)" xlink:href="#DejaVuSans-6d"/>
      <use transform="translate(487.939453 0.684375)" xlink:href="#DejaVuSans-62"/>
      <use transform="translate(551.416016 0.684375)" xlink:href="#DejaVuSans-65"/>
      <use transform="translate(612.939453 0.684375)" xlink:href="#DejaVuSans-72"/>
      <use transform="translate(654.052734 0.684375)" xlink:href="#DejaVuSans-20"/>
      <use transform="translate(685.839844 0.684375)" xlink:href="#DejaVuSans-28"/>
      <use transform="translate(724.853516 0.684375)" xlink:href="#DejaVuSans-69"/>
      <use transform="translate(752.636719 0.684375)" xlink:href="#DejaVuSans-6e"/>
      <use transform="translate(816.015625 0.684375)" xlink:href="#DejaVuSans-20"/>
      <use transform="translate(847.802734 0.684375)" xlink:href="#DejaVuSans-Oblique-63"/>
      <use transform="translate(902.783203 0.684375)" xlink:href="#DejaVuSans-Oblique-6d"/>
      <use transform="translate(1004.845208 38.965625)scale(0.7)" xlink:href="#DejaVuSans-2212"/>
      <use transform="translate(1063.497552 38.965625)scale(0.7)" xlink:href="#DejaVuSans-31"/>
      <use transform="translate(1110.76806 0.684375)" xlink:href="#DejaVuSans-29"/>
     </g>
    </g>
   </g>
   <g id="matplotlib.axis_2">
    <g id="ytick_1">
     <g id="line2d_6">
      <defs>
       <path d="M 0 0 
L -3.5 0 
" id="m53ce9ee64e" style="stroke:#000000;stroke-width:0.8;"/>
      </defs>
      <g>
       <use style="stroke:#000000;stroke-width:0.8;" x="50.14375" xlink:href="#m53ce9ee64e" y="439.112727"/>
      </g>
     </g>
     <g id="text_7">
      <!-- 0.90 -->
      <g transform="translate(20.878125 442.911946)scale(0.1 -0.1)">
       <defs>
        <path d="M 684 794 
L 1344 794 
L 1344 0 
L 684 0 
L 684 794 
z
" id="DejaVuSans-2e" transform="scale(0.015625)"/>
        <path d="M 703 97 
L 703 672 
Q 941 559 1184 500 
Q 1428 441 1663 441 
Q 2288 441 2617 861 
Q 2947 1281 2994 2138 
Q 2813 1869 2534 1725 
Q 2256 1581 1919 1581 
Q 1219 1581 811 2004 
Q 403 2428 403 3163 
Q 403 3881 828 4315 
Q 1253 4750 1959 4750 
Q 2769 4750 3195 4129 
Q 3622 3509 3622 2328 
Q 3622 1225 3098 567 
Q 2575 -91 1691 -91 
Q 1453 -91 1209 -44 
Q 966 3 703 97 
z
M 1959 2075 
Q 2384 2075 2632 2365 
Q 2881 2656 2881 3163 
Q 2881 3666 2632 3958 
Q 2384 4250 1959 4250 
Q 1534 4250 1286 3958 
Q 1038 3666 1038 3163 
Q 1038 2656 1286 2365 
Q 1534 2075 1959 2075 
z
" id="DejaVuSans-39" transform="scale(0.015625)"/>
       </defs>
       <use xlink:href="#DejaVuSans-30"/>
       <use x="63.623047" xlink:href="#DejaVuSans-2e"/>
       <use x="95.410156" xlink:href="#DejaVuSans-39"/>
       <use x="159.033203" xlink:href="#DejaVuSans-30"/>
      </g>
     </g>
    </g>
    <g id="ytick_2">
     <g id="line2d_7">
      <g>
       <use style="stroke:#000000;stroke-width:0.8;" x="50.14375" xlink:href="#m53ce9ee64e" y="360.035603"/>
      </g>
     </g>
     <g id="text_8">
      <!-- 0.92 -->
      <g transform="translate(20.878125 363.834822)scale(0.1 -0.1)">
       <defs>
        <path d="M 1228 531 
L 3431 531 
L 3431 0 
L 469 0 
L 469 531 
Q 828 903 1448 1529 
Q 2069 2156 2228 2338 
Q 2531 2678 2651 2914 
Q 2772 3150 2772 3378 
Q 2772 3750 2511 3984 
Q 2250 4219 1831 4219 
Q 1534 4219 1204 4116 
Q 875 4013 500 3803 
L 500 4441 
Q 881 4594 1212 4672 
Q 1544 4750 1819 4750 
Q 2544 4750 2975 4387 
Q 3406 4025 3406 3419 
Q 3406 3131 3298 2873 
Q 3191 2616 2906 2266 
Q 2828 2175 2409 1742 
Q 1991 1309 1228 531 
z
" id="DejaVuSans-32" transform="scale(0.015625)"/>
       </defs>
       <use xlink:href="#DejaVuSans-30"/>
       <use x="63.623047" xlink:href="#DejaVuSans-2e"/>
       <use x="95.410156" xlink:href="#DejaVuSans-39"/>
       <use x="159.033203" xlink:href="#DejaVuSans-32"/>
      </g>
     </g>
    </g>
    <g id="ytick_3">
     <g id="line2d_8">
      <g>
       <use style="stroke:#000000;stroke-width:0.8;" x="50.14375" xlink:href="#m53ce9ee64e" y="280.958478"/>
      </g>
     </g>
     <g id="text_9">
      <!-- 0.94 -->
      <g transform="translate(20.878125 284.757697)scale(0.1 -0.1)">
       <defs>
        <path d="M 2419 4116 
L 825 1625 
L 2419 1625 
L 2419 4116 
z
M 2253 4666 
L 3047 4666 
L 3047 1625 
L 3713 1625 
L 3713 1100 
L 3047 1100 
L 3047 0 
L 2419 0 
L 2419 1100 
L 313 1100 
L 313 1709 
L 2253 4666 
z
" id="DejaVuSans-34" transform="scale(0.015625)"/>
       </defs>
       <use xlink:href="#DejaVuSans-30"/>
       <use x="63.623047" xlink:href="#DejaVuSans-2e"/>
       <use x="95.410156" xlink:href="#DejaVuSans-39"/>
       <use x="159.033203" xlink:href="#DejaVuSans-34"/>
      </g>
     </g>
    </g>
    <g id="ytick_4">
     <g id="line2d_9">
      <g>
       <use style="stroke:#000000;stroke-width:0.8;" x="50.14375" xlink:href="#m53ce9ee64e" y="201.881354"/>
      </g>
     </g>
     <g id="text_10">
      <!-- 0.96 -->
      <g transform="translate(20.878125 205.680573)scale(0.1 -0.1)">
       <defs>
        <path d="M 2113 2584 
Q 1688 2584 1439 2293 
Q 1191 2003 1191 1497 
Q 1191 994 1439 701 
Q 1688 409 2113 409 
Q 2538 409 2786 701 
Q 3034 994 3034 1497 
Q 3034 2003 2786 2293 
Q 2538 2584 2113 2584 
z
M 3366 4563 
L 3366 3988 
Q 3128 4100 2886 4159 
Q 2644 4219 2406 4219 
Q 1781 4219 1451 3797 
Q 1122 3375 1075 2522 
Q 1259 2794 1537 2939 
Q 1816 3084 2150 3084 
Q 2853 3084 3261 2657 
Q 3669 2231 3669 1497 
Q 3669 778 3244 343 
Q 2819 -91 2113 -91 
Q 1303 -91 875 529 
Q 447 1150 447 2328 
Q 447 3434 972 4092 
Q 1497 4750 2381 4750 
Q 2619 4750 2861 4703 
Q 3103 4656 3366 4563 
z
" id="DejaVuSans-36" transform="scale(0.015625)"/>
       </defs>
       <use xlink:href="#DejaVuSans-30"/>
       <use x="63.623047" xlink:href="#DejaVuSans-2e"/>
       <use x="95.410156" xlink:href="#DejaVuSans-39"/>
       <use x="159.033203" xlink:href="#DejaVuSans-36"/>
      </g>
     </g>
    </g>
    <g id="ytick_5">
     <g id="line2d_10">
      <g>
       <use style="stroke:#000000;stroke-width:0.8;" x="50.14375" xlink:href="#m53ce9ee64e" y="122.80423"/>
      </g>
     </g>
     <g id="text_11">
      <!-- 0.98 -->
      <g transform="translate(20.878125 126.603448)scale(0.1 -0.1)">
       <defs>
        <path d="M 2034 2216 
Q 1584 2216 1326 1975 
Q 1069 1734 1069 1313 
Q 1069 891 1326 650 
Q 1584 409 2034 409 
Q 2484 409 2743 651 
Q 3003 894 3003 1313 
Q 3003 1734 2745 1975 
Q 2488 2216 2034 2216 
z
M 1403 2484 
Q 997 2584 770 2862 
Q 544 3141 544 3541 
Q 544 4100 942 4425 
Q 1341 4750 2034 4750 
Q 2731 4750 3128 4425 
Q 3525 4100 3525 3541 
Q 3525 3141 3298 2862 
Q 3072 2584 2669 2484 
Q 3125 2378 3379 2068 
Q 3634 1759 3634 1313 
Q 3634 634 3220 271 
Q 2806 -91 2034 -91 
Q 1263 -91 848 271 
Q 434 634 434 1313 
Q 434 1759 690 2068 
Q 947 2378 1403 2484 
z
M 1172 3481 
Q 1172 3119 1398 2916 
Q 1625 2713 2034 2713 
Q 2441 2713 2670 2916 
Q 2900 3119 2900 3481 
Q 2900 3844 2670 4047 
Q 2441 4250 2034 4250 
Q 1625 4250 1398 4047 
Q 1172 3844 1172 3481 
z
" id="DejaVuSans-38" transform="scale(0.015625)"/>
       </defs>
       <use xlink:href="#DejaVuSans-30"/>
       <use x="63.623047" xlink:href="#DejaVuSans-2e"/>
       <use x="95.410156" xlink:href="#DejaVuSans-39"/>
       <use x="159.033203" xlink:href="#DejaVuSans-38"/>
      </g>
     </g>
    </g>
    <g id="ytick_6">
     <g id="line2d_11">
      <g>
       <use style="stroke:#000000;stroke-width:0.8;" x="50.14375" xlink:href="#m53ce9ee64e" y="43.727105"/>
      </g>
     </g>
     <g id="text_12">
      <!-- 1.00 -->
      <g transform="translate(20.878125 47.526324)scale(0.1 -0.1)">
       <use xlink:href="#DejaVuSans-31"/>
       <use x="63.623047" xlink:href="#DejaVuSans-2e"/>
       <use x="95.410156" xlink:href="#DejaVuSans-30"/>
       <use x="159.033203" xlink:href="#DejaVuSans-30"/>
      </g>
     </g>
    </g>
    <g id="text_13">
     <!-- Normalized Intensity -->
     <g transform="translate(14.798438 293.147031)rotate(-90)scale(0.1 -0.1)">
      <defs>
       <path d="M 628 4666 
L 1478 4666 
L 3547 763 
L 3547 4666 
L 4159 4666 
L 4159 0 
L 3309 0 
L 1241 3903 
L 1241 0 
L 628 0 
L 628 4666 
z
" id="DejaVuSans-4e" transform="scale(0.015625)"/>
       <path d="M 1959 3097 
Q 1497 3097 1228 2736 
Q 959 2375 959 1747 
Q 959 1119 1226 758 
Q 1494 397 1959 397 
Q 2419 397 2687 759 
Q 2956 1122 2956 1747 
Q 2956 2369 2687 2733 
Q 2419 3097 1959 3097 
z
M 1959 3584 
Q 2709 3584 3137 3096 
Q 3566 2609 3566 1747 
Q 3566 888 3137 398 
Q 2709 -91 1959 -91 
Q 1206 -91 779 398 
Q 353 888 353 1747 
Q 353 2609 779 3096 
Q 1206 3584 1959 3584 
z
" id="DejaVuSans-6f" transform="scale(0.015625)"/>
       <path d="M 603 4863 
L 1178 4863 
L 1178 0 
L 603 0 
L 603 4863 
z
" id="DejaVuSans-6c" transform="scale(0.015625)"/>
       <path d="M 353 3500 
L 3084 3500 
L 3084 2975 
L 922 459 
L 3084 459 
L 3084 0 
L 275 0 
L 275 525 
L 2438 3041 
L 353 3041 
L 353 3500 
z
" id="DejaVuSans-7a" transform="scale(0.015625)"/>
       <path d="M 2906 2969 
L 2906 4863 
L 3481 4863 
L 3481 0 
L 2906 0 
L 2906 525 
Q 2725 213 2448 61 
Q 2172 -91 1784 -91 
Q 1150 -91 751 415 
Q 353 922 353 1747 
Q 353 2572 751 3078 
Q 1150 3584 1784 3584 
Q 2172 3584 2448 3432 
Q 2725 3281 2906 2969 
z
M 947 1747 
Q 947 1113 1208 752 
Q 1469 391 1925 391 
Q 2381 391 2643 752 
Q 2906 1113 2906 1747 
Q 2906 2381 2643 2742 
Q 2381 3103 1925 3103 
Q 1469 3103 1208 2742 
Q 947 2381 947 1747 
z
" id="DejaVuSans-64" transform="scale(0.015625)"/>
       <path d="M 628 4666 
L 1259 4666 
L 1259 0 
L 628 0 
L 628 4666 
z
" id="DejaVuSans-49" transform="scale(0.015625)"/>
       <path d="M 1172 4494 
L 1172 3500 
L 2356 3500 
L 2356 3053 
L 1172 3053 
L 1172 1153 
Q 1172 725 1289 603 
Q 1406 481 1766 481 
L 2356 481 
L 2356 0 
L 1766 0 
Q 1100 0 847 248 
Q 594 497 594 1153 
L 594 3053 
L 172 3053 
L 172 3500 
L 594 3500 
L 594 4494 
L 1172 4494 
z
" id="DejaVuSans-74" transform="scale(0.015625)"/>
       <path d="M 2834 3397 
L 2834 2853 
Q 2591 2978 2328 3040 
Q 2066 3103 1784 3103 
Q 1356 3103 1142 2972 
Q 928 2841 928 2578 
Q 928 2378 1081 2264 
Q 1234 2150 1697 2047 
L 1894 2003 
Q 2506 1872 2764 1633 
Q 3022 1394 3022 966 
Q 3022 478 2636 193 
Q 2250 -91 1575 -91 
Q 1294 -91 989 -36 
Q 684 19 347 128 
L 347 722 
Q 666 556 975 473 
Q 1284 391 1588 391 
Q 1994 391 2212 530 
Q 2431 669 2431 922 
Q 2431 1156 2273 1281 
Q 2116 1406 1581 1522 
L 1381 1569 
Q 847 1681 609 1914 
Q 372 2147 372 2553 
Q 372 3047 722 3315 
Q 1072 3584 1716 3584 
Q 2034 3584 2315 3537 
Q 2597 3491 2834 3397 
z
" id="DejaVuSans-73" transform="scale(0.015625)"/>
       <path d="M 2059 -325 
Q 1816 -950 1584 -1140 
Q 1353 -1331 966 -1331 
L 506 -1331 
L 506 -850 
L 844 -850 
Q 1081 -850 1212 -737 
Q 1344 -625 1503 -206 
L 1606 56 
L 191 3500 
L 800 3500 
L 1894 763 
L 2988 3500 
L 3597 3500 
L 2059 -325 
z
" id="DejaVuSans-79" transform="scale(0.015625)"/>
      </defs>
      <use xlink:href="#DejaVuSans-4e"/>
      <use x="74.804688" xlink:href="#DejaVuSans-6f"/>
      <use x="135.986328" xlink:href="#DejaVuSans-72"/>
      <use x="175.349609" xlink:href="#DejaVuSans-6d"/>
      <use x="272.761719" xlink:href="#DejaVuSans-61"/>
      <use x="334.041016" xlink:href="#DejaVuSans-6c"/>
      <use x="361.824219" xlink:href="#DejaVuSans-69"/>
      <use x="389.607422" xlink:href="#DejaVuSans-7a"/>
      <use x="442.097656" xlink:href="#DejaVuSans-65"/>
      <use x="503.621094" xlink:href="#DejaVuSans-64"/>
      <use x="567.097656" xlink:href="#DejaVuSans-20"/>
      <use x="598.884766" xlink:href="#DejaVuSans-49"/>
      <use x="628.376953" xlink:href="#DejaVuSans-6e"/>
      <use x="691.755859" xlink:href="#DejaVuSans-74"/>
      <use x="730.964844" xlink:href="#DejaVuSans-65"/>
      <use x="792.488281" xlink:href="#DejaVuSans-6e"/>
      <use x="855.867188" xlink:href="#DejaVuSans-73"/>
      <use x="907.966797" xlink:href="#DejaVuSans-69"/>
      <use x="935.75" xlink:href="#DejaVuSans-74"/>
      <use x="974.958984" xlink:href="#DejaVuSans-79"/>
     </g>
    </g>
   </g>
   <g id="line2d_12">
    <path clip-path="url(#pe6f66b01fd)" d="M 355.316864 43.77564 
L 358.015123 43.792695 
L 360.713382 43.81576 
L 363.411642 43.84704 
L 366.109901 43.88963 
L 368.80816 43.947933 
L 371.506419 44.028281 
L 374.204678 44.139892 
L 376.902938 44.296299 
L 379.601197 44.517482 
L 382.299456 44.832951 
L 384.997715 45.286111 
L 387.695974 45.940194 
L 390.394234 46.885967 
L 393.092493 48.251148 
L 395.790752 50.211011 
L 398.489011 52.998878 
L 401.18727 56.914219 
L 403.885529 62.324879 
L 406.583789 69.658863 
L 409.282048 79.380466 
L 411.980307 91.945947 
L 414.678566 107.735963 
L 417.376825 126.966137 
L 420.075085 149.583486 
L 422.773344 175.164507 
L 425.471603 202.839086 
L 428.169862 231.270848 
L 430.868121 258.726275 
L 433.566381 283.258961 
L 436.26464 303.019919 
L 438.962899 316.679762 
L 441.661158 323.916437 
L 444.359417 325.883533 
L 447.057676 325.51177 
L 449.755936 327.363598 
L 452.454195 336.572263 
L 455.152454 356.480594 
L 457.850713 385.575853 
L 460.548972 416.041778 
L 463.247232 436.596122 
L 465.945491 439.112727 
L 468.64375 424.111996 
L 471.342009 400.24471 
L 474.040268 378.392169 
L 476.738528 365.615915 
L 479.436787 362.994568 
L 482.135046 367.133227 
L 484.833305 372.886835 
L 487.531564 375.486861 
L 490.229824 371.635848 
L 492.928083 359.815602 
L 495.626342 340.126606 
L 498.324601 313.884136 
L 501.02286 283.125719 
L 503.721119 250.13954 
L 506.419379 217.08446 
L 509.117638 185.735465 
L 511.815897 157.357227 
L 514.514156 132.686385 
L 517.212415 111.991336 
L 519.910675 95.175709 
L 522.608934 81.895877 
L 525.307193 71.670746 
L 528.005452 63.970973 
L 530.703711 58.282641 
L 533.401971 54.146228 
L 536.10023 51.175132 
L 538.798489 49.059359 
L 541.496748 47.559906 
L 544.195007 46.498361 
L 546.893266 45.74502 
L 549.591526 45.207538 
L 552.289785 44.821177 
L 554.988044 44.541005 
L 557.686303 44.33598 
L 560.384562 44.184637 
L 563.082822 44.072057 
L 565.781081 43.987771 
L 568.47934 43.924349 
L 571.177599 43.876448 
L 573.875858 43.840177 
L 576.574118 43.812669 
L 579.272377 43.791793 
L 581.970636 43.775948 
" style="fill:none;stroke:#eb9b74;stroke-linecap:square;stroke-width:1.5;"/>
   </g>
   <g id="line2d_13">
    <path clip-path="url(#pe6f66b01fd)" d="M 322.937754 43.771906 
L 325.636013 43.783536 
L 328.334272 43.798162 
L 331.032531 43.816572 
L 333.730791 43.839774 
L 336.42905 43.869065 
L 339.127309 43.906132 
L 341.825568 43.953182 
L 344.523827 44.013125 
L 347.222087 44.089829 
L 349.920346 44.188481 
L 352.618605 44.316066 
L 355.316864 44.482041 
L 358.015123 44.699233 
L 360.713382 44.985035 
L 363.411642 45.362961 
L 366.109901 45.864617 
L 368.80816 46.532135 
L 371.506419 47.421053 
L 374.204678 48.603587 
L 376.902938 50.172109 
L 379.601197 52.242522 
L 382.299456 54.957049 
L 384.997715 58.485748 
L 387.695974 63.025887 
L 390.394234 68.798139 
L 393.092493 76.038519 
L 395.790752 84.985025 
L 398.489011 95.858311 
L 401.18727 108.836207 
L 403.885529 124.022844 
L 406.583789 141.414215 
L 409.282048 160.863394 
L 411.980307 182.050007 
L 414.678566 204.459776 
L 417.376825 227.380761 
L 420.075085 249.922933 
L 422.773344 271.066749 
L 425.471603 289.744169 
L 428.169862 304.952109 
L 430.868121 315.893648 
L 433.566381 322.136858 
L 436.26464 323.775304 
L 438.962899 321.569156 
L 441.661158 317.043291 
L 444.359417 312.51798 
L 447.057676 311.030924 
L 449.755936 316.025481 
L 452.454195 330.512876 
L 455.152454 355.412031 
L 457.850713 387.469245 
L 460.548972 418.513642 
L 463.247232 438.108455 
L 465.945491 439.112727 
L 468.64375 422.120003 
L 471.342009 394.8888 
L 474.040268 367.435733 
L 476.738528 347.090905 
L 479.436787 336.639283 
L 482.135046 335.22758 
L 484.833305 340.114758 
L 487.531564 348.018558 
L 490.229824 355.867191 
L 492.928083 361.169745 
L 495.626342 362.179248 
L 498.324601 357.9256 
L 501.02286 348.156239 
L 503.721119 333.214949 
L 506.419379 313.886875 
L 509.117638 291.234081 
L 511.815897 266.440843 
L 514.514156 240.682216 
L 517.212415 215.023708 
L 519.910675 190.354726 
L 522.608934 167.354185 
L 525.307193 146.483642 
L 528.005452 128.001554 
L 530.703711 111.99172 
L 533.401971 98.399292 
L 536.10023 87.068815 
L 538.798489 77.780122 
L 541.496748 70.279321 
L 544.195007 64.303504 
L 546.893266 59.598829 
L 549.591526 55.932436 
L 552.289785 53.099122 
L 554.988044 50.923908 
L 557.686303 49.261666 
L 560.384562 47.994841 
L 563.082822 47.03012 
L 565.781081 46.294697 
L 568.47934 45.73258 
L 571.177599 45.301205 
L 573.875858 44.968498 
L 576.574118 44.710436 
L 579.272377 44.509084 
L 581.970636 44.35106 
L 584.668895 44.226358 
L 587.367154 44.127462 
L 590.065413 44.048694 
L 592.763673 43.985732 
L 595.461932 43.935257 
L 598.160191 43.894702 
L 600.85845 43.862062 
L 603.556709 43.835761 
L 606.254969 43.814553 
L 608.953228 43.797445 
L 611.651487 43.783643 
L 614.349746 43.772511 
" style="fill:none;stroke:#e98768;stroke-linecap:square;stroke-width:1.5;"/>
   </g>
   <g id="line2d_14">
    <path clip-path="url(#pe6f66b01fd)" d="M 263.576052 43.769299 
L 290.558644 43.939038 
L 304.04994 44.210666 
L 312.144717 44.535248 
L 320.239495 45.105947 
L 325.636013 45.721646 
L 331.032531 46.641274 
L 333.730791 47.261057 
L 336.42905 48.02008 
L 339.127309 48.948972 
L 341.825568 50.084122 
L 344.523827 51.468322 
L 347.222087 53.151321 
L 349.920346 55.190233 
L 352.618605 57.649694 
L 355.316864 60.601698 
L 358.015123 64.124987 
L 360.713382 68.303886 
L 363.411642 73.226487 
L 366.109901 78.982054 
L 368.80816 85.657596 
L 371.506419 93.333563 
L 374.204678 102.078673 
L 376.902938 111.943951 
L 379.601197 122.956161 
L 382.299456 135.110871 
L 384.997715 148.365535 
L 387.695974 162.633034 
L 390.394234 177.77627 
L 395.790752 209.871484 
L 401.18727 242.476446 
L 403.885529 258.080364 
L 406.583789 272.678843 
L 409.282048 285.855009 
L 411.980307 297.209249 
L 414.678566 306.38632 
L 417.376825 313.105456 
L 420.075085 317.192153 
L 422.773344 318.609911 
L 425.471603 317.489846 
L 428.169862 314.155754 
L 430.868121 309.141877 
L 436.26464 297.294308 
L 438.962899 292.575496 
L 441.661158 290.343495 
L 444.359417 291.996828 
L 447.057676 298.977968 
L 449.755936 312.65264 
L 452.454195 333.901764 
L 455.152454 362.128269 
L 457.850713 393.865733 
L 460.548972 422.268907 
L 463.247232 439.112727 
L 465.945491 438.98369 
L 468.64375 422.549142 
L 471.342009 395.952754 
L 474.040268 367.020338 
L 476.738528 341.672887 
L 479.436787 322.768934 
L 482.135046 310.860074 
L 484.833305 305.318451 
L 487.531564 305.033071 
L 490.229824 308.70567 
L 492.928083 314.98436 
L 498.324601 330.229219 
L 501.02286 336.974748 
L 503.721119 341.972193 
L 506.419379 344.616617 
L 509.117638 344.518553 
L 511.815897 341.490911 
L 514.514156 335.527226 
L 517.212415 326.773985 
L 519.910675 315.499535 
L 522.608934 302.061815 
L 525.307193 286.876833 
L 528.005452 270.389457 
L 533.401971 235.281195 
L 538.798489 200.005008 
L 541.496748 183.135242 
L 544.195007 167.109558 
L 546.893266 152.104036 
L 549.591526 138.239301 
L 552.289785 125.585419 
L 554.988044 114.168214 
L 557.686303 103.976378 
L 560.384562 94.968837 
L 563.082822 87.081942 
L 565.781081 80.23614 
L 568.47934 74.34192 
L 571.177599 69.30488 
L 573.875858 65.029879 
L 576.574118 61.424265 
L 579.272377 58.400269 
L 581.970636 55.876618 
L 584.668895 53.779515 
L 587.367154 52.043079 
L 590.065413 50.609368 
L 592.763673 49.4281 
L 595.461932 48.456155 
L 598.160191 47.656945 
L 600.85845 46.999718 
L 606.254969 46.013117 
L 611.651487 45.340512 
L 617.048005 44.87736 
L 625.142783 44.430955 
L 635.93582 44.100801 
L 652.125375 43.874779 
L 673.711448 43.769854 
L 673.711448 43.769854 
" style="fill:none;stroke:#e5715e;stroke-linecap:square;stroke-width:1.5;"/>
   </g>
   <g id="line2d_15">
    <path clip-path="url(#pe6f66b01fd)" d="M 217.705646 43.767691 
L 252.783015 43.950395 
L 268.97257 44.225918 
L 279.765607 44.597456 
L 287.860384 45.070005 
L 293.256903 45.536094 
L 298.653421 46.181227 
L 304.04994 47.077952 
L 309.446458 48.326245 
L 312.144717 49.122845 
L 314.842976 50.061159 
L 317.541235 51.164844 
L 320.239495 52.460689 
L 322.937754 53.978776 
L 325.636013 55.752571 
L 328.334272 57.818933 
L 331.032531 60.217999 
L 333.730791 62.992936 
L 336.42905 66.189517 
L 339.127309 69.855498 
L 341.825568 74.039773 
L 344.523827 78.791279 
L 347.222087 84.157636 
L 349.920346 90.183523 
L 352.618605 96.908778 
L 355.316864 104.366262 
L 358.015123 112.579491 
L 360.713382 121.560131 
L 363.411642 131.305386 
L 366.109901 141.795414 
L 368.80816 152.990855 
L 371.506419 164.830632 
L 376.902938 190.08019 
L 390.394234 255.561225 
L 393.092493 267.509676 
L 395.790752 278.549887 
L 398.489011 288.453824 
L 401.18727 297.007809 
L 403.885529 304.023193 
L 406.583789 309.347802 
L 409.282048 312.877795 
L 411.980307 314.569518 
L 414.678566 314.450831 
L 417.376825 312.631338 
L 420.075085 309.310914 
L 422.773344 304.785831 
L 425.471603 299.451785 
L 428.169862 293.802982 
L 430.868121 288.426371 
L 433.566381 283.989861 
L 436.26464 281.223217 
L 438.962899 280.891037 
L 441.661158 283.761149 
L 444.359417 290.58072 
L 447.057676 302.073206 
L 449.755936 318.911898 
L 452.454195 341.466561 
L 455.152454 369.019203 
L 457.850713 398.556283 
L 460.548972 424.249922 
L 463.247232 439.112727 
L 465.945491 438.598574 
L 468.64375 423.398463 
L 471.342009 398.832711 
L 474.040268 371.51761 
L 476.738528 346.352511 
L 479.436787 325.703878 
L 482.135046 310.187846 
L 484.833305 299.638279 
L 487.531564 293.609437 
L 490.229824 291.520643 
L 492.928083 292.692139 
L 495.626342 296.381099 
L 498.324601 301.825884 
L 501.02286 308.286342 
L 506.419379 321.577633 
L 509.117638 327.269841 
L 511.815897 331.722683 
L 514.514156 334.60684 
L 517.212415 335.691169 
L 519.910675 334.838062 
L 522.608934 331.996092 
L 525.307193 327.190586 
L 528.005452 320.512781 
L 530.703711 312.108124 
L 533.401971 302.164287 
L 536.10023 290.899345 
L 538.798489 278.550545 
L 541.496748 265.363991 
L 546.893266 237.452696 
L 554.988044 195.059035 
L 560.384562 168.536804 
L 563.082822 156.184639 
L 565.781081 144.549986 
L 568.47934 133.686294 
L 571.177599 123.625252 
L 573.875858 114.379232 
L 576.574118 105.943946 
L 579.272377 98.30117 
L 581.970636 91.421432 
L 584.668895 85.266578 
L 587.367154 79.792137 
L 590.065413 74.949456 
L 592.763673 70.687555 
L 595.461932 66.954712 
L 598.160191 63.69976 
L 600.85845 60.873123 
L 603.556709 58.427596 
L 606.254969 56.31891 
L 608.953228 54.506094 
L 611.651487 52.951679 
L 614.349746 51.621759 
L 617.048005 50.485944 
L 619.746265 49.51724 
L 622.444524 48.691852 
L 627.841042 47.390484 
L 633.23756 46.44641 
L 638.634079 45.759449 
L 646.728856 45.057709 
L 654.823634 44.611146 
L 665.616671 44.248931 
L 681.806226 43.969304 
L 706.090559 43.80476 
L 719.581854 43.768176 
L 719.581854 43.768176 
" style="fill:none;stroke:#de5d5c;stroke-linecap:square;stroke-width:1.5;"/>
   </g>
   <g id="line2d_16">
    <path clip-path="url(#pe6f66b01fd)" d="M 179.930017 43.768357 
L 220.403905 43.952651 
L 239.291719 44.23372 
L 252.783015 44.651652 
L 260.877793 45.0722 
L 268.97257 45.707746 
L 274.369088 46.307785 
L 279.765607 47.105909 
L 285.162125 48.168688 
L 290.558644 49.582571 
L 293.256903 50.454592 
L 295.955162 51.457787 
L 298.653421 52.610233 
L 301.35168 53.931885 
L 304.04994 55.444617 
L 306.748199 57.172222 
L 309.446458 59.140362 
L 312.144717 61.376464 
L 314.842976 63.909543 
L 317.541235 66.769943 
L 320.239495 69.988994 
L 322.937754 73.598563 
L 325.636013 77.630502 
L 328.334272 82.115981 
L 331.032531 87.084704 
L 333.730791 92.564014 
L 336.42905 98.577884 
L 339.127309 105.145809 
L 341.825568 112.281614 
L 344.523827 119.992206 
L 347.222087 128.276285 
L 349.920346 137.123065 
L 352.618605 146.511038 
L 355.316864 156.406839 
L 360.713382 177.523458 
L 366.109901 199.937084 
L 376.902938 245.40094 
L 379.601197 256.145608 
L 382.299456 266.348714 
L 384.997715 275.857677 
L 387.695974 284.522646 
L 390.394234 292.201196 
L 393.092493 298.763492 
L 395.790752 304.097809 
L 398.489011 308.116307 
L 401.18727 310.760885 
L 403.885529 312.008964 
L 406.583789 311.878995 
L 409.282048 310.435484 
L 411.980307 307.793302 
L 414.678566 304.121051 
L 417.376825 299.64322 
L 425.471603 284.461076 
L 428.169862 280.107939 
L 430.868121 276.864439 
L 433.566381 275.229253 
L 436.26464 275.709362 
L 438.962899 278.798567 
L 441.661158 284.9561 
L 444.359417 294.599802 
L 447.057676 308.131238 
L 449.755936 325.955913 
L 452.454195 348.303516 
L 455.152454 374.540496 
L 457.850713 402.041301 
L 460.548972 425.645276 
L 463.247232 439.112727 
L 465.945491 438.402828 
L 468.64375 424.216228 
L 471.342009 401.388743 
L 474.040268 375.808122 
L 476.738528 351.713259 
L 479.436787 331.070764 
L 482.135046 314.387263 
L 484.833305 301.609566 
L 487.531564 292.538792 
L 490.229824 286.904318 
L 492.928083 284.35264 
L 495.626342 284.453855 
L 498.324601 286.72737 
L 501.02286 290.670486 
L 503.721119 295.782314 
L 509.117638 307.622309 
L 511.815897 313.499218 
L 514.514156 318.858781 
L 517.212415 323.401211 
L 519.910675 326.882894 
L 522.608934 329.116528 
L 525.307193 329.969696 
L 528.005452 329.362096 
L 530.703711 327.261714 
L 533.401971 323.680141 
L 536.10023 318.667287 
L 538.798489 312.305704 
L 541.496748 304.704711 
L 544.195007 295.994527 
L 546.893266 286.320548 
L 549.591526 275.837933 
L 552.289785 264.706595 
L 557.686303 241.134724 
L 568.47934 192.836406 
L 573.875858 170.032795 
L 576.574118 159.278155 
L 579.272377 149.034223 
L 581.970636 139.342963 
L 584.668895 130.233404 
L 587.367154 121.722746 
L 590.065413 113.817594 
L 592.763673 106.515269 
L 595.461932 99.805139 
L 598.160191 93.669952 
L 600.85845 88.087101 
L 603.556709 83.02983 
L 606.254969 78.468339 
L 608.953228 74.370781 
L 611.651487 70.704145 
L 614.349746 67.435017 
L 617.048005 64.530218 
L 619.746265 61.957338 
L 622.444524 59.685149 
L 625.142783 57.683931 
L 627.841042 55.925698 
L 630.539301 54.384354 
L 633.23756 53.035777 
L 635.93582 51.857847 
L 638.634079 50.83043 
L 644.030597 49.156162 
L 649.427116 47.888878 
L 654.823634 46.930453 
L 660.220152 46.204748 
L 668.31493 45.429306 
L 676.409707 44.910552 
L 687.202744 44.468 
L 700.69404 44.147818 
L 722.280114 43.901199 
L 757.357483 43.768766 
L 757.357483 43.768766 
" style="fill:none;stroke:#d34c60;stroke-linecap:square;stroke-width:1.5;"/>
   </g>
   <g id="line2d_17">
    <path clip-path="url(#pe6f66b01fd)" d="M 147.550907 43.770291 
L 190.723054 43.944723 
L 212.309127 44.223216 
L 225.800423 44.573635 
L 236.59346 45.04661 
L 244.688237 45.588502 
L 252.783015 46.378519 
L 258.179533 47.100309 
L 263.576052 48.032732 
L 268.97257 49.236586 
L 274.369088 50.787635 
L 277.067348 51.72165 
L 279.765607 52.778711 
L 282.463866 53.973361 
L 285.162125 55.321378 
L 287.860384 56.839767 
L 290.558644 58.54674 
L 293.256903 60.46165 
L 295.955162 62.604908 
L 298.653421 64.997844 
L 301.35168 67.662537 
L 304.04994 70.621582 
L 306.748199 73.89782 
L 309.446458 77.513997 
L 312.144717 81.492372 
L 314.842976 85.854264 
L 317.541235 90.619539 
L 320.239495 95.806038 
L 322.937754 101.428956 
L 325.636013 107.500173 
L 328.334272 114.027545 
L 331.032531 121.014174 
L 333.730791 128.457669 
L 336.42905 136.349405 
L 339.127309 144.673826 
L 341.825568 153.407781 
L 347.222087 171.97036 
L 352.618605 191.680928 
L 366.109901 242.347539 
L 371.506419 261.257503 
L 374.204678 270.002097 
L 376.902938 278.127579 
L 379.601197 285.528136 
L 382.299456 292.103961 
L 384.997715 297.764289 
L 387.695974 302.430617 
L 390.394234 306.040031 
L 393.092493 308.548573 
L 395.790752 309.934575 
L 398.489011 310.201858 
L 401.18727 309.382723 
L 403.885529 307.540603 
L 406.583789 304.772301 
L 409.282048 301.209672 
L 411.980307 297.020657 
L 417.376825 287.616242 
L 420.075085 282.914697 
L 422.773344 278.609811 
L 425.471603 275.033124 
L 428.169862 272.536684 
L 430.868121 271.4848 
L 433.566381 272.24312 
L 436.26464 275.164483 
L 438.962899 280.572057 
L 441.661158 288.744965 
L 444.359417 299.922138 
L 447.057676 314.344166 
L 449.755936 332.300559 
L 452.454195 353.992218 
L 457.850713 404.694051 
L 460.548972 426.67917 
L 463.247232 439.112727 
L 465.945491 438.283986 
L 468.64375 424.897991 
L 471.342009 403.471578 
L 474.040268 379.407521 
L 476.738528 356.489837 
L 479.436787 336.383101 
L 482.135046 319.46789 
L 484.833305 305.704289 
L 487.531564 294.996011 
L 490.229824 287.224043 
L 492.928083 282.208481 
L 495.626342 279.6978 
L 498.324601 279.383378 
L 501.02286 280.920597 
L 503.721119 283.947625 
L 506.419379 288.100229 
L 509.117638 293.023151 
L 517.212415 309.164847 
L 519.910675 314.059878 
L 522.608934 318.322789 
L 525.307193 321.773261 
L 528.005452 324.267213 
L 530.703711 325.696159 
L 533.401971 325.985854 
L 536.10023 325.094341 
L 538.798489 323.009508 
L 541.496748 319.746264 
L 544.195007 315.343434 
L 546.893266 309.86047 
L 549.591526 303.374086 
L 552.289785 295.974872 
L 554.988044 287.763992 
L 557.686303 278.850017 
L 560.384562 269.345949 
L 565.781081 249.025586 
L 573.875858 216.919015 
L 579.272377 195.588162 
L 584.668895 175.076455 
L 590.065413 155.869833 
L 592.763673 146.866596 
L 595.461932 138.30444 
L 598.160191 130.203736 
L 600.85845 122.577285 
L 603.556709 115.431019 
L 606.254969 108.764751 
L 608.953228 102.572939 
L 611.651487 96.845449 
L 614.349746 91.5683 
L 617.048005 86.724383 
L 619.746265 82.294129 
L 622.444524 78.256134 
L 625.142783 74.58772 
L 627.841042 71.265439 
L 630.539301 68.26552 
L 633.23756 65.564247 
L 635.93582 63.138281 
L 638.634079 60.964924 
L 641.332338 59.022333 
L 644.030597 57.289681 
L 646.728856 55.747276 
L 649.427116 54.376642 
L 652.125375 53.160564 
L 654.823634 52.083105 
L 660.220152 50.286631 
L 665.616671 48.884566 
L 671.013189 47.792549 
L 676.409707 46.942436 
L 681.806226 46.280001 
L 689.901003 45.547661 
L 697.995781 45.03804 
L 708.788818 44.584975 
L 722.280114 44.241044 
L 741.167928 43.98311 
L 773.547038 43.805876 
L 789.736593 43.770629 
L 789.736593 43.770629 
" style="fill:none;stroke:#c14168;stroke-linecap:square;stroke-width:1.5;"/>
   </g>
   <g id="line2d_18">
    <path clip-path="url(#pe6f66b01fd)" d="M 115.171796 43.767273 
L 163.740462 43.938104 
L 188.024794 44.217831 
L 204.21435 44.60772 
L 215.007386 45.047452 
L 223.102164 45.532923 
L 231.196941 46.217146 
L 239.291719 47.186545 
L 244.688237 48.049509 
L 250.084756 49.139106 
L 255.481274 50.512562 
L 260.877793 52.238872 
L 263.576052 53.259407 
L 266.274311 54.399908 
L 268.97257 55.672728 
L 271.670829 57.091072 
L 274.369088 58.668972 
L 277.067348 60.421248 
L 279.765607 62.363447 
L 282.463866 64.511753 
L 285.162125 66.882885 
L 287.860384 69.493952 
L 290.558644 72.362283 
L 293.256903 75.50523 
L 295.955162 78.939928 
L 298.653421 82.683029 
L 301.35168 86.750392 
L 304.04994 91.156748 
L 306.748199 95.915327 
L 309.446458 101.037454 
L 312.144717 106.532126 
L 314.842976 112.405557 
L 317.541235 118.660718 
L 320.239495 125.296863 
L 322.937754 132.309061 
L 325.636013 139.68774 
L 331.032531 155.48047 
L 336.42905 172.490214 
L 341.825568 190.435295 
L 358.015123 245.571769 
L 363.411642 262.512443 
L 366.109901 270.351739 
L 368.80816 277.659683 
L 371.506419 284.355968 
L 374.204678 290.36458 
L 376.902938 295.615736 
L 379.601197 300.047914 
L 382.299456 303.609968 
L 384.997715 306.263258 
L 387.695974 307.983782 
L 390.394234 308.764254 
L 393.092493 308.61607 
L 395.790752 307.571137 
L 398.489011 305.683472 
L 401.18727 303.030549 
L 403.885529 299.714314 
L 406.583789 295.861818 
L 411.980307 287.18231 
L 414.678566 282.733875 
L 417.376825 278.503801 
L 420.075085 274.735857 
L 422.773344 271.690591 
L 425.471603 269.641002 
L 428.169862 268.86691 
L 430.868121 269.647702 
L 433.566381 272.252989 
L 436.26464 276.930805 
L 438.962899 283.894094 
L 441.661158 293.311162 
L 444.359417 305.316621 
L 447.057676 320.064152 
L 449.755936 337.791217 
L 452.454195 358.708673 
L 457.850713 406.780323 
L 460.548972 427.478772 
L 463.247232 439.112727 
L 465.945491 438.204093 
L 468.64375 425.459985 
L 471.342009 405.171021 
L 474.040268 382.393853 
L 476.738528 360.581175 
L 479.436787 341.165977 
L 482.135046 324.414616 
L 484.833305 310.267648 
L 487.531564 298.672064 
L 490.229824 289.58908 
L 492.928083 282.938594 
L 495.626342 278.577293 
L 498.324601 276.30586 
L 501.02286 275.885072 
L 503.721119 277.051039 
L 506.419379 279.527462 
L 509.117638 283.035192 
L 511.815897 287.299732 
L 514.514156 292.057125 
L 522.608934 306.894814 
L 525.307193 311.335583 
L 528.005452 315.235502 
L 530.703711 318.458863 
L 533.401971 320.895163 
L 536.10023 322.458692 
L 538.798489 323.087721 
L 541.496748 322.743324 
L 544.195007 321.407908 
L 546.893266 319.083501 
L 549.591526 315.789852 
L 552.289785 311.562399 
L 554.988044 306.450158 
L 557.686303 300.513572 
L 560.384562 293.822375 
L 563.082822 286.453499 
L 565.781081 278.489067 
L 568.47934 270.014498 
L 573.875858 251.882701 
L 579.272377 232.744514 
L 590.065413 193.950103 
L 595.461932 175.3395 
L 600.85845 157.784183 
L 606.254969 141.552086 
L 608.953228 133.988839 
L 611.651487 126.812915 
L 614.349746 120.03199 
L 617.048005 113.64915 
L 619.746265 107.663374 
L 622.444524 102.070013 
L 625.142783 96.861283 
L 627.841042 92.026729 
L 630.539301 87.553684 
L 633.23756 83.427696 
L 635.93582 79.632933 
L 638.634079 76.152547 
L 641.332338 72.969015 
L 644.030597 70.064431 
L 646.728856 67.420774 
L 649.427116 65.020136 
L 652.125375 62.844912 
L 654.823634 60.877968 
L 657.521893 59.102766 
L 660.220152 57.503467 
L 662.918412 56.065014 
L 665.616671 54.77318 
L 671.013189 52.576815 
L 676.409707 50.818094 
L 681.806226 49.414634 
L 687.202744 48.297164 
L 692.599263 47.408323 
L 697.995781 46.701246 
L 706.090559 45.900743 
L 714.185336 45.328654 
L 724.978373 44.806127 
L 738.469669 44.397114 
L 757.357483 44.078749 
L 784.340075 43.87007 
L 822.115704 43.767616 
L 822.115704 43.767616 
" style="fill:none;stroke:#ae3b6d;stroke-linecap:square;stroke-width:1.5;"/>
   </g>
   <g id="line2d_19">
    <path clip-path="url(#pe6f66b01fd)" d="M 88.189205 43.768614 
L 139.456129 43.936668 
L 166.438721 44.225917 
L 182.628276 44.583264 
L 196.119572 45.094401 
L 206.912609 45.743158 
L 215.007386 46.446685 
L 223.102164 47.418658 
L 228.498682 48.265687 
L 233.895201 49.316543 
L 239.291719 50.618201 
L 244.688237 52.226422 
L 250.084756 54.206477 
L 252.783015 55.359056 
L 255.481274 56.633588 
L 258.179533 58.041028 
L 260.877793 59.592922 
L 263.576052 61.301369 
L 266.274311 63.178967 
L 268.97257 65.23875 
L 271.670829 67.4941 
L 274.369088 69.958649 
L 277.067348 72.646157 
L 279.765607 75.570365 
L 282.463866 78.744835 
L 285.162125 82.182764 
L 287.860384 85.896775 
L 290.558644 89.898686 
L 293.256903 94.199262 
L 295.955162 98.807948 
L 298.653421 103.732575 
L 301.35168 108.979064 
L 304.04994 114.551114 
L 306.748199 120.449878 
L 309.446458 126.673647 
L 312.144717 133.217527 
L 317.541235 147.228303 
L 322.937754 162.368197 
L 328.334272 178.455049 
L 333.730791 195.233404 
L 347.222087 237.866463 
L 352.618605 254.026295 
L 355.316864 261.662616 
L 358.015123 268.914794 
L 360.713382 275.716985 
L 363.411642 282.005045 
L 366.109901 287.717752 
L 368.80816 292.798108 
L 371.506419 297.194712 
L 374.204678 300.863174 
L 376.902938 303.767568 
L 379.601197 305.881887 
L 382.299456 307.191483 
L 384.997715 307.694454 
L 387.695974 307.402969 
L 390.394234 306.344471 
L 393.092493 304.562757 
L 395.790752 302.118878 
L 398.489011 299.091838 
L 401.18727 295.579046 
L 403.885529 291.696502 
L 414.678566 275.421486 
L 417.376825 272.050102 
L 420.075085 269.360173 
L 422.773344 267.570529 
L 425.471603 266.904314 
L 428.169862 267.583975 
L 430.868121 269.824923 
L 433.566381 273.827487 
L 436.26464 279.766883 
L 438.962899 287.782171 
L 441.661158 297.970147 
L 444.359417 310.401303 
L 447.057676 325.1802 
L 449.755936 342.522298 
L 452.454195 362.662391 
L 457.850713 408.467889 
L 460.548972 428.118073 
L 463.247232 439.112727 
L 465.945491 438.146685 
L 468.64375 425.927985 
L 471.342009 406.578239 
L 476.738528 364.077352 
L 479.436787 345.377887 
L 482.135046 328.963919 
L 484.833305 314.745773 
L 487.531564 302.686439 
L 490.229824 292.791486 
L 492.928083 285.041442 
L 495.626342 279.362118 
L 498.324601 275.626696 
L 501.02286 273.668289 
L 503.721119 273.292648 
L 506.419379 274.288542 
L 509.117638 276.435923 
L 511.815897 279.512392 
L 514.514156 283.298347 
L 517.212415 287.581133 
L 528.005452 305.837869 
L 530.703711 309.854443 
L 533.401971 313.380447 
L 536.10023 316.312083 
L 538.798489 318.564051 
L 541.496748 320.069235 
L 544.195007 320.778128 
L 546.893266 320.658038 
L 549.591526 319.692104 
L 552.289785 317.878151 
L 554.988044 315.227431 
L 557.686303 311.763258 
L 560.384562 307.519595 
L 563.082822 302.539592 
L 565.781081 296.874127 
L 568.47934 290.58036 
L 571.177599 283.720327 
L 573.875858 276.359588 
L 576.574118 268.56595 
L 581.970636 251.955436 
L 587.367154 234.433649 
L 600.85845 189.896548 
L 606.254969 172.874104 
L 611.651487 156.774185 
L 617.048005 141.804967 
L 619.746265 134.789539 
L 622.444524 128.102582 
L 625.142783 121.751081 
L 627.841042 115.738564 
L 630.539301 110.065423 
L 633.23756 104.729242 
L 635.93582 99.725133 
L 638.634079 95.046056 
L 641.332338 90.683139 
L 644.030597 86.625979 
L 646.728856 82.862934 
L 649.427116 79.381388 
L 652.125375 76.167999 
L 654.823634 73.20893 
L 657.521893 70.490048 
L 660.220152 67.997109 
L 662.918412 65.715916 
L 665.616671 63.632457 
L 668.31493 61.73302 
L 671.013189 60.004294 
L 673.711448 58.433446 
L 676.409707 57.008179 
L 681.806226 54.548172 
L 687.202744 52.538131 
L 692.599263 50.902208 
L 697.995781 49.574753 
L 703.392299 48.499794 
L 708.788818 47.630246 
L 716.883595 46.627358 
L 724.978373 45.896284 
L 735.77141 45.215884 
L 746.564446 44.761257 
L 762.754001 44.337291 
L 784.340075 44.036387 
L 816.719185 43.841007 
L 849.098295 43.768916 
L 849.098295 43.768916 
" style="fill:none;stroke:#9a3670;stroke-linecap:square;stroke-width:1.5;"/>
   </g>
   <g id="patch_3">
    <path d="M 50.14375 458.88 
L 50.14375 24 
" style="fill:none;stroke:#000000;stroke-linecap:square;stroke-linejoin:miter;stroke-width:0.8;"/>
   </g>
   <g id="patch_4">
    <path d="M 887.14375 458.88 
L 887.14375 24 
" style="fill:none;stroke:#000000;stroke-linecap:square;stroke-linejoin:miter;stroke-width:0.8;"/>
   </g>
   <g id="patch_5">
    <path d="M 50.14375 458.88 
L 887.14375 458.88 
" style="fill:none;stroke:#000000;stroke-linecap:square;stroke-linejoin:miter;stroke-width:0.8;"/>
   </g>
   <g id="patch_6">
    <path d="M 50.14375 24 
L 887.14375 24 
" style="fill:none;stroke:#000000;stroke-linecap:square;stroke-linejoin:miter;stroke-width:0.8;"/>
   </g>
   <g id="text_14">
    <!-- B = 0.05  $\Delta B =$ 0% ,  $\Delta C =$ 0% , Temperature70, $\sigma = $0.1953$cm^{-1}$ -->
    <g transform="translate(272.50375 18)scale(0.12 -0.12)">
     <defs>
      <path d="M 1259 2228 
L 1259 519 
L 2272 519 
Q 2781 519 3026 730 
Q 3272 941 3272 1375 
Q 3272 1813 3026 2020 
Q 2781 2228 2272 2228 
L 1259 2228 
z
M 1259 4147 
L 1259 2741 
L 2194 2741 
Q 2656 2741 2882 2914 
Q 3109 3088 3109 3444 
Q 3109 3797 2882 3972 
Q 2656 4147 2194 4147 
L 1259 4147 
z
M 628 4666 
L 2241 4666 
Q 2963 4666 3353 4366 
Q 3744 4066 3744 3513 
Q 3744 3084 3544 2831 
Q 3344 2578 2956 2516 
Q 3422 2416 3680 2098 
Q 3938 1781 3938 1306 
Q 3938 681 3513 340 
Q 3088 0 2303 0 
L 628 0 
L 628 4666 
z
" id="DejaVuSans-42" transform="scale(0.015625)"/>
      <path d="M 678 2906 
L 4684 2906 
L 4684 2381 
L 678 2381 
L 678 2906 
z
M 678 1631 
L 4684 1631 
L 4684 1100 
L 678 1100 
L 678 1631 
z
" id="DejaVuSans-3d" transform="scale(0.015625)"/>
      <path d="M 2188 4044 
L 906 525 
L 3472 525 
L 2188 4044 
z
M 50 0 
L 1831 4666 
L 2547 4666 
L 4325 0 
L 50 0 
z
" id="DejaVuSans-394" transform="scale(0.015625)"/>
      <path d="M 1081 4666 
L 2694 4666 
Q 3350 4666 3675 4422 
Q 4000 4178 4000 3688 
Q 4000 3238 3720 2911 
Q 3441 2584 2988 2516 
Q 3375 2428 3569 2181 
Q 3763 1934 3763 1522 
Q 3763 819 3242 409 
Q 2722 0 1819 0 
L 172 0 
L 1081 4666 
z
M 1234 2228 
L 903 519 
L 1919 519 
Q 2491 519 2800 781 
Q 3109 1044 3109 1522 
Q 3109 1891 2904 2059 
Q 2700 2228 2247 2228 
L 1234 2228 
z
M 1606 4147 
L 1331 2741 
L 2272 2741 
Q 2775 2741 3058 2959 
Q 3341 3178 3341 3566 
Q 3341 3869 3150 4008 
Q 2959 4147 2541 4147 
L 1606 4147 
z
" id="DejaVuSans-Oblique-42" transform="scale(0.015625)"/>
      <path d="M 4653 2053 
Q 4381 2053 4226 1822 
Q 4072 1591 4072 1178 
Q 4072 772 4226 539 
Q 4381 306 4653 306 
Q 4919 306 5073 539 
Q 5228 772 5228 1178 
Q 5228 1588 5073 1820 
Q 4919 2053 4653 2053 
z
M 4653 2450 
Q 5147 2450 5437 2106 
Q 5728 1763 5728 1178 
Q 5728 594 5436 251 
Q 5144 -91 4653 -91 
Q 4153 -91 3862 251 
Q 3572 594 3572 1178 
Q 3572 1766 3864 2108 
Q 4156 2450 4653 2450 
z
M 1428 4353 
Q 1159 4353 1004 4120 
Q 850 3888 850 3481 
Q 850 3069 1003 2837 
Q 1156 2606 1428 2606 
Q 1700 2606 1854 2837 
Q 2009 3069 2009 3481 
Q 2009 3884 1853 4118 
Q 1697 4353 1428 4353 
z
M 4250 4750 
L 4750 4750 
L 1831 -91 
L 1331 -91 
L 4250 4750 
z
M 1428 4750 
Q 1922 4750 2215 4408 
Q 2509 4066 2509 3481 
Q 2509 2891 2217 2550 
Q 1925 2209 1428 2209 
Q 931 2209 642 2551 
Q 353 2894 353 3481 
Q 353 4063 643 4406 
Q 934 4750 1428 4750 
z
" id="DejaVuSans-25" transform="scale(0.015625)"/>
      <path d="M 750 794 
L 1409 794 
L 1409 256 
L 897 -744 
L 494 -744 
L 750 256 
L 750 794 
z
" id="DejaVuSans-2c" transform="scale(0.015625)"/>
      <path d="M 4447 4306 
L 4319 3641 
Q 4019 3944 3683 4091 
Q 3347 4238 2956 4238 
Q 2422 4238 2017 3981 
Q 1613 3725 1319 3200 
Q 1131 2863 1032 2486 
Q 934 2109 934 1728 
Q 934 1091 1264 756 
Q 1594 422 2222 422 
Q 2656 422 3056 561 
Q 3456 700 3834 978 
L 3688 231 
Q 3316 72 2936 -9 
Q 2556 -91 2175 -91 
Q 1278 -91 773 396 
Q 269 884 269 1753 
Q 269 2309 461 2846 
Q 653 3384 1013 3828 
Q 1394 4300 1883 4525 
Q 2372 4750 3022 4750 
Q 3422 4750 3780 4639 
Q 4138 4528 4447 4306 
z
" id="DejaVuSans-Oblique-43" transform="scale(0.015625)"/>
      <path d="M -19 4666 
L 3928 4666 
L 3928 4134 
L 2272 4134 
L 2272 0 
L 1638 0 
L 1638 4134 
L -19 4134 
L -19 4666 
z
" id="DejaVuSans-54" transform="scale(0.015625)"/>
      <path d="M 1159 525 
L 1159 -1331 
L 581 -1331 
L 581 3500 
L 1159 3500 
L 1159 2969 
Q 1341 3281 1617 3432 
Q 1894 3584 2278 3584 
Q 2916 3584 3314 3078 
Q 3713 2572 3713 1747 
Q 3713 922 3314 415 
Q 2916 -91 2278 -91 
Q 1894 -91 1617 61 
Q 1341 213 1159 525 
z
M 3116 1747 
Q 3116 2381 2855 2742 
Q 2594 3103 2138 3103 
Q 1681 3103 1420 2742 
Q 1159 2381 1159 1747 
Q 1159 1113 1420 752 
Q 1681 391 2138 391 
Q 2594 391 2855 752 
Q 3116 1113 3116 1747 
z
" id="DejaVuSans-70" transform="scale(0.015625)"/>
      <path d="M 525 4666 
L 3525 4666 
L 3525 4397 
L 1831 0 
L 1172 0 
L 2766 4134 
L 525 4134 
L 525 4666 
z
" id="DejaVuSans-37" transform="scale(0.015625)"/>
      <path d="M 2219 3044 
Q 1744 3044 1422 2700 
Q 1081 2341 969 1747 
Q 844 1119 1044 756 
Q 1241 397 1706 397 
Q 2166 397 2503 759 
Q 2844 1122 2966 1747 
Q 3075 2319 2881 2700 
Q 2700 3044 2219 3044 
z
M 2309 3503 
L 4219 3500 
L 4106 2925 
L 3463 2925 
Q 3706 2438 3575 1747 
Q 3406 888 2884 400 
Q 2359 -91 1609 -91 
Q 856 -91 525 400 
Q 194 888 363 1747 
Q 528 2609 1050 3097 
Q 1484 3503 2309 3503 
z
" id="DejaVuSans-Oblique-3c3" transform="scale(0.015625)"/>
      <path d="M 2597 2516 
Q 3050 2419 3304 2112 
Q 3559 1806 3559 1356 
Q 3559 666 3084 287 
Q 2609 -91 1734 -91 
Q 1441 -91 1130 -33 
Q 819 25 488 141 
L 488 750 
Q 750 597 1062 519 
Q 1375 441 1716 441 
Q 2309 441 2620 675 
Q 2931 909 2931 1356 
Q 2931 1769 2642 2001 
Q 2353 2234 1838 2234 
L 1294 2234 
L 1294 2753 
L 1863 2753 
Q 2328 2753 2575 2939 
Q 2822 3125 2822 3475 
Q 2822 3834 2567 4026 
Q 2313 4219 1838 4219 
Q 1578 4219 1281 4162 
Q 984 4106 628 3988 
L 628 4550 
Q 988 4650 1302 4700 
Q 1616 4750 1894 4750 
Q 2613 4750 3031 4423 
Q 3450 4097 3450 3541 
Q 3450 3153 3228 2886 
Q 3006 2619 2597 2516 
z
" id="DejaVuSans-33" transform="scale(0.015625)"/>
     </defs>
     <use transform="translate(0 0.684375)" xlink:href="#DejaVuSans-42"/>
     <use transform="translate(68.603516 0.684375)" xlink:href="#DejaVuSans-20"/>
     <use transform="translate(100.390625 0.684375)" xlink:href="#DejaVuSans-3d"/>
     <use transform="translate(184.179688 0.684375)" xlink:href="#DejaVuSans-20"/>
     <use transform="translate(215.966797 0.684375)" xlink:href="#DejaVuSans-30"/>
     <use transform="translate(279.589844 0.684375)" xlink:href="#DejaVuSans-2e"/>
     <use transform="translate(311.376953 0.684375)" xlink:href="#DejaVuSans-30"/>
     <use transform="translate(375 0.684375)" xlink:href="#DejaVuSans-35"/>
     <use transform="translate(438.623047 0.684375)" xlink:href="#DejaVuSans-20"/>
     <use transform="translate(470.410156 0.684375)" xlink:href="#DejaVuSans-20"/>
     <use transform="translate(502.197266 0.684375)" xlink:href="#DejaVuSans-394"/>
     <use transform="translate(570.605469 0.684375)" xlink:href="#DejaVuSans-Oblique-42"/>
     <use transform="translate(658.691406 0.684375)" xlink:href="#DejaVuSans-3d"/>
     <use transform="translate(761.962891 0.684375)" xlink:href="#DejaVuSans-20"/>
     <use transform="translate(793.75 0.684375)" xlink:href="#DejaVuSans-30"/>
     <use transform="translate(857.373047 0.684375)" xlink:href="#DejaVuSans-25"/>
     <use transform="translate(952.392578 0.684375)" xlink:href="#DejaVuSans-20"/>
     <use transform="translate(984.179688 0.684375)" xlink:href="#DejaVuSans-2c"/>
     <use transform="translate(1015.966797 0.684375)" xlink:href="#DejaVuSans-20"/>
     <use transform="translate(1047.753906 0.684375)" xlink:href="#DejaVuSans-20"/>
     <use transform="translate(1079.541016 0.684375)" xlink:href="#DejaVuSans-394"/>
     <use transform="translate(1147.949219 0.684375)" xlink:href="#DejaVuSans-Oblique-43"/>
     <use transform="translate(1237.255859 0.684375)" xlink:href="#DejaVuSans-3d"/>
     <use transform="translate(1340.527344 0.684375)" xlink:href="#DejaVuSans-20"/>
     <use transform="translate(1372.314453 0.684375)" xlink:href="#DejaVuSans-30"/>
     <use transform="translate(1435.9375 0.684375)" xlink:href="#DejaVuSans-25"/>
     <use transform="translate(1530.957031 0.684375)" xlink:href="#DejaVuSans-20"/>
     <use transform="translate(1562.744141 0.684375)" xlink:href="#DejaVuSans-2c"/>
     <use transform="translate(1594.53125 0.684375)" xlink:href="#DejaVuSans-20"/>
     <use transform="translate(1626.318359 0.684375)" xlink:href="#DejaVuSans-54"/>
     <use transform="translate(1687.402344 0.684375)" xlink:href="#DejaVuSans-65"/>
     <use transform="translate(1748.925781 0.684375)" xlink:href="#DejaVuSans-6d"/>
     <use transform="translate(1846.337891 0.684375)" xlink:href="#DejaVuSans-70"/>
     <use transform="translate(1909.814453 0.684375)" xlink:href="#DejaVuSans-65"/>
     <use transform="translate(1971.337891 0.684375)" xlink:href="#DejaVuSans-72"/>
     <use transform="translate(2012.451172 0.684375)" xlink:href="#DejaVuSans-61"/>
     <use transform="translate(2073.730469 0.684375)" xlink:href="#DejaVuSans-74"/>
     <use transform="translate(2112.939453 0.684375)" xlink:href="#DejaVuSans-75"/>
     <use transform="translate(2176.318359 0.684375)" xlink:href="#DejaVuSans-72"/>
     <use transform="translate(2217.431641 0.684375)" xlink:href="#DejaVuSans-65"/>
     <use transform="translate(2278.955078 0.684375)" xlink:href="#DejaVuSans-37"/>
     <use transform="translate(2342.578125 0.684375)" xlink:href="#DejaVuSans-30"/>
     <use transform="translate(2406.201172 0.684375)" xlink:href="#DejaVuSans-2c"/>
     <use transform="translate(2437.988281 0.684375)" xlink:href="#DejaVuSans-20"/>
     <use transform="translate(2469.775391 0.684375)" xlink:href="#DejaVuSans-Oblique-3c3"/>
     <use transform="translate(2552.636719 0.684375)" xlink:href="#DejaVuSans-3d"/>
     <use transform="translate(2655.908203 0.684375)" xlink:href="#DejaVuSans-30"/>
     <use transform="translate(2719.53125 0.684375)" xlink:href="#DejaVuSans-2e"/>
     <use transform="translate(2751.318359 0.684375)" xlink:href="#DejaVuSans-31"/>
     <use transform="translate(2814.941406 0.684375)" xlink:href="#DejaVuSans-39"/>
     <use transform="translate(2878.564453 0.684375)" xlink:href="#DejaVuSans-35"/>
     <use transform="translate(2942.1875 0.684375)" xlink:href="#DejaVuSans-33"/>
     <use transform="translate(3005.810547 0.684375)" xlink:href="#DejaVuSans-Oblique-63"/>
     <use transform="translate(3060.791016 0.684375)" xlink:href="#DejaVuSans-Oblique-6d"/>
     <use transform="translate(3162.853021 38.965625)scale(0.7)" xlink:href="#DejaVuSans-2212"/>
     <use transform="translate(3221.505365 38.965625)scale(0.7)" xlink:href="#DejaVuSans-31"/>
    </g>
   </g>
   <g id="legend_1">
    <g id="patch_7">
     <path d="M 57.14375 453.88 
L 242.026563 453.88 
Q 244.026563 453.88 244.026563 451.88 
L 244.026563 320.776875 
Q 244.026563 318.776875 242.026563 318.776875 
L 57.14375 318.776875 
Q 55.14375 318.776875 55.14375 320.776875 
L 55.14375 451.88 
Q 55.14375 453.88 57.14375 453.88 
z
" style="fill:#ffffff;opacity:0.8;stroke:#cccccc;stroke-linejoin:miter;"/>
    </g>
    <g id="text_15">
     <!-- Temp,   QR - PQ -->
     <g transform="translate(110.560938 330.375312)scale(0.1 -0.1)">
      <defs>
       <path d="M 2522 4238 
Q 1834 4238 1429 3725 
Q 1025 3213 1025 2328 
Q 1025 1447 1429 934 
Q 1834 422 2522 422 
Q 3209 422 3611 934 
Q 4013 1447 4013 2328 
Q 4013 3213 3611 3725 
Q 3209 4238 2522 4238 
z
M 3406 84 
L 4238 -825 
L 3475 -825 
L 2784 -78 
Q 2681 -84 2626 -87 
Q 2572 -91 2522 -91 
Q 1538 -91 948 567 
Q 359 1225 359 2328 
Q 359 3434 948 4092 
Q 1538 4750 2522 4750 
Q 3503 4750 4090 4092 
Q 4678 3434 4678 2328 
Q 4678 1516 4351 937 
Q 4025 359 3406 84 
z
" id="DejaVuSans-51" transform="scale(0.015625)"/>
       <path d="M 2841 2188 
Q 3044 2119 3236 1894 
Q 3428 1669 3622 1275 
L 4263 0 
L 3584 0 
L 2988 1197 
Q 2756 1666 2539 1819 
Q 2322 1972 1947 1972 
L 1259 1972 
L 1259 0 
L 628 0 
L 628 4666 
L 2053 4666 
Q 2853 4666 3247 4331 
Q 3641 3997 3641 3322 
Q 3641 2881 3436 2590 
Q 3231 2300 2841 2188 
z
M 1259 4147 
L 1259 2491 
L 2053 2491 
Q 2509 2491 2742 2702 
Q 2975 2913 2975 3322 
Q 2975 3731 2742 3939 
Q 2509 4147 2053 4147 
L 1259 4147 
z
" id="DejaVuSans-52" transform="scale(0.015625)"/>
       <path d="M 313 2009 
L 1997 2009 
L 1997 1497 
L 313 1497 
L 313 2009 
z
" id="DejaVuSans-2d" transform="scale(0.015625)"/>
       <path d="M 1259 4147 
L 1259 2394 
L 2053 2394 
Q 2494 2394 2734 2622 
Q 2975 2850 2975 3272 
Q 2975 3691 2734 3919 
Q 2494 4147 2053 4147 
L 1259 4147 
z
M 628 4666 
L 2053 4666 
Q 2838 4666 3239 4311 
Q 3641 3956 3641 3272 
Q 3641 2581 3239 2228 
Q 2838 1875 2053 1875 
L 1259 1875 
L 1259 0 
L 628 0 
L 628 4666 
z
" id="DejaVuSans-50" transform="scale(0.015625)"/>
      </defs>
      <use xlink:href="#DejaVuSans-54"/>
      <use x="44.083984" xlink:href="#DejaVuSans-65"/>
      <use x="105.607422" xlink:href="#DejaVuSans-6d"/>
      <use x="203.019531" xlink:href="#DejaVuSans-70"/>
      <use x="266.496094" xlink:href="#DejaVuSans-2c"/>
      <use x="298.283203" xlink:href="#DejaVuSans-20"/>
      <use x="330.070312" xlink:href="#DejaVuSans-20"/>
      <use x="361.857422" xlink:href="#DejaVuSans-20"/>
      <use x="393.644531" xlink:href="#DejaVuSans-51"/>
      <use x="472.355469" xlink:href="#DejaVuSans-52"/>
      <use x="541.837891" xlink:href="#DejaVuSans-20"/>
      <use x="573.625" xlink:href="#DejaVuSans-2d"/>
      <use x="609.708984" xlink:href="#DejaVuSans-20"/>
      <use x="641.496094" xlink:href="#DejaVuSans-50"/>
      <use x="701.798828" xlink:href="#DejaVuSans-51"/>
     </g>
    </g>
    <g id="line2d_20">
     <path d="M 59.14375 341.553437 
L 79.14375 341.553437 
" style="fill:none;stroke:#eb9b74;stroke-linecap:square;stroke-width:1.5;"/>
    </g>
    <g id="line2d_21"/>
    <g id="text_16">
     <!-- 6 K, 0.08232557115339911 -->
     <g transform="translate(87.14375 345.053437)scale(0.1 -0.1)">
      <defs>
       <path d="M 628 4666 
L 1259 4666 
L 1259 2694 
L 3353 4666 
L 4166 4666 
L 1850 2491 
L 4331 0 
L 3500 0 
L 1259 2247 
L 1259 0 
L 628 0 
L 628 4666 
z
" id="DejaVuSans-4b" transform="scale(0.015625)"/>
      </defs>
      <use xlink:href="#DejaVuSans-36"/>
      <use x="63.623047" xlink:href="#DejaVuSans-20"/>
      <use x="95.410156" xlink:href="#DejaVuSans-4b"/>
      <use x="160.986328" xlink:href="#DejaVuSans-2c"/>
      <use x="192.773438" xlink:href="#DejaVuSans-20"/>
      <use x="224.560547" xlink:href="#DejaVuSans-30"/>
      <use x="288.183594" xlink:href="#DejaVuSans-2e"/>
      <use x="319.970703" xlink:href="#DejaVuSans-30"/>
      <use x="383.59375" xlink:href="#DejaVuSans-38"/>
      <use x="447.216797" xlink:href="#DejaVuSans-32"/>
      <use x="510.839844" xlink:href="#DejaVuSans-33"/>
      <use x="574.462891" xlink:href="#DejaVuSans-32"/>
      <use x="638.085938" xlink:href="#DejaVuSans-35"/>
      <use x="701.708984" xlink:href="#DejaVuSans-35"/>
      <use x="765.332031" xlink:href="#DejaVuSans-37"/>
      <use x="828.955078" xlink:href="#DejaVuSans-31"/>
      <use x="892.578125" xlink:href="#DejaVuSans-31"/>
      <use x="956.201172" xlink:href="#DejaVuSans-35"/>
      <use x="1019.824219" xlink:href="#DejaVuSans-33"/>
      <use x="1083.447266" xlink:href="#DejaVuSans-33"/>
      <use x="1147.070312" xlink:href="#DejaVuSans-39"/>
      <use x="1210.693359" xlink:href="#DejaVuSans-39"/>
      <use x="1274.316406" xlink:href="#DejaVuSans-31"/>
      <use x="1337.939453" xlink:href="#DejaVuSans-31"/>
     </g>
    </g>
    <g id="line2d_22">
     <path d="M 59.14375 356.231562 
L 79.14375 356.231562 
" style="fill:none;stroke:#e98768;stroke-linecap:square;stroke-width:1.5;"/>
    </g>
    <g id="line2d_23"/>
    <g id="text_17">
     <!-- 10 K, 0.04357115048818294 -->
     <g transform="translate(87.14375 359.731562)scale(0.1 -0.1)">
      <use xlink:href="#DejaVuSans-31"/>
      <use x="63.623047" xlink:href="#DejaVuSans-30"/>
      <use x="127.246094" xlink:href="#DejaVuSans-20"/>
      <use x="159.033203" xlink:href="#DejaVuSans-4b"/>
      <use x="224.609375" xlink:href="#DejaVuSans-2c"/>
      <use x="256.396484" xlink:href="#DejaVuSans-20"/>
      <use x="288.183594" xlink:href="#DejaVuSans-30"/>
      <use x="351.806641" xlink:href="#DejaVuSans-2e"/>
      <use x="383.59375" xlink:href="#DejaVuSans-30"/>
      <use x="447.216797" xlink:href="#DejaVuSans-34"/>
      <use x="510.839844" xlink:href="#DejaVuSans-33"/>
      <use x="574.462891" xlink:href="#DejaVuSans-35"/>
      <use x="638.085938" xlink:href="#DejaVuSans-37"/>
      <use x="701.708984" xlink:href="#DejaVuSans-31"/>
      <use x="765.332031" xlink:href="#DejaVuSans-31"/>
      <use x="828.955078" xlink:href="#DejaVuSans-35"/>
      <use x="892.578125" xlink:href="#DejaVuSans-30"/>
      <use x="956.201172" xlink:href="#DejaVuSans-34"/>
      <use x="1019.824219" xlink:href="#DejaVuSans-38"/>
      <use x="1083.447266" xlink:href="#DejaVuSans-38"/>
      <use x="1147.070312" xlink:href="#DejaVuSans-31"/>
      <use x="1210.693359" xlink:href="#DejaVuSans-38"/>
      <use x="1274.316406" xlink:href="#DejaVuSans-32"/>
      <use x="1337.939453" xlink:href="#DejaVuSans-39"/>
      <use x="1401.5625" xlink:href="#DejaVuSans-34"/>
     </g>
    </g>
    <g id="line2d_24">
     <path d="M 59.14375 370.909687 
L 79.14375 370.909687 
" style="fill:none;stroke:#e5715e;stroke-linecap:square;stroke-width:1.5;"/>
    </g>
    <g id="line2d_25"/>
    <g id="text_18">
     <!-- 20 K, 0.04630127947550555 -->
     <g transform="translate(87.14375 374.409687)scale(0.1 -0.1)">
      <use xlink:href="#DejaVuSans-32"/>
      <use x="63.623047" xlink:href="#DejaVuSans-30"/>
      <use x="127.246094" xlink:href="#DejaVuSans-20"/>
      <use x="159.033203" xlink:href="#DejaVuSans-4b"/>
      <use x="224.609375" xlink:href="#DejaVuSans-2c"/>
      <use x="256.396484" xlink:href="#DejaVuSans-20"/>
      <use x="288.183594" xlink:href="#DejaVuSans-30"/>
      <use x="351.806641" xlink:href="#DejaVuSans-2e"/>
      <use x="383.59375" xlink:href="#DejaVuSans-30"/>
      <use x="447.216797" xlink:href="#DejaVuSans-34"/>
      <use x="510.839844" xlink:href="#DejaVuSans-36"/>
      <use x="574.462891" xlink:href="#DejaVuSans-33"/>
      <use x="638.085938" xlink:href="#DejaVuSans-30"/>
      <use x="701.708984" xlink:href="#DejaVuSans-31"/>
      <use x="765.332031" xlink:href="#DejaVuSans-32"/>
      <use x="828.955078" xlink:href="#DejaVuSans-37"/>
      <use x="892.578125" xlink:href="#DejaVuSans-39"/>
      <use x="956.201172" xlink:href="#DejaVuSans-34"/>
      <use x="1019.824219" xlink:href="#DejaVuSans-37"/>
      <use x="1083.447266" xlink:href="#DejaVuSans-35"/>
      <use x="1147.070312" xlink:href="#DejaVuSans-35"/>
      <use x="1210.693359" xlink:href="#DejaVuSans-30"/>
      <use x="1274.316406" xlink:href="#DejaVuSans-35"/>
      <use x="1337.939453" xlink:href="#DejaVuSans-35"/>
      <use x="1401.5625" xlink:href="#DejaVuSans-35"/>
     </g>
    </g>
    <g id="line2d_26">
     <path d="M 59.14375 385.587812 
L 79.14375 385.587812 
" style="fill:none;stroke:#de5d5c;stroke-linecap:square;stroke-width:1.5;"/>
    </g>
    <g id="line2d_27"/>
    <g id="text_19">
     <!-- 30 K, 0.04827073767831869 -->
     <g transform="translate(87.14375 389.087812)scale(0.1 -0.1)">
      <use xlink:href="#DejaVuSans-33"/>
      <use x="63.623047" xlink:href="#DejaVuSans-30"/>
      <use x="127.246094" xlink:href="#DejaVuSans-20"/>
      <use x="159.033203" xlink:href="#DejaVuSans-4b"/>
      <use x="224.609375" xlink:href="#DejaVuSans-2c"/>
      <use x="256.396484" xlink:href="#DejaVuSans-20"/>
      <use x="288.183594" xlink:href="#DejaVuSans-30"/>
      <use x="351.806641" xlink:href="#DejaVuSans-2e"/>
      <use x="383.59375" xlink:href="#DejaVuSans-30"/>
      <use x="447.216797" xlink:href="#DejaVuSans-34"/>
      <use x="510.839844" xlink:href="#DejaVuSans-38"/>
      <use x="574.462891" xlink:href="#DejaVuSans-32"/>
      <use x="638.085938" xlink:href="#DejaVuSans-37"/>
      <use x="701.708984" xlink:href="#DejaVuSans-30"/>
      <use x="765.332031" xlink:href="#DejaVuSans-37"/>
      <use x="828.955078" xlink:href="#DejaVuSans-33"/>
      <use x="892.578125" xlink:href="#DejaVuSans-37"/>
      <use x="956.201172" xlink:href="#DejaVuSans-36"/>
      <use x="1019.824219" xlink:href="#DejaVuSans-37"/>
      <use x="1083.447266" xlink:href="#DejaVuSans-38"/>
      <use x="1147.070312" xlink:href="#DejaVuSans-33"/>
      <use x="1210.693359" xlink:href="#DejaVuSans-31"/>
      <use x="1274.316406" xlink:href="#DejaVuSans-38"/>
      <use x="1337.939453" xlink:href="#DejaVuSans-36"/>
      <use x="1401.5625" xlink:href="#DejaVuSans-39"/>
     </g>
    </g>
    <g id="line2d_28">
     <path d="M 59.14375 400.265937 
L 79.14375 400.265937 
" style="fill:none;stroke:#d34c60;stroke-linecap:square;stroke-width:1.5;"/>
    </g>
    <g id="line2d_29"/>
    <g id="text_20">
     <!-- 40 K, 0.05075739162824067 -->
     <g transform="translate(87.14375 403.765937)scale(0.1 -0.1)">
      <use xlink:href="#DejaVuSans-34"/>
      <use x="63.623047" xlink:href="#DejaVuSans-30"/>
      <use x="127.246094" xlink:href="#DejaVuSans-20"/>
      <use x="159.033203" xlink:href="#DejaVuSans-4b"/>
      <use x="224.609375" xlink:href="#DejaVuSans-2c"/>
      <use x="256.396484" xlink:href="#DejaVuSans-20"/>
      <use x="288.183594" xlink:href="#DejaVuSans-30"/>
      <use x="351.806641" xlink:href="#DejaVuSans-2e"/>
      <use x="383.59375" xlink:href="#DejaVuSans-30"/>
      <use x="447.216797" xlink:href="#DejaVuSans-35"/>
      <use x="510.839844" xlink:href="#DejaVuSans-30"/>
      <use x="574.462891" xlink:href="#DejaVuSans-37"/>
      <use x="638.085938" xlink:href="#DejaVuSans-35"/>
      <use x="701.708984" xlink:href="#DejaVuSans-37"/>
      <use x="765.332031" xlink:href="#DejaVuSans-33"/>
      <use x="828.955078" xlink:href="#DejaVuSans-39"/>
      <use x="892.578125" xlink:href="#DejaVuSans-31"/>
      <use x="956.201172" xlink:href="#DejaVuSans-36"/>
      <use x="1019.824219" xlink:href="#DejaVuSans-32"/>
      <use x="1083.447266" xlink:href="#DejaVuSans-38"/>
      <use x="1147.070312" xlink:href="#DejaVuSans-32"/>
      <use x="1210.693359" xlink:href="#DejaVuSans-34"/>
      <use x="1274.316406" xlink:href="#DejaVuSans-30"/>
      <use x="1337.939453" xlink:href="#DejaVuSans-36"/>
      <use x="1401.5625" xlink:href="#DejaVuSans-37"/>
     </g>
    </g>
    <g id="line2d_30">
     <path d="M 59.14375 414.944062 
L 79.14375 414.944062 
" style="fill:none;stroke:#c14168;stroke-linecap:square;stroke-width:1.5;"/>
    </g>
    <g id="line2d_31"/>
    <g id="text_21">
     <!-- 50 K, 0.053026098557861 -->
     <g transform="translate(87.14375 418.444062)scale(0.1 -0.1)">
      <use xlink:href="#DejaVuSans-35"/>
      <use x="63.623047" xlink:href="#DejaVuSans-30"/>
      <use x="127.246094" xlink:href="#DejaVuSans-20"/>
      <use x="159.033203" xlink:href="#DejaVuSans-4b"/>
      <use x="224.609375" xlink:href="#DejaVuSans-2c"/>
      <use x="256.396484" xlink:href="#DejaVuSans-20"/>
      <use x="288.183594" xlink:href="#DejaVuSans-30"/>
      <use x="351.806641" xlink:href="#DejaVuSans-2e"/>
      <use x="383.59375" xlink:href="#DejaVuSans-30"/>
      <use x="447.216797" xlink:href="#DejaVuSans-35"/>
      <use x="510.839844" xlink:href="#DejaVuSans-33"/>
      <use x="574.462891" xlink:href="#DejaVuSans-30"/>
      <use x="638.085938" xlink:href="#DejaVuSans-32"/>
      <use x="701.708984" xlink:href="#DejaVuSans-36"/>
      <use x="765.332031" xlink:href="#DejaVuSans-30"/>
      <use x="828.955078" xlink:href="#DejaVuSans-39"/>
      <use x="892.578125" xlink:href="#DejaVuSans-38"/>
      <use x="956.201172" xlink:href="#DejaVuSans-35"/>
      <use x="1019.824219" xlink:href="#DejaVuSans-35"/>
      <use x="1083.447266" xlink:href="#DejaVuSans-37"/>
      <use x="1147.070312" xlink:href="#DejaVuSans-38"/>
      <use x="1210.693359" xlink:href="#DejaVuSans-36"/>
      <use x="1274.316406" xlink:href="#DejaVuSans-31"/>
     </g>
    </g>
    <g id="line2d_32">
     <path d="M 59.14375 429.622187 
L 79.14375 429.622187 
" style="fill:none;stroke:#ae3b6d;stroke-linecap:square;stroke-width:1.5;"/>
    </g>
    <g id="line2d_33"/>
    <g id="text_22">
     <!-- 60 K, 0.05433989553192031 -->
     <g transform="translate(87.14375 433.122187)scale(0.1 -0.1)">
      <use xlink:href="#DejaVuSans-36"/>
      <use x="63.623047" xlink:href="#DejaVuSans-30"/>
      <use x="127.246094" xlink:href="#DejaVuSans-20"/>
      <use x="159.033203" xlink:href="#DejaVuSans-4b"/>
      <use x="224.609375" xlink:href="#DejaVuSans-2c"/>
      <use x="256.396484" xlink:href="#DejaVuSans-20"/>
      <use x="288.183594" xlink:href="#DejaVuSans-30"/>
      <use x="351.806641" xlink:href="#DejaVuSans-2e"/>
      <use x="383.59375" xlink:href="#DejaVuSans-30"/>
      <use x="447.216797" xlink:href="#DejaVuSans-35"/>
      <use x="510.839844" xlink:href="#DejaVuSans-34"/>
      <use x="574.462891" xlink:href="#DejaVuSans-33"/>
      <use x="638.085938" xlink:href="#DejaVuSans-33"/>
      <use x="701.708984" xlink:href="#DejaVuSans-39"/>
      <use x="765.332031" xlink:href="#DejaVuSans-38"/>
      <use x="828.955078" xlink:href="#DejaVuSans-39"/>
      <use x="892.578125" xlink:href="#DejaVuSans-35"/>
      <use x="956.201172" xlink:href="#DejaVuSans-35"/>
      <use x="1019.824219" xlink:href="#DejaVuSans-33"/>
      <use x="1083.447266" xlink:href="#DejaVuSans-31"/>
      <use x="1147.070312" xlink:href="#DejaVuSans-39"/>
      <use x="1210.693359" xlink:href="#DejaVuSans-32"/>
      <use x="1274.316406" xlink:href="#DejaVuSans-30"/>
      <use x="1337.939453" xlink:href="#DejaVuSans-33"/>
      <use x="1401.5625" xlink:href="#DejaVuSans-31"/>
     </g>
    </g>
    <g id="line2d_34">
     <path d="M 59.14375 444.300312 
L 79.14375 444.300312 
" style="fill:none;stroke:#9a3670;stroke-linecap:square;stroke-width:1.5;"/>
    </g>
    <g id="line2d_35"/>
    <g id="text_23">
     <!-- 70 K, 0.055910395538999236 -->
     <g transform="translate(87.14375 447.800312)scale(0.1 -0.1)">
      <use xlink:href="#DejaVuSans-37"/>
      <use x="63.623047" xlink:href="#DejaVuSans-30"/>
      <use x="127.246094" xlink:href="#DejaVuSans-20"/>
      <use x="159.033203" xlink:href="#DejaVuSans-4b"/>
      <use x="224.609375" xlink:href="#DejaVuSans-2c"/>
      <use x="256.396484" xlink:href="#DejaVuSans-20"/>
      <use x="288.183594" xlink:href="#DejaVuSans-30"/>
      <use x="351.806641" xlink:href="#DejaVuSans-2e"/>
      <use x="383.59375" xlink:href="#DejaVuSans-30"/>
      <use x="447.216797" xlink:href="#DejaVuSans-35"/>
      <use x="510.839844" xlink:href="#DejaVuSans-35"/>
      <use x="574.462891" xlink:href="#DejaVuSans-39"/>
      <use x="638.085938" xlink:href="#DejaVuSans-31"/>
      <use x="701.708984" xlink:href="#DejaVuSans-30"/>
      <use x="765.332031" xlink:href="#DejaVuSans-33"/>
      <use x="828.955078" xlink:href="#DejaVuSans-39"/>
      <use x="892.578125" xlink:href="#DejaVuSans-35"/>
      <use x="956.201172" xlink:href="#DejaVuSans-35"/>
      <use x="1019.824219" xlink:href="#DejaVuSans-33"/>
      <use x="1083.447266" xlink:href="#DejaVuSans-38"/>
      <use x="1147.070312" xlink:href="#DejaVuSans-39"/>
      <use x="1210.693359" xlink:href="#DejaVuSans-39"/>
      <use x="1274.316406" xlink:href="#DejaVuSans-39"/>
      <use x="1337.939453" xlink:href="#DejaVuSans-32"/>
      <use x="1401.5625" xlink:href="#DejaVuSans-33"/>
      <use x="1465.185547" xlink:href="#DejaVuSans-36"/>
     </g>
    </g>
   </g>
  </g>
 </g>
 <defs>
  <clipPath id="pe6f66b01fd">
   <rect height="434.88" width="837" x="50.14375" y="24"/>
  </clipPath>
 </defs>
</svg>
