<?xml version="1.0" encoding="utf-8" standalone="no"?>
<!DOCTYPE svg PUBLIC "-//W3C//DTD SVG 1.1//EN"
  "http://www.w3.org/Graphics/SVG/1.1/DTD/svg11.dtd">
<svg height="386.034375pt" version="1.1" viewBox="0 0 894.34375 386.034375" width="894.34375pt" xmlns="http://www.w3.org/2000/svg" xmlns:xlink="http://www.w3.org/1999/xlink">
 <metadata>
  <rdf:RDF xmlns:cc="http://creativecommons.org/ns#" xmlns:dc="http://purl.org/dc/elements/1.1/" xmlns:rdf="http://www.w3.org/1999/02/22-rdf-syntax-ns#">
   <cc:Work>
    <dc:type rdf:resource="http://purl.org/dc/dcmitype/StillImage"/>
    <dc:date>2022-11-04T21:45:40.362545</dc:date>
    <dc:format>image/svg+xml</dc:format>
    <dc:creator>
     <cc:Agent>
      <dc:title>Matplotlib v3.4.3, https://matplotlib.org/</dc:title>
     </cc:Agent>
    </dc:creator>
   </cc:Work>
  </rdf:RDF>
 </metadata>
 <defs>
  <style type="text/css">*{stroke-linecap:butt;stroke-linejoin:round;}</style>
 </defs>
 <g id="figure_1">
  <g id="patch_1">
   <path d="M 0 386.034375 
L 894.34375 386.034375 
L 894.34375 0 
L 0 0 
z
" style="fill:#ffffff;"/>
  </g>
  <g id="axes_1">
   <g id="patch_2">
    <path d="M 50.14375 348.478125 
L 887.14375 348.478125 
L 887.14375 22.318125 
L 50.14375 22.318125 
z
" style="fill:#ffffff;"/>
   </g>
   <g id="PathCollection_1">
    <defs>
     <path d="M 0 -3 
L -0.673542 -0.927051 
L -2.85317 -0.927051 
L -1.089814 0.354102 
L -1.763356 2.427051 
L -0 1.145898 
L 1.763356 2.427051 
L 1.089814 0.354102 
L 2.85317 -0.927051 
L 0.673542 -0.927051 
z
" id="m9462063054" style="stroke:#eb9973;"/>
    </defs>
    <g clip-path="url(#p71adec2840)">
     <use style="fill:#eb9973;stroke:#eb9973;" x="437.312199" xlink:href="#m9462063054" y="211.271045"/>
     <use style="fill:#eb9973;stroke:#eb9973;" x="466.405782" xlink:href="#m9462063054" y="333.65267"/>
     <use style="fill:#eb9973;stroke:#eb9973;" x="495.499365" xlink:href="#m9462063054" y="236.962252"/>
    </g>
   </g>
   <g id="PathCollection_2">
    <defs>
     <path d="M 0 -3 
L -0.673542 -0.927051 
L -2.85317 -0.927051 
L -1.089814 0.354102 
L -1.763356 2.427051 
L -0 1.145898 
L 1.763356 2.427051 
L 1.089814 0.354102 
L 2.85317 -0.927051 
L 0.673542 -0.927051 
z
" id="mf513be7b5a" style="stroke:#e88366;"/>
    </defs>
    <g clip-path="url(#p71adec2840)">
     <use style="fill:#e88366;stroke:#e88366;" x="423.884392" xlink:href="#mf513be7b5a" y="203.455103"/>
     <use style="fill:#e88366;stroke:#e88366;" x="466.405782" xlink:href="#mf513be7b5a" y="333.65267"/>
     <use style="fill:#e88366;stroke:#e88366;" x="506.689205" xlink:href="#mf513be7b5a" y="220.041278"/>
    </g>
   </g>
   <g id="PathCollection_3">
    <defs>
     <path d="M 0 -3 
L -0.673542 -0.927051 
L -2.85317 -0.927051 
L -1.089814 0.354102 
L -1.763356 2.427051 
L -0 1.145898 
L 1.763356 2.427051 
L 1.089814 0.354102 
L 2.85317 -0.927051 
L 0.673542 -0.927051 
z
" id="m586e06d8eb" style="stroke:#e46c5d;"/>
    </defs>
    <g clip-path="url(#p71adec2840)">
     <use style="fill:#e46c5d;stroke:#e46c5d;" x="414.93252" xlink:href="#m586e06d8eb" y="199.009132"/>
     <use style="fill:#e46c5d;stroke:#e46c5d;" x="464.167814" xlink:href="#m586e06d8eb" y="333.65267"/>
     <use style="fill:#e46c5d;stroke:#e46c5d;" x="517.879044" xlink:href="#m586e06d8eb" y="212.035223"/>
    </g>
   </g>
   <g id="PathCollection_4">
    <defs>
     <path d="M 0 -3 
L -0.673542 -0.927051 
L -2.85317 -0.927051 
L -1.089814 0.354102 
L -1.763356 2.427051 
L -0 1.145898 
L 1.763356 2.427051 
L 1.089814 0.354102 
L 2.85317 -0.927051 
L 0.673542 -0.927051 
z
" id="mc5d9ac2a5a" style="stroke:#db565d;"/>
    </defs>
    <g clip-path="url(#p71adec2840)">
     <use style="fill:#db565d;stroke:#db565d;" x="405.980648" xlink:href="#mc5d9ac2a5a" y="196.087111"/>
     <use style="fill:#db565d;stroke:#db565d;" x="464.167814" xlink:href="#mc5d9ac2a5a" y="333.65267"/>
     <use style="fill:#db565d;stroke:#db565d;" x="524.592948" xlink:href="#mc5d9ac2a5a" y="207.178088"/>
    </g>
   </g>
   <g id="PathCollection_5">
    <defs>
     <path d="M 0 -3 
L -0.673542 -0.927051 
L -2.85317 -0.927051 
L -1.089814 0.354102 
L -1.763356 2.427051 
L -0 1.145898 
L 1.763356 2.427051 
L 1.089814 0.354102 
L 2.85317 -0.927051 
L 0.673542 -0.927051 
z
" id="m1e7c2bf9f8" style="stroke:#cc4664;"/>
    </defs>
    <g clip-path="url(#p71adec2840)">
     <use style="fill:#cc4664;stroke:#cc4664;" x="399.266745" xlink:href="#m1e7c2bf9f8" y="194.112257"/>
     <use style="fill:#cc4664;stroke:#cc4664;" x="464.167814" xlink:href="#m1e7c2bf9f8" y="333.65267"/>
     <use style="fill:#cc4664;stroke:#cc4664;" x="531.306852" xlink:href="#m1e7c2bf9f8" y="203.816134"/>
    </g>
   </g>
   <g id="PathCollection_6">
    <defs>
     <path d="M 0 -3 
L -0.673542 -0.927051 
L -2.85317 -0.927051 
L -1.089814 0.354102 
L -1.763356 2.427051 
L -0 1.145898 
L 1.763356 2.427051 
L 1.089814 0.354102 
L 2.85317 -0.927051 
L 0.673542 -0.927051 
z
" id="m1ecbfe0fbc" style="stroke:#b73d6b;"/>
    </defs>
    <g clip-path="url(#p71adec2840)">
     <use style="fill:#b73d6b;stroke:#b73d6b;" x="392.552841" xlink:href="#m1ecbfe0fbc" y="192.606304"/>
     <use style="fill:#b73d6b;stroke:#b73d6b;" x="464.167814" xlink:href="#m1ecbfe0fbc" y="333.65267"/>
     <use style="fill:#b73d6b;stroke:#b73d6b;" x="538.020755" xlink:href="#m1ecbfe0fbc" y="201.391819"/>
    </g>
   </g>
   <g id="PathCollection_7">
    <defs>
     <path d="M 0 -3 
L -0.673542 -0.927051 
L -2.85317 -0.927051 
L -1.089814 0.354102 
L -1.763356 2.427051 
L -0 1.145898 
L 1.763356 2.427051 
L 1.089814 0.354102 
L 2.85317 -0.927051 
L 0.673542 -0.927051 
z
" id="m7d95d6ee21" style="stroke:#a1386f;"/>
    </defs>
    <g clip-path="url(#p71adec2840)">
     <use style="fill:#a1386f;stroke:#a1386f;" x="388.076905" xlink:href="#m7d95d6ee21" y="191.49146"/>
     <use style="fill:#a1386f;stroke:#a1386f;" x="464.167814" xlink:href="#m7d95d6ee21" y="333.65267"/>
     <use style="fill:#a1386f;stroke:#a1386f;" x="544.734659" xlink:href="#m7d95d6ee21" y="199.491752"/>
    </g>
   </g>
   <g id="PathCollection_8">
    <defs>
     <path d="M 0 -3 
L -0.673542 -0.927051 
L -2.85317 -0.927051 
L -1.089814 0.354102 
L -1.763356 2.427051 
L -0 1.145898 
L 1.763356 2.427051 
L 1.089814 0.354102 
L 2.85317 -0.927051 
L 0.673542 -0.927051 
z
" id="m67abee12e2" style="stroke:#8b3271;"/>
    </defs>
    <g clip-path="url(#p71adec2840)">
     <use style="fill:#8b3271;stroke:#8b3271;" x="381.363001" xlink:href="#m67abee12e2" y="190.557766"/>
     <use style="fill:#8b3271;stroke:#8b3271;" x="464.167814" xlink:href="#m67abee12e2" y="333.65267"/>
     <use style="fill:#8b3271;stroke:#8b3271;" x="549.210595" xlink:href="#m67abee12e2" y="198.019203"/>
    </g>
   </g>
   <g id="PathCollection_9">
    <defs>
     <path d="M 0 -3 
L -0.673542 -0.927051 
L -2.85317 -0.927051 
L -1.089814 0.354102 
L -1.763356 2.427051 
L -0 1.145898 
L 1.763356 2.427051 
L 1.089814 0.354102 
L 2.85317 -0.927051 
L 0.673542 -0.927051 
z
" id="m2c1f62018d" style="stroke:#752d6f;"/>
    </defs>
    <g clip-path="url(#p71adec2840)">
     <use style="fill:#752d6f;stroke:#752d6f;" x="376.887066" xlink:href="#m2c1f62018d" y="189.83363"/>
     <use style="fill:#752d6f;stroke:#752d6f;" x="464.167814" xlink:href="#m2c1f62018d" y="333.65267"/>
     <use style="fill:#752d6f;stroke:#752d6f;" x="553.686531" xlink:href="#m2c1f62018d" y="196.774681"/>
    </g>
   </g>
   <g id="PathCollection_10">
    <defs>
     <path d="M 0 -3 
L -0.673542 -0.927051 
L -2.85317 -0.927051 
L -1.089814 0.354102 
L -1.763356 2.427051 
L -0 1.145898 
L 1.763356 2.427051 
L 1.089814 0.354102 
L 2.85317 -0.927051 
L 0.673542 -0.927051 
z
" id="m5bee523a3d" style="stroke:#602969;"/>
    </defs>
    <g clip-path="url(#p71adec2840)">
     <use style="fill:#602969;stroke:#602969;" x="372.41113" xlink:href="#m5bee523a3d" y="189.208285"/>
     <use style="fill:#602969;stroke:#602969;" x="464.167814" xlink:href="#m5bee523a3d" y="333.65267"/>
     <use style="fill:#602969;stroke:#602969;" x="560.400434" xlink:href="#m5bee523a3d" y="195.734301"/>
    </g>
   </g>
   <g id="matplotlib.axis_1">
    <g id="xtick_1">
     <g id="line2d_1">
      <defs>
       <path d="M 0 0 
L 0 3.5 
" id="mc78f695e41" style="stroke:#000000;stroke-width:0.8;"/>
      </defs>
      <g>
       <use style="stroke:#000000;stroke-width:0.8;" x="53.381325" xlink:href="#mc78f695e41" y="348.478125"/>
      </g>
     </g>
     <g id="text_1">
      <!-- −15 -->
      <g transform="translate(42.828981 363.076562)scale(0.1 -0.1)">
       <defs>
        <path d="M 678 2272 
L 4684 2272 
L 4684 1741 
L 678 1741 
L 678 2272 
z
" id="DejaVuSans-2212" transform="scale(0.015625)"/>
        <path d="M 794 531 
L 1825 531 
L 1825 4091 
L 703 3866 
L 703 4441 
L 1819 4666 
L 2450 4666 
L 2450 531 
L 3481 531 
L 3481 0 
L 794 0 
L 794 531 
z
" id="DejaVuSans-31" transform="scale(0.015625)"/>
        <path d="M 691 4666 
L 3169 4666 
L 3169 4134 
L 1269 4134 
L 1269 2991 
Q 1406 3038 1543 3061 
Q 1681 3084 1819 3084 
Q 2600 3084 3056 2656 
Q 3513 2228 3513 1497 
Q 3513 744 3044 326 
Q 2575 -91 1722 -91 
Q 1428 -91 1123 -41 
Q 819 9 494 109 
L 494 744 
Q 775 591 1075 516 
Q 1375 441 1709 441 
Q 2250 441 2565 725 
Q 2881 1009 2881 1497 
Q 2881 1984 2565 2268 
Q 2250 2553 1709 2553 
Q 1456 2553 1204 2497 
Q 953 2441 691 2322 
L 691 4666 
z
" id="DejaVuSans-35" transform="scale(0.015625)"/>
       </defs>
       <use xlink:href="#DejaVuSans-2212"/>
       <use x="83.789062" xlink:href="#DejaVuSans-31"/>
       <use x="147.412109" xlink:href="#DejaVuSans-35"/>
      </g>
     </g>
    </g>
    <g id="xtick_2">
     <g id="line2d_2">
      <g>
       <use style="stroke:#000000;stroke-width:0.8;" x="190.597389" xlink:href="#mc78f695e41" y="348.478125"/>
      </g>
     </g>
     <g id="text_2">
      <!-- −10 -->
      <g transform="translate(180.045045 363.076562)scale(0.1 -0.1)">
       <defs>
        <path d="M 2034 4250 
Q 1547 4250 1301 3770 
Q 1056 3291 1056 2328 
Q 1056 1369 1301 889 
Q 1547 409 2034 409 
Q 2525 409 2770 889 
Q 3016 1369 3016 2328 
Q 3016 3291 2770 3770 
Q 2525 4250 2034 4250 
z
M 2034 4750 
Q 2819 4750 3233 4129 
Q 3647 3509 3647 2328 
Q 3647 1150 3233 529 
Q 2819 -91 2034 -91 
Q 1250 -91 836 529 
Q 422 1150 422 2328 
Q 422 3509 836 4129 
Q 1250 4750 2034 4750 
z
" id="DejaVuSans-30" transform="scale(0.015625)"/>
       </defs>
       <use xlink:href="#DejaVuSans-2212"/>
       <use x="83.789062" xlink:href="#DejaVuSans-31"/>
       <use x="147.412109" xlink:href="#DejaVuSans-30"/>
      </g>
     </g>
    </g>
    <g id="xtick_3">
     <g id="line2d_3">
      <g>
       <use style="stroke:#000000;stroke-width:0.8;" x="327.813454" xlink:href="#mc78f695e41" y="348.478125"/>
      </g>
     </g>
     <g id="text_3">
      <!-- −5 -->
      <g transform="translate(320.44236 363.076562)scale(0.1 -0.1)">
       <use xlink:href="#DejaVuSans-2212"/>
       <use x="83.789062" xlink:href="#DejaVuSans-35"/>
      </g>
     </g>
    </g>
    <g id="xtick_4">
     <g id="line2d_4">
      <g>
       <use style="stroke:#000000;stroke-width:0.8;" x="465.029518" xlink:href="#mc78f695e41" y="348.478125"/>
      </g>
     </g>
     <g id="text_4">
      <!-- 0 -->
      <g transform="translate(461.848268 363.076562)scale(0.1 -0.1)">
       <use xlink:href="#DejaVuSans-30"/>
      </g>
     </g>
    </g>
    <g id="xtick_5">
     <g id="line2d_5">
      <g>
       <use style="stroke:#000000;stroke-width:0.8;" x="602.245582" xlink:href="#mc78f695e41" y="348.478125"/>
      </g>
     </g>
     <g id="text_5">
      <!-- 5 -->
      <g transform="translate(599.064332 363.076562)scale(0.1 -0.1)">
       <use xlink:href="#DejaVuSans-35"/>
      </g>
     </g>
    </g>
    <g id="xtick_6">
     <g id="line2d_6">
      <g>
       <use style="stroke:#000000;stroke-width:0.8;" x="739.461647" xlink:href="#mc78f695e41" y="348.478125"/>
      </g>
     </g>
     <g id="text_6">
      <!-- 10 -->
      <g transform="translate(733.099147 363.076562)scale(0.1 -0.1)">
       <use xlink:href="#DejaVuSans-31"/>
       <use x="63.623047" xlink:href="#DejaVuSans-30"/>
      </g>
     </g>
    </g>
    <g id="xtick_7">
     <g id="line2d_7">
      <g>
       <use style="stroke:#000000;stroke-width:0.8;" x="876.677711" xlink:href="#mc78f695e41" y="348.478125"/>
      </g>
     </g>
     <g id="text_7">
      <!-- 15 -->
      <g transform="translate(870.315211 363.076562)scale(0.1 -0.1)">
       <use xlink:href="#DejaVuSans-31"/>
       <use x="63.623047" xlink:href="#DejaVuSans-35"/>
      </g>
     </g>
    </g>
    <g id="text_8">
     <!-- Wavelength -->
     <g transform="translate(438.98125 376.754687)scale(0.1 -0.1)">
      <defs>
       <path d="M 213 4666 
L 850 4666 
L 1831 722 
L 2809 4666 
L 3519 4666 
L 4500 722 
L 5478 4666 
L 6119 4666 
L 4947 0 
L 4153 0 
L 3169 4050 
L 2175 0 
L 1381 0 
L 213 4666 
z
" id="DejaVuSans-57" transform="scale(0.015625)"/>
       <path d="M 2194 1759 
Q 1497 1759 1228 1600 
Q 959 1441 959 1056 
Q 959 750 1161 570 
Q 1363 391 1709 391 
Q 2188 391 2477 730 
Q 2766 1069 2766 1631 
L 2766 1759 
L 2194 1759 
z
M 3341 1997 
L 3341 0 
L 2766 0 
L 2766 531 
Q 2569 213 2275 61 
Q 1981 -91 1556 -91 
Q 1019 -91 701 211 
Q 384 513 384 1019 
Q 384 1609 779 1909 
Q 1175 2209 1959 2209 
L 2766 2209 
L 2766 2266 
Q 2766 2663 2505 2880 
Q 2244 3097 1772 3097 
Q 1472 3097 1187 3025 
Q 903 2953 641 2809 
L 641 3341 
Q 956 3463 1253 3523 
Q 1550 3584 1831 3584 
Q 2591 3584 2966 3190 
Q 3341 2797 3341 1997 
z
" id="DejaVuSans-61" transform="scale(0.015625)"/>
       <path d="M 191 3500 
L 800 3500 
L 1894 563 
L 2988 3500 
L 3597 3500 
L 2284 0 
L 1503 0 
L 191 3500 
z
" id="DejaVuSans-76" transform="scale(0.015625)"/>
       <path d="M 3597 1894 
L 3597 1613 
L 953 1613 
Q 991 1019 1311 708 
Q 1631 397 2203 397 
Q 2534 397 2845 478 
Q 3156 559 3463 722 
L 3463 178 
Q 3153 47 2828 -22 
Q 2503 -91 2169 -91 
Q 1331 -91 842 396 
Q 353 884 353 1716 
Q 353 2575 817 3079 
Q 1281 3584 2069 3584 
Q 2775 3584 3186 3129 
Q 3597 2675 3597 1894 
z
M 3022 2063 
Q 3016 2534 2758 2815 
Q 2500 3097 2075 3097 
Q 1594 3097 1305 2825 
Q 1016 2553 972 2059 
L 3022 2063 
z
" id="DejaVuSans-65" transform="scale(0.015625)"/>
       <path d="M 603 4863 
L 1178 4863 
L 1178 0 
L 603 0 
L 603 4863 
z
" id="DejaVuSans-6c" transform="scale(0.015625)"/>
       <path d="M 3513 2113 
L 3513 0 
L 2938 0 
L 2938 2094 
Q 2938 2591 2744 2837 
Q 2550 3084 2163 3084 
Q 1697 3084 1428 2787 
Q 1159 2491 1159 1978 
L 1159 0 
L 581 0 
L 581 3500 
L 1159 3500 
L 1159 2956 
Q 1366 3272 1645 3428 
Q 1925 3584 2291 3584 
Q 2894 3584 3203 3211 
Q 3513 2838 3513 2113 
z
" id="DejaVuSans-6e" transform="scale(0.015625)"/>
       <path d="M 2906 1791 
Q 2906 2416 2648 2759 
Q 2391 3103 1925 3103 
Q 1463 3103 1205 2759 
Q 947 2416 947 1791 
Q 947 1169 1205 825 
Q 1463 481 1925 481 
Q 2391 481 2648 825 
Q 2906 1169 2906 1791 
z
M 3481 434 
Q 3481 -459 3084 -895 
Q 2688 -1331 1869 -1331 
Q 1566 -1331 1297 -1286 
Q 1028 -1241 775 -1147 
L 775 -588 
Q 1028 -725 1275 -790 
Q 1522 -856 1778 -856 
Q 2344 -856 2625 -561 
Q 2906 -266 2906 331 
L 2906 616 
Q 2728 306 2450 153 
Q 2172 0 1784 0 
Q 1141 0 747 490 
Q 353 981 353 1791 
Q 353 2603 747 3093 
Q 1141 3584 1784 3584 
Q 2172 3584 2450 3431 
Q 2728 3278 2906 2969 
L 2906 3500 
L 3481 3500 
L 3481 434 
z
" id="DejaVuSans-67" transform="scale(0.015625)"/>
       <path d="M 1172 4494 
L 1172 3500 
L 2356 3500 
L 2356 3053 
L 1172 3053 
L 1172 1153 
Q 1172 725 1289 603 
Q 1406 481 1766 481 
L 2356 481 
L 2356 0 
L 1766 0 
Q 1100 0 847 248 
Q 594 497 594 1153 
L 594 3053 
L 172 3053 
L 172 3500 
L 594 3500 
L 594 4494 
L 1172 4494 
z
" id="DejaVuSans-74" transform="scale(0.015625)"/>
       <path d="M 3513 2113 
L 3513 0 
L 2938 0 
L 2938 2094 
Q 2938 2591 2744 2837 
Q 2550 3084 2163 3084 
Q 1697 3084 1428 2787 
Q 1159 2491 1159 1978 
L 1159 0 
L 581 0 
L 581 4863 
L 1159 4863 
L 1159 2956 
Q 1366 3272 1645 3428 
Q 1925 3584 2291 3584 
Q 2894 3584 3203 3211 
Q 3513 2838 3513 2113 
z
" id="DejaVuSans-68" transform="scale(0.015625)"/>
      </defs>
      <use xlink:href="#DejaVuSans-57"/>
      <use x="92.501953" xlink:href="#DejaVuSans-61"/>
      <use x="153.78125" xlink:href="#DejaVuSans-76"/>
      <use x="212.960938" xlink:href="#DejaVuSans-65"/>
      <use x="274.484375" xlink:href="#DejaVuSans-6c"/>
      <use x="302.267578" xlink:href="#DejaVuSans-65"/>
      <use x="363.791016" xlink:href="#DejaVuSans-6e"/>
      <use x="427.169922" xlink:href="#DejaVuSans-67"/>
      <use x="490.646484" xlink:href="#DejaVuSans-74"/>
      <use x="529.855469" xlink:href="#DejaVuSans-68"/>
     </g>
    </g>
   </g>
   <g id="matplotlib.axis_2">
    <g id="ytick_1">
     <g id="line2d_8">
      <defs>
       <path d="M 0 0 
L -3.5 0 
" id="m33c4207eaf" style="stroke:#000000;stroke-width:0.8;"/>
      </defs>
      <g>
       <use style="stroke:#000000;stroke-width:0.8;" x="50.14375" xlink:href="#m33c4207eaf" y="333.65267"/>
      </g>
     </g>
     <g id="text_9">
      <!-- 0.90 -->
      <g transform="translate(20.878125 337.451889)scale(0.1 -0.1)">
       <defs>
        <path d="M 684 794 
L 1344 794 
L 1344 0 
L 684 0 
L 684 794 
z
" id="DejaVuSans-2e" transform="scale(0.015625)"/>
        <path d="M 703 97 
L 703 672 
Q 941 559 1184 500 
Q 1428 441 1663 441 
Q 2288 441 2617 861 
Q 2947 1281 2994 2138 
Q 2813 1869 2534 1725 
Q 2256 1581 1919 1581 
Q 1219 1581 811 2004 
Q 403 2428 403 3163 
Q 403 3881 828 4315 
Q 1253 4750 1959 4750 
Q 2769 4750 3195 4129 
Q 3622 3509 3622 2328 
Q 3622 1225 3098 567 
Q 2575 -91 1691 -91 
Q 1453 -91 1209 -44 
Q 966 3 703 97 
z
M 1959 2075 
Q 2384 2075 2632 2365 
Q 2881 2656 2881 3163 
Q 2881 3666 2632 3958 
Q 2384 4250 1959 4250 
Q 1534 4250 1286 3958 
Q 1038 3666 1038 3163 
Q 1038 2656 1286 2365 
Q 1534 2075 1959 2075 
z
" id="DejaVuSans-39" transform="scale(0.015625)"/>
       </defs>
       <use xlink:href="#DejaVuSans-30"/>
       <use x="63.623047" xlink:href="#DejaVuSans-2e"/>
       <use x="95.410156" xlink:href="#DejaVuSans-39"/>
       <use x="159.033203" xlink:href="#DejaVuSans-30"/>
      </g>
     </g>
    </g>
    <g id="ytick_2">
     <g id="line2d_9">
      <g>
       <use style="stroke:#000000;stroke-width:0.8;" x="50.14375" xlink:href="#m33c4207eaf" y="274.344913"/>
      </g>
     </g>
     <g id="text_10">
      <!-- 0.92 -->
      <g transform="translate(20.878125 278.144131)scale(0.1 -0.1)">
       <defs>
        <path d="M 1228 531 
L 3431 531 
L 3431 0 
L 469 0 
L 469 531 
Q 828 903 1448 1529 
Q 2069 2156 2228 2338 
Q 2531 2678 2651 2914 
Q 2772 3150 2772 3378 
Q 2772 3750 2511 3984 
Q 2250 4219 1831 4219 
Q 1534 4219 1204 4116 
Q 875 4013 500 3803 
L 500 4441 
Q 881 4594 1212 4672 
Q 1544 4750 1819 4750 
Q 2544 4750 2975 4387 
Q 3406 4025 3406 3419 
Q 3406 3131 3298 2873 
Q 3191 2616 2906 2266 
Q 2828 2175 2409 1742 
Q 1991 1309 1228 531 
z
" id="DejaVuSans-32" transform="scale(0.015625)"/>
       </defs>
       <use xlink:href="#DejaVuSans-30"/>
       <use x="63.623047" xlink:href="#DejaVuSans-2e"/>
       <use x="95.410156" xlink:href="#DejaVuSans-39"/>
       <use x="159.033203" xlink:href="#DejaVuSans-32"/>
      </g>
     </g>
    </g>
    <g id="ytick_3">
     <g id="line2d_10">
      <g>
       <use style="stroke:#000000;stroke-width:0.8;" x="50.14375" xlink:href="#m33c4207eaf" y="215.037155"/>
      </g>
     </g>
     <g id="text_11">
      <!-- 0.94 -->
      <g transform="translate(20.878125 218.836373)scale(0.1 -0.1)">
       <defs>
        <path d="M 2419 4116 
L 825 1625 
L 2419 1625 
L 2419 4116 
z
M 2253 4666 
L 3047 4666 
L 3047 1625 
L 3713 1625 
L 3713 1100 
L 3047 1100 
L 3047 0 
L 2419 0 
L 2419 1100 
L 313 1100 
L 313 1709 
L 2253 4666 
z
" id="DejaVuSans-34" transform="scale(0.015625)"/>
       </defs>
       <use xlink:href="#DejaVuSans-30"/>
       <use x="63.623047" xlink:href="#DejaVuSans-2e"/>
       <use x="95.410156" xlink:href="#DejaVuSans-39"/>
       <use x="159.033203" xlink:href="#DejaVuSans-34"/>
      </g>
     </g>
    </g>
    <g id="ytick_4">
     <g id="line2d_11">
      <g>
       <use style="stroke:#000000;stroke-width:0.8;" x="50.14375" xlink:href="#m33c4207eaf" y="155.729397"/>
      </g>
     </g>
     <g id="text_12">
      <!-- 0.96 -->
      <g transform="translate(20.878125 159.528616)scale(0.1 -0.1)">
       <defs>
        <path d="M 2113 2584 
Q 1688 2584 1439 2293 
Q 1191 2003 1191 1497 
Q 1191 994 1439 701 
Q 1688 409 2113 409 
Q 2538 409 2786 701 
Q 3034 994 3034 1497 
Q 3034 2003 2786 2293 
Q 2538 2584 2113 2584 
z
M 3366 4563 
L 3366 3988 
Q 3128 4100 2886 4159 
Q 2644 4219 2406 4219 
Q 1781 4219 1451 3797 
Q 1122 3375 1075 2522 
Q 1259 2794 1537 2939 
Q 1816 3084 2150 3084 
Q 2853 3084 3261 2657 
Q 3669 2231 3669 1497 
Q 3669 778 3244 343 
Q 2819 -91 2113 -91 
Q 1303 -91 875 529 
Q 447 1150 447 2328 
Q 447 3434 972 4092 
Q 1497 4750 2381 4750 
Q 2619 4750 2861 4703 
Q 3103 4656 3366 4563 
z
" id="DejaVuSans-36" transform="scale(0.015625)"/>
       </defs>
       <use xlink:href="#DejaVuSans-30"/>
       <use x="63.623047" xlink:href="#DejaVuSans-2e"/>
       <use x="95.410156" xlink:href="#DejaVuSans-39"/>
       <use x="159.033203" xlink:href="#DejaVuSans-36"/>
      </g>
     </g>
    </g>
    <g id="ytick_5">
     <g id="line2d_12">
      <g>
       <use style="stroke:#000000;stroke-width:0.8;" x="50.14375" xlink:href="#m33c4207eaf" y="96.421639"/>
      </g>
     </g>
     <g id="text_13">
      <!-- 0.98 -->
      <g transform="translate(20.878125 100.220858)scale(0.1 -0.1)">
       <defs>
        <path d="M 2034 2216 
Q 1584 2216 1326 1975 
Q 1069 1734 1069 1313 
Q 1069 891 1326 650 
Q 1584 409 2034 409 
Q 2484 409 2743 651 
Q 3003 894 3003 1313 
Q 3003 1734 2745 1975 
Q 2488 2216 2034 2216 
z
M 1403 2484 
Q 997 2584 770 2862 
Q 544 3141 544 3541 
Q 544 4100 942 4425 
Q 1341 4750 2034 4750 
Q 2731 4750 3128 4425 
Q 3525 4100 3525 3541 
Q 3525 3141 3298 2862 
Q 3072 2584 2669 2484 
Q 3125 2378 3379 2068 
Q 3634 1759 3634 1313 
Q 3634 634 3220 271 
Q 2806 -91 2034 -91 
Q 1263 -91 848 271 
Q 434 634 434 1313 
Q 434 1759 690 2068 
Q 947 2378 1403 2484 
z
M 1172 3481 
Q 1172 3119 1398 2916 
Q 1625 2713 2034 2713 
Q 2441 2713 2670 2916 
Q 2900 3119 2900 3481 
Q 2900 3844 2670 4047 
Q 2441 4250 2034 4250 
Q 1625 4250 1398 4047 
Q 1172 3844 1172 3481 
z
" id="DejaVuSans-38" transform="scale(0.015625)"/>
       </defs>
       <use xlink:href="#DejaVuSans-30"/>
       <use x="63.623047" xlink:href="#DejaVuSans-2e"/>
       <use x="95.410156" xlink:href="#DejaVuSans-39"/>
       <use x="159.033203" xlink:href="#DejaVuSans-38"/>
      </g>
     </g>
    </g>
    <g id="ytick_6">
     <g id="line2d_13">
      <g>
       <use style="stroke:#000000;stroke-width:0.8;" x="50.14375" xlink:href="#m33c4207eaf" y="37.113881"/>
      </g>
     </g>
     <g id="text_14">
      <!-- 1.00 -->
      <g transform="translate(20.878125 40.9131)scale(0.1 -0.1)">
       <use xlink:href="#DejaVuSans-31"/>
       <use x="63.623047" xlink:href="#DejaVuSans-2e"/>
       <use x="95.410156" xlink:href="#DejaVuSans-30"/>
       <use x="159.033203" xlink:href="#DejaVuSans-30"/>
      </g>
     </g>
    </g>
    <g id="text_15">
     <!-- Normalized Intenisty -->
     <g transform="translate(14.798438 237.105156)rotate(-90)scale(0.1 -0.1)">
      <defs>
       <path d="M 628 4666 
L 1478 4666 
L 3547 763 
L 3547 4666 
L 4159 4666 
L 4159 0 
L 3309 0 
L 1241 3903 
L 1241 0 
L 628 0 
L 628 4666 
z
" id="DejaVuSans-4e" transform="scale(0.015625)"/>
       <path d="M 1959 3097 
Q 1497 3097 1228 2736 
Q 959 2375 959 1747 
Q 959 1119 1226 758 
Q 1494 397 1959 397 
Q 2419 397 2687 759 
Q 2956 1122 2956 1747 
Q 2956 2369 2687 2733 
Q 2419 3097 1959 3097 
z
M 1959 3584 
Q 2709 3584 3137 3096 
Q 3566 2609 3566 1747 
Q 3566 888 3137 398 
Q 2709 -91 1959 -91 
Q 1206 -91 779 398 
Q 353 888 353 1747 
Q 353 2609 779 3096 
Q 1206 3584 1959 3584 
z
" id="DejaVuSans-6f" transform="scale(0.015625)"/>
       <path d="M 2631 2963 
Q 2534 3019 2420 3045 
Q 2306 3072 2169 3072 
Q 1681 3072 1420 2755 
Q 1159 2438 1159 1844 
L 1159 0 
L 581 0 
L 581 3500 
L 1159 3500 
L 1159 2956 
Q 1341 3275 1631 3429 
Q 1922 3584 2338 3584 
Q 2397 3584 2469 3576 
Q 2541 3569 2628 3553 
L 2631 2963 
z
" id="DejaVuSans-72" transform="scale(0.015625)"/>
       <path d="M 3328 2828 
Q 3544 3216 3844 3400 
Q 4144 3584 4550 3584 
Q 5097 3584 5394 3201 
Q 5691 2819 5691 2113 
L 5691 0 
L 5113 0 
L 5113 2094 
Q 5113 2597 4934 2840 
Q 4756 3084 4391 3084 
Q 3944 3084 3684 2787 
Q 3425 2491 3425 1978 
L 3425 0 
L 2847 0 
L 2847 2094 
Q 2847 2600 2669 2842 
Q 2491 3084 2119 3084 
Q 1678 3084 1418 2786 
Q 1159 2488 1159 1978 
L 1159 0 
L 581 0 
L 581 3500 
L 1159 3500 
L 1159 2956 
Q 1356 3278 1631 3431 
Q 1906 3584 2284 3584 
Q 2666 3584 2933 3390 
Q 3200 3197 3328 2828 
z
" id="DejaVuSans-6d" transform="scale(0.015625)"/>
       <path d="M 603 3500 
L 1178 3500 
L 1178 0 
L 603 0 
L 603 3500 
z
M 603 4863 
L 1178 4863 
L 1178 4134 
L 603 4134 
L 603 4863 
z
" id="DejaVuSans-69" transform="scale(0.015625)"/>
       <path d="M 353 3500 
L 3084 3500 
L 3084 2975 
L 922 459 
L 3084 459 
L 3084 0 
L 275 0 
L 275 525 
L 2438 3041 
L 353 3041 
L 353 3500 
z
" id="DejaVuSans-7a" transform="scale(0.015625)"/>
       <path d="M 2906 2969 
L 2906 4863 
L 3481 4863 
L 3481 0 
L 2906 0 
L 2906 525 
Q 2725 213 2448 61 
Q 2172 -91 1784 -91 
Q 1150 -91 751 415 
Q 353 922 353 1747 
Q 353 2572 751 3078 
Q 1150 3584 1784 3584 
Q 2172 3584 2448 3432 
Q 2725 3281 2906 2969 
z
M 947 1747 
Q 947 1113 1208 752 
Q 1469 391 1925 391 
Q 2381 391 2643 752 
Q 2906 1113 2906 1747 
Q 2906 2381 2643 2742 
Q 2381 3103 1925 3103 
Q 1469 3103 1208 2742 
Q 947 2381 947 1747 
z
" id="DejaVuSans-64" transform="scale(0.015625)"/>
       <path id="DejaVuSans-20" transform="scale(0.015625)"/>
       <path d="M 628 4666 
L 1259 4666 
L 1259 0 
L 628 0 
L 628 4666 
z
" id="DejaVuSans-49" transform="scale(0.015625)"/>
       <path d="M 2834 3397 
L 2834 2853 
Q 2591 2978 2328 3040 
Q 2066 3103 1784 3103 
Q 1356 3103 1142 2972 
Q 928 2841 928 2578 
Q 928 2378 1081 2264 
Q 1234 2150 1697 2047 
L 1894 2003 
Q 2506 1872 2764 1633 
Q 3022 1394 3022 966 
Q 3022 478 2636 193 
Q 2250 -91 1575 -91 
Q 1294 -91 989 -36 
Q 684 19 347 128 
L 347 722 
Q 666 556 975 473 
Q 1284 391 1588 391 
Q 1994 391 2212 530 
Q 2431 669 2431 922 
Q 2431 1156 2273 1281 
Q 2116 1406 1581 1522 
L 1381 1569 
Q 847 1681 609 1914 
Q 372 2147 372 2553 
Q 372 3047 722 3315 
Q 1072 3584 1716 3584 
Q 2034 3584 2315 3537 
Q 2597 3491 2834 3397 
z
" id="DejaVuSans-73" transform="scale(0.015625)"/>
       <path d="M 2059 -325 
Q 1816 -950 1584 -1140 
Q 1353 -1331 966 -1331 
L 506 -1331 
L 506 -850 
L 844 -850 
Q 1081 -850 1212 -737 
Q 1344 -625 1503 -206 
L 1606 56 
L 191 3500 
L 800 3500 
L 1894 763 
L 2988 3500 
L 3597 3500 
L 2059 -325 
z
" id="DejaVuSans-79" transform="scale(0.015625)"/>
      </defs>
      <use xlink:href="#DejaVuSans-4e"/>
      <use x="74.804688" xlink:href="#DejaVuSans-6f"/>
      <use x="135.986328" xlink:href="#DejaVuSans-72"/>
      <use x="175.349609" xlink:href="#DejaVuSans-6d"/>
      <use x="272.761719" xlink:href="#DejaVuSans-61"/>
      <use x="334.041016" xlink:href="#DejaVuSans-6c"/>
      <use x="361.824219" xlink:href="#DejaVuSans-69"/>
      <use x="389.607422" xlink:href="#DejaVuSans-7a"/>
      <use x="442.097656" xlink:href="#DejaVuSans-65"/>
      <use x="503.621094" xlink:href="#DejaVuSans-64"/>
      <use x="567.097656" xlink:href="#DejaVuSans-20"/>
      <use x="598.884766" xlink:href="#DejaVuSans-49"/>
      <use x="628.376953" xlink:href="#DejaVuSans-6e"/>
      <use x="691.755859" xlink:href="#DejaVuSans-74"/>
      <use x="730.964844" xlink:href="#DejaVuSans-65"/>
      <use x="792.488281" xlink:href="#DejaVuSans-6e"/>
      <use x="855.867188" xlink:href="#DejaVuSans-69"/>
      <use x="883.650391" xlink:href="#DejaVuSans-73"/>
      <use x="935.75" xlink:href="#DejaVuSans-74"/>
      <use x="974.958984" xlink:href="#DejaVuSans-79"/>
     </g>
    </g>
   </g>
   <g id="line2d_14">
    <path clip-path="url(#p71adec2840)" d="M 345.555515 37.146421 
L 347.793483 37.155569 
L 350.031451 37.167422 
L 352.269418 37.182854 
L 354.507386 37.203053 
L 356.745354 37.229635 
L 358.983322 37.264809 
L 361.22129 37.311588 
L 363.459258 37.374076 
L 365.697226 37.457848 
L 367.935194 37.57043 
L 370.173162 37.721913 
L 372.41113 37.925712 
L 374.649098 38.199477 
L 376.887066 38.566163 
L 379.125033 39.055234 
L 381.363001 39.703963 
L 383.600969 40.558752 
L 385.838937 41.676347 
L 388.076905 43.124795 
L 390.314873 44.983916 
L 392.552841 47.345037 
L 394.790809 50.309685 
L 397.028777 53.986924 
L 399.266745 58.489041 
L 401.504713 63.925344 
L 403.74268 70.393943 
L 405.980648 77.971587 
L 408.218616 86.701826 
L 410.456584 96.582097 
L 412.694552 107.550618 
L 414.93252 119.474345 
L 417.170488 132.139504 
L 419.408456 145.246467 
L 421.646424 158.410869 
L 423.884392 171.172825 
L 426.12236 183.015999 
L 428.360328 193.397906 
L 430.598295 201.792402 
L 432.836263 207.74465 
L 435.074231 210.938007 
L 437.312199 211.271045 
L 439.550167 208.941226 
L 441.788135 204.529257 
L 444.026103 199.074605 
L 446.264071 194.127151 
L 448.502039 191.746891 
L 450.740007 194.387453 
L 452.977975 204.523778 
L 455.215943 223.820052 
L 457.45391 251.78434 
L 459.691878 284.442308 
L 461.929846 314.293536 
L 464.167814 332.64243 
L 466.405782 333.65267 
L 468.64375 317.487412 
L 470.881718 290.109526 
L 473.119686 259.983252 
L 475.357654 234.26364 
L 477.595622 216.785745 
L 479.83359 208.176662 
L 482.071557 207.021106 
L 484.309525 211.02979 
L 486.547493 217.80134 
L 488.785461 225.214096 
L 491.023429 231.591862 
L 493.261397 235.747767 
L 495.499365 236.962252 
L 497.737333 234.925393 
L 499.975301 229.661835 
L 502.213269 221.450101 
L 504.451237 210.743963 
L 506.689205 198.100753 
L 508.927172 184.119627 
L 511.16514 169.391374 
L 513.403108 154.460336 
L 515.641076 139.798176 
L 517.879044 125.788542 
L 520.117012 112.721214 
L 522.35498 100.793954 
L 524.592948 90.120156 
L 526.830916 80.740352 
L 529.068884 72.635851 
L 531.306852 65.742957 
L 533.54482 59.966629 
L 535.782787 55.192708 
L 538.020755 51.29822 
L 540.258723 48.159531 
L 542.496691 45.658367 
L 544.734659 43.685864 
L 546.972627 42.144949 
L 549.210595 40.951355 
L 551.448563 40.033626 
L 553.686531 39.332414 
L 555.924499 38.79933 
L 558.162467 38.395574 
L 560.400434 38.090493 
L 562.638402 37.860198 
L 564.87637 37.686287 
L 567.114338 37.55473 
L 569.352306 37.454924 
L 571.590274 37.37891 
L 573.828242 37.320745 
L 576.06621 37.276009 
L 578.304178 37.241416 
L 580.542146 37.214523 
L 582.780114 37.19351 
L 585.018082 37.177016 
L 587.256049 37.164016 
L 589.494017 37.153735 
L 591.731985 37.145583 
" style="fill:none;stroke:#eb9973;stroke-linecap:square;stroke-width:1.5;"/>
   </g>
   <g id="line2d_15">
    <path clip-path="url(#p71adec2840)" d="M 296.320221 37.144951 
L 318.6999 37.298716 
L 329.889739 37.602307 
L 336.603643 38.009948 
L 341.079579 38.463544 
L 345.555515 39.147191 
L 350.031451 40.166983 
L 352.269418 40.846339 
L 354.507386 41.667204 
L 356.745354 42.654639 
L 358.983322 43.836727 
L 361.22129 45.244543 
L 363.459258 46.911996 
L 365.697226 48.87551 
L 367.935194 51.173519 
L 370.173162 53.845746 
L 372.41113 56.932239 
L 374.649098 60.472144 
L 376.887066 64.502215 
L 379.125033 69.05505 
L 381.363001 74.157084 
L 383.600969 79.826365 
L 385.838937 86.070185 
L 388.076905 92.88262 
L 390.314873 100.242113 
L 392.552841 108.109192 
L 397.028777 125.1072 
L 408.218616 169.662208 
L 410.456584 177.652168 
L 412.694552 184.888312 
L 414.93252 191.172326 
L 417.170488 196.317265 
L 419.408456 200.158334 
L 421.646424 202.565115 
L 423.884392 203.455103 
L 426.12236 202.808322 
L 428.360328 200.682679 
L 430.598295 197.229563 
L 432.836263 192.709009 
L 439.550167 177.239226 
L 441.788135 173.628828 
L 444.026103 172.216547 
L 446.264071 174.022223 
L 448.502039 180.122041 
L 450.740007 191.563966 
L 452.977975 209.169255 
L 455.215943 233.080466 
L 459.691878 292.294152 
L 461.929846 318.220805 
L 464.167814 333.383846 
L 466.405782 333.65267 
L 468.64375 319.277177 
L 470.881718 294.650528 
L 475.357654 238.576158 
L 477.595622 215.794673 
L 479.83359 198.911103 
L 482.071557 187.938887 
L 484.309525 182.237684 
L 486.547493 180.886493 
L 488.785461 182.873235 
L 491.023429 187.196749 
L 493.261397 192.928039 
L 497.737333 205.461028 
L 499.975301 211.012316 
L 502.213269 215.474918 
L 504.451237 218.547385 
L 506.689205 220.041278 
L 508.927172 219.86762 
L 511.16514 218.022256 
L 513.403108 214.570938 
L 515.641076 209.634689 
L 517.879044 203.375905 
L 520.117012 195.985489 
L 522.35498 187.671246 
L 524.592948 178.647675 
L 529.068884 159.313338 
L 535.782787 129.89705 
L 540.258723 111.720376 
L 542.496691 103.363567 
L 544.734659 95.574807 
L 546.972627 88.388475 
L 549.210595 81.820826 
L 551.448563 75.872461 
L 553.686531 70.53091 
L 555.924499 65.773205 
L 558.162467 61.568337 
L 560.400434 57.879527 
L 562.638402 54.666269 
L 564.87637 51.886088 
L 567.114338 49.496032 
L 569.352306 47.453866 
L 571.590274 45.719014 
L 573.828242 44.253237 
L 576.06621 43.021107 
L 578.304178 41.990283 
L 580.542146 41.131632 
L 582.780114 40.419234 
L 587.256049 39.344871 
L 591.731985 38.618625 
L 596.207921 38.131479 
L 602.921825 37.686172 
L 611.873697 37.387727 
L 625.301504 37.21078 
L 640.967279 37.144517 
L 640.967279 37.144517 
" style="fill:none;stroke:#e88366;stroke-linecap:square;stroke-width:1.5;"/>
   </g>
   <g id="line2d_16">
    <path clip-path="url(#p71adec2840)" d="M 258.274766 37.144015 
L 287.368349 37.311707 
L 298.558189 37.548781 
L 307.51006 37.95163 
L 314.223964 38.495259 
L 318.6999 39.043277 
L 323.175836 39.804114 
L 327.651771 40.851275 
L 332.127707 42.277366 
L 334.365675 43.167122 
L 336.603643 44.195813 
L 338.841611 45.380913 
L 341.079579 46.741112 
L 343.317547 48.296178 
L 345.555515 50.066771 
L 347.793483 52.074184 
L 350.031451 54.340021 
L 352.269418 56.88579 
L 354.507386 59.732421 
L 356.745354 62.899704 
L 358.983322 66.405645 
L 361.22129 70.265749 
L 363.459258 74.492233 
L 365.697226 79.093185 
L 367.935194 84.071689 
L 370.173162 89.424927 
L 372.41113 95.143291 
L 374.649098 101.209535 
L 379.125033 114.273932 
L 383.600969 128.300891 
L 394.790809 164.091043 
L 397.028777 170.662285 
L 399.266745 176.795986 
L 401.504713 182.382753 
L 403.74268 187.315164 
L 405.980648 191.491202 
L 408.218616 194.818132 
L 410.456584 197.216799 
L 412.694552 198.62632 
L 414.93252 199.009132 
L 417.170488 198.356313 
L 419.408456 196.693127 
L 421.646424 194.084646 
L 423.884392 190.641325 
L 426.12236 186.524329 
L 432.836263 172.598429 
L 435.074231 168.560335 
L 437.312199 165.543862 
L 439.550167 164.066947 
L 441.788135 164.691805 
L 444.026103 168.007307 
L 446.264071 174.605158 
L 448.502039 185.051341 
L 450.740007 199.842938 
L 452.977975 219.294643 
L 455.215943 243.230178 
L 459.691878 297.756966 
L 461.929846 320.578888 
L 464.167814 333.65267 
L 466.405782 333.650091 
L 468.64375 320.850678 
L 470.881718 298.89795 
L 475.357654 246.989703 
L 477.595622 224.05695 
L 479.83359 205.222506 
L 482.071557 190.764767 
L 484.309525 180.511396 
L 486.547493 174.074171 
L 488.785461 170.952003 
L 491.023429 170.58721 
L 493.261397 172.406369 
L 495.499365 175.850901 
L 497.737333 180.398148 
L 502.213269 190.963709 
L 504.451237 196.208772 
L 506.689205 201.014028 
L 508.927172 205.14283 
L 511.16514 208.414664 
L 513.403108 210.701081 
L 515.641076 211.920938 
L 517.879044 212.035223 
L 520.117012 211.041682 
L 522.35498 208.969407 
L 524.592948 205.873525 
L 526.830916 201.830079 
L 529.068884 196.93119 
L 531.306852 191.280549 
L 533.54482 184.9893 
L 535.782787 178.172316 
L 540.258723 163.4201 
L 551.448563 124.857312 
L 555.924499 110.503497 
L 558.162467 103.788879 
L 560.400434 97.429449 
L 562.638402 91.448707 
L 564.87637 85.861617 
L 567.114338 80.675458 
L 569.352306 75.890719 
L 571.590274 71.502042 
L 573.828242 67.499145 
L 576.06621 63.867736 
L 578.304178 60.590366 
L 580.542146 57.647234 
L 582.780114 55.016906 
L 585.018082 52.676961 
L 587.256049 50.604555 
L 589.494017 48.776898 
L 591.731985 47.171645 
L 593.969953 45.767215 
L 596.207921 44.543038 
L 598.445889 43.479731 
L 600.683857 42.559222 
L 605.159793 41.081238 
L 609.635729 39.992396 
L 614.111664 39.197727 
L 618.5876 38.622019 
L 625.301504 38.045725 
L 632.015408 37.694874 
L 643.205247 37.386149 
L 658.871023 37.214352 
L 679.012734 37.143708 
L 679.012734 37.143708 
" style="fill:none;stroke:#e46c5d;stroke-linecap:square;stroke-width:1.5;"/>
   </g>
   <g id="line2d_17">
    <path clip-path="url(#p71adec2840)" d="M 226.943215 37.144728 
L 258.274766 37.290137 
L 273.940541 37.569356 
L 282.892413 37.9165 
L 289.606317 38.349982 
L 296.320221 39.020802 
L 300.796156 39.656854 
L 305.272092 40.496786 
L 309.748028 41.59755 
L 314.223964 43.027558 
L 318.6999 44.867108 
L 320.937868 45.968726 
L 323.175836 47.207977 
L 325.413803 48.597873 
L 327.651771 50.151871 
L 329.889739 51.883739 
L 332.127707 53.807385 
L 334.365675 55.936664 
L 336.603643 58.285142 
L 338.841611 60.865834 
L 341.079579 63.690897 
L 343.317547 66.771304 
L 345.555515 70.116477 
L 347.793483 73.733898 
L 350.031451 77.628698 
L 352.269418 81.803227 
L 354.507386 86.256622 
L 356.745354 90.984371 
L 361.22129 101.224138 
L 365.697226 112.39813 
L 370.173162 124.30023 
L 383.600969 161.001004 
L 385.838937 166.673063 
L 388.076905 172.042019 
L 390.314873 177.037146 
L 392.552841 181.588028 
L 394.790809 185.626097 
L 397.028777 189.086369 
L 399.266745 191.909356 
L 401.504713 194.043153 
L 403.74268 195.445685 
L 405.980648 196.087111 
L 408.218616 195.952342 
L 410.456584 195.043675 
L 412.694552 193.383481 
L 414.93252 191.016925 
L 417.170488 188.014653 
L 419.408456 184.47537 
L 421.646424 180.528242 
L 428.360328 168.028945 
L 430.598295 164.413902 
L 432.836263 161.547421 
L 435.074231 159.762509 
L 437.312199 159.419448 
L 439.550167 160.898162 
L 441.788135 164.586659 
L 444.026103 170.865235 
L 446.264071 180.08833 
L 448.502039 192.56846 
L 450.740007 208.557799 
L 452.977975 228.179779 
L 455.215943 251.192122 
L 459.691878 301.455882 
L 461.929846 322.013932 
L 464.167814 333.65267 
L 466.405782 333.50626 
L 468.64375 321.867186 
L 470.881718 301.941651 
L 475.357654 254.003267 
L 477.595622 231.934251 
L 479.83359 212.902396 
L 482.071557 197.22574 
L 484.309525 184.900415 
L 486.547493 175.767339 
L 488.785461 169.57049 
L 491.023429 165.987436 
L 493.261397 164.6564 
L 495.499365 165.199915 
L 497.737333 167.242919 
L 499.975301 170.425457 
L 502.213269 174.41117 
L 506.689205 183.595143 
L 511.16514 192.732234 
L 513.403108 196.787077 
L 515.641076 200.301332 
L 517.879044 203.165417 
L 520.117012 205.298518 
L 522.35498 206.646239 
L 524.592948 207.178088 
L 526.830916 206.884876 
L 529.068884 205.776096 
L 531.306852 203.877321 
L 533.54482 201.227672 
L 535.782787 197.87738 
L 538.020755 193.885472 
L 540.258723 189.317597 
L 542.496691 184.244013 
L 544.734659 178.737742 
L 549.210595 166.723214 
L 553.686531 153.854705 
L 562.638402 127.635495 
L 567.114338 115.133501 
L 571.590274 103.452637 
L 576.06621 92.791 
L 578.304178 87.881212 
L 580.542146 83.263342 
L 582.780114 78.940605 
L 585.018082 74.912579 
L 587.256049 71.175651 
L 589.494017 67.723476 
L 591.731985 64.547406 
L 593.969953 61.636921 
L 596.207921 58.980015 
L 598.445889 56.563571 
L 600.683857 54.373692 
L 602.921825 52.396001 
L 605.159793 50.615908 
L 607.397761 49.018837 
L 609.635729 47.590426 
L 611.873697 46.316682 
L 614.111664 45.18412 
L 618.5876 43.291698 
L 623.063536 41.818602 
L 627.539472 40.682403 
L 632.015408 39.813074 
L 636.491344 39.152446 
L 643.205247 38.451855 
L 649.919151 37.995197 
L 658.871023 37.624824 
L 672.29883 37.347292 
L 692.440541 37.191574 
L 710.344285 37.144425 
L 710.344285 37.144425 
" style="fill:none;stroke:#db565d;stroke-linecap:square;stroke-width:1.5;"/>
   </g>
   <g id="line2d_18">
    <path clip-path="url(#p71adec2840)" d="M 200.0876 37.146402 
L 235.895087 37.307513 
L 251.560862 37.56686 
L 262.750702 37.966977 
L 271.702574 38.54197 
L 278.416477 39.217197 
L 282.892413 39.832901 
L 287.368349 40.621226 
L 291.844285 41.624272 
L 296.320221 42.891507 
L 300.796156 44.479979 
L 305.272092 46.454087 
L 309.748028 48.884782 
L 311.985996 50.294954 
L 314.223964 51.848034 
L 316.461932 53.553904 
L 318.6999 55.422402 
L 320.937868 57.463192 
L 323.175836 59.685607 
L 325.413803 62.098489 
L 327.651771 64.71 
L 329.889739 67.527424 
L 332.127707 70.55695 
L 334.365675 73.803447 
L 336.603643 77.270221 
L 338.841611 80.958778 
L 343.317547 88.996742 
L 347.793483 97.883894 
L 352.269418 107.542538 
L 356.745354 117.844332 
L 363.459258 134.086039 
L 372.41113 155.810372 
L 376.887066 165.945969 
L 379.125033 170.664679 
L 381.363001 175.083657 
L 383.600969 179.152713 
L 385.838937 182.822736 
L 388.076905 186.046667 
L 390.314873 188.780555 
L 392.552841 190.98471 
L 394.790809 192.624937 
L 397.028777 193.673851 
L 399.266745 194.112257 
L 401.504713 193.930604 
L 403.74268 193.130473 
L 405.980648 191.726111 
L 408.218616 189.74597 
L 410.456584 187.234241 
L 412.694552 184.252347 
L 414.93252 180.880357 
L 419.408456 173.387208 
L 423.884392 165.812607 
L 426.12236 162.422737 
L 428.360328 159.570873 
L 430.598295 157.488398 
L 432.836263 156.425627 
L 435.074231 156.648408 
L 437.312199 158.432981 
L 439.550167 162.058451 
L 441.788135 167.796246 
L 444.026103 175.896703 
L 446.264071 186.57562 
L 448.502039 200.006877 
L 450.740007 216.31976 
L 452.977975 235.557909 
L 455.215943 257.484526 
L 459.691878 304.204571 
L 461.929846 323.060098 
L 464.167814 333.65267 
L 466.405782 333.416612 
L 468.64375 322.651029 
L 470.881718 304.275726 
L 477.595622 238.658519 
L 479.83359 219.996135 
L 482.071557 203.994113 
L 484.309525 190.714821 
L 486.547493 180.111497 
L 488.785461 172.059632 
L 491.023429 166.371432 
L 493.261397 162.813722 
L 495.499365 161.126444 
L 497.737333 161.037929 
L 499.975301 162.276167 
L 502.213269 164.576785 
L 504.451237 167.688601 
L 506.689205 171.377425 
L 511.16514 179.64829 
L 515.641076 187.92784 
L 517.879044 191.709358 
L 520.117012 195.101971 
L 522.35498 198.018483 
L 524.592948 200.390674 
L 526.830916 202.168016 
L 529.068884 203.31629 
L 531.306852 203.816134 
L 533.54482 203.661556 
L 535.782787 202.858439 
L 538.020755 201.423063 
L 540.258723 199.380656 
L 542.496691 196.763994 
L 544.734659 193.61206 
L 546.972627 189.968767 
L 549.210595 185.881768 
L 551.448563 181.401332 
L 553.686531 176.579325 
L 558.162467 166.120499 
L 562.638402 154.918837 
L 576.06621 120.529139 
L 580.542146 109.784636 
L 585.018082 99.747222 
L 589.494017 90.539761 
L 593.969953 82.233705 
L 596.207921 78.428644 
L 598.445889 74.855971 
L 600.683857 71.513382 
L 602.921825 68.396792 
L 605.159793 65.500588 
L 607.397761 62.817865 
L 609.635729 60.340665 
L 611.873697 58.060192 
L 614.111664 55.96701 
L 616.349632 54.051234 
L 618.5876 52.302693 
L 620.825568 50.711083 
L 623.063536 49.266094 
L 627.539472 46.775394 
L 632.015408 44.751954 
L 636.491344 43.122671 
L 640.967279 41.821433 
L 645.443215 40.789849 
L 649.919151 39.977401 
L 654.395087 39.341174 
L 661.108991 38.640572 
L 667.822894 38.162179 
L 676.774766 37.753628 
L 687.964606 37.465386 
L 705.868349 37.255655 
L 737.1999 37.146054 
L 737.1999 37.146054 
" style="fill:none;stroke:#cc4664;stroke-linecap:square;stroke-width:1.5;"/>
   </g>
   <g id="line2d_19">
    <path clip-path="url(#p71adec2840)" d="M 173.231985 37.144118 
L 213.515408 37.301254 
L 231.419151 37.567543 
L 242.608991 37.921363 
L 251.560862 38.404924 
L 258.274766 38.952198 
L 264.98867 39.727848 
L 269.464606 40.412815 
L 273.940541 41.26743 
L 278.416477 42.327629 
L 282.892413 43.63457 
L 287.368349 45.234604 
L 291.844285 47.178937 
L 296.320221 49.52292 
L 300.796156 52.324866 
L 303.034124 53.916198 
L 305.272092 55.644334 
L 307.51006 57.516535 
L 309.748028 59.539812 
L 311.985996 61.720823 
L 314.223964 64.065756 
L 316.461932 66.580199 
L 318.6999 69.26901 
L 320.937868 72.136171 
L 325.413803 78.416203 
L 329.889739 85.428903 
L 334.365675 93.159051 
L 338.841611 101.562722 
L 343.317547 110.562882 
L 347.793483 120.04586 
L 356.745354 139.810938 
L 363.459258 154.487855 
L 367.935194 163.713297 
L 372.41113 172.148582 
L 374.649098 175.974779 
L 376.887066 179.489618 
L 379.125033 182.656496 
L 381.363001 185.44051 
L 383.600969 187.809154 
L 385.838937 189.73305 
L 388.076905 191.186742 
L 390.314873 192.149521 
L 392.552841 192.606304 
L 394.790809 192.548533 
L 397.028777 191.975119 
L 399.266745 190.893393 
L 401.504713 189.320082 
L 403.74268 187.282274 
L 405.980648 184.818376 
L 408.218616 181.979037 
L 410.456584 178.828026 
L 414.93252 171.916319 
L 419.408456 164.883137 
L 421.646424 161.638286 
L 423.884392 158.774964 
L 426.12236 156.462294 
L 428.360328 154.883347 
L 430.598295 154.233507 
L 432.836263 154.718013 
L 435.074231 156.548437 
L 437.312199 159.937672 
L 439.550167 165.092962 
L 441.788135 172.206493 
L 444.026103 181.444057 
L 446.264071 192.935194 
L 448.502039 206.772024 
L 450.740007 223.017334 
L 452.977975 241.681692 
L 455.215943 262.556236 
L 459.691878 306.33608 
L 461.929846 323.861368 
L 464.167814 333.65267 
L 466.405782 333.355213 
L 468.64375 323.271804 
L 470.881718 306.119613 
L 477.595622 244.315871 
L 479.83359 226.215401 
L 482.071557 210.281509 
L 484.309525 196.601057 
L 486.547493 185.186685 
L 488.785461 175.99038 
L 491.023429 168.907042 
L 493.261397 163.785965 
L 495.499365 160.445539 
L 497.737333 158.686254 
L 499.975301 158.300644 
L 502.213269 159.080528 
L 504.451237 160.822247 
L 506.689205 163.330425 
L 508.927172 166.420652 
L 511.16514 169.921355 
L 522.35498 188.593316 
L 524.592948 191.774063 
L 526.830916 194.576452 
L 529.068884 196.945032 
L 531.306852 198.836863 
L 533.54482 200.220658 
L 535.782787 201.075882 
L 538.020755 201.391819 
L 540.258723 201.166631 
L 542.496691 200.40642 
L 544.734659 199.124294 
L 546.972627 197.33946 
L 549.210595 195.076342 
L 551.448563 192.363737 
L 553.686531 189.234001 
L 555.924499 185.722291 
L 558.162467 181.865841 
L 560.400434 177.703296 
L 564.87637 168.617891 
L 569.352306 158.781282 
L 576.06621 143.276261 
L 585.018082 122.589279 
L 589.494017 112.723744 
L 593.969953 103.390481 
L 598.445889 94.69971 
L 602.921825 86.724373 
L 607.397761 79.503971 
L 611.873697 73.049219 
L 614.111664 70.105684 
L 616.349632 67.347115 
L 618.5876 64.76902 
L 620.825568 62.366057 
L 623.063536 60.132174 
L 625.301504 58.060748 
L 627.539472 56.14471 
L 632.015408 52.748994 
L 636.491344 49.883791 
L 640.967279 47.487202 
L 645.443215 45.498956 
L 649.919151 43.862086 
L 654.395087 42.524069 
L 658.871023 41.437494 
L 663.346959 40.560354 
L 667.822894 39.856038 
L 674.536798 39.056178 
L 681.250702 38.489298 
L 690.202574 37.985104 
L 701.392413 37.612168 
L 717.058189 37.349228 
L 741.675836 37.191924 
L 764.055515 37.143883 
L 764.055515 37.143883 
" style="fill:none;stroke:#b73d6b;stroke-linecap:square;stroke-width:1.5;"/>
   </g>
   <g id="line2d_20">
    <path clip-path="url(#p71adec2840)" d="M 150.852306 37.14527 
L 193.373697 37.300232 
L 213.515408 37.581754 
L 226.943215 38.002627 
L 235.895087 38.486691 
L 242.608991 39.017606 
L 249.322894 39.75025 
L 256.036798 40.75296 
L 260.512734 41.61305 
L 264.98867 42.660952 
L 269.464606 43.930565 
L 273.940541 45.459539 
L 278.416477 47.288995 
L 282.892413 49.462981 
L 287.368349 52.027637 
L 291.844285 55.030011 
L 296.320221 58.516506 
L 300.796156 62.530914 
L 305.272092 67.112065 
L 309.748028 72.291092 
L 314.223964 78.088381 
L 318.6999 84.510285 
L 323.175836 91.545745 
L 327.651771 99.162972 
L 332.127707 107.306397 
L 336.603643 115.894138 
L 343.317547 129.360381 
L 354.507386 152.061299 
L 358.983322 160.662571 
L 363.459258 168.652046 
L 365.697226 172.342419 
L 367.935194 175.789716 
L 370.173162 178.964307 
L 372.41113 181.83743 
L 374.649098 184.381633 
L 376.887066 186.571239 
L 379.125033 188.382848 
L 381.363001 189.795867 
L 383.600969 190.793069 
L 385.838937 191.361174 
L 388.076905 191.49146 
L 390.314873 191.180385 
L 392.552841 190.430233 
L 394.790809 189.249766 
L 397.028777 187.654876 
L 399.266745 185.669243 
L 401.504713 183.324979 
L 403.74268 180.663244 
L 405.980648 177.734833 
L 410.456584 171.332528 
L 414.93252 164.735842 
L 417.170488 161.606757 
L 419.408456 158.742518 
L 421.646424 156.271182 
L 423.884392 154.331491 
L 426.12236 153.072043 
L 428.360328 152.650034 
L 430.598295 153.229468 
L 432.836263 154.978668 
L 435.074231 158.066843 
L 437.312199 162.659393 
L 439.550167 168.911531 
L 441.788135 176.9599 
L 444.026103 186.912929 
L 446.264071 198.843754 
L 448.502039 212.793659 
L 450.740007 228.787933 
L 452.977975 246.825864 
L 455.215943 266.732858 
L 459.691878 308.044532 
L 461.929846 324.49794 
L 464.167814 333.65267 
L 466.405782 333.310471 
L 468.64375 323.776332 
L 470.881718 307.616199 
L 477.595622 249.107383 
L 479.83359 231.622147 
L 482.071557 215.939003 
L 484.309525 202.15035 
L 486.547493 190.301403 
L 488.785461 180.391135 
L 491.023429 172.368014 
L 493.261397 166.136752 
L 495.499365 161.570129 
L 497.737333 158.520213 
L 499.975301 156.827181 
L 502.213269 156.325878 
L 504.451237 156.850643 
L 506.689205 158.238876 
L 508.927172 160.333677 
L 511.16514 162.985785 
L 513.403108 166.054976 
L 517.879044 172.934403 
L 524.592948 183.47865 
L 526.830916 186.697045 
L 529.068884 189.650527 
L 531.306852 192.284635 
L 533.54482 194.554666 
L 535.782787 196.425141 
L 538.020755 197.869232 
L 540.258723 198.86815 
L 542.496691 199.410522 
L 544.734659 199.491752 
L 546.972627 199.113386 
L 549.210595 198.282473 
L 551.448563 197.010944 
L 553.686531 195.315001 
L 555.924499 193.214526 
L 558.162467 190.732513 
L 560.400434 187.894525 
L 562.638402 184.728175 
L 564.87637 181.26264 
L 567.114338 177.528206 
L 571.590274 169.376799 
L 576.06621 160.52306 
L 582.780114 146.453539 
L 593.969953 122.688003 
L 598.445889 113.587002 
L 602.921825 104.91824 
L 607.397761 96.775083 
L 611.873697 89.223096 
L 616.349632 82.302431 
L 620.825568 76.030827 
L 625.301504 70.406949 
L 629.77744 65.413871 
L 634.253376 61.022499 
L 638.729311 57.194803 
L 643.205247 53.886747 
L 647.681183 51.050847 
L 652.157119 48.638323 
L 656.633055 46.600844 
L 661.108991 44.891873 
L 665.584926 43.46764 
L 670.060862 42.287805 
L 674.536798 41.315829 
L 679.012734 40.519133 
L 685.726638 39.591118 
L 692.440541 38.912918 
L 701.392413 38.288932 
L 712.582253 37.808498 
L 726.01006 37.490258 
L 746.151771 37.271168 
L 781.959258 37.150988 
L 786.435194 37.145009 
L 786.435194 37.145009 
" style="fill:none;stroke:#a1386f;stroke-linecap:square;stroke-width:1.5;"/>
   </g>
   <g id="line2d_21">
    <path clip-path="url(#p71adec2840)" d="M 128.472627 37.144404 
L 175.469953 37.306082 
L 195.611664 37.568259 
L 209.039472 37.940538 
L 220.229311 38.487345 
L 229.181183 39.178147 
L 235.895087 39.911307 
L 242.608991 40.892961 
L 247.084926 41.720585 
L 251.560862 42.715524 
L 256.036798 43.905725 
L 260.512734 45.321992 
L 264.98867 46.997776 
L 269.464606 48.968797 
L 273.940541 51.272465 
L 278.416477 53.94708 
L 282.892413 57.030778 
L 287.368349 60.560215 
L 291.844285 64.568981 
L 296.320221 69.085756 
L 300.796156 74.132231 
L 305.272092 79.72084 
L 309.748028 85.852373 
L 314.223964 92.513558 
L 318.6999 99.674728 
L 323.175836 107.287694 
L 327.651771 115.283999 
L 334.365675 127.794419 
L 347.793483 153.089888 
L 352.269418 161.016956 
L 356.745354 168.384216 
L 358.983322 171.796642 
L 361.22129 174.995509 
L 363.459258 177.95665 
L 365.697226 180.656554 
L 367.935194 183.07268 
L 370.173162 185.183788 
L 372.41113 186.970291 
L 374.649098 188.414627 
L 376.887066 189.501654 
L 379.125033 190.219055 
L 381.363001 190.557766 
L 383.600969 190.512418 
L 385.838937 190.081783 
L 388.076905 189.269239 
L 390.314873 188.083235 
L 392.552841 186.537756 
L 394.790809 184.652794 
L 397.028777 182.4548 
L 399.266745 179.977126 
L 401.504713 177.260449 
L 405.980648 171.311673 
L 412.694552 162.07305 
L 414.93252 159.229072 
L 417.170488 156.661461 
L 419.408456 154.478131 
L 421.646424 152.794978 
L 423.884392 151.735218 
L 426.12236 151.428423 
L 428.360328 152.009189 
L 430.598295 153.615333 
L 432.836263 156.385469 
L 435.074231 160.455758 
L 437.312199 165.955544 
L 439.550167 173.001522 
L 441.788135 181.690239 
L 444.026103 192.089826 
L 446.264071 204.235113 
L 448.502039 218.134607 
L 450.740007 233.7922 
L 452.977975 251.206725 
L 455.215943 270.238336 
L 459.691878 309.449632 
L 461.929846 325.017964 
L 464.167814 333.65267 
L 466.405782 333.276395 
L 468.64375 324.195456 
L 470.881718 308.858448 
L 477.595622 253.21079 
L 479.83359 236.338223 
L 482.071557 220.990279 
L 484.309525 207.255783 
L 486.547493 195.197813 
L 488.785461 184.845266 
L 491.023429 176.182704 
L 493.261397 169.153493 
L 495.499365 163.669375 
L 497.737333 159.620265 
L 499.975301 156.882143 
L 502.213269 155.323011 
L 504.451237 154.807334 
L 506.689205 155.199374 
L 508.927172 156.365709 
L 511.16514 158.177132 
L 513.403108 160.510082 
L 515.641076 163.247705 
L 517.879044 166.280614 
L 522.35498 172.835055 
L 526.830916 179.463066 
L 531.306852 185.589935 
L 533.54482 188.322173 
L 535.782787 190.773066 
L 538.020755 192.906556 
L 540.258723 194.69361 
L 542.496691 196.111811 
L 544.734659 197.144928 
L 546.972627 197.782463 
L 549.210595 198.019203 
L 551.448563 197.854762 
L 553.686531 197.293126 
L 555.924499 196.342206 
L 558.162467 195.013398 
L 560.400434 193.321153 
L 562.638402 191.282562 
L 564.87637 188.916959 
L 567.114338 186.245535 
L 569.352306 183.290977 
L 571.590274 180.077123 
L 573.828242 176.628637 
L 578.304178 169.128772 
L 582.780114 160.994305 
L 589.494017 148.035639 
L 602.921825 121.57955 
L 607.397761 113.137377 
L 611.873697 105.068315 
L 616.349632 97.44965 
L 620.825568 90.337347 
L 625.301504 83.767703 
L 629.77744 77.759414 
L 634.253376 72.31592 
L 638.729311 67.427874 
L 643.205247 63.075613 
L 647.681183 59.231536 
L 652.157119 55.862312 
L 656.633055 52.930851 
L 661.108991 50.398035 
L 665.584926 48.224152 
L 670.060862 46.370078 
L 674.536798 44.798179 
L 679.012734 43.472984 
L 683.48867 42.36164 
L 687.964606 41.434183 
L 694.678509 40.329647 
L 701.392413 39.500535 
L 708.106317 38.88278 
L 717.058189 38.300998 
L 728.248028 37.839046 
L 741.675836 37.521445 
L 761.817547 37.292717 
L 797.625033 37.159632 
L 808.814873 37.144186 
L 808.814873 37.144186 
" style="fill:none;stroke:#8b3271;stroke-linecap:square;stroke-width:1.5;"/>
   </g>
   <g id="line2d_22">
    <path clip-path="url(#p71adec2840)" d="M 108.330916 37.144657 
L 157.56621 37.30291 
L 179.945889 37.579156 
L 193.373697 37.931755 
L 204.563536 38.43327 
L 213.515408 39.051077 
L 220.229311 39.694856 
L 226.943215 40.544254 
L 233.657119 41.656363 
L 238.133055 42.577017 
L 242.608991 43.667732 
L 247.084926 44.953914 
L 251.560862 46.463091 
L 256.036798 48.224662 
L 260.512734 50.2695 
L 264.98867 52.62942 
L 269.464606 55.336458 
L 273.940541 58.42198 
L 278.416477 61.915602 
L 282.892413 65.843914 
L 287.368349 70.229042 
L 291.844285 75.087042 
L 296.320221 80.426186 
L 300.796156 86.245173 
L 305.272092 92.531337 
L 309.748028 99.258919 
L 314.223964 106.387508 
L 318.6999 113.860734 
L 325.413803 125.551778 
L 341.079579 153.233495 
L 345.555515 160.649615 
L 350.031451 167.564918 
L 354.507386 173.815407 
L 356.745354 176.640265 
L 358.983322 179.238324 
L 361.22129 181.590499 
L 363.459258 183.678648 
L 365.697226 185.48583 
L 367.935194 186.996578 
L 370.173162 188.197178 
L 372.41113 189.07597 
L 374.649098 189.623659 
L 376.887066 189.83363 
L 379.125033 189.70228 
L 381.363001 189.229353 
L 383.600969 188.418288 
L 385.838937 187.276556 
L 388.076905 185.816017 
L 390.314873 184.053256 
L 392.552841 182.009931 
L 394.790809 179.713092 
L 397.028777 177.195503 
L 401.504713 171.659415 
L 410.456584 160.075719 
L 412.694552 157.462916 
L 414.93252 155.124332 
L 417.170488 153.152113 
L 419.408456 151.644593 
L 421.646424 150.705763 
L 423.884392 150.444526 
L 426.12236 150.973697 
L 428.360328 152.408658 
L 430.598295 154.865607 
L 432.836263 158.459232 
L 435.074231 163.299663 
L 437.312199 169.488422 
L 439.550167 177.113077 
L 441.788135 186.240486 
L 444.026103 196.909668 
L 446.264071 209.128681 
L 448.502039 222.884395 
L 450.740007 238.168748 
L 452.977975 254.985666 
L 457.45391 292.306513 
L 459.691878 310.629151 
L 461.929846 325.452171 
L 464.167814 333.65267 
L 466.405782 333.249568 
L 468.64375 324.549999 
L 470.881718 309.908741 
L 479.83359 240.479794 
L 482.071557 225.502655 
L 484.309525 211.914374 
L 486.547493 199.787365 
L 488.785461 189.170004 
L 491.023429 180.071898 
L 493.261397 172.464173 
L 495.499365 166.287253 
L 497.737333 161.459487 
L 499.975301 157.884282 
L 502.213269 155.455533 
L 504.451237 154.061723 
L 506.689205 153.589027 
L 508.927172 153.923692 
L 511.16514 154.953858 
L 513.403108 156.57097 
L 515.641076 158.670844 
L 517.879044 161.154488 
L 520.117012 163.928695 
L 524.592948 170.007337 
L 531.306852 179.343781 
L 535.782787 185.008613 
L 538.020755 187.5311 
L 540.258723 189.798341 
L 542.496691 191.781161 
L 544.734659 193.455875 
L 546.972627 194.803988 
L 549.210595 195.811863 
L 551.448563 196.470398 
L 553.686531 196.774681 
L 555.924499 196.723659 
L 558.162467 196.319794 
L 560.400434 195.568734 
L 562.638402 194.47898 
L 564.87637 193.061567 
L 567.114338 191.329751 
L 569.352306 189.298708 
L 571.590274 186.985241 
L 573.828242 184.407505 
L 576.06621 181.584739 
L 578.304178 178.537019 
L 582.780114 171.849788 
L 587.256049 164.514509 
L 591.731985 156.699703 
L 598.445889 144.432404 
L 611.873697 119.703313 
L 616.349632 111.834674 
L 620.825568 104.302748 
L 625.301504 97.170812 
L 629.77744 90.485406 
L 634.253376 84.277561 
L 638.729311 78.564325 
L 643.205247 73.35049 
L 647.681183 68.630417 
L 652.157119 64.389876 
L 656.633055 60.607837 
L 661.108991 57.258158 
L 665.584926 54.31112 
L 670.060862 51.734792 
L 674.536798 49.496205 
L 679.012734 47.562339 
L 683.48867 45.900909 
L 687.964606 44.480985 
L 692.440541 43.273439 
L 696.916477 42.251254 
L 703.630381 41.012091 
L 710.344285 40.061463 
L 717.058189 39.337694 
L 726.01006 38.639395 
L 734.961932 38.161834 
L 746.151771 37.773317 
L 761.817547 37.465168 
L 784.197226 37.263474 
L 826.718616 37.146904 
L 828.956584 37.144441 
L 828.956584 37.144441 
" style="fill:none;stroke:#752d6f;stroke-linecap:square;stroke-width:1.5;"/>
   </g>
   <g id="line2d_23">
    <path clip-path="url(#p71adec2840)" d="M 88.189205 37.14376 
L 141.900434 37.309267 
L 164.280114 37.573105 
L 179.945889 37.971286 
L 191.135729 38.463682 
L 200.0876 39.056778 
L 209.039472 39.905477 
L 215.753376 40.767328 
L 222.467279 41.878205 
L 229.181183 43.298387 
L 233.657119 44.45103 
L 238.133055 45.794775 
L 242.608991 47.354077 
L 247.084926 49.154731 
L 251.560862 51.223506 
L 256.036798 53.587661 
L 260.512734 56.27434 
L 264.98867 59.309821 
L 269.464606 62.718636 
L 273.940541 66.522551 
L 278.416477 70.739427 
L 282.892413 75.381971 
L 287.368349 80.456404 
L 291.844285 85.961088 
L 296.320221 91.88515 
L 300.796156 98.207161 
L 305.272092 104.893929 
L 309.748028 111.899476 
L 316.461932 122.87147 
L 334.365675 152.772347 
L 338.841611 159.792025 
L 343.317547 166.369747 
L 347.793483 172.365915 
L 350.031451 175.102293 
L 352.269418 177.641404 
L 354.507386 179.966732 
L 356.745354 182.062437 
L 358.983322 183.913553 
L 361.22129 185.506184 
L 363.459258 186.827718 
L 365.697226 187.86705 
L 367.935194 188.614813 
L 370.173162 189.063614 
L 372.41113 189.208285 
L 374.649098 189.046134 
L 376.887066 188.577202 
L 379.125033 187.80453 
L 381.363001 186.734418 
L 383.600969 185.376697 
L 385.838937 183.744989 
L 388.076905 181.85697 
L 390.314873 179.73462 
L 392.552841 177.404472 
L 397.028777 172.251006 
L 408.218616 158.554824 
L 410.456584 156.12806 
L 412.694552 153.966175 
L 414.93252 152.148774 
L 417.170488 150.760406 
L 419.408456 149.890137 
L 421.646424 149.630969 
L 423.884392 150.079073 
L 426.12236 151.332773 
L 428.360328 153.491244 
L 430.598295 156.652816 
L 432.836263 160.912776 
L 435.074231 166.360501 
L 437.312199 173.075699 
L 439.550167 181.123489 
L 441.788135 190.548273 
L 444.026103 201.367567 
L 446.264071 213.570309 
L 448.502039 227.128906 
L 450.740007 242.029105 
L 452.977975 258.282754 
L 459.691878 311.635894 
L 461.929846 325.821153 
L 464.167814 333.65267 
L 466.405782 333.227895 
L 468.64375 324.854463 
L 470.881718 310.810362 
L 479.83359 244.144301 
L 482.071557 229.548227 
L 484.309525 216.158367 
L 486.547493 204.051331 
L 488.785461 193.288299 
L 491.023429 183.89663 
L 493.261397 175.867852 
L 495.499365 169.163978 
L 497.737333 163.725168 
L 499.975301 159.476209 
L 502.213269 156.331508 
L 504.451237 154.198886 
L 506.689205 152.982469 
L 508.927172 152.584932 
L 511.16514 152.909232 
L 513.403108 153.859966 
L 515.641076 155.34443 
L 517.879044 157.27344 
L 520.117012 159.561963 
L 522.35498 162.129595 
L 526.830916 167.805661 
L 535.782787 179.543485 
L 538.020755 182.251043 
L 540.258723 184.783768 
L 542.496691 187.108546 
L 544.734659 189.197086 
L 546.972627 191.025703 
L 549.210595 192.575098 
L 551.448563 193.830116 
L 553.686531 194.779498 
L 555.924499 195.415626 
L 558.162467 195.734265 
L 560.400434 195.734301 
L 562.638402 195.417489 
L 564.87637 194.788188 
L 567.114338 193.853114 
L 569.352306 192.62109 
L 571.590274 191.102804 
L 573.828242 189.310581 
L 576.06621 187.258148 
L 578.304178 184.960425 
L 580.542146 182.433314 
L 582.780114 179.693498 
L 587.256049 173.645306 
L 591.731985 166.958169 
L 596.207921 159.7761 
L 602.921825 148.382468 
L 620.825568 117.330391 
L 625.301504 109.968775 
L 629.77744 102.920255 
L 634.253376 96.236301 
L 638.729311 89.954987 
L 643.205247 84.101964 
L 647.681183 78.691645 
L 652.157119 73.728525 
L 656.633055 69.208579 
L 661.108991 65.120672 
L 665.584926 61.447945 
L 670.060862 58.16912 
L 674.536798 55.259712 
L 679.012734 52.69311 
L 683.48867 50.441533 
L 687.964606 48.47684 
L 692.440541 46.7712 
L 696.916477 45.297632 
L 701.392413 44.030416 
L 705.868349 42.945392 
L 712.582253 41.610977 
L 719.296156 40.56889 
L 726.01006 39.761133 
L 734.961932 38.965707 
L 743.913803 38.409048 
L 755.103643 37.94523 
L 768.531451 37.607488 
L 788.673162 37.346838 
L 822.24268 37.186247 
L 849.098295 37.14358 
L 849.098295 37.14358 
" style="fill:none;stroke:#602969;stroke-linecap:square;stroke-width:1.5;"/>
   </g>
   <g id="patch_3">
    <path d="M 50.14375 348.478125 
L 50.14375 22.318125 
" style="fill:none;stroke:#000000;stroke-linecap:square;stroke-linejoin:miter;stroke-width:0.8;"/>
   </g>
   <g id="patch_4">
    <path d="M 887.14375 348.478125 
L 887.14375 22.318125 
" style="fill:none;stroke:#000000;stroke-linecap:square;stroke-linejoin:miter;stroke-width:0.8;"/>
   </g>
   <g id="patch_5">
    <path d="M 50.14375 348.478125 
L 887.14375 348.478125 
" style="fill:none;stroke:#000000;stroke-linecap:square;stroke-linejoin:miter;stroke-width:0.8;"/>
   </g>
   <g id="patch_6">
    <path d="M 50.14375 22.318125 
L 887.14375 22.318125 
" style="fill:none;stroke:#000000;stroke-linecap:square;stroke-linejoin:miter;stroke-width:0.8;"/>
   </g>
   <g id="text_16">
    <!-- Temperature = 100.0  K  ground_B =  0.05 cm-1  ground_C=  0.025 cm-1  Delta_B = 0    Delta_C = 0    zeta = -0.35 -->
    <g transform="translate(120.352188 16.318125)scale(0.12 -0.12)">
     <defs>
      <path d="M -19 4666 
L 3928 4666 
L 3928 4134 
L 2272 4134 
L 2272 0 
L 1638 0 
L 1638 4134 
L -19 4134 
L -19 4666 
z
" id="DejaVuSans-54" transform="scale(0.015625)"/>
      <path d="M 1159 525 
L 1159 -1331 
L 581 -1331 
L 581 3500 
L 1159 3500 
L 1159 2969 
Q 1341 3281 1617 3432 
Q 1894 3584 2278 3584 
Q 2916 3584 3314 3078 
Q 3713 2572 3713 1747 
Q 3713 922 3314 415 
Q 2916 -91 2278 -91 
Q 1894 -91 1617 61 
Q 1341 213 1159 525 
z
M 3116 1747 
Q 3116 2381 2855 2742 
Q 2594 3103 2138 3103 
Q 1681 3103 1420 2742 
Q 1159 2381 1159 1747 
Q 1159 1113 1420 752 
Q 1681 391 2138 391 
Q 2594 391 2855 752 
Q 3116 1113 3116 1747 
z
" id="DejaVuSans-70" transform="scale(0.015625)"/>
      <path d="M 544 1381 
L 544 3500 
L 1119 3500 
L 1119 1403 
Q 1119 906 1312 657 
Q 1506 409 1894 409 
Q 2359 409 2629 706 
Q 2900 1003 2900 1516 
L 2900 3500 
L 3475 3500 
L 3475 0 
L 2900 0 
L 2900 538 
Q 2691 219 2414 64 
Q 2138 -91 1772 -91 
Q 1169 -91 856 284 
Q 544 659 544 1381 
z
M 1991 3584 
L 1991 3584 
z
" id="DejaVuSans-75" transform="scale(0.015625)"/>
      <path d="M 678 2906 
L 4684 2906 
L 4684 2381 
L 678 2381 
L 678 2906 
z
M 678 1631 
L 4684 1631 
L 4684 1100 
L 678 1100 
L 678 1631 
z
" id="DejaVuSans-3d" transform="scale(0.015625)"/>
      <path d="M 628 4666 
L 1259 4666 
L 1259 2694 
L 3353 4666 
L 4166 4666 
L 1850 2491 
L 4331 0 
L 3500 0 
L 1259 2247 
L 1259 0 
L 628 0 
L 628 4666 
z
" id="DejaVuSans-4b" transform="scale(0.015625)"/>
      <path d="M 3263 -1063 
L 3263 -1509 
L -63 -1509 
L -63 -1063 
L 3263 -1063 
z
" id="DejaVuSans-5f" transform="scale(0.015625)"/>
      <path d="M 1259 2228 
L 1259 519 
L 2272 519 
Q 2781 519 3026 730 
Q 3272 941 3272 1375 
Q 3272 1813 3026 2020 
Q 2781 2228 2272 2228 
L 1259 2228 
z
M 1259 4147 
L 1259 2741 
L 2194 2741 
Q 2656 2741 2882 2914 
Q 3109 3088 3109 3444 
Q 3109 3797 2882 3972 
Q 2656 4147 2194 4147 
L 1259 4147 
z
M 628 4666 
L 2241 4666 
Q 2963 4666 3353 4366 
Q 3744 4066 3744 3513 
Q 3744 3084 3544 2831 
Q 3344 2578 2956 2516 
Q 3422 2416 3680 2098 
Q 3938 1781 3938 1306 
Q 3938 681 3513 340 
Q 3088 0 2303 0 
L 628 0 
L 628 4666 
z
" id="DejaVuSans-42" transform="scale(0.015625)"/>
      <path d="M 3122 3366 
L 3122 2828 
Q 2878 2963 2633 3030 
Q 2388 3097 2138 3097 
Q 1578 3097 1268 2742 
Q 959 2388 959 1747 
Q 959 1106 1268 751 
Q 1578 397 2138 397 
Q 2388 397 2633 464 
Q 2878 531 3122 666 
L 3122 134 
Q 2881 22 2623 -34 
Q 2366 -91 2075 -91 
Q 1284 -91 818 406 
Q 353 903 353 1747 
Q 353 2603 823 3093 
Q 1294 3584 2113 3584 
Q 2378 3584 2631 3529 
Q 2884 3475 3122 3366 
z
" id="DejaVuSans-63" transform="scale(0.015625)"/>
      <path d="M 313 2009 
L 1997 2009 
L 1997 1497 
L 313 1497 
L 313 2009 
z
" id="DejaVuSans-2d" transform="scale(0.015625)"/>
      <path d="M 4122 4306 
L 4122 3641 
Q 3803 3938 3442 4084 
Q 3081 4231 2675 4231 
Q 1875 4231 1450 3742 
Q 1025 3253 1025 2328 
Q 1025 1406 1450 917 
Q 1875 428 2675 428 
Q 3081 428 3442 575 
Q 3803 722 4122 1019 
L 4122 359 
Q 3791 134 3420 21 
Q 3050 -91 2638 -91 
Q 1578 -91 968 557 
Q 359 1206 359 2328 
Q 359 3453 968 4101 
Q 1578 4750 2638 4750 
Q 3056 4750 3426 4639 
Q 3797 4528 4122 4306 
z
" id="DejaVuSans-43" transform="scale(0.015625)"/>
      <path d="M 1259 4147 
L 1259 519 
L 2022 519 
Q 2988 519 3436 956 
Q 3884 1394 3884 2338 
Q 3884 3275 3436 3711 
Q 2988 4147 2022 4147 
L 1259 4147 
z
M 628 4666 
L 1925 4666 
Q 3281 4666 3915 4102 
Q 4550 3538 4550 2338 
Q 4550 1131 3912 565 
Q 3275 0 1925 0 
L 628 0 
L 628 4666 
z
" id="DejaVuSans-44" transform="scale(0.015625)"/>
      <path d="M 2597 2516 
Q 3050 2419 3304 2112 
Q 3559 1806 3559 1356 
Q 3559 666 3084 287 
Q 2609 -91 1734 -91 
Q 1441 -91 1130 -33 
Q 819 25 488 141 
L 488 750 
Q 750 597 1062 519 
Q 1375 441 1716 441 
Q 2309 441 2620 675 
Q 2931 909 2931 1356 
Q 2931 1769 2642 2001 
Q 2353 2234 1838 2234 
L 1294 2234 
L 1294 2753 
L 1863 2753 
Q 2328 2753 2575 2939 
Q 2822 3125 2822 3475 
Q 2822 3834 2567 4026 
Q 2313 4219 1838 4219 
Q 1578 4219 1281 4162 
Q 984 4106 628 3988 
L 628 4550 
Q 988 4650 1302 4700 
Q 1616 4750 1894 4750 
Q 2613 4750 3031 4423 
Q 3450 4097 3450 3541 
Q 3450 3153 3228 2886 
Q 3006 2619 2597 2516 
z
" id="DejaVuSans-33" transform="scale(0.015625)"/>
     </defs>
     <use xlink:href="#DejaVuSans-54"/>
     <use x="44.083984" xlink:href="#DejaVuSans-65"/>
     <use x="105.607422" xlink:href="#DejaVuSans-6d"/>
     <use x="203.019531" xlink:href="#DejaVuSans-70"/>
     <use x="266.496094" xlink:href="#DejaVuSans-65"/>
     <use x="328.019531" xlink:href="#DejaVuSans-72"/>
     <use x="369.132812" xlink:href="#DejaVuSans-61"/>
     <use x="430.412109" xlink:href="#DejaVuSans-74"/>
     <use x="469.621094" xlink:href="#DejaVuSans-75"/>
     <use x="533" xlink:href="#DejaVuSans-72"/>
     <use x="571.863281" xlink:href="#DejaVuSans-65"/>
     <use x="633.386719" xlink:href="#DejaVuSans-20"/>
     <use x="665.173828" xlink:href="#DejaVuSans-3d"/>
     <use x="748.962891" xlink:href="#DejaVuSans-20"/>
     <use x="780.75" xlink:href="#DejaVuSans-31"/>
     <use x="844.373047" xlink:href="#DejaVuSans-30"/>
     <use x="907.996094" xlink:href="#DejaVuSans-30"/>
     <use x="971.619141" xlink:href="#DejaVuSans-2e"/>
     <use x="1003.40625" xlink:href="#DejaVuSans-30"/>
     <use x="1067.029297" xlink:href="#DejaVuSans-20"/>
     <use x="1098.816406" xlink:href="#DejaVuSans-20"/>
     <use x="1130.603516" xlink:href="#DejaVuSans-4b"/>
     <use x="1196.179688" xlink:href="#DejaVuSans-20"/>
     <use x="1227.966797" xlink:href="#DejaVuSans-20"/>
     <use x="1259.753906" xlink:href="#DejaVuSans-67"/>
     <use x="1323.230469" xlink:href="#DejaVuSans-72"/>
     <use x="1362.09375" xlink:href="#DejaVuSans-6f"/>
     <use x="1423.275391" xlink:href="#DejaVuSans-75"/>
     <use x="1486.654297" xlink:href="#DejaVuSans-6e"/>
     <use x="1550.033203" xlink:href="#DejaVuSans-64"/>
     <use x="1613.509766" xlink:href="#DejaVuSans-5f"/>
     <use x="1663.509766" xlink:href="#DejaVuSans-42"/>
     <use x="1732.113281" xlink:href="#DejaVuSans-20"/>
     <use x="1763.900391" xlink:href="#DejaVuSans-3d"/>
     <use x="1847.689453" xlink:href="#DejaVuSans-20"/>
     <use x="1879.476562" xlink:href="#DejaVuSans-20"/>
     <use x="1911.263672" xlink:href="#DejaVuSans-30"/>
     <use x="1974.886719" xlink:href="#DejaVuSans-2e"/>
     <use x="2006.673828" xlink:href="#DejaVuSans-30"/>
     <use x="2070.296875" xlink:href="#DejaVuSans-35"/>
     <use x="2133.919922" xlink:href="#DejaVuSans-20"/>
     <use x="2165.707031" xlink:href="#DejaVuSans-63"/>
     <use x="2220.6875" xlink:href="#DejaVuSans-6d"/>
     <use x="2318.099609" xlink:href="#DejaVuSans-2d"/>
     <use x="2354.183594" xlink:href="#DejaVuSans-31"/>
     <use x="2417.806641" xlink:href="#DejaVuSans-20"/>
     <use x="2449.59375" xlink:href="#DejaVuSans-20"/>
     <use x="2481.380859" xlink:href="#DejaVuSans-67"/>
     <use x="2544.857422" xlink:href="#DejaVuSans-72"/>
     <use x="2583.720703" xlink:href="#DejaVuSans-6f"/>
     <use x="2644.902344" xlink:href="#DejaVuSans-75"/>
     <use x="2708.28125" xlink:href="#DejaVuSans-6e"/>
     <use x="2771.660156" xlink:href="#DejaVuSans-64"/>
     <use x="2835.136719" xlink:href="#DejaVuSans-5f"/>
     <use x="2885.136719" xlink:href="#DejaVuSans-43"/>
     <use x="2954.960938" xlink:href="#DejaVuSans-3d"/>
     <use x="3038.75" xlink:href="#DejaVuSans-20"/>
     <use x="3070.537109" xlink:href="#DejaVuSans-20"/>
     <use x="3102.324219" xlink:href="#DejaVuSans-30"/>
     <use x="3165.947266" xlink:href="#DejaVuSans-2e"/>
     <use x="3197.734375" xlink:href="#DejaVuSans-30"/>
     <use x="3261.357422" xlink:href="#DejaVuSans-32"/>
     <use x="3324.980469" xlink:href="#DejaVuSans-35"/>
     <use x="3388.603516" xlink:href="#DejaVuSans-20"/>
     <use x="3420.390625" xlink:href="#DejaVuSans-63"/>
     <use x="3475.371094" xlink:href="#DejaVuSans-6d"/>
     <use x="3572.783203" xlink:href="#DejaVuSans-2d"/>
     <use x="3608.867188" xlink:href="#DejaVuSans-31"/>
     <use x="3672.490234" xlink:href="#DejaVuSans-20"/>
     <use x="3704.277344" xlink:href="#DejaVuSans-20"/>
     <use x="3736.064453" xlink:href="#DejaVuSans-44"/>
     <use x="3813.066406" xlink:href="#DejaVuSans-65"/>
     <use x="3874.589844" xlink:href="#DejaVuSans-6c"/>
     <use x="3902.373047" xlink:href="#DejaVuSans-74"/>
     <use x="3941.582031" xlink:href="#DejaVuSans-61"/>
     <use x="4002.861328" xlink:href="#DejaVuSans-5f"/>
     <use x="4052.861328" xlink:href="#DejaVuSans-42"/>
     <use x="4121.464844" xlink:href="#DejaVuSans-20"/>
     <use x="4153.251953" xlink:href="#DejaVuSans-3d"/>
     <use x="4237.041016" xlink:href="#DejaVuSans-20"/>
     <use x="4268.828125" xlink:href="#DejaVuSans-30"/>
     <use x="4332.451172" xlink:href="#DejaVuSans-20"/>
     <use x="4364.238281" xlink:href="#DejaVuSans-20"/>
     <use x="4396.025391" xlink:href="#DejaVuSans-20"/>
     <use x="4427.8125" xlink:href="#DejaVuSans-20"/>
     <use x="4459.599609" xlink:href="#DejaVuSans-44"/>
     <use x="4536.601562" xlink:href="#DejaVuSans-65"/>
     <use x="4598.125" xlink:href="#DejaVuSans-6c"/>
     <use x="4625.908203" xlink:href="#DejaVuSans-74"/>
     <use x="4665.117188" xlink:href="#DejaVuSans-61"/>
     <use x="4726.396484" xlink:href="#DejaVuSans-5f"/>
     <use x="4776.396484" xlink:href="#DejaVuSans-43"/>
     <use x="4846.220703" xlink:href="#DejaVuSans-20"/>
     <use x="4878.007812" xlink:href="#DejaVuSans-3d"/>
     <use x="4961.796875" xlink:href="#DejaVuSans-20"/>
     <use x="4993.583984" xlink:href="#DejaVuSans-30"/>
     <use x="5057.207031" xlink:href="#DejaVuSans-20"/>
     <use x="5088.994141" xlink:href="#DejaVuSans-20"/>
     <use x="5120.78125" xlink:href="#DejaVuSans-20"/>
     <use x="5152.568359" xlink:href="#DejaVuSans-20"/>
     <use x="5184.355469" xlink:href="#DejaVuSans-7a"/>
     <use x="5236.845703" xlink:href="#DejaVuSans-65"/>
     <use x="5298.369141" xlink:href="#DejaVuSans-74"/>
     <use x="5337.578125" xlink:href="#DejaVuSans-61"/>
     <use x="5398.857422" xlink:href="#DejaVuSans-20"/>
     <use x="5430.644531" xlink:href="#DejaVuSans-3d"/>
     <use x="5514.433594" xlink:href="#DejaVuSans-20"/>
     <use x="5546.220703" xlink:href="#DejaVuSans-2d"/>
     <use x="5582.304688" xlink:href="#DejaVuSans-30"/>
     <use x="5645.927734" xlink:href="#DejaVuSans-2e"/>
     <use x="5677.714844" xlink:href="#DejaVuSans-33"/>
     <use x="5741.337891" xlink:href="#DejaVuSans-35"/>
    </g>
   </g>
   <g id="legend_1">
    <g id="patch_7">
     <path d="M 57.14375 343.478125 
L 200.484375 343.478125 
Q 202.484375 343.478125 202.484375 341.478125 
L 202.484375 180.740625 
Q 202.484375 178.740625 200.484375 178.740625 
L 57.14375 178.740625 
Q 55.14375 178.740625 55.14375 180.740625 
L 55.14375 341.478125 
Q 55.14375 343.478125 57.14375 343.478125 
z
" style="fill:#ffffff;opacity:0.8;stroke:#cccccc;stroke-linejoin:miter;"/>
    </g>
    <g id="text_17">
     <!-- peak_sep -->
     <g transform="translate(105.248438 190.339062)scale(0.1 -0.1)">
      <defs>
       <path d="M 581 4863 
L 1159 4863 
L 1159 1991 
L 2875 3500 
L 3609 3500 
L 1753 1863 
L 3688 0 
L 2938 0 
L 1159 1709 
L 1159 0 
L 581 0 
L 581 4863 
z
" id="DejaVuSans-6b" transform="scale(0.015625)"/>
      </defs>
      <use xlink:href="#DejaVuSans-70"/>
      <use x="63.476562" xlink:href="#DejaVuSans-65"/>
      <use x="125" xlink:href="#DejaVuSans-61"/>
      <use x="186.279297" xlink:href="#DejaVuSans-6b"/>
      <use x="244.189453" xlink:href="#DejaVuSans-5f"/>
      <use x="294.189453" xlink:href="#DejaVuSans-73"/>
      <use x="346.289062" xlink:href="#DejaVuSans-65"/>
      <use x="407.8125" xlink:href="#DejaVuSans-70"/>
     </g>
    </g>
    <g id="line2d_24">
     <path d="M 59.14375 201.795312 
L 79.14375 201.795312 
" style="fill:none;stroke:#eb9973;stroke-linecap:square;stroke-width:1.5;"/>
    </g>
    <g id="line2d_25"/>
    <g id="text_18">
     <!-- 2.1202752752752687 -->
     <g transform="translate(87.14375 205.295312)scale(0.1 -0.1)">
      <defs>
       <path d="M 525 4666 
L 3525 4666 
L 3525 4397 
L 1831 0 
L 1172 0 
L 2766 4134 
L 525 4134 
L 525 4666 
z
" id="DejaVuSans-37" transform="scale(0.015625)"/>
      </defs>
      <use xlink:href="#DejaVuSans-32"/>
      <use x="63.623047" xlink:href="#DejaVuSans-2e"/>
      <use x="95.410156" xlink:href="#DejaVuSans-31"/>
      <use x="159.033203" xlink:href="#DejaVuSans-32"/>
      <use x="222.65625" xlink:href="#DejaVuSans-30"/>
      <use x="286.279297" xlink:href="#DejaVuSans-32"/>
      <use x="349.902344" xlink:href="#DejaVuSans-37"/>
      <use x="413.525391" xlink:href="#DejaVuSans-35"/>
      <use x="477.148438" xlink:href="#DejaVuSans-32"/>
      <use x="540.771484" xlink:href="#DejaVuSans-37"/>
      <use x="604.394531" xlink:href="#DejaVuSans-35"/>
      <use x="668.017578" xlink:href="#DejaVuSans-32"/>
      <use x="731.640625" xlink:href="#DejaVuSans-37"/>
      <use x="795.263672" xlink:href="#DejaVuSans-35"/>
      <use x="858.886719" xlink:href="#DejaVuSans-32"/>
      <use x="922.509766" xlink:href="#DejaVuSans-36"/>
      <use x="986.132812" xlink:href="#DejaVuSans-38"/>
      <use x="1049.755859" xlink:href="#DejaVuSans-37"/>
     </g>
    </g>
    <g id="line2d_26">
     <path d="M 59.14375 216.473437 
L 79.14375 216.473437 
" style="fill:none;stroke:#e88366;stroke-linecap:square;stroke-width:1.5;"/>
    </g>
    <g id="line2d_27"/>
    <g id="text_19">
     <!-- 3.017314814814803 -->
     <g transform="translate(87.14375 219.973437)scale(0.1 -0.1)">
      <use xlink:href="#DejaVuSans-33"/>
      <use x="63.623047" xlink:href="#DejaVuSans-2e"/>
      <use x="95.410156" xlink:href="#DejaVuSans-30"/>
      <use x="159.033203" xlink:href="#DejaVuSans-31"/>
      <use x="222.65625" xlink:href="#DejaVuSans-37"/>
      <use x="286.279297" xlink:href="#DejaVuSans-33"/>
      <use x="349.902344" xlink:href="#DejaVuSans-31"/>
      <use x="413.525391" xlink:href="#DejaVuSans-34"/>
      <use x="477.148438" xlink:href="#DejaVuSans-38"/>
      <use x="540.771484" xlink:href="#DejaVuSans-31"/>
      <use x="604.394531" xlink:href="#DejaVuSans-34"/>
      <use x="668.017578" xlink:href="#DejaVuSans-38"/>
      <use x="731.640625" xlink:href="#DejaVuSans-31"/>
      <use x="795.263672" xlink:href="#DejaVuSans-34"/>
      <use x="858.886719" xlink:href="#DejaVuSans-38"/>
      <use x="922.509766" xlink:href="#DejaVuSans-30"/>
      <use x="986.132812" xlink:href="#DejaVuSans-33"/>
     </g>
    </g>
    <g id="line2d_28">
     <path d="M 59.14375 231.151562 
L 79.14375 231.151562 
" style="fill:none;stroke:#e46c5d;stroke-linecap:square;stroke-width:1.5;"/>
    </g>
    <g id="line2d_29"/>
    <g id="text_20">
     <!-- 3.751256256256241 -->
     <g transform="translate(87.14375 234.651562)scale(0.1 -0.1)">
      <use xlink:href="#DejaVuSans-33"/>
      <use x="63.623047" xlink:href="#DejaVuSans-2e"/>
      <use x="95.410156" xlink:href="#DejaVuSans-37"/>
      <use x="159.033203" xlink:href="#DejaVuSans-35"/>
      <use x="222.65625" xlink:href="#DejaVuSans-31"/>
      <use x="286.279297" xlink:href="#DejaVuSans-32"/>
      <use x="349.902344" xlink:href="#DejaVuSans-35"/>
      <use x="413.525391" xlink:href="#DejaVuSans-36"/>
      <use x="477.148438" xlink:href="#DejaVuSans-32"/>
      <use x="540.771484" xlink:href="#DejaVuSans-35"/>
      <use x="604.394531" xlink:href="#DejaVuSans-36"/>
      <use x="668.017578" xlink:href="#DejaVuSans-32"/>
      <use x="731.640625" xlink:href="#DejaVuSans-35"/>
      <use x="795.263672" xlink:href="#DejaVuSans-36"/>
      <use x="858.886719" xlink:href="#DejaVuSans-32"/>
      <use x="922.509766" xlink:href="#DejaVuSans-34"/>
      <use x="986.132812" xlink:href="#DejaVuSans-31"/>
     </g>
    </g>
    <g id="line2d_30">
     <path d="M 59.14375 245.829687 
L 79.14375 245.829687 
" style="fill:none;stroke:#db565d;stroke-linecap:square;stroke-width:1.5;"/>
    </g>
    <g id="line2d_31"/>
    <g id="text_21">
     <!-- 4.322099599599582 -->
     <g transform="translate(87.14375 249.329687)scale(0.1 -0.1)">
      <use xlink:href="#DejaVuSans-34"/>
      <use x="63.623047" xlink:href="#DejaVuSans-2e"/>
      <use x="95.410156" xlink:href="#DejaVuSans-33"/>
      <use x="159.033203" xlink:href="#DejaVuSans-32"/>
      <use x="222.65625" xlink:href="#DejaVuSans-32"/>
      <use x="286.279297" xlink:href="#DejaVuSans-30"/>
      <use x="349.902344" xlink:href="#DejaVuSans-39"/>
      <use x="413.525391" xlink:href="#DejaVuSans-39"/>
      <use x="477.148438" xlink:href="#DejaVuSans-35"/>
      <use x="540.771484" xlink:href="#DejaVuSans-39"/>
      <use x="604.394531" xlink:href="#DejaVuSans-39"/>
      <use x="668.017578" xlink:href="#DejaVuSans-35"/>
      <use x="731.640625" xlink:href="#DejaVuSans-39"/>
      <use x="795.263672" xlink:href="#DejaVuSans-39"/>
      <use x="858.886719" xlink:href="#DejaVuSans-35"/>
      <use x="922.509766" xlink:href="#DejaVuSans-38"/>
      <use x="986.132812" xlink:href="#DejaVuSans-32"/>
     </g>
    </g>
    <g id="line2d_32">
     <path d="M 59.14375 260.507812 
L 79.14375 260.507812 
" style="fill:none;stroke:#cc4664;stroke-linecap:square;stroke-width:1.5;"/>
    </g>
    <g id="line2d_33"/>
    <g id="text_22">
     <!-- 4.811393893893879 -->
     <g transform="translate(87.14375 264.007812)scale(0.1 -0.1)">
      <use xlink:href="#DejaVuSans-34"/>
      <use x="63.623047" xlink:href="#DejaVuSans-2e"/>
      <use x="95.410156" xlink:href="#DejaVuSans-38"/>
      <use x="159.033203" xlink:href="#DejaVuSans-31"/>
      <use x="222.65625" xlink:href="#DejaVuSans-31"/>
      <use x="286.279297" xlink:href="#DejaVuSans-33"/>
      <use x="349.902344" xlink:href="#DejaVuSans-39"/>
      <use x="413.525391" xlink:href="#DejaVuSans-33"/>
      <use x="477.148438" xlink:href="#DejaVuSans-38"/>
      <use x="540.771484" xlink:href="#DejaVuSans-39"/>
      <use x="604.394531" xlink:href="#DejaVuSans-33"/>
      <use x="668.017578" xlink:href="#DejaVuSans-38"/>
      <use x="731.640625" xlink:href="#DejaVuSans-39"/>
      <use x="795.263672" xlink:href="#DejaVuSans-33"/>
      <use x="858.886719" xlink:href="#DejaVuSans-38"/>
      <use x="922.509766" xlink:href="#DejaVuSans-37"/>
      <use x="986.132812" xlink:href="#DejaVuSans-39"/>
     </g>
    </g>
    <g id="line2d_34">
     <path d="M 59.14375 275.185937 
L 79.14375 275.185937 
" style="fill:none;stroke:#b73d6b;stroke-linecap:square;stroke-width:1.5;"/>
    </g>
    <g id="line2d_35"/>
    <g id="text_23">
     <!-- 5.300688188188175 -->
     <g transform="translate(87.14375 278.685937)scale(0.1 -0.1)">
      <use xlink:href="#DejaVuSans-35"/>
      <use x="63.623047" xlink:href="#DejaVuSans-2e"/>
      <use x="95.410156" xlink:href="#DejaVuSans-33"/>
      <use x="159.033203" xlink:href="#DejaVuSans-30"/>
      <use x="222.65625" xlink:href="#DejaVuSans-30"/>
      <use x="286.279297" xlink:href="#DejaVuSans-36"/>
      <use x="349.902344" xlink:href="#DejaVuSans-38"/>
      <use x="413.525391" xlink:href="#DejaVuSans-38"/>
      <use x="477.148438" xlink:href="#DejaVuSans-31"/>
      <use x="540.771484" xlink:href="#DejaVuSans-38"/>
      <use x="604.394531" xlink:href="#DejaVuSans-38"/>
      <use x="668.017578" xlink:href="#DejaVuSans-31"/>
      <use x="731.640625" xlink:href="#DejaVuSans-38"/>
      <use x="795.263672" xlink:href="#DejaVuSans-38"/>
      <use x="858.886719" xlink:href="#DejaVuSans-31"/>
      <use x="922.509766" xlink:href="#DejaVuSans-37"/>
      <use x="986.132812" xlink:href="#DejaVuSans-35"/>
     </g>
    </g>
    <g id="line2d_36">
     <path d="M 59.14375 289.864062 
L 79.14375 289.864062 
" style="fill:none;stroke:#a1386f;stroke-linecap:square;stroke-width:1.5;"/>
    </g>
    <g id="line2d_37"/>
    <g id="text_24">
     <!-- 5.708433433433413 -->
     <g transform="translate(87.14375 293.364062)scale(0.1 -0.1)">
      <use xlink:href="#DejaVuSans-35"/>
      <use x="63.623047" xlink:href="#DejaVuSans-2e"/>
      <use x="95.410156" xlink:href="#DejaVuSans-37"/>
      <use x="159.033203" xlink:href="#DejaVuSans-30"/>
      <use x="222.65625" xlink:href="#DejaVuSans-38"/>
      <use x="286.279297" xlink:href="#DejaVuSans-34"/>
      <use x="349.902344" xlink:href="#DejaVuSans-33"/>
      <use x="413.525391" xlink:href="#DejaVuSans-33"/>
      <use x="477.148438" xlink:href="#DejaVuSans-34"/>
      <use x="540.771484" xlink:href="#DejaVuSans-33"/>
      <use x="604.394531" xlink:href="#DejaVuSans-33"/>
      <use x="668.017578" xlink:href="#DejaVuSans-34"/>
      <use x="731.640625" xlink:href="#DejaVuSans-33"/>
      <use x="795.263672" xlink:href="#DejaVuSans-33"/>
      <use x="858.886719" xlink:href="#DejaVuSans-34"/>
      <use x="922.509766" xlink:href="#DejaVuSans-31"/>
      <use x="986.132812" xlink:href="#DejaVuSans-33"/>
     </g>
    </g>
    <g id="line2d_38">
     <path d="M 59.14375 304.542187 
L 79.14375 304.542187 
" style="fill:none;stroke:#8b3271;stroke-linecap:square;stroke-width:1.5;"/>
    </g>
    <g id="line2d_39"/>
    <g id="text_25">
     <!-- 6.116178678678658 -->
     <g transform="translate(87.14375 308.042187)scale(0.1 -0.1)">
      <use xlink:href="#DejaVuSans-36"/>
      <use x="63.623047" xlink:href="#DejaVuSans-2e"/>
      <use x="95.410156" xlink:href="#DejaVuSans-31"/>
      <use x="159.033203" xlink:href="#DejaVuSans-31"/>
      <use x="222.65625" xlink:href="#DejaVuSans-36"/>
      <use x="286.279297" xlink:href="#DejaVuSans-31"/>
      <use x="349.902344" xlink:href="#DejaVuSans-37"/>
      <use x="413.525391" xlink:href="#DejaVuSans-38"/>
      <use x="477.148438" xlink:href="#DejaVuSans-36"/>
      <use x="540.771484" xlink:href="#DejaVuSans-37"/>
      <use x="604.394531" xlink:href="#DejaVuSans-38"/>
      <use x="668.017578" xlink:href="#DejaVuSans-36"/>
      <use x="731.640625" xlink:href="#DejaVuSans-37"/>
      <use x="795.263672" xlink:href="#DejaVuSans-38"/>
      <use x="858.886719" xlink:href="#DejaVuSans-36"/>
      <use x="922.509766" xlink:href="#DejaVuSans-35"/>
      <use x="986.132812" xlink:href="#DejaVuSans-38"/>
     </g>
    </g>
    <g id="line2d_40">
     <path d="M 59.14375 319.220312 
L 79.14375 319.220312 
" style="fill:none;stroke:#752d6f;stroke-linecap:square;stroke-width:1.5;"/>
    </g>
    <g id="line2d_41"/>
    <g id="text_26">
     <!-- 6.442374874874858 -->
     <g transform="translate(87.14375 322.720312)scale(0.1 -0.1)">
      <use xlink:href="#DejaVuSans-36"/>
      <use x="63.623047" xlink:href="#DejaVuSans-2e"/>
      <use x="95.410156" xlink:href="#DejaVuSans-34"/>
      <use x="159.033203" xlink:href="#DejaVuSans-34"/>
      <use x="222.65625" xlink:href="#DejaVuSans-32"/>
      <use x="286.279297" xlink:href="#DejaVuSans-33"/>
      <use x="349.902344" xlink:href="#DejaVuSans-37"/>
      <use x="413.525391" xlink:href="#DejaVuSans-34"/>
      <use x="477.148438" xlink:href="#DejaVuSans-38"/>
      <use x="540.771484" xlink:href="#DejaVuSans-37"/>
      <use x="604.394531" xlink:href="#DejaVuSans-34"/>
      <use x="668.017578" xlink:href="#DejaVuSans-38"/>
      <use x="731.640625" xlink:href="#DejaVuSans-37"/>
      <use x="795.263672" xlink:href="#DejaVuSans-34"/>
      <use x="858.886719" xlink:href="#DejaVuSans-38"/>
      <use x="922.509766" xlink:href="#DejaVuSans-35"/>
      <use x="986.132812" xlink:href="#DejaVuSans-38"/>
     </g>
    </g>
    <g id="line2d_42">
     <path d="M 59.14375 333.898437 
L 79.14375 333.898437 
" style="fill:none;stroke:#602969;stroke-linecap:square;stroke-width:1.5;"/>
    </g>
    <g id="line2d_43"/>
    <g id="text_27">
     <!-- 6.850120120120096 -->
     <g transform="translate(87.14375 337.398437)scale(0.1 -0.1)">
      <use xlink:href="#DejaVuSans-36"/>
      <use x="63.623047" xlink:href="#DejaVuSans-2e"/>
      <use x="95.410156" xlink:href="#DejaVuSans-38"/>
      <use x="159.033203" xlink:href="#DejaVuSans-35"/>
      <use x="222.65625" xlink:href="#DejaVuSans-30"/>
      <use x="286.279297" xlink:href="#DejaVuSans-31"/>
      <use x="349.902344" xlink:href="#DejaVuSans-32"/>
      <use x="413.525391" xlink:href="#DejaVuSans-30"/>
      <use x="477.148438" xlink:href="#DejaVuSans-31"/>
      <use x="540.771484" xlink:href="#DejaVuSans-32"/>
      <use x="604.394531" xlink:href="#DejaVuSans-30"/>
      <use x="668.017578" xlink:href="#DejaVuSans-31"/>
      <use x="731.640625" xlink:href="#DejaVuSans-32"/>
      <use x="795.263672" xlink:href="#DejaVuSans-30"/>
      <use x="858.886719" xlink:href="#DejaVuSans-30"/>
      <use x="922.509766" xlink:href="#DejaVuSans-39"/>
      <use x="986.132812" xlink:href="#DejaVuSans-36"/>
     </g>
    </g>
   </g>
  </g>
 </g>
 <defs>
  <clipPath id="p71adec2840">
   <rect height="326.16" width="837" x="50.14375" y="22.318125"/>
  </clipPath>
 </defs>
</svg>
