<?xml version="1.0" encoding="utf-8" standalone="no"?>
<!DOCTYPE svg PUBLIC "-//W3C//DTD SVG 1.1//EN"
  "http://www.w3.org/Graphics/SVG/1.1/DTD/svg11.dtd">
<svg height="508.577656pt" version="1.1" viewBox="0 0 910.315625 508.577656" width="910.315625pt" xmlns="http://www.w3.org/2000/svg" xmlns:xlink="http://www.w3.org/1999/xlink">
 <metadata>
  <rdf:RDF xmlns:cc="http://creativecommons.org/ns#" xmlns:dc="http://purl.org/dc/elements/1.1/" xmlns:rdf="http://www.w3.org/1999/02/22-rdf-syntax-ns#">
   <cc:Work>
    <dc:type rdf:resource="http://purl.org/dc/dcmitype/StillImage"/>
    <dc:date>2022-12-14T14:44:54.094975</dc:date>
    <dc:format>image/svg+xml</dc:format>
    <dc:creator>
     <cc:Agent>
      <dc:title>Matplotlib v3.4.3, https://matplotlib.org/</dc:title>
     </cc:Agent>
    </dc:creator>
   </cc:Work>
  </rdf:RDF>
 </metadata>
 <defs>
  <style type="text/css">*{stroke-linecap:butt;stroke-linejoin:round;}</style>
 </defs>
 <g id="figure_1">
  <g id="patch_1">
   <path d="M 0 508.577656 
L 910.315625 508.577656 
L 910.315625 0 
L 0 0 
z
" style="fill:#ffffff;"/>
  </g>
  <g id="axes_1">
   <g id="patch_2">
    <path d="M 66.115625 460.260469 
L 903.115625 460.260469 
L 903.115625 25.380469 
L 66.115625 25.380469 
z
" style="fill:#ffffff;"/>
   </g>
   <g id="matplotlib.axis_1">
    <g id="xtick_1">
     <g id="line2d_1">
      <defs>
       <path d="M 0 0 
L 0 3.5 
" id="mb22badc59c" style="stroke:#000000;stroke-width:0.8;"/>
      </defs>
      <g>
       <use style="stroke:#000000;stroke-width:0.8;" x="141.860312" xlink:href="#mb22badc59c" y="460.260469"/>
      </g>
     </g>
     <g id="text_1">
      <!-- −3 -->
      <g transform="translate(130.803672 478.658125)scale(0.15 -0.15)">
       <defs>
        <path d="M 678 2272 
L 4684 2272 
L 4684 1741 
L 678 1741 
L 678 2272 
z
" id="DejaVuSans-2212" transform="scale(0.015625)"/>
        <path d="M 2597 2516 
Q 3050 2419 3304 2112 
Q 3559 1806 3559 1356 
Q 3559 666 3084 287 
Q 2609 -91 1734 -91 
Q 1441 -91 1130 -33 
Q 819 25 488 141 
L 488 750 
Q 750 597 1062 519 
Q 1375 441 1716 441 
Q 2309 441 2620 675 
Q 2931 909 2931 1356 
Q 2931 1769 2642 2001 
Q 2353 2234 1838 2234 
L 1294 2234 
L 1294 2753 
L 1863 2753 
Q 2328 2753 2575 2939 
Q 2822 3125 2822 3475 
Q 2822 3834 2567 4026 
Q 2313 4219 1838 4219 
Q 1578 4219 1281 4162 
Q 984 4106 628 3988 
L 628 4550 
Q 988 4650 1302 4700 
Q 1616 4750 1894 4750 
Q 2613 4750 3031 4423 
Q 3450 4097 3450 3541 
Q 3450 3153 3228 2886 
Q 3006 2619 2597 2516 
z
" id="DejaVuSans-33" transform="scale(0.015625)"/>
       </defs>
       <use xlink:href="#DejaVuSans-2212"/>
       <use x="83.789062" xlink:href="#DejaVuSans-33"/>
      </g>
     </g>
    </g>
    <g id="xtick_2">
     <g id="line2d_2">
      <g>
       <use style="stroke:#000000;stroke-width:0.8;" x="272.946355" xlink:href="#mb22badc59c" y="460.260469"/>
      </g>
     </g>
     <g id="text_2">
      <!-- −2 -->
      <g transform="translate(261.889714 478.658125)scale(0.15 -0.15)">
       <defs>
        <path d="M 1228 531 
L 3431 531 
L 3431 0 
L 469 0 
L 469 531 
Q 828 903 1448 1529 
Q 2069 2156 2228 2338 
Q 2531 2678 2651 2914 
Q 2772 3150 2772 3378 
Q 2772 3750 2511 3984 
Q 2250 4219 1831 4219 
Q 1534 4219 1204 4116 
Q 875 4013 500 3803 
L 500 4441 
Q 881 4594 1212 4672 
Q 1544 4750 1819 4750 
Q 2544 4750 2975 4387 
Q 3406 4025 3406 3419 
Q 3406 3131 3298 2873 
Q 3191 2616 2906 2266 
Q 2828 2175 2409 1742 
Q 1991 1309 1228 531 
z
" id="DejaVuSans-32" transform="scale(0.015625)"/>
       </defs>
       <use xlink:href="#DejaVuSans-2212"/>
       <use x="83.789062" xlink:href="#DejaVuSans-32"/>
      </g>
     </g>
    </g>
    <g id="xtick_3">
     <g id="line2d_3">
      <g>
       <use style="stroke:#000000;stroke-width:0.8;" x="404.032398" xlink:href="#mb22badc59c" y="460.260469"/>
      </g>
     </g>
     <g id="text_3">
      <!-- −1 -->
      <g transform="translate(392.975757 478.658125)scale(0.15 -0.15)">
       <defs>
        <path d="M 794 531 
L 1825 531 
L 1825 4091 
L 703 3866 
L 703 4441 
L 1819 4666 
L 2450 4666 
L 2450 531 
L 3481 531 
L 3481 0 
L 794 0 
L 794 531 
z
" id="DejaVuSans-31" transform="scale(0.015625)"/>
       </defs>
       <use xlink:href="#DejaVuSans-2212"/>
       <use x="83.789062" xlink:href="#DejaVuSans-31"/>
      </g>
     </g>
    </g>
    <g id="xtick_4">
     <g id="line2d_4">
      <g>
       <use style="stroke:#000000;stroke-width:0.8;" x="535.118441" xlink:href="#mb22badc59c" y="460.260469"/>
      </g>
     </g>
     <g id="text_4">
      <!-- 0 -->
      <g transform="translate(530.346566 478.658125)scale(0.15 -0.15)">
       <defs>
        <path d="M 2034 4250 
Q 1547 4250 1301 3770 
Q 1056 3291 1056 2328 
Q 1056 1369 1301 889 
Q 1547 409 2034 409 
Q 2525 409 2770 889 
Q 3016 1369 3016 2328 
Q 3016 3291 2770 3770 
Q 2525 4250 2034 4250 
z
M 2034 4750 
Q 2819 4750 3233 4129 
Q 3647 3509 3647 2328 
Q 3647 1150 3233 529 
Q 2819 -91 2034 -91 
Q 1250 -91 836 529 
Q 422 1150 422 2328 
Q 422 3509 836 4129 
Q 1250 4750 2034 4750 
z
" id="DejaVuSans-30" transform="scale(0.015625)"/>
       </defs>
       <use xlink:href="#DejaVuSans-30"/>
      </g>
     </g>
    </g>
    <g id="xtick_5">
     <g id="line2d_5">
      <g>
       <use style="stroke:#000000;stroke-width:0.8;" x="666.204484" xlink:href="#mb22badc59c" y="460.260469"/>
      </g>
     </g>
     <g id="text_5">
      <!-- 1 -->
      <g transform="translate(661.432609 478.658125)scale(0.15 -0.15)">
       <use xlink:href="#DejaVuSans-31"/>
      </g>
     </g>
    </g>
    <g id="xtick_6">
     <g id="line2d_6">
      <g>
       <use style="stroke:#000000;stroke-width:0.8;" x="797.290526" xlink:href="#mb22badc59c" y="460.260469"/>
      </g>
     </g>
     <g id="text_6">
      <!-- 2 -->
      <g transform="translate(792.518651 478.658125)scale(0.15 -0.15)">
       <use xlink:href="#DejaVuSans-32"/>
      </g>
     </g>
    </g>
    <g id="xtick_7">
     <g id="line2d_7">
      <defs>
       <path d="M 0 0 
L 0 2 
" id="mecc7abb942" style="stroke:#000000;stroke-width:0.6;"/>
      </defs>
      <g>
       <use style="stroke:#000000;stroke-width:0.6;" x="76.317291" xlink:href="#mecc7abb942" y="460.260469"/>
      </g>
     </g>
    </g>
    <g id="xtick_8">
     <g id="line2d_8">
      <g>
       <use style="stroke:#000000;stroke-width:0.6;" x="207.403334" xlink:href="#mecc7abb942" y="460.260469"/>
      </g>
     </g>
    </g>
    <g id="xtick_9">
     <g id="line2d_9">
      <g>
       <use style="stroke:#000000;stroke-width:0.6;" x="338.489376" xlink:href="#mecc7abb942" y="460.260469"/>
      </g>
     </g>
    </g>
    <g id="xtick_10">
     <g id="line2d_10">
      <g>
       <use style="stroke:#000000;stroke-width:0.6;" x="469.575419" xlink:href="#mecc7abb942" y="460.260469"/>
      </g>
     </g>
    </g>
    <g id="xtick_11">
     <g id="line2d_11">
      <g>
       <use style="stroke:#000000;stroke-width:0.6;" x="600.661462" xlink:href="#mecc7abb942" y="460.260469"/>
      </g>
     </g>
    </g>
    <g id="xtick_12">
     <g id="line2d_12">
      <g>
       <use style="stroke:#000000;stroke-width:0.6;" x="731.747505" xlink:href="#mecc7abb942" y="460.260469"/>
      </g>
     </g>
    </g>
    <g id="xtick_13">
     <g id="line2d_13">
      <g>
       <use style="stroke:#000000;stroke-width:0.6;" x="862.833548" xlink:href="#mecc7abb942" y="460.260469"/>
      </g>
     </g>
    </g>
    <g id="text_7">
     <!-- Wavenumber (in cm$^{-1}$) -->
     <g transform="translate(397.315625 498.258125)scale(0.15 -0.15)">
      <defs>
       <path d="M 213 4666 
L 850 4666 
L 1831 722 
L 2809 4666 
L 3519 4666 
L 4500 722 
L 5478 4666 
L 6119 4666 
L 4947 0 
L 4153 0 
L 3169 4050 
L 2175 0 
L 1381 0 
L 213 4666 
z
" id="DejaVuSans-57" transform="scale(0.015625)"/>
       <path d="M 2194 1759 
Q 1497 1759 1228 1600 
Q 959 1441 959 1056 
Q 959 750 1161 570 
Q 1363 391 1709 391 
Q 2188 391 2477 730 
Q 2766 1069 2766 1631 
L 2766 1759 
L 2194 1759 
z
M 3341 1997 
L 3341 0 
L 2766 0 
L 2766 531 
Q 2569 213 2275 61 
Q 1981 -91 1556 -91 
Q 1019 -91 701 211 
Q 384 513 384 1019 
Q 384 1609 779 1909 
Q 1175 2209 1959 2209 
L 2766 2209 
L 2766 2266 
Q 2766 2663 2505 2880 
Q 2244 3097 1772 3097 
Q 1472 3097 1187 3025 
Q 903 2953 641 2809 
L 641 3341 
Q 956 3463 1253 3523 
Q 1550 3584 1831 3584 
Q 2591 3584 2966 3190 
Q 3341 2797 3341 1997 
z
" id="DejaVuSans-61" transform="scale(0.015625)"/>
       <path d="M 191 3500 
L 800 3500 
L 1894 563 
L 2988 3500 
L 3597 3500 
L 2284 0 
L 1503 0 
L 191 3500 
z
" id="DejaVuSans-76" transform="scale(0.015625)"/>
       <path d="M 3597 1894 
L 3597 1613 
L 953 1613 
Q 991 1019 1311 708 
Q 1631 397 2203 397 
Q 2534 397 2845 478 
Q 3156 559 3463 722 
L 3463 178 
Q 3153 47 2828 -22 
Q 2503 -91 2169 -91 
Q 1331 -91 842 396 
Q 353 884 353 1716 
Q 353 2575 817 3079 
Q 1281 3584 2069 3584 
Q 2775 3584 3186 3129 
Q 3597 2675 3597 1894 
z
M 3022 2063 
Q 3016 2534 2758 2815 
Q 2500 3097 2075 3097 
Q 1594 3097 1305 2825 
Q 1016 2553 972 2059 
L 3022 2063 
z
" id="DejaVuSans-65" transform="scale(0.015625)"/>
       <path d="M 3513 2113 
L 3513 0 
L 2938 0 
L 2938 2094 
Q 2938 2591 2744 2837 
Q 2550 3084 2163 3084 
Q 1697 3084 1428 2787 
Q 1159 2491 1159 1978 
L 1159 0 
L 581 0 
L 581 3500 
L 1159 3500 
L 1159 2956 
Q 1366 3272 1645 3428 
Q 1925 3584 2291 3584 
Q 2894 3584 3203 3211 
Q 3513 2838 3513 2113 
z
" id="DejaVuSans-6e" transform="scale(0.015625)"/>
       <path d="M 544 1381 
L 544 3500 
L 1119 3500 
L 1119 1403 
Q 1119 906 1312 657 
Q 1506 409 1894 409 
Q 2359 409 2629 706 
Q 2900 1003 2900 1516 
L 2900 3500 
L 3475 3500 
L 3475 0 
L 2900 0 
L 2900 538 
Q 2691 219 2414 64 
Q 2138 -91 1772 -91 
Q 1169 -91 856 284 
Q 544 659 544 1381 
z
M 1991 3584 
L 1991 3584 
z
" id="DejaVuSans-75" transform="scale(0.015625)"/>
       <path d="M 3328 2828 
Q 3544 3216 3844 3400 
Q 4144 3584 4550 3584 
Q 5097 3584 5394 3201 
Q 5691 2819 5691 2113 
L 5691 0 
L 5113 0 
L 5113 2094 
Q 5113 2597 4934 2840 
Q 4756 3084 4391 3084 
Q 3944 3084 3684 2787 
Q 3425 2491 3425 1978 
L 3425 0 
L 2847 0 
L 2847 2094 
Q 2847 2600 2669 2842 
Q 2491 3084 2119 3084 
Q 1678 3084 1418 2786 
Q 1159 2488 1159 1978 
L 1159 0 
L 581 0 
L 581 3500 
L 1159 3500 
L 1159 2956 
Q 1356 3278 1631 3431 
Q 1906 3584 2284 3584 
Q 2666 3584 2933 3390 
Q 3200 3197 3328 2828 
z
" id="DejaVuSans-6d" transform="scale(0.015625)"/>
       <path d="M 3116 1747 
Q 3116 2381 2855 2742 
Q 2594 3103 2138 3103 
Q 1681 3103 1420 2742 
Q 1159 2381 1159 1747 
Q 1159 1113 1420 752 
Q 1681 391 2138 391 
Q 2594 391 2855 752 
Q 3116 1113 3116 1747 
z
M 1159 2969 
Q 1341 3281 1617 3432 
Q 1894 3584 2278 3584 
Q 2916 3584 3314 3078 
Q 3713 2572 3713 1747 
Q 3713 922 3314 415 
Q 2916 -91 2278 -91 
Q 1894 -91 1617 61 
Q 1341 213 1159 525 
L 1159 0 
L 581 0 
L 581 4863 
L 1159 4863 
L 1159 2969 
z
" id="DejaVuSans-62" transform="scale(0.015625)"/>
       <path d="M 2631 2963 
Q 2534 3019 2420 3045 
Q 2306 3072 2169 3072 
Q 1681 3072 1420 2755 
Q 1159 2438 1159 1844 
L 1159 0 
L 581 0 
L 581 3500 
L 1159 3500 
L 1159 2956 
Q 1341 3275 1631 3429 
Q 1922 3584 2338 3584 
Q 2397 3584 2469 3576 
Q 2541 3569 2628 3553 
L 2631 2963 
z
" id="DejaVuSans-72" transform="scale(0.015625)"/>
       <path id="DejaVuSans-20" transform="scale(0.015625)"/>
       <path d="M 1984 4856 
Q 1566 4138 1362 3434 
Q 1159 2731 1159 2009 
Q 1159 1288 1364 580 
Q 1569 -128 1984 -844 
L 1484 -844 
Q 1016 -109 783 600 
Q 550 1309 550 2009 
Q 550 2706 781 3412 
Q 1013 4119 1484 4856 
L 1984 4856 
z
" id="DejaVuSans-28" transform="scale(0.015625)"/>
       <path d="M 603 3500 
L 1178 3500 
L 1178 0 
L 603 0 
L 603 3500 
z
M 603 4863 
L 1178 4863 
L 1178 4134 
L 603 4134 
L 603 4863 
z
" id="DejaVuSans-69" transform="scale(0.015625)"/>
       <path d="M 3122 3366 
L 3122 2828 
Q 2878 2963 2633 3030 
Q 2388 3097 2138 3097 
Q 1578 3097 1268 2742 
Q 959 2388 959 1747 
Q 959 1106 1268 751 
Q 1578 397 2138 397 
Q 2388 397 2633 464 
Q 2878 531 3122 666 
L 3122 134 
Q 2881 22 2623 -34 
Q 2366 -91 2075 -91 
Q 1284 -91 818 406 
Q 353 903 353 1747 
Q 353 2603 823 3093 
Q 1294 3584 2113 3584 
Q 2378 3584 2631 3529 
Q 2884 3475 3122 3366 
z
" id="DejaVuSans-63" transform="scale(0.015625)"/>
       <path d="M 513 4856 
L 1013 4856 
Q 1481 4119 1714 3412 
Q 1947 2706 1947 2009 
Q 1947 1309 1714 600 
Q 1481 -109 1013 -844 
L 513 -844 
Q 928 -128 1133 580 
Q 1338 1288 1338 2009 
Q 1338 2731 1133 3434 
Q 928 4138 513 4856 
z
" id="DejaVuSans-29" transform="scale(0.015625)"/>
      </defs>
      <use transform="translate(0 0.684375)" xlink:href="#DejaVuSans-57"/>
      <use transform="translate(98.876953 0.684375)" xlink:href="#DejaVuSans-61"/>
      <use transform="translate(160.15625 0.684375)" xlink:href="#DejaVuSans-76"/>
      <use transform="translate(219.335938 0.684375)" xlink:href="#DejaVuSans-65"/>
      <use transform="translate(280.859375 0.684375)" xlink:href="#DejaVuSans-6e"/>
      <use transform="translate(344.238281 0.684375)" xlink:href="#DejaVuSans-75"/>
      <use transform="translate(407.617188 0.684375)" xlink:href="#DejaVuSans-6d"/>
      <use transform="translate(505.029297 0.684375)" xlink:href="#DejaVuSans-62"/>
      <use transform="translate(568.505859 0.684375)" xlink:href="#DejaVuSans-65"/>
      <use transform="translate(630.029297 0.684375)" xlink:href="#DejaVuSans-72"/>
      <use transform="translate(671.142578 0.684375)" xlink:href="#DejaVuSans-20"/>
      <use transform="translate(702.929688 0.684375)" xlink:href="#DejaVuSans-28"/>
      <use transform="translate(741.943359 0.684375)" xlink:href="#DejaVuSans-69"/>
      <use transform="translate(769.726562 0.684375)" xlink:href="#DejaVuSans-6e"/>
      <use transform="translate(833.105469 0.684375)" xlink:href="#DejaVuSans-20"/>
      <use transform="translate(864.892578 0.684375)" xlink:href="#DejaVuSans-63"/>
      <use transform="translate(919.873047 0.684375)" xlink:href="#DejaVuSans-6d"/>
      <use transform="translate(1018.242188 38.965625)scale(0.7)" xlink:href="#DejaVuSans-2212"/>
      <use transform="translate(1076.894531 38.965625)scale(0.7)" xlink:href="#DejaVuSans-31"/>
      <use transform="translate(1124.165039 0.684375)" xlink:href="#DejaVuSans-29"/>
     </g>
    </g>
   </g>
   <g id="matplotlib.axis_2">
    <g id="ytick_1">
     <g id="line2d_14">
      <defs>
       <path d="M 0 0 
L -3.5 0 
" id="m7725ba79cc" style="stroke:#000000;stroke-width:0.8;"/>
      </defs>
      <g>
       <use style="stroke:#000000;stroke-width:0.8;" x="66.115625" xlink:href="#m7725ba79cc" y="440.493196"/>
      </g>
     </g>
     <g id="text_8">
      <!-- 0.90 -->
      <g transform="translate(25.717188 446.192024)scale(0.15 -0.15)">
       <defs>
        <path d="M 684 794 
L 1344 794 
L 1344 0 
L 684 0 
L 684 794 
z
" id="DejaVuSans-2e" transform="scale(0.015625)"/>
        <path d="M 703 97 
L 703 672 
Q 941 559 1184 500 
Q 1428 441 1663 441 
Q 2288 441 2617 861 
Q 2947 1281 2994 2138 
Q 2813 1869 2534 1725 
Q 2256 1581 1919 1581 
Q 1219 1581 811 2004 
Q 403 2428 403 3163 
Q 403 3881 828 4315 
Q 1253 4750 1959 4750 
Q 2769 4750 3195 4129 
Q 3622 3509 3622 2328 
Q 3622 1225 3098 567 
Q 2575 -91 1691 -91 
Q 1453 -91 1209 -44 
Q 966 3 703 97 
z
M 1959 2075 
Q 2384 2075 2632 2365 
Q 2881 2656 2881 3163 
Q 2881 3666 2632 3958 
Q 2384 4250 1959 4250 
Q 1534 4250 1286 3958 
Q 1038 3666 1038 3163 
Q 1038 2656 1286 2365 
Q 1534 2075 1959 2075 
z
" id="DejaVuSans-39" transform="scale(0.015625)"/>
       </defs>
       <use xlink:href="#DejaVuSans-30"/>
       <use x="63.623047" xlink:href="#DejaVuSans-2e"/>
       <use x="95.410156" xlink:href="#DejaVuSans-39"/>
       <use x="159.033203" xlink:href="#DejaVuSans-30"/>
      </g>
     </g>
    </g>
    <g id="ytick_2">
     <g id="line2d_15">
      <g>
       <use style="stroke:#000000;stroke-width:0.8;" x="66.115625" xlink:href="#m7725ba79cc" y="361.416008"/>
      </g>
     </g>
     <g id="text_9">
      <!-- 0.92 -->
      <g transform="translate(25.717188 367.114836)scale(0.15 -0.15)">
       <use xlink:href="#DejaVuSans-30"/>
       <use x="63.623047" xlink:href="#DejaVuSans-2e"/>
       <use x="95.410156" xlink:href="#DejaVuSans-39"/>
       <use x="159.033203" xlink:href="#DejaVuSans-32"/>
      </g>
     </g>
    </g>
    <g id="ytick_3">
     <g id="line2d_16">
      <g>
       <use style="stroke:#000000;stroke-width:0.8;" x="66.115625" xlink:href="#m7725ba79cc" y="282.338821"/>
      </g>
     </g>
     <g id="text_10">
      <!-- 0.94 -->
      <g transform="translate(25.717188 288.037649)scale(0.15 -0.15)">
       <defs>
        <path d="M 2419 4116 
L 825 1625 
L 2419 1625 
L 2419 4116 
z
M 2253 4666 
L 3047 4666 
L 3047 1625 
L 3713 1625 
L 3713 1100 
L 3047 1100 
L 3047 0 
L 2419 0 
L 2419 1100 
L 313 1100 
L 313 1709 
L 2253 4666 
z
" id="DejaVuSans-34" transform="scale(0.015625)"/>
       </defs>
       <use xlink:href="#DejaVuSans-30"/>
       <use x="63.623047" xlink:href="#DejaVuSans-2e"/>
       <use x="95.410156" xlink:href="#DejaVuSans-39"/>
       <use x="159.033203" xlink:href="#DejaVuSans-34"/>
      </g>
     </g>
    </g>
    <g id="ytick_4">
     <g id="line2d_17">
      <g>
       <use style="stroke:#000000;stroke-width:0.8;" x="66.115625" xlink:href="#m7725ba79cc" y="203.261633"/>
      </g>
     </g>
     <g id="text_11">
      <!-- 0.96 -->
      <g transform="translate(25.717188 208.960461)scale(0.15 -0.15)">
       <defs>
        <path d="M 2113 2584 
Q 1688 2584 1439 2293 
Q 1191 2003 1191 1497 
Q 1191 994 1439 701 
Q 1688 409 2113 409 
Q 2538 409 2786 701 
Q 3034 994 3034 1497 
Q 3034 2003 2786 2293 
Q 2538 2584 2113 2584 
z
M 3366 4563 
L 3366 3988 
Q 3128 4100 2886 4159 
Q 2644 4219 2406 4219 
Q 1781 4219 1451 3797 
Q 1122 3375 1075 2522 
Q 1259 2794 1537 2939 
Q 1816 3084 2150 3084 
Q 2853 3084 3261 2657 
Q 3669 2231 3669 1497 
Q 3669 778 3244 343 
Q 2819 -91 2113 -91 
Q 1303 -91 875 529 
Q 447 1150 447 2328 
Q 447 3434 972 4092 
Q 1497 4750 2381 4750 
Q 2619 4750 2861 4703 
Q 3103 4656 3366 4563 
z
" id="DejaVuSans-36" transform="scale(0.015625)"/>
       </defs>
       <use xlink:href="#DejaVuSans-30"/>
       <use x="63.623047" xlink:href="#DejaVuSans-2e"/>
       <use x="95.410156" xlink:href="#DejaVuSans-39"/>
       <use x="159.033203" xlink:href="#DejaVuSans-36"/>
      </g>
     </g>
    </g>
    <g id="ytick_5">
     <g id="line2d_18">
      <g>
       <use style="stroke:#000000;stroke-width:0.8;" x="66.115625" xlink:href="#m7725ba79cc" y="124.184445"/>
      </g>
     </g>
     <g id="text_12">
      <!-- 0.98 -->
      <g transform="translate(25.717188 129.883273)scale(0.15 -0.15)">
       <defs>
        <path d="M 2034 2216 
Q 1584 2216 1326 1975 
Q 1069 1734 1069 1313 
Q 1069 891 1326 650 
Q 1584 409 2034 409 
Q 2484 409 2743 651 
Q 3003 894 3003 1313 
Q 3003 1734 2745 1975 
Q 2488 2216 2034 2216 
z
M 1403 2484 
Q 997 2584 770 2862 
Q 544 3141 544 3541 
Q 544 4100 942 4425 
Q 1341 4750 2034 4750 
Q 2731 4750 3128 4425 
Q 3525 4100 3525 3541 
Q 3525 3141 3298 2862 
Q 3072 2584 2669 2484 
Q 3125 2378 3379 2068 
Q 3634 1759 3634 1313 
Q 3634 634 3220 271 
Q 2806 -91 2034 -91 
Q 1263 -91 848 271 
Q 434 634 434 1313 
Q 434 1759 690 2068 
Q 947 2378 1403 2484 
z
M 1172 3481 
Q 1172 3119 1398 2916 
Q 1625 2713 2034 2713 
Q 2441 2713 2670 2916 
Q 2900 3119 2900 3481 
Q 2900 3844 2670 4047 
Q 2441 4250 2034 4250 
Q 1625 4250 1398 4047 
Q 1172 3844 1172 3481 
z
" id="DejaVuSans-38" transform="scale(0.015625)"/>
       </defs>
       <use xlink:href="#DejaVuSans-30"/>
       <use x="63.623047" xlink:href="#DejaVuSans-2e"/>
       <use x="95.410156" xlink:href="#DejaVuSans-39"/>
       <use x="159.033203" xlink:href="#DejaVuSans-38"/>
      </g>
     </g>
    </g>
    <g id="ytick_6">
     <g id="line2d_19">
      <g>
       <use style="stroke:#000000;stroke-width:0.8;" x="66.115625" xlink:href="#m7725ba79cc" y="45.107257"/>
      </g>
     </g>
     <g id="text_13">
      <!-- 1.00 -->
      <g transform="translate(25.717188 50.806085)scale(0.15 -0.15)">
       <use xlink:href="#DejaVuSans-31"/>
       <use x="63.623047" xlink:href="#DejaVuSans-2e"/>
       <use x="95.410156" xlink:href="#DejaVuSans-30"/>
       <use x="159.033203" xlink:href="#DejaVuSans-30"/>
      </g>
     </g>
    </g>
    <g id="ytick_7">
     <g id="line2d_20">
      <defs>
       <path d="M 0 0 
L -2 0 
" id="m93551bfe41" style="stroke:#000000;stroke-width:0.6;"/>
      </defs>
      <g>
       <use style="stroke:#000000;stroke-width:0.6;" x="66.115625" xlink:href="#m93551bfe41" y="400.954602"/>
      </g>
     </g>
    </g>
    <g id="ytick_8">
     <g id="line2d_21">
      <g>
       <use style="stroke:#000000;stroke-width:0.6;" x="66.115625" xlink:href="#m93551bfe41" y="321.877414"/>
      </g>
     </g>
    </g>
    <g id="ytick_9">
     <g id="line2d_22">
      <g>
       <use style="stroke:#000000;stroke-width:0.6;" x="66.115625" xlink:href="#m93551bfe41" y="242.800227"/>
      </g>
     </g>
    </g>
    <g id="ytick_10">
     <g id="line2d_23">
      <g>
       <use style="stroke:#000000;stroke-width:0.6;" x="66.115625" xlink:href="#m93551bfe41" y="163.723039"/>
      </g>
     </g>
    </g>
    <g id="ytick_11">
     <g id="line2d_24">
      <g>
       <use style="stroke:#000000;stroke-width:0.6;" x="66.115625" xlink:href="#m93551bfe41" y="84.645851"/>
      </g>
     </g>
    </g>
    <g id="text_14">
     <!-- Normalized Intensity -->
     <g transform="translate(18.597656 320.381016)rotate(-90)scale(0.15 -0.15)">
      <defs>
       <path d="M 628 4666 
L 1478 4666 
L 3547 763 
L 3547 4666 
L 4159 4666 
L 4159 0 
L 3309 0 
L 1241 3903 
L 1241 0 
L 628 0 
L 628 4666 
z
" id="DejaVuSans-4e" transform="scale(0.015625)"/>
       <path d="M 1959 3097 
Q 1497 3097 1228 2736 
Q 959 2375 959 1747 
Q 959 1119 1226 758 
Q 1494 397 1959 397 
Q 2419 397 2687 759 
Q 2956 1122 2956 1747 
Q 2956 2369 2687 2733 
Q 2419 3097 1959 3097 
z
M 1959 3584 
Q 2709 3584 3137 3096 
Q 3566 2609 3566 1747 
Q 3566 888 3137 398 
Q 2709 -91 1959 -91 
Q 1206 -91 779 398 
Q 353 888 353 1747 
Q 353 2609 779 3096 
Q 1206 3584 1959 3584 
z
" id="DejaVuSans-6f" transform="scale(0.015625)"/>
       <path d="M 603 4863 
L 1178 4863 
L 1178 0 
L 603 0 
L 603 4863 
z
" id="DejaVuSans-6c" transform="scale(0.015625)"/>
       <path d="M 353 3500 
L 3084 3500 
L 3084 2975 
L 922 459 
L 3084 459 
L 3084 0 
L 275 0 
L 275 525 
L 2438 3041 
L 353 3041 
L 353 3500 
z
" id="DejaVuSans-7a" transform="scale(0.015625)"/>
       <path d="M 2906 2969 
L 2906 4863 
L 3481 4863 
L 3481 0 
L 2906 0 
L 2906 525 
Q 2725 213 2448 61 
Q 2172 -91 1784 -91 
Q 1150 -91 751 415 
Q 353 922 353 1747 
Q 353 2572 751 3078 
Q 1150 3584 1784 3584 
Q 2172 3584 2448 3432 
Q 2725 3281 2906 2969 
z
M 947 1747 
Q 947 1113 1208 752 
Q 1469 391 1925 391 
Q 2381 391 2643 752 
Q 2906 1113 2906 1747 
Q 2906 2381 2643 2742 
Q 2381 3103 1925 3103 
Q 1469 3103 1208 2742 
Q 947 2381 947 1747 
z
" id="DejaVuSans-64" transform="scale(0.015625)"/>
       <path d="M 628 4666 
L 1259 4666 
L 1259 0 
L 628 0 
L 628 4666 
z
" id="DejaVuSans-49" transform="scale(0.015625)"/>
       <path d="M 1172 4494 
L 1172 3500 
L 2356 3500 
L 2356 3053 
L 1172 3053 
L 1172 1153 
Q 1172 725 1289 603 
Q 1406 481 1766 481 
L 2356 481 
L 2356 0 
L 1766 0 
Q 1100 0 847 248 
Q 594 497 594 1153 
L 594 3053 
L 172 3053 
L 172 3500 
L 594 3500 
L 594 4494 
L 1172 4494 
z
" id="DejaVuSans-74" transform="scale(0.015625)"/>
       <path d="M 2834 3397 
L 2834 2853 
Q 2591 2978 2328 3040 
Q 2066 3103 1784 3103 
Q 1356 3103 1142 2972 
Q 928 2841 928 2578 
Q 928 2378 1081 2264 
Q 1234 2150 1697 2047 
L 1894 2003 
Q 2506 1872 2764 1633 
Q 3022 1394 3022 966 
Q 3022 478 2636 193 
Q 2250 -91 1575 -91 
Q 1294 -91 989 -36 
Q 684 19 347 128 
L 347 722 
Q 666 556 975 473 
Q 1284 391 1588 391 
Q 1994 391 2212 530 
Q 2431 669 2431 922 
Q 2431 1156 2273 1281 
Q 2116 1406 1581 1522 
L 1381 1569 
Q 847 1681 609 1914 
Q 372 2147 372 2553 
Q 372 3047 722 3315 
Q 1072 3584 1716 3584 
Q 2034 3584 2315 3537 
Q 2597 3491 2834 3397 
z
" id="DejaVuSans-73" transform="scale(0.015625)"/>
       <path d="M 2059 -325 
Q 1816 -950 1584 -1140 
Q 1353 -1331 966 -1331 
L 506 -1331 
L 506 -850 
L 844 -850 
Q 1081 -850 1212 -737 
Q 1344 -625 1503 -206 
L 1606 56 
L 191 3500 
L 800 3500 
L 1894 763 
L 2988 3500 
L 3597 3500 
L 2059 -325 
z
" id="DejaVuSans-79" transform="scale(0.015625)"/>
      </defs>
      <use xlink:href="#DejaVuSans-4e"/>
      <use x="74.804688" xlink:href="#DejaVuSans-6f"/>
      <use x="135.986328" xlink:href="#DejaVuSans-72"/>
      <use x="175.349609" xlink:href="#DejaVuSans-6d"/>
      <use x="272.761719" xlink:href="#DejaVuSans-61"/>
      <use x="334.041016" xlink:href="#DejaVuSans-6c"/>
      <use x="361.824219" xlink:href="#DejaVuSans-69"/>
      <use x="389.607422" xlink:href="#DejaVuSans-7a"/>
      <use x="442.097656" xlink:href="#DejaVuSans-65"/>
      <use x="503.621094" xlink:href="#DejaVuSans-64"/>
      <use x="567.097656" xlink:href="#DejaVuSans-20"/>
      <use x="598.884766" xlink:href="#DejaVuSans-49"/>
      <use x="628.376953" xlink:href="#DejaVuSans-6e"/>
      <use x="691.755859" xlink:href="#DejaVuSans-74"/>
      <use x="730.964844" xlink:href="#DejaVuSans-65"/>
      <use x="792.488281" xlink:href="#DejaVuSans-6e"/>
      <use x="855.867188" xlink:href="#DejaVuSans-73"/>
      <use x="907.966797" xlink:href="#DejaVuSans-69"/>
      <use x="935.75" xlink:href="#DejaVuSans-74"/>
      <use x="974.958984" xlink:href="#DejaVuSans-79"/>
     </g>
    </g>
   </g>
   <g id="line2d_25">
    <path clip-path="url(#p413196a25c)" d="M 175.987306 45.147741 
L 214.144989 45.318589 
L 234.346116 45.609664 
L 247.813533 45.993333 
L 259.036381 46.516792 
L 268.01466 47.136725 
L 276.992938 48.008921 
L 283.726647 48.88199 
L 290.460355 49.99456 
L 297.194064 51.403077 
L 301.683203 52.538854 
L 306.172343 53.857691 
L 310.661482 55.383945 
L 315.150621 57.144067 
L 319.63976 59.166531 
L 324.128899 61.481678 
L 328.618039 64.121489 
L 333.107178 67.119237 
L 337.596317 70.509042 
L 342.085456 74.325279 
L 346.574595 78.601853 
L 351.063734 83.371322 
L 355.552874 88.663853 
L 360.042013 94.506023 
L 364.531152 100.919468 
L 369.020291 107.919386 
L 373.50943 115.512922 
L 377.998569 123.697471 
L 382.487709 132.458947 
L 386.976848 141.770081 
L 391.465987 151.588827 
L 395.955126 161.856976 
L 402.688835 177.931954 
L 413.911683 205.648458 
L 420.645392 222.110502 
L 425.134531 232.695739 
L 429.62367 242.777098 
L 434.112809 252.190727 
L 438.601948 260.782976 
L 440.846518 264.728425 
L 443.091088 268.421001 
L 445.335657 271.849418 
L 447.580227 275.005371 
L 449.824796 277.884028 
L 452.069366 280.484538 
L 454.313936 282.810553 
L 456.558505 284.870751 
L 458.803075 286.679344 
L 461.047644 288.256567 
L 463.292214 289.629105 
L 465.536783 290.83046 
L 470.025923 292.889097 
L 474.515062 294.842699 
L 476.759631 295.93813 
L 479.004201 297.208713 
L 481.248771 298.732005 
L 483.49334 300.588068 
L 485.73791 302.857399 
L 487.982479 305.618402 
L 490.227049 308.944447 
L 492.471619 312.900535 
L 494.716188 317.539662 
L 496.960758 322.89899 
L 499.205327 328.99599 
L 501.449897 335.824746 
L 503.694467 343.352662 
L 505.939036 351.517818 
L 510.428175 369.356314 
L 519.406454 406.562289 
L 521.651023 414.962464 
L 523.895593 422.529891 
L 526.140162 429.030772 
L 528.384732 434.248251 
L 530.629302 437.992513 
L 532.873871 440.110286 
L 535.118441 440.493196 
L 537.36301 439.084416 
L 539.60758 435.883145 
L 541.85215 430.946577 
L 544.096719 424.38916 
L 546.341289 416.379132 
L 548.585858 407.132467 
L 550.830428 396.904561 
L 555.319567 374.661785 
L 559.808706 352.072095 
L 562.053276 341.389006 
L 564.297845 331.467304 
L 566.542415 322.529817 
L 568.786985 314.757472 
L 571.031554 308.28509 
L 573.276124 303.199384 
L 575.520693 299.539064 
L 577.765263 297.296837 
L 580.009833 296.423035 
L 582.254402 296.830502 
L 584.498972 298.400389 
L 586.743541 300.988487 
L 588.988111 304.431742 
L 591.232681 308.554671 
L 593.47725 313.175405 
L 602.455528 333.063816 
L 604.700098 337.567131 
L 606.944668 341.600393 
L 609.189237 345.05025 
L 611.433807 347.820733 
L 613.678376 349.833394 
L 615.922946 351.027046 
L 618.167516 351.357195 
L 620.412085 350.795239 
L 622.656655 349.327491 
L 624.901224 346.95408 
L 627.145794 343.687768 
L 629.390364 339.552728 
L 631.634933 334.583286 
L 633.879503 328.822674 
L 636.124072 322.321782 
L 638.368642 315.137937 
L 640.613211 307.333713 
L 642.857781 298.975773 
L 647.34692 280.879232 
L 651.836059 261.42247 
L 660.814338 220.697681 
L 667.548047 190.598469 
L 672.037186 171.550784 
L 676.526325 153.69643 
L 681.015464 137.266257 
L 683.260034 129.634905 
L 685.504603 122.409426 
L 687.749173 115.596668 
L 689.993742 109.199289 
L 692.238312 103.216091 
L 694.482882 97.642385 
L 696.727451 92.470372 
L 698.972021 87.689529 
L 701.21659 83.287 
L 703.46116 79.24798 
L 705.70573 75.556089 
L 707.950299 72.193728 
L 710.194869 69.142418 
L 712.439438 66.383115 
L 714.684008 63.896488 
L 716.928578 61.663188 
L 719.173147 59.664063 
L 721.417717 57.880368 
L 723.662286 56.29392 
L 725.906856 54.887244 
L 728.151425 53.643681 
L 730.395995 52.54747 
L 734.885134 50.73888 
L 739.374273 49.35506 
L 743.863413 48.305654 
L 748.352552 47.515724 
L 752.841691 46.924454 
L 759.5754 46.307189 
L 766.309109 45.910188 
L 775.287387 45.589265 
L 788.754804 45.343572 
L 811.2005 45.185606 
L 824.667918 45.148162 
L 824.667918 45.148162 
" style="fill:none;stroke:#de5d5c;stroke-linecap:square;stroke-width:1.5;"/>
   </g>
   <g id="line2d_26">
    <path clip-path="url(#p413196a25c)" d="M 443.358211 460.260469 
L 443.358211 25.380469 
" style="fill:none;stroke:#000000;stroke-dasharray:1.5,2.475;stroke-dashoffset:0;stroke-width:1.5;"/>
   </g>
   <g id="line2d_27">
    <path clip-path="url(#p413196a25c)" d="M 459.088536 460.260469 
L 459.088536 25.380469 
" style="fill:none;stroke:#000000;stroke-dasharray:1.5,2.475;stroke-dashoffset:0;stroke-width:1.5;"/>
   </g>
   <g id="line2d_28">
    <path clip-path="url(#p413196a25c)" d="M 619.013508 460.260469 
L 619.013508 25.380469 
" style="fill:none;stroke:#000000;stroke-dasharray:1.5,2.475;stroke-dashoffset:0;stroke-width:1.5;"/>
   </g>
   <g id="line2d_29">
    <path clip-path="url(#p413196a25c)" d="M 637.365554 460.260469 
L 637.365554 25.380469 
" style="fill:none;stroke:#000000;stroke-dasharray:1.5,2.475;stroke-dashoffset:0;stroke-width:1.5;"/>
   </g>
   <g id="line2d_30">
    <path clip-path="url(#p413196a25c)" d="M 104.16108 45.14807 
L 151.297041 45.324175 
L 175.987306 45.62107 
L 193.943863 46.057571 
L 207.411281 46.600732 
L 218.634129 47.268505 
L 227.612407 47.996756 
L 236.590685 48.950628 
L 243.324394 49.85033 
L 250.058103 50.941418 
L 256.791812 52.258693 
L 263.52552 53.84158 
L 270.259229 55.734262 
L 274.748368 57.192127 
L 279.237508 58.824954 
L 283.726647 60.64921 
L 288.215786 62.682114 
L 292.704925 64.941528 
L 297.194064 67.445808 
L 301.683203 70.213614 
L 306.172343 73.263681 
L 310.661482 76.614551 
L 315.150621 80.284243 
L 319.63976 84.289883 
L 324.128899 88.647283 
L 328.618039 93.370459 
L 333.107178 98.47111 
L 337.596317 103.958044 
L 342.085456 109.836559 
L 346.574595 116.107802 
L 351.063734 122.768091 
L 355.552874 129.808241 
L 360.042013 137.212889 
L 364.531152 144.959855 
L 371.264861 157.155293 
L 377.998569 169.91896 
L 386.976848 187.510747 
L 400.444265 213.993367 
L 407.177974 226.661677 
L 411.667113 234.680692 
L 416.156253 242.246557 
L 420.645392 249.266636 
L 425.134531 255.655506 
L 427.3791 258.589651 
L 429.62367 261.339629 
L 431.86824 263.898995 
L 434.112809 266.262761 
L 436.357379 268.427611 
L 438.601948 270.392117 
L 440.846518 272.156973 
L 443.091088 273.725228 
L 445.335657 275.10253 
L 447.580227 276.297376 
L 449.824796 277.321357 
L 452.069366 278.189401 
L 456.558505 279.535464 
L 461.047644 280.530147 
L 467.781353 281.951587 
L 470.025923 282.574946 
L 472.270492 283.355063 
L 474.515062 284.346475 
L 476.759631 285.606511 
L 479.004201 287.194459 
L 481.248771 289.1705 
L 483.49334 291.594368 
L 485.73791 294.52373 
L 487.982479 298.01228 
L 490.227049 302.107544 
L 492.471619 306.848434 
L 494.716188 312.262596 
L 496.960758 318.363629 
L 499.205327 325.148279 
L 501.449897 332.593744 
L 503.694467 340.655243 
L 505.939036 349.264031 
L 510.428175 367.721481 
L 517.161884 396.341101 
L 519.406454 405.397951 
L 521.651023 413.861765 
L 523.895593 421.511283 
L 526.140162 428.128519 
L 528.384732 433.506971 
L 530.629302 437.460098 
L 532.873871 439.82962 
L 535.118441 440.493196 
L 537.36301 439.371026 
L 539.60758 436.430948 
L 541.85215 431.691692 
L 544.096719 425.224031 
L 546.341289 417.149704 
L 548.585858 407.638103 
L 550.830428 396.900871 
L 553.074997 385.18466 
L 557.564137 359.923837 
L 562.053276 334.177895 
L 564.297845 321.84186 
L 566.542415 310.2137 
L 568.786985 299.520946 
L 571.031554 289.955955 
L 573.276124 281.671877 
L 575.520693 274.780388 
L 577.765263 269.351163 
L 580.009833 265.412902 
L 582.254402 262.955747 
L 584.498972 261.934777 
L 586.743541 262.274342 
L 588.988111 263.872925 
L 591.232681 266.608259 
L 593.47725 270.342467 
L 595.72182 274.927006 
L 597.966389 280.207254 
L 600.210959 286.026635 
L 604.700098 298.66757 
L 611.433807 317.995284 
L 613.678376 324.03003 
L 615.922946 329.682333 
L 618.167516 334.862769 
L 620.412085 339.493785 
L 622.656655 343.509473 
L 624.901224 346.8552 
L 627.145794 349.487148 
L 629.390364 351.371788 
L 631.634933 352.485316 
L 633.879503 352.813075 
L 636.124072 352.348972 
L 638.368642 351.09489 
L 640.613211 349.06012 
L 642.857781 346.260783 
L 645.102351 342.719271 
L 647.34692 338.463684 
L 649.59149 333.527271 
L 651.836059 327.947872 
L 654.080629 321.767356 
L 656.325199 315.031062 
L 658.569768 307.787231 
L 660.814338 300.086445 
L 665.303477 283.524707 
L 669.792616 265.776294 
L 676.526325 237.872978 
L 685.504603 200.40931 
L 689.993742 182.370927 
L 694.482882 165.184458 
L 698.972021 149.073089 
L 703.46116 134.202132 
L 707.950299 120.68005 
L 710.194869 114.443994 
L 712.439438 108.561906 
L 714.684008 103.033215 
L 716.928578 97.854772 
L 719.173147 93.021087 
L 721.417717 88.524583 
L 723.662286 84.355847 
L 725.906856 80.503887 
L 728.151425 76.956383 
L 730.395995 73.699936 
L 732.640565 70.720307 
L 734.885134 68.002642 
L 737.129704 65.531683 
L 739.374273 63.291968 
L 741.618843 61.268007 
L 743.863413 59.444445 
L 746.107982 57.806202 
L 748.352552 56.3386 
L 750.597121 55.02746 
L 752.841691 53.859194 
L 757.33083 51.900256 
L 761.819969 50.366995 
L 766.309109 49.176723 
L 770.798248 48.258959 
L 775.287387 47.554909 
L 782.021096 46.797028 
L 788.754804 46.290513 
L 797.733083 45.862389 
L 808.955931 45.555621 
L 826.912487 45.314691 
L 858.336462 45.163905 
L 865.07017 45.150021 
L 865.07017 45.150021 
" style="fill:none;stroke:#9a3670;stroke-linecap:square;stroke-width:1.5;"/>
   </g>
   <g id="line2d_31">
    <path clip-path="url(#p413196a25c)" d="M 443.358211 460.260469 
L 443.358211 25.380469 
" style="fill:none;stroke:#000000;stroke-dasharray:1.5,2.475;stroke-dashoffset:0;stroke-width:1.5;"/>
   </g>
   <g id="line2d_32">
    <path clip-path="url(#p413196a25c)" d="M 459.088536 460.260469 
L 459.088536 25.380469 
" style="fill:none;stroke:#000000;stroke-dasharray:1.5,2.475;stroke-dashoffset:0;stroke-width:1.5;"/>
   </g>
   <g id="line2d_33">
    <path clip-path="url(#p413196a25c)" d="M 619.013508 460.260469 
L 619.013508 25.380469 
" style="fill:none;stroke:#000000;stroke-dasharray:1.5,2.475;stroke-dashoffset:0;stroke-width:1.5;"/>
   </g>
   <g id="line2d_34">
    <path clip-path="url(#p413196a25c)" d="M 637.365554 460.260469 
L 637.365554 25.380469 
" style="fill:none;stroke:#000000;stroke-dasharray:1.5,2.475;stroke-dashoffset:0;stroke-width:1.5;"/>
   </g>
   <g id="patch_3">
    <path d="M 66.115625 460.260469 
L 66.115625 25.380469 
" style="fill:none;stroke:#000000;stroke-linecap:square;stroke-linejoin:miter;stroke-width:0.8;"/>
   </g>
   <g id="patch_4">
    <path d="M 903.115625 460.260469 
L 903.115625 25.380469 
" style="fill:none;stroke:#000000;stroke-linecap:square;stroke-linejoin:miter;stroke-width:0.8;"/>
   </g>
   <g id="patch_5">
    <path d="M 66.115625 460.260469 
L 903.115625 460.260469 
" style="fill:none;stroke:#000000;stroke-linecap:square;stroke-linejoin:miter;stroke-width:0.8;"/>
   </g>
   <g id="patch_6">
    <path d="M 66.115625 25.380469 
L 903.115625 25.380469 
" style="fill:none;stroke:#000000;stroke-linecap:square;stroke-linejoin:miter;stroke-width:0.8;"/>
   </g>
   <g id="text_15">
    <!-- B = 0.00947 cm$^{-1}$   $\Delta B =$ -0.42% ,  $\Delta C =$ -0.42% , $\sigma = $0.1571cm$^{-1}$ -->
    <g transform="translate(235.690625 19.380469)scale(0.15 -0.15)">
     <defs>
      <path d="M 1259 2228 
L 1259 519 
L 2272 519 
Q 2781 519 3026 730 
Q 3272 941 3272 1375 
Q 3272 1813 3026 2020 
Q 2781 2228 2272 2228 
L 1259 2228 
z
M 1259 4147 
L 1259 2741 
L 2194 2741 
Q 2656 2741 2882 2914 
Q 3109 3088 3109 3444 
Q 3109 3797 2882 3972 
Q 2656 4147 2194 4147 
L 1259 4147 
z
M 628 4666 
L 2241 4666 
Q 2963 4666 3353 4366 
Q 3744 4066 3744 3513 
Q 3744 3084 3544 2831 
Q 3344 2578 2956 2516 
Q 3422 2416 3680 2098 
Q 3938 1781 3938 1306 
Q 3938 681 3513 340 
Q 3088 0 2303 0 
L 628 0 
L 628 4666 
z
" id="DejaVuSans-42" transform="scale(0.015625)"/>
      <path d="M 678 2906 
L 4684 2906 
L 4684 2381 
L 678 2381 
L 678 2906 
z
M 678 1631 
L 4684 1631 
L 4684 1100 
L 678 1100 
L 678 1631 
z
" id="DejaVuSans-3d" transform="scale(0.015625)"/>
      <path d="M 525 4666 
L 3525 4666 
L 3525 4397 
L 1831 0 
L 1172 0 
L 2766 4134 
L 525 4134 
L 525 4666 
z
" id="DejaVuSans-37" transform="scale(0.015625)"/>
      <path d="M 2188 4044 
L 906 525 
L 3472 525 
L 2188 4044 
z
M 50 0 
L 1831 4666 
L 2547 4666 
L 4325 0 
L 50 0 
z
" id="DejaVuSans-394" transform="scale(0.015625)"/>
      <path d="M 1081 4666 
L 2694 4666 
Q 3350 4666 3675 4422 
Q 4000 4178 4000 3688 
Q 4000 3238 3720 2911 
Q 3441 2584 2988 2516 
Q 3375 2428 3569 2181 
Q 3763 1934 3763 1522 
Q 3763 819 3242 409 
Q 2722 0 1819 0 
L 172 0 
L 1081 4666 
z
M 1234 2228 
L 903 519 
L 1919 519 
Q 2491 519 2800 781 
Q 3109 1044 3109 1522 
Q 3109 1891 2904 2059 
Q 2700 2228 2247 2228 
L 1234 2228 
z
M 1606 4147 
L 1331 2741 
L 2272 2741 
Q 2775 2741 3058 2959 
Q 3341 3178 3341 3566 
Q 3341 3869 3150 4008 
Q 2959 4147 2541 4147 
L 1606 4147 
z
" id="DejaVuSans-Oblique-42" transform="scale(0.015625)"/>
      <path d="M 313 2009 
L 1997 2009 
L 1997 1497 
L 313 1497 
L 313 2009 
z
" id="DejaVuSans-2d" transform="scale(0.015625)"/>
      <path d="M 4653 2053 
Q 4381 2053 4226 1822 
Q 4072 1591 4072 1178 
Q 4072 772 4226 539 
Q 4381 306 4653 306 
Q 4919 306 5073 539 
Q 5228 772 5228 1178 
Q 5228 1588 5073 1820 
Q 4919 2053 4653 2053 
z
M 4653 2450 
Q 5147 2450 5437 2106 
Q 5728 1763 5728 1178 
Q 5728 594 5436 251 
Q 5144 -91 4653 -91 
Q 4153 -91 3862 251 
Q 3572 594 3572 1178 
Q 3572 1766 3864 2108 
Q 4156 2450 4653 2450 
z
M 1428 4353 
Q 1159 4353 1004 4120 
Q 850 3888 850 3481 
Q 850 3069 1003 2837 
Q 1156 2606 1428 2606 
Q 1700 2606 1854 2837 
Q 2009 3069 2009 3481 
Q 2009 3884 1853 4118 
Q 1697 4353 1428 4353 
z
M 4250 4750 
L 4750 4750 
L 1831 -91 
L 1331 -91 
L 4250 4750 
z
M 1428 4750 
Q 1922 4750 2215 4408 
Q 2509 4066 2509 3481 
Q 2509 2891 2217 2550 
Q 1925 2209 1428 2209 
Q 931 2209 642 2551 
Q 353 2894 353 3481 
Q 353 4063 643 4406 
Q 934 4750 1428 4750 
z
" id="DejaVuSans-25" transform="scale(0.015625)"/>
      <path d="M 750 794 
L 1409 794 
L 1409 256 
L 897 -744 
L 494 -744 
L 750 256 
L 750 794 
z
" id="DejaVuSans-2c" transform="scale(0.015625)"/>
      <path d="M 4447 4306 
L 4319 3641 
Q 4019 3944 3683 4091 
Q 3347 4238 2956 4238 
Q 2422 4238 2017 3981 
Q 1613 3725 1319 3200 
Q 1131 2863 1032 2486 
Q 934 2109 934 1728 
Q 934 1091 1264 756 
Q 1594 422 2222 422 
Q 2656 422 3056 561 
Q 3456 700 3834 978 
L 3688 231 
Q 3316 72 2936 -9 
Q 2556 -91 2175 -91 
Q 1278 -91 773 396 
Q 269 884 269 1753 
Q 269 2309 461 2846 
Q 653 3384 1013 3828 
Q 1394 4300 1883 4525 
Q 2372 4750 3022 4750 
Q 3422 4750 3780 4639 
Q 4138 4528 4447 4306 
z
" id="DejaVuSans-Oblique-43" transform="scale(0.015625)"/>
      <path d="M 2219 3044 
Q 1744 3044 1422 2700 
Q 1081 2341 969 1747 
Q 844 1119 1044 756 
Q 1241 397 1706 397 
Q 2166 397 2503 759 
Q 2844 1122 2966 1747 
Q 3075 2319 2881 2700 
Q 2700 3044 2219 3044 
z
M 2309 3503 
L 4219 3500 
L 4106 2925 
L 3463 2925 
Q 3706 2438 3575 1747 
Q 3406 888 2884 400 
Q 2359 -91 1609 -91 
Q 856 -91 525 400 
Q 194 888 363 1747 
Q 528 2609 1050 3097 
Q 1484 3503 2309 3503 
z
" id="DejaVuSans-Oblique-3c3" transform="scale(0.015625)"/>
      <path d="M 691 4666 
L 3169 4666 
L 3169 4134 
L 1269 4134 
L 1269 2991 
Q 1406 3038 1543 3061 
Q 1681 3084 1819 3084 
Q 2600 3084 3056 2656 
Q 3513 2228 3513 1497 
Q 3513 744 3044 326 
Q 2575 -91 1722 -91 
Q 1428 -91 1123 -41 
Q 819 9 494 109 
L 494 744 
Q 775 591 1075 516 
Q 1375 441 1709 441 
Q 2250 441 2565 725 
Q 2881 1009 2881 1497 
Q 2881 1984 2565 2268 
Q 2250 2553 1709 2553 
Q 1456 2553 1204 2497 
Q 953 2441 691 2322 
L 691 4666 
z
" id="DejaVuSans-35" transform="scale(0.015625)"/>
     </defs>
     <use transform="translate(0 0.684375)" xlink:href="#DejaVuSans-42"/>
     <use transform="translate(68.603516 0.684375)" xlink:href="#DejaVuSans-20"/>
     <use transform="translate(100.390625 0.684375)" xlink:href="#DejaVuSans-3d"/>
     <use transform="translate(184.179688 0.684375)" xlink:href="#DejaVuSans-20"/>
     <use transform="translate(215.966797 0.684375)" xlink:href="#DejaVuSans-30"/>
     <use transform="translate(279.589844 0.684375)" xlink:href="#DejaVuSans-2e"/>
     <use transform="translate(311.376953 0.684375)" xlink:href="#DejaVuSans-30"/>
     <use transform="translate(375 0.684375)" xlink:href="#DejaVuSans-30"/>
     <use transform="translate(438.623047 0.684375)" xlink:href="#DejaVuSans-39"/>
     <use transform="translate(502.246094 0.684375)" xlink:href="#DejaVuSans-34"/>
     <use transform="translate(565.869141 0.684375)" xlink:href="#DejaVuSans-37"/>
     <use transform="translate(629.492188 0.684375)" xlink:href="#DejaVuSans-20"/>
     <use transform="translate(661.279297 0.684375)" xlink:href="#DejaVuSans-63"/>
     <use transform="translate(716.259766 0.684375)" xlink:href="#DejaVuSans-6d"/>
     <use transform="translate(814.628906 38.965625)scale(0.7)" xlink:href="#DejaVuSans-2212"/>
     <use transform="translate(873.28125 38.965625)scale(0.7)" xlink:href="#DejaVuSans-31"/>
     <use transform="translate(920.551758 0.684375)" xlink:href="#DejaVuSans-20"/>
     <use transform="translate(952.338867 0.684375)" xlink:href="#DejaVuSans-20"/>
     <use transform="translate(984.125977 0.684375)" xlink:href="#DejaVuSans-20"/>
     <use transform="translate(1015.913086 0.684375)" xlink:href="#DejaVuSans-394"/>
     <use transform="translate(1084.321289 0.684375)" xlink:href="#DejaVuSans-Oblique-42"/>
     <use transform="translate(1172.407227 0.684375)" xlink:href="#DejaVuSans-3d"/>
     <use transform="translate(1275.678711 0.684375)" xlink:href="#DejaVuSans-20"/>
     <use transform="translate(1307.46582 0.684375)" xlink:href="#DejaVuSans-2d"/>
     <use transform="translate(1343.549805 0.684375)" xlink:href="#DejaVuSans-30"/>
     <use transform="translate(1407.172852 0.684375)" xlink:href="#DejaVuSans-2e"/>
     <use transform="translate(1438.959961 0.684375)" xlink:href="#DejaVuSans-34"/>
     <use transform="translate(1502.583008 0.684375)" xlink:href="#DejaVuSans-32"/>
     <use transform="translate(1566.206055 0.684375)" xlink:href="#DejaVuSans-25"/>
     <use transform="translate(1661.225586 0.684375)" xlink:href="#DejaVuSans-20"/>
     <use transform="translate(1693.012695 0.684375)" xlink:href="#DejaVuSans-2c"/>
     <use transform="translate(1724.799805 0.684375)" xlink:href="#DejaVuSans-20"/>
     <use transform="translate(1756.586914 0.684375)" xlink:href="#DejaVuSans-20"/>
     <use transform="translate(1788.374023 0.684375)" xlink:href="#DejaVuSans-394"/>
     <use transform="translate(1856.782227 0.684375)" xlink:href="#DejaVuSans-Oblique-43"/>
     <use transform="translate(1946.088867 0.684375)" xlink:href="#DejaVuSans-3d"/>
     <use transform="translate(2049.360352 0.684375)" xlink:href="#DejaVuSans-20"/>
     <use transform="translate(2081.147461 0.684375)" xlink:href="#DejaVuSans-2d"/>
     <use transform="translate(2117.231445 0.684375)" xlink:href="#DejaVuSans-30"/>
     <use transform="translate(2180.854492 0.684375)" xlink:href="#DejaVuSans-2e"/>
     <use transform="translate(2212.641602 0.684375)" xlink:href="#DejaVuSans-34"/>
     <use transform="translate(2276.264648 0.684375)" xlink:href="#DejaVuSans-32"/>
     <use transform="translate(2339.887695 0.684375)" xlink:href="#DejaVuSans-25"/>
     <use transform="translate(2434.907227 0.684375)" xlink:href="#DejaVuSans-20"/>
     <use transform="translate(2466.694336 0.684375)" xlink:href="#DejaVuSans-2c"/>
     <use transform="translate(2498.481445 0.684375)" xlink:href="#DejaVuSans-20"/>
     <use transform="translate(2530.268555 0.684375)" xlink:href="#DejaVuSans-Oblique-3c3"/>
     <use transform="translate(2613.129883 0.684375)" xlink:href="#DejaVuSans-3d"/>
     <use transform="translate(2716.401367 0.684375)" xlink:href="#DejaVuSans-30"/>
     <use transform="translate(2780.024414 0.684375)" xlink:href="#DejaVuSans-2e"/>
     <use transform="translate(2811.811523 0.684375)" xlink:href="#DejaVuSans-31"/>
     <use transform="translate(2875.43457 0.684375)" xlink:href="#DejaVuSans-35"/>
     <use transform="translate(2931.807617 0.684375)" xlink:href="#DejaVuSans-37"/>
     <use transform="translate(2995.430664 0.684375)" xlink:href="#DejaVuSans-31"/>
     <use transform="translate(3059.053711 0.684375)" xlink:href="#DejaVuSans-63"/>
     <use transform="translate(3114.03418 0.684375)" xlink:href="#DejaVuSans-6d"/>
     <use transform="translate(3212.40332 38.965625)scale(0.7)" xlink:href="#DejaVuSans-2212"/>
     <use transform="translate(3271.055664 38.965625)scale(0.7)" xlink:href="#DejaVuSans-31"/>
    </g>
   </g>
   <g id="legend_1">
    <g id="patch_7">
     <path d="M 73.115625 455.260469 
L 127.576563 455.260469 
Q 129.576563 455.260469 129.576563 453.260469 
L 129.576563 424.904219 
Q 129.576563 422.904219 127.576563 422.904219 
L 73.115625 422.904219 
Q 71.115625 422.904219 71.115625 424.904219 
L 71.115625 453.260469 
Q 71.115625 455.260469 73.115625 455.260469 
z
" style="fill:#ffffff;opacity:0.8;stroke:#cccccc;stroke-linejoin:miter;"/>
    </g>
    <g id="line2d_35">
     <path d="M 75.115625 431.002656 
L 95.115625 431.002656 
" style="fill:none;stroke:#de5d5c;stroke-linecap:square;stroke-width:1.5;"/>
    </g>
    <g id="line2d_36"/>
    <g id="text_16">
     <!-- 15 K -->
     <g transform="translate(103.115625 434.502656)scale(0.1 -0.1)">
      <defs>
       <path d="M 628 4666 
L 1259 4666 
L 1259 2694 
L 3353 4666 
L 4166 4666 
L 1850 2491 
L 4331 0 
L 3500 0 
L 1259 2247 
L 1259 0 
L 628 0 
L 628 4666 
z
" id="DejaVuSans-4b" transform="scale(0.015625)"/>
      </defs>
      <use xlink:href="#DejaVuSans-31"/>
      <use x="63.623047" xlink:href="#DejaVuSans-35"/>
      <use x="127.246094" xlink:href="#DejaVuSans-20"/>
      <use x="159.033203" xlink:href="#DejaVuSans-4b"/>
     </g>
    </g>
    <g id="line2d_37">
     <path d="M 75.115625 445.680781 
L 95.115625 445.680781 
" style="fill:none;stroke:#9a3670;stroke-linecap:square;stroke-width:1.5;"/>
    </g>
    <g id="line2d_38"/>
    <g id="text_17">
     <!-- 21 K -->
     <g transform="translate(103.115625 449.180781)scale(0.1 -0.1)">
      <use xlink:href="#DejaVuSans-32"/>
      <use x="63.623047" xlink:href="#DejaVuSans-31"/>
      <use x="127.246094" xlink:href="#DejaVuSans-20"/>
      <use x="159.033203" xlink:href="#DejaVuSans-4b"/>
     </g>
    </g>
   </g>
  </g>
 </g>
 <defs>
  <clipPath id="p413196a25c">
   <rect height="434.88" width="837" x="66.115625" y="25.380469"/>
  </clipPath>
 </defs>
</svg>
