<?xml version="1.0" encoding="utf-8" standalone="no"?>
<!DOCTYPE svg PUBLIC "-//W3C//DTD SVG 1.1//EN"
  "http://www.w3.org/Graphics/SVG/1.1/DTD/svg11.dtd">
<svg height="485.41375pt" version="1.1" viewBox="0 0 901.700312 485.41375" width="901.700312pt" xmlns="http://www.w3.org/2000/svg" xmlns:xlink="http://www.w3.org/1999/xlink">
 <metadata>
  <rdf:RDF xmlns:cc="http://creativecommons.org/ns#" xmlns:dc="http://purl.org/dc/elements/1.1/" xmlns:rdf="http://www.w3.org/1999/02/22-rdf-syntax-ns#">
   <cc:Work>
    <dc:type rdf:resource="http://purl.org/dc/dcmitype/StillImage"/>
    <dc:date>2022-12-13T11:49:08.892384</dc:date>
    <dc:format>image/svg+xml</dc:format>
    <dc:creator>
     <cc:Agent>
      <dc:title>Matplotlib v3.4.3, https://matplotlib.org/</dc:title>
     </cc:Agent>
    </dc:creator>
   </cc:Work>
  </rdf:RDF>
 </metadata>
 <defs>
  <style type="text/css">*{stroke-linecap:butt;stroke-linejoin:round;}</style>
 </defs>
 <g id="figure_1">
  <g id="patch_1">
   <path d="M 0 485.41375 
L 901.700312 485.41375 
L 901.700312 0 
L 0 0 
z
" style="fill:#ffffff;"/>
  </g>
  <g id="axes_1">
   <g id="patch_2">
    <path d="M 57.500313 442.08 
L 894.500313 442.08 
L 894.500313 7.2 
L 57.500313 7.2 
z
" style="fill:#ffffff;"/>
   </g>
   <g id="matplotlib.axis_1">
    <g id="xtick_1">
     <g id="line2d_1">
      <defs>
       <path d="M 0 0 
L 0 3.5 
" id="m66edaeb114" style="stroke:#000000;stroke-width:0.8;"/>
      </defs>
      <g>
       <use style="stroke:#000000;stroke-width:0.8;" x="133.577312" xlink:href="#m66edaeb114" y="442.08"/>
      </g>
     </g>
     <g id="text_1">
      <!-- −3 -->
      <g transform="translate(124.732 458.198125)scale(0.12 -0.12)">
       <defs>
        <path d="M 678 2272 
L 4684 2272 
L 4684 1741 
L 678 1741 
L 678 2272 
z
" id="DejaVuSans-2212" transform="scale(0.015625)"/>
        <path d="M 2597 2516 
Q 3050 2419 3304 2112 
Q 3559 1806 3559 1356 
Q 3559 666 3084 287 
Q 2609 -91 1734 -91 
Q 1441 -91 1130 -33 
Q 819 25 488 141 
L 488 750 
Q 750 597 1062 519 
Q 1375 441 1716 441 
Q 2309 441 2620 675 
Q 2931 909 2931 1356 
Q 2931 1769 2642 2001 
Q 2353 2234 1838 2234 
L 1294 2234 
L 1294 2753 
L 1863 2753 
Q 2328 2753 2575 2939 
Q 2822 3125 2822 3475 
Q 2822 3834 2567 4026 
Q 2313 4219 1838 4219 
Q 1578 4219 1281 4162 
Q 984 4106 628 3988 
L 628 4550 
Q 988 4650 1302 4700 
Q 1616 4750 1894 4750 
Q 2613 4750 3031 4423 
Q 3450 4097 3450 3541 
Q 3450 3153 3228 2886 
Q 3006 2619 2597 2516 
z
" id="DejaVuSans-33" transform="scale(0.015625)"/>
       </defs>
       <use xlink:href="#DejaVuSans-2212"/>
       <use x="83.789062" xlink:href="#DejaVuSans-33"/>
      </g>
     </g>
    </g>
    <g id="xtick_2">
     <g id="line2d_2">
      <g>
       <use style="stroke:#000000;stroke-width:0.8;" x="267.025266" xlink:href="#m66edaeb114" y="442.08"/>
      </g>
     </g>
     <g id="text_2">
      <!-- −2 -->
      <g transform="translate(258.179954 458.198125)scale(0.12 -0.12)">
       <defs>
        <path d="M 1228 531 
L 3431 531 
L 3431 0 
L 469 0 
L 469 531 
Q 828 903 1448 1529 
Q 2069 2156 2228 2338 
Q 2531 2678 2651 2914 
Q 2772 3150 2772 3378 
Q 2772 3750 2511 3984 
Q 2250 4219 1831 4219 
Q 1534 4219 1204 4116 
Q 875 4013 500 3803 
L 500 4441 
Q 881 4594 1212 4672 
Q 1544 4750 1819 4750 
Q 2544 4750 2975 4387 
Q 3406 4025 3406 3419 
Q 3406 3131 3298 2873 
Q 3191 2616 2906 2266 
Q 2828 2175 2409 1742 
Q 1991 1309 1228 531 
z
" id="DejaVuSans-32" transform="scale(0.015625)"/>
       </defs>
       <use xlink:href="#DejaVuSans-2212"/>
       <use x="83.789062" xlink:href="#DejaVuSans-32"/>
      </g>
     </g>
    </g>
    <g id="xtick_3">
     <g id="line2d_3">
      <g>
       <use style="stroke:#000000;stroke-width:0.8;" x="400.47322" xlink:href="#m66edaeb114" y="442.08"/>
      </g>
     </g>
     <g id="text_3">
      <!-- −1 -->
      <g transform="translate(391.627907 458.198125)scale(0.12 -0.12)">
       <defs>
        <path d="M 794 531 
L 1825 531 
L 1825 4091 
L 703 3866 
L 703 4441 
L 1819 4666 
L 2450 4666 
L 2450 531 
L 3481 531 
L 3481 0 
L 794 0 
L 794 531 
z
" id="DejaVuSans-31" transform="scale(0.015625)"/>
       </defs>
       <use xlink:href="#DejaVuSans-2212"/>
       <use x="83.789062" xlink:href="#DejaVuSans-31"/>
      </g>
     </g>
    </g>
    <g id="xtick_4">
     <g id="line2d_4">
      <g>
       <use style="stroke:#000000;stroke-width:0.8;" x="533.921173" xlink:href="#m66edaeb114" y="442.08"/>
      </g>
     </g>
     <g id="text_4">
      <!-- 0 -->
      <g transform="translate(530.103673 458.198125)scale(0.12 -0.12)">
       <defs>
        <path d="M 2034 4250 
Q 1547 4250 1301 3770 
Q 1056 3291 1056 2328 
Q 1056 1369 1301 889 
Q 1547 409 2034 409 
Q 2525 409 2770 889 
Q 3016 1369 3016 2328 
Q 3016 3291 2770 3770 
Q 2525 4250 2034 4250 
z
M 2034 4750 
Q 2819 4750 3233 4129 
Q 3647 3509 3647 2328 
Q 3647 1150 3233 529 
Q 2819 -91 2034 -91 
Q 1250 -91 836 529 
Q 422 1150 422 2328 
Q 422 3509 836 4129 
Q 1250 4750 2034 4750 
z
" id="DejaVuSans-30" transform="scale(0.015625)"/>
       </defs>
       <use xlink:href="#DejaVuSans-30"/>
      </g>
     </g>
    </g>
    <g id="xtick_5">
     <g id="line2d_5">
      <g>
       <use style="stroke:#000000;stroke-width:0.8;" x="667.369127" xlink:href="#m66edaeb114" y="442.08"/>
      </g>
     </g>
     <g id="text_5">
      <!-- 1 -->
      <g transform="translate(663.551627 458.198125)scale(0.12 -0.12)">
       <use xlink:href="#DejaVuSans-31"/>
      </g>
     </g>
    </g>
    <g id="xtick_6">
     <g id="line2d_6">
      <g>
       <use style="stroke:#000000;stroke-width:0.8;" x="800.81708" xlink:href="#m66edaeb114" y="442.08"/>
      </g>
     </g>
     <g id="text_6">
      <!-- 2 -->
      <g transform="translate(796.99958 458.198125)scale(0.12 -0.12)">
       <use xlink:href="#DejaVuSans-32"/>
      </g>
     </g>
    </g>
    <g id="xtick_7">
     <g id="line2d_7">
      <defs>
       <path d="M 0 0 
L 0 2 
" id="mc867da45b0" style="stroke:#000000;stroke-width:0.6;"/>
      </defs>
      <g>
       <use style="stroke:#000000;stroke-width:0.6;" x="66.853336" xlink:href="#mc867da45b0" y="442.08"/>
      </g>
     </g>
    </g>
    <g id="xtick_8">
     <g id="line2d_8">
      <g>
       <use style="stroke:#000000;stroke-width:0.6;" x="200.301289" xlink:href="#mc867da45b0" y="442.08"/>
      </g>
     </g>
    </g>
    <g id="xtick_9">
     <g id="line2d_9">
      <g>
       <use style="stroke:#000000;stroke-width:0.6;" x="333.749243" xlink:href="#mc867da45b0" y="442.08"/>
      </g>
     </g>
    </g>
    <g id="xtick_10">
     <g id="line2d_10">
      <g>
       <use style="stroke:#000000;stroke-width:0.6;" x="467.197196" xlink:href="#mc867da45b0" y="442.08"/>
      </g>
     </g>
    </g>
    <g id="xtick_11">
     <g id="line2d_11">
      <g>
       <use style="stroke:#000000;stroke-width:0.6;" x="600.64515" xlink:href="#mc867da45b0" y="442.08"/>
      </g>
     </g>
    </g>
    <g id="xtick_12">
     <g id="line2d_12">
      <g>
       <use style="stroke:#000000;stroke-width:0.6;" x="734.093103" xlink:href="#mc867da45b0" y="442.08"/>
      </g>
     </g>
    </g>
    <g id="xtick_13">
     <g id="line2d_13">
      <g>
       <use style="stroke:#000000;stroke-width:0.6;" x="867.541057" xlink:href="#mc867da45b0" y="442.08"/>
      </g>
     </g>
    </g>
    <g id="text_7">
     <!-- Wavenumber (in cm$^{-1}$) -->
     <g transform="translate(400.340312 475.510156)scale(0.13 -0.13)">
      <defs>
       <path d="M 213 4666 
L 850 4666 
L 1831 722 
L 2809 4666 
L 3519 4666 
L 4500 722 
L 5478 4666 
L 6119 4666 
L 4947 0 
L 4153 0 
L 3169 4050 
L 2175 0 
L 1381 0 
L 213 4666 
z
" id="DejaVuSans-57" transform="scale(0.015625)"/>
       <path d="M 2194 1759 
Q 1497 1759 1228 1600 
Q 959 1441 959 1056 
Q 959 750 1161 570 
Q 1363 391 1709 391 
Q 2188 391 2477 730 
Q 2766 1069 2766 1631 
L 2766 1759 
L 2194 1759 
z
M 3341 1997 
L 3341 0 
L 2766 0 
L 2766 531 
Q 2569 213 2275 61 
Q 1981 -91 1556 -91 
Q 1019 -91 701 211 
Q 384 513 384 1019 
Q 384 1609 779 1909 
Q 1175 2209 1959 2209 
L 2766 2209 
L 2766 2266 
Q 2766 2663 2505 2880 
Q 2244 3097 1772 3097 
Q 1472 3097 1187 3025 
Q 903 2953 641 2809 
L 641 3341 
Q 956 3463 1253 3523 
Q 1550 3584 1831 3584 
Q 2591 3584 2966 3190 
Q 3341 2797 3341 1997 
z
" id="DejaVuSans-61" transform="scale(0.015625)"/>
       <path d="M 191 3500 
L 800 3500 
L 1894 563 
L 2988 3500 
L 3597 3500 
L 2284 0 
L 1503 0 
L 191 3500 
z
" id="DejaVuSans-76" transform="scale(0.015625)"/>
       <path d="M 3597 1894 
L 3597 1613 
L 953 1613 
Q 991 1019 1311 708 
Q 1631 397 2203 397 
Q 2534 397 2845 478 
Q 3156 559 3463 722 
L 3463 178 
Q 3153 47 2828 -22 
Q 2503 -91 2169 -91 
Q 1331 -91 842 396 
Q 353 884 353 1716 
Q 353 2575 817 3079 
Q 1281 3584 2069 3584 
Q 2775 3584 3186 3129 
Q 3597 2675 3597 1894 
z
M 3022 2063 
Q 3016 2534 2758 2815 
Q 2500 3097 2075 3097 
Q 1594 3097 1305 2825 
Q 1016 2553 972 2059 
L 3022 2063 
z
" id="DejaVuSans-65" transform="scale(0.015625)"/>
       <path d="M 3513 2113 
L 3513 0 
L 2938 0 
L 2938 2094 
Q 2938 2591 2744 2837 
Q 2550 3084 2163 3084 
Q 1697 3084 1428 2787 
Q 1159 2491 1159 1978 
L 1159 0 
L 581 0 
L 581 3500 
L 1159 3500 
L 1159 2956 
Q 1366 3272 1645 3428 
Q 1925 3584 2291 3584 
Q 2894 3584 3203 3211 
Q 3513 2838 3513 2113 
z
" id="DejaVuSans-6e" transform="scale(0.015625)"/>
       <path d="M 544 1381 
L 544 3500 
L 1119 3500 
L 1119 1403 
Q 1119 906 1312 657 
Q 1506 409 1894 409 
Q 2359 409 2629 706 
Q 2900 1003 2900 1516 
L 2900 3500 
L 3475 3500 
L 3475 0 
L 2900 0 
L 2900 538 
Q 2691 219 2414 64 
Q 2138 -91 1772 -91 
Q 1169 -91 856 284 
Q 544 659 544 1381 
z
M 1991 3584 
L 1991 3584 
z
" id="DejaVuSans-75" transform="scale(0.015625)"/>
       <path d="M 3328 2828 
Q 3544 3216 3844 3400 
Q 4144 3584 4550 3584 
Q 5097 3584 5394 3201 
Q 5691 2819 5691 2113 
L 5691 0 
L 5113 0 
L 5113 2094 
Q 5113 2597 4934 2840 
Q 4756 3084 4391 3084 
Q 3944 3084 3684 2787 
Q 3425 2491 3425 1978 
L 3425 0 
L 2847 0 
L 2847 2094 
Q 2847 2600 2669 2842 
Q 2491 3084 2119 3084 
Q 1678 3084 1418 2786 
Q 1159 2488 1159 1978 
L 1159 0 
L 581 0 
L 581 3500 
L 1159 3500 
L 1159 2956 
Q 1356 3278 1631 3431 
Q 1906 3584 2284 3584 
Q 2666 3584 2933 3390 
Q 3200 3197 3328 2828 
z
" id="DejaVuSans-6d" transform="scale(0.015625)"/>
       <path d="M 3116 1747 
Q 3116 2381 2855 2742 
Q 2594 3103 2138 3103 
Q 1681 3103 1420 2742 
Q 1159 2381 1159 1747 
Q 1159 1113 1420 752 
Q 1681 391 2138 391 
Q 2594 391 2855 752 
Q 3116 1113 3116 1747 
z
M 1159 2969 
Q 1341 3281 1617 3432 
Q 1894 3584 2278 3584 
Q 2916 3584 3314 3078 
Q 3713 2572 3713 1747 
Q 3713 922 3314 415 
Q 2916 -91 2278 -91 
Q 1894 -91 1617 61 
Q 1341 213 1159 525 
L 1159 0 
L 581 0 
L 581 4863 
L 1159 4863 
L 1159 2969 
z
" id="DejaVuSans-62" transform="scale(0.015625)"/>
       <path d="M 2631 2963 
Q 2534 3019 2420 3045 
Q 2306 3072 2169 3072 
Q 1681 3072 1420 2755 
Q 1159 2438 1159 1844 
L 1159 0 
L 581 0 
L 581 3500 
L 1159 3500 
L 1159 2956 
Q 1341 3275 1631 3429 
Q 1922 3584 2338 3584 
Q 2397 3584 2469 3576 
Q 2541 3569 2628 3553 
L 2631 2963 
z
" id="DejaVuSans-72" transform="scale(0.015625)"/>
       <path id="DejaVuSans-20" transform="scale(0.015625)"/>
       <path d="M 1984 4856 
Q 1566 4138 1362 3434 
Q 1159 2731 1159 2009 
Q 1159 1288 1364 580 
Q 1569 -128 1984 -844 
L 1484 -844 
Q 1016 -109 783 600 
Q 550 1309 550 2009 
Q 550 2706 781 3412 
Q 1013 4119 1484 4856 
L 1984 4856 
z
" id="DejaVuSans-28" transform="scale(0.015625)"/>
       <path d="M 603 3500 
L 1178 3500 
L 1178 0 
L 603 0 
L 603 3500 
z
M 603 4863 
L 1178 4863 
L 1178 4134 
L 603 4134 
L 603 4863 
z
" id="DejaVuSans-69" transform="scale(0.015625)"/>
       <path d="M 3122 3366 
L 3122 2828 
Q 2878 2963 2633 3030 
Q 2388 3097 2138 3097 
Q 1578 3097 1268 2742 
Q 959 2388 959 1747 
Q 959 1106 1268 751 
Q 1578 397 2138 397 
Q 2388 397 2633 464 
Q 2878 531 3122 666 
L 3122 134 
Q 2881 22 2623 -34 
Q 2366 -91 2075 -91 
Q 1284 -91 818 406 
Q 353 903 353 1747 
Q 353 2603 823 3093 
Q 1294 3584 2113 3584 
Q 2378 3584 2631 3529 
Q 2884 3475 3122 3366 
z
" id="DejaVuSans-63" transform="scale(0.015625)"/>
       <path d="M 513 4856 
L 1013 4856 
Q 1481 4119 1714 3412 
Q 1947 2706 1947 2009 
Q 1947 1309 1714 600 
Q 1481 -109 1013 -844 
L 513 -844 
Q 928 -128 1133 580 
Q 1338 1288 1338 2009 
Q 1338 2731 1133 3434 
Q 928 4138 513 4856 
z
" id="DejaVuSans-29" transform="scale(0.015625)"/>
      </defs>
      <use transform="translate(0 0.684375)" xlink:href="#DejaVuSans-57"/>
      <use transform="translate(98.876953 0.684375)" xlink:href="#DejaVuSans-61"/>
      <use transform="translate(160.15625 0.684375)" xlink:href="#DejaVuSans-76"/>
      <use transform="translate(219.335938 0.684375)" xlink:href="#DejaVuSans-65"/>
      <use transform="translate(280.859375 0.684375)" xlink:href="#DejaVuSans-6e"/>
      <use transform="translate(344.238281 0.684375)" xlink:href="#DejaVuSans-75"/>
      <use transform="translate(407.617188 0.684375)" xlink:href="#DejaVuSans-6d"/>
      <use transform="translate(505.029297 0.684375)" xlink:href="#DejaVuSans-62"/>
      <use transform="translate(568.505859 0.684375)" xlink:href="#DejaVuSans-65"/>
      <use transform="translate(630.029297 0.684375)" xlink:href="#DejaVuSans-72"/>
      <use transform="translate(671.142578 0.684375)" xlink:href="#DejaVuSans-20"/>
      <use transform="translate(702.929688 0.684375)" xlink:href="#DejaVuSans-28"/>
      <use transform="translate(741.943359 0.684375)" xlink:href="#DejaVuSans-69"/>
      <use transform="translate(769.726562 0.684375)" xlink:href="#DejaVuSans-6e"/>
      <use transform="translate(833.105469 0.684375)" xlink:href="#DejaVuSans-20"/>
      <use transform="translate(864.892578 0.684375)" xlink:href="#DejaVuSans-63"/>
      <use transform="translate(919.873047 0.684375)" xlink:href="#DejaVuSans-6d"/>
      <use transform="translate(1018.242188 38.965625)scale(0.7)" xlink:href="#DejaVuSans-2212"/>
      <use transform="translate(1076.894531 38.965625)scale(0.7)" xlink:href="#DejaVuSans-31"/>
      <use transform="translate(1124.165039 0.684375)" xlink:href="#DejaVuSans-29"/>
     </g>
    </g>
   </g>
   <g id="matplotlib.axis_2">
    <g id="ytick_1">
     <g id="line2d_14">
      <defs>
       <path d="M 0 0 
L -3.5 0 
" id="m65ba6ceb7a" style="stroke:#000000;stroke-width:0.8;"/>
      </defs>
      <g>
       <use style="stroke:#000000;stroke-width:0.8;" x="57.500313" xlink:href="#m65ba6ceb7a" y="422.312727"/>
      </g>
     </g>
     <g id="text_8">
      <!-- 0.90 -->
      <g transform="translate(23.781563 426.87179)scale(0.12 -0.12)">
       <defs>
        <path d="M 684 794 
L 1344 794 
L 1344 0 
L 684 0 
L 684 794 
z
" id="DejaVuSans-2e" transform="scale(0.015625)"/>
        <path d="M 703 97 
L 703 672 
Q 941 559 1184 500 
Q 1428 441 1663 441 
Q 2288 441 2617 861 
Q 2947 1281 2994 2138 
Q 2813 1869 2534 1725 
Q 2256 1581 1919 1581 
Q 1219 1581 811 2004 
Q 403 2428 403 3163 
Q 403 3881 828 4315 
Q 1253 4750 1959 4750 
Q 2769 4750 3195 4129 
Q 3622 3509 3622 2328 
Q 3622 1225 3098 567 
Q 2575 -91 1691 -91 
Q 1453 -91 1209 -44 
Q 966 3 703 97 
z
M 1959 2075 
Q 2384 2075 2632 2365 
Q 2881 2656 2881 3163 
Q 2881 3666 2632 3958 
Q 2384 4250 1959 4250 
Q 1534 4250 1286 3958 
Q 1038 3666 1038 3163 
Q 1038 2656 1286 2365 
Q 1534 2075 1959 2075 
z
" id="DejaVuSans-39" transform="scale(0.015625)"/>
       </defs>
       <use xlink:href="#DejaVuSans-30"/>
       <use x="63.623047" xlink:href="#DejaVuSans-2e"/>
       <use x="95.410156" xlink:href="#DejaVuSans-39"/>
       <use x="159.033203" xlink:href="#DejaVuSans-30"/>
      </g>
     </g>
    </g>
    <g id="ytick_2">
     <g id="line2d_15">
      <g>
       <use style="stroke:#000000;stroke-width:0.8;" x="57.500313" xlink:href="#m65ba6ceb7a" y="343.23567"/>
      </g>
     </g>
     <g id="text_9">
      <!-- 0.92 -->
      <g transform="translate(23.781563 347.794732)scale(0.12 -0.12)">
       <use xlink:href="#DejaVuSans-30"/>
       <use x="63.623047" xlink:href="#DejaVuSans-2e"/>
       <use x="95.410156" xlink:href="#DejaVuSans-39"/>
       <use x="159.033203" xlink:href="#DejaVuSans-32"/>
      </g>
     </g>
    </g>
    <g id="ytick_3">
     <g id="line2d_16">
      <g>
       <use style="stroke:#000000;stroke-width:0.8;" x="57.500313" xlink:href="#m65ba6ceb7a" y="264.158612"/>
      </g>
     </g>
     <g id="text_10">
      <!-- 0.94 -->
      <g transform="translate(23.781563 268.717675)scale(0.12 -0.12)">
       <defs>
        <path d="M 2419 4116 
L 825 1625 
L 2419 1625 
L 2419 4116 
z
M 2253 4666 
L 3047 4666 
L 3047 1625 
L 3713 1625 
L 3713 1100 
L 3047 1100 
L 3047 0 
L 2419 0 
L 2419 1100 
L 313 1100 
L 313 1709 
L 2253 4666 
z
" id="DejaVuSans-34" transform="scale(0.015625)"/>
       </defs>
       <use xlink:href="#DejaVuSans-30"/>
       <use x="63.623047" xlink:href="#DejaVuSans-2e"/>
       <use x="95.410156" xlink:href="#DejaVuSans-39"/>
       <use x="159.033203" xlink:href="#DejaVuSans-34"/>
      </g>
     </g>
    </g>
    <g id="ytick_4">
     <g id="line2d_17">
      <g>
       <use style="stroke:#000000;stroke-width:0.8;" x="57.500313" xlink:href="#m65ba6ceb7a" y="185.081555"/>
      </g>
     </g>
     <g id="text_11">
      <!-- 0.96 -->
      <g transform="translate(23.781563 189.640617)scale(0.12 -0.12)">
       <defs>
        <path d="M 2113 2584 
Q 1688 2584 1439 2293 
Q 1191 2003 1191 1497 
Q 1191 994 1439 701 
Q 1688 409 2113 409 
Q 2538 409 2786 701 
Q 3034 994 3034 1497 
Q 3034 2003 2786 2293 
Q 2538 2584 2113 2584 
z
M 3366 4563 
L 3366 3988 
Q 3128 4100 2886 4159 
Q 2644 4219 2406 4219 
Q 1781 4219 1451 3797 
Q 1122 3375 1075 2522 
Q 1259 2794 1537 2939 
Q 1816 3084 2150 3084 
Q 2853 3084 3261 2657 
Q 3669 2231 3669 1497 
Q 3669 778 3244 343 
Q 2819 -91 2113 -91 
Q 1303 -91 875 529 
Q 447 1150 447 2328 
Q 447 3434 972 4092 
Q 1497 4750 2381 4750 
Q 2619 4750 2861 4703 
Q 3103 4656 3366 4563 
z
" id="DejaVuSans-36" transform="scale(0.015625)"/>
       </defs>
       <use xlink:href="#DejaVuSans-30"/>
       <use x="63.623047" xlink:href="#DejaVuSans-2e"/>
       <use x="95.410156" xlink:href="#DejaVuSans-39"/>
       <use x="159.033203" xlink:href="#DejaVuSans-36"/>
      </g>
     </g>
    </g>
    <g id="ytick_5">
     <g id="line2d_18">
      <g>
       <use style="stroke:#000000;stroke-width:0.8;" x="57.500313" xlink:href="#m65ba6ceb7a" y="106.004497"/>
      </g>
     </g>
     <g id="text_12">
      <!-- 0.98 -->
      <g transform="translate(23.781563 110.56356)scale(0.12 -0.12)">
       <defs>
        <path d="M 2034 2216 
Q 1584 2216 1326 1975 
Q 1069 1734 1069 1313 
Q 1069 891 1326 650 
Q 1584 409 2034 409 
Q 2484 409 2743 651 
Q 3003 894 3003 1313 
Q 3003 1734 2745 1975 
Q 2488 2216 2034 2216 
z
M 1403 2484 
Q 997 2584 770 2862 
Q 544 3141 544 3541 
Q 544 4100 942 4425 
Q 1341 4750 2034 4750 
Q 2731 4750 3128 4425 
Q 3525 4100 3525 3541 
Q 3525 3141 3298 2862 
Q 3072 2584 2669 2484 
Q 3125 2378 3379 2068 
Q 3634 1759 3634 1313 
Q 3634 634 3220 271 
Q 2806 -91 2034 -91 
Q 1263 -91 848 271 
Q 434 634 434 1313 
Q 434 1759 690 2068 
Q 947 2378 1403 2484 
z
M 1172 3481 
Q 1172 3119 1398 2916 
Q 1625 2713 2034 2713 
Q 2441 2713 2670 2916 
Q 2900 3119 2900 3481 
Q 2900 3844 2670 4047 
Q 2441 4250 2034 4250 
Q 1625 4250 1398 4047 
Q 1172 3844 1172 3481 
z
" id="DejaVuSans-38" transform="scale(0.015625)"/>
       </defs>
       <use xlink:href="#DejaVuSans-30"/>
       <use x="63.623047" xlink:href="#DejaVuSans-2e"/>
       <use x="95.410156" xlink:href="#DejaVuSans-39"/>
       <use x="159.033203" xlink:href="#DejaVuSans-38"/>
      </g>
     </g>
    </g>
    <g id="ytick_6">
     <g id="line2d_19">
      <g>
       <use style="stroke:#000000;stroke-width:0.8;" x="57.500313" xlink:href="#m65ba6ceb7a" y="26.927439"/>
      </g>
     </g>
     <g id="text_13">
      <!-- 1.00 -->
      <g transform="translate(23.781563 31.486502)scale(0.12 -0.12)">
       <use xlink:href="#DejaVuSans-31"/>
       <use x="63.623047" xlink:href="#DejaVuSans-2e"/>
       <use x="95.410156" xlink:href="#DejaVuSans-30"/>
       <use x="159.033203" xlink:href="#DejaVuSans-30"/>
      </g>
     </g>
    </g>
    <g id="ytick_7">
     <g id="line2d_20">
      <defs>
       <path d="M 0 0 
L -2 0 
" id="m24168980d9" style="stroke:#000000;stroke-width:0.6;"/>
      </defs>
      <g>
       <use style="stroke:#000000;stroke-width:0.6;" x="57.500313" xlink:href="#m24168980d9" y="382.774198"/>
      </g>
     </g>
    </g>
    <g id="ytick_8">
     <g id="line2d_21">
      <g>
       <use style="stroke:#000000;stroke-width:0.6;" x="57.500313" xlink:href="#m24168980d9" y="303.697141"/>
      </g>
     </g>
    </g>
    <g id="ytick_9">
     <g id="line2d_22">
      <g>
       <use style="stroke:#000000;stroke-width:0.6;" x="57.500313" xlink:href="#m24168980d9" y="224.620083"/>
      </g>
     </g>
    </g>
    <g id="ytick_10">
     <g id="line2d_23">
      <g>
       <use style="stroke:#000000;stroke-width:0.6;" x="57.500313" xlink:href="#m24168980d9" y="145.543026"/>
      </g>
     </g>
    </g>
    <g id="ytick_11">
     <g id="line2d_24">
      <g>
       <use style="stroke:#000000;stroke-width:0.6;" x="57.500313" xlink:href="#m24168980d9" y="66.465968"/>
      </g>
     </g>
    </g>
    <g id="text_14">
     <!-- Normalized Intensity -->
     <g transform="translate(17.077969 291.859141)rotate(-90)scale(0.13 -0.13)">
      <defs>
       <path d="M 628 4666 
L 1478 4666 
L 3547 763 
L 3547 4666 
L 4159 4666 
L 4159 0 
L 3309 0 
L 1241 3903 
L 1241 0 
L 628 0 
L 628 4666 
z
" id="DejaVuSans-4e" transform="scale(0.015625)"/>
       <path d="M 1959 3097 
Q 1497 3097 1228 2736 
Q 959 2375 959 1747 
Q 959 1119 1226 758 
Q 1494 397 1959 397 
Q 2419 397 2687 759 
Q 2956 1122 2956 1747 
Q 2956 2369 2687 2733 
Q 2419 3097 1959 3097 
z
M 1959 3584 
Q 2709 3584 3137 3096 
Q 3566 2609 3566 1747 
Q 3566 888 3137 398 
Q 2709 -91 1959 -91 
Q 1206 -91 779 398 
Q 353 888 353 1747 
Q 353 2609 779 3096 
Q 1206 3584 1959 3584 
z
" id="DejaVuSans-6f" transform="scale(0.015625)"/>
       <path d="M 603 4863 
L 1178 4863 
L 1178 0 
L 603 0 
L 603 4863 
z
" id="DejaVuSans-6c" transform="scale(0.015625)"/>
       <path d="M 353 3500 
L 3084 3500 
L 3084 2975 
L 922 459 
L 3084 459 
L 3084 0 
L 275 0 
L 275 525 
L 2438 3041 
L 353 3041 
L 353 3500 
z
" id="DejaVuSans-7a" transform="scale(0.015625)"/>
       <path d="M 2906 2969 
L 2906 4863 
L 3481 4863 
L 3481 0 
L 2906 0 
L 2906 525 
Q 2725 213 2448 61 
Q 2172 -91 1784 -91 
Q 1150 -91 751 415 
Q 353 922 353 1747 
Q 353 2572 751 3078 
Q 1150 3584 1784 3584 
Q 2172 3584 2448 3432 
Q 2725 3281 2906 2969 
z
M 947 1747 
Q 947 1113 1208 752 
Q 1469 391 1925 391 
Q 2381 391 2643 752 
Q 2906 1113 2906 1747 
Q 2906 2381 2643 2742 
Q 2381 3103 1925 3103 
Q 1469 3103 1208 2742 
Q 947 2381 947 1747 
z
" id="DejaVuSans-64" transform="scale(0.015625)"/>
       <path d="M 628 4666 
L 1259 4666 
L 1259 0 
L 628 0 
L 628 4666 
z
" id="DejaVuSans-49" transform="scale(0.015625)"/>
       <path d="M 1172 4494 
L 1172 3500 
L 2356 3500 
L 2356 3053 
L 1172 3053 
L 1172 1153 
Q 1172 725 1289 603 
Q 1406 481 1766 481 
L 2356 481 
L 2356 0 
L 1766 0 
Q 1100 0 847 248 
Q 594 497 594 1153 
L 594 3053 
L 172 3053 
L 172 3500 
L 594 3500 
L 594 4494 
L 1172 4494 
z
" id="DejaVuSans-74" transform="scale(0.015625)"/>
       <path d="M 2834 3397 
L 2834 2853 
Q 2591 2978 2328 3040 
Q 2066 3103 1784 3103 
Q 1356 3103 1142 2972 
Q 928 2841 928 2578 
Q 928 2378 1081 2264 
Q 1234 2150 1697 2047 
L 1894 2003 
Q 2506 1872 2764 1633 
Q 3022 1394 3022 966 
Q 3022 478 2636 193 
Q 2250 -91 1575 -91 
Q 1294 -91 989 -36 
Q 684 19 347 128 
L 347 722 
Q 666 556 975 473 
Q 1284 391 1588 391 
Q 1994 391 2212 530 
Q 2431 669 2431 922 
Q 2431 1156 2273 1281 
Q 2116 1406 1581 1522 
L 1381 1569 
Q 847 1681 609 1914 
Q 372 2147 372 2553 
Q 372 3047 722 3315 
Q 1072 3584 1716 3584 
Q 2034 3584 2315 3537 
Q 2597 3491 2834 3397 
z
" id="DejaVuSans-73" transform="scale(0.015625)"/>
       <path d="M 2059 -325 
Q 1816 -950 1584 -1140 
Q 1353 -1331 966 -1331 
L 506 -1331 
L 506 -850 
L 844 -850 
Q 1081 -850 1212 -737 
Q 1344 -625 1503 -206 
L 1606 56 
L 191 3500 
L 800 3500 
L 1894 763 
L 2988 3500 
L 3597 3500 
L 2059 -325 
z
" id="DejaVuSans-79" transform="scale(0.015625)"/>
      </defs>
      <use xlink:href="#DejaVuSans-4e"/>
      <use x="74.804688" xlink:href="#DejaVuSans-6f"/>
      <use x="135.986328" xlink:href="#DejaVuSans-72"/>
      <use x="175.349609" xlink:href="#DejaVuSans-6d"/>
      <use x="272.761719" xlink:href="#DejaVuSans-61"/>
      <use x="334.041016" xlink:href="#DejaVuSans-6c"/>
      <use x="361.824219" xlink:href="#DejaVuSans-69"/>
      <use x="389.607422" xlink:href="#DejaVuSans-7a"/>
      <use x="442.097656" xlink:href="#DejaVuSans-65"/>
      <use x="503.621094" xlink:href="#DejaVuSans-64"/>
      <use x="567.097656" xlink:href="#DejaVuSans-20"/>
      <use x="598.884766" xlink:href="#DejaVuSans-49"/>
      <use x="628.376953" xlink:href="#DejaVuSans-6e"/>
      <use x="691.755859" xlink:href="#DejaVuSans-74"/>
      <use x="730.964844" xlink:href="#DejaVuSans-65"/>
      <use x="792.488281" xlink:href="#DejaVuSans-6e"/>
      <use x="855.867188" xlink:href="#DejaVuSans-73"/>
      <use x="907.966797" xlink:href="#DejaVuSans-69"/>
      <use x="935.75" xlink:href="#DejaVuSans-74"/>
      <use x="974.958984" xlink:href="#DejaVuSans-79"/>
     </g>
    </g>
   </g>
   <g id="line2d_25">
    <path clip-path="url(#p6f1a80c3e3)" d="M 134.109419 26.975049 
L 172.123041 27.139028 
L 195.881556 27.453786 
L 210.136664 27.825251 
L 224.391773 28.440409 
L 233.895179 29.053465 
L 243.398584 29.894488 
L 252.90199 31.037512 
L 262.405396 32.575449 
L 267.157099 33.527329 
L 271.908802 34.62256 
L 276.660504 35.879036 
L 281.412207 37.316123 
L 286.16391 38.954617 
L 290.915613 40.816663 
L 295.667316 42.925623 
L 300.419019 45.305881 
L 305.170722 47.982583 
L 309.922424 50.981297 
L 314.674127 54.327587 
L 319.42583 58.046499 
L 324.177533 62.161937 
L 328.929236 66.69595 
L 333.680939 71.667903 
L 338.432642 77.093548 
L 343.184344 82.984011 
L 347.936047 89.344677 
L 352.68775 96.174032 
L 357.439453 103.462447 
L 362.191156 111.190978 
L 366.942859 119.330186 
L 371.694562 127.83907 
L 376.446265 136.664139 
L 385.94967 154.982656 
L 400.204779 182.730297 
L 404.956482 191.592642 
L 409.708185 200.043265 
L 414.459887 207.94483 
L 419.21159 215.16252 
L 423.963293 221.570645 
L 428.714996 227.060779 
L 433.466699 231.551544 
L 438.218402 235.000159 
L 442.970105 237.415772 
L 447.721807 238.874492 
L 452.47351 239.535797 
L 457.225213 239.6596 
L 461.976916 239.622442 
L 466.728619 239.929962 
L 471.480322 241.220592 
L 476.232025 244.252334 
L 480.983727 249.860983 
L 485.73543 258.87594 
L 490.487133 271.981885 
L 495.238836 289.525136 
L 499.990539 311.285172 
L 504.742242 336.262262 
L 509.493945 362.56106 
L 514.245648 387.459463 
L 518.99735 407.724091 
L 523.749053 420.163218 
L 528.500756 422.312727 
L 533.252459 413.070664 
L 538.004162 393.075658 
L 542.755865 364.686451 
L 552.25927 297.858277 
L 557.010973 267.576654 
L 561.762676 243.74765 
L 566.514379 228.131915 
L 571.266082 221.153126 
L 576.017785 222.107264 
L 580.769488 229.516885 
L 585.52119 241.511985 
L 590.272893 256.152185 
L 595.024596 271.650223 
L 599.776299 286.49525 
L 604.528002 299.497282 
L 609.279705 309.78149 
L 614.031408 316.757726 
L 618.783111 320.082641 
L 623.534813 319.623435 
L 628.286516 315.426101 
L 633.038219 307.687499 
L 637.789922 296.729394 
L 642.541625 282.972759 
L 647.293328 266.91146 
L 652.045031 249.085343 
L 656.796733 230.053409 
L 671.051842 171.079618 
L 675.803545 152.358237 
L 680.555248 134.721715 
L 685.306951 118.422924 
L 690.058653 103.633767 
L 694.810356 90.449093 
L 699.562059 78.894191 
L 704.313762 68.934919 
L 709.065465 60.489449 
L 713.817168 53.440619 
L 718.568871 47.648013 
L 723.320573 42.959012 
L 728.072276 39.218292 
L 732.823979 36.275446 
L 737.575682 33.990616 
L 742.327385 32.238196 
L 747.079088 30.908801 
L 751.830791 29.909806 
L 756.582494 29.164774 
L 761.334196 28.612123 
L 770.837602 27.900953 
L 780.341008 27.509253 
L 794.596116 27.214087 
L 818.354631 27.025036 
L 837.361442 26.969452 
L 837.361442 26.969452 
" style="fill:none;stroke:#e98768;stroke-linecap:square;stroke-width:1.5;"/>
   </g>
   <g id="line2d_26">
    <path clip-path="url(#p6f1a80c3e3)" d="M 95.545767 26.967563 
L 143.531025 27.149298 
L 168.66616 27.46374 
L 184.661246 27.857974 
L 198.37132 28.406583 
L 209.796381 29.087677 
L 218.93643 29.836111 
L 228.07648 30.822762 
L 234.931516 31.758308 
L 241.786553 32.897775 
L 248.64159 34.27906 
L 255.496627 35.945171 
L 260.066652 37.237761 
L 264.636676 38.693863 
L 269.206701 40.330061 
L 273.776725 42.163874 
L 278.34675 44.213675 
L 282.916774 46.49856 
L 287.486799 49.038197 
L 292.056824 51.852612 
L 296.626848 54.961946 
L 301.196873 58.386141 
L 305.766897 62.144592 
L 310.336922 66.255723 
L 314.906946 70.736514 
L 319.476971 75.601969 
L 324.046996 80.86452 
L 328.61702 86.533387 
L 333.187045 92.613881 
L 337.757069 99.106682 
L 342.327094 106.00708 
L 346.897118 113.304222 
L 351.467143 120.980359 
L 356.037168 129.010148 
L 362.892204 141.642101 
L 369.747241 154.841506 
L 381.172303 177.544531 
L 390.312352 195.642512 
L 397.167389 208.696147 
L 401.737413 216.962084 
L 406.307438 224.759209 
L 410.877462 231.988469 
L 415.447487 238.558657 
L 417.732499 241.571503 
L 420.017512 244.391607 
L 422.302524 247.012228 
L 424.587536 249.428239 
L 426.872548 251.636366 
L 429.157561 253.635429 
L 431.442573 255.4266 
L 433.727585 257.013663 
L 436.012598 258.403287 
L 438.29761 259.605294 
L 440.582622 260.632931 
L 442.867634 261.503132 
L 447.437659 262.858862 
L 454.292696 264.372227 
L 458.86272 265.48273 
L 461.147733 266.210576 
L 463.432745 267.126192 
L 465.717757 268.288275 
L 468.00277 269.757925 
L 470.287782 271.597576 
L 472.572794 273.869657 
L 474.857806 276.634947 
L 477.142819 279.950635 
L 479.427831 283.868073 
L 481.712843 288.430266 
L 483.997855 293.669126 
L 486.282868 299.602595 
L 488.56788 306.231721 
L 490.852892 313.537827 
L 493.137905 321.479953 
L 495.422917 329.992728 
L 499.992941 348.338735 
L 506.847978 377.012008 
L 509.132991 386.144789 
L 511.418003 394.710693 
L 513.703015 402.485598 
L 515.988027 409.248063 
L 518.27304 414.787717 
L 520.558052 418.913931 
L 522.843064 421.464339 
L 525.128077 422.312727 
L 527.413089 421.375836 
L 529.698101 418.618635 
L 531.983113 414.057712 
L 534.268126 407.762511 
L 536.553138 399.854283 
L 538.83815 390.502748 
L 541.123163 379.920606 
L 543.408175 368.356166 
L 547.978199 343.397463 
L 552.548224 317.966909 
L 554.833236 305.798473 
L 557.118249 294.34621 
L 559.403261 283.838074 
L 561.688273 274.466059 
L 563.973285 266.382121 
L 566.258298 259.695927 
L 568.54331 254.474374 
L 570.828322 250.742713 
L 573.113335 248.487077 
L 575.398347 247.65813 
L 577.683359 248.175542 
L 579.968371 249.933016 
L 582.253384 252.803553 
L 584.538396 256.644732 
L 586.823408 261.303781 
L 589.108421 266.622272 
L 591.393433 272.440323 
L 595.963457 284.949561 
L 600.533482 297.64676 
L 602.818494 303.735039 
L 605.103507 309.495769 
L 607.388519 314.828705 
L 609.673531 319.646093 
L 611.958543 323.872603 
L 614.243556 327.445059 
L 616.528568 330.312037 
L 618.81358 332.43335 
L 621.098593 333.779477 
L 623.383605 334.330952 
L 625.668617 334.077723 
L 627.953629 333.018523 
L 630.238642 331.160221 
L 632.523654 328.51719 
L 634.808666 325.110677 
L 637.093679 320.968178 
L 639.378691 316.122816 
L 641.663703 310.612722 
L 643.948715 304.480419 
L 646.233728 297.772207 
L 648.51874 290.537548 
L 650.803752 282.828456 
L 655.373777 266.204171 
L 659.943801 248.343797 
L 666.798838 220.212094 
L 675.938887 182.403722 
L 680.508912 164.201936 
L 685.078937 146.869479 
L 689.648961 130.635032 
L 694.218986 115.666981 
L 698.78901 102.074673 
L 701.074023 95.813341 
L 703.359035 89.912215 
L 705.644047 84.370384 
L 707.929059 79.184301 
L 710.214072 74.34803 
L 712.499084 69.853513 
L 714.784096 65.690836 
L 717.069109 61.848496 
L 719.354121 58.313665 
L 721.639133 55.072443 
L 723.924145 52.110112 
L 726.209158 49.411361 
L 728.49417 46.960509 
L 730.779182 44.741702 
L 733.064195 42.7391 
L 735.349207 40.937032 
L 737.634219 39.320147 
L 739.919231 37.873531 
L 742.204244 36.582812 
L 744.489256 35.434242 
L 749.059281 33.512055 
L 753.629305 32.011548 
L 758.19933 30.849806 
L 762.769354 29.956427 
L 767.339379 29.272898 
L 774.194416 28.539461 
L 781.049453 28.051174 
L 790.189502 27.640239 
L 803.899575 27.306946 
L 824.464686 27.086151 
L 856.454858 26.969712 
L 856.454858 26.969712 
" style="fill:none;stroke:#de5d5c;stroke-linecap:square;stroke-width:1.5;"/>
   </g>
   <g id="line2d_27">
    <path clip-path="url(#p6f1a80c3e3)" d="M 136.314345 26.969055 
L 163.644401 27.161047 
L 182.492715 27.509288 
L 196.628951 27.992996 
L 206.995524 28.556306 
L 215.477266 29.223086 
L 223.016591 30.040457 
L 229.613501 30.991667 
L 235.267996 32.033479 
L 239.980074 33.097697 
L 244.692153 34.372749 
L 249.404232 35.891016 
L 254.11631 37.685311 
L 257.885973 39.340854 
L 261.655636 41.208347 
L 265.425299 43.30098 
L 269.194962 45.629638 
L 272.964625 48.202466 
L 276.734288 51.024592 
L 280.503951 54.09803 
L 284.273613 57.421799 
L 288.043276 60.992237 
L 292.755355 65.793096 
L 297.467434 70.955435 
L 302.179512 76.462786 
L 306.891591 82.298805 
L 311.603669 88.448716 
L 317.258164 96.225552 
L 322.912658 104.419117 
L 328.567153 113.014267 
L 334.221647 121.994254 
L 340.818557 132.926004 
L 347.415467 144.294012 
L 355.897209 159.413244 
L 381.342433 205.293458 
L 386.996927 214.840259 
L 391.709006 222.402964 
L 396.421085 229.529709 
L 400.190748 234.87207 
L 403.96041 239.863004 
L 407.730073 244.478518 
L 411.499736 248.701537 
L 415.269399 252.523422 
L 419.039062 255.945625 
L 422.808725 258.981466 
L 426.578388 261.658007 
L 430.348051 264.017954 
L 434.117714 266.12146 
L 439.772208 268.974528 
L 446.369118 272.280321 
L 450.138781 274.41947 
L 452.966028 276.26261 
L 455.793275 278.390014 
L 458.620522 280.875648 
L 461.44777 283.793454 
L 463.332601 286.014203 
L 465.217433 288.478802 
L 467.102264 291.205663 
L 468.987095 294.211217 
L 470.871927 297.509418 
L 473.699174 303.028485 
L 476.526421 309.251572 
L 479.353668 316.178781 
L 482.180916 323.784994 
L 485.008163 332.01676 
L 488.777826 343.81553 
L 493.489904 359.464325 
L 501.02923 384.648475 
L 503.856477 393.425352 
L 506.683724 401.458767 
L 508.568556 406.277985 
L 510.453387 410.583882 
L 512.338219 414.307847 
L 514.22305 417.386024 
L 516.107882 419.760729 
L 517.050297 420.668281 
L 517.992713 421.381823 
L 518.935129 421.896474 
L 519.877545 422.207976 
L 520.81996 422.312727 
L 521.762376 422.207809 
L 522.704792 421.891013 
L 523.647207 421.360863 
L 524.589623 420.616635 
L 525.532039 419.658369 
L 526.474455 418.486887 
L 527.41687 417.103794 
L 529.301702 413.713138 
L 531.186533 409.514967 
L 533.071365 404.550178 
L 534.956196 398.871492 
L 536.841028 392.542688 
L 539.668275 381.994435 
L 542.495522 370.436354 
L 546.265185 354.00766 
L 553.804511 320.694202 
L 556.631758 309.066814 
L 559.459005 298.379369 
L 561.343836 291.900833 
L 563.228668 286.012818 
L 565.113499 280.76671 
L 566.998331 276.203113 
L 568.883162 272.351607 
L 570.767994 269.230718 
L 572.652825 266.848104 
L 573.595241 265.933159 
L 574.537657 265.200925 
L 575.480072 264.649499 
L 576.422488 264.276395 
L 577.364904 264.078573 
L 578.307319 264.052465 
L 579.249735 264.194003 
L 580.192151 264.498643 
L 581.134567 264.961403 
L 582.076982 265.576888 
L 583.961814 267.242585 
L 585.846645 269.445549 
L 587.731477 272.13105 
L 589.616308 275.240826 
L 591.50114 278.714065 
L 594.328387 284.468664 
L 598.09805 292.827207 
L 607.522207 314.154344 
L 610.349454 319.916946 
L 613.176701 325.10579 
L 615.061533 328.182209 
L 616.946364 330.913237 
L 618.831196 333.269733 
L 620.716027 335.22645 
L 622.600858 336.761962 
L 624.48569 337.858581 
L 626.370521 338.502241 
L 627.312937 338.650774 
L 628.255353 338.682369 
L 629.197769 338.596226 
L 630.140184 338.391746 
L 631.0826 338.068527 
L 632.967431 337.0652 
L 634.852263 335.586729 
L 636.737094 333.636391 
L 638.621926 331.22009 
L 640.506757 328.346183 
L 642.391589 325.025316 
L 644.27642 321.270252 
L 646.161252 317.095704 
L 648.046083 312.518171 
L 650.87333 304.936325 
L 653.700577 296.556072 
L 656.527825 287.450869 
L 659.355072 277.699321 
L 663.124735 263.835233 
L 667.836813 245.408045 
L 673.491308 222.228742 
L 687.627543 163.61929 
L 692.339622 145.176321 
L 696.109285 131.188744 
L 699.878948 118.024148 
L 703.648611 105.786437 
L 706.475858 97.263599 
L 709.303105 89.327732 
L 712.130352 81.991702 
L 714.957599 75.259539 
L 717.784847 69.126837 
L 720.612094 63.581369 
L 723.439341 58.603884 
L 726.266588 54.169057 
L 729.093835 50.246552 
L 731.921082 46.802155 
L 734.74833 43.798917 
L 737.575577 41.198279 
L 740.402824 38.961115 
L 743.230071 37.048683 
L 746.057318 35.423432 
L 748.884566 34.049671 
L 751.711813 32.894071 
L 755.481476 31.640151 
L 759.251138 30.655586 
L 763.020801 29.885443 
L 767.73288 29.155402 
L 773.387374 28.529275 
L 779.984284 28.033087 
L 788.466026 27.625998 
L 800.71743 27.29135 
L 818.623329 27.06069 
L 836.529228 26.969465 
L 836.529228 26.969465 
" style="fill:none;stroke:#c14168;stroke-linecap:square;stroke-width:1.5;"/>
   </g>
   <g id="line2d_28">
    <path clip-path="url(#p6f1a80c3e3)" d="M 154.589129 26.967273 
L 172.082438 27.143201 
L 182.911629 27.450235 
L 191.241776 27.884267 
L 198.738909 28.492509 
L 205.403027 29.261715 
L 211.23413 30.153329 
L 217.065233 31.288245 
L 222.063321 32.485904 
L 227.06141 33.921641 
L 231.226483 35.323408 
L 235.391557 36.934437 
L 239.556631 38.778533 
L 243.721704 40.882158 
L 247.886778 43.274383 
L 251.218837 45.416955 
L 254.550896 47.781079 
L 257.882955 50.383884 
L 261.215013 53.242355 
L 264.547072 56.37276 
L 267.879131 59.78997 
L 271.21119 63.506705 
L 274.543249 67.532715 
L 277.875308 71.873942 
L 281.207367 76.531722 
L 285.37244 82.792468 
L 289.537514 89.520317 
L 293.702588 96.679076 
L 298.700676 105.764781 
L 304.531779 116.898491 
L 312.861926 133.3696 
L 323.691118 154.702307 
L 329.522221 165.682834 
L 334.520309 174.631939 
L 338.685383 181.70104 
L 342.850457 188.382716 
L 347.01553 194.657055 
L 351.180604 200.513623 
L 355.345677 205.94906 
L 359.510751 210.964746 
L 363.675825 215.564863 
L 367.007884 218.949547 
L 370.339943 222.075306 
L 373.672001 224.946065 
L 377.00406 227.566589 
L 380.336119 229.942991 
L 383.668178 232.083392 
L 387.000237 233.998672 
L 390.332296 235.703262 
L 394.49737 237.566741 
L 398.662443 239.178383 
L 403.660532 240.867306 
L 417.821782 245.444211 
L 421.153841 246.793604 
L 424.4859 248.373503 
L 427.817959 250.248053 
L 430.317003 251.885894 
L 432.816047 253.752123 
L 435.315091 255.872658 
L 437.814135 258.272473 
L 440.313179 260.975329 
L 442.812224 264.003502 
L 445.311268 267.377486 
L 447.810312 271.115665 
L 450.309356 275.233931 
L 452.8084 279.74523 
L 455.307445 284.659036 
L 457.806489 289.98072 
L 461.138548 297.710921 
L 464.470607 306.151811 
L 467.802665 315.26689 
L 471.134724 324.993743 
L 475.299798 337.86855 
L 481.130901 356.748143 
L 488.628034 380.94317 
L 491.960092 390.983421 
L 494.459137 397.9661 
L 496.958181 404.329307 
L 499.457225 409.935468 
L 501.123254 413.18496 
L 502.789284 415.998268 
L 504.455313 418.337879 
L 506.121343 420.16847 
L 507.787372 421.457491 
L 508.620387 421.889638 
L 509.453402 422.175729 
L 510.286416 422.312727 
L 511.119431 422.297871 
L 511.952446 422.128692 
L 512.785461 421.803031 
L 513.618475 421.319049 
L 514.45149 420.675244 
L 515.284505 419.870464 
L 516.950534 417.77517 
L 518.616564 415.031312 
L 520.282593 411.643227 
L 521.948623 407.621631 
L 523.614652 402.98372 
L 525.280682 397.753177 
L 526.946711 391.960076 
L 529.445755 382.296599 
L 531.944799 371.597285 
L 535.276858 356.023609 
L 539.441932 335.128156 
L 548.605094 288.458239 
L 551.937153 272.931507 
L 554.436197 262.279492 
L 556.935241 252.674688 
L 558.601271 246.928072 
L 560.2673 241.751113 
L 561.933329 237.175352 
L 563.599359 233.226361 
L 565.265388 229.923681 
L 566.931418 227.280836 
L 568.597447 225.30542 
L 569.430462 224.568792 
L 570.263477 223.99927 
L 571.096491 223.596221 
L 571.929506 223.358683 
L 572.762521 223.285375 
L 573.595536 223.374708 
L 574.42855 223.624796 
L 575.261565 224.033467 
L 576.09458 224.59828 
L 576.927595 225.316527 
L 578.593624 227.201285 
L 580.259653 229.661382 
L 581.925683 232.667122 
L 583.591712 236.185891 
L 585.257742 240.18257 
L 586.923771 244.619936 
L 589.422815 252.016697 
L 591.92186 260.180214 
L 595.253918 272.013013 
L 599.418992 287.848239 
L 611.081198 333.006402 
L 614.413257 344.748691 
L 616.912301 352.873786 
L 619.411346 360.285957 
L 621.91039 366.876008 
L 623.576419 370.761792 
L 625.242449 374.208073 
L 626.908478 377.188032 
L 628.574508 379.676634 
L 630.240537 381.650787 
L 631.906566 383.089505 
L 632.739581 383.602136 
L 633.572596 383.974081 
L 634.405611 384.203388 
L 635.238625 384.288269 
L 636.07164 384.227107 
L 636.904655 384.018462 
L 637.737669 383.661074 
L 638.570684 383.153872 
L 639.403699 382.495976 
L 641.069728 380.725581 
L 642.735758 378.346885 
L 644.401787 375.360263 
L 646.067817 371.769574 
L 647.733846 367.582261 
L 649.399876 362.809401 
L 651.065905 357.465735 
L 652.731935 351.569649 
L 655.230979 341.738756 
L 657.730023 330.803898 
L 660.229067 318.870214 
L 663.561126 301.613925 
L 666.893185 283.1141 
L 671.891273 253.794054 
L 683.553479 184.317217 
L 687.718553 161.171766 
L 691.050612 143.854891 
L 694.382671 127.799532 
L 696.881715 116.661429 
L 699.380759 106.334332 
L 701.879803 96.833575 
L 704.378848 88.159502 
L 706.877892 80.299035 
L 709.376936 73.227499 
L 711.87598 66.910572 
L 714.375024 61.30631 
L 716.874068 56.367134 
L 719.373113 52.041718 
L 721.872157 48.276733 
L 724.371201 45.018371 
L 726.870245 42.213664 
L 729.369289 39.811549 
L 731.868334 37.763693 
L 734.367378 36.025097 
L 736.866422 34.554481 
L 739.365466 33.314488 
L 742.697525 31.962762 
L 746.029584 30.893638 
L 749.361643 30.050079 
L 753.526716 29.242507 
L 758.524805 28.543167 
L 764.355908 27.987313 
L 771.020026 27.577976 
L 780.183188 27.253079 
L 793.511423 27.038211 
L 804.340615 26.969727 
L 804.340615 26.969727 
" style="fill:none;stroke:#9a3670;stroke-linecap:square;stroke-width:1.5;"/>
   </g>
   <g id="patch_3">
    <path d="M 57.500313 442.08 
L 57.500313 7.2 
" style="fill:none;stroke:#000000;stroke-linecap:square;stroke-linejoin:miter;stroke-width:0.8;"/>
   </g>
   <g id="patch_4">
    <path d="M 894.500313 442.08 
L 894.500313 7.2 
" style="fill:none;stroke:#000000;stroke-linecap:square;stroke-linejoin:miter;stroke-width:0.8;"/>
   </g>
   <g id="patch_5">
    <path d="M 57.500313 442.08 
L 894.500312 442.08 
" style="fill:none;stroke:#000000;stroke-linecap:square;stroke-linejoin:miter;stroke-width:0.8;"/>
   </g>
   <g id="patch_6">
    <path d="M 57.500313 7.2 
L 894.500312 7.2 
" style="fill:none;stroke:#000000;stroke-linecap:square;stroke-linejoin:miter;stroke-width:0.8;"/>
   </g>
   <g id="legend_1">
    <g id="patch_7">
     <path d="M 64.500313 437.08 
L 152.262812 437.08 
Q 154.262812 437.08 154.262812 435.08 
L 154.262812 377.3675 
Q 154.262812 375.3675 152.262812 375.3675 
L 64.500313 375.3675 
Q 62.500313 375.3675 62.500313 377.3675 
L 62.500313 435.08 
Q 62.500313 437.08 64.500313 437.08 
z
" style="fill:#ffffff;opacity:0.8;stroke:#cccccc;stroke-linejoin:miter;"/>
    </g>
    <g id="line2d_29">
     <path d="M 66.500313 383.465938 
L 86.500313 383.465938 
" style="fill:none;stroke:#e98768;stroke-linecap:square;stroke-width:1.5;"/>
    </g>
    <g id="line2d_30"/>
    <g id="text_15">
     <!-- condition a -->
     <g transform="translate(94.500313 386.965938)scale(0.1 -0.1)">
      <use xlink:href="#DejaVuSans-63"/>
      <use x="54.980469" xlink:href="#DejaVuSans-6f"/>
      <use x="116.162109" xlink:href="#DejaVuSans-6e"/>
      <use x="179.541016" xlink:href="#DejaVuSans-64"/>
      <use x="243.017578" xlink:href="#DejaVuSans-69"/>
      <use x="270.800781" xlink:href="#DejaVuSans-74"/>
      <use x="310.009766" xlink:href="#DejaVuSans-69"/>
      <use x="337.792969" xlink:href="#DejaVuSans-6f"/>
      <use x="398.974609" xlink:href="#DejaVuSans-6e"/>
      <use x="462.353516" xlink:href="#DejaVuSans-20"/>
      <use x="494.140625" xlink:href="#DejaVuSans-61"/>
     </g>
    </g>
    <g id="line2d_31">
     <path d="M 66.500313 398.144063 
L 86.500313 398.144063 
" style="fill:none;stroke:#de5d5c;stroke-linecap:square;stroke-width:1.5;"/>
    </g>
    <g id="line2d_32"/>
    <g id="text_16">
     <!-- condition b -->
     <g transform="translate(94.500313 401.644063)scale(0.1 -0.1)">
      <use xlink:href="#DejaVuSans-63"/>
      <use x="54.980469" xlink:href="#DejaVuSans-6f"/>
      <use x="116.162109" xlink:href="#DejaVuSans-6e"/>
      <use x="179.541016" xlink:href="#DejaVuSans-64"/>
      <use x="243.017578" xlink:href="#DejaVuSans-69"/>
      <use x="270.800781" xlink:href="#DejaVuSans-74"/>
      <use x="310.009766" xlink:href="#DejaVuSans-69"/>
      <use x="337.792969" xlink:href="#DejaVuSans-6f"/>
      <use x="398.974609" xlink:href="#DejaVuSans-6e"/>
      <use x="462.353516" xlink:href="#DejaVuSans-20"/>
      <use x="494.140625" xlink:href="#DejaVuSans-62"/>
     </g>
    </g>
    <g id="line2d_33">
     <path d="M 66.500313 412.822188 
L 86.500313 412.822188 
" style="fill:none;stroke:#c14168;stroke-linecap:square;stroke-width:1.5;"/>
    </g>
    <g id="line2d_34"/>
    <g id="text_17">
     <!-- condition c -->
     <g transform="translate(94.500313 416.322188)scale(0.1 -0.1)">
      <use xlink:href="#DejaVuSans-63"/>
      <use x="54.980469" xlink:href="#DejaVuSans-6f"/>
      <use x="116.162109" xlink:href="#DejaVuSans-6e"/>
      <use x="179.541016" xlink:href="#DejaVuSans-64"/>
      <use x="243.017578" xlink:href="#DejaVuSans-69"/>
      <use x="270.800781" xlink:href="#DejaVuSans-74"/>
      <use x="310.009766" xlink:href="#DejaVuSans-69"/>
      <use x="337.792969" xlink:href="#DejaVuSans-6f"/>
      <use x="398.974609" xlink:href="#DejaVuSans-6e"/>
      <use x="462.353516" xlink:href="#DejaVuSans-20"/>
      <use x="494.140625" xlink:href="#DejaVuSans-63"/>
     </g>
    </g>
    <g id="line2d_35">
     <path d="M 66.500313 427.500313 
L 86.500313 427.500313 
" style="fill:none;stroke:#9a3670;stroke-linecap:square;stroke-width:1.5;"/>
    </g>
    <g id="line2d_36"/>
    <g id="text_18">
     <!-- condition d -->
     <g transform="translate(94.500313 431.000313)scale(0.1 -0.1)">
      <use xlink:href="#DejaVuSans-63"/>
      <use x="54.980469" xlink:href="#DejaVuSans-6f"/>
      <use x="116.162109" xlink:href="#DejaVuSans-6e"/>
      <use x="179.541016" xlink:href="#DejaVuSans-64"/>
      <use x="243.017578" xlink:href="#DejaVuSans-69"/>
      <use x="270.800781" xlink:href="#DejaVuSans-74"/>
      <use x="310.009766" xlink:href="#DejaVuSans-69"/>
      <use x="337.792969" xlink:href="#DejaVuSans-6f"/>
      <use x="398.974609" xlink:href="#DejaVuSans-6e"/>
      <use x="462.353516" xlink:href="#DejaVuSans-20"/>
      <use x="494.140625" xlink:href="#DejaVuSans-64"/>
     </g>
    </g>
   </g>
  </g>
 </g>
 <defs>
  <clipPath id="p6f1a80c3e3">
   <rect height="434.88" width="837" x="57.500313" y="7.2"/>
  </clipPath>
 </defs>
</svg>
