<?xml version="1.0" encoding="utf-8" standalone="no"?>
<!DOCTYPE svg PUBLIC "-//W3C//DTD SVG 1.1//EN"
  "http://www.w3.org/Graphics/SVG/1.1/DTD/svg11.dtd">
<svg height="426.638125pt" version="1.1" viewBox="0 0 864.706461 426.638125" width="864.706461pt" xmlns="http://www.w3.org/2000/svg" xmlns:xlink="http://www.w3.org/1999/xlink">
 <metadata>
  <rdf:RDF xmlns:cc="http://creativecommons.org/ns#" xmlns:dc="http://purl.org/dc/elements/1.1/" xmlns:rdf="http://www.w3.org/1999/02/22-rdf-syntax-ns#">
   <cc:Work>
    <dc:type rdf:resource="http://purl.org/dc/dcmitype/StillImage"/>
    <dc:date>2022-10-07T00:05:17.309434</dc:date>
    <dc:format>image/svg+xml</dc:format>
    <dc:creator>
     <cc:Agent>
      <dc:title>Matplotlib v3.4.3, https://matplotlib.org/</dc:title>
     </cc:Agent>
    </dc:creator>
   </cc:Work>
  </rdf:RDF>
 </metadata>
 <defs>
  <style type="text/css">*{stroke-linecap:butt;stroke-linejoin:round;}</style>
 </defs>
 <g id="figure_1">
  <g id="patch_1">
   <path d="M 0 426.638125 
L 864.706461 426.638125 
L 864.706461 0 
L 0 0 
z
" style="fill:#ffffff;"/>
  </g>
  <g id="axes_1">
   <g id="patch_2">
    <path d="M 106.265938 155.71 
L 335.824271 155.71 
L 335.824271 94.16 
L 106.265938 94.16 
z
" style="fill:#ffffff;"/>
   </g>
   <g id="matplotlib.axis_1">
    <g id="xtick_1">
     <g id="line2d_1">
      <defs>
       <path d="M 0 0 
L 0 3.5 
" id="m16c1efd830" style="stroke:#000000;stroke-width:0.8;"/>
      </defs>
      <g>
       <use style="stroke:#000000;stroke-width:0.8;" x="115.384598" xlink:href="#m16c1efd830" y="155.71"/>
      </g>
     </g>
    </g>
    <g id="xtick_2">
     <g id="line2d_2">
      <g>
       <use style="stroke:#000000;stroke-width:0.8;" x="169.648397" xlink:href="#m16c1efd830" y="155.71"/>
      </g>
     </g>
    </g>
    <g id="xtick_3">
     <g id="line2d_3">
      <g>
       <use style="stroke:#000000;stroke-width:0.8;" x="223.912196" xlink:href="#m16c1efd830" y="155.71"/>
      </g>
     </g>
    </g>
    <g id="xtick_4">
     <g id="line2d_4">
      <g>
       <use style="stroke:#000000;stroke-width:0.8;" x="278.175995" xlink:href="#m16c1efd830" y="155.71"/>
      </g>
     </g>
    </g>
    <g id="xtick_5">
     <g id="line2d_5">
      <g>
       <use style="stroke:#000000;stroke-width:0.8;" x="332.439794" xlink:href="#m16c1efd830" y="155.71"/>
      </g>
     </g>
    </g>
   </g>
   <g id="matplotlib.axis_2">
    <g id="ytick_1">
     <g id="line2d_6">
      <defs>
       <path d="M 0 0 
L -3.5 0 
" id="m6f1e5defac" style="stroke:#000000;stroke-width:0.8;"/>
      </defs>
      <g>
       <use style="stroke:#000000;stroke-width:0.8;" x="106.265938" xlink:href="#m6f1e5defac" y="152.912273"/>
      </g>
     </g>
     <g id="text_1">
      <!-- 0.90 -->
      <g transform="translate(77.000313 156.711491)scale(0.1 -0.1)">
       <defs>
        <path d="M 2034 4250 
Q 1547 4250 1301 3770 
Q 1056 3291 1056 2328 
Q 1056 1369 1301 889 
Q 1547 409 2034 409 
Q 2525 409 2770 889 
Q 3016 1369 3016 2328 
Q 3016 3291 2770 3770 
Q 2525 4250 2034 4250 
z
M 2034 4750 
Q 2819 4750 3233 4129 
Q 3647 3509 3647 2328 
Q 3647 1150 3233 529 
Q 2819 -91 2034 -91 
Q 1250 -91 836 529 
Q 422 1150 422 2328 
Q 422 3509 836 4129 
Q 1250 4750 2034 4750 
z
" id="DejaVuSans-30" transform="scale(0.015625)"/>
        <path d="M 684 794 
L 1344 794 
L 1344 0 
L 684 0 
L 684 794 
z
" id="DejaVuSans-2e" transform="scale(0.015625)"/>
        <path d="M 703 97 
L 703 672 
Q 941 559 1184 500 
Q 1428 441 1663 441 
Q 2288 441 2617 861 
Q 2947 1281 2994 2138 
Q 2813 1869 2534 1725 
Q 2256 1581 1919 1581 
Q 1219 1581 811 2004 
Q 403 2428 403 3163 
Q 403 3881 828 4315 
Q 1253 4750 1959 4750 
Q 2769 4750 3195 4129 
Q 3622 3509 3622 2328 
Q 3622 1225 3098 567 
Q 2575 -91 1691 -91 
Q 1453 -91 1209 -44 
Q 966 3 703 97 
z
M 1959 2075 
Q 2384 2075 2632 2365 
Q 2881 2656 2881 3163 
Q 2881 3666 2632 3958 
Q 2384 4250 1959 4250 
Q 1534 4250 1286 3958 
Q 1038 3666 1038 3163 
Q 1038 2656 1286 2365 
Q 1534 2075 1959 2075 
z
" id="DejaVuSans-39" transform="scale(0.015625)"/>
       </defs>
       <use xlink:href="#DejaVuSans-30"/>
       <use x="63.623047" xlink:href="#DejaVuSans-2e"/>
       <use x="95.410156" xlink:href="#DejaVuSans-39"/>
       <use x="159.033203" xlink:href="#DejaVuSans-30"/>
      </g>
     </g>
    </g>
    <g id="ytick_2">
     <g id="line2d_7">
      <g>
       <use style="stroke:#000000;stroke-width:0.8;" x="106.265938" xlink:href="#m6f1e5defac" y="124.935"/>
      </g>
     </g>
     <g id="text_2">
      <!-- 0.95 -->
      <g transform="translate(77.000313 128.734219)scale(0.1 -0.1)">
       <defs>
        <path d="M 691 4666 
L 3169 4666 
L 3169 4134 
L 1269 4134 
L 1269 2991 
Q 1406 3038 1543 3061 
Q 1681 3084 1819 3084 
Q 2600 3084 3056 2656 
Q 3513 2228 3513 1497 
Q 3513 744 3044 326 
Q 2575 -91 1722 -91 
Q 1428 -91 1123 -41 
Q 819 9 494 109 
L 494 744 
Q 775 591 1075 516 
Q 1375 441 1709 441 
Q 2250 441 2565 725 
Q 2881 1009 2881 1497 
Q 2881 1984 2565 2268 
Q 2250 2553 1709 2553 
Q 1456 2553 1204 2497 
Q 953 2441 691 2322 
L 691 4666 
z
" id="DejaVuSans-35" transform="scale(0.015625)"/>
       </defs>
       <use xlink:href="#DejaVuSans-30"/>
       <use x="63.623047" xlink:href="#DejaVuSans-2e"/>
       <use x="95.410156" xlink:href="#DejaVuSans-39"/>
       <use x="159.033203" xlink:href="#DejaVuSans-35"/>
      </g>
     </g>
    </g>
    <g id="ytick_3">
     <g id="line2d_8">
      <g>
       <use style="stroke:#000000;stroke-width:0.8;" x="106.265938" xlink:href="#m6f1e5defac" y="96.957727"/>
      </g>
     </g>
     <g id="text_3">
      <!-- 1.00 -->
      <g transform="translate(77.000313 100.756946)scale(0.1 -0.1)">
       <defs>
        <path d="M 794 531 
L 1825 531 
L 1825 4091 
L 703 3866 
L 703 4441 
L 1819 4666 
L 2450 4666 
L 2450 531 
L 3481 531 
L 3481 0 
L 794 0 
L 794 531 
z
" id="DejaVuSans-31" transform="scale(0.015625)"/>
       </defs>
       <use xlink:href="#DejaVuSans-31"/>
       <use x="63.623047" xlink:href="#DejaVuSans-2e"/>
       <use x="95.410156" xlink:href="#DejaVuSans-30"/>
       <use x="159.033203" xlink:href="#DejaVuSans-30"/>
      </g>
     </g>
    </g>
    <g id="text_4">
     <!-- T = 10 K -->
     <g transform="translate(11.0175 122.439375)scale(0.12 -0.12)">
      <defs>
       <path d="M -19 4666 
L 3928 4666 
L 3928 4134 
L 2272 4134 
L 2272 0 
L 1638 0 
L 1638 4134 
L -19 4134 
L -19 4666 
z
" id="DejaVuSans-54" transform="scale(0.015625)"/>
       <path id="DejaVuSans-20" transform="scale(0.015625)"/>
       <path d="M 678 2906 
L 4684 2906 
L 4684 2381 
L 678 2381 
L 678 2906 
z
M 678 1631 
L 4684 1631 
L 4684 1100 
L 678 1100 
L 678 1631 
z
" id="DejaVuSans-3d" transform="scale(0.015625)"/>
       <path d="M 628 4666 
L 1259 4666 
L 1259 2694 
L 3353 4666 
L 4166 4666 
L 1850 2491 
L 4331 0 
L 3500 0 
L 1259 2247 
L 1259 0 
L 628 0 
L 628 4666 
z
" id="DejaVuSans-4b" transform="scale(0.015625)"/>
      </defs>
      <use xlink:href="#DejaVuSans-54"/>
      <use x="61.083984" xlink:href="#DejaVuSans-20"/>
      <use x="92.871094" xlink:href="#DejaVuSans-3d"/>
      <use x="176.660156" xlink:href="#DejaVuSans-20"/>
      <use x="208.447266" xlink:href="#DejaVuSans-31"/>
      <use x="272.070312" xlink:href="#DejaVuSans-30"/>
      <use x="335.693359" xlink:href="#DejaVuSans-20"/>
      <use x="367.480469" xlink:href="#DejaVuSans-4b"/>
     </g>
    </g>
   </g>
   <g id="line2d_9">
    <path clip-path="url(#p99575ab0d1)" d="M 238.794049 96.957727 
L 228.350798 97.067453 
L 227.336134 97.307205 
L 226.617421 97.694286 
L 226.025543 98.25617 
L 225.43367 99.15145 
L 224.884077 100.395041 
L 224.292211 102.311934 
L 223.658073 105.179656 
L 222.939389 109.594171 
L 222.136161 116.024931 
L 221.037018 126.8443 
L 219.176961 145.214394 
L 218.500586 149.817197 
L 217.993309 151.985395 
L 217.612852 152.787164 
L 217.359215 152.909498 
L 217.147852 152.756519 
L 216.894217 152.268896 
L 216.556037 151.115275 
L 216.091042 148.645656 
L 215.456963 143.849819 
L 214.569259 135.182898 
L 212.286631 112.100862 
L 211.441229 106.104358 
L 210.722642 102.491739 
L 210.046331 100.192246 
L 209.412294 98.803044 
L 208.82053 97.996032 
L 208.186502 97.488148 
L 207.425674 97.177197 
L 206.368979 97.013795 
L 204.171093 96.959686 
L 196.563443 96.957727 
L 196.563443 96.957727 
" style="fill:none;stroke:#a65628;stroke-linecap:square;"/>
   </g>
   <g id="patch_3">
    <path d="M 106.265938 155.71 
L 106.265938 94.16 
" style="fill:none;stroke:#000000;stroke-linecap:square;stroke-linejoin:miter;stroke-width:0.8;"/>
   </g>
   <g id="patch_4">
    <path d="M 335.824271 155.71 
L 335.824271 94.16 
" style="fill:none;stroke:#000000;stroke-linecap:square;stroke-linejoin:miter;stroke-width:0.8;"/>
   </g>
   <g id="patch_5">
    <path d="M 106.265937 155.71 
L 335.824271 155.71 
" style="fill:none;stroke:#000000;stroke-linecap:square;stroke-linejoin:miter;stroke-width:0.8;"/>
   </g>
   <g id="patch_6">
    <path d="M 106.265937 94.16 
L 335.824271 94.16 
" style="fill:none;stroke:#000000;stroke-linecap:square;stroke-linejoin:miter;stroke-width:0.8;"/>
   </g>
   <g id="text_5">
    <!-- ground_B = 0.001 -->
    <g transform="translate(166.684167 88.16)scale(0.12 -0.12)">
     <defs>
      <path d="M 2906 1791 
Q 2906 2416 2648 2759 
Q 2391 3103 1925 3103 
Q 1463 3103 1205 2759 
Q 947 2416 947 1791 
Q 947 1169 1205 825 
Q 1463 481 1925 481 
Q 2391 481 2648 825 
Q 2906 1169 2906 1791 
z
M 3481 434 
Q 3481 -459 3084 -895 
Q 2688 -1331 1869 -1331 
Q 1566 -1331 1297 -1286 
Q 1028 -1241 775 -1147 
L 775 -588 
Q 1028 -725 1275 -790 
Q 1522 -856 1778 -856 
Q 2344 -856 2625 -561 
Q 2906 -266 2906 331 
L 2906 616 
Q 2728 306 2450 153 
Q 2172 0 1784 0 
Q 1141 0 747 490 
Q 353 981 353 1791 
Q 353 2603 747 3093 
Q 1141 3584 1784 3584 
Q 2172 3584 2450 3431 
Q 2728 3278 2906 2969 
L 2906 3500 
L 3481 3500 
L 3481 434 
z
" id="DejaVuSans-67" transform="scale(0.015625)"/>
      <path d="M 2631 2963 
Q 2534 3019 2420 3045 
Q 2306 3072 2169 3072 
Q 1681 3072 1420 2755 
Q 1159 2438 1159 1844 
L 1159 0 
L 581 0 
L 581 3500 
L 1159 3500 
L 1159 2956 
Q 1341 3275 1631 3429 
Q 1922 3584 2338 3584 
Q 2397 3584 2469 3576 
Q 2541 3569 2628 3553 
L 2631 2963 
z
" id="DejaVuSans-72" transform="scale(0.015625)"/>
      <path d="M 1959 3097 
Q 1497 3097 1228 2736 
Q 959 2375 959 1747 
Q 959 1119 1226 758 
Q 1494 397 1959 397 
Q 2419 397 2687 759 
Q 2956 1122 2956 1747 
Q 2956 2369 2687 2733 
Q 2419 3097 1959 3097 
z
M 1959 3584 
Q 2709 3584 3137 3096 
Q 3566 2609 3566 1747 
Q 3566 888 3137 398 
Q 2709 -91 1959 -91 
Q 1206 -91 779 398 
Q 353 888 353 1747 
Q 353 2609 779 3096 
Q 1206 3584 1959 3584 
z
" id="DejaVuSans-6f" transform="scale(0.015625)"/>
      <path d="M 544 1381 
L 544 3500 
L 1119 3500 
L 1119 1403 
Q 1119 906 1312 657 
Q 1506 409 1894 409 
Q 2359 409 2629 706 
Q 2900 1003 2900 1516 
L 2900 3500 
L 3475 3500 
L 3475 0 
L 2900 0 
L 2900 538 
Q 2691 219 2414 64 
Q 2138 -91 1772 -91 
Q 1169 -91 856 284 
Q 544 659 544 1381 
z
M 1991 3584 
L 1991 3584 
z
" id="DejaVuSans-75" transform="scale(0.015625)"/>
      <path d="M 3513 2113 
L 3513 0 
L 2938 0 
L 2938 2094 
Q 2938 2591 2744 2837 
Q 2550 3084 2163 3084 
Q 1697 3084 1428 2787 
Q 1159 2491 1159 1978 
L 1159 0 
L 581 0 
L 581 3500 
L 1159 3500 
L 1159 2956 
Q 1366 3272 1645 3428 
Q 1925 3584 2291 3584 
Q 2894 3584 3203 3211 
Q 3513 2838 3513 2113 
z
" id="DejaVuSans-6e" transform="scale(0.015625)"/>
      <path d="M 2906 2969 
L 2906 4863 
L 3481 4863 
L 3481 0 
L 2906 0 
L 2906 525 
Q 2725 213 2448 61 
Q 2172 -91 1784 -91 
Q 1150 -91 751 415 
Q 353 922 353 1747 
Q 353 2572 751 3078 
Q 1150 3584 1784 3584 
Q 2172 3584 2448 3432 
Q 2725 3281 2906 2969 
z
M 947 1747 
Q 947 1113 1208 752 
Q 1469 391 1925 391 
Q 2381 391 2643 752 
Q 2906 1113 2906 1747 
Q 2906 2381 2643 2742 
Q 2381 3103 1925 3103 
Q 1469 3103 1208 2742 
Q 947 2381 947 1747 
z
" id="DejaVuSans-64" transform="scale(0.015625)"/>
      <path d="M 3263 -1063 
L 3263 -1509 
L -63 -1509 
L -63 -1063 
L 3263 -1063 
z
" id="DejaVuSans-5f" transform="scale(0.015625)"/>
      <path d="M 1259 2228 
L 1259 519 
L 2272 519 
Q 2781 519 3026 730 
Q 3272 941 3272 1375 
Q 3272 1813 3026 2020 
Q 2781 2228 2272 2228 
L 1259 2228 
z
M 1259 4147 
L 1259 2741 
L 2194 2741 
Q 2656 2741 2882 2914 
Q 3109 3088 3109 3444 
Q 3109 3797 2882 3972 
Q 2656 4147 2194 4147 
L 1259 4147 
z
M 628 4666 
L 2241 4666 
Q 2963 4666 3353 4366 
Q 3744 4066 3744 3513 
Q 3744 3084 3544 2831 
Q 3344 2578 2956 2516 
Q 3422 2416 3680 2098 
Q 3938 1781 3938 1306 
Q 3938 681 3513 340 
Q 3088 0 2303 0 
L 628 0 
L 628 4666 
z
" id="DejaVuSans-42" transform="scale(0.015625)"/>
     </defs>
     <use xlink:href="#DejaVuSans-67"/>
     <use x="63.476562" xlink:href="#DejaVuSans-72"/>
     <use x="102.339844" xlink:href="#DejaVuSans-6f"/>
     <use x="163.521484" xlink:href="#DejaVuSans-75"/>
     <use x="226.900391" xlink:href="#DejaVuSans-6e"/>
     <use x="290.279297" xlink:href="#DejaVuSans-64"/>
     <use x="353.755859" xlink:href="#DejaVuSans-5f"/>
     <use x="403.755859" xlink:href="#DejaVuSans-42"/>
     <use x="472.359375" xlink:href="#DejaVuSans-20"/>
     <use x="504.146484" xlink:href="#DejaVuSans-3d"/>
     <use x="587.935547" xlink:href="#DejaVuSans-20"/>
     <use x="619.722656" xlink:href="#DejaVuSans-30"/>
     <use x="683.345703" xlink:href="#DejaVuSans-2e"/>
     <use x="715.132812" xlink:href="#DejaVuSans-30"/>
     <use x="778.755859" xlink:href="#DejaVuSans-30"/>
     <use x="842.378906" xlink:href="#DejaVuSans-31"/>
    </g>
   </g>
  </g>
  <g id="axes_2">
   <g id="patch_7">
    <path d="M 362.436771 155.71 
L 591.995104 155.71 
L 591.995104 94.16 
L 362.436771 94.16 
z
" style="fill:#ffffff;"/>
   </g>
   <g id="matplotlib.axis_3">
    <g id="xtick_6">
     <g id="line2d_10">
      <g>
       <use style="stroke:#000000;stroke-width:0.8;" x="371.555431" xlink:href="#m16c1efd830" y="155.71"/>
      </g>
     </g>
    </g>
    <g id="xtick_7">
     <g id="line2d_11">
      <g>
       <use style="stroke:#000000;stroke-width:0.8;" x="425.81923" xlink:href="#m16c1efd830" y="155.71"/>
      </g>
     </g>
    </g>
    <g id="xtick_8">
     <g id="line2d_12">
      <g>
       <use style="stroke:#000000;stroke-width:0.8;" x="480.083029" xlink:href="#m16c1efd830" y="155.71"/>
      </g>
     </g>
    </g>
    <g id="xtick_9">
     <g id="line2d_13">
      <g>
       <use style="stroke:#000000;stroke-width:0.8;" x="534.346829" xlink:href="#m16c1efd830" y="155.71"/>
      </g>
     </g>
    </g>
    <g id="xtick_10">
     <g id="line2d_14">
      <g>
       <use style="stroke:#000000;stroke-width:0.8;" x="588.610628" xlink:href="#m16c1efd830" y="155.71"/>
      </g>
     </g>
    </g>
   </g>
   <g id="matplotlib.axis_4">
    <g id="ytick_4">
     <g id="line2d_15">
      <g>
       <use style="stroke:#000000;stroke-width:0.8;" x="362.436771" xlink:href="#m6f1e5defac" y="152.912273"/>
      </g>
     </g>
    </g>
    <g id="ytick_5">
     <g id="line2d_16">
      <g>
       <use style="stroke:#000000;stroke-width:0.8;" x="362.436771" xlink:href="#m6f1e5defac" y="124.935"/>
      </g>
     </g>
    </g>
    <g id="ytick_6">
     <g id="line2d_17">
      <g>
       <use style="stroke:#000000;stroke-width:0.8;" x="362.436771" xlink:href="#m6f1e5defac" y="96.957727"/>
      </g>
     </g>
    </g>
   </g>
   <g id="line2d_18">
    <path clip-path="url(#p0257f7cd91)" d="M 533.441628 96.957727 
L 490.383056 97.065639 
L 488.986908 97.289246 
L 487.939811 97.681623 
L 487.125411 98.233802 
L 486.427359 98.970292 
L 485.729313 100.03982 
L 485.031272 101.535095 
L 484.333237 103.5428 
L 483.518869 106.613068 
L 482.588173 111.090785 
L 481.30848 118.565625 
L 478.74915 133.898506 
L 477.120524 142.006784 
L 475.608254 148.65605 
L 474.793966 151.348796 
L 474.212336 152.522084 
L 473.86336 152.854302 
L 473.514385 152.892349 
L 473.165411 152.643244 
L 472.700115 151.906902 
L 472.118499 150.469546 
L 471.071599 147.076703 
L 469.326792 140.624478 
L 468.396243 136.373843 
L 467.465703 131.072296 
L 466.069911 121.550212 
L 464.441514 110.736355 
L 463.511015 105.916511 
L 462.696837 102.755748 
L 461.882666 100.516412 
L 461.18481 99.206201 
L 460.486961 98.328002 
L 459.789116 97.764547 
L 458.974971 97.375224 
L 457.928225 97.126472 
L 456.299976 96.994725 
L 451.99689 96.958256 
L 417.230874 96.957727 
L 417.230874 96.957727 
" style="fill:none;stroke:#a65628;stroke-linecap:square;"/>
   </g>
   <g id="patch_8">
    <path d="M 362.436771 155.71 
L 362.436771 94.16 
" style="fill:none;stroke:#000000;stroke-linecap:square;stroke-linejoin:miter;stroke-width:0.8;"/>
   </g>
   <g id="patch_9">
    <path d="M 591.995104 155.71 
L 591.995104 94.16 
" style="fill:none;stroke:#000000;stroke-linecap:square;stroke-linejoin:miter;stroke-width:0.8;"/>
   </g>
   <g id="patch_10">
    <path d="M 362.436771 155.71 
L 591.995104 155.71 
" style="fill:none;stroke:#000000;stroke-linecap:square;stroke-linejoin:miter;stroke-width:0.8;"/>
   </g>
   <g id="patch_11">
    <path d="M 362.436771 94.16 
L 591.995104 94.16 
" style="fill:none;stroke:#000000;stroke-linecap:square;stroke-linejoin:miter;stroke-width:0.8;"/>
   </g>
   <g id="text_6">
    <!-- ground_B = 0.005 -->
    <g transform="translate(422.855 88.16)scale(0.12 -0.12)">
     <use xlink:href="#DejaVuSans-67"/>
     <use x="63.476562" xlink:href="#DejaVuSans-72"/>
     <use x="102.339844" xlink:href="#DejaVuSans-6f"/>
     <use x="163.521484" xlink:href="#DejaVuSans-75"/>
     <use x="226.900391" xlink:href="#DejaVuSans-6e"/>
     <use x="290.279297" xlink:href="#DejaVuSans-64"/>
     <use x="353.755859" xlink:href="#DejaVuSans-5f"/>
     <use x="403.755859" xlink:href="#DejaVuSans-42"/>
     <use x="472.359375" xlink:href="#DejaVuSans-20"/>
     <use x="504.146484" xlink:href="#DejaVuSans-3d"/>
     <use x="587.935547" xlink:href="#DejaVuSans-20"/>
     <use x="619.722656" xlink:href="#DejaVuSans-30"/>
     <use x="683.345703" xlink:href="#DejaVuSans-2e"/>
     <use x="715.132812" xlink:href="#DejaVuSans-30"/>
     <use x="778.755859" xlink:href="#DejaVuSans-30"/>
     <use x="842.378906" xlink:href="#DejaVuSans-35"/>
    </g>
   </g>
  </g>
  <g id="axes_3">
   <g id="patch_12">
    <path d="M 618.607604 155.71 
L 848.165938 155.71 
L 848.165938 94.16 
L 618.607604 94.16 
z
" style="fill:#ffffff;"/>
   </g>
   <g id="matplotlib.axis_5">
    <g id="xtick_11">
     <g id="line2d_19">
      <g>
       <use style="stroke:#000000;stroke-width:0.8;" x="627.726264" xlink:href="#m16c1efd830" y="155.71"/>
      </g>
     </g>
    </g>
    <g id="xtick_12">
     <g id="line2d_20">
      <g>
       <use style="stroke:#000000;stroke-width:0.8;" x="681.990064" xlink:href="#m16c1efd830" y="155.71"/>
      </g>
     </g>
    </g>
    <g id="xtick_13">
     <g id="line2d_21">
      <g>
       <use style="stroke:#000000;stroke-width:0.8;" x="736.253863" xlink:href="#m16c1efd830" y="155.71"/>
      </g>
     </g>
    </g>
    <g id="xtick_14">
     <g id="line2d_22">
      <g>
       <use style="stroke:#000000;stroke-width:0.8;" x="790.517662" xlink:href="#m16c1efd830" y="155.71"/>
      </g>
     </g>
    </g>
    <g id="xtick_15">
     <g id="line2d_23">
      <g>
       <use style="stroke:#000000;stroke-width:0.8;" x="844.781461" xlink:href="#m16c1efd830" y="155.71"/>
      </g>
     </g>
    </g>
   </g>
   <g id="matplotlib.axis_6">
    <g id="ytick_7">
     <g id="line2d_24">
      <g>
       <use style="stroke:#000000;stroke-width:0.8;" x="618.607604" xlink:href="#m6f1e5defac" y="152.912273"/>
      </g>
     </g>
    </g>
    <g id="ytick_8">
     <g id="line2d_25">
      <g>
       <use style="stroke:#000000;stroke-width:0.8;" x="618.607604" xlink:href="#m6f1e5defac" y="124.935"/>
      </g>
     </g>
    </g>
    <g id="ytick_9">
     <g id="line2d_26">
      <g>
       <use style="stroke:#000000;stroke-width:0.8;" x="618.607604" xlink:href="#m6f1e5defac" y="96.957727"/>
      </g>
     </g>
    </g>
   </g>
   <g id="line2d_27">
    <path clip-path="url(#pf765d6dcd2)" d="M 837.731468 96.957727 
L 751.397613 97.067927 
L 749.51717 97.315181 
L 748.263563 97.701879 
L 747.218904 98.278725 
L 746.383186 98.993449 
L 745.547475 100.016566 
L 744.711772 101.43317 
L 743.876077 103.32578 
L 743.04039 105.758747 
L 741.995792 109.593308 
L 740.74229 115.213816 
L 737.817521 128.943259 
L 736.98189 131.785799 
L 736.146267 133.906867 
L 733.848344 138.865114 
L 733.01275 141.837862 
L 731.759374 147.576095 
L 730.923799 151.006634 
L 730.506015 152.170992 
L 730.088233 152.810582 
L 729.879342 152.912273 
L 729.670452 152.86446 
L 729.252674 152.331428 
L 728.834897 151.271284 
L 728.208236 148.949154 
L 726.537161 142.097939 
L 725.910516 140.411542 
L 725.283876 139.36017 
L 724.657239 138.740248 
L 723.612855 137.801607 
L 722.986231 136.798525 
L 722.35961 135.219698 
L 721.732994 133.003623 
L 720.897513 129.154109 
L 719.43544 120.954091 
L 717.764529 111.743977 
L 716.720225 107.076362 
L 715.884791 104.132043 
L 715.049364 101.87231 
L 714.213945 100.215218 
L 713.378534 99.050271 
L 712.543131 98.262849 
L 711.707736 97.749711 
L 710.663502 97.367377 
L 709.201596 97.111842 
L 706.904363 96.988228 
L 700.013016 96.958003 
L 629.042074 96.957727 
L 629.042074 96.957727 
" style="fill:none;stroke:#a65628;stroke-linecap:square;"/>
   </g>
   <g id="patch_13">
    <path d="M 618.607604 155.71 
L 618.607604 94.16 
" style="fill:none;stroke:#000000;stroke-linecap:square;stroke-linejoin:miter;stroke-width:0.8;"/>
   </g>
   <g id="patch_14">
    <path d="M 848.165938 155.71 
L 848.165938 94.16 
" style="fill:none;stroke:#000000;stroke-linecap:square;stroke-linejoin:miter;stroke-width:0.8;"/>
   </g>
   <g id="patch_15">
    <path d="M 618.607604 155.71 
L 848.165938 155.71 
" style="fill:none;stroke:#000000;stroke-linecap:square;stroke-linejoin:miter;stroke-width:0.8;"/>
   </g>
   <g id="patch_16">
    <path d="M 618.607604 94.16 
L 848.165938 94.16 
" style="fill:none;stroke:#000000;stroke-linecap:square;stroke-linejoin:miter;stroke-width:0.8;"/>
   </g>
   <g id="text_7">
    <!-- ground_B = 0.01 -->
    <g transform="translate(682.843333 88.16)scale(0.12 -0.12)">
     <use xlink:href="#DejaVuSans-67"/>
     <use x="63.476562" xlink:href="#DejaVuSans-72"/>
     <use x="102.339844" xlink:href="#DejaVuSans-6f"/>
     <use x="163.521484" xlink:href="#DejaVuSans-75"/>
     <use x="226.900391" xlink:href="#DejaVuSans-6e"/>
     <use x="290.279297" xlink:href="#DejaVuSans-64"/>
     <use x="353.755859" xlink:href="#DejaVuSans-5f"/>
     <use x="403.755859" xlink:href="#DejaVuSans-42"/>
     <use x="472.359375" xlink:href="#DejaVuSans-20"/>
     <use x="504.146484" xlink:href="#DejaVuSans-3d"/>
     <use x="587.935547" xlink:href="#DejaVuSans-20"/>
     <use x="619.722656" xlink:href="#DejaVuSans-30"/>
     <use x="683.345703" xlink:href="#DejaVuSans-2e"/>
     <use x="715.132812" xlink:href="#DejaVuSans-30"/>
     <use x="778.755859" xlink:href="#DejaVuSans-31"/>
    </g>
   </g>
  </g>
  <g id="axes_4">
   <g id="patch_17">
    <path d="M 106.265938 238.06 
L 335.824271 238.06 
L 335.824271 176.51 
L 106.265938 176.51 
z
" style="fill:#ffffff;"/>
   </g>
   <g id="matplotlib.axis_7">
    <g id="xtick_16">
     <g id="line2d_28">
      <g>
       <use style="stroke:#000000;stroke-width:0.8;" x="115.384598" xlink:href="#m16c1efd830" y="238.06"/>
      </g>
     </g>
    </g>
    <g id="xtick_17">
     <g id="line2d_29">
      <g>
       <use style="stroke:#000000;stroke-width:0.8;" x="169.648397" xlink:href="#m16c1efd830" y="238.06"/>
      </g>
     </g>
    </g>
    <g id="xtick_18">
     <g id="line2d_30">
      <g>
       <use style="stroke:#000000;stroke-width:0.8;" x="223.912196" xlink:href="#m16c1efd830" y="238.06"/>
      </g>
     </g>
    </g>
    <g id="xtick_19">
     <g id="line2d_31">
      <g>
       <use style="stroke:#000000;stroke-width:0.8;" x="278.175995" xlink:href="#m16c1efd830" y="238.06"/>
      </g>
     </g>
    </g>
    <g id="xtick_20">
     <g id="line2d_32">
      <g>
       <use style="stroke:#000000;stroke-width:0.8;" x="332.439794" xlink:href="#m16c1efd830" y="238.06"/>
      </g>
     </g>
    </g>
   </g>
   <g id="matplotlib.axis_8">
    <g id="ytick_10">
     <g id="line2d_33">
      <g>
       <use style="stroke:#000000;stroke-width:0.8;" x="106.265938" xlink:href="#m6f1e5defac" y="235.262273"/>
      </g>
     </g>
     <g id="text_8">
      <!-- 0.90 -->
      <g transform="translate(77.000313 239.061491)scale(0.1 -0.1)">
       <use xlink:href="#DejaVuSans-30"/>
       <use x="63.623047" xlink:href="#DejaVuSans-2e"/>
       <use x="95.410156" xlink:href="#DejaVuSans-39"/>
       <use x="159.033203" xlink:href="#DejaVuSans-30"/>
      </g>
     </g>
    </g>
    <g id="ytick_11">
     <g id="line2d_34">
      <g>
       <use style="stroke:#000000;stroke-width:0.8;" x="106.265938" xlink:href="#m6f1e5defac" y="207.285"/>
      </g>
     </g>
     <g id="text_9">
      <!-- 0.95 -->
      <g transform="translate(77.000313 211.084219)scale(0.1 -0.1)">
       <use xlink:href="#DejaVuSans-30"/>
       <use x="63.623047" xlink:href="#DejaVuSans-2e"/>
       <use x="95.410156" xlink:href="#DejaVuSans-39"/>
       <use x="159.033203" xlink:href="#DejaVuSans-35"/>
      </g>
     </g>
    </g>
    <g id="ytick_12">
     <g id="line2d_35">
      <g>
       <use style="stroke:#000000;stroke-width:0.8;" x="106.265938" xlink:href="#m6f1e5defac" y="179.307727"/>
      </g>
     </g>
     <g id="text_10">
      <!-- 1.00 -->
      <g transform="translate(77.000313 183.106946)scale(0.1 -0.1)">
       <use xlink:href="#DejaVuSans-31"/>
       <use x="63.623047" xlink:href="#DejaVuSans-2e"/>
       <use x="95.410156" xlink:href="#DejaVuSans-30"/>
       <use x="159.033203" xlink:href="#DejaVuSans-30"/>
      </g>
     </g>
    </g>
    <g id="text_11">
     <!-- T = 30 K -->
     <g transform="translate(11.0175 204.789375)scale(0.12 -0.12)">
      <defs>
       <path d="M 2597 2516 
Q 3050 2419 3304 2112 
Q 3559 1806 3559 1356 
Q 3559 666 3084 287 
Q 2609 -91 1734 -91 
Q 1441 -91 1130 -33 
Q 819 25 488 141 
L 488 750 
Q 750 597 1062 519 
Q 1375 441 1716 441 
Q 2309 441 2620 675 
Q 2931 909 2931 1356 
Q 2931 1769 2642 2001 
Q 2353 2234 1838 2234 
L 1294 2234 
L 1294 2753 
L 1863 2753 
Q 2328 2753 2575 2939 
Q 2822 3125 2822 3475 
Q 2822 3834 2567 4026 
Q 2313 4219 1838 4219 
Q 1578 4219 1281 4162 
Q 984 4106 628 3988 
L 628 4550 
Q 988 4650 1302 4700 
Q 1616 4750 1894 4750 
Q 2613 4750 3031 4423 
Q 3450 4097 3450 3541 
Q 3450 3153 3228 2886 
Q 3006 2619 2597 2516 
z
" id="DejaVuSans-33" transform="scale(0.015625)"/>
      </defs>
      <use xlink:href="#DejaVuSans-54"/>
      <use x="61.083984" xlink:href="#DejaVuSans-20"/>
      <use x="92.871094" xlink:href="#DejaVuSans-3d"/>
      <use x="176.660156" xlink:href="#DejaVuSans-20"/>
      <use x="208.447266" xlink:href="#DejaVuSans-33"/>
      <use x="272.070312" xlink:href="#DejaVuSans-30"/>
      <use x="335.693359" xlink:href="#DejaVuSans-20"/>
      <use x="367.480469" xlink:href="#DejaVuSans-4b"/>
     </g>
    </g>
   </g>
   <g id="line2d_36">
    <path clip-path="url(#pddd391b290)" d="M 238.794049 179.307728 
L 230.972067 179.415742 
L 229.830537 179.667434 
L 229.027247 180.074542 
L 228.350798 180.680315 
L 227.716632 181.573218 
L 227.08247 182.891501 
L 226.448312 184.745093 
L 225.771883 187.415591 
L 225.010906 191.34647 
L 224.080831 197.424552 
L 222.770288 207.685093 
L 220.572 224.924229 
L 219.684246 230.191213 
L 219.007867 233.046317 
L 218.458313 234.517211 
L 218.035582 235.113592 
L 217.697398 235.262273 
L 217.401488 235.162723 
L 217.063307 234.800206 
L 216.640582 233.997664 
L 216.091042 232.415717 
L 215.456963 229.873541 
L 214.738344 226.062876 
L 213.892919 220.287569 
L 212.836147 211.366434 
L 210.595834 191.987403 
L 209.750447 186.835056 
L 209.031874 183.766601 
L 208.397844 181.945454 
L 207.763819 180.777449 
L 207.129798 180.078688 
L 206.453514 179.67011 
L 205.608166 179.435766 
L 204.255626 179.327156 
L 199.64869 179.307732 
L 196.563443 179.307727 
L 196.563443 179.307727 
" style="fill:none;stroke:#a65628;stroke-linecap:square;"/>
   </g>
   <g id="patch_18">
    <path d="M 106.265938 238.06 
L 106.265938 176.51 
" style="fill:none;stroke:#000000;stroke-linecap:square;stroke-linejoin:miter;stroke-width:0.8;"/>
   </g>
   <g id="patch_19">
    <path d="M 335.824271 238.06 
L 335.824271 176.51 
" style="fill:none;stroke:#000000;stroke-linecap:square;stroke-linejoin:miter;stroke-width:0.8;"/>
   </g>
   <g id="patch_20">
    <path d="M 106.265937 238.06 
L 335.824271 238.06 
" style="fill:none;stroke:#000000;stroke-linecap:square;stroke-linejoin:miter;stroke-width:0.8;"/>
   </g>
   <g id="patch_21">
    <path d="M 106.265937 176.51 
L 335.824271 176.51 
" style="fill:none;stroke:#000000;stroke-linecap:square;stroke-linejoin:miter;stroke-width:0.8;"/>
   </g>
  </g>
  <g id="axes_5">
   <g id="patch_22">
    <path d="M 362.436771 238.06 
L 591.995104 238.06 
L 591.995104 176.51 
L 362.436771 176.51 
z
" style="fill:#ffffff;"/>
   </g>
   <g id="matplotlib.axis_9">
    <g id="xtick_21">
     <g id="line2d_37">
      <g>
       <use style="stroke:#000000;stroke-width:0.8;" x="371.555431" xlink:href="#m16c1efd830" y="238.06"/>
      </g>
     </g>
    </g>
    <g id="xtick_22">
     <g id="line2d_38">
      <g>
       <use style="stroke:#000000;stroke-width:0.8;" x="425.81923" xlink:href="#m16c1efd830" y="238.06"/>
      </g>
     </g>
    </g>
    <g id="xtick_23">
     <g id="line2d_39">
      <g>
       <use style="stroke:#000000;stroke-width:0.8;" x="480.083029" xlink:href="#m16c1efd830" y="238.06"/>
      </g>
     </g>
    </g>
    <g id="xtick_24">
     <g id="line2d_40">
      <g>
       <use style="stroke:#000000;stroke-width:0.8;" x="534.346829" xlink:href="#m16c1efd830" y="238.06"/>
      </g>
     </g>
    </g>
    <g id="xtick_25">
     <g id="line2d_41">
      <g>
       <use style="stroke:#000000;stroke-width:0.8;" x="588.610628" xlink:href="#m16c1efd830" y="238.06"/>
      </g>
     </g>
    </g>
   </g>
   <g id="matplotlib.axis_10">
    <g id="ytick_13">
     <g id="line2d_42">
      <g>
       <use style="stroke:#000000;stroke-width:0.8;" x="362.436771" xlink:href="#m6f1e5defac" y="235.262273"/>
      </g>
     </g>
    </g>
    <g id="ytick_14">
     <g id="line2d_43">
      <g>
       <use style="stroke:#000000;stroke-width:0.8;" x="362.436771" xlink:href="#m6f1e5defac" y="207.285"/>
      </g>
     </g>
    </g>
    <g id="ytick_15">
     <g id="line2d_44">
      <g>
       <use style="stroke:#000000;stroke-width:0.8;" x="362.436771" xlink:href="#m6f1e5defac" y="179.307727"/>
      </g>
     </g>
    </g>
   </g>
   <g id="line2d_45">
    <path clip-path="url(#p71624cacd7)" d="M 533.441628 179.307727 
L 500.738502 179.414509 
L 498.294974 179.648623 
L 496.665993 180.017118 
L 495.3861 180.533802 
L 494.338928 181.185316 
L 493.408119 182.001331 
L 492.47732 183.102222 
L 491.54653 184.549974 
L 490.61575 186.401734 
L 489.568634 189.019133 
L 488.405186 192.605024 
L 487.009068 197.720398 
L 483.635207 210.537126 
L 482.704509 213.061495 
L 481.890156 214.64577 
L 481.075811 215.711978 
L 479.214478 217.782773 
L 478.632819 218.97047 
L 478.051164 220.676496 
L 477.353183 223.455171 
L 476.073565 229.806863 
L 475.259273 233.349821 
L 474.793966 234.664589 
L 474.444987 235.175092 
L 474.212336 235.262273 
L 473.979685 235.139091 
L 473.63071 234.561825 
L 473.165411 233.108682 
L 472.583792 230.409718 
L 470.373672 219.066937 
L 469.908391 217.827183 
L 469.443111 217.170936 
L 469.094154 217.027702 
L 468.745197 217.133739 
L 468.279924 217.560941 
L 466.535172 219.569396 
L 466.186226 219.639421 
L 465.837281 219.510569 
L 465.488337 219.165427 
L 465.023081 218.356876 
L 464.441514 216.798798 
L 463.743639 214.211313 
L 462.813148 209.840127 
L 458.974971 190.629041 
L 457.928225 187.021924 
L 456.997793 184.597163 
L 456.067371 182.821301 
L 455.25326 181.705993 
L 454.322857 180.819846 
L 453.392463 180.238928 
L 452.229484 179.801465 
L 450.833929 179.530556 
L 448.740638 179.371791 
L 444.20534 179.311474 
L 417.230874 179.307727 
L 417.230874 179.307727 
" style="fill:none;stroke:#a65628;stroke-linecap:square;"/>
   </g>
   <g id="patch_23">
    <path d="M 362.436771 238.06 
L 362.436771 176.51 
" style="fill:none;stroke:#000000;stroke-linecap:square;stroke-linejoin:miter;stroke-width:0.8;"/>
   </g>
   <g id="patch_24">
    <path d="M 591.995104 238.06 
L 591.995104 176.51 
" style="fill:none;stroke:#000000;stroke-linecap:square;stroke-linejoin:miter;stroke-width:0.8;"/>
   </g>
   <g id="patch_25">
    <path d="M 362.436771 238.06 
L 591.995104 238.06 
" style="fill:none;stroke:#000000;stroke-linecap:square;stroke-linejoin:miter;stroke-width:0.8;"/>
   </g>
   <g id="patch_26">
    <path d="M 362.436771 176.51 
L 591.995104 176.51 
" style="fill:none;stroke:#000000;stroke-linecap:square;stroke-linejoin:miter;stroke-width:0.8;"/>
   </g>
  </g>
  <g id="axes_6">
   <g id="patch_27">
    <path d="M 618.607604 238.06 
L 848.165938 238.06 
L 848.165938 176.51 
L 618.607604 176.51 
z
" style="fill:#ffffff;"/>
   </g>
   <g id="matplotlib.axis_11">
    <g id="xtick_26">
     <g id="line2d_46">
      <g>
       <use style="stroke:#000000;stroke-width:0.8;" x="627.726264" xlink:href="#m16c1efd830" y="238.06"/>
      </g>
     </g>
    </g>
    <g id="xtick_27">
     <g id="line2d_47">
      <g>
       <use style="stroke:#000000;stroke-width:0.8;" x="681.990064" xlink:href="#m16c1efd830" y="238.06"/>
      </g>
     </g>
    </g>
    <g id="xtick_28">
     <g id="line2d_48">
      <g>
       <use style="stroke:#000000;stroke-width:0.8;" x="736.253863" xlink:href="#m16c1efd830" y="238.06"/>
      </g>
     </g>
    </g>
    <g id="xtick_29">
     <g id="line2d_49">
      <g>
       <use style="stroke:#000000;stroke-width:0.8;" x="790.517662" xlink:href="#m16c1efd830" y="238.06"/>
      </g>
     </g>
    </g>
    <g id="xtick_30">
     <g id="line2d_50">
      <g>
       <use style="stroke:#000000;stroke-width:0.8;" x="844.781461" xlink:href="#m16c1efd830" y="238.06"/>
      </g>
     </g>
    </g>
   </g>
   <g id="matplotlib.axis_12">
    <g id="ytick_16">
     <g id="line2d_51">
      <g>
       <use style="stroke:#000000;stroke-width:0.8;" x="618.607604" xlink:href="#m6f1e5defac" y="235.262273"/>
      </g>
     </g>
    </g>
    <g id="ytick_17">
     <g id="line2d_52">
      <g>
       <use style="stroke:#000000;stroke-width:0.8;" x="618.607604" xlink:href="#m6f1e5defac" y="207.285"/>
      </g>
     </g>
    </g>
    <g id="ytick_18">
     <g id="line2d_53">
      <g>
       <use style="stroke:#000000;stroke-width:0.8;" x="618.607604" xlink:href="#m6f1e5defac" y="179.307727"/>
      </g>
     </g>
    </g>
   </g>
   <g id="line2d_54">
    <path clip-path="url(#pe03ca1cbb0)" d="M 837.731468 179.307727 
L 765.815651 179.414378 
L 762.681098 179.637085 
L 760.591457 179.980243 
L 758.919779 180.464846 
L 757.457086 181.124022 
L 756.203368 181.928941 
L 754.949668 183.017473 
L 753.695985 184.450097 
L 752.44232 186.280849 
L 751.188673 188.546307 
L 749.935042 191.25184 
L 748.263563 195.464573 
L 743.458233 208.160091 
L 742.41363 210.014716 
L 741.577956 211.011706 
L 740.951206 211.442715 
L 740.32446 211.598425 
L 739.697719 211.497535 
L 738.86207 211.046658 
L 737.190797 209.935302 
L 736.772984 209.870674 
L 736.355172 210.001741 
L 735.937363 210.386751 
L 735.519555 211.079501 
L 735.101749 212.123857 
L 734.475044 214.404191 
L 733.848344 217.524196 
L 732.803853 224.068406 
L 731.550479 231.75742 
L 730.923799 234.269748 
L 730.506015 235.119616 
L 730.297124 235.262273 
L 730.088233 235.208869 
L 729.879342 234.958061 
L 729.461563 233.877678 
L 729.043785 232.084571 
L 728.417123 228.325394 
L 725.910516 211.461268 
L 725.283876 209.177639 
L 724.866118 208.290104 
L 724.448362 207.878277 
L 724.030607 207.887107 
L 723.612855 208.246109 
L 722.986231 209.269214 
L 721.941866 211.621079 
L 720.688644 214.277885 
L 720.06204 215.187399 
L 719.43544 215.703118 
L 719.01771 215.808089 
L 718.599981 215.71705 
L 718.182254 215.431647 
L 717.555667 214.653241 
L 716.929085 213.486693 
L 716.093648 211.412274 
L 715.049364 208.181455 
L 713.169683 201.456677 
L 711.081194 194.155344 
L 709.619281 189.857455 
L 708.366231 186.885233 
L 707.322037 184.915306 
L 706.277855 183.368499 
L 705.233684 182.189204 
L 704.189526 181.314216 
L 702.936553 180.578299 
L 701.683597 180.094894 
L 700.013016 179.711775 
L 697.924833 179.477279 
L 694.375035 179.344745 
L 684.770402 179.308475 
L 629.042074 179.307727 
L 629.042074 179.307727 
" style="fill:none;stroke:#a65628;stroke-linecap:square;"/>
   </g>
   <g id="patch_28">
    <path d="M 618.607604 238.06 
L 618.607604 176.51 
" style="fill:none;stroke:#000000;stroke-linecap:square;stroke-linejoin:miter;stroke-width:0.8;"/>
   </g>
   <g id="patch_29">
    <path d="M 848.165938 238.06 
L 848.165938 176.51 
" style="fill:none;stroke:#000000;stroke-linecap:square;stroke-linejoin:miter;stroke-width:0.8;"/>
   </g>
   <g id="patch_30">
    <path d="M 618.607604 238.06 
L 848.165938 238.06 
" style="fill:none;stroke:#000000;stroke-linecap:square;stroke-linejoin:miter;stroke-width:0.8;"/>
   </g>
   <g id="patch_31">
    <path d="M 618.607604 176.51 
L 848.165938 176.51 
" style="fill:none;stroke:#000000;stroke-linecap:square;stroke-linejoin:miter;stroke-width:0.8;"/>
   </g>
  </g>
  <g id="axes_7">
   <g id="patch_32">
    <path d="M 106.265938 320.41 
L 335.824271 320.41 
L 335.824271 258.86 
L 106.265938 258.86 
z
" style="fill:#ffffff;"/>
   </g>
   <g id="matplotlib.axis_13">
    <g id="xtick_31">
     <g id="line2d_55">
      <g>
       <use style="stroke:#000000;stroke-width:0.8;" x="115.384598" xlink:href="#m16c1efd830" y="320.41"/>
      </g>
     </g>
    </g>
    <g id="xtick_32">
     <g id="line2d_56">
      <g>
       <use style="stroke:#000000;stroke-width:0.8;" x="169.648397" xlink:href="#m16c1efd830" y="320.41"/>
      </g>
     </g>
    </g>
    <g id="xtick_33">
     <g id="line2d_57">
      <g>
       <use style="stroke:#000000;stroke-width:0.8;" x="223.912196" xlink:href="#m16c1efd830" y="320.41"/>
      </g>
     </g>
    </g>
    <g id="xtick_34">
     <g id="line2d_58">
      <g>
       <use style="stroke:#000000;stroke-width:0.8;" x="278.175995" xlink:href="#m16c1efd830" y="320.41"/>
      </g>
     </g>
    </g>
    <g id="xtick_35">
     <g id="line2d_59">
      <g>
       <use style="stroke:#000000;stroke-width:0.8;" x="332.439794" xlink:href="#m16c1efd830" y="320.41"/>
      </g>
     </g>
    </g>
   </g>
   <g id="matplotlib.axis_14">
    <g id="ytick_19">
     <g id="line2d_60">
      <g>
       <use style="stroke:#000000;stroke-width:0.8;" x="106.265938" xlink:href="#m6f1e5defac" y="317.612273"/>
      </g>
     </g>
     <g id="text_12">
      <!-- 0.90 -->
      <g transform="translate(77.000313 321.411491)scale(0.1 -0.1)">
       <use xlink:href="#DejaVuSans-30"/>
       <use x="63.623047" xlink:href="#DejaVuSans-2e"/>
       <use x="95.410156" xlink:href="#DejaVuSans-39"/>
       <use x="159.033203" xlink:href="#DejaVuSans-30"/>
      </g>
     </g>
    </g>
    <g id="ytick_20">
     <g id="line2d_61">
      <g>
       <use style="stroke:#000000;stroke-width:0.8;" x="106.265938" xlink:href="#m6f1e5defac" y="289.635"/>
      </g>
     </g>
     <g id="text_13">
      <!-- 0.95 -->
      <g transform="translate(77.000313 293.434219)scale(0.1 -0.1)">
       <use xlink:href="#DejaVuSans-30"/>
       <use x="63.623047" xlink:href="#DejaVuSans-2e"/>
       <use x="95.410156" xlink:href="#DejaVuSans-39"/>
       <use x="159.033203" xlink:href="#DejaVuSans-35"/>
      </g>
     </g>
    </g>
    <g id="ytick_21">
     <g id="line2d_62">
      <g>
       <use style="stroke:#000000;stroke-width:0.8;" x="106.265938" xlink:href="#m6f1e5defac" y="261.657727"/>
      </g>
     </g>
     <g id="text_14">
      <!-- 1.00 -->
      <g transform="translate(77.000313 265.456946)scale(0.1 -0.1)">
       <use xlink:href="#DejaVuSans-31"/>
       <use x="63.623047" xlink:href="#DejaVuSans-2e"/>
       <use x="95.410156" xlink:href="#DejaVuSans-30"/>
       <use x="159.033203" xlink:href="#DejaVuSans-30"/>
      </g>
     </g>
    </g>
    <g id="text_15">
     <!-- T = 70 K -->
     <g transform="translate(11.0175 287.139375)scale(0.12 -0.12)">
      <defs>
       <path d="M 525 4666 
L 3525 4666 
L 3525 4397 
L 1831 0 
L 1172 0 
L 2766 4134 
L 525 4134 
L 525 4666 
z
" id="DejaVuSans-37" transform="scale(0.015625)"/>
      </defs>
      <use xlink:href="#DejaVuSans-54"/>
      <use x="61.083984" xlink:href="#DejaVuSans-20"/>
      <use x="92.871094" xlink:href="#DejaVuSans-3d"/>
      <use x="176.660156" xlink:href="#DejaVuSans-20"/>
      <use x="208.447266" xlink:href="#DejaVuSans-37"/>
      <use x="272.070312" xlink:href="#DejaVuSans-30"/>
      <use x="335.693359" xlink:href="#DejaVuSans-20"/>
      <use x="367.480469" xlink:href="#DejaVuSans-4b"/>
     </g>
    </g>
   </g>
   <g id="line2d_63">
    <path clip-path="url(#p83dba56a23)" d="M 238.794049 261.657728 
L 231.986772 261.764125 
L 230.887508 262.016582 
L 230.126488 262.414887 
L 229.492309 262.990355 
L 228.858134 263.889179 
L 228.223964 265.218779 
L 227.589799 267.083013 
L 226.871083 269.941387 
L 226.06782 274.11766 
L 225.053182 280.70006 
L 223.02394 295.850855 
L 221.459764 306.590346 
L 220.445178 312.196737 
L 219.684246 315.288473 
L 219.092414 316.83545 
L 218.627406 317.469365 
L 218.28922 317.612273 
L 217.951036 317.507507 
L 217.570579 317.131812 
L 217.021034 316.216747 
L 216.175587 314.297715 
L 215.076517 311.261551 
L 214.357902 308.657336 
L 213.681563 305.32379 
L 212.962959 300.559701 
L 212.03301 292.672587 
L 209.834985 273.303788 
L 209.074143 268.70293 
L 208.397844 265.842147 
L 207.763819 264.065732 
L 207.172066 263.016796 
L 206.580317 262.384218 
L 205.904037 261.990061 
L 205.058695 261.771019 
L 203.663897 261.672901 
L 198.127185 261.657728 
L 196.563443 261.657727 
L 196.563443 261.657727 
" style="fill:none;stroke:#a65628;stroke-linecap:square;"/>
   </g>
   <g id="patch_33">
    <path d="M 106.265938 320.41 
L 106.265938 258.86 
" style="fill:none;stroke:#000000;stroke-linecap:square;stroke-linejoin:miter;stroke-width:0.8;"/>
   </g>
   <g id="patch_34">
    <path d="M 335.824271 320.41 
L 335.824271 258.86 
" style="fill:none;stroke:#000000;stroke-linecap:square;stroke-linejoin:miter;stroke-width:0.8;"/>
   </g>
   <g id="patch_35">
    <path d="M 106.265937 320.41 
L 335.824271 320.41 
" style="fill:none;stroke:#000000;stroke-linecap:square;stroke-linejoin:miter;stroke-width:0.8;"/>
   </g>
   <g id="patch_36">
    <path d="M 106.265937 258.86 
L 335.824271 258.86 
" style="fill:none;stroke:#000000;stroke-linecap:square;stroke-linejoin:miter;stroke-width:0.8;"/>
   </g>
  </g>
  <g id="axes_8">
   <g id="patch_37">
    <path d="M 362.436771 320.41 
L 591.995104 320.41 
L 591.995104 258.86 
L 362.436771 258.86 
z
" style="fill:#ffffff;"/>
   </g>
   <g id="matplotlib.axis_15">
    <g id="xtick_36">
     <g id="line2d_64">
      <g>
       <use style="stroke:#000000;stroke-width:0.8;" x="371.555431" xlink:href="#m16c1efd830" y="320.41"/>
      </g>
     </g>
    </g>
    <g id="xtick_37">
     <g id="line2d_65">
      <g>
       <use style="stroke:#000000;stroke-width:0.8;" x="425.81923" xlink:href="#m16c1efd830" y="320.41"/>
      </g>
     </g>
    </g>
    <g id="xtick_38">
     <g id="line2d_66">
      <g>
       <use style="stroke:#000000;stroke-width:0.8;" x="480.083029" xlink:href="#m16c1efd830" y="320.41"/>
      </g>
     </g>
    </g>
    <g id="xtick_39">
     <g id="line2d_67">
      <g>
       <use style="stroke:#000000;stroke-width:0.8;" x="534.346829" xlink:href="#m16c1efd830" y="320.41"/>
      </g>
     </g>
    </g>
    <g id="xtick_40">
     <g id="line2d_68">
      <g>
       <use style="stroke:#000000;stroke-width:0.8;" x="588.610628" xlink:href="#m16c1efd830" y="320.41"/>
      </g>
     </g>
    </g>
   </g>
   <g id="matplotlib.axis_16">
    <g id="ytick_22">
     <g id="line2d_69">
      <g>
       <use style="stroke:#000000;stroke-width:0.8;" x="362.436771" xlink:href="#m6f1e5defac" y="317.612273"/>
      </g>
     </g>
    </g>
    <g id="ytick_23">
     <g id="line2d_70">
      <g>
       <use style="stroke:#000000;stroke-width:0.8;" x="362.436771" xlink:href="#m6f1e5defac" y="289.635"/>
      </g>
     </g>
    </g>
    <g id="ytick_24">
     <g id="line2d_71">
      <g>
       <use style="stroke:#000000;stroke-width:0.8;" x="362.436771" xlink:href="#m6f1e5defac" y="261.657727"/>
      </g>
     </g>
    </g>
   </g>
   <g id="line2d_72">
    <path clip-path="url(#p2a6c0cb9d5)" d="M 533.441628 261.657727 
L 514.004526 261.765727 
L 510.047787 262.00475 
L 507.604006 262.368513 
L 505.858489 262.842145 
L 504.345735 263.489185 
L 503.065732 264.272148 
L 501.785748 265.315271 
L 500.505782 266.642748 
L 499.109476 268.428286 
L 497.713192 270.577817 
L 496.200575 273.328541 
L 494.45528 277.015913 
L 491.895575 283.056947 
L 489.68498 288.096784 
L 488.405186 290.517895 
L 487.358096 292.054008 
L 486.427359 293.017641 
L 485.612972 293.538116 
L 484.798593 293.782997 
L 483.867883 293.815452 
L 482.3555 293.814536 
L 481.773821 294.02812 
L 481.192146 294.502608 
L 480.610474 295.335842 
L 480.028806 296.615246 
L 479.33081 298.822429 
L 478.516488 302.329832 
L 477.353183 308.56319 
L 476.189893 314.527207 
L 475.608254 316.575856 
L 475.142946 317.463602 
L 474.910292 317.612273 
L 474.67764 317.549644 
L 474.444987 317.269959 
L 474.09601 316.442006 
L 473.63071 314.606204 
L 473.049087 311.29023 
L 472.118499 304.470436 
L 470.722635 294.304265 
L 470.024711 290.681837 
L 469.443111 288.758276 
L 468.977835 287.956399 
L 468.628879 287.759959 
L 468.279924 287.877475 
L 467.930971 288.270898 
L 467.465703 289.150537 
L 466.767804 291.014677 
L 463.976264 299.178684 
L 463.278392 300.324342 
L 462.696837 300.833292 
L 462.231595 300.93376 
L 461.766356 300.760189 
L 461.301119 300.318555 
L 460.719577 299.408277 
L 460.02173 297.837484 
L 459.091277 295.062562 
L 457.928225 290.815635 
L 453.62506 274.374779 
L 452.345781 270.727775 
L 451.182816 268.09527 
L 450.13616 266.234547 
L 449.089516 264.790711 
L 448.042885 263.70228 
L 446.996265 262.916236 
L 445.833369 262.337591 
L 444.554201 261.975159 
L 442.926195 261.773298 
L 440.019115 261.686062 
L 426.647762 261.657748 
L 417.230874 261.657727 
L 417.230874 261.657727 
" style="fill:none;stroke:#a65628;stroke-linecap:square;"/>
   </g>
   <g id="patch_38">
    <path d="M 362.436771 320.41 
L 362.436771 258.86 
" style="fill:none;stroke:#000000;stroke-linecap:square;stroke-linejoin:miter;stroke-width:0.8;"/>
   </g>
   <g id="patch_39">
    <path d="M 591.995104 320.41 
L 591.995104 258.86 
" style="fill:none;stroke:#000000;stroke-linecap:square;stroke-linejoin:miter;stroke-width:0.8;"/>
   </g>
   <g id="patch_40">
    <path d="M 362.436771 320.41 
L 591.995104 320.41 
" style="fill:none;stroke:#000000;stroke-linecap:square;stroke-linejoin:miter;stroke-width:0.8;"/>
   </g>
   <g id="patch_41">
    <path d="M 362.436771 258.86 
L 591.995104 258.86 
" style="fill:none;stroke:#000000;stroke-linecap:square;stroke-linejoin:miter;stroke-width:0.8;"/>
   </g>
  </g>
  <g id="axes_9">
   <g id="patch_42">
    <path d="M 618.607604 320.41 
L 848.165938 320.41 
L 848.165938 258.86 
L 618.607604 258.86 
z
" style="fill:#ffffff;"/>
   </g>
   <g id="matplotlib.axis_17">
    <g id="xtick_41">
     <g id="line2d_73">
      <g>
       <use style="stroke:#000000;stroke-width:0.8;" x="627.726264" xlink:href="#m16c1efd830" y="320.41"/>
      </g>
     </g>
    </g>
    <g id="xtick_42">
     <g id="line2d_74">
      <g>
       <use style="stroke:#000000;stroke-width:0.8;" x="681.990064" xlink:href="#m16c1efd830" y="320.41"/>
      </g>
     </g>
    </g>
    <g id="xtick_43">
     <g id="line2d_75">
      <g>
       <use style="stroke:#000000;stroke-width:0.8;" x="736.253863" xlink:href="#m16c1efd830" y="320.41"/>
      </g>
     </g>
    </g>
    <g id="xtick_44">
     <g id="line2d_76">
      <g>
       <use style="stroke:#000000;stroke-width:0.8;" x="790.517662" xlink:href="#m16c1efd830" y="320.41"/>
      </g>
     </g>
    </g>
    <g id="xtick_45">
     <g id="line2d_77">
      <g>
       <use style="stroke:#000000;stroke-width:0.8;" x="844.781461" xlink:href="#m16c1efd830" y="320.41"/>
      </g>
     </g>
    </g>
   </g>
   <g id="matplotlib.axis_18">
    <g id="ytick_25">
     <g id="line2d_78">
      <g>
       <use style="stroke:#000000;stroke-width:0.8;" x="618.607604" xlink:href="#m6f1e5defac" y="317.612273"/>
      </g>
     </g>
    </g>
    <g id="ytick_26">
     <g id="line2d_79">
      <g>
       <use style="stroke:#000000;stroke-width:0.8;" x="618.607604" xlink:href="#m6f1e5defac" y="289.635"/>
      </g>
     </g>
    </g>
    <g id="ytick_27">
     <g id="line2d_80">
      <g>
       <use style="stroke:#000000;stroke-width:0.8;" x="618.607604" xlink:href="#m6f1e5defac" y="261.657727"/>
      </g>
     </g>
    </g>
   </g>
   <g id="line2d_81">
    <path clip-path="url(#pf41ea3544b)" d="M 837.731468 261.657727 
L 785.252326 261.763737 
L 780.027 261.998919 
L 776.473952 262.376275 
L 773.75701 262.892899 
L 771.458123 263.568247 
L 769.57726 264.341315 
L 767.696436 265.36421 
L 766.024626 266.521916 
L 764.352846 267.944257 
L 762.681098 269.651587 
L 760.800419 271.918835 
L 758.710821 274.835386 
L 755.994417 279.074566 
L 752.233378 284.944263 
L 750.561855 287.123894 
L 749.308234 288.419618 
L 748.263563 289.216072 
L 747.218904 289.717048 
L 746.383186 289.889875 
L 745.547475 289.857208 
L 744.711772 289.628011 
L 743.667155 289.102141 
L 741.995792 287.932828 
L 740.74229 287.133224 
L 739.906632 286.861919 
L 739.279894 286.905078 
L 738.65316 287.24085 
L 738.02643 287.945066 
L 737.399705 289.090651 
L 736.772984 290.739901 
L 735.937363 293.788232 
L 735.101749 297.791902 
L 733.848344 305.108624 
L 732.38606 313.469778 
L 731.759374 316.010244 
L 731.341586 317.095562 
L 730.923799 317.59783 
L 730.714907 317.612273 
L 730.506015 317.463191 
L 730.088233 316.670407 
L 729.670452 315.234419 
L 729.043785 311.995891 
L 728.208236 306.164279 
L 725.910516 289.017674 
L 725.074996 284.793156 
L 724.448362 282.677766 
L 723.821731 281.430623 
L 723.40398 281.034578 
L 722.986231 280.943535 
L 722.568483 281.116793 
L 722.150738 281.513199 
L 721.524123 282.439635 
L 720.688644 284.105658 
L 716.720225 292.809482 
L 715.884791 294.012572 
L 715.049364 294.85205 
L 714.422799 295.229226 
L 713.796239 295.386192 
L 713.169683 295.324631 
L 712.543131 295.050442 
L 711.707736 294.37122 
L 710.872348 293.36302 
L 709.828124 291.701076 
L 708.575072 289.2373 
L 706.695526 284.932853 
L 702.518899 275.166526 
L 700.848302 271.89356 
L 699.386556 269.484373 
L 697.924833 267.511223 
L 696.463135 265.94782 
L 695.00146 264.745413 
L 693.539809 263.844803 
L 691.869379 263.107902 
L 689.990184 262.555067 
L 687.693442 262.146688 
L 684.770402 261.877799 
L 680.38602 261.720744 
L 671.200392 261.660808 
L 629.042074 261.657727 
L 629.042074 261.657727 
" style="fill:none;stroke:#a65628;stroke-linecap:square;"/>
   </g>
   <g id="patch_43">
    <path d="M 618.607604 320.41 
L 618.607604 258.86 
" style="fill:none;stroke:#000000;stroke-linecap:square;stroke-linejoin:miter;stroke-width:0.8;"/>
   </g>
   <g id="patch_44">
    <path d="M 848.165938 320.41 
L 848.165938 258.86 
" style="fill:none;stroke:#000000;stroke-linecap:square;stroke-linejoin:miter;stroke-width:0.8;"/>
   </g>
   <g id="patch_45">
    <path d="M 618.607604 320.41 
L 848.165938 320.41 
" style="fill:none;stroke:#000000;stroke-linecap:square;stroke-linejoin:miter;stroke-width:0.8;"/>
   </g>
   <g id="patch_46">
    <path d="M 618.607604 258.86 
L 848.165938 258.86 
" style="fill:none;stroke:#000000;stroke-linecap:square;stroke-linejoin:miter;stroke-width:0.8;"/>
   </g>
  </g>
  <g id="axes_10">
   <g id="patch_47">
    <path d="M 106.265938 402.76 
L 335.824271 402.76 
L 335.824271 341.21 
L 106.265938 341.21 
z
" style="fill:#ffffff;"/>
   </g>
   <g id="matplotlib.axis_19">
    <g id="xtick_46">
     <g id="line2d_82">
      <g>
       <use style="stroke:#000000;stroke-width:0.8;" x="115.384598" xlink:href="#m16c1efd830" y="402.76"/>
      </g>
     </g>
     <g id="text_16">
      <!-- 6610 -->
      <g transform="translate(102.659598 417.358437)scale(0.1 -0.1)">
       <defs>
        <path d="M 2113 2584 
Q 1688 2584 1439 2293 
Q 1191 2003 1191 1497 
Q 1191 994 1439 701 
Q 1688 409 2113 409 
Q 2538 409 2786 701 
Q 3034 994 3034 1497 
Q 3034 2003 2786 2293 
Q 2538 2584 2113 2584 
z
M 3366 4563 
L 3366 3988 
Q 3128 4100 2886 4159 
Q 2644 4219 2406 4219 
Q 1781 4219 1451 3797 
Q 1122 3375 1075 2522 
Q 1259 2794 1537 2939 
Q 1816 3084 2150 3084 
Q 2853 3084 3261 2657 
Q 3669 2231 3669 1497 
Q 3669 778 3244 343 
Q 2819 -91 2113 -91 
Q 1303 -91 875 529 
Q 447 1150 447 2328 
Q 447 3434 972 4092 
Q 1497 4750 2381 4750 
Q 2619 4750 2861 4703 
Q 3103 4656 3366 4563 
z
" id="DejaVuSans-36" transform="scale(0.015625)"/>
       </defs>
       <use xlink:href="#DejaVuSans-36"/>
       <use x="63.623047" xlink:href="#DejaVuSans-36"/>
       <use x="127.246094" xlink:href="#DejaVuSans-31"/>
       <use x="190.869141" xlink:href="#DejaVuSans-30"/>
      </g>
     </g>
    </g>
    <g id="xtick_47">
     <g id="line2d_83">
      <g>
       <use style="stroke:#000000;stroke-width:0.8;" x="169.648397" xlink:href="#m16c1efd830" y="402.76"/>
      </g>
     </g>
     <g id="text_17">
      <!-- 6612 -->
      <g transform="translate(156.923397 417.358437)scale(0.1 -0.1)">
       <defs>
        <path d="M 1228 531 
L 3431 531 
L 3431 0 
L 469 0 
L 469 531 
Q 828 903 1448 1529 
Q 2069 2156 2228 2338 
Q 2531 2678 2651 2914 
Q 2772 3150 2772 3378 
Q 2772 3750 2511 3984 
Q 2250 4219 1831 4219 
Q 1534 4219 1204 4116 
Q 875 4013 500 3803 
L 500 4441 
Q 881 4594 1212 4672 
Q 1544 4750 1819 4750 
Q 2544 4750 2975 4387 
Q 3406 4025 3406 3419 
Q 3406 3131 3298 2873 
Q 3191 2616 2906 2266 
Q 2828 2175 2409 1742 
Q 1991 1309 1228 531 
z
" id="DejaVuSans-32" transform="scale(0.015625)"/>
       </defs>
       <use xlink:href="#DejaVuSans-36"/>
       <use x="63.623047" xlink:href="#DejaVuSans-36"/>
       <use x="127.246094" xlink:href="#DejaVuSans-31"/>
       <use x="190.869141" xlink:href="#DejaVuSans-32"/>
      </g>
     </g>
    </g>
    <g id="xtick_48">
     <g id="line2d_84">
      <g>
       <use style="stroke:#000000;stroke-width:0.8;" x="223.912196" xlink:href="#m16c1efd830" y="402.76"/>
      </g>
     </g>
     <g id="text_18">
      <!-- 6614 -->
      <g transform="translate(211.187196 417.358437)scale(0.1 -0.1)">
       <defs>
        <path d="M 2419 4116 
L 825 1625 
L 2419 1625 
L 2419 4116 
z
M 2253 4666 
L 3047 4666 
L 3047 1625 
L 3713 1625 
L 3713 1100 
L 3047 1100 
L 3047 0 
L 2419 0 
L 2419 1100 
L 313 1100 
L 313 1709 
L 2253 4666 
z
" id="DejaVuSans-34" transform="scale(0.015625)"/>
       </defs>
       <use xlink:href="#DejaVuSans-36"/>
       <use x="63.623047" xlink:href="#DejaVuSans-36"/>
       <use x="127.246094" xlink:href="#DejaVuSans-31"/>
       <use x="190.869141" xlink:href="#DejaVuSans-34"/>
      </g>
     </g>
    </g>
    <g id="xtick_49">
     <g id="line2d_85">
      <g>
       <use style="stroke:#000000;stroke-width:0.8;" x="278.175995" xlink:href="#m16c1efd830" y="402.76"/>
      </g>
     </g>
     <g id="text_19">
      <!-- 6616 -->
      <g transform="translate(265.450995 417.358437)scale(0.1 -0.1)">
       <use xlink:href="#DejaVuSans-36"/>
       <use x="63.623047" xlink:href="#DejaVuSans-36"/>
       <use x="127.246094" xlink:href="#DejaVuSans-31"/>
       <use x="190.869141" xlink:href="#DejaVuSans-36"/>
      </g>
     </g>
    </g>
    <g id="xtick_50">
     <g id="line2d_86">
      <g>
       <use style="stroke:#000000;stroke-width:0.8;" x="332.439794" xlink:href="#m16c1efd830" y="402.76"/>
      </g>
     </g>
     <g id="text_20">
      <!-- 6618 -->
      <g transform="translate(319.714794 417.358437)scale(0.1 -0.1)">
       <defs>
        <path d="M 2034 2216 
Q 1584 2216 1326 1975 
Q 1069 1734 1069 1313 
Q 1069 891 1326 650 
Q 1584 409 2034 409 
Q 2484 409 2743 651 
Q 3003 894 3003 1313 
Q 3003 1734 2745 1975 
Q 2488 2216 2034 2216 
z
M 1403 2484 
Q 997 2584 770 2862 
Q 544 3141 544 3541 
Q 544 4100 942 4425 
Q 1341 4750 2034 4750 
Q 2731 4750 3128 4425 
Q 3525 4100 3525 3541 
Q 3525 3141 3298 2862 
Q 3072 2584 2669 2484 
Q 3125 2378 3379 2068 
Q 3634 1759 3634 1313 
Q 3634 634 3220 271 
Q 2806 -91 2034 -91 
Q 1263 -91 848 271 
Q 434 634 434 1313 
Q 434 1759 690 2068 
Q 947 2378 1403 2484 
z
M 1172 3481 
Q 1172 3119 1398 2916 
Q 1625 2713 2034 2713 
Q 2441 2713 2670 2916 
Q 2900 3119 2900 3481 
Q 2900 3844 2670 4047 
Q 2441 4250 2034 4250 
Q 1625 4250 1398 4047 
Q 1172 3844 1172 3481 
z
" id="DejaVuSans-38" transform="scale(0.015625)"/>
       </defs>
       <use xlink:href="#DejaVuSans-36"/>
       <use x="63.623047" xlink:href="#DejaVuSans-36"/>
       <use x="127.246094" xlink:href="#DejaVuSans-31"/>
       <use x="190.869141" xlink:href="#DejaVuSans-38"/>
      </g>
     </g>
    </g>
   </g>
   <g id="matplotlib.axis_20">
    <g id="ytick_28">
     <g id="line2d_87">
      <g>
       <use style="stroke:#000000;stroke-width:0.8;" x="106.265938" xlink:href="#m6f1e5defac" y="399.962273"/>
      </g>
     </g>
     <g id="text_21">
      <!-- 0.90 -->
      <g transform="translate(77.000313 403.761491)scale(0.1 -0.1)">
       <use xlink:href="#DejaVuSans-30"/>
       <use x="63.623047" xlink:href="#DejaVuSans-2e"/>
       <use x="95.410156" xlink:href="#DejaVuSans-39"/>
       <use x="159.033203" xlink:href="#DejaVuSans-30"/>
      </g>
     </g>
    </g>
    <g id="ytick_29">
     <g id="line2d_88">
      <g>
       <use style="stroke:#000000;stroke-width:0.8;" x="106.265938" xlink:href="#m6f1e5defac" y="371.985"/>
      </g>
     </g>
     <g id="text_22">
      <!-- 0.95 -->
      <g transform="translate(77.000313 375.784219)scale(0.1 -0.1)">
       <use xlink:href="#DejaVuSans-30"/>
       <use x="63.623047" xlink:href="#DejaVuSans-2e"/>
       <use x="95.410156" xlink:href="#DejaVuSans-39"/>
       <use x="159.033203" xlink:href="#DejaVuSans-35"/>
      </g>
     </g>
    </g>
    <g id="ytick_30">
     <g id="line2d_89">
      <g>
       <use style="stroke:#000000;stroke-width:0.8;" x="106.265938" xlink:href="#m6f1e5defac" y="344.007727"/>
      </g>
     </g>
     <g id="text_23">
      <!-- 1.00 -->
      <g transform="translate(77.000313 347.806946)scale(0.1 -0.1)">
       <use xlink:href="#DejaVuSans-31"/>
       <use x="63.623047" xlink:href="#DejaVuSans-2e"/>
       <use x="95.410156" xlink:href="#DejaVuSans-30"/>
       <use x="159.033203" xlink:href="#DejaVuSans-30"/>
      </g>
     </g>
    </g>
    <g id="text_24">
     <!-- T = 100 K -->
     <g transform="translate(7.2 369.489375)scale(0.12 -0.12)">
      <use xlink:href="#DejaVuSans-54"/>
      <use x="61.083984" xlink:href="#DejaVuSans-20"/>
      <use x="92.871094" xlink:href="#DejaVuSans-3d"/>
      <use x="176.660156" xlink:href="#DejaVuSans-20"/>
      <use x="208.447266" xlink:href="#DejaVuSans-31"/>
      <use x="272.070312" xlink:href="#DejaVuSans-30"/>
      <use x="335.693359" xlink:href="#DejaVuSans-30"/>
      <use x="399.316406" xlink:href="#DejaVuSans-20"/>
      <use x="431.103516" xlink:href="#DejaVuSans-4b"/>
     </g>
    </g>
   </g>
   <g id="line2d_90">
    <path clip-path="url(#p310d247492)" d="M 238.794049 344.007729 
L 232.15589 344.118543 
L 231.098904 344.369395 
L 230.337882 344.778023 
L 229.703701 345.371529 
L 229.111804 346.226326 
L 228.477632 347.568635 
L 227.843465 349.454579 
L 227.124747 352.346192 
L 226.321481 356.560268 
L 225.30684 363.159795 
L 221.163842 391.679004 
L 220.233807 396.161997 
L 219.557424 398.464671 
L 219.05014 399.51911 
L 218.66968 399.900457 
L 218.331493 399.950064 
L 217.993309 399.749423 
L 217.570579 399.201525 
L 216.936489 397.950085 
L 215.245604 393.87911 
L 214.442444 391.546365 
L 213.808376 388.98374 
L 213.174313 385.431312 
L 212.413442 379.733502 
L 211.229879 368.783108 
L 209.877254 356.872313 
L 209.074143 351.667932 
L 208.397844 348.590852 
L 207.763819 346.661948 
L 207.172066 345.514039 
L 206.580317 344.817093 
L 205.946305 344.399345 
L 205.143228 344.150573 
L 203.917495 344.03311 
L 200.240393 344.007767 
L 196.563443 344.007727 
L 196.563443 344.007727 
" style="fill:none;stroke:#a65628;stroke-linecap:square;"/>
   </g>
   <g id="patch_48">
    <path d="M 106.265938 402.76 
L 106.265938 341.21 
" style="fill:none;stroke:#000000;stroke-linecap:square;stroke-linejoin:miter;stroke-width:0.8;"/>
   </g>
   <g id="patch_49">
    <path d="M 335.824271 402.76 
L 335.824271 341.21 
" style="fill:none;stroke:#000000;stroke-linecap:square;stroke-linejoin:miter;stroke-width:0.8;"/>
   </g>
   <g id="patch_50">
    <path d="M 106.265937 402.76 
L 335.824271 402.76 
" style="fill:none;stroke:#000000;stroke-linecap:square;stroke-linejoin:miter;stroke-width:0.8;"/>
   </g>
   <g id="patch_51">
    <path d="M 106.265937 341.21 
L 335.824271 341.21 
" style="fill:none;stroke:#000000;stroke-linecap:square;stroke-linejoin:miter;stroke-width:0.8;"/>
   </g>
  </g>
  <g id="axes_11">
   <g id="patch_52">
    <path d="M 362.436771 402.76 
L 591.995104 402.76 
L 591.995104 341.21 
L 362.436771 341.21 
z
" style="fill:#ffffff;"/>
   </g>
   <g id="matplotlib.axis_21">
    <g id="xtick_51">
     <g id="line2d_91">
      <g>
       <use style="stroke:#000000;stroke-width:0.8;" x="371.555431" xlink:href="#m16c1efd830" y="402.76"/>
      </g>
     </g>
     <g id="text_25">
      <!-- 6610 -->
      <g transform="translate(358.830431 417.358437)scale(0.1 -0.1)">
       <use xlink:href="#DejaVuSans-36"/>
       <use x="63.623047" xlink:href="#DejaVuSans-36"/>
       <use x="127.246094" xlink:href="#DejaVuSans-31"/>
       <use x="190.869141" xlink:href="#DejaVuSans-30"/>
      </g>
     </g>
    </g>
    <g id="xtick_52">
     <g id="line2d_92">
      <g>
       <use style="stroke:#000000;stroke-width:0.8;" x="425.81923" xlink:href="#m16c1efd830" y="402.76"/>
      </g>
     </g>
     <g id="text_26">
      <!-- 6612 -->
      <g transform="translate(413.09423 417.358437)scale(0.1 -0.1)">
       <use xlink:href="#DejaVuSans-36"/>
       <use x="63.623047" xlink:href="#DejaVuSans-36"/>
       <use x="127.246094" xlink:href="#DejaVuSans-31"/>
       <use x="190.869141" xlink:href="#DejaVuSans-32"/>
      </g>
     </g>
    </g>
    <g id="xtick_53">
     <g id="line2d_93">
      <g>
       <use style="stroke:#000000;stroke-width:0.8;" x="480.083029" xlink:href="#m16c1efd830" y="402.76"/>
      </g>
     </g>
     <g id="text_27">
      <!-- 6614 -->
      <g transform="translate(467.358029 417.358437)scale(0.1 -0.1)">
       <use xlink:href="#DejaVuSans-36"/>
       <use x="63.623047" xlink:href="#DejaVuSans-36"/>
       <use x="127.246094" xlink:href="#DejaVuSans-31"/>
       <use x="190.869141" xlink:href="#DejaVuSans-34"/>
      </g>
     </g>
    </g>
    <g id="xtick_54">
     <g id="line2d_94">
      <g>
       <use style="stroke:#000000;stroke-width:0.8;" x="534.346829" xlink:href="#m16c1efd830" y="402.76"/>
      </g>
     </g>
     <g id="text_28">
      <!-- 6616 -->
      <g transform="translate(521.621829 417.358437)scale(0.1 -0.1)">
       <use xlink:href="#DejaVuSans-36"/>
       <use x="63.623047" xlink:href="#DejaVuSans-36"/>
       <use x="127.246094" xlink:href="#DejaVuSans-31"/>
       <use x="190.869141" xlink:href="#DejaVuSans-36"/>
      </g>
     </g>
    </g>
    <g id="xtick_55">
     <g id="line2d_95">
      <g>
       <use style="stroke:#000000;stroke-width:0.8;" x="588.610628" xlink:href="#m16c1efd830" y="402.76"/>
      </g>
     </g>
     <g id="text_29">
      <!-- 6618 -->
      <g transform="translate(575.885628 417.358437)scale(0.1 -0.1)">
       <use xlink:href="#DejaVuSans-36"/>
       <use x="63.623047" xlink:href="#DejaVuSans-36"/>
       <use x="127.246094" xlink:href="#DejaVuSans-31"/>
       <use x="190.869141" xlink:href="#DejaVuSans-38"/>
      </g>
     </g>
    </g>
   </g>
   <g id="matplotlib.axis_22">
    <g id="ytick_31">
     <g id="line2d_96">
      <g>
       <use style="stroke:#000000;stroke-width:0.8;" x="362.436771" xlink:href="#m6f1e5defac" y="399.962273"/>
      </g>
     </g>
    </g>
    <g id="ytick_32">
     <g id="line2d_97">
      <g>
       <use style="stroke:#000000;stroke-width:0.8;" x="362.436771" xlink:href="#m6f1e5defac" y="371.985"/>
      </g>
     </g>
    </g>
    <g id="ytick_33">
     <g id="line2d_98">
      <g>
       <use style="stroke:#000000;stroke-width:0.8;" x="362.436771" xlink:href="#m6f1e5defac" y="344.007727"/>
      </g>
     </g>
    </g>
   </g>
   <g id="line2d_99">
    <path clip-path="url(#p7f1ff1b2e8)" d="M 533.441628 344.007727 
L 519.823576 344.11445 
L 515.401063 344.396551 
L 512.60801 344.776932 
L 510.513277 345.270055 
L 508.767703 345.904259 
L 507.2549 346.69833 
L 505.974856 347.614963 
L 504.69483 348.819021 
L 503.414822 350.356921 
L 502.018471 352.418313 
L 500.273063 355.437248 
L 497.131413 361.417671 
L 493.408119 368.412169 
L 491.779227 370.992406 
L 490.61575 372.465169 
L 489.568634 373.458662 
L 488.637874 374.058642 
L 487.707124 374.405121 
L 486.660042 374.548707 
L 483.635207 374.756898 
L 482.937183 375.153669 
L 482.3555 375.719486 
L 481.773821 376.55966 
L 481.075811 378.004798 
L 480.377806 379.993245 
L 479.563475 383.03242 
L 478.516488 387.917134 
L 476.538879 397.372714 
L 475.957237 399.127205 
L 475.491927 399.858788 
L 475.259273 399.962273 
L 475.026619 399.87738 
L 474.67764 399.383712 
L 474.328662 398.445372 
L 473.86336 396.524908 
L 473.281736 393.169365 
L 472.351145 386.276903 
L 470.606314 373.158019 
L 469.908391 369.444638 
L 469.326792 367.361849 
L 468.861516 366.373771 
L 468.512561 366.009664 
L 468.163607 365.943834 
L 467.814654 366.147795 
L 467.349386 366.783803 
L 466.767804 368.050801 
L 465.953596 370.429112 
L 462.696837 380.656023 
L 461.882666 382.27419 
L 461.18481 383.165887 
L 460.603269 383.535834 
L 460.138038 383.582757 
L 459.672809 383.409682 
L 459.091277 382.892108 
L 458.509749 382.056332 
L 457.81192 380.668215 
L 456.88149 378.253476 
L 455.718466 374.543041 
L 453.741359 367.310951 
L 451.06652 357.665226 
L 449.55469 353.007151 
L 448.39176 350.043244 
L 447.345137 347.931737 
L 446.414815 346.523442 
L 445.484503 345.531527 
L 444.554201 344.889858 
L 443.507623 344.474685 
L 442.228487 344.2335 
L 440.019115 344.09518 
L 433.856418 344.016961 
L 417.230874 344.007727 
L 417.230874 344.007727 
" style="fill:none;stroke:#a65628;stroke-linecap:square;"/>
   </g>
   <g id="patch_53">
    <path d="M 362.436771 402.76 
L 362.436771 341.21 
" style="fill:none;stroke:#000000;stroke-linecap:square;stroke-linejoin:miter;stroke-width:0.8;"/>
   </g>
   <g id="patch_54">
    <path d="M 591.995104 402.76 
L 591.995104 341.21 
" style="fill:none;stroke:#000000;stroke-linecap:square;stroke-linejoin:miter;stroke-width:0.8;"/>
   </g>
   <g id="patch_55">
    <path d="M 362.436771 402.76 
L 591.995104 402.76 
" style="fill:none;stroke:#000000;stroke-linecap:square;stroke-linejoin:miter;stroke-width:0.8;"/>
   </g>
   <g id="patch_56">
    <path d="M 362.436771 341.21 
L 591.995104 341.21 
" style="fill:none;stroke:#000000;stroke-linecap:square;stroke-linejoin:miter;stroke-width:0.8;"/>
   </g>
  </g>
  <g id="axes_12">
   <g id="patch_57">
    <path d="M 618.607604 402.76 
L 848.165938 402.76 
L 848.165938 341.21 
L 618.607604 341.21 
z
" style="fill:#ffffff;"/>
   </g>
   <g id="matplotlib.axis_23">
    <g id="xtick_56">
     <g id="line2d_100">
      <g>
       <use style="stroke:#000000;stroke-width:0.8;" x="627.726264" xlink:href="#m16c1efd830" y="402.76"/>
      </g>
     </g>
     <g id="text_30">
      <!-- 6610 -->
      <g transform="translate(615.001264 417.358437)scale(0.1 -0.1)">
       <use xlink:href="#DejaVuSans-36"/>
       <use x="63.623047" xlink:href="#DejaVuSans-36"/>
       <use x="127.246094" xlink:href="#DejaVuSans-31"/>
       <use x="190.869141" xlink:href="#DejaVuSans-30"/>
      </g>
     </g>
    </g>
    <g id="xtick_57">
     <g id="line2d_101">
      <g>
       <use style="stroke:#000000;stroke-width:0.8;" x="681.990064" xlink:href="#m16c1efd830" y="402.76"/>
      </g>
     </g>
     <g id="text_31">
      <!-- 6612 -->
      <g transform="translate(669.265064 417.358437)scale(0.1 -0.1)">
       <use xlink:href="#DejaVuSans-36"/>
       <use x="63.623047" xlink:href="#DejaVuSans-36"/>
       <use x="127.246094" xlink:href="#DejaVuSans-31"/>
       <use x="190.869141" xlink:href="#DejaVuSans-32"/>
      </g>
     </g>
    </g>
    <g id="xtick_58">
     <g id="line2d_102">
      <g>
       <use style="stroke:#000000;stroke-width:0.8;" x="736.253863" xlink:href="#m16c1efd830" y="402.76"/>
      </g>
     </g>
     <g id="text_32">
      <!-- 6614 -->
      <g transform="translate(723.528863 417.358437)scale(0.1 -0.1)">
       <use xlink:href="#DejaVuSans-36"/>
       <use x="63.623047" xlink:href="#DejaVuSans-36"/>
       <use x="127.246094" xlink:href="#DejaVuSans-31"/>
       <use x="190.869141" xlink:href="#DejaVuSans-34"/>
      </g>
     </g>
    </g>
    <g id="xtick_59">
     <g id="line2d_103">
      <g>
       <use style="stroke:#000000;stroke-width:0.8;" x="790.517662" xlink:href="#m16c1efd830" y="402.76"/>
      </g>
     </g>
     <g id="text_33">
      <!-- 6616 -->
      <g transform="translate(777.792662 417.358437)scale(0.1 -0.1)">
       <use xlink:href="#DejaVuSans-36"/>
       <use x="63.623047" xlink:href="#DejaVuSans-36"/>
       <use x="127.246094" xlink:href="#DejaVuSans-31"/>
       <use x="190.869141" xlink:href="#DejaVuSans-36"/>
      </g>
     </g>
    </g>
    <g id="xtick_60">
     <g id="line2d_104">
      <g>
       <use style="stroke:#000000;stroke-width:0.8;" x="844.781461" xlink:href="#m16c1efd830" y="402.76"/>
      </g>
     </g>
     <g id="text_34">
      <!-- 6618 -->
      <g transform="translate(832.056461 417.358437)scale(0.1 -0.1)">
       <use xlink:href="#DejaVuSans-36"/>
       <use x="63.623047" xlink:href="#DejaVuSans-36"/>
       <use x="127.246094" xlink:href="#DejaVuSans-31"/>
       <use x="190.869141" xlink:href="#DejaVuSans-38"/>
      </g>
     </g>
    </g>
   </g>
   <g id="matplotlib.axis_24">
    <g id="ytick_34">
     <g id="line2d_105">
      <g>
       <use style="stroke:#000000;stroke-width:0.8;" x="618.607604" xlink:href="#m6f1e5defac" y="399.962273"/>
      </g>
     </g>
    </g>
    <g id="ytick_35">
     <g id="line2d_106">
      <g>
       <use style="stroke:#000000;stroke-width:0.8;" x="618.607604" xlink:href="#m6f1e5defac" y="371.985"/>
      </g>
     </g>
    </g>
    <g id="ytick_36">
     <g id="line2d_107">
      <g>
       <use style="stroke:#000000;stroke-width:0.8;" x="618.607604" xlink:href="#m6f1e5defac" y="344.007727"/>
      </g>
     </g>
    </g>
   </g>
   <g id="line2d_108">
    <path clip-path="url(#p74ec2ba3db)" d="M 837.731468 344.007727 
L 795.912935 344.116604 
L 789.850865 344.342187 
L 786.088407 344.681553 
L 782.953145 345.17466 
L 780.027 345.861082 
L 777.518951 346.686965 
L 775.219968 347.696902 
L 773.130035 348.866733 
L 771.04015 350.307703 
L 768.950314 352.039643 
L 766.860527 354.065238 
L 764.561817 356.605354 
L 761.636271 360.188863 
L 756.621272 366.37215 
L 754.74072 368.307608 
L 753.278095 369.519282 
L 752.024436 370.298608 
L 750.770794 370.802992 
L 749.726106 370.997426 
L 748.68143 370.983058 
L 747.636766 370.769334 
L 746.383186 370.286939 
L 744.293924 369.177802 
L 742.831469 368.506392 
L 741.995792 368.32249 
L 741.160122 368.390593 
L 740.533375 368.664871 
L 739.906632 369.177816 
L 739.279894 369.972162 
L 738.65316 371.088479 
L 737.817521 373.137738 
L 736.98189 375.87729 
L 735.937363 380.267524 
L 734.683945 386.651443 
L 733.01275 395.265321 
L 732.177164 398.396455 
L 731.759374 399.387763 
L 731.341586 399.901546 
L 731.132692 399.962273 
L 730.923799 399.885649 
L 730.506015 399.309698 
L 730.088233 398.169169 
L 729.461563 395.458369 
L 728.62601 390.306544 
L 725.283876 367.084196 
L 724.448362 363.683022 
L 723.821731 362.013691 
L 723.195105 361.033573 
L 722.777357 360.719112 
L 722.35961 360.641494 
L 721.941866 360.770885 
L 721.315253 361.290222 
L 720.688644 362.120058 
L 719.644306 363.98046 
L 717.973391 367.562295 
L 715.884791 371.964511 
L 714.631654 374.149483 
L 713.587386 375.575873 
L 712.751981 376.420437 
L 711.916584 376.983739 
L 711.081194 377.258401 
L 710.245812 377.244776 
L 709.410438 376.950293 
L 708.575072 376.388743 
L 707.739713 375.579474 
L 706.695526 374.256485 
L 705.442518 372.285414 
L 703.771867 369.180882 
L 700.63948 362.725312 
L 698.13365 357.783034 
L 696.254323 354.549145 
L 694.583843 352.113678 
L 693.122198 350.337269 
L 691.660578 348.87825 
L 690.198981 347.707417 
L 688.528614 346.673371 
L 686.858278 345.905065 
L 684.979188 345.285701 
L 682.682575 344.780092 
L 679.759698 344.386176 
L 676.001853 344.114713 
L 671.409145 344.027219 
L 643.857838 344.007755 
L 629.042074 344.007727 
L 629.042074 344.007727 
" style="fill:none;stroke:#a65628;stroke-linecap:square;"/>
   </g>
   <g id="patch_58">
    <path d="M 618.607604 402.76 
L 618.607604 341.21 
" style="fill:none;stroke:#000000;stroke-linecap:square;stroke-linejoin:miter;stroke-width:0.8;"/>
   </g>
   <g id="patch_59">
    <path d="M 848.165938 402.76 
L 848.165938 341.21 
" style="fill:none;stroke:#000000;stroke-linecap:square;stroke-linejoin:miter;stroke-width:0.8;"/>
   </g>
   <g id="patch_60">
    <path d="M 618.607604 402.76 
L 848.165938 402.76 
" style="fill:none;stroke:#000000;stroke-linecap:square;stroke-linejoin:miter;stroke-width:0.8;"/>
   </g>
   <g id="patch_61">
    <path d="M 618.607604 341.21 
L 848.165938 341.21 
" style="fill:none;stroke:#000000;stroke-linecap:square;stroke-linejoin:miter;stroke-width:0.8;"/>
   </g>
  </g>
  <g id="text_35">
   <!-- 2D Parametric Study - Temperature x ground_B  -->
   <g transform="translate(291.242813 16.318125)scale(0.12 -0.12)">
    <defs>
     <path d="M 1259 4147 
L 1259 519 
L 2022 519 
Q 2988 519 3436 956 
Q 3884 1394 3884 2338 
Q 3884 3275 3436 3711 
Q 2988 4147 2022 4147 
L 1259 4147 
z
M 628 4666 
L 1925 4666 
Q 3281 4666 3915 4102 
Q 4550 3538 4550 2338 
Q 4550 1131 3912 565 
Q 3275 0 1925 0 
L 628 0 
L 628 4666 
z
" id="DejaVuSans-44" transform="scale(0.015625)"/>
     <path d="M 1259 4147 
L 1259 2394 
L 2053 2394 
Q 2494 2394 2734 2622 
Q 2975 2850 2975 3272 
Q 2975 3691 2734 3919 
Q 2494 4147 2053 4147 
L 1259 4147 
z
M 628 4666 
L 2053 4666 
Q 2838 4666 3239 4311 
Q 3641 3956 3641 3272 
Q 3641 2581 3239 2228 
Q 2838 1875 2053 1875 
L 1259 1875 
L 1259 0 
L 628 0 
L 628 4666 
z
" id="DejaVuSans-50" transform="scale(0.015625)"/>
     <path d="M 2194 1759 
Q 1497 1759 1228 1600 
Q 959 1441 959 1056 
Q 959 750 1161 570 
Q 1363 391 1709 391 
Q 2188 391 2477 730 
Q 2766 1069 2766 1631 
L 2766 1759 
L 2194 1759 
z
M 3341 1997 
L 3341 0 
L 2766 0 
L 2766 531 
Q 2569 213 2275 61 
Q 1981 -91 1556 -91 
Q 1019 -91 701 211 
Q 384 513 384 1019 
Q 384 1609 779 1909 
Q 1175 2209 1959 2209 
L 2766 2209 
L 2766 2266 
Q 2766 2663 2505 2880 
Q 2244 3097 1772 3097 
Q 1472 3097 1187 3025 
Q 903 2953 641 2809 
L 641 3341 
Q 956 3463 1253 3523 
Q 1550 3584 1831 3584 
Q 2591 3584 2966 3190 
Q 3341 2797 3341 1997 
z
" id="DejaVuSans-61" transform="scale(0.015625)"/>
     <path d="M 3328 2828 
Q 3544 3216 3844 3400 
Q 4144 3584 4550 3584 
Q 5097 3584 5394 3201 
Q 5691 2819 5691 2113 
L 5691 0 
L 5113 0 
L 5113 2094 
Q 5113 2597 4934 2840 
Q 4756 3084 4391 3084 
Q 3944 3084 3684 2787 
Q 3425 2491 3425 1978 
L 3425 0 
L 2847 0 
L 2847 2094 
Q 2847 2600 2669 2842 
Q 2491 3084 2119 3084 
Q 1678 3084 1418 2786 
Q 1159 2488 1159 1978 
L 1159 0 
L 581 0 
L 581 3500 
L 1159 3500 
L 1159 2956 
Q 1356 3278 1631 3431 
Q 1906 3584 2284 3584 
Q 2666 3584 2933 3390 
Q 3200 3197 3328 2828 
z
" id="DejaVuSans-6d" transform="scale(0.015625)"/>
     <path d="M 3597 1894 
L 3597 1613 
L 953 1613 
Q 991 1019 1311 708 
Q 1631 397 2203 397 
Q 2534 397 2845 478 
Q 3156 559 3463 722 
L 3463 178 
Q 3153 47 2828 -22 
Q 2503 -91 2169 -91 
Q 1331 -91 842 396 
Q 353 884 353 1716 
Q 353 2575 817 3079 
Q 1281 3584 2069 3584 
Q 2775 3584 3186 3129 
Q 3597 2675 3597 1894 
z
M 3022 2063 
Q 3016 2534 2758 2815 
Q 2500 3097 2075 3097 
Q 1594 3097 1305 2825 
Q 1016 2553 972 2059 
L 3022 2063 
z
" id="DejaVuSans-65" transform="scale(0.015625)"/>
     <path d="M 1172 4494 
L 1172 3500 
L 2356 3500 
L 2356 3053 
L 1172 3053 
L 1172 1153 
Q 1172 725 1289 603 
Q 1406 481 1766 481 
L 2356 481 
L 2356 0 
L 1766 0 
Q 1100 0 847 248 
Q 594 497 594 1153 
L 594 3053 
L 172 3053 
L 172 3500 
L 594 3500 
L 594 4494 
L 1172 4494 
z
" id="DejaVuSans-74" transform="scale(0.015625)"/>
     <path d="M 603 3500 
L 1178 3500 
L 1178 0 
L 603 0 
L 603 3500 
z
M 603 4863 
L 1178 4863 
L 1178 4134 
L 603 4134 
L 603 4863 
z
" id="DejaVuSans-69" transform="scale(0.015625)"/>
     <path d="M 3122 3366 
L 3122 2828 
Q 2878 2963 2633 3030 
Q 2388 3097 2138 3097 
Q 1578 3097 1268 2742 
Q 959 2388 959 1747 
Q 959 1106 1268 751 
Q 1578 397 2138 397 
Q 2388 397 2633 464 
Q 2878 531 3122 666 
L 3122 134 
Q 2881 22 2623 -34 
Q 2366 -91 2075 -91 
Q 1284 -91 818 406 
Q 353 903 353 1747 
Q 353 2603 823 3093 
Q 1294 3584 2113 3584 
Q 2378 3584 2631 3529 
Q 2884 3475 3122 3366 
z
" id="DejaVuSans-63" transform="scale(0.015625)"/>
     <path d="M 3425 4513 
L 3425 3897 
Q 3066 4069 2747 4153 
Q 2428 4238 2131 4238 
Q 1616 4238 1336 4038 
Q 1056 3838 1056 3469 
Q 1056 3159 1242 3001 
Q 1428 2844 1947 2747 
L 2328 2669 
Q 3034 2534 3370 2195 
Q 3706 1856 3706 1288 
Q 3706 609 3251 259 
Q 2797 -91 1919 -91 
Q 1588 -91 1214 -16 
Q 841 59 441 206 
L 441 856 
Q 825 641 1194 531 
Q 1563 422 1919 422 
Q 2459 422 2753 634 
Q 3047 847 3047 1241 
Q 3047 1584 2836 1778 
Q 2625 1972 2144 2069 
L 1759 2144 
Q 1053 2284 737 2584 
Q 422 2884 422 3419 
Q 422 4038 858 4394 
Q 1294 4750 2059 4750 
Q 2388 4750 2728 4690 
Q 3069 4631 3425 4513 
z
" id="DejaVuSans-53" transform="scale(0.015625)"/>
     <path d="M 2059 -325 
Q 1816 -950 1584 -1140 
Q 1353 -1331 966 -1331 
L 506 -1331 
L 506 -850 
L 844 -850 
Q 1081 -850 1212 -737 
Q 1344 -625 1503 -206 
L 1606 56 
L 191 3500 
L 800 3500 
L 1894 763 
L 2988 3500 
L 3597 3500 
L 2059 -325 
z
" id="DejaVuSans-79" transform="scale(0.015625)"/>
     <path d="M 313 2009 
L 1997 2009 
L 1997 1497 
L 313 1497 
L 313 2009 
z
" id="DejaVuSans-2d" transform="scale(0.015625)"/>
     <path d="M 1159 525 
L 1159 -1331 
L 581 -1331 
L 581 3500 
L 1159 3500 
L 1159 2969 
Q 1341 3281 1617 3432 
Q 1894 3584 2278 3584 
Q 2916 3584 3314 3078 
Q 3713 2572 3713 1747 
Q 3713 922 3314 415 
Q 2916 -91 2278 -91 
Q 1894 -91 1617 61 
Q 1341 213 1159 525 
z
M 3116 1747 
Q 3116 2381 2855 2742 
Q 2594 3103 2138 3103 
Q 1681 3103 1420 2742 
Q 1159 2381 1159 1747 
Q 1159 1113 1420 752 
Q 1681 391 2138 391 
Q 2594 391 2855 752 
Q 3116 1113 3116 1747 
z
" id="DejaVuSans-70" transform="scale(0.015625)"/>
     <path d="M 3513 3500 
L 2247 1797 
L 3578 0 
L 2900 0 
L 1881 1375 
L 863 0 
L 184 0 
L 1544 1831 
L 300 3500 
L 978 3500 
L 1906 2253 
L 2834 3500 
L 3513 3500 
z
" id="DejaVuSans-78" transform="scale(0.015625)"/>
    </defs>
    <use xlink:href="#DejaVuSans-32"/>
    <use x="63.623047" xlink:href="#DejaVuSans-44"/>
    <use x="140.625" xlink:href="#DejaVuSans-20"/>
    <use x="172.412109" xlink:href="#DejaVuSans-50"/>
    <use x="228.214844" xlink:href="#DejaVuSans-61"/>
    <use x="289.494141" xlink:href="#DejaVuSans-72"/>
    <use x="330.607422" xlink:href="#DejaVuSans-61"/>
    <use x="391.886719" xlink:href="#DejaVuSans-6d"/>
    <use x="489.298828" xlink:href="#DejaVuSans-65"/>
    <use x="550.822266" xlink:href="#DejaVuSans-74"/>
    <use x="590.03125" xlink:href="#DejaVuSans-72"/>
    <use x="631.144531" xlink:href="#DejaVuSans-69"/>
    <use x="658.927734" xlink:href="#DejaVuSans-63"/>
    <use x="713.908203" xlink:href="#DejaVuSans-20"/>
    <use x="745.695312" xlink:href="#DejaVuSans-53"/>
    <use x="809.171875" xlink:href="#DejaVuSans-74"/>
    <use x="848.380859" xlink:href="#DejaVuSans-75"/>
    <use x="911.759766" xlink:href="#DejaVuSans-64"/>
    <use x="975.236328" xlink:href="#DejaVuSans-79"/>
    <use x="1034.416016" xlink:href="#DejaVuSans-20"/>
    <use x="1066.203125" xlink:href="#DejaVuSans-2d"/>
    <use x="1102.287109" xlink:href="#DejaVuSans-20"/>
    <use x="1134.074219" xlink:href="#DejaVuSans-54"/>
    <use x="1178.158203" xlink:href="#DejaVuSans-65"/>
    <use x="1239.681641" xlink:href="#DejaVuSans-6d"/>
    <use x="1337.09375" xlink:href="#DejaVuSans-70"/>
    <use x="1400.570312" xlink:href="#DejaVuSans-65"/>
    <use x="1462.09375" xlink:href="#DejaVuSans-72"/>
    <use x="1503.207031" xlink:href="#DejaVuSans-61"/>
    <use x="1564.486328" xlink:href="#DejaVuSans-74"/>
    <use x="1603.695312" xlink:href="#DejaVuSans-75"/>
    <use x="1667.074219" xlink:href="#DejaVuSans-72"/>
    <use x="1705.9375" xlink:href="#DejaVuSans-65"/>
    <use x="1767.460938" xlink:href="#DejaVuSans-20"/>
    <use x="1799.248047" xlink:href="#DejaVuSans-78"/>
    <use x="1858.427734" xlink:href="#DejaVuSans-20"/>
    <use x="1890.214844" xlink:href="#DejaVuSans-67"/>
    <use x="1953.691406" xlink:href="#DejaVuSans-72"/>
    <use x="1992.554688" xlink:href="#DejaVuSans-6f"/>
    <use x="2053.736328" xlink:href="#DejaVuSans-75"/>
    <use x="2117.115234" xlink:href="#DejaVuSans-6e"/>
    <use x="2180.494141" xlink:href="#DejaVuSans-64"/>
    <use x="2243.970703" xlink:href="#DejaVuSans-5f"/>
    <use x="2293.970703" xlink:href="#DejaVuSans-42"/>
    <use x="2362.574219" xlink:href="#DejaVuSans-20"/>
   </g>
   <!--   -->
   <g transform="translate(432.996562 30.08925)scale(0.12 -0.12)">
    <use xlink:href="#DejaVuSans-20"/>
   </g>
   <!--  Delta_B =  -0.2,  Delta_C = 0,  zeta = -0.5, sigma =  0.2 -->
   <g transform="translate(264.474375 43.526625)scale(0.12 -0.12)">
    <defs>
     <path d="M 603 4863 
L 1178 4863 
L 1178 0 
L 603 0 
L 603 4863 
z
" id="DejaVuSans-6c" transform="scale(0.015625)"/>
     <path d="M 750 794 
L 1409 794 
L 1409 256 
L 897 -744 
L 494 -744 
L 750 256 
L 750 794 
z
" id="DejaVuSans-2c" transform="scale(0.015625)"/>
     <path d="M 4122 4306 
L 4122 3641 
Q 3803 3938 3442 4084 
Q 3081 4231 2675 4231 
Q 1875 4231 1450 3742 
Q 1025 3253 1025 2328 
Q 1025 1406 1450 917 
Q 1875 428 2675 428 
Q 3081 428 3442 575 
Q 3803 722 4122 1019 
L 4122 359 
Q 3791 134 3420 21 
Q 3050 -91 2638 -91 
Q 1578 -91 968 557 
Q 359 1206 359 2328 
Q 359 3453 968 4101 
Q 1578 4750 2638 4750 
Q 3056 4750 3426 4639 
Q 3797 4528 4122 4306 
z
" id="DejaVuSans-43" transform="scale(0.015625)"/>
     <path d="M 353 3500 
L 3084 3500 
L 3084 2975 
L 922 459 
L 3084 459 
L 3084 0 
L 275 0 
L 275 525 
L 2438 3041 
L 353 3041 
L 353 3500 
z
" id="DejaVuSans-7a" transform="scale(0.015625)"/>
     <path d="M 2834 3397 
L 2834 2853 
Q 2591 2978 2328 3040 
Q 2066 3103 1784 3103 
Q 1356 3103 1142 2972 
Q 928 2841 928 2578 
Q 928 2378 1081 2264 
Q 1234 2150 1697 2047 
L 1894 2003 
Q 2506 1872 2764 1633 
Q 3022 1394 3022 966 
Q 3022 478 2636 193 
Q 2250 -91 1575 -91 
Q 1294 -91 989 -36 
Q 684 19 347 128 
L 347 722 
Q 666 556 975 473 
Q 1284 391 1588 391 
Q 1994 391 2212 530 
Q 2431 669 2431 922 
Q 2431 1156 2273 1281 
Q 2116 1406 1581 1522 
L 1381 1569 
Q 847 1681 609 1914 
Q 372 2147 372 2553 
Q 372 3047 722 3315 
Q 1072 3584 1716 3584 
Q 2034 3584 2315 3537 
Q 2597 3491 2834 3397 
z
" id="DejaVuSans-73" transform="scale(0.015625)"/>
    </defs>
    <use xlink:href="#DejaVuSans-20"/>
    <use x="31.787109" xlink:href="#DejaVuSans-44"/>
    <use x="108.789062" xlink:href="#DejaVuSans-65"/>
    <use x="170.3125" xlink:href="#DejaVuSans-6c"/>
    <use x="198.095703" xlink:href="#DejaVuSans-74"/>
    <use x="237.304688" xlink:href="#DejaVuSans-61"/>
    <use x="298.583984" xlink:href="#DejaVuSans-5f"/>
    <use x="348.583984" xlink:href="#DejaVuSans-42"/>
    <use x="417.1875" xlink:href="#DejaVuSans-20"/>
    <use x="448.974609" xlink:href="#DejaVuSans-3d"/>
    <use x="532.763672" xlink:href="#DejaVuSans-20"/>
    <use x="564.550781" xlink:href="#DejaVuSans-20"/>
    <use x="596.337891" xlink:href="#DejaVuSans-2d"/>
    <use x="632.421875" xlink:href="#DejaVuSans-30"/>
    <use x="696.044922" xlink:href="#DejaVuSans-2e"/>
    <use x="727.832031" xlink:href="#DejaVuSans-32"/>
    <use x="791.455078" xlink:href="#DejaVuSans-2c"/>
    <use x="823.242188" xlink:href="#DejaVuSans-20"/>
    <use x="855.029297" xlink:href="#DejaVuSans-20"/>
    <use x="886.816406" xlink:href="#DejaVuSans-44"/>
    <use x="963.818359" xlink:href="#DejaVuSans-65"/>
    <use x="1025.341797" xlink:href="#DejaVuSans-6c"/>
    <use x="1053.125" xlink:href="#DejaVuSans-74"/>
    <use x="1092.333984" xlink:href="#DejaVuSans-61"/>
    <use x="1153.613281" xlink:href="#DejaVuSans-5f"/>
    <use x="1203.613281" xlink:href="#DejaVuSans-43"/>
    <use x="1273.4375" xlink:href="#DejaVuSans-20"/>
    <use x="1305.224609" xlink:href="#DejaVuSans-3d"/>
    <use x="1389.013672" xlink:href="#DejaVuSans-20"/>
    <use x="1420.800781" xlink:href="#DejaVuSans-30"/>
    <use x="1484.423828" xlink:href="#DejaVuSans-2c"/>
    <use x="1516.210938" xlink:href="#DejaVuSans-20"/>
    <use x="1547.998047" xlink:href="#DejaVuSans-20"/>
    <use x="1579.785156" xlink:href="#DejaVuSans-7a"/>
    <use x="1632.275391" xlink:href="#DejaVuSans-65"/>
    <use x="1693.798828" xlink:href="#DejaVuSans-74"/>
    <use x="1733.007812" xlink:href="#DejaVuSans-61"/>
    <use x="1794.287109" xlink:href="#DejaVuSans-20"/>
    <use x="1826.074219" xlink:href="#DejaVuSans-3d"/>
    <use x="1909.863281" xlink:href="#DejaVuSans-20"/>
    <use x="1941.650391" xlink:href="#DejaVuSans-2d"/>
    <use x="1977.734375" xlink:href="#DejaVuSans-30"/>
    <use x="2041.357422" xlink:href="#DejaVuSans-2e"/>
    <use x="2073.144531" xlink:href="#DejaVuSans-35"/>
    <use x="2136.767578" xlink:href="#DejaVuSans-2c"/>
    <use x="2168.554688" xlink:href="#DejaVuSans-20"/>
    <use x="2200.341797" xlink:href="#DejaVuSans-73"/>
    <use x="2252.441406" xlink:href="#DejaVuSans-69"/>
    <use x="2280.224609" xlink:href="#DejaVuSans-67"/>
    <use x="2343.701172" xlink:href="#DejaVuSans-6d"/>
    <use x="2441.113281" xlink:href="#DejaVuSans-61"/>
    <use x="2502.392578" xlink:href="#DejaVuSans-20"/>
    <use x="2534.179688" xlink:href="#DejaVuSans-3d"/>
    <use x="2617.96875" xlink:href="#DejaVuSans-20"/>
    <use x="2649.755859" xlink:href="#DejaVuSans-20"/>
    <use x="2681.542969" xlink:href="#DejaVuSans-30"/>
    <use x="2745.166016" xlink:href="#DejaVuSans-2e"/>
    <use x="2776.953125" xlink:href="#DejaVuSans-32"/>
   </g>
   <!--  -->
   <g transform="translate(434.903437 57.29775)scale(0.12 -0.12)"/>
  </g>
 </g>
 <defs>
  <clipPath id="p99575ab0d1">
   <rect height="61.55" width="229.558333" x="106.265938" y="94.16"/>
  </clipPath>
  <clipPath id="p0257f7cd91">
   <rect height="61.55" width="229.558333" x="362.436771" y="94.16"/>
  </clipPath>
  <clipPath id="pf765d6dcd2">
   <rect height="61.55" width="229.558333" x="618.607604" y="94.16"/>
  </clipPath>
  <clipPath id="pddd391b290">
   <rect height="61.55" width="229.558333" x="106.265938" y="176.51"/>
  </clipPath>
  <clipPath id="p71624cacd7">
   <rect height="61.55" width="229.558333" x="362.436771" y="176.51"/>
  </clipPath>
  <clipPath id="pe03ca1cbb0">
   <rect height="61.55" width="229.558333" x="618.607604" y="176.51"/>
  </clipPath>
  <clipPath id="p83dba56a23">
   <rect height="61.55" width="229.558333" x="106.265938" y="258.86"/>
  </clipPath>
  <clipPath id="p2a6c0cb9d5">
   <rect height="61.55" width="229.558333" x="362.436771" y="258.86"/>
  </clipPath>
  <clipPath id="pf41ea3544b">
   <rect height="61.55" width="229.558333" x="618.607604" y="258.86"/>
  </clipPath>
  <clipPath id="p310d247492">
   <rect height="61.55" width="229.558333" x="106.265938" y="341.21"/>
  </clipPath>
  <clipPath id="p7f1ff1b2e8">
   <rect height="61.55" width="229.558333" x="362.436771" y="341.21"/>
  </clipPath>
  <clipPath id="p74ec2ba3db">
   <rect height="61.55" width="229.558333" x="618.607604" y="341.21"/>
  </clipPath>
 </defs>
</svg>
