<?xml version="1.0" encoding="utf-8" standalone="no"?>
<!DOCTYPE svg PUBLIC "-//W3C//DTD SVG 1.1//EN"
  "http://www.w3.org/Graphics/SVG/1.1/DTD/svg11.dtd">
<svg height="386.034375pt" version="1.1" viewBox="0 0 894.34375 386.034375" width="894.34375pt" xmlns="http://www.w3.org/2000/svg" xmlns:xlink="http://www.w3.org/1999/xlink">
 <metadata>
  <rdf:RDF xmlns:cc="http://creativecommons.org/ns#" xmlns:dc="http://purl.org/dc/elements/1.1/" xmlns:rdf="http://www.w3.org/1999/02/22-rdf-syntax-ns#">
   <cc:Work>
    <dc:type rdf:resource="http://purl.org/dc/dcmitype/StillImage"/>
    <dc:date>2022-10-26T22:50:01.615222</dc:date>
    <dc:format>image/svg+xml</dc:format>
    <dc:creator>
     <cc:Agent>
      <dc:title>Matplotlib v3.4.3, https://matplotlib.org/</dc:title>
     </cc:Agent>
    </dc:creator>
   </cc:Work>
  </rdf:RDF>
 </metadata>
 <defs>
  <style type="text/css">*{stroke-linecap:butt;stroke-linejoin:round;}</style>
 </defs>
 <g id="figure_1">
  <g id="patch_1">
   <path d="M 0 386.034375 
L 894.34375 386.034375 
L 894.34375 0 
L 0 0 
z
" style="fill:#ffffff;"/>
  </g>
  <g id="axes_1">
   <g id="patch_2">
    <path d="M 50.14375 348.478125 
L 887.14375 348.478125 
L 887.14375 22.318125 
L 50.14375 22.318125 
z
" style="fill:#ffffff;"/>
   </g>
   <g id="matplotlib.axis_1">
    <g id="xtick_1">
     <g id="line2d_1">
      <defs>
       <path d="M 0 0 
L 0 3.5 
" id="m98f14d9e2f" style="stroke:#000000;stroke-width:0.8;"/>
      </defs>
      <g>
       <use style="stroke:#000000;stroke-width:0.8;" x="74.618577" xlink:href="#m98f14d9e2f" y="348.478125"/>
      </g>
     </g>
     <g id="text_1">
      <!-- 6377 -->
      <g transform="translate(61.893577 363.076562)scale(0.1 -0.1)">
       <defs>
        <path d="M 2113 2584 
Q 1688 2584 1439 2293 
Q 1191 2003 1191 1497 
Q 1191 994 1439 701 
Q 1688 409 2113 409 
Q 2538 409 2786 701 
Q 3034 994 3034 1497 
Q 3034 2003 2786 2293 
Q 2538 2584 2113 2584 
z
M 3366 4563 
L 3366 3988 
Q 3128 4100 2886 4159 
Q 2644 4219 2406 4219 
Q 1781 4219 1451 3797 
Q 1122 3375 1075 2522 
Q 1259 2794 1537 2939 
Q 1816 3084 2150 3084 
Q 2853 3084 3261 2657 
Q 3669 2231 3669 1497 
Q 3669 778 3244 343 
Q 2819 -91 2113 -91 
Q 1303 -91 875 529 
Q 447 1150 447 2328 
Q 447 3434 972 4092 
Q 1497 4750 2381 4750 
Q 2619 4750 2861 4703 
Q 3103 4656 3366 4563 
z
" id="DejaVuSans-36" transform="scale(0.015625)"/>
        <path d="M 2597 2516 
Q 3050 2419 3304 2112 
Q 3559 1806 3559 1356 
Q 3559 666 3084 287 
Q 2609 -91 1734 -91 
Q 1441 -91 1130 -33 
Q 819 25 488 141 
L 488 750 
Q 750 597 1062 519 
Q 1375 441 1716 441 
Q 2309 441 2620 675 
Q 2931 909 2931 1356 
Q 2931 1769 2642 2001 
Q 2353 2234 1838 2234 
L 1294 2234 
L 1294 2753 
L 1863 2753 
Q 2328 2753 2575 2939 
Q 2822 3125 2822 3475 
Q 2822 3834 2567 4026 
Q 2313 4219 1838 4219 
Q 1578 4219 1281 4162 
Q 984 4106 628 3988 
L 628 4550 
Q 988 4650 1302 4700 
Q 1616 4750 1894 4750 
Q 2613 4750 3031 4423 
Q 3450 4097 3450 3541 
Q 3450 3153 3228 2886 
Q 3006 2619 2597 2516 
z
" id="DejaVuSans-33" transform="scale(0.015625)"/>
        <path d="M 525 4666 
L 3525 4666 
L 3525 4397 
L 1831 0 
L 1172 0 
L 2766 4134 
L 525 4134 
L 525 4666 
z
" id="DejaVuSans-37" transform="scale(0.015625)"/>
       </defs>
       <use xlink:href="#DejaVuSans-36"/>
       <use x="63.623047" xlink:href="#DejaVuSans-33"/>
       <use x="127.246094" xlink:href="#DejaVuSans-37"/>
       <use x="190.869141" xlink:href="#DejaVuSans-37"/>
      </g>
     </g>
    </g>
    <g id="xtick_2">
     <g id="line2d_2">
      <g>
       <use style="stroke:#000000;stroke-width:0.8;" x="227.400807" xlink:href="#m98f14d9e2f" y="348.478125"/>
      </g>
     </g>
     <g id="text_2">
      <!-- 6378 -->
      <g transform="translate(214.675807 363.076562)scale(0.1 -0.1)">
       <defs>
        <path d="M 2034 2216 
Q 1584 2216 1326 1975 
Q 1069 1734 1069 1313 
Q 1069 891 1326 650 
Q 1584 409 2034 409 
Q 2484 409 2743 651 
Q 3003 894 3003 1313 
Q 3003 1734 2745 1975 
Q 2488 2216 2034 2216 
z
M 1403 2484 
Q 997 2584 770 2862 
Q 544 3141 544 3541 
Q 544 4100 942 4425 
Q 1341 4750 2034 4750 
Q 2731 4750 3128 4425 
Q 3525 4100 3525 3541 
Q 3525 3141 3298 2862 
Q 3072 2584 2669 2484 
Q 3125 2378 3379 2068 
Q 3634 1759 3634 1313 
Q 3634 634 3220 271 
Q 2806 -91 2034 -91 
Q 1263 -91 848 271 
Q 434 634 434 1313 
Q 434 1759 690 2068 
Q 947 2378 1403 2484 
z
M 1172 3481 
Q 1172 3119 1398 2916 
Q 1625 2713 2034 2713 
Q 2441 2713 2670 2916 
Q 2900 3119 2900 3481 
Q 2900 3844 2670 4047 
Q 2441 4250 2034 4250 
Q 1625 4250 1398 4047 
Q 1172 3844 1172 3481 
z
" id="DejaVuSans-38" transform="scale(0.015625)"/>
       </defs>
       <use xlink:href="#DejaVuSans-36"/>
       <use x="63.623047" xlink:href="#DejaVuSans-33"/>
       <use x="127.246094" xlink:href="#DejaVuSans-37"/>
       <use x="190.869141" xlink:href="#DejaVuSans-38"/>
      </g>
     </g>
    </g>
    <g id="xtick_3">
     <g id="line2d_3">
      <g>
       <use style="stroke:#000000;stroke-width:0.8;" x="380.183037" xlink:href="#m98f14d9e2f" y="348.478125"/>
      </g>
     </g>
     <g id="text_3">
      <!-- 6379 -->
      <g transform="translate(367.458037 363.076562)scale(0.1 -0.1)">
       <defs>
        <path d="M 703 97 
L 703 672 
Q 941 559 1184 500 
Q 1428 441 1663 441 
Q 2288 441 2617 861 
Q 2947 1281 2994 2138 
Q 2813 1869 2534 1725 
Q 2256 1581 1919 1581 
Q 1219 1581 811 2004 
Q 403 2428 403 3163 
Q 403 3881 828 4315 
Q 1253 4750 1959 4750 
Q 2769 4750 3195 4129 
Q 3622 3509 3622 2328 
Q 3622 1225 3098 567 
Q 2575 -91 1691 -91 
Q 1453 -91 1209 -44 
Q 966 3 703 97 
z
M 1959 2075 
Q 2384 2075 2632 2365 
Q 2881 2656 2881 3163 
Q 2881 3666 2632 3958 
Q 2384 4250 1959 4250 
Q 1534 4250 1286 3958 
Q 1038 3666 1038 3163 
Q 1038 2656 1286 2365 
Q 1534 2075 1959 2075 
z
" id="DejaVuSans-39" transform="scale(0.015625)"/>
       </defs>
       <use xlink:href="#DejaVuSans-36"/>
       <use x="63.623047" xlink:href="#DejaVuSans-33"/>
       <use x="127.246094" xlink:href="#DejaVuSans-37"/>
       <use x="190.869141" xlink:href="#DejaVuSans-39"/>
      </g>
     </g>
    </g>
    <g id="xtick_4">
     <g id="line2d_4">
      <g>
       <use style="stroke:#000000;stroke-width:0.8;" x="532.965268" xlink:href="#m98f14d9e2f" y="348.478125"/>
      </g>
     </g>
     <g id="text_4">
      <!-- 6380 -->
      <g transform="translate(520.240268 363.076562)scale(0.1 -0.1)">
       <defs>
        <path d="M 2034 4250 
Q 1547 4250 1301 3770 
Q 1056 3291 1056 2328 
Q 1056 1369 1301 889 
Q 1547 409 2034 409 
Q 2525 409 2770 889 
Q 3016 1369 3016 2328 
Q 3016 3291 2770 3770 
Q 2525 4250 2034 4250 
z
M 2034 4750 
Q 2819 4750 3233 4129 
Q 3647 3509 3647 2328 
Q 3647 1150 3233 529 
Q 2819 -91 2034 -91 
Q 1250 -91 836 529 
Q 422 1150 422 2328 
Q 422 3509 836 4129 
Q 1250 4750 2034 4750 
z
" id="DejaVuSans-30" transform="scale(0.015625)"/>
       </defs>
       <use xlink:href="#DejaVuSans-36"/>
       <use x="63.623047" xlink:href="#DejaVuSans-33"/>
       <use x="127.246094" xlink:href="#DejaVuSans-38"/>
       <use x="190.869141" xlink:href="#DejaVuSans-30"/>
      </g>
     </g>
    </g>
    <g id="xtick_5">
     <g id="line2d_5">
      <g>
       <use style="stroke:#000000;stroke-width:0.8;" x="685.747498" xlink:href="#m98f14d9e2f" y="348.478125"/>
      </g>
     </g>
     <g id="text_5">
      <!-- 6381 -->
      <g transform="translate(673.022498 363.076562)scale(0.1 -0.1)">
       <defs>
        <path d="M 794 531 
L 1825 531 
L 1825 4091 
L 703 3866 
L 703 4441 
L 1819 4666 
L 2450 4666 
L 2450 531 
L 3481 531 
L 3481 0 
L 794 0 
L 794 531 
z
" id="DejaVuSans-31" transform="scale(0.015625)"/>
       </defs>
       <use xlink:href="#DejaVuSans-36"/>
       <use x="63.623047" xlink:href="#DejaVuSans-33"/>
       <use x="127.246094" xlink:href="#DejaVuSans-38"/>
       <use x="190.869141" xlink:href="#DejaVuSans-31"/>
      </g>
     </g>
    </g>
    <g id="xtick_6">
     <g id="line2d_6">
      <g>
       <use style="stroke:#000000;stroke-width:0.8;" x="838.529728" xlink:href="#m98f14d9e2f" y="348.478125"/>
      </g>
     </g>
     <g id="text_6">
      <!-- 6382 -->
      <g transform="translate(825.804728 363.076562)scale(0.1 -0.1)">
       <defs>
        <path d="M 1228 531 
L 3431 531 
L 3431 0 
L 469 0 
L 469 531 
Q 828 903 1448 1529 
Q 2069 2156 2228 2338 
Q 2531 2678 2651 2914 
Q 2772 3150 2772 3378 
Q 2772 3750 2511 3984 
Q 2250 4219 1831 4219 
Q 1534 4219 1204 4116 
Q 875 4013 500 3803 
L 500 4441 
Q 881 4594 1212 4672 
Q 1544 4750 1819 4750 
Q 2544 4750 2975 4387 
Q 3406 4025 3406 3419 
Q 3406 3131 3298 2873 
Q 3191 2616 2906 2266 
Q 2828 2175 2409 1742 
Q 1991 1309 1228 531 
z
" id="DejaVuSans-32" transform="scale(0.015625)"/>
       </defs>
       <use xlink:href="#DejaVuSans-36"/>
       <use x="63.623047" xlink:href="#DejaVuSans-33"/>
       <use x="127.246094" xlink:href="#DejaVuSans-38"/>
       <use x="190.869141" xlink:href="#DejaVuSans-32"/>
      </g>
     </g>
    </g>
    <g id="text_7">
     <!-- Wavelength -->
     <g transform="translate(438.98125 376.754687)scale(0.1 -0.1)">
      <defs>
       <path d="M 213 4666 
L 850 4666 
L 1831 722 
L 2809 4666 
L 3519 4666 
L 4500 722 
L 5478 4666 
L 6119 4666 
L 4947 0 
L 4153 0 
L 3169 4050 
L 2175 0 
L 1381 0 
L 213 4666 
z
" id="DejaVuSans-57" transform="scale(0.015625)"/>
       <path d="M 2194 1759 
Q 1497 1759 1228 1600 
Q 959 1441 959 1056 
Q 959 750 1161 570 
Q 1363 391 1709 391 
Q 2188 391 2477 730 
Q 2766 1069 2766 1631 
L 2766 1759 
L 2194 1759 
z
M 3341 1997 
L 3341 0 
L 2766 0 
L 2766 531 
Q 2569 213 2275 61 
Q 1981 -91 1556 -91 
Q 1019 -91 701 211 
Q 384 513 384 1019 
Q 384 1609 779 1909 
Q 1175 2209 1959 2209 
L 2766 2209 
L 2766 2266 
Q 2766 2663 2505 2880 
Q 2244 3097 1772 3097 
Q 1472 3097 1187 3025 
Q 903 2953 641 2809 
L 641 3341 
Q 956 3463 1253 3523 
Q 1550 3584 1831 3584 
Q 2591 3584 2966 3190 
Q 3341 2797 3341 1997 
z
" id="DejaVuSans-61" transform="scale(0.015625)"/>
       <path d="M 191 3500 
L 800 3500 
L 1894 563 
L 2988 3500 
L 3597 3500 
L 2284 0 
L 1503 0 
L 191 3500 
z
" id="DejaVuSans-76" transform="scale(0.015625)"/>
       <path d="M 3597 1894 
L 3597 1613 
L 953 1613 
Q 991 1019 1311 708 
Q 1631 397 2203 397 
Q 2534 397 2845 478 
Q 3156 559 3463 722 
L 3463 178 
Q 3153 47 2828 -22 
Q 2503 -91 2169 -91 
Q 1331 -91 842 396 
Q 353 884 353 1716 
Q 353 2575 817 3079 
Q 1281 3584 2069 3584 
Q 2775 3584 3186 3129 
Q 3597 2675 3597 1894 
z
M 3022 2063 
Q 3016 2534 2758 2815 
Q 2500 3097 2075 3097 
Q 1594 3097 1305 2825 
Q 1016 2553 972 2059 
L 3022 2063 
z
" id="DejaVuSans-65" transform="scale(0.015625)"/>
       <path d="M 603 4863 
L 1178 4863 
L 1178 0 
L 603 0 
L 603 4863 
z
" id="DejaVuSans-6c" transform="scale(0.015625)"/>
       <path d="M 3513 2113 
L 3513 0 
L 2938 0 
L 2938 2094 
Q 2938 2591 2744 2837 
Q 2550 3084 2163 3084 
Q 1697 3084 1428 2787 
Q 1159 2491 1159 1978 
L 1159 0 
L 581 0 
L 581 3500 
L 1159 3500 
L 1159 2956 
Q 1366 3272 1645 3428 
Q 1925 3584 2291 3584 
Q 2894 3584 3203 3211 
Q 3513 2838 3513 2113 
z
" id="DejaVuSans-6e" transform="scale(0.015625)"/>
       <path d="M 2906 1791 
Q 2906 2416 2648 2759 
Q 2391 3103 1925 3103 
Q 1463 3103 1205 2759 
Q 947 2416 947 1791 
Q 947 1169 1205 825 
Q 1463 481 1925 481 
Q 2391 481 2648 825 
Q 2906 1169 2906 1791 
z
M 3481 434 
Q 3481 -459 3084 -895 
Q 2688 -1331 1869 -1331 
Q 1566 -1331 1297 -1286 
Q 1028 -1241 775 -1147 
L 775 -588 
Q 1028 -725 1275 -790 
Q 1522 -856 1778 -856 
Q 2344 -856 2625 -561 
Q 2906 -266 2906 331 
L 2906 616 
Q 2728 306 2450 153 
Q 2172 0 1784 0 
Q 1141 0 747 490 
Q 353 981 353 1791 
Q 353 2603 747 3093 
Q 1141 3584 1784 3584 
Q 2172 3584 2450 3431 
Q 2728 3278 2906 2969 
L 2906 3500 
L 3481 3500 
L 3481 434 
z
" id="DejaVuSans-67" transform="scale(0.015625)"/>
       <path d="M 1172 4494 
L 1172 3500 
L 2356 3500 
L 2356 3053 
L 1172 3053 
L 1172 1153 
Q 1172 725 1289 603 
Q 1406 481 1766 481 
L 2356 481 
L 2356 0 
L 1766 0 
Q 1100 0 847 248 
Q 594 497 594 1153 
L 594 3053 
L 172 3053 
L 172 3500 
L 594 3500 
L 594 4494 
L 1172 4494 
z
" id="DejaVuSans-74" transform="scale(0.015625)"/>
       <path d="M 3513 2113 
L 3513 0 
L 2938 0 
L 2938 2094 
Q 2938 2591 2744 2837 
Q 2550 3084 2163 3084 
Q 1697 3084 1428 2787 
Q 1159 2491 1159 1978 
L 1159 0 
L 581 0 
L 581 4863 
L 1159 4863 
L 1159 2956 
Q 1366 3272 1645 3428 
Q 1925 3584 2291 3584 
Q 2894 3584 3203 3211 
Q 3513 2838 3513 2113 
z
" id="DejaVuSans-68" transform="scale(0.015625)"/>
      </defs>
      <use xlink:href="#DejaVuSans-57"/>
      <use x="92.501953" xlink:href="#DejaVuSans-61"/>
      <use x="153.78125" xlink:href="#DejaVuSans-76"/>
      <use x="212.960938" xlink:href="#DejaVuSans-65"/>
      <use x="274.484375" xlink:href="#DejaVuSans-6c"/>
      <use x="302.267578" xlink:href="#DejaVuSans-65"/>
      <use x="363.791016" xlink:href="#DejaVuSans-6e"/>
      <use x="427.169922" xlink:href="#DejaVuSans-67"/>
      <use x="490.646484" xlink:href="#DejaVuSans-74"/>
      <use x="529.855469" xlink:href="#DejaVuSans-68"/>
     </g>
    </g>
   </g>
   <g id="matplotlib.axis_2">
    <g id="ytick_1">
     <g id="line2d_7">
      <defs>
       <path d="M 0 0 
L -3.5 0 
" id="m102a5508fe" style="stroke:#000000;stroke-width:0.8;"/>
      </defs>
      <g>
       <use style="stroke:#000000;stroke-width:0.8;" x="50.14375" xlink:href="#m102a5508fe" y="297.552695"/>
      </g>
     </g>
     <g id="text_8">
      <!-- 0.92 -->
      <g transform="translate(20.878125 301.351913)scale(0.1 -0.1)">
       <defs>
        <path d="M 684 794 
L 1344 794 
L 1344 0 
L 684 0 
L 684 794 
z
" id="DejaVuSans-2e" transform="scale(0.015625)"/>
       </defs>
       <use xlink:href="#DejaVuSans-30"/>
       <use x="63.623047" xlink:href="#DejaVuSans-2e"/>
       <use x="95.410156" xlink:href="#DejaVuSans-39"/>
       <use x="159.033203" xlink:href="#DejaVuSans-32"/>
      </g>
     </g>
    </g>
    <g id="ytick_2">
     <g id="line2d_8">
      <g>
       <use style="stroke:#000000;stroke-width:0.8;" x="50.14375" xlink:href="#m102a5508fe" y="232.450416"/>
      </g>
     </g>
     <g id="text_9">
      <!-- 0.94 -->
      <g transform="translate(20.878125 236.249635)scale(0.1 -0.1)">
       <defs>
        <path d="M 2419 4116 
L 825 1625 
L 2419 1625 
L 2419 4116 
z
M 2253 4666 
L 3047 4666 
L 3047 1625 
L 3713 1625 
L 3713 1100 
L 3047 1100 
L 3047 0 
L 2419 0 
L 2419 1100 
L 313 1100 
L 313 1709 
L 2253 4666 
z
" id="DejaVuSans-34" transform="scale(0.015625)"/>
       </defs>
       <use xlink:href="#DejaVuSans-30"/>
       <use x="63.623047" xlink:href="#DejaVuSans-2e"/>
       <use x="95.410156" xlink:href="#DejaVuSans-39"/>
       <use x="159.033203" xlink:href="#DejaVuSans-34"/>
      </g>
     </g>
    </g>
    <g id="ytick_3">
     <g id="line2d_9">
      <g>
       <use style="stroke:#000000;stroke-width:0.8;" x="50.14375" xlink:href="#m102a5508fe" y="167.348137"/>
      </g>
     </g>
     <g id="text_10">
      <!-- 0.96 -->
      <g transform="translate(20.878125 171.147356)scale(0.1 -0.1)">
       <use xlink:href="#DejaVuSans-30"/>
       <use x="63.623047" xlink:href="#DejaVuSans-2e"/>
       <use x="95.410156" xlink:href="#DejaVuSans-39"/>
       <use x="159.033203" xlink:href="#DejaVuSans-36"/>
      </g>
     </g>
    </g>
    <g id="ytick_4">
     <g id="line2d_10">
      <g>
       <use style="stroke:#000000;stroke-width:0.8;" x="50.14375" xlink:href="#m102a5508fe" y="102.245858"/>
      </g>
     </g>
     <g id="text_11">
      <!-- 0.98 -->
      <g transform="translate(20.878125 106.045077)scale(0.1 -0.1)">
       <use xlink:href="#DejaVuSans-30"/>
       <use x="63.623047" xlink:href="#DejaVuSans-2e"/>
       <use x="95.410156" xlink:href="#DejaVuSans-39"/>
       <use x="159.033203" xlink:href="#DejaVuSans-38"/>
      </g>
     </g>
    </g>
    <g id="ytick_5">
     <g id="line2d_11">
      <g>
       <use style="stroke:#000000;stroke-width:0.8;" x="50.14375" xlink:href="#m102a5508fe" y="37.14358"/>
      </g>
     </g>
     <g id="text_12">
      <!-- 1.00 -->
      <g transform="translate(20.878125 40.942798)scale(0.1 -0.1)">
       <use xlink:href="#DejaVuSans-31"/>
       <use x="63.623047" xlink:href="#DejaVuSans-2e"/>
       <use x="95.410156" xlink:href="#DejaVuSans-30"/>
       <use x="159.033203" xlink:href="#DejaVuSans-30"/>
      </g>
     </g>
    </g>
    <g id="text_13">
     <!-- Normalized Intenisty -->
     <g transform="translate(14.798438 237.105156)rotate(-90)scale(0.1 -0.1)">
      <defs>
       <path d="M 628 4666 
L 1478 4666 
L 3547 763 
L 3547 4666 
L 4159 4666 
L 4159 0 
L 3309 0 
L 1241 3903 
L 1241 0 
L 628 0 
L 628 4666 
z
" id="DejaVuSans-4e" transform="scale(0.015625)"/>
       <path d="M 1959 3097 
Q 1497 3097 1228 2736 
Q 959 2375 959 1747 
Q 959 1119 1226 758 
Q 1494 397 1959 397 
Q 2419 397 2687 759 
Q 2956 1122 2956 1747 
Q 2956 2369 2687 2733 
Q 2419 3097 1959 3097 
z
M 1959 3584 
Q 2709 3584 3137 3096 
Q 3566 2609 3566 1747 
Q 3566 888 3137 398 
Q 2709 -91 1959 -91 
Q 1206 -91 779 398 
Q 353 888 353 1747 
Q 353 2609 779 3096 
Q 1206 3584 1959 3584 
z
" id="DejaVuSans-6f" transform="scale(0.015625)"/>
       <path d="M 2631 2963 
Q 2534 3019 2420 3045 
Q 2306 3072 2169 3072 
Q 1681 3072 1420 2755 
Q 1159 2438 1159 1844 
L 1159 0 
L 581 0 
L 581 3500 
L 1159 3500 
L 1159 2956 
Q 1341 3275 1631 3429 
Q 1922 3584 2338 3584 
Q 2397 3584 2469 3576 
Q 2541 3569 2628 3553 
L 2631 2963 
z
" id="DejaVuSans-72" transform="scale(0.015625)"/>
       <path d="M 3328 2828 
Q 3544 3216 3844 3400 
Q 4144 3584 4550 3584 
Q 5097 3584 5394 3201 
Q 5691 2819 5691 2113 
L 5691 0 
L 5113 0 
L 5113 2094 
Q 5113 2597 4934 2840 
Q 4756 3084 4391 3084 
Q 3944 3084 3684 2787 
Q 3425 2491 3425 1978 
L 3425 0 
L 2847 0 
L 2847 2094 
Q 2847 2600 2669 2842 
Q 2491 3084 2119 3084 
Q 1678 3084 1418 2786 
Q 1159 2488 1159 1978 
L 1159 0 
L 581 0 
L 581 3500 
L 1159 3500 
L 1159 2956 
Q 1356 3278 1631 3431 
Q 1906 3584 2284 3584 
Q 2666 3584 2933 3390 
Q 3200 3197 3328 2828 
z
" id="DejaVuSans-6d" transform="scale(0.015625)"/>
       <path d="M 603 3500 
L 1178 3500 
L 1178 0 
L 603 0 
L 603 3500 
z
M 603 4863 
L 1178 4863 
L 1178 4134 
L 603 4134 
L 603 4863 
z
" id="DejaVuSans-69" transform="scale(0.015625)"/>
       <path d="M 353 3500 
L 3084 3500 
L 3084 2975 
L 922 459 
L 3084 459 
L 3084 0 
L 275 0 
L 275 525 
L 2438 3041 
L 353 3041 
L 353 3500 
z
" id="DejaVuSans-7a" transform="scale(0.015625)"/>
       <path d="M 2906 2969 
L 2906 4863 
L 3481 4863 
L 3481 0 
L 2906 0 
L 2906 525 
Q 2725 213 2448 61 
Q 2172 -91 1784 -91 
Q 1150 -91 751 415 
Q 353 922 353 1747 
Q 353 2572 751 3078 
Q 1150 3584 1784 3584 
Q 2172 3584 2448 3432 
Q 2725 3281 2906 2969 
z
M 947 1747 
Q 947 1113 1208 752 
Q 1469 391 1925 391 
Q 2381 391 2643 752 
Q 2906 1113 2906 1747 
Q 2906 2381 2643 2742 
Q 2381 3103 1925 3103 
Q 1469 3103 1208 2742 
Q 947 2381 947 1747 
z
" id="DejaVuSans-64" transform="scale(0.015625)"/>
       <path id="DejaVuSans-20" transform="scale(0.015625)"/>
       <path d="M 628 4666 
L 1259 4666 
L 1259 0 
L 628 0 
L 628 4666 
z
" id="DejaVuSans-49" transform="scale(0.015625)"/>
       <path d="M 2834 3397 
L 2834 2853 
Q 2591 2978 2328 3040 
Q 2066 3103 1784 3103 
Q 1356 3103 1142 2972 
Q 928 2841 928 2578 
Q 928 2378 1081 2264 
Q 1234 2150 1697 2047 
L 1894 2003 
Q 2506 1872 2764 1633 
Q 3022 1394 3022 966 
Q 3022 478 2636 193 
Q 2250 -91 1575 -91 
Q 1294 -91 989 -36 
Q 684 19 347 128 
L 347 722 
Q 666 556 975 473 
Q 1284 391 1588 391 
Q 1994 391 2212 530 
Q 2431 669 2431 922 
Q 2431 1156 2273 1281 
Q 2116 1406 1581 1522 
L 1381 1569 
Q 847 1681 609 1914 
Q 372 2147 372 2553 
Q 372 3047 722 3315 
Q 1072 3584 1716 3584 
Q 2034 3584 2315 3537 
Q 2597 3491 2834 3397 
z
" id="DejaVuSans-73" transform="scale(0.015625)"/>
       <path d="M 2059 -325 
Q 1816 -950 1584 -1140 
Q 1353 -1331 966 -1331 
L 506 -1331 
L 506 -850 
L 844 -850 
Q 1081 -850 1212 -737 
Q 1344 -625 1503 -206 
L 1606 56 
L 191 3500 
L 800 3500 
L 1894 763 
L 2988 3500 
L 3597 3500 
L 2059 -325 
z
" id="DejaVuSans-79" transform="scale(0.015625)"/>
      </defs>
      <use xlink:href="#DejaVuSans-4e"/>
      <use x="74.804688" xlink:href="#DejaVuSans-6f"/>
      <use x="135.986328" xlink:href="#DejaVuSans-72"/>
      <use x="175.349609" xlink:href="#DejaVuSans-6d"/>
      <use x="272.761719" xlink:href="#DejaVuSans-61"/>
      <use x="334.041016" xlink:href="#DejaVuSans-6c"/>
      <use x="361.824219" xlink:href="#DejaVuSans-69"/>
      <use x="389.607422" xlink:href="#DejaVuSans-7a"/>
      <use x="442.097656" xlink:href="#DejaVuSans-65"/>
      <use x="503.621094" xlink:href="#DejaVuSans-64"/>
      <use x="567.097656" xlink:href="#DejaVuSans-20"/>
      <use x="598.884766" xlink:href="#DejaVuSans-49"/>
      <use x="628.376953" xlink:href="#DejaVuSans-6e"/>
      <use x="691.755859" xlink:href="#DejaVuSans-74"/>
      <use x="730.964844" xlink:href="#DejaVuSans-65"/>
      <use x="792.488281" xlink:href="#DejaVuSans-6e"/>
      <use x="855.867188" xlink:href="#DejaVuSans-69"/>
      <use x="883.650391" xlink:href="#DejaVuSans-73"/>
      <use x="935.75" xlink:href="#DejaVuSans-74"/>
      <use x="974.958984" xlink:href="#DejaVuSans-79"/>
     </g>
    </g>
   </g>
   <g id="line2d_12">
    <path clip-path="url(#p74d32fe7f1)" d="M 536.608223 37.174416 
L 528.12636 37.349732 
L 523.279647 37.655933 
L 519.341729 38.126956 
L 516.009668 38.755218 
L 512.980542 39.562845 
L 510.254345 40.519047 
L 507.528163 41.720954 
L 504.801997 43.19114 
L 502.37875 44.737965 
L 499.955516 46.522036 
L 497.532293 48.553973 
L 495.109083 50.845921 
L 492.685885 53.413388 
L 490.262699 56.276984 
L 487.839524 59.463998 
L 485.416362 63.009844 
L 482.993212 66.959511 
L 480.570074 71.369085 
L 478.449838 75.658474 
L 476.329612 80.407381 
L 474.209394 85.679518 
L 472.089186 91.547205 
L 469.968987 98.090208 
L 467.848797 105.393134 
L 465.728617 113.541047 
L 463.608445 122.613079 
L 461.488283 132.674134 
L 459.36813 143.765115 
L 456.94511 157.707984 
L 454.522101 172.940694 
L 451.493358 193.552521 
L 447.556019 222.113098 
L 441.498637 266.074356 
L 438.772839 284.042485 
L 436.652785 296.543387 
L 434.835604 305.959935 
L 433.321291 312.75428 
L 431.806982 318.499089 
L 430.595539 322.293341 
L 429.384099 325.34782 
L 428.47552 327.144007 
L 427.566944 328.513474 
L 426.658369 329.457801 
L 426.052653 329.853726 
L 425.446939 330.065735 
L 424.841225 330.097337 
L 424.235511 329.952909 
L 423.629799 329.637715 
L 422.721231 328.858462 
L 421.812665 327.733667 
L 420.904101 326.292493 
L 419.692685 323.937485 
L 418.178419 320.427658 
L 416.058455 314.829095 
L 412.424251 305.065007 
L 410.910008 301.575335 
L 409.698616 299.243796 
L 408.487228 297.415078 
L 407.578689 296.412644 
L 406.670151 295.74653 
L 405.761615 295.4248 
L 405.155926 295.401183 
L 404.247393 295.644434 
L 403.338861 296.204446 
L 402.430332 297.051843 
L 401.218962 298.559152 
L 399.704753 300.877066 
L 396.070672 306.650701 
L 395.162155 307.720603 
L 394.253641 308.484403 
L 393.647966 308.786265 
L 393.042291 308.897454 
L 392.436617 308.798024 
L 391.830944 308.469434 
L 391.225272 307.894755 
L 390.6196 307.058845 
L 389.711094 305.286874 
L 388.80259 302.862291 
L 387.894088 299.760735 
L 386.985587 295.969583 
L 385.774255 289.842426 
L 384.562926 282.519808 
L 383.048769 271.787845 
L 381.534617 259.486933 
L 379.717641 243.018389 
L 376.992189 215.927766 
L 370.330038 148.318145 
L 367.90746 126.537169 
L 365.787714 109.582926 
L 363.970796 96.770931 
L 362.153885 85.580722 
L 360.639798 77.469216 
L 359.125716 70.410047 
L 357.611638 64.33607 
L 356.097565 59.167678 
L 354.583497 54.817872 
L 353.069433 51.196571 
L 351.555374 48.214141 
L 350.04132 45.784147 
L 348.52727 43.825391 
L 347.013225 42.263311 
L 345.499185 41.030815 
L 343.98515 40.068657 
L 342.168313 39.199076 
L 340.351484 38.570596 
L 338.231858 38.06246 
L 335.506638 37.654673 
L 331.873035 37.370498 
L 326.422682 37.207995 
L 323.091941 37.173086 
L 323.091941 37.173086 
" style="fill:none;stroke:#1f77b4;stroke-linecap:square;"/>
   </g>
   <g id="line2d_13">
    <path clip-path="url(#p74d32fe7f1)" d="M 88.189205 44.364611 
L 91.245064 47.347413 
L 97.356784 47.620911 
L 100.412644 48.150747 
L 103.468504 46.508858 
L 106.524363 46.281571 
L 109.580223 47.997584 
L 112.636083 47.843674 
L 115.691943 46.709907 
L 118.747803 45.197832 
L 121.803662 43.376774 
L 124.859522 43.429331 
L 127.915382 48.306519 
L 130.971242 47.092282 
L 134.027102 46.169605 
L 137.082961 46.679147 
L 140.138821 40.412071 
L 143.194681 45.812862 
L 146.250541 43.907768 
L 149.306401 41.350811 
L 152.36226 39.081938 
L 155.41812 38.303458 
L 158.47398 40.754454 
L 161.52984 37.14358 
L 164.5857 38.867772 
L 167.641559 41.969443 
L 170.697419 41.672973 
L 173.753279 38.240273 
L 176.809139 39.752579 
L 179.864999 41.8115 
L 182.920858 48.281706 
L 185.976718 44.707656 
L 189.032578 39.286861 
L 192.088438 37.603134 
L 195.144298 40.575025 
L 198.200157 41.054354 
L 201.256017 40.599965 
L 204.311877 40.738133 
L 207.367737 42.242818 
L 210.423597 45.639618 
L 213.479456 49.995072 
L 216.535316 40.187262 
L 219.591176 43.679924 
L 222.647036 50.077148 
L 225.702896 49.788524 
L 228.758755 45.166753 
L 231.814615 51.371411 
L 234.870475 56.909566 
L 237.926335 49.434636 
L 240.982195 49.730457 
L 244.038054 47.723867 
L 247.093914 43.74615 
L 250.149774 47.031953 
L 253.205634 42.570547 
L 256.261494 46.801988 
L 259.317354 45.607997 
L 262.373213 46.130613 
L 265.429073 49.882592 
L 268.484933 53.319456 
L 271.540793 47.082668 
L 274.596653 49.03599 
L 277.652512 46.279245 
L 280.708372 47.292964 
L 283.764232 49.366541 
L 286.820092 46.770461 
L 289.875952 52.872386 
L 292.931811 51.849567 
L 295.987671 55.077272 
L 299.043531 53.194349 
L 302.099391 51.533987 
L 305.155251 57.704098 
L 308.21111 62.538433 
L 311.26697 62.985254 
L 314.32283 65.486753 
L 317.37869 65.766239 
L 320.43455 68.70908 
L 323.490409 76.141729 
L 326.546269 74.553494 
L 329.602129 81.729872 
L 332.657989 83.698546 
L 335.713849 89.478942 
L 338.769708 95.821728 
L 341.825568 101.633538 
L 344.881428 113.038002 
L 347.937288 119.304848 
L 350.993148 124.214735 
L 354.049007 132.505682 
L 357.104867 145.162232 
L 360.160727 159.731971 
L 363.216587 170.672674 
L 366.272447 186.460482 
L 369.328306 200.145229 
L 372.384166 216.138711 
L 375.440026 235.128079 
L 381.551746 275.98053 
L 384.607605 295.807362 
L 390.719325 312.353021 
L 393.775185 312.191847 
L 399.886904 300.746195 
L 402.942764 292.818248 
L 405.998624 289.972222 
L 409.054484 292.153647 
L 412.110344 290.153838 
L 415.166203 293.180367 
L 418.222063 306.420492 
L 421.277923 318.057182 
L 424.333783 324.872324 
L 427.389643 333.65267 
L 430.445502 331.607051 
L 433.501362 316.595232 
L 436.557222 293.284035 
L 439.613082 273.003363 
L 442.668942 256.295615 
L 445.724801 232.562133 
L 451.836521 192.25777 
L 457.948241 147.899434 
L 461.0041 129.843801 
L 464.05996 119.246944 
L 467.11582 104.525822 
L 470.17168 93.491685 
L 473.22754 84.30269 
L 476.2834 75.748297 
L 479.339259 72.119118 
L 482.395119 69.061082 
L 485.450979 67.197726 
L 488.506839 64.975853 
L 491.562699 63.385834 
L 494.618558 63.08237 
L 497.674418 64.141542 
L 500.730278 66.522511 
L 503.786138 65.659051 
L 506.841998 63.245934 
L 509.897857 61.289771 
L 512.953717 61.981511 
L 516.009577 65.517935 
L 519.065437 59.481902 
L 522.121297 63.348428 
L 528.233016 66.254038 
L 531.288876 64.083791 
L 534.344736 58.515523 
L 537.400596 61.078769 
L 540.456455 63.277888 
L 543.512315 61.702562 
L 546.568175 60.579881 
L 549.624035 61.06501 
L 552.679895 62.240117 
L 555.735754 61.894711 
L 558.791614 64.089061 
L 561.847474 62.249581 
L 564.903334 67.129372 
L 567.959194 68.945652 
L 571.015053 69.639823 
L 574.070913 70.520121 
L 577.126773 62.405853 
L 580.182633 65.309169 
L 583.238493 69.754167 
L 586.294352 67.788418 
L 589.350212 66.841067 
L 592.406072 68.860387 
L 595.461932 68.554041 
L 598.517792 62.925757 
L 601.573651 69.292672 
L 604.629511 67.236928 
L 607.685371 67.178035 
L 610.741231 68.698843 
L 613.797091 69.53224 
L 616.85295 72.935766 
L 619.90881 67.117427 
L 622.96467 73.054241 
L 626.02053 76.104895 
L 629.07639 72.164355 
L 632.132249 65.395098 
L 635.188109 66.446142 
L 638.243969 69.030568 
L 641.299829 75.064844 
L 644.355689 68.0944 
L 647.411548 66.295034 
L 650.467408 67.810437 
L 653.523268 67.377225 
L 656.579128 68.230619 
L 659.634988 65.597214 
L 662.690847 66.757088 
L 665.746707 67.173103 
L 668.802567 66.230307 
L 671.858427 64.499487 
L 674.914287 63.753943 
L 677.970146 66.349978 
L 681.026006 71.635722 
L 684.081866 68.668221 
L 687.137726 69.154844 
L 690.193586 71.072672 
L 693.249446 70.510496 
L 696.305305 66.604758 
L 699.361165 70.608109 
L 702.417025 69.880729 
L 705.472885 70.125431 
L 711.584604 63.954501 
L 714.640464 66.337359 
L 717.696324 69.29079 
L 720.752184 67.346436 
L 723.808044 63.111135 
L 726.863903 65.436842 
L 729.919763 66.821917 
L 732.975623 65.321845 
L 736.031483 66.986672 
L 739.087343 63.257351 
L 742.143202 62.868173 
L 745.199062 65.69394 
L 748.254922 67.972007 
L 751.310782 69.442661 
L 754.366642 70.086052 
L 757.422501 66.037253 
L 760.478361 67.449625 
L 763.534221 62.388878 
L 766.590081 67.190285 
L 769.645941 69.565931 
L 772.7018 67.258977 
L 775.75766 65.292019 
L 778.81352 69.723714 
L 781.86938 71.014241 
L 784.92524 72.495989 
L 787.981099 71.102077 
L 791.036959 70.426534 
L 794.092819 71.450423 
L 797.148679 71.769099 
L 800.204539 71.066994 
L 803.260398 64.824114 
L 806.316258 63.346568 
L 809.372118 62.184229 
L 812.427978 63.159091 
L 815.483838 66.274213 
L 818.539697 65.813487 
L 821.595557 66.292211 
L 824.651417 71.750058 
L 827.707277 71.022056 
L 830.763137 70.715239 
L 833.818996 70.743279 
L 836.874856 70.200009 
L 839.930716 73.139588 
L 842.986576 70.214304 
L 846.042436 68.547494 
L 849.098295 69.548725 
L 849.098295 69.548725 
" style="fill:none;stroke:#000000;stroke-linecap:square;stroke-width:1.5;"/>
   </g>
   <g id="patch_3">
    <path d="M 50.14375 348.478125 
L 50.14375 22.318125 
" style="fill:none;stroke:#000000;stroke-linecap:square;stroke-linejoin:miter;stroke-width:0.8;"/>
   </g>
   <g id="patch_4">
    <path d="M 887.14375 348.478125 
L 887.14375 22.318125 
" style="fill:none;stroke:#000000;stroke-linecap:square;stroke-linejoin:miter;stroke-width:0.8;"/>
   </g>
   <g id="patch_5">
    <path d="M 50.14375 348.478125 
L 887.14375 348.478125 
" style="fill:none;stroke:#000000;stroke-linecap:square;stroke-linejoin:miter;stroke-width:0.8;"/>
   </g>
   <g id="patch_6">
    <path d="M 50.14375 22.318125 
L 887.14375 22.318125 
" style="fill:none;stroke:#000000;stroke-linecap:square;stroke-linejoin:miter;stroke-width:0.8;"/>
   </g>
   <g id="text_14">
    <!-- ground_B =  0.00149 cm-1    Delta_B = -0.5,    Delta_C = 0.15    zeta = -0.35   StarName:  HD 166937 -->
    <g transform="translate(161.10625 16.318125)scale(0.12 -0.12)">
     <defs>
      <path d="M 544 1381 
L 544 3500 
L 1119 3500 
L 1119 1403 
Q 1119 906 1312 657 
Q 1506 409 1894 409 
Q 2359 409 2629 706 
Q 2900 1003 2900 1516 
L 2900 3500 
L 3475 3500 
L 3475 0 
L 2900 0 
L 2900 538 
Q 2691 219 2414 64 
Q 2138 -91 1772 -91 
Q 1169 -91 856 284 
Q 544 659 544 1381 
z
M 1991 3584 
L 1991 3584 
z
" id="DejaVuSans-75" transform="scale(0.015625)"/>
      <path d="M 3263 -1063 
L 3263 -1509 
L -63 -1509 
L -63 -1063 
L 3263 -1063 
z
" id="DejaVuSans-5f" transform="scale(0.015625)"/>
      <path d="M 1259 2228 
L 1259 519 
L 2272 519 
Q 2781 519 3026 730 
Q 3272 941 3272 1375 
Q 3272 1813 3026 2020 
Q 2781 2228 2272 2228 
L 1259 2228 
z
M 1259 4147 
L 1259 2741 
L 2194 2741 
Q 2656 2741 2882 2914 
Q 3109 3088 3109 3444 
Q 3109 3797 2882 3972 
Q 2656 4147 2194 4147 
L 1259 4147 
z
M 628 4666 
L 2241 4666 
Q 2963 4666 3353 4366 
Q 3744 4066 3744 3513 
Q 3744 3084 3544 2831 
Q 3344 2578 2956 2516 
Q 3422 2416 3680 2098 
Q 3938 1781 3938 1306 
Q 3938 681 3513 340 
Q 3088 0 2303 0 
L 628 0 
L 628 4666 
z
" id="DejaVuSans-42" transform="scale(0.015625)"/>
      <path d="M 678 2906 
L 4684 2906 
L 4684 2381 
L 678 2381 
L 678 2906 
z
M 678 1631 
L 4684 1631 
L 4684 1100 
L 678 1100 
L 678 1631 
z
" id="DejaVuSans-3d" transform="scale(0.015625)"/>
      <path d="M 3122 3366 
L 3122 2828 
Q 2878 2963 2633 3030 
Q 2388 3097 2138 3097 
Q 1578 3097 1268 2742 
Q 959 2388 959 1747 
Q 959 1106 1268 751 
Q 1578 397 2138 397 
Q 2388 397 2633 464 
Q 2878 531 3122 666 
L 3122 134 
Q 2881 22 2623 -34 
Q 2366 -91 2075 -91 
Q 1284 -91 818 406 
Q 353 903 353 1747 
Q 353 2603 823 3093 
Q 1294 3584 2113 3584 
Q 2378 3584 2631 3529 
Q 2884 3475 3122 3366 
z
" id="DejaVuSans-63" transform="scale(0.015625)"/>
      <path d="M 313 2009 
L 1997 2009 
L 1997 1497 
L 313 1497 
L 313 2009 
z
" id="DejaVuSans-2d" transform="scale(0.015625)"/>
      <path d="M 1259 4147 
L 1259 519 
L 2022 519 
Q 2988 519 3436 956 
Q 3884 1394 3884 2338 
Q 3884 3275 3436 3711 
Q 2988 4147 2022 4147 
L 1259 4147 
z
M 628 4666 
L 1925 4666 
Q 3281 4666 3915 4102 
Q 4550 3538 4550 2338 
Q 4550 1131 3912 565 
Q 3275 0 1925 0 
L 628 0 
L 628 4666 
z
" id="DejaVuSans-44" transform="scale(0.015625)"/>
      <path d="M 691 4666 
L 3169 4666 
L 3169 4134 
L 1269 4134 
L 1269 2991 
Q 1406 3038 1543 3061 
Q 1681 3084 1819 3084 
Q 2600 3084 3056 2656 
Q 3513 2228 3513 1497 
Q 3513 744 3044 326 
Q 2575 -91 1722 -91 
Q 1428 -91 1123 -41 
Q 819 9 494 109 
L 494 744 
Q 775 591 1075 516 
Q 1375 441 1709 441 
Q 2250 441 2565 725 
Q 2881 1009 2881 1497 
Q 2881 1984 2565 2268 
Q 2250 2553 1709 2553 
Q 1456 2553 1204 2497 
Q 953 2441 691 2322 
L 691 4666 
z
" id="DejaVuSans-35" transform="scale(0.015625)"/>
      <path d="M 750 794 
L 1409 794 
L 1409 256 
L 897 -744 
L 494 -744 
L 750 256 
L 750 794 
z
" id="DejaVuSans-2c" transform="scale(0.015625)"/>
      <path d="M 4122 4306 
L 4122 3641 
Q 3803 3938 3442 4084 
Q 3081 4231 2675 4231 
Q 1875 4231 1450 3742 
Q 1025 3253 1025 2328 
Q 1025 1406 1450 917 
Q 1875 428 2675 428 
Q 3081 428 3442 575 
Q 3803 722 4122 1019 
L 4122 359 
Q 3791 134 3420 21 
Q 3050 -91 2638 -91 
Q 1578 -91 968 557 
Q 359 1206 359 2328 
Q 359 3453 968 4101 
Q 1578 4750 2638 4750 
Q 3056 4750 3426 4639 
Q 3797 4528 4122 4306 
z
" id="DejaVuSans-43" transform="scale(0.015625)"/>
      <path d="M 3425 4513 
L 3425 3897 
Q 3066 4069 2747 4153 
Q 2428 4238 2131 4238 
Q 1616 4238 1336 4038 
Q 1056 3838 1056 3469 
Q 1056 3159 1242 3001 
Q 1428 2844 1947 2747 
L 2328 2669 
Q 3034 2534 3370 2195 
Q 3706 1856 3706 1288 
Q 3706 609 3251 259 
Q 2797 -91 1919 -91 
Q 1588 -91 1214 -16 
Q 841 59 441 206 
L 441 856 
Q 825 641 1194 531 
Q 1563 422 1919 422 
Q 2459 422 2753 634 
Q 3047 847 3047 1241 
Q 3047 1584 2836 1778 
Q 2625 1972 2144 2069 
L 1759 2144 
Q 1053 2284 737 2584 
Q 422 2884 422 3419 
Q 422 4038 858 4394 
Q 1294 4750 2059 4750 
Q 2388 4750 2728 4690 
Q 3069 4631 3425 4513 
z
" id="DejaVuSans-53" transform="scale(0.015625)"/>
      <path d="M 750 794 
L 1409 794 
L 1409 0 
L 750 0 
L 750 794 
z
M 750 3309 
L 1409 3309 
L 1409 2516 
L 750 2516 
L 750 3309 
z
" id="DejaVuSans-3a" transform="scale(0.015625)"/>
      <path d="M 628 4666 
L 1259 4666 
L 1259 2753 
L 3553 2753 
L 3553 4666 
L 4184 4666 
L 4184 0 
L 3553 0 
L 3553 2222 
L 1259 2222 
L 1259 0 
L 628 0 
L 628 4666 
z
" id="DejaVuSans-48" transform="scale(0.015625)"/>
     </defs>
     <use xlink:href="#DejaVuSans-67"/>
     <use x="63.476562" xlink:href="#DejaVuSans-72"/>
     <use x="102.339844" xlink:href="#DejaVuSans-6f"/>
     <use x="163.521484" xlink:href="#DejaVuSans-75"/>
     <use x="226.900391" xlink:href="#DejaVuSans-6e"/>
     <use x="290.279297" xlink:href="#DejaVuSans-64"/>
     <use x="353.755859" xlink:href="#DejaVuSans-5f"/>
     <use x="403.755859" xlink:href="#DejaVuSans-42"/>
     <use x="472.359375" xlink:href="#DejaVuSans-20"/>
     <use x="504.146484" xlink:href="#DejaVuSans-3d"/>
     <use x="587.935547" xlink:href="#DejaVuSans-20"/>
     <use x="619.722656" xlink:href="#DejaVuSans-20"/>
     <use x="651.509766" xlink:href="#DejaVuSans-30"/>
     <use x="715.132812" xlink:href="#DejaVuSans-2e"/>
     <use x="746.919922" xlink:href="#DejaVuSans-30"/>
     <use x="810.542969" xlink:href="#DejaVuSans-30"/>
     <use x="874.166016" xlink:href="#DejaVuSans-31"/>
     <use x="937.789062" xlink:href="#DejaVuSans-34"/>
     <use x="1001.412109" xlink:href="#DejaVuSans-39"/>
     <use x="1065.035156" xlink:href="#DejaVuSans-20"/>
     <use x="1096.822266" xlink:href="#DejaVuSans-63"/>
     <use x="1151.802734" xlink:href="#DejaVuSans-6d"/>
     <use x="1249.214844" xlink:href="#DejaVuSans-2d"/>
     <use x="1285.298828" xlink:href="#DejaVuSans-31"/>
     <use x="1348.921875" xlink:href="#DejaVuSans-20"/>
     <use x="1380.708984" xlink:href="#DejaVuSans-20"/>
     <use x="1412.496094" xlink:href="#DejaVuSans-20"/>
     <use x="1444.283203" xlink:href="#DejaVuSans-20"/>
     <use x="1476.070312" xlink:href="#DejaVuSans-44"/>
     <use x="1553.072266" xlink:href="#DejaVuSans-65"/>
     <use x="1614.595703" xlink:href="#DejaVuSans-6c"/>
     <use x="1642.378906" xlink:href="#DejaVuSans-74"/>
     <use x="1681.587891" xlink:href="#DejaVuSans-61"/>
     <use x="1742.867188" xlink:href="#DejaVuSans-5f"/>
     <use x="1792.867188" xlink:href="#DejaVuSans-42"/>
     <use x="1861.470703" xlink:href="#DejaVuSans-20"/>
     <use x="1893.257812" xlink:href="#DejaVuSans-3d"/>
     <use x="1977.046875" xlink:href="#DejaVuSans-20"/>
     <use x="2008.833984" xlink:href="#DejaVuSans-2d"/>
     <use x="2044.917969" xlink:href="#DejaVuSans-30"/>
     <use x="2108.541016" xlink:href="#DejaVuSans-2e"/>
     <use x="2140.328125" xlink:href="#DejaVuSans-35"/>
     <use x="2203.951172" xlink:href="#DejaVuSans-2c"/>
     <use x="2235.738281" xlink:href="#DejaVuSans-20"/>
     <use x="2267.525391" xlink:href="#DejaVuSans-20"/>
     <use x="2299.3125" xlink:href="#DejaVuSans-20"/>
     <use x="2331.099609" xlink:href="#DejaVuSans-20"/>
     <use x="2362.886719" xlink:href="#DejaVuSans-44"/>
     <use x="2439.888672" xlink:href="#DejaVuSans-65"/>
     <use x="2501.412109" xlink:href="#DejaVuSans-6c"/>
     <use x="2529.195312" xlink:href="#DejaVuSans-74"/>
     <use x="2568.404297" xlink:href="#DejaVuSans-61"/>
     <use x="2629.683594" xlink:href="#DejaVuSans-5f"/>
     <use x="2679.683594" xlink:href="#DejaVuSans-43"/>
     <use x="2749.507812" xlink:href="#DejaVuSans-20"/>
     <use x="2781.294922" xlink:href="#DejaVuSans-3d"/>
     <use x="2865.083984" xlink:href="#DejaVuSans-20"/>
     <use x="2896.871094" xlink:href="#DejaVuSans-30"/>
     <use x="2960.494141" xlink:href="#DejaVuSans-2e"/>
     <use x="2992.28125" xlink:href="#DejaVuSans-31"/>
     <use x="3055.904297" xlink:href="#DejaVuSans-35"/>
     <use x="3119.527344" xlink:href="#DejaVuSans-20"/>
     <use x="3151.314453" xlink:href="#DejaVuSans-20"/>
     <use x="3183.101562" xlink:href="#DejaVuSans-20"/>
     <use x="3214.888672" xlink:href="#DejaVuSans-20"/>
     <use x="3246.675781" xlink:href="#DejaVuSans-7a"/>
     <use x="3299.166016" xlink:href="#DejaVuSans-65"/>
     <use x="3360.689453" xlink:href="#DejaVuSans-74"/>
     <use x="3399.898438" xlink:href="#DejaVuSans-61"/>
     <use x="3461.177734" xlink:href="#DejaVuSans-20"/>
     <use x="3492.964844" xlink:href="#DejaVuSans-3d"/>
     <use x="3576.753906" xlink:href="#DejaVuSans-20"/>
     <use x="3608.541016" xlink:href="#DejaVuSans-2d"/>
     <use x="3644.625" xlink:href="#DejaVuSans-30"/>
     <use x="3708.248047" xlink:href="#DejaVuSans-2e"/>
     <use x="3740.035156" xlink:href="#DejaVuSans-33"/>
     <use x="3803.658203" xlink:href="#DejaVuSans-35"/>
     <use x="3867.28125" xlink:href="#DejaVuSans-20"/>
     <use x="3899.068359" xlink:href="#DejaVuSans-20"/>
     <use x="3930.855469" xlink:href="#DejaVuSans-20"/>
     <use x="3962.642578" xlink:href="#DejaVuSans-53"/>
     <use x="4026.119141" xlink:href="#DejaVuSans-74"/>
     <use x="4065.328125" xlink:href="#DejaVuSans-61"/>
     <use x="4126.607422" xlink:href="#DejaVuSans-72"/>
     <use x="4167.720703" xlink:href="#DejaVuSans-4e"/>
     <use x="4242.525391" xlink:href="#DejaVuSans-61"/>
     <use x="4303.804688" xlink:href="#DejaVuSans-6d"/>
     <use x="4401.216797" xlink:href="#DejaVuSans-65"/>
     <use x="4462.740234" xlink:href="#DejaVuSans-3a"/>
     <use x="4496.431641" xlink:href="#DejaVuSans-20"/>
     <use x="4528.21875" xlink:href="#DejaVuSans-20"/>
     <use x="4560.005859" xlink:href="#DejaVuSans-48"/>
     <use x="4635.201172" xlink:href="#DejaVuSans-44"/>
     <use x="4712.203125" xlink:href="#DejaVuSans-20"/>
     <use x="4743.990234" xlink:href="#DejaVuSans-31"/>
     <use x="4807.613281" xlink:href="#DejaVuSans-36"/>
     <use x="4871.236328" xlink:href="#DejaVuSans-36"/>
     <use x="4934.859375" xlink:href="#DejaVuSans-39"/>
     <use x="4998.482422" xlink:href="#DejaVuSans-33"/>
     <use x="5062.105469" xlink:href="#DejaVuSans-37"/>
    </g>
   </g>
   <g id="legend_1">
    <g id="patch_7">
     <path d="M 812.804688 59.674375 
L 880.14375 59.674375 
Q 882.14375 59.674375 882.14375 57.674375 
L 882.14375 29.318125 
Q 882.14375 27.318125 880.14375 27.318125 
L 812.804688 27.318125 
Q 810.804688 27.318125 810.804688 29.318125 
L 810.804688 57.674375 
Q 810.804688 59.674375 812.804688 59.674375 
z
" style="fill:#ffffff;opacity:0.8;stroke:#cccccc;stroke-linejoin:miter;"/>
    </g>
    <g id="text_15">
     <!-- Temperature -->
     <g transform="translate(814.804688 38.916562)scale(0.1 -0.1)">
      <defs>
       <path d="M -19 4666 
L 3928 4666 
L 3928 4134 
L 2272 4134 
L 2272 0 
L 1638 0 
L 1638 4134 
L -19 4134 
L -19 4666 
z
" id="DejaVuSans-54" transform="scale(0.015625)"/>
       <path d="M 1159 525 
L 1159 -1331 
L 581 -1331 
L 581 3500 
L 1159 3500 
L 1159 2969 
Q 1341 3281 1617 3432 
Q 1894 3584 2278 3584 
Q 2916 3584 3314 3078 
Q 3713 2572 3713 1747 
Q 3713 922 3314 415 
Q 2916 -91 2278 -91 
Q 1894 -91 1617 61 
Q 1341 213 1159 525 
z
M 3116 1747 
Q 3116 2381 2855 2742 
Q 2594 3103 2138 3103 
Q 1681 3103 1420 2742 
Q 1159 2381 1159 1747 
Q 1159 1113 1420 752 
Q 1681 391 2138 391 
Q 2594 391 2855 752 
Q 3116 1113 3116 1747 
z
" id="DejaVuSans-70" transform="scale(0.015625)"/>
      </defs>
      <use xlink:href="#DejaVuSans-54"/>
      <use x="44.083984" xlink:href="#DejaVuSans-65"/>
      <use x="105.607422" xlink:href="#DejaVuSans-6d"/>
      <use x="203.019531" xlink:href="#DejaVuSans-70"/>
      <use x="266.496094" xlink:href="#DejaVuSans-65"/>
      <use x="328.019531" xlink:href="#DejaVuSans-72"/>
      <use x="369.132812" xlink:href="#DejaVuSans-61"/>
      <use x="430.412109" xlink:href="#DejaVuSans-74"/>
      <use x="469.621094" xlink:href="#DejaVuSans-75"/>
      <use x="533" xlink:href="#DejaVuSans-72"/>
      <use x="571.863281" xlink:href="#DejaVuSans-65"/>
     </g>
    </g>
    <g id="line2d_14">
     <path d="M 819.654688 50.094687 
L 839.654688 50.094687 
" style="fill:none;stroke:#1f77b4;stroke-linecap:square;"/>
    </g>
    <g id="line2d_15"/>
    <g id="text_16">
     <!-- 63  K -->
     <g transform="translate(847.654688 53.594687)scale(0.1 -0.1)">
      <defs>
       <path d="M 628 4666 
L 1259 4666 
L 1259 2694 
L 3353 4666 
L 4166 4666 
L 1850 2491 
L 4331 0 
L 3500 0 
L 1259 2247 
L 1259 0 
L 628 0 
L 628 4666 
z
" id="DejaVuSans-4b" transform="scale(0.015625)"/>
      </defs>
      <use xlink:href="#DejaVuSans-36"/>
      <use x="63.623047" xlink:href="#DejaVuSans-33"/>
      <use x="127.246094" xlink:href="#DejaVuSans-20"/>
      <use x="159.033203" xlink:href="#DejaVuSans-20"/>
      <use x="190.820312" xlink:href="#DejaVuSans-4b"/>
     </g>
    </g>
   </g>
  </g>
 </g>
 <defs>
  <clipPath id="p74d32fe7f1">
   <rect height="326.16" width="837" x="50.14375" y="22.318125"/>
  </clipPath>
 </defs>
</svg>
