<?xml version="1.0" encoding="utf-8" standalone="no"?>
<!DOCTYPE svg PUBLIC "-//W3C//DTD SVG 1.1//EN"
  "http://www.w3.org/Graphics/SVG/1.1/DTD/svg11.dtd">
<svg height="386.034375pt" version="1.1" viewBox="0 0 918.201562 386.034375" width="918.201562pt" xmlns="http://www.w3.org/2000/svg" xmlns:xlink="http://www.w3.org/1999/xlink">
 <metadata>
  <rdf:RDF xmlns:cc="http://creativecommons.org/ns#" xmlns:dc="http://purl.org/dc/elements/1.1/" xmlns:rdf="http://www.w3.org/1999/02/22-rdf-syntax-ns#">
   <cc:Work>
    <dc:type rdf:resource="http://purl.org/dc/dcmitype/StillImage"/>
    <dc:date>2022-10-19T17:31:08.705539</dc:date>
    <dc:format>image/svg+xml</dc:format>
    <dc:creator>
     <cc:Agent>
      <dc:title>Matplotlib v3.4.3, https://matplotlib.org/</dc:title>
     </cc:Agent>
    </dc:creator>
   </cc:Work>
  </rdf:RDF>
 </metadata>
 <defs>
  <style type="text/css">*{stroke-linecap:butt;stroke-linejoin:round;}</style>
 </defs>
 <g id="figure_1">
  <g id="patch_1">
   <path d="M 0 386.034375 
L 918.201562 386.034375 
L 918.201562 0 
L 0 0 
z
" style="fill:#ffffff;"/>
  </g>
  <g id="axes_1">
   <g id="patch_2">
    <path d="M 56.50625 348.478125 
L 893.50625 348.478125 
L 893.50625 22.318125 
L 56.50625 22.318125 
z
" style="fill:#ffffff;"/>
   </g>
   <g id="matplotlib.axis_1">
    <g id="xtick_1">
     <g id="line2d_1">
      <defs>
       <path d="M 0 0 
L 0 3.5 
" id="mb7378fb69d" style="stroke:#000000;stroke-width:0.8;"/>
      </defs>
      <g>
       <use style="stroke:#000000;stroke-width:0.8;" x="56.50625" xlink:href="#mb7378fb69d" y="348.478125"/>
      </g>
     </g>
     <g id="text_1">
      <!-- 6612.0 -->
      <g transform="translate(39.010938 363.076562)scale(0.1 -0.1)">
       <defs>
        <path d="M 2113 2584 
Q 1688 2584 1439 2293 
Q 1191 2003 1191 1497 
Q 1191 994 1439 701 
Q 1688 409 2113 409 
Q 2538 409 2786 701 
Q 3034 994 3034 1497 
Q 3034 2003 2786 2293 
Q 2538 2584 2113 2584 
z
M 3366 4563 
L 3366 3988 
Q 3128 4100 2886 4159 
Q 2644 4219 2406 4219 
Q 1781 4219 1451 3797 
Q 1122 3375 1075 2522 
Q 1259 2794 1537 2939 
Q 1816 3084 2150 3084 
Q 2853 3084 3261 2657 
Q 3669 2231 3669 1497 
Q 3669 778 3244 343 
Q 2819 -91 2113 -91 
Q 1303 -91 875 529 
Q 447 1150 447 2328 
Q 447 3434 972 4092 
Q 1497 4750 2381 4750 
Q 2619 4750 2861 4703 
Q 3103 4656 3366 4563 
z
" id="DejaVuSans-36" transform="scale(0.015625)"/>
        <path d="M 794 531 
L 1825 531 
L 1825 4091 
L 703 3866 
L 703 4441 
L 1819 4666 
L 2450 4666 
L 2450 531 
L 3481 531 
L 3481 0 
L 794 0 
L 794 531 
z
" id="DejaVuSans-31" transform="scale(0.015625)"/>
        <path d="M 1228 531 
L 3431 531 
L 3431 0 
L 469 0 
L 469 531 
Q 828 903 1448 1529 
Q 2069 2156 2228 2338 
Q 2531 2678 2651 2914 
Q 2772 3150 2772 3378 
Q 2772 3750 2511 3984 
Q 2250 4219 1831 4219 
Q 1534 4219 1204 4116 
Q 875 4013 500 3803 
L 500 4441 
Q 881 4594 1212 4672 
Q 1544 4750 1819 4750 
Q 2544 4750 2975 4387 
Q 3406 4025 3406 3419 
Q 3406 3131 3298 2873 
Q 3191 2616 2906 2266 
Q 2828 2175 2409 1742 
Q 1991 1309 1228 531 
z
" id="DejaVuSans-32" transform="scale(0.015625)"/>
        <path d="M 684 794 
L 1344 794 
L 1344 0 
L 684 0 
L 684 794 
z
" id="DejaVuSans-2e" transform="scale(0.015625)"/>
        <path d="M 2034 4250 
Q 1547 4250 1301 3770 
Q 1056 3291 1056 2328 
Q 1056 1369 1301 889 
Q 1547 409 2034 409 
Q 2525 409 2770 889 
Q 3016 1369 3016 2328 
Q 3016 3291 2770 3770 
Q 2525 4250 2034 4250 
z
M 2034 4750 
Q 2819 4750 3233 4129 
Q 3647 3509 3647 2328 
Q 3647 1150 3233 529 
Q 2819 -91 2034 -91 
Q 1250 -91 836 529 
Q 422 1150 422 2328 
Q 422 3509 836 4129 
Q 1250 4750 2034 4750 
z
" id="DejaVuSans-30" transform="scale(0.015625)"/>
       </defs>
       <use xlink:href="#DejaVuSans-36"/>
       <use x="63.623047" xlink:href="#DejaVuSans-36"/>
       <use x="127.246094" xlink:href="#DejaVuSans-31"/>
       <use x="190.869141" xlink:href="#DejaVuSans-32"/>
       <use x="254.492188" xlink:href="#DejaVuSans-2e"/>
       <use x="286.279297" xlink:href="#DejaVuSans-30"/>
      </g>
     </g>
    </g>
    <g id="xtick_2">
     <g id="line2d_2">
      <g>
       <use style="stroke:#000000;stroke-width:0.8;" x="161.13125" xlink:href="#mb7378fb69d" y="348.478125"/>
      </g>
     </g>
     <g id="text_2">
      <!-- 6612.5 -->
      <g transform="translate(143.635938 363.076562)scale(0.1 -0.1)">
       <defs>
        <path d="M 691 4666 
L 3169 4666 
L 3169 4134 
L 1269 4134 
L 1269 2991 
Q 1406 3038 1543 3061 
Q 1681 3084 1819 3084 
Q 2600 3084 3056 2656 
Q 3513 2228 3513 1497 
Q 3513 744 3044 326 
Q 2575 -91 1722 -91 
Q 1428 -91 1123 -41 
Q 819 9 494 109 
L 494 744 
Q 775 591 1075 516 
Q 1375 441 1709 441 
Q 2250 441 2565 725 
Q 2881 1009 2881 1497 
Q 2881 1984 2565 2268 
Q 2250 2553 1709 2553 
Q 1456 2553 1204 2497 
Q 953 2441 691 2322 
L 691 4666 
z
" id="DejaVuSans-35" transform="scale(0.015625)"/>
       </defs>
       <use xlink:href="#DejaVuSans-36"/>
       <use x="63.623047" xlink:href="#DejaVuSans-36"/>
       <use x="127.246094" xlink:href="#DejaVuSans-31"/>
       <use x="190.869141" xlink:href="#DejaVuSans-32"/>
       <use x="254.492188" xlink:href="#DejaVuSans-2e"/>
       <use x="286.279297" xlink:href="#DejaVuSans-35"/>
      </g>
     </g>
    </g>
    <g id="xtick_3">
     <g id="line2d_3">
      <g>
       <use style="stroke:#000000;stroke-width:0.8;" x="265.75625" xlink:href="#mb7378fb69d" y="348.478125"/>
      </g>
     </g>
     <g id="text_3">
      <!-- 6613.0 -->
      <g transform="translate(248.260938 363.076562)scale(0.1 -0.1)">
       <defs>
        <path d="M 2597 2516 
Q 3050 2419 3304 2112 
Q 3559 1806 3559 1356 
Q 3559 666 3084 287 
Q 2609 -91 1734 -91 
Q 1441 -91 1130 -33 
Q 819 25 488 141 
L 488 750 
Q 750 597 1062 519 
Q 1375 441 1716 441 
Q 2309 441 2620 675 
Q 2931 909 2931 1356 
Q 2931 1769 2642 2001 
Q 2353 2234 1838 2234 
L 1294 2234 
L 1294 2753 
L 1863 2753 
Q 2328 2753 2575 2939 
Q 2822 3125 2822 3475 
Q 2822 3834 2567 4026 
Q 2313 4219 1838 4219 
Q 1578 4219 1281 4162 
Q 984 4106 628 3988 
L 628 4550 
Q 988 4650 1302 4700 
Q 1616 4750 1894 4750 
Q 2613 4750 3031 4423 
Q 3450 4097 3450 3541 
Q 3450 3153 3228 2886 
Q 3006 2619 2597 2516 
z
" id="DejaVuSans-33" transform="scale(0.015625)"/>
       </defs>
       <use xlink:href="#DejaVuSans-36"/>
       <use x="63.623047" xlink:href="#DejaVuSans-36"/>
       <use x="127.246094" xlink:href="#DejaVuSans-31"/>
       <use x="190.869141" xlink:href="#DejaVuSans-33"/>
       <use x="254.492188" xlink:href="#DejaVuSans-2e"/>
       <use x="286.279297" xlink:href="#DejaVuSans-30"/>
      </g>
     </g>
    </g>
    <g id="xtick_4">
     <g id="line2d_4">
      <g>
       <use style="stroke:#000000;stroke-width:0.8;" x="370.38125" xlink:href="#mb7378fb69d" y="348.478125"/>
      </g>
     </g>
     <g id="text_4">
      <!-- 6613.5 -->
      <g transform="translate(352.885938 363.076562)scale(0.1 -0.1)">
       <use xlink:href="#DejaVuSans-36"/>
       <use x="63.623047" xlink:href="#DejaVuSans-36"/>
       <use x="127.246094" xlink:href="#DejaVuSans-31"/>
       <use x="190.869141" xlink:href="#DejaVuSans-33"/>
       <use x="254.492188" xlink:href="#DejaVuSans-2e"/>
       <use x="286.279297" xlink:href="#DejaVuSans-35"/>
      </g>
     </g>
    </g>
    <g id="xtick_5">
     <g id="line2d_5">
      <g>
       <use style="stroke:#000000;stroke-width:0.8;" x="475.00625" xlink:href="#mb7378fb69d" y="348.478125"/>
      </g>
     </g>
     <g id="text_5">
      <!-- 6614.0 -->
      <g transform="translate(457.510938 363.076562)scale(0.1 -0.1)">
       <defs>
        <path d="M 2419 4116 
L 825 1625 
L 2419 1625 
L 2419 4116 
z
M 2253 4666 
L 3047 4666 
L 3047 1625 
L 3713 1625 
L 3713 1100 
L 3047 1100 
L 3047 0 
L 2419 0 
L 2419 1100 
L 313 1100 
L 313 1709 
L 2253 4666 
z
" id="DejaVuSans-34" transform="scale(0.015625)"/>
       </defs>
       <use xlink:href="#DejaVuSans-36"/>
       <use x="63.623047" xlink:href="#DejaVuSans-36"/>
       <use x="127.246094" xlink:href="#DejaVuSans-31"/>
       <use x="190.869141" xlink:href="#DejaVuSans-34"/>
       <use x="254.492188" xlink:href="#DejaVuSans-2e"/>
       <use x="286.279297" xlink:href="#DejaVuSans-30"/>
      </g>
     </g>
    </g>
    <g id="xtick_6">
     <g id="line2d_6">
      <g>
       <use style="stroke:#000000;stroke-width:0.8;" x="579.63125" xlink:href="#mb7378fb69d" y="348.478125"/>
      </g>
     </g>
     <g id="text_6">
      <!-- 6614.5 -->
      <g transform="translate(562.135938 363.076562)scale(0.1 -0.1)">
       <use xlink:href="#DejaVuSans-36"/>
       <use x="63.623047" xlink:href="#DejaVuSans-36"/>
       <use x="127.246094" xlink:href="#DejaVuSans-31"/>
       <use x="190.869141" xlink:href="#DejaVuSans-34"/>
       <use x="254.492188" xlink:href="#DejaVuSans-2e"/>
       <use x="286.279297" xlink:href="#DejaVuSans-35"/>
      </g>
     </g>
    </g>
    <g id="xtick_7">
     <g id="line2d_7">
      <g>
       <use style="stroke:#000000;stroke-width:0.8;" x="684.25625" xlink:href="#mb7378fb69d" y="348.478125"/>
      </g>
     </g>
     <g id="text_7">
      <!-- 6615.0 -->
      <g transform="translate(666.760938 363.076562)scale(0.1 -0.1)">
       <use xlink:href="#DejaVuSans-36"/>
       <use x="63.623047" xlink:href="#DejaVuSans-36"/>
       <use x="127.246094" xlink:href="#DejaVuSans-31"/>
       <use x="190.869141" xlink:href="#DejaVuSans-35"/>
       <use x="254.492188" xlink:href="#DejaVuSans-2e"/>
       <use x="286.279297" xlink:href="#DejaVuSans-30"/>
      </g>
     </g>
    </g>
    <g id="xtick_8">
     <g id="line2d_8">
      <g>
       <use style="stroke:#000000;stroke-width:0.8;" x="788.88125" xlink:href="#mb7378fb69d" y="348.478125"/>
      </g>
     </g>
     <g id="text_8">
      <!-- 6615.5 -->
      <g transform="translate(771.385938 363.076562)scale(0.1 -0.1)">
       <use xlink:href="#DejaVuSans-36"/>
       <use x="63.623047" xlink:href="#DejaVuSans-36"/>
       <use x="127.246094" xlink:href="#DejaVuSans-31"/>
       <use x="190.869141" xlink:href="#DejaVuSans-35"/>
       <use x="254.492188" xlink:href="#DejaVuSans-2e"/>
       <use x="286.279297" xlink:href="#DejaVuSans-35"/>
      </g>
     </g>
    </g>
    <g id="xtick_9">
     <g id="line2d_9">
      <g>
       <use style="stroke:#000000;stroke-width:0.8;" x="893.50625" xlink:href="#mb7378fb69d" y="348.478125"/>
      </g>
     </g>
     <g id="text_9">
      <!-- 6616.0 -->
      <g transform="translate(876.010938 363.076562)scale(0.1 -0.1)">
       <use xlink:href="#DejaVuSans-36"/>
       <use x="63.623047" xlink:href="#DejaVuSans-36"/>
       <use x="127.246094" xlink:href="#DejaVuSans-31"/>
       <use x="190.869141" xlink:href="#DejaVuSans-36"/>
       <use x="254.492188" xlink:href="#DejaVuSans-2e"/>
       <use x="286.279297" xlink:href="#DejaVuSans-30"/>
      </g>
     </g>
    </g>
    <g id="text_10">
     <!-- Wavelength -->
     <g transform="translate(445.34375 376.754687)scale(0.1 -0.1)">
      <defs>
       <path d="M 213 4666 
L 850 4666 
L 1831 722 
L 2809 4666 
L 3519 4666 
L 4500 722 
L 5478 4666 
L 6119 4666 
L 4947 0 
L 4153 0 
L 3169 4050 
L 2175 0 
L 1381 0 
L 213 4666 
z
" id="DejaVuSans-57" transform="scale(0.015625)"/>
       <path d="M 2194 1759 
Q 1497 1759 1228 1600 
Q 959 1441 959 1056 
Q 959 750 1161 570 
Q 1363 391 1709 391 
Q 2188 391 2477 730 
Q 2766 1069 2766 1631 
L 2766 1759 
L 2194 1759 
z
M 3341 1997 
L 3341 0 
L 2766 0 
L 2766 531 
Q 2569 213 2275 61 
Q 1981 -91 1556 -91 
Q 1019 -91 701 211 
Q 384 513 384 1019 
Q 384 1609 779 1909 
Q 1175 2209 1959 2209 
L 2766 2209 
L 2766 2266 
Q 2766 2663 2505 2880 
Q 2244 3097 1772 3097 
Q 1472 3097 1187 3025 
Q 903 2953 641 2809 
L 641 3341 
Q 956 3463 1253 3523 
Q 1550 3584 1831 3584 
Q 2591 3584 2966 3190 
Q 3341 2797 3341 1997 
z
" id="DejaVuSans-61" transform="scale(0.015625)"/>
       <path d="M 191 3500 
L 800 3500 
L 1894 563 
L 2988 3500 
L 3597 3500 
L 2284 0 
L 1503 0 
L 191 3500 
z
" id="DejaVuSans-76" transform="scale(0.015625)"/>
       <path d="M 3597 1894 
L 3597 1613 
L 953 1613 
Q 991 1019 1311 708 
Q 1631 397 2203 397 
Q 2534 397 2845 478 
Q 3156 559 3463 722 
L 3463 178 
Q 3153 47 2828 -22 
Q 2503 -91 2169 -91 
Q 1331 -91 842 396 
Q 353 884 353 1716 
Q 353 2575 817 3079 
Q 1281 3584 2069 3584 
Q 2775 3584 3186 3129 
Q 3597 2675 3597 1894 
z
M 3022 2063 
Q 3016 2534 2758 2815 
Q 2500 3097 2075 3097 
Q 1594 3097 1305 2825 
Q 1016 2553 972 2059 
L 3022 2063 
z
" id="DejaVuSans-65" transform="scale(0.015625)"/>
       <path d="M 603 4863 
L 1178 4863 
L 1178 0 
L 603 0 
L 603 4863 
z
" id="DejaVuSans-6c" transform="scale(0.015625)"/>
       <path d="M 3513 2113 
L 3513 0 
L 2938 0 
L 2938 2094 
Q 2938 2591 2744 2837 
Q 2550 3084 2163 3084 
Q 1697 3084 1428 2787 
Q 1159 2491 1159 1978 
L 1159 0 
L 581 0 
L 581 3500 
L 1159 3500 
L 1159 2956 
Q 1366 3272 1645 3428 
Q 1925 3584 2291 3584 
Q 2894 3584 3203 3211 
Q 3513 2838 3513 2113 
z
" id="DejaVuSans-6e" transform="scale(0.015625)"/>
       <path d="M 2906 1791 
Q 2906 2416 2648 2759 
Q 2391 3103 1925 3103 
Q 1463 3103 1205 2759 
Q 947 2416 947 1791 
Q 947 1169 1205 825 
Q 1463 481 1925 481 
Q 2391 481 2648 825 
Q 2906 1169 2906 1791 
z
M 3481 434 
Q 3481 -459 3084 -895 
Q 2688 -1331 1869 -1331 
Q 1566 -1331 1297 -1286 
Q 1028 -1241 775 -1147 
L 775 -588 
Q 1028 -725 1275 -790 
Q 1522 -856 1778 -856 
Q 2344 -856 2625 -561 
Q 2906 -266 2906 331 
L 2906 616 
Q 2728 306 2450 153 
Q 2172 0 1784 0 
Q 1141 0 747 490 
Q 353 981 353 1791 
Q 353 2603 747 3093 
Q 1141 3584 1784 3584 
Q 2172 3584 2450 3431 
Q 2728 3278 2906 2969 
L 2906 3500 
L 3481 3500 
L 3481 434 
z
" id="DejaVuSans-67" transform="scale(0.015625)"/>
       <path d="M 1172 4494 
L 1172 3500 
L 2356 3500 
L 2356 3053 
L 1172 3053 
L 1172 1153 
Q 1172 725 1289 603 
Q 1406 481 1766 481 
L 2356 481 
L 2356 0 
L 1766 0 
Q 1100 0 847 248 
Q 594 497 594 1153 
L 594 3053 
L 172 3053 
L 172 3500 
L 594 3500 
L 594 4494 
L 1172 4494 
z
" id="DejaVuSans-74" transform="scale(0.015625)"/>
       <path d="M 3513 2113 
L 3513 0 
L 2938 0 
L 2938 2094 
Q 2938 2591 2744 2837 
Q 2550 3084 2163 3084 
Q 1697 3084 1428 2787 
Q 1159 2491 1159 1978 
L 1159 0 
L 581 0 
L 581 4863 
L 1159 4863 
L 1159 2956 
Q 1366 3272 1645 3428 
Q 1925 3584 2291 3584 
Q 2894 3584 3203 3211 
Q 3513 2838 3513 2113 
z
" id="DejaVuSans-68" transform="scale(0.015625)"/>
      </defs>
      <use xlink:href="#DejaVuSans-57"/>
      <use x="92.501953" xlink:href="#DejaVuSans-61"/>
      <use x="153.78125" xlink:href="#DejaVuSans-76"/>
      <use x="212.960938" xlink:href="#DejaVuSans-65"/>
      <use x="274.484375" xlink:href="#DejaVuSans-6c"/>
      <use x="302.267578" xlink:href="#DejaVuSans-65"/>
      <use x="363.791016" xlink:href="#DejaVuSans-6e"/>
      <use x="427.169922" xlink:href="#DejaVuSans-67"/>
      <use x="490.646484" xlink:href="#DejaVuSans-74"/>
      <use x="529.855469" xlink:href="#DejaVuSans-68"/>
     </g>
    </g>
   </g>
   <g id="matplotlib.axis_2">
    <g id="ytick_1">
     <g id="line2d_10">
      <defs>
       <path d="M 0 0 
L -3.5 0 
" id="m4d98683f75" style="stroke:#000000;stroke-width:0.8;"/>
      </defs>
      <g>
       <use style="stroke:#000000;stroke-width:0.8;" x="56.50625" xlink:href="#m4d98683f75" y="325.604607"/>
      </g>
     </g>
     <g id="text_11">
      <!-- 0.825 -->
      <g transform="translate(20.878125 329.403826)scale(0.1 -0.1)">
       <defs>
        <path d="M 2034 2216 
Q 1584 2216 1326 1975 
Q 1069 1734 1069 1313 
Q 1069 891 1326 650 
Q 1584 409 2034 409 
Q 2484 409 2743 651 
Q 3003 894 3003 1313 
Q 3003 1734 2745 1975 
Q 2488 2216 2034 2216 
z
M 1403 2484 
Q 997 2584 770 2862 
Q 544 3141 544 3541 
Q 544 4100 942 4425 
Q 1341 4750 2034 4750 
Q 2731 4750 3128 4425 
Q 3525 4100 3525 3541 
Q 3525 3141 3298 2862 
Q 3072 2584 2669 2484 
Q 3125 2378 3379 2068 
Q 3634 1759 3634 1313 
Q 3634 634 3220 271 
Q 2806 -91 2034 -91 
Q 1263 -91 848 271 
Q 434 634 434 1313 
Q 434 1759 690 2068 
Q 947 2378 1403 2484 
z
M 1172 3481 
Q 1172 3119 1398 2916 
Q 1625 2713 2034 2713 
Q 2441 2713 2670 2916 
Q 2900 3119 2900 3481 
Q 2900 3844 2670 4047 
Q 2441 4250 2034 4250 
Q 1625 4250 1398 4047 
Q 1172 3844 1172 3481 
z
" id="DejaVuSans-38" transform="scale(0.015625)"/>
       </defs>
       <use xlink:href="#DejaVuSans-30"/>
       <use x="63.623047" xlink:href="#DejaVuSans-2e"/>
       <use x="95.410156" xlink:href="#DejaVuSans-38"/>
       <use x="159.033203" xlink:href="#DejaVuSans-32"/>
       <use x="222.65625" xlink:href="#DejaVuSans-35"/>
      </g>
     </g>
    </g>
    <g id="ytick_2">
     <g id="line2d_11">
      <g>
       <use style="stroke:#000000;stroke-width:0.8;" x="56.50625" xlink:href="#m4d98683f75" y="284.395889"/>
      </g>
     </g>
     <g id="text_12">
      <!-- 0.850 -->
      <g transform="translate(20.878125 288.195107)scale(0.1 -0.1)">
       <use xlink:href="#DejaVuSans-30"/>
       <use x="63.623047" xlink:href="#DejaVuSans-2e"/>
       <use x="95.410156" xlink:href="#DejaVuSans-38"/>
       <use x="159.033203" xlink:href="#DejaVuSans-35"/>
       <use x="222.65625" xlink:href="#DejaVuSans-30"/>
      </g>
     </g>
    </g>
    <g id="ytick_3">
     <g id="line2d_12">
      <g>
       <use style="stroke:#000000;stroke-width:0.8;" x="56.50625" xlink:href="#m4d98683f75" y="243.18717"/>
      </g>
     </g>
     <g id="text_13">
      <!-- 0.875 -->
      <g transform="translate(20.878125 246.986389)scale(0.1 -0.1)">
       <defs>
        <path d="M 525 4666 
L 3525 4666 
L 3525 4397 
L 1831 0 
L 1172 0 
L 2766 4134 
L 525 4134 
L 525 4666 
z
" id="DejaVuSans-37" transform="scale(0.015625)"/>
       </defs>
       <use xlink:href="#DejaVuSans-30"/>
       <use x="63.623047" xlink:href="#DejaVuSans-2e"/>
       <use x="95.410156" xlink:href="#DejaVuSans-38"/>
       <use x="159.033203" xlink:href="#DejaVuSans-37"/>
       <use x="222.65625" xlink:href="#DejaVuSans-35"/>
      </g>
     </g>
    </g>
    <g id="ytick_4">
     <g id="line2d_13">
      <g>
       <use style="stroke:#000000;stroke-width:0.8;" x="56.50625" xlink:href="#m4d98683f75" y="201.978452"/>
      </g>
     </g>
     <g id="text_14">
      <!-- 0.900 -->
      <g transform="translate(20.878125 205.777671)scale(0.1 -0.1)">
       <defs>
        <path d="M 703 97 
L 703 672 
Q 941 559 1184 500 
Q 1428 441 1663 441 
Q 2288 441 2617 861 
Q 2947 1281 2994 2138 
Q 2813 1869 2534 1725 
Q 2256 1581 1919 1581 
Q 1219 1581 811 2004 
Q 403 2428 403 3163 
Q 403 3881 828 4315 
Q 1253 4750 1959 4750 
Q 2769 4750 3195 4129 
Q 3622 3509 3622 2328 
Q 3622 1225 3098 567 
Q 2575 -91 1691 -91 
Q 1453 -91 1209 -44 
Q 966 3 703 97 
z
M 1959 2075 
Q 2384 2075 2632 2365 
Q 2881 2656 2881 3163 
Q 2881 3666 2632 3958 
Q 2384 4250 1959 4250 
Q 1534 4250 1286 3958 
Q 1038 3666 1038 3163 
Q 1038 2656 1286 2365 
Q 1534 2075 1959 2075 
z
" id="DejaVuSans-39" transform="scale(0.015625)"/>
       </defs>
       <use xlink:href="#DejaVuSans-30"/>
       <use x="63.623047" xlink:href="#DejaVuSans-2e"/>
       <use x="95.410156" xlink:href="#DejaVuSans-39"/>
       <use x="159.033203" xlink:href="#DejaVuSans-30"/>
       <use x="222.65625" xlink:href="#DejaVuSans-30"/>
      </g>
     </g>
    </g>
    <g id="ytick_5">
     <g id="line2d_14">
      <g>
       <use style="stroke:#000000;stroke-width:0.8;" x="56.50625" xlink:href="#m4d98683f75" y="160.769734"/>
      </g>
     </g>
     <g id="text_15">
      <!-- 0.925 -->
      <g transform="translate(20.878125 164.568953)scale(0.1 -0.1)">
       <use xlink:href="#DejaVuSans-30"/>
       <use x="63.623047" xlink:href="#DejaVuSans-2e"/>
       <use x="95.410156" xlink:href="#DejaVuSans-39"/>
       <use x="159.033203" xlink:href="#DejaVuSans-32"/>
       <use x="222.65625" xlink:href="#DejaVuSans-35"/>
      </g>
     </g>
    </g>
    <g id="ytick_6">
     <g id="line2d_15">
      <g>
       <use style="stroke:#000000;stroke-width:0.8;" x="56.50625" xlink:href="#m4d98683f75" y="119.561016"/>
      </g>
     </g>
     <g id="text_16">
      <!-- 0.950 -->
      <g transform="translate(20.878125 123.360235)scale(0.1 -0.1)">
       <use xlink:href="#DejaVuSans-30"/>
       <use x="63.623047" xlink:href="#DejaVuSans-2e"/>
       <use x="95.410156" xlink:href="#DejaVuSans-39"/>
       <use x="159.033203" xlink:href="#DejaVuSans-35"/>
       <use x="222.65625" xlink:href="#DejaVuSans-30"/>
      </g>
     </g>
    </g>
    <g id="ytick_7">
     <g id="line2d_16">
      <g>
       <use style="stroke:#000000;stroke-width:0.8;" x="56.50625" xlink:href="#m4d98683f75" y="78.352298"/>
      </g>
     </g>
     <g id="text_17">
      <!-- 0.975 -->
      <g transform="translate(20.878125 82.151516)scale(0.1 -0.1)">
       <use xlink:href="#DejaVuSans-30"/>
       <use x="63.623047" xlink:href="#DejaVuSans-2e"/>
       <use x="95.410156" xlink:href="#DejaVuSans-39"/>
       <use x="159.033203" xlink:href="#DejaVuSans-37"/>
       <use x="222.65625" xlink:href="#DejaVuSans-35"/>
      </g>
     </g>
    </g>
    <g id="ytick_8">
     <g id="line2d_17">
      <g>
       <use style="stroke:#000000;stroke-width:0.8;" x="56.50625" xlink:href="#m4d98683f75" y="37.14358"/>
      </g>
     </g>
     <g id="text_18">
      <!-- 1.000 -->
      <g transform="translate(20.878125 40.942798)scale(0.1 -0.1)">
       <use xlink:href="#DejaVuSans-31"/>
       <use x="63.623047" xlink:href="#DejaVuSans-2e"/>
       <use x="95.410156" xlink:href="#DejaVuSans-30"/>
       <use x="159.033203" xlink:href="#DejaVuSans-30"/>
       <use x="222.65625" xlink:href="#DejaVuSans-30"/>
      </g>
     </g>
    </g>
    <g id="text_19">
     <!-- Normalized Intenisty -->
     <g transform="translate(14.798438 237.105156)rotate(-90)scale(0.1 -0.1)">
      <defs>
       <path d="M 628 4666 
L 1478 4666 
L 3547 763 
L 3547 4666 
L 4159 4666 
L 4159 0 
L 3309 0 
L 1241 3903 
L 1241 0 
L 628 0 
L 628 4666 
z
" id="DejaVuSans-4e" transform="scale(0.015625)"/>
       <path d="M 1959 3097 
Q 1497 3097 1228 2736 
Q 959 2375 959 1747 
Q 959 1119 1226 758 
Q 1494 397 1959 397 
Q 2419 397 2687 759 
Q 2956 1122 2956 1747 
Q 2956 2369 2687 2733 
Q 2419 3097 1959 3097 
z
M 1959 3584 
Q 2709 3584 3137 3096 
Q 3566 2609 3566 1747 
Q 3566 888 3137 398 
Q 2709 -91 1959 -91 
Q 1206 -91 779 398 
Q 353 888 353 1747 
Q 353 2609 779 3096 
Q 1206 3584 1959 3584 
z
" id="DejaVuSans-6f" transform="scale(0.015625)"/>
       <path d="M 2631 2963 
Q 2534 3019 2420 3045 
Q 2306 3072 2169 3072 
Q 1681 3072 1420 2755 
Q 1159 2438 1159 1844 
L 1159 0 
L 581 0 
L 581 3500 
L 1159 3500 
L 1159 2956 
Q 1341 3275 1631 3429 
Q 1922 3584 2338 3584 
Q 2397 3584 2469 3576 
Q 2541 3569 2628 3553 
L 2631 2963 
z
" id="DejaVuSans-72" transform="scale(0.015625)"/>
       <path d="M 3328 2828 
Q 3544 3216 3844 3400 
Q 4144 3584 4550 3584 
Q 5097 3584 5394 3201 
Q 5691 2819 5691 2113 
L 5691 0 
L 5113 0 
L 5113 2094 
Q 5113 2597 4934 2840 
Q 4756 3084 4391 3084 
Q 3944 3084 3684 2787 
Q 3425 2491 3425 1978 
L 3425 0 
L 2847 0 
L 2847 2094 
Q 2847 2600 2669 2842 
Q 2491 3084 2119 3084 
Q 1678 3084 1418 2786 
Q 1159 2488 1159 1978 
L 1159 0 
L 581 0 
L 581 3500 
L 1159 3500 
L 1159 2956 
Q 1356 3278 1631 3431 
Q 1906 3584 2284 3584 
Q 2666 3584 2933 3390 
Q 3200 3197 3328 2828 
z
" id="DejaVuSans-6d" transform="scale(0.015625)"/>
       <path d="M 603 3500 
L 1178 3500 
L 1178 0 
L 603 0 
L 603 3500 
z
M 603 4863 
L 1178 4863 
L 1178 4134 
L 603 4134 
L 603 4863 
z
" id="DejaVuSans-69" transform="scale(0.015625)"/>
       <path d="M 353 3500 
L 3084 3500 
L 3084 2975 
L 922 459 
L 3084 459 
L 3084 0 
L 275 0 
L 275 525 
L 2438 3041 
L 353 3041 
L 353 3500 
z
" id="DejaVuSans-7a" transform="scale(0.015625)"/>
       <path d="M 2906 2969 
L 2906 4863 
L 3481 4863 
L 3481 0 
L 2906 0 
L 2906 525 
Q 2725 213 2448 61 
Q 2172 -91 1784 -91 
Q 1150 -91 751 415 
Q 353 922 353 1747 
Q 353 2572 751 3078 
Q 1150 3584 1784 3584 
Q 2172 3584 2448 3432 
Q 2725 3281 2906 2969 
z
M 947 1747 
Q 947 1113 1208 752 
Q 1469 391 1925 391 
Q 2381 391 2643 752 
Q 2906 1113 2906 1747 
Q 2906 2381 2643 2742 
Q 2381 3103 1925 3103 
Q 1469 3103 1208 2742 
Q 947 2381 947 1747 
z
" id="DejaVuSans-64" transform="scale(0.015625)"/>
       <path id="DejaVuSans-20" transform="scale(0.015625)"/>
       <path d="M 628 4666 
L 1259 4666 
L 1259 0 
L 628 0 
L 628 4666 
z
" id="DejaVuSans-49" transform="scale(0.015625)"/>
       <path d="M 2834 3397 
L 2834 2853 
Q 2591 2978 2328 3040 
Q 2066 3103 1784 3103 
Q 1356 3103 1142 2972 
Q 928 2841 928 2578 
Q 928 2378 1081 2264 
Q 1234 2150 1697 2047 
L 1894 2003 
Q 2506 1872 2764 1633 
Q 3022 1394 3022 966 
Q 3022 478 2636 193 
Q 2250 -91 1575 -91 
Q 1294 -91 989 -36 
Q 684 19 347 128 
L 347 722 
Q 666 556 975 473 
Q 1284 391 1588 391 
Q 1994 391 2212 530 
Q 2431 669 2431 922 
Q 2431 1156 2273 1281 
Q 2116 1406 1581 1522 
L 1381 1569 
Q 847 1681 609 1914 
Q 372 2147 372 2553 
Q 372 3047 722 3315 
Q 1072 3584 1716 3584 
Q 2034 3584 2315 3537 
Q 2597 3491 2834 3397 
z
" id="DejaVuSans-73" transform="scale(0.015625)"/>
       <path d="M 2059 -325 
Q 1816 -950 1584 -1140 
Q 1353 -1331 966 -1331 
L 506 -1331 
L 506 -850 
L 844 -850 
Q 1081 -850 1212 -737 
Q 1344 -625 1503 -206 
L 1606 56 
L 191 3500 
L 800 3500 
L 1894 763 
L 2988 3500 
L 3597 3500 
L 2059 -325 
z
" id="DejaVuSans-79" transform="scale(0.015625)"/>
      </defs>
      <use xlink:href="#DejaVuSans-4e"/>
      <use x="74.804688" xlink:href="#DejaVuSans-6f"/>
      <use x="135.986328" xlink:href="#DejaVuSans-72"/>
      <use x="175.349609" xlink:href="#DejaVuSans-6d"/>
      <use x="272.761719" xlink:href="#DejaVuSans-61"/>
      <use x="334.041016" xlink:href="#DejaVuSans-6c"/>
      <use x="361.824219" xlink:href="#DejaVuSans-69"/>
      <use x="389.607422" xlink:href="#DejaVuSans-7a"/>
      <use x="442.097656" xlink:href="#DejaVuSans-65"/>
      <use x="503.621094" xlink:href="#DejaVuSans-64"/>
      <use x="567.097656" xlink:href="#DejaVuSans-20"/>
      <use x="598.884766" xlink:href="#DejaVuSans-49"/>
      <use x="628.376953" xlink:href="#DejaVuSans-6e"/>
      <use x="691.755859" xlink:href="#DejaVuSans-74"/>
      <use x="730.964844" xlink:href="#DejaVuSans-65"/>
      <use x="792.488281" xlink:href="#DejaVuSans-6e"/>
      <use x="855.867188" xlink:href="#DejaVuSans-69"/>
      <use x="883.650391" xlink:href="#DejaVuSans-73"/>
      <use x="935.75" xlink:href="#DejaVuSans-74"/>
      <use x="974.958984" xlink:href="#DejaVuSans-79"/>
     </g>
    </g>
   </g>
   <g id="line2d_18">
    <path clip-path="url(#p5b0af44ffc)" d="M 770.842431 37.14358 
L 653.302845 37.253177 
L 633.253968 37.493688 
L 621.501447 37.834104 
L 613.205671 38.270538 
L 606.2926 38.852826 
L 600.762193 39.540393 
L 595.923122 40.372571 
L 591.775375 41.313443 
L 588.318938 42.299263 
L 584.862518 43.506934 
L 581.406115 44.976372 
L 578.641006 46.369151 
L 575.875907 47.979861 
L 573.110819 49.832009 
L 570.345743 51.949259 
L 567.580677 54.35508 
L 564.815623 57.072389 
L 562.05058 60.12321 
L 559.285547 63.528342 
L 556.520526 67.307008 
L 553.755516 71.476475 
L 550.990516 76.051603 
L 548.225528 81.044317 
L 545.460551 86.46296 
L 542.695585 92.311539 
L 539.239393 100.224494 
L 535.783218 108.790927 
L 532.327061 117.977002 
L 528.179695 129.740074 
L 524.032353 142.17846 
L 518.502603 159.482354 
L 508.134441 192.143986 
L 503.98722 204.423399 
L 500.531221 213.96167 
L 497.766435 221.017487 
L 495.001659 227.485451 
L 492.236895 233.313449 
L 490.163329 237.245932 
L 488.089769 240.799151 
L 486.016215 243.9805 
L 483.942668 246.807859 
L 481.869127 249.310108 
L 479.795591 251.527312 
L 477.030888 254.129851 
L 473.575024 257.028687 
L 468.736843 261.056997 
L 465.972183 263.700068 
L 463.898696 265.989839 
L 461.825215 268.619934 
L 459.75174 271.64496 
L 457.678271 275.101446 
L 455.604809 279.003811 
L 453.531352 283.341015 
L 450.766753 289.729054 
L 447.31102 298.429257 
L 441.090745 314.37467 
L 439.017332 319.181716 
L 436.943925 323.451288 
L 435.561658 325.917804 
L 434.179393 328.027988 
L 432.797131 329.74192 
L 431.414871 331.025365 
L 430.032615 331.850751 
L 429.341487 332.085086 
L 428.650361 332.198002 
L 427.959235 332.188266 
L 427.26811 332.055189 
L 426.576985 331.798626 
L 425.194738 330.917245 
L 423.812494 329.554076 
L 422.430253 327.727828 
L 421.048014 325.465628 
L 419.665778 322.802452 
L 417.59243 318.14956 
L 415.519087 312.857144 
L 412.75464 305.134148 
L 405.843571 285.44111 
L 403.770264 280.186543 
L 401.696963 275.498684 
L 399.623668 271.476245 
L 398.241475 269.196278 
L 396.859285 267.249099 
L 395.477097 265.636219 
L 394.094912 264.352064 
L 392.71273 263.384399 
L 391.330551 262.714884 
L 389.948375 262.319715 
L 388.566201 262.170351 
L 387.18403 262.234286 
L 385.801862 262.475852 
L 383.728614 263.087657 
L 380.273216 264.439496 
L 377.50891 265.460295 
L 375.435688 265.991522 
L 374.053543 266.169591 
L 372.671401 266.170973 
L 371.289262 265.968425 
L 369.907125 265.538021 
L 368.524992 264.859287 
L 367.142861 263.915283 
L 365.760732 262.692617 
L 364.378607 261.181417 
L 362.996484 259.375243 
L 361.614364 257.270973 
L 360.232247 254.868645 
L 358.159077 250.713647 
L 356.085912 245.91707 
L 354.012754 240.512824 
L 351.939602 234.545266 
L 349.175409 225.804698 
L 346.411227 216.300493 
L 342.956016 203.585325 
L 338.118748 184.795248 
L 327.753289 144.197905 
L 323.607148 129.006432 
L 320.15205 117.153868 
L 316.69697 106.159271 
L 313.932918 98.032381 
L 311.168877 90.523888 
L 308.404846 83.641998 
L 305.640827 77.383785 
L 302.87682 71.737004 
L 300.112823 66.681788 
L 297.348837 62.192173 
L 294.584862 58.237418 
L 291.820898 54.783148 
L 289.056945 51.792328 
L 286.293004 49.226124 
L 283.529073 47.044693 
L 280.765153 45.207931 
L 278.001245 43.676192 
L 275.237347 42.410989 
L 272.473461 41.375639 
L 269.018618 40.352699 
L 265.563793 39.574902 
L 261.418025 38.891491 
L 256.581328 38.345393 
L 250.362766 37.905125 
L 242.071438 37.579422 
L 229.634632 37.347659 
L 207.525306 37.198262 
L 158.472763 37.144401 
L 80.410394 37.14358 
L 80.410394 37.14358 
" style="fill:none;stroke:#e77e63;stroke-linecap:square;"/>
   </g>
   <g id="line2d_19">
    <path clip-path="url(#p5b0af44ffc)" d="M 147.631903 53.842986 
L 151.816619 52.898143 
L 156.001335 51.069832 
L 160.186051 50.762733 
L 164.370767 53.978681 
L 168.555483 56.545837 
L 172.740199 58.890816 
L 176.924915 47.343242 
L 181.109631 40.467771 
L 185.294347 43.018858 
L 189.479063 40.911235 
L 193.663779 41.061548 
L 197.848495 43.090723 
L 202.033211 43.817182 
L 206.217927 42.13673 
L 210.402643 38.631649 
L 214.587359 41.886431 
L 218.772075 40.950292 
L 222.956791 37.14358 
L 227.141507 43.648679 
L 231.326223 44.103414 
L 239.695655 39.046657 
L 243.880371 41.143456 
L 248.065087 43.487319 
L 252.249803 44.940348 
L 256.434519 42.590237 
L 260.619235 38.713445 
L 264.803951 38.294197 
L 268.988667 39.171192 
L 273.173383 41.663918 
L 277.358099 50.161144 
L 281.542815 48.991445 
L 285.727531 49.303342 
L 289.912247 54.258775 
L 294.096963 57.66599 
L 298.281679 62.328942 
L 302.466395 69.248715 
L 306.651112 77.641827 
L 310.835828 85.527757 
L 315.020544 92.201583 
L 319.20526 107.870667 
L 323.389976 125.860961 
L 327.574692 145.302499 
L 331.759408 163.980641 
L 335.944124 186.058745 
L 340.12884 208.888416 
L 344.313556 224.066499 
L 352.682988 256.0086 
L 356.867704 268.481711 
L 361.05242 278.572684 
L 365.237136 286.531371 
L 369.421852 292.867076 
L 373.606568 285.316701 
L 377.791284 278.022204 
L 381.976 277.120435 
L 386.160716 275.852201 
L 390.345432 275.045508 
L 394.530148 275.648658 
L 398.714864 278.985683 
L 402.89958 284.850361 
L 407.084296 294.202376 
L 411.269012 300.964471 
L 415.453728 310.399957 
L 419.638444 321.770881 
L 423.82316 330.359948 
L 428.007876 333.65267 
L 432.192592 333.593081 
L 436.377308 330.920917 
L 440.562024 325.784707 
L 448.931456 313.045339 
L 453.116172 303.445591 
L 457.300888 292.097208 
L 461.485604 276.530118 
L 465.67032 272.017256 
L 469.855036 268.679227 
L 474.039752 263.769101 
L 478.224468 264.839484 
L 482.409184 263.051793 
L 486.5939 256.525156 
L 490.778616 255.585223 
L 494.963333 253.358977 
L 499.148049 249.944397 
L 503.332765 240.637464 
L 507.517481 228.621431 
L 511.702197 213.999742 
L 515.886913 208.571051 
L 520.071629 200.459707 
L 524.256345 190.61814 
L 528.441061 174.096499 
L 532.625777 164.768252 
L 536.810493 156.978067 
L 540.995209 146.20795 
L 545.179925 139.386601 
L 549.364641 132.97892 
L 553.549357 125.219869 
L 557.734073 121.218765 
L 561.918789 116.769734 
L 570.288221 108.64299 
L 574.472937 104.038735 
L 578.657653 98.11391 
L 582.842369 92.68109 
L 587.027085 91.032441 
L 591.211801 94.233213 
L 595.396517 84.39399 
L 599.581233 80.091813 
L 603.765949 79.237693 
L 607.950665 84.287309 
L 612.135381 81.16387 
L 616.320097 75.772004 
L 620.504813 76.206317 
L 624.689529 76.063369 
L 628.874245 75.789412 
L 633.058961 76.763046 
L 637.243677 78.281691 
L 641.428393 79.119072 
L 645.613109 77.068694 
L 649.797825 77.788569 
L 653.982541 77.899268 
L 658.167257 76.8608 
L 662.351973 71.456213 
L 666.536689 70.285955 
L 670.721405 73.318559 
L 674.906121 64.984367 
L 679.090837 63.028731 
L 683.275553 65.020299 
L 687.46027 66.127731 
L 691.644986 66.009891 
L 695.829702 65.006797 
L 700.014418 64.221864 
L 704.199134 61.784488 
L 708.38385 59.17727 
L 712.568566 59.440514 
L 716.753282 58.250282 
L 720.937998 56.472299 
L 725.122714 56.36651 
L 729.30743 53.231019 
L 733.492146 51.634818 
L 737.676862 52.65108 
L 741.861578 51.721636 
L 746.046294 49.566921 
L 750.23101 46.467921 
L 754.415726 48.239878 
L 758.600442 47.544999 
L 762.785158 45.679082 
L 766.969874 49.526748 
L 771.15459 50.193283 
L 775.339306 49.644923 
L 779.524022 49.653962 
L 783.708738 50.418474 
L 787.893454 50.22609 
L 792.07817 45.400885 
L 796.262886 45.399211 
L 800.447602 47.477598 
L 804.632318 55.303492 
L 813.00175 49.260045 
L 817.186466 46.773346 
L 821.371182 47.738498 
L 825.555898 46.817648 
L 829.740614 44.342331 
L 833.92533 43.415231 
L 838.110046 46.339144 
L 842.294762 51.467655 
L 846.479478 54.53262 
L 850.664194 55.519644 
L 854.84891 54.897523 
L 859.033626 49.372864 
L 863.218342 51.05778 
L 867.403058 52.238973 
L 871.587774 49.078263 
L 875.772491 49.842775 
L 884.141923 51.165131 
L 888.326639 51.028655 
L 896.696071 52.608787 
L 900.880787 52.281378 
L 905.065503 49.689225 
L 909.250219 46.687197 
L 913.434935 50.17063 
L 917.619651 49.351773 
L 919.201562 48.861259 
L 919.201562 48.861259 
" style="fill:none;stroke:#000000;stroke-linecap:square;stroke-width:1.5;"/>
   </g>
   <g id="patch_3">
    <path d="M 56.50625 348.478125 
L 56.50625 22.318125 
" style="fill:none;stroke:#000000;stroke-linecap:square;stroke-linejoin:miter;stroke-width:0.8;"/>
   </g>
   <g id="patch_4">
    <path d="M 893.50625 348.478125 
L 893.50625 22.318125 
" style="fill:none;stroke:#000000;stroke-linecap:square;stroke-linejoin:miter;stroke-width:0.8;"/>
   </g>
   <g id="patch_5">
    <path d="M 56.50625 348.478125 
L 893.50625 348.478125 
" style="fill:none;stroke:#000000;stroke-linecap:square;stroke-linejoin:miter;stroke-width:0.8;"/>
   </g>
   <g id="patch_6">
    <path d="M 56.50625 22.318125 
L 893.50625 22.318125 
" style="fill:none;stroke:#000000;stroke-linecap:square;stroke-linejoin:miter;stroke-width:0.8;"/>
   </g>
   <g id="text_20">
    <!-- Hexabenzocoronene (C42H18) :  ground_B =  0.00349 cm-1    Delta_B = -0.09,    Delta_C = -0.01    zeta = -0.35   StarName:  HD 185418 -->
    <g transform="translate(61.77125 16.318125)scale(0.12 -0.12)">
     <defs>
      <path d="M 628 4666 
L 1259 4666 
L 1259 2753 
L 3553 2753 
L 3553 4666 
L 4184 4666 
L 4184 0 
L 3553 0 
L 3553 2222 
L 1259 2222 
L 1259 0 
L 628 0 
L 628 4666 
z
" id="DejaVuSans-48" transform="scale(0.015625)"/>
      <path d="M 3513 3500 
L 2247 1797 
L 3578 0 
L 2900 0 
L 1881 1375 
L 863 0 
L 184 0 
L 1544 1831 
L 300 3500 
L 978 3500 
L 1906 2253 
L 2834 3500 
L 3513 3500 
z
" id="DejaVuSans-78" transform="scale(0.015625)"/>
      <path d="M 3116 1747 
Q 3116 2381 2855 2742 
Q 2594 3103 2138 3103 
Q 1681 3103 1420 2742 
Q 1159 2381 1159 1747 
Q 1159 1113 1420 752 
Q 1681 391 2138 391 
Q 2594 391 2855 752 
Q 3116 1113 3116 1747 
z
M 1159 2969 
Q 1341 3281 1617 3432 
Q 1894 3584 2278 3584 
Q 2916 3584 3314 3078 
Q 3713 2572 3713 1747 
Q 3713 922 3314 415 
Q 2916 -91 2278 -91 
Q 1894 -91 1617 61 
Q 1341 213 1159 525 
L 1159 0 
L 581 0 
L 581 4863 
L 1159 4863 
L 1159 2969 
z
" id="DejaVuSans-62" transform="scale(0.015625)"/>
      <path d="M 3122 3366 
L 3122 2828 
Q 2878 2963 2633 3030 
Q 2388 3097 2138 3097 
Q 1578 3097 1268 2742 
Q 959 2388 959 1747 
Q 959 1106 1268 751 
Q 1578 397 2138 397 
Q 2388 397 2633 464 
Q 2878 531 3122 666 
L 3122 134 
Q 2881 22 2623 -34 
Q 2366 -91 2075 -91 
Q 1284 -91 818 406 
Q 353 903 353 1747 
Q 353 2603 823 3093 
Q 1294 3584 2113 3584 
Q 2378 3584 2631 3529 
Q 2884 3475 3122 3366 
z
" id="DejaVuSans-63" transform="scale(0.015625)"/>
      <path d="M 1984 4856 
Q 1566 4138 1362 3434 
Q 1159 2731 1159 2009 
Q 1159 1288 1364 580 
Q 1569 -128 1984 -844 
L 1484 -844 
Q 1016 -109 783 600 
Q 550 1309 550 2009 
Q 550 2706 781 3412 
Q 1013 4119 1484 4856 
L 1984 4856 
z
" id="DejaVuSans-28" transform="scale(0.015625)"/>
      <path d="M 4122 4306 
L 4122 3641 
Q 3803 3938 3442 4084 
Q 3081 4231 2675 4231 
Q 1875 4231 1450 3742 
Q 1025 3253 1025 2328 
Q 1025 1406 1450 917 
Q 1875 428 2675 428 
Q 3081 428 3442 575 
Q 3803 722 4122 1019 
L 4122 359 
Q 3791 134 3420 21 
Q 3050 -91 2638 -91 
Q 1578 -91 968 557 
Q 359 1206 359 2328 
Q 359 3453 968 4101 
Q 1578 4750 2638 4750 
Q 3056 4750 3426 4639 
Q 3797 4528 4122 4306 
z
" id="DejaVuSans-43" transform="scale(0.015625)"/>
      <path d="M 513 4856 
L 1013 4856 
Q 1481 4119 1714 3412 
Q 1947 2706 1947 2009 
Q 1947 1309 1714 600 
Q 1481 -109 1013 -844 
L 513 -844 
Q 928 -128 1133 580 
Q 1338 1288 1338 2009 
Q 1338 2731 1133 3434 
Q 928 4138 513 4856 
z
" id="DejaVuSans-29" transform="scale(0.015625)"/>
      <path d="M 750 794 
L 1409 794 
L 1409 0 
L 750 0 
L 750 794 
z
M 750 3309 
L 1409 3309 
L 1409 2516 
L 750 2516 
L 750 3309 
z
" id="DejaVuSans-3a" transform="scale(0.015625)"/>
      <path d="M 544 1381 
L 544 3500 
L 1119 3500 
L 1119 1403 
Q 1119 906 1312 657 
Q 1506 409 1894 409 
Q 2359 409 2629 706 
Q 2900 1003 2900 1516 
L 2900 3500 
L 3475 3500 
L 3475 0 
L 2900 0 
L 2900 538 
Q 2691 219 2414 64 
Q 2138 -91 1772 -91 
Q 1169 -91 856 284 
Q 544 659 544 1381 
z
M 1991 3584 
L 1991 3584 
z
" id="DejaVuSans-75" transform="scale(0.015625)"/>
      <path d="M 3263 -1063 
L 3263 -1509 
L -63 -1509 
L -63 -1063 
L 3263 -1063 
z
" id="DejaVuSans-5f" transform="scale(0.015625)"/>
      <path d="M 1259 2228 
L 1259 519 
L 2272 519 
Q 2781 519 3026 730 
Q 3272 941 3272 1375 
Q 3272 1813 3026 2020 
Q 2781 2228 2272 2228 
L 1259 2228 
z
M 1259 4147 
L 1259 2741 
L 2194 2741 
Q 2656 2741 2882 2914 
Q 3109 3088 3109 3444 
Q 3109 3797 2882 3972 
Q 2656 4147 2194 4147 
L 1259 4147 
z
M 628 4666 
L 2241 4666 
Q 2963 4666 3353 4366 
Q 3744 4066 3744 3513 
Q 3744 3084 3544 2831 
Q 3344 2578 2956 2516 
Q 3422 2416 3680 2098 
Q 3938 1781 3938 1306 
Q 3938 681 3513 340 
Q 3088 0 2303 0 
L 628 0 
L 628 4666 
z
" id="DejaVuSans-42" transform="scale(0.015625)"/>
      <path d="M 678 2906 
L 4684 2906 
L 4684 2381 
L 678 2381 
L 678 2906 
z
M 678 1631 
L 4684 1631 
L 4684 1100 
L 678 1100 
L 678 1631 
z
" id="DejaVuSans-3d" transform="scale(0.015625)"/>
      <path d="M 313 2009 
L 1997 2009 
L 1997 1497 
L 313 1497 
L 313 2009 
z
" id="DejaVuSans-2d" transform="scale(0.015625)"/>
      <path d="M 1259 4147 
L 1259 519 
L 2022 519 
Q 2988 519 3436 956 
Q 3884 1394 3884 2338 
Q 3884 3275 3436 3711 
Q 2988 4147 2022 4147 
L 1259 4147 
z
M 628 4666 
L 1925 4666 
Q 3281 4666 3915 4102 
Q 4550 3538 4550 2338 
Q 4550 1131 3912 565 
Q 3275 0 1925 0 
L 628 0 
L 628 4666 
z
" id="DejaVuSans-44" transform="scale(0.015625)"/>
      <path d="M 750 794 
L 1409 794 
L 1409 256 
L 897 -744 
L 494 -744 
L 750 256 
L 750 794 
z
" id="DejaVuSans-2c" transform="scale(0.015625)"/>
      <path d="M 3425 4513 
L 3425 3897 
Q 3066 4069 2747 4153 
Q 2428 4238 2131 4238 
Q 1616 4238 1336 4038 
Q 1056 3838 1056 3469 
Q 1056 3159 1242 3001 
Q 1428 2844 1947 2747 
L 2328 2669 
Q 3034 2534 3370 2195 
Q 3706 1856 3706 1288 
Q 3706 609 3251 259 
Q 2797 -91 1919 -91 
Q 1588 -91 1214 -16 
Q 841 59 441 206 
L 441 856 
Q 825 641 1194 531 
Q 1563 422 1919 422 
Q 2459 422 2753 634 
Q 3047 847 3047 1241 
Q 3047 1584 2836 1778 
Q 2625 1972 2144 2069 
L 1759 2144 
Q 1053 2284 737 2584 
Q 422 2884 422 3419 
Q 422 4038 858 4394 
Q 1294 4750 2059 4750 
Q 2388 4750 2728 4690 
Q 3069 4631 3425 4513 
z
" id="DejaVuSans-53" transform="scale(0.015625)"/>
     </defs>
     <use xlink:href="#DejaVuSans-48"/>
     <use x="75.195312" xlink:href="#DejaVuSans-65"/>
     <use x="134.96875" xlink:href="#DejaVuSans-78"/>
     <use x="194.148438" xlink:href="#DejaVuSans-61"/>
     <use x="255.427734" xlink:href="#DejaVuSans-62"/>
     <use x="318.904297" xlink:href="#DejaVuSans-65"/>
     <use x="380.427734" xlink:href="#DejaVuSans-6e"/>
     <use x="443.806641" xlink:href="#DejaVuSans-7a"/>
     <use x="496.296875" xlink:href="#DejaVuSans-6f"/>
     <use x="557.478516" xlink:href="#DejaVuSans-63"/>
     <use x="612.458984" xlink:href="#DejaVuSans-6f"/>
     <use x="673.640625" xlink:href="#DejaVuSans-72"/>
     <use x="712.503906" xlink:href="#DejaVuSans-6f"/>
     <use x="773.685547" xlink:href="#DejaVuSans-6e"/>
     <use x="837.064453" xlink:href="#DejaVuSans-65"/>
     <use x="898.587891" xlink:href="#DejaVuSans-6e"/>
     <use x="961.966797" xlink:href="#DejaVuSans-65"/>
     <use x="1023.490234" xlink:href="#DejaVuSans-20"/>
     <use x="1055.277344" xlink:href="#DejaVuSans-28"/>
     <use x="1094.291016" xlink:href="#DejaVuSans-43"/>
     <use x="1164.115234" xlink:href="#DejaVuSans-34"/>
     <use x="1227.738281" xlink:href="#DejaVuSans-32"/>
     <use x="1291.361328" xlink:href="#DejaVuSans-48"/>
     <use x="1366.556641" xlink:href="#DejaVuSans-31"/>
     <use x="1430.179688" xlink:href="#DejaVuSans-38"/>
     <use x="1493.802734" xlink:href="#DejaVuSans-29"/>
     <use x="1532.816406" xlink:href="#DejaVuSans-20"/>
     <use x="1564.603516" xlink:href="#DejaVuSans-3a"/>
     <use x="1598.294922" xlink:href="#DejaVuSans-20"/>
     <use x="1630.082031" xlink:href="#DejaVuSans-20"/>
     <use x="1661.869141" xlink:href="#DejaVuSans-67"/>
     <use x="1725.345703" xlink:href="#DejaVuSans-72"/>
     <use x="1764.208984" xlink:href="#DejaVuSans-6f"/>
     <use x="1825.390625" xlink:href="#DejaVuSans-75"/>
     <use x="1888.769531" xlink:href="#DejaVuSans-6e"/>
     <use x="1952.148438" xlink:href="#DejaVuSans-64"/>
     <use x="2015.625" xlink:href="#DejaVuSans-5f"/>
     <use x="2065.625" xlink:href="#DejaVuSans-42"/>
     <use x="2134.228516" xlink:href="#DejaVuSans-20"/>
     <use x="2166.015625" xlink:href="#DejaVuSans-3d"/>
     <use x="2249.804688" xlink:href="#DejaVuSans-20"/>
     <use x="2281.591797" xlink:href="#DejaVuSans-20"/>
     <use x="2313.378906" xlink:href="#DejaVuSans-30"/>
     <use x="2377.001953" xlink:href="#DejaVuSans-2e"/>
     <use x="2408.789062" xlink:href="#DejaVuSans-30"/>
     <use x="2472.412109" xlink:href="#DejaVuSans-30"/>
     <use x="2536.035156" xlink:href="#DejaVuSans-33"/>
     <use x="2599.658203" xlink:href="#DejaVuSans-34"/>
     <use x="2663.28125" xlink:href="#DejaVuSans-39"/>
     <use x="2726.904297" xlink:href="#DejaVuSans-20"/>
     <use x="2758.691406" xlink:href="#DejaVuSans-63"/>
     <use x="2813.671875" xlink:href="#DejaVuSans-6d"/>
     <use x="2911.083984" xlink:href="#DejaVuSans-2d"/>
     <use x="2947.167969" xlink:href="#DejaVuSans-31"/>
     <use x="3010.791016" xlink:href="#DejaVuSans-20"/>
     <use x="3042.578125" xlink:href="#DejaVuSans-20"/>
     <use x="3074.365234" xlink:href="#DejaVuSans-20"/>
     <use x="3106.152344" xlink:href="#DejaVuSans-20"/>
     <use x="3137.939453" xlink:href="#DejaVuSans-44"/>
     <use x="3214.941406" xlink:href="#DejaVuSans-65"/>
     <use x="3276.464844" xlink:href="#DejaVuSans-6c"/>
     <use x="3304.248047" xlink:href="#DejaVuSans-74"/>
     <use x="3343.457031" xlink:href="#DejaVuSans-61"/>
     <use x="3404.736328" xlink:href="#DejaVuSans-5f"/>
     <use x="3454.736328" xlink:href="#DejaVuSans-42"/>
     <use x="3523.339844" xlink:href="#DejaVuSans-20"/>
     <use x="3555.126953" xlink:href="#DejaVuSans-3d"/>
     <use x="3638.916016" xlink:href="#DejaVuSans-20"/>
     <use x="3670.703125" xlink:href="#DejaVuSans-2d"/>
     <use x="3706.787109" xlink:href="#DejaVuSans-30"/>
     <use x="3770.410156" xlink:href="#DejaVuSans-2e"/>
     <use x="3802.197266" xlink:href="#DejaVuSans-30"/>
     <use x="3865.820312" xlink:href="#DejaVuSans-39"/>
     <use x="3929.443359" xlink:href="#DejaVuSans-2c"/>
     <use x="3961.230469" xlink:href="#DejaVuSans-20"/>
     <use x="3993.017578" xlink:href="#DejaVuSans-20"/>
     <use x="4024.804688" xlink:href="#DejaVuSans-20"/>
     <use x="4056.591797" xlink:href="#DejaVuSans-20"/>
     <use x="4088.378906" xlink:href="#DejaVuSans-44"/>
     <use x="4165.380859" xlink:href="#DejaVuSans-65"/>
     <use x="4226.904297" xlink:href="#DejaVuSans-6c"/>
     <use x="4254.6875" xlink:href="#DejaVuSans-74"/>
     <use x="4293.896484" xlink:href="#DejaVuSans-61"/>
     <use x="4355.175781" xlink:href="#DejaVuSans-5f"/>
     <use x="4405.175781" xlink:href="#DejaVuSans-43"/>
     <use x="4475" xlink:href="#DejaVuSans-20"/>
     <use x="4506.787109" xlink:href="#DejaVuSans-3d"/>
     <use x="4590.576172" xlink:href="#DejaVuSans-20"/>
     <use x="4622.363281" xlink:href="#DejaVuSans-2d"/>
     <use x="4658.447266" xlink:href="#DejaVuSans-30"/>
     <use x="4722.070312" xlink:href="#DejaVuSans-2e"/>
     <use x="4753.857422" xlink:href="#DejaVuSans-30"/>
     <use x="4817.480469" xlink:href="#DejaVuSans-31"/>
     <use x="4881.103516" xlink:href="#DejaVuSans-20"/>
     <use x="4912.890625" xlink:href="#DejaVuSans-20"/>
     <use x="4944.677734" xlink:href="#DejaVuSans-20"/>
     <use x="4976.464844" xlink:href="#DejaVuSans-20"/>
     <use x="5008.251953" xlink:href="#DejaVuSans-7a"/>
     <use x="5060.742188" xlink:href="#DejaVuSans-65"/>
     <use x="5122.265625" xlink:href="#DejaVuSans-74"/>
     <use x="5161.474609" xlink:href="#DejaVuSans-61"/>
     <use x="5222.753906" xlink:href="#DejaVuSans-20"/>
     <use x="5254.541016" xlink:href="#DejaVuSans-3d"/>
     <use x="5338.330078" xlink:href="#DejaVuSans-20"/>
     <use x="5370.117188" xlink:href="#DejaVuSans-2d"/>
     <use x="5406.201172" xlink:href="#DejaVuSans-30"/>
     <use x="5469.824219" xlink:href="#DejaVuSans-2e"/>
     <use x="5501.611328" xlink:href="#DejaVuSans-33"/>
     <use x="5565.234375" xlink:href="#DejaVuSans-35"/>
     <use x="5628.857422" xlink:href="#DejaVuSans-20"/>
     <use x="5660.644531" xlink:href="#DejaVuSans-20"/>
     <use x="5692.431641" xlink:href="#DejaVuSans-20"/>
     <use x="5724.21875" xlink:href="#DejaVuSans-53"/>
     <use x="5787.695312" xlink:href="#DejaVuSans-74"/>
     <use x="5826.904297" xlink:href="#DejaVuSans-61"/>
     <use x="5888.183594" xlink:href="#DejaVuSans-72"/>
     <use x="5929.296875" xlink:href="#DejaVuSans-4e"/>
     <use x="6004.101562" xlink:href="#DejaVuSans-61"/>
     <use x="6065.380859" xlink:href="#DejaVuSans-6d"/>
     <use x="6162.792969" xlink:href="#DejaVuSans-65"/>
     <use x="6224.316406" xlink:href="#DejaVuSans-3a"/>
     <use x="6258.007812" xlink:href="#DejaVuSans-20"/>
     <use x="6289.794922" xlink:href="#DejaVuSans-20"/>
     <use x="6321.582031" xlink:href="#DejaVuSans-48"/>
     <use x="6396.777344" xlink:href="#DejaVuSans-44"/>
     <use x="6473.779297" xlink:href="#DejaVuSans-20"/>
     <use x="6505.566406" xlink:href="#DejaVuSans-31"/>
     <use x="6569.189453" xlink:href="#DejaVuSans-38"/>
     <use x="6632.8125" xlink:href="#DejaVuSans-35"/>
     <use x="6696.435547" xlink:href="#DejaVuSans-34"/>
     <use x="6760.058594" xlink:href="#DejaVuSans-31"/>
     <use x="6823.681641" xlink:href="#DejaVuSans-38"/>
    </g>
   </g>
   <g id="legend_1">
    <g id="patch_7">
     <path d="M 63.50625 343.478125 
L 130.845313 343.478125 
Q 132.845313 343.478125 132.845313 341.478125 
L 132.845313 313.121875 
Q 132.845313 311.121875 130.845313 311.121875 
L 63.50625 311.121875 
Q 61.50625 311.121875 61.50625 313.121875 
L 61.50625 341.478125 
Q 61.50625 343.478125 63.50625 343.478125 
z
" style="fill:#ffffff;opacity:0.8;stroke:#cccccc;stroke-linejoin:miter;"/>
    </g>
    <g id="text_21">
     <!-- Temperature -->
     <g transform="translate(65.50625 322.720312)scale(0.1 -0.1)">
      <defs>
       <path d="M -19 4666 
L 3928 4666 
L 3928 4134 
L 2272 4134 
L 2272 0 
L 1638 0 
L 1638 4134 
L -19 4134 
L -19 4666 
z
" id="DejaVuSans-54" transform="scale(0.015625)"/>
       <path d="M 1159 525 
L 1159 -1331 
L 581 -1331 
L 581 3500 
L 1159 3500 
L 1159 2969 
Q 1341 3281 1617 3432 
Q 1894 3584 2278 3584 
Q 2916 3584 3314 3078 
Q 3713 2572 3713 1747 
Q 3713 922 3314 415 
Q 2916 -91 2278 -91 
Q 1894 -91 1617 61 
Q 1341 213 1159 525 
z
M 3116 1747 
Q 3116 2381 2855 2742 
Q 2594 3103 2138 3103 
Q 1681 3103 1420 2742 
Q 1159 2381 1159 1747 
Q 1159 1113 1420 752 
Q 1681 391 2138 391 
Q 2594 391 2855 752 
Q 3116 1113 3116 1747 
z
" id="DejaVuSans-70" transform="scale(0.015625)"/>
      </defs>
      <use xlink:href="#DejaVuSans-54"/>
      <use x="44.083984" xlink:href="#DejaVuSans-65"/>
      <use x="105.607422" xlink:href="#DejaVuSans-6d"/>
      <use x="203.019531" xlink:href="#DejaVuSans-70"/>
      <use x="266.496094" xlink:href="#DejaVuSans-65"/>
      <use x="328.019531" xlink:href="#DejaVuSans-72"/>
      <use x="369.132812" xlink:href="#DejaVuSans-61"/>
      <use x="430.412109" xlink:href="#DejaVuSans-74"/>
      <use x="469.621094" xlink:href="#DejaVuSans-75"/>
      <use x="533" xlink:href="#DejaVuSans-72"/>
      <use x="571.863281" xlink:href="#DejaVuSans-65"/>
     </g>
    </g>
    <g id="line2d_20">
     <path d="M 70.35625 333.898437 
L 90.35625 333.898437 
" style="fill:none;stroke:#e77e63;stroke-linecap:square;"/>
    </g>
    <g id="line2d_21"/>
    <g id="text_22">
     <!-- 45  K -->
     <g transform="translate(98.35625 337.398437)scale(0.1 -0.1)">
      <defs>
       <path d="M 628 4666 
L 1259 4666 
L 1259 2694 
L 3353 4666 
L 4166 4666 
L 1850 2491 
L 4331 0 
L 3500 0 
L 1259 2247 
L 1259 0 
L 628 0 
L 628 4666 
z
" id="DejaVuSans-4b" transform="scale(0.015625)"/>
      </defs>
      <use xlink:href="#DejaVuSans-34"/>
      <use x="63.623047" xlink:href="#DejaVuSans-35"/>
      <use x="127.246094" xlink:href="#DejaVuSans-20"/>
      <use x="159.033203" xlink:href="#DejaVuSans-20"/>
      <use x="190.820312" xlink:href="#DejaVuSans-4b"/>
     </g>
    </g>
   </g>
  </g>
 </g>
 <defs>
  <clipPath id="p5b0af44ffc">
   <rect height="326.16" width="837" x="56.50625" y="22.318125"/>
  </clipPath>
 </defs>
</svg>
