<?xml version="1.0" encoding="utf-8" standalone="no"?>
<!DOCTYPE svg PUBLIC "-//W3C//DTD SVG 1.1//EN"
  "http://www.w3.org/Graphics/SVG/1.1/DTD/svg11.dtd">
<svg height="497.158125pt" version="1.1" viewBox="0 0 894.34375 497.158125" width="894.34375pt" xmlns="http://www.w3.org/2000/svg" xmlns:xlink="http://www.w3.org/1999/xlink">
 <metadata>
  <rdf:RDF xmlns:cc="http://creativecommons.org/ns#" xmlns:dc="http://purl.org/dc/elements/1.1/" xmlns:rdf="http://www.w3.org/1999/02/22-rdf-syntax-ns#">
   <cc:Work>
    <dc:type rdf:resource="http://purl.org/dc/dcmitype/StillImage"/>
    <dc:date>2022-12-07T10:01:15.425421</dc:date>
    <dc:format>image/svg+xml</dc:format>
    <dc:creator>
     <cc:Agent>
      <dc:title>Matplotlib v3.4.3, https://matplotlib.org/</dc:title>
     </cc:Agent>
    </dc:creator>
   </cc:Work>
  </rdf:RDF>
 </metadata>
 <defs>
  <style type="text/css">*{stroke-linecap:butt;stroke-linejoin:round;}</style>
 </defs>
 <g id="figure_1">
  <g id="patch_1">
   <path d="M 0 497.158125 
L 894.34375 497.158125 
L 894.34375 0 
L 0 0 
z
" style="fill:#ffffff;"/>
  </g>
  <g id="axes_1">
   <g id="patch_2">
    <path d="M 50.14375 458.88 
L 887.14375 458.88 
L 887.14375 24 
L 50.14375 24 
z
" style="fill:#ffffff;"/>
   </g>
   <g id="matplotlib.axis_1">
    <g id="xtick_1">
     <g id="line2d_1">
      <defs>
       <path d="M 0 0 
L 0 3.5 
" id="m10be5521de" style="stroke:#000000;stroke-width:0.8;"/>
      </defs>
      <g>
       <use style="stroke:#000000;stroke-width:0.8;" x="57.598873" xlink:href="#m10be5521de" y="458.88"/>
      </g>
     </g>
     <g id="text_1">
      <!-- −4 -->
      <g transform="translate(50.22778 473.478437)scale(0.1 -0.1)">
       <defs>
        <path d="M 678 2272 
L 4684 2272 
L 4684 1741 
L 678 1741 
L 678 2272 
z
" id="DejaVuSans-2212" transform="scale(0.015625)"/>
        <path d="M 2419 4116 
L 825 1625 
L 2419 1625 
L 2419 4116 
z
M 2253 4666 
L 3047 4666 
L 3047 1625 
L 3713 1625 
L 3713 1100 
L 3047 1100 
L 3047 0 
L 2419 0 
L 2419 1100 
L 313 1100 
L 313 1709 
L 2253 4666 
z
" id="DejaVuSans-34" transform="scale(0.015625)"/>
       </defs>
       <use xlink:href="#DejaVuSans-2212"/>
       <use x="83.789062" xlink:href="#DejaVuSans-34"/>
      </g>
     </g>
    </g>
    <g id="xtick_2">
     <g id="line2d_2">
      <g>
       <use style="stroke:#000000;stroke-width:0.8;" x="176.981845" xlink:href="#m10be5521de" y="458.88"/>
      </g>
     </g>
     <g id="text_2">
      <!-- −3 -->
      <g transform="translate(169.610751 473.478437)scale(0.1 -0.1)">
       <defs>
        <path d="M 2597 2516 
Q 3050 2419 3304 2112 
Q 3559 1806 3559 1356 
Q 3559 666 3084 287 
Q 2609 -91 1734 -91 
Q 1441 -91 1130 -33 
Q 819 25 488 141 
L 488 750 
Q 750 597 1062 519 
Q 1375 441 1716 441 
Q 2309 441 2620 675 
Q 2931 909 2931 1356 
Q 2931 1769 2642 2001 
Q 2353 2234 1838 2234 
L 1294 2234 
L 1294 2753 
L 1863 2753 
Q 2328 2753 2575 2939 
Q 2822 3125 2822 3475 
Q 2822 3834 2567 4026 
Q 2313 4219 1838 4219 
Q 1578 4219 1281 4162 
Q 984 4106 628 3988 
L 628 4550 
Q 988 4650 1302 4700 
Q 1616 4750 1894 4750 
Q 2613 4750 3031 4423 
Q 3450 4097 3450 3541 
Q 3450 3153 3228 2886 
Q 3006 2619 2597 2516 
z
" id="DejaVuSans-33" transform="scale(0.015625)"/>
       </defs>
       <use xlink:href="#DejaVuSans-2212"/>
       <use x="83.789062" xlink:href="#DejaVuSans-33"/>
      </g>
     </g>
    </g>
    <g id="xtick_3">
     <g id="line2d_3">
      <g>
       <use style="stroke:#000000;stroke-width:0.8;" x="296.364817" xlink:href="#m10be5521de" y="458.88"/>
      </g>
     </g>
     <g id="text_3">
      <!-- −2 -->
      <g transform="translate(288.993723 473.478437)scale(0.1 -0.1)">
       <defs>
        <path d="M 1228 531 
L 3431 531 
L 3431 0 
L 469 0 
L 469 531 
Q 828 903 1448 1529 
Q 2069 2156 2228 2338 
Q 2531 2678 2651 2914 
Q 2772 3150 2772 3378 
Q 2772 3750 2511 3984 
Q 2250 4219 1831 4219 
Q 1534 4219 1204 4116 
Q 875 4013 500 3803 
L 500 4441 
Q 881 4594 1212 4672 
Q 1544 4750 1819 4750 
Q 2544 4750 2975 4387 
Q 3406 4025 3406 3419 
Q 3406 3131 3298 2873 
Q 3191 2616 2906 2266 
Q 2828 2175 2409 1742 
Q 1991 1309 1228 531 
z
" id="DejaVuSans-32" transform="scale(0.015625)"/>
       </defs>
       <use xlink:href="#DejaVuSans-2212"/>
       <use x="83.789062" xlink:href="#DejaVuSans-32"/>
      </g>
     </g>
    </g>
    <g id="xtick_4">
     <g id="line2d_4">
      <g>
       <use style="stroke:#000000;stroke-width:0.8;" x="415.747788" xlink:href="#m10be5521de" y="458.88"/>
      </g>
     </g>
     <g id="text_4">
      <!-- −1 -->
      <g transform="translate(408.376695 473.478437)scale(0.1 -0.1)">
       <defs>
        <path d="M 794 531 
L 1825 531 
L 1825 4091 
L 703 3866 
L 703 4441 
L 1819 4666 
L 2450 4666 
L 2450 531 
L 3481 531 
L 3481 0 
L 794 0 
L 794 531 
z
" id="DejaVuSans-31" transform="scale(0.015625)"/>
       </defs>
       <use xlink:href="#DejaVuSans-2212"/>
       <use x="83.789062" xlink:href="#DejaVuSans-31"/>
      </g>
     </g>
    </g>
    <g id="xtick_5">
     <g id="line2d_5">
      <g>
       <use style="stroke:#000000;stroke-width:0.8;" x="535.13076" xlink:href="#m10be5521de" y="458.88"/>
      </g>
     </g>
     <g id="text_5">
      <!-- 0 -->
      <g transform="translate(531.94951 473.478437)scale(0.1 -0.1)">
       <defs>
        <path d="M 2034 4250 
Q 1547 4250 1301 3770 
Q 1056 3291 1056 2328 
Q 1056 1369 1301 889 
Q 1547 409 2034 409 
Q 2525 409 2770 889 
Q 3016 1369 3016 2328 
Q 3016 3291 2770 3770 
Q 2525 4250 2034 4250 
z
M 2034 4750 
Q 2819 4750 3233 4129 
Q 3647 3509 3647 2328 
Q 3647 1150 3233 529 
Q 2819 -91 2034 -91 
Q 1250 -91 836 529 
Q 422 1150 422 2328 
Q 422 3509 836 4129 
Q 1250 4750 2034 4750 
z
" id="DejaVuSans-30" transform="scale(0.015625)"/>
       </defs>
       <use xlink:href="#DejaVuSans-30"/>
      </g>
     </g>
    </g>
    <g id="xtick_6">
     <g id="line2d_6">
      <g>
       <use style="stroke:#000000;stroke-width:0.8;" x="654.513731" xlink:href="#m10be5521de" y="458.88"/>
      </g>
     </g>
     <g id="text_6">
      <!-- 1 -->
      <g transform="translate(651.332481 473.478437)scale(0.1 -0.1)">
       <use xlink:href="#DejaVuSans-31"/>
      </g>
     </g>
    </g>
    <g id="xtick_7">
     <g id="line2d_7">
      <g>
       <use style="stroke:#000000;stroke-width:0.8;" x="773.896703" xlink:href="#m10be5521de" y="458.88"/>
      </g>
     </g>
     <g id="text_7">
      <!-- 2 -->
      <g transform="translate(770.715453 473.478437)scale(0.1 -0.1)">
       <use xlink:href="#DejaVuSans-32"/>
      </g>
     </g>
    </g>
    <g id="text_8">
     <!-- wavenumber (in $cm^{-1}$) -->
     <g transform="translate(411.14375 487.878437)scale(0.1 -0.1)">
      <defs>
       <path d="M 269 3500 
L 844 3500 
L 1563 769 
L 2278 3500 
L 2956 3500 
L 3675 769 
L 4391 3500 
L 4966 3500 
L 4050 0 
L 3372 0 
L 2619 2869 
L 1863 0 
L 1184 0 
L 269 3500 
z
" id="DejaVuSans-77" transform="scale(0.015625)"/>
       <path d="M 2194 1759 
Q 1497 1759 1228 1600 
Q 959 1441 959 1056 
Q 959 750 1161 570 
Q 1363 391 1709 391 
Q 2188 391 2477 730 
Q 2766 1069 2766 1631 
L 2766 1759 
L 2194 1759 
z
M 3341 1997 
L 3341 0 
L 2766 0 
L 2766 531 
Q 2569 213 2275 61 
Q 1981 -91 1556 -91 
Q 1019 -91 701 211 
Q 384 513 384 1019 
Q 384 1609 779 1909 
Q 1175 2209 1959 2209 
L 2766 2209 
L 2766 2266 
Q 2766 2663 2505 2880 
Q 2244 3097 1772 3097 
Q 1472 3097 1187 3025 
Q 903 2953 641 2809 
L 641 3341 
Q 956 3463 1253 3523 
Q 1550 3584 1831 3584 
Q 2591 3584 2966 3190 
Q 3341 2797 3341 1997 
z
" id="DejaVuSans-61" transform="scale(0.015625)"/>
       <path d="M 191 3500 
L 800 3500 
L 1894 563 
L 2988 3500 
L 3597 3500 
L 2284 0 
L 1503 0 
L 191 3500 
z
" id="DejaVuSans-76" transform="scale(0.015625)"/>
       <path d="M 3597 1894 
L 3597 1613 
L 953 1613 
Q 991 1019 1311 708 
Q 1631 397 2203 397 
Q 2534 397 2845 478 
Q 3156 559 3463 722 
L 3463 178 
Q 3153 47 2828 -22 
Q 2503 -91 2169 -91 
Q 1331 -91 842 396 
Q 353 884 353 1716 
Q 353 2575 817 3079 
Q 1281 3584 2069 3584 
Q 2775 3584 3186 3129 
Q 3597 2675 3597 1894 
z
M 3022 2063 
Q 3016 2534 2758 2815 
Q 2500 3097 2075 3097 
Q 1594 3097 1305 2825 
Q 1016 2553 972 2059 
L 3022 2063 
z
" id="DejaVuSans-65" transform="scale(0.015625)"/>
       <path d="M 3513 2113 
L 3513 0 
L 2938 0 
L 2938 2094 
Q 2938 2591 2744 2837 
Q 2550 3084 2163 3084 
Q 1697 3084 1428 2787 
Q 1159 2491 1159 1978 
L 1159 0 
L 581 0 
L 581 3500 
L 1159 3500 
L 1159 2956 
Q 1366 3272 1645 3428 
Q 1925 3584 2291 3584 
Q 2894 3584 3203 3211 
Q 3513 2838 3513 2113 
z
" id="DejaVuSans-6e" transform="scale(0.015625)"/>
       <path d="M 544 1381 
L 544 3500 
L 1119 3500 
L 1119 1403 
Q 1119 906 1312 657 
Q 1506 409 1894 409 
Q 2359 409 2629 706 
Q 2900 1003 2900 1516 
L 2900 3500 
L 3475 3500 
L 3475 0 
L 2900 0 
L 2900 538 
Q 2691 219 2414 64 
Q 2138 -91 1772 -91 
Q 1169 -91 856 284 
Q 544 659 544 1381 
z
M 1991 3584 
L 1991 3584 
z
" id="DejaVuSans-75" transform="scale(0.015625)"/>
       <path d="M 3328 2828 
Q 3544 3216 3844 3400 
Q 4144 3584 4550 3584 
Q 5097 3584 5394 3201 
Q 5691 2819 5691 2113 
L 5691 0 
L 5113 0 
L 5113 2094 
Q 5113 2597 4934 2840 
Q 4756 3084 4391 3084 
Q 3944 3084 3684 2787 
Q 3425 2491 3425 1978 
L 3425 0 
L 2847 0 
L 2847 2094 
Q 2847 2600 2669 2842 
Q 2491 3084 2119 3084 
Q 1678 3084 1418 2786 
Q 1159 2488 1159 1978 
L 1159 0 
L 581 0 
L 581 3500 
L 1159 3500 
L 1159 2956 
Q 1356 3278 1631 3431 
Q 1906 3584 2284 3584 
Q 2666 3584 2933 3390 
Q 3200 3197 3328 2828 
z
" id="DejaVuSans-6d" transform="scale(0.015625)"/>
       <path d="M 3116 1747 
Q 3116 2381 2855 2742 
Q 2594 3103 2138 3103 
Q 1681 3103 1420 2742 
Q 1159 2381 1159 1747 
Q 1159 1113 1420 752 
Q 1681 391 2138 391 
Q 2594 391 2855 752 
Q 3116 1113 3116 1747 
z
M 1159 2969 
Q 1341 3281 1617 3432 
Q 1894 3584 2278 3584 
Q 2916 3584 3314 3078 
Q 3713 2572 3713 1747 
Q 3713 922 3314 415 
Q 2916 -91 2278 -91 
Q 1894 -91 1617 61 
Q 1341 213 1159 525 
L 1159 0 
L 581 0 
L 581 4863 
L 1159 4863 
L 1159 2969 
z
" id="DejaVuSans-62" transform="scale(0.015625)"/>
       <path d="M 2631 2963 
Q 2534 3019 2420 3045 
Q 2306 3072 2169 3072 
Q 1681 3072 1420 2755 
Q 1159 2438 1159 1844 
L 1159 0 
L 581 0 
L 581 3500 
L 1159 3500 
L 1159 2956 
Q 1341 3275 1631 3429 
Q 1922 3584 2338 3584 
Q 2397 3584 2469 3576 
Q 2541 3569 2628 3553 
L 2631 2963 
z
" id="DejaVuSans-72" transform="scale(0.015625)"/>
       <path id="DejaVuSans-20" transform="scale(0.015625)"/>
       <path d="M 1984 4856 
Q 1566 4138 1362 3434 
Q 1159 2731 1159 2009 
Q 1159 1288 1364 580 
Q 1569 -128 1984 -844 
L 1484 -844 
Q 1016 -109 783 600 
Q 550 1309 550 2009 
Q 550 2706 781 3412 
Q 1013 4119 1484 4856 
L 1984 4856 
z
" id="DejaVuSans-28" transform="scale(0.015625)"/>
       <path d="M 603 3500 
L 1178 3500 
L 1178 0 
L 603 0 
L 603 3500 
z
M 603 4863 
L 1178 4863 
L 1178 4134 
L 603 4134 
L 603 4863 
z
" id="DejaVuSans-69" transform="scale(0.015625)"/>
       <path d="M 3431 3366 
L 3316 2797 
Q 3109 2947 2876 3022 
Q 2644 3097 2394 3097 
Q 2119 3097 1870 3000 
Q 1622 2903 1453 2725 
Q 1184 2453 1037 2087 
Q 891 1722 891 1331 
Q 891 859 1127 628 
Q 1363 397 1844 397 
Q 2081 397 2348 469 
Q 2616 541 2906 684 
L 2797 116 
Q 2547 13 2283 -39 
Q 2019 -91 1741 -91 
Q 1044 -91 669 257 
Q 294 606 294 1253 
Q 294 1797 489 2255 
Q 684 2713 1069 3078 
Q 1331 3328 1684 3456 
Q 2038 3584 2456 3584 
Q 2700 3584 2940 3529 
Q 3181 3475 3431 3366 
z
" id="DejaVuSans-Oblique-63" transform="scale(0.015625)"/>
       <path d="M 5747 2113 
L 5338 0 
L 4763 0 
L 5166 2094 
Q 5191 2228 5203 2325 
Q 5216 2422 5216 2491 
Q 5216 2772 5059 2928 
Q 4903 3084 4622 3084 
Q 4203 3084 3875 2770 
Q 3547 2456 3450 1953 
L 3066 0 
L 2491 0 
L 2900 2094 
Q 2925 2209 2937 2307 
Q 2950 2406 2950 2484 
Q 2950 2769 2794 2926 
Q 2638 3084 2363 3084 
Q 1938 3084 1609 2770 
Q 1281 2456 1184 1953 
L 800 0 
L 225 0 
L 909 3500 
L 1484 3500 
L 1375 2956 
Q 1609 3263 1923 3423 
Q 2238 3584 2597 3584 
Q 2978 3584 3223 3384 
Q 3469 3184 3519 2828 
Q 3781 3197 4126 3390 
Q 4472 3584 4856 3584 
Q 5306 3584 5551 3325 
Q 5797 3066 5797 2591 
Q 5797 2488 5784 2364 
Q 5772 2241 5747 2113 
z
" id="DejaVuSans-Oblique-6d" transform="scale(0.015625)"/>
       <path d="M 513 4856 
L 1013 4856 
Q 1481 4119 1714 3412 
Q 1947 2706 1947 2009 
Q 1947 1309 1714 600 
Q 1481 -109 1013 -844 
L 513 -844 
Q 928 -128 1133 580 
Q 1338 1288 1338 2009 
Q 1338 2731 1133 3434 
Q 928 4138 513 4856 
z
" id="DejaVuSans-29" transform="scale(0.015625)"/>
      </defs>
      <use transform="translate(0 0.684375)" xlink:href="#DejaVuSans-77"/>
      <use transform="translate(81.787109 0.684375)" xlink:href="#DejaVuSans-61"/>
      <use transform="translate(143.066406 0.684375)" xlink:href="#DejaVuSans-76"/>
      <use transform="translate(202.246094 0.684375)" xlink:href="#DejaVuSans-65"/>
      <use transform="translate(263.769531 0.684375)" xlink:href="#DejaVuSans-6e"/>
      <use transform="translate(327.148438 0.684375)" xlink:href="#DejaVuSans-75"/>
      <use transform="translate(390.527344 0.684375)" xlink:href="#DejaVuSans-6d"/>
      <use transform="translate(487.939453 0.684375)" xlink:href="#DejaVuSans-62"/>
      <use transform="translate(551.416016 0.684375)" xlink:href="#DejaVuSans-65"/>
      <use transform="translate(612.939453 0.684375)" xlink:href="#DejaVuSans-72"/>
      <use transform="translate(654.052734 0.684375)" xlink:href="#DejaVuSans-20"/>
      <use transform="translate(685.839844 0.684375)" xlink:href="#DejaVuSans-28"/>
      <use transform="translate(724.853516 0.684375)" xlink:href="#DejaVuSans-69"/>
      <use transform="translate(752.636719 0.684375)" xlink:href="#DejaVuSans-6e"/>
      <use transform="translate(816.015625 0.684375)" xlink:href="#DejaVuSans-20"/>
      <use transform="translate(847.802734 0.684375)" xlink:href="#DejaVuSans-Oblique-63"/>
      <use transform="translate(902.783203 0.684375)" xlink:href="#DejaVuSans-Oblique-6d"/>
      <use transform="translate(1004.845208 38.965625)scale(0.7)" xlink:href="#DejaVuSans-2212"/>
      <use transform="translate(1063.497552 38.965625)scale(0.7)" xlink:href="#DejaVuSans-31"/>
      <use transform="translate(1110.76806 0.684375)" xlink:href="#DejaVuSans-29"/>
     </g>
    </g>
   </g>
   <g id="matplotlib.axis_2">
    <g id="ytick_1">
     <g id="line2d_8">
      <defs>
       <path d="M 0 0 
L -3.5 0 
" id="m5d81eeb701" style="stroke:#000000;stroke-width:0.8;"/>
      </defs>
      <g>
       <use style="stroke:#000000;stroke-width:0.8;" x="50.14375" xlink:href="#m5d81eeb701" y="439.112727"/>
      </g>
     </g>
     <g id="text_9">
      <!-- 0.90 -->
      <g transform="translate(20.878125 442.911946)scale(0.1 -0.1)">
       <defs>
        <path d="M 684 794 
L 1344 794 
L 1344 0 
L 684 0 
L 684 794 
z
" id="DejaVuSans-2e" transform="scale(0.015625)"/>
        <path d="M 703 97 
L 703 672 
Q 941 559 1184 500 
Q 1428 441 1663 441 
Q 2288 441 2617 861 
Q 2947 1281 2994 2138 
Q 2813 1869 2534 1725 
Q 2256 1581 1919 1581 
Q 1219 1581 811 2004 
Q 403 2428 403 3163 
Q 403 3881 828 4315 
Q 1253 4750 1959 4750 
Q 2769 4750 3195 4129 
Q 3622 3509 3622 2328 
Q 3622 1225 3098 567 
Q 2575 -91 1691 -91 
Q 1453 -91 1209 -44 
Q 966 3 703 97 
z
M 1959 2075 
Q 2384 2075 2632 2365 
Q 2881 2656 2881 3163 
Q 2881 3666 2632 3958 
Q 2384 4250 1959 4250 
Q 1534 4250 1286 3958 
Q 1038 3666 1038 3163 
Q 1038 2656 1286 2365 
Q 1534 2075 1959 2075 
z
" id="DejaVuSans-39" transform="scale(0.015625)"/>
       </defs>
       <use xlink:href="#DejaVuSans-30"/>
       <use x="63.623047" xlink:href="#DejaVuSans-2e"/>
       <use x="95.410156" xlink:href="#DejaVuSans-39"/>
       <use x="159.033203" xlink:href="#DejaVuSans-30"/>
      </g>
     </g>
    </g>
    <g id="ytick_2">
     <g id="line2d_9">
      <g>
       <use style="stroke:#000000;stroke-width:0.8;" x="50.14375" xlink:href="#m5d81eeb701" y="360.035604"/>
      </g>
     </g>
     <g id="text_10">
      <!-- 0.92 -->
      <g transform="translate(20.878125 363.834822)scale(0.1 -0.1)">
       <use xlink:href="#DejaVuSans-30"/>
       <use x="63.623047" xlink:href="#DejaVuSans-2e"/>
       <use x="95.410156" xlink:href="#DejaVuSans-39"/>
       <use x="159.033203" xlink:href="#DejaVuSans-32"/>
      </g>
     </g>
    </g>
    <g id="ytick_3">
     <g id="line2d_10">
      <g>
       <use style="stroke:#000000;stroke-width:0.8;" x="50.14375" xlink:href="#m5d81eeb701" y="280.95848"/>
      </g>
     </g>
     <g id="text_11">
      <!-- 0.94 -->
      <g transform="translate(20.878125 284.757699)scale(0.1 -0.1)">
       <use xlink:href="#DejaVuSans-30"/>
       <use x="63.623047" xlink:href="#DejaVuSans-2e"/>
       <use x="95.410156" xlink:href="#DejaVuSans-39"/>
       <use x="159.033203" xlink:href="#DejaVuSans-34"/>
      </g>
     </g>
    </g>
    <g id="ytick_4">
     <g id="line2d_11">
      <g>
       <use style="stroke:#000000;stroke-width:0.8;" x="50.14375" xlink:href="#m5d81eeb701" y="201.881357"/>
      </g>
     </g>
     <g id="text_12">
      <!-- 0.96 -->
      <g transform="translate(20.878125 205.680575)scale(0.1 -0.1)">
       <defs>
        <path d="M 2113 2584 
Q 1688 2584 1439 2293 
Q 1191 2003 1191 1497 
Q 1191 994 1439 701 
Q 1688 409 2113 409 
Q 2538 409 2786 701 
Q 3034 994 3034 1497 
Q 3034 2003 2786 2293 
Q 2538 2584 2113 2584 
z
M 3366 4563 
L 3366 3988 
Q 3128 4100 2886 4159 
Q 2644 4219 2406 4219 
Q 1781 4219 1451 3797 
Q 1122 3375 1075 2522 
Q 1259 2794 1537 2939 
Q 1816 3084 2150 3084 
Q 2853 3084 3261 2657 
Q 3669 2231 3669 1497 
Q 3669 778 3244 343 
Q 2819 -91 2113 -91 
Q 1303 -91 875 529 
Q 447 1150 447 2328 
Q 447 3434 972 4092 
Q 1497 4750 2381 4750 
Q 2619 4750 2861 4703 
Q 3103 4656 3366 4563 
z
" id="DejaVuSans-36" transform="scale(0.015625)"/>
       </defs>
       <use xlink:href="#DejaVuSans-30"/>
       <use x="63.623047" xlink:href="#DejaVuSans-2e"/>
       <use x="95.410156" xlink:href="#DejaVuSans-39"/>
       <use x="159.033203" xlink:href="#DejaVuSans-36"/>
      </g>
     </g>
    </g>
    <g id="ytick_5">
     <g id="line2d_12">
      <g>
       <use style="stroke:#000000;stroke-width:0.8;" x="50.14375" xlink:href="#m5d81eeb701" y="122.804233"/>
      </g>
     </g>
     <g id="text_13">
      <!-- 0.98 -->
      <g transform="translate(20.878125 126.603452)scale(0.1 -0.1)">
       <defs>
        <path d="M 2034 2216 
Q 1584 2216 1326 1975 
Q 1069 1734 1069 1313 
Q 1069 891 1326 650 
Q 1584 409 2034 409 
Q 2484 409 2743 651 
Q 3003 894 3003 1313 
Q 3003 1734 2745 1975 
Q 2488 2216 2034 2216 
z
M 1403 2484 
Q 997 2584 770 2862 
Q 544 3141 544 3541 
Q 544 4100 942 4425 
Q 1341 4750 2034 4750 
Q 2731 4750 3128 4425 
Q 3525 4100 3525 3541 
Q 3525 3141 3298 2862 
Q 3072 2584 2669 2484 
Q 3125 2378 3379 2068 
Q 3634 1759 3634 1313 
Q 3634 634 3220 271 
Q 2806 -91 2034 -91 
Q 1263 -91 848 271 
Q 434 634 434 1313 
Q 434 1759 690 2068 
Q 947 2378 1403 2484 
z
M 1172 3481 
Q 1172 3119 1398 2916 
Q 1625 2713 2034 2713 
Q 2441 2713 2670 2916 
Q 2900 3119 2900 3481 
Q 2900 3844 2670 4047 
Q 2441 4250 2034 4250 
Q 1625 4250 1398 4047 
Q 1172 3844 1172 3481 
z
" id="DejaVuSans-38" transform="scale(0.015625)"/>
       </defs>
       <use xlink:href="#DejaVuSans-30"/>
       <use x="63.623047" xlink:href="#DejaVuSans-2e"/>
       <use x="95.410156" xlink:href="#DejaVuSans-39"/>
       <use x="159.033203" xlink:href="#DejaVuSans-38"/>
      </g>
     </g>
    </g>
    <g id="ytick_6">
     <g id="line2d_13">
      <g>
       <use style="stroke:#000000;stroke-width:0.8;" x="50.14375" xlink:href="#m5d81eeb701" y="43.727109"/>
      </g>
     </g>
     <g id="text_14">
      <!-- 1.00 -->
      <g transform="translate(20.878125 47.526328)scale(0.1 -0.1)">
       <use xlink:href="#DejaVuSans-31"/>
       <use x="63.623047" xlink:href="#DejaVuSans-2e"/>
       <use x="95.410156" xlink:href="#DejaVuSans-30"/>
       <use x="159.033203" xlink:href="#DejaVuSans-30"/>
      </g>
     </g>
    </g>
    <g id="text_15">
     <!-- Normalized Intensity -->
     <g transform="translate(14.798438 293.147031)rotate(-90)scale(0.1 -0.1)">
      <defs>
       <path d="M 628 4666 
L 1478 4666 
L 3547 763 
L 3547 4666 
L 4159 4666 
L 4159 0 
L 3309 0 
L 1241 3903 
L 1241 0 
L 628 0 
L 628 4666 
z
" id="DejaVuSans-4e" transform="scale(0.015625)"/>
       <path d="M 1959 3097 
Q 1497 3097 1228 2736 
Q 959 2375 959 1747 
Q 959 1119 1226 758 
Q 1494 397 1959 397 
Q 2419 397 2687 759 
Q 2956 1122 2956 1747 
Q 2956 2369 2687 2733 
Q 2419 3097 1959 3097 
z
M 1959 3584 
Q 2709 3584 3137 3096 
Q 3566 2609 3566 1747 
Q 3566 888 3137 398 
Q 2709 -91 1959 -91 
Q 1206 -91 779 398 
Q 353 888 353 1747 
Q 353 2609 779 3096 
Q 1206 3584 1959 3584 
z
" id="DejaVuSans-6f" transform="scale(0.015625)"/>
       <path d="M 603 4863 
L 1178 4863 
L 1178 0 
L 603 0 
L 603 4863 
z
" id="DejaVuSans-6c" transform="scale(0.015625)"/>
       <path d="M 353 3500 
L 3084 3500 
L 3084 2975 
L 922 459 
L 3084 459 
L 3084 0 
L 275 0 
L 275 525 
L 2438 3041 
L 353 3041 
L 353 3500 
z
" id="DejaVuSans-7a" transform="scale(0.015625)"/>
       <path d="M 2906 2969 
L 2906 4863 
L 3481 4863 
L 3481 0 
L 2906 0 
L 2906 525 
Q 2725 213 2448 61 
Q 2172 -91 1784 -91 
Q 1150 -91 751 415 
Q 353 922 353 1747 
Q 353 2572 751 3078 
Q 1150 3584 1784 3584 
Q 2172 3584 2448 3432 
Q 2725 3281 2906 2969 
z
M 947 1747 
Q 947 1113 1208 752 
Q 1469 391 1925 391 
Q 2381 391 2643 752 
Q 2906 1113 2906 1747 
Q 2906 2381 2643 2742 
Q 2381 3103 1925 3103 
Q 1469 3103 1208 2742 
Q 947 2381 947 1747 
z
" id="DejaVuSans-64" transform="scale(0.015625)"/>
       <path d="M 628 4666 
L 1259 4666 
L 1259 0 
L 628 0 
L 628 4666 
z
" id="DejaVuSans-49" transform="scale(0.015625)"/>
       <path d="M 1172 4494 
L 1172 3500 
L 2356 3500 
L 2356 3053 
L 1172 3053 
L 1172 1153 
Q 1172 725 1289 603 
Q 1406 481 1766 481 
L 2356 481 
L 2356 0 
L 1766 0 
Q 1100 0 847 248 
Q 594 497 594 1153 
L 594 3053 
L 172 3053 
L 172 3500 
L 594 3500 
L 594 4494 
L 1172 4494 
z
" id="DejaVuSans-74" transform="scale(0.015625)"/>
       <path d="M 2834 3397 
L 2834 2853 
Q 2591 2978 2328 3040 
Q 2066 3103 1784 3103 
Q 1356 3103 1142 2972 
Q 928 2841 928 2578 
Q 928 2378 1081 2264 
Q 1234 2150 1697 2047 
L 1894 2003 
Q 2506 1872 2764 1633 
Q 3022 1394 3022 966 
Q 3022 478 2636 193 
Q 2250 -91 1575 -91 
Q 1294 -91 989 -36 
Q 684 19 347 128 
L 347 722 
Q 666 556 975 473 
Q 1284 391 1588 391 
Q 1994 391 2212 530 
Q 2431 669 2431 922 
Q 2431 1156 2273 1281 
Q 2116 1406 1581 1522 
L 1381 1569 
Q 847 1681 609 1914 
Q 372 2147 372 2553 
Q 372 3047 722 3315 
Q 1072 3584 1716 3584 
Q 2034 3584 2315 3537 
Q 2597 3491 2834 3397 
z
" id="DejaVuSans-73" transform="scale(0.015625)"/>
       <path d="M 2059 -325 
Q 1816 -950 1584 -1140 
Q 1353 -1331 966 -1331 
L 506 -1331 
L 506 -850 
L 844 -850 
Q 1081 -850 1212 -737 
Q 1344 -625 1503 -206 
L 1606 56 
L 191 3500 
L 800 3500 
L 1894 763 
L 2988 3500 
L 3597 3500 
L 2059 -325 
z
" id="DejaVuSans-79" transform="scale(0.015625)"/>
      </defs>
      <use xlink:href="#DejaVuSans-4e"/>
      <use x="74.804688" xlink:href="#DejaVuSans-6f"/>
      <use x="135.986328" xlink:href="#DejaVuSans-72"/>
      <use x="175.349609" xlink:href="#DejaVuSans-6d"/>
      <use x="272.761719" xlink:href="#DejaVuSans-61"/>
      <use x="334.041016" xlink:href="#DejaVuSans-6c"/>
      <use x="361.824219" xlink:href="#DejaVuSans-69"/>
      <use x="389.607422" xlink:href="#DejaVuSans-7a"/>
      <use x="442.097656" xlink:href="#DejaVuSans-65"/>
      <use x="503.621094" xlink:href="#DejaVuSans-64"/>
      <use x="567.097656" xlink:href="#DejaVuSans-20"/>
      <use x="598.884766" xlink:href="#DejaVuSans-49"/>
      <use x="628.376953" xlink:href="#DejaVuSans-6e"/>
      <use x="691.755859" xlink:href="#DejaVuSans-74"/>
      <use x="730.964844" xlink:href="#DejaVuSans-65"/>
      <use x="792.488281" xlink:href="#DejaVuSans-6e"/>
      <use x="855.867188" xlink:href="#DejaVuSans-73"/>
      <use x="907.966797" xlink:href="#DejaVuSans-69"/>
      <use x="935.75" xlink:href="#DejaVuSans-74"/>
      <use x="974.958984" xlink:href="#DejaVuSans-79"/>
     </g>
    </g>
   </g>
   <g id="line2d_14">
    <path clip-path="url(#p261d668754)" d="M 160.454314 43.767961 
L 198.712313 43.932189 
L 219.966757 44.219655 
L 232.719423 44.550743 
L 245.472089 45.089464 
L 253.973867 45.619398 
L 262.475644 46.339389 
L 270.977422 47.309454 
L 279.479199 48.604782 
L 283.730088 49.402605 
L 287.980977 50.317901 
L 292.231866 51.365231 
L 296.482755 52.560411 
L 300.733643 53.920514 
L 304.984532 55.463835 
L 309.235421 57.209832 
L 313.48631 59.179021 
L 317.737198 61.392831 
L 321.988087 63.873396 
L 326.238976 66.643301 
L 330.489865 69.72525 
L 334.740754 73.141668 
L 338.991642 76.914221 
L 343.242531 81.063265 
L 347.49342 85.607195 
L 351.744309 90.56173 
L 355.995197 95.939104 
L 360.246086 101.747193 
L 364.496975 107.988578 
L 368.747864 114.659561 
L 372.998753 121.749167 
L 377.249641 129.238137 
L 381.50053 137.097979 
L 385.751419 145.290091 
L 394.253196 162.461952 
L 411.256752 197.849217 
L 415.50764 206.347408 
L 419.758529 214.477028 
L 424.009418 222.11545 
L 428.260307 229.141404 
L 432.511195 235.440264 
L 436.762084 240.910541 
L 441.012973 245.471692 
L 445.263862 249.073336 
L 449.514751 251.705925 
L 453.765639 253.412845 
L 458.016528 254.303816 
L 462.267417 254.569219 
L 470.769194 254.473728 
L 475.020083 255.017729 
L 479.270972 256.754976 
L 483.521861 260.414543 
L 487.772749 266.782124 
L 492.023638 276.61583 
L 496.274527 290.51158 
L 500.525416 308.718117 
L 504.776305 330.922355 
L 509.027193 356.054384 
L 513.278082 382.188073 
L 517.528971 406.620847 
L 521.77986 426.188498 
L 526.030748 437.803191 
L 530.281637 439.112727 
L 534.532526 429.104525 
L 538.783415 408.460246 
L 543.034304 379.527273 
L 551.536081 311.689209 
L 555.78697 280.805044 
L 560.037859 256.259396 
L 564.288747 239.829908 
L 568.539636 231.998723 
L 572.790525 232.147808 
L 577.041414 238.895285 
L 581.292303 250.460052 
L 585.543191 264.972723 
L 594.044969 296.133896 
L 598.295858 310.102975 
L 602.546746 321.703427 
L 606.797635 330.303974 
L 611.048524 335.504176 
L 615.299413 337.101226 
L 619.550302 335.061748 
L 623.80119 329.498003 
L 628.052079 320.6465 
L 632.302968 308.847038 
L 636.553857 294.520935 
L 640.804745 278.14808 
L 645.055634 260.243187 
L 653.557412 221.929291 
L 662.059189 183.530625 
L 666.310078 165.340773 
L 670.560967 148.249308 
L 674.811856 132.482723 
L 679.062744 118.192695 
L 683.313633 105.459999 
L 687.564522 94.301567 
L 691.815411 84.679869 
L 696.0663 76.51371 
L 700.317188 69.689565 
L 704.568077 64.072646 
L 708.818966 59.517067 
L 713.069855 55.874584 
L 717.320743 53.001659 
L 721.571632 50.764694 
L 725.822521 49.043509 
L 730.07341 47.733224 
L 734.324299 46.744804 
L 738.575187 46.004567 
L 742.826076 45.452969 
L 751.327854 44.738046 
L 759.829631 44.339832 
L 772.582297 44.035252 
L 793.836741 43.835431 
L 810.840296 43.774932 
L 810.840296 43.774932 
" style="fill:none;stroke:#e98768;stroke-linecap:square;stroke-width:1.5;"/>
   </g>
   <g id="line2d_15">
    <path clip-path="url(#p261d668754)" d="M 151.952536 43.772508 
L 190.210535 43.943522 
L 211.464979 44.232192 
L 228.468534 44.705422 
L 241.2212 45.313599 
L 249.722978 45.902166 
L 258.224756 46.691396 
L 266.726533 47.741215 
L 275.228311 49.125687 
L 279.479199 49.97087 
L 283.730088 50.934773 
L 287.980977 52.031333 
L 292.231866 53.275597 
L 296.482755 54.683705 
L 300.733643 56.272852 
L 304.984532 58.061214 
L 309.235421 60.067842 
L 313.48631 62.312519 
L 317.737198 64.815559 
L 321.988087 67.597568 
L 326.238976 70.679135 
L 330.489865 74.080472 
L 334.740754 77.820981 
L 338.991642 81.918753 
L 343.242531 86.390005 
L 347.49342 91.248436 
L 351.744309 96.50453 
L 355.995197 102.164788 
L 360.246086 108.230921 
L 364.496975 114.698997 
L 368.747864 121.558581 
L 372.998753 128.791867 
L 377.249641 136.37286 
L 381.50053 144.26662 
L 390.002308 160.804242 
L 411.256752 203.263188 
L 415.50764 211.217614 
L 419.758529 218.74355 
L 424.009418 225.729257 
L 428.260307 232.067212 
L 432.511195 237.659352 
L 436.762084 242.423397 
L 441.012973 246.300337 
L 445.263862 249.263133 
L 449.514751 251.326659 
L 453.765639 252.558832 
L 458.016528 253.092746 
L 462.267417 253.139425 
L 466.518306 253.000401 
L 470.769194 253.078609 
L 475.020083 253.884895 
L 479.270972 256.035478 
L 483.521861 260.233056 
L 487.772749 267.221366 
L 492.023638 277.701411 
L 496.274527 292.20012 
L 500.525416 310.89232 
L 504.776305 333.396823 
L 509.027193 358.594601 
L 513.278082 384.541918 
L 517.528971 408.557715 
L 521.77986 427.536977 
L 526.030748 438.476429 
L 530.281637 439.112727 
L 534.532526 428.502759 
L 538.783415 407.360146 
L 543.034304 378.020898 
L 551.536081 309.447355 
L 555.78697 278.120145 
L 560.037859 253.037469 
L 564.288747 235.985935 
L 568.539636 227.489301 
L 572.790525 226.993358 
L 577.041414 233.188663 
L 581.292303 244.36277 
L 585.543191 258.702538 
L 594.044969 290.311024 
L 598.295858 304.926303 
L 602.546746 317.445046 
L 606.797635 327.211011 
L 611.048524 333.786587 
L 615.299413 336.921416 
L 619.550302 336.526382 
L 623.80119 332.652487 
L 628.052079 325.472569 
L 632.302968 315.263726 
L 636.553857 302.388941 
L 640.804745 287.277299 
L 645.055634 270.402902 
L 649.306523 252.263149 
L 666.310078 176.659365 
L 670.560967 159.070725 
L 674.811856 142.634481 
L 679.062744 127.544412 
L 683.313633 113.924416 
L 687.564522 101.833 
L 691.815411 91.270492 
L 696.0663 82.188192 
L 700.317188 74.498656 
L 704.568077 68.086311 
L 708.818966 62.817702 
L 713.069855 58.550789 
L 717.320743 55.14288 
L 721.571632 52.456952 
L 725.822521 50.366284 
L 730.07341 48.75746 
L 734.324299 47.531908 
L 738.575187 46.606235 
L 742.826076 45.911625 
L 747.076965 45.392601 
L 755.578742 44.716159 
L 764.08052 44.335356 
L 776.833186 44.039298 
L 798.08763 43.839888 
L 819.342074 43.768586 
L 819.342074 43.768586 
" style="fill:none;stroke:#de5d5c;stroke-linecap:square;stroke-width:1.5;"/>
   </g>
   <g id="line2d_16">
    <path clip-path="url(#p261d668754)" d="M 130.698092 43.772796 
L 173.20698 43.961203 
L 194.461424 44.246402 
L 211.464979 44.694437 
L 224.217645 45.252663 
L 232.719423 45.78182 
L 241.2212 46.480195 
L 249.722978 47.395471 
L 258.224756 48.586091 
L 266.726533 50.122627 
L 270.977422 51.046261 
L 275.228311 52.088874 
L 279.479199 53.263104 
L 283.730088 54.582454 
L 287.980977 56.061254 
L 292.231866 57.714615 
L 296.482755 59.558346 
L 300.733643 61.608856 
L 304.984532 63.88301 
L 309.235421 66.397962 
L 313.48631 69.170935 
L 317.737198 72.218972 
L 321.988087 75.558633 
L 326.238976 79.205642 
L 330.489865 83.174493 
L 334.740754 87.478 
L 338.991642 92.126802 
L 343.242531 97.128818 
L 347.49342 102.488661 
L 351.744309 108.207026 
L 355.995197 114.280043 
L 360.246086 120.698624 
L 364.496975 127.447811 
L 368.747864 134.506154 
L 372.998753 141.845132 
L 381.50053 157.212642 
L 394.253196 181.203548 
L 402.754974 197.026298 
L 407.005863 204.638297 
L 411.256752 211.928386 
L 415.50764 218.802043 
L 419.758529 225.165766 
L 424.009418 230.930526 
L 428.260307 236.015968 
L 432.511195 240.35541 
L 436.762084 243.901697 
L 441.012973 246.633945 
L 445.263862 248.565204 
L 449.514751 249.750992 
L 453.765639 250.298607 
L 458.016528 250.376999 
L 466.518306 250.169397 
L 470.769194 250.614538 
L 475.020083 252.062307 
L 479.270972 255.096761 
L 483.521861 260.363632 
L 487.772749 268.523323 
L 492.023638 280.168929 
L 496.274527 295.701833 
L 500.525416 315.167079 
L 504.776305 338.069223 
L 513.278082 388.642719 
L 517.528971 411.731799 
L 521.77986 429.500629 
L 526.030748 439.112727 
L 530.281637 438.473875 
L 534.532526 426.768623 
L 538.783415 404.764108 
L 543.034304 374.766183 
L 551.536081 305.069615 
L 555.78697 273.041383 
L 560.037859 247.066121 
L 564.288747 228.934891 
L 568.539636 219.238203 
L 572.790525 217.532369 
L 577.041414 222.637632 
L 581.292303 232.967757 
L 585.543191 246.816364 
L 589.79408 262.562076 
L 594.044969 278.787159 
L 598.295858 294.325237 
L 602.546746 308.261887 
L 606.797635 319.910905 
L 611.048524 328.783072 
L 615.299413 334.557106 
L 619.550302 337.056515 
L 623.80119 336.232202 
L 628.052079 332.148805 
L 632.302968 324.972461 
L 636.553857 314.958152 
L 640.804745 302.435577 
L 645.055634 287.793242 
L 649.306523 271.461031 
L 653.557412 253.89189 
L 662.059189 216.86051 
L 670.560967 180.113332 
L 674.811856 162.744447 
L 679.062744 146.414207 
L 683.313633 131.321018 
L 687.564522 117.599715 
L 691.815411 105.324375 
L 696.0663 94.513721 
L 700.317188 85.138518 
L 704.568077 77.130298 
L 708.818966 70.390713 
L 713.069855 64.800894 
L 717.320743 60.230228 
L 721.571632 56.544143 
L 725.822521 53.610574 
L 730.07341 51.30497 
L 734.324299 49.51381 
L 738.575187 48.136726 
L 742.826076 47.087397 
L 747.076965 46.293465 
L 751.327854 45.695703 
L 759.829631 44.909314 
L 768.331409 44.461988 
L 781.084075 44.111034 
L 798.08763 43.901428 
L 827.843852 43.772726 
L 827.843852 43.772726 
" style="fill:none;stroke:#c14168;stroke-linecap:square;stroke-width:1.5;"/>
   </g>
   <g id="line2d_17">
    <path clip-path="url(#p261d668754)" d="M 109.443648 43.771961 
L 151.952536 43.93807 
L 177.457869 44.24889 
L 194.461424 44.667044 
L 207.21409 45.174411 
L 219.966757 45.934445 
L 228.468534 46.634754 
L 236.970312 47.538024 
L 245.472089 48.695271 
L 253.973867 50.167363 
L 262.475644 52.025829 
L 266.726533 53.12534 
L 270.977422 54.353297 
L 275.228311 55.72174 
L 279.479199 57.243338 
L 283.730088 58.931337 
L 287.980977 60.799486 
L 292.231866 62.861936 
L 296.482755 65.133119 
L 300.733643 67.6276 
L 304.984532 70.359892 
L 309.235421 73.344246 
L 313.48631 76.5944 
L 317.737198 80.123302 
L 321.988087 83.942785 
L 326.238976 88.063218 
L 330.489865 92.493107 
L 334.740754 97.23868 
L 338.991642 102.303428 
L 343.242531 107.687627 
L 347.49342 113.387847 
L 351.744309 119.396443 
L 355.995197 125.701056 
L 360.246086 132.284126 
L 364.496975 139.122441 
L 372.998753 153.441354 
L 381.50053 168.345843 
L 394.253196 190.858209 
L 398.504085 198.139023 
L 402.754974 205.183202 
L 407.005863 211.910989 
L 411.256752 218.241861 
L 415.50764 224.096843 
L 419.758529 229.401332 
L 424.009418 234.088491 
L 428.260307 238.103231 
L 432.511195 241.406853 
L 436.762084 243.982345 
L 441.012973 245.840373 
L 445.263862 247.025927 
L 449.514751 247.625571 
L 453.765639 247.775162 
L 462.267417 247.56139 
L 466.518306 247.785553 
L 470.769194 248.745556 
L 475.020083 250.921765 
L 479.270972 254.860095 
L 483.521861 261.147592 
L 487.772749 270.364985 
L 492.023638 283.007299 
L 496.274527 299.366484 
L 500.525416 319.379257 
L 504.776305 342.460479 
L 513.278082 392.138734 
L 517.528971 414.227845 
L 521.77986 430.778108 
L 526.030748 439.112727 
L 530.281637 437.293495 
L 534.532526 424.618157 
L 538.783415 401.895883 
L 543.034304 371.396164 
L 551.536081 300.924438 
L 555.78697 268.384849 
L 560.037859 241.710042 
L 564.288747 222.683105 
L 568.539636 211.94419 
L 572.790525 209.140989 
L 577.041414 213.205321 
L 581.292303 222.662638 
L 585.543191 235.904078 
L 589.79408 251.384072 
L 598.295858 283.824945 
L 602.546746 298.741905 
L 606.797635 311.790126 
L 611.048524 322.451047 
L 615.299413 330.357254 
L 619.550302 335.270796 
L 623.80119 337.06792 
L 628.052079 335.728364 
L 632.302968 331.32686 
L 636.553857 324.024792 
L 640.804745 314.060673 
L 645.055634 301.73879 
L 649.306523 287.415972 
L 653.557412 271.48681 
L 657.808301 254.367914 
L 666.310078 218.242125 
L 674.811856 182.223617 
L 679.062744 165.10662 
L 683.313633 148.942243 
L 687.564522 133.928669 
L 691.815411 120.206 
L 696.0663 107.857891 
L 700.317188 96.915623 
L 704.568077 87.364138 
L 708.818966 79.149491 
L 713.069855 72.187115 
L 717.320743 66.370342 
L 721.571632 61.578631 
L 725.822521 57.685071 
L 730.07341 54.562832 
L 734.324299 52.090353 
L 738.575187 50.155183 
L 742.826076 48.656505 
L 747.076965 47.506468 
L 751.327854 46.630496 
L 755.578742 45.966816 
L 759.829631 45.465415 
L 768.331409 44.799749 
L 776.833186 44.413333 
L 789.585853 44.099775 
L 810.840296 43.873527 
L 840.596518 43.767273 
L 840.596518 43.767273 
" style="fill:none;stroke:#9a3670;stroke-linecap:square;stroke-width:1.5;"/>
   </g>
   <g id="line2d_18">
    <path clip-path="url(#p261d668754)" d="M 88.189205 43.770395 
L 134.948981 43.945525 
L 160.454314 44.243149 
L 177.457869 44.630002 
L 190.210535 45.088718 
L 202.963201 45.763123 
L 211.464979 46.375775 
L 219.966757 47.157535 
L 228.468534 48.149204 
L 236.970312 49.399295 
L 245.472089 50.964745 
L 253.973867 52.911409 
L 258.224756 54.05076 
L 262.475644 55.314205 
L 266.726533 56.712464 
L 270.977422 58.256741 
L 275.228311 59.958671 
L 279.479199 61.830249 
L 283.730088 63.883741 
L 287.980977 66.131581 
L 292.231866 68.586239 
L 296.482755 71.260068 
L 300.733643 74.165129 
L 304.984532 77.312987 
L 309.235421 80.714482 
L 313.48631 84.379469 
L 317.737198 88.316539 
L 321.988087 92.532703 
L 326.238976 97.033062 
L 330.489865 101.820447 
L 334.740754 106.895043 
L 338.991642 112.254005 
L 343.242531 117.891056 
L 347.49342 123.796098 
L 351.744309 129.954824 
L 355.995197 136.348356 
L 364.496975 149.73957 
L 372.998753 163.716301 
L 390.002308 191.979228 
L 394.253196 198.778904 
L 398.504085 205.342519 
L 402.754974 211.601036 
L 407.005863 217.485269 
L 411.256752 222.927804 
L 415.50764 227.865333 
L 419.758529 232.241399 
L 424.009418 236.009628 
L 428.260307 239.137436 
L 432.511195 241.610256 
L 436.762084 243.436288 
L 441.012973 244.651749 
L 445.263862 245.326606 
L 449.514751 245.570678 
L 462.267417 245.546581 
L 466.518306 246.180251 
L 470.769194 247.738264 
L 475.020083 250.676464 
L 479.270972 255.500661 
L 483.521861 262.740862 
L 487.772749 272.904081 
L 492.023638 286.397868 
L 496.274527 303.41969 
L 500.525416 323.816048 
L 504.776305 346.931166 
L 513.278082 395.542541 
L 517.528971 416.620472 
L 521.77986 431.986918 
L 526.030748 439.112727 
L 530.281637 436.200396 
L 534.532526 422.647064 
L 538.783415 399.295646 
L 543.034304 368.378223 
L 551.536081 297.3085 
L 555.78697 264.363945 
L 560.037859 237.110341 
L 564.288747 217.316709 
L 568.539636 205.660828 
L 572.790525 201.866128 
L 577.041414 204.959569 
L 581.292303 213.563625 
L 585.543191 226.155802 
L 589.79408 241.259643 
L 598.295858 273.949201 
L 602.546746 289.537699 
L 606.797635 303.626984 
L 611.048524 315.68373 
L 615.299413 325.311743 
L 619.550302 332.23085 
L 623.80119 336.262676 
L 628.052079 337.321692 
L 632.302968 335.409198 
L 636.553857 330.608094 
L 640.804745 323.076917 
L 645.055634 313.042246 
L 649.306523 300.789197 
L 653.557412 286.650057 
L 657.808301 270.99147 
L 662.059189 254.200658 
L 670.560967 218.789936 
L 679.062744 183.404989 
L 683.313633 166.530862 
L 687.564522 150.547364 
L 691.815411 135.649627 
L 696.0663 121.9793 
L 700.317188 109.625374 
L 704.568077 98.627284 
L 708.818966 88.979903 
L 713.069855 80.639981 
L 717.320743 73.533515 
L 721.571632 67.563539 
L 725.822521 62.617827 
L 730.07341 58.576087 
L 734.324299 55.316313 
L 738.575187 52.720029 
L 742.826076 50.676336 
L 747.076965 49.08471 
L 751.327854 47.856645 
L 755.578742 46.916277 
L 759.829631 46.200184 
L 764.08052 45.656569 
L 772.582297 44.930209 
L 781.084075 44.505068 
L 793.836741 44.156813 
L 815.091185 43.901247 
L 849.098295 43.768912 
L 849.098295 43.768912 
" style="fill:none;stroke:#722c6e;stroke-linecap:square;stroke-width:1.5;"/>
   </g>
   <g id="patch_3">
    <path d="M 50.14375 458.88 
L 50.14375 24 
" style="fill:none;stroke:#000000;stroke-linecap:square;stroke-linejoin:miter;stroke-width:0.8;"/>
   </g>
   <g id="patch_4">
    <path d="M 887.14375 458.88 
L 887.14375 24 
" style="fill:none;stroke:#000000;stroke-linecap:square;stroke-linejoin:miter;stroke-width:0.8;"/>
   </g>
   <g id="patch_5">
    <path d="M 50.14375 458.88 
L 887.14375 458.88 
" style="fill:none;stroke:#000000;stroke-linecap:square;stroke-linejoin:miter;stroke-width:0.8;"/>
   </g>
   <g id="patch_6">
    <path d="M 50.14375 24 
L 887.14375 24 
" style="fill:none;stroke:#000000;stroke-linecap:square;stroke-linejoin:miter;stroke-width:0.8;"/>
   </g>
   <g id="text_16">
    <!-- B = 0.01913  $\Delta B =$ -0.85% ,  $\Delta C =$ -0.85% , $\zeta  = $-0.46, $\sigma = $0.1358$cm^{-1}$ -->
    <g transform="translate(258.58375 18)scale(0.12 -0.12)">
     <defs>
      <path d="M 1259 2228 
L 1259 519 
L 2272 519 
Q 2781 519 3026 730 
Q 3272 941 3272 1375 
Q 3272 1813 3026 2020 
Q 2781 2228 2272 2228 
L 1259 2228 
z
M 1259 4147 
L 1259 2741 
L 2194 2741 
Q 2656 2741 2882 2914 
Q 3109 3088 3109 3444 
Q 3109 3797 2882 3972 
Q 2656 4147 2194 4147 
L 1259 4147 
z
M 628 4666 
L 2241 4666 
Q 2963 4666 3353 4366 
Q 3744 4066 3744 3513 
Q 3744 3084 3544 2831 
Q 3344 2578 2956 2516 
Q 3422 2416 3680 2098 
Q 3938 1781 3938 1306 
Q 3938 681 3513 340 
Q 3088 0 2303 0 
L 628 0 
L 628 4666 
z
" id="DejaVuSans-42" transform="scale(0.015625)"/>
      <path d="M 678 2906 
L 4684 2906 
L 4684 2381 
L 678 2381 
L 678 2906 
z
M 678 1631 
L 4684 1631 
L 4684 1100 
L 678 1100 
L 678 1631 
z
" id="DejaVuSans-3d" transform="scale(0.015625)"/>
      <path d="M 2188 4044 
L 906 525 
L 3472 525 
L 2188 4044 
z
M 50 0 
L 1831 4666 
L 2547 4666 
L 4325 0 
L 50 0 
z
" id="DejaVuSans-394" transform="scale(0.015625)"/>
      <path d="M 1081 4666 
L 2694 4666 
Q 3350 4666 3675 4422 
Q 4000 4178 4000 3688 
Q 4000 3238 3720 2911 
Q 3441 2584 2988 2516 
Q 3375 2428 3569 2181 
Q 3763 1934 3763 1522 
Q 3763 819 3242 409 
Q 2722 0 1819 0 
L 172 0 
L 1081 4666 
z
M 1234 2228 
L 903 519 
L 1919 519 
Q 2491 519 2800 781 
Q 3109 1044 3109 1522 
Q 3109 1891 2904 2059 
Q 2700 2228 2247 2228 
L 1234 2228 
z
M 1606 4147 
L 1331 2741 
L 2272 2741 
Q 2775 2741 3058 2959 
Q 3341 3178 3341 3566 
Q 3341 3869 3150 4008 
Q 2959 4147 2541 4147 
L 1606 4147 
z
" id="DejaVuSans-Oblique-42" transform="scale(0.015625)"/>
      <path d="M 313 2009 
L 1997 2009 
L 1997 1497 
L 313 1497 
L 313 2009 
z
" id="DejaVuSans-2d" transform="scale(0.015625)"/>
      <path d="M 691 4666 
L 3169 4666 
L 3169 4134 
L 1269 4134 
L 1269 2991 
Q 1406 3038 1543 3061 
Q 1681 3084 1819 3084 
Q 2600 3084 3056 2656 
Q 3513 2228 3513 1497 
Q 3513 744 3044 326 
Q 2575 -91 1722 -91 
Q 1428 -91 1123 -41 
Q 819 9 494 109 
L 494 744 
Q 775 591 1075 516 
Q 1375 441 1709 441 
Q 2250 441 2565 725 
Q 2881 1009 2881 1497 
Q 2881 1984 2565 2268 
Q 2250 2553 1709 2553 
Q 1456 2553 1204 2497 
Q 953 2441 691 2322 
L 691 4666 
z
" id="DejaVuSans-35" transform="scale(0.015625)"/>
      <path d="M 4653 2053 
Q 4381 2053 4226 1822 
Q 4072 1591 4072 1178 
Q 4072 772 4226 539 
Q 4381 306 4653 306 
Q 4919 306 5073 539 
Q 5228 772 5228 1178 
Q 5228 1588 5073 1820 
Q 4919 2053 4653 2053 
z
M 4653 2450 
Q 5147 2450 5437 2106 
Q 5728 1763 5728 1178 
Q 5728 594 5436 251 
Q 5144 -91 4653 -91 
Q 4153 -91 3862 251 
Q 3572 594 3572 1178 
Q 3572 1766 3864 2108 
Q 4156 2450 4653 2450 
z
M 1428 4353 
Q 1159 4353 1004 4120 
Q 850 3888 850 3481 
Q 850 3069 1003 2837 
Q 1156 2606 1428 2606 
Q 1700 2606 1854 2837 
Q 2009 3069 2009 3481 
Q 2009 3884 1853 4118 
Q 1697 4353 1428 4353 
z
M 4250 4750 
L 4750 4750 
L 1831 -91 
L 1331 -91 
L 4250 4750 
z
M 1428 4750 
Q 1922 4750 2215 4408 
Q 2509 4066 2509 3481 
Q 2509 2891 2217 2550 
Q 1925 2209 1428 2209 
Q 931 2209 642 2551 
Q 353 2894 353 3481 
Q 353 4063 643 4406 
Q 934 4750 1428 4750 
z
" id="DejaVuSans-25" transform="scale(0.015625)"/>
      <path d="M 750 794 
L 1409 794 
L 1409 256 
L 897 -744 
L 494 -744 
L 750 256 
L 750 794 
z
" id="DejaVuSans-2c" transform="scale(0.015625)"/>
      <path d="M 4447 4306 
L 4319 3641 
Q 4019 3944 3683 4091 
Q 3347 4238 2956 4238 
Q 2422 4238 2017 3981 
Q 1613 3725 1319 3200 
Q 1131 2863 1032 2486 
Q 934 2109 934 1728 
Q 934 1091 1264 756 
Q 1594 422 2222 422 
Q 2656 422 3056 561 
Q 3456 700 3834 978 
L 3688 231 
Q 3316 72 2936 -9 
Q 2556 -91 2175 -91 
Q 1278 -91 773 396 
Q 269 884 269 1753 
Q 269 2309 461 2846 
Q 653 3384 1013 3828 
Q 1394 4300 1883 4525 
Q 2372 4750 3022 4750 
Q 3422 4750 3780 4639 
Q 4138 4528 4447 4306 
z
" id="DejaVuSans-Oblique-43" transform="scale(0.015625)"/>
      <path d="M 1966 397 
Q 2378 394 2578 159 
Q 2794 -88 2722 -463 
Q 2650 -822 2372 -1072 
Q 2069 -1344 1559 -1344 
Q 1606 -1109 1650 -872 
Q 1863 -888 2022 -750 
Q 2144 -641 2166 -525 
Q 2197 -359 2125 -222 
Q 2050 -91 1872 -91 
Q -22 -91 316 1669 
Q 616 3206 2609 4284 
L 947 4284 
L 1059 4863 
L 3778 4863 
L 3666 4284 
Q 1181 3147 894 1669 
Q 647 397 1966 397 
z
" id="DejaVuSans-Oblique-3b6" transform="scale(0.015625)"/>
      <path d="M 2219 3044 
Q 1744 3044 1422 2700 
Q 1081 2341 969 1747 
Q 844 1119 1044 756 
Q 1241 397 1706 397 
Q 2166 397 2503 759 
Q 2844 1122 2966 1747 
Q 3075 2319 2881 2700 
Q 2700 3044 2219 3044 
z
M 2309 3503 
L 4219 3500 
L 4106 2925 
L 3463 2925 
Q 3706 2438 3575 1747 
Q 3406 888 2884 400 
Q 2359 -91 1609 -91 
Q 856 -91 525 400 
Q 194 888 363 1747 
Q 528 2609 1050 3097 
Q 1484 3503 2309 3503 
z
" id="DejaVuSans-Oblique-3c3" transform="scale(0.015625)"/>
     </defs>
     <use transform="translate(0 0.684375)" xlink:href="#DejaVuSans-42"/>
     <use transform="translate(68.603516 0.684375)" xlink:href="#DejaVuSans-20"/>
     <use transform="translate(100.390625 0.684375)" xlink:href="#DejaVuSans-3d"/>
     <use transform="translate(184.179688 0.684375)" xlink:href="#DejaVuSans-20"/>
     <use transform="translate(215.966797 0.684375)" xlink:href="#DejaVuSans-30"/>
     <use transform="translate(279.589844 0.684375)" xlink:href="#DejaVuSans-2e"/>
     <use transform="translate(311.376953 0.684375)" xlink:href="#DejaVuSans-30"/>
     <use transform="translate(375 0.684375)" xlink:href="#DejaVuSans-31"/>
     <use transform="translate(438.623047 0.684375)" xlink:href="#DejaVuSans-39"/>
     <use transform="translate(502.246094 0.684375)" xlink:href="#DejaVuSans-31"/>
     <use transform="translate(565.869141 0.684375)" xlink:href="#DejaVuSans-33"/>
     <use transform="translate(629.492188 0.684375)" xlink:href="#DejaVuSans-20"/>
     <use transform="translate(661.279297 0.684375)" xlink:href="#DejaVuSans-20"/>
     <use transform="translate(693.066406 0.684375)" xlink:href="#DejaVuSans-394"/>
     <use transform="translate(761.474609 0.684375)" xlink:href="#DejaVuSans-Oblique-42"/>
     <use transform="translate(849.560547 0.684375)" xlink:href="#DejaVuSans-3d"/>
     <use transform="translate(952.832031 0.684375)" xlink:href="#DejaVuSans-20"/>
     <use transform="translate(984.619141 0.684375)" xlink:href="#DejaVuSans-2d"/>
     <use transform="translate(1020.703125 0.684375)" xlink:href="#DejaVuSans-30"/>
     <use transform="translate(1084.326172 0.684375)" xlink:href="#DejaVuSans-2e"/>
     <use transform="translate(1113.488281 0.684375)" xlink:href="#DejaVuSans-38"/>
     <use transform="translate(1177.111328 0.684375)" xlink:href="#DejaVuSans-35"/>
     <use transform="translate(1240.734375 0.684375)" xlink:href="#DejaVuSans-25"/>
     <use transform="translate(1335.753906 0.684375)" xlink:href="#DejaVuSans-20"/>
     <use transform="translate(1367.541016 0.684375)" xlink:href="#DejaVuSans-2c"/>
     <use transform="translate(1399.328125 0.684375)" xlink:href="#DejaVuSans-20"/>
     <use transform="translate(1431.115234 0.684375)" xlink:href="#DejaVuSans-20"/>
     <use transform="translate(1462.902344 0.684375)" xlink:href="#DejaVuSans-394"/>
     <use transform="translate(1531.310547 0.684375)" xlink:href="#DejaVuSans-Oblique-43"/>
     <use transform="translate(1620.617188 0.684375)" xlink:href="#DejaVuSans-3d"/>
     <use transform="translate(1723.888672 0.684375)" xlink:href="#DejaVuSans-20"/>
     <use transform="translate(1755.675781 0.684375)" xlink:href="#DejaVuSans-2d"/>
     <use transform="translate(1791.759766 0.684375)" xlink:href="#DejaVuSans-30"/>
     <use transform="translate(1855.382812 0.684375)" xlink:href="#DejaVuSans-2e"/>
     <use transform="translate(1884.544922 0.684375)" xlink:href="#DejaVuSans-38"/>
     <use transform="translate(1948.167969 0.684375)" xlink:href="#DejaVuSans-35"/>
     <use transform="translate(2011.791016 0.684375)" xlink:href="#DejaVuSans-25"/>
     <use transform="translate(2106.810547 0.684375)" xlink:href="#DejaVuSans-20"/>
     <use transform="translate(2138.597656 0.684375)" xlink:href="#DejaVuSans-2c"/>
     <use transform="translate(2170.384766 0.684375)" xlink:href="#DejaVuSans-20"/>
     <use transform="translate(2202.171875 0.684375)" xlink:href="#DejaVuSans-Oblique-3b6"/>
     <use transform="translate(2276.048828 0.684375)" xlink:href="#DejaVuSans-3d"/>
     <use transform="translate(2379.320312 0.684375)" xlink:href="#DejaVuSans-2d"/>
     <use transform="translate(2415.404297 0.684375)" xlink:href="#DejaVuSans-30"/>
     <use transform="translate(2479.027344 0.684375)" xlink:href="#DejaVuSans-2e"/>
     <use transform="translate(2510.814453 0.684375)" xlink:href="#DejaVuSans-34"/>
     <use transform="translate(2574.4375 0.684375)" xlink:href="#DejaVuSans-36"/>
     <use transform="translate(2638.060547 0.684375)" xlink:href="#DejaVuSans-2c"/>
     <use transform="translate(2669.847656 0.684375)" xlink:href="#DejaVuSans-20"/>
     <use transform="translate(2701.634766 0.684375)" xlink:href="#DejaVuSans-Oblique-3c3"/>
     <use transform="translate(2784.496094 0.684375)" xlink:href="#DejaVuSans-3d"/>
     <use transform="translate(2887.767578 0.684375)" xlink:href="#DejaVuSans-30"/>
     <use transform="translate(2951.390625 0.684375)" xlink:href="#DejaVuSans-2e"/>
     <use transform="translate(2983.177734 0.684375)" xlink:href="#DejaVuSans-31"/>
     <use transform="translate(3046.800781 0.684375)" xlink:href="#DejaVuSans-33"/>
     <use transform="translate(3110.423828 0.684375)" xlink:href="#DejaVuSans-35"/>
     <use transform="translate(3174.046875 0.684375)" xlink:href="#DejaVuSans-38"/>
     <use transform="translate(3237.669922 0.684375)" xlink:href="#DejaVuSans-Oblique-63"/>
     <use transform="translate(3292.650391 0.684375)" xlink:href="#DejaVuSans-Oblique-6d"/>
     <use transform="translate(3394.712396 38.965625)scale(0.7)" xlink:href="#DejaVuSans-2212"/>
     <use transform="translate(3453.36474 38.965625)scale(0.7)" xlink:href="#DejaVuSans-31"/>
    </g>
   </g>
   <g id="legend_1">
    <g id="patch_7">
     <path d="M 57.14375 453.88 
L 232.479688 453.88 
Q 234.479688 453.88 234.479688 451.88 
L 234.479688 363.689375 
Q 234.479688 361.689375 232.479688 361.689375 
L 57.14375 361.689375 
Q 55.14375 361.689375 55.14375 363.689375 
L 55.14375 451.88 
Q 55.14375 453.88 57.14375 453.88 
z
" style="fill:#ffffff;opacity:0.8;stroke:#cccccc;stroke-linejoin:miter;"/>
    </g>
    <g id="text_17">
     <!-- $T_{rot}$ (in K),   $\Delta \nu_{PR}$  (in $cm^{-1}$) -->
     <g transform="translate(78.111719 374.409687)scale(0.1 -0.1)">
      <defs>
       <path d="M 378 4666 
L 4325 4666 
L 4225 4134 
L 2559 4134 
L 1759 0 
L 1125 0 
L 1925 4134 
L 275 4134 
L 378 4666 
z
" id="DejaVuSans-Oblique-54" transform="scale(0.015625)"/>
       <path d="M 2853 2969 
Q 2766 3016 2653 3041 
Q 2541 3066 2413 3066 
Q 1953 3066 1609 2717 
Q 1266 2369 1153 1784 
L 800 0 
L 225 0 
L 909 3500 
L 1484 3500 
L 1375 2956 
Q 1603 3259 1920 3421 
Q 2238 3584 2597 3584 
Q 2691 3584 2781 3573 
Q 2872 3563 2963 3538 
L 2853 2969 
z
" id="DejaVuSans-Oblique-72" transform="scale(0.015625)"/>
       <path d="M 1625 -91 
Q 1009 -91 651 289 
Q 294 669 294 1325 
Q 294 1706 417 2101 
Q 541 2497 738 2766 
Q 1047 3184 1428 3384 
Q 1809 3584 2291 3584 
Q 2888 3584 3255 3212 
Q 3622 2841 3622 2241 
Q 3622 1825 3500 1412 
Q 3378 1000 3181 728 
Q 2875 309 2494 109 
Q 2113 -91 1625 -91 
z
M 891 1344 
Q 891 869 1089 633 
Q 1288 397 1691 397 
Q 2269 397 2648 901 
Q 3028 1406 3028 2181 
Q 3028 2634 2825 2865 
Q 2622 3097 2228 3097 
Q 1903 3097 1650 2945 
Q 1397 2794 1197 2484 
Q 1050 2253 970 1956 
Q 891 1659 891 1344 
z
" id="DejaVuSans-Oblique-6f" transform="scale(0.015625)"/>
       <path d="M 2706 3500 
L 2619 3053 
L 1472 3053 
L 1100 1153 
Q 1081 1047 1072 975 
Q 1063 903 1063 863 
Q 1063 663 1183 572 
Q 1303 481 1569 481 
L 2150 481 
L 2053 0 
L 1503 0 
Q 991 0 739 200 
Q 488 400 488 806 
Q 488 878 497 964 
Q 506 1050 525 1153 
L 897 3053 
L 409 3053 
L 500 3500 
L 978 3500 
L 1172 4494 
L 1747 4494 
L 1556 3500 
L 2706 3500 
z
" id="DejaVuSans-Oblique-74" transform="scale(0.015625)"/>
       <path d="M 628 4666 
L 1259 4666 
L 1259 2694 
L 3353 4666 
L 4166 4666 
L 1850 2491 
L 4331 0 
L 3500 0 
L 1259 2247 
L 1259 0 
L 628 0 
L 628 4666 
z
" id="DejaVuSans-4b" transform="scale(0.015625)"/>
       <path d="M 959 0 
L 572 3500 
L 1191 3500 
L 1522 563 
Q 1972 950 2391 1488 
Q 2706 1891 2788 2241 
Q 2825 2406 2809 2719 
Q 2794 3091 2544 3500 
L 3125 3500 
L 3125 3500 
Q 3288 3222 3353 2834 
Q 3416 2478 3369 2234 
Q 3250 1622 2719 1075 
Q 2025 363 1572 0 
L 959 0 
z
" id="DejaVuSans-Oblique-3bd" transform="scale(0.015625)"/>
       <path d="M 1081 4666 
L 2541 4666 
Q 3178 4666 3512 4369 
Q 3847 4072 3847 3500 
Q 3847 2731 3353 2303 
Q 2859 1875 1966 1875 
L 1172 1875 
L 806 0 
L 172 0 
L 1081 4666 
z
M 1613 4147 
L 1275 2394 
L 2069 2394 
Q 2606 2394 2893 2669 
Q 3181 2944 3181 3456 
Q 3181 3784 2986 3965 
Q 2791 4147 2438 4147 
L 1613 4147 
z
" id="DejaVuSans-Oblique-50" transform="scale(0.015625)"/>
       <path d="M 1613 4147 
L 1294 2491 
L 2106 2491 
Q 2584 2491 2879 2755 
Q 3175 3019 3175 3444 
Q 3175 3784 2976 3965 
Q 2778 4147 2406 4147 
L 1613 4147 
z
M 2772 2241 
Q 2972 2194 3105 2009 
Q 3238 1825 3413 1275 
L 3809 0 
L 3144 0 
L 2778 1197 
Q 2638 1659 2453 1815 
Q 2269 1972 1888 1972 
L 1191 1972 
L 806 0 
L 172 0 
L 1081 4666 
L 2503 4666 
Q 3150 4666 3495 4373 
Q 3841 4081 3841 3531 
Q 3841 3044 3547 2687 
Q 3253 2331 2772 2241 
z
" id="DejaVuSans-Oblique-52" transform="scale(0.015625)"/>
      </defs>
      <use transform="translate(0 0.684375)" xlink:href="#DejaVuSans-Oblique-54"/>
      <use transform="translate(61.083984 -15.721875)scale(0.7)" xlink:href="#DejaVuSans-Oblique-72"/>
      <use transform="translate(89.863281 -15.721875)scale(0.7)" xlink:href="#DejaVuSans-Oblique-6f"/>
      <use transform="translate(132.69043 -15.721875)scale(0.7)" xlink:href="#DejaVuSans-Oblique-74"/>
      <use transform="translate(162.871094 0.684375)" xlink:href="#DejaVuSans-20"/>
      <use transform="translate(194.658203 0.684375)" xlink:href="#DejaVuSans-28"/>
      <use transform="translate(233.671875 0.684375)" xlink:href="#DejaVuSans-69"/>
      <use transform="translate(261.455078 0.684375)" xlink:href="#DejaVuSans-6e"/>
      <use transform="translate(324.833984 0.684375)" xlink:href="#DejaVuSans-20"/>
      <use transform="translate(356.621094 0.684375)" xlink:href="#DejaVuSans-4b"/>
      <use transform="translate(422.197266 0.684375)" xlink:href="#DejaVuSans-29"/>
      <use transform="translate(461.210938 0.684375)" xlink:href="#DejaVuSans-2c"/>
      <use transform="translate(492.998047 0.684375)" xlink:href="#DejaVuSans-20"/>
      <use transform="translate(524.785156 0.684375)" xlink:href="#DejaVuSans-20"/>
      <use transform="translate(556.572266 0.684375)" xlink:href="#DejaVuSans-20"/>
      <use transform="translate(588.359375 0.684375)" xlink:href="#DejaVuSans-394"/>
      <use transform="translate(656.767578 0.684375)" xlink:href="#DejaVuSans-Oblique-3bd"/>
      <use transform="translate(712.626953 -15.721875)scale(0.7)" xlink:href="#DejaVuSans-Oblique-50"/>
      <use transform="translate(754.838867 -15.721875)scale(0.7)" xlink:href="#DejaVuSans-Oblique-52"/>
      <use transform="translate(806.210938 0.684375)" xlink:href="#DejaVuSans-20"/>
      <use transform="translate(837.998047 0.684375)" xlink:href="#DejaVuSans-20"/>
      <use transform="translate(869.785156 0.684375)" xlink:href="#DejaVuSans-28"/>
      <use transform="translate(908.798828 0.684375)" xlink:href="#DejaVuSans-69"/>
      <use transform="translate(936.582031 0.684375)" xlink:href="#DejaVuSans-6e"/>
      <use transform="translate(999.960938 0.684375)" xlink:href="#DejaVuSans-20"/>
      <use transform="translate(1031.748047 0.684375)" xlink:href="#DejaVuSans-Oblique-63"/>
      <use transform="translate(1086.728516 0.684375)" xlink:href="#DejaVuSans-Oblique-6d"/>
      <use transform="translate(1188.790521 38.965625)scale(0.7)" xlink:href="#DejaVuSans-2212"/>
      <use transform="translate(1247.442865 38.965625)scale(0.7)" xlink:href="#DejaVuSans-31"/>
      <use transform="translate(1294.713372 0.684375)" xlink:href="#DejaVuSans-29"/>
     </g>
    </g>
    <g id="line2d_19">
     <path d="M 59.14375 385.587812 
L 79.14375 385.587812 
" style="fill:none;stroke:#e98768;stroke-linecap:square;stroke-width:1.5;"/>
    </g>
    <g id="line2d_20"/>
    <g id="text_18">
     <!-- 9.5 K, 1.2697034622956964 -->
     <g transform="translate(87.14375 389.087812)scale(0.1 -0.1)">
      <defs>
       <path d="M 525 4666 
L 3525 4666 
L 3525 4397 
L 1831 0 
L 1172 0 
L 2766 4134 
L 525 4134 
L 525 4666 
z
" id="DejaVuSans-37" transform="scale(0.015625)"/>
      </defs>
      <use xlink:href="#DejaVuSans-39"/>
      <use x="63.623047" xlink:href="#DejaVuSans-2e"/>
      <use x="95.410156" xlink:href="#DejaVuSans-35"/>
      <use x="159.033203" xlink:href="#DejaVuSans-20"/>
      <use x="190.820312" xlink:href="#DejaVuSans-4b"/>
      <use x="256.396484" xlink:href="#DejaVuSans-2c"/>
      <use x="288.183594" xlink:href="#DejaVuSans-20"/>
      <use x="319.970703" xlink:href="#DejaVuSans-31"/>
      <use x="383.59375" xlink:href="#DejaVuSans-2e"/>
      <use x="415.380859" xlink:href="#DejaVuSans-32"/>
      <use x="479.003906" xlink:href="#DejaVuSans-36"/>
      <use x="542.626953" xlink:href="#DejaVuSans-39"/>
      <use x="606.25" xlink:href="#DejaVuSans-37"/>
      <use x="669.873047" xlink:href="#DejaVuSans-30"/>
      <use x="733.496094" xlink:href="#DejaVuSans-33"/>
      <use x="797.119141" xlink:href="#DejaVuSans-34"/>
      <use x="860.742188" xlink:href="#DejaVuSans-36"/>
      <use x="924.365234" xlink:href="#DejaVuSans-32"/>
      <use x="987.988281" xlink:href="#DejaVuSans-32"/>
      <use x="1051.611328" xlink:href="#DejaVuSans-39"/>
      <use x="1115.234375" xlink:href="#DejaVuSans-35"/>
      <use x="1178.857422" xlink:href="#DejaVuSans-36"/>
      <use x="1242.480469" xlink:href="#DejaVuSans-39"/>
      <use x="1306.103516" xlink:href="#DejaVuSans-36"/>
      <use x="1369.726562" xlink:href="#DejaVuSans-34"/>
     </g>
    </g>
    <g id="line2d_21">
     <path d="M 59.14375 400.265937 
L 79.14375 400.265937 
" style="fill:none;stroke:#de5d5c;stroke-linecap:square;stroke-width:1.5;"/>
    </g>
    <g id="line2d_22"/>
    <g id="text_19">
     <!-- 10 K, 1.30452974182828 -->
     <g transform="translate(87.14375 403.765937)scale(0.1 -0.1)">
      <use xlink:href="#DejaVuSans-31"/>
      <use x="63.623047" xlink:href="#DejaVuSans-30"/>
      <use x="127.246094" xlink:href="#DejaVuSans-20"/>
      <use x="159.033203" xlink:href="#DejaVuSans-4b"/>
      <use x="224.609375" xlink:href="#DejaVuSans-2c"/>
      <use x="256.396484" xlink:href="#DejaVuSans-20"/>
      <use x="288.183594" xlink:href="#DejaVuSans-31"/>
      <use x="351.806641" xlink:href="#DejaVuSans-2e"/>
      <use x="383.59375" xlink:href="#DejaVuSans-33"/>
      <use x="447.216797" xlink:href="#DejaVuSans-30"/>
      <use x="510.839844" xlink:href="#DejaVuSans-34"/>
      <use x="574.462891" xlink:href="#DejaVuSans-35"/>
      <use x="638.085938" xlink:href="#DejaVuSans-32"/>
      <use x="701.708984" xlink:href="#DejaVuSans-39"/>
      <use x="765.332031" xlink:href="#DejaVuSans-37"/>
      <use x="828.955078" xlink:href="#DejaVuSans-34"/>
      <use x="892.578125" xlink:href="#DejaVuSans-31"/>
      <use x="956.201172" xlink:href="#DejaVuSans-38"/>
      <use x="1019.824219" xlink:href="#DejaVuSans-32"/>
      <use x="1083.447266" xlink:href="#DejaVuSans-38"/>
      <use x="1147.070312" xlink:href="#DejaVuSans-32"/>
      <use x="1210.693359" xlink:href="#DejaVuSans-38"/>
     </g>
    </g>
    <g id="line2d_23">
     <path d="M 59.14375 414.944062 
L 79.14375 414.944062 
" style="fill:none;stroke:#c14168;stroke-linecap:square;stroke-width:1.5;"/>
    </g>
    <g id="line2d_24"/>
    <g id="text_20">
     <!-- 11 K, 1.3676398572771467 -->
     <g transform="translate(87.14375 418.444062)scale(0.1 -0.1)">
      <use xlink:href="#DejaVuSans-31"/>
      <use x="63.623047" xlink:href="#DejaVuSans-31"/>
      <use x="127.246094" xlink:href="#DejaVuSans-20"/>
      <use x="159.033203" xlink:href="#DejaVuSans-4b"/>
      <use x="224.609375" xlink:href="#DejaVuSans-2c"/>
      <use x="256.396484" xlink:href="#DejaVuSans-20"/>
      <use x="288.183594" xlink:href="#DejaVuSans-31"/>
      <use x="351.806641" xlink:href="#DejaVuSans-2e"/>
      <use x="383.59375" xlink:href="#DejaVuSans-33"/>
      <use x="447.216797" xlink:href="#DejaVuSans-36"/>
      <use x="510.839844" xlink:href="#DejaVuSans-37"/>
      <use x="574.462891" xlink:href="#DejaVuSans-36"/>
      <use x="638.085938" xlink:href="#DejaVuSans-33"/>
      <use x="701.708984" xlink:href="#DejaVuSans-39"/>
      <use x="765.332031" xlink:href="#DejaVuSans-38"/>
      <use x="828.955078" xlink:href="#DejaVuSans-35"/>
      <use x="892.578125" xlink:href="#DejaVuSans-37"/>
      <use x="956.201172" xlink:href="#DejaVuSans-32"/>
      <use x="1019.824219" xlink:href="#DejaVuSans-37"/>
      <use x="1083.447266" xlink:href="#DejaVuSans-37"/>
      <use x="1147.070312" xlink:href="#DejaVuSans-31"/>
      <use x="1210.693359" xlink:href="#DejaVuSans-34"/>
      <use x="1274.316406" xlink:href="#DejaVuSans-36"/>
      <use x="1337.939453" xlink:href="#DejaVuSans-37"/>
     </g>
    </g>
    <g id="line2d_25">
     <path d="M 59.14375 429.622187 
L 79.14375 429.622187 
" style="fill:none;stroke:#9a3670;stroke-linecap:square;stroke-width:1.5;"/>
    </g>
    <g id="line2d_26"/>
    <g id="text_21">
     <!-- 12 K, 1.4239598744996296 -->
     <g transform="translate(87.14375 433.122187)scale(0.1 -0.1)">
      <use xlink:href="#DejaVuSans-31"/>
      <use x="63.623047" xlink:href="#DejaVuSans-32"/>
      <use x="127.246094" xlink:href="#DejaVuSans-20"/>
      <use x="159.033203" xlink:href="#DejaVuSans-4b"/>
      <use x="224.609375" xlink:href="#DejaVuSans-2c"/>
      <use x="256.396484" xlink:href="#DejaVuSans-20"/>
      <use x="288.183594" xlink:href="#DejaVuSans-31"/>
      <use x="351.806641" xlink:href="#DejaVuSans-2e"/>
      <use x="383.59375" xlink:href="#DejaVuSans-34"/>
      <use x="447.216797" xlink:href="#DejaVuSans-32"/>
      <use x="510.839844" xlink:href="#DejaVuSans-33"/>
      <use x="574.462891" xlink:href="#DejaVuSans-39"/>
      <use x="638.085938" xlink:href="#DejaVuSans-35"/>
      <use x="701.708984" xlink:href="#DejaVuSans-39"/>
      <use x="765.332031" xlink:href="#DejaVuSans-38"/>
      <use x="828.955078" xlink:href="#DejaVuSans-37"/>
      <use x="892.578125" xlink:href="#DejaVuSans-34"/>
      <use x="956.201172" xlink:href="#DejaVuSans-34"/>
      <use x="1019.824219" xlink:href="#DejaVuSans-39"/>
      <use x="1083.447266" xlink:href="#DejaVuSans-39"/>
      <use x="1147.070312" xlink:href="#DejaVuSans-36"/>
      <use x="1210.693359" xlink:href="#DejaVuSans-32"/>
      <use x="1274.316406" xlink:href="#DejaVuSans-39"/>
      <use x="1337.939453" xlink:href="#DejaVuSans-36"/>
     </g>
    </g>
    <g id="line2d_27">
     <path d="M 59.14375 444.300312 
L 79.14375 444.300312 
" style="fill:none;stroke:#722c6e;stroke-linecap:square;stroke-width:1.5;"/>
    </g>
    <g id="line2d_28"/>
    <g id="text_22">
     <!-- 13 K, 1.4765617379455782 -->
     <g transform="translate(87.14375 447.800312)scale(0.1 -0.1)">
      <use xlink:href="#DejaVuSans-31"/>
      <use x="63.623047" xlink:href="#DejaVuSans-33"/>
      <use x="127.246094" xlink:href="#DejaVuSans-20"/>
      <use x="159.033203" xlink:href="#DejaVuSans-4b"/>
      <use x="224.609375" xlink:href="#DejaVuSans-2c"/>
      <use x="256.396484" xlink:href="#DejaVuSans-20"/>
      <use x="288.183594" xlink:href="#DejaVuSans-31"/>
      <use x="351.806641" xlink:href="#DejaVuSans-2e"/>
      <use x="383.59375" xlink:href="#DejaVuSans-34"/>
      <use x="447.216797" xlink:href="#DejaVuSans-37"/>
      <use x="510.839844" xlink:href="#DejaVuSans-36"/>
      <use x="574.462891" xlink:href="#DejaVuSans-35"/>
      <use x="638.085938" xlink:href="#DejaVuSans-36"/>
      <use x="701.708984" xlink:href="#DejaVuSans-31"/>
      <use x="765.332031" xlink:href="#DejaVuSans-37"/>
      <use x="828.955078" xlink:href="#DejaVuSans-33"/>
      <use x="892.578125" xlink:href="#DejaVuSans-37"/>
      <use x="956.201172" xlink:href="#DejaVuSans-39"/>
      <use x="1019.824219" xlink:href="#DejaVuSans-34"/>
      <use x="1083.447266" xlink:href="#DejaVuSans-35"/>
      <use x="1147.070312" xlink:href="#DejaVuSans-35"/>
      <use x="1210.693359" xlink:href="#DejaVuSans-37"/>
      <use x="1274.316406" xlink:href="#DejaVuSans-38"/>
      <use x="1337.939453" xlink:href="#DejaVuSans-32"/>
     </g>
    </g>
   </g>
  </g>
 </g>
 <defs>
  <clipPath id="p261d668754">
   <rect height="434.88" width="837" x="50.14375" y="24"/>
  </clipPath>
 </defs>
</svg>
