<?xml version="1.0" encoding="utf-8" standalone="no"?>
<!DOCTYPE svg PUBLIC "-//W3C//DTD SVG 1.1//EN"
  "http://www.w3.org/Graphics/SVG/1.1/DTD/svg11.dtd">
<svg height="497.158125pt" version="1.1" viewBox="0 0 894.34375 497.158125" width="894.34375pt" xmlns="http://www.w3.org/2000/svg" xmlns:xlink="http://www.w3.org/1999/xlink">
 <metadata>
  <rdf:RDF xmlns:cc="http://creativecommons.org/ns#" xmlns:dc="http://purl.org/dc/elements/1.1/" xmlns:rdf="http://www.w3.org/1999/02/22-rdf-syntax-ns#">
   <cc:Work>
    <dc:type rdf:resource="http://purl.org/dc/dcmitype/StillImage"/>
    <dc:date>2022-12-12T17:51:37.070750</dc:date>
    <dc:format>image/svg+xml</dc:format>
    <dc:creator>
     <cc:Agent>
      <dc:title>Matplotlib v3.4.3, https://matplotlib.org/</dc:title>
     </cc:Agent>
    </dc:creator>
   </cc:Work>
  </rdf:RDF>
 </metadata>
 <defs>
  <style type="text/css">*{stroke-linecap:butt;stroke-linejoin:round;}</style>
 </defs>
 <g id="figure_1">
  <g id="patch_1">
   <path d="M 0 497.158125 
L 894.34375 497.158125 
L 894.34375 0 
L 0 0 
z
" style="fill:#ffffff;"/>
  </g>
  <g id="axes_1">
   <g id="patch_2">
    <path d="M 50.14375 458.88 
L 887.14375 458.88 
L 887.14375 24 
L 50.14375 24 
z
" style="fill:#ffffff;"/>
   </g>
   <g id="matplotlib.axis_1">
    <g id="xtick_1">
     <g id="line2d_1">
      <defs>
       <path d="M 0 0 
L 0 3.5 
" id="mef705d0fa2" style="stroke:#000000;stroke-width:0.8;"/>
      </defs>
      <g>
       <use style="stroke:#000000;stroke-width:0.8;" x="126.977789" xlink:href="#mef705d0fa2" y="458.88"/>
      </g>
     </g>
     <g id="text_1">
      <!-- −10 -->
      <g transform="translate(116.425445 473.478437)scale(0.1 -0.1)">
       <defs>
        <path d="M 678 2272 
L 4684 2272 
L 4684 1741 
L 678 1741 
L 678 2272 
z
" id="DejaVuSans-2212" transform="scale(0.015625)"/>
        <path d="M 794 531 
L 1825 531 
L 1825 4091 
L 703 3866 
L 703 4441 
L 1819 4666 
L 2450 4666 
L 2450 531 
L 3481 531 
L 3481 0 
L 794 0 
L 794 531 
z
" id="DejaVuSans-31" transform="scale(0.015625)"/>
        <path d="M 2034 4250 
Q 1547 4250 1301 3770 
Q 1056 3291 1056 2328 
Q 1056 1369 1301 889 
Q 1547 409 2034 409 
Q 2525 409 2770 889 
Q 3016 1369 3016 2328 
Q 3016 3291 2770 3770 
Q 2525 4250 2034 4250 
z
M 2034 4750 
Q 2819 4750 3233 4129 
Q 3647 3509 3647 2328 
Q 3647 1150 3233 529 
Q 2819 -91 2034 -91 
Q 1250 -91 836 529 
Q 422 1150 422 2328 
Q 422 3509 836 4129 
Q 1250 4750 2034 4750 
z
" id="DejaVuSans-30" transform="scale(0.015625)"/>
       </defs>
       <use xlink:href="#DejaVuSans-2212"/>
       <use x="83.789062" xlink:href="#DejaVuSans-31"/>
       <use x="147.412109" xlink:href="#DejaVuSans-30"/>
      </g>
     </g>
    </g>
    <g id="xtick_2">
     <g id="line2d_2">
      <g>
       <use style="stroke:#000000;stroke-width:0.8;" x="306.846593" xlink:href="#mef705d0fa2" y="458.88"/>
      </g>
     </g>
     <g id="text_2">
      <!-- −5 -->
      <g transform="translate(299.475499 473.478437)scale(0.1 -0.1)">
       <defs>
        <path d="M 691 4666 
L 3169 4666 
L 3169 4134 
L 1269 4134 
L 1269 2991 
Q 1406 3038 1543 3061 
Q 1681 3084 1819 3084 
Q 2600 3084 3056 2656 
Q 3513 2228 3513 1497 
Q 3513 744 3044 326 
Q 2575 -91 1722 -91 
Q 1428 -91 1123 -41 
Q 819 9 494 109 
L 494 744 
Q 775 591 1075 516 
Q 1375 441 1709 441 
Q 2250 441 2565 725 
Q 2881 1009 2881 1497 
Q 2881 1984 2565 2268 
Q 2250 2553 1709 2553 
Q 1456 2553 1204 2497 
Q 953 2441 691 2322 
L 691 4666 
z
" id="DejaVuSans-35" transform="scale(0.015625)"/>
       </defs>
       <use xlink:href="#DejaVuSans-2212"/>
       <use x="83.789062" xlink:href="#DejaVuSans-35"/>
      </g>
     </g>
    </g>
    <g id="xtick_3">
     <g id="line2d_3">
      <g>
       <use style="stroke:#000000;stroke-width:0.8;" x="486.715397" xlink:href="#mef705d0fa2" y="458.88"/>
      </g>
     </g>
     <g id="text_3">
      <!-- 0 -->
      <g transform="translate(483.534147 473.478437)scale(0.1 -0.1)">
       <use xlink:href="#DejaVuSans-30"/>
      </g>
     </g>
    </g>
    <g id="xtick_4">
     <g id="line2d_4">
      <g>
       <use style="stroke:#000000;stroke-width:0.8;" x="666.584201" xlink:href="#mef705d0fa2" y="458.88"/>
      </g>
     </g>
     <g id="text_4">
      <!-- 5 -->
      <g transform="translate(663.402951 473.478437)scale(0.1 -0.1)">
       <use xlink:href="#DejaVuSans-35"/>
      </g>
     </g>
    </g>
    <g id="xtick_5">
     <g id="line2d_5">
      <g>
       <use style="stroke:#000000;stroke-width:0.8;" x="846.453006" xlink:href="#mef705d0fa2" y="458.88"/>
      </g>
     </g>
     <g id="text_5">
      <!-- 10 -->
      <g transform="translate(840.090506 473.478437)scale(0.1 -0.1)">
       <use xlink:href="#DejaVuSans-31"/>
       <use x="63.623047" xlink:href="#DejaVuSans-30"/>
      </g>
     </g>
    </g>
    <g id="text_6">
     <!-- Wavenumber (in cm$^{-1}$) -->
     <g transform="translate(410.44375 487.878437)scale(0.1 -0.1)">
      <defs>
       <path d="M 213 4666 
L 850 4666 
L 1831 722 
L 2809 4666 
L 3519 4666 
L 4500 722 
L 5478 4666 
L 6119 4666 
L 4947 0 
L 4153 0 
L 3169 4050 
L 2175 0 
L 1381 0 
L 213 4666 
z
" id="DejaVuSans-57" transform="scale(0.015625)"/>
       <path d="M 2194 1759 
Q 1497 1759 1228 1600 
Q 959 1441 959 1056 
Q 959 750 1161 570 
Q 1363 391 1709 391 
Q 2188 391 2477 730 
Q 2766 1069 2766 1631 
L 2766 1759 
L 2194 1759 
z
M 3341 1997 
L 3341 0 
L 2766 0 
L 2766 531 
Q 2569 213 2275 61 
Q 1981 -91 1556 -91 
Q 1019 -91 701 211 
Q 384 513 384 1019 
Q 384 1609 779 1909 
Q 1175 2209 1959 2209 
L 2766 2209 
L 2766 2266 
Q 2766 2663 2505 2880 
Q 2244 3097 1772 3097 
Q 1472 3097 1187 3025 
Q 903 2953 641 2809 
L 641 3341 
Q 956 3463 1253 3523 
Q 1550 3584 1831 3584 
Q 2591 3584 2966 3190 
Q 3341 2797 3341 1997 
z
" id="DejaVuSans-61" transform="scale(0.015625)"/>
       <path d="M 191 3500 
L 800 3500 
L 1894 563 
L 2988 3500 
L 3597 3500 
L 2284 0 
L 1503 0 
L 191 3500 
z
" id="DejaVuSans-76" transform="scale(0.015625)"/>
       <path d="M 3597 1894 
L 3597 1613 
L 953 1613 
Q 991 1019 1311 708 
Q 1631 397 2203 397 
Q 2534 397 2845 478 
Q 3156 559 3463 722 
L 3463 178 
Q 3153 47 2828 -22 
Q 2503 -91 2169 -91 
Q 1331 -91 842 396 
Q 353 884 353 1716 
Q 353 2575 817 3079 
Q 1281 3584 2069 3584 
Q 2775 3584 3186 3129 
Q 3597 2675 3597 1894 
z
M 3022 2063 
Q 3016 2534 2758 2815 
Q 2500 3097 2075 3097 
Q 1594 3097 1305 2825 
Q 1016 2553 972 2059 
L 3022 2063 
z
" id="DejaVuSans-65" transform="scale(0.015625)"/>
       <path d="M 3513 2113 
L 3513 0 
L 2938 0 
L 2938 2094 
Q 2938 2591 2744 2837 
Q 2550 3084 2163 3084 
Q 1697 3084 1428 2787 
Q 1159 2491 1159 1978 
L 1159 0 
L 581 0 
L 581 3500 
L 1159 3500 
L 1159 2956 
Q 1366 3272 1645 3428 
Q 1925 3584 2291 3584 
Q 2894 3584 3203 3211 
Q 3513 2838 3513 2113 
z
" id="DejaVuSans-6e" transform="scale(0.015625)"/>
       <path d="M 544 1381 
L 544 3500 
L 1119 3500 
L 1119 1403 
Q 1119 906 1312 657 
Q 1506 409 1894 409 
Q 2359 409 2629 706 
Q 2900 1003 2900 1516 
L 2900 3500 
L 3475 3500 
L 3475 0 
L 2900 0 
L 2900 538 
Q 2691 219 2414 64 
Q 2138 -91 1772 -91 
Q 1169 -91 856 284 
Q 544 659 544 1381 
z
M 1991 3584 
L 1991 3584 
z
" id="DejaVuSans-75" transform="scale(0.015625)"/>
       <path d="M 3328 2828 
Q 3544 3216 3844 3400 
Q 4144 3584 4550 3584 
Q 5097 3584 5394 3201 
Q 5691 2819 5691 2113 
L 5691 0 
L 5113 0 
L 5113 2094 
Q 5113 2597 4934 2840 
Q 4756 3084 4391 3084 
Q 3944 3084 3684 2787 
Q 3425 2491 3425 1978 
L 3425 0 
L 2847 0 
L 2847 2094 
Q 2847 2600 2669 2842 
Q 2491 3084 2119 3084 
Q 1678 3084 1418 2786 
Q 1159 2488 1159 1978 
L 1159 0 
L 581 0 
L 581 3500 
L 1159 3500 
L 1159 2956 
Q 1356 3278 1631 3431 
Q 1906 3584 2284 3584 
Q 2666 3584 2933 3390 
Q 3200 3197 3328 2828 
z
" id="DejaVuSans-6d" transform="scale(0.015625)"/>
       <path d="M 3116 1747 
Q 3116 2381 2855 2742 
Q 2594 3103 2138 3103 
Q 1681 3103 1420 2742 
Q 1159 2381 1159 1747 
Q 1159 1113 1420 752 
Q 1681 391 2138 391 
Q 2594 391 2855 752 
Q 3116 1113 3116 1747 
z
M 1159 2969 
Q 1341 3281 1617 3432 
Q 1894 3584 2278 3584 
Q 2916 3584 3314 3078 
Q 3713 2572 3713 1747 
Q 3713 922 3314 415 
Q 2916 -91 2278 -91 
Q 1894 -91 1617 61 
Q 1341 213 1159 525 
L 1159 0 
L 581 0 
L 581 4863 
L 1159 4863 
L 1159 2969 
z
" id="DejaVuSans-62" transform="scale(0.015625)"/>
       <path d="M 2631 2963 
Q 2534 3019 2420 3045 
Q 2306 3072 2169 3072 
Q 1681 3072 1420 2755 
Q 1159 2438 1159 1844 
L 1159 0 
L 581 0 
L 581 3500 
L 1159 3500 
L 1159 2956 
Q 1341 3275 1631 3429 
Q 1922 3584 2338 3584 
Q 2397 3584 2469 3576 
Q 2541 3569 2628 3553 
L 2631 2963 
z
" id="DejaVuSans-72" transform="scale(0.015625)"/>
       <path id="DejaVuSans-20" transform="scale(0.015625)"/>
       <path d="M 1984 4856 
Q 1566 4138 1362 3434 
Q 1159 2731 1159 2009 
Q 1159 1288 1364 580 
Q 1569 -128 1984 -844 
L 1484 -844 
Q 1016 -109 783 600 
Q 550 1309 550 2009 
Q 550 2706 781 3412 
Q 1013 4119 1484 4856 
L 1984 4856 
z
" id="DejaVuSans-28" transform="scale(0.015625)"/>
       <path d="M 603 3500 
L 1178 3500 
L 1178 0 
L 603 0 
L 603 3500 
z
M 603 4863 
L 1178 4863 
L 1178 4134 
L 603 4134 
L 603 4863 
z
" id="DejaVuSans-69" transform="scale(0.015625)"/>
       <path d="M 3122 3366 
L 3122 2828 
Q 2878 2963 2633 3030 
Q 2388 3097 2138 3097 
Q 1578 3097 1268 2742 
Q 959 2388 959 1747 
Q 959 1106 1268 751 
Q 1578 397 2138 397 
Q 2388 397 2633 464 
Q 2878 531 3122 666 
L 3122 134 
Q 2881 22 2623 -34 
Q 2366 -91 2075 -91 
Q 1284 -91 818 406 
Q 353 903 353 1747 
Q 353 2603 823 3093 
Q 1294 3584 2113 3584 
Q 2378 3584 2631 3529 
Q 2884 3475 3122 3366 
z
" id="DejaVuSans-63" transform="scale(0.015625)"/>
       <path d="M 513 4856 
L 1013 4856 
Q 1481 4119 1714 3412 
Q 1947 2706 1947 2009 
Q 1947 1309 1714 600 
Q 1481 -109 1013 -844 
L 513 -844 
Q 928 -128 1133 580 
Q 1338 1288 1338 2009 
Q 1338 2731 1133 3434 
Q 928 4138 513 4856 
z
" id="DejaVuSans-29" transform="scale(0.015625)"/>
      </defs>
      <use transform="translate(0 0.684375)" xlink:href="#DejaVuSans-57"/>
      <use transform="translate(98.876953 0.684375)" xlink:href="#DejaVuSans-61"/>
      <use transform="translate(160.15625 0.684375)" xlink:href="#DejaVuSans-76"/>
      <use transform="translate(219.335938 0.684375)" xlink:href="#DejaVuSans-65"/>
      <use transform="translate(280.859375 0.684375)" xlink:href="#DejaVuSans-6e"/>
      <use transform="translate(344.238281 0.684375)" xlink:href="#DejaVuSans-75"/>
      <use transform="translate(407.617188 0.684375)" xlink:href="#DejaVuSans-6d"/>
      <use transform="translate(505.029297 0.684375)" xlink:href="#DejaVuSans-62"/>
      <use transform="translate(568.505859 0.684375)" xlink:href="#DejaVuSans-65"/>
      <use transform="translate(630.029297 0.684375)" xlink:href="#DejaVuSans-72"/>
      <use transform="translate(671.142578 0.684375)" xlink:href="#DejaVuSans-20"/>
      <use transform="translate(702.929688 0.684375)" xlink:href="#DejaVuSans-28"/>
      <use transform="translate(741.943359 0.684375)" xlink:href="#DejaVuSans-69"/>
      <use transform="translate(769.726562 0.684375)" xlink:href="#DejaVuSans-6e"/>
      <use transform="translate(833.105469 0.684375)" xlink:href="#DejaVuSans-20"/>
      <use transform="translate(864.892578 0.684375)" xlink:href="#DejaVuSans-63"/>
      <use transform="translate(919.873047 0.684375)" xlink:href="#DejaVuSans-6d"/>
      <use transform="translate(1018.242188 38.965625)scale(0.7)" xlink:href="#DejaVuSans-2212"/>
      <use transform="translate(1076.894531 38.965625)scale(0.7)" xlink:href="#DejaVuSans-31"/>
      <use transform="translate(1124.165039 0.684375)" xlink:href="#DejaVuSans-29"/>
     </g>
    </g>
   </g>
   <g id="matplotlib.axis_2">
    <g id="ytick_1">
     <g id="line2d_6">
      <defs>
       <path d="M 0 0 
L -3.5 0 
" id="mbf525a889d" style="stroke:#000000;stroke-width:0.8;"/>
      </defs>
      <g>
       <use style="stroke:#000000;stroke-width:0.8;" x="50.14375" xlink:href="#mbf525a889d" y="439.112727"/>
      </g>
     </g>
     <g id="text_7">
      <!-- 0.70 -->
      <g transform="translate(20.878125 442.911946)scale(0.1 -0.1)">
       <defs>
        <path d="M 684 794 
L 1344 794 
L 1344 0 
L 684 0 
L 684 794 
z
" id="DejaVuSans-2e" transform="scale(0.015625)"/>
        <path d="M 525 4666 
L 3525 4666 
L 3525 4397 
L 1831 0 
L 1172 0 
L 2766 4134 
L 525 4134 
L 525 4666 
z
" id="DejaVuSans-37" transform="scale(0.015625)"/>
       </defs>
       <use xlink:href="#DejaVuSans-30"/>
       <use x="63.623047" xlink:href="#DejaVuSans-2e"/>
       <use x="95.410156" xlink:href="#DejaVuSans-37"/>
       <use x="159.033203" xlink:href="#DejaVuSans-30"/>
      </g>
     </g>
    </g>
    <g id="ytick_2">
     <g id="line2d_7">
      <g>
       <use style="stroke:#000000;stroke-width:0.8;" x="50.14375" xlink:href="#mbf525a889d" y="363.081727"/>
      </g>
     </g>
     <g id="text_8">
      <!-- 0.75 -->
      <g transform="translate(20.878125 366.880946)scale(0.1 -0.1)">
       <use xlink:href="#DejaVuSans-30"/>
       <use x="63.623047" xlink:href="#DejaVuSans-2e"/>
       <use x="95.410156" xlink:href="#DejaVuSans-37"/>
       <use x="159.033203" xlink:href="#DejaVuSans-35"/>
      </g>
     </g>
    </g>
    <g id="ytick_3">
     <g id="line2d_8">
      <g>
       <use style="stroke:#000000;stroke-width:0.8;" x="50.14375" xlink:href="#mbf525a889d" y="287.050726"/>
      </g>
     </g>
     <g id="text_9">
      <!-- 0.80 -->
      <g transform="translate(20.878125 290.849945)scale(0.1 -0.1)">
       <defs>
        <path d="M 2034 2216 
Q 1584 2216 1326 1975 
Q 1069 1734 1069 1313 
Q 1069 891 1326 650 
Q 1584 409 2034 409 
Q 2484 409 2743 651 
Q 3003 894 3003 1313 
Q 3003 1734 2745 1975 
Q 2488 2216 2034 2216 
z
M 1403 2484 
Q 997 2584 770 2862 
Q 544 3141 544 3541 
Q 544 4100 942 4425 
Q 1341 4750 2034 4750 
Q 2731 4750 3128 4425 
Q 3525 4100 3525 3541 
Q 3525 3141 3298 2862 
Q 3072 2584 2669 2484 
Q 3125 2378 3379 2068 
Q 3634 1759 3634 1313 
Q 3634 634 3220 271 
Q 2806 -91 2034 -91 
Q 1263 -91 848 271 
Q 434 634 434 1313 
Q 434 1759 690 2068 
Q 947 2378 1403 2484 
z
M 1172 3481 
Q 1172 3119 1398 2916 
Q 1625 2713 2034 2713 
Q 2441 2713 2670 2916 
Q 2900 3119 2900 3481 
Q 2900 3844 2670 4047 
Q 2441 4250 2034 4250 
Q 1625 4250 1398 4047 
Q 1172 3844 1172 3481 
z
" id="DejaVuSans-38" transform="scale(0.015625)"/>
       </defs>
       <use xlink:href="#DejaVuSans-30"/>
       <use x="63.623047" xlink:href="#DejaVuSans-2e"/>
       <use x="95.410156" xlink:href="#DejaVuSans-38"/>
       <use x="159.033203" xlink:href="#DejaVuSans-30"/>
      </g>
     </g>
    </g>
    <g id="ytick_4">
     <g id="line2d_9">
      <g>
       <use style="stroke:#000000;stroke-width:0.8;" x="50.14375" xlink:href="#mbf525a889d" y="211.019726"/>
      </g>
     </g>
     <g id="text_10">
      <!-- 0.85 -->
      <g transform="translate(20.878125 214.818945)scale(0.1 -0.1)">
       <use xlink:href="#DejaVuSans-30"/>
       <use x="63.623047" xlink:href="#DejaVuSans-2e"/>
       <use x="95.410156" xlink:href="#DejaVuSans-38"/>
       <use x="159.033203" xlink:href="#DejaVuSans-35"/>
      </g>
     </g>
    </g>
    <g id="ytick_5">
     <g id="line2d_10">
      <g>
       <use style="stroke:#000000;stroke-width:0.8;" x="50.14375" xlink:href="#mbf525a889d" y="134.988725"/>
      </g>
     </g>
     <g id="text_11">
      <!-- 0.90 -->
      <g transform="translate(20.878125 138.787944)scale(0.1 -0.1)">
       <defs>
        <path d="M 703 97 
L 703 672 
Q 941 559 1184 500 
Q 1428 441 1663 441 
Q 2288 441 2617 861 
Q 2947 1281 2994 2138 
Q 2813 1869 2534 1725 
Q 2256 1581 1919 1581 
Q 1219 1581 811 2004 
Q 403 2428 403 3163 
Q 403 3881 828 4315 
Q 1253 4750 1959 4750 
Q 2769 4750 3195 4129 
Q 3622 3509 3622 2328 
Q 3622 1225 3098 567 
Q 2575 -91 1691 -91 
Q 1453 -91 1209 -44 
Q 966 3 703 97 
z
M 1959 2075 
Q 2384 2075 2632 2365 
Q 2881 2656 2881 3163 
Q 2881 3666 2632 3958 
Q 2384 4250 1959 4250 
Q 1534 4250 1286 3958 
Q 1038 3666 1038 3163 
Q 1038 2656 1286 2365 
Q 1534 2075 1959 2075 
z
" id="DejaVuSans-39" transform="scale(0.015625)"/>
       </defs>
       <use xlink:href="#DejaVuSans-30"/>
       <use x="63.623047" xlink:href="#DejaVuSans-2e"/>
       <use x="95.410156" xlink:href="#DejaVuSans-39"/>
       <use x="159.033203" xlink:href="#DejaVuSans-30"/>
      </g>
     </g>
    </g>
    <g id="ytick_6">
     <g id="line2d_11">
      <g>
       <use style="stroke:#000000;stroke-width:0.8;" x="50.14375" xlink:href="#mbf525a889d" y="58.957725"/>
      </g>
     </g>
     <g id="text_12">
      <!-- 0.95 -->
      <g transform="translate(20.878125 62.756944)scale(0.1 -0.1)">
       <use xlink:href="#DejaVuSans-30"/>
       <use x="63.623047" xlink:href="#DejaVuSans-2e"/>
       <use x="95.410156" xlink:href="#DejaVuSans-39"/>
       <use x="159.033203" xlink:href="#DejaVuSans-35"/>
      </g>
     </g>
    </g>
    <g id="text_13">
     <!-- Normalized Intensity -->
     <g transform="translate(14.798438 293.147031)rotate(-90)scale(0.1 -0.1)">
      <defs>
       <path d="M 628 4666 
L 1478 4666 
L 3547 763 
L 3547 4666 
L 4159 4666 
L 4159 0 
L 3309 0 
L 1241 3903 
L 1241 0 
L 628 0 
L 628 4666 
z
" id="DejaVuSans-4e" transform="scale(0.015625)"/>
       <path d="M 1959 3097 
Q 1497 3097 1228 2736 
Q 959 2375 959 1747 
Q 959 1119 1226 758 
Q 1494 397 1959 397 
Q 2419 397 2687 759 
Q 2956 1122 2956 1747 
Q 2956 2369 2687 2733 
Q 2419 3097 1959 3097 
z
M 1959 3584 
Q 2709 3584 3137 3096 
Q 3566 2609 3566 1747 
Q 3566 888 3137 398 
Q 2709 -91 1959 -91 
Q 1206 -91 779 398 
Q 353 888 353 1747 
Q 353 2609 779 3096 
Q 1206 3584 1959 3584 
z
" id="DejaVuSans-6f" transform="scale(0.015625)"/>
       <path d="M 603 4863 
L 1178 4863 
L 1178 0 
L 603 0 
L 603 4863 
z
" id="DejaVuSans-6c" transform="scale(0.015625)"/>
       <path d="M 353 3500 
L 3084 3500 
L 3084 2975 
L 922 459 
L 3084 459 
L 3084 0 
L 275 0 
L 275 525 
L 2438 3041 
L 353 3041 
L 353 3500 
z
" id="DejaVuSans-7a" transform="scale(0.015625)"/>
       <path d="M 2906 2969 
L 2906 4863 
L 3481 4863 
L 3481 0 
L 2906 0 
L 2906 525 
Q 2725 213 2448 61 
Q 2172 -91 1784 -91 
Q 1150 -91 751 415 
Q 353 922 353 1747 
Q 353 2572 751 3078 
Q 1150 3584 1784 3584 
Q 2172 3584 2448 3432 
Q 2725 3281 2906 2969 
z
M 947 1747 
Q 947 1113 1208 752 
Q 1469 391 1925 391 
Q 2381 391 2643 752 
Q 2906 1113 2906 1747 
Q 2906 2381 2643 2742 
Q 2381 3103 1925 3103 
Q 1469 3103 1208 2742 
Q 947 2381 947 1747 
z
" id="DejaVuSans-64" transform="scale(0.015625)"/>
       <path d="M 628 4666 
L 1259 4666 
L 1259 0 
L 628 0 
L 628 4666 
z
" id="DejaVuSans-49" transform="scale(0.015625)"/>
       <path d="M 1172 4494 
L 1172 3500 
L 2356 3500 
L 2356 3053 
L 1172 3053 
L 1172 1153 
Q 1172 725 1289 603 
Q 1406 481 1766 481 
L 2356 481 
L 2356 0 
L 1766 0 
Q 1100 0 847 248 
Q 594 497 594 1153 
L 594 3053 
L 172 3053 
L 172 3500 
L 594 3500 
L 594 4494 
L 1172 4494 
z
" id="DejaVuSans-74" transform="scale(0.015625)"/>
       <path d="M 2834 3397 
L 2834 2853 
Q 2591 2978 2328 3040 
Q 2066 3103 1784 3103 
Q 1356 3103 1142 2972 
Q 928 2841 928 2578 
Q 928 2378 1081 2264 
Q 1234 2150 1697 2047 
L 1894 2003 
Q 2506 1872 2764 1633 
Q 3022 1394 3022 966 
Q 3022 478 2636 193 
Q 2250 -91 1575 -91 
Q 1294 -91 989 -36 
Q 684 19 347 128 
L 347 722 
Q 666 556 975 473 
Q 1284 391 1588 391 
Q 1994 391 2212 530 
Q 2431 669 2431 922 
Q 2431 1156 2273 1281 
Q 2116 1406 1581 1522 
L 1381 1569 
Q 847 1681 609 1914 
Q 372 2147 372 2553 
Q 372 3047 722 3315 
Q 1072 3584 1716 3584 
Q 2034 3584 2315 3537 
Q 2597 3491 2834 3397 
z
" id="DejaVuSans-73" transform="scale(0.015625)"/>
       <path d="M 2059 -325 
Q 1816 -950 1584 -1140 
Q 1353 -1331 966 -1331 
L 506 -1331 
L 506 -850 
L 844 -850 
Q 1081 -850 1212 -737 
Q 1344 -625 1503 -206 
L 1606 56 
L 191 3500 
L 800 3500 
L 1894 763 
L 2988 3500 
L 3597 3500 
L 2059 -325 
z
" id="DejaVuSans-79" transform="scale(0.015625)"/>
      </defs>
      <use xlink:href="#DejaVuSans-4e"/>
      <use x="74.804688" xlink:href="#DejaVuSans-6f"/>
      <use x="135.986328" xlink:href="#DejaVuSans-72"/>
      <use x="175.349609" xlink:href="#DejaVuSans-6d"/>
      <use x="272.761719" xlink:href="#DejaVuSans-61"/>
      <use x="334.041016" xlink:href="#DejaVuSans-6c"/>
      <use x="361.824219" xlink:href="#DejaVuSans-69"/>
      <use x="389.607422" xlink:href="#DejaVuSans-7a"/>
      <use x="442.097656" xlink:href="#DejaVuSans-65"/>
      <use x="503.621094" xlink:href="#DejaVuSans-64"/>
      <use x="567.097656" xlink:href="#DejaVuSans-20"/>
      <use x="598.884766" xlink:href="#DejaVuSans-49"/>
      <use x="628.376953" xlink:href="#DejaVuSans-6e"/>
      <use x="691.755859" xlink:href="#DejaVuSans-74"/>
      <use x="730.964844" xlink:href="#DejaVuSans-65"/>
      <use x="792.488281" xlink:href="#DejaVuSans-6e"/>
      <use x="855.867188" xlink:href="#DejaVuSans-73"/>
      <use x="907.966797" xlink:href="#DejaVuSans-69"/>
      <use x="935.75" xlink:href="#DejaVuSans-74"/>
      <use x="974.958984" xlink:href="#DejaVuSans-79"/>
     </g>
    </g>
   </g>
   <g id="line2d_12">
    <path clip-path="url(#p175d251cc2)" d="M 448.498032 43.76743 
L 453.059454 43.914948 
L 455.241004 44.187144 
L 456.827585 44.593901 
L 458.116683 45.14448 
L 459.207457 45.835414 
L 460.298232 46.805323 
L 461.289846 47.997865 
L 462.281459 49.558316 
L 463.273072 51.562287 
L 464.264686 54.08826 
L 465.256299 57.213591 
L 466.347074 61.428537 
L 467.437849 66.533201 
L 468.627785 73.177193 
L 469.916882 81.661135 
L 471.404302 93.036491 
L 473.189207 108.592057 
L 475.866563 134.227532 
L 478.742242 161.184538 
L 480.328823 174.03339 
L 481.617921 182.701309 
L 482.609534 188.036929 
L 483.501986 191.721435 
L 484.196116 193.800705 
L 484.791084 195.010165 
L 485.28689 195.603374 
L 485.683536 195.802334 
L 486.080181 195.754258 
L 486.476827 195.458249 
L 486.972633 194.739761 
L 487.567601 193.36977 
L 488.261731 191.082565 
L 489.055022 187.588252 
L 489.947474 182.593599 
L 491.038248 175.09312 
L 492.327346 164.535565 
L 494.013089 148.675812 
L 500.161092 88.716605 
L 501.648512 77.338416 
L 502.93761 69.077287 
L 504.127546 62.786864 
L 505.21832 58.092315 
L 506.309095 54.332346 
L 507.300709 51.630911 
L 508.292322 49.516217 
L 509.283935 47.894308 
L 510.275549 46.675481 
L 511.366324 45.70313 
L 512.457098 45.025566 
L 513.746196 44.499352 
L 515.233616 44.140469 
L 517.216843 43.903906 
L 520.390006 43.78062 
L 521.480781 43.767273 
L 521.480781 43.767273 
" style="fill:none;stroke:#e98768;stroke-linecap:square;stroke-width:1.5;"/>
   </g>
   <g id="line2d_13">
    <path clip-path="url(#p175d251cc2)" d="M 422.61585 104.592246 
L 428.455676 104.745732 
L 431.296673 105.026454 
L 433.348504 105.432049 
L 435.084668 105.994256 
L 436.505166 106.667144 
L 437.925665 107.594343 
L 439.18833 108.687178 
L 440.450995 110.088331 
L 441.71366 111.854282 
L 442.976325 114.041763 
L 444.23899 116.70387 
L 445.501655 119.885219 
L 446.922154 124.122327 
L 448.342652 129.068398 
L 449.920983 135.361762 
L 451.814981 143.87492 
L 454.498145 157.123546 
L 458.759639 178.175894 
L 460.81147 187.102306 
L 462.547635 193.722535 
L 464.283799 199.510858 
L 466.33563 205.554336 
L 470.597125 217.813015 
L 472.33329 223.650816 
L 474.227287 230.830373 
L 478.962281 249.322382 
L 480.067113 252.574277 
L 481.014112 254.685009 
L 481.803278 255.883836 
L 482.434611 256.44463 
L 482.90811 256.624579 
L 483.381609 256.59662 
L 483.855109 256.362843 
L 484.486441 255.740898 
L 485.117774 254.785337 
L 485.90694 253.17191 
L 487.011772 250.285385 
L 488.747936 244.922874 
L 490.641934 239.22167 
L 491.746766 236.533658 
L 492.693765 234.796404 
L 493.482931 233.793546 
L 494.114263 233.282808 
L 494.745596 233.014996 
L 495.376928 232.962012 
L 496.166094 233.13686 
L 497.270926 233.650154 
L 498.691424 234.280942 
L 499.48059 234.359542 
L 500.111922 234.170201 
L 500.743255 233.690239 
L 501.374588 232.865399 
L 502.00592 231.649972 
L 502.795086 229.528094 
L 503.584252 226.695836 
L 504.53125 222.338627 
L 505.636082 215.97424 
L 506.898748 207.191253 
L 508.477079 194.473073 
L 514.632572 142.813252 
L 516.05307 133.578523 
L 517.315735 126.699731 
L 518.5784 121.063009 
L 519.683232 117.0837 
L 520.788064 113.90154 
L 521.892896 111.411674 
L 522.997728 109.504069 
L 524.10256 108.071928 
L 525.207392 107.01753 
L 526.312224 106.255636 
L 527.574889 105.65213 
L 528.995387 105.214226 
L 530.889385 104.8835 
L 533.414715 104.685804 
L 537.834043 104.59174 
L 537.834043 104.59174 
" style="fill:none;stroke:#de5d5c;stroke-linecap:square;stroke-width:1.5;"/>
   </g>
   <g id="line2d_14">
    <path clip-path="url(#p175d251cc2)" d="M 345.316407 165.416417 
L 366.269403 165.562655 
L 373.826221 165.812945 
L 378.635105 166.172222 
L 382.413514 166.656082 
L 385.848431 167.310641 
L 388.939857 168.108974 
L 392.031283 169.127253 
L 395.122708 170.386076 
L 397.870642 171.731719 
L 400.618576 173.324178 
L 403.023018 174.952095 
L 405.42746 176.830259 
L 407.831902 178.988207 
L 410.236345 181.452783 
L 412.640787 184.2464 
L 415.045229 187.385489 
L 417.449671 190.878816 
L 420.197605 195.303335 
L 422.945539 200.168628 
L 426.036964 206.111983 
L 429.815373 213.895169 
L 439.433142 234.023446 
L 441.837584 238.467507 
L 443.898534 241.875249 
L 445.615993 244.367907 
L 447.333452 246.50014 
L 449.05091 248.240018 
L 450.424877 249.336892 
L 451.798844 250.170437 
L 453.172811 250.749848 
L 454.546778 251.095949 
L 456.264237 251.254417 
L 458.325187 251.182555 
L 461.073121 251.086859 
L 462.447088 251.280938 
L 463.477563 251.63972 
L 464.508038 252.249971 
L 465.538514 253.175997 
L 466.568989 254.481832 
L 467.599464 256.228067 
L 468.629939 258.467906 
L 469.660414 261.242503 
L 470.69089 264.575752 
L 472.064857 269.887129 
L 473.438823 276.113344 
L 475.499774 286.73383 
L 478.934691 304.786057 
L 480.308658 310.670823 
L 481.339133 314.073541 
L 482.026117 315.743349 
L 482.7131 316.87242 
L 483.400084 317.418628 
L 483.743575 317.463127 
L 484.087067 317.351457 
L 484.430559 317.081858 
L 485.117542 316.066264 
L 485.804526 314.420291 
L 486.491509 312.162661 
L 487.521985 307.706062 
L 488.55246 302.121156 
L 489.926427 293.322763 
L 495.422294 255.870681 
L 496.45277 250.634851 
L 497.483245 246.420584 
L 498.51372 243.300465 
L 499.200703 241.838417 
L 499.887687 240.862929 
L 500.57467 240.357065 
L 501.261654 240.296144 
L 501.948637 240.649049 
L 502.635621 241.379546 
L 503.322604 242.447598 
L 504.353079 244.588964 
L 505.727046 248.218701 
L 507.444505 253.511564 
L 510.879422 264.337026 
L 512.596881 268.920619 
L 513.970848 271.879633 
L 515.001323 273.610665 
L 516.031798 274.886087 
L 516.718782 275.472077 
L 517.405765 275.841647 
L 518.092749 275.99254 
L 518.779732 275.924161 
L 519.466716 275.637474 
L 520.153699 275.134889 
L 520.840683 274.420167 
L 521.871158 272.961618 
L 522.901633 271.059024 
L 523.932108 268.739247 
L 525.306075 265.051917 
L 527.023534 259.607771 
L 528.740993 253.407313 
L 531.145435 243.827536 
L 540.07622 207.068163 
L 542.480662 198.620527 
L 544.541612 192.212786 
L 546.259071 187.496995 
L 547.97653 183.352738 
L 549.693988 179.767267 
L 551.411447 176.715857 
L 553.128906 174.164771 
L 554.846364 172.073293 
L 556.563823 170.39513 
L 558.281282 169.079684 
L 559.99874 168.073678 
L 561.716199 167.323337 
L 563.777149 166.687897 
L 566.181591 166.211715 
L 569.273017 165.86507 
L 573.73841 165.630943 
L 581.638719 165.481196 
L 593.66093 165.416918 
L 593.66093 165.416918 
" style="fill:none;stroke:#c14168;stroke-linecap:square;stroke-width:1.5;"/>
   </g>
   <g id="line2d_15">
    <path clip-path="url(#p175d251cc2)" d="M 247.196658 226.241859 
L 281.630253 226.386197 
L 296.520456 226.646542 
L 306.757471 227.02288 
L 315.13321 227.545632 
L 321.647674 228.154036 
L 327.231501 228.86776 
L 332.815327 229.809891 
L 337.468515 230.810017 
L 342.121704 232.04431 
L 346.774892 233.55174 
L 350.497443 234.981341 
L 354.219994 236.631808 
L 357.942545 238.52237 
L 361.665096 240.670133 
L 365.387646 243.088887 
L 369.110197 245.787745 
L 372.832748 248.769635 
L 376.555299 252.0297 
L 380.27785 255.553663 
L 384.931038 260.290049 
L 390.514865 266.353938 
L 405.405068 282.867501 
L 409.127619 286.564529 
L 411.919532 289.081934 
L 414.711445 291.32381 
L 417.503358 293.240308 
L 419.364633 294.313903 
L 421.225909 295.209308 
L 423.087184 295.915233 
L 424.94846 296.422138 
L 426.809735 296.722655 
L 428.671011 296.812049 
L 430.532286 296.688728 
L 432.393561 296.354807 
L 434.254837 295.816726 
L 436.116112 295.085935 
L 438.908025 293.667811 
L 441.699938 291.942961 
L 450.075678 286.437779 
L 451.936953 285.575774 
L 453.798229 285.042306 
L 454.728866 284.9344 
L 455.659504 284.95304 
L 456.590142 285.114718 
L 457.520779 285.43666 
L 458.451417 285.93675 
L 459.382055 286.633418 
L 460.312693 287.545489 
L 461.24333 288.691975 
L 462.173968 290.091807 
L 463.104606 291.763484 
L 464.035243 293.72462 
L 464.965881 295.991378 
L 465.896519 298.577777 
L 467.757794 304.749603 
L 469.61907 312.273372 
L 471.480345 321.078944 
L 473.34162 330.94959 
L 478.925447 361.939147 
L 480.786722 370.168398 
L 481.71736 373.385454 
L 482.647997 375.865661 
L 483.578635 377.522303 
L 484.509273 378.287927 
L 485.439911 378.118172 
L 486.370548 376.994543 
L 487.301186 374.925906 
L 488.231824 371.948556 
L 489.162461 368.124847 
L 490.093099 363.540472 
L 491.954375 352.52518 
L 494.746288 333.296217 
L 497.538201 313.897188 
L 499.399476 302.288582 
L 501.260752 292.394215 
L 502.191389 288.186871 
L 503.122027 284.496076 
L 504.052665 281.324223 
L 504.983302 278.663743 
L 505.91394 276.4989 
L 506.844578 274.807515 
L 507.775216 273.562547 
L 508.705853 272.733503 
L 509.636491 272.287658 
L 510.567129 272.191085 
L 511.497766 272.409495 
L 512.428404 272.908913 
L 513.359042 273.656203 
L 514.289679 274.619468 
L 516.150955 277.074146 
L 518.01223 280.051273 
L 520.804143 285.085689 
L 526.38797 295.45502 
L 529.179883 300.12349 
L 531.041158 302.894261 
L 532.902434 305.341853 
L 534.763709 307.435188 
L 536.624984 309.151764 
L 538.48626 310.476446 
L 540.347535 311.400585 
L 542.208811 311.921379 
L 544.070086 312.041383 
L 545.931362 311.768086 
L 547.792637 311.113514 
L 549.653912 310.093833 
L 551.515188 308.728916 
L 553.376463 307.04189 
L 555.237739 305.058649 
L 557.099014 302.807354 
L 559.890927 298.993574 
L 562.68284 294.749805 
L 566.405391 288.608987 
L 572.919855 277.229554 
L 578.503681 267.59341 
L 582.226232 261.543905 
L 585.948783 255.942608 
L 588.740696 252.087113 
L 591.532609 248.552366 
L 594.324522 245.348857 
L 597.116435 242.477636 
L 599.908348 239.93175 
L 602.700262 237.697744 
L 605.492175 235.757167 
L 608.284088 234.088004 
L 611.076001 232.665991 
L 613.867914 231.465774 
L 616.659827 230.461887 
L 620.382378 229.38611 
L 624.104929 228.560466 
L 628.758117 227.805719 
L 633.411306 227.283625 
L 638.995132 226.873435 
L 646.440234 226.561029 
L 657.607886 226.353867 
L 678.081916 226.252088 
L 685.527017 226.241368 
L 685.527017 226.241368 
" style="fill:none;stroke:#9a3670;stroke-linecap:square;stroke-width:1.5;"/>
   </g>
   <g id="line2d_16">
    <path clip-path="url(#p175d251cc2)" d="M 88.189205 287.066785 
L 143.93346 287.201626 
L 169.018375 287.454446 
L 185.741652 287.810417 
L 199.677716 288.312727 
L 210.826567 288.917269 
L 221.975418 289.771854 
L 230.337057 290.624292 
L 238.698695 291.700398 
L 247.060333 293.04182 
L 255.421972 294.691776 
L 260.996397 295.984222 
L 266.570823 297.444443 
L 272.145249 299.082842 
L 277.719674 300.907901 
L 283.2941 302.925504 
L 288.868525 305.138205 
L 294.442951 307.544458 
L 300.017376 310.137837 
L 308.379015 314.350636 
L 316.740653 318.887647 
L 327.889504 325.255318 
L 341.825568 333.20837 
L 347.399994 336.199909 
L 352.974419 338.98126 
L 358.548845 341.479646 
L 364.12327 343.621488 
L 369.697696 345.335166 
L 372.484909 346.010401 
L 375.272122 346.554329 
L 378.059334 346.960119 
L 380.846547 347.221794 
L 383.63376 347.334389 
L 386.420973 347.294128 
L 389.208186 347.098612 
L 391.995398 346.747032 
L 394.782611 346.24039 
L 397.569824 345.581755 
L 400.357037 344.776536 
L 403.14425 343.832787 
L 408.718675 341.577206 
L 414.293101 338.94602 
L 425.441952 333.434574 
L 428.229165 332.237596 
L 431.016377 331.219372 
L 433.80359 330.446425 
L 436.590803 329.993591 
L 439.378016 329.944246 
L 442.165229 330.39029 
L 444.952441 331.431757 
L 447.739654 333.17592 
L 450.526867 335.735733 
L 453.31408 339.22749 
L 456.101292 343.767769 
L 458.888505 349.469982 
L 461.675718 356.440753 
L 464.462931 364.773813 
L 467.250144 374.531078 
L 470.037356 385.686865 
L 472.824569 398.00553 
L 475.611782 410.856159 
L 478.398995 423.057095 
L 481.186208 432.929883 
L 483.97342 438.695913 
L 486.760633 439.112727 
L 489.547846 433.993531 
L 492.335059 424.265615 
L 495.122271 411.545557 
L 500.696697 383.615155 
L 503.48391 370.666107 
L 506.271123 359.182814 
L 509.058335 349.38014 
L 511.845548 341.303186 
L 514.632761 334.895203 
L 517.419974 330.039286 
L 520.207187 326.585229 
L 522.994399 324.367466 
L 525.781612 323.216992 
L 528.568825 322.969073 
L 531.356038 323.468102 
L 534.14325 324.570494 
L 536.930463 326.146254 
L 539.717676 328.07958 
L 542.504889 330.268795 
L 548.079314 335.075059 
L 556.440953 342.387439 
L 562.015378 346.802108 
L 564.802591 348.779916 
L 567.589804 350.577084 
L 570.377017 352.178261 
L 573.16423 353.571677 
L 575.951442 354.748687 
L 578.738655 355.703411 
L 581.525868 356.432462 
L 584.313081 356.934721 
L 587.100293 357.211155 
L 589.887506 357.264659 
L 592.674719 357.099912 
L 595.461932 356.723231 
L 598.249145 356.142432 
L 601.036357 355.366682 
L 603.82357 354.406349 
L 606.610783 353.272846 
L 609.397996 351.978472 
L 612.185209 350.536249 
L 617.759634 347.263016 
L 623.33406 343.565788 
L 628.908485 339.55887 
L 637.270124 333.210173 
L 651.206188 322.550236 
L 656.780613 318.496942 
L 662.355039 314.656504 
L 667.929464 311.071437 
L 673.50389 307.770938 
L 679.078315 304.771961 
L 684.652741 302.080633 
L 690.227167 299.693888 
L 695.801592 297.601194 
L 701.376018 295.786277 
L 706.950443 294.228763 
L 712.524869 292.90566 
L 718.099294 291.792657 
L 723.67372 290.865209 
L 732.035358 289.769951 
L 740.396997 288.963749 
L 748.758635 288.38102 
L 759.907486 287.858255 
L 773.84355 287.476468 
L 793.35404 287.223099 
L 824.01338 287.094711 
L 849.098295 287.066472 
L 849.098295 287.066472 
" style="fill:none;stroke:#722c6e;stroke-linecap:square;stroke-width:1.5;"/>
   </g>
   <g id="patch_3">
    <path d="M 50.14375 458.88 
L 50.14375 24 
" style="fill:none;stroke:#000000;stroke-linecap:square;stroke-linejoin:miter;stroke-width:0.8;"/>
   </g>
   <g id="patch_4">
    <path d="M 887.14375 458.88 
L 887.14375 24 
" style="fill:none;stroke:#000000;stroke-linecap:square;stroke-linejoin:miter;stroke-width:0.8;"/>
   </g>
   <g id="patch_5">
    <path d="M 50.14375 458.88 
L 887.14375 458.88 
" style="fill:none;stroke:#000000;stroke-linecap:square;stroke-linejoin:miter;stroke-width:0.8;"/>
   </g>
   <g id="patch_6">
    <path d="M 50.14375 24 
L 887.14375 24 
" style="fill:none;stroke:#000000;stroke-linecap:square;stroke-linejoin:miter;stroke-width:0.8;"/>
   </g>
   <g id="text_14">
    <!-- T = 61.2 K,  $\Delta B =$ -0.17% ,  $\Delta C =$ -0.17% , $\zeta  = $-0.49, $\sigma = $0.1953$cm^{-1}$ -->
    <g transform="translate(262.72375 18)scale(0.12 -0.12)">
     <defs>
      <path d="M -19 4666 
L 3928 4666 
L 3928 4134 
L 2272 4134 
L 2272 0 
L 1638 0 
L 1638 4134 
L -19 4134 
L -19 4666 
z
" id="DejaVuSans-54" transform="scale(0.015625)"/>
      <path d="M 678 2906 
L 4684 2906 
L 4684 2381 
L 678 2381 
L 678 2906 
z
M 678 1631 
L 4684 1631 
L 4684 1100 
L 678 1100 
L 678 1631 
z
" id="DejaVuSans-3d" transform="scale(0.015625)"/>
      <path d="M 2113 2584 
Q 1688 2584 1439 2293 
Q 1191 2003 1191 1497 
Q 1191 994 1439 701 
Q 1688 409 2113 409 
Q 2538 409 2786 701 
Q 3034 994 3034 1497 
Q 3034 2003 2786 2293 
Q 2538 2584 2113 2584 
z
M 3366 4563 
L 3366 3988 
Q 3128 4100 2886 4159 
Q 2644 4219 2406 4219 
Q 1781 4219 1451 3797 
Q 1122 3375 1075 2522 
Q 1259 2794 1537 2939 
Q 1816 3084 2150 3084 
Q 2853 3084 3261 2657 
Q 3669 2231 3669 1497 
Q 3669 778 3244 343 
Q 2819 -91 2113 -91 
Q 1303 -91 875 529 
Q 447 1150 447 2328 
Q 447 3434 972 4092 
Q 1497 4750 2381 4750 
Q 2619 4750 2861 4703 
Q 3103 4656 3366 4563 
z
" id="DejaVuSans-36" transform="scale(0.015625)"/>
      <path d="M 1228 531 
L 3431 531 
L 3431 0 
L 469 0 
L 469 531 
Q 828 903 1448 1529 
Q 2069 2156 2228 2338 
Q 2531 2678 2651 2914 
Q 2772 3150 2772 3378 
Q 2772 3750 2511 3984 
Q 2250 4219 1831 4219 
Q 1534 4219 1204 4116 
Q 875 4013 500 3803 
L 500 4441 
Q 881 4594 1212 4672 
Q 1544 4750 1819 4750 
Q 2544 4750 2975 4387 
Q 3406 4025 3406 3419 
Q 3406 3131 3298 2873 
Q 3191 2616 2906 2266 
Q 2828 2175 2409 1742 
Q 1991 1309 1228 531 
z
" id="DejaVuSans-32" transform="scale(0.015625)"/>
      <path d="M 628 4666 
L 1259 4666 
L 1259 2694 
L 3353 4666 
L 4166 4666 
L 1850 2491 
L 4331 0 
L 3500 0 
L 1259 2247 
L 1259 0 
L 628 0 
L 628 4666 
z
" id="DejaVuSans-4b" transform="scale(0.015625)"/>
      <path d="M 750 794 
L 1409 794 
L 1409 256 
L 897 -744 
L 494 -744 
L 750 256 
L 750 794 
z
" id="DejaVuSans-2c" transform="scale(0.015625)"/>
      <path d="M 2188 4044 
L 906 525 
L 3472 525 
L 2188 4044 
z
M 50 0 
L 1831 4666 
L 2547 4666 
L 4325 0 
L 50 0 
z
" id="DejaVuSans-394" transform="scale(0.015625)"/>
      <path d="M 1081 4666 
L 2694 4666 
Q 3350 4666 3675 4422 
Q 4000 4178 4000 3688 
Q 4000 3238 3720 2911 
Q 3441 2584 2988 2516 
Q 3375 2428 3569 2181 
Q 3763 1934 3763 1522 
Q 3763 819 3242 409 
Q 2722 0 1819 0 
L 172 0 
L 1081 4666 
z
M 1234 2228 
L 903 519 
L 1919 519 
Q 2491 519 2800 781 
Q 3109 1044 3109 1522 
Q 3109 1891 2904 2059 
Q 2700 2228 2247 2228 
L 1234 2228 
z
M 1606 4147 
L 1331 2741 
L 2272 2741 
Q 2775 2741 3058 2959 
Q 3341 3178 3341 3566 
Q 3341 3869 3150 4008 
Q 2959 4147 2541 4147 
L 1606 4147 
z
" id="DejaVuSans-Oblique-42" transform="scale(0.015625)"/>
      <path d="M 313 2009 
L 1997 2009 
L 1997 1497 
L 313 1497 
L 313 2009 
z
" id="DejaVuSans-2d" transform="scale(0.015625)"/>
      <path d="M 4653 2053 
Q 4381 2053 4226 1822 
Q 4072 1591 4072 1178 
Q 4072 772 4226 539 
Q 4381 306 4653 306 
Q 4919 306 5073 539 
Q 5228 772 5228 1178 
Q 5228 1588 5073 1820 
Q 4919 2053 4653 2053 
z
M 4653 2450 
Q 5147 2450 5437 2106 
Q 5728 1763 5728 1178 
Q 5728 594 5436 251 
Q 5144 -91 4653 -91 
Q 4153 -91 3862 251 
Q 3572 594 3572 1178 
Q 3572 1766 3864 2108 
Q 4156 2450 4653 2450 
z
M 1428 4353 
Q 1159 4353 1004 4120 
Q 850 3888 850 3481 
Q 850 3069 1003 2837 
Q 1156 2606 1428 2606 
Q 1700 2606 1854 2837 
Q 2009 3069 2009 3481 
Q 2009 3884 1853 4118 
Q 1697 4353 1428 4353 
z
M 4250 4750 
L 4750 4750 
L 1831 -91 
L 1331 -91 
L 4250 4750 
z
M 1428 4750 
Q 1922 4750 2215 4408 
Q 2509 4066 2509 3481 
Q 2509 2891 2217 2550 
Q 1925 2209 1428 2209 
Q 931 2209 642 2551 
Q 353 2894 353 3481 
Q 353 4063 643 4406 
Q 934 4750 1428 4750 
z
" id="DejaVuSans-25" transform="scale(0.015625)"/>
      <path d="M 4447 4306 
L 4319 3641 
Q 4019 3944 3683 4091 
Q 3347 4238 2956 4238 
Q 2422 4238 2017 3981 
Q 1613 3725 1319 3200 
Q 1131 2863 1032 2486 
Q 934 2109 934 1728 
Q 934 1091 1264 756 
Q 1594 422 2222 422 
Q 2656 422 3056 561 
Q 3456 700 3834 978 
L 3688 231 
Q 3316 72 2936 -9 
Q 2556 -91 2175 -91 
Q 1278 -91 773 396 
Q 269 884 269 1753 
Q 269 2309 461 2846 
Q 653 3384 1013 3828 
Q 1394 4300 1883 4525 
Q 2372 4750 3022 4750 
Q 3422 4750 3780 4639 
Q 4138 4528 4447 4306 
z
" id="DejaVuSans-Oblique-43" transform="scale(0.015625)"/>
      <path d="M 1966 397 
Q 2378 394 2578 159 
Q 2794 -88 2722 -463 
Q 2650 -822 2372 -1072 
Q 2069 -1344 1559 -1344 
Q 1606 -1109 1650 -872 
Q 1863 -888 2022 -750 
Q 2144 -641 2166 -525 
Q 2197 -359 2125 -222 
Q 2050 -91 1872 -91 
Q -22 -91 316 1669 
Q 616 3206 2609 4284 
L 947 4284 
L 1059 4863 
L 3778 4863 
L 3666 4284 
Q 1181 3147 894 1669 
Q 647 397 1966 397 
z
" id="DejaVuSans-Oblique-3b6" transform="scale(0.015625)"/>
      <path d="M 2419 4116 
L 825 1625 
L 2419 1625 
L 2419 4116 
z
M 2253 4666 
L 3047 4666 
L 3047 1625 
L 3713 1625 
L 3713 1100 
L 3047 1100 
L 3047 0 
L 2419 0 
L 2419 1100 
L 313 1100 
L 313 1709 
L 2253 4666 
z
" id="DejaVuSans-34" transform="scale(0.015625)"/>
      <path d="M 2219 3044 
Q 1744 3044 1422 2700 
Q 1081 2341 969 1747 
Q 844 1119 1044 756 
Q 1241 397 1706 397 
Q 2166 397 2503 759 
Q 2844 1122 2966 1747 
Q 3075 2319 2881 2700 
Q 2700 3044 2219 3044 
z
M 2309 3503 
L 4219 3500 
L 4106 2925 
L 3463 2925 
Q 3706 2438 3575 1747 
Q 3406 888 2884 400 
Q 2359 -91 1609 -91 
Q 856 -91 525 400 
Q 194 888 363 1747 
Q 528 2609 1050 3097 
Q 1484 3503 2309 3503 
z
" id="DejaVuSans-Oblique-3c3" transform="scale(0.015625)"/>
      <path d="M 2597 2516 
Q 3050 2419 3304 2112 
Q 3559 1806 3559 1356 
Q 3559 666 3084 287 
Q 2609 -91 1734 -91 
Q 1441 -91 1130 -33 
Q 819 25 488 141 
L 488 750 
Q 750 597 1062 519 
Q 1375 441 1716 441 
Q 2309 441 2620 675 
Q 2931 909 2931 1356 
Q 2931 1769 2642 2001 
Q 2353 2234 1838 2234 
L 1294 2234 
L 1294 2753 
L 1863 2753 
Q 2328 2753 2575 2939 
Q 2822 3125 2822 3475 
Q 2822 3834 2567 4026 
Q 2313 4219 1838 4219 
Q 1578 4219 1281 4162 
Q 984 4106 628 3988 
L 628 4550 
Q 988 4650 1302 4700 
Q 1616 4750 1894 4750 
Q 2613 4750 3031 4423 
Q 3450 4097 3450 3541 
Q 3450 3153 3228 2886 
Q 3006 2619 2597 2516 
z
" id="DejaVuSans-33" transform="scale(0.015625)"/>
      <path d="M 3431 3366 
L 3316 2797 
Q 3109 2947 2876 3022 
Q 2644 3097 2394 3097 
Q 2119 3097 1870 3000 
Q 1622 2903 1453 2725 
Q 1184 2453 1037 2087 
Q 891 1722 891 1331 
Q 891 859 1127 628 
Q 1363 397 1844 397 
Q 2081 397 2348 469 
Q 2616 541 2906 684 
L 2797 116 
Q 2547 13 2283 -39 
Q 2019 -91 1741 -91 
Q 1044 -91 669 257 
Q 294 606 294 1253 
Q 294 1797 489 2255 
Q 684 2713 1069 3078 
Q 1331 3328 1684 3456 
Q 2038 3584 2456 3584 
Q 2700 3584 2940 3529 
Q 3181 3475 3431 3366 
z
" id="DejaVuSans-Oblique-63" transform="scale(0.015625)"/>
      <path d="M 5747 2113 
L 5338 0 
L 4763 0 
L 5166 2094 
Q 5191 2228 5203 2325 
Q 5216 2422 5216 2491 
Q 5216 2772 5059 2928 
Q 4903 3084 4622 3084 
Q 4203 3084 3875 2770 
Q 3547 2456 3450 1953 
L 3066 0 
L 2491 0 
L 2900 2094 
Q 2925 2209 2937 2307 
Q 2950 2406 2950 2484 
Q 2950 2769 2794 2926 
Q 2638 3084 2363 3084 
Q 1938 3084 1609 2770 
Q 1281 2456 1184 1953 
L 800 0 
L 225 0 
L 909 3500 
L 1484 3500 
L 1375 2956 
Q 1609 3263 1923 3423 
Q 2238 3584 2597 3584 
Q 2978 3584 3223 3384 
Q 3469 3184 3519 2828 
Q 3781 3197 4126 3390 
Q 4472 3584 4856 3584 
Q 5306 3584 5551 3325 
Q 5797 3066 5797 2591 
Q 5797 2488 5784 2364 
Q 5772 2241 5747 2113 
z
" id="DejaVuSans-Oblique-6d" transform="scale(0.015625)"/>
     </defs>
     <use transform="translate(0 0.684375)" xlink:href="#DejaVuSans-54"/>
     <use transform="translate(61.083984 0.684375)" xlink:href="#DejaVuSans-20"/>
     <use transform="translate(92.871094 0.684375)" xlink:href="#DejaVuSans-3d"/>
     <use transform="translate(176.660156 0.684375)" xlink:href="#DejaVuSans-20"/>
     <use transform="translate(208.447266 0.684375)" xlink:href="#DejaVuSans-36"/>
     <use transform="translate(272.070312 0.684375)" xlink:href="#DejaVuSans-31"/>
     <use transform="translate(335.693359 0.684375)" xlink:href="#DejaVuSans-2e"/>
     <use transform="translate(361.980469 0.684375)" xlink:href="#DejaVuSans-32"/>
     <use transform="translate(425.603516 0.684375)" xlink:href="#DejaVuSans-20"/>
     <use transform="translate(457.390625 0.684375)" xlink:href="#DejaVuSans-4b"/>
     <use transform="translate(522.966797 0.684375)" xlink:href="#DejaVuSans-2c"/>
     <use transform="translate(554.753906 0.684375)" xlink:href="#DejaVuSans-20"/>
     <use transform="translate(586.541016 0.684375)" xlink:href="#DejaVuSans-20"/>
     <use transform="translate(618.328125 0.684375)" xlink:href="#DejaVuSans-394"/>
     <use transform="translate(686.736328 0.684375)" xlink:href="#DejaVuSans-Oblique-42"/>
     <use transform="translate(774.822266 0.684375)" xlink:href="#DejaVuSans-3d"/>
     <use transform="translate(878.09375 0.684375)" xlink:href="#DejaVuSans-20"/>
     <use transform="translate(909.880859 0.684375)" xlink:href="#DejaVuSans-2d"/>
     <use transform="translate(945.964844 0.684375)" xlink:href="#DejaVuSans-30"/>
     <use transform="translate(1009.587891 0.684375)" xlink:href="#DejaVuSans-2e"/>
     <use transform="translate(1041.375 0.684375)" xlink:href="#DejaVuSans-31"/>
     <use transform="translate(1104.998047 0.684375)" xlink:href="#DejaVuSans-37"/>
     <use transform="translate(1168.621094 0.684375)" xlink:href="#DejaVuSans-25"/>
     <use transform="translate(1263.640625 0.684375)" xlink:href="#DejaVuSans-20"/>
     <use transform="translate(1295.427734 0.684375)" xlink:href="#DejaVuSans-2c"/>
     <use transform="translate(1327.214844 0.684375)" xlink:href="#DejaVuSans-20"/>
     <use transform="translate(1359.001953 0.684375)" xlink:href="#DejaVuSans-20"/>
     <use transform="translate(1390.789062 0.684375)" xlink:href="#DejaVuSans-394"/>
     <use transform="translate(1459.197266 0.684375)" xlink:href="#DejaVuSans-Oblique-43"/>
     <use transform="translate(1548.503906 0.684375)" xlink:href="#DejaVuSans-3d"/>
     <use transform="translate(1651.775391 0.684375)" xlink:href="#DejaVuSans-20"/>
     <use transform="translate(1683.5625 0.684375)" xlink:href="#DejaVuSans-2d"/>
     <use transform="translate(1719.646484 0.684375)" xlink:href="#DejaVuSans-30"/>
     <use transform="translate(1783.269531 0.684375)" xlink:href="#DejaVuSans-2e"/>
     <use transform="translate(1815.056641 0.684375)" xlink:href="#DejaVuSans-31"/>
     <use transform="translate(1878.679688 0.684375)" xlink:href="#DejaVuSans-37"/>
     <use transform="translate(1942.302734 0.684375)" xlink:href="#DejaVuSans-25"/>
     <use transform="translate(2037.322266 0.684375)" xlink:href="#DejaVuSans-20"/>
     <use transform="translate(2069.109375 0.684375)" xlink:href="#DejaVuSans-2c"/>
     <use transform="translate(2100.896484 0.684375)" xlink:href="#DejaVuSans-20"/>
     <use transform="translate(2132.683594 0.684375)" xlink:href="#DejaVuSans-Oblique-3b6"/>
     <use transform="translate(2206.560547 0.684375)" xlink:href="#DejaVuSans-3d"/>
     <use transform="translate(2309.832031 0.684375)" xlink:href="#DejaVuSans-2d"/>
     <use transform="translate(2345.916016 0.684375)" xlink:href="#DejaVuSans-30"/>
     <use transform="translate(2409.539062 0.684375)" xlink:href="#DejaVuSans-2e"/>
     <use transform="translate(2441.326172 0.684375)" xlink:href="#DejaVuSans-34"/>
     <use transform="translate(2504.949219 0.684375)" xlink:href="#DejaVuSans-39"/>
     <use transform="translate(2568.572266 0.684375)" xlink:href="#DejaVuSans-2c"/>
     <use transform="translate(2600.359375 0.684375)" xlink:href="#DejaVuSans-20"/>
     <use transform="translate(2632.146484 0.684375)" xlink:href="#DejaVuSans-Oblique-3c3"/>
     <use transform="translate(2715.007812 0.684375)" xlink:href="#DejaVuSans-3d"/>
     <use transform="translate(2818.279297 0.684375)" xlink:href="#DejaVuSans-30"/>
     <use transform="translate(2881.902344 0.684375)" xlink:href="#DejaVuSans-2e"/>
     <use transform="translate(2913.689453 0.684375)" xlink:href="#DejaVuSans-31"/>
     <use transform="translate(2977.3125 0.684375)" xlink:href="#DejaVuSans-39"/>
     <use transform="translate(3040.935547 0.684375)" xlink:href="#DejaVuSans-35"/>
     <use transform="translate(3104.558594 0.684375)" xlink:href="#DejaVuSans-33"/>
     <use transform="translate(3168.181641 0.684375)" xlink:href="#DejaVuSans-Oblique-63"/>
     <use transform="translate(3223.162109 0.684375)" xlink:href="#DejaVuSans-Oblique-6d"/>
     <use transform="translate(3325.224115 38.965625)scale(0.7)" xlink:href="#DejaVuSans-2212"/>
     <use transform="translate(3383.876458 38.965625)scale(0.7)" xlink:href="#DejaVuSans-31"/>
    </g>
   </g>
   <g id="legend_1">
    <g id="patch_7">
     <path d="M 809.754688 120.790625 
L 880.14375 120.790625 
Q 882.14375 120.790625 882.14375 118.790625 
L 882.14375 31 
Q 882.14375 29 880.14375 29 
L 809.754688 29 
Q 807.754688 29 807.754688 31 
L 807.754688 118.790625 
Q 807.754688 120.790625 809.754688 120.790625 
z
" style="fill:#ffffff;opacity:0.8;stroke:#cccccc;stroke-linejoin:miter;"/>
    </g>
    <g id="text_15">
     <!-- B (in cm$^{-1}$) -->
     <g transform="translate(816.899219 41.320312)scale(0.1 -0.1)">
      <defs>
       <path d="M 1259 2228 
L 1259 519 
L 2272 519 
Q 2781 519 3026 730 
Q 3272 941 3272 1375 
Q 3272 1813 3026 2020 
Q 2781 2228 2272 2228 
L 1259 2228 
z
M 1259 4147 
L 1259 2741 
L 2194 2741 
Q 2656 2741 2882 2914 
Q 3109 3088 3109 3444 
Q 3109 3797 2882 3972 
Q 2656 4147 2194 4147 
L 1259 4147 
z
M 628 4666 
L 2241 4666 
Q 2963 4666 3353 4366 
Q 3744 4066 3744 3513 
Q 3744 3084 3544 2831 
Q 3344 2578 2956 2516 
Q 3422 2416 3680 2098 
Q 3938 1781 3938 1306 
Q 3938 681 3513 340 
Q 3088 0 2303 0 
L 628 0 
L 628 4666 
z
" id="DejaVuSans-42" transform="scale(0.015625)"/>
      </defs>
      <use transform="translate(0 0.684375)" xlink:href="#DejaVuSans-42"/>
      <use transform="translate(68.603516 0.684375)" xlink:href="#DejaVuSans-20"/>
      <use transform="translate(100.390625 0.684375)" xlink:href="#DejaVuSans-28"/>
      <use transform="translate(139.404297 0.684375)" xlink:href="#DejaVuSans-69"/>
      <use transform="translate(167.1875 0.684375)" xlink:href="#DejaVuSans-6e"/>
      <use transform="translate(230.566406 0.684375)" xlink:href="#DejaVuSans-20"/>
      <use transform="translate(262.353516 0.684375)" xlink:href="#DejaVuSans-63"/>
      <use transform="translate(317.333984 0.684375)" xlink:href="#DejaVuSans-6d"/>
      <use transform="translate(415.703125 38.965625)scale(0.7)" xlink:href="#DejaVuSans-2212"/>
      <use transform="translate(474.355469 38.965625)scale(0.7)" xlink:href="#DejaVuSans-31"/>
      <use transform="translate(521.625977 0.684375)" xlink:href="#DejaVuSans-29"/>
     </g>
    </g>
    <g id="line2d_17">
     <path d="M 811.754688 52.498437 
L 831.754688 52.498437 
" style="fill:none;stroke:#e98768;stroke-linecap:square;stroke-width:1.5;"/>
    </g>
    <g id="line2d_18"/>
    <g id="text_16">
     <!-- 5.0e-04 -->
     <g transform="translate(839.754688 55.998437)scale(0.1 -0.1)">
      <use xlink:href="#DejaVuSans-35"/>
      <use x="63.623047" xlink:href="#DejaVuSans-2e"/>
      <use x="95.410156" xlink:href="#DejaVuSans-30"/>
      <use x="159.033203" xlink:href="#DejaVuSans-65"/>
      <use x="220.556641" xlink:href="#DejaVuSans-2d"/>
      <use x="256.640625" xlink:href="#DejaVuSans-30"/>
      <use x="320.263672" xlink:href="#DejaVuSans-34"/>
     </g>
    </g>
    <g id="line2d_19">
     <path d="M 811.754688 67.176562 
L 831.754688 67.176562 
" style="fill:none;stroke:#de5d5c;stroke-linecap:square;stroke-width:1.5;"/>
    </g>
    <g id="line2d_20"/>
    <g id="text_17">
     <!-- 1.6e-03 -->
     <g transform="translate(839.754688 70.676562)scale(0.1 -0.1)">
      <use xlink:href="#DejaVuSans-31"/>
      <use x="63.623047" xlink:href="#DejaVuSans-2e"/>
      <use x="95.410156" xlink:href="#DejaVuSans-36"/>
      <use x="159.033203" xlink:href="#DejaVuSans-65"/>
      <use x="220.556641" xlink:href="#DejaVuSans-2d"/>
      <use x="256.640625" xlink:href="#DejaVuSans-30"/>
      <use x="320.263672" xlink:href="#DejaVuSans-33"/>
     </g>
    </g>
    <g id="line2d_21">
     <path d="M 811.754688 81.854687 
L 831.754688 81.854687 
" style="fill:none;stroke:#c14168;stroke-linecap:square;stroke-width:1.5;"/>
    </g>
    <g id="line2d_22"/>
    <g id="text_18">
     <!-- 5.0e-03 -->
     <g transform="translate(839.754688 85.354687)scale(0.1 -0.1)">
      <use xlink:href="#DejaVuSans-35"/>
      <use x="63.623047" xlink:href="#DejaVuSans-2e"/>
      <use x="95.410156" xlink:href="#DejaVuSans-30"/>
      <use x="159.033203" xlink:href="#DejaVuSans-65"/>
      <use x="220.556641" xlink:href="#DejaVuSans-2d"/>
      <use x="256.640625" xlink:href="#DejaVuSans-30"/>
      <use x="320.263672" xlink:href="#DejaVuSans-33"/>
     </g>
    </g>
    <g id="line2d_23">
     <path d="M 811.754688 96.532812 
L 831.754688 96.532812 
" style="fill:none;stroke:#9a3670;stroke-linecap:square;stroke-width:1.5;"/>
    </g>
    <g id="line2d_24"/>
    <g id="text_19">
     <!-- 1.6e-02 -->
     <g transform="translate(839.754688 100.032812)scale(0.1 -0.1)">
      <use xlink:href="#DejaVuSans-31"/>
      <use x="63.623047" xlink:href="#DejaVuSans-2e"/>
      <use x="95.410156" xlink:href="#DejaVuSans-36"/>
      <use x="159.033203" xlink:href="#DejaVuSans-65"/>
      <use x="220.556641" xlink:href="#DejaVuSans-2d"/>
      <use x="256.640625" xlink:href="#DejaVuSans-30"/>
      <use x="320.263672" xlink:href="#DejaVuSans-32"/>
     </g>
    </g>
    <g id="line2d_25">
     <path d="M 811.754688 111.210937 
L 831.754688 111.210937 
" style="fill:none;stroke:#722c6e;stroke-linecap:square;stroke-width:1.5;"/>
    </g>
    <g id="line2d_26"/>
    <g id="text_20">
     <!-- 5.0e-02 -->
     <g transform="translate(839.754688 114.710937)scale(0.1 -0.1)">
      <use xlink:href="#DejaVuSans-35"/>
      <use x="63.623047" xlink:href="#DejaVuSans-2e"/>
      <use x="95.410156" xlink:href="#DejaVuSans-30"/>
      <use x="159.033203" xlink:href="#DejaVuSans-65"/>
      <use x="220.556641" xlink:href="#DejaVuSans-2d"/>
      <use x="256.640625" xlink:href="#DejaVuSans-30"/>
      <use x="320.263672" xlink:href="#DejaVuSans-32"/>
     </g>
    </g>
   </g>
  </g>
 </g>
 <defs>
  <clipPath id="p175d251cc2">
   <rect height="434.88" width="837" x="50.14375" y="24"/>
  </clipPath>
 </defs>
</svg>
