<?xml version="1.0" encoding="utf-8" standalone="no"?>
<!DOCTYPE svg PUBLIC "-//W3C//DTD SVG 1.1//EN"
  "http://www.w3.org/Graphics/SVG/1.1/DTD/svg11.dtd">
<svg height="497.158125pt" version="1.1" viewBox="0 0 894.34375 497.158125" width="894.34375pt" xmlns="http://www.w3.org/2000/svg" xmlns:xlink="http://www.w3.org/1999/xlink">
 <metadata>
  <rdf:RDF xmlns:cc="http://creativecommons.org/ns#" xmlns:dc="http://purl.org/dc/elements/1.1/" xmlns:rdf="http://www.w3.org/1999/02/22-rdf-syntax-ns#">
   <cc:Work>
    <dc:type rdf:resource="http://purl.org/dc/dcmitype/StillImage"/>
    <dc:date>2022-12-12T17:33:34.114969</dc:date>
    <dc:format>image/svg+xml</dc:format>
    <dc:creator>
     <cc:Agent>
      <dc:title>Matplotlib v3.4.3, https://matplotlib.org/</dc:title>
     </cc:Agent>
    </dc:creator>
   </cc:Work>
  </rdf:RDF>
 </metadata>
 <defs>
  <style type="text/css">*{stroke-linecap:butt;stroke-linejoin:round;}</style>
 </defs>
 <g id="figure_1">
  <g id="patch_1">
   <path d="M 0 497.158125 
L 894.34375 497.158125 
L 894.34375 0 
L 0 0 
z
" style="fill:#ffffff;"/>
  </g>
  <g id="axes_1">
   <g id="patch_2">
    <path d="M 50.14375 458.88 
L 887.14375 458.88 
L 887.14375 24 
L 50.14375 24 
z
" style="fill:#ffffff;"/>
   </g>
   <g id="matplotlib.axis_1">
    <g id="xtick_1">
     <g id="line2d_1">
      <defs>
       <path d="M 0 0 
L 0 3.5 
" id="m095440039f" style="stroke:#000000;stroke-width:0.8;"/>
      </defs>
      <g>
       <use style="stroke:#000000;stroke-width:0.8;" x="105.842029" xlink:href="#m095440039f" y="458.88"/>
      </g>
     </g>
     <g id="text_1">
      <!-- −3 -->
      <g transform="translate(98.470936 473.478437)scale(0.1 -0.1)">
       <defs>
        <path d="M 678 2272 
L 4684 2272 
L 4684 1741 
L 678 1741 
L 678 2272 
z
" id="DejaVuSans-2212" transform="scale(0.015625)"/>
        <path d="M 2597 2516 
Q 3050 2419 3304 2112 
Q 3559 1806 3559 1356 
Q 3559 666 3084 287 
Q 2609 -91 1734 -91 
Q 1441 -91 1130 -33 
Q 819 25 488 141 
L 488 750 
Q 750 597 1062 519 
Q 1375 441 1716 441 
Q 2309 441 2620 675 
Q 2931 909 2931 1356 
Q 2931 1769 2642 2001 
Q 2353 2234 1838 2234 
L 1294 2234 
L 1294 2753 
L 1863 2753 
Q 2328 2753 2575 2939 
Q 2822 3125 2822 3475 
Q 2822 3834 2567 4026 
Q 2313 4219 1838 4219 
Q 1578 4219 1281 4162 
Q 984 4106 628 3988 
L 628 4550 
Q 988 4650 1302 4700 
Q 1616 4750 1894 4750 
Q 2613 4750 3031 4423 
Q 3450 4097 3450 3541 
Q 3450 3153 3228 2886 
Q 3006 2619 2597 2516 
z
" id="DejaVuSans-33" transform="scale(0.015625)"/>
       </defs>
       <use xlink:href="#DejaVuSans-2212"/>
       <use x="83.789062" xlink:href="#DejaVuSans-33"/>
      </g>
     </g>
    </g>
    <g id="xtick_2">
     <g id="line2d_2">
      <g>
       <use style="stroke:#000000;stroke-width:0.8;" x="243.978248" xlink:href="#m095440039f" y="458.88"/>
      </g>
     </g>
     <g id="text_2">
      <!-- −2 -->
      <g transform="translate(236.607155 473.478437)scale(0.1 -0.1)">
       <defs>
        <path d="M 1228 531 
L 3431 531 
L 3431 0 
L 469 0 
L 469 531 
Q 828 903 1448 1529 
Q 2069 2156 2228 2338 
Q 2531 2678 2651 2914 
Q 2772 3150 2772 3378 
Q 2772 3750 2511 3984 
Q 2250 4219 1831 4219 
Q 1534 4219 1204 4116 
Q 875 4013 500 3803 
L 500 4441 
Q 881 4594 1212 4672 
Q 1544 4750 1819 4750 
Q 2544 4750 2975 4387 
Q 3406 4025 3406 3419 
Q 3406 3131 3298 2873 
Q 3191 2616 2906 2266 
Q 2828 2175 2409 1742 
Q 1991 1309 1228 531 
z
" id="DejaVuSans-32" transform="scale(0.015625)"/>
       </defs>
       <use xlink:href="#DejaVuSans-2212"/>
       <use x="83.789062" xlink:href="#DejaVuSans-32"/>
      </g>
     </g>
    </g>
    <g id="xtick_3">
     <g id="line2d_3">
      <g>
       <use style="stroke:#000000;stroke-width:0.8;" x="382.114467" xlink:href="#m095440039f" y="458.88"/>
      </g>
     </g>
     <g id="text_3">
      <!-- −1 -->
      <g transform="translate(374.743374 473.478437)scale(0.1 -0.1)">
       <defs>
        <path d="M 794 531 
L 1825 531 
L 1825 4091 
L 703 3866 
L 703 4441 
L 1819 4666 
L 2450 4666 
L 2450 531 
L 3481 531 
L 3481 0 
L 794 0 
L 794 531 
z
" id="DejaVuSans-31" transform="scale(0.015625)"/>
       </defs>
       <use xlink:href="#DejaVuSans-2212"/>
       <use x="83.789062" xlink:href="#DejaVuSans-31"/>
      </g>
     </g>
    </g>
    <g id="xtick_4">
     <g id="line2d_4">
      <g>
       <use style="stroke:#000000;stroke-width:0.8;" x="520.250686" xlink:href="#m095440039f" y="458.88"/>
      </g>
     </g>
     <g id="text_4">
      <!-- 0 -->
      <g transform="translate(517.069436 473.478437)scale(0.1 -0.1)">
       <defs>
        <path d="M 2034 4250 
Q 1547 4250 1301 3770 
Q 1056 3291 1056 2328 
Q 1056 1369 1301 889 
Q 1547 409 2034 409 
Q 2525 409 2770 889 
Q 3016 1369 3016 2328 
Q 3016 3291 2770 3770 
Q 2525 4250 2034 4250 
z
M 2034 4750 
Q 2819 4750 3233 4129 
Q 3647 3509 3647 2328 
Q 3647 1150 3233 529 
Q 2819 -91 2034 -91 
Q 1250 -91 836 529 
Q 422 1150 422 2328 
Q 422 3509 836 4129 
Q 1250 4750 2034 4750 
z
" id="DejaVuSans-30" transform="scale(0.015625)"/>
       </defs>
       <use xlink:href="#DejaVuSans-30"/>
      </g>
     </g>
    </g>
    <g id="xtick_5">
     <g id="line2d_5">
      <g>
       <use style="stroke:#000000;stroke-width:0.8;" x="658.386905" xlink:href="#m095440039f" y="458.88"/>
      </g>
     </g>
     <g id="text_5">
      <!-- 1 -->
      <g transform="translate(655.205655 473.478437)scale(0.1 -0.1)">
       <use xlink:href="#DejaVuSans-31"/>
      </g>
     </g>
    </g>
    <g id="xtick_6">
     <g id="line2d_6">
      <g>
       <use style="stroke:#000000;stroke-width:0.8;" x="796.523124" xlink:href="#m095440039f" y="458.88"/>
      </g>
     </g>
     <g id="text_6">
      <!-- 2 -->
      <g transform="translate(793.341874 473.478437)scale(0.1 -0.1)">
       <use xlink:href="#DejaVuSans-32"/>
      </g>
     </g>
    </g>
    <g id="text_7">
     <!-- Wavenumber (in cm$^{-1}$) -->
     <g transform="translate(410.44375 487.878437)scale(0.1 -0.1)">
      <defs>
       <path d="M 213 4666 
L 850 4666 
L 1831 722 
L 2809 4666 
L 3519 4666 
L 4500 722 
L 5478 4666 
L 6119 4666 
L 4947 0 
L 4153 0 
L 3169 4050 
L 2175 0 
L 1381 0 
L 213 4666 
z
" id="DejaVuSans-57" transform="scale(0.015625)"/>
       <path d="M 2194 1759 
Q 1497 1759 1228 1600 
Q 959 1441 959 1056 
Q 959 750 1161 570 
Q 1363 391 1709 391 
Q 2188 391 2477 730 
Q 2766 1069 2766 1631 
L 2766 1759 
L 2194 1759 
z
M 3341 1997 
L 3341 0 
L 2766 0 
L 2766 531 
Q 2569 213 2275 61 
Q 1981 -91 1556 -91 
Q 1019 -91 701 211 
Q 384 513 384 1019 
Q 384 1609 779 1909 
Q 1175 2209 1959 2209 
L 2766 2209 
L 2766 2266 
Q 2766 2663 2505 2880 
Q 2244 3097 1772 3097 
Q 1472 3097 1187 3025 
Q 903 2953 641 2809 
L 641 3341 
Q 956 3463 1253 3523 
Q 1550 3584 1831 3584 
Q 2591 3584 2966 3190 
Q 3341 2797 3341 1997 
z
" id="DejaVuSans-61" transform="scale(0.015625)"/>
       <path d="M 191 3500 
L 800 3500 
L 1894 563 
L 2988 3500 
L 3597 3500 
L 2284 0 
L 1503 0 
L 191 3500 
z
" id="DejaVuSans-76" transform="scale(0.015625)"/>
       <path d="M 3597 1894 
L 3597 1613 
L 953 1613 
Q 991 1019 1311 708 
Q 1631 397 2203 397 
Q 2534 397 2845 478 
Q 3156 559 3463 722 
L 3463 178 
Q 3153 47 2828 -22 
Q 2503 -91 2169 -91 
Q 1331 -91 842 396 
Q 353 884 353 1716 
Q 353 2575 817 3079 
Q 1281 3584 2069 3584 
Q 2775 3584 3186 3129 
Q 3597 2675 3597 1894 
z
M 3022 2063 
Q 3016 2534 2758 2815 
Q 2500 3097 2075 3097 
Q 1594 3097 1305 2825 
Q 1016 2553 972 2059 
L 3022 2063 
z
" id="DejaVuSans-65" transform="scale(0.015625)"/>
       <path d="M 3513 2113 
L 3513 0 
L 2938 0 
L 2938 2094 
Q 2938 2591 2744 2837 
Q 2550 3084 2163 3084 
Q 1697 3084 1428 2787 
Q 1159 2491 1159 1978 
L 1159 0 
L 581 0 
L 581 3500 
L 1159 3500 
L 1159 2956 
Q 1366 3272 1645 3428 
Q 1925 3584 2291 3584 
Q 2894 3584 3203 3211 
Q 3513 2838 3513 2113 
z
" id="DejaVuSans-6e" transform="scale(0.015625)"/>
       <path d="M 544 1381 
L 544 3500 
L 1119 3500 
L 1119 1403 
Q 1119 906 1312 657 
Q 1506 409 1894 409 
Q 2359 409 2629 706 
Q 2900 1003 2900 1516 
L 2900 3500 
L 3475 3500 
L 3475 0 
L 2900 0 
L 2900 538 
Q 2691 219 2414 64 
Q 2138 -91 1772 -91 
Q 1169 -91 856 284 
Q 544 659 544 1381 
z
M 1991 3584 
L 1991 3584 
z
" id="DejaVuSans-75" transform="scale(0.015625)"/>
       <path d="M 3328 2828 
Q 3544 3216 3844 3400 
Q 4144 3584 4550 3584 
Q 5097 3584 5394 3201 
Q 5691 2819 5691 2113 
L 5691 0 
L 5113 0 
L 5113 2094 
Q 5113 2597 4934 2840 
Q 4756 3084 4391 3084 
Q 3944 3084 3684 2787 
Q 3425 2491 3425 1978 
L 3425 0 
L 2847 0 
L 2847 2094 
Q 2847 2600 2669 2842 
Q 2491 3084 2119 3084 
Q 1678 3084 1418 2786 
Q 1159 2488 1159 1978 
L 1159 0 
L 581 0 
L 581 3500 
L 1159 3500 
L 1159 2956 
Q 1356 3278 1631 3431 
Q 1906 3584 2284 3584 
Q 2666 3584 2933 3390 
Q 3200 3197 3328 2828 
z
" id="DejaVuSans-6d" transform="scale(0.015625)"/>
       <path d="M 3116 1747 
Q 3116 2381 2855 2742 
Q 2594 3103 2138 3103 
Q 1681 3103 1420 2742 
Q 1159 2381 1159 1747 
Q 1159 1113 1420 752 
Q 1681 391 2138 391 
Q 2594 391 2855 752 
Q 3116 1113 3116 1747 
z
M 1159 2969 
Q 1341 3281 1617 3432 
Q 1894 3584 2278 3584 
Q 2916 3584 3314 3078 
Q 3713 2572 3713 1747 
Q 3713 922 3314 415 
Q 2916 -91 2278 -91 
Q 1894 -91 1617 61 
Q 1341 213 1159 525 
L 1159 0 
L 581 0 
L 581 4863 
L 1159 4863 
L 1159 2969 
z
" id="DejaVuSans-62" transform="scale(0.015625)"/>
       <path d="M 2631 2963 
Q 2534 3019 2420 3045 
Q 2306 3072 2169 3072 
Q 1681 3072 1420 2755 
Q 1159 2438 1159 1844 
L 1159 0 
L 581 0 
L 581 3500 
L 1159 3500 
L 1159 2956 
Q 1341 3275 1631 3429 
Q 1922 3584 2338 3584 
Q 2397 3584 2469 3576 
Q 2541 3569 2628 3553 
L 2631 2963 
z
" id="DejaVuSans-72" transform="scale(0.015625)"/>
       <path id="DejaVuSans-20" transform="scale(0.015625)"/>
       <path d="M 1984 4856 
Q 1566 4138 1362 3434 
Q 1159 2731 1159 2009 
Q 1159 1288 1364 580 
Q 1569 -128 1984 -844 
L 1484 -844 
Q 1016 -109 783 600 
Q 550 1309 550 2009 
Q 550 2706 781 3412 
Q 1013 4119 1484 4856 
L 1984 4856 
z
" id="DejaVuSans-28" transform="scale(0.015625)"/>
       <path d="M 603 3500 
L 1178 3500 
L 1178 0 
L 603 0 
L 603 3500 
z
M 603 4863 
L 1178 4863 
L 1178 4134 
L 603 4134 
L 603 4863 
z
" id="DejaVuSans-69" transform="scale(0.015625)"/>
       <path d="M 3122 3366 
L 3122 2828 
Q 2878 2963 2633 3030 
Q 2388 3097 2138 3097 
Q 1578 3097 1268 2742 
Q 959 2388 959 1747 
Q 959 1106 1268 751 
Q 1578 397 2138 397 
Q 2388 397 2633 464 
Q 2878 531 3122 666 
L 3122 134 
Q 2881 22 2623 -34 
Q 2366 -91 2075 -91 
Q 1284 -91 818 406 
Q 353 903 353 1747 
Q 353 2603 823 3093 
Q 1294 3584 2113 3584 
Q 2378 3584 2631 3529 
Q 2884 3475 3122 3366 
z
" id="DejaVuSans-63" transform="scale(0.015625)"/>
       <path d="M 513 4856 
L 1013 4856 
Q 1481 4119 1714 3412 
Q 1947 2706 1947 2009 
Q 1947 1309 1714 600 
Q 1481 -109 1013 -844 
L 513 -844 
Q 928 -128 1133 580 
Q 1338 1288 1338 2009 
Q 1338 2731 1133 3434 
Q 928 4138 513 4856 
z
" id="DejaVuSans-29" transform="scale(0.015625)"/>
      </defs>
      <use transform="translate(0 0.684375)" xlink:href="#DejaVuSans-57"/>
      <use transform="translate(98.876953 0.684375)" xlink:href="#DejaVuSans-61"/>
      <use transform="translate(160.15625 0.684375)" xlink:href="#DejaVuSans-76"/>
      <use transform="translate(219.335938 0.684375)" xlink:href="#DejaVuSans-65"/>
      <use transform="translate(280.859375 0.684375)" xlink:href="#DejaVuSans-6e"/>
      <use transform="translate(344.238281 0.684375)" xlink:href="#DejaVuSans-75"/>
      <use transform="translate(407.617188 0.684375)" xlink:href="#DejaVuSans-6d"/>
      <use transform="translate(505.029297 0.684375)" xlink:href="#DejaVuSans-62"/>
      <use transform="translate(568.505859 0.684375)" xlink:href="#DejaVuSans-65"/>
      <use transform="translate(630.029297 0.684375)" xlink:href="#DejaVuSans-72"/>
      <use transform="translate(671.142578 0.684375)" xlink:href="#DejaVuSans-20"/>
      <use transform="translate(702.929688 0.684375)" xlink:href="#DejaVuSans-28"/>
      <use transform="translate(741.943359 0.684375)" xlink:href="#DejaVuSans-69"/>
      <use transform="translate(769.726562 0.684375)" xlink:href="#DejaVuSans-6e"/>
      <use transform="translate(833.105469 0.684375)" xlink:href="#DejaVuSans-20"/>
      <use transform="translate(864.892578 0.684375)" xlink:href="#DejaVuSans-63"/>
      <use transform="translate(919.873047 0.684375)" xlink:href="#DejaVuSans-6d"/>
      <use transform="translate(1018.242188 38.965625)scale(0.7)" xlink:href="#DejaVuSans-2212"/>
      <use transform="translate(1076.894531 38.965625)scale(0.7)" xlink:href="#DejaVuSans-31"/>
      <use transform="translate(1124.165039 0.684375)" xlink:href="#DejaVuSans-29"/>
     </g>
    </g>
   </g>
   <g id="matplotlib.axis_2">
    <g id="ytick_1">
     <g id="line2d_7">
      <defs>
       <path d="M 0 0 
L -3.5 0 
" id="m8d55847408" style="stroke:#000000;stroke-width:0.8;"/>
      </defs>
      <g>
       <use style="stroke:#000000;stroke-width:0.8;" x="50.14375" xlink:href="#m8d55847408" y="439.112727"/>
      </g>
     </g>
     <g id="text_8">
      <!-- 0.75 -->
      <g transform="translate(20.878125 442.911946)scale(0.1 -0.1)">
       <defs>
        <path d="M 684 794 
L 1344 794 
L 1344 0 
L 684 0 
L 684 794 
z
" id="DejaVuSans-2e" transform="scale(0.015625)"/>
        <path d="M 525 4666 
L 3525 4666 
L 3525 4397 
L 1831 0 
L 1172 0 
L 2766 4134 
L 525 4134 
L 525 4666 
z
" id="DejaVuSans-37" transform="scale(0.015625)"/>
        <path d="M 691 4666 
L 3169 4666 
L 3169 4134 
L 1269 4134 
L 1269 2991 
Q 1406 3038 1543 3061 
Q 1681 3084 1819 3084 
Q 2600 3084 3056 2656 
Q 3513 2228 3513 1497 
Q 3513 744 3044 326 
Q 2575 -91 1722 -91 
Q 1428 -91 1123 -41 
Q 819 9 494 109 
L 494 744 
Q 775 591 1075 516 
Q 1375 441 1709 441 
Q 2250 441 2565 725 
Q 2881 1009 2881 1497 
Q 2881 1984 2565 2268 
Q 2250 2553 1709 2553 
Q 1456 2553 1204 2497 
Q 953 2441 691 2322 
L 691 4666 
z
" id="DejaVuSans-35" transform="scale(0.015625)"/>
       </defs>
       <use xlink:href="#DejaVuSans-30"/>
       <use x="63.623047" xlink:href="#DejaVuSans-2e"/>
       <use x="95.410156" xlink:href="#DejaVuSans-37"/>
       <use x="159.033203" xlink:href="#DejaVuSans-35"/>
      </g>
     </g>
    </g>
    <g id="ytick_2">
     <g id="line2d_8">
      <g>
       <use style="stroke:#000000;stroke-width:0.8;" x="50.14375" xlink:href="#m8d55847408" y="349.257339"/>
      </g>
     </g>
     <g id="text_9">
      <!-- 0.80 -->
      <g transform="translate(20.878125 353.056558)scale(0.1 -0.1)">
       <defs>
        <path d="M 2034 2216 
Q 1584 2216 1326 1975 
Q 1069 1734 1069 1313 
Q 1069 891 1326 650 
Q 1584 409 2034 409 
Q 2484 409 2743 651 
Q 3003 894 3003 1313 
Q 3003 1734 2745 1975 
Q 2488 2216 2034 2216 
z
M 1403 2484 
Q 997 2584 770 2862 
Q 544 3141 544 3541 
Q 544 4100 942 4425 
Q 1341 4750 2034 4750 
Q 2731 4750 3128 4425 
Q 3525 4100 3525 3541 
Q 3525 3141 3298 2862 
Q 3072 2584 2669 2484 
Q 3125 2378 3379 2068 
Q 3634 1759 3634 1313 
Q 3634 634 3220 271 
Q 2806 -91 2034 -91 
Q 1263 -91 848 271 
Q 434 634 434 1313 
Q 434 1759 690 2068 
Q 947 2378 1403 2484 
z
M 1172 3481 
Q 1172 3119 1398 2916 
Q 1625 2713 2034 2713 
Q 2441 2713 2670 2916 
Q 2900 3119 2900 3481 
Q 2900 3844 2670 4047 
Q 2441 4250 2034 4250 
Q 1625 4250 1398 4047 
Q 1172 3844 1172 3481 
z
" id="DejaVuSans-38" transform="scale(0.015625)"/>
       </defs>
       <use xlink:href="#DejaVuSans-30"/>
       <use x="63.623047" xlink:href="#DejaVuSans-2e"/>
       <use x="95.410156" xlink:href="#DejaVuSans-38"/>
       <use x="159.033203" xlink:href="#DejaVuSans-30"/>
      </g>
     </g>
    </g>
    <g id="ytick_3">
     <g id="line2d_9">
      <g>
       <use style="stroke:#000000;stroke-width:0.8;" x="50.14375" xlink:href="#m8d55847408" y="259.401951"/>
      </g>
     </g>
     <g id="text_10">
      <!-- 0.85 -->
      <g transform="translate(20.878125 263.20117)scale(0.1 -0.1)">
       <use xlink:href="#DejaVuSans-30"/>
       <use x="63.623047" xlink:href="#DejaVuSans-2e"/>
       <use x="95.410156" xlink:href="#DejaVuSans-38"/>
       <use x="159.033203" xlink:href="#DejaVuSans-35"/>
      </g>
     </g>
    </g>
    <g id="ytick_4">
     <g id="line2d_10">
      <g>
       <use style="stroke:#000000;stroke-width:0.8;" x="50.14375" xlink:href="#m8d55847408" y="169.546563"/>
      </g>
     </g>
     <g id="text_11">
      <!-- 0.90 -->
      <g transform="translate(20.878125 173.345782)scale(0.1 -0.1)">
       <defs>
        <path d="M 703 97 
L 703 672 
Q 941 559 1184 500 
Q 1428 441 1663 441 
Q 2288 441 2617 861 
Q 2947 1281 2994 2138 
Q 2813 1869 2534 1725 
Q 2256 1581 1919 1581 
Q 1219 1581 811 2004 
Q 403 2428 403 3163 
Q 403 3881 828 4315 
Q 1253 4750 1959 4750 
Q 2769 4750 3195 4129 
Q 3622 3509 3622 2328 
Q 3622 1225 3098 567 
Q 2575 -91 1691 -91 
Q 1453 -91 1209 -44 
Q 966 3 703 97 
z
M 1959 2075 
Q 2384 2075 2632 2365 
Q 2881 2656 2881 3163 
Q 2881 3666 2632 3958 
Q 2384 4250 1959 4250 
Q 1534 4250 1286 3958 
Q 1038 3666 1038 3163 
Q 1038 2656 1286 2365 
Q 1534 2075 1959 2075 
z
" id="DejaVuSans-39" transform="scale(0.015625)"/>
       </defs>
       <use xlink:href="#DejaVuSans-30"/>
       <use x="63.623047" xlink:href="#DejaVuSans-2e"/>
       <use x="95.410156" xlink:href="#DejaVuSans-39"/>
       <use x="159.033203" xlink:href="#DejaVuSans-30"/>
      </g>
     </g>
    </g>
    <g id="ytick_5">
     <g id="line2d_11">
      <g>
       <use style="stroke:#000000;stroke-width:0.8;" x="50.14375" xlink:href="#m8d55847408" y="79.691175"/>
      </g>
     </g>
     <g id="text_12">
      <!-- 0.95 -->
      <g transform="translate(20.878125 83.490393)scale(0.1 -0.1)">
       <use xlink:href="#DejaVuSans-30"/>
       <use x="63.623047" xlink:href="#DejaVuSans-2e"/>
       <use x="95.410156" xlink:href="#DejaVuSans-39"/>
       <use x="159.033203" xlink:href="#DejaVuSans-35"/>
      </g>
     </g>
    </g>
    <g id="text_13">
     <!-- Normalized Intensity -->
     <g transform="translate(14.798438 293.147031)rotate(-90)scale(0.1 -0.1)">
      <defs>
       <path d="M 628 4666 
L 1478 4666 
L 3547 763 
L 3547 4666 
L 4159 4666 
L 4159 0 
L 3309 0 
L 1241 3903 
L 1241 0 
L 628 0 
L 628 4666 
z
" id="DejaVuSans-4e" transform="scale(0.015625)"/>
       <path d="M 1959 3097 
Q 1497 3097 1228 2736 
Q 959 2375 959 1747 
Q 959 1119 1226 758 
Q 1494 397 1959 397 
Q 2419 397 2687 759 
Q 2956 1122 2956 1747 
Q 2956 2369 2687 2733 
Q 2419 3097 1959 3097 
z
M 1959 3584 
Q 2709 3584 3137 3096 
Q 3566 2609 3566 1747 
Q 3566 888 3137 398 
Q 2709 -91 1959 -91 
Q 1206 -91 779 398 
Q 353 888 353 1747 
Q 353 2609 779 3096 
Q 1206 3584 1959 3584 
z
" id="DejaVuSans-6f" transform="scale(0.015625)"/>
       <path d="M 603 4863 
L 1178 4863 
L 1178 0 
L 603 0 
L 603 4863 
z
" id="DejaVuSans-6c" transform="scale(0.015625)"/>
       <path d="M 353 3500 
L 3084 3500 
L 3084 2975 
L 922 459 
L 3084 459 
L 3084 0 
L 275 0 
L 275 525 
L 2438 3041 
L 353 3041 
L 353 3500 
z
" id="DejaVuSans-7a" transform="scale(0.015625)"/>
       <path d="M 2906 2969 
L 2906 4863 
L 3481 4863 
L 3481 0 
L 2906 0 
L 2906 525 
Q 2725 213 2448 61 
Q 2172 -91 1784 -91 
Q 1150 -91 751 415 
Q 353 922 353 1747 
Q 353 2572 751 3078 
Q 1150 3584 1784 3584 
Q 2172 3584 2448 3432 
Q 2725 3281 2906 2969 
z
M 947 1747 
Q 947 1113 1208 752 
Q 1469 391 1925 391 
Q 2381 391 2643 752 
Q 2906 1113 2906 1747 
Q 2906 2381 2643 2742 
Q 2381 3103 1925 3103 
Q 1469 3103 1208 2742 
Q 947 2381 947 1747 
z
" id="DejaVuSans-64" transform="scale(0.015625)"/>
       <path d="M 628 4666 
L 1259 4666 
L 1259 0 
L 628 0 
L 628 4666 
z
" id="DejaVuSans-49" transform="scale(0.015625)"/>
       <path d="M 1172 4494 
L 1172 3500 
L 2356 3500 
L 2356 3053 
L 1172 3053 
L 1172 1153 
Q 1172 725 1289 603 
Q 1406 481 1766 481 
L 2356 481 
L 2356 0 
L 1766 0 
Q 1100 0 847 248 
Q 594 497 594 1153 
L 594 3053 
L 172 3053 
L 172 3500 
L 594 3500 
L 594 4494 
L 1172 4494 
z
" id="DejaVuSans-74" transform="scale(0.015625)"/>
       <path d="M 2834 3397 
L 2834 2853 
Q 2591 2978 2328 3040 
Q 2066 3103 1784 3103 
Q 1356 3103 1142 2972 
Q 928 2841 928 2578 
Q 928 2378 1081 2264 
Q 1234 2150 1697 2047 
L 1894 2003 
Q 2506 1872 2764 1633 
Q 3022 1394 3022 966 
Q 3022 478 2636 193 
Q 2250 -91 1575 -91 
Q 1294 -91 989 -36 
Q 684 19 347 128 
L 347 722 
Q 666 556 975 473 
Q 1284 391 1588 391 
Q 1994 391 2212 530 
Q 2431 669 2431 922 
Q 2431 1156 2273 1281 
Q 2116 1406 1581 1522 
L 1381 1569 
Q 847 1681 609 1914 
Q 372 2147 372 2553 
Q 372 3047 722 3315 
Q 1072 3584 1716 3584 
Q 2034 3584 2315 3537 
Q 2597 3491 2834 3397 
z
" id="DejaVuSans-73" transform="scale(0.015625)"/>
       <path d="M 2059 -325 
Q 1816 -950 1584 -1140 
Q 1353 -1331 966 -1331 
L 506 -1331 
L 506 -850 
L 844 -850 
Q 1081 -850 1212 -737 
Q 1344 -625 1503 -206 
L 1606 56 
L 191 3500 
L 800 3500 
L 1894 763 
L 2988 3500 
L 3597 3500 
L 2059 -325 
z
" id="DejaVuSans-79" transform="scale(0.015625)"/>
      </defs>
      <use xlink:href="#DejaVuSans-4e"/>
      <use x="74.804688" xlink:href="#DejaVuSans-6f"/>
      <use x="135.986328" xlink:href="#DejaVuSans-72"/>
      <use x="175.349609" xlink:href="#DejaVuSans-6d"/>
      <use x="272.761719" xlink:href="#DejaVuSans-61"/>
      <use x="334.041016" xlink:href="#DejaVuSans-6c"/>
      <use x="361.824219" xlink:href="#DejaVuSans-69"/>
      <use x="389.607422" xlink:href="#DejaVuSans-7a"/>
      <use x="442.097656" xlink:href="#DejaVuSans-65"/>
      <use x="503.621094" xlink:href="#DejaVuSans-64"/>
      <use x="567.097656" xlink:href="#DejaVuSans-20"/>
      <use x="598.884766" xlink:href="#DejaVuSans-49"/>
      <use x="628.376953" xlink:href="#DejaVuSans-6e"/>
      <use x="691.755859" xlink:href="#DejaVuSans-74"/>
      <use x="730.964844" xlink:href="#DejaVuSans-65"/>
      <use x="792.488281" xlink:href="#DejaVuSans-6e"/>
      <use x="855.867188" xlink:href="#DejaVuSans-73"/>
      <use x="907.966797" xlink:href="#DejaVuSans-69"/>
      <use x="935.75" xlink:href="#DejaVuSans-74"/>
      <use x="974.958984" xlink:href="#DejaVuSans-79"/>
     </g>
    </g>
   </g>
   <g id="line2d_12">
    <path clip-path="url(#p748ce0ccdd)" d="M 374.9934 43.768699 
L 392.552841 43.922125 
L 401.332561 44.207156 
L 407.185708 44.588774 
L 412.06333 45.10424 
L 415.965428 45.702451 
L 419.867526 46.521865 
L 422.7941 47.318935 
L 425.720673 48.305816 
L 428.647247 49.515918 
L 431.57382 50.985385 
L 434.500393 52.752527 
L 437.426967 54.857027 
L 440.35354 57.338946 
L 443.280114 60.237498 
L 446.206687 63.589647 
L 449.13326 67.428548 
L 452.059834 71.781895 
L 454.986407 76.670217 
L 457.912981 82.105222 
L 460.839554 88.088252 
L 463.766128 94.608923 
L 466.692701 101.644041 
L 469.619274 109.156842 
L 473.521372 119.827352 
L 478.398995 133.985565 
L 494.982911 183.116049 
L 497.909484 190.872921 
L 500.836058 198.043594 
L 503.762631 204.512217 
L 505.71368 208.381099 
L 507.664729 211.860729 
L 509.615778 214.924382 
L 511.566827 217.548139 
L 513.517876 219.711166 
L 515.468925 221.395953 
L 517.419974 222.588525 
L 518.395498 222.996874 
L 519.371023 223.278616 
L 520.346547 223.433069 
L 521.322072 223.459796 
L 522.297596 223.358608 
L 523.273121 223.129567 
L 524.248645 222.77298 
L 525.22417 222.289407 
L 527.175219 220.944778 
L 529.126267 219.10508 
L 531.077316 216.783567 
L 533.028365 213.997221 
L 534.979414 210.766571 
L 536.930463 207.11549 
L 538.881512 203.070931 
L 541.808086 196.332079 
L 544.734659 188.885863 
L 547.661233 180.852484 
L 551.56333 169.447977 
L 557.416477 151.484768 
L 565.220673 127.506532 
L 569.122771 116.10699 
L 573.024869 105.389926 
L 575.951442 97.89822 
L 578.878016 90.930942 
L 581.804589 84.521868 
L 584.731163 78.689716 
L 587.657736 73.439181 
L 590.584309 68.762371 
L 593.510883 64.640534 
L 596.437456 61.04598 
L 599.36403 57.944085 
L 602.290603 55.295285 
L 605.217177 53.056965 
L 608.14375 51.185183 
L 611.070323 49.636157 
L 613.996897 48.36751 
L 616.92347 47.339229 
L 619.850044 46.514364 
L 623.752142 45.673718 
L 627.65424 45.066803 
L 632.531862 44.550976 
L 638.385009 44.176178 
L 646.189205 43.923165 
L 658.871023 43.7843 
L 663.748645 43.767273 
L 663.748645 43.767273 
" style="fill:none;stroke:#e98768;stroke-linecap:square;stroke-width:1.5;"/>
   </g>
   <g id="line2d_13">
    <path clip-path="url(#p748ce0ccdd)" d="M 312.559834 97.681621 
L 337.92347 97.836681 
L 349.629764 98.109994 
L 358.409484 98.537332 
L 365.238156 99.101047 
L 371.091302 99.827083 
L 375.968925 100.665804 
L 379.871023 101.531198 
L 383.773121 102.606223 
L 387.675219 103.928521 
L 391.577316 105.538503 
L 394.50389 106.960125 
L 397.430463 108.585297 
L 400.357037 110.431749 
L 403.28361 112.516459 
L 406.210184 114.855119 
L 409.136757 117.46156 
L 412.06333 120.347153 
L 414.989904 123.520214 
L 417.916477 126.985427 
L 420.843051 130.743343 
L 423.769624 134.789969 
L 427.671722 140.618639 
L 431.57382 146.90988 
L 435.475918 153.614297 
L 440.35354 162.479486 
L 446.206687 173.636516 
L 469.619274 218.978455 
L 475.472421 229.528932 
L 480.350044 237.898117 
L 485.227666 245.810223 
L 489.129764 251.748123 
L 493.031862 257.268904 
L 495.958435 261.089064 
L 498.885009 264.593716 
L 501.811582 267.744156 
L 504.738156 270.501997 
L 506.689205 272.10458 
L 508.640253 273.507138 
L 510.591302 274.701398 
L 512.542351 275.680579 
L 514.4934 276.439597 
L 516.444449 276.975217 
L 518.395498 277.286141 
L 520.346547 277.373029 
L 522.297596 277.238443 
L 524.248645 276.886732 
L 526.199694 276.323837 
L 528.150743 275.557055 
L 530.101792 274.594744 
L 532.052841 273.446002 
L 534.979414 271.394126 
L 537.905988 268.976083 
L 540.832561 266.221651 
L 543.759135 263.156423 
L 546.685708 259.800381 
L 549.612281 256.167211 
L 553.514379 250.904082 
L 557.416477 245.164889 
L 561.318575 238.943901 
L 565.220673 232.234936 
L 569.122771 225.041167 
L 573.024869 217.383856 
L 577.902491 207.232384 
L 583.755638 194.404654 
L 599.36403 159.716396 
L 603.266128 151.667753 
L 607.168226 144.112569 
L 611.070323 137.138855 
L 613.996897 132.328306 
L 616.92347 127.896092 
L 619.850044 123.849816 
L 622.776617 120.189268 
L 625.703191 116.907238 
L 628.629764 113.990508 
L 631.556337 111.420941 
L 634.482911 109.176613 
L 637.409484 107.232918 
L 640.336058 105.563604 
L 643.262631 104.141704 
L 646.189205 102.940346 
L 649.115778 101.933411 
L 653.017876 100.850568 
L 656.919974 100.015231 
L 661.797596 99.246679 
L 666.675219 98.711252 
L 672.528365 98.288236 
L 680.332561 97.966246 
L 691.06333 97.768742 
L 707.647247 97.681444 
L 707.647247 97.681444 
" style="fill:none;stroke:#de5d5c;stroke-linecap:square;stroke-width:1.5;"/>
   </g>
   <g id="line2d_14">
    <path clip-path="url(#p748ce0ccdd)" d="M 190.619274 151.593589 
L 230.615778 151.740316 
L 249.150743 152.021632 
L 261.832561 152.415852 
L 272.56333 152.964049 
L 281.343051 153.624796 
L 289.147247 154.428783 
L 295.975918 155.346431 
L 301.829065 156.328465 
L 307.682212 157.525858 
L 313.535358 158.975423 
L 318.412981 160.404715 
L 323.290603 162.061067 
L 328.168226 163.969359 
L 333.045848 166.154427 
L 336.947946 168.117947 
L 340.850044 170.285528 
L 344.752142 172.667618 
L 348.65424 175.273186 
L 352.556337 178.109286 
L 356.458435 181.180596 
L 360.360533 184.488927 
L 365.238156 188.95493 
L 370.115778 193.776965 
L 374.9934 198.932654 
L 379.871023 204.387713 
L 385.72417 211.261944 
L 393.528365 220.80599 
L 408.161233 238.781511 
L 414.014379 245.552913 
L 418.892002 250.8441 
L 422.7941 254.797029 
L 426.696198 258.475651 
L 430.598295 261.87089 
L 434.500393 264.990026 
L 438.402491 267.858754 
L 443.280114 271.163197 
L 459.86403 282.037235 
L 463.766128 285.054916 
L 467.668226 288.428046 
L 470.594799 291.220815 
L 474.496897 295.305526 
L 478.398995 299.774407 
L 483.276617 305.773935 
L 493.031862 317.989842 
L 495.958435 321.323171 
L 498.885009 324.32298 
L 500.836058 326.087768 
L 502.787107 327.631892 
L 504.738156 328.930154 
L 506.689205 329.960575 
L 508.640253 330.70504 
L 510.591302 331.149864 
L 512.542351 331.286261 
L 514.4934 331.110693 
L 516.444449 330.625088 
L 518.395498 329.836919 
L 520.346547 328.759136 
L 522.297596 327.409943 
L 524.248645 325.812447 
L 526.199694 323.994155 
L 529.126267 320.922042 
L 533.028365 316.368704 
L 542.78361 304.570885 
L 545.710184 301.404441 
L 548.636757 298.580703 
L 551.56333 296.162124 
L 553.514379 294.794258 
L 555.465428 293.628093 
L 557.416477 292.663081 
L 559.367526 291.893733 
L 561.318575 291.309909 
L 563.269624 290.897198 
L 566.196198 290.558217 
L 569.122771 290.487817 
L 573.024869 290.660579 
L 579.85354 291.061406 
L 582.780114 291.025545 
L 585.706687 290.739494 
L 587.657736 290.372833 
L 589.608785 289.843105 
L 591.559834 289.134247 
L 593.510883 288.233065 
L 595.461932 287.129308 
L 597.412981 285.815688 
L 599.36403 284.287851 
L 601.315079 282.544295 
L 603.266128 280.586253 
L 606.192701 277.256029 
L 609.119274 273.475121 
L 612.045848 269.276819 
L 614.972421 264.703178 
L 618.874519 258.106536 
L 622.776617 251.059499 
L 628.629764 239.946272 
L 641.311582 215.621197 
L 646.189205 206.833101 
L 650.091302 200.21611 
L 653.9934 194.033373 
L 657.895498 188.327373 
L 660.822072 184.376667 
L 663.748645 180.713746 
L 666.675219 177.339121 
L 669.601792 174.249354 
L 672.528365 171.437586 
L 675.454939 168.894086 
L 678.381512 166.606781 
L 681.308086 164.561786 
L 684.234659 162.743887 
L 687.161233 161.136996 
L 691.06333 159.294077 
L 694.965428 157.757439 
L 698.867526 156.488567 
L 702.769624 155.4508 
L 707.647247 154.426917 
L 712.524869 153.651174 
L 718.378016 152.975354 
L 725.206687 152.446367 
L 733.010883 152.074595 
L 743.741652 151.805572 
L 760.325568 151.647504 
L 781.787107 151.593813 
L 781.787107 151.593813 
" style="fill:none;stroke:#c14168;stroke-linecap:square;stroke-width:1.5;"/>
   </g>
   <g id="line2d_15">
    <path clip-path="url(#p748ce0ccdd)" d="M 100.871023 205.506822 
L 135.989904 205.664661 
L 157.451442 205.965966 
L 174.035358 206.415575 
L 186.717177 206.984738 
L 196.472421 207.636011 
L 205.252142 208.45391 
L 212.080813 209.293027 
L 218.909484 210.356579 
L 224.762631 211.481839 
L 230.615778 212.834744 
L 236.468925 214.441241 
L 241.346547 215.988651 
L 246.22417 217.734098 
L 251.101792 219.68052 
L 256.954939 222.278134 
L 262.808086 225.148683 
L 268.661233 228.270311 
L 275.489904 232.192297 
L 282.318575 236.370208 
L 290.122771 241.40044 
L 298.902491 247.319432 
L 309.63326 254.846563 
L 322.315079 264.043148 
L 347.678715 282.531303 
L 355.482911 287.886802 
L 362.311582 292.290647 
L 368.164729 295.796312 
L 373.042351 298.49582 
L 377.919974 300.972273 
L 382.797596 303.211156 
L 387.675219 305.204547 
L 392.552841 306.952423 
L 397.430463 308.464021 
L 402.308086 309.759274 
L 408.161233 311.074291 
L 415.965428 312.563246 
L 425.720673 314.422067 
L 430.598295 315.576093 
L 434.500393 316.716073 
L 438.402491 318.122329 
L 441.329065 319.393739 
L 444.255638 320.88307 
L 447.182212 322.617571 
L 450.108785 324.621641 
L 453.035358 326.915455 
L 455.961932 329.513473 
L 458.888505 332.422878 
L 461.815079 335.641993 
L 464.741652 339.158796 
L 468.64375 344.26816 
L 472.545848 349.771496 
L 479.374519 359.923639 
L 485.227666 368.482845 
L 488.15424 372.449196 
L 491.080813 376.061599 
L 493.031862 378.218727 
L 494.982911 380.137706 
L 496.93396 381.788135 
L 498.885009 383.141636 
L 500.836058 384.172466 
L 502.787107 384.858105 
L 504.738156 385.179813 
L 506.689205 385.12313 
L 508.640253 384.678309 
L 510.591302 383.840675 
L 512.542351 382.610878 
L 514.4934 380.995057 
L 516.444449 379.004885 
L 518.395498 376.657504 
L 520.346547 373.975342 
L 522.297596 370.985814 
L 525.22417 365.996356 
L 528.150743 360.512922 
L 532.052841 352.677947 
L 541.808086 332.726946 
L 544.734659 327.256727 
L 547.661233 322.26203 
L 549.612281 319.249958 
L 551.56333 316.523366 
L 553.514379 314.103929 
L 555.465428 312.008552 
L 557.416477 310.249311 
L 559.367526 308.833479 
L 561.318575 307.76364 
L 563.269624 307.037878 
L 565.220673 306.65004 
L 567.171722 306.590047 
L 569.122771 306.84426 
L 571.07382 307.39587 
L 573.024869 308.225318 
L 574.975918 309.310725 
L 576.926967 310.628322 
L 578.878016 312.15287 
L 581.804589 314.770008 
L 584.731163 317.702251 
L 588.63326 321.943268 
L 600.339554 334.985758 
L 604.241652 338.834936 
L 607.168226 341.401951 
L 610.094799 343.639552 
L 613.021372 345.506242 
L 614.972421 346.527501 
L 616.92347 347.360269 
L 618.874519 347.997571 
L 620.825568 348.433742 
L 622.776617 348.664383 
L 624.727666 348.686302 
L 626.678715 348.497469 
L 628.629764 348.096955 
L 630.580813 347.484888 
L 632.531862 346.662394 
L 634.482911 345.631555 
L 636.43396 344.395353 
L 638.385009 342.957631 
L 640.336058 341.32304 
L 643.262631 338.514089 
L 646.189205 335.295889 
L 649.115778 331.693166 
L 652.042351 327.733766 
L 654.968925 323.448389 
L 658.871023 317.285367 
L 662.773121 310.687551 
L 667.650743 301.968645 
L 674.479414 289.222363 
L 685.210184 269.106573 
L 690.087806 260.390932 
L 693.989904 253.772516 
L 697.892002 247.54554 
L 701.7941 241.766511 
L 705.696198 236.476851 
L 708.622771 232.846725 
L 711.549344 229.511477 
L 714.475918 226.471182 
L 717.402491 223.721411 
L 720.329065 221.25369 
L 723.255638 219.056048 
L 726.182212 217.11364 
L 729.108785 215.40941 
L 732.035358 213.924748 
L 734.961932 212.64014 
L 738.86403 211.204268 
L 742.766128 210.042597 
L 746.668226 209.111337 
L 751.545848 208.210666 
L 756.42347 207.539551 
L 762.276617 206.958796 
L 769.105288 206.497822 
L 778.860533 206.09151 
L 791.542351 205.803839 
L 811.052841 205.60083 
L 839.343051 205.507464 
L 839.343051 205.507464 
" style="fill:none;stroke:#9a3670;stroke-linecap:square;stroke-width:1.5;"/>
   </g>
   <g id="line2d_16">
    <path clip-path="url(#p748ce0ccdd)" d="M 88.189205 259.420074 
L 116.479414 259.574102 
L 133.06333 259.867115 
L 146.720673 260.317472 
L 158.426967 260.914929 
L 169.157736 261.69056 
L 177.937456 262.537223 
L 185.741652 263.496428 
L 192.570323 264.535898 
L 199.398995 265.80537 
L 205.252142 267.113106 
L 211.105288 268.659022 
L 215.982911 270.154483 
L 220.860533 271.859392 
L 225.738156 273.791541 
L 230.615778 275.965166 
L 235.4934 278.389187 
L 240.371023 281.065507 
L 245.248645 283.98761 
L 250.126267 287.139705 
L 255.979414 291.189796 
L 262.808086 296.207253 
L 272.56333 303.697848 
L 287.196198 314.938244 
L 295.000393 320.643584 
L 301.829065 325.376605 
L 308.657736 329.83829 
L 315.486407 334.016546 
L 322.315079 337.904639 
L 328.168226 340.999435 
L 334.021372 343.86443 
L 339.874519 346.485809 
L 345.727666 348.847246 
L 351.580813 350.932597 
L 356.458435 352.450327 
L 361.336058 353.76428 
L 366.21368 354.876453 
L 372.066827 355.957502 
L 377.919974 356.790949 
L 384.748645 357.514963 
L 395.479414 358.369451 
L 404.259135 359.15125 
L 410.112281 359.906581 
L 414.989904 360.77943 
L 418.892002 361.689252 
L 422.7941 362.828895 
L 426.696198 364.237906 
L 429.622771 365.495475 
L 432.549344 366.943771 
L 435.475918 368.599062 
L 438.402491 370.47673 
L 441.329065 372.590723 
L 444.255638 374.952878 
L 447.182212 377.572114 
L 450.108785 380.453515 
L 453.035358 383.597306 
L 456.937456 388.186334 
L 460.839554 393.197424 
L 464.741652 398.570604 
L 470.594799 407.103553 
L 479.374519 420.030598 
L 483.276617 425.353263 
L 486.203191 428.986124 
L 489.129764 432.203473 
L 491.080813 434.069791 
L 493.031862 435.680818 
L 494.982911 437.010188 
L 496.93396 438.033349 
L 498.885009 438.728071 
L 500.836058 439.074932 
L 502.787107 439.057781 
L 504.738156 438.66417 
L 506.689205 437.885726 
L 508.640253 436.718467 
L 510.591302 435.16305 
L 512.542351 433.224931 
L 514.4934 430.914445 
L 516.444449 428.246788 
L 518.395498 425.241906 
L 520.346547 421.924293 
L 523.273121 416.425447 
L 526.199694 410.401363 
L 530.101792 401.776405 
L 542.78361 373.003185 
L 545.710184 367.046564 
L 548.636757 361.610683 
L 551.56333 356.792199 
L 553.514379 353.961634 
L 555.465428 351.457565 
L 557.416477 349.293307 
L 559.367526 347.477965 
L 561.318575 346.016525 
L 563.269624 344.910013 
L 565.220673 344.155715 
L 567.171722 343.747432 
L 569.122771 343.675785 
L 571.07382 343.92854 
L 573.024869 344.490957 
L 574.975918 345.346138 
L 576.926967 346.475388 
L 578.878016 347.858563 
L 580.829065 349.474403 
L 583.755638 352.286012 
L 586.682212 355.495068 
L 589.608785 359.024645 
L 593.510883 364.098439 
L 599.36403 372.149227 
L 607.168226 382.889179 
L 611.070323 387.954797 
L 614.972421 392.661647 
L 617.898995 395.895554 
L 620.825568 398.833182 
L 623.752142 401.440248 
L 626.678715 403.685746 
L 629.605288 405.541743 
L 631.556337 406.550209 
L 633.507386 407.367665 
L 635.458435 407.987943 
L 637.409484 408.405431 
L 639.360533 408.615084 
L 641.311582 408.612439 
L 643.262631 408.393648 
L 645.21368 407.955506 
L 647.164729 407.295497 
L 649.115778 406.411845 
L 651.066827 405.303561 
L 653.017876 403.970511 
L 654.968925 402.413472 
L 656.919974 400.634199 
L 658.871023 398.635488 
L 661.797596 395.234816 
L 664.72417 391.367525 
L 667.650743 387.057863 
L 670.577316 382.336443 
L 673.50389 377.240252 
L 677.405988 369.937784 
L 681.308086 362.164247 
L 687.161233 349.913847 
L 699.843051 323.090113 
L 704.720673 313.456636 
L 708.622771 306.264748 
L 712.524869 299.620743 
L 715.451442 295.032278 
L 718.378016 290.79871 
L 721.304589 286.926552 
L 724.231163 283.415 
L 727.157736 280.256709 
L 730.084309 277.438719 
L 733.010883 274.9435 
L 735.937456 272.750029 
L 738.86403 270.834862 
L 741.790603 269.17314 
L 744.717177 267.739492 
L 747.64375 266.508817 
L 751.545848 265.142015 
L 755.447946 264.039828 
L 759.350044 263.15458 
L 764.227666 262.290735 
L 770.080813 261.524067 
L 776.909484 260.893431 
L 784.71368 260.404467 
L 795.444449 259.980972 
L 809.101792 259.680151 
L 828.612281 259.487256 
L 849.098295 259.421107 
L 849.098295 259.421107 
" style="fill:none;stroke:#722c6e;stroke-linecap:square;stroke-width:1.5;"/>
   </g>
   <g id="patch_3">
    <path d="M 50.14375 458.88 
L 50.14375 24 
" style="fill:none;stroke:#000000;stroke-linecap:square;stroke-linejoin:miter;stroke-width:0.8;"/>
   </g>
   <g id="patch_4">
    <path d="M 887.14375 458.88 
L 887.14375 24 
" style="fill:none;stroke:#000000;stroke-linecap:square;stroke-linejoin:miter;stroke-width:0.8;"/>
   </g>
   <g id="patch_5">
    <path d="M 50.14375 458.88 
L 887.14375 458.88 
" style="fill:none;stroke:#000000;stroke-linecap:square;stroke-linejoin:miter;stroke-width:0.8;"/>
   </g>
   <g id="patch_6">
    <path d="M 50.14375 24 
L 887.14375 24 
" style="fill:none;stroke:#000000;stroke-linecap:square;stroke-linejoin:miter;stroke-width:0.8;"/>
   </g>
   <g id="text_14">
    <!-- B = 0.00336  $\Delta B =$ -0.17% ,  $\Delta C =$ -0.17% , $\zeta  = $-0.49, $\sigma = $0.1953$cm^{-1}$ -->
    <g transform="translate(258.28375 18)scale(0.12 -0.12)">
     <defs>
      <path d="M 1259 2228 
L 1259 519 
L 2272 519 
Q 2781 519 3026 730 
Q 3272 941 3272 1375 
Q 3272 1813 3026 2020 
Q 2781 2228 2272 2228 
L 1259 2228 
z
M 1259 4147 
L 1259 2741 
L 2194 2741 
Q 2656 2741 2882 2914 
Q 3109 3088 3109 3444 
Q 3109 3797 2882 3972 
Q 2656 4147 2194 4147 
L 1259 4147 
z
M 628 4666 
L 2241 4666 
Q 2963 4666 3353 4366 
Q 3744 4066 3744 3513 
Q 3744 3084 3544 2831 
Q 3344 2578 2956 2516 
Q 3422 2416 3680 2098 
Q 3938 1781 3938 1306 
Q 3938 681 3513 340 
Q 3088 0 2303 0 
L 628 0 
L 628 4666 
z
" id="DejaVuSans-42" transform="scale(0.015625)"/>
      <path d="M 678 2906 
L 4684 2906 
L 4684 2381 
L 678 2381 
L 678 2906 
z
M 678 1631 
L 4684 1631 
L 4684 1100 
L 678 1100 
L 678 1631 
z
" id="DejaVuSans-3d" transform="scale(0.015625)"/>
      <path d="M 2113 2584 
Q 1688 2584 1439 2293 
Q 1191 2003 1191 1497 
Q 1191 994 1439 701 
Q 1688 409 2113 409 
Q 2538 409 2786 701 
Q 3034 994 3034 1497 
Q 3034 2003 2786 2293 
Q 2538 2584 2113 2584 
z
M 3366 4563 
L 3366 3988 
Q 3128 4100 2886 4159 
Q 2644 4219 2406 4219 
Q 1781 4219 1451 3797 
Q 1122 3375 1075 2522 
Q 1259 2794 1537 2939 
Q 1816 3084 2150 3084 
Q 2853 3084 3261 2657 
Q 3669 2231 3669 1497 
Q 3669 778 3244 343 
Q 2819 -91 2113 -91 
Q 1303 -91 875 529 
Q 447 1150 447 2328 
Q 447 3434 972 4092 
Q 1497 4750 2381 4750 
Q 2619 4750 2861 4703 
Q 3103 4656 3366 4563 
z
" id="DejaVuSans-36" transform="scale(0.015625)"/>
      <path d="M 2188 4044 
L 906 525 
L 3472 525 
L 2188 4044 
z
M 50 0 
L 1831 4666 
L 2547 4666 
L 4325 0 
L 50 0 
z
" id="DejaVuSans-394" transform="scale(0.015625)"/>
      <path d="M 1081 4666 
L 2694 4666 
Q 3350 4666 3675 4422 
Q 4000 4178 4000 3688 
Q 4000 3238 3720 2911 
Q 3441 2584 2988 2516 
Q 3375 2428 3569 2181 
Q 3763 1934 3763 1522 
Q 3763 819 3242 409 
Q 2722 0 1819 0 
L 172 0 
L 1081 4666 
z
M 1234 2228 
L 903 519 
L 1919 519 
Q 2491 519 2800 781 
Q 3109 1044 3109 1522 
Q 3109 1891 2904 2059 
Q 2700 2228 2247 2228 
L 1234 2228 
z
M 1606 4147 
L 1331 2741 
L 2272 2741 
Q 2775 2741 3058 2959 
Q 3341 3178 3341 3566 
Q 3341 3869 3150 4008 
Q 2959 4147 2541 4147 
L 1606 4147 
z
" id="DejaVuSans-Oblique-42" transform="scale(0.015625)"/>
      <path d="M 313 2009 
L 1997 2009 
L 1997 1497 
L 313 1497 
L 313 2009 
z
" id="DejaVuSans-2d" transform="scale(0.015625)"/>
      <path d="M 4653 2053 
Q 4381 2053 4226 1822 
Q 4072 1591 4072 1178 
Q 4072 772 4226 539 
Q 4381 306 4653 306 
Q 4919 306 5073 539 
Q 5228 772 5228 1178 
Q 5228 1588 5073 1820 
Q 4919 2053 4653 2053 
z
M 4653 2450 
Q 5147 2450 5437 2106 
Q 5728 1763 5728 1178 
Q 5728 594 5436 251 
Q 5144 -91 4653 -91 
Q 4153 -91 3862 251 
Q 3572 594 3572 1178 
Q 3572 1766 3864 2108 
Q 4156 2450 4653 2450 
z
M 1428 4353 
Q 1159 4353 1004 4120 
Q 850 3888 850 3481 
Q 850 3069 1003 2837 
Q 1156 2606 1428 2606 
Q 1700 2606 1854 2837 
Q 2009 3069 2009 3481 
Q 2009 3884 1853 4118 
Q 1697 4353 1428 4353 
z
M 4250 4750 
L 4750 4750 
L 1831 -91 
L 1331 -91 
L 4250 4750 
z
M 1428 4750 
Q 1922 4750 2215 4408 
Q 2509 4066 2509 3481 
Q 2509 2891 2217 2550 
Q 1925 2209 1428 2209 
Q 931 2209 642 2551 
Q 353 2894 353 3481 
Q 353 4063 643 4406 
Q 934 4750 1428 4750 
z
" id="DejaVuSans-25" transform="scale(0.015625)"/>
      <path d="M 750 794 
L 1409 794 
L 1409 256 
L 897 -744 
L 494 -744 
L 750 256 
L 750 794 
z
" id="DejaVuSans-2c" transform="scale(0.015625)"/>
      <path d="M 4447 4306 
L 4319 3641 
Q 4019 3944 3683 4091 
Q 3347 4238 2956 4238 
Q 2422 4238 2017 3981 
Q 1613 3725 1319 3200 
Q 1131 2863 1032 2486 
Q 934 2109 934 1728 
Q 934 1091 1264 756 
Q 1594 422 2222 422 
Q 2656 422 3056 561 
Q 3456 700 3834 978 
L 3688 231 
Q 3316 72 2936 -9 
Q 2556 -91 2175 -91 
Q 1278 -91 773 396 
Q 269 884 269 1753 
Q 269 2309 461 2846 
Q 653 3384 1013 3828 
Q 1394 4300 1883 4525 
Q 2372 4750 3022 4750 
Q 3422 4750 3780 4639 
Q 4138 4528 4447 4306 
z
" id="DejaVuSans-Oblique-43" transform="scale(0.015625)"/>
      <path d="M 1966 397 
Q 2378 394 2578 159 
Q 2794 -88 2722 -463 
Q 2650 -822 2372 -1072 
Q 2069 -1344 1559 -1344 
Q 1606 -1109 1650 -872 
Q 1863 -888 2022 -750 
Q 2144 -641 2166 -525 
Q 2197 -359 2125 -222 
Q 2050 -91 1872 -91 
Q -22 -91 316 1669 
Q 616 3206 2609 4284 
L 947 4284 
L 1059 4863 
L 3778 4863 
L 3666 4284 
Q 1181 3147 894 1669 
Q 647 397 1966 397 
z
" id="DejaVuSans-Oblique-3b6" transform="scale(0.015625)"/>
      <path d="M 2419 4116 
L 825 1625 
L 2419 1625 
L 2419 4116 
z
M 2253 4666 
L 3047 4666 
L 3047 1625 
L 3713 1625 
L 3713 1100 
L 3047 1100 
L 3047 0 
L 2419 0 
L 2419 1100 
L 313 1100 
L 313 1709 
L 2253 4666 
z
" id="DejaVuSans-34" transform="scale(0.015625)"/>
      <path d="M 2219 3044 
Q 1744 3044 1422 2700 
Q 1081 2341 969 1747 
Q 844 1119 1044 756 
Q 1241 397 1706 397 
Q 2166 397 2503 759 
Q 2844 1122 2966 1747 
Q 3075 2319 2881 2700 
Q 2700 3044 2219 3044 
z
M 2309 3503 
L 4219 3500 
L 4106 2925 
L 3463 2925 
Q 3706 2438 3575 1747 
Q 3406 888 2884 400 
Q 2359 -91 1609 -91 
Q 856 -91 525 400 
Q 194 888 363 1747 
Q 528 2609 1050 3097 
Q 1484 3503 2309 3503 
z
" id="DejaVuSans-Oblique-3c3" transform="scale(0.015625)"/>
      <path d="M 3431 3366 
L 3316 2797 
Q 3109 2947 2876 3022 
Q 2644 3097 2394 3097 
Q 2119 3097 1870 3000 
Q 1622 2903 1453 2725 
Q 1184 2453 1037 2087 
Q 891 1722 891 1331 
Q 891 859 1127 628 
Q 1363 397 1844 397 
Q 2081 397 2348 469 
Q 2616 541 2906 684 
L 2797 116 
Q 2547 13 2283 -39 
Q 2019 -91 1741 -91 
Q 1044 -91 669 257 
Q 294 606 294 1253 
Q 294 1797 489 2255 
Q 684 2713 1069 3078 
Q 1331 3328 1684 3456 
Q 2038 3584 2456 3584 
Q 2700 3584 2940 3529 
Q 3181 3475 3431 3366 
z
" id="DejaVuSans-Oblique-63" transform="scale(0.015625)"/>
      <path d="M 5747 2113 
L 5338 0 
L 4763 0 
L 5166 2094 
Q 5191 2228 5203 2325 
Q 5216 2422 5216 2491 
Q 5216 2772 5059 2928 
Q 4903 3084 4622 3084 
Q 4203 3084 3875 2770 
Q 3547 2456 3450 1953 
L 3066 0 
L 2491 0 
L 2900 2094 
Q 2925 2209 2937 2307 
Q 2950 2406 2950 2484 
Q 2950 2769 2794 2926 
Q 2638 3084 2363 3084 
Q 1938 3084 1609 2770 
Q 1281 2456 1184 1953 
L 800 0 
L 225 0 
L 909 3500 
L 1484 3500 
L 1375 2956 
Q 1609 3263 1923 3423 
Q 2238 3584 2597 3584 
Q 2978 3584 3223 3384 
Q 3469 3184 3519 2828 
Q 3781 3197 4126 3390 
Q 4472 3584 4856 3584 
Q 5306 3584 5551 3325 
Q 5797 3066 5797 2591 
Q 5797 2488 5784 2364 
Q 5772 2241 5747 2113 
z
" id="DejaVuSans-Oblique-6d" transform="scale(0.015625)"/>
     </defs>
     <use transform="translate(0 0.684375)" xlink:href="#DejaVuSans-42"/>
     <use transform="translate(68.603516 0.684375)" xlink:href="#DejaVuSans-20"/>
     <use transform="translate(100.390625 0.684375)" xlink:href="#DejaVuSans-3d"/>
     <use transform="translate(184.179688 0.684375)" xlink:href="#DejaVuSans-20"/>
     <use transform="translate(215.966797 0.684375)" xlink:href="#DejaVuSans-30"/>
     <use transform="translate(279.589844 0.684375)" xlink:href="#DejaVuSans-2e"/>
     <use transform="translate(311.376953 0.684375)" xlink:href="#DejaVuSans-30"/>
     <use transform="translate(375 0.684375)" xlink:href="#DejaVuSans-30"/>
     <use transform="translate(438.623047 0.684375)" xlink:href="#DejaVuSans-33"/>
     <use transform="translate(502.246094 0.684375)" xlink:href="#DejaVuSans-33"/>
     <use transform="translate(565.869141 0.684375)" xlink:href="#DejaVuSans-36"/>
     <use transform="translate(629.492188 0.684375)" xlink:href="#DejaVuSans-20"/>
     <use transform="translate(661.279297 0.684375)" xlink:href="#DejaVuSans-20"/>
     <use transform="translate(693.066406 0.684375)" xlink:href="#DejaVuSans-394"/>
     <use transform="translate(761.474609 0.684375)" xlink:href="#DejaVuSans-Oblique-42"/>
     <use transform="translate(849.560547 0.684375)" xlink:href="#DejaVuSans-3d"/>
     <use transform="translate(952.832031 0.684375)" xlink:href="#DejaVuSans-20"/>
     <use transform="translate(984.619141 0.684375)" xlink:href="#DejaVuSans-2d"/>
     <use transform="translate(1020.703125 0.684375)" xlink:href="#DejaVuSans-30"/>
     <use transform="translate(1084.326172 0.684375)" xlink:href="#DejaVuSans-2e"/>
     <use transform="translate(1116.113281 0.684375)" xlink:href="#DejaVuSans-31"/>
     <use transform="translate(1179.736328 0.684375)" xlink:href="#DejaVuSans-37"/>
     <use transform="translate(1243.359375 0.684375)" xlink:href="#DejaVuSans-25"/>
     <use transform="translate(1338.378906 0.684375)" xlink:href="#DejaVuSans-20"/>
     <use transform="translate(1370.166016 0.684375)" xlink:href="#DejaVuSans-2c"/>
     <use transform="translate(1401.953125 0.684375)" xlink:href="#DejaVuSans-20"/>
     <use transform="translate(1433.740234 0.684375)" xlink:href="#DejaVuSans-20"/>
     <use transform="translate(1465.527344 0.684375)" xlink:href="#DejaVuSans-394"/>
     <use transform="translate(1533.935547 0.684375)" xlink:href="#DejaVuSans-Oblique-43"/>
     <use transform="translate(1623.242188 0.684375)" xlink:href="#DejaVuSans-3d"/>
     <use transform="translate(1726.513672 0.684375)" xlink:href="#DejaVuSans-20"/>
     <use transform="translate(1758.300781 0.684375)" xlink:href="#DejaVuSans-2d"/>
     <use transform="translate(1794.384766 0.684375)" xlink:href="#DejaVuSans-30"/>
     <use transform="translate(1858.007812 0.684375)" xlink:href="#DejaVuSans-2e"/>
     <use transform="translate(1889.794922 0.684375)" xlink:href="#DejaVuSans-31"/>
     <use transform="translate(1953.417969 0.684375)" xlink:href="#DejaVuSans-37"/>
     <use transform="translate(2017.041016 0.684375)" xlink:href="#DejaVuSans-25"/>
     <use transform="translate(2112.060547 0.684375)" xlink:href="#DejaVuSans-20"/>
     <use transform="translate(2143.847656 0.684375)" xlink:href="#DejaVuSans-2c"/>
     <use transform="translate(2175.634766 0.684375)" xlink:href="#DejaVuSans-20"/>
     <use transform="translate(2207.421875 0.684375)" xlink:href="#DejaVuSans-Oblique-3b6"/>
     <use transform="translate(2281.298828 0.684375)" xlink:href="#DejaVuSans-3d"/>
     <use transform="translate(2384.570312 0.684375)" xlink:href="#DejaVuSans-2d"/>
     <use transform="translate(2420.654297 0.684375)" xlink:href="#DejaVuSans-30"/>
     <use transform="translate(2484.277344 0.684375)" xlink:href="#DejaVuSans-2e"/>
     <use transform="translate(2516.064453 0.684375)" xlink:href="#DejaVuSans-34"/>
     <use transform="translate(2579.6875 0.684375)" xlink:href="#DejaVuSans-39"/>
     <use transform="translate(2643.310547 0.684375)" xlink:href="#DejaVuSans-2c"/>
     <use transform="translate(2675.097656 0.684375)" xlink:href="#DejaVuSans-20"/>
     <use transform="translate(2706.884766 0.684375)" xlink:href="#DejaVuSans-Oblique-3c3"/>
     <use transform="translate(2789.746094 0.684375)" xlink:href="#DejaVuSans-3d"/>
     <use transform="translate(2893.017578 0.684375)" xlink:href="#DejaVuSans-30"/>
     <use transform="translate(2956.640625 0.684375)" xlink:href="#DejaVuSans-2e"/>
     <use transform="translate(2988.427734 0.684375)" xlink:href="#DejaVuSans-31"/>
     <use transform="translate(3052.050781 0.684375)" xlink:href="#DejaVuSans-39"/>
     <use transform="translate(3115.673828 0.684375)" xlink:href="#DejaVuSans-35"/>
     <use transform="translate(3179.296875 0.684375)" xlink:href="#DejaVuSans-33"/>
     <use transform="translate(3242.919922 0.684375)" xlink:href="#DejaVuSans-Oblique-63"/>
     <use transform="translate(3297.900391 0.684375)" xlink:href="#DejaVuSans-Oblique-6d"/>
     <use transform="translate(3399.962396 38.965625)scale(0.7)" xlink:href="#DejaVuSans-2212"/>
     <use transform="translate(3458.61474 38.965625)scale(0.7)" xlink:href="#DejaVuSans-31"/>
    </g>
   </g>
   <g id="legend_1">
    <g id="patch_7">
     <path d="M 819.320312 120.06875 
L 880.14375 120.06875 
Q 882.14375 120.06875 882.14375 118.06875 
L 882.14375 31 
Q 882.14375 29 880.14375 29 
L 819.320312 29 
Q 817.320312 29 817.320312 31 
L 817.320312 118.06875 
Q 817.320312 120.06875 819.320312 120.06875 
z
" style="fill:#ffffff;opacity:0.8;stroke:#cccccc;stroke-linejoin:miter;"/>
    </g>
    <g id="text_15">
     <!-- T$_{rot}$ -->
     <g transform="translate(841.532031 40.598437)scale(0.1 -0.1)">
      <defs>
       <path d="M -19 4666 
L 3928 4666 
L 3928 4134 
L 2272 4134 
L 2272 0 
L 1638 0 
L 1638 4134 
L -19 4134 
L -19 4666 
z
" id="DejaVuSans-54" transform="scale(0.015625)"/>
       <path d="M 2853 2969 
Q 2766 3016 2653 3041 
Q 2541 3066 2413 3066 
Q 1953 3066 1609 2717 
Q 1266 2369 1153 1784 
L 800 0 
L 225 0 
L 909 3500 
L 1484 3500 
L 1375 2956 
Q 1603 3259 1920 3421 
Q 2238 3584 2597 3584 
Q 2691 3584 2781 3573 
Q 2872 3563 2963 3538 
L 2853 2969 
z
" id="DejaVuSans-Oblique-72" transform="scale(0.015625)"/>
       <path d="M 1625 -91 
Q 1009 -91 651 289 
Q 294 669 294 1325 
Q 294 1706 417 2101 
Q 541 2497 738 2766 
Q 1047 3184 1428 3384 
Q 1809 3584 2291 3584 
Q 2888 3584 3255 3212 
Q 3622 2841 3622 2241 
Q 3622 1825 3500 1412 
Q 3378 1000 3181 728 
Q 2875 309 2494 109 
Q 2113 -91 1625 -91 
z
M 891 1344 
Q 891 869 1089 633 
Q 1288 397 1691 397 
Q 2269 397 2648 901 
Q 3028 1406 3028 2181 
Q 3028 2634 2825 2865 
Q 2622 3097 2228 3097 
Q 1903 3097 1650 2945 
Q 1397 2794 1197 2484 
Q 1050 2253 970 1956 
Q 891 1659 891 1344 
z
" id="DejaVuSans-Oblique-6f" transform="scale(0.015625)"/>
       <path d="M 2706 3500 
L 2619 3053 
L 1472 3053 
L 1100 1153 
Q 1081 1047 1072 975 
Q 1063 903 1063 863 
Q 1063 663 1183 572 
Q 1303 481 1569 481 
L 2150 481 
L 2053 0 
L 1503 0 
Q 991 0 739 200 
Q 488 400 488 806 
Q 488 878 497 964 
Q 506 1050 525 1153 
L 897 3053 
L 409 3053 
L 500 3500 
L 978 3500 
L 1172 4494 
L 1747 4494 
L 1556 3500 
L 2706 3500 
z
" id="DejaVuSans-Oblique-74" transform="scale(0.015625)"/>
      </defs>
      <use transform="translate(0 0.09375)" xlink:href="#DejaVuSans-54"/>
      <use transform="translate(62.041016 -16.3125)scale(0.7)" xlink:href="#DejaVuSans-Oblique-72"/>
      <use transform="translate(90.820312 -16.3125)scale(0.7)" xlink:href="#DejaVuSans-Oblique-6f"/>
      <use transform="translate(133.647461 -16.3125)scale(0.7)" xlink:href="#DejaVuSans-Oblique-74"/>
     </g>
    </g>
    <g id="line2d_17">
     <path d="M 821.320312 51.776562 
L 841.320312 51.776562 
" style="fill:none;stroke:#e98768;stroke-linecap:square;stroke-width:1.5;"/>
    </g>
    <g id="line2d_18"/>
    <g id="text_16">
     <!-- 2.7 K -->
     <g transform="translate(849.320312 55.276562)scale(0.1 -0.1)">
      <defs>
       <path d="M 628 4666 
L 1259 4666 
L 1259 2694 
L 3353 4666 
L 4166 4666 
L 1850 2491 
L 4331 0 
L 3500 0 
L 1259 2247 
L 1259 0 
L 628 0 
L 628 4666 
z
" id="DejaVuSans-4b" transform="scale(0.015625)"/>
      </defs>
      <use xlink:href="#DejaVuSans-32"/>
      <use x="63.623047" xlink:href="#DejaVuSans-2e"/>
      <use x="95.410156" xlink:href="#DejaVuSans-37"/>
      <use x="159.033203" xlink:href="#DejaVuSans-20"/>
      <use x="190.820312" xlink:href="#DejaVuSans-4b"/>
     </g>
    </g>
    <g id="line2d_19">
     <path d="M 821.320312 66.454687 
L 841.320312 66.454687 
" style="fill:none;stroke:#de5d5c;stroke-linecap:square;stroke-width:1.5;"/>
    </g>
    <g id="line2d_20"/>
    <g id="text_17">
     <!-- 10 K -->
     <g transform="translate(849.320312 69.954687)scale(0.1 -0.1)">
      <use xlink:href="#DejaVuSans-31"/>
      <use x="63.623047" xlink:href="#DejaVuSans-30"/>
      <use x="127.246094" xlink:href="#DejaVuSans-20"/>
      <use x="159.033203" xlink:href="#DejaVuSans-4b"/>
     </g>
    </g>
    <g id="line2d_21">
     <path d="M 821.320312 81.132812 
L 841.320312 81.132812 
" style="fill:none;stroke:#c14168;stroke-linecap:square;stroke-width:1.5;"/>
    </g>
    <g id="line2d_22"/>
    <g id="text_18">
     <!-- 30 K -->
     <g transform="translate(849.320312 84.632812)scale(0.1 -0.1)">
      <use xlink:href="#DejaVuSans-33"/>
      <use x="63.623047" xlink:href="#DejaVuSans-30"/>
      <use x="127.246094" xlink:href="#DejaVuSans-20"/>
      <use x="159.033203" xlink:href="#DejaVuSans-4b"/>
     </g>
    </g>
    <g id="line2d_23">
     <path d="M 821.320312 95.810937 
L 841.320312 95.810937 
" style="fill:none;stroke:#9a3670;stroke-linecap:square;stroke-width:1.5;"/>
    </g>
    <g id="line2d_24"/>
    <g id="text_19">
     <!-- 70 K -->
     <g transform="translate(849.320312 99.310937)scale(0.1 -0.1)">
      <use xlink:href="#DejaVuSans-37"/>
      <use x="63.623047" xlink:href="#DejaVuSans-30"/>
      <use x="127.246094" xlink:href="#DejaVuSans-20"/>
      <use x="159.033203" xlink:href="#DejaVuSans-4b"/>
     </g>
    </g>
    <g id="line2d_25">
     <path d="M 821.320312 110.489062 
L 841.320312 110.489062 
" style="fill:none;stroke:#722c6e;stroke-linecap:square;stroke-width:1.5;"/>
    </g>
    <g id="line2d_26"/>
    <g id="text_20">
     <!-- 100 K -->
     <g transform="translate(849.320312 113.989062)scale(0.1 -0.1)">
      <use xlink:href="#DejaVuSans-31"/>
      <use x="63.623047" xlink:href="#DejaVuSans-30"/>
      <use x="127.246094" xlink:href="#DejaVuSans-30"/>
      <use x="190.869141" xlink:href="#DejaVuSans-20"/>
      <use x="222.65625" xlink:href="#DejaVuSans-4b"/>
     </g>
    </g>
   </g>
  </g>
 </g>
 <defs>
  <clipPath id="p748ce0ccdd">
   <rect height="434.88" width="837" x="50.14375" y="24"/>
  </clipPath>
 </defs>
</svg>
