<?xml version="1.0" encoding="utf-8" standalone="no"?>
<!DOCTYPE svg PUBLIC "-//W3C//DTD SVG 1.1//EN"
  "http://www.w3.org/Graphics/SVG/1.1/DTD/svg11.dtd">
<svg height="732.398125pt" version="1.1" viewBox="0 0 564.912 732.398125" width="564.912pt" xmlns="http://www.w3.org/2000/svg" xmlns:xlink="http://www.w3.org/1999/xlink">
 <metadata>
  <rdf:RDF xmlns:cc="http://creativecommons.org/ns#" xmlns:dc="http://purl.org/dc/elements/1.1/" xmlns:rdf="http://www.w3.org/1999/02/22-rdf-syntax-ns#">
   <cc:Work>
    <dc:type rdf:resource="http://purl.org/dc/dcmitype/StillImage"/>
    <dc:date>2022-12-13T10:20:59.498348</dc:date>
    <dc:format>image/svg+xml</dc:format>
    <dc:creator>
     <cc:Agent>
      <dc:title>Matplotlib v3.4.3, https://matplotlib.org/</dc:title>
     </cc:Agent>
    </dc:creator>
   </cc:Work>
  </rdf:RDF>
 </metadata>
 <defs>
  <style type="text/css">*{stroke-linecap:butt;stroke-linejoin:round;}</style>
 </defs>
 <g id="figure_1">
  <g id="patch_1">
   <path d="M -0 732.398125 
L 564.912 732.398125 
L 564.912 0 
L -0 0 
z
" style="fill:#ffffff;"/>
  </g>
  <g id="axes_1">
   <g id="patch_2">
    <path d="M 64.131 165.32 
L 515.7185 165.32 
L 515.7185 56.2 
L 64.131 56.2 
z
" style="fill:#ffffff;"/>
   </g>
   <g id="matplotlib.axis_1">
    <g id="xtick_1">
     <g id="line2d_1">
      <defs>
       <path d="M 0 0 
L 0 3.5 
" id="m3d019e9710" style="stroke:#000000;stroke-width:0.8;"/>
      </defs>
      <g>
       <use style="stroke:#000000;stroke-width:0.8;" x="77.832132" xlink:href="#m3d019e9710" y="165.32"/>
      </g>
     </g>
    </g>
    <g id="xtick_2">
     <g id="line2d_2">
      <g>
       <use style="stroke:#000000;stroke-width:0.8;" x="159.022704" xlink:href="#m3d019e9710" y="165.32"/>
      </g>
     </g>
    </g>
    <g id="xtick_3">
     <g id="line2d_3">
      <g>
       <use style="stroke:#000000;stroke-width:0.8;" x="240.213275" xlink:href="#m3d019e9710" y="165.32"/>
      </g>
     </g>
    </g>
    <g id="xtick_4">
     <g id="line2d_4">
      <g>
       <use style="stroke:#000000;stroke-width:0.8;" x="321.403847" xlink:href="#m3d019e9710" y="165.32"/>
      </g>
     </g>
    </g>
    <g id="xtick_5">
     <g id="line2d_5">
      <g>
       <use style="stroke:#000000;stroke-width:0.8;" x="402.594419" xlink:href="#m3d019e9710" y="165.32"/>
      </g>
     </g>
    </g>
    <g id="xtick_6">
     <g id="line2d_6">
      <g>
       <use style="stroke:#000000;stroke-width:0.8;" x="483.78499" xlink:href="#m3d019e9710" y="165.32"/>
      </g>
     </g>
    </g>
    <g id="xtick_7">
     <g id="line2d_7">
      <defs>
       <path d="M 0 0 
L 0 2 
" id="m7cf24d6261" style="stroke:#000000;stroke-width:0.6;"/>
      </defs>
      <g>
       <use style="stroke:#000000;stroke-width:0.6;" x="118.427418" xlink:href="#m7cf24d6261" y="165.32"/>
      </g>
     </g>
    </g>
    <g id="xtick_8">
     <g id="line2d_8">
      <g>
       <use style="stroke:#000000;stroke-width:0.6;" x="199.61799" xlink:href="#m7cf24d6261" y="165.32"/>
      </g>
     </g>
    </g>
    <g id="xtick_9">
     <g id="line2d_9">
      <g>
       <use style="stroke:#000000;stroke-width:0.6;" x="280.808561" xlink:href="#m7cf24d6261" y="165.32"/>
      </g>
     </g>
    </g>
    <g id="xtick_10">
     <g id="line2d_10">
      <g>
       <use style="stroke:#000000;stroke-width:0.6;" x="361.999133" xlink:href="#m7cf24d6261" y="165.32"/>
      </g>
     </g>
    </g>
    <g id="xtick_11">
     <g id="line2d_11">
      <g>
       <use style="stroke:#000000;stroke-width:0.6;" x="443.189705" xlink:href="#m7cf24d6261" y="165.32"/>
      </g>
     </g>
    </g>
   </g>
   <g id="matplotlib.axis_2">
    <g id="ytick_1">
     <g id="line2d_12">
      <defs>
       <path d="M 0 0 
L -3.5 0 
" id="m90db7184fc" style="stroke:#000000;stroke-width:0.8;"/>
      </defs>
      <g>
       <use style="stroke:#000000;stroke-width:0.8;" x="64.131" xlink:href="#m90db7184fc" y="160.36"/>
      </g>
     </g>
     <g id="text_1">
      <!-- 0.90 -->
      <g transform="translate(34.865375 164.159219)scale(0.1 -0.1)">
       <defs>
        <path d="M 2034 4250 
Q 1547 4250 1301 3770 
Q 1056 3291 1056 2328 
Q 1056 1369 1301 889 
Q 1547 409 2034 409 
Q 2525 409 2770 889 
Q 3016 1369 3016 2328 
Q 3016 3291 2770 3770 
Q 2525 4250 2034 4250 
z
M 2034 4750 
Q 2819 4750 3233 4129 
Q 3647 3509 3647 2328 
Q 3647 1150 3233 529 
Q 2819 -91 2034 -91 
Q 1250 -91 836 529 
Q 422 1150 422 2328 
Q 422 3509 836 4129 
Q 1250 4750 2034 4750 
z
" id="DejaVuSans-30" transform="scale(0.015625)"/>
        <path d="M 684 794 
L 1344 794 
L 1344 0 
L 684 0 
L 684 794 
z
" id="DejaVuSans-2e" transform="scale(0.015625)"/>
        <path d="M 703 97 
L 703 672 
Q 941 559 1184 500 
Q 1428 441 1663 441 
Q 2288 441 2617 861 
Q 2947 1281 2994 2138 
Q 2813 1869 2534 1725 
Q 2256 1581 1919 1581 
Q 1219 1581 811 2004 
Q 403 2428 403 3163 
Q 403 3881 828 4315 
Q 1253 4750 1959 4750 
Q 2769 4750 3195 4129 
Q 3622 3509 3622 2328 
Q 3622 1225 3098 567 
Q 2575 -91 1691 -91 
Q 1453 -91 1209 -44 
Q 966 3 703 97 
z
M 1959 2075 
Q 2384 2075 2632 2365 
Q 2881 2656 2881 3163 
Q 2881 3666 2632 3958 
Q 2384 4250 1959 4250 
Q 1534 4250 1286 3958 
Q 1038 3666 1038 3163 
Q 1038 2656 1286 2365 
Q 1534 2075 1959 2075 
z
" id="DejaVuSans-39" transform="scale(0.015625)"/>
       </defs>
       <use xlink:href="#DejaVuSans-30"/>
       <use x="63.623047" xlink:href="#DejaVuSans-2e"/>
       <use x="95.410156" xlink:href="#DejaVuSans-39"/>
       <use x="159.033203" xlink:href="#DejaVuSans-30"/>
      </g>
     </g>
    </g>
    <g id="ytick_2">
     <g id="line2d_13">
      <g>
       <use style="stroke:#000000;stroke-width:0.8;" x="64.131" xlink:href="#m90db7184fc" y="110.76"/>
      </g>
     </g>
     <g id="text_2">
      <!-- 0.95 -->
      <g transform="translate(34.865375 114.559219)scale(0.1 -0.1)">
       <defs>
        <path d="M 691 4666 
L 3169 4666 
L 3169 4134 
L 1269 4134 
L 1269 2991 
Q 1406 3038 1543 3061 
Q 1681 3084 1819 3084 
Q 2600 3084 3056 2656 
Q 3513 2228 3513 1497 
Q 3513 744 3044 326 
Q 2575 -91 1722 -91 
Q 1428 -91 1123 -41 
Q 819 9 494 109 
L 494 744 
Q 775 591 1075 516 
Q 1375 441 1709 441 
Q 2250 441 2565 725 
Q 2881 1009 2881 1497 
Q 2881 1984 2565 2268 
Q 2250 2553 1709 2553 
Q 1456 2553 1204 2497 
Q 953 2441 691 2322 
L 691 4666 
z
" id="DejaVuSans-35" transform="scale(0.015625)"/>
       </defs>
       <use xlink:href="#DejaVuSans-30"/>
       <use x="63.623047" xlink:href="#DejaVuSans-2e"/>
       <use x="95.410156" xlink:href="#DejaVuSans-39"/>
       <use x="159.033203" xlink:href="#DejaVuSans-35"/>
      </g>
     </g>
    </g>
    <g id="ytick_3">
     <g id="line2d_14">
      <g>
       <use style="stroke:#000000;stroke-width:0.8;" x="64.131" xlink:href="#m90db7184fc" y="61.16"/>
      </g>
     </g>
     <g id="text_3">
      <!-- 1.00 -->
      <g transform="translate(34.865375 64.959219)scale(0.1 -0.1)">
       <defs>
        <path d="M 794 531 
L 1825 531 
L 1825 4091 
L 703 3866 
L 703 4441 
L 1819 4666 
L 2450 4666 
L 2450 531 
L 3481 531 
L 3481 0 
L 794 0 
L 794 531 
z
" id="DejaVuSans-31" transform="scale(0.015625)"/>
       </defs>
       <use xlink:href="#DejaVuSans-31"/>
       <use x="63.623047" xlink:href="#DejaVuSans-2e"/>
       <use x="95.410156" xlink:href="#DejaVuSans-30"/>
       <use x="159.033203" xlink:href="#DejaVuSans-30"/>
      </g>
     </g>
    </g>
    <g id="ytick_4">
     <g id="line2d_15">
      <defs>
       <path d="M 0 0 
L -2 0 
" id="m449c3931cb" style="stroke:#000000;stroke-width:0.6;"/>
      </defs>
      <g>
       <use style="stroke:#000000;stroke-width:0.6;" x="64.131" xlink:href="#m449c3931cb" y="150.44"/>
      </g>
     </g>
    </g>
    <g id="ytick_5">
     <g id="line2d_16">
      <g>
       <use style="stroke:#000000;stroke-width:0.6;" x="64.131" xlink:href="#m449c3931cb" y="140.52"/>
      </g>
     </g>
    </g>
    <g id="ytick_6">
     <g id="line2d_17">
      <g>
       <use style="stroke:#000000;stroke-width:0.6;" x="64.131" xlink:href="#m449c3931cb" y="130.6"/>
      </g>
     </g>
    </g>
    <g id="ytick_7">
     <g id="line2d_18">
      <g>
       <use style="stroke:#000000;stroke-width:0.6;" x="64.131" xlink:href="#m449c3931cb" y="120.68"/>
      </g>
     </g>
    </g>
    <g id="ytick_8">
     <g id="line2d_19">
      <g>
       <use style="stroke:#000000;stroke-width:0.6;" x="64.131" xlink:href="#m449c3931cb" y="100.84"/>
      </g>
     </g>
    </g>
    <g id="ytick_9">
     <g id="line2d_20">
      <g>
       <use style="stroke:#000000;stroke-width:0.6;" x="64.131" xlink:href="#m449c3931cb" y="90.92"/>
      </g>
     </g>
    </g>
    <g id="ytick_10">
     <g id="line2d_21">
      <g>
       <use style="stroke:#000000;stroke-width:0.6;" x="64.131" xlink:href="#m449c3931cb" y="81"/>
      </g>
     </g>
    </g>
    <g id="ytick_11">
     <g id="line2d_22">
      <g>
       <use style="stroke:#000000;stroke-width:0.6;" x="64.131" xlink:href="#m449c3931cb" y="71.08"/>
      </g>
     </g>
    </g>
    <g id="text_4">
     <!-- Intensity -->
     <g transform="translate(25.161781 139.05125)rotate(-90)scale(0.13 -0.13)">
      <defs>
       <path d="M 628 4666 
L 1259 4666 
L 1259 0 
L 628 0 
L 628 4666 
z
" id="DejaVuSans-49" transform="scale(0.015625)"/>
       <path d="M 3513 2113 
L 3513 0 
L 2938 0 
L 2938 2094 
Q 2938 2591 2744 2837 
Q 2550 3084 2163 3084 
Q 1697 3084 1428 2787 
Q 1159 2491 1159 1978 
L 1159 0 
L 581 0 
L 581 3500 
L 1159 3500 
L 1159 2956 
Q 1366 3272 1645 3428 
Q 1925 3584 2291 3584 
Q 2894 3584 3203 3211 
Q 3513 2838 3513 2113 
z
" id="DejaVuSans-6e" transform="scale(0.015625)"/>
       <path d="M 1172 4494 
L 1172 3500 
L 2356 3500 
L 2356 3053 
L 1172 3053 
L 1172 1153 
Q 1172 725 1289 603 
Q 1406 481 1766 481 
L 2356 481 
L 2356 0 
L 1766 0 
Q 1100 0 847 248 
Q 594 497 594 1153 
L 594 3053 
L 172 3053 
L 172 3500 
L 594 3500 
L 594 4494 
L 1172 4494 
z
" id="DejaVuSans-74" transform="scale(0.015625)"/>
       <path d="M 3597 1894 
L 3597 1613 
L 953 1613 
Q 991 1019 1311 708 
Q 1631 397 2203 397 
Q 2534 397 2845 478 
Q 3156 559 3463 722 
L 3463 178 
Q 3153 47 2828 -22 
Q 2503 -91 2169 -91 
Q 1331 -91 842 396 
Q 353 884 353 1716 
Q 353 2575 817 3079 
Q 1281 3584 2069 3584 
Q 2775 3584 3186 3129 
Q 3597 2675 3597 1894 
z
M 3022 2063 
Q 3016 2534 2758 2815 
Q 2500 3097 2075 3097 
Q 1594 3097 1305 2825 
Q 1016 2553 972 2059 
L 3022 2063 
z
" id="DejaVuSans-65" transform="scale(0.015625)"/>
       <path d="M 2834 3397 
L 2834 2853 
Q 2591 2978 2328 3040 
Q 2066 3103 1784 3103 
Q 1356 3103 1142 2972 
Q 928 2841 928 2578 
Q 928 2378 1081 2264 
Q 1234 2150 1697 2047 
L 1894 2003 
Q 2506 1872 2764 1633 
Q 3022 1394 3022 966 
Q 3022 478 2636 193 
Q 2250 -91 1575 -91 
Q 1294 -91 989 -36 
Q 684 19 347 128 
L 347 722 
Q 666 556 975 473 
Q 1284 391 1588 391 
Q 1994 391 2212 530 
Q 2431 669 2431 922 
Q 2431 1156 2273 1281 
Q 2116 1406 1581 1522 
L 1381 1569 
Q 847 1681 609 1914 
Q 372 2147 372 2553 
Q 372 3047 722 3315 
Q 1072 3584 1716 3584 
Q 2034 3584 2315 3537 
Q 2597 3491 2834 3397 
z
" id="DejaVuSans-73" transform="scale(0.015625)"/>
       <path d="M 603 3500 
L 1178 3500 
L 1178 0 
L 603 0 
L 603 3500 
z
M 603 4863 
L 1178 4863 
L 1178 4134 
L 603 4134 
L 603 4863 
z
" id="DejaVuSans-69" transform="scale(0.015625)"/>
       <path d="M 2059 -325 
Q 1816 -950 1584 -1140 
Q 1353 -1331 966 -1331 
L 506 -1331 
L 506 -850 
L 844 -850 
Q 1081 -850 1212 -737 
Q 1344 -625 1503 -206 
L 1606 56 
L 191 3500 
L 800 3500 
L 1894 763 
L 2988 3500 
L 3597 3500 
L 2059 -325 
z
" id="DejaVuSans-79" transform="scale(0.015625)"/>
      </defs>
      <use xlink:href="#DejaVuSans-49"/>
      <use x="29.492188" xlink:href="#DejaVuSans-6e"/>
      <use x="92.871094" xlink:href="#DejaVuSans-74"/>
      <use x="132.080078" xlink:href="#DejaVuSans-65"/>
      <use x="193.603516" xlink:href="#DejaVuSans-6e"/>
      <use x="256.982422" xlink:href="#DejaVuSans-73"/>
      <use x="309.082031" xlink:href="#DejaVuSans-69"/>
      <use x="336.865234" xlink:href="#DejaVuSans-74"/>
      <use x="376.074219" xlink:href="#DejaVuSans-79"/>
     </g>
    </g>
   </g>
   <g id="line2d_23">
    <path clip-path="url(#p6ff7c3bc84)" d="M 246.921877 61.266871 
L 253.228965 61.503859 
L 257.242567 61.841097 
L 260.682797 62.338668 
L 263.549655 62.973147 
L 265.843141 63.675343 
L 268.136628 64.596767 
L 270.430114 65.785166 
L 272.723601 67.291599 
L 274.443716 68.661613 
L 276.163831 70.261608 
L 277.883946 72.111988 
L 279.604061 74.231054 
L 281.324175 76.634093 
L 283.617662 80.298783 
L 285.911149 84.500898 
L 288.204635 89.234568 
L 290.498122 94.472215 
L 293.36498 101.647742 
L 296.80521 110.970398 
L 306.552527 138.09033 
L 308.846014 143.730697 
L 311.139501 148.757584 
L 312.859615 152.036589 
L 314.57973 154.832469 
L 316.299845 157.096777 
L 317.446588 158.290764 
L 318.593332 159.220763 
L 319.740075 159.87906 
L 320.886818 160.259989 
L 322.033562 160.36 
L 323.180305 160.177714 
L 324.327048 159.713948 
L 325.473791 158.971715 
L 326.620535 157.956205 
L 327.767278 156.674735 
L 328.914021 155.136677 
L 330.634136 152.373788 
L 332.354251 149.105386 
L 334.074366 145.385553 
L 336.367852 139.829732 
L 339.234711 132.152409 
L 343.248312 120.629924 
L 348.982028 104.207193 
L 351.848887 96.623997 
L 354.142373 91.050254 
L 356.43586 85.990151 
L 358.729346 81.484613 
L 361.022833 77.548912 
L 362.742948 74.967321 
L 364.463063 72.692075 
L 366.183178 70.707889 
L 367.903292 68.995649 
L 369.623407 67.533516 
L 371.343522 66.297968 
L 373.637009 64.961109 
L 375.930495 63.927027 
L 378.223982 63.141789 
L 381.09084 62.436098 
L 383.957698 61.960904 
L 387.397928 61.602679 
L 391.984901 61.349571 
L 394.851759 61.267923 
L 394.851759 61.267923 
" style="fill:none;stroke:#1f77b4;stroke-linecap:square;"/>
   </g>
   <g id="line2d_24">
    <path clip-path="url(#p6ff7c3bc84)" d="M 64.131 61.16 
L 515.7185 61.16 
" style="fill:none;stroke:#808080;stroke-dasharray:5.55,2.4;stroke-dashoffset:0;stroke-width:1.5;"/>
   </g>
   <g id="line2d_25">
    <path clip-path="url(#p6ff7c3bc84)" d="M 321.403847 165.32 
L 321.403847 56.2 
" style="fill:none;stroke:#808080;stroke-dasharray:5.55,2.4;stroke-dashoffset:0;stroke-width:1.5;"/>
   </g>
   <g id="patch_3">
    <path d="M 64.131 165.32 
L 64.131 56.2 
" style="fill:none;stroke:#000000;stroke-linecap:square;stroke-linejoin:miter;stroke-width:0.8;"/>
   </g>
   <g id="patch_4">
    <path d="M 515.7185 165.32 
L 515.7185 56.2 
" style="fill:none;stroke:#000000;stroke-linecap:square;stroke-linejoin:miter;stroke-width:0.8;"/>
   </g>
   <g id="patch_5">
    <path d="M 64.131 165.32 
L 515.7185 165.32 
" style="fill:none;stroke:#000000;stroke-linecap:square;stroke-linejoin:miter;stroke-width:0.8;"/>
   </g>
   <g id="patch_6">
    <path d="M 64.131 56.2 
L 515.7185 56.2 
" style="fill:none;stroke:#000000;stroke-linecap:square;stroke-linejoin:miter;stroke-width:0.8;"/>
   </g>
   <g id="legend_1">
    <g id="patch_7">
     <path d="M 451.079438 160.32 
L 508.7185 160.32 
Q 510.7185 160.32 510.7185 158.32 
L 510.7185 144.641875 
Q 510.7185 142.641875 508.7185 142.641875 
L 451.079438 142.641875 
Q 449.079438 142.641875 449.079438 144.641875 
L 449.079438 158.32 
Q 449.079438 160.32 451.079438 160.32 
z
" style="fill:#ffffff;opacity:0.8;stroke:#cccccc;stroke-linejoin:miter;"/>
    </g>
    <g id="line2d_26">
     <path d="M 453.079438 150.740312 
L 473.079438 150.740312 
" style="fill:none;stroke:#1f77b4;stroke-linecap:square;"/>
    </g>
    <g id="line2d_27"/>
    <g id="text_5">
     <!-- 2.7 K -->
     <g transform="translate(481.079438 154.240312)scale(0.1 -0.1)">
      <defs>
       <path d="M 1228 531 
L 3431 531 
L 3431 0 
L 469 0 
L 469 531 
Q 828 903 1448 1529 
Q 2069 2156 2228 2338 
Q 2531 2678 2651 2914 
Q 2772 3150 2772 3378 
Q 2772 3750 2511 3984 
Q 2250 4219 1831 4219 
Q 1534 4219 1204 4116 
Q 875 4013 500 3803 
L 500 4441 
Q 881 4594 1212 4672 
Q 1544 4750 1819 4750 
Q 2544 4750 2975 4387 
Q 3406 4025 3406 3419 
Q 3406 3131 3298 2873 
Q 3191 2616 2906 2266 
Q 2828 2175 2409 1742 
Q 1991 1309 1228 531 
z
" id="DejaVuSans-32" transform="scale(0.015625)"/>
       <path d="M 525 4666 
L 3525 4666 
L 3525 4397 
L 1831 0 
L 1172 0 
L 2766 4134 
L 525 4134 
L 525 4666 
z
" id="DejaVuSans-37" transform="scale(0.015625)"/>
       <path id="DejaVuSans-20" transform="scale(0.015625)"/>
       <path d="M 628 4666 
L 1259 4666 
L 1259 2694 
L 3353 4666 
L 4166 4666 
L 1850 2491 
L 4331 0 
L 3500 0 
L 1259 2247 
L 1259 0 
L 628 0 
L 628 4666 
z
" id="DejaVuSans-4b" transform="scale(0.015625)"/>
      </defs>
      <use xlink:href="#DejaVuSans-32"/>
      <use x="63.623047" xlink:href="#DejaVuSans-2e"/>
      <use x="95.410156" xlink:href="#DejaVuSans-37"/>
      <use x="159.033203" xlink:href="#DejaVuSans-20"/>
      <use x="190.820312" xlink:href="#DejaVuSans-4b"/>
     </g>
    </g>
   </g>
  </g>
  <g id="axes_2">
   <g id="patch_8">
    <path d="M 64.131 295.24 
L 515.7185 295.24 
L 515.7185 186.12 
L 64.131 186.12 
z
" style="fill:#ffffff;"/>
   </g>
   <g id="matplotlib.axis_3">
    <g id="xtick_12">
     <g id="line2d_28">
      <g>
       <use style="stroke:#000000;stroke-width:0.8;" x="77.832132" xlink:href="#m3d019e9710" y="295.24"/>
      </g>
     </g>
    </g>
    <g id="xtick_13">
     <g id="line2d_29">
      <g>
       <use style="stroke:#000000;stroke-width:0.8;" x="159.022704" xlink:href="#m3d019e9710" y="295.24"/>
      </g>
     </g>
    </g>
    <g id="xtick_14">
     <g id="line2d_30">
      <g>
       <use style="stroke:#000000;stroke-width:0.8;" x="240.213275" xlink:href="#m3d019e9710" y="295.24"/>
      </g>
     </g>
    </g>
    <g id="xtick_15">
     <g id="line2d_31">
      <g>
       <use style="stroke:#000000;stroke-width:0.8;" x="321.403847" xlink:href="#m3d019e9710" y="295.24"/>
      </g>
     </g>
    </g>
    <g id="xtick_16">
     <g id="line2d_32">
      <g>
       <use style="stroke:#000000;stroke-width:0.8;" x="402.594419" xlink:href="#m3d019e9710" y="295.24"/>
      </g>
     </g>
    </g>
    <g id="xtick_17">
     <g id="line2d_33">
      <g>
       <use style="stroke:#000000;stroke-width:0.8;" x="483.78499" xlink:href="#m3d019e9710" y="295.24"/>
      </g>
     </g>
    </g>
    <g id="xtick_18">
     <g id="line2d_34">
      <g>
       <use style="stroke:#000000;stroke-width:0.6;" x="118.427418" xlink:href="#m7cf24d6261" y="295.24"/>
      </g>
     </g>
    </g>
    <g id="xtick_19">
     <g id="line2d_35">
      <g>
       <use style="stroke:#000000;stroke-width:0.6;" x="199.61799" xlink:href="#m7cf24d6261" y="295.24"/>
      </g>
     </g>
    </g>
    <g id="xtick_20">
     <g id="line2d_36">
      <g>
       <use style="stroke:#000000;stroke-width:0.6;" x="280.808561" xlink:href="#m7cf24d6261" y="295.24"/>
      </g>
     </g>
    </g>
    <g id="xtick_21">
     <g id="line2d_37">
      <g>
       <use style="stroke:#000000;stroke-width:0.6;" x="361.999133" xlink:href="#m7cf24d6261" y="295.24"/>
      </g>
     </g>
    </g>
    <g id="xtick_22">
     <g id="line2d_38">
      <g>
       <use style="stroke:#000000;stroke-width:0.6;" x="443.189705" xlink:href="#m7cf24d6261" y="295.24"/>
      </g>
     </g>
    </g>
   </g>
   <g id="matplotlib.axis_4">
    <g id="ytick_12">
     <g id="line2d_39">
      <g>
       <use style="stroke:#000000;stroke-width:0.8;" x="64.131" xlink:href="#m90db7184fc" y="290.28"/>
      </g>
     </g>
     <g id="text_6">
      <!-- 0.90 -->
      <g transform="translate(34.865375 294.079219)scale(0.1 -0.1)">
       <use xlink:href="#DejaVuSans-30"/>
       <use x="63.623047" xlink:href="#DejaVuSans-2e"/>
       <use x="95.410156" xlink:href="#DejaVuSans-39"/>
       <use x="159.033203" xlink:href="#DejaVuSans-30"/>
      </g>
     </g>
    </g>
    <g id="ytick_13">
     <g id="line2d_40">
      <g>
       <use style="stroke:#000000;stroke-width:0.8;" x="64.131" xlink:href="#m90db7184fc" y="240.68"/>
      </g>
     </g>
     <g id="text_7">
      <!-- 0.95 -->
      <g transform="translate(34.865375 244.479219)scale(0.1 -0.1)">
       <use xlink:href="#DejaVuSans-30"/>
       <use x="63.623047" xlink:href="#DejaVuSans-2e"/>
       <use x="95.410156" xlink:href="#DejaVuSans-39"/>
       <use x="159.033203" xlink:href="#DejaVuSans-35"/>
      </g>
     </g>
    </g>
    <g id="ytick_14">
     <g id="line2d_41">
      <g>
       <use style="stroke:#000000;stroke-width:0.8;" x="64.131" xlink:href="#m90db7184fc" y="191.08"/>
      </g>
     </g>
     <g id="text_8">
      <!-- 1.00 -->
      <g transform="translate(34.865375 194.879219)scale(0.1 -0.1)">
       <use xlink:href="#DejaVuSans-31"/>
       <use x="63.623047" xlink:href="#DejaVuSans-2e"/>
       <use x="95.410156" xlink:href="#DejaVuSans-30"/>
       <use x="159.033203" xlink:href="#DejaVuSans-30"/>
      </g>
     </g>
    </g>
    <g id="ytick_15">
     <g id="line2d_42">
      <g>
       <use style="stroke:#000000;stroke-width:0.6;" x="64.131" xlink:href="#m449c3931cb" y="280.36"/>
      </g>
     </g>
    </g>
    <g id="ytick_16">
     <g id="line2d_43">
      <g>
       <use style="stroke:#000000;stroke-width:0.6;" x="64.131" xlink:href="#m449c3931cb" y="270.44"/>
      </g>
     </g>
    </g>
    <g id="ytick_17">
     <g id="line2d_44">
      <g>
       <use style="stroke:#000000;stroke-width:0.6;" x="64.131" xlink:href="#m449c3931cb" y="260.52"/>
      </g>
     </g>
    </g>
    <g id="ytick_18">
     <g id="line2d_45">
      <g>
       <use style="stroke:#000000;stroke-width:0.6;" x="64.131" xlink:href="#m449c3931cb" y="250.6"/>
      </g>
     </g>
    </g>
    <g id="ytick_19">
     <g id="line2d_46">
      <g>
       <use style="stroke:#000000;stroke-width:0.6;" x="64.131" xlink:href="#m449c3931cb" y="230.76"/>
      </g>
     </g>
    </g>
    <g id="ytick_20">
     <g id="line2d_47">
      <g>
       <use style="stroke:#000000;stroke-width:0.6;" x="64.131" xlink:href="#m449c3931cb" y="220.84"/>
      </g>
     </g>
    </g>
    <g id="ytick_21">
     <g id="line2d_48">
      <g>
       <use style="stroke:#000000;stroke-width:0.6;" x="64.131" xlink:href="#m449c3931cb" y="210.92"/>
      </g>
     </g>
    </g>
    <g id="ytick_22">
     <g id="line2d_49">
      <g>
       <use style="stroke:#000000;stroke-width:0.6;" x="64.131" xlink:href="#m449c3931cb" y="201"/>
      </g>
     </g>
    </g>
    <g id="text_9">
     <!-- Intensity -->
     <g transform="translate(25.161781 268.97125)rotate(-90)scale(0.13 -0.13)">
      <use xlink:href="#DejaVuSans-49"/>
      <use x="29.492188" xlink:href="#DejaVuSans-6e"/>
      <use x="92.871094" xlink:href="#DejaVuSans-74"/>
      <use x="132.080078" xlink:href="#DejaVuSans-65"/>
      <use x="193.603516" xlink:href="#DejaVuSans-6e"/>
      <use x="256.982422" xlink:href="#DejaVuSans-73"/>
      <use x="309.082031" xlink:href="#DejaVuSans-69"/>
      <use x="336.865234" xlink:href="#DejaVuSans-74"/>
      <use x="376.074219" xlink:href="#DejaVuSans-79"/>
     </g>
    </g>
   </g>
   <g id="line2d_50">
    <path clip-path="url(#p0524c640f2)" d="M 214.813066 191.184361 
L 223.41364 191.414272 
L 229.147357 191.770559 
L 233.73433 192.274982 
L 237.17456 192.847598 
L 240.614789 193.648754 
L 243.481648 194.538968 
L 246.348506 195.677382 
L 248.641992 196.797374 
L 250.935479 198.128737 
L 253.228965 199.693828 
L 255.522452 201.512753 
L 257.815938 203.602021 
L 260.109425 205.973158 
L 262.402912 208.631374 
L 265.26977 212.353657 
L 268.136628 216.49782 
L 271.003486 221.02061 
L 274.443716 226.858987 
L 279.030689 235.116047 
L 291.071493 257.049523 
L 295.658466 264.812321 
L 299.672068 271.143636 
L 303.112298 276.135102 
L 305.979156 279.903529 
L 308.272642 282.601653 
L 310.566129 284.964881 
L 312.286244 286.487204 
L 314.006359 287.773036 
L 315.726474 288.805265 
L 317.446588 289.570587 
L 319.166703 290.060409 
L 320.886818 290.271413 
L 322.606933 290.205709 
L 324.327048 289.870542 
L 326.047163 289.277586 
L 327.767278 288.44188 
L 329.487393 287.380517 
L 331.780879 285.644902 
L 334.074366 283.578909 
L 336.367852 281.21474 
L 338.661339 278.57443 
L 341.528197 274.901892 
L 344.395055 270.817698 
L 347.261914 266.314988 
L 350.128772 261.392914 
L 353.569002 254.964012 
L 357.582603 246.874737 
L 369.623407 221.978301 
L 372.490265 216.720485 
L 375.357124 211.963113 
L 377.65061 208.560989 
L 379.944097 205.535484 
L 382.237583 202.888059 
L 384.53107 200.608006 
L 386.824556 198.674769 
L 389.118043 197.06053 
L 391.411529 195.732771 
L 393.705016 194.656645 
L 395.998503 193.796992 
L 398.865361 192.975455 
L 401.732219 192.37884 
L 405.172449 191.886436 
L 409.18605 191.528583 
L 414.919767 191.264028 
L 418.359996 191.184935 
L 418.359996 191.184935 
" style="fill:none;stroke:#1f77b4;stroke-linecap:square;"/>
   </g>
   <g id="line2d_51">
    <path clip-path="url(#p0524c640f2)" d="M 64.131 191.08 
L 515.7185 191.08 
" style="fill:none;stroke:#808080;stroke-dasharray:5.55,2.4;stroke-dashoffset:0;stroke-width:1.5;"/>
   </g>
   <g id="line2d_52">
    <path clip-path="url(#p0524c640f2)" d="M 321.403847 295.24 
L 321.403847 186.12 
" style="fill:none;stroke:#808080;stroke-dasharray:5.55,2.4;stroke-dashoffset:0;stroke-width:1.5;"/>
   </g>
   <g id="patch_9">
    <path d="M 64.131 295.24 
L 64.131 186.12 
" style="fill:none;stroke:#000000;stroke-linecap:square;stroke-linejoin:miter;stroke-width:0.8;"/>
   </g>
   <g id="patch_10">
    <path d="M 515.7185 295.24 
L 515.7185 186.12 
" style="fill:none;stroke:#000000;stroke-linecap:square;stroke-linejoin:miter;stroke-width:0.8;"/>
   </g>
   <g id="patch_11">
    <path d="M 64.131 295.24 
L 515.7185 295.24 
" style="fill:none;stroke:#000000;stroke-linecap:square;stroke-linejoin:miter;stroke-width:0.8;"/>
   </g>
   <g id="patch_12">
    <path d="M 64.131 186.12 
L 515.7185 186.12 
" style="fill:none;stroke:#000000;stroke-linecap:square;stroke-linejoin:miter;stroke-width:0.8;"/>
   </g>
   <g id="legend_2">
    <g id="patch_13">
     <path d="M 454.257563 290.24 
L 508.7185 290.24 
Q 510.7185 290.24 510.7185 288.24 
L 510.7185 274.561875 
Q 510.7185 272.561875 508.7185 272.561875 
L 454.257563 272.561875 
Q 452.257563 272.561875 452.257563 274.561875 
L 452.257563 288.24 
Q 452.257563 290.24 454.257563 290.24 
z
" style="fill:#ffffff;opacity:0.8;stroke:#cccccc;stroke-linejoin:miter;"/>
    </g>
    <g id="line2d_53">
     <path d="M 456.257563 280.660312 
L 476.257563 280.660312 
" style="fill:none;stroke:#1f77b4;stroke-linecap:square;"/>
    </g>
    <g id="line2d_54"/>
    <g id="text_10">
     <!-- 10 K -->
     <g transform="translate(484.257563 284.160312)scale(0.1 -0.1)">
      <use xlink:href="#DejaVuSans-31"/>
      <use x="63.623047" xlink:href="#DejaVuSans-30"/>
      <use x="127.246094" xlink:href="#DejaVuSans-20"/>
      <use x="159.033203" xlink:href="#DejaVuSans-4b"/>
     </g>
    </g>
   </g>
  </g>
  <g id="axes_3">
   <g id="patch_14">
    <path d="M 64.131 425.16 
L 515.7185 425.16 
L 515.7185 316.04 
L 64.131 316.04 
z
" style="fill:#ffffff;"/>
   </g>
   <g id="matplotlib.axis_5">
    <g id="xtick_23">
     <g id="line2d_55">
      <g>
       <use style="stroke:#000000;stroke-width:0.8;" x="77.832132" xlink:href="#m3d019e9710" y="425.16"/>
      </g>
     </g>
    </g>
    <g id="xtick_24">
     <g id="line2d_56">
      <g>
       <use style="stroke:#000000;stroke-width:0.8;" x="159.022704" xlink:href="#m3d019e9710" y="425.16"/>
      </g>
     </g>
    </g>
    <g id="xtick_25">
     <g id="line2d_57">
      <g>
       <use style="stroke:#000000;stroke-width:0.8;" x="240.213275" xlink:href="#m3d019e9710" y="425.16"/>
      </g>
     </g>
    </g>
    <g id="xtick_26">
     <g id="line2d_58">
      <g>
       <use style="stroke:#000000;stroke-width:0.8;" x="321.403847" xlink:href="#m3d019e9710" y="425.16"/>
      </g>
     </g>
    </g>
    <g id="xtick_27">
     <g id="line2d_59">
      <g>
       <use style="stroke:#000000;stroke-width:0.8;" x="402.594419" xlink:href="#m3d019e9710" y="425.16"/>
      </g>
     </g>
    </g>
    <g id="xtick_28">
     <g id="line2d_60">
      <g>
       <use style="stroke:#000000;stroke-width:0.8;" x="483.78499" xlink:href="#m3d019e9710" y="425.16"/>
      </g>
     </g>
    </g>
    <g id="xtick_29">
     <g id="line2d_61">
      <g>
       <use style="stroke:#000000;stroke-width:0.6;" x="118.427418" xlink:href="#m7cf24d6261" y="425.16"/>
      </g>
     </g>
    </g>
    <g id="xtick_30">
     <g id="line2d_62">
      <g>
       <use style="stroke:#000000;stroke-width:0.6;" x="199.61799" xlink:href="#m7cf24d6261" y="425.16"/>
      </g>
     </g>
    </g>
    <g id="xtick_31">
     <g id="line2d_63">
      <g>
       <use style="stroke:#000000;stroke-width:0.6;" x="280.808561" xlink:href="#m7cf24d6261" y="425.16"/>
      </g>
     </g>
    </g>
    <g id="xtick_32">
     <g id="line2d_64">
      <g>
       <use style="stroke:#000000;stroke-width:0.6;" x="361.999133" xlink:href="#m7cf24d6261" y="425.16"/>
      </g>
     </g>
    </g>
    <g id="xtick_33">
     <g id="line2d_65">
      <g>
       <use style="stroke:#000000;stroke-width:0.6;" x="443.189705" xlink:href="#m7cf24d6261" y="425.16"/>
      </g>
     </g>
    </g>
   </g>
   <g id="matplotlib.axis_6">
    <g id="ytick_23">
     <g id="line2d_66">
      <g>
       <use style="stroke:#000000;stroke-width:0.8;" x="64.131" xlink:href="#m90db7184fc" y="420.2"/>
      </g>
     </g>
     <g id="text_11">
      <!-- 0.90 -->
      <g transform="translate(34.865375 423.999219)scale(0.1 -0.1)">
       <use xlink:href="#DejaVuSans-30"/>
       <use x="63.623047" xlink:href="#DejaVuSans-2e"/>
       <use x="95.410156" xlink:href="#DejaVuSans-39"/>
       <use x="159.033203" xlink:href="#DejaVuSans-30"/>
      </g>
     </g>
    </g>
    <g id="ytick_24">
     <g id="line2d_67">
      <g>
       <use style="stroke:#000000;stroke-width:0.8;" x="64.131" xlink:href="#m90db7184fc" y="370.6"/>
      </g>
     </g>
     <g id="text_12">
      <!-- 0.95 -->
      <g transform="translate(34.865375 374.399219)scale(0.1 -0.1)">
       <use xlink:href="#DejaVuSans-30"/>
       <use x="63.623047" xlink:href="#DejaVuSans-2e"/>
       <use x="95.410156" xlink:href="#DejaVuSans-39"/>
       <use x="159.033203" xlink:href="#DejaVuSans-35"/>
      </g>
     </g>
    </g>
    <g id="ytick_25">
     <g id="line2d_68">
      <g>
       <use style="stroke:#000000;stroke-width:0.8;" x="64.131" xlink:href="#m90db7184fc" y="321"/>
      </g>
     </g>
     <g id="text_13">
      <!-- 1.00 -->
      <g transform="translate(34.865375 324.799219)scale(0.1 -0.1)">
       <use xlink:href="#DejaVuSans-31"/>
       <use x="63.623047" xlink:href="#DejaVuSans-2e"/>
       <use x="95.410156" xlink:href="#DejaVuSans-30"/>
       <use x="159.033203" xlink:href="#DejaVuSans-30"/>
      </g>
     </g>
    </g>
    <g id="ytick_26">
     <g id="line2d_69">
      <g>
       <use style="stroke:#000000;stroke-width:0.6;" x="64.131" xlink:href="#m449c3931cb" y="410.28"/>
      </g>
     </g>
    </g>
    <g id="ytick_27">
     <g id="line2d_70">
      <g>
       <use style="stroke:#000000;stroke-width:0.6;" x="64.131" xlink:href="#m449c3931cb" y="400.36"/>
      </g>
     </g>
    </g>
    <g id="ytick_28">
     <g id="line2d_71">
      <g>
       <use style="stroke:#000000;stroke-width:0.6;" x="64.131" xlink:href="#m449c3931cb" y="390.44"/>
      </g>
     </g>
    </g>
    <g id="ytick_29">
     <g id="line2d_72">
      <g>
       <use style="stroke:#000000;stroke-width:0.6;" x="64.131" xlink:href="#m449c3931cb" y="380.52"/>
      </g>
     </g>
    </g>
    <g id="ytick_30">
     <g id="line2d_73">
      <g>
       <use style="stroke:#000000;stroke-width:0.6;" x="64.131" xlink:href="#m449c3931cb" y="360.68"/>
      </g>
     </g>
    </g>
    <g id="ytick_31">
     <g id="line2d_74">
      <g>
       <use style="stroke:#000000;stroke-width:0.6;" x="64.131" xlink:href="#m449c3931cb" y="350.76"/>
      </g>
     </g>
    </g>
    <g id="ytick_32">
     <g id="line2d_75">
      <g>
       <use style="stroke:#000000;stroke-width:0.6;" x="64.131" xlink:href="#m449c3931cb" y="340.84"/>
      </g>
     </g>
    </g>
    <g id="ytick_33">
     <g id="line2d_76">
      <g>
       <use style="stroke:#000000;stroke-width:0.6;" x="64.131" xlink:href="#m449c3931cb" y="330.92"/>
      </g>
     </g>
    </g>
    <g id="text_14">
     <!-- Intensity -->
     <g transform="translate(25.161781 398.89125)rotate(-90)scale(0.13 -0.13)">
      <use xlink:href="#DejaVuSans-49"/>
      <use x="29.492188" xlink:href="#DejaVuSans-6e"/>
      <use x="92.871094" xlink:href="#DejaVuSans-74"/>
      <use x="132.080078" xlink:href="#DejaVuSans-65"/>
      <use x="193.603516" xlink:href="#DejaVuSans-6e"/>
      <use x="256.982422" xlink:href="#DejaVuSans-73"/>
      <use x="309.082031" xlink:href="#DejaVuSans-69"/>
      <use x="336.865234" xlink:href="#DejaVuSans-74"/>
      <use x="376.074219" xlink:href="#DejaVuSans-79"/>
     </g>
    </g>
   </g>
   <g id="line2d_77">
    <path clip-path="url(#p27f8f364ad)" d="M 152.315558 321.101354 
L 165.503105 321.331637 
L 174.677051 321.70116 
L 181.557511 322.179879 
L 187.291227 322.777064 
L 192.451572 323.525554 
L 197.038545 324.407712 
L 201.052147 325.386166 
L 205.065748 326.594476 
L 208.505978 327.841394 
L 211.946208 329.308292 
L 215.386437 331.017894 
L 218.826667 332.990647 
L 222.266897 335.24313 
L 225.707127 337.786246 
L 229.147357 340.623223 
L 232.587586 343.747564 
L 236.601188 347.730808 
L 240.614789 352.027794 
L 245.775134 357.883416 
L 257.242567 371.033953 
L 261.256168 375.228251 
L 264.696398 378.500272 
L 268.136628 381.42892 
L 271.576858 384.01266 
L 275.017087 386.299675 
L 280.177432 389.410452 
L 284.764405 392.24267 
L 287.631263 394.246967 
L 290.498122 396.542348 
L 293.36498 399.183209 
L 296.231838 402.170839 
L 299.672068 406.117245 
L 305.979156 413.490665 
L 308.272642 415.828262 
L 309.992757 417.330442 
L 311.712872 418.558883 
L 313.432987 419.468224 
L 314.57973 419.879167 
L 315.726474 420.124709 
L 316.873217 420.2 
L 318.01996 420.103087 
L 319.166703 419.835033 
L 320.313447 419.399966 
L 322.033562 418.450646 
L 323.753676 417.178465 
L 325.473791 415.632547 
L 327.767278 413.249744 
L 332.354251 407.994801 
L 335.221109 404.852191 
L 337.514596 402.642735 
L 339.234711 401.230149 
L 340.954826 400.056485 
L 342.67494 399.132669 
L 344.395055 398.455401 
L 346.11517 398.007999 
L 347.835285 397.761901 
L 350.128772 397.679338 
L 353.569002 397.850653 
L 357.009231 398.001932 
L 359.302718 397.888892 
L 361.022833 397.615867 
L 362.742948 397.140667 
L 364.463063 396.434719 
L 366.183178 395.477558 
L 367.903292 394.256969 
L 369.623407 392.768812 
L 371.343522 391.016567 
L 373.637009 388.288363 
L 375.930495 385.151115 
L 378.223982 381.661293 
L 381.09084 376.906664 
L 385.104441 369.780503 
L 393.705016 354.379139 
L 397.145246 348.741331 
L 400.012104 344.436672 
L 402.878962 340.542508 
L 405.74582 337.084263 
L 408.039307 334.635642 
L 410.332793 332.464456 
L 412.62628 330.559834 
L 414.919767 328.906509 
L 417.213253 327.486041 
L 420.080111 326.006577 
L 422.946969 324.816751 
L 425.813828 323.874387 
L 429.254057 323.013647 
L 432.694287 322.387969 
L 436.707889 321.882434 
L 441.868233 321.480725 
L 448.748693 321.207915 
L 454.482409 321.102961 
L 454.482409 321.102961 
" style="fill:none;stroke:#1f77b4;stroke-linecap:square;"/>
   </g>
   <g id="line2d_78">
    <path clip-path="url(#p27f8f364ad)" d="M 64.131 321 
L 515.7185 321 
" style="fill:none;stroke:#808080;stroke-dasharray:5.55,2.4;stroke-dashoffset:0;stroke-width:1.5;"/>
   </g>
   <g id="line2d_79">
    <path clip-path="url(#p27f8f364ad)" d="M 321.403847 425.16 
L 321.403847 316.04 
" style="fill:none;stroke:#808080;stroke-dasharray:5.55,2.4;stroke-dashoffset:0;stroke-width:1.5;"/>
   </g>
   <g id="patch_15">
    <path d="M 64.131 425.16 
L 64.131 316.04 
" style="fill:none;stroke:#000000;stroke-linecap:square;stroke-linejoin:miter;stroke-width:0.8;"/>
   </g>
   <g id="patch_16">
    <path d="M 515.7185 425.16 
L 515.7185 316.04 
" style="fill:none;stroke:#000000;stroke-linecap:square;stroke-linejoin:miter;stroke-width:0.8;"/>
   </g>
   <g id="patch_17">
    <path d="M 64.131 425.16 
L 515.7185 425.16 
" style="fill:none;stroke:#000000;stroke-linecap:square;stroke-linejoin:miter;stroke-width:0.8;"/>
   </g>
   <g id="patch_18">
    <path d="M 64.131 316.04 
L 515.7185 316.04 
" style="fill:none;stroke:#000000;stroke-linecap:square;stroke-linejoin:miter;stroke-width:0.8;"/>
   </g>
   <g id="legend_3">
    <g id="patch_19">
     <path d="M 454.257563 420.16 
L 508.7185 420.16 
Q 510.7185 420.16 510.7185 418.16 
L 510.7185 404.481875 
Q 510.7185 402.481875 508.7185 402.481875 
L 454.257563 402.481875 
Q 452.257563 402.481875 452.257563 404.481875 
L 452.257563 418.16 
Q 452.257563 420.16 454.257563 420.16 
z
" style="fill:#ffffff;opacity:0.8;stroke:#cccccc;stroke-linejoin:miter;"/>
    </g>
    <g id="line2d_80">
     <path d="M 456.257563 410.580312 
L 476.257563 410.580312 
" style="fill:none;stroke:#1f77b4;stroke-linecap:square;"/>
    </g>
    <g id="line2d_81"/>
    <g id="text_15">
     <!-- 30 K -->
     <g transform="translate(484.257563 414.080312)scale(0.1 -0.1)">
      <defs>
       <path d="M 2597 2516 
Q 3050 2419 3304 2112 
Q 3559 1806 3559 1356 
Q 3559 666 3084 287 
Q 2609 -91 1734 -91 
Q 1441 -91 1130 -33 
Q 819 25 488 141 
L 488 750 
Q 750 597 1062 519 
Q 1375 441 1716 441 
Q 2309 441 2620 675 
Q 2931 909 2931 1356 
Q 2931 1769 2642 2001 
Q 2353 2234 1838 2234 
L 1294 2234 
L 1294 2753 
L 1863 2753 
Q 2328 2753 2575 2939 
Q 2822 3125 2822 3475 
Q 2822 3834 2567 4026 
Q 2313 4219 1838 4219 
Q 1578 4219 1281 4162 
Q 984 4106 628 3988 
L 628 4550 
Q 988 4650 1302 4700 
Q 1616 4750 1894 4750 
Q 2613 4750 3031 4423 
Q 3450 4097 3450 3541 
Q 3450 3153 3228 2886 
Q 3006 2619 2597 2516 
z
" id="DejaVuSans-33" transform="scale(0.015625)"/>
      </defs>
      <use xlink:href="#DejaVuSans-33"/>
      <use x="63.623047" xlink:href="#DejaVuSans-30"/>
      <use x="127.246094" xlink:href="#DejaVuSans-20"/>
      <use x="159.033203" xlink:href="#DejaVuSans-4b"/>
     </g>
    </g>
   </g>
  </g>
  <g id="axes_4">
   <g id="patch_20">
    <path d="M 64.131 555.08 
L 515.7185 555.08 
L 515.7185 445.96 
L 64.131 445.96 
z
" style="fill:#ffffff;"/>
   </g>
   <g id="matplotlib.axis_7">
    <g id="xtick_34">
     <g id="line2d_82">
      <g>
       <use style="stroke:#000000;stroke-width:0.8;" x="77.832132" xlink:href="#m3d019e9710" y="555.08"/>
      </g>
     </g>
    </g>
    <g id="xtick_35">
     <g id="line2d_83">
      <g>
       <use style="stroke:#000000;stroke-width:0.8;" x="159.022704" xlink:href="#m3d019e9710" y="555.08"/>
      </g>
     </g>
    </g>
    <g id="xtick_36">
     <g id="line2d_84">
      <g>
       <use style="stroke:#000000;stroke-width:0.8;" x="240.213275" xlink:href="#m3d019e9710" y="555.08"/>
      </g>
     </g>
    </g>
    <g id="xtick_37">
     <g id="line2d_85">
      <g>
       <use style="stroke:#000000;stroke-width:0.8;" x="321.403847" xlink:href="#m3d019e9710" y="555.08"/>
      </g>
     </g>
    </g>
    <g id="xtick_38">
     <g id="line2d_86">
      <g>
       <use style="stroke:#000000;stroke-width:0.8;" x="402.594419" xlink:href="#m3d019e9710" y="555.08"/>
      </g>
     </g>
    </g>
    <g id="xtick_39">
     <g id="line2d_87">
      <g>
       <use style="stroke:#000000;stroke-width:0.8;" x="483.78499" xlink:href="#m3d019e9710" y="555.08"/>
      </g>
     </g>
    </g>
    <g id="xtick_40">
     <g id="line2d_88">
      <g>
       <use style="stroke:#000000;stroke-width:0.6;" x="118.427418" xlink:href="#m7cf24d6261" y="555.08"/>
      </g>
     </g>
    </g>
    <g id="xtick_41">
     <g id="line2d_89">
      <g>
       <use style="stroke:#000000;stroke-width:0.6;" x="199.61799" xlink:href="#m7cf24d6261" y="555.08"/>
      </g>
     </g>
    </g>
    <g id="xtick_42">
     <g id="line2d_90">
      <g>
       <use style="stroke:#000000;stroke-width:0.6;" x="280.808561" xlink:href="#m7cf24d6261" y="555.08"/>
      </g>
     </g>
    </g>
    <g id="xtick_43">
     <g id="line2d_91">
      <g>
       <use style="stroke:#000000;stroke-width:0.6;" x="361.999133" xlink:href="#m7cf24d6261" y="555.08"/>
      </g>
     </g>
    </g>
    <g id="xtick_44">
     <g id="line2d_92">
      <g>
       <use style="stroke:#000000;stroke-width:0.6;" x="443.189705" xlink:href="#m7cf24d6261" y="555.08"/>
      </g>
     </g>
    </g>
   </g>
   <g id="matplotlib.axis_8">
    <g id="ytick_34">
     <g id="line2d_93">
      <g>
       <use style="stroke:#000000;stroke-width:0.8;" x="64.131" xlink:href="#m90db7184fc" y="550.12"/>
      </g>
     </g>
     <g id="text_16">
      <!-- 0.90 -->
      <g transform="translate(34.865375 553.919219)scale(0.1 -0.1)">
       <use xlink:href="#DejaVuSans-30"/>
       <use x="63.623047" xlink:href="#DejaVuSans-2e"/>
       <use x="95.410156" xlink:href="#DejaVuSans-39"/>
       <use x="159.033203" xlink:href="#DejaVuSans-30"/>
      </g>
     </g>
    </g>
    <g id="ytick_35">
     <g id="line2d_94">
      <g>
       <use style="stroke:#000000;stroke-width:0.8;" x="64.131" xlink:href="#m90db7184fc" y="500.52"/>
      </g>
     </g>
     <g id="text_17">
      <!-- 0.95 -->
      <g transform="translate(34.865375 504.319219)scale(0.1 -0.1)">
       <use xlink:href="#DejaVuSans-30"/>
       <use x="63.623047" xlink:href="#DejaVuSans-2e"/>
       <use x="95.410156" xlink:href="#DejaVuSans-39"/>
       <use x="159.033203" xlink:href="#DejaVuSans-35"/>
      </g>
     </g>
    </g>
    <g id="ytick_36">
     <g id="line2d_95">
      <g>
       <use style="stroke:#000000;stroke-width:0.8;" x="64.131" xlink:href="#m90db7184fc" y="450.92"/>
      </g>
     </g>
     <g id="text_18">
      <!-- 1.00 -->
      <g transform="translate(34.865375 454.719219)scale(0.1 -0.1)">
       <use xlink:href="#DejaVuSans-31"/>
       <use x="63.623047" xlink:href="#DejaVuSans-2e"/>
       <use x="95.410156" xlink:href="#DejaVuSans-30"/>
       <use x="159.033203" xlink:href="#DejaVuSans-30"/>
      </g>
     </g>
    </g>
    <g id="ytick_37">
     <g id="line2d_96">
      <g>
       <use style="stroke:#000000;stroke-width:0.6;" x="64.131" xlink:href="#m449c3931cb" y="540.2"/>
      </g>
     </g>
    </g>
    <g id="ytick_38">
     <g id="line2d_97">
      <g>
       <use style="stroke:#000000;stroke-width:0.6;" x="64.131" xlink:href="#m449c3931cb" y="530.28"/>
      </g>
     </g>
    </g>
    <g id="ytick_39">
     <g id="line2d_98">
      <g>
       <use style="stroke:#000000;stroke-width:0.6;" x="64.131" xlink:href="#m449c3931cb" y="520.36"/>
      </g>
     </g>
    </g>
    <g id="ytick_40">
     <g id="line2d_99">
      <g>
       <use style="stroke:#000000;stroke-width:0.6;" x="64.131" xlink:href="#m449c3931cb" y="510.44"/>
      </g>
     </g>
    </g>
    <g id="ytick_41">
     <g id="line2d_100">
      <g>
       <use style="stroke:#000000;stroke-width:0.6;" x="64.131" xlink:href="#m449c3931cb" y="490.6"/>
      </g>
     </g>
    </g>
    <g id="ytick_42">
     <g id="line2d_101">
      <g>
       <use style="stroke:#000000;stroke-width:0.6;" x="64.131" xlink:href="#m449c3931cb" y="480.68"/>
      </g>
     </g>
    </g>
    <g id="ytick_43">
     <g id="line2d_102">
      <g>
       <use style="stroke:#000000;stroke-width:0.6;" x="64.131" xlink:href="#m449c3931cb" y="470.76"/>
      </g>
     </g>
    </g>
    <g id="ytick_44">
     <g id="line2d_103">
      <g>
       <use style="stroke:#000000;stroke-width:0.6;" x="64.131" xlink:href="#m449c3931cb" y="460.84"/>
      </g>
     </g>
    </g>
    <g id="text_19">
     <!-- Intensity -->
     <g transform="translate(25.161781 528.81125)rotate(-90)scale(0.13 -0.13)">
      <use xlink:href="#DejaVuSans-49"/>
      <use x="29.492188" xlink:href="#DejaVuSans-6e"/>
      <use x="92.871094" xlink:href="#DejaVuSans-74"/>
      <use x="132.080078" xlink:href="#DejaVuSans-65"/>
      <use x="193.603516" xlink:href="#DejaVuSans-6e"/>
      <use x="256.982422" xlink:href="#DejaVuSans-73"/>
      <use x="309.082031" xlink:href="#DejaVuSans-69"/>
      <use x="336.865234" xlink:href="#DejaVuSans-74"/>
      <use x="376.074219" xlink:href="#DejaVuSans-79"/>
     </g>
    </g>
   </g>
   <g id="line2d_104">
    <path clip-path="url(#p22b581b936)" d="M 96.125137 451.022133 
L 112.752915 451.282789 
L 123.646976 451.660309 
L 131.674179 452.148707 
L 137.981267 452.741706 
L 143.141611 453.425198 
L 147.728584 454.228191 
L 152.315558 455.254399 
L 156.329159 456.361339 
L 160.34276 457.679426 
L 164.356362 459.214508 
L 168.943335 461.228003 
L 173.530308 463.495395 
L 178.690653 466.305973 
L 184.424369 469.686279 
L 191.304829 474.010473 
L 199.332032 479.323699 
L 211.372836 487.603054 
L 221.120154 494.200985 
L 226.85387 497.813434 
L 231.440843 500.457735 
L 235.454445 502.543292 
L 239.468046 504.384359 
L 243.481648 505.962944 
L 247.495249 507.276704 
L 251.50885 508.342955 
L 256.095824 509.312759 
L 269.856743 511.986669 
L 272.723601 512.883586 
L 275.017087 513.795351 
L 277.310574 514.920864 
L 279.604061 516.295117 
L 281.897547 517.947323 
L 284.191034 519.897592 
L 286.48452 522.153328 
L 288.778007 524.705624 
L 291.644865 528.267539 
L 295.085095 532.941282 
L 301.392183 541.640185 
L 303.685669 544.436703 
L 305.405784 546.26663 
L 307.125899 547.800959 
L 308.846014 548.984066 
L 309.992757 549.553082 
L 311.139501 549.931554 
L 312.286244 550.109136 
L 313.432987 550.077847 
L 314.57973 549.832307 
L 315.726474 549.369934 
L 316.873217 548.691089 
L 318.01996 547.799158 
L 319.166703 546.700588 
L 320.886818 544.68678 
L 322.606933 542.274076 
L 324.90042 538.537575 
L 327.767278 533.271159 
L 335.221109 519.116285 
L 337.514596 515.378641 
L 339.234711 512.942941 
L 340.954826 510.875386 
L 342.67494 509.209687 
L 344.395055 507.966108 
L 345.541799 507.375559 
L 346.688542 506.974939 
L 347.835285 506.760853 
L 348.982028 506.727738 
L 350.128772 506.868063 
L 351.275515 507.17255 
L 352.99563 507.913112 
L 354.715745 508.956857 
L 356.43586 510.257498 
L 358.729346 512.305936 
L 361.596204 515.202686 
L 369.050036 522.955122 
L 371.343522 525.017801 
L 373.637009 526.788978 
L 375.357124 527.889925 
L 377.077239 528.773135 
L 378.797353 529.422415 
L 380.517468 529.825376 
L 382.237583 529.973225 
L 383.957698 529.860553 
L 385.677813 529.485111 
L 387.397928 528.847595 
L 389.118043 527.951432 
L 390.838158 526.802573 
L 392.558273 525.409305 
L 394.278388 523.782064 
L 396.571874 521.270178 
L 398.865361 518.399029 
L 401.158847 515.208154 
L 404.025705 510.83746 
L 407.465935 505.158042 
L 412.62628 496.12227 
L 419.50674 484.084716 
L 422.946969 478.467035 
L 425.813828 474.135284 
L 428.680686 470.189274 
L 431.547544 466.671499 
L 433.84103 464.180516 
L 436.134517 461.978692 
L 438.428004 460.059366 
L 440.72149 458.40914 
L 443.014977 457.009242 
L 445.308463 455.837041 
L 448.175321 454.653851 
L 451.04218 453.736985 
L 453.909038 453.037518 
L 457.349268 452.42251 
L 461.362869 451.932174 
L 466.523214 451.539367 
L 473.403673 451.25274 
L 484.297734 451.048746 
L 487.164593 451.019724 
L 487.164593 451.019724 
" style="fill:none;stroke:#1f77b4;stroke-linecap:square;"/>
   </g>
   <g id="line2d_105">
    <path clip-path="url(#p22b581b936)" d="M 64.131 450.92 
L 515.7185 450.92 
" style="fill:none;stroke:#808080;stroke-dasharray:5.55,2.4;stroke-dashoffset:0;stroke-width:1.5;"/>
   </g>
   <g id="line2d_106">
    <path clip-path="url(#p22b581b936)" d="M 321.403847 555.08 
L 321.403847 445.96 
" style="fill:none;stroke:#808080;stroke-dasharray:5.55,2.4;stroke-dashoffset:0;stroke-width:1.5;"/>
   </g>
   <g id="patch_21">
    <path d="M 64.131 555.08 
L 64.131 445.96 
" style="fill:none;stroke:#000000;stroke-linecap:square;stroke-linejoin:miter;stroke-width:0.8;"/>
   </g>
   <g id="patch_22">
    <path d="M 515.7185 555.08 
L 515.7185 445.96 
" style="fill:none;stroke:#000000;stroke-linecap:square;stroke-linejoin:miter;stroke-width:0.8;"/>
   </g>
   <g id="patch_23">
    <path d="M 64.131 555.08 
L 515.7185 555.08 
" style="fill:none;stroke:#000000;stroke-linecap:square;stroke-linejoin:miter;stroke-width:0.8;"/>
   </g>
   <g id="patch_24">
    <path d="M 64.131 445.96 
L 515.7185 445.96 
" style="fill:none;stroke:#000000;stroke-linecap:square;stroke-linejoin:miter;stroke-width:0.8;"/>
   </g>
   <g id="legend_4">
    <g id="patch_25">
     <path d="M 454.257563 550.08 
L 508.7185 550.08 
Q 510.7185 550.08 510.7185 548.08 
L 510.7185 534.401875 
Q 510.7185 532.401875 508.7185 532.401875 
L 454.257563 532.401875 
Q 452.257563 532.401875 452.257563 534.401875 
L 452.257563 548.08 
Q 452.257563 550.08 454.257563 550.08 
z
" style="fill:#ffffff;opacity:0.8;stroke:#cccccc;stroke-linejoin:miter;"/>
    </g>
    <g id="line2d_107">
     <path d="M 456.257563 540.500312 
L 476.257563 540.500312 
" style="fill:none;stroke:#1f77b4;stroke-linecap:square;"/>
    </g>
    <g id="line2d_108"/>
    <g id="text_20">
     <!-- 70 K -->
     <g transform="translate(484.257563 544.000312)scale(0.1 -0.1)">
      <use xlink:href="#DejaVuSans-37"/>
      <use x="63.623047" xlink:href="#DejaVuSans-30"/>
      <use x="127.246094" xlink:href="#DejaVuSans-20"/>
      <use x="159.033203" xlink:href="#DejaVuSans-4b"/>
     </g>
    </g>
   </g>
  </g>
  <g id="axes_5">
   <g id="patch_26">
    <path d="M 64.131 685 
L 515.7185 685 
L 515.7185 575.88 
L 64.131 575.88 
z
" style="fill:#ffffff;"/>
   </g>
   <g id="matplotlib.axis_9">
    <g id="xtick_45">
     <g id="line2d_109">
      <g>
       <use style="stroke:#000000;stroke-width:0.8;" x="77.832132" xlink:href="#m3d019e9710" y="685"/>
      </g>
     </g>
     <g id="text_21">
      <!-- −3 -->
      <g transform="translate(70.461038 699.598437)scale(0.1 -0.1)">
       <defs>
        <path d="M 678 2272 
L 4684 2272 
L 4684 1741 
L 678 1741 
L 678 2272 
z
" id="DejaVuSans-2212" transform="scale(0.015625)"/>
       </defs>
       <use xlink:href="#DejaVuSans-2212"/>
       <use x="83.789062" xlink:href="#DejaVuSans-33"/>
      </g>
     </g>
    </g>
    <g id="xtick_46">
     <g id="line2d_110">
      <g>
       <use style="stroke:#000000;stroke-width:0.8;" x="159.022704" xlink:href="#m3d019e9710" y="685"/>
      </g>
     </g>
     <g id="text_22">
      <!-- −2 -->
      <g transform="translate(151.65161 699.598437)scale(0.1 -0.1)">
       <use xlink:href="#DejaVuSans-2212"/>
       <use x="83.789062" xlink:href="#DejaVuSans-32"/>
      </g>
     </g>
    </g>
    <g id="xtick_47">
     <g id="line2d_111">
      <g>
       <use style="stroke:#000000;stroke-width:0.8;" x="240.213275" xlink:href="#m3d019e9710" y="685"/>
      </g>
     </g>
     <g id="text_23">
      <!-- −1 -->
      <g transform="translate(232.842182 699.598437)scale(0.1 -0.1)">
       <use xlink:href="#DejaVuSans-2212"/>
       <use x="83.789062" xlink:href="#DejaVuSans-31"/>
      </g>
     </g>
    </g>
    <g id="xtick_48">
     <g id="line2d_112">
      <g>
       <use style="stroke:#000000;stroke-width:0.8;" x="321.403847" xlink:href="#m3d019e9710" y="685"/>
      </g>
     </g>
     <g id="text_24">
      <!-- 0 -->
      <g transform="translate(318.222597 699.598437)scale(0.1 -0.1)">
       <use xlink:href="#DejaVuSans-30"/>
      </g>
     </g>
    </g>
    <g id="xtick_49">
     <g id="line2d_113">
      <g>
       <use style="stroke:#000000;stroke-width:0.8;" x="402.594419" xlink:href="#m3d019e9710" y="685"/>
      </g>
     </g>
     <g id="text_25">
      <!-- 1 -->
      <g transform="translate(399.413169 699.598437)scale(0.1 -0.1)">
       <use xlink:href="#DejaVuSans-31"/>
      </g>
     </g>
    </g>
    <g id="xtick_50">
     <g id="line2d_114">
      <g>
       <use style="stroke:#000000;stroke-width:0.8;" x="483.78499" xlink:href="#m3d019e9710" y="685"/>
      </g>
     </g>
     <g id="text_26">
      <!-- 2 -->
      <g transform="translate(480.60374 699.598437)scale(0.1 -0.1)">
       <use xlink:href="#DejaVuSans-32"/>
      </g>
     </g>
    </g>
    <g id="xtick_51">
     <g id="line2d_115">
      <g>
       <use style="stroke:#000000;stroke-width:0.6;" x="118.427418" xlink:href="#m7cf24d6261" y="685"/>
      </g>
     </g>
    </g>
    <g id="xtick_52">
     <g id="line2d_116">
      <g>
       <use style="stroke:#000000;stroke-width:0.6;" x="199.61799" xlink:href="#m7cf24d6261" y="685"/>
      </g>
     </g>
    </g>
    <g id="xtick_53">
     <g id="line2d_117">
      <g>
       <use style="stroke:#000000;stroke-width:0.6;" x="280.808561" xlink:href="#m7cf24d6261" y="685"/>
      </g>
     </g>
    </g>
    <g id="xtick_54">
     <g id="line2d_118">
      <g>
       <use style="stroke:#000000;stroke-width:0.6;" x="361.999133" xlink:href="#m7cf24d6261" y="685"/>
      </g>
     </g>
    </g>
    <g id="xtick_55">
     <g id="line2d_119">
      <g>
       <use style="stroke:#000000;stroke-width:0.6;" x="443.189705" xlink:href="#m7cf24d6261" y="685"/>
      </g>
     </g>
    </g>
    <g id="text_27">
     <!-- Wavenumber (cm$^{-1}$) -->
     <g transform="translate(222.25975 722.494531)scale(0.13 -0.13)">
      <defs>
       <path d="M 213 4666 
L 850 4666 
L 1831 722 
L 2809 4666 
L 3519 4666 
L 4500 722 
L 5478 4666 
L 6119 4666 
L 4947 0 
L 4153 0 
L 3169 4050 
L 2175 0 
L 1381 0 
L 213 4666 
z
" id="DejaVuSans-57" transform="scale(0.015625)"/>
       <path d="M 2194 1759 
Q 1497 1759 1228 1600 
Q 959 1441 959 1056 
Q 959 750 1161 570 
Q 1363 391 1709 391 
Q 2188 391 2477 730 
Q 2766 1069 2766 1631 
L 2766 1759 
L 2194 1759 
z
M 3341 1997 
L 3341 0 
L 2766 0 
L 2766 531 
Q 2569 213 2275 61 
Q 1981 -91 1556 -91 
Q 1019 -91 701 211 
Q 384 513 384 1019 
Q 384 1609 779 1909 
Q 1175 2209 1959 2209 
L 2766 2209 
L 2766 2266 
Q 2766 2663 2505 2880 
Q 2244 3097 1772 3097 
Q 1472 3097 1187 3025 
Q 903 2953 641 2809 
L 641 3341 
Q 956 3463 1253 3523 
Q 1550 3584 1831 3584 
Q 2591 3584 2966 3190 
Q 3341 2797 3341 1997 
z
" id="DejaVuSans-61" transform="scale(0.015625)"/>
       <path d="M 191 3500 
L 800 3500 
L 1894 563 
L 2988 3500 
L 3597 3500 
L 2284 0 
L 1503 0 
L 191 3500 
z
" id="DejaVuSans-76" transform="scale(0.015625)"/>
       <path d="M 544 1381 
L 544 3500 
L 1119 3500 
L 1119 1403 
Q 1119 906 1312 657 
Q 1506 409 1894 409 
Q 2359 409 2629 706 
Q 2900 1003 2900 1516 
L 2900 3500 
L 3475 3500 
L 3475 0 
L 2900 0 
L 2900 538 
Q 2691 219 2414 64 
Q 2138 -91 1772 -91 
Q 1169 -91 856 284 
Q 544 659 544 1381 
z
M 1991 3584 
L 1991 3584 
z
" id="DejaVuSans-75" transform="scale(0.015625)"/>
       <path d="M 3328 2828 
Q 3544 3216 3844 3400 
Q 4144 3584 4550 3584 
Q 5097 3584 5394 3201 
Q 5691 2819 5691 2113 
L 5691 0 
L 5113 0 
L 5113 2094 
Q 5113 2597 4934 2840 
Q 4756 3084 4391 3084 
Q 3944 3084 3684 2787 
Q 3425 2491 3425 1978 
L 3425 0 
L 2847 0 
L 2847 2094 
Q 2847 2600 2669 2842 
Q 2491 3084 2119 3084 
Q 1678 3084 1418 2786 
Q 1159 2488 1159 1978 
L 1159 0 
L 581 0 
L 581 3500 
L 1159 3500 
L 1159 2956 
Q 1356 3278 1631 3431 
Q 1906 3584 2284 3584 
Q 2666 3584 2933 3390 
Q 3200 3197 3328 2828 
z
" id="DejaVuSans-6d" transform="scale(0.015625)"/>
       <path d="M 3116 1747 
Q 3116 2381 2855 2742 
Q 2594 3103 2138 3103 
Q 1681 3103 1420 2742 
Q 1159 2381 1159 1747 
Q 1159 1113 1420 752 
Q 1681 391 2138 391 
Q 2594 391 2855 752 
Q 3116 1113 3116 1747 
z
M 1159 2969 
Q 1341 3281 1617 3432 
Q 1894 3584 2278 3584 
Q 2916 3584 3314 3078 
Q 3713 2572 3713 1747 
Q 3713 922 3314 415 
Q 2916 -91 2278 -91 
Q 1894 -91 1617 61 
Q 1341 213 1159 525 
L 1159 0 
L 581 0 
L 581 4863 
L 1159 4863 
L 1159 2969 
z
" id="DejaVuSans-62" transform="scale(0.015625)"/>
       <path d="M 2631 2963 
Q 2534 3019 2420 3045 
Q 2306 3072 2169 3072 
Q 1681 3072 1420 2755 
Q 1159 2438 1159 1844 
L 1159 0 
L 581 0 
L 581 3500 
L 1159 3500 
L 1159 2956 
Q 1341 3275 1631 3429 
Q 1922 3584 2338 3584 
Q 2397 3584 2469 3576 
Q 2541 3569 2628 3553 
L 2631 2963 
z
" id="DejaVuSans-72" transform="scale(0.015625)"/>
       <path d="M 1984 4856 
Q 1566 4138 1362 3434 
Q 1159 2731 1159 2009 
Q 1159 1288 1364 580 
Q 1569 -128 1984 -844 
L 1484 -844 
Q 1016 -109 783 600 
Q 550 1309 550 2009 
Q 550 2706 781 3412 
Q 1013 4119 1484 4856 
L 1984 4856 
z
" id="DejaVuSans-28" transform="scale(0.015625)"/>
       <path d="M 3122 3366 
L 3122 2828 
Q 2878 2963 2633 3030 
Q 2388 3097 2138 3097 
Q 1578 3097 1268 2742 
Q 959 2388 959 1747 
Q 959 1106 1268 751 
Q 1578 397 2138 397 
Q 2388 397 2633 464 
Q 2878 531 3122 666 
L 3122 134 
Q 2881 22 2623 -34 
Q 2366 -91 2075 -91 
Q 1284 -91 818 406 
Q 353 903 353 1747 
Q 353 2603 823 3093 
Q 1294 3584 2113 3584 
Q 2378 3584 2631 3529 
Q 2884 3475 3122 3366 
z
" id="DejaVuSans-63" transform="scale(0.015625)"/>
       <path d="M 513 4856 
L 1013 4856 
Q 1481 4119 1714 3412 
Q 1947 2706 1947 2009 
Q 1947 1309 1714 600 
Q 1481 -109 1013 -844 
L 513 -844 
Q 928 -128 1133 580 
Q 1338 1288 1338 2009 
Q 1338 2731 1133 3434 
Q 928 4138 513 4856 
z
" id="DejaVuSans-29" transform="scale(0.015625)"/>
      </defs>
      <use transform="translate(0 0.684375)" xlink:href="#DejaVuSans-57"/>
      <use transform="translate(98.876953 0.684375)" xlink:href="#DejaVuSans-61"/>
      <use transform="translate(160.15625 0.684375)" xlink:href="#DejaVuSans-76"/>
      <use transform="translate(219.335938 0.684375)" xlink:href="#DejaVuSans-65"/>
      <use transform="translate(280.859375 0.684375)" xlink:href="#DejaVuSans-6e"/>
      <use transform="translate(344.238281 0.684375)" xlink:href="#DejaVuSans-75"/>
      <use transform="translate(407.617188 0.684375)" xlink:href="#DejaVuSans-6d"/>
      <use transform="translate(505.029297 0.684375)" xlink:href="#DejaVuSans-62"/>
      <use transform="translate(568.505859 0.684375)" xlink:href="#DejaVuSans-65"/>
      <use transform="translate(630.029297 0.684375)" xlink:href="#DejaVuSans-72"/>
      <use transform="translate(671.142578 0.684375)" xlink:href="#DejaVuSans-20"/>
      <use transform="translate(702.929688 0.684375)" xlink:href="#DejaVuSans-28"/>
      <use transform="translate(741.943359 0.684375)" xlink:href="#DejaVuSans-63"/>
      <use transform="translate(796.923828 0.684375)" xlink:href="#DejaVuSans-6d"/>
      <use transform="translate(895.292969 38.965625)scale(0.7)" xlink:href="#DejaVuSans-2212"/>
      <use transform="translate(953.945312 38.965625)scale(0.7)" xlink:href="#DejaVuSans-31"/>
      <use transform="translate(1001.21582 0.684375)" xlink:href="#DejaVuSans-29"/>
     </g>
    </g>
   </g>
   <g id="matplotlib.axis_10">
    <g id="ytick_45">
     <g id="line2d_120">
      <g>
       <use style="stroke:#000000;stroke-width:0.8;" x="64.131" xlink:href="#m90db7184fc" y="680.04"/>
      </g>
     </g>
     <g id="text_28">
      <!-- 0.90 -->
      <g transform="translate(34.865375 683.839219)scale(0.1 -0.1)">
       <use xlink:href="#DejaVuSans-30"/>
       <use x="63.623047" xlink:href="#DejaVuSans-2e"/>
       <use x="95.410156" xlink:href="#DejaVuSans-39"/>
       <use x="159.033203" xlink:href="#DejaVuSans-30"/>
      </g>
     </g>
    </g>
    <g id="ytick_46">
     <g id="line2d_121">
      <g>
       <use style="stroke:#000000;stroke-width:0.8;" x="64.131" xlink:href="#m90db7184fc" y="630.44"/>
      </g>
     </g>
     <g id="text_29">
      <!-- 0.95 -->
      <g transform="translate(34.865375 634.239219)scale(0.1 -0.1)">
       <use xlink:href="#DejaVuSans-30"/>
       <use x="63.623047" xlink:href="#DejaVuSans-2e"/>
       <use x="95.410156" xlink:href="#DejaVuSans-39"/>
       <use x="159.033203" xlink:href="#DejaVuSans-35"/>
      </g>
     </g>
    </g>
    <g id="ytick_47">
     <g id="line2d_122">
      <g>
       <use style="stroke:#000000;stroke-width:0.8;" x="64.131" xlink:href="#m90db7184fc" y="580.84"/>
      </g>
     </g>
     <g id="text_30">
      <!-- 1.00 -->
      <g transform="translate(34.865375 584.639219)scale(0.1 -0.1)">
       <use xlink:href="#DejaVuSans-31"/>
       <use x="63.623047" xlink:href="#DejaVuSans-2e"/>
       <use x="95.410156" xlink:href="#DejaVuSans-30"/>
       <use x="159.033203" xlink:href="#DejaVuSans-30"/>
      </g>
     </g>
    </g>
    <g id="ytick_48">
     <g id="line2d_123">
      <g>
       <use style="stroke:#000000;stroke-width:0.6;" x="64.131" xlink:href="#m449c3931cb" y="670.12"/>
      </g>
     </g>
    </g>
    <g id="ytick_49">
     <g id="line2d_124">
      <g>
       <use style="stroke:#000000;stroke-width:0.6;" x="64.131" xlink:href="#m449c3931cb" y="660.2"/>
      </g>
     </g>
    </g>
    <g id="ytick_50">
     <g id="line2d_125">
      <g>
       <use style="stroke:#000000;stroke-width:0.6;" x="64.131" xlink:href="#m449c3931cb" y="650.28"/>
      </g>
     </g>
    </g>
    <g id="ytick_51">
     <g id="line2d_126">
      <g>
       <use style="stroke:#000000;stroke-width:0.6;" x="64.131" xlink:href="#m449c3931cb" y="640.36"/>
      </g>
     </g>
    </g>
    <g id="ytick_52">
     <g id="line2d_127">
      <g>
       <use style="stroke:#000000;stroke-width:0.6;" x="64.131" xlink:href="#m449c3931cb" y="620.52"/>
      </g>
     </g>
    </g>
    <g id="ytick_53">
     <g id="line2d_128">
      <g>
       <use style="stroke:#000000;stroke-width:0.6;" x="64.131" xlink:href="#m449c3931cb" y="610.6"/>
      </g>
     </g>
    </g>
    <g id="ytick_54">
     <g id="line2d_129">
      <g>
       <use style="stroke:#000000;stroke-width:0.6;" x="64.131" xlink:href="#m449c3931cb" y="600.68"/>
      </g>
     </g>
    </g>
    <g id="ytick_55">
     <g id="line2d_130">
      <g>
       <use style="stroke:#000000;stroke-width:0.6;" x="64.131" xlink:href="#m449c3931cb" y="590.76"/>
      </g>
     </g>
    </g>
    <g id="text_31">
     <!-- Intensity -->
     <g transform="translate(25.161781 658.73125)rotate(-90)scale(0.13 -0.13)">
      <use xlink:href="#DejaVuSans-49"/>
      <use x="29.492188" xlink:href="#DejaVuSans-6e"/>
      <use x="92.871094" xlink:href="#DejaVuSans-74"/>
      <use x="132.080078" xlink:href="#DejaVuSans-65"/>
      <use x="193.603516" xlink:href="#DejaVuSans-6e"/>
      <use x="256.982422" xlink:href="#DejaVuSans-73"/>
      <use x="309.082031" xlink:href="#DejaVuSans-69"/>
      <use x="336.865234" xlink:href="#DejaVuSans-74"/>
      <use x="376.074219" xlink:href="#DejaVuSans-79"/>
     </g>
    </g>
   </g>
   <g id="line2d_131">
    <path clip-path="url(#p6c3d568188)" d="M 84.657705 580.941356 
L 97.845252 581.205283 
L 107.59257 581.611268 
L 115.619773 582.149475 
L 122.500232 582.820289 
L 128.233949 583.584764 
L 133.394294 584.486662 
L 137.981267 585.505575 
L 141.994868 586.601368 
L 146.00847 587.919471 
L 150.022071 589.486541 
L 154.035672 591.320917 
L 158.049274 593.427529 
L 162.062875 595.793634 
L 166.649848 598.773066 
L 172.383565 602.794073 
L 188.437971 614.260537 
L 194.171687 617.977235 
L 199.332032 621.058063 
L 204.492376 623.876695 
L 209.652721 626.423241 
L 214.239694 628.443272 
L 218.826667 630.213629 
L 222.840269 631.541243 
L 226.85387 632.651206 
L 230.867472 633.54174 
L 234.881073 634.224057 
L 239.468046 634.785153 
L 245.775134 635.306521 
L 254.375709 636.024588 
L 258.38931 636.589945 
L 261.82954 637.302392 
L 264.696398 638.111115 
L 267.563256 639.160783 
L 270.430114 640.494321 
L 272.723601 641.793438 
L 275.017087 643.319983 
L 277.310574 645.08987 
L 279.604061 647.113904 
L 281.897547 649.395595 
L 284.764405 652.599442 
L 287.631263 656.155549 
L 291.071493 660.776985 
L 299.098696 671.734675 
L 301.392183 674.450135 
L 303.112298 676.226105 
L 304.832413 677.719496 
L 306.552527 678.879402 
L 307.699271 679.444185 
L 308.846014 679.827671 
L 309.992757 680.019137 
L 311.139501 680.00967 
L 312.286244 679.792397 
L 313.432987 679.362698 
L 314.57973 678.718373 
L 315.726474 677.859786 
L 316.873217 676.789948 
L 318.593332 674.80231 
L 320.313447 672.383334 
L 322.033562 669.576497 
L 324.327048 665.327795 
L 327.193906 659.430422 
L 335.221109 642.423422 
L 337.514596 638.223771 
L 339.234711 635.445109 
L 340.954826 633.036762 
L 342.67494 631.033372 
L 344.395055 629.457789 
L 345.541799 628.651077 
L 346.688542 628.040285 
L 347.835285 627.623913 
L 348.982028 627.398542 
L 350.128772 627.358993 
L 351.275515 627.498513 
L 352.422258 627.808966 
L 354.142373 628.574464 
L 355.862488 629.667878 
L 357.582603 631.050158 
L 359.87609 633.270998 
L 362.169576 635.831534 
L 365.609806 640.092609 
L 374.783752 651.800922 
L 377.65061 655.011055 
L 379.944097 657.284626 
L 382.237583 659.244864 
L 384.53107 660.850481 
L 386.251185 661.800173 
L 387.9713 662.516787 
L 389.691415 662.98858 
L 391.411529 663.20536 
L 393.131644 663.158547 
L 394.851759 662.841274 
L 396.571874 662.24854 
L 398.291989 661.377406 
L 400.012104 660.227231 
L 401.732219 658.799927 
L 403.452334 657.100225 
L 405.172449 655.135929 
L 407.465935 652.124952 
L 409.759422 648.699601 
L 412.052908 644.90687 
L 414.919767 639.73817 
L 418.933368 631.947339 
L 428.107314 613.827321 
L 431.547544 607.673828 
L 434.414402 603.040695 
L 436.707889 599.706866 
L 439.001375 596.723783 
L 441.294862 594.095157 
L 443.588348 591.812838 
L 445.881835 589.85891 
L 448.175321 588.208113 
L 450.468808 586.830335 
L 452.762294 585.692971 
L 455.629153 584.559102 
L 458.496011 583.687768 
L 461.936241 582.911444 
L 465.949842 582.277823 
L 470.536815 581.796828 
L 476.270531 581.421487 
L 484.297734 581.128748 
L 495.191795 580.94377 
L 495.191795 580.94377 
" style="fill:none;stroke:#1f77b4;stroke-linecap:square;"/>
   </g>
   <g id="line2d_132">
    <path clip-path="url(#p6c3d568188)" d="M 64.131 580.84 
L 515.7185 580.84 
" style="fill:none;stroke:#808080;stroke-dasharray:5.55,2.4;stroke-dashoffset:0;stroke-width:1.5;"/>
   </g>
   <g id="line2d_133">
    <path clip-path="url(#p6c3d568188)" d="M 321.403847 685 
L 321.403847 575.88 
" style="fill:none;stroke:#808080;stroke-dasharray:5.55,2.4;stroke-dashoffset:0;stroke-width:1.5;"/>
   </g>
   <g id="patch_27">
    <path d="M 64.131 685 
L 64.131 575.88 
" style="fill:none;stroke:#000000;stroke-linecap:square;stroke-linejoin:miter;stroke-width:0.8;"/>
   </g>
   <g id="patch_28">
    <path d="M 515.7185 685 
L 515.7185 575.88 
" style="fill:none;stroke:#000000;stroke-linecap:square;stroke-linejoin:miter;stroke-width:0.8;"/>
   </g>
   <g id="patch_29">
    <path d="M 64.131 685 
L 515.7185 685 
" style="fill:none;stroke:#000000;stroke-linecap:square;stroke-linejoin:miter;stroke-width:0.8;"/>
   </g>
   <g id="patch_30">
    <path d="M 64.131 575.88 
L 515.7185 575.88 
" style="fill:none;stroke:#000000;stroke-linecap:square;stroke-linejoin:miter;stroke-width:0.8;"/>
   </g>
   <g id="legend_5">
    <g id="patch_31">
     <path d="M 447.895063 680 
L 508.7185 680 
Q 510.7185 680 510.7185 678 
L 510.7185 664.321875 
Q 510.7185 662.321875 508.7185 662.321875 
L 447.895063 662.321875 
Q 445.895063 662.321875 445.895063 664.321875 
L 445.895063 678 
Q 445.895063 680 447.895063 680 
z
" style="fill:#ffffff;opacity:0.8;stroke:#cccccc;stroke-linejoin:miter;"/>
    </g>
    <g id="line2d_134">
     <path d="M 449.895063 670.420312 
L 469.895063 670.420312 
" style="fill:none;stroke:#1f77b4;stroke-linecap:square;"/>
    </g>
    <g id="line2d_135"/>
    <g id="text_32">
     <!-- 100 K -->
     <g transform="translate(477.895063 673.920312)scale(0.1 -0.1)">
      <use xlink:href="#DejaVuSans-31"/>
      <use x="63.623047" xlink:href="#DejaVuSans-30"/>
      <use x="127.246094" xlink:href="#DejaVuSans-30"/>
      <use x="190.869141" xlink:href="#DejaVuSans-20"/>
      <use x="222.65625" xlink:href="#DejaVuSans-4b"/>
     </g>
    </g>
   </g>
  </g>
  <g id="text_33">
   <!-- B = 0.00336 cm$^{-1}$ $\Delta B =$ -0.17% ,  $\Delta C =$ -0.17% , $\zeta^{\prime}  = $-0.49, $\sigma = $0.1953cm$^{-1}$  -->
   <g transform="translate(7.2 20.16)scale(0.144 -0.144)">
    <defs>
     <path d="M 1259 2228 
L 1259 519 
L 2272 519 
Q 2781 519 3026 730 
Q 3272 941 3272 1375 
Q 3272 1813 3026 2020 
Q 2781 2228 2272 2228 
L 1259 2228 
z
M 1259 4147 
L 1259 2741 
L 2194 2741 
Q 2656 2741 2882 2914 
Q 3109 3088 3109 3444 
Q 3109 3797 2882 3972 
Q 2656 4147 2194 4147 
L 1259 4147 
z
M 628 4666 
L 2241 4666 
Q 2963 4666 3353 4366 
Q 3744 4066 3744 3513 
Q 3744 3084 3544 2831 
Q 3344 2578 2956 2516 
Q 3422 2416 3680 2098 
Q 3938 1781 3938 1306 
Q 3938 681 3513 340 
Q 3088 0 2303 0 
L 628 0 
L 628 4666 
z
" id="DejaVuSans-42" transform="scale(0.015625)"/>
     <path d="M 678 2906 
L 4684 2906 
L 4684 2381 
L 678 2381 
L 678 2906 
z
M 678 1631 
L 4684 1631 
L 4684 1100 
L 678 1100 
L 678 1631 
z
" id="DejaVuSans-3d" transform="scale(0.015625)"/>
     <path d="M 2113 2584 
Q 1688 2584 1439 2293 
Q 1191 2003 1191 1497 
Q 1191 994 1439 701 
Q 1688 409 2113 409 
Q 2538 409 2786 701 
Q 3034 994 3034 1497 
Q 3034 2003 2786 2293 
Q 2538 2584 2113 2584 
z
M 3366 4563 
L 3366 3988 
Q 3128 4100 2886 4159 
Q 2644 4219 2406 4219 
Q 1781 4219 1451 3797 
Q 1122 3375 1075 2522 
Q 1259 2794 1537 2939 
Q 1816 3084 2150 3084 
Q 2853 3084 3261 2657 
Q 3669 2231 3669 1497 
Q 3669 778 3244 343 
Q 2819 -91 2113 -91 
Q 1303 -91 875 529 
Q 447 1150 447 2328 
Q 447 3434 972 4092 
Q 1497 4750 2381 4750 
Q 2619 4750 2861 4703 
Q 3103 4656 3366 4563 
z
" id="DejaVuSans-36" transform="scale(0.015625)"/>
     <path d="M 2188 4044 
L 906 525 
L 3472 525 
L 2188 4044 
z
M 50 0 
L 1831 4666 
L 2547 4666 
L 4325 0 
L 50 0 
z
" id="DejaVuSans-394" transform="scale(0.015625)"/>
     <path d="M 1081 4666 
L 2694 4666 
Q 3350 4666 3675 4422 
Q 4000 4178 4000 3688 
Q 4000 3238 3720 2911 
Q 3441 2584 2988 2516 
Q 3375 2428 3569 2181 
Q 3763 1934 3763 1522 
Q 3763 819 3242 409 
Q 2722 0 1819 0 
L 172 0 
L 1081 4666 
z
M 1234 2228 
L 903 519 
L 1919 519 
Q 2491 519 2800 781 
Q 3109 1044 3109 1522 
Q 3109 1891 2904 2059 
Q 2700 2228 2247 2228 
L 1234 2228 
z
M 1606 4147 
L 1331 2741 
L 2272 2741 
Q 2775 2741 3058 2959 
Q 3341 3178 3341 3566 
Q 3341 3869 3150 4008 
Q 2959 4147 2541 4147 
L 1606 4147 
z
" id="DejaVuSans-Oblique-42" transform="scale(0.015625)"/>
     <path d="M 313 2009 
L 1997 2009 
L 1997 1497 
L 313 1497 
L 313 2009 
z
" id="DejaVuSans-2d" transform="scale(0.015625)"/>
     <path d="M 4653 2053 
Q 4381 2053 4226 1822 
Q 4072 1591 4072 1178 
Q 4072 772 4226 539 
Q 4381 306 4653 306 
Q 4919 306 5073 539 
Q 5228 772 5228 1178 
Q 5228 1588 5073 1820 
Q 4919 2053 4653 2053 
z
M 4653 2450 
Q 5147 2450 5437 2106 
Q 5728 1763 5728 1178 
Q 5728 594 5436 251 
Q 5144 -91 4653 -91 
Q 4153 -91 3862 251 
Q 3572 594 3572 1178 
Q 3572 1766 3864 2108 
Q 4156 2450 4653 2450 
z
M 1428 4353 
Q 1159 4353 1004 4120 
Q 850 3888 850 3481 
Q 850 3069 1003 2837 
Q 1156 2606 1428 2606 
Q 1700 2606 1854 2837 
Q 2009 3069 2009 3481 
Q 2009 3884 1853 4118 
Q 1697 4353 1428 4353 
z
M 4250 4750 
L 4750 4750 
L 1831 -91 
L 1331 -91 
L 4250 4750 
z
M 1428 4750 
Q 1922 4750 2215 4408 
Q 2509 4066 2509 3481 
Q 2509 2891 2217 2550 
Q 1925 2209 1428 2209 
Q 931 2209 642 2551 
Q 353 2894 353 3481 
Q 353 4063 643 4406 
Q 934 4750 1428 4750 
z
" id="DejaVuSans-25" transform="scale(0.015625)"/>
     <path d="M 750 794 
L 1409 794 
L 1409 256 
L 897 -744 
L 494 -744 
L 750 256 
L 750 794 
z
" id="DejaVuSans-2c" transform="scale(0.015625)"/>
     <path d="M 4447 4306 
L 4319 3641 
Q 4019 3944 3683 4091 
Q 3347 4238 2956 4238 
Q 2422 4238 2017 3981 
Q 1613 3725 1319 3200 
Q 1131 2863 1032 2486 
Q 934 2109 934 1728 
Q 934 1091 1264 756 
Q 1594 422 2222 422 
Q 2656 422 3056 561 
Q 3456 700 3834 978 
L 3688 231 
Q 3316 72 2936 -9 
Q 2556 -91 2175 -91 
Q 1278 -91 773 396 
Q 269 884 269 1753 
Q 269 2309 461 2846 
Q 653 3384 1013 3828 
Q 1394 4300 1883 4525 
Q 2372 4750 3022 4750 
Q 3422 4750 3780 4639 
Q 4138 4528 4447 4306 
z
" id="DejaVuSans-Oblique-43" transform="scale(0.015625)"/>
     <path d="M 1966 397 
Q 2378 394 2578 159 
Q 2794 -88 2722 -463 
Q 2650 -822 2372 -1072 
Q 2069 -1344 1559 -1344 
Q 1606 -1109 1650 -872 
Q 1863 -888 2022 -750 
Q 2144 -641 2166 -525 
Q 2197 -359 2125 -222 
Q 2050 -91 1872 -91 
Q -22 -91 316 1669 
Q 616 3206 2609 4284 
L 947 4284 
L 1059 4863 
L 3778 4863 
L 3666 4284 
Q 1181 3147 894 1669 
Q 647 397 1966 397 
z
" id="DejaVuSans-Oblique-3b6" transform="scale(0.015625)"/>
     <path d="M 225 347 
Q 184 359 184 409 
L 966 3316 
Q 1003 3434 1093 3506 
Q 1184 3578 1300 3578 
Q 1450 3578 1564 3479 
Q 1678 3381 1678 3231 
Q 1678 3166 1644 3084 
L 488 319 
Q 466 275 428 275 
Q 394 275 320 306 
Q 247 338 225 347 
z
" id="Cmsy10-30" transform="scale(0.015625)"/>
     <path d="M 2419 4116 
L 825 1625 
L 2419 1625 
L 2419 4116 
z
M 2253 4666 
L 3047 4666 
L 3047 1625 
L 3713 1625 
L 3713 1100 
L 3047 1100 
L 3047 0 
L 2419 0 
L 2419 1100 
L 313 1100 
L 313 1709 
L 2253 4666 
z
" id="DejaVuSans-34" transform="scale(0.015625)"/>
     <path d="M 2219 3044 
Q 1744 3044 1422 2700 
Q 1081 2341 969 1747 
Q 844 1119 1044 756 
Q 1241 397 1706 397 
Q 2166 397 2503 759 
Q 2844 1122 2966 1747 
Q 3075 2319 2881 2700 
Q 2700 3044 2219 3044 
z
M 2309 3503 
L 4219 3500 
L 4106 2925 
L 3463 2925 
Q 3706 2438 3575 1747 
Q 3406 888 2884 400 
Q 2359 -91 1609 -91 
Q 856 -91 525 400 
Q 194 888 363 1747 
Q 528 2609 1050 3097 
Q 1484 3503 2309 3503 
z
" id="DejaVuSans-Oblique-3c3" transform="scale(0.015625)"/>
    </defs>
    <use transform="translate(0 0.684375)" xlink:href="#DejaVuSans-42"/>
    <use transform="translate(68.603516 0.684375)" xlink:href="#DejaVuSans-20"/>
    <use transform="translate(100.390625 0.684375)" xlink:href="#DejaVuSans-3d"/>
    <use transform="translate(184.179688 0.684375)" xlink:href="#DejaVuSans-20"/>
    <use transform="translate(215.966797 0.684375)" xlink:href="#DejaVuSans-30"/>
    <use transform="translate(279.589844 0.684375)" xlink:href="#DejaVuSans-2e"/>
    <use transform="translate(311.376953 0.684375)" xlink:href="#DejaVuSans-30"/>
    <use transform="translate(375 0.684375)" xlink:href="#DejaVuSans-30"/>
    <use transform="translate(438.623047 0.684375)" xlink:href="#DejaVuSans-33"/>
    <use transform="translate(502.246094 0.684375)" xlink:href="#DejaVuSans-33"/>
    <use transform="translate(565.869141 0.684375)" xlink:href="#DejaVuSans-36"/>
    <use transform="translate(629.492188 0.684375)" xlink:href="#DejaVuSans-20"/>
    <use transform="translate(661.279297 0.684375)" xlink:href="#DejaVuSans-63"/>
    <use transform="translate(716.259766 0.684375)" xlink:href="#DejaVuSans-6d"/>
    <use transform="translate(814.628906 38.965625)scale(0.7)" xlink:href="#DejaVuSans-2212"/>
    <use transform="translate(873.28125 38.965625)scale(0.7)" xlink:href="#DejaVuSans-31"/>
    <use transform="translate(920.551758 0.684375)" xlink:href="#DejaVuSans-20"/>
    <use transform="translate(952.338867 0.684375)" xlink:href="#DejaVuSans-394"/>
    <use transform="translate(1020.74707 0.684375)" xlink:href="#DejaVuSans-Oblique-42"/>
    <use transform="translate(1108.833008 0.684375)" xlink:href="#DejaVuSans-3d"/>
    <use transform="translate(1212.104492 0.684375)" xlink:href="#DejaVuSans-20"/>
    <use transform="translate(1243.891602 0.684375)" xlink:href="#DejaVuSans-2d"/>
    <use transform="translate(1279.975586 0.684375)" xlink:href="#DejaVuSans-30"/>
    <use transform="translate(1343.598633 0.684375)" xlink:href="#DejaVuSans-2e"/>
    <use transform="translate(1375.385742 0.684375)" xlink:href="#DejaVuSans-31"/>
    <use transform="translate(1439.008789 0.684375)" xlink:href="#DejaVuSans-37"/>
    <use transform="translate(1502.631836 0.684375)" xlink:href="#DejaVuSans-25"/>
    <use transform="translate(1597.651367 0.684375)" xlink:href="#DejaVuSans-20"/>
    <use transform="translate(1629.438477 0.684375)" xlink:href="#DejaVuSans-2c"/>
    <use transform="translate(1661.225586 0.684375)" xlink:href="#DejaVuSans-20"/>
    <use transform="translate(1693.012695 0.684375)" xlink:href="#DejaVuSans-20"/>
    <use transform="translate(1724.799805 0.684375)" xlink:href="#DejaVuSans-394"/>
    <use transform="translate(1793.208008 0.684375)" xlink:href="#DejaVuSans-Oblique-43"/>
    <use transform="translate(1882.514648 0.684375)" xlink:href="#DejaVuSans-3d"/>
    <use transform="translate(1985.786133 0.684375)" xlink:href="#DejaVuSans-20"/>
    <use transform="translate(2017.573242 0.684375)" xlink:href="#DejaVuSans-2d"/>
    <use transform="translate(2053.657227 0.684375)" xlink:href="#DejaVuSans-30"/>
    <use transform="translate(2117.280273 0.684375)" xlink:href="#DejaVuSans-2e"/>
    <use transform="translate(2149.067383 0.684375)" xlink:href="#DejaVuSans-31"/>
    <use transform="translate(2212.69043 0.684375)" xlink:href="#DejaVuSans-37"/>
    <use transform="translate(2276.313477 0.684375)" xlink:href="#DejaVuSans-25"/>
    <use transform="translate(2371.333008 0.684375)" xlink:href="#DejaVuSans-20"/>
    <use transform="translate(2403.120117 0.684375)" xlink:href="#DejaVuSans-2c"/>
    <use transform="translate(2434.907227 0.684375)" xlink:href="#DejaVuSans-20"/>
    <use transform="translate(2466.694336 0.684375)" xlink:href="#DejaVuSans-Oblique-3b6"/>
    <use transform="translate(2528.536576 38.965625)scale(0.7)" xlink:href="#Cmsy10-30"/>
    <use transform="translate(2569.996536 0.684375)" xlink:href="#DejaVuSans-3d"/>
    <use transform="translate(2673.268021 0.684375)" xlink:href="#DejaVuSans-2d"/>
    <use transform="translate(2709.352005 0.684375)" xlink:href="#DejaVuSans-30"/>
    <use transform="translate(2772.975052 0.684375)" xlink:href="#DejaVuSans-2e"/>
    <use transform="translate(2804.762161 0.684375)" xlink:href="#DejaVuSans-34"/>
    <use transform="translate(2868.385208 0.684375)" xlink:href="#DejaVuSans-39"/>
    <use transform="translate(2932.008255 0.684375)" xlink:href="#DejaVuSans-2c"/>
    <use transform="translate(2963.795365 0.684375)" xlink:href="#DejaVuSans-20"/>
    <use transform="translate(2995.582474 0.684375)" xlink:href="#DejaVuSans-Oblique-3c3"/>
    <use transform="translate(3078.443802 0.684375)" xlink:href="#DejaVuSans-3d"/>
    <use transform="translate(3181.715286 0.684375)" xlink:href="#DejaVuSans-30"/>
    <use transform="translate(3245.338333 0.684375)" xlink:href="#DejaVuSans-2e"/>
    <use transform="translate(3277.125443 0.684375)" xlink:href="#DejaVuSans-31"/>
    <use transform="translate(3340.74849 0.684375)" xlink:href="#DejaVuSans-39"/>
    <use transform="translate(3404.371536 0.684375)" xlink:href="#DejaVuSans-35"/>
    <use transform="translate(3467.994583 0.684375)" xlink:href="#DejaVuSans-33"/>
    <use transform="translate(3531.61763 0.684375)" xlink:href="#DejaVuSans-63"/>
    <use transform="translate(3586.598099 0.684375)" xlink:href="#DejaVuSans-6d"/>
    <use transform="translate(3684.96724 38.965625)scale(0.7)" xlink:href="#DejaVuSans-2212"/>
    <use transform="translate(3743.619583 38.965625)scale(0.7)" xlink:href="#DejaVuSans-31"/>
    <use transform="translate(3790.890091 0.684375)" xlink:href="#DejaVuSans-20"/>
   </g>
   <!--  -->
   <g transform="translate(282.456 36.3141)scale(0.144 -0.144)"/>
  </g>
 </g>
 <defs>
  <clipPath id="p6ff7c3bc84">
   <rect height="109.12" width="451.5875" x="64.131" y="56.2"/>
  </clipPath>
  <clipPath id="p0524c640f2">
   <rect height="109.12" width="451.5875" x="64.131" y="186.12"/>
  </clipPath>
  <clipPath id="p27f8f364ad">
   <rect height="109.12" width="451.5875" x="64.131" y="316.04"/>
  </clipPath>
  <clipPath id="p22b581b936">
   <rect height="109.12" width="451.5875" x="64.131" y="445.96"/>
  </clipPath>
  <clipPath id="p6c3d568188">
   <rect height="109.12" width="451.5875" x="64.131" y="575.88"/>
  </clipPath>
 </defs>
</svg>
