<?xml version="1.0" encoding="utf-8" standalone="no"?>
<!DOCTYPE svg PUBLIC "-//W3C//DTD SVG 1.1//EN"
  "http://www.w3.org/Graphics/SVG/1.1/DTD/svg11.dtd">
<svg height="508.577656pt" version="1.1" viewBox="0 0 910.315625 508.577656" width="910.315625pt" xmlns="http://www.w3.org/2000/svg" xmlns:xlink="http://www.w3.org/1999/xlink">
 <metadata>
  <rdf:RDF xmlns:cc="http://creativecommons.org/ns#" xmlns:dc="http://purl.org/dc/elements/1.1/" xmlns:rdf="http://www.w3.org/1999/02/22-rdf-syntax-ns#">
   <cc:Work>
    <dc:type rdf:resource="http://purl.org/dc/dcmitype/StillImage"/>
    <dc:date>2022-12-15T10:09:28.095429</dc:date>
    <dc:format>image/svg+xml</dc:format>
    <dc:creator>
     <cc:Agent>
      <dc:title>Matplotlib v3.4.3, https://matplotlib.org/</dc:title>
     </cc:Agent>
    </dc:creator>
   </cc:Work>
  </rdf:RDF>
 </metadata>
 <defs>
  <style type="text/css">*{stroke-linecap:butt;stroke-linejoin:round;}</style>
 </defs>
 <g id="figure_1">
  <g id="patch_1">
   <path d="M 0 508.577656 
L 910.315625 508.577656 
L 910.315625 0 
L 0 0 
z
" style="fill:#ffffff;"/>
  </g>
  <g id="axes_1">
   <g id="patch_2">
    <path d="M 66.115625 460.260469 
L 903.115625 460.260469 
L 903.115625 25.380469 
L 66.115625 25.380469 
z
" style="fill:#ffffff;"/>
   </g>
   <g id="matplotlib.axis_1">
    <g id="xtick_1">
     <g id="line2d_1">
      <defs>
       <path d="M 0 0 
L 0 3.5 
" id="m738b765710" style="stroke:#000000;stroke-width:0.8;"/>
      </defs>
      <g>
       <use style="stroke:#000000;stroke-width:0.8;" x="112.418912" xlink:href="#m738b765710" y="460.260469"/>
      </g>
     </g>
     <g id="text_1">
      <!-- −3 -->
      <g transform="translate(101.362271 478.658125)scale(0.15 -0.15)">
       <defs>
        <path d="M 678 2272 
L 4684 2272 
L 4684 1741 
L 678 1741 
L 678 2272 
z
" id="DejaVuSans-2212" transform="scale(0.015625)"/>
        <path d="M 2597 2516 
Q 3050 2419 3304 2112 
Q 3559 1806 3559 1356 
Q 3559 666 3084 287 
Q 2609 -91 1734 -91 
Q 1441 -91 1130 -33 
Q 819 25 488 141 
L 488 750 
Q 750 597 1062 519 
Q 1375 441 1716 441 
Q 2309 441 2620 675 
Q 2931 909 2931 1356 
Q 2931 1769 2642 2001 
Q 2353 2234 1838 2234 
L 1294 2234 
L 1294 2753 
L 1863 2753 
Q 2328 2753 2575 2939 
Q 2822 3125 2822 3475 
Q 2822 3834 2567 4026 
Q 2313 4219 1838 4219 
Q 1578 4219 1281 4162 
Q 984 4106 628 3988 
L 628 4550 
Q 988 4650 1302 4700 
Q 1616 4750 1894 4750 
Q 2613 4750 3031 4423 
Q 3450 4097 3450 3541 
Q 3450 3153 3228 2886 
Q 3006 2619 2597 2516 
z
" id="DejaVuSans-33" transform="scale(0.015625)"/>
       </defs>
       <use xlink:href="#DejaVuSans-2212"/>
       <use x="83.789062" xlink:href="#DejaVuSans-33"/>
      </g>
     </g>
    </g>
    <g id="xtick_2">
     <g id="line2d_2">
      <g>
       <use style="stroke:#000000;stroke-width:0.8;" x="252.628653" xlink:href="#m738b765710" y="460.260469"/>
      </g>
     </g>
     <g id="text_2">
      <!-- −2 -->
      <g transform="translate(241.572012 478.658125)scale(0.15 -0.15)">
       <defs>
        <path d="M 1228 531 
L 3431 531 
L 3431 0 
L 469 0 
L 469 531 
Q 828 903 1448 1529 
Q 2069 2156 2228 2338 
Q 2531 2678 2651 2914 
Q 2772 3150 2772 3378 
Q 2772 3750 2511 3984 
Q 2250 4219 1831 4219 
Q 1534 4219 1204 4116 
Q 875 4013 500 3803 
L 500 4441 
Q 881 4594 1212 4672 
Q 1544 4750 1819 4750 
Q 2544 4750 2975 4387 
Q 3406 4025 3406 3419 
Q 3406 3131 3298 2873 
Q 3191 2616 2906 2266 
Q 2828 2175 2409 1742 
Q 1991 1309 1228 531 
z
" id="DejaVuSans-32" transform="scale(0.015625)"/>
       </defs>
       <use xlink:href="#DejaVuSans-2212"/>
       <use x="83.789062" xlink:href="#DejaVuSans-32"/>
      </g>
     </g>
    </g>
    <g id="xtick_3">
     <g id="line2d_3">
      <g>
       <use style="stroke:#000000;stroke-width:0.8;" x="392.838393" xlink:href="#m738b765710" y="460.260469"/>
      </g>
     </g>
     <g id="text_3">
      <!-- −1 -->
      <g transform="translate(381.781753 478.658125)scale(0.15 -0.15)">
       <defs>
        <path d="M 794 531 
L 1825 531 
L 1825 4091 
L 703 3866 
L 703 4441 
L 1819 4666 
L 2450 4666 
L 2450 531 
L 3481 531 
L 3481 0 
L 794 0 
L 794 531 
z
" id="DejaVuSans-31" transform="scale(0.015625)"/>
       </defs>
       <use xlink:href="#DejaVuSans-2212"/>
       <use x="83.789062" xlink:href="#DejaVuSans-31"/>
      </g>
     </g>
    </g>
    <g id="xtick_4">
     <g id="line2d_4">
      <g>
       <use style="stroke:#000000;stroke-width:0.8;" x="533.048134" xlink:href="#m738b765710" y="460.260469"/>
      </g>
     </g>
     <g id="text_4">
      <!-- 0 -->
      <g transform="translate(528.276259 478.658125)scale(0.15 -0.15)">
       <defs>
        <path d="M 2034 4250 
Q 1547 4250 1301 3770 
Q 1056 3291 1056 2328 
Q 1056 1369 1301 889 
Q 1547 409 2034 409 
Q 2525 409 2770 889 
Q 3016 1369 3016 2328 
Q 3016 3291 2770 3770 
Q 2525 4250 2034 4250 
z
M 2034 4750 
Q 2819 4750 3233 4129 
Q 3647 3509 3647 2328 
Q 3647 1150 3233 529 
Q 2819 -91 2034 -91 
Q 1250 -91 836 529 
Q 422 1150 422 2328 
Q 422 3509 836 4129 
Q 1250 4750 2034 4750 
z
" id="DejaVuSans-30" transform="scale(0.015625)"/>
       </defs>
       <use xlink:href="#DejaVuSans-30"/>
      </g>
     </g>
    </g>
    <g id="xtick_5">
     <g id="line2d_5">
      <g>
       <use style="stroke:#000000;stroke-width:0.8;" x="673.257875" xlink:href="#m738b765710" y="460.260469"/>
      </g>
     </g>
     <g id="text_5">
      <!-- 1 -->
      <g transform="translate(668.486 478.658125)scale(0.15 -0.15)">
       <use xlink:href="#DejaVuSans-31"/>
      </g>
     </g>
    </g>
    <g id="xtick_6">
     <g id="line2d_6">
      <g>
       <use style="stroke:#000000;stroke-width:0.8;" x="813.467615" xlink:href="#m738b765710" y="460.260469"/>
      </g>
     </g>
     <g id="text_6">
      <!-- 2 -->
      <g transform="translate(808.69574 478.658125)scale(0.15 -0.15)">
       <use xlink:href="#DejaVuSans-32"/>
      </g>
     </g>
    </g>
    <g id="xtick_7">
     <g id="line2d_7">
      <defs>
       <path d="M 0 0 
L 0 2 
" id="m881f7ca40f" style="stroke:#000000;stroke-width:0.6;"/>
      </defs>
      <g>
       <use style="stroke:#000000;stroke-width:0.6;" x="182.523782" xlink:href="#m881f7ca40f" y="460.260469"/>
      </g>
     </g>
    </g>
    <g id="xtick_8">
     <g id="line2d_8">
      <g>
       <use style="stroke:#000000;stroke-width:0.6;" x="322.733523" xlink:href="#m881f7ca40f" y="460.260469"/>
      </g>
     </g>
    </g>
    <g id="xtick_9">
     <g id="line2d_9">
      <g>
       <use style="stroke:#000000;stroke-width:0.6;" x="462.943264" xlink:href="#m881f7ca40f" y="460.260469"/>
      </g>
     </g>
    </g>
    <g id="xtick_10">
     <g id="line2d_10">
      <g>
       <use style="stroke:#000000;stroke-width:0.6;" x="603.153004" xlink:href="#m881f7ca40f" y="460.260469"/>
      </g>
     </g>
    </g>
    <g id="xtick_11">
     <g id="line2d_11">
      <g>
       <use style="stroke:#000000;stroke-width:0.6;" x="743.362745" xlink:href="#m881f7ca40f" y="460.260469"/>
      </g>
     </g>
    </g>
    <g id="xtick_12">
     <g id="line2d_12">
      <g>
       <use style="stroke:#000000;stroke-width:0.6;" x="883.572486" xlink:href="#m881f7ca40f" y="460.260469"/>
      </g>
     </g>
    </g>
    <g id="text_7">
     <!-- Wavenumber (in cm$^{-1}$) -->
     <g transform="translate(397.315625 498.258125)scale(0.15 -0.15)">
      <defs>
       <path d="M 213 4666 
L 850 4666 
L 1831 722 
L 2809 4666 
L 3519 4666 
L 4500 722 
L 5478 4666 
L 6119 4666 
L 4947 0 
L 4153 0 
L 3169 4050 
L 2175 0 
L 1381 0 
L 213 4666 
z
" id="DejaVuSans-57" transform="scale(0.015625)"/>
       <path d="M 2194 1759 
Q 1497 1759 1228 1600 
Q 959 1441 959 1056 
Q 959 750 1161 570 
Q 1363 391 1709 391 
Q 2188 391 2477 730 
Q 2766 1069 2766 1631 
L 2766 1759 
L 2194 1759 
z
M 3341 1997 
L 3341 0 
L 2766 0 
L 2766 531 
Q 2569 213 2275 61 
Q 1981 -91 1556 -91 
Q 1019 -91 701 211 
Q 384 513 384 1019 
Q 384 1609 779 1909 
Q 1175 2209 1959 2209 
L 2766 2209 
L 2766 2266 
Q 2766 2663 2505 2880 
Q 2244 3097 1772 3097 
Q 1472 3097 1187 3025 
Q 903 2953 641 2809 
L 641 3341 
Q 956 3463 1253 3523 
Q 1550 3584 1831 3584 
Q 2591 3584 2966 3190 
Q 3341 2797 3341 1997 
z
" id="DejaVuSans-61" transform="scale(0.015625)"/>
       <path d="M 191 3500 
L 800 3500 
L 1894 563 
L 2988 3500 
L 3597 3500 
L 2284 0 
L 1503 0 
L 191 3500 
z
" id="DejaVuSans-76" transform="scale(0.015625)"/>
       <path d="M 3597 1894 
L 3597 1613 
L 953 1613 
Q 991 1019 1311 708 
Q 1631 397 2203 397 
Q 2534 397 2845 478 
Q 3156 559 3463 722 
L 3463 178 
Q 3153 47 2828 -22 
Q 2503 -91 2169 -91 
Q 1331 -91 842 396 
Q 353 884 353 1716 
Q 353 2575 817 3079 
Q 1281 3584 2069 3584 
Q 2775 3584 3186 3129 
Q 3597 2675 3597 1894 
z
M 3022 2063 
Q 3016 2534 2758 2815 
Q 2500 3097 2075 3097 
Q 1594 3097 1305 2825 
Q 1016 2553 972 2059 
L 3022 2063 
z
" id="DejaVuSans-65" transform="scale(0.015625)"/>
       <path d="M 3513 2113 
L 3513 0 
L 2938 0 
L 2938 2094 
Q 2938 2591 2744 2837 
Q 2550 3084 2163 3084 
Q 1697 3084 1428 2787 
Q 1159 2491 1159 1978 
L 1159 0 
L 581 0 
L 581 3500 
L 1159 3500 
L 1159 2956 
Q 1366 3272 1645 3428 
Q 1925 3584 2291 3584 
Q 2894 3584 3203 3211 
Q 3513 2838 3513 2113 
z
" id="DejaVuSans-6e" transform="scale(0.015625)"/>
       <path d="M 544 1381 
L 544 3500 
L 1119 3500 
L 1119 1403 
Q 1119 906 1312 657 
Q 1506 409 1894 409 
Q 2359 409 2629 706 
Q 2900 1003 2900 1516 
L 2900 3500 
L 3475 3500 
L 3475 0 
L 2900 0 
L 2900 538 
Q 2691 219 2414 64 
Q 2138 -91 1772 -91 
Q 1169 -91 856 284 
Q 544 659 544 1381 
z
M 1991 3584 
L 1991 3584 
z
" id="DejaVuSans-75" transform="scale(0.015625)"/>
       <path d="M 3328 2828 
Q 3544 3216 3844 3400 
Q 4144 3584 4550 3584 
Q 5097 3584 5394 3201 
Q 5691 2819 5691 2113 
L 5691 0 
L 5113 0 
L 5113 2094 
Q 5113 2597 4934 2840 
Q 4756 3084 4391 3084 
Q 3944 3084 3684 2787 
Q 3425 2491 3425 1978 
L 3425 0 
L 2847 0 
L 2847 2094 
Q 2847 2600 2669 2842 
Q 2491 3084 2119 3084 
Q 1678 3084 1418 2786 
Q 1159 2488 1159 1978 
L 1159 0 
L 581 0 
L 581 3500 
L 1159 3500 
L 1159 2956 
Q 1356 3278 1631 3431 
Q 1906 3584 2284 3584 
Q 2666 3584 2933 3390 
Q 3200 3197 3328 2828 
z
" id="DejaVuSans-6d" transform="scale(0.015625)"/>
       <path d="M 3116 1747 
Q 3116 2381 2855 2742 
Q 2594 3103 2138 3103 
Q 1681 3103 1420 2742 
Q 1159 2381 1159 1747 
Q 1159 1113 1420 752 
Q 1681 391 2138 391 
Q 2594 391 2855 752 
Q 3116 1113 3116 1747 
z
M 1159 2969 
Q 1341 3281 1617 3432 
Q 1894 3584 2278 3584 
Q 2916 3584 3314 3078 
Q 3713 2572 3713 1747 
Q 3713 922 3314 415 
Q 2916 -91 2278 -91 
Q 1894 -91 1617 61 
Q 1341 213 1159 525 
L 1159 0 
L 581 0 
L 581 4863 
L 1159 4863 
L 1159 2969 
z
" id="DejaVuSans-62" transform="scale(0.015625)"/>
       <path d="M 2631 2963 
Q 2534 3019 2420 3045 
Q 2306 3072 2169 3072 
Q 1681 3072 1420 2755 
Q 1159 2438 1159 1844 
L 1159 0 
L 581 0 
L 581 3500 
L 1159 3500 
L 1159 2956 
Q 1341 3275 1631 3429 
Q 1922 3584 2338 3584 
Q 2397 3584 2469 3576 
Q 2541 3569 2628 3553 
L 2631 2963 
z
" id="DejaVuSans-72" transform="scale(0.015625)"/>
       <path id="DejaVuSans-20" transform="scale(0.015625)"/>
       <path d="M 1984 4856 
Q 1566 4138 1362 3434 
Q 1159 2731 1159 2009 
Q 1159 1288 1364 580 
Q 1569 -128 1984 -844 
L 1484 -844 
Q 1016 -109 783 600 
Q 550 1309 550 2009 
Q 550 2706 781 3412 
Q 1013 4119 1484 4856 
L 1984 4856 
z
" id="DejaVuSans-28" transform="scale(0.015625)"/>
       <path d="M 603 3500 
L 1178 3500 
L 1178 0 
L 603 0 
L 603 3500 
z
M 603 4863 
L 1178 4863 
L 1178 4134 
L 603 4134 
L 603 4863 
z
" id="DejaVuSans-69" transform="scale(0.015625)"/>
       <path d="M 3122 3366 
L 3122 2828 
Q 2878 2963 2633 3030 
Q 2388 3097 2138 3097 
Q 1578 3097 1268 2742 
Q 959 2388 959 1747 
Q 959 1106 1268 751 
Q 1578 397 2138 397 
Q 2388 397 2633 464 
Q 2878 531 3122 666 
L 3122 134 
Q 2881 22 2623 -34 
Q 2366 -91 2075 -91 
Q 1284 -91 818 406 
Q 353 903 353 1747 
Q 353 2603 823 3093 
Q 1294 3584 2113 3584 
Q 2378 3584 2631 3529 
Q 2884 3475 3122 3366 
z
" id="DejaVuSans-63" transform="scale(0.015625)"/>
       <path d="M 513 4856 
L 1013 4856 
Q 1481 4119 1714 3412 
Q 1947 2706 1947 2009 
Q 1947 1309 1714 600 
Q 1481 -109 1013 -844 
L 513 -844 
Q 928 -128 1133 580 
Q 1338 1288 1338 2009 
Q 1338 2731 1133 3434 
Q 928 4138 513 4856 
z
" id="DejaVuSans-29" transform="scale(0.015625)"/>
      </defs>
      <use transform="translate(0 0.684375)" xlink:href="#DejaVuSans-57"/>
      <use transform="translate(98.876953 0.684375)" xlink:href="#DejaVuSans-61"/>
      <use transform="translate(160.15625 0.684375)" xlink:href="#DejaVuSans-76"/>
      <use transform="translate(219.335938 0.684375)" xlink:href="#DejaVuSans-65"/>
      <use transform="translate(280.859375 0.684375)" xlink:href="#DejaVuSans-6e"/>
      <use transform="translate(344.238281 0.684375)" xlink:href="#DejaVuSans-75"/>
      <use transform="translate(407.617188 0.684375)" xlink:href="#DejaVuSans-6d"/>
      <use transform="translate(505.029297 0.684375)" xlink:href="#DejaVuSans-62"/>
      <use transform="translate(568.505859 0.684375)" xlink:href="#DejaVuSans-65"/>
      <use transform="translate(630.029297 0.684375)" xlink:href="#DejaVuSans-72"/>
      <use transform="translate(671.142578 0.684375)" xlink:href="#DejaVuSans-20"/>
      <use transform="translate(702.929688 0.684375)" xlink:href="#DejaVuSans-28"/>
      <use transform="translate(741.943359 0.684375)" xlink:href="#DejaVuSans-69"/>
      <use transform="translate(769.726562 0.684375)" xlink:href="#DejaVuSans-6e"/>
      <use transform="translate(833.105469 0.684375)" xlink:href="#DejaVuSans-20"/>
      <use transform="translate(864.892578 0.684375)" xlink:href="#DejaVuSans-63"/>
      <use transform="translate(919.873047 0.684375)" xlink:href="#DejaVuSans-6d"/>
      <use transform="translate(1018.242188 38.965625)scale(0.7)" xlink:href="#DejaVuSans-2212"/>
      <use transform="translate(1076.894531 38.965625)scale(0.7)" xlink:href="#DejaVuSans-31"/>
      <use transform="translate(1124.165039 0.684375)" xlink:href="#DejaVuSans-29"/>
     </g>
    </g>
   </g>
   <g id="matplotlib.axis_2">
    <g id="ytick_1">
     <g id="line2d_13">
      <defs>
       <path d="M 0 0 
L -3.5 0 
" id="mbae1f0c226" style="stroke:#000000;stroke-width:0.8;"/>
      </defs>
      <g>
       <use style="stroke:#000000;stroke-width:0.8;" x="66.115625" xlink:href="#mbae1f0c226" y="440.493196"/>
      </g>
     </g>
     <g id="text_8">
      <!-- 0.90 -->
      <g transform="translate(25.717188 446.192024)scale(0.15 -0.15)">
       <defs>
        <path d="M 684 794 
L 1344 794 
L 1344 0 
L 684 0 
L 684 794 
z
" id="DejaVuSans-2e" transform="scale(0.015625)"/>
        <path d="M 703 97 
L 703 672 
Q 941 559 1184 500 
Q 1428 441 1663 441 
Q 2288 441 2617 861 
Q 2947 1281 2994 2138 
Q 2813 1869 2534 1725 
Q 2256 1581 1919 1581 
Q 1219 1581 811 2004 
Q 403 2428 403 3163 
Q 403 3881 828 4315 
Q 1253 4750 1959 4750 
Q 2769 4750 3195 4129 
Q 3622 3509 3622 2328 
Q 3622 1225 3098 567 
Q 2575 -91 1691 -91 
Q 1453 -91 1209 -44 
Q 966 3 703 97 
z
M 1959 2075 
Q 2384 2075 2632 2365 
Q 2881 2656 2881 3163 
Q 2881 3666 2632 3958 
Q 2384 4250 1959 4250 
Q 1534 4250 1286 3958 
Q 1038 3666 1038 3163 
Q 1038 2656 1286 2365 
Q 1534 2075 1959 2075 
z
" id="DejaVuSans-39" transform="scale(0.015625)"/>
       </defs>
       <use xlink:href="#DejaVuSans-30"/>
       <use x="63.623047" xlink:href="#DejaVuSans-2e"/>
       <use x="95.410156" xlink:href="#DejaVuSans-39"/>
       <use x="159.033203" xlink:href="#DejaVuSans-30"/>
      </g>
     </g>
    </g>
    <g id="ytick_2">
     <g id="line2d_14">
      <g>
       <use style="stroke:#000000;stroke-width:0.8;" x="66.115625" xlink:href="#mbae1f0c226" y="361.416149"/>
      </g>
     </g>
     <g id="text_9">
      <!-- 0.92 -->
      <g transform="translate(25.717188 367.114977)scale(0.15 -0.15)">
       <use xlink:href="#DejaVuSans-30"/>
       <use x="63.623047" xlink:href="#DejaVuSans-2e"/>
       <use x="95.410156" xlink:href="#DejaVuSans-39"/>
       <use x="159.033203" xlink:href="#DejaVuSans-32"/>
      </g>
     </g>
    </g>
    <g id="ytick_3">
     <g id="line2d_15">
      <g>
       <use style="stroke:#000000;stroke-width:0.8;" x="66.115625" xlink:href="#mbae1f0c226" y="282.339101"/>
      </g>
     </g>
     <g id="text_10">
      <!-- 0.94 -->
      <g transform="translate(25.717188 288.03793)scale(0.15 -0.15)">
       <defs>
        <path d="M 2419 4116 
L 825 1625 
L 2419 1625 
L 2419 4116 
z
M 2253 4666 
L 3047 4666 
L 3047 1625 
L 3713 1625 
L 3713 1100 
L 3047 1100 
L 3047 0 
L 2419 0 
L 2419 1100 
L 313 1100 
L 313 1709 
L 2253 4666 
z
" id="DejaVuSans-34" transform="scale(0.015625)"/>
       </defs>
       <use xlink:href="#DejaVuSans-30"/>
       <use x="63.623047" xlink:href="#DejaVuSans-2e"/>
       <use x="95.410156" xlink:href="#DejaVuSans-39"/>
       <use x="159.033203" xlink:href="#DejaVuSans-34"/>
      </g>
     </g>
    </g>
    <g id="ytick_4">
     <g id="line2d_16">
      <g>
       <use style="stroke:#000000;stroke-width:0.8;" x="66.115625" xlink:href="#mbae1f0c226" y="203.262054"/>
      </g>
     </g>
     <g id="text_11">
      <!-- 0.96 -->
      <g transform="translate(25.717188 208.960882)scale(0.15 -0.15)">
       <defs>
        <path d="M 2113 2584 
Q 1688 2584 1439 2293 
Q 1191 2003 1191 1497 
Q 1191 994 1439 701 
Q 1688 409 2113 409 
Q 2538 409 2786 701 
Q 3034 994 3034 1497 
Q 3034 2003 2786 2293 
Q 2538 2584 2113 2584 
z
M 3366 4563 
L 3366 3988 
Q 3128 4100 2886 4159 
Q 2644 4219 2406 4219 
Q 1781 4219 1451 3797 
Q 1122 3375 1075 2522 
Q 1259 2794 1537 2939 
Q 1816 3084 2150 3084 
Q 2853 3084 3261 2657 
Q 3669 2231 3669 1497 
Q 3669 778 3244 343 
Q 2819 -91 2113 -91 
Q 1303 -91 875 529 
Q 447 1150 447 2328 
Q 447 3434 972 4092 
Q 1497 4750 2381 4750 
Q 2619 4750 2861 4703 
Q 3103 4656 3366 4563 
z
" id="DejaVuSans-36" transform="scale(0.015625)"/>
       </defs>
       <use xlink:href="#DejaVuSans-30"/>
       <use x="63.623047" xlink:href="#DejaVuSans-2e"/>
       <use x="95.410156" xlink:href="#DejaVuSans-39"/>
       <use x="159.033203" xlink:href="#DejaVuSans-36"/>
      </g>
     </g>
    </g>
    <g id="ytick_5">
     <g id="line2d_17">
      <g>
       <use style="stroke:#000000;stroke-width:0.8;" x="66.115625" xlink:href="#mbae1f0c226" y="124.185007"/>
      </g>
     </g>
     <g id="text_12">
      <!-- 0.98 -->
      <g transform="translate(25.717188 129.883835)scale(0.15 -0.15)">
       <defs>
        <path d="M 2034 2216 
Q 1584 2216 1326 1975 
Q 1069 1734 1069 1313 
Q 1069 891 1326 650 
Q 1584 409 2034 409 
Q 2484 409 2743 651 
Q 3003 894 3003 1313 
Q 3003 1734 2745 1975 
Q 2488 2216 2034 2216 
z
M 1403 2484 
Q 997 2584 770 2862 
Q 544 3141 544 3541 
Q 544 4100 942 4425 
Q 1341 4750 2034 4750 
Q 2731 4750 3128 4425 
Q 3525 4100 3525 3541 
Q 3525 3141 3298 2862 
Q 3072 2584 2669 2484 
Q 3125 2378 3379 2068 
Q 3634 1759 3634 1313 
Q 3634 634 3220 271 
Q 2806 -91 2034 -91 
Q 1263 -91 848 271 
Q 434 634 434 1313 
Q 434 1759 690 2068 
Q 947 2378 1403 2484 
z
M 1172 3481 
Q 1172 3119 1398 2916 
Q 1625 2713 2034 2713 
Q 2441 2713 2670 2916 
Q 2900 3119 2900 3481 
Q 2900 3844 2670 4047 
Q 2441 4250 2034 4250 
Q 1625 4250 1398 4047 
Q 1172 3844 1172 3481 
z
" id="DejaVuSans-38" transform="scale(0.015625)"/>
       </defs>
       <use xlink:href="#DejaVuSans-30"/>
       <use x="63.623047" xlink:href="#DejaVuSans-2e"/>
       <use x="95.410156" xlink:href="#DejaVuSans-39"/>
       <use x="159.033203" xlink:href="#DejaVuSans-38"/>
      </g>
     </g>
    </g>
    <g id="ytick_6">
     <g id="line2d_18">
      <g>
       <use style="stroke:#000000;stroke-width:0.8;" x="66.115625" xlink:href="#mbae1f0c226" y="45.10796"/>
      </g>
     </g>
     <g id="text_13">
      <!-- 1.00 -->
      <g transform="translate(25.717188 50.806788)scale(0.15 -0.15)">
       <use xlink:href="#DejaVuSans-31"/>
       <use x="63.623047" xlink:href="#DejaVuSans-2e"/>
       <use x="95.410156" xlink:href="#DejaVuSans-30"/>
       <use x="159.033203" xlink:href="#DejaVuSans-30"/>
      </g>
     </g>
    </g>
    <g id="ytick_7">
     <g id="line2d_19">
      <defs>
       <path d="M 0 0 
L -2 0 
" id="mb29622e51d" style="stroke:#000000;stroke-width:0.6;"/>
      </defs>
      <g>
       <use style="stroke:#000000;stroke-width:0.6;" x="66.115625" xlink:href="#mb29622e51d" y="400.954672"/>
      </g>
     </g>
    </g>
    <g id="ytick_8">
     <g id="line2d_20">
      <g>
       <use style="stroke:#000000;stroke-width:0.6;" x="66.115625" xlink:href="#mb29622e51d" y="321.877625"/>
      </g>
     </g>
    </g>
    <g id="ytick_9">
     <g id="line2d_21">
      <g>
       <use style="stroke:#000000;stroke-width:0.6;" x="66.115625" xlink:href="#mb29622e51d" y="242.800578"/>
      </g>
     </g>
    </g>
    <g id="ytick_10">
     <g id="line2d_22">
      <g>
       <use style="stroke:#000000;stroke-width:0.6;" x="66.115625" xlink:href="#mb29622e51d" y="163.723531"/>
      </g>
     </g>
    </g>
    <g id="ytick_11">
     <g id="line2d_23">
      <g>
       <use style="stroke:#000000;stroke-width:0.6;" x="66.115625" xlink:href="#mb29622e51d" y="84.646483"/>
      </g>
     </g>
    </g>
    <g id="text_14">
     <!-- Normalized Intensity -->
     <g transform="translate(18.597656 320.381016)rotate(-90)scale(0.15 -0.15)">
      <defs>
       <path d="M 628 4666 
L 1478 4666 
L 3547 763 
L 3547 4666 
L 4159 4666 
L 4159 0 
L 3309 0 
L 1241 3903 
L 1241 0 
L 628 0 
L 628 4666 
z
" id="DejaVuSans-4e" transform="scale(0.015625)"/>
       <path d="M 1959 3097 
Q 1497 3097 1228 2736 
Q 959 2375 959 1747 
Q 959 1119 1226 758 
Q 1494 397 1959 397 
Q 2419 397 2687 759 
Q 2956 1122 2956 1747 
Q 2956 2369 2687 2733 
Q 2419 3097 1959 3097 
z
M 1959 3584 
Q 2709 3584 3137 3096 
Q 3566 2609 3566 1747 
Q 3566 888 3137 398 
Q 2709 -91 1959 -91 
Q 1206 -91 779 398 
Q 353 888 353 1747 
Q 353 2609 779 3096 
Q 1206 3584 1959 3584 
z
" id="DejaVuSans-6f" transform="scale(0.015625)"/>
       <path d="M 603 4863 
L 1178 4863 
L 1178 0 
L 603 0 
L 603 4863 
z
" id="DejaVuSans-6c" transform="scale(0.015625)"/>
       <path d="M 353 3500 
L 3084 3500 
L 3084 2975 
L 922 459 
L 3084 459 
L 3084 0 
L 275 0 
L 275 525 
L 2438 3041 
L 353 3041 
L 353 3500 
z
" id="DejaVuSans-7a" transform="scale(0.015625)"/>
       <path d="M 2906 2969 
L 2906 4863 
L 3481 4863 
L 3481 0 
L 2906 0 
L 2906 525 
Q 2725 213 2448 61 
Q 2172 -91 1784 -91 
Q 1150 -91 751 415 
Q 353 922 353 1747 
Q 353 2572 751 3078 
Q 1150 3584 1784 3584 
Q 2172 3584 2448 3432 
Q 2725 3281 2906 2969 
z
M 947 1747 
Q 947 1113 1208 752 
Q 1469 391 1925 391 
Q 2381 391 2643 752 
Q 2906 1113 2906 1747 
Q 2906 2381 2643 2742 
Q 2381 3103 1925 3103 
Q 1469 3103 1208 2742 
Q 947 2381 947 1747 
z
" id="DejaVuSans-64" transform="scale(0.015625)"/>
       <path d="M 628 4666 
L 1259 4666 
L 1259 0 
L 628 0 
L 628 4666 
z
" id="DejaVuSans-49" transform="scale(0.015625)"/>
       <path d="M 1172 4494 
L 1172 3500 
L 2356 3500 
L 2356 3053 
L 1172 3053 
L 1172 1153 
Q 1172 725 1289 603 
Q 1406 481 1766 481 
L 2356 481 
L 2356 0 
L 1766 0 
Q 1100 0 847 248 
Q 594 497 594 1153 
L 594 3053 
L 172 3053 
L 172 3500 
L 594 3500 
L 594 4494 
L 1172 4494 
z
" id="DejaVuSans-74" transform="scale(0.015625)"/>
       <path d="M 2834 3397 
L 2834 2853 
Q 2591 2978 2328 3040 
Q 2066 3103 1784 3103 
Q 1356 3103 1142 2972 
Q 928 2841 928 2578 
Q 928 2378 1081 2264 
Q 1234 2150 1697 2047 
L 1894 2003 
Q 2506 1872 2764 1633 
Q 3022 1394 3022 966 
Q 3022 478 2636 193 
Q 2250 -91 1575 -91 
Q 1294 -91 989 -36 
Q 684 19 347 128 
L 347 722 
Q 666 556 975 473 
Q 1284 391 1588 391 
Q 1994 391 2212 530 
Q 2431 669 2431 922 
Q 2431 1156 2273 1281 
Q 2116 1406 1581 1522 
L 1381 1569 
Q 847 1681 609 1914 
Q 372 2147 372 2553 
Q 372 3047 722 3315 
Q 1072 3584 1716 3584 
Q 2034 3584 2315 3537 
Q 2597 3491 2834 3397 
z
" id="DejaVuSans-73" transform="scale(0.015625)"/>
       <path d="M 2059 -325 
Q 1816 -950 1584 -1140 
Q 1353 -1331 966 -1331 
L 506 -1331 
L 506 -850 
L 844 -850 
Q 1081 -850 1212 -737 
Q 1344 -625 1503 -206 
L 1606 56 
L 191 3500 
L 800 3500 
L 1894 763 
L 2988 3500 
L 3597 3500 
L 2059 -325 
z
" id="DejaVuSans-79" transform="scale(0.015625)"/>
      </defs>
      <use xlink:href="#DejaVuSans-4e"/>
      <use x="74.804688" xlink:href="#DejaVuSans-6f"/>
      <use x="135.986328" xlink:href="#DejaVuSans-72"/>
      <use x="175.349609" xlink:href="#DejaVuSans-6d"/>
      <use x="272.761719" xlink:href="#DejaVuSans-61"/>
      <use x="334.041016" xlink:href="#DejaVuSans-6c"/>
      <use x="361.824219" xlink:href="#DejaVuSans-69"/>
      <use x="389.607422" xlink:href="#DejaVuSans-7a"/>
      <use x="442.097656" xlink:href="#DejaVuSans-65"/>
      <use x="503.621094" xlink:href="#DejaVuSans-64"/>
      <use x="567.097656" xlink:href="#DejaVuSans-20"/>
      <use x="598.884766" xlink:href="#DejaVuSans-49"/>
      <use x="628.376953" xlink:href="#DejaVuSans-6e"/>
      <use x="691.755859" xlink:href="#DejaVuSans-74"/>
      <use x="730.964844" xlink:href="#DejaVuSans-65"/>
      <use x="792.488281" xlink:href="#DejaVuSans-6e"/>
      <use x="855.867188" xlink:href="#DejaVuSans-73"/>
      <use x="907.966797" xlink:href="#DejaVuSans-69"/>
      <use x="935.75" xlink:href="#DejaVuSans-74"/>
      <use x="974.958984" xlink:href="#DejaVuSans-79"/>
     </g>
    </g>
   </g>
   <g id="line2d_24">
    <path clip-path="url(#pb611c15bb8)" d="M 104.16108 45.147741 
L 137.109782 45.346096 
L 159.762014 45.693822 
L 177.266013 46.181378 
L 190.651423 46.777021 
L 200.947892 47.444021 
L 210.214715 48.272847 
L 217.422243 49.12328 
L 223.600125 50.039606 
L 229.778007 51.173293 
L 234.926241 52.3204 
L 240.074476 53.687293 
L 245.222711 55.311396 
L 249.341299 56.822851 
L 253.459886 58.546032 
L 257.578474 60.502382 
L 261.697062 62.712725 
L 265.81565 65.196522 
L 269.934237 67.971104 
L 274.052825 71.050962 
L 278.171413 74.447148 
L 282.290001 78.166867 
L 286.408588 82.213298 
L 290.527176 86.585672 
L 294.645764 91.279611 
L 298.764352 96.287677 
L 302.88294 101.600078 
L 308.031174 108.65111 
L 313.179409 116.135834 
L 318.327644 124.029857 
L 323.475878 132.309289 
L 329.65376 142.720339 
L 335.831642 153.610877 
L 342.009523 164.933911 
L 349.217052 178.613719 
L 358.483874 196.760935 
L 383.195401 245.55613 
L 389.373283 257.099458 
L 394.521517 266.293295 
L 399.669752 275.010699 
L 403.78834 281.591295 
L 407.906928 287.787884 
L 412.025516 293.577319 
L 416.144103 298.946887 
L 420.262691 303.896648 
L 424.381279 308.44175 
L 428.499867 312.614571 
L 432.618454 316.466473 
L 437.766689 320.940885 
L 452.181746 333.138842 
L 456.300334 337.102204 
L 459.389275 340.379526 
L 462.478216 343.982596 
L 465.567157 347.962914 
L 468.656097 352.362587 
L 471.745038 357.211 
L 474.833979 362.521438 
L 477.92292 368.287857 
L 481.011861 374.482001 
L 485.130448 383.311296 
L 490.278683 394.972999 
L 497.486212 411.405757 
L 500.575153 418.034618 
L 503.664093 424.146921 
L 505.723387 427.838856 
L 507.782681 431.157899 
L 509.841975 434.049077 
L 511.901269 436.460596 
L 513.960563 438.345072 
L 514.99021 439.076364 
L 516.019857 439.660732 
L 517.049504 440.094019 
L 518.079151 440.372558 
L 519.108798 440.493196 
L 520.138445 440.453331 
L 521.168091 440.250929 
L 522.197738 439.884552 
L 523.227385 439.353374 
L 524.257032 438.657199 
L 525.286679 437.796476 
L 526.316326 436.772303 
L 528.37562 434.24131 
L 530.434914 431.086218 
L 532.494208 427.339485 
L 534.553502 423.043679 
L 536.612796 418.25091 
L 539.701736 410.265182 
L 542.790677 401.536622 
L 547.938912 386.069835 
L 553.087147 370.608344 
L 556.176088 361.884133 
L 559.265028 353.896603 
L 561.324322 349.095233 
L 563.383616 344.781726 
L 565.44291 341.005308 
L 567.502204 337.805637 
L 569.561498 335.212312 
L 571.620792 333.244585 
L 572.650439 332.498486 
L 573.680086 331.911291 
L 574.709733 331.482495 
L 575.739379 331.210972 
L 576.769026 331.094982 
L 577.798673 331.132192 
L 578.82832 331.319693 
L 579.857967 331.654021 
L 580.887614 332.13118 
L 581.917261 332.746666 
L 583.976555 334.372229 
L 586.035849 336.485576 
L 588.095143 339.03527 
L 590.154437 341.964568 
L 592.213731 345.212449 
L 595.302671 350.540381 
L 600.450906 360.076828 
L 605.599141 369.520866 
L 608.688082 374.72241 
L 610.747376 377.871976 
L 612.806669 380.703709 
L 614.865963 383.168107 
L 616.925257 385.220288 
L 618.984551 386.820236 
L 621.043845 387.932977 
L 622.073492 388.297123 
L 623.103139 388.528691 
L 624.132786 388.624765 
L 625.162433 388.582756 
L 626.19208 388.400396 
L 627.221727 388.07574 
L 628.251374 387.607162 
L 629.28102 386.993346 
L 630.310667 386.233293 
L 632.369961 384.271987 
L 634.429255 381.721248 
L 636.488549 378.583704 
L 638.547843 374.866395 
L 640.607137 370.580545 
L 642.666431 365.741309 
L 644.725725 360.367522 
L 646.785019 354.481422 
L 649.873959 344.747967 
L 652.9629 334.016879 
L 656.051841 322.397703 
L 659.140782 310.00999 
L 663.25937 292.518427 
L 668.407604 269.534075 
L 685.911602 190.13134 
L 690.03019 172.815443 
L 694.148778 156.510885 
L 697.237719 145.04568 
L 700.32666 134.293166 
L 703.4156 124.289755 
L 706.504541 115.057068 
L 709.593482 106.602562 
L 712.682423 98.920532 
L 715.771364 91.993425 
L 718.860305 85.793431 
L 721.949245 80.284237 
L 725.038186 75.422879 
L 728.127127 71.16161 
L 731.216068 67.449696 
L 734.305009 64.235079 
L 737.39395 61.465853 
L 740.48289 59.091512 
L 743.571831 57.06396 
L 746.660772 55.338261 
L 749.749713 53.873156 
L 752.838654 52.631361 
L 756.957241 51.266187 
L 761.075829 50.171755 
L 765.194417 49.292258 
L 770.342652 48.427218 
L 776.520533 47.645104 
L 783.728062 46.981226 
L 791.965237 46.44354 
L 803.291354 45.949722 
L 817.706411 45.568712 
L 837.269703 45.297234 
L 865.07017 45.149163 
L 865.07017 45.149163 
" style="fill:none;stroke:#e98768;stroke-linecap:square;stroke-width:1.5;"/>
   </g>
   <g id="line2d_25">
    <path clip-path="url(#pb611c15bb8)" d="M 108.536325 45.148956 
L 140.01829 45.347307 
L 161.344782 45.690615 
L 177.593538 46.16293 
L 189.780105 46.721419 
L 199.935577 47.398294 
L 208.059955 48.141213 
L 215.168786 48.992363 
L 221.262069 49.915743 
L 227.355353 51.064016 
L 232.433089 52.229725 
L 237.510825 53.621041 
L 242.588562 55.274441 
L 246.650751 56.811469 
L 250.712939 58.560284 
L 254.775128 60.539968 
L 258.837317 62.768345 
L 262.899506 65.261296 
L 266.961695 68.032105 
L 271.023884 71.090925 
L 275.086073 74.44441 
L 279.148262 78.095556 
L 283.210451 82.04379 
L 287.27264 86.285282 
L 291.334829 90.813476 
L 295.397018 95.619747 
L 300.474754 102.003396 
L 305.552491 108.785274 
L 310.630227 115.944883 
L 315.707963 123.462873 
L 321.801246 132.932051 
L 327.89453 142.860399 
L 333.987813 153.213919 
L 341.096644 165.773526 
L 349.221022 180.648724 
L 360.392042 201.671666 
L 374.609703 228.400966 
L 381.718534 241.271704 
L 387.811817 251.808688 
L 392.889554 260.133385 
L 396.951742 266.440781 
L 401.013931 272.398687 
L 405.07612 277.979717 
L 409.138309 283.164036 
L 413.200498 287.941277 
L 417.262687 292.31262 
L 421.324876 296.292953 
L 425.387065 299.91302 
L 429.449254 303.221366 
L 434.52699 307.02382 
L 448.744652 317.34186 
L 451.791294 319.875607 
L 454.837935 322.665499 
L 457.884577 325.777743 
L 460.931219 329.275842 
L 463.977861 333.217739 
L 467.024502 337.652606 
L 470.071144 342.617395 
L 473.117786 348.133272 
L 476.164427 354.202088 
L 479.211069 360.803112 
L 482.257711 367.890248 
L 486.3199 377.964781 
L 492.413183 393.868314 
L 498.506467 409.612738 
L 501.553109 416.948882 
L 504.59975 423.646066 
L 506.630845 427.649422 
L 508.661939 431.210774 
L 510.693034 434.270685 
L 512.724128 436.773835 
L 514.755223 438.670319 
L 515.77077 439.377258 
L 516.786317 439.916904 
L 517.801864 440.285087 
L 518.817412 440.478194 
L 519.832959 440.493196 
L 520.848506 440.32768 
L 521.864053 439.97987 
L 522.879601 439.448646 
L 523.895148 438.733567 
L 524.910695 437.83488 
L 525.926242 436.753534 
L 526.94179 435.491186 
L 528.972884 432.433668 
L 531.003979 428.689766 
L 533.035073 424.298041 
L 535.066168 419.307711 
L 537.097262 413.77794 
L 540.143904 404.623137 
L 543.190545 394.671615 
L 548.268282 377.113886 
L 553.346018 359.586966 
L 556.39266 349.673884 
L 559.439301 340.55509 
L 561.470396 335.038032 
L 563.50149 330.043373 
L 565.532585 325.622981 
L 567.563679 321.818703 
L 569.594774 318.661929 
L 571.625868 316.173374 
L 572.641416 315.183225 
L 573.656963 314.363065 
L 574.67251 313.71251 
L 575.688057 313.230543 
L 576.703604 312.915529 
L 577.719152 312.765234 
L 578.734699 312.776848 
L 579.750246 312.947001 
L 580.765793 313.271795 
L 581.781341 313.746825 
L 582.796888 314.367209 
L 584.827982 316.022296 
L 586.859077 318.189563 
L 588.890171 320.815812 
L 590.921266 323.843158 
L 592.95236 327.21006 
L 595.999002 332.756205 
L 600.061191 340.729169 
L 607.170022 354.79857 
L 610.216664 360.33159 
L 613.263305 365.294584 
L 615.2944 368.205312 
L 617.325494 370.747055 
L 619.356589 372.881484 
L 621.387683 374.574907 
L 623.418778 375.798324 
L 624.434325 376.226002 
L 625.449872 376.527427 
L 626.465419 376.700288 
L 627.480967 376.742558 
L 628.496514 376.652492 
L 629.512061 376.428624 
L 630.527608 376.069762 
L 631.543156 375.574983 
L 632.558703 374.943628 
L 634.589797 373.269843 
L 636.620892 371.048207 
L 638.651986 368.282372 
L 640.683081 364.979633 
L 642.714175 361.150714 
L 644.74527 356.809546 
L 646.776364 351.973034 
L 648.807459 346.660833 
L 651.8541 337.849746 
L 654.900742 328.103016 
L 657.947384 317.514732 
L 660.994026 306.187123 
L 665.056215 290.122161 
L 670.133951 268.877555 
L 677.242782 237.939332 
L 686.382707 198.264653 
L 691.460443 177.235006 
L 695.522632 161.294394 
L 699.584821 146.32504 
L 702.631463 135.81687 
L 705.678104 125.972342 
L 708.724746 116.82055 
L 711.771388 108.378129 
L 714.81803 100.649722 
L 717.864671 93.628773 
L 720.911313 87.298572 
L 723.957955 81.633552 
L 727.004596 76.600726 
L 730.051238 72.161243 
L 733.09788 68.271962 
L 736.144522 64.886995 
L 739.191163 61.959149 
L 742.237805 59.441235 
L 745.284447 57.287179 
L 748.331089 55.452948 
L 751.37773 53.897251 
L 754.424372 52.582039 
L 757.471014 51.472806 
L 761.533203 50.261483 
L 765.595392 49.298934 
L 770.673128 48.367153 
L 775.750864 47.662924 
L 781.844148 47.034464 
L 789.968526 46.447381 
L 800.123998 45.967617 
L 813.326112 45.589051 
L 831.605962 45.311845 
L 858.010191 45.154953 
L 860.041285 45.149296 
L 860.041285 45.149296 
" style="fill:none;stroke:#de5d5c;stroke-linecap:square;stroke-width:1.5;"/>
   </g>
   <g id="line2d_26">
    <path clip-path="url(#pb611c15bb8)" d="M 111.938323 45.148029 
L 141.98175 45.340173 
L 162.0107 45.671204 
L 177.032414 46.118648 
L 189.049784 46.686096 
L 199.064259 47.385061 
L 207.07584 48.161983 
L 214.085973 49.060302 
L 220.094658 50.040824 
L 226.103343 51.264443 
L 231.110581 52.507996 
L 236.117819 53.99075 
L 241.125056 55.747712 
L 245.130846 57.374265 
L 249.136637 59.215912 
L 253.142427 61.288474 
L 257.148217 63.605789 
L 261.154007 66.17915 
L 265.159797 69.016862 
L 269.165587 72.123965 
L 273.171378 75.502167 
L 277.177168 79.149994 
L 281.182958 83.063159 
L 285.188748 87.235101 
L 290.195986 92.801385 
L 295.203224 98.741391 
L 300.210461 105.037071 
L 305.217699 111.67158 
L 310.224937 118.629983 
L 316.233622 127.389121 
L 322.242307 136.574156 
L 328.250993 146.161022 
L 335.261125 157.810966 
L 342.271258 169.893187 
L 351.284286 185.895794 
L 373.316132 225.268632 
L 379.324817 235.474874 
L 384.332055 243.614711 
L 389.339293 251.340153 
L 393.345083 257.174339 
L 397.350873 262.66602 
L 401.356663 267.788642 
L 405.362453 272.522401 
L 409.368243 276.855857 
L 413.374034 280.787697 
L 417.379824 284.32865 
L 421.385614 287.503477 
L 425.391404 290.352967 
L 429.397194 292.935774 
L 435.40588 296.486107 
L 443.41746 301.183726 
L 447.42325 303.819772 
L 450.427593 306.049834 
L 453.431935 308.574758 
L 456.436278 311.465419 
L 459.440621 314.790819 
L 461.443516 317.281322 
L 463.446411 320.011044 
L 465.449306 322.995228 
L 468.453649 327.975721 
L 471.457991 333.58669 
L 474.462334 339.839198 
L 477.466676 346.721824 
L 480.471019 354.197415 
L 483.475362 362.200484 
L 487.481152 373.522233 
L 500.49997 411.244935 
L 503.504313 418.961204 
L 505.507208 423.645391 
L 507.510103 427.881063 
L 509.512998 431.601738 
L 511.515893 434.7447 
L 513.518788 437.252382 
L 514.520236 438.251747 
L 515.521683 439.073722 
L 516.523131 439.713151 
L 517.524578 440.165437 
L 518.526026 440.426578 
L 519.527473 440.493196 
L 520.528921 440.362568 
L 521.530368 440.032648 
L 522.531816 439.502092 
L 523.533263 438.770275 
L 524.534711 437.837306 
L 525.536158 436.70404 
L 526.537606 435.372084 
L 528.540501 432.122315 
L 530.543396 428.115944 
L 532.546291 423.392748 
L 534.549186 418.003859 
L 536.552081 412.011019 
L 539.556424 402.047826 
L 542.560767 391.163332 
L 546.566557 375.750768 
L 553.57669 348.490377 
L 556.581032 337.534348 
L 559.585375 327.440852 
L 561.58827 321.315659 
L 563.591165 315.747964 
L 565.59406 310.790573 
L 567.596955 306.485841 
L 569.59985 302.865322 
L 571.602745 299.949636 
L 572.604193 298.759575 
L 573.605641 297.74855 
L 574.607088 296.916133 
L 575.608536 296.261261 
L 576.609983 295.782257 
L 577.611431 295.476851 
L 578.612878 295.342199 
L 579.614326 295.374911 
L 580.615773 295.571075 
L 581.617221 295.926286 
L 582.618668 296.435674 
L 583.620116 297.093935 
L 585.623011 298.833866 
L 587.625906 301.096131 
L 589.628801 303.825839 
L 591.631696 306.96419 
L 593.634591 310.449476 
L 596.638934 316.188408 
L 600.644724 324.454613 
L 608.656305 341.205309 
L 611.660647 346.961521 
L 614.66499 352.162189 
L 616.667885 355.247772 
L 618.67078 357.983088 
L 620.673675 360.334274 
L 622.67657 362.271714 
L 624.679465 363.770026 
L 626.68236 364.808009 
L 627.683808 365.148874 
L 628.685255 365.368556 
L 629.686703 365.465536 
L 630.68815 365.43854 
L 631.689598 365.286524 
L 632.691046 365.008681 
L 633.692493 364.604425 
L 634.693941 364.073394 
L 636.696836 362.63062 
L 638.699731 360.681652 
L 640.702626 358.230948 
L 642.705521 355.285944 
L 644.708416 351.856859 
L 646.711311 347.956504 
L 648.714206 343.600084 
L 650.717101 338.805007 
L 653.721444 330.832901 
L 656.725787 321.991003 
L 659.730129 312.360228 
L 662.734472 302.028012 
L 666.740262 287.321345 
L 670.746052 271.762933 
L 676.754737 247.34878 
L 691.776451 185.499027 
L 696.783688 166.10168 
L 700.789479 151.440057 
L 704.795269 137.693313 
L 707.799611 128.050812 
L 710.803954 119.019586 
L 713.808297 110.623444 
L 716.812639 102.875757 
L 719.816982 95.779786 
L 722.821324 89.329255 
L 725.825667 83.509171 
L 728.83001 78.296837 
L 731.834352 73.663023 
L 734.838695 69.57324 
L 737.843038 65.989057 
L 740.84738 62.869423 
L 743.851723 60.171912 
L 746.856065 57.853877 
L 749.860408 55.873458 
L 752.864751 54.190423 
L 755.869093 52.766846 
L 758.873436 51.567586 
L 762.879226 50.262622 
L 766.885016 49.233021 
L 770.890807 48.422257 
L 775.898044 47.646233 
L 781.906729 46.97077 
L 788.916862 46.424322 
L 797.92989 45.963561 
L 809.947261 45.593591 
L 826.971869 45.318262 
L 852.008057 45.158478 
L 855.0124 45.149589 
L 855.0124 45.149589 
" style="fill:none;stroke:#c14168;stroke-linecap:square;stroke-width:1.5;"/>
   </g>
   <g id="line2d_27">
    <path clip-path="url(#pb611c15bb8)" d="M 115.386483 45.147863 
L 144.019906 45.3364 
L 163.767094 45.683253 
L 177.590125 46.127704 
L 188.451079 46.675411 
L 197.337313 47.325276 
L 205.236188 48.123417 
L 212.147704 49.053679 
L 218.071861 50.073761 
L 223.008658 51.116687 
L 227.945455 52.367058 
L 232.882251 53.856733 
L 237.819048 55.617958 
L 241.768486 57.243422 
L 245.717924 59.077281 
L 249.667361 61.132435 
L 253.616799 63.419494 
L 257.566236 65.946367 
L 261.515674 68.71799 
L 265.465112 71.736237 
L 269.414549 75.000045 
L 273.363987 78.505727 
L 278.300784 83.218951 
L 283.237581 88.286391 
L 288.174378 93.691859 
L 293.111175 99.419381 
L 298.047972 105.454634 
L 303.972128 113.086513 
L 309.896284 121.12816 
L 315.820441 129.565852 
L 321.744597 138.384643 
L 327.668754 147.563758 
L 334.580269 158.685888 
L 342.479145 171.848729 
L 353.340098 190.439969 
L 367.163129 214.052266 
L 374.074645 225.400736 
L 379.998802 234.670276 
L 384.935599 241.971484 
L 388.885036 247.483665 
L 392.834474 252.667726 
L 396.783911 257.495219 
L 400.733349 261.943419 
L 404.682786 265.996722 
L 408.632224 269.648167 
L 411.594302 272.124593 
L 414.55638 274.382365 
L 418.505818 277.070587 
L 422.455256 279.425403 
L 426.404693 281.500472 
L 431.34149 283.812519 
L 442.202444 288.742281 
L 445.164522 290.32309 
L 448.1266 292.129668 
L 451.088678 294.234894 
L 454.050756 296.713593 
L 456.025475 298.610499 
L 458.000194 300.728211 
L 459.974913 303.087394 
L 461.949631 305.707375 
L 463.92435 308.60569 
L 465.899069 311.797595 
L 467.873788 315.29556 
L 469.848507 319.108752 
L 472.810585 325.430089 
L 475.772663 332.470848 
L 478.734741 340.204596 
L 481.696819 348.576173 
L 485.646257 360.576752 
L 490.583054 376.493857 
L 498.481929 402.110372 
L 501.444007 411.039106 
L 504.406086 419.213236 
L 506.380804 424.118367 
L 508.355523 428.502725 
L 510.330242 432.296788 
L 512.304961 435.43586 
L 513.29232 436.74123 
L 514.27968 437.861503 
L 515.267039 438.79058 
L 516.254398 439.522916 
L 517.241758 440.053565 
L 518.229117 440.37821 
L 519.216476 440.493196 
L 520.203836 440.395559 
L 521.191195 440.083052 
L 522.178555 439.554169 
L 523.165914 438.808162 
L 524.153273 437.845059 
L 525.140633 436.665672 
L 526.127992 435.271606 
L 528.102711 431.849839 
L 530.07743 427.608471 
L 532.052149 422.588664 
L 534.026867 416.84351 
L 536.001586 410.437259 
L 538.963664 399.753511 
L 541.925743 388.038773 
L 545.87518 371.372789 
L 553.774055 337.51344 
L 556.736134 325.666302 
L 559.698212 314.755762 
L 561.672931 308.128145 
L 563.647649 302.091793 
L 565.622368 296.698946 
L 567.597087 291.991038 
L 569.571806 287.998449 
L 571.546525 284.740481 
L 573.521243 282.225542 
L 574.508603 281.246444 
L 575.495962 280.451517 
L 576.483321 279.838941 
L 577.470681 279.406319 
L 578.45804 279.150693 
L 579.4454 279.068577 
L 580.432759 279.155985 
L 581.420118 279.408453 
L 582.407478 279.821077 
L 583.394837 280.388538 
L 584.382197 281.105137 
L 586.356915 282.961237 
L 588.331634 285.337368 
L 590.306353 288.177457 
L 592.281072 291.422372 
L 595.24315 296.914498 
L 598.205228 302.968649 
L 603.142025 313.738195 
L 609.066182 326.647614 
L 612.02826 332.674272 
L 614.990338 338.204926 
L 616.965057 341.549031 
L 618.939776 344.577081 
L 620.914494 347.257694 
L 622.889213 349.563326 
L 624.863932 351.470216 
L 626.838651 352.958314 
L 628.81337 354.011177 
L 630.788088 354.615854 
L 631.775448 354.746999 
L 632.762807 354.762755 
L 633.750166 354.662427 
L 634.737526 354.445507 
L 636.712245 353.660804 
L 638.686963 352.408246 
L 640.661682 350.690188 
L 642.636401 348.511566 
L 644.61112 345.879743 
L 646.585839 342.804337 
L 648.560557 339.297063 
L 650.535276 335.371571 
L 652.509995 331.043282 
L 655.472073 323.833291 
L 658.434151 315.819232 
L 661.39623 307.070934 
L 664.358308 297.663432 
L 668.307745 284.232062 
L 672.257183 269.96616 
L 677.19398 251.26892 
L 685.092855 220.29686 
L 693.97909 185.641734 
L 698.915887 167.212405 
L 702.865324 153.16392 
L 706.814762 139.87897 
L 710.764199 127.467686 
L 713.726278 118.784519 
L 716.688356 110.66681 
L 719.650434 103.131695 
L 722.612512 96.187669 
L 725.57459 89.834844 
L 728.536669 84.065421 
L 731.498747 78.864341 
L 734.460825 74.210117 
L 737.422903 70.075796 
L 740.384981 66.430009 
L 743.34706 63.238072 
L 746.309138 60.463093 
L 749.271216 58.067029 
L 752.233294 56.011664 
L 755.195372 54.259484 
L 758.15745 52.774403 
L 761.119529 51.522359 
L 764.081607 50.471744 
L 768.031044 49.334793 
L 771.980482 48.44461 
L 776.917279 47.601843 
L 781.854076 46.984654 
L 787.778232 46.455977 
L 795.677108 45.989625 
L 806.538061 45.60958 
L 821.348452 45.339459 
L 844.057718 45.17 
L 849.981874 45.150117 
L 849.981874 45.150117 
" style="fill:none;stroke:#9a3670;stroke-linecap:square;stroke-width:1.5;"/>
   </g>
   <g id="line2d_28">
    <path clip-path="url(#pb611c15bb8)" d="M 119.455589 45.15044 
L 146.720085 45.344509 
L 164.247261 45.672579 
L 177.879509 46.14255 
L 188.590561 46.73748 
L 197.354149 47.45614 
L 204.170272 48.221129 
L 210.012664 49.066313 
L 215.855056 50.130574 
L 220.723716 51.218775 
L 225.592376 52.521051 
L 230.461036 54.067077 
L 235.329696 55.885596 
L 239.224624 57.554358 
L 243.119552 59.425982 
L 247.01448 61.509909 
L 250.909408 63.813045 
L 254.804336 66.339531 
L 258.699264 69.090688 
L 262.594192 72.065144 
L 267.462852 76.091338 
L 272.331512 80.449118 
L 277.200172 85.124331 
L 282.068832 90.101938 
L 286.937492 95.367768 
L 292.779884 102.050504 
L 298.622276 109.115706 
L 304.464668 116.553231 
L 310.30706 124.355866 
L 316.149452 132.515621 
L 321.991844 141.019448 
L 328.807967 151.345185 
L 336.597823 163.607488 
L 346.335143 179.430749 
L 364.836051 209.66971 
L 371.652175 220.312945 
L 377.494567 228.981913 
L 382.363227 235.788609 
L 386.258155 240.910061 
L 390.153083 245.707868 
L 394.048011 250.153136 
L 397.942939 254.222101 
L 401.837867 257.89747 
L 404.759063 260.389711 
L 407.680259 262.654531 
L 410.601455 264.694761 
L 413.522651 266.517015 
L 416.443847 268.132117 
L 420.338775 269.99079 
L 424.233703 271.560113 
L 429.102363 273.221185 
L 440.787147 276.966732 
L 443.708343 278.156878 
L 446.629538 279.582083 
L 449.550734 281.317601 
L 451.498198 282.685512 
L 453.445662 284.249492 
L 455.393126 286.032899 
L 457.34059 288.058637 
L 459.288054 290.348776 
L 461.235518 292.924121 
L 463.182982 295.803749 
L 465.130446 299.004514 
L 467.07791 302.540527 
L 469.025374 306.422614 
L 470.972838 310.65777 
L 473.894034 317.676919 
L 476.81523 325.482884 
L 479.736426 334.034918 
L 482.657622 343.260876 
L 486.55255 356.423019 
L 492.394942 377.270129 
L 498.237334 397.994012 
L 501.15853 407.701173 
L 504.079726 416.616859 
L 506.02719 421.987619 
L 507.974654 426.808939 
L 509.922118 431.006598 
L 511.869582 434.511415 
L 513.817046 437.260746 
L 514.790778 438.33467 
L 515.76451 439.199916 
L 516.738242 439.851113 
L 517.711974 440.283547 
L 518.685706 440.493196 
L 519.659438 440.476758 
L 520.63317 440.231678 
L 521.606902 439.756176 
L 522.580634 439.04926 
L 523.554366 438.110747 
L 524.528098 436.941276 
L 525.50183 435.54231 
L 526.475562 433.916146 
L 528.423026 429.995549 
L 530.37049 425.214327 
L 532.317954 419.620105 
L 534.265418 413.272632 
L 536.212882 406.242867 
L 539.134078 394.598512 
L 542.055274 381.91154 
L 545.950202 363.964001 
L 553.740058 327.722161 
L 556.661254 315.073152 
L 559.58245 303.418048 
L 561.529914 296.326346 
L 563.477378 289.851422 
L 565.424842 284.044858 
L 567.372306 278.9472 
L 569.319769 274.587799 
L 571.267233 270.984879 
L 573.214697 268.145805 
L 574.188429 267.012152 
L 575.162161 266.067539 
L 576.135893 265.310063 
L 577.109625 264.737254 
L 578.083357 264.3461 
L 579.057089 264.133081 
L 580.030821 264.09419 
L 581.004553 264.224969 
L 581.978285 264.520535 
L 582.952017 264.975616 
L 583.925749 265.584577 
L 584.899481 266.341458 
L 586.846945 268.273677 
L 588.794409 270.719218 
L 590.741873 273.621777 
L 592.689337 276.922756 
L 595.610533 282.489851 
L 598.531729 288.614225 
L 603.400389 299.51612 
L 610.216513 314.787742 
L 613.137709 320.874088 
L 616.058905 326.4799 
L 618.980101 331.486206 
L 620.927565 334.439935 
L 622.875029 337.056133 
L 624.822493 339.312466 
L 626.769957 341.189884 
L 628.717421 342.672513 
L 630.664885 343.74754 
L 632.612349 344.405091 
L 634.559813 344.638098 
L 636.507277 344.442167 
L 638.454741 343.815445 
L 640.402205 342.758481 
L 642.349669 341.274088 
L 644.297133 339.367209 
L 646.244597 337.044779 
L 648.192061 334.31559 
L 650.139525 331.190158 
L 652.086989 327.680588 
L 654.034453 323.800446 
L 656.955649 317.318331 
L 659.876845 310.091453 
L 662.798041 302.180199 
L 665.719237 293.649221 
L 669.614165 281.428585 
L 673.509093 268.395658 
L 678.377753 251.226365 
L 685.193877 226.163825 
L 697.852392 179.334513 
L 702.721052 162.153719 
L 707.589712 145.849908 
L 711.48464 133.588107 
L 715.379568 122.122249 
L 718.300764 114.089364 
L 721.22196 106.567574 
L 724.143156 99.572149 
L 727.064352 93.111202 
L 729.985548 87.18581 
L 732.906744 81.790305 
L 735.82794 76.912733 
L 738.749136 72.535454 
L 741.670332 68.635881 
L 744.591528 65.187311 
L 747.512724 62.159824 
L 750.43392 59.521206 
L 753.355116 57.237859 
L 756.276312 55.275667 
L 759.197508 53.600789 
L 762.118704 52.180342 
L 765.0399 50.982979 
L 767.961096 49.979332 
L 771.856024 48.896057 
L 775.750952 48.052166 
L 780.619612 47.260077 
L 785.488272 46.687854 
L 791.330664 46.207326 
L 799.12052 45.796603 
L 809.831572 45.478061 
L 825.411283 45.257787 
L 845.859655 45.148387 
L 845.859655 45.148387 
" style="fill:none;stroke:#722c6e;stroke-linecap:square;stroke-width:1.5;"/>
   </g>
   <g id="patch_3">
    <path d="M 66.115625 460.260469 
L 66.115625 25.380469 
" style="fill:none;stroke:#000000;stroke-linecap:square;stroke-linejoin:miter;stroke-width:0.8;"/>
   </g>
   <g id="patch_4">
    <path d="M 903.115625 460.260469 
L 903.115625 25.380469 
" style="fill:none;stroke:#000000;stroke-linecap:square;stroke-linejoin:miter;stroke-width:0.8;"/>
   </g>
   <g id="patch_5">
    <path d="M 66.115625 460.260469 
L 903.115625 460.260469 
" style="fill:none;stroke:#000000;stroke-linecap:square;stroke-linejoin:miter;stroke-width:0.8;"/>
   </g>
   <g id="patch_6">
    <path d="M 66.115625 25.380469 
L 903.115625 25.380469 
" style="fill:none;stroke:#000000;stroke-linecap:square;stroke-linejoin:miter;stroke-width:0.8;"/>
   </g>
   <g id="text_15">
    <!-- T = 61.2 K,  B = 0.00336 cm$^{-1}$   $\Delta B =$ -0.17% ,  $\Delta C =$ -0.17% -->
    <g transform="translate(255.565625 19.380469)scale(0.15 -0.15)">
     <defs>
      <path d="M -19 4666 
L 3928 4666 
L 3928 4134 
L 2272 4134 
L 2272 0 
L 1638 0 
L 1638 4134 
L -19 4134 
L -19 4666 
z
" id="DejaVuSans-54" transform="scale(0.015625)"/>
      <path d="M 678 2906 
L 4684 2906 
L 4684 2381 
L 678 2381 
L 678 2906 
z
M 678 1631 
L 4684 1631 
L 4684 1100 
L 678 1100 
L 678 1631 
z
" id="DejaVuSans-3d" transform="scale(0.015625)"/>
      <path d="M 628 4666 
L 1259 4666 
L 1259 2694 
L 3353 4666 
L 4166 4666 
L 1850 2491 
L 4331 0 
L 3500 0 
L 1259 2247 
L 1259 0 
L 628 0 
L 628 4666 
z
" id="DejaVuSans-4b" transform="scale(0.015625)"/>
      <path d="M 750 794 
L 1409 794 
L 1409 256 
L 897 -744 
L 494 -744 
L 750 256 
L 750 794 
z
" id="DejaVuSans-2c" transform="scale(0.015625)"/>
      <path d="M 1259 2228 
L 1259 519 
L 2272 519 
Q 2781 519 3026 730 
Q 3272 941 3272 1375 
Q 3272 1813 3026 2020 
Q 2781 2228 2272 2228 
L 1259 2228 
z
M 1259 4147 
L 1259 2741 
L 2194 2741 
Q 2656 2741 2882 2914 
Q 3109 3088 3109 3444 
Q 3109 3797 2882 3972 
Q 2656 4147 2194 4147 
L 1259 4147 
z
M 628 4666 
L 2241 4666 
Q 2963 4666 3353 4366 
Q 3744 4066 3744 3513 
Q 3744 3084 3544 2831 
Q 3344 2578 2956 2516 
Q 3422 2416 3680 2098 
Q 3938 1781 3938 1306 
Q 3938 681 3513 340 
Q 3088 0 2303 0 
L 628 0 
L 628 4666 
z
" id="DejaVuSans-42" transform="scale(0.015625)"/>
      <path d="M 2188 4044 
L 906 525 
L 3472 525 
L 2188 4044 
z
M 50 0 
L 1831 4666 
L 2547 4666 
L 4325 0 
L 50 0 
z
" id="DejaVuSans-394" transform="scale(0.015625)"/>
      <path d="M 1081 4666 
L 2694 4666 
Q 3350 4666 3675 4422 
Q 4000 4178 4000 3688 
Q 4000 3238 3720 2911 
Q 3441 2584 2988 2516 
Q 3375 2428 3569 2181 
Q 3763 1934 3763 1522 
Q 3763 819 3242 409 
Q 2722 0 1819 0 
L 172 0 
L 1081 4666 
z
M 1234 2228 
L 903 519 
L 1919 519 
Q 2491 519 2800 781 
Q 3109 1044 3109 1522 
Q 3109 1891 2904 2059 
Q 2700 2228 2247 2228 
L 1234 2228 
z
M 1606 4147 
L 1331 2741 
L 2272 2741 
Q 2775 2741 3058 2959 
Q 3341 3178 3341 3566 
Q 3341 3869 3150 4008 
Q 2959 4147 2541 4147 
L 1606 4147 
z
" id="DejaVuSans-Oblique-42" transform="scale(0.015625)"/>
      <path d="M 313 2009 
L 1997 2009 
L 1997 1497 
L 313 1497 
L 313 2009 
z
" id="DejaVuSans-2d" transform="scale(0.015625)"/>
      <path d="M 525 4666 
L 3525 4666 
L 3525 4397 
L 1831 0 
L 1172 0 
L 2766 4134 
L 525 4134 
L 525 4666 
z
" id="DejaVuSans-37" transform="scale(0.015625)"/>
      <path d="M 4653 2053 
Q 4381 2053 4226 1822 
Q 4072 1591 4072 1178 
Q 4072 772 4226 539 
Q 4381 306 4653 306 
Q 4919 306 5073 539 
Q 5228 772 5228 1178 
Q 5228 1588 5073 1820 
Q 4919 2053 4653 2053 
z
M 4653 2450 
Q 5147 2450 5437 2106 
Q 5728 1763 5728 1178 
Q 5728 594 5436 251 
Q 5144 -91 4653 -91 
Q 4153 -91 3862 251 
Q 3572 594 3572 1178 
Q 3572 1766 3864 2108 
Q 4156 2450 4653 2450 
z
M 1428 4353 
Q 1159 4353 1004 4120 
Q 850 3888 850 3481 
Q 850 3069 1003 2837 
Q 1156 2606 1428 2606 
Q 1700 2606 1854 2837 
Q 2009 3069 2009 3481 
Q 2009 3884 1853 4118 
Q 1697 4353 1428 4353 
z
M 4250 4750 
L 4750 4750 
L 1831 -91 
L 1331 -91 
L 4250 4750 
z
M 1428 4750 
Q 1922 4750 2215 4408 
Q 2509 4066 2509 3481 
Q 2509 2891 2217 2550 
Q 1925 2209 1428 2209 
Q 931 2209 642 2551 
Q 353 2894 353 3481 
Q 353 4063 643 4406 
Q 934 4750 1428 4750 
z
" id="DejaVuSans-25" transform="scale(0.015625)"/>
      <path d="M 4447 4306 
L 4319 3641 
Q 4019 3944 3683 4091 
Q 3347 4238 2956 4238 
Q 2422 4238 2017 3981 
Q 1613 3725 1319 3200 
Q 1131 2863 1032 2486 
Q 934 2109 934 1728 
Q 934 1091 1264 756 
Q 1594 422 2222 422 
Q 2656 422 3056 561 
Q 3456 700 3834 978 
L 3688 231 
Q 3316 72 2936 -9 
Q 2556 -91 2175 -91 
Q 1278 -91 773 396 
Q 269 884 269 1753 
Q 269 2309 461 2846 
Q 653 3384 1013 3828 
Q 1394 4300 1883 4525 
Q 2372 4750 3022 4750 
Q 3422 4750 3780 4639 
Q 4138 4528 4447 4306 
z
" id="DejaVuSans-Oblique-43" transform="scale(0.015625)"/>
     </defs>
     <use transform="translate(0 0.684375)" xlink:href="#DejaVuSans-54"/>
     <use transform="translate(61.083984 0.684375)" xlink:href="#DejaVuSans-20"/>
     <use transform="translate(92.871094 0.684375)" xlink:href="#DejaVuSans-3d"/>
     <use transform="translate(176.660156 0.684375)" xlink:href="#DejaVuSans-20"/>
     <use transform="translate(208.447266 0.684375)" xlink:href="#DejaVuSans-36"/>
     <use transform="translate(272.070312 0.684375)" xlink:href="#DejaVuSans-31"/>
     <use transform="translate(335.693359 0.684375)" xlink:href="#DejaVuSans-2e"/>
     <use transform="translate(361.980469 0.684375)" xlink:href="#DejaVuSans-32"/>
     <use transform="translate(425.603516 0.684375)" xlink:href="#DejaVuSans-20"/>
     <use transform="translate(457.390625 0.684375)" xlink:href="#DejaVuSans-4b"/>
     <use transform="translate(522.966797 0.684375)" xlink:href="#DejaVuSans-2c"/>
     <use transform="translate(554.753906 0.684375)" xlink:href="#DejaVuSans-20"/>
     <use transform="translate(586.541016 0.684375)" xlink:href="#DejaVuSans-20"/>
     <use transform="translate(618.328125 0.684375)" xlink:href="#DejaVuSans-42"/>
     <use transform="translate(686.931641 0.684375)" xlink:href="#DejaVuSans-20"/>
     <use transform="translate(718.71875 0.684375)" xlink:href="#DejaVuSans-3d"/>
     <use transform="translate(802.507812 0.684375)" xlink:href="#DejaVuSans-20"/>
     <use transform="translate(834.294922 0.684375)" xlink:href="#DejaVuSans-30"/>
     <use transform="translate(897.917969 0.684375)" xlink:href="#DejaVuSans-2e"/>
     <use transform="translate(929.705078 0.684375)" xlink:href="#DejaVuSans-30"/>
     <use transform="translate(993.328125 0.684375)" xlink:href="#DejaVuSans-30"/>
     <use transform="translate(1056.951172 0.684375)" xlink:href="#DejaVuSans-33"/>
     <use transform="translate(1120.574219 0.684375)" xlink:href="#DejaVuSans-33"/>
     <use transform="translate(1184.197266 0.684375)" xlink:href="#DejaVuSans-36"/>
     <use transform="translate(1247.820312 0.684375)" xlink:href="#DejaVuSans-20"/>
     <use transform="translate(1279.607422 0.684375)" xlink:href="#DejaVuSans-63"/>
     <use transform="translate(1334.587891 0.684375)" xlink:href="#DejaVuSans-6d"/>
     <use transform="translate(1432.957031 38.965625)scale(0.7)" xlink:href="#DejaVuSans-2212"/>
     <use transform="translate(1491.609375 38.965625)scale(0.7)" xlink:href="#DejaVuSans-31"/>
     <use transform="translate(1538.879883 0.684375)" xlink:href="#DejaVuSans-20"/>
     <use transform="translate(1570.666992 0.684375)" xlink:href="#DejaVuSans-20"/>
     <use transform="translate(1602.454102 0.684375)" xlink:href="#DejaVuSans-20"/>
     <use transform="translate(1634.241211 0.684375)" xlink:href="#DejaVuSans-394"/>
     <use transform="translate(1702.649414 0.684375)" xlink:href="#DejaVuSans-Oblique-42"/>
     <use transform="translate(1790.735352 0.684375)" xlink:href="#DejaVuSans-3d"/>
     <use transform="translate(1894.006836 0.684375)" xlink:href="#DejaVuSans-20"/>
     <use transform="translate(1925.793945 0.684375)" xlink:href="#DejaVuSans-2d"/>
     <use transform="translate(1961.87793 0.684375)" xlink:href="#DejaVuSans-30"/>
     <use transform="translate(2025.500977 0.684375)" xlink:href="#DejaVuSans-2e"/>
     <use transform="translate(2057.288086 0.684375)" xlink:href="#DejaVuSans-31"/>
     <use transform="translate(2120.911133 0.684375)" xlink:href="#DejaVuSans-37"/>
     <use transform="translate(2184.53418 0.684375)" xlink:href="#DejaVuSans-25"/>
     <use transform="translate(2279.553711 0.684375)" xlink:href="#DejaVuSans-20"/>
     <use transform="translate(2311.34082 0.684375)" xlink:href="#DejaVuSans-2c"/>
     <use transform="translate(2343.12793 0.684375)" xlink:href="#DejaVuSans-20"/>
     <use transform="translate(2374.915039 0.684375)" xlink:href="#DejaVuSans-20"/>
     <use transform="translate(2406.702148 0.684375)" xlink:href="#DejaVuSans-394"/>
     <use transform="translate(2475.110352 0.684375)" xlink:href="#DejaVuSans-Oblique-43"/>
     <use transform="translate(2564.416992 0.684375)" xlink:href="#DejaVuSans-3d"/>
     <use transform="translate(2667.688477 0.684375)" xlink:href="#DejaVuSans-20"/>
     <use transform="translate(2699.475586 0.684375)" xlink:href="#DejaVuSans-2d"/>
     <use transform="translate(2735.55957 0.684375)" xlink:href="#DejaVuSans-30"/>
     <use transform="translate(2799.182617 0.684375)" xlink:href="#DejaVuSans-2e"/>
     <use transform="translate(2830.969727 0.684375)" xlink:href="#DejaVuSans-31"/>
     <use transform="translate(2894.592773 0.684375)" xlink:href="#DejaVuSans-37"/>
     <use transform="translate(2958.21582 0.684375)" xlink:href="#DejaVuSans-25"/>
    </g>
   </g>
   <g id="legend_1">
    <g id="patch_7">
     <path d="M 76.615625 452.760469 
L 163.425781 452.760469 
Q 166.425781 452.760469 166.425781 449.760469 
L 166.425781 323.974531 
Q 166.425781 320.974531 163.425781 320.974531 
L 76.615625 320.974531 
Q 73.615625 320.974531 73.615625 323.974531 
L 73.615625 449.760469 
Q 73.615625 452.760469 76.615625 452.760469 
z
" style="fill:#ffffff;opacity:0.8;stroke:#cccccc;stroke-linejoin:miter;"/>
    </g>
    <g id="text_16">
     <!-- $\zeta$ -->
     <g transform="translate(117.270703 334.574531)scale(0.1 -0.1)">
      <defs>
       <path d="M 1966 397 
Q 2378 394 2578 159 
Q 2794 -88 2722 -463 
Q 2650 -822 2372 -1072 
Q 2069 -1344 1559 -1344 
Q 1606 -1109 1650 -872 
Q 1863 -888 2022 -750 
Q 2144 -641 2166 -525 
Q 2197 -359 2125 -222 
Q 2050 -91 1872 -91 
Q -22 -91 316 1669 
Q 616 3206 2609 4284 
L 947 4284 
L 1059 4863 
L 3778 4863 
L 3666 4284 
Q 1181 3147 894 1669 
Q 647 397 1966 397 
z
" id="DejaVuSans-Oblique-3b6" transform="scale(0.015625)"/>
      </defs>
      <use transform="translate(0 0.015625)" xlink:href="#DejaVuSans-Oblique-3b6"/>
     </g>
    </g>
    <g id="line2d_29">
     <path d="M 79.615625 350.322187 
L 109.615625 350.322187 
" style="fill:none;stroke:#e98768;stroke-linecap:square;stroke-width:1.5;"/>
    </g>
    <g id="line2d_30"/>
    <g id="text_17">
     <!-- -0.35 -->
     <g transform="translate(121.615625 355.572187)scale(0.15 -0.15)">
      <defs>
       <path d="M 691 4666 
L 3169 4666 
L 3169 4134 
L 1269 4134 
L 1269 2991 
Q 1406 3038 1543 3061 
Q 1681 3084 1819 3084 
Q 2600 3084 3056 2656 
Q 3513 2228 3513 1497 
Q 3513 744 3044 326 
Q 2575 -91 1722 -91 
Q 1428 -91 1123 -41 
Q 819 9 494 109 
L 494 744 
Q 775 591 1075 516 
Q 1375 441 1709 441 
Q 2250 441 2565 725 
Q 2881 1009 2881 1497 
Q 2881 1984 2565 2268 
Q 2250 2553 1709 2553 
Q 1456 2553 1204 2497 
Q 953 2441 691 2322 
L 691 4666 
z
" id="DejaVuSans-35" transform="scale(0.015625)"/>
      </defs>
      <use xlink:href="#DejaVuSans-2d"/>
      <use x="36.083984" xlink:href="#DejaVuSans-30"/>
      <use x="99.707031" xlink:href="#DejaVuSans-2e"/>
      <use x="131.494141" xlink:href="#DejaVuSans-33"/>
      <use x="195.117188" xlink:href="#DejaVuSans-35"/>
     </g>
    </g>
    <g id="line2d_31">
     <path d="M 79.615625 372.339375 
L 109.615625 372.339375 
" style="fill:none;stroke:#de5d5c;stroke-linecap:square;stroke-width:1.5;"/>
    </g>
    <g id="line2d_32"/>
    <g id="text_18">
     <!-- -0.4 -->
     <g transform="translate(121.615625 377.589375)scale(0.15 -0.15)">
      <use xlink:href="#DejaVuSans-2d"/>
      <use x="36.083984" xlink:href="#DejaVuSans-30"/>
      <use x="99.707031" xlink:href="#DejaVuSans-2e"/>
      <use x="131.494141" xlink:href="#DejaVuSans-34"/>
     </g>
    </g>
    <g id="line2d_33">
     <path d="M 79.615625 394.356562 
L 109.615625 394.356562 
" style="fill:none;stroke:#c14168;stroke-linecap:square;stroke-width:1.5;"/>
    </g>
    <g id="line2d_34"/>
    <g id="text_19">
     <!-- -0.45 -->
     <g transform="translate(121.615625 399.606562)scale(0.15 -0.15)">
      <use xlink:href="#DejaVuSans-2d"/>
      <use x="36.083984" xlink:href="#DejaVuSans-30"/>
      <use x="99.707031" xlink:href="#DejaVuSans-2e"/>
      <use x="131.494141" xlink:href="#DejaVuSans-34"/>
      <use x="195.117188" xlink:href="#DejaVuSans-35"/>
     </g>
    </g>
    <g id="line2d_35">
     <path d="M 79.615625 416.37375 
L 109.615625 416.37375 
" style="fill:none;stroke:#9a3670;stroke-linecap:square;stroke-width:1.5;"/>
    </g>
    <g id="line2d_36"/>
    <g id="text_20">
     <!-- -0.5 -->
     <g transform="translate(121.615625 421.62375)scale(0.15 -0.15)">
      <use xlink:href="#DejaVuSans-2d"/>
      <use x="36.083984" xlink:href="#DejaVuSans-30"/>
      <use x="99.707031" xlink:href="#DejaVuSans-2e"/>
      <use x="131.494141" xlink:href="#DejaVuSans-35"/>
     </g>
    </g>
    <g id="line2d_37">
     <path d="M 79.615625 438.390937 
L 109.615625 438.390937 
" style="fill:none;stroke:#722c6e;stroke-linecap:square;stroke-width:1.5;"/>
    </g>
    <g id="line2d_38"/>
    <g id="text_21">
     <!-- -0.55 -->
     <g transform="translate(121.615625 443.640937)scale(0.15 -0.15)">
      <use xlink:href="#DejaVuSans-2d"/>
      <use x="36.083984" xlink:href="#DejaVuSans-30"/>
      <use x="99.707031" xlink:href="#DejaVuSans-2e"/>
      <use x="131.494141" xlink:href="#DejaVuSans-35"/>
      <use x="195.117188" xlink:href="#DejaVuSans-35"/>
     </g>
    </g>
   </g>
  </g>
 </g>
 <defs>
  <clipPath id="pb611c15bb8">
   <rect height="434.88" width="837" x="66.115625" y="25.380469"/>
  </clipPath>
 </defs>
</svg>
