<?xml version="1.0" encoding="utf-8" standalone="no"?>
<!DOCTYPE svg PUBLIC "-//W3C//DTD SVG 1.1//EN"
  "http://www.w3.org/Graphics/SVG/1.1/DTD/svg11.dtd">
<svg height="426.638125pt" version="1.1" viewBox="0 0 857.755302 426.638125" width="857.755302pt" xmlns="http://www.w3.org/2000/svg" xmlns:xlink="http://www.w3.org/1999/xlink">
 <metadata>
  <rdf:RDF xmlns:cc="http://creativecommons.org/ns#" xmlns:dc="http://purl.org/dc/elements/1.1/" xmlns:rdf="http://www.w3.org/1999/02/22-rdf-syntax-ns#">
   <cc:Work>
    <dc:type rdf:resource="http://purl.org/dc/dcmitype/StillImage"/>
    <dc:date>2022-10-12T11:43:20.180475</dc:date>
    <dc:format>image/svg+xml</dc:format>
    <dc:creator>
     <cc:Agent>
      <dc:title>Matplotlib v3.4.3, https://matplotlib.org/</dc:title>
     </cc:Agent>
    </dc:creator>
   </cc:Work>
  </rdf:RDF>
 </metadata>
 <defs>
  <style type="text/css">*{stroke-linecap:butt;stroke-linejoin:round;}</style>
 </defs>
 <g id="figure_1">
  <g id="patch_1">
   <path d="M 0 426.638125 
L 857.755302 426.638125 
L 857.755302 0 
L 0 0 
z
" style="fill:#ffffff;"/>
  </g>
  <g id="axes_1">
   <g id="patch_2">
    <path d="M 106.265938 155.71 
L 335.824271 155.71 
L 335.824271 94.16 
L 106.265938 94.16 
z
" style="fill:#ffffff;"/>
   </g>
   <g id="matplotlib.axis_1">
    <g id="xtick_1">
     <g id="line2d_1">
      <defs>
       <path d="M 0 0 
L 0 3.5 
" id="mde2fbcd2ca" style="stroke:#000000;stroke-width:0.8;"/>
      </defs>
      <g>
       <use style="stroke:#000000;stroke-width:0.8;" x="115.184859" xlink:href="#mde2fbcd2ca" y="155.71"/>
      </g>
     </g>
    </g>
    <g id="xtick_2">
     <g id="line2d_2">
      <g>
       <use style="stroke:#000000;stroke-width:0.8;" x="157.245614" xlink:href="#mde2fbcd2ca" y="155.71"/>
      </g>
     </g>
    </g>
    <g id="xtick_3">
     <g id="line2d_3">
      <g>
       <use style="stroke:#000000;stroke-width:0.8;" x="199.30637" xlink:href="#mde2fbcd2ca" y="155.71"/>
      </g>
     </g>
    </g>
    <g id="xtick_4">
     <g id="line2d_4">
      <g>
       <use style="stroke:#000000;stroke-width:0.8;" x="241.367125" xlink:href="#mde2fbcd2ca" y="155.71"/>
      </g>
     </g>
    </g>
    <g id="xtick_5">
     <g id="line2d_5">
      <g>
       <use style="stroke:#000000;stroke-width:0.8;" x="283.42788" xlink:href="#mde2fbcd2ca" y="155.71"/>
      </g>
     </g>
    </g>
    <g id="xtick_6">
     <g id="line2d_6">
      <g>
       <use style="stroke:#000000;stroke-width:0.8;" x="325.488636" xlink:href="#mde2fbcd2ca" y="155.71"/>
      </g>
     </g>
    </g>
   </g>
   <g id="matplotlib.axis_2">
    <g id="ytick_1">
     <g id="line2d_7">
      <defs>
       <path d="M 0 0 
L -3.5 0 
" id="me7a2676ad5" style="stroke:#000000;stroke-width:0.8;"/>
      </defs>
      <g>
       <use style="stroke:#000000;stroke-width:0.8;" x="106.265938" xlink:href="#me7a2676ad5" y="152.912273"/>
      </g>
     </g>
     <g id="text_1">
      <!-- 0.90 -->
      <g transform="translate(77.000313 156.711491)scale(0.1 -0.1)">
       <defs>
        <path d="M 2034 4250 
Q 1547 4250 1301 3770 
Q 1056 3291 1056 2328 
Q 1056 1369 1301 889 
Q 1547 409 2034 409 
Q 2525 409 2770 889 
Q 3016 1369 3016 2328 
Q 3016 3291 2770 3770 
Q 2525 4250 2034 4250 
z
M 2034 4750 
Q 2819 4750 3233 4129 
Q 3647 3509 3647 2328 
Q 3647 1150 3233 529 
Q 2819 -91 2034 -91 
Q 1250 -91 836 529 
Q 422 1150 422 2328 
Q 422 3509 836 4129 
Q 1250 4750 2034 4750 
z
" id="DejaVuSans-30" transform="scale(0.015625)"/>
        <path d="M 684 794 
L 1344 794 
L 1344 0 
L 684 0 
L 684 794 
z
" id="DejaVuSans-2e" transform="scale(0.015625)"/>
        <path d="M 703 97 
L 703 672 
Q 941 559 1184 500 
Q 1428 441 1663 441 
Q 2288 441 2617 861 
Q 2947 1281 2994 2138 
Q 2813 1869 2534 1725 
Q 2256 1581 1919 1581 
Q 1219 1581 811 2004 
Q 403 2428 403 3163 
Q 403 3881 828 4315 
Q 1253 4750 1959 4750 
Q 2769 4750 3195 4129 
Q 3622 3509 3622 2328 
Q 3622 1225 3098 567 
Q 2575 -91 1691 -91 
Q 1453 -91 1209 -44 
Q 966 3 703 97 
z
M 1959 2075 
Q 2384 2075 2632 2365 
Q 2881 2656 2881 3163 
Q 2881 3666 2632 3958 
Q 2384 4250 1959 4250 
Q 1534 4250 1286 3958 
Q 1038 3666 1038 3163 
Q 1038 2656 1286 2365 
Q 1534 2075 1959 2075 
z
" id="DejaVuSans-39" transform="scale(0.015625)"/>
       </defs>
       <use xlink:href="#DejaVuSans-30"/>
       <use x="63.623047" xlink:href="#DejaVuSans-2e"/>
       <use x="95.410156" xlink:href="#DejaVuSans-39"/>
       <use x="159.033203" xlink:href="#DejaVuSans-30"/>
      </g>
     </g>
    </g>
    <g id="ytick_2">
     <g id="line2d_8">
      <g>
       <use style="stroke:#000000;stroke-width:0.8;" x="106.265938" xlink:href="#me7a2676ad5" y="124.935"/>
      </g>
     </g>
     <g id="text_2">
      <!-- 0.95 -->
      <g transform="translate(77.000313 128.734219)scale(0.1 -0.1)">
       <defs>
        <path d="M 691 4666 
L 3169 4666 
L 3169 4134 
L 1269 4134 
L 1269 2991 
Q 1406 3038 1543 3061 
Q 1681 3084 1819 3084 
Q 2600 3084 3056 2656 
Q 3513 2228 3513 1497 
Q 3513 744 3044 326 
Q 2575 -91 1722 -91 
Q 1428 -91 1123 -41 
Q 819 9 494 109 
L 494 744 
Q 775 591 1075 516 
Q 1375 441 1709 441 
Q 2250 441 2565 725 
Q 2881 1009 2881 1497 
Q 2881 1984 2565 2268 
Q 2250 2553 1709 2553 
Q 1456 2553 1204 2497 
Q 953 2441 691 2322 
L 691 4666 
z
" id="DejaVuSans-35" transform="scale(0.015625)"/>
       </defs>
       <use xlink:href="#DejaVuSans-30"/>
       <use x="63.623047" xlink:href="#DejaVuSans-2e"/>
       <use x="95.410156" xlink:href="#DejaVuSans-39"/>
       <use x="159.033203" xlink:href="#DejaVuSans-35"/>
      </g>
     </g>
    </g>
    <g id="ytick_3">
     <g id="line2d_9">
      <g>
       <use style="stroke:#000000;stroke-width:0.8;" x="106.265938" xlink:href="#me7a2676ad5" y="96.957727"/>
      </g>
     </g>
     <g id="text_3">
      <!-- 1.00 -->
      <g transform="translate(77.000313 100.756946)scale(0.1 -0.1)">
       <defs>
        <path d="M 794 531 
L 1825 531 
L 1825 4091 
L 703 3866 
L 703 4441 
L 1819 4666 
L 2450 4666 
L 2450 531 
L 3481 531 
L 3481 0 
L 794 0 
L 794 531 
z
" id="DejaVuSans-31" transform="scale(0.015625)"/>
       </defs>
       <use xlink:href="#DejaVuSans-31"/>
       <use x="63.623047" xlink:href="#DejaVuSans-2e"/>
       <use x="95.410156" xlink:href="#DejaVuSans-30"/>
       <use x="159.033203" xlink:href="#DejaVuSans-30"/>
      </g>
     </g>
    </g>
    <g id="text_4">
     <!-- T = 10 K -->
     <g transform="translate(11.0175 122.439375)scale(0.12 -0.12)">
      <defs>
       <path d="M -19 4666 
L 3928 4666 
L 3928 4134 
L 2272 4134 
L 2272 0 
L 1638 0 
L 1638 4134 
L -19 4134 
L -19 4666 
z
" id="DejaVuSans-54" transform="scale(0.015625)"/>
       <path id="DejaVuSans-20" transform="scale(0.015625)"/>
       <path d="M 678 2906 
L 4684 2906 
L 4684 2381 
L 678 2381 
L 678 2906 
z
M 678 1631 
L 4684 1631 
L 4684 1100 
L 678 1100 
L 678 1631 
z
" id="DejaVuSans-3d" transform="scale(0.015625)"/>
       <path d="M 628 4666 
L 1259 4666 
L 1259 2694 
L 3353 4666 
L 4166 4666 
L 1850 2491 
L 4331 0 
L 3500 0 
L 1259 2247 
L 1259 0 
L 628 0 
L 628 4666 
z
" id="DejaVuSans-4b" transform="scale(0.015625)"/>
      </defs>
      <use xlink:href="#DejaVuSans-54"/>
      <use x="61.083984" xlink:href="#DejaVuSans-20"/>
      <use x="92.871094" xlink:href="#DejaVuSans-3d"/>
      <use x="176.660156" xlink:href="#DejaVuSans-20"/>
      <use x="208.447266" xlink:href="#DejaVuSans-31"/>
      <use x="272.070312" xlink:href="#DejaVuSans-30"/>
      <use x="335.693359" xlink:href="#DejaVuSans-20"/>
      <use x="367.480469" xlink:href="#DejaVuSans-4b"/>
     </g>
    </g>
   </g>
   <g id="LineCollection_1">
    <path clip-path="url(#pac193388fa)" d="M 195.33919 152.912273 
L 195.33919 96.957727 
" style="fill:none;stroke:#000000;stroke-width:1.5;"/>
   </g>
   <g id="LineCollection_2">
    <path clip-path="url(#pac193388fa)" d="M 194.439623 152.912273 
L 194.439623 96.957727 
" style="fill:none;stroke:#000000;stroke-dasharray:5.55,2.4;stroke-dashoffset:0;stroke-width:1.5;"/>
   </g>
   <g id="LineCollection_3">
    <path clip-path="url(#pac193388fa)" d="M 193.030373 152.912273 
L 193.030373 96.957727 
" style="fill:none;stroke:#000000;stroke-dasharray:1.5,2.475;stroke-dashoffset:0;stroke-width:1.5;"/>
   </g>
   <g id="line2d_10">
    <path clip-path="url(#pac193388fa)" d="M 215.578159 96.957728 
L 206.361597 97.065554 
L 205.162784 97.302381 
L 204.338612 97.679428 
L 203.664297 98.228915 
L 203.02745 99.056504 
L 202.42807 100.221347 
L 201.828695 101.881499 
L 201.191865 104.326095 
L 200.51758 107.821118 
L 199.768383 112.907654 
L 198.869357 120.618403 
L 197.221172 137.242685 
L 196.172348 146.585047 
L 195.535569 150.539672 
L 195.048625 152.332308 
L 194.711512 152.867552 
L 194.48677 152.889432 
L 194.26203 152.641026 
L 193.962377 151.89397 
L 193.550356 150.121276 
L 193.02597 146.735459 
L 192.314309 140.536179 
L 190.928463 125.971332 
L 189.692463 113.991784 
L 188.83102 107.618684 
L 188.081949 103.594384 
L 187.407792 101.063344 
L 186.771093 99.445898 
L 186.134401 98.3974 
L 185.497714 97.752731 
L 184.78613 97.344963 
L 183.887298 97.101176 
L 182.50162 96.983499 
L 178.41965 96.957771 
L 178.157514 96.957755 
L 178.157514 96.957755 
" style="fill:none;stroke:#a65628;stroke-linecap:square;"/>
   </g>
   <g id="patch_3">
    <path d="M 106.265938 155.71 
L 106.265938 94.16 
" style="fill:none;stroke:#000000;stroke-linecap:square;stroke-linejoin:miter;stroke-width:0.8;"/>
   </g>
   <g id="patch_4">
    <path d="M 335.824271 155.71 
L 335.824271 94.16 
" style="fill:none;stroke:#000000;stroke-linecap:square;stroke-linejoin:miter;stroke-width:0.8;"/>
   </g>
   <g id="patch_5">
    <path d="M 106.265937 155.71 
L 335.824271 155.71 
" style="fill:none;stroke:#000000;stroke-linecap:square;stroke-linejoin:miter;stroke-width:0.8;"/>
   </g>
   <g id="patch_6">
    <path d="M 106.265937 94.16 
L 335.824271 94.16 
" style="fill:none;stroke:#000000;stroke-linecap:square;stroke-linejoin:miter;stroke-width:0.8;"/>
   </g>
   <g id="text_5">
    <!-- ground_B = 0.001 -->
    <g transform="translate(166.684167 88.16)scale(0.12 -0.12)">
     <defs>
      <path d="M 2906 1791 
Q 2906 2416 2648 2759 
Q 2391 3103 1925 3103 
Q 1463 3103 1205 2759 
Q 947 2416 947 1791 
Q 947 1169 1205 825 
Q 1463 481 1925 481 
Q 2391 481 2648 825 
Q 2906 1169 2906 1791 
z
M 3481 434 
Q 3481 -459 3084 -895 
Q 2688 -1331 1869 -1331 
Q 1566 -1331 1297 -1286 
Q 1028 -1241 775 -1147 
L 775 -588 
Q 1028 -725 1275 -790 
Q 1522 -856 1778 -856 
Q 2344 -856 2625 -561 
Q 2906 -266 2906 331 
L 2906 616 
Q 2728 306 2450 153 
Q 2172 0 1784 0 
Q 1141 0 747 490 
Q 353 981 353 1791 
Q 353 2603 747 3093 
Q 1141 3584 1784 3584 
Q 2172 3584 2450 3431 
Q 2728 3278 2906 2969 
L 2906 3500 
L 3481 3500 
L 3481 434 
z
" id="DejaVuSans-67" transform="scale(0.015625)"/>
      <path d="M 2631 2963 
Q 2534 3019 2420 3045 
Q 2306 3072 2169 3072 
Q 1681 3072 1420 2755 
Q 1159 2438 1159 1844 
L 1159 0 
L 581 0 
L 581 3500 
L 1159 3500 
L 1159 2956 
Q 1341 3275 1631 3429 
Q 1922 3584 2338 3584 
Q 2397 3584 2469 3576 
Q 2541 3569 2628 3553 
L 2631 2963 
z
" id="DejaVuSans-72" transform="scale(0.015625)"/>
      <path d="M 1959 3097 
Q 1497 3097 1228 2736 
Q 959 2375 959 1747 
Q 959 1119 1226 758 
Q 1494 397 1959 397 
Q 2419 397 2687 759 
Q 2956 1122 2956 1747 
Q 2956 2369 2687 2733 
Q 2419 3097 1959 3097 
z
M 1959 3584 
Q 2709 3584 3137 3096 
Q 3566 2609 3566 1747 
Q 3566 888 3137 398 
Q 2709 -91 1959 -91 
Q 1206 -91 779 398 
Q 353 888 353 1747 
Q 353 2609 779 3096 
Q 1206 3584 1959 3584 
z
" id="DejaVuSans-6f" transform="scale(0.015625)"/>
      <path d="M 544 1381 
L 544 3500 
L 1119 3500 
L 1119 1403 
Q 1119 906 1312 657 
Q 1506 409 1894 409 
Q 2359 409 2629 706 
Q 2900 1003 2900 1516 
L 2900 3500 
L 3475 3500 
L 3475 0 
L 2900 0 
L 2900 538 
Q 2691 219 2414 64 
Q 2138 -91 1772 -91 
Q 1169 -91 856 284 
Q 544 659 544 1381 
z
M 1991 3584 
L 1991 3584 
z
" id="DejaVuSans-75" transform="scale(0.015625)"/>
      <path d="M 3513 2113 
L 3513 0 
L 2938 0 
L 2938 2094 
Q 2938 2591 2744 2837 
Q 2550 3084 2163 3084 
Q 1697 3084 1428 2787 
Q 1159 2491 1159 1978 
L 1159 0 
L 581 0 
L 581 3500 
L 1159 3500 
L 1159 2956 
Q 1366 3272 1645 3428 
Q 1925 3584 2291 3584 
Q 2894 3584 3203 3211 
Q 3513 2838 3513 2113 
z
" id="DejaVuSans-6e" transform="scale(0.015625)"/>
      <path d="M 2906 2969 
L 2906 4863 
L 3481 4863 
L 3481 0 
L 2906 0 
L 2906 525 
Q 2725 213 2448 61 
Q 2172 -91 1784 -91 
Q 1150 -91 751 415 
Q 353 922 353 1747 
Q 353 2572 751 3078 
Q 1150 3584 1784 3584 
Q 2172 3584 2448 3432 
Q 2725 3281 2906 2969 
z
M 947 1747 
Q 947 1113 1208 752 
Q 1469 391 1925 391 
Q 2381 391 2643 752 
Q 2906 1113 2906 1747 
Q 2906 2381 2643 2742 
Q 2381 3103 1925 3103 
Q 1469 3103 1208 2742 
Q 947 2381 947 1747 
z
" id="DejaVuSans-64" transform="scale(0.015625)"/>
      <path d="M 3263 -1063 
L 3263 -1509 
L -63 -1509 
L -63 -1063 
L 3263 -1063 
z
" id="DejaVuSans-5f" transform="scale(0.015625)"/>
      <path d="M 1259 2228 
L 1259 519 
L 2272 519 
Q 2781 519 3026 730 
Q 3272 941 3272 1375 
Q 3272 1813 3026 2020 
Q 2781 2228 2272 2228 
L 1259 2228 
z
M 1259 4147 
L 1259 2741 
L 2194 2741 
Q 2656 2741 2882 2914 
Q 3109 3088 3109 3444 
Q 3109 3797 2882 3972 
Q 2656 4147 2194 4147 
L 1259 4147 
z
M 628 4666 
L 2241 4666 
Q 2963 4666 3353 4366 
Q 3744 4066 3744 3513 
Q 3744 3084 3544 2831 
Q 3344 2578 2956 2516 
Q 3422 2416 3680 2098 
Q 3938 1781 3938 1306 
Q 3938 681 3513 340 
Q 3088 0 2303 0 
L 628 0 
L 628 4666 
z
" id="DejaVuSans-42" transform="scale(0.015625)"/>
     </defs>
     <use xlink:href="#DejaVuSans-67"/>
     <use x="63.476562" xlink:href="#DejaVuSans-72"/>
     <use x="102.339844" xlink:href="#DejaVuSans-6f"/>
     <use x="163.521484" xlink:href="#DejaVuSans-75"/>
     <use x="226.900391" xlink:href="#DejaVuSans-6e"/>
     <use x="290.279297" xlink:href="#DejaVuSans-64"/>
     <use x="353.755859" xlink:href="#DejaVuSans-5f"/>
     <use x="403.755859" xlink:href="#DejaVuSans-42"/>
     <use x="472.359375" xlink:href="#DejaVuSans-20"/>
     <use x="504.146484" xlink:href="#DejaVuSans-3d"/>
     <use x="587.935547" xlink:href="#DejaVuSans-20"/>
     <use x="619.722656" xlink:href="#DejaVuSans-30"/>
     <use x="683.345703" xlink:href="#DejaVuSans-2e"/>
     <use x="715.132812" xlink:href="#DejaVuSans-30"/>
     <use x="778.755859" xlink:href="#DejaVuSans-30"/>
     <use x="842.378906" xlink:href="#DejaVuSans-31"/>
    </g>
   </g>
  </g>
  <g id="axes_2">
   <g id="patch_7">
    <path d="M 362.436771 155.71 
L 591.995104 155.71 
L 591.995104 94.16 
L 362.436771 94.16 
z
" style="fill:#ffffff;"/>
   </g>
   <g id="matplotlib.axis_3">
    <g id="xtick_7">
     <g id="line2d_11">
      <g>
       <use style="stroke:#000000;stroke-width:0.8;" x="371.355692" xlink:href="#mde2fbcd2ca" y="155.71"/>
      </g>
     </g>
    </g>
    <g id="xtick_8">
     <g id="line2d_12">
      <g>
       <use style="stroke:#000000;stroke-width:0.8;" x="413.416448" xlink:href="#mde2fbcd2ca" y="155.71"/>
      </g>
     </g>
    </g>
    <g id="xtick_9">
     <g id="line2d_13">
      <g>
       <use style="stroke:#000000;stroke-width:0.8;" x="455.477203" xlink:href="#mde2fbcd2ca" y="155.71"/>
      </g>
     </g>
    </g>
    <g id="xtick_10">
     <g id="line2d_14">
      <g>
       <use style="stroke:#000000;stroke-width:0.8;" x="497.537958" xlink:href="#mde2fbcd2ca" y="155.71"/>
      </g>
     </g>
    </g>
    <g id="xtick_11">
     <g id="line2d_15">
      <g>
       <use style="stroke:#000000;stroke-width:0.8;" x="539.598714" xlink:href="#mde2fbcd2ca" y="155.71"/>
      </g>
     </g>
    </g>
    <g id="xtick_12">
     <g id="line2d_16">
      <g>
       <use style="stroke:#000000;stroke-width:0.8;" x="581.659469" xlink:href="#mde2fbcd2ca" y="155.71"/>
      </g>
     </g>
    </g>
   </g>
   <g id="matplotlib.axis_4">
    <g id="ytick_4">
     <g id="line2d_17">
      <g>
       <use style="stroke:#000000;stroke-width:0.8;" x="362.436771" xlink:href="#me7a2676ad5" y="152.912273"/>
      </g>
     </g>
    </g>
    <g id="ytick_5">
     <g id="line2d_18">
      <g>
       <use style="stroke:#000000;stroke-width:0.8;" x="362.436771" xlink:href="#me7a2676ad5" y="124.935"/>
      </g>
     </g>
    </g>
    <g id="ytick_6">
     <g id="line2d_19">
      <g>
       <use style="stroke:#000000;stroke-width:0.8;" x="362.436771" xlink:href="#me7a2676ad5" y="96.957727"/>
      </g>
     </g>
    </g>
   </g>
   <g id="LineCollection_4">
    <path clip-path="url(#pef1411e9b5)" d="M 452.924674 152.912273 
L 452.924674 96.957727 
" style="fill:none;stroke:#000000;stroke-width:1.5;"/>
   </g>
   <g id="LineCollection_5">
    <path clip-path="url(#pef1411e9b5)" d="M 450.616583 152.912273 
L 450.616583 96.957727 
" style="fill:none;stroke:#000000;stroke-dasharray:5.55,2.4;stroke-dashoffset:0;stroke-width:1.5;"/>
   </g>
   <g id="LineCollection_6">
    <path clip-path="url(#pef1411e9b5)" d="M 447.727943 152.912273 
L 447.727943 96.957727 
" style="fill:none;stroke:#000000;stroke-dasharray:1.5,2.475;stroke-dashoffset:0;stroke-width:1.5;"/>
   </g>
   <g id="line2d_20">
    <path clip-path="url(#pef1411e9b5)" d="M 520.532819 96.957727 
L 466.758454 97.066726 
L 465.167457 97.313283 
L 464.144692 97.680118 
L 463.349219 98.172353 
L 462.553755 98.939104 
L 461.871936 99.895402 
L 461.190124 101.206678 
L 460.394684 103.284883 
L 459.599254 106.049706 
L 458.690202 110.125717 
L 457.667533 115.857774 
L 456.303997 124.990675 
L 453.577006 143.7319 
L 452.668032 148.366638 
L 451.98631 150.856363 
L 451.418213 152.198316 
L 450.963739 152.772838 
L 450.622886 152.912273 
L 450.282034 152.805703 
L 449.941184 152.4587 
L 449.486719 151.633571 
L 448.918643 150.042765 
L 448.236958 147.353411 
L 447.441666 143.207328 
L 446.419162 136.478346 
L 444.828631 124.119202 
L 443.238135 112.340273 
L 442.329297 107.043341 
L 441.534073 103.519751 
L 440.738859 100.991212 
L 440.057254 99.498612 
L 439.375655 98.494255 
L 438.694063 97.850504 
L 437.898881 97.408944 
L 436.876517 97.131977 
L 435.399796 96.996167 
L 431.651338 96.95818 
L 407.007416 96.957727 
L 407.007416 96.957727 
" style="fill:none;stroke:#a65628;stroke-linecap:square;"/>
   </g>
   <g id="patch_8">
    <path d="M 362.436771 155.71 
L 362.436771 94.16 
" style="fill:none;stroke:#000000;stroke-linecap:square;stroke-linejoin:miter;stroke-width:0.8;"/>
   </g>
   <g id="patch_9">
    <path d="M 591.995104 155.71 
L 591.995104 94.16 
" style="fill:none;stroke:#000000;stroke-linecap:square;stroke-linejoin:miter;stroke-width:0.8;"/>
   </g>
   <g id="patch_10">
    <path d="M 362.436771 155.71 
L 591.995104 155.71 
" style="fill:none;stroke:#000000;stroke-linecap:square;stroke-linejoin:miter;stroke-width:0.8;"/>
   </g>
   <g id="patch_11">
    <path d="M 362.436771 94.16 
L 591.995104 94.16 
" style="fill:none;stroke:#000000;stroke-linecap:square;stroke-linejoin:miter;stroke-width:0.8;"/>
   </g>
   <g id="text_6">
    <!-- ground_B = 0.005 -->
    <g transform="translate(422.855 88.16)scale(0.12 -0.12)">
     <use xlink:href="#DejaVuSans-67"/>
     <use x="63.476562" xlink:href="#DejaVuSans-72"/>
     <use x="102.339844" xlink:href="#DejaVuSans-6f"/>
     <use x="163.521484" xlink:href="#DejaVuSans-75"/>
     <use x="226.900391" xlink:href="#DejaVuSans-6e"/>
     <use x="290.279297" xlink:href="#DejaVuSans-64"/>
     <use x="353.755859" xlink:href="#DejaVuSans-5f"/>
     <use x="403.755859" xlink:href="#DejaVuSans-42"/>
     <use x="472.359375" xlink:href="#DejaVuSans-20"/>
     <use x="504.146484" xlink:href="#DejaVuSans-3d"/>
     <use x="587.935547" xlink:href="#DejaVuSans-20"/>
     <use x="619.722656" xlink:href="#DejaVuSans-30"/>
     <use x="683.345703" xlink:href="#DejaVuSans-2e"/>
     <use x="715.132812" xlink:href="#DejaVuSans-30"/>
     <use x="778.755859" xlink:href="#DejaVuSans-30"/>
     <use x="842.378906" xlink:href="#DejaVuSans-35"/>
    </g>
   </g>
  </g>
  <g id="axes_3">
   <g id="patch_12">
    <path d="M 618.607604 155.71 
L 848.165938 155.71 
L 848.165938 94.16 
L 618.607604 94.16 
z
" style="fill:#ffffff;"/>
   </g>
   <g id="matplotlib.axis_5">
    <g id="xtick_13">
     <g id="line2d_21">
      <g>
       <use style="stroke:#000000;stroke-width:0.8;" x="627.526526" xlink:href="#mde2fbcd2ca" y="155.71"/>
      </g>
     </g>
    </g>
    <g id="xtick_14">
     <g id="line2d_22">
      <g>
       <use style="stroke:#000000;stroke-width:0.8;" x="669.587281" xlink:href="#mde2fbcd2ca" y="155.71"/>
      </g>
     </g>
    </g>
    <g id="xtick_15">
     <g id="line2d_23">
      <g>
       <use style="stroke:#000000;stroke-width:0.8;" x="711.648036" xlink:href="#mde2fbcd2ca" y="155.71"/>
      </g>
     </g>
    </g>
    <g id="xtick_16">
     <g id="line2d_24">
      <g>
       <use style="stroke:#000000;stroke-width:0.8;" x="753.708792" xlink:href="#mde2fbcd2ca" y="155.71"/>
      </g>
     </g>
    </g>
    <g id="xtick_17">
     <g id="line2d_25">
      <g>
       <use style="stroke:#000000;stroke-width:0.8;" x="795.769547" xlink:href="#mde2fbcd2ca" y="155.71"/>
      </g>
     </g>
    </g>
    <g id="xtick_18">
     <g id="line2d_26">
      <g>
       <use style="stroke:#000000;stroke-width:0.8;" x="837.830302" xlink:href="#mde2fbcd2ca" y="155.71"/>
      </g>
     </g>
    </g>
   </g>
   <g id="matplotlib.axis_6">
    <g id="ytick_7">
     <g id="line2d_27">
      <g>
       <use style="stroke:#000000;stroke-width:0.8;" x="618.607604" xlink:href="#me7a2676ad5" y="152.912273"/>
      </g>
     </g>
    </g>
    <g id="ytick_8">
     <g id="line2d_28">
      <g>
       <use style="stroke:#000000;stroke-width:0.8;" x="618.607604" xlink:href="#me7a2676ad5" y="124.935"/>
      </g>
     </g>
    </g>
    <g id="ytick_9">
     <g id="line2d_29">
      <g>
       <use style="stroke:#000000;stroke-width:0.8;" x="618.607604" xlink:href="#me7a2676ad5" y="96.957727"/>
      </g>
     </g>
    </g>
   </g>
   <g id="LineCollection_7">
    <path clip-path="url(#p68af96edd9)" d="M 710.135427 152.912273 
L 710.135427 96.957727 
" style="fill:none;stroke:#000000;stroke-width:1.5;"/>
   </g>
   <g id="LineCollection_8">
    <path clip-path="url(#p68af96edd9)" d="M 706.780253 152.912273 
L 706.780253 96.957727 
" style="fill:none;stroke:#000000;stroke-dasharray:5.55,2.4;stroke-dashoffset:0;stroke-width:1.5;"/>
   </g>
   <g id="LineCollection_9">
    <path clip-path="url(#p68af96edd9)" d="M 702.777658 152.912273 
L 702.777658 96.957727 
" style="fill:none;stroke:#000000;stroke-dasharray:1.5,2.475;stroke-dashoffset:0;stroke-width:1.5;"/>
   </g>
   <g id="line2d_30">
    <path clip-path="url(#p68af96edd9)" d="M 837.731468 96.957727 
L 726.728526 97.05507 
L 724.848645 97.276617 
L 723.59542 97.628409 
L 722.551083 98.161186 
L 721.715624 98.830263 
L 720.880176 99.799763 
L 720.044738 101.157631 
L 719.209309 102.99067 
L 718.373891 105.368895 
L 717.329632 109.15538 
L 716.076542 114.802443 
L 714.19695 124.699108 
L 711.064409 141.196324 
L 709.811432 146.866599 
L 708.976126 149.891478 
L 708.349654 151.550689 
L 707.723187 152.57147 
L 707.305545 152.873602 
L 706.887906 152.878895 
L 706.47027 152.610304 
L 705.84382 151.775799 
L 705.008562 150.098234 
L 703.755694 146.978367 
L 702.502849 143.26732 
L 701.667632 140.117908 
L 700.832424 136.147301 
L 699.788428 129.992959 
L 696.447748 108.714987 
L 695.612603 104.974703 
L 694.777469 102.164447 
L 693.942344 100.184729 
L 693.107229 98.870935 
L 692.272124 98.04582 
L 691.437029 97.553177 
L 690.393175 97.224538 
L 688.931805 97.037769 
L 686.009157 96.963563 
L 662.423713 96.957727 
L 629.042074 96.957727 
L 629.042074 96.957727 
" style="fill:none;stroke:#a65628;stroke-linecap:square;"/>
   </g>
   <g id="patch_13">
    <path d="M 618.607604 155.71 
L 618.607604 94.16 
" style="fill:none;stroke:#000000;stroke-linecap:square;stroke-linejoin:miter;stroke-width:0.8;"/>
   </g>
   <g id="patch_14">
    <path d="M 848.165938 155.71 
L 848.165938 94.16 
" style="fill:none;stroke:#000000;stroke-linecap:square;stroke-linejoin:miter;stroke-width:0.8;"/>
   </g>
   <g id="patch_15">
    <path d="M 618.607604 155.71 
L 848.165937 155.71 
" style="fill:none;stroke:#000000;stroke-linecap:square;stroke-linejoin:miter;stroke-width:0.8;"/>
   </g>
   <g id="patch_16">
    <path d="M 618.607604 94.16 
L 848.165937 94.16 
" style="fill:none;stroke:#000000;stroke-linecap:square;stroke-linejoin:miter;stroke-width:0.8;"/>
   </g>
   <g id="text_7">
    <!-- ground_B = 0.01 -->
    <g transform="translate(682.843333 88.16)scale(0.12 -0.12)">
     <use xlink:href="#DejaVuSans-67"/>
     <use x="63.476562" xlink:href="#DejaVuSans-72"/>
     <use x="102.339844" xlink:href="#DejaVuSans-6f"/>
     <use x="163.521484" xlink:href="#DejaVuSans-75"/>
     <use x="226.900391" xlink:href="#DejaVuSans-6e"/>
     <use x="290.279297" xlink:href="#DejaVuSans-64"/>
     <use x="353.755859" xlink:href="#DejaVuSans-5f"/>
     <use x="403.755859" xlink:href="#DejaVuSans-42"/>
     <use x="472.359375" xlink:href="#DejaVuSans-20"/>
     <use x="504.146484" xlink:href="#DejaVuSans-3d"/>
     <use x="587.935547" xlink:href="#DejaVuSans-20"/>
     <use x="619.722656" xlink:href="#DejaVuSans-30"/>
     <use x="683.345703" xlink:href="#DejaVuSans-2e"/>
     <use x="715.132812" xlink:href="#DejaVuSans-30"/>
     <use x="778.755859" xlink:href="#DejaVuSans-31"/>
    </g>
   </g>
  </g>
  <g id="axes_4">
   <g id="patch_17">
    <path d="M 106.265938 238.06 
L 335.824271 238.06 
L 335.824271 176.51 
L 106.265938 176.51 
z
" style="fill:#ffffff;"/>
   </g>
   <g id="matplotlib.axis_7">
    <g id="xtick_19">
     <g id="line2d_31">
      <g>
       <use style="stroke:#000000;stroke-width:0.8;" x="115.184859" xlink:href="#mde2fbcd2ca" y="238.06"/>
      </g>
     </g>
    </g>
    <g id="xtick_20">
     <g id="line2d_32">
      <g>
       <use style="stroke:#000000;stroke-width:0.8;" x="157.245614" xlink:href="#mde2fbcd2ca" y="238.06"/>
      </g>
     </g>
    </g>
    <g id="xtick_21">
     <g id="line2d_33">
      <g>
       <use style="stroke:#000000;stroke-width:0.8;" x="199.30637" xlink:href="#mde2fbcd2ca" y="238.06"/>
      </g>
     </g>
    </g>
    <g id="xtick_22">
     <g id="line2d_34">
      <g>
       <use style="stroke:#000000;stroke-width:0.8;" x="241.367125" xlink:href="#mde2fbcd2ca" y="238.06"/>
      </g>
     </g>
    </g>
    <g id="xtick_23">
     <g id="line2d_35">
      <g>
       <use style="stroke:#000000;stroke-width:0.8;" x="283.42788" xlink:href="#mde2fbcd2ca" y="238.06"/>
      </g>
     </g>
    </g>
    <g id="xtick_24">
     <g id="line2d_36">
      <g>
       <use style="stroke:#000000;stroke-width:0.8;" x="325.488636" xlink:href="#mde2fbcd2ca" y="238.06"/>
      </g>
     </g>
    </g>
   </g>
   <g id="matplotlib.axis_8">
    <g id="ytick_10">
     <g id="line2d_37">
      <g>
       <use style="stroke:#000000;stroke-width:0.8;" x="106.265938" xlink:href="#me7a2676ad5" y="235.262273"/>
      </g>
     </g>
     <g id="text_8">
      <!-- 0.90 -->
      <g transform="translate(77.000313 239.061491)scale(0.1 -0.1)">
       <use xlink:href="#DejaVuSans-30"/>
       <use x="63.623047" xlink:href="#DejaVuSans-2e"/>
       <use x="95.410156" xlink:href="#DejaVuSans-39"/>
       <use x="159.033203" xlink:href="#DejaVuSans-30"/>
      </g>
     </g>
    </g>
    <g id="ytick_11">
     <g id="line2d_38">
      <g>
       <use style="stroke:#000000;stroke-width:0.8;" x="106.265938" xlink:href="#me7a2676ad5" y="207.285"/>
      </g>
     </g>
     <g id="text_9">
      <!-- 0.95 -->
      <g transform="translate(77.000313 211.084219)scale(0.1 -0.1)">
       <use xlink:href="#DejaVuSans-30"/>
       <use x="63.623047" xlink:href="#DejaVuSans-2e"/>
       <use x="95.410156" xlink:href="#DejaVuSans-39"/>
       <use x="159.033203" xlink:href="#DejaVuSans-35"/>
      </g>
     </g>
    </g>
    <g id="ytick_12">
     <g id="line2d_39">
      <g>
       <use style="stroke:#000000;stroke-width:0.8;" x="106.265938" xlink:href="#me7a2676ad5" y="179.307727"/>
      </g>
     </g>
     <g id="text_10">
      <!-- 1.00 -->
      <g transform="translate(77.000313 183.106946)scale(0.1 -0.1)">
       <use xlink:href="#DejaVuSans-31"/>
       <use x="63.623047" xlink:href="#DejaVuSans-2e"/>
       <use x="95.410156" xlink:href="#DejaVuSans-30"/>
       <use x="159.033203" xlink:href="#DejaVuSans-30"/>
      </g>
     </g>
    </g>
    <g id="text_11">
     <!-- T = 30 K -->
     <g transform="translate(11.0175 204.789375)scale(0.12 -0.12)">
      <defs>
       <path d="M 2597 2516 
Q 3050 2419 3304 2112 
Q 3559 1806 3559 1356 
Q 3559 666 3084 287 
Q 2609 -91 1734 -91 
Q 1441 -91 1130 -33 
Q 819 25 488 141 
L 488 750 
Q 750 597 1062 519 
Q 1375 441 1716 441 
Q 2309 441 2620 675 
Q 2931 909 2931 1356 
Q 2931 1769 2642 2001 
Q 2353 2234 1838 2234 
L 1294 2234 
L 1294 2753 
L 1863 2753 
Q 2328 2753 2575 2939 
Q 2822 3125 2822 3475 
Q 2822 3834 2567 4026 
Q 2313 4219 1838 4219 
Q 1578 4219 1281 4162 
Q 984 4106 628 3988 
L 628 4550 
Q 988 4650 1302 4700 
Q 1616 4750 1894 4750 
Q 2613 4750 3031 4423 
Q 3450 4097 3450 3541 
Q 3450 3153 3228 2886 
Q 3006 2619 2597 2516 
z
" id="DejaVuSans-33" transform="scale(0.015625)"/>
      </defs>
      <use xlink:href="#DejaVuSans-54"/>
      <use x="61.083984" xlink:href="#DejaVuSans-20"/>
      <use x="92.871094" xlink:href="#DejaVuSans-3d"/>
      <use x="176.660156" xlink:href="#DejaVuSans-20"/>
      <use x="208.447266" xlink:href="#DejaVuSans-33"/>
      <use x="272.070312" xlink:href="#DejaVuSans-30"/>
      <use x="335.693359" xlink:href="#DejaVuSans-20"/>
      <use x="367.480469" xlink:href="#DejaVuSans-4b"/>
     </g>
    </g>
   </g>
   <g id="LineCollection_10">
    <path clip-path="url(#pd85185adca)" d="M 196.185412 235.262273 
L 196.185412 179.307727 
" style="fill:none;stroke:#000000;stroke-width:1.5;"/>
   </g>
   <g id="LineCollection_11">
    <path clip-path="url(#pd85185adca)" d="M 194.960956 235.262273 
L 194.960956 179.307727 
" style="fill:none;stroke:#000000;stroke-dasharray:5.55,2.4;stroke-dashoffset:0;stroke-width:1.5;"/>
   </g>
   <g id="LineCollection_12">
    <path clip-path="url(#pd85185adca)" d="M 192.193167 235.262273 
L 192.193167 179.307727 
" style="fill:none;stroke:#000000;stroke-dasharray:1.5,2.475;stroke-dashoffset:0;stroke-width:1.5;"/>
   </g>
   <g id="line2d_40">
    <path clip-path="url(#pd85185adca)" d="M 215.578159 179.307996 
L 210.070554 179.420744 
L 208.571961 179.670651 
L 207.522966 180.057378 
L 206.661303 180.605206 
L 205.874576 181.380089 
L 205.162784 182.396823 
L 204.450999 183.811242 
L 203.739221 185.72939 
L 202.989989 188.408965 
L 202.165843 192.255521 
L 201.266786 197.585536 
L 200.14298 205.730059 
L 196.996423 229.543233 
L 196.284721 232.935584 
L 195.760314 234.522718 
L 195.348283 235.156664 
L 195.048625 235.257994 
L 194.786426 235.090834 
L 194.48677 234.603905 
L 194.074747 233.420592 
L 193.587813 231.277405 
L 192.951058 227.358171 
L 192.127031 220.769077 
L 190.404097 204.595181 
L 189.205559 194.523393 
L 188.30667 188.75864 
L 187.557604 185.263687 
L 186.845999 182.939717 
L 186.171853 181.467541 
L 185.535166 180.569891 
L 184.861034 179.98784 
L 184.112005 179.629862 
L 183.13828 179.418547 
L 181.490468 179.321933 
L 178.157514 179.307812 
L 178.157514 179.307812 
" style="fill:none;stroke:#a65628;stroke-linecap:square;"/>
   </g>
   <g id="patch_18">
    <path d="M 106.265938 238.06 
L 106.265938 176.51 
" style="fill:none;stroke:#000000;stroke-linecap:square;stroke-linejoin:miter;stroke-width:0.8;"/>
   </g>
   <g id="patch_19">
    <path d="M 335.824271 238.06 
L 335.824271 176.51 
" style="fill:none;stroke:#000000;stroke-linecap:square;stroke-linejoin:miter;stroke-width:0.8;"/>
   </g>
   <g id="patch_20">
    <path d="M 106.265937 238.06 
L 335.824271 238.06 
" style="fill:none;stroke:#000000;stroke-linecap:square;stroke-linejoin:miter;stroke-width:0.8;"/>
   </g>
   <g id="patch_21">
    <path d="M 106.265937 176.51 
L 335.824271 176.51 
" style="fill:none;stroke:#000000;stroke-linecap:square;stroke-linejoin:miter;stroke-width:0.8;"/>
   </g>
  </g>
  <g id="axes_5">
   <g id="patch_22">
    <path d="M 362.436771 238.06 
L 591.995104 238.06 
L 591.995104 176.51 
L 362.436771 176.51 
z
" style="fill:#ffffff;"/>
   </g>
   <g id="matplotlib.axis_9">
    <g id="xtick_25">
     <g id="line2d_41">
      <g>
       <use style="stroke:#000000;stroke-width:0.8;" x="371.355692" xlink:href="#mde2fbcd2ca" y="238.06"/>
      </g>
     </g>
    </g>
    <g id="xtick_26">
     <g id="line2d_42">
      <g>
       <use style="stroke:#000000;stroke-width:0.8;" x="413.416448" xlink:href="#mde2fbcd2ca" y="238.06"/>
      </g>
     </g>
    </g>
    <g id="xtick_27">
     <g id="line2d_43">
      <g>
       <use style="stroke:#000000;stroke-width:0.8;" x="455.477203" xlink:href="#mde2fbcd2ca" y="238.06"/>
      </g>
     </g>
    </g>
    <g id="xtick_28">
     <g id="line2d_44">
      <g>
       <use style="stroke:#000000;stroke-width:0.8;" x="497.537958" xlink:href="#mde2fbcd2ca" y="238.06"/>
      </g>
     </g>
    </g>
    <g id="xtick_29">
     <g id="line2d_45">
      <g>
       <use style="stroke:#000000;stroke-width:0.8;" x="539.598714" xlink:href="#mde2fbcd2ca" y="238.06"/>
      </g>
     </g>
    </g>
    <g id="xtick_30">
     <g id="line2d_46">
      <g>
       <use style="stroke:#000000;stroke-width:0.8;" x="581.659469" xlink:href="#mde2fbcd2ca" y="238.06"/>
      </g>
     </g>
    </g>
   </g>
   <g id="matplotlib.axis_10">
    <g id="ytick_13">
     <g id="line2d_47">
      <g>
       <use style="stroke:#000000;stroke-width:0.8;" x="362.436771" xlink:href="#me7a2676ad5" y="235.262273"/>
      </g>
     </g>
    </g>
    <g id="ytick_14">
     <g id="line2d_48">
      <g>
       <use style="stroke:#000000;stroke-width:0.8;" x="362.436771" xlink:href="#me7a2676ad5" y="207.285"/>
      </g>
     </g>
    </g>
    <g id="ytick_15">
     <g id="line2d_49">
      <g>
       <use style="stroke:#000000;stroke-width:0.8;" x="362.436771" xlink:href="#me7a2676ad5" y="179.307727"/>
      </g>
     </g>
    </g>
   </g>
   <g id="LineCollection_13">
    <path clip-path="url(#pdf1ed2a37b)" d="M 454.797513 235.262273 
L 454.797513 179.307727 
" style="fill:none;stroke:#000000;stroke-width:1.5;"/>
   </g>
   <g id="LineCollection_14">
    <path clip-path="url(#pdf1ed2a37b)" d="M 451.119959 235.262273 
L 451.119959 179.307727 
" style="fill:none;stroke:#000000;stroke-dasharray:5.55,2.4;stroke-dashoffset:0;stroke-width:1.5;"/>
   </g>
   <g id="LineCollection_15">
    <path clip-path="url(#pdf1ed2a37b)" d="M 445.875163 235.262273 
L 445.875163 179.307727 
" style="fill:none;stroke:#000000;stroke-dasharray:1.5,2.475;stroke-dashoffset:0;stroke-width:1.5;"/>
   </g>
   <g id="line2d_50">
    <path clip-path="url(#pdf1ed2a37b)" d="M 520.532819 179.307727 
L 478.464765 179.417896 
L 475.282272 179.660573 
L 473.350115 180.009888 
L 471.872619 180.482187 
L 470.622455 181.104516 
L 469.485962 181.926081 
L 468.463134 182.945808 
L 467.440321 184.30538 
L 466.417523 186.080919 
L 465.39474 188.343762 
L 464.371972 191.147327 
L 463.235581 194.9193 
L 461.871936 200.293378 
L 460.053784 208.507956 
L 455.735865 228.413433 
L 454.713239 232.031572 
L 454.031497 233.806635 
L 453.463383 234.777548 
L 453.008896 235.181883 
L 452.668032 235.262273 
L 452.32717 235.157801 
L 451.87269 234.757201 
L 451.304595 233.92113 
L 449.145873 230.277744 
L 448.577799 229.886747 
L 448.009731 229.79675 
L 446.532773 229.805492 
L 446.078331 229.406291 
L 445.623892 228.608861 
L 445.169456 227.331931 
L 444.601415 225.004075 
L 443.919772 221.176741 
L 442.89732 213.834239 
L 440.398055 195.118463 
L 439.489254 190.110363 
L 438.694063 186.783364 
L 437.898881 184.337066 
L 437.103708 182.608807 
L 436.308544 181.427338 
L 435.513389 180.641494 
L 434.604652 180.074957 
L 433.582337 179.707575 
L 432.219273 179.467356 
L 430.061144 179.340849 
L 424.155027 179.307948 
L 407.007416 179.307727 
L 407.007416 179.307727 
" style="fill:none;stroke:#a65628;stroke-linecap:square;"/>
   </g>
   <g id="patch_23">
    <path d="M 362.436771 238.06 
L 362.436771 176.51 
" style="fill:none;stroke:#000000;stroke-linecap:square;stroke-linejoin:miter;stroke-width:0.8;"/>
   </g>
   <g id="patch_24">
    <path d="M 591.995104 238.06 
L 591.995104 176.51 
" style="fill:none;stroke:#000000;stroke-linecap:square;stroke-linejoin:miter;stroke-width:0.8;"/>
   </g>
   <g id="patch_25">
    <path d="M 362.436771 238.06 
L 591.995104 238.06 
" style="fill:none;stroke:#000000;stroke-linecap:square;stroke-linejoin:miter;stroke-width:0.8;"/>
   </g>
   <g id="patch_26">
    <path d="M 362.436771 176.51 
L 591.995104 176.51 
" style="fill:none;stroke:#000000;stroke-linecap:square;stroke-linejoin:miter;stroke-width:0.8;"/>
   </g>
  </g>
  <g id="axes_6">
   <g id="patch_27">
    <path d="M 618.607604 238.06 
L 848.165938 238.06 
L 848.165938 176.51 
L 618.607604 176.51 
z
" style="fill:#ffffff;"/>
   </g>
   <g id="matplotlib.axis_11">
    <g id="xtick_31">
     <g id="line2d_51">
      <g>
       <use style="stroke:#000000;stroke-width:0.8;" x="627.526526" xlink:href="#mde2fbcd2ca" y="238.06"/>
      </g>
     </g>
    </g>
    <g id="xtick_32">
     <g id="line2d_52">
      <g>
       <use style="stroke:#000000;stroke-width:0.8;" x="669.587281" xlink:href="#mde2fbcd2ca" y="238.06"/>
      </g>
     </g>
    </g>
    <g id="xtick_33">
     <g id="line2d_53">
      <g>
       <use style="stroke:#000000;stroke-width:0.8;" x="711.648036" xlink:href="#mde2fbcd2ca" y="238.06"/>
      </g>
     </g>
    </g>
    <g id="xtick_34">
     <g id="line2d_54">
      <g>
       <use style="stroke:#000000;stroke-width:0.8;" x="753.708792" xlink:href="#mde2fbcd2ca" y="238.06"/>
      </g>
     </g>
    </g>
    <g id="xtick_35">
     <g id="line2d_55">
      <g>
       <use style="stroke:#000000;stroke-width:0.8;" x="795.769547" xlink:href="#mde2fbcd2ca" y="238.06"/>
      </g>
     </g>
    </g>
    <g id="xtick_36">
     <g id="line2d_56">
      <g>
       <use style="stroke:#000000;stroke-width:0.8;" x="837.830302" xlink:href="#mde2fbcd2ca" y="238.06"/>
      </g>
     </g>
    </g>
   </g>
   <g id="matplotlib.axis_12">
    <g id="ytick_16">
     <g id="line2d_57">
      <g>
       <use style="stroke:#000000;stroke-width:0.8;" x="618.607604" xlink:href="#me7a2676ad5" y="235.262273"/>
      </g>
     </g>
    </g>
    <g id="ytick_17">
     <g id="line2d_58">
      <g>
       <use style="stroke:#000000;stroke-width:0.8;" x="618.607604" xlink:href="#me7a2676ad5" y="207.285"/>
      </g>
     </g>
    </g>
    <g id="ytick_18">
     <g id="line2d_59">
      <g>
       <use style="stroke:#000000;stroke-width:0.8;" x="618.607604" xlink:href="#me7a2676ad5" y="179.307727"/>
      </g>
     </g>
    </g>
   </g>
   <g id="LineCollection_16">
    <path clip-path="url(#p00c10ffaa9)" d="M 712.771329 235.262273 
L 712.771329 179.307727 
" style="fill:none;stroke:#000000;stroke-width:1.5;"/>
   </g>
   <g id="LineCollection_17">
    <path clip-path="url(#p00c10ffaa9)" d="M 707.305707 235.262273 
L 707.305707 179.307727 
" style="fill:none;stroke:#000000;stroke-dasharray:5.55,2.4;stroke-dashoffset:0;stroke-width:1.5;"/>
   </g>
   <g id="LineCollection_18">
    <path clip-path="url(#p00c10ffaa9)" d="M 700.170098 235.262273 
L 700.170098 179.307727 
" style="fill:none;stroke:#000000;stroke-dasharray:1.5,2.475;stroke-dashoffset:0;stroke-width:1.5;"/>
   </g>
   <g id="line2d_60">
    <path clip-path="url(#p00c10ffaa9)" d="M 837.731468 179.307727 
L 741.560474 179.414553 
L 737.799963 179.652027 
L 735.501972 179.997014 
L 733.621855 180.50515 
L 732.159576 181.124879 
L 730.906219 181.878316 
L 729.652885 182.901858 
L 728.399573 184.264696 
L 727.355164 185.710427 
L 726.101893 187.871191 
L 724.848645 190.534463 
L 723.59542 193.701362 
L 721.924488 198.598093 
L 716.703084 214.645982 
L 712.73508 225.443486 
L 710.02026 233.860487 
L 709.393778 234.930918 
L 708.976126 235.243329 
L 708.558477 235.184777 
L 708.140831 234.734098 
L 707.723187 233.894504 
L 707.096726 231.979117 
L 706.052636 227.632044 
L 704.799749 222.484232 
L 704.173315 220.746893 
L 703.755694 220.059697 
L 703.338077 219.779166 
L 702.920462 219.895758 
L 702.502849 220.370182 
L 701.876435 221.60452 
L 699.997226 226.060097 
L 699.579631 226.57249 
L 699.162039 226.740186 
L 698.744449 226.517302 
L 698.326861 225.879187 
L 697.909276 224.822343 
L 697.282903 222.492597 
L 696.447748 218.211163 
L 695.195035 210.244429 
L 693.316007 198.198635 
L 692.272124 192.760649 
L 691.228257 188.543932 
L 690.393175 186.002266 
L 689.558103 184.08798 
L 688.72304 182.678593 
L 687.887988 181.658548 
L 686.844187 180.784035 
L 685.800402 180.219794 
L 684.54788 179.808189 
L 682.877886 179.524002 
L 680.37297 179.364408 
L 674.945962 179.310186 
L 629.042074 179.307727 
L 629.042074 179.307727 
" style="fill:none;stroke:#a65628;stroke-linecap:square;"/>
   </g>
   <g id="patch_28">
    <path d="M 618.607604 238.06 
L 618.607604 176.51 
" style="fill:none;stroke:#000000;stroke-linecap:square;stroke-linejoin:miter;stroke-width:0.8;"/>
   </g>
   <g id="patch_29">
    <path d="M 848.165938 238.06 
L 848.165938 176.51 
" style="fill:none;stroke:#000000;stroke-linecap:square;stroke-linejoin:miter;stroke-width:0.8;"/>
   </g>
   <g id="patch_30">
    <path d="M 618.607604 238.06 
L 848.165937 238.06 
" style="fill:none;stroke:#000000;stroke-linecap:square;stroke-linejoin:miter;stroke-width:0.8;"/>
   </g>
   <g id="patch_31">
    <path d="M 618.607604 176.51 
L 848.165937 176.51 
" style="fill:none;stroke:#000000;stroke-linecap:square;stroke-linejoin:miter;stroke-width:0.8;"/>
   </g>
  </g>
  <g id="axes_7">
   <g id="patch_32">
    <path d="M 106.265938 320.41 
L 335.824271 320.41 
L 335.824271 258.86 
L 106.265938 258.86 
z
" style="fill:#ffffff;"/>
   </g>
   <g id="matplotlib.axis_13">
    <g id="xtick_37">
     <g id="line2d_61">
      <g>
       <use style="stroke:#000000;stroke-width:0.8;" x="115.184859" xlink:href="#mde2fbcd2ca" y="320.41"/>
      </g>
     </g>
    </g>
    <g id="xtick_38">
     <g id="line2d_62">
      <g>
       <use style="stroke:#000000;stroke-width:0.8;" x="157.245614" xlink:href="#mde2fbcd2ca" y="320.41"/>
      </g>
     </g>
    </g>
    <g id="xtick_39">
     <g id="line2d_63">
      <g>
       <use style="stroke:#000000;stroke-width:0.8;" x="199.30637" xlink:href="#mde2fbcd2ca" y="320.41"/>
      </g>
     </g>
    </g>
    <g id="xtick_40">
     <g id="line2d_64">
      <g>
       <use style="stroke:#000000;stroke-width:0.8;" x="241.367125" xlink:href="#mde2fbcd2ca" y="320.41"/>
      </g>
     </g>
    </g>
    <g id="xtick_41">
     <g id="line2d_65">
      <g>
       <use style="stroke:#000000;stroke-width:0.8;" x="283.42788" xlink:href="#mde2fbcd2ca" y="320.41"/>
      </g>
     </g>
    </g>
    <g id="xtick_42">
     <g id="line2d_66">
      <g>
       <use style="stroke:#000000;stroke-width:0.8;" x="325.488636" xlink:href="#mde2fbcd2ca" y="320.41"/>
      </g>
     </g>
    </g>
   </g>
   <g id="matplotlib.axis_14">
    <g id="ytick_19">
     <g id="line2d_67">
      <g>
       <use style="stroke:#000000;stroke-width:0.8;" x="106.265938" xlink:href="#me7a2676ad5" y="317.612273"/>
      </g>
     </g>
     <g id="text_12">
      <!-- 0.90 -->
      <g transform="translate(77.000313 321.411491)scale(0.1 -0.1)">
       <use xlink:href="#DejaVuSans-30"/>
       <use x="63.623047" xlink:href="#DejaVuSans-2e"/>
       <use x="95.410156" xlink:href="#DejaVuSans-39"/>
       <use x="159.033203" xlink:href="#DejaVuSans-30"/>
      </g>
     </g>
    </g>
    <g id="ytick_20">
     <g id="line2d_68">
      <g>
       <use style="stroke:#000000;stroke-width:0.8;" x="106.265938" xlink:href="#me7a2676ad5" y="289.635"/>
      </g>
     </g>
     <g id="text_13">
      <!-- 0.95 -->
      <g transform="translate(77.000313 293.434219)scale(0.1 -0.1)">
       <use xlink:href="#DejaVuSans-30"/>
       <use x="63.623047" xlink:href="#DejaVuSans-2e"/>
       <use x="95.410156" xlink:href="#DejaVuSans-39"/>
       <use x="159.033203" xlink:href="#DejaVuSans-35"/>
      </g>
     </g>
    </g>
    <g id="ytick_21">
     <g id="line2d_69">
      <g>
       <use style="stroke:#000000;stroke-width:0.8;" x="106.265938" xlink:href="#me7a2676ad5" y="261.657727"/>
      </g>
     </g>
     <g id="text_14">
      <!-- 1.00 -->
      <g transform="translate(77.000313 265.456946)scale(0.1 -0.1)">
       <use xlink:href="#DejaVuSans-31"/>
       <use x="63.623047" xlink:href="#DejaVuSans-2e"/>
       <use x="95.410156" xlink:href="#DejaVuSans-30"/>
       <use x="159.033203" xlink:href="#DejaVuSans-30"/>
      </g>
     </g>
    </g>
    <g id="text_15">
     <!-- T = 70 K -->
     <g transform="translate(11.0175 287.139375)scale(0.12 -0.12)">
      <defs>
       <path d="M 525 4666 
L 3525 4666 
L 3525 4397 
L 1831 0 
L 1172 0 
L 2766 4134 
L 525 4134 
L 525 4666 
z
" id="DejaVuSans-37" transform="scale(0.015625)"/>
      </defs>
      <use xlink:href="#DejaVuSans-54"/>
      <use x="61.083984" xlink:href="#DejaVuSans-20"/>
      <use x="92.871094" xlink:href="#DejaVuSans-3d"/>
      <use x="176.660156" xlink:href="#DejaVuSans-20"/>
      <use x="208.447266" xlink:href="#DejaVuSans-37"/>
      <use x="272.070312" xlink:href="#DejaVuSans-30"/>
      <use x="335.693359" xlink:href="#DejaVuSans-20"/>
      <use x="367.480469" xlink:href="#DejaVuSans-4b"/>
     </g>
    </g>
   </g>
   <g id="LineCollection_19">
    <path clip-path="url(#p4671b63d5b)" d="M 197.239736 317.612273 
L 197.239736 261.657727 
" style="fill:none;stroke:#000000;stroke-width:1.5;"/>
   </g>
   <g id="LineCollection_20">
    <path clip-path="url(#p4671b63d5b)" d="M 195.967278 317.612273 
L 195.967278 261.657727 
" style="fill:none;stroke:#000000;stroke-dasharray:5.55,2.4;stroke-dashoffset:0;stroke-width:1.5;"/>
   </g>
   <g id="LineCollection_21">
    <path clip-path="url(#p4671b63d5b)" d="M 191.150105 317.612273 
L 191.150105 261.657727 
" style="fill:none;stroke:#000000;stroke-dasharray:1.5,2.475;stroke-dashoffset:0;stroke-width:1.5;"/>
   </g>
   <g id="line2d_70">
    <path clip-path="url(#p4671b63d5b)" d="M 215.578159 261.658898 
L 211.494247 261.775896 
L 210.108019 262.036699 
L 209.096465 262.450061 
L 208.234783 263.045783 
L 207.448038 263.864024 
L 206.661303 265.024145 
L 205.874576 266.614045 
L 205.087859 268.730524 
L 204.263688 271.620528 
L 203.402065 275.480435 
L 202.42807 280.928823 
L 201.229325 289.014856 
L 198.232553 309.888563 
L 197.408464 313.8754 
L 196.734216 316.134869 
L 196.209806 317.196639 
L 195.797772 317.576579 
L 195.498112 317.59174 
L 195.198454 317.380781 
L 194.823883 316.79195 
L 194.3744 315.599917 
L 193.850007 313.536516 
L 193.21325 310.085271 
L 192.38922 304.250789 
L 191.190648 293.922679 
L 189.317921 277.90945 
L 188.381577 271.804602 
L 187.595057 268.025581 
L 186.883451 265.604504 
L 186.209306 264.042144 
L 185.535166 263.027868 
L 184.861034 262.40614 
L 184.112005 262.0177 
L 183.13828 261.78409 
L 181.602817 261.677158 
L 178.157514 261.657834 
L 178.157514 261.657834 
" style="fill:none;stroke:#a65628;stroke-linecap:square;"/>
   </g>
   <g id="patch_33">
    <path d="M 106.265938 320.41 
L 106.265938 258.86 
" style="fill:none;stroke:#000000;stroke-linecap:square;stroke-linejoin:miter;stroke-width:0.8;"/>
   </g>
   <g id="patch_34">
    <path d="M 335.824271 320.41 
L 335.824271 258.86 
" style="fill:none;stroke:#000000;stroke-linecap:square;stroke-linejoin:miter;stroke-width:0.8;"/>
   </g>
   <g id="patch_35">
    <path d="M 106.265937 320.41 
L 335.824271 320.41 
" style="fill:none;stroke:#000000;stroke-linecap:square;stroke-linejoin:miter;stroke-width:0.8;"/>
   </g>
   <g id="patch_36">
    <path d="M 106.265937 258.86 
L 335.824271 258.86 
" style="fill:none;stroke:#000000;stroke-linecap:square;stroke-linejoin:miter;stroke-width:0.8;"/>
   </g>
  </g>
  <g id="axes_8">
   <g id="patch_37">
    <path d="M 362.436771 320.41 
L 591.995104 320.41 
L 591.995104 258.86 
L 362.436771 258.86 
z
" style="fill:#ffffff;"/>
   </g>
   <g id="matplotlib.axis_15">
    <g id="xtick_43">
     <g id="line2d_71">
      <g>
       <use style="stroke:#000000;stroke-width:0.8;" x="371.355692" xlink:href="#mde2fbcd2ca" y="320.41"/>
      </g>
     </g>
    </g>
    <g id="xtick_44">
     <g id="line2d_72">
      <g>
       <use style="stroke:#000000;stroke-width:0.8;" x="413.416448" xlink:href="#mde2fbcd2ca" y="320.41"/>
      </g>
     </g>
    </g>
    <g id="xtick_45">
     <g id="line2d_73">
      <g>
       <use style="stroke:#000000;stroke-width:0.8;" x="455.477203" xlink:href="#mde2fbcd2ca" y="320.41"/>
      </g>
     </g>
    </g>
    <g id="xtick_46">
     <g id="line2d_74">
      <g>
       <use style="stroke:#000000;stroke-width:0.8;" x="497.537958" xlink:href="#mde2fbcd2ca" y="320.41"/>
      </g>
     </g>
    </g>
    <g id="xtick_47">
     <g id="line2d_75">
      <g>
       <use style="stroke:#000000;stroke-width:0.8;" x="539.598714" xlink:href="#mde2fbcd2ca" y="320.41"/>
      </g>
     </g>
    </g>
    <g id="xtick_48">
     <g id="line2d_76">
      <g>
       <use style="stroke:#000000;stroke-width:0.8;" x="581.659469" xlink:href="#mde2fbcd2ca" y="320.41"/>
      </g>
     </g>
    </g>
   </g>
   <g id="matplotlib.axis_16">
    <g id="ytick_22">
     <g id="line2d_77">
      <g>
       <use style="stroke:#000000;stroke-width:0.8;" x="362.436771" xlink:href="#me7a2676ad5" y="317.612273"/>
      </g>
     </g>
    </g>
    <g id="ytick_23">
     <g id="line2d_78">
      <g>
       <use style="stroke:#000000;stroke-width:0.8;" x="362.436771" xlink:href="#me7a2676ad5" y="289.635"/>
      </g>
     </g>
    </g>
    <g id="ytick_24">
     <g id="line2d_79">
      <g>
       <use style="stroke:#000000;stroke-width:0.8;" x="362.436771" xlink:href="#me7a2676ad5" y="261.657727"/>
      </g>
     </g>
    </g>
   </g>
   <g id="LineCollection_22">
    <path clip-path="url(#p038e73a70b)" d="M 457.155975 317.612273 
L 457.155975 261.657727 
" style="fill:none;stroke:#000000;stroke-width:1.5;"/>
   </g>
   <g id="LineCollection_23">
    <path clip-path="url(#p038e73a70b)" d="M 452.135554 317.612273 
L 452.135554 261.657727 
" style="fill:none;stroke:#000000;stroke-dasharray:5.55,2.4;stroke-dashoffset:0;stroke-width:1.5;"/>
   </g>
   <g id="LineCollection_24">
    <path clip-path="url(#p038e73a70b)" d="M 443.542103 317.612273 
L 443.542103 261.657727 
" style="fill:none;stroke:#000000;stroke-dasharray:1.5,2.475;stroke-dashoffset:0;stroke-width:1.5;"/>
   </g>
   <g id="line2d_80">
    <path clip-path="url(#p038e73a70b)" d="M 520.532819 261.657728 
L 497.335394 261.76735 
L 491.309878 262.012811 
L 487.558405 262.375103 
L 484.830188 262.844374 
L 482.556756 263.454617 
L 480.624397 264.204903 
L 478.919419 265.112801 
L 477.441805 266.146718 
L 476.077882 267.358977 
L 474.713985 268.871164 
L 473.350115 270.730989 
L 471.986272 272.975178 
L 470.508805 275.863456 
L 468.917722 279.505333 
L 467.099387 284.287214 
L 464.712893 291.293652 
L 460.394684 304.076946 
L 458.576571 308.696197 
L 457.326646 311.32244 
L 456.417624 312.763123 
L 455.735865 313.458139 
L 455.167738 313.706579 
L 454.713239 313.648288 
L 454.258743 313.335915 
L 453.804251 312.755854 
L 453.236139 311.657543 
L 452.440791 309.518499 
L 450.282034 303.24062 
L 449.827567 302.627045 
L 449.486719 302.481392 
L 449.145873 302.635328 
L 448.805028 303.100796 
L 448.350571 304.196521 
L 447.782504 306.240298 
L 446.759995 311.046737 
L 445.737502 315.52992 
L 445.169456 317.083901 
L 444.828631 317.535877 
L 444.601415 317.612273 
L 444.3742 317.500957 
L 444.033378 316.977258 
L 443.578953 315.626677 
L 443.010925 312.980008 
L 442.215693 307.864548 
L 440.738859 296.299084 
L 439.262056 285.392473 
L 438.239672 279.311753 
L 437.217304 274.543132 
L 436.308544 271.269145 
L 435.399796 268.735965 
L 434.491061 266.793655 
L 433.582337 265.31771 
L 432.560037 264.092025 
L 431.537751 263.221279 
L 430.401897 262.56667 
L 429.152478 262.122199 
L 427.675921 261.844181 
L 425.517933 261.695894 
L 420.520743 261.658487 
L 407.007416 261.657727 
L 407.007416 261.657727 
" style="fill:none;stroke:#a65628;stroke-linecap:square;"/>
   </g>
   <g id="patch_38">
    <path d="M 362.436771 320.41 
L 362.436771 258.86 
" style="fill:none;stroke:#000000;stroke-linecap:square;stroke-linejoin:miter;stroke-width:0.8;"/>
   </g>
   <g id="patch_39">
    <path d="M 591.995104 320.41 
L 591.995104 258.86 
" style="fill:none;stroke:#000000;stroke-linecap:square;stroke-linejoin:miter;stroke-width:0.8;"/>
   </g>
   <g id="patch_40">
    <path d="M 362.436771 320.41 
L 591.995104 320.41 
" style="fill:none;stroke:#000000;stroke-linecap:square;stroke-linejoin:miter;stroke-width:0.8;"/>
   </g>
   <g id="patch_41">
    <path d="M 362.436771 258.86 
L 591.995104 258.86 
" style="fill:none;stroke:#000000;stroke-linecap:square;stroke-linejoin:miter;stroke-width:0.8;"/>
   </g>
  </g>
  <g id="axes_9">
   <g id="patch_42">
    <path d="M 618.607604 320.41 
L 848.165938 320.41 
L 848.165938 258.86 
L 618.607604 258.86 
z
" style="fill:#ffffff;"/>
   </g>
   <g id="matplotlib.axis_17">
    <g id="xtick_49">
     <g id="line2d_81">
      <g>
       <use style="stroke:#000000;stroke-width:0.8;" x="627.526526" xlink:href="#mde2fbcd2ca" y="320.41"/>
      </g>
     </g>
    </g>
    <g id="xtick_50">
     <g id="line2d_82">
      <g>
       <use style="stroke:#000000;stroke-width:0.8;" x="669.587281" xlink:href="#mde2fbcd2ca" y="320.41"/>
      </g>
     </g>
    </g>
    <g id="xtick_51">
     <g id="line2d_83">
      <g>
       <use style="stroke:#000000;stroke-width:0.8;" x="711.648036" xlink:href="#mde2fbcd2ca" y="320.41"/>
      </g>
     </g>
    </g>
    <g id="xtick_52">
     <g id="line2d_84">
      <g>
       <use style="stroke:#000000;stroke-width:0.8;" x="753.708792" xlink:href="#mde2fbcd2ca" y="320.41"/>
      </g>
     </g>
    </g>
    <g id="xtick_53">
     <g id="line2d_85">
      <g>
       <use style="stroke:#000000;stroke-width:0.8;" x="795.769547" xlink:href="#mde2fbcd2ca" y="320.41"/>
      </g>
     </g>
    </g>
    <g id="xtick_54">
     <g id="line2d_86">
      <g>
       <use style="stroke:#000000;stroke-width:0.8;" x="837.830302" xlink:href="#mde2fbcd2ca" y="320.41"/>
      </g>
     </g>
    </g>
   </g>
   <g id="matplotlib.axis_18">
    <g id="ytick_25">
     <g id="line2d_87">
      <g>
       <use style="stroke:#000000;stroke-width:0.8;" x="618.607604" xlink:href="#me7a2676ad5" y="317.612273"/>
      </g>
     </g>
    </g>
    <g id="ytick_26">
     <g id="line2d_88">
      <g>
       <use style="stroke:#000000;stroke-width:0.8;" x="618.607604" xlink:href="#me7a2676ad5" y="289.635"/>
      </g>
     </g>
    </g>
    <g id="ytick_27">
     <g id="line2d_89">
      <g>
       <use style="stroke:#000000;stroke-width:0.8;" x="618.607604" xlink:href="#me7a2676ad5" y="261.657727"/>
      </g>
     </g>
    </g>
   </g>
   <g id="LineCollection_25">
    <path clip-path="url(#pfa0885b38f)" d="M 716.239772 317.612273 
L 716.239772 261.657727 
" style="fill:none;stroke:#000000;stroke-width:1.5;"/>
   </g>
   <g id="LineCollection_26">
    <path clip-path="url(#pfa0885b38f)" d="M 708.331605 317.612273 
L 708.331605 261.657727 
" style="fill:none;stroke:#000000;stroke-dasharray:5.55,2.4;stroke-dashoffset:0;stroke-width:1.5;"/>
   </g>
   <g id="LineCollection_27">
    <path clip-path="url(#pfa0885b38f)" d="M 696.876477 317.612273 
L 696.876477 261.657727 
" style="fill:none;stroke:#000000;stroke-dasharray:1.5,2.475;stroke-dashoffset:0;stroke-width:1.5;"/>
   </g>
   <g id="line2d_90">
    <path clip-path="url(#pfa0885b38f)" d="M 837.731468 261.657727 
L 764.963782 261.76883 
L 757.858374 262.011046 
L 753.470102 262.368086 
L 750.126843 262.856309 
L 747.410563 263.477576 
L 745.112255 264.231828 
L 743.02295 265.163102 
L 741.14263 266.256473 
L 739.471276 267.475015 
L 737.799963 268.964157 
L 736.128689 270.757013 
L 734.457456 272.877455 
L 732.577367 275.663403 
L 730.488439 279.223984 
L 727.981807 283.990858 
L 722.342217 294.912491 
L 719.83588 299.124584 
L 716.076542 305.335603 
L 714.19695 309.029621 
L 712.317408 312.749287 
L 711.482073 313.946446 
L 710.855578 314.428249 
L 710.437917 314.479363 
L 710.02026 314.272218 
L 709.602604 313.776656 
L 709.184952 312.971338 
L 708.558477 311.165812 
L 707.932008 308.676842 
L 706.887906 303.362434 
L 705.008562 293.385435 
L 704.382126 291.053596 
L 703.964504 289.997193 
L 703.546885 289.396698 
L 703.129269 289.280818 
L 702.711655 289.659145 
L 702.294044 290.522367 
L 701.667632 292.662184 
L 700.832424 296.824637 
L 699.579631 304.6641 
L 698.326861 312.194301 
L 697.700485 315.035988 
L 697.074114 316.90042 
L 696.656536 317.509722 
L 696.447748 317.612273 
L 696.238961 317.577979 
L 695.821389 317.101084 
L 695.403819 316.097431 
L 694.777469 313.695274 
L 693.942344 309.15336 
L 692.480899 299.289727 
L 690.810715 288.320616 
L 689.558103 281.679256 
L 688.514276 277.309993 
L 687.470466 273.851365 
L 686.426671 271.123957 
L 685.382892 268.971803 
L 684.339128 267.274113 
L 683.295381 265.939036 
L 682.042904 264.715901 
L 680.79045 263.815139 
L 679.329282 263.070341 
L 677.659413 262.509255 
L 675.780859 262.125853 
L 673.276198 261.858487 
L 669.519377 261.707723 
L 661.171612 261.658645 
L 629.042074 261.657727 
L 629.042074 261.657727 
" style="fill:none;stroke:#a65628;stroke-linecap:square;"/>
   </g>
   <g id="patch_43">
    <path d="M 618.607604 320.41 
L 618.607604 258.86 
" style="fill:none;stroke:#000000;stroke-linecap:square;stroke-linejoin:miter;stroke-width:0.8;"/>
   </g>
   <g id="patch_44">
    <path d="M 848.165938 320.41 
L 848.165938 258.86 
" style="fill:none;stroke:#000000;stroke-linecap:square;stroke-linejoin:miter;stroke-width:0.8;"/>
   </g>
   <g id="patch_45">
    <path d="M 618.607604 320.41 
L 848.165937 320.41 
" style="fill:none;stroke:#000000;stroke-linecap:square;stroke-linejoin:miter;stroke-width:0.8;"/>
   </g>
   <g id="patch_46">
    <path d="M 618.607604 258.86 
L 848.165937 258.86 
" style="fill:none;stroke:#000000;stroke-linecap:square;stroke-linejoin:miter;stroke-width:0.8;"/>
   </g>
  </g>
  <g id="axes_10">
   <g id="patch_47">
    <path d="M 106.265938 402.76 
L 335.824271 402.76 
L 335.824271 341.21 
L 106.265938 341.21 
z
" style="fill:#ffffff;"/>
   </g>
   <g id="matplotlib.axis_19">
    <g id="xtick_55">
     <g id="line2d_91">
      <g>
       <use style="stroke:#000000;stroke-width:0.8;" x="115.184859" xlink:href="#mde2fbcd2ca" y="402.76"/>
      </g>
     </g>
     <g id="text_16">
      <!-- 6610 -->
      <g transform="translate(102.459859 417.358437)scale(0.1 -0.1)">
       <defs>
        <path d="M 2113 2584 
Q 1688 2584 1439 2293 
Q 1191 2003 1191 1497 
Q 1191 994 1439 701 
Q 1688 409 2113 409 
Q 2538 409 2786 701 
Q 3034 994 3034 1497 
Q 3034 2003 2786 2293 
Q 2538 2584 2113 2584 
z
M 3366 4563 
L 3366 3988 
Q 3128 4100 2886 4159 
Q 2644 4219 2406 4219 
Q 1781 4219 1451 3797 
Q 1122 3375 1075 2522 
Q 1259 2794 1537 2939 
Q 1816 3084 2150 3084 
Q 2853 3084 3261 2657 
Q 3669 2231 3669 1497 
Q 3669 778 3244 343 
Q 2819 -91 2113 -91 
Q 1303 -91 875 529 
Q 447 1150 447 2328 
Q 447 3434 972 4092 
Q 1497 4750 2381 4750 
Q 2619 4750 2861 4703 
Q 3103 4656 3366 4563 
z
" id="DejaVuSans-36" transform="scale(0.015625)"/>
       </defs>
       <use xlink:href="#DejaVuSans-36"/>
       <use x="63.623047" xlink:href="#DejaVuSans-36"/>
       <use x="127.246094" xlink:href="#DejaVuSans-31"/>
       <use x="190.869141" xlink:href="#DejaVuSans-30"/>
      </g>
     </g>
    </g>
    <g id="xtick_56">
     <g id="line2d_92">
      <g>
       <use style="stroke:#000000;stroke-width:0.8;" x="157.245614" xlink:href="#mde2fbcd2ca" y="402.76"/>
      </g>
     </g>
     <g id="text_17">
      <!-- 6612 -->
      <g transform="translate(144.520614 417.358437)scale(0.1 -0.1)">
       <defs>
        <path d="M 1228 531 
L 3431 531 
L 3431 0 
L 469 0 
L 469 531 
Q 828 903 1448 1529 
Q 2069 2156 2228 2338 
Q 2531 2678 2651 2914 
Q 2772 3150 2772 3378 
Q 2772 3750 2511 3984 
Q 2250 4219 1831 4219 
Q 1534 4219 1204 4116 
Q 875 4013 500 3803 
L 500 4441 
Q 881 4594 1212 4672 
Q 1544 4750 1819 4750 
Q 2544 4750 2975 4387 
Q 3406 4025 3406 3419 
Q 3406 3131 3298 2873 
Q 3191 2616 2906 2266 
Q 2828 2175 2409 1742 
Q 1991 1309 1228 531 
z
" id="DejaVuSans-32" transform="scale(0.015625)"/>
       </defs>
       <use xlink:href="#DejaVuSans-36"/>
       <use x="63.623047" xlink:href="#DejaVuSans-36"/>
       <use x="127.246094" xlink:href="#DejaVuSans-31"/>
       <use x="190.869141" xlink:href="#DejaVuSans-32"/>
      </g>
     </g>
    </g>
    <g id="xtick_57">
     <g id="line2d_93">
      <g>
       <use style="stroke:#000000;stroke-width:0.8;" x="199.30637" xlink:href="#mde2fbcd2ca" y="402.76"/>
      </g>
     </g>
     <g id="text_18">
      <!-- 6614 -->
      <g transform="translate(186.58137 417.358437)scale(0.1 -0.1)">
       <defs>
        <path d="M 2419 4116 
L 825 1625 
L 2419 1625 
L 2419 4116 
z
M 2253 4666 
L 3047 4666 
L 3047 1625 
L 3713 1625 
L 3713 1100 
L 3047 1100 
L 3047 0 
L 2419 0 
L 2419 1100 
L 313 1100 
L 313 1709 
L 2253 4666 
z
" id="DejaVuSans-34" transform="scale(0.015625)"/>
       </defs>
       <use xlink:href="#DejaVuSans-36"/>
       <use x="63.623047" xlink:href="#DejaVuSans-36"/>
       <use x="127.246094" xlink:href="#DejaVuSans-31"/>
       <use x="190.869141" xlink:href="#DejaVuSans-34"/>
      </g>
     </g>
    </g>
    <g id="xtick_58">
     <g id="line2d_94">
      <g>
       <use style="stroke:#000000;stroke-width:0.8;" x="241.367125" xlink:href="#mde2fbcd2ca" y="402.76"/>
      </g>
     </g>
     <g id="text_19">
      <!-- 6616 -->
      <g transform="translate(228.642125 417.358437)scale(0.1 -0.1)">
       <use xlink:href="#DejaVuSans-36"/>
       <use x="63.623047" xlink:href="#DejaVuSans-36"/>
       <use x="127.246094" xlink:href="#DejaVuSans-31"/>
       <use x="190.869141" xlink:href="#DejaVuSans-36"/>
      </g>
     </g>
    </g>
    <g id="xtick_59">
     <g id="line2d_95">
      <g>
       <use style="stroke:#000000;stroke-width:0.8;" x="283.42788" xlink:href="#mde2fbcd2ca" y="402.76"/>
      </g>
     </g>
     <g id="text_20">
      <!-- 6618 -->
      <g transform="translate(270.70288 417.358437)scale(0.1 -0.1)">
       <defs>
        <path d="M 2034 2216 
Q 1584 2216 1326 1975 
Q 1069 1734 1069 1313 
Q 1069 891 1326 650 
Q 1584 409 2034 409 
Q 2484 409 2743 651 
Q 3003 894 3003 1313 
Q 3003 1734 2745 1975 
Q 2488 2216 2034 2216 
z
M 1403 2484 
Q 997 2584 770 2862 
Q 544 3141 544 3541 
Q 544 4100 942 4425 
Q 1341 4750 2034 4750 
Q 2731 4750 3128 4425 
Q 3525 4100 3525 3541 
Q 3525 3141 3298 2862 
Q 3072 2584 2669 2484 
Q 3125 2378 3379 2068 
Q 3634 1759 3634 1313 
Q 3634 634 3220 271 
Q 2806 -91 2034 -91 
Q 1263 -91 848 271 
Q 434 634 434 1313 
Q 434 1759 690 2068 
Q 947 2378 1403 2484 
z
M 1172 3481 
Q 1172 3119 1398 2916 
Q 1625 2713 2034 2713 
Q 2441 2713 2670 2916 
Q 2900 3119 2900 3481 
Q 2900 3844 2670 4047 
Q 2441 4250 2034 4250 
Q 1625 4250 1398 4047 
Q 1172 3844 1172 3481 
z
" id="DejaVuSans-38" transform="scale(0.015625)"/>
       </defs>
       <use xlink:href="#DejaVuSans-36"/>
       <use x="63.623047" xlink:href="#DejaVuSans-36"/>
       <use x="127.246094" xlink:href="#DejaVuSans-31"/>
       <use x="190.869141" xlink:href="#DejaVuSans-38"/>
      </g>
     </g>
    </g>
    <g id="xtick_60">
     <g id="line2d_96">
      <g>
       <use style="stroke:#000000;stroke-width:0.8;" x="325.488636" xlink:href="#mde2fbcd2ca" y="402.76"/>
      </g>
     </g>
     <g id="text_21">
      <!-- 6620 -->
      <g transform="translate(312.763636 417.358437)scale(0.1 -0.1)">
       <use xlink:href="#DejaVuSans-36"/>
       <use x="63.623047" xlink:href="#DejaVuSans-36"/>
       <use x="127.246094" xlink:href="#DejaVuSans-32"/>
       <use x="190.869141" xlink:href="#DejaVuSans-30"/>
      </g>
     </g>
    </g>
   </g>
   <g id="matplotlib.axis_20">
    <g id="ytick_28">
     <g id="line2d_97">
      <g>
       <use style="stroke:#000000;stroke-width:0.8;" x="106.265938" xlink:href="#me7a2676ad5" y="399.962273"/>
      </g>
     </g>
     <g id="text_22">
      <!-- 0.90 -->
      <g transform="translate(77.000313 403.761491)scale(0.1 -0.1)">
       <use xlink:href="#DejaVuSans-30"/>
       <use x="63.623047" xlink:href="#DejaVuSans-2e"/>
       <use x="95.410156" xlink:href="#DejaVuSans-39"/>
       <use x="159.033203" xlink:href="#DejaVuSans-30"/>
      </g>
     </g>
    </g>
    <g id="ytick_29">
     <g id="line2d_98">
      <g>
       <use style="stroke:#000000;stroke-width:0.8;" x="106.265938" xlink:href="#me7a2676ad5" y="371.985"/>
      </g>
     </g>
     <g id="text_23">
      <!-- 0.95 -->
      <g transform="translate(77.000313 375.784219)scale(0.1 -0.1)">
       <use xlink:href="#DejaVuSans-30"/>
       <use x="63.623047" xlink:href="#DejaVuSans-2e"/>
       <use x="95.410156" xlink:href="#DejaVuSans-39"/>
       <use x="159.033203" xlink:href="#DejaVuSans-35"/>
      </g>
     </g>
    </g>
    <g id="ytick_30">
     <g id="line2d_99">
      <g>
       <use style="stroke:#000000;stroke-width:0.8;" x="106.265938" xlink:href="#me7a2676ad5" y="344.007727"/>
      </g>
     </g>
     <g id="text_24">
      <!-- 1.00 -->
      <g transform="translate(77.000313 347.806946)scale(0.1 -0.1)">
       <use xlink:href="#DejaVuSans-31"/>
       <use x="63.623047" xlink:href="#DejaVuSans-2e"/>
       <use x="95.410156" xlink:href="#DejaVuSans-30"/>
       <use x="159.033203" xlink:href="#DejaVuSans-30"/>
      </g>
     </g>
    </g>
    <g id="text_25">
     <!-- T = 100 K -->
     <g transform="translate(7.2 369.489375)scale(0.12 -0.12)">
      <use xlink:href="#DejaVuSans-54"/>
      <use x="61.083984" xlink:href="#DejaVuSans-20"/>
      <use x="92.871094" xlink:href="#DejaVuSans-3d"/>
      <use x="176.660156" xlink:href="#DejaVuSans-20"/>
      <use x="208.447266" xlink:href="#DejaVuSans-31"/>
      <use x="272.070312" xlink:href="#DejaVuSans-30"/>
      <use x="335.693359" xlink:href="#DejaVuSans-30"/>
      <use x="399.316406" xlink:href="#DejaVuSans-20"/>
      <use x="431.103516" xlink:href="#DejaVuSans-4b"/>
     </g>
    </g>
   </g>
   <g id="LineCollection_28">
    <path clip-path="url(#p76aa62aca5)" d="M 197.836269 399.962273 
L 197.836269 344.007727 
" style="fill:none;stroke:#000000;stroke-width:1.5;"/>
   </g>
   <g id="LineCollection_29">
    <path clip-path="url(#p76aa62aca5)" d="M 196.74753 399.962273 
L 196.74753 344.007727 
" style="fill:none;stroke:#000000;stroke-dasharray:5.55,2.4;stroke-dashoffset:0;stroke-width:1.5;"/>
   </g>
   <g id="LineCollection_30">
    <path clip-path="url(#p76aa62aca5)" d="M 190.559958 399.962273 
L 190.559958 344.007727 
" style="fill:none;stroke:#000000;stroke-dasharray:1.5,2.475;stroke-dashoffset:0;stroke-width:1.5;"/>
   </g>
   <g id="line2d_100">
    <path clip-path="url(#p76aa62aca5)" d="M 215.578159 344.009303 
L 211.793975 344.125277 
L 210.445207 344.383592 
L 209.471113 344.787035 
L 208.64689 345.3595 
L 207.860141 346.179755 
L 207.073401 347.344037 
L 206.28667 348.933345 
L 205.499948 351.033625 
L 204.675772 353.877403 
L 203.776683 357.832501 
L 202.802682 363.180601 
L 201.603931 371.114522 
L 198.532225 392.193344 
L 197.708132 396.102201 
L 197.033881 398.341024 
L 196.509468 399.433521 
L 196.097432 399.87626 
L 195.760314 399.958408 
L 195.460655 399.814683 
L 195.123539 399.403649 
L 194.711512 398.534587 
L 194.187117 396.833145 
L 193.587813 394.068991 
L 192.83869 389.443276 
L 191.864842 381.83761 
L 188.756113 356.307267 
L 187.932136 351.806406 
L 187.183074 348.851955 
L 186.471473 346.92168 
L 185.797331 345.71841 
L 185.123196 344.962694 
L 184.411615 344.496112 
L 183.550239 344.208611 
L 182.314369 344.056148 
L 179.580553 344.008835 
L 178.157514 344.007837 
L 178.157514 344.007837 
" style="fill:none;stroke:#a65628;stroke-linecap:square;"/>
   </g>
   <g id="patch_48">
    <path d="M 106.265938 402.76 
L 106.265938 341.21 
" style="fill:none;stroke:#000000;stroke-linecap:square;stroke-linejoin:miter;stroke-width:0.8;"/>
   </g>
   <g id="patch_49">
    <path d="M 335.824271 402.76 
L 335.824271 341.21 
" style="fill:none;stroke:#000000;stroke-linecap:square;stroke-linejoin:miter;stroke-width:0.8;"/>
   </g>
   <g id="patch_50">
    <path d="M 106.265937 402.76 
L 335.824271 402.76 
" style="fill:none;stroke:#000000;stroke-linecap:square;stroke-linejoin:miter;stroke-width:0.8;"/>
   </g>
   <g id="patch_51">
    <path d="M 106.265937 341.21 
L 335.824271 341.21 
" style="fill:none;stroke:#000000;stroke-linecap:square;stroke-linejoin:miter;stroke-width:0.8;"/>
   </g>
  </g>
  <g id="axes_11">
   <g id="patch_52">
    <path d="M 362.436771 402.76 
L 591.995104 402.76 
L 591.995104 341.21 
L 362.436771 341.21 
z
" style="fill:#ffffff;"/>
   </g>
   <g id="matplotlib.axis_21">
    <g id="xtick_61">
     <g id="line2d_101">
      <g>
       <use style="stroke:#000000;stroke-width:0.8;" x="371.355692" xlink:href="#mde2fbcd2ca" y="402.76"/>
      </g>
     </g>
     <g id="text_26">
      <!-- 6610 -->
      <g transform="translate(358.630692 417.358437)scale(0.1 -0.1)">
       <use xlink:href="#DejaVuSans-36"/>
       <use x="63.623047" xlink:href="#DejaVuSans-36"/>
       <use x="127.246094" xlink:href="#DejaVuSans-31"/>
       <use x="190.869141" xlink:href="#DejaVuSans-30"/>
      </g>
     </g>
    </g>
    <g id="xtick_62">
     <g id="line2d_102">
      <g>
       <use style="stroke:#000000;stroke-width:0.8;" x="413.416448" xlink:href="#mde2fbcd2ca" y="402.76"/>
      </g>
     </g>
     <g id="text_27">
      <!-- 6612 -->
      <g transform="translate(400.691448 417.358437)scale(0.1 -0.1)">
       <use xlink:href="#DejaVuSans-36"/>
       <use x="63.623047" xlink:href="#DejaVuSans-36"/>
       <use x="127.246094" xlink:href="#DejaVuSans-31"/>
       <use x="190.869141" xlink:href="#DejaVuSans-32"/>
      </g>
     </g>
    </g>
    <g id="xtick_63">
     <g id="line2d_103">
      <g>
       <use style="stroke:#000000;stroke-width:0.8;" x="455.477203" xlink:href="#mde2fbcd2ca" y="402.76"/>
      </g>
     </g>
     <g id="text_28">
      <!-- 6614 -->
      <g transform="translate(442.752203 417.358437)scale(0.1 -0.1)">
       <use xlink:href="#DejaVuSans-36"/>
       <use x="63.623047" xlink:href="#DejaVuSans-36"/>
       <use x="127.246094" xlink:href="#DejaVuSans-31"/>
       <use x="190.869141" xlink:href="#DejaVuSans-34"/>
      </g>
     </g>
    </g>
    <g id="xtick_64">
     <g id="line2d_104">
      <g>
       <use style="stroke:#000000;stroke-width:0.8;" x="497.537958" xlink:href="#mde2fbcd2ca" y="402.76"/>
      </g>
     </g>
     <g id="text_29">
      <!-- 6616 -->
      <g transform="translate(484.812958 417.358437)scale(0.1 -0.1)">
       <use xlink:href="#DejaVuSans-36"/>
       <use x="63.623047" xlink:href="#DejaVuSans-36"/>
       <use x="127.246094" xlink:href="#DejaVuSans-31"/>
       <use x="190.869141" xlink:href="#DejaVuSans-36"/>
      </g>
     </g>
    </g>
    <g id="xtick_65">
     <g id="line2d_105">
      <g>
       <use style="stroke:#000000;stroke-width:0.8;" x="539.598714" xlink:href="#mde2fbcd2ca" y="402.76"/>
      </g>
     </g>
     <g id="text_30">
      <!-- 6618 -->
      <g transform="translate(526.873714 417.358437)scale(0.1 -0.1)">
       <use xlink:href="#DejaVuSans-36"/>
       <use x="63.623047" xlink:href="#DejaVuSans-36"/>
       <use x="127.246094" xlink:href="#DejaVuSans-31"/>
       <use x="190.869141" xlink:href="#DejaVuSans-38"/>
      </g>
     </g>
    </g>
    <g id="xtick_66">
     <g id="line2d_106">
      <g>
       <use style="stroke:#000000;stroke-width:0.8;" x="581.659469" xlink:href="#mde2fbcd2ca" y="402.76"/>
      </g>
     </g>
     <g id="text_31">
      <!-- 6620 -->
      <g transform="translate(568.934469 417.358437)scale(0.1 -0.1)">
       <use xlink:href="#DejaVuSans-36"/>
       <use x="63.623047" xlink:href="#DejaVuSans-36"/>
       <use x="127.246094" xlink:href="#DejaVuSans-32"/>
       <use x="190.869141" xlink:href="#DejaVuSans-30"/>
      </g>
     </g>
    </g>
   </g>
   <g id="matplotlib.axis_22">
    <g id="ytick_31">
     <g id="line2d_107">
      <g>
       <use style="stroke:#000000;stroke-width:0.8;" x="362.436771" xlink:href="#me7a2676ad5" y="399.962273"/>
      </g>
     </g>
    </g>
    <g id="ytick_32">
     <g id="line2d_108">
      <g>
       <use style="stroke:#000000;stroke-width:0.8;" x="362.436771" xlink:href="#me7a2676ad5" y="371.985"/>
      </g>
     </g>
    </g>
    <g id="ytick_33">
     <g id="line2d_109">
      <g>
       <use style="stroke:#000000;stroke-width:0.8;" x="362.436771" xlink:href="#me7a2676ad5" y="344.007727"/>
      </g>
     </g>
    </g>
   </g>
   <g id="LineCollection_31">
    <path clip-path="url(#p4d405fc110)" d="M 458.543343 399.962273 
L 458.543343 344.007727 
" style="fill:none;stroke:#000000;stroke-width:1.5;"/>
   </g>
   <g id="LineCollection_32">
    <path clip-path="url(#p4d405fc110)" d="M 452.923754 399.962273 
L 452.923754 344.007727 
" style="fill:none;stroke:#000000;stroke-dasharray:5.55,2.4;stroke-dashoffset:0;stroke-width:1.5;"/>
   </g>
   <g id="LineCollection_33">
    <path clip-path="url(#p4d405fc110)" d="M 442.238368 399.962273 
L 442.238368 344.007727 
" style="fill:none;stroke:#000000;stroke-dasharray:1.5,2.475;stroke-dashoffset:0;stroke-width:1.5;"/>
   </g>
   <g id="line2d_110">
    <path clip-path="url(#p4d405fc110)" d="M 520.532819 344.007738 
L 506.317793 344.119033 
L 499.268218 344.399273 
L 494.720484 344.790525 
L 491.196194 345.309901 
L 488.354155 345.95115 
L 486.080608 346.684061 
L 484.148151 347.527629 
L 482.329417 348.562922 
L 480.624397 349.795455 
L 479.033083 351.224646 
L 477.555466 352.843274 
L 476.077882 354.791969 
L 474.600328 357.106524 
L 473.009152 360.011062 
L 471.077058 364.032527 
L 468.463134 370.036776 
L 463.121943 382.423741 
L 461.303759 386.013976 
L 459.826519 388.468564 
L 458.576571 390.118074 
L 457.667533 390.988781 
L 456.872134 391.445409 
L 456.303997 391.54923 
L 455.735865 391.427839 
L 455.167738 391.045707 
L 454.599615 390.373598 
L 453.917874 389.165866 
L 453.122518 387.242924 
L 450.509268 380.378522 
L 450.0548 379.94941 
L 449.713951 379.934906 
L 449.373104 380.214153 
L 449.032258 380.80233 
L 448.577799 382.067981 
L 448.009731 384.36267 
L 447.10083 389.208534 
L 445.737502 396.605572 
L 445.169456 398.715165 
L 444.715023 399.696011 
L 444.3742 399.962273 
L 444.146985 399.906673 
L 443.806165 399.473341 
L 443.465347 398.632763 
L 443.010925 396.927409 
L 442.329297 393.322384 
L 441.306868 386.398655 
L 438.92126 369.758387 
L 437.785284 363.516675 
L 436.762922 359.000529 
L 435.740575 355.376771 
L 434.718243 352.481993 
L 433.695927 350.180963 
L 432.673625 348.371564 
L 431.651338 346.976832 
L 430.629066 345.934939 
L 429.606809 345.190397 
L 428.470986 344.644932 
L 427.221602 344.299165 
L 425.631509 344.099745 
L 422.905721 344.017654 
L 407.120962 344.007727 
L 407.007416 344.007727 
L 407.007416 344.007727 
" style="fill:none;stroke:#a65628;stroke-linecap:square;"/>
   </g>
   <g id="patch_53">
    <path d="M 362.436771 402.76 
L 362.436771 341.21 
" style="fill:none;stroke:#000000;stroke-linecap:square;stroke-linejoin:miter;stroke-width:0.8;"/>
   </g>
   <g id="patch_54">
    <path d="M 591.995104 402.76 
L 591.995104 341.21 
" style="fill:none;stroke:#000000;stroke-linecap:square;stroke-linejoin:miter;stroke-width:0.8;"/>
   </g>
   <g id="patch_55">
    <path d="M 362.436771 402.76 
L 591.995104 402.76 
" style="fill:none;stroke:#000000;stroke-linecap:square;stroke-linejoin:miter;stroke-width:0.8;"/>
   </g>
   <g id="patch_56">
    <path d="M 362.436771 341.21 
L 591.995104 341.21 
" style="fill:none;stroke:#000000;stroke-linecap:square;stroke-linejoin:miter;stroke-width:0.8;"/>
   </g>
  </g>
  <g id="axes_12">
   <g id="patch_57">
    <path d="M 618.607604 402.76 
L 848.165938 402.76 
L 848.165938 341.21 
L 618.607604 341.21 
z
" style="fill:#ffffff;"/>
   </g>
   <g id="matplotlib.axis_23">
    <g id="xtick_67">
     <g id="line2d_111">
      <g>
       <use style="stroke:#000000;stroke-width:0.8;" x="627.526526" xlink:href="#mde2fbcd2ca" y="402.76"/>
      </g>
     </g>
     <g id="text_32">
      <!-- 6610 -->
      <g transform="translate(614.801526 417.358437)scale(0.1 -0.1)">
       <use xlink:href="#DejaVuSans-36"/>
       <use x="63.623047" xlink:href="#DejaVuSans-36"/>
       <use x="127.246094" xlink:href="#DejaVuSans-31"/>
       <use x="190.869141" xlink:href="#DejaVuSans-30"/>
      </g>
     </g>
    </g>
    <g id="xtick_68">
     <g id="line2d_112">
      <g>
       <use style="stroke:#000000;stroke-width:0.8;" x="669.587281" xlink:href="#mde2fbcd2ca" y="402.76"/>
      </g>
     </g>
     <g id="text_33">
      <!-- 6612 -->
      <g transform="translate(656.862281 417.358437)scale(0.1 -0.1)">
       <use xlink:href="#DejaVuSans-36"/>
       <use x="63.623047" xlink:href="#DejaVuSans-36"/>
       <use x="127.246094" xlink:href="#DejaVuSans-31"/>
       <use x="190.869141" xlink:href="#DejaVuSans-32"/>
      </g>
     </g>
    </g>
    <g id="xtick_69">
     <g id="line2d_113">
      <g>
       <use style="stroke:#000000;stroke-width:0.8;" x="711.648036" xlink:href="#mde2fbcd2ca" y="402.76"/>
      </g>
     </g>
     <g id="text_34">
      <!-- 6614 -->
      <g transform="translate(698.923036 417.358437)scale(0.1 -0.1)">
       <use xlink:href="#DejaVuSans-36"/>
       <use x="63.623047" xlink:href="#DejaVuSans-36"/>
       <use x="127.246094" xlink:href="#DejaVuSans-31"/>
       <use x="190.869141" xlink:href="#DejaVuSans-34"/>
      </g>
     </g>
    </g>
    <g id="xtick_70">
     <g id="line2d_114">
      <g>
       <use style="stroke:#000000;stroke-width:0.8;" x="753.708792" xlink:href="#mde2fbcd2ca" y="402.76"/>
      </g>
     </g>
     <g id="text_35">
      <!-- 6616 -->
      <g transform="translate(740.983792 417.358437)scale(0.1 -0.1)">
       <use xlink:href="#DejaVuSans-36"/>
       <use x="63.623047" xlink:href="#DejaVuSans-36"/>
       <use x="127.246094" xlink:href="#DejaVuSans-31"/>
       <use x="190.869141" xlink:href="#DejaVuSans-36"/>
      </g>
     </g>
    </g>
    <g id="xtick_71">
     <g id="line2d_115">
      <g>
       <use style="stroke:#000000;stroke-width:0.8;" x="795.769547" xlink:href="#mde2fbcd2ca" y="402.76"/>
      </g>
     </g>
     <g id="text_36">
      <!-- 6618 -->
      <g transform="translate(783.044547 417.358437)scale(0.1 -0.1)">
       <use xlink:href="#DejaVuSans-36"/>
       <use x="63.623047" xlink:href="#DejaVuSans-36"/>
       <use x="127.246094" xlink:href="#DejaVuSans-31"/>
       <use x="190.869141" xlink:href="#DejaVuSans-38"/>
      </g>
     </g>
    </g>
    <g id="xtick_72">
     <g id="line2d_116">
      <g>
       <use style="stroke:#000000;stroke-width:0.8;" x="837.830302" xlink:href="#mde2fbcd2ca" y="402.76"/>
      </g>
     </g>
     <g id="text_37">
      <!-- 6620 -->
      <g transform="translate(825.105302 417.358437)scale(0.1 -0.1)">
       <use xlink:href="#DejaVuSans-36"/>
       <use x="63.623047" xlink:href="#DejaVuSans-36"/>
       <use x="127.246094" xlink:href="#DejaVuSans-32"/>
       <use x="190.869141" xlink:href="#DejaVuSans-30"/>
      </g>
     </g>
    </g>
   </g>
   <g id="matplotlib.axis_24">
    <g id="ytick_34">
     <g id="line2d_117">
      <g>
       <use style="stroke:#000000;stroke-width:0.8;" x="618.607604" xlink:href="#me7a2676ad5" y="399.962273"/>
      </g>
     </g>
    </g>
    <g id="ytick_35">
     <g id="line2d_118">
      <g>
       <use style="stroke:#000000;stroke-width:0.8;" x="618.607604" xlink:href="#me7a2676ad5" y="371.985"/>
      </g>
     </g>
    </g>
    <g id="ytick_36">
     <g id="line2d_119">
      <g>
       <use style="stroke:#000000;stroke-width:0.8;" x="618.607604" xlink:href="#me7a2676ad5" y="344.007727"/>
      </g>
     </g>
    </g>
   </g>
   <g id="LineCollection_34">
    <path clip-path="url(#pc7c2204f7a)" d="M 718.043431 399.962273 
L 718.043431 344.007727 
" style="fill:none;stroke:#000000;stroke-width:1.5;"/>
   </g>
   <g id="LineCollection_35">
    <path clip-path="url(#pc7c2204f7a)" d="M 709.046946 399.962273 
L 709.046946 344.007727 
" style="fill:none;stroke:#000000;stroke-dasharray:5.55,2.4;stroke-dashoffset:0;stroke-width:1.5;"/>
   </g>
   <g id="LineCollection_36">
    <path clip-path="url(#pc7c2204f7a)" d="M 694.955271 399.962273 
L 694.955271 344.007727 
" style="fill:none;stroke:#000000;stroke-dasharray:1.5,2.475;stroke-dashoffset:0;stroke-width:1.5;"/>
   </g>
   <g id="line2d_120">
    <path clip-path="url(#pc7c2204f7a)" d="M 837.731468 344.007727 
L 779.385811 344.118455 
L 769.979801 344.359552 
L 764.127814 344.71772 
L 759.739147 345.199843 
L 756.186619 345.812297 
L 753.261144 346.538168 
L 750.753692 347.37687 
L 748.455274 348.365589 
L 746.156931 349.604871 
L 744.067595 350.985146 
L 741.978321 352.640975 
L 739.889111 354.597915 
L 737.799963 356.866665 
L 735.501972 359.708613 
L 732.786263 363.459707 
L 722.968816 377.473534 
L 719.627022 381.48208 
L 715.867696 386.04863 
L 713.57043 388.788068 
L 712.73508 389.51937 
L 712.108573 389.853775 
L 711.482073 389.92358 
L 711.064409 389.783665 
L 710.646747 389.467133 
L 710.02026 388.615357 
L 709.393778 387.265095 
L 708.767301 385.39689 
L 707.932008 382.156947 
L 706.679088 376.211072 
L 705.217376 369.413303 
L 704.382126 366.622604 
L 703.755694 365.408892 
L 703.338077 365.095751 
L 702.920462 365.209433 
L 702.502849 365.762136 
L 702.085239 366.753862 
L 701.458829 369.034648 
L 700.832424 372.180444 
L 699.788428 378.897392 
L 697.491694 394.63613 
L 696.865325 397.572228 
L 696.238961 399.39459 
L 695.821389 399.916108 
L 695.612603 399.962273 
L 695.403819 399.866182 
L 694.986251 399.259025 
L 694.568686 398.132566 
L 693.942344 395.600544 
L 693.107229 391.059821 
L 689.349336 368.821233 
L 688.305513 364.377413 
L 687.261706 360.738709 
L 686.009157 357.215197 
L 684.756632 354.401789 
L 683.504129 352.142189 
L 682.251648 350.327813 
L 680.99919 348.877511 
L 679.746755 347.726301 
L 678.285609 346.689564 
L 676.824494 345.915005 
L 675.154685 345.275832 
L 673.276198 344.787408 
L 670.980339 344.416679 
L 667.849744 344.153744 
L 663.467148 344.027337 
L 650.946967 344.007921 
L 629.042074 344.007727 
L 629.042074 344.007727 
" style="fill:none;stroke:#a65628;stroke-linecap:square;"/>
   </g>
   <g id="patch_58">
    <path d="M 618.607604 402.76 
L 618.607604 341.21 
" style="fill:none;stroke:#000000;stroke-linecap:square;stroke-linejoin:miter;stroke-width:0.8;"/>
   </g>
   <g id="patch_59">
    <path d="M 848.165938 402.76 
L 848.165938 341.21 
" style="fill:none;stroke:#000000;stroke-linecap:square;stroke-linejoin:miter;stroke-width:0.8;"/>
   </g>
   <g id="patch_60">
    <path d="M 618.607604 402.76 
L 848.165937 402.76 
" style="fill:none;stroke:#000000;stroke-linecap:square;stroke-linejoin:miter;stroke-width:0.8;"/>
   </g>
   <g id="patch_61">
    <path d="M 618.607604 341.21 
L 848.165937 341.21 
" style="fill:none;stroke:#000000;stroke-linecap:square;stroke-linejoin:miter;stroke-width:0.8;"/>
   </g>
  </g>
  <g id="text_38">
   <!-- 2D Parametric Study - Temperature x ground_B  -->
   <g transform="translate(291.242813 16.318125)scale(0.12 -0.12)">
    <defs>
     <path d="M 1259 4147 
L 1259 519 
L 2022 519 
Q 2988 519 3436 956 
Q 3884 1394 3884 2338 
Q 3884 3275 3436 3711 
Q 2988 4147 2022 4147 
L 1259 4147 
z
M 628 4666 
L 1925 4666 
Q 3281 4666 3915 4102 
Q 4550 3538 4550 2338 
Q 4550 1131 3912 565 
Q 3275 0 1925 0 
L 628 0 
L 628 4666 
z
" id="DejaVuSans-44" transform="scale(0.015625)"/>
     <path d="M 1259 4147 
L 1259 2394 
L 2053 2394 
Q 2494 2394 2734 2622 
Q 2975 2850 2975 3272 
Q 2975 3691 2734 3919 
Q 2494 4147 2053 4147 
L 1259 4147 
z
M 628 4666 
L 2053 4666 
Q 2838 4666 3239 4311 
Q 3641 3956 3641 3272 
Q 3641 2581 3239 2228 
Q 2838 1875 2053 1875 
L 1259 1875 
L 1259 0 
L 628 0 
L 628 4666 
z
" id="DejaVuSans-50" transform="scale(0.015625)"/>
     <path d="M 2194 1759 
Q 1497 1759 1228 1600 
Q 959 1441 959 1056 
Q 959 750 1161 570 
Q 1363 391 1709 391 
Q 2188 391 2477 730 
Q 2766 1069 2766 1631 
L 2766 1759 
L 2194 1759 
z
M 3341 1997 
L 3341 0 
L 2766 0 
L 2766 531 
Q 2569 213 2275 61 
Q 1981 -91 1556 -91 
Q 1019 -91 701 211 
Q 384 513 384 1019 
Q 384 1609 779 1909 
Q 1175 2209 1959 2209 
L 2766 2209 
L 2766 2266 
Q 2766 2663 2505 2880 
Q 2244 3097 1772 3097 
Q 1472 3097 1187 3025 
Q 903 2953 641 2809 
L 641 3341 
Q 956 3463 1253 3523 
Q 1550 3584 1831 3584 
Q 2591 3584 2966 3190 
Q 3341 2797 3341 1997 
z
" id="DejaVuSans-61" transform="scale(0.015625)"/>
     <path d="M 3328 2828 
Q 3544 3216 3844 3400 
Q 4144 3584 4550 3584 
Q 5097 3584 5394 3201 
Q 5691 2819 5691 2113 
L 5691 0 
L 5113 0 
L 5113 2094 
Q 5113 2597 4934 2840 
Q 4756 3084 4391 3084 
Q 3944 3084 3684 2787 
Q 3425 2491 3425 1978 
L 3425 0 
L 2847 0 
L 2847 2094 
Q 2847 2600 2669 2842 
Q 2491 3084 2119 3084 
Q 1678 3084 1418 2786 
Q 1159 2488 1159 1978 
L 1159 0 
L 581 0 
L 581 3500 
L 1159 3500 
L 1159 2956 
Q 1356 3278 1631 3431 
Q 1906 3584 2284 3584 
Q 2666 3584 2933 3390 
Q 3200 3197 3328 2828 
z
" id="DejaVuSans-6d" transform="scale(0.015625)"/>
     <path d="M 3597 1894 
L 3597 1613 
L 953 1613 
Q 991 1019 1311 708 
Q 1631 397 2203 397 
Q 2534 397 2845 478 
Q 3156 559 3463 722 
L 3463 178 
Q 3153 47 2828 -22 
Q 2503 -91 2169 -91 
Q 1331 -91 842 396 
Q 353 884 353 1716 
Q 353 2575 817 3079 
Q 1281 3584 2069 3584 
Q 2775 3584 3186 3129 
Q 3597 2675 3597 1894 
z
M 3022 2063 
Q 3016 2534 2758 2815 
Q 2500 3097 2075 3097 
Q 1594 3097 1305 2825 
Q 1016 2553 972 2059 
L 3022 2063 
z
" id="DejaVuSans-65" transform="scale(0.015625)"/>
     <path d="M 1172 4494 
L 1172 3500 
L 2356 3500 
L 2356 3053 
L 1172 3053 
L 1172 1153 
Q 1172 725 1289 603 
Q 1406 481 1766 481 
L 2356 481 
L 2356 0 
L 1766 0 
Q 1100 0 847 248 
Q 594 497 594 1153 
L 594 3053 
L 172 3053 
L 172 3500 
L 594 3500 
L 594 4494 
L 1172 4494 
z
" id="DejaVuSans-74" transform="scale(0.015625)"/>
     <path d="M 603 3500 
L 1178 3500 
L 1178 0 
L 603 0 
L 603 3500 
z
M 603 4863 
L 1178 4863 
L 1178 4134 
L 603 4134 
L 603 4863 
z
" id="DejaVuSans-69" transform="scale(0.015625)"/>
     <path d="M 3122 3366 
L 3122 2828 
Q 2878 2963 2633 3030 
Q 2388 3097 2138 3097 
Q 1578 3097 1268 2742 
Q 959 2388 959 1747 
Q 959 1106 1268 751 
Q 1578 397 2138 397 
Q 2388 397 2633 464 
Q 2878 531 3122 666 
L 3122 134 
Q 2881 22 2623 -34 
Q 2366 -91 2075 -91 
Q 1284 -91 818 406 
Q 353 903 353 1747 
Q 353 2603 823 3093 
Q 1294 3584 2113 3584 
Q 2378 3584 2631 3529 
Q 2884 3475 3122 3366 
z
" id="DejaVuSans-63" transform="scale(0.015625)"/>
     <path d="M 3425 4513 
L 3425 3897 
Q 3066 4069 2747 4153 
Q 2428 4238 2131 4238 
Q 1616 4238 1336 4038 
Q 1056 3838 1056 3469 
Q 1056 3159 1242 3001 
Q 1428 2844 1947 2747 
L 2328 2669 
Q 3034 2534 3370 2195 
Q 3706 1856 3706 1288 
Q 3706 609 3251 259 
Q 2797 -91 1919 -91 
Q 1588 -91 1214 -16 
Q 841 59 441 206 
L 441 856 
Q 825 641 1194 531 
Q 1563 422 1919 422 
Q 2459 422 2753 634 
Q 3047 847 3047 1241 
Q 3047 1584 2836 1778 
Q 2625 1972 2144 2069 
L 1759 2144 
Q 1053 2284 737 2584 
Q 422 2884 422 3419 
Q 422 4038 858 4394 
Q 1294 4750 2059 4750 
Q 2388 4750 2728 4690 
Q 3069 4631 3425 4513 
z
" id="DejaVuSans-53" transform="scale(0.015625)"/>
     <path d="M 2059 -325 
Q 1816 -950 1584 -1140 
Q 1353 -1331 966 -1331 
L 506 -1331 
L 506 -850 
L 844 -850 
Q 1081 -850 1212 -737 
Q 1344 -625 1503 -206 
L 1606 56 
L 191 3500 
L 800 3500 
L 1894 763 
L 2988 3500 
L 3597 3500 
L 2059 -325 
z
" id="DejaVuSans-79" transform="scale(0.015625)"/>
     <path d="M 313 2009 
L 1997 2009 
L 1997 1497 
L 313 1497 
L 313 2009 
z
" id="DejaVuSans-2d" transform="scale(0.015625)"/>
     <path d="M 1159 525 
L 1159 -1331 
L 581 -1331 
L 581 3500 
L 1159 3500 
L 1159 2969 
Q 1341 3281 1617 3432 
Q 1894 3584 2278 3584 
Q 2916 3584 3314 3078 
Q 3713 2572 3713 1747 
Q 3713 922 3314 415 
Q 2916 -91 2278 -91 
Q 1894 -91 1617 61 
Q 1341 213 1159 525 
z
M 3116 1747 
Q 3116 2381 2855 2742 
Q 2594 3103 2138 3103 
Q 1681 3103 1420 2742 
Q 1159 2381 1159 1747 
Q 1159 1113 1420 752 
Q 1681 391 2138 391 
Q 2594 391 2855 752 
Q 3116 1113 3116 1747 
z
" id="DejaVuSans-70" transform="scale(0.015625)"/>
     <path d="M 3513 3500 
L 2247 1797 
L 3578 0 
L 2900 0 
L 1881 1375 
L 863 0 
L 184 0 
L 1544 1831 
L 300 3500 
L 978 3500 
L 1906 2253 
L 2834 3500 
L 3513 3500 
z
" id="DejaVuSans-78" transform="scale(0.015625)"/>
    </defs>
    <use xlink:href="#DejaVuSans-32"/>
    <use x="63.623047" xlink:href="#DejaVuSans-44"/>
    <use x="140.625" xlink:href="#DejaVuSans-20"/>
    <use x="172.412109" xlink:href="#DejaVuSans-50"/>
    <use x="228.214844" xlink:href="#DejaVuSans-61"/>
    <use x="289.494141" xlink:href="#DejaVuSans-72"/>
    <use x="330.607422" xlink:href="#DejaVuSans-61"/>
    <use x="391.886719" xlink:href="#DejaVuSans-6d"/>
    <use x="489.298828" xlink:href="#DejaVuSans-65"/>
    <use x="550.822266" xlink:href="#DejaVuSans-74"/>
    <use x="590.03125" xlink:href="#DejaVuSans-72"/>
    <use x="631.144531" xlink:href="#DejaVuSans-69"/>
    <use x="658.927734" xlink:href="#DejaVuSans-63"/>
    <use x="713.908203" xlink:href="#DejaVuSans-20"/>
    <use x="745.695312" xlink:href="#DejaVuSans-53"/>
    <use x="809.171875" xlink:href="#DejaVuSans-74"/>
    <use x="848.380859" xlink:href="#DejaVuSans-75"/>
    <use x="911.759766" xlink:href="#DejaVuSans-64"/>
    <use x="975.236328" xlink:href="#DejaVuSans-79"/>
    <use x="1034.416016" xlink:href="#DejaVuSans-20"/>
    <use x="1066.203125" xlink:href="#DejaVuSans-2d"/>
    <use x="1102.287109" xlink:href="#DejaVuSans-20"/>
    <use x="1134.074219" xlink:href="#DejaVuSans-54"/>
    <use x="1178.158203" xlink:href="#DejaVuSans-65"/>
    <use x="1239.681641" xlink:href="#DejaVuSans-6d"/>
    <use x="1337.09375" xlink:href="#DejaVuSans-70"/>
    <use x="1400.570312" xlink:href="#DejaVuSans-65"/>
    <use x="1462.09375" xlink:href="#DejaVuSans-72"/>
    <use x="1503.207031" xlink:href="#DejaVuSans-61"/>
    <use x="1564.486328" xlink:href="#DejaVuSans-74"/>
    <use x="1603.695312" xlink:href="#DejaVuSans-75"/>
    <use x="1667.074219" xlink:href="#DejaVuSans-72"/>
    <use x="1705.9375" xlink:href="#DejaVuSans-65"/>
    <use x="1767.460938" xlink:href="#DejaVuSans-20"/>
    <use x="1799.248047" xlink:href="#DejaVuSans-78"/>
    <use x="1858.427734" xlink:href="#DejaVuSans-20"/>
    <use x="1890.214844" xlink:href="#DejaVuSans-67"/>
    <use x="1953.691406" xlink:href="#DejaVuSans-72"/>
    <use x="1992.554688" xlink:href="#DejaVuSans-6f"/>
    <use x="2053.736328" xlink:href="#DejaVuSans-75"/>
    <use x="2117.115234" xlink:href="#DejaVuSans-6e"/>
    <use x="2180.494141" xlink:href="#DejaVuSans-64"/>
    <use x="2243.970703" xlink:href="#DejaVuSans-5f"/>
    <use x="2293.970703" xlink:href="#DejaVuSans-42"/>
    <use x="2362.574219" xlink:href="#DejaVuSans-20"/>
   </g>
   <!--   -->
   <g transform="translate(432.996562 30.08925)scale(0.12 -0.12)">
    <use xlink:href="#DejaVuSans-20"/>
   </g>
   <!--  Delta_B =  -0.8,  Delta_C = 0,  zeta = -0.5, sigma =  0.3 -->
   <g transform="translate(264.474375 43.526625)scale(0.12 -0.12)">
    <defs>
     <path d="M 603 4863 
L 1178 4863 
L 1178 0 
L 603 0 
L 603 4863 
z
" id="DejaVuSans-6c" transform="scale(0.015625)"/>
     <path d="M 750 794 
L 1409 794 
L 1409 256 
L 897 -744 
L 494 -744 
L 750 256 
L 750 794 
z
" id="DejaVuSans-2c" transform="scale(0.015625)"/>
     <path d="M 4122 4306 
L 4122 3641 
Q 3803 3938 3442 4084 
Q 3081 4231 2675 4231 
Q 1875 4231 1450 3742 
Q 1025 3253 1025 2328 
Q 1025 1406 1450 917 
Q 1875 428 2675 428 
Q 3081 428 3442 575 
Q 3803 722 4122 1019 
L 4122 359 
Q 3791 134 3420 21 
Q 3050 -91 2638 -91 
Q 1578 -91 968 557 
Q 359 1206 359 2328 
Q 359 3453 968 4101 
Q 1578 4750 2638 4750 
Q 3056 4750 3426 4639 
Q 3797 4528 4122 4306 
z
" id="DejaVuSans-43" transform="scale(0.015625)"/>
     <path d="M 353 3500 
L 3084 3500 
L 3084 2975 
L 922 459 
L 3084 459 
L 3084 0 
L 275 0 
L 275 525 
L 2438 3041 
L 353 3041 
L 353 3500 
z
" id="DejaVuSans-7a" transform="scale(0.015625)"/>
     <path d="M 2834 3397 
L 2834 2853 
Q 2591 2978 2328 3040 
Q 2066 3103 1784 3103 
Q 1356 3103 1142 2972 
Q 928 2841 928 2578 
Q 928 2378 1081 2264 
Q 1234 2150 1697 2047 
L 1894 2003 
Q 2506 1872 2764 1633 
Q 3022 1394 3022 966 
Q 3022 478 2636 193 
Q 2250 -91 1575 -91 
Q 1294 -91 989 -36 
Q 684 19 347 128 
L 347 722 
Q 666 556 975 473 
Q 1284 391 1588 391 
Q 1994 391 2212 530 
Q 2431 669 2431 922 
Q 2431 1156 2273 1281 
Q 2116 1406 1581 1522 
L 1381 1569 
Q 847 1681 609 1914 
Q 372 2147 372 2553 
Q 372 3047 722 3315 
Q 1072 3584 1716 3584 
Q 2034 3584 2315 3537 
Q 2597 3491 2834 3397 
z
" id="DejaVuSans-73" transform="scale(0.015625)"/>
    </defs>
    <use xlink:href="#DejaVuSans-20"/>
    <use x="31.787109" xlink:href="#DejaVuSans-44"/>
    <use x="108.789062" xlink:href="#DejaVuSans-65"/>
    <use x="170.3125" xlink:href="#DejaVuSans-6c"/>
    <use x="198.095703" xlink:href="#DejaVuSans-74"/>
    <use x="237.304688" xlink:href="#DejaVuSans-61"/>
    <use x="298.583984" xlink:href="#DejaVuSans-5f"/>
    <use x="348.583984" xlink:href="#DejaVuSans-42"/>
    <use x="417.1875" xlink:href="#DejaVuSans-20"/>
    <use x="448.974609" xlink:href="#DejaVuSans-3d"/>
    <use x="532.763672" xlink:href="#DejaVuSans-20"/>
    <use x="564.550781" xlink:href="#DejaVuSans-20"/>
    <use x="596.337891" xlink:href="#DejaVuSans-2d"/>
    <use x="632.421875" xlink:href="#DejaVuSans-30"/>
    <use x="696.044922" xlink:href="#DejaVuSans-2e"/>
    <use x="727.832031" xlink:href="#DejaVuSans-38"/>
    <use x="791.455078" xlink:href="#DejaVuSans-2c"/>
    <use x="823.242188" xlink:href="#DejaVuSans-20"/>
    <use x="855.029297" xlink:href="#DejaVuSans-20"/>
    <use x="886.816406" xlink:href="#DejaVuSans-44"/>
    <use x="963.818359" xlink:href="#DejaVuSans-65"/>
    <use x="1025.341797" xlink:href="#DejaVuSans-6c"/>
    <use x="1053.125" xlink:href="#DejaVuSans-74"/>
    <use x="1092.333984" xlink:href="#DejaVuSans-61"/>
    <use x="1153.613281" xlink:href="#DejaVuSans-5f"/>
    <use x="1203.613281" xlink:href="#DejaVuSans-43"/>
    <use x="1273.4375" xlink:href="#DejaVuSans-20"/>
    <use x="1305.224609" xlink:href="#DejaVuSans-3d"/>
    <use x="1389.013672" xlink:href="#DejaVuSans-20"/>
    <use x="1420.800781" xlink:href="#DejaVuSans-30"/>
    <use x="1484.423828" xlink:href="#DejaVuSans-2c"/>
    <use x="1516.210938" xlink:href="#DejaVuSans-20"/>
    <use x="1547.998047" xlink:href="#DejaVuSans-20"/>
    <use x="1579.785156" xlink:href="#DejaVuSans-7a"/>
    <use x="1632.275391" xlink:href="#DejaVuSans-65"/>
    <use x="1693.798828" xlink:href="#DejaVuSans-74"/>
    <use x="1733.007812" xlink:href="#DejaVuSans-61"/>
    <use x="1794.287109" xlink:href="#DejaVuSans-20"/>
    <use x="1826.074219" xlink:href="#DejaVuSans-3d"/>
    <use x="1909.863281" xlink:href="#DejaVuSans-20"/>
    <use x="1941.650391" xlink:href="#DejaVuSans-2d"/>
    <use x="1977.734375" xlink:href="#DejaVuSans-30"/>
    <use x="2041.357422" xlink:href="#DejaVuSans-2e"/>
    <use x="2073.144531" xlink:href="#DejaVuSans-35"/>
    <use x="2136.767578" xlink:href="#DejaVuSans-2c"/>
    <use x="2168.554688" xlink:href="#DejaVuSans-20"/>
    <use x="2200.341797" xlink:href="#DejaVuSans-73"/>
    <use x="2252.441406" xlink:href="#DejaVuSans-69"/>
    <use x="2280.224609" xlink:href="#DejaVuSans-67"/>
    <use x="2343.701172" xlink:href="#DejaVuSans-6d"/>
    <use x="2441.113281" xlink:href="#DejaVuSans-61"/>
    <use x="2502.392578" xlink:href="#DejaVuSans-20"/>
    <use x="2534.179688" xlink:href="#DejaVuSans-3d"/>
    <use x="2617.96875" xlink:href="#DejaVuSans-20"/>
    <use x="2649.755859" xlink:href="#DejaVuSans-20"/>
    <use x="2681.542969" xlink:href="#DejaVuSans-30"/>
    <use x="2745.166016" xlink:href="#DejaVuSans-2e"/>
    <use x="2776.953125" xlink:href="#DejaVuSans-33"/>
   </g>
   <!--  -->
   <g transform="translate(434.903437 57.29775)scale(0.12 -0.12)"/>
  </g>
 </g>
 <defs>
  <clipPath id="pac193388fa">
   <rect height="61.55" width="229.558333" x="106.265938" y="94.16"/>
  </clipPath>
  <clipPath id="pef1411e9b5">
   <rect height="61.55" width="229.558333" x="362.436771" y="94.16"/>
  </clipPath>
  <clipPath id="p68af96edd9">
   <rect height="61.55" width="229.558333" x="618.607604" y="94.16"/>
  </clipPath>
  <clipPath id="pd85185adca">
   <rect height="61.55" width="229.558333" x="106.265938" y="176.51"/>
  </clipPath>
  <clipPath id="pdf1ed2a37b">
   <rect height="61.55" width="229.558333" x="362.436771" y="176.51"/>
  </clipPath>
  <clipPath id="p00c10ffaa9">
   <rect height="61.55" width="229.558333" x="618.607604" y="176.51"/>
  </clipPath>
  <clipPath id="p4671b63d5b">
   <rect height="61.55" width="229.558333" x="106.265938" y="258.86"/>
  </clipPath>
  <clipPath id="p038e73a70b">
   <rect height="61.55" width="229.558333" x="362.436771" y="258.86"/>
  </clipPath>
  <clipPath id="pfa0885b38f">
   <rect height="61.55" width="229.558333" x="618.607604" y="258.86"/>
  </clipPath>
  <clipPath id="p76aa62aca5">
   <rect height="61.55" width="229.558333" x="106.265938" y="341.21"/>
  </clipPath>
  <clipPath id="p4d405fc110">
   <rect height="61.55" width="229.558333" x="362.436771" y="341.21"/>
  </clipPath>
  <clipPath id="pc7c2204f7a">
   <rect height="61.55" width="229.558333" x="618.607604" y="341.21"/>
  </clipPath>
 </defs>
</svg>
