<?xml version="1.0" encoding="utf-8" standalone="no"?>
<!DOCTYPE svg PUBLIC "-//W3C//DTD SVG 1.1//EN"
  "http://www.w3.org/Graphics/SVG/1.1/DTD/svg11.dtd">
<svg height="508.577656pt" version="1.1" viewBox="0 0 910.315625 508.577656" width="910.315625pt" xmlns="http://www.w3.org/2000/svg" xmlns:xlink="http://www.w3.org/1999/xlink">
 <metadata>
  <rdf:RDF xmlns:cc="http://creativecommons.org/ns#" xmlns:dc="http://purl.org/dc/elements/1.1/" xmlns:rdf="http://www.w3.org/1999/02/22-rdf-syntax-ns#">
   <cc:Work>
    <dc:type rdf:resource="http://purl.org/dc/dcmitype/StillImage"/>
    <dc:date>2023-01-10T11:04:33.719796</dc:date>
    <dc:format>image/svg+xml</dc:format>
    <dc:creator>
     <cc:Agent>
      <dc:title>Matplotlib v3.4.3, https://matplotlib.org/</dc:title>
     </cc:Agent>
    </dc:creator>
   </cc:Work>
  </rdf:RDF>
 </metadata>
 <defs>
  <style type="text/css">*{stroke-linecap:butt;stroke-linejoin:round;}</style>
 </defs>
 <g id="figure_1">
  <g id="patch_1">
   <path d="M 0 508.577656 
L 910.315625 508.577656 
L 910.315625 0 
L 0 0 
z
" style="fill:#ffffff;"/>
  </g>
  <g id="axes_1">
   <g id="patch_2">
    <path d="M 66.115625 460.260469 
L 903.115625 460.260469 
L 903.115625 25.380469 
L 66.115625 25.380469 
z
" style="fill:#ffffff;"/>
   </g>
   <g id="matplotlib.axis_1">
    <g id="xtick_1">
     <g id="line2d_1">
      <defs>
       <path d="M 0 0 
L 0 3.5 
" id="m85aff96edc" style="stroke:#000000;stroke-width:0.8;"/>
      </defs>
      <g>
       <use style="stroke:#000000;stroke-width:0.8;" x="79.405299" xlink:href="#m85aff96edc" y="460.260469"/>
      </g>
     </g>
     <g id="text_1">
      <!-- −3 -->
      <g transform="translate(68.348659 478.658125)scale(0.15 -0.15)">
       <defs>
        <path d="M 678 2272 
L 4684 2272 
L 4684 1741 
L 678 1741 
L 678 2272 
z
" id="DejaVuSans-2212" transform="scale(0.015625)"/>
        <path d="M 2597 2516 
Q 3050 2419 3304 2112 
Q 3559 1806 3559 1356 
Q 3559 666 3084 287 
Q 2609 -91 1734 -91 
Q 1441 -91 1130 -33 
Q 819 25 488 141 
L 488 750 
Q 750 597 1062 519 
Q 1375 441 1716 441 
Q 2309 441 2620 675 
Q 2931 909 2931 1356 
Q 2931 1769 2642 2001 
Q 2353 2234 1838 2234 
L 1294 2234 
L 1294 2753 
L 1863 2753 
Q 2328 2753 2575 2939 
Q 2822 3125 2822 3475 
Q 2822 3834 2567 4026 
Q 2313 4219 1838 4219 
Q 1578 4219 1281 4162 
Q 984 4106 628 3988 
L 628 4550 
Q 988 4650 1302 4700 
Q 1616 4750 1894 4750 
Q 2613 4750 3031 4423 
Q 3450 4097 3450 3541 
Q 3450 3153 3228 2886 
Q 3006 2619 2597 2516 
z
" id="DejaVuSans-33" transform="scale(0.015625)"/>
       </defs>
       <use xlink:href="#DejaVuSans-2212"/>
       <use x="83.789062" xlink:href="#DejaVuSans-33"/>
      </g>
     </g>
    </g>
    <g id="xtick_2">
     <g id="line2d_2">
      <g>
       <use style="stroke:#000000;stroke-width:0.8;" x="232.453951" xlink:href="#m85aff96edc" y="460.260469"/>
      </g>
     </g>
     <g id="text_2">
      <!-- −2 -->
      <g transform="translate(221.39731 478.658125)scale(0.15 -0.15)">
       <defs>
        <path d="M 1228 531 
L 3431 531 
L 3431 0 
L 469 0 
L 469 531 
Q 828 903 1448 1529 
Q 2069 2156 2228 2338 
Q 2531 2678 2651 2914 
Q 2772 3150 2772 3378 
Q 2772 3750 2511 3984 
Q 2250 4219 1831 4219 
Q 1534 4219 1204 4116 
Q 875 4013 500 3803 
L 500 4441 
Q 881 4594 1212 4672 
Q 1544 4750 1819 4750 
Q 2544 4750 2975 4387 
Q 3406 4025 3406 3419 
Q 3406 3131 3298 2873 
Q 3191 2616 2906 2266 
Q 2828 2175 2409 1742 
Q 1991 1309 1228 531 
z
" id="DejaVuSans-32" transform="scale(0.015625)"/>
       </defs>
       <use xlink:href="#DejaVuSans-2212"/>
       <use x="83.789062" xlink:href="#DejaVuSans-32"/>
      </g>
     </g>
    </g>
    <g id="xtick_3">
     <g id="line2d_3">
      <g>
       <use style="stroke:#000000;stroke-width:0.8;" x="385.502603" xlink:href="#m85aff96edc" y="460.260469"/>
      </g>
     </g>
     <g id="text_3">
      <!-- −1 -->
      <g transform="translate(374.445962 478.658125)scale(0.15 -0.15)">
       <defs>
        <path d="M 794 531 
L 1825 531 
L 1825 4091 
L 703 3866 
L 703 4441 
L 1819 4666 
L 2450 4666 
L 2450 531 
L 3481 531 
L 3481 0 
L 794 0 
L 794 531 
z
" id="DejaVuSans-31" transform="scale(0.015625)"/>
       </defs>
       <use xlink:href="#DejaVuSans-2212"/>
       <use x="83.789062" xlink:href="#DejaVuSans-31"/>
      </g>
     </g>
    </g>
    <g id="xtick_4">
     <g id="line2d_4">
      <g>
       <use style="stroke:#000000;stroke-width:0.8;" x="538.551254" xlink:href="#m85aff96edc" y="460.260469"/>
      </g>
     </g>
     <g id="text_4">
      <!-- 0 -->
      <g transform="translate(533.779379 478.658125)scale(0.15 -0.15)">
       <defs>
        <path d="M 2034 4250 
Q 1547 4250 1301 3770 
Q 1056 3291 1056 2328 
Q 1056 1369 1301 889 
Q 1547 409 2034 409 
Q 2525 409 2770 889 
Q 3016 1369 3016 2328 
Q 3016 3291 2770 3770 
Q 2525 4250 2034 4250 
z
M 2034 4750 
Q 2819 4750 3233 4129 
Q 3647 3509 3647 2328 
Q 3647 1150 3233 529 
Q 2819 -91 2034 -91 
Q 1250 -91 836 529 
Q 422 1150 422 2328 
Q 422 3509 836 4129 
Q 1250 4750 2034 4750 
z
" id="DejaVuSans-30" transform="scale(0.015625)"/>
       </defs>
       <use xlink:href="#DejaVuSans-30"/>
      </g>
     </g>
    </g>
    <g id="xtick_5">
     <g id="line2d_5">
      <g>
       <use style="stroke:#000000;stroke-width:0.8;" x="691.599906" xlink:href="#m85aff96edc" y="460.260469"/>
      </g>
     </g>
     <g id="text_5">
      <!-- 1 -->
      <g transform="translate(686.828031 478.658125)scale(0.15 -0.15)">
       <use xlink:href="#DejaVuSans-31"/>
      </g>
     </g>
    </g>
    <g id="xtick_6">
     <g id="line2d_6">
      <g>
       <use style="stroke:#000000;stroke-width:0.8;" x="844.648558" xlink:href="#m85aff96edc" y="460.260469"/>
      </g>
     </g>
     <g id="text_6">
      <!-- 2 -->
      <g transform="translate(839.876683 478.658125)scale(0.15 -0.15)">
       <use xlink:href="#DejaVuSans-32"/>
      </g>
     </g>
    </g>
    <g id="text_7">
     <!-- Wavenumber (in cm$^{-1}$) -->
     <g transform="translate(397.315625 498.258125)scale(0.15 -0.15)">
      <defs>
       <path d="M 213 4666 
L 850 4666 
L 1831 722 
L 2809 4666 
L 3519 4666 
L 4500 722 
L 5478 4666 
L 6119 4666 
L 4947 0 
L 4153 0 
L 3169 4050 
L 2175 0 
L 1381 0 
L 213 4666 
z
" id="DejaVuSans-57" transform="scale(0.015625)"/>
       <path d="M 2194 1759 
Q 1497 1759 1228 1600 
Q 959 1441 959 1056 
Q 959 750 1161 570 
Q 1363 391 1709 391 
Q 2188 391 2477 730 
Q 2766 1069 2766 1631 
L 2766 1759 
L 2194 1759 
z
M 3341 1997 
L 3341 0 
L 2766 0 
L 2766 531 
Q 2569 213 2275 61 
Q 1981 -91 1556 -91 
Q 1019 -91 701 211 
Q 384 513 384 1019 
Q 384 1609 779 1909 
Q 1175 2209 1959 2209 
L 2766 2209 
L 2766 2266 
Q 2766 2663 2505 2880 
Q 2244 3097 1772 3097 
Q 1472 3097 1187 3025 
Q 903 2953 641 2809 
L 641 3341 
Q 956 3463 1253 3523 
Q 1550 3584 1831 3584 
Q 2591 3584 2966 3190 
Q 3341 2797 3341 1997 
z
" id="DejaVuSans-61" transform="scale(0.015625)"/>
       <path d="M 191 3500 
L 800 3500 
L 1894 563 
L 2988 3500 
L 3597 3500 
L 2284 0 
L 1503 0 
L 191 3500 
z
" id="DejaVuSans-76" transform="scale(0.015625)"/>
       <path d="M 3597 1894 
L 3597 1613 
L 953 1613 
Q 991 1019 1311 708 
Q 1631 397 2203 397 
Q 2534 397 2845 478 
Q 3156 559 3463 722 
L 3463 178 
Q 3153 47 2828 -22 
Q 2503 -91 2169 -91 
Q 1331 -91 842 396 
Q 353 884 353 1716 
Q 353 2575 817 3079 
Q 1281 3584 2069 3584 
Q 2775 3584 3186 3129 
Q 3597 2675 3597 1894 
z
M 3022 2063 
Q 3016 2534 2758 2815 
Q 2500 3097 2075 3097 
Q 1594 3097 1305 2825 
Q 1016 2553 972 2059 
L 3022 2063 
z
" id="DejaVuSans-65" transform="scale(0.015625)"/>
       <path d="M 3513 2113 
L 3513 0 
L 2938 0 
L 2938 2094 
Q 2938 2591 2744 2837 
Q 2550 3084 2163 3084 
Q 1697 3084 1428 2787 
Q 1159 2491 1159 1978 
L 1159 0 
L 581 0 
L 581 3500 
L 1159 3500 
L 1159 2956 
Q 1366 3272 1645 3428 
Q 1925 3584 2291 3584 
Q 2894 3584 3203 3211 
Q 3513 2838 3513 2113 
z
" id="DejaVuSans-6e" transform="scale(0.015625)"/>
       <path d="M 544 1381 
L 544 3500 
L 1119 3500 
L 1119 1403 
Q 1119 906 1312 657 
Q 1506 409 1894 409 
Q 2359 409 2629 706 
Q 2900 1003 2900 1516 
L 2900 3500 
L 3475 3500 
L 3475 0 
L 2900 0 
L 2900 538 
Q 2691 219 2414 64 
Q 2138 -91 1772 -91 
Q 1169 -91 856 284 
Q 544 659 544 1381 
z
M 1991 3584 
L 1991 3584 
z
" id="DejaVuSans-75" transform="scale(0.015625)"/>
       <path d="M 3328 2828 
Q 3544 3216 3844 3400 
Q 4144 3584 4550 3584 
Q 5097 3584 5394 3201 
Q 5691 2819 5691 2113 
L 5691 0 
L 5113 0 
L 5113 2094 
Q 5113 2597 4934 2840 
Q 4756 3084 4391 3084 
Q 3944 3084 3684 2787 
Q 3425 2491 3425 1978 
L 3425 0 
L 2847 0 
L 2847 2094 
Q 2847 2600 2669 2842 
Q 2491 3084 2119 3084 
Q 1678 3084 1418 2786 
Q 1159 2488 1159 1978 
L 1159 0 
L 581 0 
L 581 3500 
L 1159 3500 
L 1159 2956 
Q 1356 3278 1631 3431 
Q 1906 3584 2284 3584 
Q 2666 3584 2933 3390 
Q 3200 3197 3328 2828 
z
" id="DejaVuSans-6d" transform="scale(0.015625)"/>
       <path d="M 3116 1747 
Q 3116 2381 2855 2742 
Q 2594 3103 2138 3103 
Q 1681 3103 1420 2742 
Q 1159 2381 1159 1747 
Q 1159 1113 1420 752 
Q 1681 391 2138 391 
Q 2594 391 2855 752 
Q 3116 1113 3116 1747 
z
M 1159 2969 
Q 1341 3281 1617 3432 
Q 1894 3584 2278 3584 
Q 2916 3584 3314 3078 
Q 3713 2572 3713 1747 
Q 3713 922 3314 415 
Q 2916 -91 2278 -91 
Q 1894 -91 1617 61 
Q 1341 213 1159 525 
L 1159 0 
L 581 0 
L 581 4863 
L 1159 4863 
L 1159 2969 
z
" id="DejaVuSans-62" transform="scale(0.015625)"/>
       <path d="M 2631 2963 
Q 2534 3019 2420 3045 
Q 2306 3072 2169 3072 
Q 1681 3072 1420 2755 
Q 1159 2438 1159 1844 
L 1159 0 
L 581 0 
L 581 3500 
L 1159 3500 
L 1159 2956 
Q 1341 3275 1631 3429 
Q 1922 3584 2338 3584 
Q 2397 3584 2469 3576 
Q 2541 3569 2628 3553 
L 2631 2963 
z
" id="DejaVuSans-72" transform="scale(0.015625)"/>
       <path id="DejaVuSans-20" transform="scale(0.015625)"/>
       <path d="M 1984 4856 
Q 1566 4138 1362 3434 
Q 1159 2731 1159 2009 
Q 1159 1288 1364 580 
Q 1569 -128 1984 -844 
L 1484 -844 
Q 1016 -109 783 600 
Q 550 1309 550 2009 
Q 550 2706 781 3412 
Q 1013 4119 1484 4856 
L 1984 4856 
z
" id="DejaVuSans-28" transform="scale(0.015625)"/>
       <path d="M 603 3500 
L 1178 3500 
L 1178 0 
L 603 0 
L 603 3500 
z
M 603 4863 
L 1178 4863 
L 1178 4134 
L 603 4134 
L 603 4863 
z
" id="DejaVuSans-69" transform="scale(0.015625)"/>
       <path d="M 3122 3366 
L 3122 2828 
Q 2878 2963 2633 3030 
Q 2388 3097 2138 3097 
Q 1578 3097 1268 2742 
Q 959 2388 959 1747 
Q 959 1106 1268 751 
Q 1578 397 2138 397 
Q 2388 397 2633 464 
Q 2878 531 3122 666 
L 3122 134 
Q 2881 22 2623 -34 
Q 2366 -91 2075 -91 
Q 1284 -91 818 406 
Q 353 903 353 1747 
Q 353 2603 823 3093 
Q 1294 3584 2113 3584 
Q 2378 3584 2631 3529 
Q 2884 3475 3122 3366 
z
" id="DejaVuSans-63" transform="scale(0.015625)"/>
       <path d="M 513 4856 
L 1013 4856 
Q 1481 4119 1714 3412 
Q 1947 2706 1947 2009 
Q 1947 1309 1714 600 
Q 1481 -109 1013 -844 
L 513 -844 
Q 928 -128 1133 580 
Q 1338 1288 1338 2009 
Q 1338 2731 1133 3434 
Q 928 4138 513 4856 
z
" id="DejaVuSans-29" transform="scale(0.015625)"/>
      </defs>
      <use transform="translate(0 0.684375)" xlink:href="#DejaVuSans-57"/>
      <use transform="translate(98.876953 0.684375)" xlink:href="#DejaVuSans-61"/>
      <use transform="translate(160.15625 0.684375)" xlink:href="#DejaVuSans-76"/>
      <use transform="translate(219.335938 0.684375)" xlink:href="#DejaVuSans-65"/>
      <use transform="translate(280.859375 0.684375)" xlink:href="#DejaVuSans-6e"/>
      <use transform="translate(344.238281 0.684375)" xlink:href="#DejaVuSans-75"/>
      <use transform="translate(407.617188 0.684375)" xlink:href="#DejaVuSans-6d"/>
      <use transform="translate(505.029297 0.684375)" xlink:href="#DejaVuSans-62"/>
      <use transform="translate(568.505859 0.684375)" xlink:href="#DejaVuSans-65"/>
      <use transform="translate(630.029297 0.684375)" xlink:href="#DejaVuSans-72"/>
      <use transform="translate(671.142578 0.684375)" xlink:href="#DejaVuSans-20"/>
      <use transform="translate(702.929688 0.684375)" xlink:href="#DejaVuSans-28"/>
      <use transform="translate(741.943359 0.684375)" xlink:href="#DejaVuSans-69"/>
      <use transform="translate(769.726562 0.684375)" xlink:href="#DejaVuSans-6e"/>
      <use transform="translate(833.105469 0.684375)" xlink:href="#DejaVuSans-20"/>
      <use transform="translate(864.892578 0.684375)" xlink:href="#DejaVuSans-63"/>
      <use transform="translate(919.873047 0.684375)" xlink:href="#DejaVuSans-6d"/>
      <use transform="translate(1018.242188 38.965625)scale(0.7)" xlink:href="#DejaVuSans-2212"/>
      <use transform="translate(1076.894531 38.965625)scale(0.7)" xlink:href="#DejaVuSans-31"/>
      <use transform="translate(1124.165039 0.684375)" xlink:href="#DejaVuSans-29"/>
     </g>
    </g>
   </g>
   <g id="matplotlib.axis_2">
    <g id="ytick_1">
     <g id="line2d_7">
      <defs>
       <path d="M 0 0 
L -3.5 0 
" id="m9563892ae3" style="stroke:#000000;stroke-width:0.8;"/>
      </defs>
      <g>
       <use style="stroke:#000000;stroke-width:0.8;" x="66.115625" xlink:href="#m9563892ae3" y="440.493196"/>
      </g>
     </g>
     <g id="text_8">
      <!-- 0.90 -->
      <g transform="translate(25.717188 446.192024)scale(0.15 -0.15)">
       <defs>
        <path d="M 684 794 
L 1344 794 
L 1344 0 
L 684 0 
L 684 794 
z
" id="DejaVuSans-2e" transform="scale(0.015625)"/>
        <path d="M 703 97 
L 703 672 
Q 941 559 1184 500 
Q 1428 441 1663 441 
Q 2288 441 2617 861 
Q 2947 1281 2994 2138 
Q 2813 1869 2534 1725 
Q 2256 1581 1919 1581 
Q 1219 1581 811 2004 
Q 403 2428 403 3163 
Q 403 3881 828 4315 
Q 1253 4750 1959 4750 
Q 2769 4750 3195 4129 
Q 3622 3509 3622 2328 
Q 3622 1225 3098 567 
Q 2575 -91 1691 -91 
Q 1453 -91 1209 -44 
Q 966 3 703 97 
z
M 1959 2075 
Q 2384 2075 2632 2365 
Q 2881 2656 2881 3163 
Q 2881 3666 2632 3958 
Q 2384 4250 1959 4250 
Q 1534 4250 1286 3958 
Q 1038 3666 1038 3163 
Q 1038 2656 1286 2365 
Q 1534 2075 1959 2075 
z
" id="DejaVuSans-39" transform="scale(0.015625)"/>
       </defs>
       <use xlink:href="#DejaVuSans-30"/>
       <use x="63.623047" xlink:href="#DejaVuSans-2e"/>
       <use x="95.410156" xlink:href="#DejaVuSans-39"/>
       <use x="159.033203" xlink:href="#DejaVuSans-30"/>
      </g>
     </g>
    </g>
    <g id="ytick_2">
     <g id="line2d_8">
      <g>
       <use style="stroke:#000000;stroke-width:0.8;" x="66.115625" xlink:href="#m9563892ae3" y="361.41614"/>
      </g>
     </g>
     <g id="text_9">
      <!-- 0.92 -->
      <g transform="translate(25.717188 367.114968)scale(0.15 -0.15)">
       <use xlink:href="#DejaVuSans-30"/>
       <use x="63.623047" xlink:href="#DejaVuSans-2e"/>
       <use x="95.410156" xlink:href="#DejaVuSans-39"/>
       <use x="159.033203" xlink:href="#DejaVuSans-32"/>
      </g>
     </g>
    </g>
    <g id="ytick_3">
     <g id="line2d_9">
      <g>
       <use style="stroke:#000000;stroke-width:0.8;" x="66.115625" xlink:href="#m9563892ae3" y="282.339083"/>
      </g>
     </g>
     <g id="text_10">
      <!-- 0.94 -->
      <g transform="translate(25.717188 288.037912)scale(0.15 -0.15)">
       <defs>
        <path d="M 2419 4116 
L 825 1625 
L 2419 1625 
L 2419 4116 
z
M 2253 4666 
L 3047 4666 
L 3047 1625 
L 3713 1625 
L 3713 1100 
L 3047 1100 
L 3047 0 
L 2419 0 
L 2419 1100 
L 313 1100 
L 313 1709 
L 2253 4666 
z
" id="DejaVuSans-34" transform="scale(0.015625)"/>
       </defs>
       <use xlink:href="#DejaVuSans-30"/>
       <use x="63.623047" xlink:href="#DejaVuSans-2e"/>
       <use x="95.410156" xlink:href="#DejaVuSans-39"/>
       <use x="159.033203" xlink:href="#DejaVuSans-34"/>
      </g>
     </g>
    </g>
    <g id="ytick_4">
     <g id="line2d_10">
      <g>
       <use style="stroke:#000000;stroke-width:0.8;" x="66.115625" xlink:href="#m9563892ae3" y="203.262027"/>
      </g>
     </g>
     <g id="text_11">
      <!-- 0.96 -->
      <g transform="translate(25.717188 208.960855)scale(0.15 -0.15)">
       <defs>
        <path d="M 2113 2584 
Q 1688 2584 1439 2293 
Q 1191 2003 1191 1497 
Q 1191 994 1439 701 
Q 1688 409 2113 409 
Q 2538 409 2786 701 
Q 3034 994 3034 1497 
Q 3034 2003 2786 2293 
Q 2538 2584 2113 2584 
z
M 3366 4563 
L 3366 3988 
Q 3128 4100 2886 4159 
Q 2644 4219 2406 4219 
Q 1781 4219 1451 3797 
Q 1122 3375 1075 2522 
Q 1259 2794 1537 2939 
Q 1816 3084 2150 3084 
Q 2853 3084 3261 2657 
Q 3669 2231 3669 1497 
Q 3669 778 3244 343 
Q 2819 -91 2113 -91 
Q 1303 -91 875 529 
Q 447 1150 447 2328 
Q 447 3434 972 4092 
Q 1497 4750 2381 4750 
Q 2619 4750 2861 4703 
Q 3103 4656 3366 4563 
z
" id="DejaVuSans-36" transform="scale(0.015625)"/>
       </defs>
       <use xlink:href="#DejaVuSans-30"/>
       <use x="63.623047" xlink:href="#DejaVuSans-2e"/>
       <use x="95.410156" xlink:href="#DejaVuSans-39"/>
       <use x="159.033203" xlink:href="#DejaVuSans-36"/>
      </g>
     </g>
    </g>
    <g id="ytick_5">
     <g id="line2d_11">
      <g>
       <use style="stroke:#000000;stroke-width:0.8;" x="66.115625" xlink:href="#m9563892ae3" y="124.184971"/>
      </g>
     </g>
     <g id="text_12">
      <!-- 0.98 -->
      <g transform="translate(25.717188 129.883799)scale(0.15 -0.15)">
       <defs>
        <path d="M 2034 2216 
Q 1584 2216 1326 1975 
Q 1069 1734 1069 1313 
Q 1069 891 1326 650 
Q 1584 409 2034 409 
Q 2484 409 2743 651 
Q 3003 894 3003 1313 
Q 3003 1734 2745 1975 
Q 2488 2216 2034 2216 
z
M 1403 2484 
Q 997 2584 770 2862 
Q 544 3141 544 3541 
Q 544 4100 942 4425 
Q 1341 4750 2034 4750 
Q 2731 4750 3128 4425 
Q 3525 4100 3525 3541 
Q 3525 3141 3298 2862 
Q 3072 2584 2669 2484 
Q 3125 2378 3379 2068 
Q 3634 1759 3634 1313 
Q 3634 634 3220 271 
Q 2806 -91 2034 -91 
Q 1263 -91 848 271 
Q 434 634 434 1313 
Q 434 1759 690 2068 
Q 947 2378 1403 2484 
z
M 1172 3481 
Q 1172 3119 1398 2916 
Q 1625 2713 2034 2713 
Q 2441 2713 2670 2916 
Q 2900 3119 2900 3481 
Q 2900 3844 2670 4047 
Q 2441 4250 2034 4250 
Q 1625 4250 1398 4047 
Q 1172 3844 1172 3481 
z
" id="DejaVuSans-38" transform="scale(0.015625)"/>
       </defs>
       <use xlink:href="#DejaVuSans-30"/>
       <use x="63.623047" xlink:href="#DejaVuSans-2e"/>
       <use x="95.410156" xlink:href="#DejaVuSans-39"/>
       <use x="159.033203" xlink:href="#DejaVuSans-38"/>
      </g>
     </g>
    </g>
    <g id="ytick_6">
     <g id="line2d_12">
      <g>
       <use style="stroke:#000000;stroke-width:0.8;" x="66.115625" xlink:href="#m9563892ae3" y="45.107915"/>
      </g>
     </g>
     <g id="text_13">
      <!-- 1.00 -->
      <g transform="translate(25.717188 50.806743)scale(0.15 -0.15)">
       <use xlink:href="#DejaVuSans-31"/>
       <use x="63.623047" xlink:href="#DejaVuSans-2e"/>
       <use x="95.410156" xlink:href="#DejaVuSans-30"/>
       <use x="159.033203" xlink:href="#DejaVuSans-30"/>
      </g>
     </g>
    </g>
    <g id="text_14">
     <!-- Normalized Intensity -->
     <g transform="translate(18.597656 320.381016)rotate(-90)scale(0.15 -0.15)">
      <defs>
       <path d="M 628 4666 
L 1478 4666 
L 3547 763 
L 3547 4666 
L 4159 4666 
L 4159 0 
L 3309 0 
L 1241 3903 
L 1241 0 
L 628 0 
L 628 4666 
z
" id="DejaVuSans-4e" transform="scale(0.015625)"/>
       <path d="M 1959 3097 
Q 1497 3097 1228 2736 
Q 959 2375 959 1747 
Q 959 1119 1226 758 
Q 1494 397 1959 397 
Q 2419 397 2687 759 
Q 2956 1122 2956 1747 
Q 2956 2369 2687 2733 
Q 2419 3097 1959 3097 
z
M 1959 3584 
Q 2709 3584 3137 3096 
Q 3566 2609 3566 1747 
Q 3566 888 3137 398 
Q 2709 -91 1959 -91 
Q 1206 -91 779 398 
Q 353 888 353 1747 
Q 353 2609 779 3096 
Q 1206 3584 1959 3584 
z
" id="DejaVuSans-6f" transform="scale(0.015625)"/>
       <path d="M 603 4863 
L 1178 4863 
L 1178 0 
L 603 0 
L 603 4863 
z
" id="DejaVuSans-6c" transform="scale(0.015625)"/>
       <path d="M 353 3500 
L 3084 3500 
L 3084 2975 
L 922 459 
L 3084 459 
L 3084 0 
L 275 0 
L 275 525 
L 2438 3041 
L 353 3041 
L 353 3500 
z
" id="DejaVuSans-7a" transform="scale(0.015625)"/>
       <path d="M 2906 2969 
L 2906 4863 
L 3481 4863 
L 3481 0 
L 2906 0 
L 2906 525 
Q 2725 213 2448 61 
Q 2172 -91 1784 -91 
Q 1150 -91 751 415 
Q 353 922 353 1747 
Q 353 2572 751 3078 
Q 1150 3584 1784 3584 
Q 2172 3584 2448 3432 
Q 2725 3281 2906 2969 
z
M 947 1747 
Q 947 1113 1208 752 
Q 1469 391 1925 391 
Q 2381 391 2643 752 
Q 2906 1113 2906 1747 
Q 2906 2381 2643 2742 
Q 2381 3103 1925 3103 
Q 1469 3103 1208 2742 
Q 947 2381 947 1747 
z
" id="DejaVuSans-64" transform="scale(0.015625)"/>
       <path d="M 628 4666 
L 1259 4666 
L 1259 0 
L 628 0 
L 628 4666 
z
" id="DejaVuSans-49" transform="scale(0.015625)"/>
       <path d="M 1172 4494 
L 1172 3500 
L 2356 3500 
L 2356 3053 
L 1172 3053 
L 1172 1153 
Q 1172 725 1289 603 
Q 1406 481 1766 481 
L 2356 481 
L 2356 0 
L 1766 0 
Q 1100 0 847 248 
Q 594 497 594 1153 
L 594 3053 
L 172 3053 
L 172 3500 
L 594 3500 
L 594 4494 
L 1172 4494 
z
" id="DejaVuSans-74" transform="scale(0.015625)"/>
       <path d="M 2834 3397 
L 2834 2853 
Q 2591 2978 2328 3040 
Q 2066 3103 1784 3103 
Q 1356 3103 1142 2972 
Q 928 2841 928 2578 
Q 928 2378 1081 2264 
Q 1234 2150 1697 2047 
L 1894 2003 
Q 2506 1872 2764 1633 
Q 3022 1394 3022 966 
Q 3022 478 2636 193 
Q 2250 -91 1575 -91 
Q 1294 -91 989 -36 
Q 684 19 347 128 
L 347 722 
Q 666 556 975 473 
Q 1284 391 1588 391 
Q 1994 391 2212 530 
Q 2431 669 2431 922 
Q 2431 1156 2273 1281 
Q 2116 1406 1581 1522 
L 1381 1569 
Q 847 1681 609 1914 
Q 372 2147 372 2553 
Q 372 3047 722 3315 
Q 1072 3584 1716 3584 
Q 2034 3584 2315 3537 
Q 2597 3491 2834 3397 
z
" id="DejaVuSans-73" transform="scale(0.015625)"/>
       <path d="M 2059 -325 
Q 1816 -950 1584 -1140 
Q 1353 -1331 966 -1331 
L 506 -1331 
L 506 -850 
L 844 -850 
Q 1081 -850 1212 -737 
Q 1344 -625 1503 -206 
L 1606 56 
L 191 3500 
L 800 3500 
L 1894 763 
L 2988 3500 
L 3597 3500 
L 2059 -325 
z
" id="DejaVuSans-79" transform="scale(0.015625)"/>
      </defs>
      <use xlink:href="#DejaVuSans-4e"/>
      <use x="74.804688" xlink:href="#DejaVuSans-6f"/>
      <use x="135.986328" xlink:href="#DejaVuSans-72"/>
      <use x="175.349609" xlink:href="#DejaVuSans-6d"/>
      <use x="272.761719" xlink:href="#DejaVuSans-61"/>
      <use x="334.041016" xlink:href="#DejaVuSans-6c"/>
      <use x="361.824219" xlink:href="#DejaVuSans-69"/>
      <use x="389.607422" xlink:href="#DejaVuSans-7a"/>
      <use x="442.097656" xlink:href="#DejaVuSans-65"/>
      <use x="503.621094" xlink:href="#DejaVuSans-64"/>
      <use x="567.097656" xlink:href="#DejaVuSans-20"/>
      <use x="598.884766" xlink:href="#DejaVuSans-49"/>
      <use x="628.376953" xlink:href="#DejaVuSans-6e"/>
      <use x="691.755859" xlink:href="#DejaVuSans-74"/>
      <use x="730.964844" xlink:href="#DejaVuSans-65"/>
      <use x="792.488281" xlink:href="#DejaVuSans-6e"/>
      <use x="855.867188" xlink:href="#DejaVuSans-73"/>
      <use x="907.966797" xlink:href="#DejaVuSans-69"/>
      <use x="935.75" xlink:href="#DejaVuSans-74"/>
      <use x="974.958984" xlink:href="#DejaVuSans-79"/>
     </g>
    </g>
   </g>
   <g id="line2d_13">
    <path clip-path="url(#p74108d9a77)" d="M 116.050284 45.149362 
L 163.607102 45.666986 
L 180.900491 46.104629 
L 193.870532 46.645641 
L 203.598063 47.246902 
L 212.244757 47.991631 
L 219.810615 48.872509 
L 226.295635 49.859655 
L 231.699819 50.896948 
L 237.104003 52.184013 
L 241.42735 53.437628 
L 245.750697 54.936041 
L 248.993208 56.25163 
L 252.235718 57.760659 
L 255.478228 59.494104 
L 258.720739 61.488251 
L 261.963249 63.78565 
L 265.205759 66.434374 
L 269.529106 70.131586 
L 271.69078 71.442511 
L 279.256637 75.507524 
L 284.660821 78.673909 
L 290.065005 82.080039 
L 295.469189 85.73002 
L 300.873373 89.62554 
L 306.277557 93.76544 
L 311.681741 98.145263 
L 318.166761 103.705893 
L 324.651782 109.577654 
L 331.136803 115.728356 
L 338.70266 123.198531 
L 348.430191 133.12797 
L 367.885253 153.074829 
L 374.370274 159.380055 
L 379.774458 164.355116 
L 385.178642 168.992927 
L 389.501989 172.40534 
L 393.825336 175.506309 
L 397.067846 177.601374 
L 400.310356 179.478224 
L 403.552867 181.118551 
L 406.795377 182.504352 
L 410.037887 183.618084 
L 413.280398 184.442851 
L 416.522908 184.971156 
L 418.684582 185.296477 
L 419.765418 185.598538 
L 424.088765 187.288313 
L 426.250439 187.68675 
L 428.412113 187.844369 
L 431.654623 187.774219 
L 434.897133 187.414049 
L 438.139644 186.813018 
L 441.382154 186.009764 
L 445.705501 184.691577 
L 452.190522 182.404167 
L 458.675542 180.156635 
L 461.918053 179.232159 
L 465.160563 178.551285 
L 467.322237 178.28464 
L 469.48391 178.206649 
L 471.645584 178.353197 
L 473.807257 178.762687 
L 475.968931 179.476055 
L 478.130604 180.536749 
L 480.292278 181.990676 
L 482.453951 183.886094 
L 484.615625 186.273463 
L 486.777299 189.205206 
L 488.938972 192.735403 
L 491.100646 196.919363 
L 493.262319 201.813082 
L 495.423993 207.472528 
L 497.585666 213.952735 
L 499.74734 221.306652 
L 501.909013 229.583688 
L 504.070687 238.827869 
L 506.232361 249.075529 
L 508.394034 260.35237 
L 510.555708 272.669747 
L 512.717381 286.01992 
L 515.959892 307.900781 
L 519.202402 331.761259 
L 523.525749 365.699403 
L 527.849096 399.727538 
L 530.01077 415.365666 
L 532.172443 428.791726 
L 533.25328 434.187718 
L 534.334117 438.286645 
L 535.414954 440.493196 
L 536.49579 439.762287 
L 537.576627 434.768854 
L 538.657464 424.815395 
L 539.738301 410.593158 
L 541.899974 375.092757 
L 548.384995 260.97723 
L 550.546668 227.838525 
L 552.708342 198.443002 
L 554.870015 172.936429 
L 557.031689 151.296468 
L 559.193363 133.403001 
L 560.274199 125.807006 
L 561.355036 119.077516 
L 562.435873 113.186763 
L 563.51671 108.105585 
L 564.597546 103.803673 
L 565.678383 100.249766 
L 566.75922 97.411798 
L 567.840057 95.257011 
L 568.920894 93.752052 
L 570.00173 92.86306 
L 571.082567 92.555765 
L 572.163404 92.795626 
L 573.244241 93.548087 
L 574.325077 94.77894 
L 575.405914 96.453983 
L 576.486751 98.534863 
L 577.567588 100.968352 
L 579.729261 106.572329 
L 582.971772 115.770815 
L 587.295119 128.635075 
L 593.780139 148.706591 
L 604.588507 182.347436 
L 608.911854 195.181946 
L 613.235201 207.308111 
L 616.477712 215.802384 
L 619.720222 223.682368 
L 622.962732 230.864819 
L 625.124406 235.227754 
L 627.28608 239.226265 
L 629.447753 242.841678 
L 631.609427 246.057246 
L 633.7711 248.858263 
L 635.932774 251.232167 
L 638.094447 253.168625 
L 640.256121 254.65961 
L 642.417794 255.699451 
L 644.579468 256.284882 
L 645.660305 256.406833 
L 646.741142 256.415055 
L 647.821978 256.309821 
L 649.983652 255.760832 
L 652.145325 254.765064 
L 654.306999 253.330074 
L 656.468673 251.465726 
L 658.630346 249.184114 
L 660.79202 246.499468 
L 662.953693 243.42805 
L 665.115367 239.988023 
L 667.27704 236.199318 
L 670.519551 229.910015 
L 673.762061 222.963626 
L 677.004571 215.444755 
L 681.327918 204.683581 
L 685.651265 193.282374 
L 692.136286 175.465316 
L 702.944654 145.63014 
L 708.348838 131.423534 
L 712.672185 120.677738 
L 716.995532 110.611342 
L 720.238042 103.561842 
L 723.480553 96.96913 
L 725.642226 92.652863 
L 726.723063 89.96747 
L 727.8039 86.027448 
L 728.884737 80.305662 
L 731.04641 67.394184 
L 732.127247 63.021057 
L 733.208084 60.266543 
L 734.28892 58.483225 
L 735.369757 57.194884 
L 736.450594 56.175549 
L 738.612268 54.598227 
L 740.773941 53.395727 
L 742.935615 52.429701 
L 746.178125 51.275645 
L 749.420635 50.364988 
L 753.743982 49.409036 
L 759.148166 48.499574 
L 765.633187 47.690717 
L 773.199044 47.005215 
L 781.845739 46.454997 
L 792.654106 45.98846 
L 806.704985 45.609178 
L 826.160046 45.322417 
L 854.261803 45.147945 
L 854.261803 45.147945 
" style="fill:none;stroke:#e98768;stroke-linecap:square;stroke-width:1.5;"/>
   </g>
   <g id="line2d_14">
    <path clip-path="url(#p74108d9a77)" d="M 114.969447 45.147998 
L 152.798735 45.524161 
L 172.253796 45.917438 
L 186.304675 46.401528 
L 197.113042 46.968914 
L 206.840573 47.703776 
L 214.406431 48.487215 
L 220.891451 49.361661 
L 226.295635 50.277365 
L 231.699819 51.40993 
L 236.023166 52.509881 
L 240.346513 53.821214 
L 244.669861 55.388607 
L 247.912371 56.764736 
L 251.154881 58.342952 
L 254.397392 60.153695 
L 257.639902 62.223655 
L 260.882412 64.552915 
L 272.771617 73.555867 
L 277.094964 76.321742 
L 285.741658 81.781806 
L 291.145842 85.474432 
L 296.550026 89.426216 
L 301.95421 93.6389 
L 307.358394 98.11038 
L 312.762577 102.834917 
L 319.247598 108.824202 
L 325.732619 115.137587 
L 333.298476 122.863356 
L 341.94517 132.06949 
L 354.915212 146.289522 
L 366.804416 159.210815 
L 373.289437 165.958299 
L 378.693621 171.298103 
L 384.097805 176.292954 
L 388.421152 179.982537 
L 392.744499 183.350579 
L 395.987009 185.637821 
L 399.22952 187.698707 
L 402.47203 189.51423 
L 405.71454 191.068289 
L 408.957051 192.357147 
L 412.199561 193.411484 
L 417.603745 194.885274 
L 424.088765 196.469364 
L 427.331276 196.970445 
L 429.492949 197.113417 
L 431.654623 197.095147 
L 434.897133 196.791504 
L 438.139644 196.209632 
L 441.382154 195.406142 
L 445.705501 194.076807 
L 452.190522 191.782065 
L 457.594706 189.913909 
L 460.837216 188.971225 
L 464.079726 188.274047 
L 466.2414 187.997258 
L 468.403073 187.910753 
L 470.564747 188.051693 
L 472.72642 188.459868 
L 474.888094 189.177673 
L 477.049768 190.250073 
L 479.211441 191.724552 
L 481.373115 193.651 
L 483.534788 196.081548 
L 485.696462 199.07032 
L 487.858135 202.673092 
L 490.019809 206.946831 
L 492.181482 211.949098 
L 494.343156 217.737273 
L 496.50483 224.367563 
L 498.666503 231.893737 
L 500.828177 240.365523 
L 502.98985 249.826573 
L 505.151524 260.311872 
L 507.313197 271.844439 
L 509.474871 284.431076 
L 511.636544 298.056846 
L 514.879055 320.337364 
L 518.121565 344.520203 
L 526.768259 411.311002 
L 528.929933 425.170057 
L 530.01077 430.881365 
L 531.091606 435.49438 
L 532.172443 438.776128 
L 533.25328 440.493196 
L 534.334117 440.428122 
L 535.414954 438.398071 
L 536.49579 434.273495 
L 537.576627 427.994006 
L 538.657464 419.578829 
L 539.738301 409.129892 
L 540.819137 396.826829 
L 542.980811 367.685252 
L 545.142485 334.556166 
L 550.546668 249.767804 
L 552.708342 219.449219 
L 554.870015 192.508315 
L 557.031689 169.246352 
L 559.193363 149.723955 
L 560.274199 141.342698 
L 561.355036 133.85722 
L 562.435873 127.244141 
L 563.51671 121.476982 
L 564.597546 116.526804 
L 565.678383 112.362641 
L 566.75922 108.951788 
L 567.840057 106.259959 
L 568.920894 104.251337 
L 570.00173 102.888549 
L 571.082567 102.132593 
L 572.163404 101.942781 
L 573.244241 102.276732 
L 574.325077 103.090499 
L 575.405914 104.338869 
L 576.486751 105.975883 
L 577.567588 107.955557 
L 579.729261 112.764276 
L 581.890935 118.431965 
L 585.133445 127.958201 
L 589.456792 141.661976 
L 598.103487 170.183315 
L 604.588507 191.357842 
L 608.911854 204.896802 
L 613.235201 217.686181 
L 616.477712 226.643986 
L 619.720222 234.953496 
L 622.962732 242.527353 
L 625.124406 247.128193 
L 627.28608 251.345004 
L 629.447753 255.158208 
L 631.609427 258.550246 
L 633.7711 261.505704 
L 635.932774 264.011418 
L 638.094447 266.05656 
L 640.256121 267.632718 
L 642.417794 268.733952 
L 643.498631 269.105304 
L 644.579468 269.356837 
L 645.660305 269.488522 
L 646.741142 269.500484 
L 647.821978 269.393011 
L 648.902815 269.166545 
L 649.983652 268.82169 
L 652.145325 267.779994 
L 654.306999 266.275829 
L 656.468673 264.319511 
L 658.630346 261.92369 
L 660.79202 259.103252 
L 662.953693 255.875204 
L 665.115367 252.258545 
L 667.27704 248.274122 
L 669.438714 243.944468 
L 672.681224 236.855655 
L 675.923735 229.13108 
L 679.166245 220.862594 
L 683.489592 209.157366 
L 688.893776 193.758269 
L 706.187164 143.639479 
L 710.510511 131.935217 
L 714.833858 120.823934 
L 721.318879 104.45411 
L 723.480553 98.438395 
L 725.642226 91.850021 
L 732.127247 70.842297 
L 734.28892 65.113905 
L 735.369757 62.725157 
L 736.450594 60.664681 
L 737.531431 58.917152 
L 738.612268 57.453561 
L 739.693104 56.236772 
L 740.773941 55.226781 
L 742.935615 53.676543 
L 745.097288 52.549902 
L 747.258962 51.680734 
L 750.501472 50.664233 
L 754.824819 49.632105 
L 759.148166 48.836472 
L 764.55235 48.066422 
L 771.037371 47.370977 
L 778.603228 46.777924 
L 788.330759 46.245253 
L 800.219964 45.817791 
L 816.432515 45.470684 
L 839.130088 45.228885 
L 855.342639 45.149219 
L 855.342639 45.149219 
" style="fill:none;stroke:#de5d5c;stroke-linecap:square;stroke-width:1.5;"/>
   </g>
   <g id="line2d_15">
    <path clip-path="url(#p74108d9a77)" d="M 112.807774 45.150481 
L 143.071204 45.432126 
L 164.687939 45.810923 
L 179.819654 46.276133 
L 191.708858 46.84931 
L 201.436389 47.533012 
L 209.002247 48.259282 
L 215.487268 49.067491 
L 221.972288 50.102725 
L 227.376472 51.189562 
L 231.699819 52.243578 
L 236.023166 53.498402 
L 240.346513 54.995461 
L 244.669861 56.78285 
L 247.912371 58.34406 
L 251.154881 60.113762 
L 254.397392 62.098589 
L 258.720739 65.056679 
L 264.124923 69.114617 
L 274.93329 77.369823 
L 293.307515 90.984373 
L 298.711699 95.404237 
L 304.115883 100.100009 
L 309.520067 105.071141 
L 314.924251 110.309707 
L 321.409272 116.930201 
L 327.894292 123.883983 
L 335.46015 132.3576 
L 344.106844 142.400664 
L 370.046927 172.811499 
L 375.451111 178.727935 
L 380.855294 184.318805 
L 385.178642 188.496508 
L 389.501989 192.360444 
L 393.825336 195.863448 
L 397.067846 198.227963 
L 400.310356 200.352147 
L 403.552867 202.230571 
L 406.795377 203.868817 
L 410.037887 205.284052 
L 413.280398 206.500363 
L 417.603745 207.846799 
L 420.846255 208.653539 
L 424.088765 209.264492 
L 427.331276 209.64568 
L 430.573786 209.765383 
L 433.816296 209.608172 
L 437.058807 209.181619 
L 440.301317 208.514938 
L 444.624664 207.332233 
L 451.109685 205.212594 
L 456.513869 203.488031 
L 459.756379 202.644549 
L 462.998889 202.064776 
L 465.160563 201.87982 
L 467.322237 201.89837 
L 469.48391 202.159609 
L 471.645584 202.705388 
L 473.807257 203.580209 
L 475.968931 204.831171 
L 478.130604 206.507862 
L 480.292278 208.662189 
L 482.453951 211.348128 
L 484.615625 214.621384 
L 486.777299 218.53893 
L 488.938972 223.158401 
L 491.100646 228.537297 
L 493.262319 234.731959 
L 495.423993 241.796232 
L 497.585666 249.779745 
L 499.74734 258.725666 
L 501.909013 268.667743 
L 504.070687 279.626373 
L 506.232361 291.603289 
L 508.394034 304.574356 
L 511.636544 325.751422 
L 514.879055 348.595705 
L 522.444912 402.864237 
L 524.606586 416.343361 
L 525.687423 422.303311 
L 526.768259 427.603033 
L 527.849096 432.134158 
L 528.929933 435.788972 
L 530.01077 438.463426 
L 531.091606 440.060414 
L 532.172443 440.493196 
L 533.25328 439.688793 
L 534.334117 437.591181 
L 535.414954 434.164093 
L 536.49579 429.393257 
L 537.576627 423.287915 
L 538.657464 415.881508 
L 539.738301 407.231471 
L 540.819137 397.418113 
L 542.980811 374.724397 
L 545.142485 348.807298 
L 548.384995 306.48836 
L 552.708342 249.891409 
L 554.870015 223.802221 
L 557.031689 200.161698 
L 559.193363 179.419517 
L 561.355036 161.820955 
L 562.435873 154.229574 
L 563.51671 147.440948 
L 564.597546 141.443963 
L 565.678383 136.221399 
L 566.75922 131.750888 
L 567.840057 128.005784 
L 568.920894 124.955934 
L 570.00173 122.568367 
L 571.082567 120.807913 
L 572.163404 119.637763 
L 573.244241 119.019973 
L 574.325077 118.915938 
L 575.405914 119.286827 
L 576.486751 120.093995 
L 577.567588 121.29936 
L 578.648425 122.865762 
L 579.729261 124.757275 
L 580.810098 126.939498 
L 582.971772 132.047482 
L 585.133445 137.952921 
L 587.295119 144.453723 
L 590.537629 154.965308 
L 595.941813 173.538876 
L 605.669344 207.187393 
L 609.992691 221.373544 
L 614.316038 234.698055 
L 617.558549 243.977538 
L 620.801059 252.537302 
L 624.043569 260.288178 
L 626.205243 264.965842 
L 628.366916 269.226428 
L 630.52859 273.050459 
L 632.690263 276.42065 
L 634.851937 279.322021 
L 637.013611 281.741997 
L 639.175284 283.670497 
L 641.336958 285.100001 
L 642.417794 285.62599 
L 643.498631 286.025595 
L 644.579468 286.298613 
L 645.660305 286.44501 
L 646.741142 286.464917 
L 647.821978 286.358632 
L 648.902815 286.126616 
L 649.983652 285.769496 
L 651.064489 285.28806 
L 653.226162 283.956205 
L 655.387836 282.140555 
L 657.549509 279.853091 
L 659.711183 277.108178 
L 661.872856 273.922455 
L 664.03453 270.314708 
L 666.196204 266.305727 
L 668.357877 261.918148 
L 671.600387 254.680499 
L 674.842898 246.734179 
L 678.085408 238.173359 
L 682.408755 225.973962 
L 686.732102 213.098639 
L 693.217123 193.047781 
L 704.025491 159.53099 
L 710.510511 140.198042 
L 723.480553 101.90248 
L 728.884737 85.935516 
L 732.127247 77.167071 
L 734.28892 71.947021 
L 736.450594 67.349951 
L 738.612268 63.42828 
L 740.773941 60.181895 
L 742.935615 57.564377 
L 745.097288 55.496689 
L 747.258962 53.883702 
L 749.420635 52.629209 
L 751.582309 51.646685 
L 753.743982 50.864941 
L 756.986493 49.953558 
L 761.30984 49.048869 
L 766.714024 48.213668 
L 773.199044 47.475817 
L 780.764902 46.851229 
L 790.492433 46.292225 
L 802.381637 45.845078 
L 818.594189 45.482777 
L 840.210925 45.2393 
L 857.504313 45.150172 
L 857.504313 45.150172 
" style="fill:none;stroke:#c14168;stroke-linecap:square;stroke-width:1.5;"/>
   </g>
   <g id="line2d_16">
    <path clip-path="url(#p74108d9a77)" d="M 108.484427 45.147741 
L 135.505346 45.376033 
L 159.283755 45.774014 
L 175.496307 46.262826 
L 187.385511 46.831544 
L 197.113042 47.508529 
L 205.759737 48.346598 
L 212.244757 49.178044 
L 218.729778 50.242926 
L 224.133962 51.360521 
L 228.457309 52.44333 
L 232.780656 53.729411 
L 237.104003 55.255757 
L 241.42735 57.060225 
L 245.750697 59.175441 
L 250.074044 61.619693 
L 254.397392 64.387022 
L 258.720739 67.440997 
L 264.124923 71.561821 
L 272.771617 78.504144 
L 287.903332 90.927903 
L 294.388352 96.530775 
L 299.792536 101.454755 
L 305.19672 106.650491 
L 310.600904 112.129929 
L 316.005088 117.889086 
L 322.490108 125.149039 
L 328.975129 132.753106 
L 336.540987 141.989141 
L 346.268518 154.270727 
L 365.72358 178.989166 
L 372.2086 186.829213 
L 377.612784 193.032519 
L 381.936131 197.712985 
L 386.259478 202.091418 
L 390.582825 206.123291 
L 393.825336 208.896539 
L 397.067846 211.441085 
L 400.310356 213.74916 
L 403.552867 215.817741 
L 406.795377 217.648026 
L 410.037887 219.243915 
L 413.280398 220.609739 
L 416.522908 221.747883 
L 419.765418 222.657183 
L 423.007929 223.332874 
L 426.250439 223.768403 
L 429.492949 223.958783 
L 432.73546 223.904663 
L 435.97797 223.616078 
L 439.22048 223.115109 
L 443.543827 222.17988 
L 450.028848 220.464814 
L 455.433032 219.119035 
L 458.675542 218.53499 
L 460.837216 218.304046 
L 462.998889 218.240632 
L 465.160563 218.382509 
L 467.322237 218.769965 
L 469.48391 219.44582 
L 471.645584 220.455384 
L 473.807257 221.846363 
L 475.968931 223.668692 
L 478.130604 225.974282 
L 480.292278 228.816658 
L 482.453951 232.250447 
L 484.615625 236.330706 
L 486.777299 241.112003 
L 488.938972 246.647218 
L 491.100646 252.985961 
L 493.262319 260.172503 
L 495.423993 268.243116 
L 497.585666 277.222669 
L 499.74734 287.120361 
L 501.909013 297.924498 
L 504.070687 309.59629 
L 507.313197 328.560023 
L 511.636544 355.829417 
L 517.040728 390.442804 
L 519.202402 403.352824 
L 521.364075 415.07894 
L 523.525749 425.136509 
L 524.606586 429.384814 
L 525.687423 433.031567 
L 526.768259 436.018424 
L 527.849096 438.290401 
L 528.929933 439.79698 
L 530.01077 440.493196 
L 531.091606 440.340698 
L 532.172443 439.308721 
L 533.25328 437.374969 
L 534.334117 434.526348 
L 535.414954 430.759556 
L 536.49579 426.081474 
L 537.576627 420.509367 
L 538.657464 414.070869 
L 539.738301 406.803749 
L 541.899974 389.982556 
L 544.061648 370.528876 
L 546.223321 349.040037 
L 550.546668 302.687023 
L 554.870015 256.477663 
L 557.031689 235.001559 
L 559.193363 215.279612 
L 561.355036 197.675725 
L 563.51671 182.438159 
L 565.678383 169.704218 
L 566.75922 164.291222 
L 567.840057 159.510966 
L 568.920894 155.354833 
L 570.00173 151.809905 
L 571.082567 148.859505 
L 572.163404 146.483735 
L 573.244241 144.660007 
L 574.325077 143.363545 
L 575.405914 142.567867 
L 576.486751 142.245232 
L 577.567588 142.367057 
L 578.648425 142.904292 
L 579.729261 143.827765 
L 580.810098 145.108477 
L 581.890935 146.717872 
L 582.971772 148.628063 
L 585.133445 153.243715 
L 587.295119 158.752019 
L 589.456792 164.968909 
L 592.699303 175.271792 
L 597.02265 190.139898 
L 609.992691 235.72313 
L 614.316038 249.694368 
L 617.558549 259.433677 
L 620.801059 268.420761 
L 624.043569 276.560688 
L 626.205243 281.474501 
L 628.366916 285.951626 
L 630.52859 289.971871 
L 632.690263 293.517351 
L 634.851937 296.572585 
L 637.013611 299.124584 
L 639.175284 301.162939 
L 641.336958 302.679875 
L 642.417794 303.241116 
L 643.498631 303.670307 
L 644.579468 303.967236 
L 645.660305 304.131864 
L 646.741142 304.16432 
L 647.821978 304.064905 
L 648.902815 303.834089 
L 649.983652 303.472509 
L 651.064489 302.980972 
L 653.226162 301.612068 
L 655.387836 299.737093 
L 657.549509 297.368298 
L 659.711183 294.520381 
L 661.872856 291.210367 
L 664.03453 287.457484 
L 666.196204 283.283016 
L 668.357877 278.710138 
L 671.600387 271.158676 
L 674.842898 262.857392 
L 678.085408 253.902651 
L 682.408755 241.120976 
L 686.732102 227.600996 
L 693.217123 206.458465 
L 713.753022 138.795583 
L 721.318879 114.808989 
L 725.642226 101.78057 
L 728.884737 92.615201 
L 732.127247 84.183983 
L 734.28892 79.060548 
L 736.450594 74.384589 
L 738.612268 70.183324 
L 740.773941 66.467933 
L 742.935615 63.233154 
L 745.097288 60.458545 
L 747.258962 58.111089 
L 749.420635 56.148684 
L 751.582309 54.523965 
L 753.743982 53.187957 
L 755.905656 52.093168 
L 758.06733 51.195888 
L 761.30984 50.137725 
L 764.55235 49.333678 
L 768.875697 48.528029 
L 774.279881 47.792871 
L 780.764902 47.152482 
L 789.411596 46.548339 
L 800.219964 46.042018 
L 814.270842 45.632832 
L 832.645067 45.337839 
L 858.58515 45.157888 
L 860.746823 45.150411 
L 860.746823 45.150411 
" style="fill:none;stroke:#9a3670;stroke-linecap:square;stroke-width:1.5;"/>
   </g>
   <g id="line2d_17">
    <path clip-path="url(#p74108d9a77)" d="M 104.16108 45.149049 
L 131.181999 45.361812 
L 153.879571 45.742412 
L 170.092123 46.219797 
L 181.981327 46.771616 
L 191.708858 47.426657 
L 200.355553 48.236108 
L 206.840573 49.037985 
L 213.325594 50.063181 
L 218.729778 51.136133 
L 224.133962 52.458662 
L 228.457309 53.733481 
L 232.780656 55.233745 
L 237.104003 56.988755 
L 241.42735 59.023181 
L 245.750697 61.352698 
L 250.074044 63.979859 
L 254.397392 66.891494 
L 258.720739 70.058958 
L 264.124923 74.315949 
L 270.609943 79.745803 
L 278.175801 86.37432 
L 286.822495 94.258697 
L 293.307515 100.438084 
L 299.792536 106.925007 
L 305.19672 112.610845 
L 310.600904 118.573327 
L 317.085925 126.098388 
L 323.570945 134.008917 
L 330.055966 142.26446 
L 337.621823 152.252605 
L 348.430191 166.94709 
L 363.561906 187.514673 
L 370.046927 195.967103 
L 375.451111 202.686723 
L 380.855294 209.015063 
L 385.178642 213.736934 
L 389.501989 218.111363 
L 393.825336 222.103434 
L 397.067846 224.829779 
L 400.310356 227.316928 
L 403.552867 229.55881 
L 406.795377 231.55147 
L 410.037887 233.292576 
L 413.280398 234.78094 
L 416.522908 236.016232 
L 419.765418 236.999053 
L 423.007929 237.731506 
L 426.250439 238.218266 
L 429.492949 238.468088 
L 432.73546 238.495579 
L 435.97797 238.323026 
L 440.301317 237.838014 
L 446.786338 236.792144 
L 452.190522 235.963497 
L 455.433032 235.661328 
L 458.675542 235.631865 
L 460.837216 235.821724 
L 462.998889 236.223417 
L 465.160563 236.877554 
L 467.322237 237.827007 
L 469.48391 239.11672 
L 471.645584 240.793442 
L 473.807257 242.905358 
L 475.968931 245.501585 
L 478.130604 248.631507 
L 480.292278 252.343907 
L 482.453951 256.68586 
L 484.615625 261.701327 
L 486.777299 267.429439 
L 488.938972 273.902405 
L 491.100646 281.143038 
L 493.262319 289.161893 
L 495.423993 297.954049 
L 497.585666 307.495602 
L 500.828177 323.104154 
L 504.070687 340.016556 
L 509.474871 369.861824 
L 513.798218 393.443078 
L 515.959892 404.436672 
L 518.121565 414.506988 
L 520.283239 423.344439 
L 521.364075 427.203999 
L 522.444912 430.640388 
L 523.525749 433.617362 
L 524.606586 436.100463 
L 525.687423 438.057484 
L 526.768259 439.458921 
L 527.849096 440.27842 
L 528.929933 440.493196 
L 530.01077 440.08443 
L 531.091606 439.03762 
L 532.172443 437.342895 
L 533.25328 434.995269 
L 534.334117 431.994839 
L 535.414954 428.346922 
L 536.49579 424.06212 
L 537.576627 419.156313 
L 539.738301 407.571062 
L 541.899974 393.81905 
L 544.061648 378.200324 
L 546.223321 361.075029 
L 549.465832 333.45615 
L 557.031689 267.601789 
L 560.274199 242.075948 
L 562.435873 226.787974 
L 564.597546 213.155342 
L 566.75922 201.339486 
L 568.920894 191.438811 
L 570.00173 187.221046 
L 571.082567 183.492391 
L 572.163404 180.249432 
L 573.244241 177.485874 
L 574.325077 175.192802 
L 575.405914 173.358949 
L 576.486751 171.970971 
L 577.567588 171.013718 
L 578.648425 170.470503 
L 579.729261 170.323362 
L 580.810098 170.55331 
L 581.890935 171.140578 
L 582.971772 172.064836 
L 584.052608 173.305399 
L 585.133445 174.841421 
L 586.214282 176.652067 
L 588.375956 181.014826 
L 590.537629 186.232512 
L 592.699303 192.151994 
L 594.860976 198.630517 
L 598.103487 209.113314 
L 603.50767 227.699185 
L 611.073528 253.773307 
L 615.396875 267.745468 
L 618.639385 277.484086 
L 621.881896 286.445666 
L 624.043569 291.934759 
L 626.205243 297.00293 
L 628.366916 301.62556 
L 630.52859 305.78089 
L 632.690263 309.449938 
L 634.851937 312.616457 
L 637.013611 315.266932 
L 639.175284 317.390579 
L 641.336958 318.979364 
L 642.417794 319.571426 
L 643.498631 320.02801 
L 644.579468 320.348888 
L 645.660305 320.534006 
L 646.741142 320.58348 
L 647.821978 320.4976 
L 648.902815 320.276825 
L 649.983652 319.921781 
L 651.064489 319.433266 
L 652.145325 318.812241 
L 654.306999 317.177324 
L 656.468673 315.027952 
L 658.630346 312.37754 
L 660.79202 309.241884 
L 662.953693 305.639032 
L 665.115367 301.589136 
L 667.27704 297.114288 
L 669.438714 292.238326 
L 672.681224 284.228168 
L 675.923735 275.463784 
L 679.166245 266.040645 
L 683.489592 252.620827 
L 687.812939 238.434159 
L 693.217123 219.954911 
L 702.944654 185.715334 
L 712.672185 151.700398 
L 718.076369 133.525363 
L 722.399716 119.681423 
L 725.642226 109.863068 
L 728.884737 100.65033 
L 732.127247 92.148039 
L 735.369757 84.44528 
L 737.531431 79.78682 
L 739.693104 75.523185 
L 741.854778 71.657872 
L 744.016451 68.187075 
L 746.178125 65.099998 
L 748.339799 62.379559 
L 750.501472 60.0034 
L 752.663146 57.945109 
L 754.824819 56.175543 
L 756.986493 54.66415 
L 759.148166 53.380192 
L 761.30984 52.293801 
L 764.55235 50.973683 
L 767.794861 49.950444 
L 771.037371 49.153246 
L 775.360718 48.346232 
L 780.764902 47.616826 
L 787.249923 46.997614 
L 795.896617 46.428362 
L 806.704985 45.95783 
L 820.755863 45.57947 
L 840.210925 45.298176 
L 865.07017 45.149766 
L 865.07017 45.149766 
" style="fill:none;stroke:#722c6e;stroke-linecap:square;stroke-width:1.5;"/>
   </g>
   <g id="patch_3">
    <path d="M 66.115625 460.260469 
L 66.115625 25.380469 
" style="fill:none;stroke:#000000;stroke-linecap:square;stroke-linejoin:miter;stroke-width:0.8;"/>
   </g>
   <g id="patch_4">
    <path d="M 903.115625 460.260469 
L 903.115625 25.380469 
" style="fill:none;stroke:#000000;stroke-linecap:square;stroke-linejoin:miter;stroke-width:0.8;"/>
   </g>
   <g id="patch_5">
    <path d="M 66.115625 460.260469 
L 903.115625 460.260469 
" style="fill:none;stroke:#000000;stroke-linecap:square;stroke-linejoin:miter;stroke-width:0.8;"/>
   </g>
   <g id="patch_6">
    <path d="M 66.115625 25.380469 
L 903.115625 25.380469 
" style="fill:none;stroke:#000000;stroke-linecap:square;stroke-linejoin:miter;stroke-width:0.8;"/>
   </g>
   <g id="text_15">
    <!-- T = 61.2 K, B = 0.00336 cm$^{-1}$   $\Delta B =$ -0.17% ,  $\Delta C =$ -0.17% -->
    <g transform="translate(257.965625 19.380469)scale(0.15 -0.15)">
     <defs>
      <path d="M -19 4666 
L 3928 4666 
L 3928 4134 
L 2272 4134 
L 2272 0 
L 1638 0 
L 1638 4134 
L -19 4134 
L -19 4666 
z
" id="DejaVuSans-54" transform="scale(0.015625)"/>
      <path d="M 678 2906 
L 4684 2906 
L 4684 2381 
L 678 2381 
L 678 2906 
z
M 678 1631 
L 4684 1631 
L 4684 1100 
L 678 1100 
L 678 1631 
z
" id="DejaVuSans-3d" transform="scale(0.015625)"/>
      <path d="M 628 4666 
L 1259 4666 
L 1259 2694 
L 3353 4666 
L 4166 4666 
L 1850 2491 
L 4331 0 
L 3500 0 
L 1259 2247 
L 1259 0 
L 628 0 
L 628 4666 
z
" id="DejaVuSans-4b" transform="scale(0.015625)"/>
      <path d="M 750 794 
L 1409 794 
L 1409 256 
L 897 -744 
L 494 -744 
L 750 256 
L 750 794 
z
" id="DejaVuSans-2c" transform="scale(0.015625)"/>
      <path d="M 1259 2228 
L 1259 519 
L 2272 519 
Q 2781 519 3026 730 
Q 3272 941 3272 1375 
Q 3272 1813 3026 2020 
Q 2781 2228 2272 2228 
L 1259 2228 
z
M 1259 4147 
L 1259 2741 
L 2194 2741 
Q 2656 2741 2882 2914 
Q 3109 3088 3109 3444 
Q 3109 3797 2882 3972 
Q 2656 4147 2194 4147 
L 1259 4147 
z
M 628 4666 
L 2241 4666 
Q 2963 4666 3353 4366 
Q 3744 4066 3744 3513 
Q 3744 3084 3544 2831 
Q 3344 2578 2956 2516 
Q 3422 2416 3680 2098 
Q 3938 1781 3938 1306 
Q 3938 681 3513 340 
Q 3088 0 2303 0 
L 628 0 
L 628 4666 
z
" id="DejaVuSans-42" transform="scale(0.015625)"/>
      <path d="M 2188 4044 
L 906 525 
L 3472 525 
L 2188 4044 
z
M 50 0 
L 1831 4666 
L 2547 4666 
L 4325 0 
L 50 0 
z
" id="DejaVuSans-394" transform="scale(0.015625)"/>
      <path d="M 1081 4666 
L 2694 4666 
Q 3350 4666 3675 4422 
Q 4000 4178 4000 3688 
Q 4000 3238 3720 2911 
Q 3441 2584 2988 2516 
Q 3375 2428 3569 2181 
Q 3763 1934 3763 1522 
Q 3763 819 3242 409 
Q 2722 0 1819 0 
L 172 0 
L 1081 4666 
z
M 1234 2228 
L 903 519 
L 1919 519 
Q 2491 519 2800 781 
Q 3109 1044 3109 1522 
Q 3109 1891 2904 2059 
Q 2700 2228 2247 2228 
L 1234 2228 
z
M 1606 4147 
L 1331 2741 
L 2272 2741 
Q 2775 2741 3058 2959 
Q 3341 3178 3341 3566 
Q 3341 3869 3150 4008 
Q 2959 4147 2541 4147 
L 1606 4147 
z
" id="DejaVuSans-Oblique-42" transform="scale(0.015625)"/>
      <path d="M 313 2009 
L 1997 2009 
L 1997 1497 
L 313 1497 
L 313 2009 
z
" id="DejaVuSans-2d" transform="scale(0.015625)"/>
      <path d="M 525 4666 
L 3525 4666 
L 3525 4397 
L 1831 0 
L 1172 0 
L 2766 4134 
L 525 4134 
L 525 4666 
z
" id="DejaVuSans-37" transform="scale(0.015625)"/>
      <path d="M 4653 2053 
Q 4381 2053 4226 1822 
Q 4072 1591 4072 1178 
Q 4072 772 4226 539 
Q 4381 306 4653 306 
Q 4919 306 5073 539 
Q 5228 772 5228 1178 
Q 5228 1588 5073 1820 
Q 4919 2053 4653 2053 
z
M 4653 2450 
Q 5147 2450 5437 2106 
Q 5728 1763 5728 1178 
Q 5728 594 5436 251 
Q 5144 -91 4653 -91 
Q 4153 -91 3862 251 
Q 3572 594 3572 1178 
Q 3572 1766 3864 2108 
Q 4156 2450 4653 2450 
z
M 1428 4353 
Q 1159 4353 1004 4120 
Q 850 3888 850 3481 
Q 850 3069 1003 2837 
Q 1156 2606 1428 2606 
Q 1700 2606 1854 2837 
Q 2009 3069 2009 3481 
Q 2009 3884 1853 4118 
Q 1697 4353 1428 4353 
z
M 4250 4750 
L 4750 4750 
L 1831 -91 
L 1331 -91 
L 4250 4750 
z
M 1428 4750 
Q 1922 4750 2215 4408 
Q 2509 4066 2509 3481 
Q 2509 2891 2217 2550 
Q 1925 2209 1428 2209 
Q 931 2209 642 2551 
Q 353 2894 353 3481 
Q 353 4063 643 4406 
Q 934 4750 1428 4750 
z
" id="DejaVuSans-25" transform="scale(0.015625)"/>
      <path d="M 4447 4306 
L 4319 3641 
Q 4019 3944 3683 4091 
Q 3347 4238 2956 4238 
Q 2422 4238 2017 3981 
Q 1613 3725 1319 3200 
Q 1131 2863 1032 2486 
Q 934 2109 934 1728 
Q 934 1091 1264 756 
Q 1594 422 2222 422 
Q 2656 422 3056 561 
Q 3456 700 3834 978 
L 3688 231 
Q 3316 72 2936 -9 
Q 2556 -91 2175 -91 
Q 1278 -91 773 396 
Q 269 884 269 1753 
Q 269 2309 461 2846 
Q 653 3384 1013 3828 
Q 1394 4300 1883 4525 
Q 2372 4750 3022 4750 
Q 3422 4750 3780 4639 
Q 4138 4528 4447 4306 
z
" id="DejaVuSans-Oblique-43" transform="scale(0.015625)"/>
     </defs>
     <use transform="translate(0 0.684375)" xlink:href="#DejaVuSans-54"/>
     <use transform="translate(61.083984 0.684375)" xlink:href="#DejaVuSans-20"/>
     <use transform="translate(92.871094 0.684375)" xlink:href="#DejaVuSans-3d"/>
     <use transform="translate(176.660156 0.684375)" xlink:href="#DejaVuSans-20"/>
     <use transform="translate(208.447266 0.684375)" xlink:href="#DejaVuSans-36"/>
     <use transform="translate(272.070312 0.684375)" xlink:href="#DejaVuSans-31"/>
     <use transform="translate(335.693359 0.684375)" xlink:href="#DejaVuSans-2e"/>
     <use transform="translate(361.980469 0.684375)" xlink:href="#DejaVuSans-32"/>
     <use transform="translate(425.603516 0.684375)" xlink:href="#DejaVuSans-20"/>
     <use transform="translate(457.390625 0.684375)" xlink:href="#DejaVuSans-4b"/>
     <use transform="translate(522.966797 0.684375)" xlink:href="#DejaVuSans-2c"/>
     <use transform="translate(554.753906 0.684375)" xlink:href="#DejaVuSans-20"/>
     <use transform="translate(586.541016 0.684375)" xlink:href="#DejaVuSans-42"/>
     <use transform="translate(655.144531 0.684375)" xlink:href="#DejaVuSans-20"/>
     <use transform="translate(686.931641 0.684375)" xlink:href="#DejaVuSans-3d"/>
     <use transform="translate(770.720703 0.684375)" xlink:href="#DejaVuSans-20"/>
     <use transform="translate(802.507812 0.684375)" xlink:href="#DejaVuSans-30"/>
     <use transform="translate(866.130859 0.684375)" xlink:href="#DejaVuSans-2e"/>
     <use transform="translate(897.917969 0.684375)" xlink:href="#DejaVuSans-30"/>
     <use transform="translate(961.541016 0.684375)" xlink:href="#DejaVuSans-30"/>
     <use transform="translate(1025.164062 0.684375)" xlink:href="#DejaVuSans-33"/>
     <use transform="translate(1088.787109 0.684375)" xlink:href="#DejaVuSans-33"/>
     <use transform="translate(1152.410156 0.684375)" xlink:href="#DejaVuSans-36"/>
     <use transform="translate(1216.033203 0.684375)" xlink:href="#DejaVuSans-20"/>
     <use transform="translate(1247.820312 0.684375)" xlink:href="#DejaVuSans-63"/>
     <use transform="translate(1302.800781 0.684375)" xlink:href="#DejaVuSans-6d"/>
     <use transform="translate(1401.169922 38.965625)scale(0.7)" xlink:href="#DejaVuSans-2212"/>
     <use transform="translate(1459.822266 38.965625)scale(0.7)" xlink:href="#DejaVuSans-31"/>
     <use transform="translate(1507.092773 0.684375)" xlink:href="#DejaVuSans-20"/>
     <use transform="translate(1538.879883 0.684375)" xlink:href="#DejaVuSans-20"/>
     <use transform="translate(1570.666992 0.684375)" xlink:href="#DejaVuSans-20"/>
     <use transform="translate(1602.454102 0.684375)" xlink:href="#DejaVuSans-394"/>
     <use transform="translate(1670.862305 0.684375)" xlink:href="#DejaVuSans-Oblique-42"/>
     <use transform="translate(1758.948242 0.684375)" xlink:href="#DejaVuSans-3d"/>
     <use transform="translate(1862.219727 0.684375)" xlink:href="#DejaVuSans-20"/>
     <use transform="translate(1894.006836 0.684375)" xlink:href="#DejaVuSans-2d"/>
     <use transform="translate(1930.09082 0.684375)" xlink:href="#DejaVuSans-30"/>
     <use transform="translate(1993.713867 0.684375)" xlink:href="#DejaVuSans-2e"/>
     <use transform="translate(2025.500977 0.684375)" xlink:href="#DejaVuSans-31"/>
     <use transform="translate(2089.124023 0.684375)" xlink:href="#DejaVuSans-37"/>
     <use transform="translate(2152.74707 0.684375)" xlink:href="#DejaVuSans-25"/>
     <use transform="translate(2247.766602 0.684375)" xlink:href="#DejaVuSans-20"/>
     <use transform="translate(2279.553711 0.684375)" xlink:href="#DejaVuSans-2c"/>
     <use transform="translate(2311.34082 0.684375)" xlink:href="#DejaVuSans-20"/>
     <use transform="translate(2343.12793 0.684375)" xlink:href="#DejaVuSans-20"/>
     <use transform="translate(2374.915039 0.684375)" xlink:href="#DejaVuSans-394"/>
     <use transform="translate(2443.323242 0.684375)" xlink:href="#DejaVuSans-Oblique-43"/>
     <use transform="translate(2532.629883 0.684375)" xlink:href="#DejaVuSans-3d"/>
     <use transform="translate(2635.901367 0.684375)" xlink:href="#DejaVuSans-20"/>
     <use transform="translate(2667.688477 0.684375)" xlink:href="#DejaVuSans-2d"/>
     <use transform="translate(2703.772461 0.684375)" xlink:href="#DejaVuSans-30"/>
     <use transform="translate(2767.395508 0.684375)" xlink:href="#DejaVuSans-2e"/>
     <use transform="translate(2799.182617 0.684375)" xlink:href="#DejaVuSans-31"/>
     <use transform="translate(2862.805664 0.684375)" xlink:href="#DejaVuSans-37"/>
     <use transform="translate(2926.428711 0.684375)" xlink:href="#DejaVuSans-25"/>
    </g>
   </g>
   <g id="legend_1">
    <g id="patch_7">
     <path d="M 76.615625 452.760469 
L 213.25625 452.760469 
Q 216.25625 452.760469 216.25625 449.760469 
L 216.25625 341.174531 
Q 216.25625 338.174531 213.25625 338.174531 
L 76.615625 338.174531 
Q 73.615625 338.174531 73.615625 341.174531 
L 73.615625 449.760469 
Q 73.615625 452.760469 76.615625 452.760469 
z
" style="fill:#ffffff;opacity:0.8;stroke:#cccccc;stroke-linejoin:miter;"/>
    </g>
    <g id="line2d_18">
     <path d="M 79.615625 350.322187 
L 109.615625 350.322187 
" style="fill:none;stroke:#e98768;stroke-linecap:square;stroke-width:1.5;"/>
    </g>
    <g id="line2d_19"/>
    <g id="text_16">
     <!-- 0.5  km/s -->
     <g transform="translate(121.615625 355.572187)scale(0.15 -0.15)">
      <defs>
       <path d="M 691 4666 
L 3169 4666 
L 3169 4134 
L 1269 4134 
L 1269 2991 
Q 1406 3038 1543 3061 
Q 1681 3084 1819 3084 
Q 2600 3084 3056 2656 
Q 3513 2228 3513 1497 
Q 3513 744 3044 326 
Q 2575 -91 1722 -91 
Q 1428 -91 1123 -41 
Q 819 9 494 109 
L 494 744 
Q 775 591 1075 516 
Q 1375 441 1709 441 
Q 2250 441 2565 725 
Q 2881 1009 2881 1497 
Q 2881 1984 2565 2268 
Q 2250 2553 1709 2553 
Q 1456 2553 1204 2497 
Q 953 2441 691 2322 
L 691 4666 
z
" id="DejaVuSans-35" transform="scale(0.015625)"/>
       <path d="M 581 4863 
L 1159 4863 
L 1159 1991 
L 2875 3500 
L 3609 3500 
L 1753 1863 
L 3688 0 
L 2938 0 
L 1159 1709 
L 1159 0 
L 581 0 
L 581 4863 
z
" id="DejaVuSans-6b" transform="scale(0.015625)"/>
       <path d="M 1625 4666 
L 2156 4666 
L 531 -594 
L 0 -594 
L 1625 4666 
z
" id="DejaVuSans-2f" transform="scale(0.015625)"/>
      </defs>
      <use xlink:href="#DejaVuSans-30"/>
      <use x="63.623047" xlink:href="#DejaVuSans-2e"/>
      <use x="95.410156" xlink:href="#DejaVuSans-35"/>
      <use x="159.033203" xlink:href="#DejaVuSans-20"/>
      <use x="190.820312" xlink:href="#DejaVuSans-20"/>
      <use x="222.607422" xlink:href="#DejaVuSans-6b"/>
      <use x="280.517578" xlink:href="#DejaVuSans-6d"/>
      <use x="377.929688" xlink:href="#DejaVuSans-2f"/>
      <use x="411.621094" xlink:href="#DejaVuSans-73"/>
     </g>
    </g>
    <g id="line2d_20">
     <path d="M 79.615625 372.339375 
L 109.615625 372.339375 
" style="fill:none;stroke:#de5d5c;stroke-linecap:square;stroke-width:1.5;"/>
    </g>
    <g id="line2d_21"/>
    <g id="text_17">
     <!-- 1.625  km/s -->
     <g transform="translate(121.615625 377.589375)scale(0.15 -0.15)">
      <use xlink:href="#DejaVuSans-31"/>
      <use x="63.623047" xlink:href="#DejaVuSans-2e"/>
      <use x="95.410156" xlink:href="#DejaVuSans-36"/>
      <use x="159.033203" xlink:href="#DejaVuSans-32"/>
      <use x="222.65625" xlink:href="#DejaVuSans-35"/>
      <use x="286.279297" xlink:href="#DejaVuSans-20"/>
      <use x="318.066406" xlink:href="#DejaVuSans-20"/>
      <use x="349.853516" xlink:href="#DejaVuSans-6b"/>
      <use x="407.763672" xlink:href="#DejaVuSans-6d"/>
      <use x="505.175781" xlink:href="#DejaVuSans-2f"/>
      <use x="538.867188" xlink:href="#DejaVuSans-73"/>
     </g>
    </g>
    <g id="line2d_22">
     <path d="M 79.615625 394.356562 
L 109.615625 394.356562 
" style="fill:none;stroke:#c14168;stroke-linecap:square;stroke-width:1.5;"/>
    </g>
    <g id="line2d_23"/>
    <g id="text_18">
     <!-- 2.75  km/s -->
     <g transform="translate(121.615625 399.606562)scale(0.15 -0.15)">
      <use xlink:href="#DejaVuSans-32"/>
      <use x="63.623047" xlink:href="#DejaVuSans-2e"/>
      <use x="95.410156" xlink:href="#DejaVuSans-37"/>
      <use x="159.033203" xlink:href="#DejaVuSans-35"/>
      <use x="222.65625" xlink:href="#DejaVuSans-20"/>
      <use x="254.443359" xlink:href="#DejaVuSans-20"/>
      <use x="286.230469" xlink:href="#DejaVuSans-6b"/>
      <use x="344.140625" xlink:href="#DejaVuSans-6d"/>
      <use x="441.552734" xlink:href="#DejaVuSans-2f"/>
      <use x="475.244141" xlink:href="#DejaVuSans-73"/>
     </g>
    </g>
    <g id="line2d_24">
     <path d="M 79.615625 416.37375 
L 109.615625 416.37375 
" style="fill:none;stroke:#9a3670;stroke-linecap:square;stroke-width:1.5;"/>
    </g>
    <g id="line2d_25"/>
    <g id="text_19">
     <!-- 3.875  km/s -->
     <g transform="translate(121.615625 421.62375)scale(0.15 -0.15)">
      <use xlink:href="#DejaVuSans-33"/>
      <use x="63.623047" xlink:href="#DejaVuSans-2e"/>
      <use x="95.410156" xlink:href="#DejaVuSans-38"/>
      <use x="159.033203" xlink:href="#DejaVuSans-37"/>
      <use x="222.65625" xlink:href="#DejaVuSans-35"/>
      <use x="286.279297" xlink:href="#DejaVuSans-20"/>
      <use x="318.066406" xlink:href="#DejaVuSans-20"/>
      <use x="349.853516" xlink:href="#DejaVuSans-6b"/>
      <use x="407.763672" xlink:href="#DejaVuSans-6d"/>
      <use x="505.175781" xlink:href="#DejaVuSans-2f"/>
      <use x="538.867188" xlink:href="#DejaVuSans-73"/>
     </g>
    </g>
    <g id="line2d_26">
     <path d="M 79.615625 438.390937 
L 109.615625 438.390937 
" style="fill:none;stroke:#722c6e;stroke-linecap:square;stroke-width:1.5;"/>
    </g>
    <g id="line2d_27"/>
    <g id="text_20">
     <!-- 5.0  km/s -->
     <g transform="translate(121.615625 443.640937)scale(0.15 -0.15)">
      <use xlink:href="#DejaVuSans-35"/>
      <use x="63.623047" xlink:href="#DejaVuSans-2e"/>
      <use x="95.410156" xlink:href="#DejaVuSans-30"/>
      <use x="159.033203" xlink:href="#DejaVuSans-20"/>
      <use x="190.820312" xlink:href="#DejaVuSans-20"/>
      <use x="222.607422" xlink:href="#DejaVuSans-6b"/>
      <use x="280.517578" xlink:href="#DejaVuSans-6d"/>
      <use x="377.929688" xlink:href="#DejaVuSans-2f"/>
      <use x="411.621094" xlink:href="#DejaVuSans-73"/>
     </g>
    </g>
   </g>
  </g>
 </g>
 <defs>
  <clipPath id="p74108d9a77">
   <rect height="434.88" width="837" x="66.115625" y="25.380469"/>
  </clipPath>
 </defs>
</svg>
