<?xml version="1.0" encoding="utf-8" standalone="no"?>
<!DOCTYPE svg PUBLIC "-//W3C//DTD SVG 1.1//EN"
  "http://www.w3.org/Graphics/SVG/1.1/DTD/svg11.dtd">
<svg height="509.897187pt" version="1.1" viewBox="0 0 899.030469 509.897187" width="899.030469pt" xmlns="http://www.w3.org/2000/svg" xmlns:xlink="http://www.w3.org/1999/xlink">
 <metadata>
  <rdf:RDF xmlns:cc="http://creativecommons.org/ns#" xmlns:dc="http://purl.org/dc/elements/1.1/" xmlns:rdf="http://www.w3.org/1999/02/22-rdf-syntax-ns#">
   <cc:Work>
    <dc:type rdf:resource="http://purl.org/dc/dcmitype/StillImage"/>
    <dc:date>2023-01-12T11:12:34.207184</dc:date>
    <dc:format>image/svg+xml</dc:format>
    <dc:creator>
     <cc:Agent>
      <dc:title>Matplotlib v3.4.3, https://matplotlib.org/</dc:title>
     </cc:Agent>
    </dc:creator>
   </cc:Work>
  </rdf:RDF>
 </metadata>
 <defs>
  <style type="text/css">*{stroke-linecap:butt;stroke-linejoin:round;}</style>
 </defs>
 <g id="figure_1">
  <g id="patch_1">
   <path d="M 0 509.897187 
L 899.030469 509.897187 
L 899.030469 0 
L 0 0 
z
" style="fill:#ffffff;"/>
  </g>
  <g id="axes_1">
   <g id="patch_2">
    <path d="M 54.830469 461.58 
L 891.830469 461.58 
L 891.830469 26.7 
L 54.830469 26.7 
z
" style="fill:#ffffff;"/>
   </g>
   <g id="matplotlib.axis_1">
    <g id="xtick_1">
     <g id="line2d_1">
      <defs>
       <path d="M 0 0 
L 0 3.5 
" id="mb1773b278f" style="stroke:#000000;stroke-width:0.8;"/>
      </defs>
      <g>
       <use style="stroke:#000000;stroke-width:0.8;" x="68.120143" xlink:href="#mb1773b278f" y="461.58"/>
      </g>
     </g>
     <g id="text_1">
      <!-- −3 -->
      <g transform="translate(57.063502 479.977656)scale(0.15 -0.15)">
       <defs>
        <path d="M 678 2272 
L 4684 2272 
L 4684 1741 
L 678 1741 
L 678 2272 
z
" id="DejaVuSans-2212" transform="scale(0.015625)"/>
        <path d="M 2597 2516 
Q 3050 2419 3304 2112 
Q 3559 1806 3559 1356 
Q 3559 666 3084 287 
Q 2609 -91 1734 -91 
Q 1441 -91 1130 -33 
Q 819 25 488 141 
L 488 750 
Q 750 597 1062 519 
Q 1375 441 1716 441 
Q 2309 441 2620 675 
Q 2931 909 2931 1356 
Q 2931 1769 2642 2001 
Q 2353 2234 1838 2234 
L 1294 2234 
L 1294 2753 
L 1863 2753 
Q 2328 2753 2575 2939 
Q 2822 3125 2822 3475 
Q 2822 3834 2567 4026 
Q 2313 4219 1838 4219 
Q 1578 4219 1281 4162 
Q 984 4106 628 3988 
L 628 4550 
Q 988 4650 1302 4700 
Q 1616 4750 1894 4750 
Q 2613 4750 3031 4423 
Q 3450 4097 3450 3541 
Q 3450 3153 3228 2886 
Q 3006 2619 2597 2516 
z
" id="DejaVuSans-33" transform="scale(0.015625)"/>
       </defs>
       <use xlink:href="#DejaVuSans-2212"/>
       <use x="83.789062" xlink:href="#DejaVuSans-33"/>
      </g>
     </g>
    </g>
    <g id="xtick_2">
     <g id="line2d_2">
      <g>
       <use style="stroke:#000000;stroke-width:0.8;" x="221.168795" xlink:href="#mb1773b278f" y="461.58"/>
      </g>
     </g>
     <g id="text_2">
      <!-- −2 -->
      <g transform="translate(210.112154 479.977656)scale(0.15 -0.15)">
       <defs>
        <path d="M 1228 531 
L 3431 531 
L 3431 0 
L 469 0 
L 469 531 
Q 828 903 1448 1529 
Q 2069 2156 2228 2338 
Q 2531 2678 2651 2914 
Q 2772 3150 2772 3378 
Q 2772 3750 2511 3984 
Q 2250 4219 1831 4219 
Q 1534 4219 1204 4116 
Q 875 4013 500 3803 
L 500 4441 
Q 881 4594 1212 4672 
Q 1544 4750 1819 4750 
Q 2544 4750 2975 4387 
Q 3406 4025 3406 3419 
Q 3406 3131 3298 2873 
Q 3191 2616 2906 2266 
Q 2828 2175 2409 1742 
Q 1991 1309 1228 531 
z
" id="DejaVuSans-32" transform="scale(0.015625)"/>
       </defs>
       <use xlink:href="#DejaVuSans-2212"/>
       <use x="83.789062" xlink:href="#DejaVuSans-32"/>
      </g>
     </g>
    </g>
    <g id="xtick_3">
     <g id="line2d_3">
      <g>
       <use style="stroke:#000000;stroke-width:0.8;" x="374.217447" xlink:href="#mb1773b278f" y="461.58"/>
      </g>
     </g>
     <g id="text_3">
      <!-- −1 -->
      <g transform="translate(363.160806 479.977656)scale(0.15 -0.15)">
       <defs>
        <path d="M 794 531 
L 1825 531 
L 1825 4091 
L 703 3866 
L 703 4441 
L 1819 4666 
L 2450 4666 
L 2450 531 
L 3481 531 
L 3481 0 
L 794 0 
L 794 531 
z
" id="DejaVuSans-31" transform="scale(0.015625)"/>
       </defs>
       <use xlink:href="#DejaVuSans-2212"/>
       <use x="83.789062" xlink:href="#DejaVuSans-31"/>
      </g>
     </g>
    </g>
    <g id="xtick_4">
     <g id="line2d_4">
      <g>
       <use style="stroke:#000000;stroke-width:0.8;" x="527.266098" xlink:href="#mb1773b278f" y="461.58"/>
      </g>
     </g>
     <g id="text_4">
      <!-- 0 -->
      <g transform="translate(522.494223 479.977656)scale(0.15 -0.15)">
       <defs>
        <path d="M 2034 4250 
Q 1547 4250 1301 3770 
Q 1056 3291 1056 2328 
Q 1056 1369 1301 889 
Q 1547 409 2034 409 
Q 2525 409 2770 889 
Q 3016 1369 3016 2328 
Q 3016 3291 2770 3770 
Q 2525 4250 2034 4250 
z
M 2034 4750 
Q 2819 4750 3233 4129 
Q 3647 3509 3647 2328 
Q 3647 1150 3233 529 
Q 2819 -91 2034 -91 
Q 1250 -91 836 529 
Q 422 1150 422 2328 
Q 422 3509 836 4129 
Q 1250 4750 2034 4750 
z
" id="DejaVuSans-30" transform="scale(0.015625)"/>
       </defs>
       <use xlink:href="#DejaVuSans-30"/>
      </g>
     </g>
    </g>
    <g id="xtick_5">
     <g id="line2d_5">
      <g>
       <use style="stroke:#000000;stroke-width:0.8;" x="680.31475" xlink:href="#mb1773b278f" y="461.58"/>
      </g>
     </g>
     <g id="text_5">
      <!-- 1 -->
      <g transform="translate(675.542875 479.977656)scale(0.15 -0.15)">
       <use xlink:href="#DejaVuSans-31"/>
      </g>
     </g>
    </g>
    <g id="xtick_6">
     <g id="line2d_6">
      <g>
       <use style="stroke:#000000;stroke-width:0.8;" x="833.363402" xlink:href="#mb1773b278f" y="461.58"/>
      </g>
     </g>
     <g id="text_6">
      <!-- 2 -->
      <g transform="translate(828.591527 479.977656)scale(0.15 -0.15)">
       <use xlink:href="#DejaVuSans-32"/>
      </g>
     </g>
    </g>
    <g id="text_7">
     <!-- Wavenumber (in cm$^{-1}$) -->
     <g transform="translate(386.030469 499.577656)scale(0.15 -0.15)">
      <defs>
       <path d="M 213 4666 
L 850 4666 
L 1831 722 
L 2809 4666 
L 3519 4666 
L 4500 722 
L 5478 4666 
L 6119 4666 
L 4947 0 
L 4153 0 
L 3169 4050 
L 2175 0 
L 1381 0 
L 213 4666 
z
" id="DejaVuSans-57" transform="scale(0.015625)"/>
       <path d="M 2194 1759 
Q 1497 1759 1228 1600 
Q 959 1441 959 1056 
Q 959 750 1161 570 
Q 1363 391 1709 391 
Q 2188 391 2477 730 
Q 2766 1069 2766 1631 
L 2766 1759 
L 2194 1759 
z
M 3341 1997 
L 3341 0 
L 2766 0 
L 2766 531 
Q 2569 213 2275 61 
Q 1981 -91 1556 -91 
Q 1019 -91 701 211 
Q 384 513 384 1019 
Q 384 1609 779 1909 
Q 1175 2209 1959 2209 
L 2766 2209 
L 2766 2266 
Q 2766 2663 2505 2880 
Q 2244 3097 1772 3097 
Q 1472 3097 1187 3025 
Q 903 2953 641 2809 
L 641 3341 
Q 956 3463 1253 3523 
Q 1550 3584 1831 3584 
Q 2591 3584 2966 3190 
Q 3341 2797 3341 1997 
z
" id="DejaVuSans-61" transform="scale(0.015625)"/>
       <path d="M 191 3500 
L 800 3500 
L 1894 563 
L 2988 3500 
L 3597 3500 
L 2284 0 
L 1503 0 
L 191 3500 
z
" id="DejaVuSans-76" transform="scale(0.015625)"/>
       <path d="M 3597 1894 
L 3597 1613 
L 953 1613 
Q 991 1019 1311 708 
Q 1631 397 2203 397 
Q 2534 397 2845 478 
Q 3156 559 3463 722 
L 3463 178 
Q 3153 47 2828 -22 
Q 2503 -91 2169 -91 
Q 1331 -91 842 396 
Q 353 884 353 1716 
Q 353 2575 817 3079 
Q 1281 3584 2069 3584 
Q 2775 3584 3186 3129 
Q 3597 2675 3597 1894 
z
M 3022 2063 
Q 3016 2534 2758 2815 
Q 2500 3097 2075 3097 
Q 1594 3097 1305 2825 
Q 1016 2553 972 2059 
L 3022 2063 
z
" id="DejaVuSans-65" transform="scale(0.015625)"/>
       <path d="M 3513 2113 
L 3513 0 
L 2938 0 
L 2938 2094 
Q 2938 2591 2744 2837 
Q 2550 3084 2163 3084 
Q 1697 3084 1428 2787 
Q 1159 2491 1159 1978 
L 1159 0 
L 581 0 
L 581 3500 
L 1159 3500 
L 1159 2956 
Q 1366 3272 1645 3428 
Q 1925 3584 2291 3584 
Q 2894 3584 3203 3211 
Q 3513 2838 3513 2113 
z
" id="DejaVuSans-6e" transform="scale(0.015625)"/>
       <path d="M 544 1381 
L 544 3500 
L 1119 3500 
L 1119 1403 
Q 1119 906 1312 657 
Q 1506 409 1894 409 
Q 2359 409 2629 706 
Q 2900 1003 2900 1516 
L 2900 3500 
L 3475 3500 
L 3475 0 
L 2900 0 
L 2900 538 
Q 2691 219 2414 64 
Q 2138 -91 1772 -91 
Q 1169 -91 856 284 
Q 544 659 544 1381 
z
M 1991 3584 
L 1991 3584 
z
" id="DejaVuSans-75" transform="scale(0.015625)"/>
       <path d="M 3328 2828 
Q 3544 3216 3844 3400 
Q 4144 3584 4550 3584 
Q 5097 3584 5394 3201 
Q 5691 2819 5691 2113 
L 5691 0 
L 5113 0 
L 5113 2094 
Q 5113 2597 4934 2840 
Q 4756 3084 4391 3084 
Q 3944 3084 3684 2787 
Q 3425 2491 3425 1978 
L 3425 0 
L 2847 0 
L 2847 2094 
Q 2847 2600 2669 2842 
Q 2491 3084 2119 3084 
Q 1678 3084 1418 2786 
Q 1159 2488 1159 1978 
L 1159 0 
L 581 0 
L 581 3500 
L 1159 3500 
L 1159 2956 
Q 1356 3278 1631 3431 
Q 1906 3584 2284 3584 
Q 2666 3584 2933 3390 
Q 3200 3197 3328 2828 
z
" id="DejaVuSans-6d" transform="scale(0.015625)"/>
       <path d="M 3116 1747 
Q 3116 2381 2855 2742 
Q 2594 3103 2138 3103 
Q 1681 3103 1420 2742 
Q 1159 2381 1159 1747 
Q 1159 1113 1420 752 
Q 1681 391 2138 391 
Q 2594 391 2855 752 
Q 3116 1113 3116 1747 
z
M 1159 2969 
Q 1341 3281 1617 3432 
Q 1894 3584 2278 3584 
Q 2916 3584 3314 3078 
Q 3713 2572 3713 1747 
Q 3713 922 3314 415 
Q 2916 -91 2278 -91 
Q 1894 -91 1617 61 
Q 1341 213 1159 525 
L 1159 0 
L 581 0 
L 581 4863 
L 1159 4863 
L 1159 2969 
z
" id="DejaVuSans-62" transform="scale(0.015625)"/>
       <path d="M 2631 2963 
Q 2534 3019 2420 3045 
Q 2306 3072 2169 3072 
Q 1681 3072 1420 2755 
Q 1159 2438 1159 1844 
L 1159 0 
L 581 0 
L 581 3500 
L 1159 3500 
L 1159 2956 
Q 1341 3275 1631 3429 
Q 1922 3584 2338 3584 
Q 2397 3584 2469 3576 
Q 2541 3569 2628 3553 
L 2631 2963 
z
" id="DejaVuSans-72" transform="scale(0.015625)"/>
       <path id="DejaVuSans-20" transform="scale(0.015625)"/>
       <path d="M 1984 4856 
Q 1566 4138 1362 3434 
Q 1159 2731 1159 2009 
Q 1159 1288 1364 580 
Q 1569 -128 1984 -844 
L 1484 -844 
Q 1016 -109 783 600 
Q 550 1309 550 2009 
Q 550 2706 781 3412 
Q 1013 4119 1484 4856 
L 1984 4856 
z
" id="DejaVuSans-28" transform="scale(0.015625)"/>
       <path d="M 603 3500 
L 1178 3500 
L 1178 0 
L 603 0 
L 603 3500 
z
M 603 4863 
L 1178 4863 
L 1178 4134 
L 603 4134 
L 603 4863 
z
" id="DejaVuSans-69" transform="scale(0.015625)"/>
       <path d="M 3122 3366 
L 3122 2828 
Q 2878 2963 2633 3030 
Q 2388 3097 2138 3097 
Q 1578 3097 1268 2742 
Q 959 2388 959 1747 
Q 959 1106 1268 751 
Q 1578 397 2138 397 
Q 2388 397 2633 464 
Q 2878 531 3122 666 
L 3122 134 
Q 2881 22 2623 -34 
Q 2366 -91 2075 -91 
Q 1284 -91 818 406 
Q 353 903 353 1747 
Q 353 2603 823 3093 
Q 1294 3584 2113 3584 
Q 2378 3584 2631 3529 
Q 2884 3475 3122 3366 
z
" id="DejaVuSans-63" transform="scale(0.015625)"/>
       <path d="M 513 4856 
L 1013 4856 
Q 1481 4119 1714 3412 
Q 1947 2706 1947 2009 
Q 1947 1309 1714 600 
Q 1481 -109 1013 -844 
L 513 -844 
Q 928 -128 1133 580 
Q 1338 1288 1338 2009 
Q 1338 2731 1133 3434 
Q 928 4138 513 4856 
z
" id="DejaVuSans-29" transform="scale(0.015625)"/>
      </defs>
      <use transform="translate(0 0.684375)" xlink:href="#DejaVuSans-57"/>
      <use transform="translate(98.876953 0.684375)" xlink:href="#DejaVuSans-61"/>
      <use transform="translate(160.15625 0.684375)" xlink:href="#DejaVuSans-76"/>
      <use transform="translate(219.335938 0.684375)" xlink:href="#DejaVuSans-65"/>
      <use transform="translate(280.859375 0.684375)" xlink:href="#DejaVuSans-6e"/>
      <use transform="translate(344.238281 0.684375)" xlink:href="#DejaVuSans-75"/>
      <use transform="translate(407.617188 0.684375)" xlink:href="#DejaVuSans-6d"/>
      <use transform="translate(505.029297 0.684375)" xlink:href="#DejaVuSans-62"/>
      <use transform="translate(568.505859 0.684375)" xlink:href="#DejaVuSans-65"/>
      <use transform="translate(630.029297 0.684375)" xlink:href="#DejaVuSans-72"/>
      <use transform="translate(671.142578 0.684375)" xlink:href="#DejaVuSans-20"/>
      <use transform="translate(702.929688 0.684375)" xlink:href="#DejaVuSans-28"/>
      <use transform="translate(741.943359 0.684375)" xlink:href="#DejaVuSans-69"/>
      <use transform="translate(769.726562 0.684375)" xlink:href="#DejaVuSans-6e"/>
      <use transform="translate(833.105469 0.684375)" xlink:href="#DejaVuSans-20"/>
      <use transform="translate(864.892578 0.684375)" xlink:href="#DejaVuSans-63"/>
      <use transform="translate(919.873047 0.684375)" xlink:href="#DejaVuSans-6d"/>
      <use transform="translate(1018.242188 38.965625)scale(0.7)" xlink:href="#DejaVuSans-2212"/>
      <use transform="translate(1076.894531 38.965625)scale(0.7)" xlink:href="#DejaVuSans-31"/>
      <use transform="translate(1124.165039 0.684375)" xlink:href="#DejaVuSans-29"/>
     </g>
    </g>
   </g>
   <g id="matplotlib.axis_2">
    <g id="ytick_1">
     <g id="line2d_7">
      <defs>
       <path d="M 0 0 
L -3.5 0 
" id="m9128edfaab" style="stroke:#000000;stroke-width:0.8;"/>
      </defs>
      <g>
       <use style="stroke:#000000;stroke-width:0.8;" x="54.830469" xlink:href="#m9128edfaab" y="459.283475"/>
      </g>
     </g>
     <g id="text_8">
      <!-- −7 -->
      <g transform="translate(25.717188 464.982303)scale(0.15 -0.15)">
       <defs>
        <path d="M 525 4666 
L 3525 4666 
L 3525 4397 
L 1831 0 
L 1172 0 
L 2766 4134 
L 525 4134 
L 525 4666 
z
" id="DejaVuSans-37" transform="scale(0.015625)"/>
       </defs>
       <use xlink:href="#DejaVuSans-2212"/>
       <use x="83.789062" xlink:href="#DejaVuSans-37"/>
      </g>
     </g>
    </g>
    <g id="ytick_2">
     <g id="line2d_8">
      <g>
       <use style="stroke:#000000;stroke-width:0.8;" x="54.830469" xlink:href="#m9128edfaab" y="400.305485"/>
      </g>
     </g>
     <g id="text_9">
      <!-- −6 -->
      <g transform="translate(25.717188 406.004314)scale(0.15 -0.15)">
       <defs>
        <path d="M 2113 2584 
Q 1688 2584 1439 2293 
Q 1191 2003 1191 1497 
Q 1191 994 1439 701 
Q 1688 409 2113 409 
Q 2538 409 2786 701 
Q 3034 994 3034 1497 
Q 3034 2003 2786 2293 
Q 2538 2584 2113 2584 
z
M 3366 4563 
L 3366 3988 
Q 3128 4100 2886 4159 
Q 2644 4219 2406 4219 
Q 1781 4219 1451 3797 
Q 1122 3375 1075 2522 
Q 1259 2794 1537 2939 
Q 1816 3084 2150 3084 
Q 2853 3084 3261 2657 
Q 3669 2231 3669 1497 
Q 3669 778 3244 343 
Q 2819 -91 2113 -91 
Q 1303 -91 875 529 
Q 447 1150 447 2328 
Q 447 3434 972 4092 
Q 1497 4750 2381 4750 
Q 2619 4750 2861 4703 
Q 3103 4656 3366 4563 
z
" id="DejaVuSans-36" transform="scale(0.015625)"/>
       </defs>
       <use xlink:href="#DejaVuSans-2212"/>
       <use x="83.789062" xlink:href="#DejaVuSans-36"/>
      </g>
     </g>
    </g>
    <g id="ytick_3">
     <g id="line2d_9">
      <g>
       <use style="stroke:#000000;stroke-width:0.8;" x="54.830469" xlink:href="#m9128edfaab" y="341.327496"/>
      </g>
     </g>
     <g id="text_10">
      <!-- −5 -->
      <g transform="translate(25.717188 347.026324)scale(0.15 -0.15)">
       <defs>
        <path d="M 691 4666 
L 3169 4666 
L 3169 4134 
L 1269 4134 
L 1269 2991 
Q 1406 3038 1543 3061 
Q 1681 3084 1819 3084 
Q 2600 3084 3056 2656 
Q 3513 2228 3513 1497 
Q 3513 744 3044 326 
Q 2575 -91 1722 -91 
Q 1428 -91 1123 -41 
Q 819 9 494 109 
L 494 744 
Q 775 591 1075 516 
Q 1375 441 1709 441 
Q 2250 441 2565 725 
Q 2881 1009 2881 1497 
Q 2881 1984 2565 2268 
Q 2250 2553 1709 2553 
Q 1456 2553 1204 2497 
Q 953 2441 691 2322 
L 691 4666 
z
" id="DejaVuSans-35" transform="scale(0.015625)"/>
       </defs>
       <use xlink:href="#DejaVuSans-2212"/>
       <use x="83.789062" xlink:href="#DejaVuSans-35"/>
      </g>
     </g>
    </g>
    <g id="ytick_4">
     <g id="line2d_10">
      <g>
       <use style="stroke:#000000;stroke-width:0.8;" x="54.830469" xlink:href="#m9128edfaab" y="282.349507"/>
      </g>
     </g>
     <g id="text_11">
      <!-- −4 -->
      <g transform="translate(25.717188 288.048335)scale(0.15 -0.15)">
       <defs>
        <path d="M 2419 4116 
L 825 1625 
L 2419 1625 
L 2419 4116 
z
M 2253 4666 
L 3047 4666 
L 3047 1625 
L 3713 1625 
L 3713 1100 
L 3047 1100 
L 3047 0 
L 2419 0 
L 2419 1100 
L 313 1100 
L 313 1709 
L 2253 4666 
z
" id="DejaVuSans-34" transform="scale(0.015625)"/>
       </defs>
       <use xlink:href="#DejaVuSans-2212"/>
       <use x="83.789062" xlink:href="#DejaVuSans-34"/>
      </g>
     </g>
    </g>
    <g id="ytick_5">
     <g id="line2d_11">
      <g>
       <use style="stroke:#000000;stroke-width:0.8;" x="54.830469" xlink:href="#m9128edfaab" y="223.371517"/>
      </g>
     </g>
     <g id="text_12">
      <!-- −3 -->
      <g transform="translate(25.717188 229.070345)scale(0.15 -0.15)">
       <use xlink:href="#DejaVuSans-2212"/>
       <use x="83.789062" xlink:href="#DejaVuSans-33"/>
      </g>
     </g>
    </g>
    <g id="ytick_6">
     <g id="line2d_12">
      <g>
       <use style="stroke:#000000;stroke-width:0.8;" x="54.830469" xlink:href="#m9128edfaab" y="164.393528"/>
      </g>
     </g>
     <g id="text_13">
      <!-- −2 -->
      <g transform="translate(25.717188 170.092356)scale(0.15 -0.15)">
       <use xlink:href="#DejaVuSans-2212"/>
       <use x="83.789062" xlink:href="#DejaVuSans-32"/>
      </g>
     </g>
    </g>
    <g id="ytick_7">
     <g id="line2d_13">
      <g>
       <use style="stroke:#000000;stroke-width:0.8;" x="54.830469" xlink:href="#m9128edfaab" y="105.415538"/>
      </g>
     </g>
     <g id="text_14">
      <!-- −1 -->
      <g transform="translate(25.717188 111.114366)scale(0.15 -0.15)">
       <use xlink:href="#DejaVuSans-2212"/>
       <use x="83.789062" xlink:href="#DejaVuSans-31"/>
      </g>
     </g>
    </g>
    <g id="ytick_8">
     <g id="line2d_14">
      <g>
       <use style="stroke:#000000;stroke-width:0.8;" x="54.830469" xlink:href="#m9128edfaab" y="46.437549"/>
      </g>
     </g>
     <g id="text_15">
      <!-- 0 -->
      <g transform="translate(38.286719 52.136377)scale(0.15 -0.15)">
       <use xlink:href="#DejaVuSans-30"/>
      </g>
     </g>
    </g>
    <g id="text_16">
     <!-- Normalized Intensity -->
     <g transform="translate(18.597656 321.700547)rotate(-90)scale(0.15 -0.15)">
      <defs>
       <path d="M 628 4666 
L 1478 4666 
L 3547 763 
L 3547 4666 
L 4159 4666 
L 4159 0 
L 3309 0 
L 1241 3903 
L 1241 0 
L 628 0 
L 628 4666 
z
" id="DejaVuSans-4e" transform="scale(0.015625)"/>
       <path d="M 1959 3097 
Q 1497 3097 1228 2736 
Q 959 2375 959 1747 
Q 959 1119 1226 758 
Q 1494 397 1959 397 
Q 2419 397 2687 759 
Q 2956 1122 2956 1747 
Q 2956 2369 2687 2733 
Q 2419 3097 1959 3097 
z
M 1959 3584 
Q 2709 3584 3137 3096 
Q 3566 2609 3566 1747 
Q 3566 888 3137 398 
Q 2709 -91 1959 -91 
Q 1206 -91 779 398 
Q 353 888 353 1747 
Q 353 2609 779 3096 
Q 1206 3584 1959 3584 
z
" id="DejaVuSans-6f" transform="scale(0.015625)"/>
       <path d="M 603 4863 
L 1178 4863 
L 1178 0 
L 603 0 
L 603 4863 
z
" id="DejaVuSans-6c" transform="scale(0.015625)"/>
       <path d="M 353 3500 
L 3084 3500 
L 3084 2975 
L 922 459 
L 3084 459 
L 3084 0 
L 275 0 
L 275 525 
L 2438 3041 
L 353 3041 
L 353 3500 
z
" id="DejaVuSans-7a" transform="scale(0.015625)"/>
       <path d="M 2906 2969 
L 2906 4863 
L 3481 4863 
L 3481 0 
L 2906 0 
L 2906 525 
Q 2725 213 2448 61 
Q 2172 -91 1784 -91 
Q 1150 -91 751 415 
Q 353 922 353 1747 
Q 353 2572 751 3078 
Q 1150 3584 1784 3584 
Q 2172 3584 2448 3432 
Q 2725 3281 2906 2969 
z
M 947 1747 
Q 947 1113 1208 752 
Q 1469 391 1925 391 
Q 2381 391 2643 752 
Q 2906 1113 2906 1747 
Q 2906 2381 2643 2742 
Q 2381 3103 1925 3103 
Q 1469 3103 1208 2742 
Q 947 2381 947 1747 
z
" id="DejaVuSans-64" transform="scale(0.015625)"/>
       <path d="M 628 4666 
L 1259 4666 
L 1259 0 
L 628 0 
L 628 4666 
z
" id="DejaVuSans-49" transform="scale(0.015625)"/>
       <path d="M 1172 4494 
L 1172 3500 
L 2356 3500 
L 2356 3053 
L 1172 3053 
L 1172 1153 
Q 1172 725 1289 603 
Q 1406 481 1766 481 
L 2356 481 
L 2356 0 
L 1766 0 
Q 1100 0 847 248 
Q 594 497 594 1153 
L 594 3053 
L 172 3053 
L 172 3500 
L 594 3500 
L 594 4494 
L 1172 4494 
z
" id="DejaVuSans-74" transform="scale(0.015625)"/>
       <path d="M 2834 3397 
L 2834 2853 
Q 2591 2978 2328 3040 
Q 2066 3103 1784 3103 
Q 1356 3103 1142 2972 
Q 928 2841 928 2578 
Q 928 2378 1081 2264 
Q 1234 2150 1697 2047 
L 1894 2003 
Q 2506 1872 2764 1633 
Q 3022 1394 3022 966 
Q 3022 478 2636 193 
Q 2250 -91 1575 -91 
Q 1294 -91 989 -36 
Q 684 19 347 128 
L 347 722 
Q 666 556 975 473 
Q 1284 391 1588 391 
Q 1994 391 2212 530 
Q 2431 669 2431 922 
Q 2431 1156 2273 1281 
Q 2116 1406 1581 1522 
L 1381 1569 
Q 847 1681 609 1914 
Q 372 2147 372 2553 
Q 372 3047 722 3315 
Q 1072 3584 1716 3584 
Q 2034 3584 2315 3537 
Q 2597 3491 2834 3397 
z
" id="DejaVuSans-73" transform="scale(0.015625)"/>
       <path d="M 2059 -325 
Q 1816 -950 1584 -1140 
Q 1353 -1331 966 -1331 
L 506 -1331 
L 506 -850 
L 844 -850 
Q 1081 -850 1212 -737 
Q 1344 -625 1503 -206 
L 1606 56 
L 191 3500 
L 800 3500 
L 1894 763 
L 2988 3500 
L 3597 3500 
L 2059 -325 
z
" id="DejaVuSans-79" transform="scale(0.015625)"/>
      </defs>
      <use xlink:href="#DejaVuSans-4e"/>
      <use x="74.804688" xlink:href="#DejaVuSans-6f"/>
      <use x="135.986328" xlink:href="#DejaVuSans-72"/>
      <use x="175.349609" xlink:href="#DejaVuSans-6d"/>
      <use x="272.761719" xlink:href="#DejaVuSans-61"/>
      <use x="334.041016" xlink:href="#DejaVuSans-6c"/>
      <use x="361.824219" xlink:href="#DejaVuSans-69"/>
      <use x="389.607422" xlink:href="#DejaVuSans-7a"/>
      <use x="442.097656" xlink:href="#DejaVuSans-65"/>
      <use x="503.621094" xlink:href="#DejaVuSans-64"/>
      <use x="567.097656" xlink:href="#DejaVuSans-20"/>
      <use x="598.884766" xlink:href="#DejaVuSans-49"/>
      <use x="628.376953" xlink:href="#DejaVuSans-6e"/>
      <use x="691.755859" xlink:href="#DejaVuSans-74"/>
      <use x="730.964844" xlink:href="#DejaVuSans-65"/>
      <use x="792.488281" xlink:href="#DejaVuSans-6e"/>
      <use x="855.867188" xlink:href="#DejaVuSans-73"/>
      <use x="907.966797" xlink:href="#DejaVuSans-69"/>
      <use x="935.75" xlink:href="#DejaVuSans-74"/>
      <use x="974.958984" xlink:href="#DejaVuSans-79"/>
     </g>
    </g>
    <g id="text_17">
     <!-- 1e6 -->
     <g transform="translate(54.830469 23.7)scale(0.1 -0.1)">
      <use xlink:href="#DejaVuSans-31"/>
      <use x="63.623047" xlink:href="#DejaVuSans-65"/>
      <use x="125.146484" xlink:href="#DejaVuSans-36"/>
     </g>
    </g>
   </g>
   <g id="line2d_15">
    <path clip-path="url(#p8fa6c38ff2)" d="M 104.765128 46.478995 
L 152.321946 46.996598 
L 169.615334 47.434224 
L 182.585376 47.975214 
L 192.312907 48.576451 
L 200.959601 49.321149 
L 208.525458 50.201992 
L 215.010479 51.189098 
L 220.414663 52.226348 
L 225.818847 53.513361 
L 230.142194 54.766924 
L 234.465541 56.265276 
L 237.708051 57.580811 
L 240.950562 59.089777 
L 244.193072 60.82315 
L 247.435582 62.817214 
L 250.678093 65.114518 
L 253.920603 67.763144 
L 258.24395 71.460498 
L 260.405624 72.771217 
L 267.971481 76.835999 
L 273.375665 80.002265 
L 278.779849 83.408267 
L 284.184033 87.05811 
L 289.588217 90.953484 
L 294.992401 95.093229 
L 300.396584 99.472888 
L 306.881605 105.033309 
L 313.366626 110.904851 
L 319.851646 117.055324 
L 327.417504 124.52522 
L 337.145035 134.454292 
L 356.600097 154.400414 
L 363.085118 160.705409 
L 368.489301 165.680289 
L 373.893485 170.31793 
L 378.216832 173.730219 
L 382.540179 176.831076 
L 385.78269 178.926066 
L 389.0252 180.802848 
L 392.26771 182.443117 
L 395.510221 183.828869 
L 398.752731 184.942562 
L 401.995241 185.767301 
L 405.237752 186.295547 
L 407.399425 186.620641 
L 408.480262 186.922659 
L 412.803609 188.612762 
L 414.965283 189.011118 
L 417.126956 189.168704 
L 420.369467 189.098541 
L 423.611977 188.738376 
L 426.854487 188.137361 
L 430.096998 187.334129 
L 434.420345 186.015982 
L 440.905365 183.728637 
L 447.390386 181.481161 
L 450.632896 180.556706 
L 453.875407 179.875837 
L 456.03708 179.609189 
L 458.198754 179.531186 
L 460.360427 179.677713 
L 462.522101 180.087171 
L 464.683775 180.800494 
L 466.845448 181.86113 
L 469.007122 183.314981 
L 471.168795 185.210308 
L 473.330469 187.597565 
L 475.492142 190.529176 
L 477.653816 194.059217 
L 479.815489 198.242997 
L 481.977163 203.136509 
L 484.138837 208.795719 
L 486.30051 215.275661 
L 488.462184 222.629281 
L 490.623857 230.905987 
L 492.785531 240.149806 
L 494.947204 250.39707 
L 497.108878 261.673482 
L 499.270551 273.990399 
L 501.432225 287.340084 
L 504.674735 309.220168 
L 507.917246 333.079841 
L 512.240593 367.016952 
L 516.56394 401.0443 
L 518.725613 416.682265 
L 520.887287 430.108487 
L 521.968124 435.504818 
L 523.04896 439.604533 
L 524.129797 441.812727 
L 525.210634 441.084165 
L 526.291471 436.092205 
L 527.372308 426.137883 
L 528.453144 411.913526 
L 530.614818 376.411276 
L 537.099839 262.297375 
L 539.261512 229.159741 
L 541.423186 199.765268 
L 543.584859 174.259666 
L 545.746533 152.620569 
L 547.908206 134.727849 
L 548.989043 127.132183 
L 550.06988 120.402991 
L 551.150717 114.512508 
L 552.231553 109.43157 
L 553.31239 105.129871 
L 554.393227 101.576151 
L 555.474064 98.738344 
L 556.554901 96.583693 
L 557.635737 95.078846 
L 558.716574 94.189944 
L 559.797411 93.882716 
L 560.878248 94.122625 
L 561.959084 94.875115 
L 563.039921 96.105977 
L 564.120758 97.781018 
L 565.201595 99.861905 
L 566.282432 102.295431 
L 568.444105 107.899476 
L 571.686615 117.097724 
L 576.009963 129.961522 
L 582.494983 150.032317 
L 593.303351 183.671958 
L 597.626698 196.50601 
L 601.950045 208.631742 
L 605.192556 217.125711 
L 608.435066 225.005414 
L 611.677576 232.187609 
L 613.83925 236.550388 
L 616.000923 240.548757 
L 618.162597 244.164041 
L 620.32427 247.379494 
L 622.485944 250.180411 
L 624.647618 252.55423 
L 626.809291 254.490618 
L 628.970965 255.981549 
L 631.132638 257.021353 
L 633.294312 257.606761 
L 634.375149 257.728709 
L 635.455985 257.73693 
L 636.536822 257.631698 
L 638.698496 257.082728 
L 640.860169 256.086994 
L 643.021843 254.652054 
L 645.183516 252.787772 
L 647.34519 250.506239 
L 649.506863 247.821688 
L 651.668537 244.750378 
L 653.83021 241.310472 
L 655.991884 237.521901 
L 659.234394 231.232819 
L 662.476905 224.286677 
L 665.719415 216.768072 
L 670.042762 206.00728 
L 674.366109 194.606479 
L 680.85113 176.790057 
L 691.659498 146.955955 
L 697.063682 132.749865 
L 701.387029 122.004461 
L 705.710376 111.938433 
L 708.952886 104.889194 
L 712.195396 98.296753 
L 714.35707 93.98144 
L 715.437907 91.297496 
L 716.518744 87.358672 
L 717.59958 81.635882 
L 719.761254 68.719886 
L 720.842091 64.347296 
L 721.922927 61.594051 
L 723.003764 59.81158 
L 724.084601 58.523638 
L 725.165438 57.504494 
L 727.327111 55.927357 
L 729.488785 54.724955 
L 731.650458 53.758994 
L 734.892969 52.605004 
L 738.135479 51.694394 
L 742.458826 50.738487 
L 747.86301 49.829067 
L 754.348031 49.020245 
L 761.913888 48.334772 
L 770.560582 47.784577 
L 781.36895 47.318059 
L 795.419828 46.938792 
L 814.87489 46.652042 
L 842.976646 46.477577 
L 842.976646 46.477577 
" style="fill:none;stroke:#e98768;stroke-linecap:square;stroke-width:1.5;"/>
   </g>
   <g id="line2d_16">
    <path clip-path="url(#p8fa6c38ff2)" d="M 101.522618 46.474136 
L 133.947721 46.740666 
L 156.645293 47.112097 
L 171.777008 47.557301 
L 183.666213 48.108842 
L 193.393744 48.769531 
L 202.040438 49.59171 
L 208.525458 50.410913 
L 215.010479 51.464152 
L 220.414663 52.573713 
L 224.73801 53.652756 
L 229.061357 54.940103 
L 233.384704 56.477129 
L 237.708051 58.306539 
L 240.950562 59.890147 
L 245.273909 62.285454 
L 249.597256 64.958793 
L 258.24395 70.681869 
L 265.809808 75.544205 
L 279.860686 84.434637 
L 285.26487 88.143522 
L 290.669053 92.086506 
L 296.073237 96.267533 
L 302.558258 101.591947 
L 309.043279 107.234865 
L 315.528299 113.169803 
L 323.094157 120.41346 
L 331.740851 129.016569 
L 359.842607 157.3 
L 366.327628 163.313047 
L 371.731812 167.987812 
L 376.055159 171.451007 
L 380.378506 174.623869 
L 384.701853 177.467199 
L 387.944363 179.363857 
L 391.186874 181.04973 
L 394.429384 182.526235 
L 397.671894 183.805012 
L 401.995241 185.236528 
L 406.318589 186.394449 
L 410.641936 187.283582 
L 413.884446 187.746751 
L 417.126956 188.002293 
L 420.369467 188.026437 
L 423.611977 187.812228 
L 426.854487 187.372801 
L 430.096998 186.738493 
L 434.420345 185.664013 
L 447.390386 182.139661 
L 450.632896 181.554725 
L 453.875407 181.259833 
L 456.03708 181.275367 
L 458.198754 181.499588 
L 460.360427 181.968484 
L 462.522101 182.72033 
L 464.683775 183.795633 
L 466.845448 185.237039 
L 469.007122 187.089192 
L 471.168795 189.398515 
L 473.330469 192.212919 
L 475.492142 195.581408 
L 477.653816 199.553555 
L 479.815489 204.178825 
L 481.977163 209.505682 
L 484.138837 215.580452 
L 486.30051 222.445841 
L 488.462184 230.139004 
L 490.623857 238.689006 
L 492.785531 248.113446 
L 494.947204 258.413889 
L 497.108878 269.569683 
L 500.351388 287.784002 
L 503.593899 307.433923 
L 511.159756 354.124533 
L 513.321429 365.725131 
L 514.402266 370.855267 
L 515.483103 375.41769 
L 516.56394 379.319091 
L 517.644777 382.466705 
L 518.725613 384.77091 
L 519.80645 386.148047 
L 520.887287 386.523374 
L 521.968124 385.83399 
L 523.04896 384.031595 
L 524.129797 381.084903 
L 525.210634 376.981574 
L 526.291471 371.729526 
L 527.372308 365.357528 
L 528.453144 357.915023 
L 529.533981 349.47116 
L 531.695655 329.943612 
L 533.857328 307.642066 
L 537.099839 271.227964 
L 541.423186 222.533006 
L 543.584859 200.088985 
L 545.746533 179.753262 
L 547.908206 161.912319 
L 550.06988 146.776723 
L 551.150717 140.24828 
L 552.231553 134.410514 
L 553.31239 129.253824 
L 554.393227 124.763358 
L 555.474064 120.919843 
L 556.554901 117.70033 
L 557.635737 115.078858 
L 558.716574 113.027046 
L 559.797411 111.514624 
L 560.878248 110.509913 
L 561.959084 109.980262 
L 563.039921 109.892452 
L 564.120758 110.213071 
L 565.201595 110.908867 
L 566.282432 111.947075 
L 567.363268 113.295722 
L 568.444105 114.923901 
L 570.605779 118.901992 
L 572.767452 123.663767 
L 574.929126 129.020254 
L 578.171636 137.831438 
L 582.494983 150.420975 
L 595.465025 188.9357 
L 599.788372 200.971922 
L 603.030882 209.488775 
L 606.273392 217.469626 
L 609.515903 224.83148 
L 612.758413 231.497647 
L 614.920087 235.520687 
L 617.08176 239.185016 
L 619.243434 242.473883 
L 621.405107 245.37242 
L 623.566781 247.867744 
L 625.728454 249.949041 
L 627.890128 251.607639 
L 630.051801 252.83707 
L 632.213475 253.633109 
L 634.375149 253.993804 
L 636.536822 253.919486 
L 638.698496 253.412766 
L 640.860169 252.478511 
L 643.021843 251.123806 
L 645.183516 249.3579 
L 647.34519 247.192133 
L 649.506863 244.639852 
L 651.668537 241.716304 
L 653.83021 238.438527 
L 655.991884 234.825211 
L 659.234394 228.820687 
L 662.476905 222.180765 
L 665.719415 214.984857 
L 668.961925 207.316671 
L 673.285272 196.507709 
L 678.689456 182.350473 
L 695.982845 136.454514 
L 705.710376 111.90877 
L 714.35707 89.701114 
L 718.680417 78.9429 
L 720.842091 74.002938 
L 723.003764 69.512585 
L 725.165438 65.558523 
L 727.327111 62.185879 
L 729.488785 59.394484 
L 731.650458 57.144268 
L 733.812132 55.36708 
L 735.973806 53.980942 
L 738.135479 52.903002 
L 740.297153 52.058789 
L 743.539663 51.100696 
L 746.782173 50.386296 
L 751.10552 49.664297 
L 756.509704 48.988009 
L 764.075562 48.301602 
L 772.722256 47.754771 
L 783.530624 47.295457 
L 797.581502 46.924182 
L 817.036564 46.644853 
L 846.219157 46.473882 
L 846.219157 46.473882 
" style="fill:none;stroke:#de5d5c;stroke-linecap:square;stroke-width:1.5;"/>
   </g>
   <g id="line2d_17">
    <path clip-path="url(#p8fa6c38ff2)" d="M 92.875923 46.467273 
L 124.22019 46.661506 
L 149.079436 47.013976 
L 165.291987 47.439501 
L 178.262029 47.994871 
L 187.98956 48.616437 
L 196.636254 49.391342 
L 204.202111 50.31274 
L 210.687132 51.347461 
L 216.091316 52.431347 
L 221.4955 53.761486 
L 225.818847 55.031014 
L 230.142194 56.502761 
L 234.465541 58.188098 
L 238.788888 60.088894 
L 243.112235 62.195617 
L 248.516419 65.08612 
L 255.00144 68.853718 
L 262.567297 73.528799 
L 272.294828 79.827744 
L 280.941522 85.707695 
L 287.426543 90.359996 
L 293.911564 95.273223 
L 300.396584 100.47416 
L 306.881605 105.966342 
L 313.366626 111.733611 
L 320.932483 118.766835 
L 329.579177 127.115994 
L 357.680934 154.581945 
L 364.165954 160.444468 
L 369.570138 165.023311 
L 373.893485 168.439793 
L 378.216832 171.604863 
L 382.540179 174.49325 
L 386.863527 177.085128 
L 391.186874 179.36656 
L 395.510221 181.328985 
L 398.752731 182.588655 
L 401.995241 183.665461 
L 405.237752 184.559162 
L 408.480262 185.270186 
L 411.722772 185.800041 
L 414.965283 186.152089 
L 419.28863 186.356388 
L 423.611977 186.283567 
L 427.935324 185.979758 
L 434.420345 185.250637 
L 441.986202 184.425157 
L 445.228713 184.261904 
L 448.471223 184.323331 
L 450.632896 184.532581 
L 452.79457 184.909498 
L 454.956244 185.484301 
L 457.117917 186.288781 
L 459.279591 187.356146 
L 461.441264 188.720789 
L 463.602938 190.417977 
L 465.764611 192.483433 
L 467.926285 194.952786 
L 470.087958 197.860861 
L 472.249632 201.240776 
L 474.411306 205.122817 
L 476.572979 209.533064 
L 478.734653 214.491742 
L 480.896326 220.011288 
L 483.058 226.094145 
L 485.219673 232.730322 
L 488.462184 243.662513 
L 491.704694 255.617266 
L 496.028041 272.663604 
L 502.513062 298.469423 
L 504.674735 306.431972 
L 506.836409 313.726872 
L 508.998082 320.129795 
L 511.159756 325.417053 
L 512.240593 327.574935 
L 513.321429 329.375244 
L 514.402266 330.794622 
L 515.483103 331.811673 
L 516.56394 332.407278 
L 517.644777 332.564907 
L 518.725613 332.270901 
L 519.80645 331.514734 
L 520.887287 330.289231 
L 521.968124 328.590762 
L 523.04896 326.419382 
L 524.129797 323.778929 
L 525.210634 320.677074 
L 526.291471 317.125315 
L 528.453144 308.736829 
L 530.614818 298.778579 
L 532.776491 287.468006 
L 534.938165 275.066122 
L 538.180675 255.064941 
L 545.746533 207.378118 
L 548.989043 188.897247 
L 551.150717 177.830009 
L 553.31239 167.962286 
L 555.474064 159.410844 
L 557.635737 152.246766 
L 558.716574 149.195337 
L 559.797411 146.498142 
L 560.878248 144.15268 
L 561.959084 142.154367 
L 563.039921 140.496719 
L 564.120758 139.171555 
L 565.201595 138.169187 
L 566.282432 137.478621 
L 567.363268 137.087754 
L 568.444105 136.983561 
L 569.524942 137.152277 
L 570.605779 137.579573 
L 571.686615 138.250715 
L 572.767452 139.150717 
L 573.848289 140.264477 
L 574.929126 141.576901 
L 577.090799 144.738065 
L 579.252473 148.517509 
L 581.414146 152.804378 
L 584.656657 159.962404 
L 587.899167 167.719379 
L 594.384188 184.003648 
L 599.788372 197.408629 
L 604.111719 207.519902 
L 607.354229 214.567255 
L 610.596739 221.052187 
L 613.83925 226.897217 
L 616.000923 230.405549 
L 618.162597 233.583333 
L 620.32427 236.415837 
L 622.485944 238.890322 
L 624.647618 240.99602 
L 626.809291 242.724141 
L 628.970965 244.067875 
L 631.132638 245.022406 
L 633.294312 245.584918 
L 635.455985 245.754592 
L 637.617659 245.532604 
L 639.779332 244.922098 
L 641.941006 243.928159 
L 644.102679 242.557767 
L 646.264353 240.819737 
L 648.426027 238.724649 
L 650.5877 236.284764 
L 652.749374 233.513919 
L 654.911047 230.427416 
L 657.072721 227.041894 
L 660.315231 221.44224 
L 663.557741 215.274488 
L 666.800252 208.606802 
L 671.123599 199.060712 
L 675.446946 188.918664 
L 680.85113 175.647906 
L 689.497824 153.695997 
L 701.387029 123.55223 
L 706.791213 110.401069 
L 711.11456 100.383424 
L 715.437907 91.003785 
L 718.680417 84.500517 
L 721.922927 78.534635 
L 725.165438 73.165224 
L 727.327111 69.936887 
L 729.488785 66.996344 
L 731.650458 64.343471 
L 733.812132 61.972922 
L 735.973806 59.874508 
L 738.135479 58.033826 
L 740.297153 56.433078 
L 742.458826 55.052006 
L 744.6205 53.868862 
L 747.86301 52.416511 
L 751.10552 51.285944 
L 754.348031 50.409863 
L 758.671378 49.538626 
L 762.994725 48.908522 
L 768.398909 48.343512 
L 775.964766 47.804155 
L 785.692297 47.351344 
L 798.662339 46.975533 
L 817.036564 46.681368 
L 844.057483 46.496144 
L 853.785014 46.467804 
L 853.785014 46.467804 
" style="fill:none;stroke:#c14168;stroke-linecap:square;stroke-width:1.5;"/>
   </g>
   <g id="patch_3">
    <path d="M 54.830469 461.58 
L 54.830469 26.7 
" style="fill:none;stroke:#000000;stroke-linecap:square;stroke-linejoin:miter;stroke-width:0.8;"/>
   </g>
   <g id="patch_4">
    <path d="M 891.830469 461.58 
L 891.830469 26.7 
" style="fill:none;stroke:#000000;stroke-linecap:square;stroke-linejoin:miter;stroke-width:0.8;"/>
   </g>
   <g id="patch_5">
    <path d="M 54.830469 461.58 
L 891.830469 461.58 
" style="fill:none;stroke:#000000;stroke-linecap:square;stroke-linejoin:miter;stroke-width:0.8;"/>
   </g>
   <g id="patch_6">
    <path d="M 54.830469 26.7 
L 891.830469 26.7 
" style="fill:none;stroke:#000000;stroke-linecap:square;stroke-linejoin:miter;stroke-width:0.8;"/>
   </g>
   <g id="text_18">
    <!-- T = 61.2 K, B = 0.00336 cm$^{-1}$ sigma = 0.107 cm$^{-1}$ -->
    <g transform="translate(280.880469 20.7)scale(0.15 -0.15)">
     <defs>
      <path d="M -19 4666 
L 3928 4666 
L 3928 4134 
L 2272 4134 
L 2272 0 
L 1638 0 
L 1638 4134 
L -19 4134 
L -19 4666 
z
" id="DejaVuSans-54" transform="scale(0.015625)"/>
      <path d="M 678 2906 
L 4684 2906 
L 4684 2381 
L 678 2381 
L 678 2906 
z
M 678 1631 
L 4684 1631 
L 4684 1100 
L 678 1100 
L 678 1631 
z
" id="DejaVuSans-3d" transform="scale(0.015625)"/>
      <path d="M 684 794 
L 1344 794 
L 1344 0 
L 684 0 
L 684 794 
z
" id="DejaVuSans-2e" transform="scale(0.015625)"/>
      <path d="M 628 4666 
L 1259 4666 
L 1259 2694 
L 3353 4666 
L 4166 4666 
L 1850 2491 
L 4331 0 
L 3500 0 
L 1259 2247 
L 1259 0 
L 628 0 
L 628 4666 
z
" id="DejaVuSans-4b" transform="scale(0.015625)"/>
      <path d="M 750 794 
L 1409 794 
L 1409 256 
L 897 -744 
L 494 -744 
L 750 256 
L 750 794 
z
" id="DejaVuSans-2c" transform="scale(0.015625)"/>
      <path d="M 1259 2228 
L 1259 519 
L 2272 519 
Q 2781 519 3026 730 
Q 3272 941 3272 1375 
Q 3272 1813 3026 2020 
Q 2781 2228 2272 2228 
L 1259 2228 
z
M 1259 4147 
L 1259 2741 
L 2194 2741 
Q 2656 2741 2882 2914 
Q 3109 3088 3109 3444 
Q 3109 3797 2882 3972 
Q 2656 4147 2194 4147 
L 1259 4147 
z
M 628 4666 
L 2241 4666 
Q 2963 4666 3353 4366 
Q 3744 4066 3744 3513 
Q 3744 3084 3544 2831 
Q 3344 2578 2956 2516 
Q 3422 2416 3680 2098 
Q 3938 1781 3938 1306 
Q 3938 681 3513 340 
Q 3088 0 2303 0 
L 628 0 
L 628 4666 
z
" id="DejaVuSans-42" transform="scale(0.015625)"/>
      <path d="M 2906 1791 
Q 2906 2416 2648 2759 
Q 2391 3103 1925 3103 
Q 1463 3103 1205 2759 
Q 947 2416 947 1791 
Q 947 1169 1205 825 
Q 1463 481 1925 481 
Q 2391 481 2648 825 
Q 2906 1169 2906 1791 
z
M 3481 434 
Q 3481 -459 3084 -895 
Q 2688 -1331 1869 -1331 
Q 1566 -1331 1297 -1286 
Q 1028 -1241 775 -1147 
L 775 -588 
Q 1028 -725 1275 -790 
Q 1522 -856 1778 -856 
Q 2344 -856 2625 -561 
Q 2906 -266 2906 331 
L 2906 616 
Q 2728 306 2450 153 
Q 2172 0 1784 0 
Q 1141 0 747 490 
Q 353 981 353 1791 
Q 353 2603 747 3093 
Q 1141 3584 1784 3584 
Q 2172 3584 2450 3431 
Q 2728 3278 2906 2969 
L 2906 3500 
L 3481 3500 
L 3481 434 
z
" id="DejaVuSans-67" transform="scale(0.015625)"/>
     </defs>
     <use transform="translate(0 0.684375)" xlink:href="#DejaVuSans-54"/>
     <use transform="translate(61.083984 0.684375)" xlink:href="#DejaVuSans-20"/>
     <use transform="translate(92.871094 0.684375)" xlink:href="#DejaVuSans-3d"/>
     <use transform="translate(176.660156 0.684375)" xlink:href="#DejaVuSans-20"/>
     <use transform="translate(208.447266 0.684375)" xlink:href="#DejaVuSans-36"/>
     <use transform="translate(272.070312 0.684375)" xlink:href="#DejaVuSans-31"/>
     <use transform="translate(335.693359 0.684375)" xlink:href="#DejaVuSans-2e"/>
     <use transform="translate(361.980469 0.684375)" xlink:href="#DejaVuSans-32"/>
     <use transform="translate(425.603516 0.684375)" xlink:href="#DejaVuSans-20"/>
     <use transform="translate(457.390625 0.684375)" xlink:href="#DejaVuSans-4b"/>
     <use transform="translate(522.966797 0.684375)" xlink:href="#DejaVuSans-2c"/>
     <use transform="translate(554.753906 0.684375)" xlink:href="#DejaVuSans-20"/>
     <use transform="translate(586.541016 0.684375)" xlink:href="#DejaVuSans-42"/>
     <use transform="translate(655.144531 0.684375)" xlink:href="#DejaVuSans-20"/>
     <use transform="translate(686.931641 0.684375)" xlink:href="#DejaVuSans-3d"/>
     <use transform="translate(770.720703 0.684375)" xlink:href="#DejaVuSans-20"/>
     <use transform="translate(802.507812 0.684375)" xlink:href="#DejaVuSans-30"/>
     <use transform="translate(866.130859 0.684375)" xlink:href="#DejaVuSans-2e"/>
     <use transform="translate(897.917969 0.684375)" xlink:href="#DejaVuSans-30"/>
     <use transform="translate(961.541016 0.684375)" xlink:href="#DejaVuSans-30"/>
     <use transform="translate(1025.164062 0.684375)" xlink:href="#DejaVuSans-33"/>
     <use transform="translate(1088.787109 0.684375)" xlink:href="#DejaVuSans-33"/>
     <use transform="translate(1152.410156 0.684375)" xlink:href="#DejaVuSans-36"/>
     <use transform="translate(1216.033203 0.684375)" xlink:href="#DejaVuSans-20"/>
     <use transform="translate(1247.820312 0.684375)" xlink:href="#DejaVuSans-63"/>
     <use transform="translate(1302.800781 0.684375)" xlink:href="#DejaVuSans-6d"/>
     <use transform="translate(1401.169922 38.965625)scale(0.7)" xlink:href="#DejaVuSans-2212"/>
     <use transform="translate(1459.822266 38.965625)scale(0.7)" xlink:href="#DejaVuSans-31"/>
     <use transform="translate(1507.092773 0.684375)" xlink:href="#DejaVuSans-20"/>
     <use transform="translate(1538.879883 0.684375)" xlink:href="#DejaVuSans-73"/>
     <use transform="translate(1590.979492 0.684375)" xlink:href="#DejaVuSans-69"/>
     <use transform="translate(1618.762695 0.684375)" xlink:href="#DejaVuSans-67"/>
     <use transform="translate(1682.239258 0.684375)" xlink:href="#DejaVuSans-6d"/>
     <use transform="translate(1779.651367 0.684375)" xlink:href="#DejaVuSans-61"/>
     <use transform="translate(1840.930664 0.684375)" xlink:href="#DejaVuSans-20"/>
     <use transform="translate(1872.717773 0.684375)" xlink:href="#DejaVuSans-3d"/>
     <use transform="translate(1956.506836 0.684375)" xlink:href="#DejaVuSans-20"/>
     <use transform="translate(1988.293945 0.684375)" xlink:href="#DejaVuSans-30"/>
     <use transform="translate(2051.916992 0.684375)" xlink:href="#DejaVuSans-2e"/>
     <use transform="translate(2083.704102 0.684375)" xlink:href="#DejaVuSans-31"/>
     <use transform="translate(2147.327148 0.684375)" xlink:href="#DejaVuSans-30"/>
     <use transform="translate(2210.950195 0.684375)" xlink:href="#DejaVuSans-37"/>
     <use transform="translate(2274.573242 0.684375)" xlink:href="#DejaVuSans-20"/>
     <use transform="translate(2306.360352 0.684375)" xlink:href="#DejaVuSans-63"/>
     <use transform="translate(2361.34082 0.684375)" xlink:href="#DejaVuSans-6d"/>
     <use transform="translate(2459.709961 38.965625)scale(0.7)" xlink:href="#DejaVuSans-2212"/>
     <use transform="translate(2518.362305 38.965625)scale(0.7)" xlink:href="#DejaVuSans-31"/>
    </g>
   </g>
   <g id="legend_1">
    <g id="patch_7">
     <path d="M 65.330469 454.08 
L 175.360156 454.08 
Q 178.360156 454.08 178.360156 451.08 
L 178.360156 369.350312 
Q 178.360156 366.350312 175.360156 366.350312 
L 65.330469 366.350312 
Q 62.330469 366.350312 62.330469 369.350312 
L 62.330469 451.08 
Q 62.330469 454.08 65.330469 454.08 
z
" style="fill:#ffffff;opacity:0.8;stroke:#cccccc;stroke-linejoin:miter;"/>
    </g>
    <g id="text_19">
     <!-- zeta -->
     <g transform="translate(109.620313 379.94875)scale(0.1 -0.1)">
      <use xlink:href="#DejaVuSans-7a"/>
      <use x="52.490234" xlink:href="#DejaVuSans-65"/>
      <use x="114.013672" xlink:href="#DejaVuSans-74"/>
      <use x="153.222656" xlink:href="#DejaVuSans-61"/>
     </g>
    </g>
    <g id="line2d_18">
     <path d="M 68.330469 395.676094 
L 98.330469 395.676094 
" style="fill:none;stroke:#e98768;stroke-linecap:square;stroke-width:1.5;"/>
    </g>
    <g id="line2d_19"/>
    <g id="text_20">
     <!-- 0.0107 -->
     <g transform="translate(110.330469 400.926094)scale(0.15 -0.15)">
      <use xlink:href="#DejaVuSans-30"/>
      <use x="63.623047" xlink:href="#DejaVuSans-2e"/>
      <use x="95.410156" xlink:href="#DejaVuSans-30"/>
      <use x="159.033203" xlink:href="#DejaVuSans-31"/>
      <use x="222.65625" xlink:href="#DejaVuSans-30"/>
      <use x="286.279297" xlink:href="#DejaVuSans-37"/>
     </g>
    </g>
    <g id="line2d_20">
     <path d="M 68.330469 417.693281 
L 98.330469 417.693281 
" style="fill:none;stroke:#de5d5c;stroke-linecap:square;stroke-width:1.5;"/>
    </g>
    <g id="line2d_21"/>
    <g id="text_21">
     <!-- 0.05885 -->
     <g transform="translate(110.330469 422.943281)scale(0.15 -0.15)">
      <defs>
       <path d="M 2034 2216 
Q 1584 2216 1326 1975 
Q 1069 1734 1069 1313 
Q 1069 891 1326 650 
Q 1584 409 2034 409 
Q 2484 409 2743 651 
Q 3003 894 3003 1313 
Q 3003 1734 2745 1975 
Q 2488 2216 2034 2216 
z
M 1403 2484 
Q 997 2584 770 2862 
Q 544 3141 544 3541 
Q 544 4100 942 4425 
Q 1341 4750 2034 4750 
Q 2731 4750 3128 4425 
Q 3525 4100 3525 3541 
Q 3525 3141 3298 2862 
Q 3072 2584 2669 2484 
Q 3125 2378 3379 2068 
Q 3634 1759 3634 1313 
Q 3634 634 3220 271 
Q 2806 -91 2034 -91 
Q 1263 -91 848 271 
Q 434 634 434 1313 
Q 434 1759 690 2068 
Q 947 2378 1403 2484 
z
M 1172 3481 
Q 1172 3119 1398 2916 
Q 1625 2713 2034 2713 
Q 2441 2713 2670 2916 
Q 2900 3119 2900 3481 
Q 2900 3844 2670 4047 
Q 2441 4250 2034 4250 
Q 1625 4250 1398 4047 
Q 1172 3844 1172 3481 
z
" id="DejaVuSans-38" transform="scale(0.015625)"/>
      </defs>
      <use xlink:href="#DejaVuSans-30"/>
      <use x="63.623047" xlink:href="#DejaVuSans-2e"/>
      <use x="95.410156" xlink:href="#DejaVuSans-30"/>
      <use x="159.033203" xlink:href="#DejaVuSans-35"/>
      <use x="222.65625" xlink:href="#DejaVuSans-38"/>
      <use x="286.279297" xlink:href="#DejaVuSans-38"/>
      <use x="349.902344" xlink:href="#DejaVuSans-35"/>
     </g>
    </g>
    <g id="line2d_22">
     <path d="M 68.330469 439.710469 
L 98.330469 439.710469 
" style="fill:none;stroke:#c14168;stroke-linecap:square;stroke-width:1.5;"/>
    </g>
    <g id="line2d_23"/>
    <g id="text_22">
     <!-- 0.107 -->
     <g transform="translate(110.330469 444.960469)scale(0.15 -0.15)">
      <use xlink:href="#DejaVuSans-30"/>
      <use x="63.623047" xlink:href="#DejaVuSans-2e"/>
      <use x="95.410156" xlink:href="#DejaVuSans-31"/>
      <use x="159.033203" xlink:href="#DejaVuSans-30"/>
      <use x="222.65625" xlink:href="#DejaVuSans-37"/>
     </g>
    </g>
   </g>
  </g>
 </g>
 <defs>
  <clipPath id="p8fa6c38ff2">
   <rect height="434.88" width="837" x="54.830469" y="26.7"/>
  </clipPath>
 </defs>
</svg>
