<?xml version="1.0" encoding="utf-8" standalone="no"?>
<!DOCTYPE svg PUBLIC "-//W3C//DTD SVG 1.1//EN"
  "http://www.w3.org/Graphics/SVG/1.1/DTD/svg11.dtd">
<svg height="372.35625pt" version="1.1" viewBox="0 0 880.665625 372.35625" width="880.665625pt" xmlns="http://www.w3.org/2000/svg" xmlns:xlink="http://www.w3.org/1999/xlink">
 <metadata>
  <rdf:RDF xmlns:cc="http://creativecommons.org/ns#" xmlns:dc="http://purl.org/dc/elements/1.1/" xmlns:rdf="http://www.w3.org/1999/02/22-rdf-syntax-ns#">
   <cc:Work>
    <dc:type rdf:resource="http://purl.org/dc/dcmitype/StillImage"/>
    <dc:date>2022-10-06T13:57:07.544344</dc:date>
    <dc:format>image/svg+xml</dc:format>
    <dc:creator>
     <cc:Agent>
      <dc:title>Matplotlib v3.4.3, https://matplotlib.org/</dc:title>
     </cc:Agent>
    </dc:creator>
   </cc:Work>
  </rdf:RDF>
 </metadata>
 <defs>
  <style type="text/css">*{stroke-linecap:butt;stroke-linejoin:round;}</style>
 </defs>
 <g id="figure_1">
  <g id="patch_1">
   <path d="M 0 372.35625 
L 880.665625 372.35625 
L 880.665625 0 
L 0 0 
z
" style="fill:#ffffff;"/>
  </g>
  <g id="axes_1">
   <g id="patch_2">
    <path d="M 36.465625 348.478125 
L 873.465625 348.478125 
L 873.465625 22.318125 
L 36.465625 22.318125 
z
" style="fill:#ffffff;"/>
   </g>
   <g id="matplotlib.axis_1">
    <g id="xtick_1">
     <g id="line2d_1">
      <defs>
       <path d="M 0 0 
L 0 3.5 
" id="mdb4d907965" style="stroke:#000000;stroke-width:0.8;"/>
      </defs>
      <g>
       <use style="stroke:#000000;stroke-width:0.8;" x="216.047087" xlink:href="#mdb4d907965" y="348.478125"/>
      </g>
     </g>
     <g id="text_1">
      <!-- 6613 -->
      <g transform="translate(203.322087 363.076563)scale(0.1 -0.1)">
       <defs>
        <path d="M 2113 2584 
Q 1688 2584 1439 2293 
Q 1191 2003 1191 1497 
Q 1191 994 1439 701 
Q 1688 409 2113 409 
Q 2538 409 2786 701 
Q 3034 994 3034 1497 
Q 3034 2003 2786 2293 
Q 2538 2584 2113 2584 
z
M 3366 4563 
L 3366 3988 
Q 3128 4100 2886 4159 
Q 2644 4219 2406 4219 
Q 1781 4219 1451 3797 
Q 1122 3375 1075 2522 
Q 1259 2794 1537 2939 
Q 1816 3084 2150 3084 
Q 2853 3084 3261 2657 
Q 3669 2231 3669 1497 
Q 3669 778 3244 343 
Q 2819 -91 2113 -91 
Q 1303 -91 875 529 
Q 447 1150 447 2328 
Q 447 3434 972 4092 
Q 1497 4750 2381 4750 
Q 2619 4750 2861 4703 
Q 3103 4656 3366 4563 
z
" id="DejaVuSans-36" transform="scale(0.015625)"/>
        <path d="M 794 531 
L 1825 531 
L 1825 4091 
L 703 3866 
L 703 4441 
L 1819 4666 
L 2450 4666 
L 2450 531 
L 3481 531 
L 3481 0 
L 794 0 
L 794 531 
z
" id="DejaVuSans-31" transform="scale(0.015625)"/>
        <path d="M 2597 2516 
Q 3050 2419 3304 2112 
Q 3559 1806 3559 1356 
Q 3559 666 3084 287 
Q 2609 -91 1734 -91 
Q 1441 -91 1130 -33 
Q 819 25 488 141 
L 488 750 
Q 750 597 1062 519 
Q 1375 441 1716 441 
Q 2309 441 2620 675 
Q 2931 909 2931 1356 
Q 2931 1769 2642 2001 
Q 2353 2234 1838 2234 
L 1294 2234 
L 1294 2753 
L 1863 2753 
Q 2328 2753 2575 2939 
Q 2822 3125 2822 3475 
Q 2822 3834 2567 4026 
Q 2313 4219 1838 4219 
Q 1578 4219 1281 4162 
Q 984 4106 628 3988 
L 628 4550 
Q 988 4650 1302 4700 
Q 1616 4750 1894 4750 
Q 2613 4750 3031 4423 
Q 3450 4097 3450 3541 
Q 3450 3153 3228 2886 
Q 3006 2619 2597 2516 
z
" id="DejaVuSans-33" transform="scale(0.015625)"/>
       </defs>
       <use xlink:href="#DejaVuSans-36"/>
       <use x="63.623047" xlink:href="#DejaVuSans-36"/>
       <use x="127.246094" xlink:href="#DejaVuSans-31"/>
       <use x="190.869141" xlink:href="#DejaVuSans-33"/>
      </g>
     </g>
    </g>
    <g id="xtick_2">
     <g id="line2d_2">
      <g>
       <use style="stroke:#000000;stroke-width:0.8;" x="396.373706" xlink:href="#mdb4d907965" y="348.478125"/>
      </g>
     </g>
     <g id="text_2">
      <!-- 6614 -->
      <g transform="translate(383.648706 363.076563)scale(0.1 -0.1)">
       <defs>
        <path d="M 2419 4116 
L 825 1625 
L 2419 1625 
L 2419 4116 
z
M 2253 4666 
L 3047 4666 
L 3047 1625 
L 3713 1625 
L 3713 1100 
L 3047 1100 
L 3047 0 
L 2419 0 
L 2419 1100 
L 313 1100 
L 313 1709 
L 2253 4666 
z
" id="DejaVuSans-34" transform="scale(0.015625)"/>
       </defs>
       <use xlink:href="#DejaVuSans-36"/>
       <use x="63.623047" xlink:href="#DejaVuSans-36"/>
       <use x="127.246094" xlink:href="#DejaVuSans-31"/>
       <use x="190.869141" xlink:href="#DejaVuSans-34"/>
      </g>
     </g>
    </g>
    <g id="xtick_3">
     <g id="line2d_3">
      <g>
       <use style="stroke:#000000;stroke-width:0.8;" x="576.700324" xlink:href="#mdb4d907965" y="348.478125"/>
      </g>
     </g>
     <g id="text_3">
      <!-- 6615 -->
      <g transform="translate(563.975324 363.076563)scale(0.1 -0.1)">
       <defs>
        <path d="M 691 4666 
L 3169 4666 
L 3169 4134 
L 1269 4134 
L 1269 2991 
Q 1406 3038 1543 3061 
Q 1681 3084 1819 3084 
Q 2600 3084 3056 2656 
Q 3513 2228 3513 1497 
Q 3513 744 3044 326 
Q 2575 -91 1722 -91 
Q 1428 -91 1123 -41 
Q 819 9 494 109 
L 494 744 
Q 775 591 1075 516 
Q 1375 441 1709 441 
Q 2250 441 2565 725 
Q 2881 1009 2881 1497 
Q 2881 1984 2565 2268 
Q 2250 2553 1709 2553 
Q 1456 2553 1204 2497 
Q 953 2441 691 2322 
L 691 4666 
z
" id="DejaVuSans-35" transform="scale(0.015625)"/>
       </defs>
       <use xlink:href="#DejaVuSans-36"/>
       <use x="63.623047" xlink:href="#DejaVuSans-36"/>
       <use x="127.246094" xlink:href="#DejaVuSans-31"/>
       <use x="190.869141" xlink:href="#DejaVuSans-35"/>
      </g>
     </g>
    </g>
    <g id="xtick_4">
     <g id="line2d_4">
      <g>
       <use style="stroke:#000000;stroke-width:0.8;" x="757.026943" xlink:href="#mdb4d907965" y="348.478125"/>
      </g>
     </g>
     <g id="text_4">
      <!-- 6616 -->
      <g transform="translate(744.301943 363.076563)scale(0.1 -0.1)">
       <use xlink:href="#DejaVuSans-36"/>
       <use x="63.623047" xlink:href="#DejaVuSans-36"/>
       <use x="127.246094" xlink:href="#DejaVuSans-31"/>
       <use x="190.869141" xlink:href="#DejaVuSans-36"/>
      </g>
     </g>
    </g>
   </g>
   <g id="matplotlib.axis_2">
    <g id="ytick_1">
     <g id="line2d_5">
      <defs>
       <path d="M 0 0 
L -3.5 0 
" id="m11543638b4" style="stroke:#000000;stroke-width:0.8;"/>
      </defs>
      <g>
       <use style="stroke:#000000;stroke-width:0.8;" x="36.465625" xlink:href="#m11543638b4" y="333.65267"/>
      </g>
     </g>
     <g id="text_5">
      <!-- 0.95 -->
      <g transform="translate(7.2 337.451889)scale(0.1 -0.1)">
       <defs>
        <path d="M 2034 4250 
Q 1547 4250 1301 3770 
Q 1056 3291 1056 2328 
Q 1056 1369 1301 889 
Q 1547 409 2034 409 
Q 2525 409 2770 889 
Q 3016 1369 3016 2328 
Q 3016 3291 2770 3770 
Q 2525 4250 2034 4250 
z
M 2034 4750 
Q 2819 4750 3233 4129 
Q 3647 3509 3647 2328 
Q 3647 1150 3233 529 
Q 2819 -91 2034 -91 
Q 1250 -91 836 529 
Q 422 1150 422 2328 
Q 422 3509 836 4129 
Q 1250 4750 2034 4750 
z
" id="DejaVuSans-30" transform="scale(0.015625)"/>
        <path d="M 684 794 
L 1344 794 
L 1344 0 
L 684 0 
L 684 794 
z
" id="DejaVuSans-2e" transform="scale(0.015625)"/>
        <path d="M 703 97 
L 703 672 
Q 941 559 1184 500 
Q 1428 441 1663 441 
Q 2288 441 2617 861 
Q 2947 1281 2994 2138 
Q 2813 1869 2534 1725 
Q 2256 1581 1919 1581 
Q 1219 1581 811 2004 
Q 403 2428 403 3163 
Q 403 3881 828 4315 
Q 1253 4750 1959 4750 
Q 2769 4750 3195 4129 
Q 3622 3509 3622 2328 
Q 3622 1225 3098 567 
Q 2575 -91 1691 -91 
Q 1453 -91 1209 -44 
Q 966 3 703 97 
z
M 1959 2075 
Q 2384 2075 2632 2365 
Q 2881 2656 2881 3163 
Q 2881 3666 2632 3958 
Q 2384 4250 1959 4250 
Q 1534 4250 1286 3958 
Q 1038 3666 1038 3163 
Q 1038 2656 1286 2365 
Q 1534 2075 1959 2075 
z
" id="DejaVuSans-39" transform="scale(0.015625)"/>
       </defs>
       <use xlink:href="#DejaVuSans-30"/>
       <use x="63.623047" xlink:href="#DejaVuSans-2e"/>
       <use x="95.410156" xlink:href="#DejaVuSans-39"/>
       <use x="159.033203" xlink:href="#DejaVuSans-35"/>
      </g>
     </g>
    </g>
    <g id="ytick_2">
     <g id="line2d_6">
      <g>
       <use style="stroke:#000000;stroke-width:0.8;" x="36.465625" xlink:href="#m11543638b4" y="274.350852"/>
      </g>
     </g>
     <g id="text_6">
      <!-- 0.96 -->
      <g transform="translate(7.2 278.150071)scale(0.1 -0.1)">
       <use xlink:href="#DejaVuSans-30"/>
       <use x="63.623047" xlink:href="#DejaVuSans-2e"/>
       <use x="95.410156" xlink:href="#DejaVuSans-39"/>
       <use x="159.033203" xlink:href="#DejaVuSans-36"/>
      </g>
     </g>
    </g>
    <g id="ytick_3">
     <g id="line2d_7">
      <g>
       <use style="stroke:#000000;stroke-width:0.8;" x="36.465625" xlink:href="#m11543638b4" y="215.049034"/>
      </g>
     </g>
     <g id="text_7">
      <!-- 0.97 -->
      <g transform="translate(7.2 218.848253)scale(0.1 -0.1)">
       <defs>
        <path d="M 525 4666 
L 3525 4666 
L 3525 4397 
L 1831 0 
L 1172 0 
L 2766 4134 
L 525 4134 
L 525 4666 
z
" id="DejaVuSans-37" transform="scale(0.015625)"/>
       </defs>
       <use xlink:href="#DejaVuSans-30"/>
       <use x="63.623047" xlink:href="#DejaVuSans-2e"/>
       <use x="95.410156" xlink:href="#DejaVuSans-39"/>
       <use x="159.033203" xlink:href="#DejaVuSans-37"/>
      </g>
     </g>
    </g>
    <g id="ytick_4">
     <g id="line2d_8">
      <g>
       <use style="stroke:#000000;stroke-width:0.8;" x="36.465625" xlink:href="#m11543638b4" y="155.747216"/>
      </g>
     </g>
     <g id="text_8">
      <!-- 0.98 -->
      <g transform="translate(7.2 159.546435)scale(0.1 -0.1)">
       <defs>
        <path d="M 2034 2216 
Q 1584 2216 1326 1975 
Q 1069 1734 1069 1313 
Q 1069 891 1326 650 
Q 1584 409 2034 409 
Q 2484 409 2743 651 
Q 3003 894 3003 1313 
Q 3003 1734 2745 1975 
Q 2488 2216 2034 2216 
z
M 1403 2484 
Q 997 2584 770 2862 
Q 544 3141 544 3541 
Q 544 4100 942 4425 
Q 1341 4750 2034 4750 
Q 2731 4750 3128 4425 
Q 3525 4100 3525 3541 
Q 3525 3141 3298 2862 
Q 3072 2584 2669 2484 
Q 3125 2378 3379 2068 
Q 3634 1759 3634 1313 
Q 3634 634 3220 271 
Q 2806 -91 2034 -91 
Q 1263 -91 848 271 
Q 434 634 434 1313 
Q 434 1759 690 2068 
Q 947 2378 1403 2484 
z
M 1172 3481 
Q 1172 3119 1398 2916 
Q 1625 2713 2034 2713 
Q 2441 2713 2670 2916 
Q 2900 3119 2900 3481 
Q 2900 3844 2670 4047 
Q 2441 4250 2034 4250 
Q 1625 4250 1398 4047 
Q 1172 3844 1172 3481 
z
" id="DejaVuSans-38" transform="scale(0.015625)"/>
       </defs>
       <use xlink:href="#DejaVuSans-30"/>
       <use x="63.623047" xlink:href="#DejaVuSans-2e"/>
       <use x="95.410156" xlink:href="#DejaVuSans-39"/>
       <use x="159.033203" xlink:href="#DejaVuSans-38"/>
      </g>
     </g>
    </g>
    <g id="ytick_5">
     <g id="line2d_9">
      <g>
       <use style="stroke:#000000;stroke-width:0.8;" x="36.465625" xlink:href="#m11543638b4" y="96.445398"/>
      </g>
     </g>
     <g id="text_9">
      <!-- 0.99 -->
      <g transform="translate(7.2 100.244616)scale(0.1 -0.1)">
       <use xlink:href="#DejaVuSans-30"/>
       <use x="63.623047" xlink:href="#DejaVuSans-2e"/>
       <use x="95.410156" xlink:href="#DejaVuSans-39"/>
       <use x="159.033203" xlink:href="#DejaVuSans-39"/>
      </g>
     </g>
    </g>
    <g id="ytick_6">
     <g id="line2d_10">
      <g>
       <use style="stroke:#000000;stroke-width:0.8;" x="36.465625" xlink:href="#m11543638b4" y="37.14358"/>
      </g>
     </g>
     <g id="text_10">
      <!-- 1.00 -->
      <g transform="translate(7.2 40.942798)scale(0.1 -0.1)">
       <use xlink:href="#DejaVuSans-31"/>
       <use x="63.623047" xlink:href="#DejaVuSans-2e"/>
       <use x="95.410156" xlink:href="#DejaVuSans-30"/>
       <use x="159.033203" xlink:href="#DejaVuSans-30"/>
      </g>
     </g>
    </g>
   </g>
   <g id="line2d_11">
    <path clip-path="url(#p95a7a962f1)" d="M 640.869794 37.14358 
L 461.096099 37.247816 
L 453.157816 37.493716 
L 448.05469 37.877791 
L 444.085622 38.418341 
L 441.25059 39.007684 
L 438.415571 39.835966 
L 436.147566 40.723299 
L 433.879569 41.862781 
L 431.611581 43.310897 
L 429.910595 44.637735 
L 428.209615 46.203555 
L 426.508639 48.039766 
L 424.807668 50.17922 
L 423.106702 52.655653 
L 421.405741 55.502971 
L 419.704785 58.754401 
L 418.003833 62.441505 
L 416.302887 66.59308 
L 414.601945 71.23398 
L 412.901008 76.383909 
L 410.6331 84.064336 
L 408.3652 92.683214 
L 406.097309 102.223915 
L 403.829426 112.640239 
L 400.994585 126.773338 
L 397.592794 145.081377 
L 393.057102 171.01385 
L 382.851922 230.051929 
L 378.883288 251.542896 
L 375.481623 268.841608 
L 372.646917 282.305108 
L 369.812224 294.733264 
L 367.54448 303.787352 
L 365.276744 311.906614 
L 363.575948 317.292745 
L 361.875156 322.004428 
L 360.17437 325.980471 
L 359.040515 328.195463 
L 357.906662 330.046011 
L 356.772811 331.521474 
L 355.638963 332.614262 
L 354.505116 333.320116 
L 353.371272 333.638265 
L 352.23743 333.571449 
L 351.10359 333.125829 
L 349.969753 332.31075 
L 348.835917 331.138397 
L 347.702084 329.623341 
L 346.568252 327.782002 
L 344.867509 324.447058 
L 343.166771 320.47949 
L 341.466038 315.939353 
L 339.198402 309.08768 
L 336.930773 301.415796 
L 334.663154 292.989728 
L 332.395543 283.839326 
L 329.561042 271.383253 
L 326.726554 257.771559 
L 323.89208 242.995133 
L 321.057619 227.109439 
L 317.656283 206.806512 
L 311.987434 171.28834 
L 306.885516 139.830742 
L 304.051136 123.51747 
L 301.216769 108.491276 
L 298.949285 97.570724 
L 296.68181 87.719106 
L 294.414344 78.97412 
L 292.71375 73.141565 
L 291.013161 67.916904 
L 289.312576 63.2769 
L 287.611997 59.190863 
L 285.911422 55.622464 
L 284.210852 52.531491 
L 282.510287 49.875476 
L 280.809727 47.611134 
L 279.109171 45.695591 
L 277.408621 44.087382 
L 275.708075 42.747225 
L 274.007535 41.638579 
L 271.740154 40.463183 
L 269.472783 39.570141 
L 267.20542 38.899781 
L 264.371228 38.300209 
L 260.970216 37.831229 
L 257.002394 37.509548 
L 251.334121 37.286438 
L 241.698181 37.170233 
L 211.657722 37.143716 
L 74.51108 37.14358 
L 74.51108 37.14358 
" style="fill:none;stroke:#eb9973;stroke-linecap:square;"/>
   </g>
   <g id="line2d_12">
    <path clip-path="url(#p95a7a962f1)" d="M 640.869794 37.14358 
L 494.551453 37.253514 
L 484.344536 37.488525 
L 477.540021 37.865146 
L 472.436687 38.377466 
L 468.467457 38.994526 
L 465.06528 39.740322 
L 462.230148 40.563274 
L 459.39503 41.617482 
L 457.126945 42.662965 
L 454.858868 43.921586 
L 452.5908 45.427787 
L 450.322741 47.219164 
L 448.05469 49.33612 
L 445.786648 51.821307 
L 443.518615 54.718831 
L 441.25059 58.073195 
L 438.982574 61.927958 
L 436.714566 66.324108 
L 434.446567 71.298157 
L 432.178577 76.880003 
L 429.910595 83.090603 
L 427.642622 89.939562 
L 425.374658 97.42276 
L 422.539715 107.636496 
L 419.704785 118.730394 
L 416.302887 133.026497 
L 411.767053 153.245167 
L 402.695488 194.064299 
L 399.293687 208.255174 
L 396.458868 219.278956 
L 393.624062 229.52372 
L 390.222313 240.877989 
L 386.25363 253.201586 
L 377.749398 279.235089 
L 373.213857 294.06691 
L 368.111415 310.746571 
L 365.843677 317.515281 
L 364.142879 322.066879 
L 362.442086 326.019502 
L 361.308227 328.259435 
L 360.17437 330.144213 
L 359.040515 331.645447 
L 357.906662 332.740339 
L 356.772811 333.412515 
L 355.638963 333.65267 
L 354.505116 333.459006 
L 353.371272 332.837434 
L 352.23743 331.801544 
L 351.10359 330.372318 
L 349.969753 328.577611 
L 348.835917 326.45141 
L 347.135168 322.727408 
L 344.867509 316.998346 
L 341.466038 307.536145 
L 337.49768 296.582778 
L 335.230058 290.870758 
L 332.962445 285.71834 
L 330.694841 281.122784 
L 327.860347 275.990706 
L 321.62451 265.080397 
L 319.356948 260.41283 
L 317.656283 256.420397 
L 315.955623 251.91605 
L 314.254967 246.840955 
L 312.554316 241.159447 
L 310.28679 232.623897 
L 308.019272 223.028259 
L 305.751762 212.474797 
L 302.917387 198.178464 
L 298.949285 176.815221 
L 291.580023 136.75085 
L 288.178856 119.647413 
L 285.344565 106.582458 
L 283.077141 97.037969 
L 280.809727 88.357111 
L 278.542321 80.560062 
L 276.274923 73.640559 
L 274.007535 67.570447 
L 271.740154 62.304458 
L 270.039625 58.848304 
L 268.3391 55.784672 
L 266.638581 53.084443 
L 264.938066 50.717712 
L 263.237556 48.654502 
L 261.53705 46.865355 
L 259.83655 45.321821 
L 257.569224 43.599276 
L 255.301906 42.205907 
L 253.034597 41.088096 
L 250.767297 40.19844 
L 247.933183 39.34501 
L 245.099083 38.716571 
L 241.698181 38.183608 
L 237.730487 37.777151 
L 232.062397 37.449261 
L 224.127163 37.250379 
L 209.957364 37.15939 
L 147.614248 37.143587 
L 74.51108 37.14358 
L 74.51108 37.14358 
" style="fill:none;stroke:#e88366;stroke-linecap:square;"/>
   </g>
   <g id="line2d_13">
    <path clip-path="url(#p95a7a962f1)" d="M 640.869794 37.14358 
L 522.337834 37.250314 
L 509.862156 37.475156 
L 501.923224 37.823598 
L 496.252622 38.269726 
L 491.149128 38.898364 
L 487.179773 39.599462 
L 483.77749 40.396337 
L 480.375226 41.421175 
L 477.540021 42.487153 
L 474.70483 43.782837 
L 471.869652 45.347231 
L 469.60152 46.820999 
L 467.333396 48.517976 
L 465.06528 50.463299 
L 462.797174 52.683217 
L 460.529075 55.204739 
L 458.260986 58.055171 
L 455.992905 61.261543 
L 453.724833 64.849916 
L 451.456769 68.844568 
L 449.188714 73.267066 
L 446.920668 78.135237 
L 444.65263 83.462051 
L 441.817595 90.775426 
L 438.982574 98.813052 
L 436.147566 107.551003 
L 432.745574 118.890945 
L 429.343601 131.032913 
L 424.807668 148.125401 
L 414.034965 189.163318 
L 410.6331 201.005554 
L 407.798226 210.081485 
L 404.963367 218.318655 
L 402.695488 224.274011 
L 400.427619 229.681072 
L 398.159758 234.594244 
L 395.324944 240.187065 
L 386.25363 257.336047 
L 383.985823 262.372969 
L 381.718024 268.016543 
L 379.450235 274.337993 
L 377.182453 281.330518 
L 374.347739 290.856507 
L 366.977545 316.310304 
L 365.276744 321.366583 
L 363.575948 325.747505 
L 362.442086 328.211085 
L 361.308227 330.257595 
L 360.17437 331.849151 
L 359.040515 332.954635 
L 357.906662 333.550676 
L 357.339736 333.65267 
L 356.772811 333.622445 
L 356.205887 333.459577 
L 355.638963 333.164235 
L 354.505116 332.179801 
L 353.371272 330.682456 
L 352.23743 328.694895 
L 351.10359 326.248773 
L 349.402835 321.8092 
L 347.702084 316.594216 
L 345.434423 308.771554 
L 338.064586 282.279533 
L 336.363868 277.078666 
L 334.663154 272.520701 
L 332.962445 268.678456 
L 331.828642 266.531156 
L 330.694841 264.714606 
L 329.561042 263.219291 
L 328.427245 262.028273 
L 327.29345 261.117878 
L 326.159658 260.458498 
L 325.025868 260.015493 
L 323.325186 259.671125 
L 321.62451 259.583166 
L 317.656283 259.528279 
L 315.955623 259.214803 
L 314.821852 258.809241 
L 313.688083 258.205976 
L 312.554316 257.374621 
L 311.420552 256.288947 
L 310.28679 254.927104 
L 309.15303 253.271736 
L 308.019272 251.310022 
L 306.318639 247.776003 
L 304.618011 243.525024 
L 302.917387 238.567696 
L 301.216769 232.933155 
L 298.949285 224.447177 
L 296.68181 214.98238 
L 293.847479 202.041843 
L 290.446299 185.389854 
L 279.676023 131.744673 
L 276.274923 116.455903 
L 273.440689 104.791814 
L 271.173311 96.24527 
L 268.905941 88.428425 
L 266.638581 81.349424 
L 264.371228 74.999078 
L 262.103885 69.353877 
L 259.83655 64.379041 
L 257.569224 60.031456 
L 255.301906 56.262394 
L 253.034597 53.019937 
L 250.767297 50.251053 
L 248.500005 47.903309 
L 246.232722 45.926207 
L 243.965447 44.272177 
L 241.698181 42.897242 
L 239.430924 41.761413 
L 236.596864 40.623659 
L 233.762818 39.742808 
L 230.361981 38.95302 
L 226.961163 38.386768 
L 222.426769 37.882355 
L 217.325617 37.544912 
L 209.957364 37.304771 
L 198.054993 37.18156 
L 163.482786 37.144737 
L 74.51108 37.14358 
L 74.51108 37.14358 
" style="fill:none;stroke:#e46c5d;stroke-linecap:square;"/>
   </g>
   <g id="line2d_14">
    <path clip-path="url(#p95a7a962f1)" d="M 640.869794 37.14358 
L 545.021554 37.25411 
L 530.277038 37.48675 
L 521.203671 37.827515 
L 514.398736 38.291316 
L 508.728016 38.908255 
L 504.191479 39.626124 
L 500.222038 40.477477 
L 496.81968 41.418697 
L 493.417342 42.599289 
L 490.582075 43.799465 
L 487.746822 45.227206 
L 484.911582 46.913073 
L 482.076356 48.888771 
L 479.241143 51.186774 
L 476.405943 53.83993 
L 474.137793 56.240224 
L 471.869652 58.905396 
L 469.60152 61.851594 
L 467.333396 65.094292 
L 464.498253 69.586549 
L 461.663123 74.589711 
L 458.828008 80.124019 
L 455.992905 86.203111 
L 453.157816 92.832049 
L 450.322741 100.005211 
L 446.920668 109.304392 
L 443.518615 119.299524 
L 439.549577 131.710948 
L 434.446567 148.511967 
L 424.240679 182.411569 
L 420.838755 192.912673 
L 418.003833 201.051163 
L 415.168925 208.50082 
L 412.901008 213.901076 
L 410.6331 218.772514 
L 408.3652 223.109371 
L 406.097309 226.932095 
L 403.829426 230.290663 
L 401.561553 233.266676 
L 398.726722 236.624622 
L 393.624062 242.565495 
L 391.356227 245.604035 
L 389.655356 248.208899 
L 387.954491 251.175319 
L 386.25363 254.566784 
L 384.552774 258.432356 
L 382.851922 262.802224 
L 381.151076 267.683592 
L 378.883288 274.950296 
L 376.61551 282.962176 
L 373.213857 295.866406 
L 369.245287 310.871448 
L 366.977545 318.590018 
L 365.276744 323.619124 
L 363.575948 327.790553 
L 362.442086 330.012107 
L 361.308227 331.735817 
L 360.17437 332.926063 
L 359.607442 333.312114 
L 359.040515 333.555023 
L 358.473588 333.65267 
L 357.906662 333.603519 
L 357.339736 333.406631 
L 356.772811 333.061677 
L 355.638963 331.929364 
L 354.505116 330.216398 
L 353.371272 327.942519 
L 352.23743 325.137111 
L 351.10359 321.838682 
L 349.402835 316.071264 
L 347.702084 309.49021 
L 345.434423 299.827692 
L 338.631494 270.091266 
L 336.930773 263.654265 
L 335.230058 257.971643 
L 333.529348 253.157782 
L 332.395543 250.468432 
L 331.261741 248.208587 
L 330.127941 246.380417 
L 328.994143 244.978016 
L 327.860347 243.987879 
L 326.726554 243.389521 
L 325.592763 243.156185 
L 324.458973 243.255653 
L 323.325186 243.651093 
L 322.191401 244.301955 
L 320.490728 245.661735 
L 318.790059 247.344547 
L 313.1212 253.299005 
L 311.420552 254.634498 
L 310.28679 255.293447 
L 309.15303 255.732126 
L 308.019272 255.924556 
L 306.885516 255.848583 
L 305.751762 255.485913 
L 304.618011 254.822099 
L 303.484261 253.846472 
L 302.350514 252.552033 
L 301.216769 250.9353 
L 300.083026 248.996128 
L 298.382416 245.490142 
L 296.68181 241.288187 
L 294.98121 236.425244 
L 293.280614 230.947233 
L 291.013161 222.782381 
L 288.745716 213.771204 
L 285.911422 201.566415 
L 281.943433 183.320572 
L 272.306999 138.319634 
L 268.905941 123.630507 
L 266.071742 112.243255 
L 263.237556 101.747578 
L 260.403383 92.206549 
L 258.136055 85.278964 
L 255.868735 78.976558 
L 253.601424 73.285879 
L 251.334121 68.184557 
L 249.066827 63.643399 
L 246.799542 59.628332 
L 244.532265 56.102126 
L 242.264997 53.025872 
L 239.997737 50.360181 
L 237.730487 48.066118 
L 235.463244 46.105898 
L 233.196011 44.443364 
L 230.928786 43.044302 
L 228.66157 41.876639 
L 225.827561 40.697245 
L 222.993566 39.77979 
L 220.159585 39.076787 
L 216.758825 38.457818 
L 212.791296 37.968871 
L 207.690227 37.591842 
L 200.888869 37.345057 
L 190.12021 37.208652 
L 161.782565 37.148328 
L 74.51108 37.14358 
L 74.51108 37.14358 
" style="fill:none;stroke:#db565d;stroke-linecap:square;"/>
   </g>
   <g id="line2d_15">
    <path clip-path="url(#p95a7a962f1)" d="M 640.869794 37.14358 
L 562.03491 37.250663 
L 546.722868 37.50384 
L 536.515058 37.876603 
L 529.142859 38.346933 
L 522.904916 38.966315 
L 517.801193 39.700089 
L 513.264587 40.593026 
L 509.295086 41.62023 
L 505.892676 42.731115 
L 502.490287 44.100992 
L 499.654977 45.475357 
L 496.81968 47.093112 
L 493.984397 48.984779 
L 491.149128 51.1806 
L 488.313872 53.709508 
L 485.478629 56.598129 
L 482.6434 59.869919 
L 479.808184 63.544509 
L 476.972982 67.637294 
L 474.137793 72.159234 
L 471.302618 77.116804 
L 468.467457 82.511945 
L 465.632308 88.341908 
L 462.230148 95.900398 
L 458.828008 104.048725 
L 455.425886 112.74761 
L 451.456769 123.515017 
L 446.920668 136.477572 
L 439.549577 158.352767 
L 433.312571 176.639681 
L 429.343601 187.616163 
L 425.941648 196.336396 
L 423.106702 202.98106 
L 420.838755 207.826423 
L 418.570817 212.217219 
L 416.302887 216.133381 
L 414.034965 219.570804 
L 411.767053 222.544284 
L 409.499149 225.090207 
L 407.231253 227.268713 
L 404.396396 229.60744 
L 397.025831 235.380392 
L 395.324944 237.061026 
L 393.624062 239.026474 
L 391.923185 241.34861 
L 390.222313 244.093688 
L 388.521445 247.318785 
L 386.820583 251.06804 
L 385.119725 255.368865 
L 383.418872 260.228322 
L 381.151076 267.544321 
L 378.883288 275.708909 
L 376.048566 286.794338 
L 369.812224 311.600401 
L 367.54448 319.446013 
L 365.843677 324.466777 
L 364.709811 327.299692 
L 363.575948 329.662766 
L 362.442086 331.511647 
L 361.308227 332.808279 
L 360.741298 333.239578 
L 360.17437 333.521897 
L 359.607442 333.65267 
L 359.040515 333.629886 
L 358.473588 333.452106 
L 357.906662 333.118476 
L 357.339736 332.628743 
L 356.205887 331.182982 
L 355.072039 329.124974 
L 353.938194 326.474602 
L 352.804351 323.261246 
L 351.10359 317.47197 
L 349.402835 310.668467 
L 347.135168 300.368176 
L 343.733684 283.406286 
L 339.76531 263.673614 
L 337.49768 253.490102 
L 335.796963 246.721983 
L 334.096251 240.858922 
L 332.395543 236.001832 
L 331.261741 233.353776 
L 330.127941 231.18765 
L 328.994143 229.503099 
L 327.860347 228.292308 
L 326.726554 227.54052 
L 325.592763 227.226639 
L 324.458973 227.323919 
L 323.325186 227.800703 
L 322.191401 228.621205 
L 321.057619 229.746293 
L 319.923838 231.134279 
L 318.223171 233.613783 
L 315.955623 237.427224 
L 310.28679 247.34344 
L 308.58615 249.880202 
L 306.885516 252.014652 
L 305.751762 253.169536 
L 304.618011 254.08337 
L 303.484261 254.736969 
L 302.350514 255.114332 
L 301.216769 255.202586 
L 300.083026 254.991904 
L 298.949285 254.475399 
L 297.815547 253.648996 
L 296.68181 252.511295 
L 295.548076 251.063407 
L 294.414344 249.308798 
L 292.71375 246.114681 
L 291.013161 242.270915 
L 289.312576 237.813566 
L 287.611997 232.786098 
L 285.344565 225.282203 
L 283.077141 216.983067 
L 280.242874 205.703698 
L 276.841772 191.212276 
L 270.039625 160.908706 
L 264.938066 138.66141 
L 261.53705 124.677142 
L 258.136055 111.640815 
L 255.301906 101.613212 
L 252.467771 92.405309 
L 249.63365 84.045221 
L 247.366362 77.972268 
L 245.099083 72.440767 
L 242.831813 67.439232 
L 240.564552 62.951085 
L 238.297299 58.955518 
L 236.030054 55.428179 
L 233.762818 52.341749 
L 231.495591 49.666445 
L 229.228373 47.370512 
L 226.961163 45.420741 
L 224.693962 43.783037 
L 222.426769 42.423048 
L 220.159585 41.306826 
L 217.89241 40.401496 
L 215.058452 39.519107 
L 212.224509 38.861834 
L 208.823794 38.301539 
L 204.856318 37.874774 
L 199.755317 37.556483 
L 192.38728 37.338353 
L 178.784991 37.202543 
L 144.780625 37.1452 
L 74.51108 37.14358 
L 74.51108 37.14358 
" style="fill:none;stroke:#cc4664;stroke-linecap:square;"/>
   </g>
   <g id="line2d_16">
    <path clip-path="url(#p95a7a962f1)" d="M 640.869794 37.14358 
L 571.676027 37.252941 
L 558.065083 37.525825 
L 547.857079 37.95114 
L 539.917642 38.501078 
L 533.679586 39.1442 
L 528.575771 39.871287 
L 524.039083 40.724805 
L 520.069509 41.680012 
L 516.099962 42.881864 
L 512.697514 44.153961 
L 509.295086 45.696015 
L 506.459743 47.223011 
L 503.624414 49.002924 
L 500.789099 51.067861 
L 497.953797 53.449877 
L 495.118509 56.179526 
L 492.283234 59.284249 
L 489.447972 62.786734 
L 486.612724 66.703434 
L 483.77749 71.043446 
L 480.942269 75.807874 
L 478.107061 80.989767 
L 474.70483 87.73816 
L 471.302618 95.028827 
L 467.900426 102.812978 
L 463.931226 112.440898 
L 459.39503 124.035688 
L 453.157816 140.684504 
L 441.25059 172.674159 
L 437.281567 182.658144 
L 433.879569 190.650893 
L 431.044585 196.802898 
L 428.209615 202.411999 
L 425.941648 206.466247 
L 423.67369 210.110053 
L 421.405741 213.330383 
L 419.1378 216.126349 
L 416.869868 218.511303 
L 414.601945 220.514768 
L 412.33403 222.184107 
L 410.066124 223.585758 
L 406.664281 225.380087 
L 402.695488 227.4635 
L 400.427619 228.912601 
L 398.726722 230.237871 
L 397.025831 231.840641 
L 395.324944 233.785876 
L 393.624062 236.135297 
L 391.923185 238.944726 
L 390.222313 242.261173 
L 388.521445 246.119739 
L 386.820583 250.540465 
L 385.119725 255.525278 
L 382.851922 263.013077 
L 380.584128 271.357434 
L 377.749398 282.696929 
L 370.9461 310.54554 
L 368.678351 318.613275 
L 366.977545 323.801676 
L 365.843677 326.748413 
L 364.709811 329.227116 
L 363.575948 331.192858 
L 362.442086 332.606311 
L 361.875156 333.095407 
L 361.308227 333.434703 
L 360.741298 333.621265 
L 360.17437 333.65267 
L 359.607442 333.527025 
L 359.040515 333.242978 
L 358.473588 332.799739 
L 357.339736 331.435374 
L 356.205887 329.439116 
L 355.072039 326.825479 
L 353.938194 323.618217 
L 352.804351 319.850028 
L 351.10359 313.238195 
L 349.402835 305.629578 
L 347.135168 294.289498 
L 343.733684 275.844379 
L 339.76531 254.487438 
L 337.49768 243.423113 
L 335.796963 236.019186 
L 334.096251 229.54621 
L 332.395543 224.111951 
L 331.261741 221.101829 
L 330.127941 218.595655 
L 328.994143 216.596848 
L 327.860347 215.101723 
L 326.726554 214.099937 
L 325.592763 213.575014 
L 324.458973 213.504944 
L 323.325186 213.862834 
L 322.191401 214.61759 
L 321.057619 215.734614 
L 319.923838 217.176501 
L 318.223171 219.861559 
L 316.522509 223.049324 
L 314.254967 227.83668 
L 306.885516 243.965202 
L 305.184886 247.109889 
L 303.484261 249.834629 
L 301.783641 252.066843 
L 300.649897 253.251569 
L 299.516156 254.176504 
L 298.382416 254.829878 
L 297.248678 255.202377 
L 296.114943 255.287052 
L 294.98121 255.079218 
L 293.847479 254.57635 
L 292.71375 253.777963 
L 291.580023 252.685499 
L 290.446299 251.302195 
L 289.312576 249.632964 
L 287.611997 246.607515 
L 285.911422 242.981209 
L 284.210852 238.787851 
L 282.510287 234.06645 
L 280.242874 227.025105 
L 277.975471 219.23356 
L 275.141228 208.619231 
L 271.740154 194.911395 
L 266.638581 173.199443 
L 258.136055 136.924275 
L 254.168251 121.030288 
L 250.767297 108.299567 
L 247.933183 98.44082 
L 245.099083 89.338001 
L 242.264997 81.041287 
L 239.997737 75.006541 
L 237.730487 69.516703 
L 235.463244 64.572185 
L 233.196011 60.165667 
L 230.928786 56.282194 
L 228.66157 52.899531 
L 226.394362 49.988841 
L 224.127163 47.515676 
L 221.859972 45.441259 
L 219.59279 43.723946 
L 217.325617 42.32079 
L 215.058452 41.189058 
L 212.791296 40.287607 
L 209.957364 39.426434 
L 207.123444 38.79829 
L 203.722759 38.27278 
L 199.188541 37.835112 
L 193.520818 37.536347 
L 184.452574 37.319509 
L 167.449987 37.183821 
L 127.212462 37.143752 
L 74.51108 37.14358 
L 74.51108 37.14358 
" style="fill:none;stroke:#b73d6b;stroke-linecap:square;"/>
   </g>
   <g id="line2d_17">
    <path clip-path="url(#p95a7a962f1)" d="M 640.869794 37.14358 
L 577.91448 37.250476 
L 566.571887 37.502399 
L 557.497968 37.914853 
L 549.558401 38.499551 
L 542.753143 39.232045 
L 537.082154 40.068496 
L 531.978309 41.059583 
L 527.441596 42.189342 
L 523.471999 43.422313 
L 520.069509 44.70259 
L 516.667039 46.230655 
L 513.831661 47.72586 
L 510.996297 49.453667 
L 508.160947 51.445439 
L 505.32561 53.734012 
L 502.490287 56.352567 
L 499.654977 59.333099 
L 496.81968 62.704537 
L 493.984397 66.490638 
L 491.149128 70.70785 
L 488.313872 75.3634 
L 485.478629 80.453868 
L 482.6434 85.964505 
L 479.241143 93.094683 
L 475.838905 100.728437 
L 471.869652 110.163717 
L 466.766366 122.908178 
L 457.126945 147.781669 
L 450.889755 163.59062 
L 446.353658 174.529647 
L 442.384601 183.491503 
L 438.982574 190.580473 
L 436.147566 195.987754 
L 433.312571 200.880122 
L 431.044585 204.39186 
L 428.776608 207.527349 
L 426.508639 210.277475 
L 424.240679 212.642667 
L 421.972728 214.634544 
L 419.704785 216.27742 
L 417.436851 217.609574 
L 415.168925 218.684208 
L 412.33403 219.771459 
L 406.097309 222.009494 
L 403.829426 223.123668 
L 402.12852 224.190529 
L 400.427619 225.51927 
L 398.726722 227.167115 
L 397.025831 229.189504 
L 395.324944 231.63823 
L 393.624062 234.559322 
L 391.923185 237.990714 
L 390.222313 241.959767 
L 388.521445 246.480691 
L 386.820583 251.552013 
L 384.552774 259.133319 
L 382.284973 267.553366 
L 379.450235 278.988858 
L 371.513038 311.739614 
L 369.812224 317.785977 
L 368.111415 323.090699 
L 366.977545 326.128113 
L 365.843677 328.709125 
L 364.709811 330.789008 
L 363.575948 332.327882 
L 362.442086 333.291617 
L 361.875156 333.548922 
L 361.308227 333.65267 
L 360.741298 333.600568 
L 360.17437 333.390815 
L 359.607442 333.022128 
L 359.040515 332.493744 
L 357.906662 330.957527 
L 356.772811 328.78692 
L 355.638963 325.995483 
L 354.505116 322.605536 
L 353.371272 318.64792 
L 351.67051 311.734399 
L 349.969753 303.795448 
L 347.702084 291.954882 
L 344.300596 272.591105 
L 339.76531 246.760752 
L 337.49768 235.050478 
L 335.796963 227.168269 
L 334.096251 220.222049 
L 332.395543 214.321928 
L 331.261741 211.007621 
L 330.127941 208.204679 
L 328.994143 205.919008 
L 327.860347 204.149817 
L 326.726554 202.890014 
L 325.592763 202.126674 
L 324.458973 201.841567 
L 323.325186 202.01174 
L 322.191401 202.610122 
L 321.057619 203.60615 
L 319.923838 204.966392 
L 318.790059 206.655154 
L 317.089396 209.722231 
L 315.388737 213.313935 
L 313.1212 218.690944 
L 308.58615 230.326331 
L 305.184886 238.739729 
L 302.917387 243.7577 
L 301.216769 247.074623 
L 299.516156 249.935379 
L 297.815547 252.285856 
L 296.68181 253.547496 
L 295.548076 254.552555 
L 294.414344 255.29271 
L 293.280614 255.761528 
L 292.146886 255.954394 
L 291.013161 255.86842 
L 289.879437 255.502363 
L 288.745716 254.856532 
L 287.611997 253.932695 
L 286.47828 252.733991 
L 285.344565 251.264828 
L 283.643996 248.566492 
L 281.943433 245.295758 
L 280.242874 241.480687 
L 278.542321 237.153363 
L 276.274923 230.648342 
L 274.007535 223.386804 
L 271.173311 213.393451 
L 268.3391 202.564121 
L 264.371228 186.372306 
L 258.702886 162.104364 
L 251.334121 130.670514 
L 247.366362 114.694726 
L 243.965447 101.913433 
L 241.131366 92.064449 
L 238.297299 83.049374 
L 236.030054 76.487354 
L 233.762818 70.529886 
L 231.495591 65.188102 
L 229.228373 60.45997 
L 226.961163 56.330628 
L 224.693962 52.773419 
L 222.993566 50.459173 
L 221.293176 48.427673 
L 219.59279 46.658431 
L 217.325617 44.6696 
L 215.058452 43.054794 
L 212.791296 41.760785 
L 210.524149 40.73654 
L 208.25701 39.934821 
L 205.423099 39.181606 
L 202.022423 38.551517 
L 198.054993 38.075416 
L 192.954049 37.713064 
L 185.586097 37.442268 
L 173.117462 37.247808 
L 150.447884 37.15327 
L 74.51108 37.14358 
L 74.51108 37.14358 
" style="fill:none;stroke:#a1386f;stroke-linecap:square;"/>
   </g>
   <g id="line2d_18">
    <path clip-path="url(#p95a7a962f1)" d="M 640.869794 37.14358 
L 581.884439 37.251023 
L 571.676027 37.501575 
L 563.736272 37.903148 
L 556.930852 38.449722 
L 550.692619 39.157264 
L 545.021554 40.013764 
L 539.917642 41.003634 
L 535.380867 42.1035 
L 531.411218 43.277199 
L 527.441596 44.692682 
L 524.039083 46.137301 
L 520.63659 47.835546 
L 517.801193 49.47584 
L 514.965811 51.350665 
L 512.130441 53.49055 
L 509.295086 55.927851 
L 506.459743 58.695827 
L 503.624414 61.827286 
L 500.789099 65.352775 
L 497.953797 69.298362 
L 495.118509 73.683153 
L 492.283234 78.516787 
L 489.447972 83.797204 
L 486.612724 89.509027 
L 483.210445 96.890333 
L 479.241143 106.129519 
L 474.70483 117.316176 
L 466.766366 137.670087 
L 459.962052 154.912574 
L 455.425886 165.853006 
L 451.456769 174.860774 
L 448.05469 182.055036 
L 445.219639 187.616418 
L 442.384601 192.734572 
L 439.549577 197.366654 
L 437.281567 200.696929 
L 435.013566 203.676779 
L 432.745574 206.296048 
L 430.47759 208.551166 
L 428.209615 210.446716 
L 425.941648 211.996941 
L 423.67369 213.227086 
L 421.405741 214.174491 
L 419.1378 214.88933 
L 416.302887 215.55357 
L 410.066124 216.880263 
L 407.798226 217.628968 
L 406.097309 218.394317 
L 404.396396 219.390279 
L 402.695488 220.667525 
L 400.994585 222.275923 
L 399.293687 224.263308 
L 397.592794 226.674076 
L 395.891906 229.547602 
L 394.191022 232.916484 
L 392.490143 236.804643 
L 390.78927 241.225312 
L 389.088401 246.178983 
L 386.820583 253.585964 
L 384.552774 261.832654 
L 381.718024 273.103576 
L 376.61551 294.733419 
L 373.213857 308.630439 
L 370.9461 316.907418 
L 369.245287 322.305556 
L 367.54448 326.822228 
L 366.410611 329.265625 
L 365.276744 331.20518 
L 364.142879 332.60332 
L 363.575948 333.089064 
L 363.009017 333.42784 
L 362.442086 333.616587 
L 361.875156 333.65267 
L 361.308227 333.533901 
L 360.741298 333.258554 
L 360.17437 332.825379 
L 359.040515 331.483016 
L 357.906662 329.506809 
L 356.772811 326.90498 
L 355.638963 323.694046 
L 354.505116 319.898718 
L 352.804351 313.183484 
L 351.10359 305.369873 
L 348.835917 293.548806 
L 346.001337 277.212056 
L 339.198402 237.019908 
L 336.930773 225.151217 
L 335.230058 217.208639 
L 333.529348 210.237617 
L 331.828642 204.336831 
L 330.694841 201.030813 
L 329.561042 198.240601 
L 328.427245 195.970527 
L 327.29345 194.218795 
L 326.159658 192.977865 
L 325.025868 192.234915 
L 324.458973 192.044852 
L 323.89208 191.972335 
L 323.325186 192.014506 
L 322.191401 192.43033 
L 321.057619 193.26515 
L 319.923838 194.488951 
L 318.790059 196.069429 
L 317.656283 197.972531 
L 315.955623 201.354662 
L 314.254967 205.261156 
L 311.987434 211.073729 
L 308.58615 220.514512 
L 304.051136 233.097103 
L 301.216769 240.244787 
L 298.949285 245.27782 
L 297.248678 248.55841 
L 295.548076 251.360601 
L 293.847479 253.644599 
L 292.71375 254.86354 
L 291.580023 255.830732 
L 290.446299 256.54036 
L 289.312576 256.988054 
L 288.178856 257.170821 
L 287.045138 257.086972 
L 285.911422 256.736055 
L 284.777708 256.118782 
L 283.643996 255.236958 
L 282.510287 254.093406 
L 281.37658 252.691897 
L 279.676023 250.116343 
L 277.975471 246.990004 
L 276.274923 243.335389 
L 274.574381 239.178019 
L 272.306999 232.901604 
L 270.039625 225.853666 
L 267.77226 218.111446 
L 264.938066 207.58128 
L 261.53705 193.913945 
L 257.569224 176.925152 
L 250.200473 144.047069 
L 245.099083 121.757863 
L 241.698181 107.769353 
L 238.864111 96.907896 
L 236.030054 86.930036 
L 233.762818 79.661788 
L 231.495591 73.071727 
L 229.228373 67.180208 
L 226.961163 61.988699 
L 224.693962 57.480729 
L 222.993566 54.529349 
L 221.293176 51.925834 
L 219.59279 49.648166 
L 217.89241 47.671825 
L 216.192034 45.970653 
L 214.491663 44.517692 
L 212.224509 42.919941 
L 209.957364 41.65357 
L 207.690227 40.66083 
L 205.423099 39.889756 
L 202.589201 39.169283 
L 199.188541 38.567175 
L 195.22113 38.108278 
L 190.12021 37.750017 
L 182.752293 37.468536 
L 170.850465 37.260664 
L 150.447884 37.15674 
L 74.51108 37.14358 
L 74.51108 37.14358 
" style="fill:none;stroke:#8b3271;stroke-linecap:square;"/>
   </g>
   <g id="line2d_19">
    <path clip-path="url(#p95a7a962f1)" d="M 640.869794 37.14358 
L 584.72014 37.251177 
L 575.078812 37.507342 
L 567.706137 37.920074 
L 561.46779 38.479144 
L 555.796623 39.192193 
L 550.12551 40.134374 
L 545.021554 41.213656 
L 540.484741 42.394082 
L 536.515058 43.632491 
L 532.545401 45.101234 
L 529.142859 46.577599 
L 525.740337 48.29008 
L 522.337834 50.277499 
L 519.50243 52.175316 
L 516.667039 54.322732 
L 513.831661 56.750106 
L 510.996297 59.489429 
L 508.160947 62.573405 
L 505.32561 66.034073 
L 502.490287 69.900935 
L 499.654977 74.198616 
L 496.81968 78.944174 
L 493.984397 84.144304 
L 491.149128 89.792734 
L 487.746822 97.131584 
L 484.344536 105.01751 
L 480.375226 114.775612 
L 474.70483 129.364664 
L 465.632308 152.735804 
L 461.096099 163.739689 
L 457.693965 171.477357 
L 454.29185 178.679243 
L 451.456769 184.220986 
L 448.621702 189.307173 
L 445.786648 193.906564 
L 443.518615 197.216944 
L 441.25059 200.186171 
L 438.982574 202.805119 
L 436.714566 205.068514 
L 434.446567 206.976246 
L 432.178577 208.534833 
L 429.910595 209.758924 
L 427.642622 210.672719 
L 425.374658 211.311179 
L 423.106702 211.720898 
L 420.27177 212.001897 
L 412.901008 212.57847 
L 410.6331 213.077738 
L 408.932174 213.666543 
L 407.231253 214.490658 
L 405.530337 215.596274 
L 403.829426 217.028437 
L 402.12852 218.830087 
L 400.427619 221.041007 
L 398.726722 223.696678 
L 397.025831 226.827022 
L 395.324944 230.455037 
L 393.624062 234.595339 
L 391.923185 239.252608 
L 389.655356 246.252779 
L 387.387536 254.105147 
L 385.119725 262.70901 
L 382.284973 274.282182 
L 373.780798 309.755969 
L 371.513038 317.835096 
L 369.812224 323.05931 
L 368.111415 327.391264 
L 366.977545 329.710158 
L 365.843677 331.527032 
L 364.709811 332.806439 
L 364.142879 333.234855 
L 363.575948 333.517904 
L 363.009017 333.65267 
L 362.442086 333.636633 
L 361.875156 333.467685 
L 361.308227 333.14415 
L 360.741298 332.664794 
L 359.607442 331.235988 
L 358.473588 329.18072 
L 357.339736 326.506154 
L 356.205887 323.227253 
L 355.072039 319.366731 
L 353.371272 312.553591 
L 351.67051 304.633552 
L 349.402835 292.639492 
L 346.568252 276.001803 
L 338.631494 228.074659 
L 336.363868 216.195694 
L 334.663154 208.292983 
L 332.962445 201.387962 
L 331.261741 195.567775 
L 330.127941 192.31883 
L 328.994143 189.585706 
L 327.860347 187.371025 
L 326.726554 185.671801 
L 325.592763 184.479826 
L 324.458973 183.782109 
L 323.89208 183.613347 
L 323.325186 183.561355 
L 322.191401 183.796468 
L 321.057619 184.463067 
L 319.923838 185.534001 
L 318.790059 186.979858 
L 317.656283 188.769454 
L 315.955623 192.027038 
L 314.254967 195.871812 
L 311.987434 201.71394 
L 309.15303 209.792373 
L 300.649897 234.694028 
L 298.382416 240.542394 
L 296.114943 245.751723 
L 294.414344 249.167619 
L 292.71375 252.116312 
L 291.013161 254.563818 
L 289.879437 255.9033 
L 288.745716 257.001232 
L 287.611997 257.852269 
L 286.47828 258.452194 
L 285.344565 258.797862 
L 284.210852 258.887141 
L 283.077141 258.718857 
L 281.943433 258.292735 
L 280.809727 257.609344 
L 279.676023 256.670039 
L 278.542321 255.476904 
L 277.408621 254.032706 
L 275.708075 251.40325 
L 274.007535 248.230539 
L 272.306999 244.531075 
L 270.606468 240.323742 
L 268.3391 233.960675 
L 266.071742 226.788154 
L 263.804392 218.868462 
L 260.970216 208.02431 
L 258.136055 196.27364 
L 254.735078 181.222015 
L 249.63365 157.43199 
L 242.264997 123.018392 
L 238.864111 108.175704 
L 236.030054 96.713422 
L 233.196011 86.268026 
L 230.928786 78.731132 
L 228.66157 71.965656 
L 226.394362 65.985223 
L 224.127163 60.779961 
L 222.426769 57.366849 
L 220.72638 54.353163 
L 219.025996 51.71482 
L 217.325617 49.42437 
L 215.625243 47.4521 
L 213.924873 45.767099 
L 212.224509 44.338229 
L 210.524149 43.134976 
L 208.25701 41.831403 
L 205.98988 40.813386 
L 203.722759 40.024403 
L 200.888869 39.287181 
L 197.488219 38.66854 
L 193.520818 38.191808 
L 188.419914 37.811751 
L 181.052017 37.503724 
L 169.71697 37.277714 
L 151.581343 37.16266 
L 95.477738 37.14358 
L 74.51108 37.14358 
L 74.51108 37.14358 
" style="fill:none;stroke:#752d6f;stroke-linecap:square;"/>
   </g>
   <g id="line2d_20">
    <path clip-path="url(#p95a7a962f1)" d="M 640.869794 37.14358 
L 586.98871 37.248778 
L 577.91448 37.497509 
L 571.108898 37.894658 
L 565.437639 38.427687 
L 559.766434 39.18834 
L 554.662396 40.096827 
L 549.558401 41.244949 
L 545.021554 42.494341 
L 540.484741 43.994208 
L 536.515058 45.54807 
L 533.112493 47.090463 
L 529.709948 48.858727 
L 526.307423 50.887812 
L 522.904916 53.217617 
L 520.069509 55.421018 
L 517.234116 57.892655 
L 514.398736 60.662755 
L 511.563369 63.762769 
L 508.728016 67.224338 
L 505.892676 71.077785 
L 503.05735 75.350089 
L 500.222038 80.062362 
L 497.386738 85.226963 
L 494.551453 90.844508 
L 491.71618 96.901116 
L 488.313872 104.704483 
L 484.344536 114.434272 
L 479.241143 127.624947 
L 469.034488 154.254644 
L 465.06528 163.949502 
L 461.663123 171.708941 
L 458.828008 177.711204 
L 455.992905 183.245438 
L 453.157816 188.279059 
L 450.322741 192.787534 
L 448.05469 196.003755 
L 445.786648 198.865223 
L 443.518615 201.367322 
L 441.25059 203.50814 
L 438.982574 205.289285 
L 436.714566 206.717014 
L 434.446567 207.803599 
L 432.178577 208.568805 
L 429.910595 209.041341 
L 427.642622 209.260137 
L 424.807668 209.254226 
L 420.838755 208.952976 
L 416.869868 208.703127 
L 414.601945 208.777962 
L 412.901008 209.016649 
L 411.200076 209.461571 
L 409.499149 210.157486 
L 407.798226 211.148253 
L 406.097309 212.475979 
L 404.396396 214.180133 
L 402.695488 216.296653 
L 400.994585 218.857025 
L 399.293687 221.887323 
L 397.592794 225.40722 
L 395.891906 229.42894 
L 394.191022 233.956158 
L 391.923185 240.766818 
L 389.655356 248.419251 
L 387.387536 256.829248 
L 384.552774 268.207812 
L 379.450235 289.957545 
L 376.048566 304.1181 
L 373.780798 312.765123 
L 372.079977 318.578479 
L 370.379162 323.645063 
L 369.245287 326.534015 
L 368.111415 328.98285 
L 366.977545 330.952506 
L 365.843677 332.407427 
L 364.709811 333.316285 
L 364.142879 333.557477 
L 363.575948 333.65267 
L 363.009017 333.599436 
L 362.442086 333.395729 
L 361.875156 333.039903 
L 361.308227 332.530725 
L 360.17437 331.049517 
L 359.040515 328.950926 
L 357.906662 326.24099 
L 356.772811 322.933088 
L 355.638963 319.047929 
L 353.938194 312.200744 
L 352.23743 304.241874 
L 349.969753 292.170999 
L 347.135168 275.362529 
L 338.064586 219.813949 
L 335.796963 208.034109 
L 334.096251 200.244752 
L 332.395543 193.472323 
L 330.694841 187.792797 
L 329.561042 184.637465 
L 328.427245 181.995208 
L 327.29345 179.86693 
L 326.159658 178.248398 
L 325.025868 177.13063 
L 323.89208 176.50032 
L 323.325186 176.362734 
L 322.758294 176.340296 
L 321.62451 176.629989 
L 320.490728 177.345912 
L 319.356948 178.462139 
L 318.223171 179.950761 
L 317.089396 181.782332 
L 315.388737 185.105639 
L 313.688083 189.025735 
L 311.420552 194.995962 
L 308.58615 203.303357 
L 302.917387 221.015815 
L 299.516156 231.280228 
L 296.68181 239.117891 
L 294.414344 244.729012 
L 292.71375 248.479328 
L 291.013161 251.793026 
L 289.312576 254.636735 
L 287.611997 256.982487 
L 286.47828 258.258161 
L 285.344565 259.296608 
L 284.210852 260.09308 
L 283.077141 260.643647 
L 281.943433 260.945161 
L 280.809727 260.995201 
L 279.676023 260.792028 
L 278.542321 260.334548 
L 277.408621 259.622264 
L 276.274923 258.655244 
L 275.141228 257.434088 
L 274.007535 255.959904 
L 272.306999 253.277815 
L 270.606468 250.037482 
L 268.905941 246.248671 
L 267.20542 241.923625 
L 265.504903 237.077242 
L 263.237556 229.835725 
L 260.970216 221.751068 
L 258.702886 212.88708 
L 255.868735 200.831186 
L 252.467771 185.183923 
L 247.933183 162.986115 
L 239.997737 123.756554 
L 236.596864 108.148921 
L 233.762818 96.190068 
L 231.495591 87.453076 
L 229.228373 79.52998 
L 226.961163 72.459345 
L 224.693962 66.250232 
L 222.993566 62.148759 
L 221.293176 58.505625 
L 219.59279 55.298047 
L 217.89241 52.498277 
L 216.192034 50.074935 
L 214.491663 47.994337 
L 212.791296 46.221728 
L 211.090935 44.72239 
L 209.390579 43.462579 
L 207.123444 42.100411 
L 204.856318 41.038033 
L 202.589201 40.214688 
L 199.755317 39.443958 
L 196.354673 38.793903 
L 192.38728 38.287997 
L 187.286385 37.878325 
L 179.918503 37.539758 
L 169.150223 37.296731 
L 152.148073 37.167994 
L 106.244687 37.143584 
L 74.51108 37.14358 
L 74.51108 37.14358 
" style="fill:none;stroke:#602969;stroke-linecap:square;"/>
   </g>
   <g id="line2d_21">
    <path clip-path="url(#p95a7a962f1)" d="M 125.004745 330.548517 
L 128.610914 313.452861 
L 132.217084 292.428765 
L 135.823254 265.735067 
L 139.429423 260.063486 
L 143.035593 256.588583 
L 146.641763 255.808617 
L 150.247932 245.739467 
L 153.854102 227.945377 
L 157.460272 205.855141 
L 161.066441 202.783093 
L 164.672611 191.889588 
L 168.278781 179.285163 
L 171.88495 175.588866 
L 175.49112 158.672464 
L 179.09729 140.84629 
L 182.703459 140.091702 
L 186.309629 128.345331 
L 189.915799 117.905226 
L 193.521968 120.717767 
L 197.128138 104.858388 
L 200.734308 92.878588 
L 204.340477 96.518323 
L 207.946647 83.249956 
L 211.552817 71.536158 
L 215.158986 60.66715 
L 218.765156 64.360965 
L 222.371326 63.759231 
L 225.977495 58.475443 
L 229.583665 55.11071 
L 233.189835 50.898629 
L 236.796004 45.924419 
L 240.402174 49.59103 
L 244.008344 45.464077 
L 247.614514 37.14358 
L 251.220683 49.425886 
L 254.826853 60.020996 
L 258.433023 69.97014 
L 262.039192 73.132517 
L 265.645362 89.479271 
L 269.251532 108.921749 
L 272.857701 127.588974 
L 287.28238 214.609503 
L 290.88855 233.138218 
L 294.494719 246.069121 
L 298.100889 249.790792 
L 301.707059 248.515623 
L 305.313228 238.594852 
L 308.919398 246.731491 
L 312.525568 246.344028 
L 316.131737 238.078254 
L 319.737907 222.122145 
L 323.344077 218.01888 
L 326.950246 221.931551 
L 330.556416 215.401944 
L 334.162586 233.165997 
L 337.768755 259.977365 
L 341.374925 259.730398 
L 344.981095 283.240245 
L 348.587264 309.545859 
L 352.193434 313.975041 
L 355.799604 325.329963 
L 359.405773 332.543741 
L 363.011943 322.191491 
L 366.618113 309.464254 
L 370.224282 300.361664 
L 373.830452 304.491051 
L 377.436622 280.661694 
L 381.042791 262.937375 
L 384.648961 255.575082 
L 388.255131 252.296789 
L 391.8613 240.555664 
L 395.46747 219.651929 
L 399.07364 217.847678 
L 402.67981 218.451641 
L 406.285979 221.745514 
L 409.892149 245.720472 
L 413.498319 247.911396 
L 417.104488 241.809898 
L 420.710658 240.569943 
L 424.316828 235.012455 
L 427.922997 227.743539 
L 431.529167 217.243679 
L 438.741506 201.593561 
L 442.347676 195.936487 
L 445.953846 172.627659 
L 449.560015 155.881756 
L 453.166185 156.435086 
L 456.772355 147.310882 
L 460.378524 140.262235 
L 463.984694 136.195464 
L 467.590864 130.76971 
L 471.197033 134.328328 
L 474.803203 146.356395 
L 478.409373 137.18296 
L 482.015542 136.013707 
L 485.621712 137.9513 
L 489.227882 130.333595 
L 492.834051 138.287855 
L 496.440221 147.998388 
L 500.046391 133.305573 
L 503.65256 124.100491 
L 507.25873 118.432521 
L 510.8649 125.386938 
L 514.471069 121.243338 
L 518.077239 120.353942 
L 521.683409 131.316723 
L 525.289578 122.831094 
L 528.895748 122.618367 
L 532.501918 136.95428 
L 539.714257 134.017817 
L 543.320427 132.145033 
L 546.926596 132.686922 
L 550.532766 136.028804 
L 554.138936 141.070147 
L 557.745106 144.012224 
L 561.351275 148.062326 
L 564.957445 150.849169 
L 568.563615 142.972505 
L 572.169784 147.782161 
L 575.775954 152.893166 
L 579.382124 150.722171 
L 582.988293 148.149852 
L 586.594463 146.751649 
L 590.200633 148.21916 
L 593.806802 148.617512 
L 597.412972 151.566163 
L 601.019142 157.495589 
L 604.625311 153.628021 
L 608.231481 154.922119 
L 611.837651 159.817378 
L 615.44382 168.572949 
L 619.04999 170.985225 
L 622.65616 170.076218 
L 626.262329 174.510066 
L 629.868499 175.548267 
L 633.474669 176.070721 
L 637.080838 176.218968 
L 640.687008 174.111261 
L 644.293178 174.62303 
L 647.899347 186.311028 
L 651.505517 180.770393 
L 655.111687 179.866656 
L 658.717856 191.576894 
L 662.324026 186.872468 
L 665.930196 183.554806 
L 669.536365 180.04365 
L 673.142535 200.531139 
L 676.748705 207.235883 
L 680.354874 205.414518 
L 683.961044 203.792807 
L 687.567214 206.166718 
L 691.173383 209.014765 
L 694.779553 199.204038 
L 698.385723 203.296114 
L 701.991892 208.351154 
L 705.598062 204.042649 
L 709.204232 207.100923 
L 712.810402 206.58968 
L 716.416571 194.965608 
L 720.022741 200.834889 
L 723.628911 208.277497 
L 727.23508 219.260323 
L 730.84125 210.383042 
L 734.44742 205.6796 
L 738.053589 203.13976 
L 741.659759 202.907266 
L 745.265929 197.98367 
L 748.872098 191.640854 
L 752.478268 197.427611 
L 756.084438 196.141704 
L 759.690607 195.524849 
L 763.296777 209.907444 
L 770.509116 192.464308 
L 774.115286 190.514668 
L 777.721456 193.754619 
L 781.327625 198.765581 
L 784.933795 206.990965 
L 788.539965 197.81963 
L 792.146134 183.58006 
L 795.752304 163.394281 
L 799.358474 183.296988 
L 802.964643 180.110398 
L 806.570813 167.215119 
L 810.176983 156.544591 
L 813.783152 155.281146 
L 817.389322 154.83243 
L 820.995492 141.606886 
L 824.601661 148.561138 
L 828.207831 151.711586 
L 831.814001 134.520336 
L 835.42017 145.172077 
L 835.42017 145.172077 
" style="fill:none;stroke:#000000;stroke-linecap:square;stroke-width:1.5;"/>
   </g>
   <g id="patch_3">
    <path d="M 36.465625 348.478125 
L 36.465625 22.318125 
" style="fill:none;stroke:#000000;stroke-linecap:square;stroke-linejoin:miter;stroke-width:0.8;"/>
   </g>
   <g id="patch_4">
    <path d="M 873.465625 348.478125 
L 873.465625 22.318125 
" style="fill:none;stroke:#000000;stroke-linecap:square;stroke-linejoin:miter;stroke-width:0.8;"/>
   </g>
   <g id="patch_5">
    <path d="M 36.465625 348.478125 
L 873.465625 348.478125 
" style="fill:none;stroke:#000000;stroke-linecap:square;stroke-linejoin:miter;stroke-width:0.8;"/>
   </g>
   <g id="patch_6">
    <path d="M 36.465625 22.318125 
L 873.465625 22.318125 
" style="fill:none;stroke:#000000;stroke-linecap:square;stroke-linejoin:miter;stroke-width:0.8;"/>
   </g>
   <g id="text_11">
    <!-- ground_B =  0.00336 Delta_B = -0.17,  zeta = -0.49   Star Name =   HD 144470 -->
    <g transform="translate(214.47625 16.318125)scale(0.12 -0.12)">
     <defs>
      <path d="M 2906 1791 
Q 2906 2416 2648 2759 
Q 2391 3103 1925 3103 
Q 1463 3103 1205 2759 
Q 947 2416 947 1791 
Q 947 1169 1205 825 
Q 1463 481 1925 481 
Q 2391 481 2648 825 
Q 2906 1169 2906 1791 
z
M 3481 434 
Q 3481 -459 3084 -895 
Q 2688 -1331 1869 -1331 
Q 1566 -1331 1297 -1286 
Q 1028 -1241 775 -1147 
L 775 -588 
Q 1028 -725 1275 -790 
Q 1522 -856 1778 -856 
Q 2344 -856 2625 -561 
Q 2906 -266 2906 331 
L 2906 616 
Q 2728 306 2450 153 
Q 2172 0 1784 0 
Q 1141 0 747 490 
Q 353 981 353 1791 
Q 353 2603 747 3093 
Q 1141 3584 1784 3584 
Q 2172 3584 2450 3431 
Q 2728 3278 2906 2969 
L 2906 3500 
L 3481 3500 
L 3481 434 
z
" id="DejaVuSans-67" transform="scale(0.015625)"/>
      <path d="M 2631 2963 
Q 2534 3019 2420 3045 
Q 2306 3072 2169 3072 
Q 1681 3072 1420 2755 
Q 1159 2438 1159 1844 
L 1159 0 
L 581 0 
L 581 3500 
L 1159 3500 
L 1159 2956 
Q 1341 3275 1631 3429 
Q 1922 3584 2338 3584 
Q 2397 3584 2469 3576 
Q 2541 3569 2628 3553 
L 2631 2963 
z
" id="DejaVuSans-72" transform="scale(0.015625)"/>
      <path d="M 1959 3097 
Q 1497 3097 1228 2736 
Q 959 2375 959 1747 
Q 959 1119 1226 758 
Q 1494 397 1959 397 
Q 2419 397 2687 759 
Q 2956 1122 2956 1747 
Q 2956 2369 2687 2733 
Q 2419 3097 1959 3097 
z
M 1959 3584 
Q 2709 3584 3137 3096 
Q 3566 2609 3566 1747 
Q 3566 888 3137 398 
Q 2709 -91 1959 -91 
Q 1206 -91 779 398 
Q 353 888 353 1747 
Q 353 2609 779 3096 
Q 1206 3584 1959 3584 
z
" id="DejaVuSans-6f" transform="scale(0.015625)"/>
      <path d="M 544 1381 
L 544 3500 
L 1119 3500 
L 1119 1403 
Q 1119 906 1312 657 
Q 1506 409 1894 409 
Q 2359 409 2629 706 
Q 2900 1003 2900 1516 
L 2900 3500 
L 3475 3500 
L 3475 0 
L 2900 0 
L 2900 538 
Q 2691 219 2414 64 
Q 2138 -91 1772 -91 
Q 1169 -91 856 284 
Q 544 659 544 1381 
z
M 1991 3584 
L 1991 3584 
z
" id="DejaVuSans-75" transform="scale(0.015625)"/>
      <path d="M 3513 2113 
L 3513 0 
L 2938 0 
L 2938 2094 
Q 2938 2591 2744 2837 
Q 2550 3084 2163 3084 
Q 1697 3084 1428 2787 
Q 1159 2491 1159 1978 
L 1159 0 
L 581 0 
L 581 3500 
L 1159 3500 
L 1159 2956 
Q 1366 3272 1645 3428 
Q 1925 3584 2291 3584 
Q 2894 3584 3203 3211 
Q 3513 2838 3513 2113 
z
" id="DejaVuSans-6e" transform="scale(0.015625)"/>
      <path d="M 2906 2969 
L 2906 4863 
L 3481 4863 
L 3481 0 
L 2906 0 
L 2906 525 
Q 2725 213 2448 61 
Q 2172 -91 1784 -91 
Q 1150 -91 751 415 
Q 353 922 353 1747 
Q 353 2572 751 3078 
Q 1150 3584 1784 3584 
Q 2172 3584 2448 3432 
Q 2725 3281 2906 2969 
z
M 947 1747 
Q 947 1113 1208 752 
Q 1469 391 1925 391 
Q 2381 391 2643 752 
Q 2906 1113 2906 1747 
Q 2906 2381 2643 2742 
Q 2381 3103 1925 3103 
Q 1469 3103 1208 2742 
Q 947 2381 947 1747 
z
" id="DejaVuSans-64" transform="scale(0.015625)"/>
      <path d="M 3263 -1063 
L 3263 -1509 
L -63 -1509 
L -63 -1063 
L 3263 -1063 
z
" id="DejaVuSans-5f" transform="scale(0.015625)"/>
      <path d="M 1259 2228 
L 1259 519 
L 2272 519 
Q 2781 519 3026 730 
Q 3272 941 3272 1375 
Q 3272 1813 3026 2020 
Q 2781 2228 2272 2228 
L 1259 2228 
z
M 1259 4147 
L 1259 2741 
L 2194 2741 
Q 2656 2741 2882 2914 
Q 3109 3088 3109 3444 
Q 3109 3797 2882 3972 
Q 2656 4147 2194 4147 
L 1259 4147 
z
M 628 4666 
L 2241 4666 
Q 2963 4666 3353 4366 
Q 3744 4066 3744 3513 
Q 3744 3084 3544 2831 
Q 3344 2578 2956 2516 
Q 3422 2416 3680 2098 
Q 3938 1781 3938 1306 
Q 3938 681 3513 340 
Q 3088 0 2303 0 
L 628 0 
L 628 4666 
z
" id="DejaVuSans-42" transform="scale(0.015625)"/>
      <path id="DejaVuSans-20" transform="scale(0.015625)"/>
      <path d="M 678 2906 
L 4684 2906 
L 4684 2381 
L 678 2381 
L 678 2906 
z
M 678 1631 
L 4684 1631 
L 4684 1100 
L 678 1100 
L 678 1631 
z
" id="DejaVuSans-3d" transform="scale(0.015625)"/>
      <path d="M 1259 4147 
L 1259 519 
L 2022 519 
Q 2988 519 3436 956 
Q 3884 1394 3884 2338 
Q 3884 3275 3436 3711 
Q 2988 4147 2022 4147 
L 1259 4147 
z
M 628 4666 
L 1925 4666 
Q 3281 4666 3915 4102 
Q 4550 3538 4550 2338 
Q 4550 1131 3912 565 
Q 3275 0 1925 0 
L 628 0 
L 628 4666 
z
" id="DejaVuSans-44" transform="scale(0.015625)"/>
      <path d="M 3597 1894 
L 3597 1613 
L 953 1613 
Q 991 1019 1311 708 
Q 1631 397 2203 397 
Q 2534 397 2845 478 
Q 3156 559 3463 722 
L 3463 178 
Q 3153 47 2828 -22 
Q 2503 -91 2169 -91 
Q 1331 -91 842 396 
Q 353 884 353 1716 
Q 353 2575 817 3079 
Q 1281 3584 2069 3584 
Q 2775 3584 3186 3129 
Q 3597 2675 3597 1894 
z
M 3022 2063 
Q 3016 2534 2758 2815 
Q 2500 3097 2075 3097 
Q 1594 3097 1305 2825 
Q 1016 2553 972 2059 
L 3022 2063 
z
" id="DejaVuSans-65" transform="scale(0.015625)"/>
      <path d="M 603 4863 
L 1178 4863 
L 1178 0 
L 603 0 
L 603 4863 
z
" id="DejaVuSans-6c" transform="scale(0.015625)"/>
      <path d="M 1172 4494 
L 1172 3500 
L 2356 3500 
L 2356 3053 
L 1172 3053 
L 1172 1153 
Q 1172 725 1289 603 
Q 1406 481 1766 481 
L 2356 481 
L 2356 0 
L 1766 0 
Q 1100 0 847 248 
Q 594 497 594 1153 
L 594 3053 
L 172 3053 
L 172 3500 
L 594 3500 
L 594 4494 
L 1172 4494 
z
" id="DejaVuSans-74" transform="scale(0.015625)"/>
      <path d="M 2194 1759 
Q 1497 1759 1228 1600 
Q 959 1441 959 1056 
Q 959 750 1161 570 
Q 1363 391 1709 391 
Q 2188 391 2477 730 
Q 2766 1069 2766 1631 
L 2766 1759 
L 2194 1759 
z
M 3341 1997 
L 3341 0 
L 2766 0 
L 2766 531 
Q 2569 213 2275 61 
Q 1981 -91 1556 -91 
Q 1019 -91 701 211 
Q 384 513 384 1019 
Q 384 1609 779 1909 
Q 1175 2209 1959 2209 
L 2766 2209 
L 2766 2266 
Q 2766 2663 2505 2880 
Q 2244 3097 1772 3097 
Q 1472 3097 1187 3025 
Q 903 2953 641 2809 
L 641 3341 
Q 956 3463 1253 3523 
Q 1550 3584 1831 3584 
Q 2591 3584 2966 3190 
Q 3341 2797 3341 1997 
z
" id="DejaVuSans-61" transform="scale(0.015625)"/>
      <path d="M 313 2009 
L 1997 2009 
L 1997 1497 
L 313 1497 
L 313 2009 
z
" id="DejaVuSans-2d" transform="scale(0.015625)"/>
      <path d="M 750 794 
L 1409 794 
L 1409 256 
L 897 -744 
L 494 -744 
L 750 256 
L 750 794 
z
" id="DejaVuSans-2c" transform="scale(0.015625)"/>
      <path d="M 353 3500 
L 3084 3500 
L 3084 2975 
L 922 459 
L 3084 459 
L 3084 0 
L 275 0 
L 275 525 
L 2438 3041 
L 353 3041 
L 353 3500 
z
" id="DejaVuSans-7a" transform="scale(0.015625)"/>
      <path d="M 3425 4513 
L 3425 3897 
Q 3066 4069 2747 4153 
Q 2428 4238 2131 4238 
Q 1616 4238 1336 4038 
Q 1056 3838 1056 3469 
Q 1056 3159 1242 3001 
Q 1428 2844 1947 2747 
L 2328 2669 
Q 3034 2534 3370 2195 
Q 3706 1856 3706 1288 
Q 3706 609 3251 259 
Q 2797 -91 1919 -91 
Q 1588 -91 1214 -16 
Q 841 59 441 206 
L 441 856 
Q 825 641 1194 531 
Q 1563 422 1919 422 
Q 2459 422 2753 634 
Q 3047 847 3047 1241 
Q 3047 1584 2836 1778 
Q 2625 1972 2144 2069 
L 1759 2144 
Q 1053 2284 737 2584 
Q 422 2884 422 3419 
Q 422 4038 858 4394 
Q 1294 4750 2059 4750 
Q 2388 4750 2728 4690 
Q 3069 4631 3425 4513 
z
" id="DejaVuSans-53" transform="scale(0.015625)"/>
      <path d="M 628 4666 
L 1478 4666 
L 3547 763 
L 3547 4666 
L 4159 4666 
L 4159 0 
L 3309 0 
L 1241 3903 
L 1241 0 
L 628 0 
L 628 4666 
z
" id="DejaVuSans-4e" transform="scale(0.015625)"/>
      <path d="M 3328 2828 
Q 3544 3216 3844 3400 
Q 4144 3584 4550 3584 
Q 5097 3584 5394 3201 
Q 5691 2819 5691 2113 
L 5691 0 
L 5113 0 
L 5113 2094 
Q 5113 2597 4934 2840 
Q 4756 3084 4391 3084 
Q 3944 3084 3684 2787 
Q 3425 2491 3425 1978 
L 3425 0 
L 2847 0 
L 2847 2094 
Q 2847 2600 2669 2842 
Q 2491 3084 2119 3084 
Q 1678 3084 1418 2786 
Q 1159 2488 1159 1978 
L 1159 0 
L 581 0 
L 581 3500 
L 1159 3500 
L 1159 2956 
Q 1356 3278 1631 3431 
Q 1906 3584 2284 3584 
Q 2666 3584 2933 3390 
Q 3200 3197 3328 2828 
z
" id="DejaVuSans-6d" transform="scale(0.015625)"/>
      <path d="M 628 4666 
L 1259 4666 
L 1259 2753 
L 3553 2753 
L 3553 4666 
L 4184 4666 
L 4184 0 
L 3553 0 
L 3553 2222 
L 1259 2222 
L 1259 0 
L 628 0 
L 628 4666 
z
" id="DejaVuSans-48" transform="scale(0.015625)"/>
     </defs>
     <use xlink:href="#DejaVuSans-67"/>
     <use x="63.476562" xlink:href="#DejaVuSans-72"/>
     <use x="102.339844" xlink:href="#DejaVuSans-6f"/>
     <use x="163.521484" xlink:href="#DejaVuSans-75"/>
     <use x="226.900391" xlink:href="#DejaVuSans-6e"/>
     <use x="290.279297" xlink:href="#DejaVuSans-64"/>
     <use x="353.755859" xlink:href="#DejaVuSans-5f"/>
     <use x="403.755859" xlink:href="#DejaVuSans-42"/>
     <use x="472.359375" xlink:href="#DejaVuSans-20"/>
     <use x="504.146484" xlink:href="#DejaVuSans-3d"/>
     <use x="587.935547" xlink:href="#DejaVuSans-20"/>
     <use x="619.722656" xlink:href="#DejaVuSans-20"/>
     <use x="651.509766" xlink:href="#DejaVuSans-30"/>
     <use x="715.132812" xlink:href="#DejaVuSans-2e"/>
     <use x="746.919922" xlink:href="#DejaVuSans-30"/>
     <use x="810.542969" xlink:href="#DejaVuSans-30"/>
     <use x="874.166016" xlink:href="#DejaVuSans-33"/>
     <use x="937.789062" xlink:href="#DejaVuSans-33"/>
     <use x="1001.412109" xlink:href="#DejaVuSans-36"/>
     <use x="1065.035156" xlink:href="#DejaVuSans-20"/>
     <use x="1096.822266" xlink:href="#DejaVuSans-44"/>
     <use x="1173.824219" xlink:href="#DejaVuSans-65"/>
     <use x="1235.347656" xlink:href="#DejaVuSans-6c"/>
     <use x="1263.130859" xlink:href="#DejaVuSans-74"/>
     <use x="1302.339844" xlink:href="#DejaVuSans-61"/>
     <use x="1363.619141" xlink:href="#DejaVuSans-5f"/>
     <use x="1413.619141" xlink:href="#DejaVuSans-42"/>
     <use x="1482.222656" xlink:href="#DejaVuSans-20"/>
     <use x="1514.009766" xlink:href="#DejaVuSans-3d"/>
     <use x="1597.798828" xlink:href="#DejaVuSans-20"/>
     <use x="1629.585938" xlink:href="#DejaVuSans-2d"/>
     <use x="1665.669922" xlink:href="#DejaVuSans-30"/>
     <use x="1729.292969" xlink:href="#DejaVuSans-2e"/>
     <use x="1761.080078" xlink:href="#DejaVuSans-31"/>
     <use x="1824.703125" xlink:href="#DejaVuSans-37"/>
     <use x="1888.326172" xlink:href="#DejaVuSans-2c"/>
     <use x="1920.113281" xlink:href="#DejaVuSans-20"/>
     <use x="1951.900391" xlink:href="#DejaVuSans-20"/>
     <use x="1983.6875" xlink:href="#DejaVuSans-7a"/>
     <use x="2036.177734" xlink:href="#DejaVuSans-65"/>
     <use x="2097.701172" xlink:href="#DejaVuSans-74"/>
     <use x="2136.910156" xlink:href="#DejaVuSans-61"/>
     <use x="2198.189453" xlink:href="#DejaVuSans-20"/>
     <use x="2229.976562" xlink:href="#DejaVuSans-3d"/>
     <use x="2313.765625" xlink:href="#DejaVuSans-20"/>
     <use x="2345.552734" xlink:href="#DejaVuSans-2d"/>
     <use x="2381.636719" xlink:href="#DejaVuSans-30"/>
     <use x="2445.259766" xlink:href="#DejaVuSans-2e"/>
     <use x="2477.046875" xlink:href="#DejaVuSans-34"/>
     <use x="2540.669922" xlink:href="#DejaVuSans-39"/>
     <use x="2604.292969" xlink:href="#DejaVuSans-20"/>
     <use x="2636.080078" xlink:href="#DejaVuSans-20"/>
     <use x="2667.867188" xlink:href="#DejaVuSans-20"/>
     <use x="2699.654297" xlink:href="#DejaVuSans-53"/>
     <use x="2763.130859" xlink:href="#DejaVuSans-74"/>
     <use x="2802.339844" xlink:href="#DejaVuSans-61"/>
     <use x="2863.619141" xlink:href="#DejaVuSans-72"/>
     <use x="2904.732422" xlink:href="#DejaVuSans-20"/>
     <use x="2936.519531" xlink:href="#DejaVuSans-4e"/>
     <use x="3011.324219" xlink:href="#DejaVuSans-61"/>
     <use x="3072.603516" xlink:href="#DejaVuSans-6d"/>
     <use x="3170.015625" xlink:href="#DejaVuSans-65"/>
     <use x="3231.539062" xlink:href="#DejaVuSans-20"/>
     <use x="3263.326172" xlink:href="#DejaVuSans-3d"/>
     <use x="3347.115234" xlink:href="#DejaVuSans-20"/>
     <use x="3378.902344" xlink:href="#DejaVuSans-20"/>
     <use x="3410.689453" xlink:href="#DejaVuSans-20"/>
     <use x="3442.476562" xlink:href="#DejaVuSans-48"/>
     <use x="3517.671875" xlink:href="#DejaVuSans-44"/>
     <use x="3594.673828" xlink:href="#DejaVuSans-20"/>
     <use x="3626.460938" xlink:href="#DejaVuSans-31"/>
     <use x="3690.083984" xlink:href="#DejaVuSans-34"/>
     <use x="3753.707031" xlink:href="#DejaVuSans-34"/>
     <use x="3817.330078" xlink:href="#DejaVuSans-34"/>
     <use x="3880.953125" xlink:href="#DejaVuSans-37"/>
     <use x="3944.576172" xlink:href="#DejaVuSans-30"/>
    </g>
   </g>
   <g id="legend_1">
    <g id="patch_7">
     <path d="M 43.465625 343.478125 
L 117.007813 343.478125 
Q 119.007813 343.478125 119.007813 341.478125 
L 119.007813 181.01875 
Q 119.007813 179.01875 117.007813 179.01875 
L 43.465625 179.01875 
Q 41.465625 179.01875 41.465625 181.01875 
L 41.465625 341.478125 
Q 41.465625 343.478125 43.465625 343.478125 
z
" style="fill:#ffffff;opacity:0.8;stroke:#cccccc;stroke-linejoin:miter;"/>
    </g>
    <g id="text_12">
     <!-- Calculated -->
     <g transform="translate(53.710156 190.617188)scale(0.1 -0.1)">
      <defs>
       <path d="M 4122 4306 
L 4122 3641 
Q 3803 3938 3442 4084 
Q 3081 4231 2675 4231 
Q 1875 4231 1450 3742 
Q 1025 3253 1025 2328 
Q 1025 1406 1450 917 
Q 1875 428 2675 428 
Q 3081 428 3442 575 
Q 3803 722 4122 1019 
L 4122 359 
Q 3791 134 3420 21 
Q 3050 -91 2638 -91 
Q 1578 -91 968 557 
Q 359 1206 359 2328 
Q 359 3453 968 4101 
Q 1578 4750 2638 4750 
Q 3056 4750 3426 4639 
Q 3797 4528 4122 4306 
z
" id="DejaVuSans-43" transform="scale(0.015625)"/>
       <path d="M 3122 3366 
L 3122 2828 
Q 2878 2963 2633 3030 
Q 2388 3097 2138 3097 
Q 1578 3097 1268 2742 
Q 959 2388 959 1747 
Q 959 1106 1268 751 
Q 1578 397 2138 397 
Q 2388 397 2633 464 
Q 2878 531 3122 666 
L 3122 134 
Q 2881 22 2623 -34 
Q 2366 -91 2075 -91 
Q 1284 -91 818 406 
Q 353 903 353 1747 
Q 353 2603 823 3093 
Q 1294 3584 2113 3584 
Q 2378 3584 2631 3529 
Q 2884 3475 3122 3366 
z
" id="DejaVuSans-63" transform="scale(0.015625)"/>
      </defs>
      <use xlink:href="#DejaVuSans-43"/>
      <use x="69.824219" xlink:href="#DejaVuSans-61"/>
      <use x="131.103516" xlink:href="#DejaVuSans-6c"/>
      <use x="158.886719" xlink:href="#DejaVuSans-63"/>
      <use x="213.867188" xlink:href="#DejaVuSans-75"/>
      <use x="277.246094" xlink:href="#DejaVuSans-6c"/>
      <use x="305.029297" xlink:href="#DejaVuSans-61"/>
      <use x="366.308594" xlink:href="#DejaVuSans-74"/>
      <use x="405.517578" xlink:href="#DejaVuSans-65"/>
      <use x="467.041016" xlink:href="#DejaVuSans-64"/>
     </g>
    </g>
    <g id="line2d_22">
     <path d="M 45.465625 201.795313 
L 65.465625 201.795313 
" style="fill:none;stroke:#eb9973;stroke-linecap:square;"/>
    </g>
    <g id="line2d_23"/>
    <g id="text_13">
     <!-- 10.0  K -->
     <g transform="translate(73.465625 205.295313)scale(0.1 -0.1)">
      <defs>
       <path d="M 628 4666 
L 1259 4666 
L 1259 2694 
L 3353 4666 
L 4166 4666 
L 1850 2491 
L 4331 0 
L 3500 0 
L 1259 2247 
L 1259 0 
L 628 0 
L 628 4666 
z
" id="DejaVuSans-4b" transform="scale(0.015625)"/>
      </defs>
      <use xlink:href="#DejaVuSans-31"/>
      <use x="63.623047" xlink:href="#DejaVuSans-30"/>
      <use x="127.246094" xlink:href="#DejaVuSans-2e"/>
      <use x="159.033203" xlink:href="#DejaVuSans-30"/>
      <use x="222.65625" xlink:href="#DejaVuSans-20"/>
      <use x="254.443359" xlink:href="#DejaVuSans-20"/>
      <use x="286.230469" xlink:href="#DejaVuSans-4b"/>
     </g>
    </g>
    <g id="line2d_24">
     <path d="M 45.465625 216.473438 
L 65.465625 216.473438 
" style="fill:none;stroke:#e88366;stroke-linecap:square;"/>
    </g>
    <g id="line2d_25"/>
    <g id="text_14">
     <!-- 20.0  K -->
     <g transform="translate(73.465625 219.973438)scale(0.1 -0.1)">
      <defs>
       <path d="M 1228 531 
L 3431 531 
L 3431 0 
L 469 0 
L 469 531 
Q 828 903 1448 1529 
Q 2069 2156 2228 2338 
Q 2531 2678 2651 2914 
Q 2772 3150 2772 3378 
Q 2772 3750 2511 3984 
Q 2250 4219 1831 4219 
Q 1534 4219 1204 4116 
Q 875 4013 500 3803 
L 500 4441 
Q 881 4594 1212 4672 
Q 1544 4750 1819 4750 
Q 2544 4750 2975 4387 
Q 3406 4025 3406 3419 
Q 3406 3131 3298 2873 
Q 3191 2616 2906 2266 
Q 2828 2175 2409 1742 
Q 1991 1309 1228 531 
z
" id="DejaVuSans-32" transform="scale(0.015625)"/>
      </defs>
      <use xlink:href="#DejaVuSans-32"/>
      <use x="63.623047" xlink:href="#DejaVuSans-30"/>
      <use x="127.246094" xlink:href="#DejaVuSans-2e"/>
      <use x="159.033203" xlink:href="#DejaVuSans-30"/>
      <use x="222.65625" xlink:href="#DejaVuSans-20"/>
      <use x="254.443359" xlink:href="#DejaVuSans-20"/>
      <use x="286.230469" xlink:href="#DejaVuSans-4b"/>
     </g>
    </g>
    <g id="line2d_26">
     <path d="M 45.465625 231.151563 
L 65.465625 231.151563 
" style="fill:none;stroke:#e46c5d;stroke-linecap:square;"/>
    </g>
    <g id="line2d_27"/>
    <g id="text_15">
     <!-- 30.0  K -->
     <g transform="translate(73.465625 234.651563)scale(0.1 -0.1)">
      <use xlink:href="#DejaVuSans-33"/>
      <use x="63.623047" xlink:href="#DejaVuSans-30"/>
      <use x="127.246094" xlink:href="#DejaVuSans-2e"/>
      <use x="159.033203" xlink:href="#DejaVuSans-30"/>
      <use x="222.65625" xlink:href="#DejaVuSans-20"/>
      <use x="254.443359" xlink:href="#DejaVuSans-20"/>
      <use x="286.230469" xlink:href="#DejaVuSans-4b"/>
     </g>
    </g>
    <g id="line2d_28">
     <path d="M 45.465625 245.829688 
L 65.465625 245.829688 
" style="fill:none;stroke:#db565d;stroke-linecap:square;"/>
    </g>
    <g id="line2d_29"/>
    <g id="text_16">
     <!-- 40.0  K -->
     <g transform="translate(73.465625 249.329688)scale(0.1 -0.1)">
      <use xlink:href="#DejaVuSans-34"/>
      <use x="63.623047" xlink:href="#DejaVuSans-30"/>
      <use x="127.246094" xlink:href="#DejaVuSans-2e"/>
      <use x="159.033203" xlink:href="#DejaVuSans-30"/>
      <use x="222.65625" xlink:href="#DejaVuSans-20"/>
      <use x="254.443359" xlink:href="#DejaVuSans-20"/>
      <use x="286.230469" xlink:href="#DejaVuSans-4b"/>
     </g>
    </g>
    <g id="line2d_30">
     <path d="M 45.465625 260.507813 
L 65.465625 260.507813 
" style="fill:none;stroke:#cc4664;stroke-linecap:square;"/>
    </g>
    <g id="line2d_31"/>
    <g id="text_17">
     <!-- 50.0  K -->
     <g transform="translate(73.465625 264.007813)scale(0.1 -0.1)">
      <use xlink:href="#DejaVuSans-35"/>
      <use x="63.623047" xlink:href="#DejaVuSans-30"/>
      <use x="127.246094" xlink:href="#DejaVuSans-2e"/>
      <use x="159.033203" xlink:href="#DejaVuSans-30"/>
      <use x="222.65625" xlink:href="#DejaVuSans-20"/>
      <use x="254.443359" xlink:href="#DejaVuSans-20"/>
      <use x="286.230469" xlink:href="#DejaVuSans-4b"/>
     </g>
    </g>
    <g id="line2d_32">
     <path d="M 45.465625 275.185938 
L 65.465625 275.185938 
" style="fill:none;stroke:#b73d6b;stroke-linecap:square;"/>
    </g>
    <g id="line2d_33"/>
    <g id="text_18">
     <!-- 60.0  K -->
     <g transform="translate(73.465625 278.685938)scale(0.1 -0.1)">
      <use xlink:href="#DejaVuSans-36"/>
      <use x="63.623047" xlink:href="#DejaVuSans-30"/>
      <use x="127.246094" xlink:href="#DejaVuSans-2e"/>
      <use x="159.033203" xlink:href="#DejaVuSans-30"/>
      <use x="222.65625" xlink:href="#DejaVuSans-20"/>
      <use x="254.443359" xlink:href="#DejaVuSans-20"/>
      <use x="286.230469" xlink:href="#DejaVuSans-4b"/>
     </g>
    </g>
    <g id="line2d_34">
     <path d="M 45.465625 289.864063 
L 65.465625 289.864063 
" style="fill:none;stroke:#a1386f;stroke-linecap:square;"/>
    </g>
    <g id="line2d_35"/>
    <g id="text_19">
     <!-- 70.0  K -->
     <g transform="translate(73.465625 293.364063)scale(0.1 -0.1)">
      <use xlink:href="#DejaVuSans-37"/>
      <use x="63.623047" xlink:href="#DejaVuSans-30"/>
      <use x="127.246094" xlink:href="#DejaVuSans-2e"/>
      <use x="159.033203" xlink:href="#DejaVuSans-30"/>
      <use x="222.65625" xlink:href="#DejaVuSans-20"/>
      <use x="254.443359" xlink:href="#DejaVuSans-20"/>
      <use x="286.230469" xlink:href="#DejaVuSans-4b"/>
     </g>
    </g>
    <g id="line2d_36">
     <path d="M 45.465625 304.542188 
L 65.465625 304.542188 
" style="fill:none;stroke:#8b3271;stroke-linecap:square;"/>
    </g>
    <g id="line2d_37"/>
    <g id="text_20">
     <!-- 80.0  K -->
     <g transform="translate(73.465625 308.042188)scale(0.1 -0.1)">
      <use xlink:href="#DejaVuSans-38"/>
      <use x="63.623047" xlink:href="#DejaVuSans-30"/>
      <use x="127.246094" xlink:href="#DejaVuSans-2e"/>
      <use x="159.033203" xlink:href="#DejaVuSans-30"/>
      <use x="222.65625" xlink:href="#DejaVuSans-20"/>
      <use x="254.443359" xlink:href="#DejaVuSans-20"/>
      <use x="286.230469" xlink:href="#DejaVuSans-4b"/>
     </g>
    </g>
    <g id="line2d_38">
     <path d="M 45.465625 319.220313 
L 65.465625 319.220313 
" style="fill:none;stroke:#752d6f;stroke-linecap:square;"/>
    </g>
    <g id="line2d_39"/>
    <g id="text_21">
     <!-- 90.0  K -->
     <g transform="translate(73.465625 322.720313)scale(0.1 -0.1)">
      <use xlink:href="#DejaVuSans-39"/>
      <use x="63.623047" xlink:href="#DejaVuSans-30"/>
      <use x="127.246094" xlink:href="#DejaVuSans-2e"/>
      <use x="159.033203" xlink:href="#DejaVuSans-30"/>
      <use x="222.65625" xlink:href="#DejaVuSans-20"/>
      <use x="254.443359" xlink:href="#DejaVuSans-20"/>
      <use x="286.230469" xlink:href="#DejaVuSans-4b"/>
     </g>
    </g>
    <g id="line2d_40">
     <path d="M 45.465625 333.898438 
L 65.465625 333.898438 
" style="fill:none;stroke:#602969;stroke-linecap:square;"/>
    </g>
    <g id="line2d_41"/>
    <g id="text_22">
     <!-- 100.0  K -->
     <g transform="translate(73.465625 337.398438)scale(0.1 -0.1)">
      <use xlink:href="#DejaVuSans-31"/>
      <use x="63.623047" xlink:href="#DejaVuSans-30"/>
      <use x="127.246094" xlink:href="#DejaVuSans-30"/>
      <use x="190.869141" xlink:href="#DejaVuSans-2e"/>
      <use x="222.65625" xlink:href="#DejaVuSans-30"/>
      <use x="286.279297" xlink:href="#DejaVuSans-20"/>
      <use x="318.066406" xlink:href="#DejaVuSans-20"/>
      <use x="349.853516" xlink:href="#DejaVuSans-4b"/>
     </g>
    </g>
   </g>
  </g>
 </g>
 <defs>
  <clipPath id="p95a7a962f1">
   <rect height="326.16" width="837" x="36.465625" y="22.318125"/>
  </clipPath>
 </defs>
</svg>
