<?xml version="1.0" encoding="utf-8" standalone="no"?>
<!DOCTYPE svg PUBLIC "-//W3C//DTD SVG 1.1//EN"
  "http://www.w3.org/Graphics/SVG/1.1/DTD/svg11.dtd">
<svg height="372.35625pt" version="1.1" viewBox="0 0 880.665625 372.35625" width="880.665625pt" xmlns="http://www.w3.org/2000/svg" xmlns:xlink="http://www.w3.org/1999/xlink">
 <metadata>
  <rdf:RDF xmlns:cc="http://creativecommons.org/ns#" xmlns:dc="http://purl.org/dc/elements/1.1/" xmlns:rdf="http://www.w3.org/1999/02/22-rdf-syntax-ns#">
   <cc:Work>
    <dc:type rdf:resource="http://purl.org/dc/dcmitype/StillImage"/>
    <dc:date>2022-10-06T14:02:08.537843</dc:date>
    <dc:format>image/svg+xml</dc:format>
    <dc:creator>
     <cc:Agent>
      <dc:title>Matplotlib v3.4.3, https://matplotlib.org/</dc:title>
     </cc:Agent>
    </dc:creator>
   </cc:Work>
  </rdf:RDF>
 </metadata>
 <defs>
  <style type="text/css">*{stroke-linecap:butt;stroke-linejoin:round;}</style>
 </defs>
 <g id="figure_1">
  <g id="patch_1">
   <path d="M 0 372.35625 
L 880.665625 372.35625 
L 880.665625 0 
L 0 0 
z
" style="fill:#ffffff;"/>
  </g>
  <g id="axes_1">
   <g id="patch_2">
    <path d="M 36.465625 348.478125 
L 873.465625 348.478125 
L 873.465625 22.318125 
L 36.465625 22.318125 
z
" style="fill:#ffffff;"/>
   </g>
   <g id="matplotlib.axis_1">
    <g id="xtick_1">
     <g id="line2d_1">
      <defs>
       <path d="M 0 0 
L 0 3.5 
" id="m2ba7c9a942" style="stroke:#000000;stroke-width:0.8;"/>
      </defs>
      <g>
       <use style="stroke:#000000;stroke-width:0.8;" x="217.326882" xlink:href="#m2ba7c9a942" y="348.478125"/>
      </g>
     </g>
     <g id="text_1">
      <!-- 6613 -->
      <g transform="translate(204.601882 363.076563)scale(0.1 -0.1)">
       <defs>
        <path d="M 2113 2584 
Q 1688 2584 1439 2293 
Q 1191 2003 1191 1497 
Q 1191 994 1439 701 
Q 1688 409 2113 409 
Q 2538 409 2786 701 
Q 3034 994 3034 1497 
Q 3034 2003 2786 2293 
Q 2538 2584 2113 2584 
z
M 3366 4563 
L 3366 3988 
Q 3128 4100 2886 4159 
Q 2644 4219 2406 4219 
Q 1781 4219 1451 3797 
Q 1122 3375 1075 2522 
Q 1259 2794 1537 2939 
Q 1816 3084 2150 3084 
Q 2853 3084 3261 2657 
Q 3669 2231 3669 1497 
Q 3669 778 3244 343 
Q 2819 -91 2113 -91 
Q 1303 -91 875 529 
Q 447 1150 447 2328 
Q 447 3434 972 4092 
Q 1497 4750 2381 4750 
Q 2619 4750 2861 4703 
Q 3103 4656 3366 4563 
z
" id="DejaVuSans-36" transform="scale(0.015625)"/>
        <path d="M 794 531 
L 1825 531 
L 1825 4091 
L 703 3866 
L 703 4441 
L 1819 4666 
L 2450 4666 
L 2450 531 
L 3481 531 
L 3481 0 
L 794 0 
L 794 531 
z
" id="DejaVuSans-31" transform="scale(0.015625)"/>
        <path d="M 2597 2516 
Q 3050 2419 3304 2112 
Q 3559 1806 3559 1356 
Q 3559 666 3084 287 
Q 2609 -91 1734 -91 
Q 1441 -91 1130 -33 
Q 819 25 488 141 
L 488 750 
Q 750 597 1062 519 
Q 1375 441 1716 441 
Q 2309 441 2620 675 
Q 2931 909 2931 1356 
Q 2931 1769 2642 2001 
Q 2353 2234 1838 2234 
L 1294 2234 
L 1294 2753 
L 1863 2753 
Q 2328 2753 2575 2939 
Q 2822 3125 2822 3475 
Q 2822 3834 2567 4026 
Q 2313 4219 1838 4219 
Q 1578 4219 1281 4162 
Q 984 4106 628 3988 
L 628 4550 
Q 988 4650 1302 4700 
Q 1616 4750 1894 4750 
Q 2613 4750 3031 4423 
Q 3450 4097 3450 3541 
Q 3450 3153 3228 2886 
Q 3006 2619 2597 2516 
z
" id="DejaVuSans-33" transform="scale(0.015625)"/>
       </defs>
       <use xlink:href="#DejaVuSans-36"/>
       <use x="63.623047" xlink:href="#DejaVuSans-36"/>
       <use x="127.246094" xlink:href="#DejaVuSans-31"/>
       <use x="190.869141" xlink:href="#DejaVuSans-33"/>
      </g>
     </g>
    </g>
    <g id="xtick_2">
     <g id="line2d_2">
      <g>
       <use style="stroke:#000000;stroke-width:0.8;" x="399.284046" xlink:href="#m2ba7c9a942" y="348.478125"/>
      </g>
     </g>
     <g id="text_2">
      <!-- 6614 -->
      <g transform="translate(386.559046 363.076563)scale(0.1 -0.1)">
       <defs>
        <path d="M 2419 4116 
L 825 1625 
L 2419 1625 
L 2419 4116 
z
M 2253 4666 
L 3047 4666 
L 3047 1625 
L 3713 1625 
L 3713 1100 
L 3047 1100 
L 3047 0 
L 2419 0 
L 2419 1100 
L 313 1100 
L 313 1709 
L 2253 4666 
z
" id="DejaVuSans-34" transform="scale(0.015625)"/>
       </defs>
       <use xlink:href="#DejaVuSans-36"/>
       <use x="63.623047" xlink:href="#DejaVuSans-36"/>
       <use x="127.246094" xlink:href="#DejaVuSans-31"/>
       <use x="190.869141" xlink:href="#DejaVuSans-34"/>
      </g>
     </g>
    </g>
    <g id="xtick_3">
     <g id="line2d_3">
      <g>
       <use style="stroke:#000000;stroke-width:0.8;" x="581.241211" xlink:href="#m2ba7c9a942" y="348.478125"/>
      </g>
     </g>
     <g id="text_3">
      <!-- 6615 -->
      <g transform="translate(568.516211 363.076563)scale(0.1 -0.1)">
       <defs>
        <path d="M 691 4666 
L 3169 4666 
L 3169 4134 
L 1269 4134 
L 1269 2991 
Q 1406 3038 1543 3061 
Q 1681 3084 1819 3084 
Q 2600 3084 3056 2656 
Q 3513 2228 3513 1497 
Q 3513 744 3044 326 
Q 2575 -91 1722 -91 
Q 1428 -91 1123 -41 
Q 819 9 494 109 
L 494 744 
Q 775 591 1075 516 
Q 1375 441 1709 441 
Q 2250 441 2565 725 
Q 2881 1009 2881 1497 
Q 2881 1984 2565 2268 
Q 2250 2553 1709 2553 
Q 1456 2553 1204 2497 
Q 953 2441 691 2322 
L 691 4666 
z
" id="DejaVuSans-35" transform="scale(0.015625)"/>
       </defs>
       <use xlink:href="#DejaVuSans-36"/>
       <use x="63.623047" xlink:href="#DejaVuSans-36"/>
       <use x="127.246094" xlink:href="#DejaVuSans-31"/>
       <use x="190.869141" xlink:href="#DejaVuSans-35"/>
      </g>
     </g>
    </g>
    <g id="xtick_4">
     <g id="line2d_4">
      <g>
       <use style="stroke:#000000;stroke-width:0.8;" x="763.198376" xlink:href="#m2ba7c9a942" y="348.478125"/>
      </g>
     </g>
     <g id="text_4">
      <!-- 6616 -->
      <g transform="translate(750.473376 363.076563)scale(0.1 -0.1)">
       <use xlink:href="#DejaVuSans-36"/>
       <use x="63.623047" xlink:href="#DejaVuSans-36"/>
       <use x="127.246094" xlink:href="#DejaVuSans-31"/>
       <use x="190.869141" xlink:href="#DejaVuSans-36"/>
      </g>
     </g>
    </g>
   </g>
   <g id="matplotlib.axis_2">
    <g id="ytick_1">
     <g id="line2d_5">
      <defs>
       <path d="M 0 0 
L -3.5 0 
" id="m870831185d" style="stroke:#000000;stroke-width:0.8;"/>
      </defs>
      <g>
       <use style="stroke:#000000;stroke-width:0.8;" x="36.465625" xlink:href="#m870831185d" y="329.72733"/>
      </g>
     </g>
     <g id="text_5">
      <!-- 0.86 -->
      <g transform="translate(7.2 333.526548)scale(0.1 -0.1)">
       <defs>
        <path d="M 2034 4250 
Q 1547 4250 1301 3770 
Q 1056 3291 1056 2328 
Q 1056 1369 1301 889 
Q 1547 409 2034 409 
Q 2525 409 2770 889 
Q 3016 1369 3016 2328 
Q 3016 3291 2770 3770 
Q 2525 4250 2034 4250 
z
M 2034 4750 
Q 2819 4750 3233 4129 
Q 3647 3509 3647 2328 
Q 3647 1150 3233 529 
Q 2819 -91 2034 -91 
Q 1250 -91 836 529 
Q 422 1150 422 2328 
Q 422 3509 836 4129 
Q 1250 4750 2034 4750 
z
" id="DejaVuSans-30" transform="scale(0.015625)"/>
        <path d="M 684 794 
L 1344 794 
L 1344 0 
L 684 0 
L 684 794 
z
" id="DejaVuSans-2e" transform="scale(0.015625)"/>
        <path d="M 2034 2216 
Q 1584 2216 1326 1975 
Q 1069 1734 1069 1313 
Q 1069 891 1326 650 
Q 1584 409 2034 409 
Q 2484 409 2743 651 
Q 3003 894 3003 1313 
Q 3003 1734 2745 1975 
Q 2488 2216 2034 2216 
z
M 1403 2484 
Q 997 2584 770 2862 
Q 544 3141 544 3541 
Q 544 4100 942 4425 
Q 1341 4750 2034 4750 
Q 2731 4750 3128 4425 
Q 3525 4100 3525 3541 
Q 3525 3141 3298 2862 
Q 3072 2584 2669 2484 
Q 3125 2378 3379 2068 
Q 3634 1759 3634 1313 
Q 3634 634 3220 271 
Q 2806 -91 2034 -91 
Q 1263 -91 848 271 
Q 434 634 434 1313 
Q 434 1759 690 2068 
Q 947 2378 1403 2484 
z
M 1172 3481 
Q 1172 3119 1398 2916 
Q 1625 2713 2034 2713 
Q 2441 2713 2670 2916 
Q 2900 3119 2900 3481 
Q 2900 3844 2670 4047 
Q 2441 4250 2034 4250 
Q 1625 4250 1398 4047 
Q 1172 3844 1172 3481 
z
" id="DejaVuSans-38" transform="scale(0.015625)"/>
       </defs>
       <use xlink:href="#DejaVuSans-30"/>
       <use x="63.623047" xlink:href="#DejaVuSans-2e"/>
       <use x="95.410156" xlink:href="#DejaVuSans-38"/>
       <use x="159.033203" xlink:href="#DejaVuSans-36"/>
      </g>
     </g>
    </g>
    <g id="ytick_2">
     <g id="line2d_6">
      <g>
       <use style="stroke:#000000;stroke-width:0.8;" x="36.465625" xlink:href="#m870831185d" y="287.929651"/>
      </g>
     </g>
     <g id="text_6">
      <!-- 0.88 -->
      <g transform="translate(7.2 291.72887)scale(0.1 -0.1)">
       <use xlink:href="#DejaVuSans-30"/>
       <use x="63.623047" xlink:href="#DejaVuSans-2e"/>
       <use x="95.410156" xlink:href="#DejaVuSans-38"/>
       <use x="159.033203" xlink:href="#DejaVuSans-38"/>
      </g>
     </g>
    </g>
    <g id="ytick_3">
     <g id="line2d_7">
      <g>
       <use style="stroke:#000000;stroke-width:0.8;" x="36.465625" xlink:href="#m870831185d" y="246.131973"/>
      </g>
     </g>
     <g id="text_7">
      <!-- 0.90 -->
      <g transform="translate(7.2 249.931191)scale(0.1 -0.1)">
       <defs>
        <path d="M 703 97 
L 703 672 
Q 941 559 1184 500 
Q 1428 441 1663 441 
Q 2288 441 2617 861 
Q 2947 1281 2994 2138 
Q 2813 1869 2534 1725 
Q 2256 1581 1919 1581 
Q 1219 1581 811 2004 
Q 403 2428 403 3163 
Q 403 3881 828 4315 
Q 1253 4750 1959 4750 
Q 2769 4750 3195 4129 
Q 3622 3509 3622 2328 
Q 3622 1225 3098 567 
Q 2575 -91 1691 -91 
Q 1453 -91 1209 -44 
Q 966 3 703 97 
z
M 1959 2075 
Q 2384 2075 2632 2365 
Q 2881 2656 2881 3163 
Q 2881 3666 2632 3958 
Q 2384 4250 1959 4250 
Q 1534 4250 1286 3958 
Q 1038 3666 1038 3163 
Q 1038 2656 1286 2365 
Q 1534 2075 1959 2075 
z
" id="DejaVuSans-39" transform="scale(0.015625)"/>
       </defs>
       <use xlink:href="#DejaVuSans-30"/>
       <use x="63.623047" xlink:href="#DejaVuSans-2e"/>
       <use x="95.410156" xlink:href="#DejaVuSans-39"/>
       <use x="159.033203" xlink:href="#DejaVuSans-30"/>
      </g>
     </g>
    </g>
    <g id="ytick_4">
     <g id="line2d_8">
      <g>
       <use style="stroke:#000000;stroke-width:0.8;" x="36.465625" xlink:href="#m870831185d" y="204.334294"/>
      </g>
     </g>
     <g id="text_8">
      <!-- 0.92 -->
      <g transform="translate(7.2 208.133513)scale(0.1 -0.1)">
       <defs>
        <path d="M 1228 531 
L 3431 531 
L 3431 0 
L 469 0 
L 469 531 
Q 828 903 1448 1529 
Q 2069 2156 2228 2338 
Q 2531 2678 2651 2914 
Q 2772 3150 2772 3378 
Q 2772 3750 2511 3984 
Q 2250 4219 1831 4219 
Q 1534 4219 1204 4116 
Q 875 4013 500 3803 
L 500 4441 
Q 881 4594 1212 4672 
Q 1544 4750 1819 4750 
Q 2544 4750 2975 4387 
Q 3406 4025 3406 3419 
Q 3406 3131 3298 2873 
Q 3191 2616 2906 2266 
Q 2828 2175 2409 1742 
Q 1991 1309 1228 531 
z
" id="DejaVuSans-32" transform="scale(0.015625)"/>
       </defs>
       <use xlink:href="#DejaVuSans-30"/>
       <use x="63.623047" xlink:href="#DejaVuSans-2e"/>
       <use x="95.410156" xlink:href="#DejaVuSans-39"/>
       <use x="159.033203" xlink:href="#DejaVuSans-32"/>
      </g>
     </g>
    </g>
    <g id="ytick_5">
     <g id="line2d_9">
      <g>
       <use style="stroke:#000000;stroke-width:0.8;" x="36.465625" xlink:href="#m870831185d" y="162.536615"/>
      </g>
     </g>
     <g id="text_9">
      <!-- 0.94 -->
      <g transform="translate(7.2 166.335834)scale(0.1 -0.1)">
       <use xlink:href="#DejaVuSans-30"/>
       <use x="63.623047" xlink:href="#DejaVuSans-2e"/>
       <use x="95.410156" xlink:href="#DejaVuSans-39"/>
       <use x="159.033203" xlink:href="#DejaVuSans-34"/>
      </g>
     </g>
    </g>
    <g id="ytick_6">
     <g id="line2d_10">
      <g>
       <use style="stroke:#000000;stroke-width:0.8;" x="36.465625" xlink:href="#m870831185d" y="120.738937"/>
      </g>
     </g>
     <g id="text_10">
      <!-- 0.96 -->
      <g transform="translate(7.2 124.538155)scale(0.1 -0.1)">
       <use xlink:href="#DejaVuSans-30"/>
       <use x="63.623047" xlink:href="#DejaVuSans-2e"/>
       <use x="95.410156" xlink:href="#DejaVuSans-39"/>
       <use x="159.033203" xlink:href="#DejaVuSans-36"/>
      </g>
     </g>
    </g>
    <g id="ytick_7">
     <g id="line2d_11">
      <g>
       <use style="stroke:#000000;stroke-width:0.8;" x="36.465625" xlink:href="#m870831185d" y="78.941258"/>
      </g>
     </g>
     <g id="text_11">
      <!-- 0.98 -->
      <g transform="translate(7.2 82.740477)scale(0.1 -0.1)">
       <use xlink:href="#DejaVuSans-30"/>
       <use x="63.623047" xlink:href="#DejaVuSans-2e"/>
       <use x="95.410156" xlink:href="#DejaVuSans-39"/>
       <use x="159.033203" xlink:href="#DejaVuSans-38"/>
      </g>
     </g>
    </g>
    <g id="ytick_8">
     <g id="line2d_12">
      <g>
       <use style="stroke:#000000;stroke-width:0.8;" x="36.465625" xlink:href="#m870831185d" y="37.14358"/>
      </g>
     </g>
     <g id="text_12">
      <!-- 1.00 -->
      <g transform="translate(7.2 40.942798)scale(0.1 -0.1)">
       <use xlink:href="#DejaVuSans-31"/>
       <use x="63.623047" xlink:href="#DejaVuSans-2e"/>
       <use x="95.410156" xlink:href="#DejaVuSans-30"/>
       <use x="159.033203" xlink:href="#DejaVuSans-30"/>
      </g>
     </g>
    </g>
   </g>
   <g id="line2d_13">
    <path clip-path="url(#p693d7a93b8)" d="M 645.990913 37.14358 
L 464.591672 37.246436 
L 456.581609 37.489081 
L 451.43234 37.868072 
L 447.427383 38.401465 
L 444.566716 38.983006 
L 441.706062 39.800323 
L 439.417549 40.675909 
L 437.129045 41.800306 
L 434.840549 43.229251 
L 433.124183 44.538524 
L 431.407822 46.083614 
L 429.691465 47.895516 
L 427.975114 50.006647 
L 426.258768 52.450296 
L 424.542426 55.25992 
L 422.826089 58.468306 
L 421.109758 62.106598 
L 419.393431 66.203212 
L 417.677109 70.782674 
L 415.960792 75.864425 
L 413.672376 83.443175 
L 411.38397 91.947952 
L 409.095572 101.362347 
L 406.807183 111.640775 
L 403.946709 125.586772 
L 400.514158 143.652441 
L 395.937454 169.241606 
L 385.639997 227.498108 
L 381.635478 248.704567 
L 378.203054 265.77427 
L 375.342716 279.059533 
L 372.482391 291.323159 
L 370.194141 300.257384 
L 367.9059 308.269159 
L 366.189725 313.583986 
L 364.473555 318.233293 
L 362.75739 322.156699 
L 361.613282 324.342367 
L 360.469177 326.168417 
L 359.325074 327.624347 
L 358.180973 328.702668 
L 357.036874 329.399178 
L 355.892777 329.713115 
L 354.748683 329.647184 
L 353.60459 329.207463 
L 352.4605 328.403174 
L 351.316412 327.246342 
L 350.172327 325.751343 
L 349.028243 323.93438 
L 347.312122 320.643585 
L 345.596005 316.728543 
L 343.879894 312.24851 
L 341.591753 305.487544 
L 339.30362 297.917224 
L 337.015497 289.602705 
L 334.727382 280.57344 
L 331.86725 268.282267 
L 329.007132 254.850772 
L 326.147028 240.269963 
L 323.286937 224.594572 
L 319.854847 204.560426 
L 314.134739 169.512462 
L 308.986688 138.471316 
L 306.126679 122.374008 
L 303.266683 107.546738 
L 300.978697 96.770758 
L 298.690719 87.049561 
L 296.40275 78.420346 
L 294.686778 72.665005 
L 292.970812 67.50951 
L 291.254851 62.930934 
L 289.538894 58.89899 
L 287.822942 55.377831 
L 286.106996 52.327778 
L 284.391054 49.706925 
L 282.675117 47.47256 
L 280.959185 45.582375 
L 279.243258 43.995456 
L 277.527335 42.673041 
L 275.811418 41.579072 
L 273.523536 40.419236 
L 271.235662 39.538017 
L 268.947797 38.876531 
L 266.087979 38.284897 
L 262.656214 37.822126 
L 258.080558 37.472937 
L 251.789089 37.259804 
L 240.922159 37.161136 
L 197.456405 37.14359 
L 74.51108 37.14358 
L 74.51108 37.14358 
" style="fill:none;stroke:#eb9973;stroke-linecap:square;"/>
   </g>
   <g id="line2d_14">
    <path clip-path="url(#p693d7a93b8)" d="M 645.990913 37.14358 
L 498.349535 37.252059 
L 488.050325 37.483958 
L 481.184283 37.855594 
L 476.034803 38.361132 
L 472.029682 38.970022 
L 468.596743 39.705945 
L 465.735975 40.518002 
L 462.875221 41.558254 
L 460.586627 42.589897 
L 458.298042 43.831855 
L 456.009466 45.318116 
L 453.720899 47.085778 
L 451.43234 49.174709 
L 449.14379 51.626995 
L 446.855248 54.48616 
L 444.566716 57.796118 
L 442.278192 61.599849 
L 439.989676 65.937801 
L 437.70117 70.846001 
L 435.412672 76.353952 
L 433.124183 82.482333 
L 430.835702 89.240621 
L 428.547231 96.624753 
L 425.686653 106.703275 
L 422.826089 117.650305 
L 419.393431 131.75715 
L 414.816583 151.708154 
L 405.662992 191.986901 
L 402.230431 205.989911 
L 399.369979 216.867753 
L 396.50954 226.976892 
L 393.649115 236.374698 
L 390.216623 246.933706 
L 378.775123 281.440224 
L 369.05002 312.19789 
L 366.761783 318.294917 
L 365.045611 322.195213 
L 363.901499 324.405493 
L 362.75739 326.265319 
L 361.613282 327.746679 
L 360.469177 328.827076 
L 359.325074 329.490354 
L 358.180973 329.72733 
L 357.036874 329.536229 
L 355.892777 328.922886 
L 354.748683 327.90071 
L 353.60459 326.490405 
L 352.4605 324.719457 
L 351.316412 322.621403 
L 349.600285 318.946702 
L 347.312122 313.293484 
L 343.879894 303.956548 
L 339.875653 293.148187 
L 337.587527 287.511786 
L 335.29941 282.427579 
L 333.011301 277.892862 
L 330.151178 272.828725 
L 323.858955 262.062852 
L 321.57089 257.457076 
L 319.854847 253.517497 
L 318.138809 249.072781 
L 316.422775 244.064872 
L 314.706747 238.458579 
L 312.418717 230.036028 
L 310.130695 220.567422 
L 307.842683 210.153671 
L 304.982679 196.046601 
L 300.978697 174.966176 
L 293.5428 135.432198 
L 290.110879 118.555184 
L 287.25096 105.66319 
L 284.963034 96.245056 
L 282.675117 87.67912 
L 280.387209 79.985292 
L 278.099309 73.157393 
L 275.811418 67.167641 
L 274.095506 63.198992 
L 272.379598 59.653348 
L 270.663695 56.504297 
L 268.947797 53.72354 
L 267.231905 51.281743 
L 265.516017 49.149279 
L 263.800133 47.29685 
L 262.084255 45.696005 
L 259.796425 43.906097 
L 257.508604 42.455165 
L 255.220791 41.288801 
L 252.932987 40.358687 
L 250.073245 39.464594 
L 247.213516 38.804762 
L 243.781859 38.243922 
L 239.778284 37.815165 
L 234.630869 37.493156 
L 227.195793 37.275912 
L 214.613565 37.168207 
L 172.293456 37.143723 
L 74.51108 37.14358 
L 74.51108 37.14358 
" style="fill:none;stroke:#e88366;stroke-linecap:square;"/>
   </g>
   <g id="line2d_15">
    <path clip-path="url(#p693d7a93b8)" d="M 645.990913 37.14358 
L 525.814956 37.25445 
L 513.226482 37.488074 
L 505.215772 37.849614 
L 499.493902 38.311601 
L 494.916445 38.875133 
L 490.911199 39.56695 
L 487.478152 40.353275 
L 484.045124 41.364546 
L 481.184283 42.416412 
L 478.323455 43.694943 
L 475.462641 45.238627 
L 473.174 46.692885 
L 470.885367 48.367396 
L 468.596743 50.286965 
L 466.308127 52.477495 
L 464.019521 54.965636 
L 461.730923 57.778333 
L 459.442334 60.942257 
L 457.153753 64.483125 
L 454.865181 68.424894 
L 452.576618 72.788845 
L 450.288064 77.592569 
L 447.999518 82.848863 
L 445.138848 90.06542 
L 442.278192 97.996639 
L 439.417549 106.618913 
L 436.55692 115.884482 
L 433.124183 127.745544 
L 428.547231 144.509176 
L 417.105002 187.150802 
L 413.672376 198.836265 
L 410.81187 207.792043 
L 407.951377 215.920166 
L 405.662992 221.796682 
L 403.374616 227.132161 
L 401.086249 231.98029 
L 398.225802 237.49907 
L 389.072463 254.421025 
L 386.78415 259.391266 
L 384.495846 264.960127 
L 382.20755 271.197891 
L 379.919263 278.097845 
L 377.058917 287.497724 
L 369.62208 312.61455 
L 367.9059 317.603892 
L 366.189725 321.926817 
L 365.045611 324.357782 
L 363.901499 326.3772 
L 362.75739 327.947686 
L 361.613282 329.038535 
L 360.469177 329.626686 
L 359.897125 329.72733 
L 359.325074 329.697505 
L 358.753023 329.536792 
L 358.180973 329.24536 
L 357.036874 328.273959 
L 355.892777 326.796436 
L 354.748683 324.835188 
L 353.60459 322.421449 
L 351.888456 318.040649 
L 350.172327 312.894704 
L 347.884162 305.175602 
L 340.447685 279.034297 
L 338.731589 273.902281 
L 337.015497 269.404657 
L 335.29941 265.613277 
L 334.155354 263.494405 
L 333.011301 261.701903 
L 331.86725 260.226384 
L 330.723202 259.051133 
L 329.579155 258.15279 
L 328.43511 257.50214 
L 327.291068 257.064999 
L 325.575009 256.72519 
L 323.858955 256.638396 
L 319.854847 256.584236 
L 318.138809 256.274909 
L 316.994786 255.874716 
L 315.850765 255.279438 
L 314.706747 254.459089 
L 313.562731 253.387788 
L 312.418717 252.043973 
L 311.274705 250.41052 
L 310.130695 248.474776 
L 308.414685 244.987542 
L 306.69868 240.792839 
L 304.982679 235.901139 
L 303.266683 230.341192 
L 300.978697 221.967555 
L 298.690719 212.628058 
L 295.830759 199.858835 
L 292.398824 183.427293 
L 281.531162 130.492295 
L 278.671283 117.829307 
L 275.811418 106.114309 
L 272.951567 95.462852 
L 270.663695 87.74949 
L 268.375833 80.764204 
L 266.087979 74.497927 
L 263.800133 68.92746 
L 261.512297 64.018484 
L 259.224469 59.728455 
L 256.93665 56.009289 
L 254.648839 52.809757 
L 252.361038 50.077529 
L 250.073245 47.760866 
L 247.78546 45.809938 
L 245.497685 44.177805 
L 243.209918 42.821072 
L 240.922159 41.70028 
L 238.062474 40.577588 
L 235.202802 39.708398 
L 231.771213 38.929065 
L 227.767718 38.294461 
L 223.192328 37.825613 
L 217.473139 37.488357 
L 209.466365 37.272237 
L 195.740716 37.169146 
L 145.416015 37.143699 
L 74.51108 37.14358 
L 74.51108 37.14358 
" style="fill:none;stroke:#e46c5d;stroke-linecap:square;"/>
   </g>
   <g id="line2d_16">
    <path clip-path="url(#p693d7a93b8)" d="M 645.990913 37.14358 
L 549.275996 37.252646 
L 533.82594 37.497122 
L 524.670538 37.848209 
L 517.804078 38.326014 
L 512.654285 38.884893 
L 508.076728 39.593259 
L 504.071394 40.433341 
L 500.638272 41.362101 
L 497.205169 42.527064 
L 494.344265 43.711351 
L 491.483375 45.120191 
L 488.622499 46.783739 
L 485.761635 48.733282 
L 482.900786 51.000863 
L 480.03995 53.618895 
L 477.751291 55.987413 
L 475.462641 58.617301 
L 473.174 61.524497 
L 470.885367 64.724266 
L 468.024588 69.157052 
L 465.163823 74.09398 
L 462.303072 79.555022 
L 459.442334 85.553635 
L 456.581609 92.094816 
L 453.720899 99.173016 
L 450.288064 108.34909 
L 446.855248 118.211901 
L 442.850322 130.459017 
L 437.70117 147.037615 
L 427.402998 180.488436 
L 423.970313 190.850521 
L 421.109758 198.881269 
L 418.249216 206.232304 
L 415.960792 211.561069 
L 413.672376 216.368016 
L 411.38397 220.64746 
L 409.095572 224.419577 
L 406.807183 227.733682 
L 404.518803 230.670297 
L 401.65834 233.983789 
L 396.50954 239.846013 
L 394.221199 242.844327 
L 392.504949 245.414707 
L 390.788703 248.341856 
L 389.072463 251.688423 
L 387.356227 255.50282 
L 385.639997 259.814838 
L 383.923771 264.631584 
L 381.635478 271.802088 
L 379.347193 279.707903 
L 375.914782 292.441299 
L 371.910328 307.247696 
L 369.62208 314.864085 
L 367.9059 319.826613 
L 366.761783 322.675373 
L 365.617668 325.097825 
L 364.473555 327.04918 
L 363.329444 328.490804 
L 362.185336 329.391281 
L 361.613282 329.630975 
L 361.041229 329.72733 
L 360.469177 329.678829 
L 359.897125 329.484548 
L 359.325074 329.144161 
L 358.180973 328.026837 
L 357.036874 326.336548 
L 355.892777 324.092772 
L 354.748683 321.324503 
L 353.60459 318.069741 
L 351.888456 312.378675 
L 350.172327 305.884745 
L 347.884162 296.350143 
L 341.019719 267.007384 
L 339.30362 260.655599 
L 337.587527 255.048207 
L 335.871438 250.298074 
L 334.727382 247.644328 
L 333.583328 245.414399 
L 332.439276 243.610432 
L 331.295226 242.226596 
L 330.151178 241.249568 
L 329.007132 240.65913 
L 327.863089 240.428884 
L 326.719048 240.527035 
L 325.575009 240.91724 
L 324.430972 241.559485 
L 322.714921 242.901264 
L 320.998875 244.561798 
L 315.278756 250.437427 
L 313.562731 251.755241 
L 312.418717 252.405466 
L 311.274705 252.838337 
L 310.130695 253.028221 
L 308.986688 252.953253 
L 307.842683 252.595384 
L 306.69868 251.940358 
L 305.554679 250.977647 
L 304.41068 249.700345 
L 303.266683 248.105014 
L 302.122689 246.191514 
L 300.406701 242.731942 
L 298.690719 238.585616 
L 296.974741 233.787051 
L 295.258768 228.38156 
L 292.970812 220.324798 
L 290.682865 211.432916 
L 287.822942 199.3897 
L 283.819074 181.385406 
L 274.095506 136.980213 
L 270.663695 122.485548 
L 267.803868 111.249047 
L 264.944055 100.892317 
L 262.084255 91.477597 
L 259.796425 84.641723 
L 257.508604 78.422752 
L 255.220791 72.807409 
L 252.932987 67.773621 
L 250.645192 63.292581 
L 248.357406 59.330667 
L 246.069628 55.851143 
L 243.781859 52.815614 
L 241.494098 50.185212 
L 239.206346 47.92152 
L 236.918603 45.987251 
L 234.630869 44.346725 
L 232.343143 42.966185 
L 230.055426 41.81398 
L 227.195793 40.650199 
L 224.336172 39.744891 
L 220.904646 38.934121 
L 217.473139 38.358077 
L 213.469739 37.90485 
L 208.322549 37.556888 
L 201.459699 37.329993 
L 189.449898 37.198255 
L 156.281219 37.145956 
L 74.51108 37.14358 
L 74.51108 37.14358 
" style="fill:none;stroke:#db565d;stroke-linecap:square;"/>
   </g>
   <g id="line2d_17">
    <path clip-path="url(#p693d7a93b8)" d="M 645.990913 37.14358 
L 566.44319 37.249245 
L 550.992693 37.499071 
L 540.692582 37.866899 
L 533.253723 38.331002 
L 526.959375 38.942185 
L 521.809504 39.666245 
L 517.231877 40.54736 
L 513.226482 41.560965 
L 509.793308 42.657144 
L 506.360153 44.008886 
L 503.499206 45.365056 
L 500.638272 46.961395 
L 497.777352 48.82802 
L 494.916445 50.994771 
L 492.055552 53.4902 
L 489.194673 56.340579 
L 486.333807 59.569056 
L 483.472955 63.195 
L 480.612116 67.233602 
L 477.751291 71.695679 
L 474.89048 76.587618 
L 472.029682 81.911335 
L 469.168898 87.664118 
L 465.735975 95.122544 
L 462.303072 103.163 
L 458.870188 111.746724 
L 454.865181 122.371587 
L 450.288064 135.162538 
L 442.850322 156.748137 
L 436.55692 174.79296 
L 432.552062 185.624129 
L 429.119348 194.228919 
L 426.258768 200.785618 
L 423.970313 205.566836 
L 421.681868 209.899503 
L 419.393431 213.763821 
L 417.105002 217.155738 
L 414.816583 220.089854 
L 412.528172 222.602073 
L 410.23977 224.751739 
L 407.37928 227.059503 
L 399.942068 232.75603 
L 398.225802 234.414415 
L 396.50954 236.353844 
L 394.793283 238.645238 
L 393.077031 241.353976 
L 391.360785 244.536377 
L 389.644542 248.235997 
L 387.928305 252.479886 
L 386.212073 257.275011 
L 383.923771 264.494157 
L 381.635478 272.550657 
L 378.775123 283.489332 
L 372.482391 307.967 
L 370.194141 315.708747 
L 368.47796 320.663044 
L 367.333841 323.458455 
L 366.189725 325.790246 
L 365.045611 327.61465 
L 363.901499 328.894116 
L 363.329444 329.319706 
L 362.75739 329.598288 
L 362.185336 329.72733 
L 361.613282 329.704847 
L 361.041229 329.52942 
L 360.469177 329.200207 
L 359.897125 328.716957 
L 358.753023 327.290336 
L 357.608923 325.259573 
L 356.464825 322.644288 
L 355.32073 319.473472 
L 354.176636 315.785036 
L 352.4605 309.384898 
L 350.744369 302.111771 
L 348.456202 291.431691 
L 341.019719 255.507452 
L 338.731589 246.080492 
L 337.015497 239.984304 
L 335.29941 234.852073 
L 334.155354 232.003577 
L 333.011301 229.62792 
L 331.86725 227.728584 
L 330.723202 226.301483 
L 329.579155 225.335411 
L 328.43511 224.812598 
L 327.291068 224.70935 
L 326.147028 224.99676 
L 325.00299 225.641455 
L 323.858955 226.606374 
L 322.714921 227.851546 
L 320.998875 230.15226 
L 319.282833 232.841191 
L 315.850765 238.789877 
L 312.990724 243.655486 
L 311.274705 246.268818 
L 309.558691 248.517863 
L 307.842683 250.309673 
L 306.69868 251.211409 
L 305.554679 251.856355 
L 304.41068 252.228723 
L 303.266683 252.315809 
L 302.122689 252.107916 
L 300.978697 251.598248 
L 299.834707 250.782786 
L 298.690719 249.660145 
L 297.546733 248.231426 
L 296.40275 246.500045 
L 294.686778 243.348214 
L 292.970812 239.555333 
L 291.254851 235.156993 
L 289.538894 230.196081 
L 287.25096 222.791527 
L 284.963034 214.602259 
L 282.103139 203.472211 
L 278.671283 189.172635 
L 271.80763 159.270239 
L 266.659941 137.317464 
L 263.228173 123.518328 
L 259.796425 110.654582 
L 256.93665 100.75973 
L 254.076888 91.673725 
L 251.21714 83.424313 
L 248.929351 77.431757 
L 246.641571 71.973485 
L 244.3538 67.038162 
L 242.066037 62.609432 
L 239.778284 58.66676 
L 237.490538 55.186118 
L 235.202802 52.140547 
L 232.915074 49.50066 
L 230.627355 47.235123 
L 228.339644 45.311163 
L 226.051943 43.69514 
L 223.76425 42.353155 
L 221.476565 41.251711 
L 218.616972 40.163894 
L 215.757393 39.341827 
L 212.325915 38.630747 
L 208.894457 38.145016 
L 204.31921 37.737887 
L 198.600201 37.463548 
L 189.449898 37.276877 
L 170.577839 37.169852 
L 112.249763 37.143583 
L 74.51108 37.14358 
L 74.51108 37.14358 
" style="fill:none;stroke:#cc4664;stroke-linecap:square;"/>
   </g>
   <g id="line2d_18">
    <path clip-path="url(#p693d7a93b8)" d="M 645.990913 37.14358 
L 576.171484 37.251493 
L 562.437467 37.520765 
L 552.137161 37.940449 
L 544.125933 38.483106 
L 537.831472 39.117715 
L 532.681507 39.835177 
L 528.103797 40.677395 
L 524.09833 41.619956 
L 520.09289 42.805898 
L 516.659676 44.061154 
L 513.226482 45.582793 
L 510.365502 47.089574 
L 507.504536 48.845924 
L 504.643583 50.883525 
L 501.782644 53.234006 
L 498.921718 55.927518 
L 496.060806 58.99114 
L 493.199908 62.447256 
L 490.339023 66.312105 
L 487.478152 70.594662 
L 484.617294 75.296016 
L 481.75645 80.409308 
L 478.323455 87.068362 
L 474.89048 94.262513 
L 471.457524 101.943613 
L 467.452434 111.444073 
L 462.875221 122.885366 
L 456.581609 139.313776 
L 444.566716 170.879935 
L 440.561804 180.731747 
L 437.129045 188.618684 
L 434.268426 194.689246 
L 431.407822 200.224091 
L 429.119348 204.224666 
L 426.830883 207.820234 
L 424.542426 210.997931 
L 422.253978 213.756883 
L 419.965539 216.110263 
L 417.677109 218.087205 
L 415.388687 219.734445 
L 413.100274 221.11754 
L 409.667671 222.888114 
L 405.662992 224.943946 
L 403.374616 226.373863 
L 401.65834 227.681589 
L 399.942068 229.26314 
L 398.225802 231.182623 
L 396.50954 233.500941 
L 394.793283 236.273178 
L 393.077031 239.545721 
L 391.360785 243.353205 
L 389.644542 247.715407 
L 387.928305 252.634228 
L 385.639997 260.0229 
L 383.351697 268.25679 
L 380.491334 279.446166 
L 373.62652 306.926103 
L 371.338265 314.887034 
L 369.62208 320.006748 
L 368.47796 322.914474 
L 367.333841 325.360364 
L 366.189725 327.300082 
L 365.045611 328.694822 
L 364.473555 329.177444 
L 363.901499 329.512247 
L 363.329444 329.69634 
L 362.75739 329.72733 
L 362.185336 329.603348 
L 361.613282 329.323061 
L 361.041229 328.88569 
L 359.897125 327.539387 
L 358.753023 325.569557 
L 357.608923 322.99052 
L 356.464825 319.825717 
L 355.32073 316.107414 
L 353.60459 309.583112 
L 351.888456 302.075221 
L 349.600285 290.885267 
L 346.168044 272.684335 
L 342.163787 251.610127 
L 339.875653 240.692278 
L 338.159557 233.386367 
L 336.443467 226.999085 
L 334.727382 221.636767 
L 333.583328 218.666494 
L 332.439276 216.193499 
L 331.295226 214.221153 
L 330.151178 212.745821 
L 329.007132 211.757298 
L 327.863089 211.239323 
L 326.719048 211.170181 
L 325.575009 211.523333 
L 324.430972 212.268098 
L 323.286937 213.370334 
L 322.142905 214.793132 
L 320.42686 217.442644 
L 318.710821 220.588207 
L 316.422775 225.312186 
L 308.986688 241.22719 
L 307.270681 244.330247 
L 305.554679 247.018915 
L 303.838681 249.221578 
L 302.694686 250.39062 
L 301.550693 251.30331 
L 300.406701 251.948034 
L 299.262712 252.315602 
L 298.118726 252.399156 
L 296.974741 252.194073 
L 295.830759 251.697862 
L 294.686778 250.910045 
L 293.5428 249.832044 
L 292.398824 248.467053 
L 291.254851 246.819919 
L 289.538894 243.834523 
L 287.822942 240.256224 
L 286.106996 236.11838 
L 284.391054 231.459483 
L 282.103139 224.511355 
L 279.815233 216.822959 
L 276.955362 206.349147 
L 273.523536 192.822783 
L 268.375833 171.398265 
L 259.796425 135.603327 
L 255.792744 119.919752 
L 252.361038 107.357567 
L 249.501298 97.629336 
L 246.641571 88.647025 
L 243.781859 80.460146 
L 241.494098 74.505292 
L 239.206346 69.088131 
L 236.918603 64.209071 
L 234.630869 59.860889 
L 232.343143 56.028827 
L 230.055426 52.690946 
L 227.767718 49.818788 
L 225.480019 47.378365 
L 223.192328 45.33141 
L 220.904646 43.636832 
L 218.616972 42.252252 
L 216.329308 41.135502 
L 214.041651 40.245985 
L 211.182094 39.396212 
L 208.322549 38.776384 
L 204.891114 38.257831 
L 200.315898 37.825957 
L 194.596926 37.531147 
L 185.446685 37.31718 
L 168.290357 37.183288 
L 127.117167 37.143733 
L 74.51108 37.14358 
L 74.51108 37.14358 
" style="fill:none;stroke:#b73d6b;stroke-linecap:square;"/>
   </g>
   <g id="line2d_19">
    <path clip-path="url(#p693d7a93b8)" d="M 645.990913 37.14358 
L 582.466346 37.249061 
L 570.448939 37.516737 
L 561.29298 37.938158 
L 553.28163 38.532738 
L 546.987073 39.204397 
L 541.264806 40.029775 
L 536.114812 41.007741 
L 531.537076 42.122543 
L 527.531586 43.339192 
L 524.09833 44.60252 
L 520.665094 46.110355 
L 517.804078 47.585766 
L 514.943077 49.2907 
L 512.082088 51.256103 
L 509.221114 53.514379 
L 506.360153 56.098269 
L 503.499206 59.039343 
L 500.638272 62.366148 
L 497.777352 66.102127 
L 494.916445 70.263509 
L 492.055552 74.857426 
L 489.194673 79.880504 
L 486.333807 85.318188 
L 482.900786 92.353973 
L 479.467785 99.886668 
L 475.462641 109.197039 
L 470.31321 121.772782 
L 460.586627 146.316985 
L 454.29304 161.916649 
L 449.715926 172.710859 
L 445.710981 181.554074 
L 442.278192 188.549196 
L 439.417549 193.884893 
L 436.55692 198.712493 
L 434.268426 202.177741 
L 431.979942 205.271721 
L 429.691465 207.985439 
L 427.402998 210.319319 
L 425.114539 212.284827 
L 422.826089 213.905953 
L 420.537648 215.220472 
L 418.249216 216.280879 
L 415.388687 217.353737 
L 409.095572 219.562144 
L 406.807183 220.661567 
L 405.090897 221.714305 
L 403.374616 223.025455 
L 401.65834 224.651485 
L 399.942068 226.647101 
L 398.225802 229.06341 
L 396.50954 231.94583 
L 394.793283 235.331796 
L 393.077031 239.248304 
L 391.360785 243.709378 
L 389.644542 248.713564 
L 387.356227 256.194504 
L 385.067921 264.503082 
L 382.20755 275.787185 
L 374.198584 308.104369 
L 372.482391 314.070688 
L 370.766203 319.305183 
L 369.62208 322.302386 
L 368.47796 324.849229 
L 367.333841 326.901578 
L 366.189725 328.420079 
L 365.045611 329.371056 
L 364.473555 329.624955 
L 363.901499 329.72733 
L 363.329444 329.675917 
L 362.75739 329.468941 
L 362.185336 329.105135 
L 361.613282 328.583745 
L 360.469177 327.067866 
L 359.325074 324.925994 
L 358.180973 322.171512 
L 357.036874 318.826442 
L 355.892777 314.921219 
L 354.176636 308.099224 
L 352.4605 300.265373 
L 350.172327 288.581558 
L 346.740082 269.474128 
L 342.163787 243.985732 
L 339.875653 232.430484 
L 338.159557 224.652624 
L 336.443467 217.798361 
L 334.727382 211.976349 
L 333.583328 208.705918 
L 332.439276 205.940084 
L 331.295226 203.684671 
L 330.151178 201.938902 
L 329.007132 200.695777 
L 327.863089 199.942542 
L 326.719048 199.66121 
L 325.575009 199.82913 
L 324.430972 200.41959 
L 323.286937 201.402433 
L 322.142905 202.744666 
L 320.998875 204.411072 
L 319.282833 207.437545 
L 317.566797 210.981701 
L 315.278756 216.287526 
L 311.274705 226.327048 
L 307.842683 234.746681 
L 305.554679 239.842195 
L 303.838681 243.251509 
L 302.122689 246.230902 
L 300.406701 248.723375 
L 299.262712 250.091219 
L 298.118726 251.210712 
L 296.974741 252.072675 
L 295.830759 252.669839 
L 294.686778 252.996762 
L 293.5428 253.049753 
L 292.398824 252.826785 
L 291.254851 252.327408 
L 290.110879 251.552659 
L 288.96691 250.504971 
L 287.822942 249.188078 
L 286.678977 247.606924 
L 284.963034 244.753234 
L 283.247095 241.34347 
L 281.531162 237.406721 
L 279.815233 232.975814 
L 277.527335 226.361613 
L 275.239447 219.024305 
L 272.379598 208.982745 
L 268.947797 195.912347 
L 264.944055 179.677801 
L 249.501298 115.858049 
L 246.069628 103.090381 
L 243.209918 93.218014 
L 240.350221 84.151147 
L 238.062474 77.530073 
L 235.774735 71.500802 
L 233.487005 66.077533 
L 231.199284 61.261505 
L 228.911571 57.041148 
L 226.623867 53.392937 
L 224.908095 51.012148 
L 223.192328 48.916705 
L 221.476565 47.086963 
L 219.760808 45.501769 
L 217.473139 43.73043 
L 215.185478 42.301749 
L 212.897827 41.164059 
L 210.610184 40.268709 
L 207.750642 39.423301 
L 204.891114 38.812681 
L 201.459699 38.304251 
L 196.884508 37.87831 
L 190.593678 37.557617 
L 180.871616 37.327281 
L 163.715419 37.182893 
L 125.401678 37.143746 
L 74.51108 37.14358 
L 74.51108 37.14358 
" style="fill:none;stroke:#a1386f;stroke-linecap:square;"/>
   </g>
   <g id="line2d_20">
    <path clip-path="url(#p693d7a93b8)" d="M 645.990913 37.14358 
L 586.472202 37.2496 
L 576.171484 37.496836 
L 568.159936 37.893093 
L 560.720737 38.487195 
L 554.426102 39.205317 
L 548.703764 40.073252 
L 543.553706 41.076009 
L 538.975914 42.190373 
L 534.970375 43.379836 
L 530.964862 44.814611 
L 527.531586 46.279055 
L 524.09833 48.000572 
L 521.237299 49.663133 
L 518.37628 51.562971 
L 515.515276 53.730625 
L 512.654285 56.198285 
L 509.793308 58.998804 
L 506.932344 62.164267 
L 504.071394 65.724117 
L 501.210457 69.702903 
L 498.349535 74.117806 
L 495.488625 78.976189 
L 492.62773 84.273493 
L 489.766848 89.991802 
L 486.333807 97.363865 
L 482.328618 106.564786 
L 477.751291 117.668179 
L 468.024588 142.081217 
L 462.303072 156.105693 
L 457.725897 166.748323 
L 453.720899 175.461771 
L 450.288064 182.381365 
L 447.427383 187.699476 
L 444.566716 192.56286 
L 441.706062 196.931016 
L 439.417549 200.04591 
L 437.129045 202.80929 
L 434.840549 205.214192 
L 432.552062 207.260924 
L 430.263584 208.958597 
L 427.975114 210.32654 
L 425.686653 211.395516 
L 423.398201 212.208636 
L 420.537648 212.951781 
L 411.38397 215.029816 
L 409.667671 215.720273 
L 407.951377 216.621634 
L 406.235087 217.783921 
L 404.518803 219.256733 
L 402.802523 221.088086 
L 401.086249 223.323084 
L 399.369979 226.002417 
L 397.653714 229.160681 
L 395.937454 232.824552 
L 394.221199 237.010828 
L 392.504949 241.72441 
L 390.216623 248.81162 
L 387.928305 256.752528 
L 385.067921 267.686672 
L 381.063406 284.165364 
L 376.486849 302.846537 
L 374.198584 311.26341 
L 372.482391 316.843493 
L 370.766203 321.608179 
L 369.62208 324.252482 
L 368.47796 326.41988 
L 367.333841 328.070956 
L 366.189725 329.171185 
L 365.617668 329.505476 
L 365.045611 329.691724 
L 364.473555 329.72733 
L 363.901499 329.610133 
L 363.329444 329.33843 
L 362.75739 328.91099 
L 361.613282 327.586398 
L 360.469177 325.636354 
L 359.325074 323.068969 
L 358.180973 319.900542 
L 357.036874 316.15546 
L 355.32073 309.529125 
L 353.60459 301.818955 
L 351.316412 290.154381 
L 348.456202 274.033905 
L 341.591753 234.373842 
L 339.30362 222.662275 
L 337.587527 214.824845 
L 335.871438 207.946108 
L 334.155354 202.12344 
L 333.011301 198.861189 
L 331.86725 196.107916 
L 330.723202 193.867894 
L 329.579155 192.139352 
L 328.43511 190.91485 
L 327.291068 190.181736 
L 326.147028 189.922632 
L 325.00299 190.115975 
L 323.858955 190.736559 
L 322.714921 191.756098 
L 321.57089 193.14378 
L 320.42686 194.8668 
L 318.710821 198.004822 
L 316.994786 201.7006 
L 314.706747 207.286691 
L 311.846711 214.931326 
L 305.554679 231.975184 
L 303.266683 237.556028 
L 300.978697 242.522431 
L 299.262712 245.759591 
L 297.546733 248.524685 
L 295.830759 250.778447 
L 294.686778 251.981251 
L 293.5428 252.935638 
L 292.398824 253.635872 
L 291.254851 254.07764 
L 290.110879 254.257987 
L 288.96691 254.175248 
L 287.822942 253.828977 
L 286.678977 253.219875 
L 285.535015 252.349725 
L 284.391054 251.221312 
L 283.247095 249.838357 
L 281.531162 247.296899 
L 279.815233 244.211949 
L 278.099309 240.605715 
L 276.38339 236.503383 
L 274.095506 230.310058 
L 271.80763 223.355424 
L 269.519763 215.7157 
L 266.659941 205.324937 
L 263.228173 191.838538 
L 259.224469 175.074651 
L 251.789089 142.631826 
L 246.641571 120.637695 
L 243.209918 106.834373 
L 240.350221 96.116705 
L 237.490538 86.270938 
L 235.202802 79.09891 
L 232.915074 72.596092 
L 230.627355 66.782567 
L 228.339644 61.659786 
L 226.051943 57.211495 
L 224.336172 54.299187 
L 222.620406 51.730139 
L 220.904646 49.482624 
L 219.18889 47.532446 
L 217.473139 45.853796 
L 215.757393 44.42007 
L 213.469739 42.843471 
L 211.182094 41.593864 
L 208.894457 40.614267 
L 206.606829 39.8534 
L 203.747307 39.142465 
L 200.315898 38.548329 
L 196.312612 38.095507 
L 191.165569 37.741989 
L 183.73103 37.464234 
L 171.721584 37.259114 
L 151.134519 37.156566 
L 74.51108 37.14358 
L 74.51108 37.14358 
" style="fill:none;stroke:#8b3271;stroke-linecap:square;"/>
   </g>
   <g id="line2d_21">
    <path clip-path="url(#p693d7a93b8)" d="M 645.990913 37.14358 
L 589.333544 37.249753 
L 579.605037 37.502526 
L 572.165697 37.909794 
L 565.870942 38.461463 
L 560.148495 39.165072 
L 554.426102 40.09478 
L 549.275996 41.159774 
L 544.69816 42.324573 
L 540.692582 43.546588 
L 536.687031 44.995887 
L 533.253723 46.452707 
L 529.820434 48.142517 
L 526.387165 50.103625 
L 523.526123 51.976318 
L 520.665094 54.095306 
L 517.804078 56.490545 
L 514.943077 59.193603 
L 512.082088 62.236752 
L 509.221114 65.651606 
L 506.360153 69.467277 
L 503.499206 73.708062 
L 500.638272 78.390797 
L 497.777352 83.522084 
L 494.916445 89.095737 
L 491.483375 96.337432 
L 488.050325 104.11896 
L 484.045124 113.747879 
L 478.323455 128.143794 
L 469.168898 151.205535 
L 464.591672 162.063744 
L 461.158775 169.698977 
L 457.725897 176.805521 
L 454.865181 182.273899 
L 452.004479 187.292753 
L 449.14379 191.831255 
L 446.855248 195.09781 
L 444.566716 198.027729 
L 442.278192 200.612006 
L 439.989676 202.845437 
L 437.70117 204.727914 
L 435.412672 206.265867 
L 433.124183 207.473752 
L 430.835702 208.37545 
L 428.547231 209.005458 
L 426.258768 209.409754 
L 423.398201 209.687032 
L 415.960792 210.255972 
L 413.672376 210.748631 
L 411.956071 211.32964 
L 410.23977 212.142845 
L 408.523474 213.233825 
L 406.807183 214.647028 
L 405.090897 216.424827 
L 403.374616 218.606478 
L 401.65834 221.226992 
L 399.942068 224.315894 
L 398.225802 227.89588 
L 396.50954 231.981371 
L 394.793283 236.576984 
L 392.504949 243.484484 
L 390.216623 251.232898 
L 387.928305 259.722858 
L 385.067921 271.142818 
L 376.486849 306.146985 
L 374.198584 314.119156 
L 372.482391 319.27421 
L 370.766203 323.548815 
L 369.62208 325.837011 
L 368.47796 327.629831 
L 367.333841 328.892301 
L 366.761783 329.315046 
L 366.189725 329.594348 
L 365.617668 329.72733 
L 365.045611 329.711505 
L 364.473555 329.544793 
L 363.901499 329.225541 
L 363.329444 328.752532 
L 362.185336 327.34264 
L 361.041229 325.314582 
L 359.897125 322.675423 
L 358.753023 319.439929 
L 357.608923 315.630515 
L 355.892777 308.907571 
L 354.176636 301.092381 
L 351.888456 289.257104 
L 349.028243 272.839674 
L 341.019719 225.547015 
L 338.731589 213.82531 
L 337.015497 206.027219 
L 335.29941 199.213609 
L 333.583328 193.470474 
L 332.439276 190.26454 
L 331.295226 187.567598 
L 330.151178 185.382236 
L 329.007132 183.705508 
L 327.863089 182.529313 
L 326.719048 181.840832 
L 325.575009 181.623001 
L 324.430972 181.855002 
L 323.286937 182.512776 
L 322.142905 183.569532 
L 320.998875 184.996248 
L 319.854847 186.762152 
L 318.138809 189.976611 
L 316.422775 193.770486 
L 314.134739 199.535272 
L 311.274705 207.506759 
L 302.694686 232.078753 
L 300.406701 237.849696 
L 298.118726 242.99006 
L 296.40275 246.360735 
L 294.686778 249.270392 
L 292.970812 251.685497 
L 291.826837 253.007245 
L 290.682865 254.090642 
L 289.538894 254.930413 
L 288.394926 255.522396 
L 287.25096 255.863488 
L 286.106996 255.951585 
L 284.963034 255.785528 
L 283.819074 255.365048 
L 282.675117 254.690705 
L 281.531162 253.763834 
L 280.387209 252.586495 
L 279.243258 251.161416 
L 277.527335 248.56677 
L 275.811418 245.436061 
L 274.095506 241.785572 
L 272.379598 237.633938 
L 270.663695 233.001955 
L 268.375833 226.118566 
L 266.087979 218.481913 
L 263.228173 207.978874 
L 260.368382 196.549684 
L 256.93665 181.848486 
L 252.361038 161.126738 
L 243.209918 119.373137 
L 239.778284 104.900768 
L 236.918603 93.778308 
L 234.630869 85.617691 
L 232.343143 78.180575 
L 230.055426 71.504664 
L 227.767718 65.603403 
L 225.480019 60.46705 
L 223.76425 57.099123 
L 222.048486 54.125333 
L 220.332727 51.521918 
L 218.616972 49.26179 
L 216.901223 47.31563 
L 215.185478 45.652936 
L 213.469739 44.242982 
L 211.182094 42.70433 
L 208.894457 41.494102 
L 206.606829 40.550987 
L 204.31921 39.821161 
L 201.459699 39.139769 
L 198.028303 38.567759 
L 194.025032 38.125884 
L 188.30612 37.74224 
L 180.299735 37.451794 
L 167.718488 37.244793 
L 146.559711 37.152517 
L 74.51108 37.14358 
L 74.51108 37.14358 
" style="fill:none;stroke:#752d6f;stroke-linecap:square;"/>
   </g>
   <g id="line2d_22">
    <path clip-path="url(#p693d7a93b8)" d="M 645.990913 37.14358 
L 591.622627 37.247386 
L 582.466346 37.492823 
L 575.599227 37.884714 
L 569.304436 38.475032 
L 563.581957 39.250048 
L 558.431772 40.171404 
L 553.28163 41.332492 
L 548.703764 42.594179 
L 544.69816 43.903515 
L 540.692582 45.436807 
L 536.687031 47.233241 
L 533.253723 49.018465 
L 529.820434 51.067277 
L 526.959375 53.00482 
L 524.09833 55.179052 
L 521.237299 57.617968 
L 518.37628 60.351396 
L 515.515276 63.410371 
L 512.654285 66.826113 
L 509.793308 70.628547 
L 506.932344 74.844292 
L 504.071394 79.494181 
L 501.210457 84.59041 
L 498.349535 90.133588 
L 495.488625 96.110014 
L 492.055552 103.810077 
L 488.050325 113.411058 
L 482.900786 126.427108 
L 472.601841 152.704268 
L 468.596743 162.270779 
L 465.163823 169.927495 
L 462.303072 175.850297 
L 459.442334 181.311266 
L 456.581609 186.27825 
L 453.720899 190.727039 
L 451.43234 193.900681 
L 449.14379 196.724268 
L 446.855248 199.193243 
L 444.566716 201.30572 
L 442.278192 203.063285 
L 439.989676 204.472113 
L 437.70117 205.544314 
L 435.412672 206.299389 
L 433.124183 206.765669 
L 430.835702 206.981569 
L 427.975114 206.975736 
L 423.970313 206.678475 
L 419.965539 206.431933 
L 417.677109 206.505777 
L 415.960792 206.741304 
L 414.244479 207.180336 
L 412.528172 207.867038 
L 410.81187 208.84469 
L 409.095572 210.154838 
L 407.37928 211.836431 
L 405.662992 213.924932 
L 403.946709 216.451409 
L 402.230431 219.44159 
L 400.514158 222.914889 
L 398.79789 226.883367 
L 397.081627 231.350652 
L 394.793283 238.071148 
L 392.504949 245.622274 
L 390.216623 253.920935 
L 387.356227 265.148865 
L 382.20755 286.610663 
L 378.775123 300.583753 
L 376.486849 309.116302 
L 374.77065 314.852698 
L 373.054455 319.852208 
L 371.910328 322.702914 
L 370.766203 325.11933 
L 369.62208 327.062912 
L 368.47796 328.498572 
L 367.333841 329.395398 
L 366.761783 329.633397 
L 366.189725 329.72733 
L 365.617668 329.6748 
L 365.045611 329.47379 
L 364.473555 329.122675 
L 363.901499 328.620238 
L 362.75739 327.158638 
L 361.613282 325.087829 
L 360.469177 322.413769 
L 359.325074 319.149658 
L 358.180973 315.315934 
L 356.464825 308.559395 
L 354.748683 300.705888 
L 353.032545 291.907455 
L 350.744369 279.017361 
L 347.312122 258.181256 
L 342.163787 226.9662 
L 339.875653 214.356646 
L 337.587527 203.10406 
L 335.871438 195.742128 
L 334.155354 189.411985 
L 332.439276 184.178622 
L 331.295226 181.317762 
L 330.151178 178.964286 
L 329.007132 177.116506 
L 327.863089 175.767853 
L 326.719048 174.907276 
L 325.575009 174.519679 
L 324.430972 174.586383 
L 323.286937 175.085593 
L 322.142905 175.992871 
L 320.998875 177.2816 
L 319.854847 178.92343 
L 318.710821 180.888701 
L 316.994786 184.376024 
L 315.278756 188.417036 
L 312.990724 194.484198 
L 310.130695 202.817183 
L 300.406701 231.898619 
L 298.118726 237.887986 
L 295.830759 243.260053 
L 294.114789 246.821109 
L 292.398824 249.939738 
L 290.682865 252.584826 
L 288.96691 254.730473 
L 287.822942 255.872855 
L 286.678977 256.778703 
L 285.535015 257.443741 
L 284.391054 257.864484 
L 283.247095 258.038189 
L 282.103139 257.96281 
L 280.959185 257.636954 
L 279.815233 257.059841 
L 278.671283 256.231262 
L 277.527335 255.151553 
L 276.38339 253.821557 
L 275.239447 252.24261 
L 273.523536 249.411485 
L 271.80763 246.032455 
L 270.091729 242.115957 
L 268.375833 237.674919 
L 266.659941 232.724975 
L 264.372094 225.366118 
L 262.084255 217.189822 
L 259.796425 208.26235 
L 256.93665 196.170781 
L 253.504937 180.55177 
L 248.929351 158.524512 
L 241.494098 122.609927 
L 238.062474 107.208916 
L 235.202802 95.40838 
L 232.915074 86.787053 
L 230.627355 78.968847 
L 228.339644 71.991816 
L 226.051943 65.864904 
L 224.336172 61.817728 
L 222.620406 58.222823 
L 220.904646 55.057709 
L 219.18889 52.295003 
L 217.473139 49.903743 
L 215.757393 47.850689 
L 214.041651 46.101547 
L 212.325915 44.622058 
L 210.610184 43.378925 
L 208.322549 42.03479 
L 206.034924 40.986476 
L 203.747307 40.174032 
L 200.887798 39.413504 
L 197.456405 38.772055 
L 193.453138 38.272847 
L 188.30612 37.868598 
L 180.871616 37.534513 
L 170.005968 37.294704 
L 152.850081 37.167671 
L 105.959818 37.143584 
L 74.51108 37.14358 
L 74.51108 37.14358 
" style="fill:none;stroke:#602969;stroke-linecap:square;"/>
   </g>
   <g id="line2d_23">
    <path clip-path="url(#p693d7a93b8)" d="M 118.573115 316.733772 
L 122.211933 303.780745 
L 125.85075 292.622717 
L 129.489568 285.551228 
L 136.767203 270.173062 
L 140.40602 246.646928 
L 144.044838 228.506427 
L 147.683656 221.353412 
L 151.322473 208.949482 
L 154.961291 199.306919 
L 158.600108 192.032084 
L 162.238926 183.391917 
L 165.877743 172.05426 
L 169.516561 158.680596 
L 173.155378 153.551085 
L 176.794196 143.561949 
L 180.433013 130.263059 
L 184.071831 129.644158 
L 187.710648 121.876551 
L 194.988284 99.540957 
L 198.627101 94.331512 
L 202.265919 89.636226 
L 205.904736 84.038074 
L 209.543554 73.895388 
L 213.182371 62.010743 
L 216.821189 54.639286 
L 220.460006 49.095021 
L 224.098824 45.79809 
L 227.737641 50.347944 
L 231.376459 42.84548 
L 235.015276 37.428407 
L 238.654094 38.166983 
L 242.292912 37.14358 
L 245.931729 37.969658 
L 249.570547 41.928515 
L 253.209364 48.036032 
L 256.848182 53.734726 
L 260.486999 58.100739 
L 264.125817 74.399312 
L 267.764634 94.000344 
L 271.403452 115.772521 
L 275.042269 136.826186 
L 278.681087 162.594368 
L 282.319904 189.61888 
L 285.958722 206.85878 
L 293.236357 244.100809 
L 296.875175 258.439552 
L 300.513992 269.840383 
L 304.15281 278.606859 
L 307.791627 285.409885 
L 311.430445 274.009973 
L 315.069262 263.083887 
L 318.70808 260.774776 
L 322.346897 258.133785 
L 325.985715 256.253903 
L 329.624532 256.393038 
L 333.26335 260.312401 
L 336.902168 267.73507 
L 340.540985 279.929879 
L 344.179803 288.816597 
L 347.81862 301.396651 
L 351.457438 316.676799 
L 355.096255 328.384553 
L 358.735073 333.186306 
L 362.37389 333.65267 
L 366.012708 330.780816 
L 369.651525 324.764983 
L 373.290343 317.143076 
L 376.929161 309.814961 
L 380.567978 298.246649 
L 384.206796 284.483242 
L 387.845613 265.273071 
L 391.484431 260.79501 
L 395.123248 257.972875 
L 398.762066 253.19142 
L 402.400883 256.385476 
L 406.039701 255.905122 
L 409.678518 249.293559 
L 413.317336 250.119498 
L 416.956153 249.339561 
L 420.594971 247.091522 
L 424.233789 237.222679 
L 427.872606 223.928116 
L 431.511424 207.333645 
L 435.150241 202.836904 
L 438.789059 194.933394 
L 442.427876 184.87379 
L 446.066694 166.246842 
L 449.705511 157.055838 
L 453.344329 149.943289 
L 456.983146 139.065501 
L 460.621964 133.375337 
L 464.260781 128.282497 
L 467.899599 121.527621 
L 471.538417 119.662327 
L 475.177234 117.27271 
L 482.454869 113.638536 
L 486.093687 111.20369 
L 489.732504 107.138496 
L 493.371322 103.736957 
L 497.010139 105.170536 
L 500.648957 112.773787 
L 504.287774 103.895847 
L 507.926592 102.054506 
L 511.565409 104.580396 
L 515.204227 114.532785 
L 518.843045 114.212928 
L 522.481862 111.068707 
L 526.12068 115.227194 
L 529.759497 118.643611 
L 533.398315 121.900115 
L 537.037132 126.689553 
L 540.67595 132.139251 
L 544.314767 136.724411 
L 547.953585 137.70985 
L 551.592402 142.103817 
L 555.23122 145.723631 
L 558.870037 147.894388 
L 562.508855 144.678385 
L 566.147673 146.64824 
L 569.78649 153.729879 
L 573.425308 146.874434 
L 577.064125 147.799312 
L 580.702943 153.494049 
L 584.34176 158.064538 
L 587.980578 161.098961 
L 591.619395 163.009764 
L 595.258213 165.138129 
L 598.89703 165.226115 
L 602.535848 165.061645 
L 606.174665 168.309856 
L 609.813483 169.747916 
L 613.452301 170.428954 
L 617.091118 173.052937 
L 620.729936 171.992695 
L 624.368753 172.709099 
L 628.007571 176.486075 
L 631.646388 177.868393 
L 635.285206 177.720727 
L 638.924023 176.383032 
L 642.562841 180.76713 
L 646.201658 182.140906 
L 649.840476 182.046416 
L 653.479293 188.642364 
L 657.118111 191.381962 
L 660.756929 192.595534 
L 664.395746 194.381626 
L 668.034564 196.971071 
L 671.673381 198.335707 
L 675.312199 194.151825 
L 678.951016 195.559708 
L 682.589834 199.318662 
L 686.228651 209.731259 
L 693.506286 204.730677 
L 697.145104 202.709969 
L 700.783921 204.635324 
L 704.422739 204.232452 
L 708.061557 201.90262 
L 711.700374 201.269264 
L 715.339192 205.036131 
L 718.978009 211.264791 
L 722.616827 214.958471 
L 726.255644 216.086395 
L 729.894462 215.205135 
L 733.533279 208.450408 
L 737.172097 210.016275 
L 740.810914 210.85564 
L 744.449732 206.466706 
L 748.08855 206.546572 
L 755.366185 206.037101 
L 759.005002 204.625306 
L 762.64382 204.159098 
L 766.282637 203.534241 
L 769.921455 201.444136 
L 773.560272 196.519998 
L 777.19909 190.935193 
L 780.837907 192.852037 
L 784.476725 189.514958 
L 788.115542 185.43599 
L 791.75436 185.907373 
L 795.393178 179.592913 
L 799.031995 173.773538 
L 802.670813 175.603874 
L 806.30963 168.563284 
L 809.948448 162.336405 
L 813.587265 160.01352 
L 817.226083 159.60534 
L 820.8649 155.795507 
L 824.503718 147.932451 
L 828.142535 143.969791 
L 831.781353 139.347621 
L 835.42017 133.956652 
L 835.42017 133.956652 
" style="fill:none;stroke:#000000;stroke-linecap:square;stroke-width:1.5;"/>
   </g>
   <g id="patch_3">
    <path d="M 36.465625 348.478125 
L 36.465625 22.318125 
" style="fill:none;stroke:#000000;stroke-linecap:square;stroke-linejoin:miter;stroke-width:0.8;"/>
   </g>
   <g id="patch_4">
    <path d="M 873.465625 348.478125 
L 873.465625 22.318125 
" style="fill:none;stroke:#000000;stroke-linecap:square;stroke-linejoin:miter;stroke-width:0.8;"/>
   </g>
   <g id="patch_5">
    <path d="M 36.465625 348.478125 
L 873.465625 348.478125 
" style="fill:none;stroke:#000000;stroke-linecap:square;stroke-linejoin:miter;stroke-width:0.8;"/>
   </g>
   <g id="patch_6">
    <path d="M 36.465625 22.318125 
L 873.465625 22.318125 
" style="fill:none;stroke:#000000;stroke-linecap:square;stroke-linejoin:miter;stroke-width:0.8;"/>
   </g>
   <g id="text_13">
    <!-- ground_B =  0.00336 Delta_B = -0.17,  zeta = -0.49   Star Name =   HD 185418 -->
    <g transform="translate(214.47625 16.318125)scale(0.12 -0.12)">
     <defs>
      <path d="M 2906 1791 
Q 2906 2416 2648 2759 
Q 2391 3103 1925 3103 
Q 1463 3103 1205 2759 
Q 947 2416 947 1791 
Q 947 1169 1205 825 
Q 1463 481 1925 481 
Q 2391 481 2648 825 
Q 2906 1169 2906 1791 
z
M 3481 434 
Q 3481 -459 3084 -895 
Q 2688 -1331 1869 -1331 
Q 1566 -1331 1297 -1286 
Q 1028 -1241 775 -1147 
L 775 -588 
Q 1028 -725 1275 -790 
Q 1522 -856 1778 -856 
Q 2344 -856 2625 -561 
Q 2906 -266 2906 331 
L 2906 616 
Q 2728 306 2450 153 
Q 2172 0 1784 0 
Q 1141 0 747 490 
Q 353 981 353 1791 
Q 353 2603 747 3093 
Q 1141 3584 1784 3584 
Q 2172 3584 2450 3431 
Q 2728 3278 2906 2969 
L 2906 3500 
L 3481 3500 
L 3481 434 
z
" id="DejaVuSans-67" transform="scale(0.015625)"/>
      <path d="M 2631 2963 
Q 2534 3019 2420 3045 
Q 2306 3072 2169 3072 
Q 1681 3072 1420 2755 
Q 1159 2438 1159 1844 
L 1159 0 
L 581 0 
L 581 3500 
L 1159 3500 
L 1159 2956 
Q 1341 3275 1631 3429 
Q 1922 3584 2338 3584 
Q 2397 3584 2469 3576 
Q 2541 3569 2628 3553 
L 2631 2963 
z
" id="DejaVuSans-72" transform="scale(0.015625)"/>
      <path d="M 1959 3097 
Q 1497 3097 1228 2736 
Q 959 2375 959 1747 
Q 959 1119 1226 758 
Q 1494 397 1959 397 
Q 2419 397 2687 759 
Q 2956 1122 2956 1747 
Q 2956 2369 2687 2733 
Q 2419 3097 1959 3097 
z
M 1959 3584 
Q 2709 3584 3137 3096 
Q 3566 2609 3566 1747 
Q 3566 888 3137 398 
Q 2709 -91 1959 -91 
Q 1206 -91 779 398 
Q 353 888 353 1747 
Q 353 2609 779 3096 
Q 1206 3584 1959 3584 
z
" id="DejaVuSans-6f" transform="scale(0.015625)"/>
      <path d="M 544 1381 
L 544 3500 
L 1119 3500 
L 1119 1403 
Q 1119 906 1312 657 
Q 1506 409 1894 409 
Q 2359 409 2629 706 
Q 2900 1003 2900 1516 
L 2900 3500 
L 3475 3500 
L 3475 0 
L 2900 0 
L 2900 538 
Q 2691 219 2414 64 
Q 2138 -91 1772 -91 
Q 1169 -91 856 284 
Q 544 659 544 1381 
z
M 1991 3584 
L 1991 3584 
z
" id="DejaVuSans-75" transform="scale(0.015625)"/>
      <path d="M 3513 2113 
L 3513 0 
L 2938 0 
L 2938 2094 
Q 2938 2591 2744 2837 
Q 2550 3084 2163 3084 
Q 1697 3084 1428 2787 
Q 1159 2491 1159 1978 
L 1159 0 
L 581 0 
L 581 3500 
L 1159 3500 
L 1159 2956 
Q 1366 3272 1645 3428 
Q 1925 3584 2291 3584 
Q 2894 3584 3203 3211 
Q 3513 2838 3513 2113 
z
" id="DejaVuSans-6e" transform="scale(0.015625)"/>
      <path d="M 2906 2969 
L 2906 4863 
L 3481 4863 
L 3481 0 
L 2906 0 
L 2906 525 
Q 2725 213 2448 61 
Q 2172 -91 1784 -91 
Q 1150 -91 751 415 
Q 353 922 353 1747 
Q 353 2572 751 3078 
Q 1150 3584 1784 3584 
Q 2172 3584 2448 3432 
Q 2725 3281 2906 2969 
z
M 947 1747 
Q 947 1113 1208 752 
Q 1469 391 1925 391 
Q 2381 391 2643 752 
Q 2906 1113 2906 1747 
Q 2906 2381 2643 2742 
Q 2381 3103 1925 3103 
Q 1469 3103 1208 2742 
Q 947 2381 947 1747 
z
" id="DejaVuSans-64" transform="scale(0.015625)"/>
      <path d="M 3263 -1063 
L 3263 -1509 
L -63 -1509 
L -63 -1063 
L 3263 -1063 
z
" id="DejaVuSans-5f" transform="scale(0.015625)"/>
      <path d="M 1259 2228 
L 1259 519 
L 2272 519 
Q 2781 519 3026 730 
Q 3272 941 3272 1375 
Q 3272 1813 3026 2020 
Q 2781 2228 2272 2228 
L 1259 2228 
z
M 1259 4147 
L 1259 2741 
L 2194 2741 
Q 2656 2741 2882 2914 
Q 3109 3088 3109 3444 
Q 3109 3797 2882 3972 
Q 2656 4147 2194 4147 
L 1259 4147 
z
M 628 4666 
L 2241 4666 
Q 2963 4666 3353 4366 
Q 3744 4066 3744 3513 
Q 3744 3084 3544 2831 
Q 3344 2578 2956 2516 
Q 3422 2416 3680 2098 
Q 3938 1781 3938 1306 
Q 3938 681 3513 340 
Q 3088 0 2303 0 
L 628 0 
L 628 4666 
z
" id="DejaVuSans-42" transform="scale(0.015625)"/>
      <path id="DejaVuSans-20" transform="scale(0.015625)"/>
      <path d="M 678 2906 
L 4684 2906 
L 4684 2381 
L 678 2381 
L 678 2906 
z
M 678 1631 
L 4684 1631 
L 4684 1100 
L 678 1100 
L 678 1631 
z
" id="DejaVuSans-3d" transform="scale(0.015625)"/>
      <path d="M 1259 4147 
L 1259 519 
L 2022 519 
Q 2988 519 3436 956 
Q 3884 1394 3884 2338 
Q 3884 3275 3436 3711 
Q 2988 4147 2022 4147 
L 1259 4147 
z
M 628 4666 
L 1925 4666 
Q 3281 4666 3915 4102 
Q 4550 3538 4550 2338 
Q 4550 1131 3912 565 
Q 3275 0 1925 0 
L 628 0 
L 628 4666 
z
" id="DejaVuSans-44" transform="scale(0.015625)"/>
      <path d="M 3597 1894 
L 3597 1613 
L 953 1613 
Q 991 1019 1311 708 
Q 1631 397 2203 397 
Q 2534 397 2845 478 
Q 3156 559 3463 722 
L 3463 178 
Q 3153 47 2828 -22 
Q 2503 -91 2169 -91 
Q 1331 -91 842 396 
Q 353 884 353 1716 
Q 353 2575 817 3079 
Q 1281 3584 2069 3584 
Q 2775 3584 3186 3129 
Q 3597 2675 3597 1894 
z
M 3022 2063 
Q 3016 2534 2758 2815 
Q 2500 3097 2075 3097 
Q 1594 3097 1305 2825 
Q 1016 2553 972 2059 
L 3022 2063 
z
" id="DejaVuSans-65" transform="scale(0.015625)"/>
      <path d="M 603 4863 
L 1178 4863 
L 1178 0 
L 603 0 
L 603 4863 
z
" id="DejaVuSans-6c" transform="scale(0.015625)"/>
      <path d="M 1172 4494 
L 1172 3500 
L 2356 3500 
L 2356 3053 
L 1172 3053 
L 1172 1153 
Q 1172 725 1289 603 
Q 1406 481 1766 481 
L 2356 481 
L 2356 0 
L 1766 0 
Q 1100 0 847 248 
Q 594 497 594 1153 
L 594 3053 
L 172 3053 
L 172 3500 
L 594 3500 
L 594 4494 
L 1172 4494 
z
" id="DejaVuSans-74" transform="scale(0.015625)"/>
      <path d="M 2194 1759 
Q 1497 1759 1228 1600 
Q 959 1441 959 1056 
Q 959 750 1161 570 
Q 1363 391 1709 391 
Q 2188 391 2477 730 
Q 2766 1069 2766 1631 
L 2766 1759 
L 2194 1759 
z
M 3341 1997 
L 3341 0 
L 2766 0 
L 2766 531 
Q 2569 213 2275 61 
Q 1981 -91 1556 -91 
Q 1019 -91 701 211 
Q 384 513 384 1019 
Q 384 1609 779 1909 
Q 1175 2209 1959 2209 
L 2766 2209 
L 2766 2266 
Q 2766 2663 2505 2880 
Q 2244 3097 1772 3097 
Q 1472 3097 1187 3025 
Q 903 2953 641 2809 
L 641 3341 
Q 956 3463 1253 3523 
Q 1550 3584 1831 3584 
Q 2591 3584 2966 3190 
Q 3341 2797 3341 1997 
z
" id="DejaVuSans-61" transform="scale(0.015625)"/>
      <path d="M 313 2009 
L 1997 2009 
L 1997 1497 
L 313 1497 
L 313 2009 
z
" id="DejaVuSans-2d" transform="scale(0.015625)"/>
      <path d="M 525 4666 
L 3525 4666 
L 3525 4397 
L 1831 0 
L 1172 0 
L 2766 4134 
L 525 4134 
L 525 4666 
z
" id="DejaVuSans-37" transform="scale(0.015625)"/>
      <path d="M 750 794 
L 1409 794 
L 1409 256 
L 897 -744 
L 494 -744 
L 750 256 
L 750 794 
z
" id="DejaVuSans-2c" transform="scale(0.015625)"/>
      <path d="M 353 3500 
L 3084 3500 
L 3084 2975 
L 922 459 
L 3084 459 
L 3084 0 
L 275 0 
L 275 525 
L 2438 3041 
L 353 3041 
L 353 3500 
z
" id="DejaVuSans-7a" transform="scale(0.015625)"/>
      <path d="M 3425 4513 
L 3425 3897 
Q 3066 4069 2747 4153 
Q 2428 4238 2131 4238 
Q 1616 4238 1336 4038 
Q 1056 3838 1056 3469 
Q 1056 3159 1242 3001 
Q 1428 2844 1947 2747 
L 2328 2669 
Q 3034 2534 3370 2195 
Q 3706 1856 3706 1288 
Q 3706 609 3251 259 
Q 2797 -91 1919 -91 
Q 1588 -91 1214 -16 
Q 841 59 441 206 
L 441 856 
Q 825 641 1194 531 
Q 1563 422 1919 422 
Q 2459 422 2753 634 
Q 3047 847 3047 1241 
Q 3047 1584 2836 1778 
Q 2625 1972 2144 2069 
L 1759 2144 
Q 1053 2284 737 2584 
Q 422 2884 422 3419 
Q 422 4038 858 4394 
Q 1294 4750 2059 4750 
Q 2388 4750 2728 4690 
Q 3069 4631 3425 4513 
z
" id="DejaVuSans-53" transform="scale(0.015625)"/>
      <path d="M 628 4666 
L 1478 4666 
L 3547 763 
L 3547 4666 
L 4159 4666 
L 4159 0 
L 3309 0 
L 1241 3903 
L 1241 0 
L 628 0 
L 628 4666 
z
" id="DejaVuSans-4e" transform="scale(0.015625)"/>
      <path d="M 3328 2828 
Q 3544 3216 3844 3400 
Q 4144 3584 4550 3584 
Q 5097 3584 5394 3201 
Q 5691 2819 5691 2113 
L 5691 0 
L 5113 0 
L 5113 2094 
Q 5113 2597 4934 2840 
Q 4756 3084 4391 3084 
Q 3944 3084 3684 2787 
Q 3425 2491 3425 1978 
L 3425 0 
L 2847 0 
L 2847 2094 
Q 2847 2600 2669 2842 
Q 2491 3084 2119 3084 
Q 1678 3084 1418 2786 
Q 1159 2488 1159 1978 
L 1159 0 
L 581 0 
L 581 3500 
L 1159 3500 
L 1159 2956 
Q 1356 3278 1631 3431 
Q 1906 3584 2284 3584 
Q 2666 3584 2933 3390 
Q 3200 3197 3328 2828 
z
" id="DejaVuSans-6d" transform="scale(0.015625)"/>
      <path d="M 628 4666 
L 1259 4666 
L 1259 2753 
L 3553 2753 
L 3553 4666 
L 4184 4666 
L 4184 0 
L 3553 0 
L 3553 2222 
L 1259 2222 
L 1259 0 
L 628 0 
L 628 4666 
z
" id="DejaVuSans-48" transform="scale(0.015625)"/>
     </defs>
     <use xlink:href="#DejaVuSans-67"/>
     <use x="63.476562" xlink:href="#DejaVuSans-72"/>
     <use x="102.339844" xlink:href="#DejaVuSans-6f"/>
     <use x="163.521484" xlink:href="#DejaVuSans-75"/>
     <use x="226.900391" xlink:href="#DejaVuSans-6e"/>
     <use x="290.279297" xlink:href="#DejaVuSans-64"/>
     <use x="353.755859" xlink:href="#DejaVuSans-5f"/>
     <use x="403.755859" xlink:href="#DejaVuSans-42"/>
     <use x="472.359375" xlink:href="#DejaVuSans-20"/>
     <use x="504.146484" xlink:href="#DejaVuSans-3d"/>
     <use x="587.935547" xlink:href="#DejaVuSans-20"/>
     <use x="619.722656" xlink:href="#DejaVuSans-20"/>
     <use x="651.509766" xlink:href="#DejaVuSans-30"/>
     <use x="715.132812" xlink:href="#DejaVuSans-2e"/>
     <use x="746.919922" xlink:href="#DejaVuSans-30"/>
     <use x="810.542969" xlink:href="#DejaVuSans-30"/>
     <use x="874.166016" xlink:href="#DejaVuSans-33"/>
     <use x="937.789062" xlink:href="#DejaVuSans-33"/>
     <use x="1001.412109" xlink:href="#DejaVuSans-36"/>
     <use x="1065.035156" xlink:href="#DejaVuSans-20"/>
     <use x="1096.822266" xlink:href="#DejaVuSans-44"/>
     <use x="1173.824219" xlink:href="#DejaVuSans-65"/>
     <use x="1235.347656" xlink:href="#DejaVuSans-6c"/>
     <use x="1263.130859" xlink:href="#DejaVuSans-74"/>
     <use x="1302.339844" xlink:href="#DejaVuSans-61"/>
     <use x="1363.619141" xlink:href="#DejaVuSans-5f"/>
     <use x="1413.619141" xlink:href="#DejaVuSans-42"/>
     <use x="1482.222656" xlink:href="#DejaVuSans-20"/>
     <use x="1514.009766" xlink:href="#DejaVuSans-3d"/>
     <use x="1597.798828" xlink:href="#DejaVuSans-20"/>
     <use x="1629.585938" xlink:href="#DejaVuSans-2d"/>
     <use x="1665.669922" xlink:href="#DejaVuSans-30"/>
     <use x="1729.292969" xlink:href="#DejaVuSans-2e"/>
     <use x="1761.080078" xlink:href="#DejaVuSans-31"/>
     <use x="1824.703125" xlink:href="#DejaVuSans-37"/>
     <use x="1888.326172" xlink:href="#DejaVuSans-2c"/>
     <use x="1920.113281" xlink:href="#DejaVuSans-20"/>
     <use x="1951.900391" xlink:href="#DejaVuSans-20"/>
     <use x="1983.6875" xlink:href="#DejaVuSans-7a"/>
     <use x="2036.177734" xlink:href="#DejaVuSans-65"/>
     <use x="2097.701172" xlink:href="#DejaVuSans-74"/>
     <use x="2136.910156" xlink:href="#DejaVuSans-61"/>
     <use x="2198.189453" xlink:href="#DejaVuSans-20"/>
     <use x="2229.976562" xlink:href="#DejaVuSans-3d"/>
     <use x="2313.765625" xlink:href="#DejaVuSans-20"/>
     <use x="2345.552734" xlink:href="#DejaVuSans-2d"/>
     <use x="2381.636719" xlink:href="#DejaVuSans-30"/>
     <use x="2445.259766" xlink:href="#DejaVuSans-2e"/>
     <use x="2477.046875" xlink:href="#DejaVuSans-34"/>
     <use x="2540.669922" xlink:href="#DejaVuSans-39"/>
     <use x="2604.292969" xlink:href="#DejaVuSans-20"/>
     <use x="2636.080078" xlink:href="#DejaVuSans-20"/>
     <use x="2667.867188" xlink:href="#DejaVuSans-20"/>
     <use x="2699.654297" xlink:href="#DejaVuSans-53"/>
     <use x="2763.130859" xlink:href="#DejaVuSans-74"/>
     <use x="2802.339844" xlink:href="#DejaVuSans-61"/>
     <use x="2863.619141" xlink:href="#DejaVuSans-72"/>
     <use x="2904.732422" xlink:href="#DejaVuSans-20"/>
     <use x="2936.519531" xlink:href="#DejaVuSans-4e"/>
     <use x="3011.324219" xlink:href="#DejaVuSans-61"/>
     <use x="3072.603516" xlink:href="#DejaVuSans-6d"/>
     <use x="3170.015625" xlink:href="#DejaVuSans-65"/>
     <use x="3231.539062" xlink:href="#DejaVuSans-20"/>
     <use x="3263.326172" xlink:href="#DejaVuSans-3d"/>
     <use x="3347.115234" xlink:href="#DejaVuSans-20"/>
     <use x="3378.902344" xlink:href="#DejaVuSans-20"/>
     <use x="3410.689453" xlink:href="#DejaVuSans-20"/>
     <use x="3442.476562" xlink:href="#DejaVuSans-48"/>
     <use x="3517.671875" xlink:href="#DejaVuSans-44"/>
     <use x="3594.673828" xlink:href="#DejaVuSans-20"/>
     <use x="3626.460938" xlink:href="#DejaVuSans-31"/>
     <use x="3690.083984" xlink:href="#DejaVuSans-38"/>
     <use x="3753.707031" xlink:href="#DejaVuSans-35"/>
     <use x="3817.330078" xlink:href="#DejaVuSans-34"/>
     <use x="3880.953125" xlink:href="#DejaVuSans-31"/>
     <use x="3944.576172" xlink:href="#DejaVuSans-38"/>
    </g>
   </g>
   <g id="legend_1">
    <g id="patch_7">
     <path d="M 43.465625 267.627813 
L 117.007813 267.627813 
Q 119.007813 267.627813 119.007813 265.627813 
L 119.007813 105.168438 
Q 119.007813 103.168438 117.007813 103.168438 
L 43.465625 103.168438 
Q 41.465625 103.168438 41.465625 105.168438 
L 41.465625 265.627813 
Q 41.465625 267.627813 43.465625 267.627813 
z
" style="fill:#ffffff;opacity:0.8;stroke:#cccccc;stroke-linejoin:miter;"/>
    </g>
    <g id="text_14">
     <!-- Calculated -->
     <g transform="translate(53.710156 114.766875)scale(0.1 -0.1)">
      <defs>
       <path d="M 4122 4306 
L 4122 3641 
Q 3803 3938 3442 4084 
Q 3081 4231 2675 4231 
Q 1875 4231 1450 3742 
Q 1025 3253 1025 2328 
Q 1025 1406 1450 917 
Q 1875 428 2675 428 
Q 3081 428 3442 575 
Q 3803 722 4122 1019 
L 4122 359 
Q 3791 134 3420 21 
Q 3050 -91 2638 -91 
Q 1578 -91 968 557 
Q 359 1206 359 2328 
Q 359 3453 968 4101 
Q 1578 4750 2638 4750 
Q 3056 4750 3426 4639 
Q 3797 4528 4122 4306 
z
" id="DejaVuSans-43" transform="scale(0.015625)"/>
       <path d="M 3122 3366 
L 3122 2828 
Q 2878 2963 2633 3030 
Q 2388 3097 2138 3097 
Q 1578 3097 1268 2742 
Q 959 2388 959 1747 
Q 959 1106 1268 751 
Q 1578 397 2138 397 
Q 2388 397 2633 464 
Q 2878 531 3122 666 
L 3122 134 
Q 2881 22 2623 -34 
Q 2366 -91 2075 -91 
Q 1284 -91 818 406 
Q 353 903 353 1747 
Q 353 2603 823 3093 
Q 1294 3584 2113 3584 
Q 2378 3584 2631 3529 
Q 2884 3475 3122 3366 
z
" id="DejaVuSans-63" transform="scale(0.015625)"/>
      </defs>
      <use xlink:href="#DejaVuSans-43"/>
      <use x="69.824219" xlink:href="#DejaVuSans-61"/>
      <use x="131.103516" xlink:href="#DejaVuSans-6c"/>
      <use x="158.886719" xlink:href="#DejaVuSans-63"/>
      <use x="213.867188" xlink:href="#DejaVuSans-75"/>
      <use x="277.246094" xlink:href="#DejaVuSans-6c"/>
      <use x="305.029297" xlink:href="#DejaVuSans-61"/>
      <use x="366.308594" xlink:href="#DejaVuSans-74"/>
      <use x="405.517578" xlink:href="#DejaVuSans-65"/>
      <use x="467.041016" xlink:href="#DejaVuSans-64"/>
     </g>
    </g>
    <g id="line2d_24">
     <path d="M 45.465625 125.945 
L 65.465625 125.945 
" style="fill:none;stroke:#eb9973;stroke-linecap:square;"/>
    </g>
    <g id="line2d_25"/>
    <g id="text_15">
     <!-- 10.0  K -->
     <g transform="translate(73.465625 129.445)scale(0.1 -0.1)">
      <defs>
       <path d="M 628 4666 
L 1259 4666 
L 1259 2694 
L 3353 4666 
L 4166 4666 
L 1850 2491 
L 4331 0 
L 3500 0 
L 1259 2247 
L 1259 0 
L 628 0 
L 628 4666 
z
" id="DejaVuSans-4b" transform="scale(0.015625)"/>
      </defs>
      <use xlink:href="#DejaVuSans-31"/>
      <use x="63.623047" xlink:href="#DejaVuSans-30"/>
      <use x="127.246094" xlink:href="#DejaVuSans-2e"/>
      <use x="159.033203" xlink:href="#DejaVuSans-30"/>
      <use x="222.65625" xlink:href="#DejaVuSans-20"/>
      <use x="254.443359" xlink:href="#DejaVuSans-20"/>
      <use x="286.230469" xlink:href="#DejaVuSans-4b"/>
     </g>
    </g>
    <g id="line2d_26">
     <path d="M 45.465625 140.623125 
L 65.465625 140.623125 
" style="fill:none;stroke:#e88366;stroke-linecap:square;"/>
    </g>
    <g id="line2d_27"/>
    <g id="text_16">
     <!-- 20.0  K -->
     <g transform="translate(73.465625 144.123125)scale(0.1 -0.1)">
      <use xlink:href="#DejaVuSans-32"/>
      <use x="63.623047" xlink:href="#DejaVuSans-30"/>
      <use x="127.246094" xlink:href="#DejaVuSans-2e"/>
      <use x="159.033203" xlink:href="#DejaVuSans-30"/>
      <use x="222.65625" xlink:href="#DejaVuSans-20"/>
      <use x="254.443359" xlink:href="#DejaVuSans-20"/>
      <use x="286.230469" xlink:href="#DejaVuSans-4b"/>
     </g>
    </g>
    <g id="line2d_28">
     <path d="M 45.465625 155.30125 
L 65.465625 155.30125 
" style="fill:none;stroke:#e46c5d;stroke-linecap:square;"/>
    </g>
    <g id="line2d_29"/>
    <g id="text_17">
     <!-- 30.0  K -->
     <g transform="translate(73.465625 158.80125)scale(0.1 -0.1)">
      <use xlink:href="#DejaVuSans-33"/>
      <use x="63.623047" xlink:href="#DejaVuSans-30"/>
      <use x="127.246094" xlink:href="#DejaVuSans-2e"/>
      <use x="159.033203" xlink:href="#DejaVuSans-30"/>
      <use x="222.65625" xlink:href="#DejaVuSans-20"/>
      <use x="254.443359" xlink:href="#DejaVuSans-20"/>
      <use x="286.230469" xlink:href="#DejaVuSans-4b"/>
     </g>
    </g>
    <g id="line2d_30">
     <path d="M 45.465625 169.979375 
L 65.465625 169.979375 
" style="fill:none;stroke:#db565d;stroke-linecap:square;"/>
    </g>
    <g id="line2d_31"/>
    <g id="text_18">
     <!-- 40.0  K -->
     <g transform="translate(73.465625 173.479375)scale(0.1 -0.1)">
      <use xlink:href="#DejaVuSans-34"/>
      <use x="63.623047" xlink:href="#DejaVuSans-30"/>
      <use x="127.246094" xlink:href="#DejaVuSans-2e"/>
      <use x="159.033203" xlink:href="#DejaVuSans-30"/>
      <use x="222.65625" xlink:href="#DejaVuSans-20"/>
      <use x="254.443359" xlink:href="#DejaVuSans-20"/>
      <use x="286.230469" xlink:href="#DejaVuSans-4b"/>
     </g>
    </g>
    <g id="line2d_32">
     <path d="M 45.465625 184.6575 
L 65.465625 184.6575 
" style="fill:none;stroke:#cc4664;stroke-linecap:square;"/>
    </g>
    <g id="line2d_33"/>
    <g id="text_19">
     <!-- 50.0  K -->
     <g transform="translate(73.465625 188.1575)scale(0.1 -0.1)">
      <use xlink:href="#DejaVuSans-35"/>
      <use x="63.623047" xlink:href="#DejaVuSans-30"/>
      <use x="127.246094" xlink:href="#DejaVuSans-2e"/>
      <use x="159.033203" xlink:href="#DejaVuSans-30"/>
      <use x="222.65625" xlink:href="#DejaVuSans-20"/>
      <use x="254.443359" xlink:href="#DejaVuSans-20"/>
      <use x="286.230469" xlink:href="#DejaVuSans-4b"/>
     </g>
    </g>
    <g id="line2d_34">
     <path d="M 45.465625 199.335625 
L 65.465625 199.335625 
" style="fill:none;stroke:#b73d6b;stroke-linecap:square;"/>
    </g>
    <g id="line2d_35"/>
    <g id="text_20">
     <!-- 60.0  K -->
     <g transform="translate(73.465625 202.835625)scale(0.1 -0.1)">
      <use xlink:href="#DejaVuSans-36"/>
      <use x="63.623047" xlink:href="#DejaVuSans-30"/>
      <use x="127.246094" xlink:href="#DejaVuSans-2e"/>
      <use x="159.033203" xlink:href="#DejaVuSans-30"/>
      <use x="222.65625" xlink:href="#DejaVuSans-20"/>
      <use x="254.443359" xlink:href="#DejaVuSans-20"/>
      <use x="286.230469" xlink:href="#DejaVuSans-4b"/>
     </g>
    </g>
    <g id="line2d_36">
     <path d="M 45.465625 214.01375 
L 65.465625 214.01375 
" style="fill:none;stroke:#a1386f;stroke-linecap:square;"/>
    </g>
    <g id="line2d_37"/>
    <g id="text_21">
     <!-- 70.0  K -->
     <g transform="translate(73.465625 217.51375)scale(0.1 -0.1)">
      <use xlink:href="#DejaVuSans-37"/>
      <use x="63.623047" xlink:href="#DejaVuSans-30"/>
      <use x="127.246094" xlink:href="#DejaVuSans-2e"/>
      <use x="159.033203" xlink:href="#DejaVuSans-30"/>
      <use x="222.65625" xlink:href="#DejaVuSans-20"/>
      <use x="254.443359" xlink:href="#DejaVuSans-20"/>
      <use x="286.230469" xlink:href="#DejaVuSans-4b"/>
     </g>
    </g>
    <g id="line2d_38">
     <path d="M 45.465625 228.691875 
L 65.465625 228.691875 
" style="fill:none;stroke:#8b3271;stroke-linecap:square;"/>
    </g>
    <g id="line2d_39"/>
    <g id="text_22">
     <!-- 80.0  K -->
     <g transform="translate(73.465625 232.191875)scale(0.1 -0.1)">
      <use xlink:href="#DejaVuSans-38"/>
      <use x="63.623047" xlink:href="#DejaVuSans-30"/>
      <use x="127.246094" xlink:href="#DejaVuSans-2e"/>
      <use x="159.033203" xlink:href="#DejaVuSans-30"/>
      <use x="222.65625" xlink:href="#DejaVuSans-20"/>
      <use x="254.443359" xlink:href="#DejaVuSans-20"/>
      <use x="286.230469" xlink:href="#DejaVuSans-4b"/>
     </g>
    </g>
    <g id="line2d_40">
     <path d="M 45.465625 243.37 
L 65.465625 243.37 
" style="fill:none;stroke:#752d6f;stroke-linecap:square;"/>
    </g>
    <g id="line2d_41"/>
    <g id="text_23">
     <!-- 90.0  K -->
     <g transform="translate(73.465625 246.87)scale(0.1 -0.1)">
      <use xlink:href="#DejaVuSans-39"/>
      <use x="63.623047" xlink:href="#DejaVuSans-30"/>
      <use x="127.246094" xlink:href="#DejaVuSans-2e"/>
      <use x="159.033203" xlink:href="#DejaVuSans-30"/>
      <use x="222.65625" xlink:href="#DejaVuSans-20"/>
      <use x="254.443359" xlink:href="#DejaVuSans-20"/>
      <use x="286.230469" xlink:href="#DejaVuSans-4b"/>
     </g>
    </g>
    <g id="line2d_42">
     <path d="M 45.465625 258.048125 
L 65.465625 258.048125 
" style="fill:none;stroke:#602969;stroke-linecap:square;"/>
    </g>
    <g id="line2d_43"/>
    <g id="text_24">
     <!-- 100.0  K -->
     <g transform="translate(73.465625 261.548125)scale(0.1 -0.1)">
      <use xlink:href="#DejaVuSans-31"/>
      <use x="63.623047" xlink:href="#DejaVuSans-30"/>
      <use x="127.246094" xlink:href="#DejaVuSans-30"/>
      <use x="190.869141" xlink:href="#DejaVuSans-2e"/>
      <use x="222.65625" xlink:href="#DejaVuSans-30"/>
      <use x="286.279297" xlink:href="#DejaVuSans-20"/>
      <use x="318.066406" xlink:href="#DejaVuSans-20"/>
      <use x="349.853516" xlink:href="#DejaVuSans-4b"/>
     </g>
    </g>
   </g>
  </g>
 </g>
 <defs>
  <clipPath id="p693d7a93b8">
   <rect height="326.16" width="837" x="36.465625" y="22.318125"/>
  </clipPath>
 </defs>
</svg>
