<?xml version="1.0" encoding="utf-8" standalone="no"?>
<!DOCTYPE svg PUBLIC "-//W3C//DTD SVG 1.1//EN"
  "http://www.w3.org/Graphics/SVG/1.1/DTD/svg11.dtd">
<svg height="386.034375pt" version="1.1" viewBox="0 0 894.34375 386.034375" width="894.34375pt" xmlns="http://www.w3.org/2000/svg" xmlns:xlink="http://www.w3.org/1999/xlink">
 <metadata>
  <rdf:RDF xmlns:cc="http://creativecommons.org/ns#" xmlns:dc="http://purl.org/dc/elements/1.1/" xmlns:rdf="http://www.w3.org/1999/02/22-rdf-syntax-ns#">
   <cc:Work>
    <dc:type rdf:resource="http://purl.org/dc/dcmitype/StillImage"/>
    <dc:date>2022-10-26T23:34:45.783378</dc:date>
    <dc:format>image/svg+xml</dc:format>
    <dc:creator>
     <cc:Agent>
      <dc:title>Matplotlib v3.4.3, https://matplotlib.org/</dc:title>
     </cc:Agent>
    </dc:creator>
   </cc:Work>
  </rdf:RDF>
 </metadata>
 <defs>
  <style type="text/css">*{stroke-linecap:butt;stroke-linejoin:round;}</style>
 </defs>
 <g id="figure_1">
  <g id="patch_1">
   <path d="M 0 386.034375 
L 894.34375 386.034375 
L 894.34375 0 
L 0 0 
z
" style="fill:#ffffff;"/>
  </g>
  <g id="axes_1">
   <g id="patch_2">
    <path d="M 50.14375 348.478125 
L 887.14375 348.478125 
L 887.14375 22.318125 
L 50.14375 22.318125 
z
" style="fill:#ffffff;"/>
   </g>
   <g id="matplotlib.axis_1">
    <g id="xtick_1">
     <g id="line2d_1">
      <defs>
       <path d="M 0 0 
L 0 3.5 
" id="m6e699077ce" style="stroke:#000000;stroke-width:0.8;"/>
      </defs>
      <g>
       <use style="stroke:#000000;stroke-width:0.8;" x="201.578347" xlink:href="#m6e699077ce" y="348.478125"/>
      </g>
     </g>
     <g id="text_1">
      <!-- 5796 -->
      <g transform="translate(188.853347 363.076562)scale(0.1 -0.1)">
       <defs>
        <path d="M 691 4666 
L 3169 4666 
L 3169 4134 
L 1269 4134 
L 1269 2991 
Q 1406 3038 1543 3061 
Q 1681 3084 1819 3084 
Q 2600 3084 3056 2656 
Q 3513 2228 3513 1497 
Q 3513 744 3044 326 
Q 2575 -91 1722 -91 
Q 1428 -91 1123 -41 
Q 819 9 494 109 
L 494 744 
Q 775 591 1075 516 
Q 1375 441 1709 441 
Q 2250 441 2565 725 
Q 2881 1009 2881 1497 
Q 2881 1984 2565 2268 
Q 2250 2553 1709 2553 
Q 1456 2553 1204 2497 
Q 953 2441 691 2322 
L 691 4666 
z
" id="DejaVuSans-35" transform="scale(0.015625)"/>
        <path d="M 525 4666 
L 3525 4666 
L 3525 4397 
L 1831 0 
L 1172 0 
L 2766 4134 
L 525 4134 
L 525 4666 
z
" id="DejaVuSans-37" transform="scale(0.015625)"/>
        <path d="M 703 97 
L 703 672 
Q 941 559 1184 500 
Q 1428 441 1663 441 
Q 2288 441 2617 861 
Q 2947 1281 2994 2138 
Q 2813 1869 2534 1725 
Q 2256 1581 1919 1581 
Q 1219 1581 811 2004 
Q 403 2428 403 3163 
Q 403 3881 828 4315 
Q 1253 4750 1959 4750 
Q 2769 4750 3195 4129 
Q 3622 3509 3622 2328 
Q 3622 1225 3098 567 
Q 2575 -91 1691 -91 
Q 1453 -91 1209 -44 
Q 966 3 703 97 
z
M 1959 2075 
Q 2384 2075 2632 2365 
Q 2881 2656 2881 3163 
Q 2881 3666 2632 3958 
Q 2384 4250 1959 4250 
Q 1534 4250 1286 3958 
Q 1038 3666 1038 3163 
Q 1038 2656 1286 2365 
Q 1534 2075 1959 2075 
z
" id="DejaVuSans-39" transform="scale(0.015625)"/>
        <path d="M 2113 2584 
Q 1688 2584 1439 2293 
Q 1191 2003 1191 1497 
Q 1191 994 1439 701 
Q 1688 409 2113 409 
Q 2538 409 2786 701 
Q 3034 994 3034 1497 
Q 3034 2003 2786 2293 
Q 2538 2584 2113 2584 
z
M 3366 4563 
L 3366 3988 
Q 3128 4100 2886 4159 
Q 2644 4219 2406 4219 
Q 1781 4219 1451 3797 
Q 1122 3375 1075 2522 
Q 1259 2794 1537 2939 
Q 1816 3084 2150 3084 
Q 2853 3084 3261 2657 
Q 3669 2231 3669 1497 
Q 3669 778 3244 343 
Q 2819 -91 2113 -91 
Q 1303 -91 875 529 
Q 447 1150 447 2328 
Q 447 3434 972 4092 
Q 1497 4750 2381 4750 
Q 2619 4750 2861 4703 
Q 3103 4656 3366 4563 
z
" id="DejaVuSans-36" transform="scale(0.015625)"/>
       </defs>
       <use xlink:href="#DejaVuSans-35"/>
       <use x="63.623047" xlink:href="#DejaVuSans-37"/>
       <use x="127.246094" xlink:href="#DejaVuSans-39"/>
       <use x="190.869141" xlink:href="#DejaVuSans-36"/>
      </g>
     </g>
    </g>
    <g id="xtick_2">
     <g id="line2d_2">
      <g>
       <use style="stroke:#000000;stroke-width:0.8;" x="354.360578" xlink:href="#m6e699077ce" y="348.478125"/>
      </g>
     </g>
     <g id="text_2">
      <!-- 5797 -->
      <g transform="translate(341.635578 363.076562)scale(0.1 -0.1)">
       <use xlink:href="#DejaVuSans-35"/>
       <use x="63.623047" xlink:href="#DejaVuSans-37"/>
       <use x="127.246094" xlink:href="#DejaVuSans-39"/>
       <use x="190.869141" xlink:href="#DejaVuSans-37"/>
      </g>
     </g>
    </g>
    <g id="xtick_3">
     <g id="line2d_3">
      <g>
       <use style="stroke:#000000;stroke-width:0.8;" x="507.142808" xlink:href="#m6e699077ce" y="348.478125"/>
      </g>
     </g>
     <g id="text_3">
      <!-- 5798 -->
      <g transform="translate(494.417808 363.076562)scale(0.1 -0.1)">
       <defs>
        <path d="M 2034 2216 
Q 1584 2216 1326 1975 
Q 1069 1734 1069 1313 
Q 1069 891 1326 650 
Q 1584 409 2034 409 
Q 2484 409 2743 651 
Q 3003 894 3003 1313 
Q 3003 1734 2745 1975 
Q 2488 2216 2034 2216 
z
M 1403 2484 
Q 997 2584 770 2862 
Q 544 3141 544 3541 
Q 544 4100 942 4425 
Q 1341 4750 2034 4750 
Q 2731 4750 3128 4425 
Q 3525 4100 3525 3541 
Q 3525 3141 3298 2862 
Q 3072 2584 2669 2484 
Q 3125 2378 3379 2068 
Q 3634 1759 3634 1313 
Q 3634 634 3220 271 
Q 2806 -91 2034 -91 
Q 1263 -91 848 271 
Q 434 634 434 1313 
Q 434 1759 690 2068 
Q 947 2378 1403 2484 
z
M 1172 3481 
Q 1172 3119 1398 2916 
Q 1625 2713 2034 2713 
Q 2441 2713 2670 2916 
Q 2900 3119 2900 3481 
Q 2900 3844 2670 4047 
Q 2441 4250 2034 4250 
Q 1625 4250 1398 4047 
Q 1172 3844 1172 3481 
z
" id="DejaVuSans-38" transform="scale(0.015625)"/>
       </defs>
       <use xlink:href="#DejaVuSans-35"/>
       <use x="63.623047" xlink:href="#DejaVuSans-37"/>
       <use x="127.246094" xlink:href="#DejaVuSans-39"/>
       <use x="190.869141" xlink:href="#DejaVuSans-38"/>
      </g>
     </g>
    </g>
    <g id="xtick_4">
     <g id="line2d_4">
      <g>
       <use style="stroke:#000000;stroke-width:0.8;" x="659.925038" xlink:href="#m6e699077ce" y="348.478125"/>
      </g>
     </g>
     <g id="text_4">
      <!-- 5799 -->
      <g transform="translate(647.200038 363.076562)scale(0.1 -0.1)">
       <use xlink:href="#DejaVuSans-35"/>
       <use x="63.623047" xlink:href="#DejaVuSans-37"/>
       <use x="127.246094" xlink:href="#DejaVuSans-39"/>
       <use x="190.869141" xlink:href="#DejaVuSans-39"/>
      </g>
     </g>
    </g>
    <g id="xtick_5">
     <g id="line2d_5">
      <g>
       <use style="stroke:#000000;stroke-width:0.8;" x="812.707269" xlink:href="#m6e699077ce" y="348.478125"/>
      </g>
     </g>
     <g id="text_5">
      <!-- 5800 -->
      <g transform="translate(799.982269 363.076562)scale(0.1 -0.1)">
       <defs>
        <path d="M 2034 4250 
Q 1547 4250 1301 3770 
Q 1056 3291 1056 2328 
Q 1056 1369 1301 889 
Q 1547 409 2034 409 
Q 2525 409 2770 889 
Q 3016 1369 3016 2328 
Q 3016 3291 2770 3770 
Q 2525 4250 2034 4250 
z
M 2034 4750 
Q 2819 4750 3233 4129 
Q 3647 3509 3647 2328 
Q 3647 1150 3233 529 
Q 2819 -91 2034 -91 
Q 1250 -91 836 529 
Q 422 1150 422 2328 
Q 422 3509 836 4129 
Q 1250 4750 2034 4750 
z
" id="DejaVuSans-30" transform="scale(0.015625)"/>
       </defs>
       <use xlink:href="#DejaVuSans-35"/>
       <use x="63.623047" xlink:href="#DejaVuSans-38"/>
       <use x="127.246094" xlink:href="#DejaVuSans-30"/>
       <use x="190.869141" xlink:href="#DejaVuSans-30"/>
      </g>
     </g>
    </g>
    <g id="text_6">
     <!-- Wavelength -->
     <g transform="translate(438.98125 376.754687)scale(0.1 -0.1)">
      <defs>
       <path d="M 213 4666 
L 850 4666 
L 1831 722 
L 2809 4666 
L 3519 4666 
L 4500 722 
L 5478 4666 
L 6119 4666 
L 4947 0 
L 4153 0 
L 3169 4050 
L 2175 0 
L 1381 0 
L 213 4666 
z
" id="DejaVuSans-57" transform="scale(0.015625)"/>
       <path d="M 2194 1759 
Q 1497 1759 1228 1600 
Q 959 1441 959 1056 
Q 959 750 1161 570 
Q 1363 391 1709 391 
Q 2188 391 2477 730 
Q 2766 1069 2766 1631 
L 2766 1759 
L 2194 1759 
z
M 3341 1997 
L 3341 0 
L 2766 0 
L 2766 531 
Q 2569 213 2275 61 
Q 1981 -91 1556 -91 
Q 1019 -91 701 211 
Q 384 513 384 1019 
Q 384 1609 779 1909 
Q 1175 2209 1959 2209 
L 2766 2209 
L 2766 2266 
Q 2766 2663 2505 2880 
Q 2244 3097 1772 3097 
Q 1472 3097 1187 3025 
Q 903 2953 641 2809 
L 641 3341 
Q 956 3463 1253 3523 
Q 1550 3584 1831 3584 
Q 2591 3584 2966 3190 
Q 3341 2797 3341 1997 
z
" id="DejaVuSans-61" transform="scale(0.015625)"/>
       <path d="M 191 3500 
L 800 3500 
L 1894 563 
L 2988 3500 
L 3597 3500 
L 2284 0 
L 1503 0 
L 191 3500 
z
" id="DejaVuSans-76" transform="scale(0.015625)"/>
       <path d="M 3597 1894 
L 3597 1613 
L 953 1613 
Q 991 1019 1311 708 
Q 1631 397 2203 397 
Q 2534 397 2845 478 
Q 3156 559 3463 722 
L 3463 178 
Q 3153 47 2828 -22 
Q 2503 -91 2169 -91 
Q 1331 -91 842 396 
Q 353 884 353 1716 
Q 353 2575 817 3079 
Q 1281 3584 2069 3584 
Q 2775 3584 3186 3129 
Q 3597 2675 3597 1894 
z
M 3022 2063 
Q 3016 2534 2758 2815 
Q 2500 3097 2075 3097 
Q 1594 3097 1305 2825 
Q 1016 2553 972 2059 
L 3022 2063 
z
" id="DejaVuSans-65" transform="scale(0.015625)"/>
       <path d="M 603 4863 
L 1178 4863 
L 1178 0 
L 603 0 
L 603 4863 
z
" id="DejaVuSans-6c" transform="scale(0.015625)"/>
       <path d="M 3513 2113 
L 3513 0 
L 2938 0 
L 2938 2094 
Q 2938 2591 2744 2837 
Q 2550 3084 2163 3084 
Q 1697 3084 1428 2787 
Q 1159 2491 1159 1978 
L 1159 0 
L 581 0 
L 581 3500 
L 1159 3500 
L 1159 2956 
Q 1366 3272 1645 3428 
Q 1925 3584 2291 3584 
Q 2894 3584 3203 3211 
Q 3513 2838 3513 2113 
z
" id="DejaVuSans-6e" transform="scale(0.015625)"/>
       <path d="M 2906 1791 
Q 2906 2416 2648 2759 
Q 2391 3103 1925 3103 
Q 1463 3103 1205 2759 
Q 947 2416 947 1791 
Q 947 1169 1205 825 
Q 1463 481 1925 481 
Q 2391 481 2648 825 
Q 2906 1169 2906 1791 
z
M 3481 434 
Q 3481 -459 3084 -895 
Q 2688 -1331 1869 -1331 
Q 1566 -1331 1297 -1286 
Q 1028 -1241 775 -1147 
L 775 -588 
Q 1028 -725 1275 -790 
Q 1522 -856 1778 -856 
Q 2344 -856 2625 -561 
Q 2906 -266 2906 331 
L 2906 616 
Q 2728 306 2450 153 
Q 2172 0 1784 0 
Q 1141 0 747 490 
Q 353 981 353 1791 
Q 353 2603 747 3093 
Q 1141 3584 1784 3584 
Q 2172 3584 2450 3431 
Q 2728 3278 2906 2969 
L 2906 3500 
L 3481 3500 
L 3481 434 
z
" id="DejaVuSans-67" transform="scale(0.015625)"/>
       <path d="M 1172 4494 
L 1172 3500 
L 2356 3500 
L 2356 3053 
L 1172 3053 
L 1172 1153 
Q 1172 725 1289 603 
Q 1406 481 1766 481 
L 2356 481 
L 2356 0 
L 1766 0 
Q 1100 0 847 248 
Q 594 497 594 1153 
L 594 3053 
L 172 3053 
L 172 3500 
L 594 3500 
L 594 4494 
L 1172 4494 
z
" id="DejaVuSans-74" transform="scale(0.015625)"/>
       <path d="M 3513 2113 
L 3513 0 
L 2938 0 
L 2938 2094 
Q 2938 2591 2744 2837 
Q 2550 3084 2163 3084 
Q 1697 3084 1428 2787 
Q 1159 2491 1159 1978 
L 1159 0 
L 581 0 
L 581 4863 
L 1159 4863 
L 1159 2956 
Q 1366 3272 1645 3428 
Q 1925 3584 2291 3584 
Q 2894 3584 3203 3211 
Q 3513 2838 3513 2113 
z
" id="DejaVuSans-68" transform="scale(0.015625)"/>
      </defs>
      <use xlink:href="#DejaVuSans-57"/>
      <use x="92.501953" xlink:href="#DejaVuSans-61"/>
      <use x="153.78125" xlink:href="#DejaVuSans-76"/>
      <use x="212.960938" xlink:href="#DejaVuSans-65"/>
      <use x="274.484375" xlink:href="#DejaVuSans-6c"/>
      <use x="302.267578" xlink:href="#DejaVuSans-65"/>
      <use x="363.791016" xlink:href="#DejaVuSans-6e"/>
      <use x="427.169922" xlink:href="#DejaVuSans-67"/>
      <use x="490.646484" xlink:href="#DejaVuSans-74"/>
      <use x="529.855469" xlink:href="#DejaVuSans-68"/>
     </g>
    </g>
   </g>
   <g id="matplotlib.axis_2">
    <g id="ytick_1">
     <g id="line2d_6">
      <defs>
       <path d="M 0 0 
L -3.5 0 
" id="m171665f281" style="stroke:#000000;stroke-width:0.8;"/>
      </defs>
      <g>
       <use style="stroke:#000000;stroke-width:0.8;" x="50.14375" xlink:href="#m171665f281" y="319.53319"/>
      </g>
     </g>
     <g id="text_7">
      <!-- 0.90 -->
      <g transform="translate(20.878125 323.332409)scale(0.1 -0.1)">
       <defs>
        <path d="M 684 794 
L 1344 794 
L 1344 0 
L 684 0 
L 684 794 
z
" id="DejaVuSans-2e" transform="scale(0.015625)"/>
       </defs>
       <use xlink:href="#DejaVuSans-30"/>
       <use x="63.623047" xlink:href="#DejaVuSans-2e"/>
       <use x="95.410156" xlink:href="#DejaVuSans-39"/>
       <use x="159.033203" xlink:href="#DejaVuSans-30"/>
      </g>
     </g>
    </g>
    <g id="ytick_2">
     <g id="line2d_7">
      <g>
       <use style="stroke:#000000;stroke-width:0.8;" x="50.14375" xlink:href="#m171665f281" y="263.055268"/>
      </g>
     </g>
     <g id="text_8">
      <!-- 0.92 -->
      <g transform="translate(20.878125 266.854487)scale(0.1 -0.1)">
       <defs>
        <path d="M 1228 531 
L 3431 531 
L 3431 0 
L 469 0 
L 469 531 
Q 828 903 1448 1529 
Q 2069 2156 2228 2338 
Q 2531 2678 2651 2914 
Q 2772 3150 2772 3378 
Q 2772 3750 2511 3984 
Q 2250 4219 1831 4219 
Q 1534 4219 1204 4116 
Q 875 4013 500 3803 
L 500 4441 
Q 881 4594 1212 4672 
Q 1544 4750 1819 4750 
Q 2544 4750 2975 4387 
Q 3406 4025 3406 3419 
Q 3406 3131 3298 2873 
Q 3191 2616 2906 2266 
Q 2828 2175 2409 1742 
Q 1991 1309 1228 531 
z
" id="DejaVuSans-32" transform="scale(0.015625)"/>
       </defs>
       <use xlink:href="#DejaVuSans-30"/>
       <use x="63.623047" xlink:href="#DejaVuSans-2e"/>
       <use x="95.410156" xlink:href="#DejaVuSans-39"/>
       <use x="159.033203" xlink:href="#DejaVuSans-32"/>
      </g>
     </g>
    </g>
    <g id="ytick_3">
     <g id="line2d_8">
      <g>
       <use style="stroke:#000000;stroke-width:0.8;" x="50.14375" xlink:href="#m171665f281" y="206.577346"/>
      </g>
     </g>
     <g id="text_9">
      <!-- 0.94 -->
      <g transform="translate(20.878125 210.376565)scale(0.1 -0.1)">
       <defs>
        <path d="M 2419 4116 
L 825 1625 
L 2419 1625 
L 2419 4116 
z
M 2253 4666 
L 3047 4666 
L 3047 1625 
L 3713 1625 
L 3713 1100 
L 3047 1100 
L 3047 0 
L 2419 0 
L 2419 1100 
L 313 1100 
L 313 1709 
L 2253 4666 
z
" id="DejaVuSans-34" transform="scale(0.015625)"/>
       </defs>
       <use xlink:href="#DejaVuSans-30"/>
       <use x="63.623047" xlink:href="#DejaVuSans-2e"/>
       <use x="95.410156" xlink:href="#DejaVuSans-39"/>
       <use x="159.033203" xlink:href="#DejaVuSans-34"/>
      </g>
     </g>
    </g>
    <g id="ytick_4">
     <g id="line2d_9">
      <g>
       <use style="stroke:#000000;stroke-width:0.8;" x="50.14375" xlink:href="#m171665f281" y="150.099424"/>
      </g>
     </g>
     <g id="text_10">
      <!-- 0.96 -->
      <g transform="translate(20.878125 153.898642)scale(0.1 -0.1)">
       <use xlink:href="#DejaVuSans-30"/>
       <use x="63.623047" xlink:href="#DejaVuSans-2e"/>
       <use x="95.410156" xlink:href="#DejaVuSans-39"/>
       <use x="159.033203" xlink:href="#DejaVuSans-36"/>
      </g>
     </g>
    </g>
    <g id="ytick_5">
     <g id="line2d_10">
      <g>
       <use style="stroke:#000000;stroke-width:0.8;" x="50.14375" xlink:href="#m171665f281" y="93.621502"/>
      </g>
     </g>
     <g id="text_11">
      <!-- 0.98 -->
      <g transform="translate(20.878125 97.42072)scale(0.1 -0.1)">
       <use xlink:href="#DejaVuSans-30"/>
       <use x="63.623047" xlink:href="#DejaVuSans-2e"/>
       <use x="95.410156" xlink:href="#DejaVuSans-39"/>
       <use x="159.033203" xlink:href="#DejaVuSans-38"/>
      </g>
     </g>
    </g>
    <g id="ytick_6">
     <g id="line2d_11">
      <g>
       <use style="stroke:#000000;stroke-width:0.8;" x="50.14375" xlink:href="#m171665f281" y="37.14358"/>
      </g>
     </g>
     <g id="text_12">
      <!-- 1.00 -->
      <g transform="translate(20.878125 40.942798)scale(0.1 -0.1)">
       <defs>
        <path d="M 794 531 
L 1825 531 
L 1825 4091 
L 703 3866 
L 703 4441 
L 1819 4666 
L 2450 4666 
L 2450 531 
L 3481 531 
L 3481 0 
L 794 0 
L 794 531 
z
" id="DejaVuSans-31" transform="scale(0.015625)"/>
       </defs>
       <use xlink:href="#DejaVuSans-31"/>
       <use x="63.623047" xlink:href="#DejaVuSans-2e"/>
       <use x="95.410156" xlink:href="#DejaVuSans-30"/>
       <use x="159.033203" xlink:href="#DejaVuSans-30"/>
      </g>
     </g>
    </g>
    <g id="text_13">
     <!-- Normalized Intenisty -->
     <g transform="translate(14.798438 237.105156)rotate(-90)scale(0.1 -0.1)">
      <defs>
       <path d="M 628 4666 
L 1478 4666 
L 3547 763 
L 3547 4666 
L 4159 4666 
L 4159 0 
L 3309 0 
L 1241 3903 
L 1241 0 
L 628 0 
L 628 4666 
z
" id="DejaVuSans-4e" transform="scale(0.015625)"/>
       <path d="M 1959 3097 
Q 1497 3097 1228 2736 
Q 959 2375 959 1747 
Q 959 1119 1226 758 
Q 1494 397 1959 397 
Q 2419 397 2687 759 
Q 2956 1122 2956 1747 
Q 2956 2369 2687 2733 
Q 2419 3097 1959 3097 
z
M 1959 3584 
Q 2709 3584 3137 3096 
Q 3566 2609 3566 1747 
Q 3566 888 3137 398 
Q 2709 -91 1959 -91 
Q 1206 -91 779 398 
Q 353 888 353 1747 
Q 353 2609 779 3096 
Q 1206 3584 1959 3584 
z
" id="DejaVuSans-6f" transform="scale(0.015625)"/>
       <path d="M 2631 2963 
Q 2534 3019 2420 3045 
Q 2306 3072 2169 3072 
Q 1681 3072 1420 2755 
Q 1159 2438 1159 1844 
L 1159 0 
L 581 0 
L 581 3500 
L 1159 3500 
L 1159 2956 
Q 1341 3275 1631 3429 
Q 1922 3584 2338 3584 
Q 2397 3584 2469 3576 
Q 2541 3569 2628 3553 
L 2631 2963 
z
" id="DejaVuSans-72" transform="scale(0.015625)"/>
       <path d="M 3328 2828 
Q 3544 3216 3844 3400 
Q 4144 3584 4550 3584 
Q 5097 3584 5394 3201 
Q 5691 2819 5691 2113 
L 5691 0 
L 5113 0 
L 5113 2094 
Q 5113 2597 4934 2840 
Q 4756 3084 4391 3084 
Q 3944 3084 3684 2787 
Q 3425 2491 3425 1978 
L 3425 0 
L 2847 0 
L 2847 2094 
Q 2847 2600 2669 2842 
Q 2491 3084 2119 3084 
Q 1678 3084 1418 2786 
Q 1159 2488 1159 1978 
L 1159 0 
L 581 0 
L 581 3500 
L 1159 3500 
L 1159 2956 
Q 1356 3278 1631 3431 
Q 1906 3584 2284 3584 
Q 2666 3584 2933 3390 
Q 3200 3197 3328 2828 
z
" id="DejaVuSans-6d" transform="scale(0.015625)"/>
       <path d="M 603 3500 
L 1178 3500 
L 1178 0 
L 603 0 
L 603 3500 
z
M 603 4863 
L 1178 4863 
L 1178 4134 
L 603 4134 
L 603 4863 
z
" id="DejaVuSans-69" transform="scale(0.015625)"/>
       <path d="M 353 3500 
L 3084 3500 
L 3084 2975 
L 922 459 
L 3084 459 
L 3084 0 
L 275 0 
L 275 525 
L 2438 3041 
L 353 3041 
L 353 3500 
z
" id="DejaVuSans-7a" transform="scale(0.015625)"/>
       <path d="M 2906 2969 
L 2906 4863 
L 3481 4863 
L 3481 0 
L 2906 0 
L 2906 525 
Q 2725 213 2448 61 
Q 2172 -91 1784 -91 
Q 1150 -91 751 415 
Q 353 922 353 1747 
Q 353 2572 751 3078 
Q 1150 3584 1784 3584 
Q 2172 3584 2448 3432 
Q 2725 3281 2906 2969 
z
M 947 1747 
Q 947 1113 1208 752 
Q 1469 391 1925 391 
Q 2381 391 2643 752 
Q 2906 1113 2906 1747 
Q 2906 2381 2643 2742 
Q 2381 3103 1925 3103 
Q 1469 3103 1208 2742 
Q 947 2381 947 1747 
z
" id="DejaVuSans-64" transform="scale(0.015625)"/>
       <path id="DejaVuSans-20" transform="scale(0.015625)"/>
       <path d="M 628 4666 
L 1259 4666 
L 1259 0 
L 628 0 
L 628 4666 
z
" id="DejaVuSans-49" transform="scale(0.015625)"/>
       <path d="M 2834 3397 
L 2834 2853 
Q 2591 2978 2328 3040 
Q 2066 3103 1784 3103 
Q 1356 3103 1142 2972 
Q 928 2841 928 2578 
Q 928 2378 1081 2264 
Q 1234 2150 1697 2047 
L 1894 2003 
Q 2506 1872 2764 1633 
Q 3022 1394 3022 966 
Q 3022 478 2636 193 
Q 2250 -91 1575 -91 
Q 1294 -91 989 -36 
Q 684 19 347 128 
L 347 722 
Q 666 556 975 473 
Q 1284 391 1588 391 
Q 1994 391 2212 530 
Q 2431 669 2431 922 
Q 2431 1156 2273 1281 
Q 2116 1406 1581 1522 
L 1381 1569 
Q 847 1681 609 1914 
Q 372 2147 372 2553 
Q 372 3047 722 3315 
Q 1072 3584 1716 3584 
Q 2034 3584 2315 3537 
Q 2597 3491 2834 3397 
z
" id="DejaVuSans-73" transform="scale(0.015625)"/>
       <path d="M 2059 -325 
Q 1816 -950 1584 -1140 
Q 1353 -1331 966 -1331 
L 506 -1331 
L 506 -850 
L 844 -850 
Q 1081 -850 1212 -737 
Q 1344 -625 1503 -206 
L 1606 56 
L 191 3500 
L 800 3500 
L 1894 763 
L 2988 3500 
L 3597 3500 
L 2059 -325 
z
" id="DejaVuSans-79" transform="scale(0.015625)"/>
      </defs>
      <use xlink:href="#DejaVuSans-4e"/>
      <use x="74.804688" xlink:href="#DejaVuSans-6f"/>
      <use x="135.986328" xlink:href="#DejaVuSans-72"/>
      <use x="175.349609" xlink:href="#DejaVuSans-6d"/>
      <use x="272.761719" xlink:href="#DejaVuSans-61"/>
      <use x="334.041016" xlink:href="#DejaVuSans-6c"/>
      <use x="361.824219" xlink:href="#DejaVuSans-69"/>
      <use x="389.607422" xlink:href="#DejaVuSans-7a"/>
      <use x="442.097656" xlink:href="#DejaVuSans-65"/>
      <use x="503.621094" xlink:href="#DejaVuSans-64"/>
      <use x="567.097656" xlink:href="#DejaVuSans-20"/>
      <use x="598.884766" xlink:href="#DejaVuSans-49"/>
      <use x="628.376953" xlink:href="#DejaVuSans-6e"/>
      <use x="691.755859" xlink:href="#DejaVuSans-74"/>
      <use x="730.964844" xlink:href="#DejaVuSans-65"/>
      <use x="792.488281" xlink:href="#DejaVuSans-6e"/>
      <use x="855.867188" xlink:href="#DejaVuSans-69"/>
      <use x="883.650391" xlink:href="#DejaVuSans-73"/>
      <use x="935.75" xlink:href="#DejaVuSans-74"/>
      <use x="974.958984" xlink:href="#DejaVuSans-79"/>
     </g>
    </g>
   </g>
   <g id="line2d_12">
    <path clip-path="url(#p547f607eb7)" d="M 484.443482 37.174089 
L 468.589668 37.350904 
L 459.221772 37.663019 
L 452.736421 38.084809 
L 447.692326 38.628757 
L 443.729148 39.285327 
L 440.846859 39.973846 
L 438.324872 40.810182 
L 436.16318 41.791937 
L 434.361778 42.88185 
L 432.920661 43.997151 
L 431.47955 45.39527 
L 430.038443 47.153092 
L 428.597341 49.363519 
L 427.516517 51.383574 
L 426.435696 53.771504 
L 425.354878 56.583891 
L 424.274062 59.880982 
L 422.832979 65.139568 
L 421.3919 71.521189 
L 419.950826 79.169107 
L 418.509756 88.209121 
L 417.068692 98.737176 
L 415.627632 110.80633 
L 413.826313 128.050141 
L 412.025002 147.541001 
L 409.863439 173.411646 
L 406.260856 219.947571 
L 403.018557 260.981329 
L 401.217289 281.453157 
L 399.776281 295.916528 
L 398.335277 308.298823 
L 397.254528 316.058379 
L 396.17378 322.423217 
L 395.093036 327.35288 
L 394.372541 329.837957 
L 393.652047 331.689279 
L 392.931555 332.92082 
L 392.211064 333.553114 
L 391.850818 333.65267 
L 391.490573 333.612905 
L 391.130329 333.438058 
L 390.40984 332.701698 
L 389.689353 331.483724 
L 388.968867 329.828578 
L 387.88814 326.632112 
L 386.807416 322.734442 
L 385.006215 315.17715 
L 380.323126 294.737597 
L 378.882186 289.644365 
L 377.801483 286.491705 
L 376.720784 283.988542 
L 375.640087 282.177556 
L 374.919623 281.364775 
L 374.199161 280.867917 
L 373.478701 280.682399 
L 372.758241 280.799692 
L 372.037782 281.207688 
L 371.317325 281.891093 
L 370.596869 282.831854 
L 369.516187 284.680404 
L 368.435507 286.985319 
L 366.994606 290.624852 
L 364.833262 296.88174 
L 360.150386 310.837143 
L 358.349294 315.406525 
L 356.908425 318.46965 
L 355.827776 320.355634 
L 354.74713 321.850265 
L 353.666487 322.924505 
L 352.946059 323.395016 
L 352.225633 323.661862 
L 351.505208 323.719877 
L 350.784784 323.5647 
L 350.064361 323.192746 
L 349.34394 322.60118 
L 348.623519 321.787895 
L 347.542891 320.149382 
L 346.462265 318.007273 
L 345.381642 315.363321 
L 344.301021 312.222758 
L 342.860198 307.278342 
L 341.419379 301.496961 
L 339.618363 293.156274 
L 337.817354 283.67432 
L 335.656152 270.968087 
L 333.134764 254.64258 
L 329.893 232.006716 
L 320.888224 168.0573 
L 318.006735 149.710872 
L 315.485447 135.134764 
L 313.324354 123.841589 
L 311.163273 113.674867 
L 309.002201 104.603051 
L 306.84114 96.560767 
L 304.68009 89.461765 
L 302.51905 83.210389 
L 300.358021 77.710432 
L 298.197002 72.871063 
L 296.035994 68.610061 
L 293.874997 64.854967 
L 291.71401 61.542883 
L 289.553033 58.619542 
L 287.392067 56.038108 
L 285.231112 53.758005 
L 282.710011 51.431833 
L 280.188924 49.419217 
L 277.667851 47.678247 
L 274.786643 45.974916 
L 271.905454 44.532701 
L 268.664138 43.173225 
L 265.422846 42.04649 
L 261.821438 41.018965 
L 257.859923 40.108981 
L 253.178179 39.265943 
L 247.776228 38.529873 
L 241.654096 37.928271 
L 235.171931 37.510882 
L 227.609525 37.257248 
L 221.127566 37.174173 
L 221.127566 37.174173 
" style="fill:none;stroke:#1f77b4;stroke-linecap:square;"/>
   </g>
   <g id="line2d_13">
    <path clip-path="url(#p547f607eb7)" d="M 88.189205 41.274878 
L 91.245064 37.963565 
L 94.300924 37.858146 
L 97.356784 38.518012 
L 100.412644 37.14358 
L 103.468504 38.507095 
L 106.524363 43.779777 
L 109.580223 48.0039 
L 112.636083 46.706069 
L 115.691943 44.848935 
L 118.747803 41.399804 
L 121.803662 44.991797 
L 124.859522 45.153508 
L 127.915382 49.34951 
L 130.971242 54.631149 
L 134.027102 52.225997 
L 137.082961 48.27236 
L 140.138821 46.728395 
L 143.194681 52.536633 
L 146.250541 46.909918 
L 149.306401 46.450473 
L 152.36226 44.666889 
L 155.41812 47.532321 
L 158.47398 51.512612 
L 161.52984 50.596404 
L 164.5857 48.819795 
L 167.641559 53.966607 
L 170.697419 53.340141 
L 173.753279 53.958716 
L 176.809139 53.793335 
L 179.864999 53.766978 
L 182.920858 56.826854 
L 185.976718 57.10917 
L 189.032578 59.175532 
L 192.088438 60.481706 
L 195.144298 61.99045 
L 198.200157 58.319154 
L 201.256017 59.527121 
L 204.311877 58.812594 
L 207.367737 58.966911 
L 210.423597 59.308868 
L 213.479456 61.542639 
L 216.535316 62.870563 
L 219.591176 67.601588 
L 222.647036 63.197705 
L 225.702896 59.407322 
L 228.758755 65.786362 
L 231.814615 63.096334 
L 234.870475 58.855323 
L 237.926335 63.529909 
L 240.982195 65.246916 
L 244.038054 73.302944 
L 247.093914 70.798635 
L 250.149774 73.249959 
L 253.205634 71.425541 
L 256.261494 76.01118 
L 259.317354 81.489112 
L 262.373213 80.241105 
L 265.429073 80.451162 
L 268.484933 79.608927 
L 271.540793 83.651687 
L 274.596653 91.128775 
L 277.652512 92.543437 
L 280.708372 90.938083 
L 283.764232 92.208815 
L 289.875952 99.268081 
L 292.931811 100.68172 
L 295.987671 103.465568 
L 299.043531 113.139856 
L 302.099391 120.046208 
L 305.155251 117.720591 
L 308.21111 131.117117 
L 311.26697 145.322772 
L 314.32283 157.330444 
L 317.37869 173.868456 
L 320.43455 180.964931 
L 326.546269 216.490436 
L 329.602129 231.369372 
L 332.657989 256.668517 
L 335.713849 271.799504 
L 338.769708 293.489644 
L 341.825568 309.583215 
L 344.881428 319.196359 
L 347.937288 330.655887 
L 350.993148 330.289967 
L 354.049007 327.648301 
L 357.104867 320.148073 
L 360.160727 315.791835 
L 363.216587 318.679595 
L 366.272447 317.733289 
L 369.328306 316.046928 
L 372.384166 312.008827 
L 375.440026 303.862356 
L 378.495886 300.906065 
L 381.551746 308.28888 
L 384.607605 322.058738 
L 387.663465 324.891656 
L 390.719325 328.052568 
L 393.775185 324.194178 
L 396.831045 316.007419 
L 399.886904 304.556987 
L 402.942764 290.329544 
L 405.998624 274.292413 
L 418.222063 225.644201 
L 421.277923 216.740411 
L 424.333783 202.881833 
L 427.389643 195.282662 
L 430.445502 195.466568 
L 433.501362 198.41773 
L 436.557222 199.920715 
L 439.613082 197.302593 
L 442.668942 194.263676 
L 445.724801 196.186017 
L 448.780661 194.874333 
L 451.836521 190.949353 
L 454.892381 177.028495 
L 457.948241 170.914169 
L 461.0041 165.07008 
L 464.05996 156.608172 
L 467.11582 155.405326 
L 470.17168 146.471658 
L 473.22754 142.164111 
L 476.2834 141.160467 
L 479.339259 136.258065 
L 482.395119 132.407634 
L 485.450979 130.137697 
L 488.506839 128.667292 
L 491.562699 127.541388 
L 494.618558 126.145833 
L 497.674418 123.380002 
L 500.730278 123.696037 
L 503.786138 121.932929 
L 506.841998 117.14878 
L 509.897857 116.274994 
L 512.953717 114.046349 
L 516.009577 110.594072 
L 519.065437 104.149662 
L 522.121297 94.611034 
L 525.177156 103.041606 
L 528.233016 105.122421 
L 531.288876 104.556911 
L 534.344736 106.571897 
L 537.400596 107.719648 
L 540.456455 103.43187 
L 543.512315 102.421052 
L 546.568175 102.981076 
L 549.624035 96.139731 
L 552.679895 97.79746 
L 555.735754 93.23438 
L 558.791614 93.83583 
L 561.847474 99.822162 
L 564.903334 93.173241 
L 567.959194 91.536195 
L 571.015053 92.993599 
L 574.070913 95.163536 
L 577.126773 96.987164 
L 580.182633 95.016916 
L 583.238493 94.059185 
L 586.294352 92.537076 
L 589.350212 90.681582 
L 592.406072 95.756585 
L 595.461932 92.401397 
L 598.517792 89.780736 
L 601.573651 88.064169 
L 604.629511 93.331162 
L 607.685371 87.781294 
L 610.741231 88.159804 
L 613.797091 87.788913 
L 616.85295 85.391606 
L 619.90881 86.714518 
L 622.96467 85.119783 
L 626.02053 88.809043 
L 629.07639 88.961393 
L 632.132249 89.488568 
L 635.188109 92.348698 
L 638.243969 102.043543 
L 641.299829 108.68859 
L 644.355689 104.398387 
L 647.411548 97.774373 
L 650.467408 94.940506 
L 653.523268 90.662867 
L 656.579128 90.493138 
L 659.634988 88.957051 
L 662.690847 89.187665 
L 665.746707 85.017434 
L 668.802567 87.051897 
L 671.858427 89.508225 
L 674.914287 83.10567 
L 677.970146 83.806962 
L 681.026006 87.491365 
L 684.081866 88.98405 
L 687.137726 89.313732 
L 690.193586 87.470665 
L 693.249446 90.456763 
L 696.305305 90.048717 
L 699.361165 89.345596 
L 702.417025 89.818329 
L 705.472885 87.739558 
L 708.528745 86.644144 
L 711.584604 87.145236 
L 714.640464 91.295037 
L 717.696324 91.949043 
L 720.752184 92.361771 
L 723.808044 91.679453 
L 726.863903 95.000201 
L 729.919763 94.467932 
L 732.975623 97.560271 
L 736.031483 92.678724 
L 739.087343 89.451176 
L 745.199062 97.218649 
L 748.254922 92.328109 
L 751.310782 92.120313 
L 754.366642 92.629235 
L 757.422501 90.787873 
L 760.478361 99.087802 
L 763.534221 97.512367 
L 766.590081 93.530485 
L 769.645941 91.673498 
L 772.7018 96.412096 
L 775.75766 98.929216 
L 778.81352 93.958856 
L 781.86938 90.947265 
L 784.92524 92.959607 
L 787.981099 95.200144 
L 791.036959 96.98263 
L 797.148679 96.754835 
L 800.204539 97.437339 
L 803.260398 97.038802 
L 806.316258 98.875504 
L 809.372118 98.598301 
L 812.427978 93.933134 
L 815.483838 103.132074 
L 818.539697 99.796305 
L 821.595557 99.738033 
L 824.651417 103.433299 
L 827.707277 109.673838 
L 830.763137 106.402142 
L 833.818996 105.276664 
L 836.874856 105.682479 
L 839.930716 106.963734 
L 842.986576 110.063589 
L 846.042436 108.892001 
L 849.098295 110.943462 
L 849.098295 110.943462 
" style="fill:none;stroke:#000000;stroke-linecap:square;stroke-width:1.5;"/>
   </g>
   <g id="patch_3">
    <path d="M 50.14375 348.478125 
L 50.14375 22.318125 
" style="fill:none;stroke:#000000;stroke-linecap:square;stroke-linejoin:miter;stroke-width:0.8;"/>
   </g>
   <g id="patch_4">
    <path d="M 887.14375 348.478125 
L 887.14375 22.318125 
" style="fill:none;stroke:#000000;stroke-linecap:square;stroke-linejoin:miter;stroke-width:0.8;"/>
   </g>
   <g id="patch_5">
    <path d="M 50.14375 348.478125 
L 887.14375 348.478125 
" style="fill:none;stroke:#000000;stroke-linecap:square;stroke-linejoin:miter;stroke-width:0.8;"/>
   </g>
   <g id="patch_6">
    <path d="M 50.14375 22.318125 
L 887.14375 22.318125 
" style="fill:none;stroke:#000000;stroke-linecap:square;stroke-linejoin:miter;stroke-width:0.8;"/>
   </g>
   <g id="text_14">
    <!-- ground_B =  0.0027 cm-1    Delta_B = 0.3,    Delta_C = 0.0    zeta = 0   StarName:  HD 166937 -->
    <g transform="translate(182.6125 16.318125)scale(0.12 -0.12)">
     <defs>
      <path d="M 544 1381 
L 544 3500 
L 1119 3500 
L 1119 1403 
Q 1119 906 1312 657 
Q 1506 409 1894 409 
Q 2359 409 2629 706 
Q 2900 1003 2900 1516 
L 2900 3500 
L 3475 3500 
L 3475 0 
L 2900 0 
L 2900 538 
Q 2691 219 2414 64 
Q 2138 -91 1772 -91 
Q 1169 -91 856 284 
Q 544 659 544 1381 
z
M 1991 3584 
L 1991 3584 
z
" id="DejaVuSans-75" transform="scale(0.015625)"/>
      <path d="M 3263 -1063 
L 3263 -1509 
L -63 -1509 
L -63 -1063 
L 3263 -1063 
z
" id="DejaVuSans-5f" transform="scale(0.015625)"/>
      <path d="M 1259 2228 
L 1259 519 
L 2272 519 
Q 2781 519 3026 730 
Q 3272 941 3272 1375 
Q 3272 1813 3026 2020 
Q 2781 2228 2272 2228 
L 1259 2228 
z
M 1259 4147 
L 1259 2741 
L 2194 2741 
Q 2656 2741 2882 2914 
Q 3109 3088 3109 3444 
Q 3109 3797 2882 3972 
Q 2656 4147 2194 4147 
L 1259 4147 
z
M 628 4666 
L 2241 4666 
Q 2963 4666 3353 4366 
Q 3744 4066 3744 3513 
Q 3744 3084 3544 2831 
Q 3344 2578 2956 2516 
Q 3422 2416 3680 2098 
Q 3938 1781 3938 1306 
Q 3938 681 3513 340 
Q 3088 0 2303 0 
L 628 0 
L 628 4666 
z
" id="DejaVuSans-42" transform="scale(0.015625)"/>
      <path d="M 678 2906 
L 4684 2906 
L 4684 2381 
L 678 2381 
L 678 2906 
z
M 678 1631 
L 4684 1631 
L 4684 1100 
L 678 1100 
L 678 1631 
z
" id="DejaVuSans-3d" transform="scale(0.015625)"/>
      <path d="M 3122 3366 
L 3122 2828 
Q 2878 2963 2633 3030 
Q 2388 3097 2138 3097 
Q 1578 3097 1268 2742 
Q 959 2388 959 1747 
Q 959 1106 1268 751 
Q 1578 397 2138 397 
Q 2388 397 2633 464 
Q 2878 531 3122 666 
L 3122 134 
Q 2881 22 2623 -34 
Q 2366 -91 2075 -91 
Q 1284 -91 818 406 
Q 353 903 353 1747 
Q 353 2603 823 3093 
Q 1294 3584 2113 3584 
Q 2378 3584 2631 3529 
Q 2884 3475 3122 3366 
z
" id="DejaVuSans-63" transform="scale(0.015625)"/>
      <path d="M 313 2009 
L 1997 2009 
L 1997 1497 
L 313 1497 
L 313 2009 
z
" id="DejaVuSans-2d" transform="scale(0.015625)"/>
      <path d="M 1259 4147 
L 1259 519 
L 2022 519 
Q 2988 519 3436 956 
Q 3884 1394 3884 2338 
Q 3884 3275 3436 3711 
Q 2988 4147 2022 4147 
L 1259 4147 
z
M 628 4666 
L 1925 4666 
Q 3281 4666 3915 4102 
Q 4550 3538 4550 2338 
Q 4550 1131 3912 565 
Q 3275 0 1925 0 
L 628 0 
L 628 4666 
z
" id="DejaVuSans-44" transform="scale(0.015625)"/>
      <path d="M 2597 2516 
Q 3050 2419 3304 2112 
Q 3559 1806 3559 1356 
Q 3559 666 3084 287 
Q 2609 -91 1734 -91 
Q 1441 -91 1130 -33 
Q 819 25 488 141 
L 488 750 
Q 750 597 1062 519 
Q 1375 441 1716 441 
Q 2309 441 2620 675 
Q 2931 909 2931 1356 
Q 2931 1769 2642 2001 
Q 2353 2234 1838 2234 
L 1294 2234 
L 1294 2753 
L 1863 2753 
Q 2328 2753 2575 2939 
Q 2822 3125 2822 3475 
Q 2822 3834 2567 4026 
Q 2313 4219 1838 4219 
Q 1578 4219 1281 4162 
Q 984 4106 628 3988 
L 628 4550 
Q 988 4650 1302 4700 
Q 1616 4750 1894 4750 
Q 2613 4750 3031 4423 
Q 3450 4097 3450 3541 
Q 3450 3153 3228 2886 
Q 3006 2619 2597 2516 
z
" id="DejaVuSans-33" transform="scale(0.015625)"/>
      <path d="M 750 794 
L 1409 794 
L 1409 256 
L 897 -744 
L 494 -744 
L 750 256 
L 750 794 
z
" id="DejaVuSans-2c" transform="scale(0.015625)"/>
      <path d="M 4122 4306 
L 4122 3641 
Q 3803 3938 3442 4084 
Q 3081 4231 2675 4231 
Q 1875 4231 1450 3742 
Q 1025 3253 1025 2328 
Q 1025 1406 1450 917 
Q 1875 428 2675 428 
Q 3081 428 3442 575 
Q 3803 722 4122 1019 
L 4122 359 
Q 3791 134 3420 21 
Q 3050 -91 2638 -91 
Q 1578 -91 968 557 
Q 359 1206 359 2328 
Q 359 3453 968 4101 
Q 1578 4750 2638 4750 
Q 3056 4750 3426 4639 
Q 3797 4528 4122 4306 
z
" id="DejaVuSans-43" transform="scale(0.015625)"/>
      <path d="M 3425 4513 
L 3425 3897 
Q 3066 4069 2747 4153 
Q 2428 4238 2131 4238 
Q 1616 4238 1336 4038 
Q 1056 3838 1056 3469 
Q 1056 3159 1242 3001 
Q 1428 2844 1947 2747 
L 2328 2669 
Q 3034 2534 3370 2195 
Q 3706 1856 3706 1288 
Q 3706 609 3251 259 
Q 2797 -91 1919 -91 
Q 1588 -91 1214 -16 
Q 841 59 441 206 
L 441 856 
Q 825 641 1194 531 
Q 1563 422 1919 422 
Q 2459 422 2753 634 
Q 3047 847 3047 1241 
Q 3047 1584 2836 1778 
Q 2625 1972 2144 2069 
L 1759 2144 
Q 1053 2284 737 2584 
Q 422 2884 422 3419 
Q 422 4038 858 4394 
Q 1294 4750 2059 4750 
Q 2388 4750 2728 4690 
Q 3069 4631 3425 4513 
z
" id="DejaVuSans-53" transform="scale(0.015625)"/>
      <path d="M 750 794 
L 1409 794 
L 1409 0 
L 750 0 
L 750 794 
z
M 750 3309 
L 1409 3309 
L 1409 2516 
L 750 2516 
L 750 3309 
z
" id="DejaVuSans-3a" transform="scale(0.015625)"/>
      <path d="M 628 4666 
L 1259 4666 
L 1259 2753 
L 3553 2753 
L 3553 4666 
L 4184 4666 
L 4184 0 
L 3553 0 
L 3553 2222 
L 1259 2222 
L 1259 0 
L 628 0 
L 628 4666 
z
" id="DejaVuSans-48" transform="scale(0.015625)"/>
     </defs>
     <use xlink:href="#DejaVuSans-67"/>
     <use x="63.476562" xlink:href="#DejaVuSans-72"/>
     <use x="102.339844" xlink:href="#DejaVuSans-6f"/>
     <use x="163.521484" xlink:href="#DejaVuSans-75"/>
     <use x="226.900391" xlink:href="#DejaVuSans-6e"/>
     <use x="290.279297" xlink:href="#DejaVuSans-64"/>
     <use x="353.755859" xlink:href="#DejaVuSans-5f"/>
     <use x="403.755859" xlink:href="#DejaVuSans-42"/>
     <use x="472.359375" xlink:href="#DejaVuSans-20"/>
     <use x="504.146484" xlink:href="#DejaVuSans-3d"/>
     <use x="587.935547" xlink:href="#DejaVuSans-20"/>
     <use x="619.722656" xlink:href="#DejaVuSans-20"/>
     <use x="651.509766" xlink:href="#DejaVuSans-30"/>
     <use x="715.132812" xlink:href="#DejaVuSans-2e"/>
     <use x="746.919922" xlink:href="#DejaVuSans-30"/>
     <use x="810.542969" xlink:href="#DejaVuSans-30"/>
     <use x="874.166016" xlink:href="#DejaVuSans-32"/>
     <use x="937.789062" xlink:href="#DejaVuSans-37"/>
     <use x="1001.412109" xlink:href="#DejaVuSans-20"/>
     <use x="1033.199219" xlink:href="#DejaVuSans-63"/>
     <use x="1088.179688" xlink:href="#DejaVuSans-6d"/>
     <use x="1185.591797" xlink:href="#DejaVuSans-2d"/>
     <use x="1221.675781" xlink:href="#DejaVuSans-31"/>
     <use x="1285.298828" xlink:href="#DejaVuSans-20"/>
     <use x="1317.085938" xlink:href="#DejaVuSans-20"/>
     <use x="1348.873047" xlink:href="#DejaVuSans-20"/>
     <use x="1380.660156" xlink:href="#DejaVuSans-20"/>
     <use x="1412.447266" xlink:href="#DejaVuSans-44"/>
     <use x="1489.449219" xlink:href="#DejaVuSans-65"/>
     <use x="1550.972656" xlink:href="#DejaVuSans-6c"/>
     <use x="1578.755859" xlink:href="#DejaVuSans-74"/>
     <use x="1617.964844" xlink:href="#DejaVuSans-61"/>
     <use x="1679.244141" xlink:href="#DejaVuSans-5f"/>
     <use x="1729.244141" xlink:href="#DejaVuSans-42"/>
     <use x="1797.847656" xlink:href="#DejaVuSans-20"/>
     <use x="1829.634766" xlink:href="#DejaVuSans-3d"/>
     <use x="1913.423828" xlink:href="#DejaVuSans-20"/>
     <use x="1945.210938" xlink:href="#DejaVuSans-30"/>
     <use x="2008.833984" xlink:href="#DejaVuSans-2e"/>
     <use x="2040.621094" xlink:href="#DejaVuSans-33"/>
     <use x="2104.244141" xlink:href="#DejaVuSans-2c"/>
     <use x="2136.03125" xlink:href="#DejaVuSans-20"/>
     <use x="2167.818359" xlink:href="#DejaVuSans-20"/>
     <use x="2199.605469" xlink:href="#DejaVuSans-20"/>
     <use x="2231.392578" xlink:href="#DejaVuSans-20"/>
     <use x="2263.179688" xlink:href="#DejaVuSans-44"/>
     <use x="2340.181641" xlink:href="#DejaVuSans-65"/>
     <use x="2401.705078" xlink:href="#DejaVuSans-6c"/>
     <use x="2429.488281" xlink:href="#DejaVuSans-74"/>
     <use x="2468.697266" xlink:href="#DejaVuSans-61"/>
     <use x="2529.976562" xlink:href="#DejaVuSans-5f"/>
     <use x="2579.976562" xlink:href="#DejaVuSans-43"/>
     <use x="2649.800781" xlink:href="#DejaVuSans-20"/>
     <use x="2681.587891" xlink:href="#DejaVuSans-3d"/>
     <use x="2765.376953" xlink:href="#DejaVuSans-20"/>
     <use x="2797.164062" xlink:href="#DejaVuSans-30"/>
     <use x="2860.787109" xlink:href="#DejaVuSans-2e"/>
     <use x="2892.574219" xlink:href="#DejaVuSans-30"/>
     <use x="2956.197266" xlink:href="#DejaVuSans-20"/>
     <use x="2987.984375" xlink:href="#DejaVuSans-20"/>
     <use x="3019.771484" xlink:href="#DejaVuSans-20"/>
     <use x="3051.558594" xlink:href="#DejaVuSans-20"/>
     <use x="3083.345703" xlink:href="#DejaVuSans-7a"/>
     <use x="3135.835938" xlink:href="#DejaVuSans-65"/>
     <use x="3197.359375" xlink:href="#DejaVuSans-74"/>
     <use x="3236.568359" xlink:href="#DejaVuSans-61"/>
     <use x="3297.847656" xlink:href="#DejaVuSans-20"/>
     <use x="3329.634766" xlink:href="#DejaVuSans-3d"/>
     <use x="3413.423828" xlink:href="#DejaVuSans-20"/>
     <use x="3445.210938" xlink:href="#DejaVuSans-30"/>
     <use x="3508.833984" xlink:href="#DejaVuSans-20"/>
     <use x="3540.621094" xlink:href="#DejaVuSans-20"/>
     <use x="3572.408203" xlink:href="#DejaVuSans-20"/>
     <use x="3604.195312" xlink:href="#DejaVuSans-53"/>
     <use x="3667.671875" xlink:href="#DejaVuSans-74"/>
     <use x="3706.880859" xlink:href="#DejaVuSans-61"/>
     <use x="3768.160156" xlink:href="#DejaVuSans-72"/>
     <use x="3809.273438" xlink:href="#DejaVuSans-4e"/>
     <use x="3884.078125" xlink:href="#DejaVuSans-61"/>
     <use x="3945.357422" xlink:href="#DejaVuSans-6d"/>
     <use x="4042.769531" xlink:href="#DejaVuSans-65"/>
     <use x="4104.292969" xlink:href="#DejaVuSans-3a"/>
     <use x="4137.984375" xlink:href="#DejaVuSans-20"/>
     <use x="4169.771484" xlink:href="#DejaVuSans-20"/>
     <use x="4201.558594" xlink:href="#DejaVuSans-48"/>
     <use x="4276.753906" xlink:href="#DejaVuSans-44"/>
     <use x="4353.755859" xlink:href="#DejaVuSans-20"/>
     <use x="4385.542969" xlink:href="#DejaVuSans-31"/>
     <use x="4449.166016" xlink:href="#DejaVuSans-36"/>
     <use x="4512.789062" xlink:href="#DejaVuSans-36"/>
     <use x="4576.412109" xlink:href="#DejaVuSans-39"/>
     <use x="4640.035156" xlink:href="#DejaVuSans-33"/>
     <use x="4703.658203" xlink:href="#DejaVuSans-37"/>
    </g>
   </g>
   <g id="legend_1">
    <g id="patch_7">
     <path d="M 812.804688 59.674375 
L 880.14375 59.674375 
Q 882.14375 59.674375 882.14375 57.674375 
L 882.14375 29.318125 
Q 882.14375 27.318125 880.14375 27.318125 
L 812.804688 27.318125 
Q 810.804688 27.318125 810.804688 29.318125 
L 810.804688 57.674375 
Q 810.804688 59.674375 812.804688 59.674375 
z
" style="fill:#ffffff;opacity:0.8;stroke:#cccccc;stroke-linejoin:miter;"/>
    </g>
    <g id="text_15">
     <!-- Temperature -->
     <g transform="translate(814.804688 38.916562)scale(0.1 -0.1)">
      <defs>
       <path d="M -19 4666 
L 3928 4666 
L 3928 4134 
L 2272 4134 
L 2272 0 
L 1638 0 
L 1638 4134 
L -19 4134 
L -19 4666 
z
" id="DejaVuSans-54" transform="scale(0.015625)"/>
       <path d="M 1159 525 
L 1159 -1331 
L 581 -1331 
L 581 3500 
L 1159 3500 
L 1159 2969 
Q 1341 3281 1617 3432 
Q 1894 3584 2278 3584 
Q 2916 3584 3314 3078 
Q 3713 2572 3713 1747 
Q 3713 922 3314 415 
Q 2916 -91 2278 -91 
Q 1894 -91 1617 61 
Q 1341 213 1159 525 
z
M 3116 1747 
Q 3116 2381 2855 2742 
Q 2594 3103 2138 3103 
Q 1681 3103 1420 2742 
Q 1159 2381 1159 1747 
Q 1159 1113 1420 752 
Q 1681 391 2138 391 
Q 2594 391 2855 752 
Q 3116 1113 3116 1747 
z
" id="DejaVuSans-70" transform="scale(0.015625)"/>
      </defs>
      <use xlink:href="#DejaVuSans-54"/>
      <use x="44.083984" xlink:href="#DejaVuSans-65"/>
      <use x="105.607422" xlink:href="#DejaVuSans-6d"/>
      <use x="203.019531" xlink:href="#DejaVuSans-70"/>
      <use x="266.496094" xlink:href="#DejaVuSans-65"/>
      <use x="328.019531" xlink:href="#DejaVuSans-72"/>
      <use x="369.132812" xlink:href="#DejaVuSans-61"/>
      <use x="430.412109" xlink:href="#DejaVuSans-74"/>
      <use x="469.621094" xlink:href="#DejaVuSans-75"/>
      <use x="533" xlink:href="#DejaVuSans-72"/>
      <use x="571.863281" xlink:href="#DejaVuSans-65"/>
     </g>
    </g>
    <g id="line2d_14">
     <path d="M 819.654688 50.094687 
L 839.654688 50.094687 
" style="fill:none;stroke:#1f77b4;stroke-linecap:square;"/>
    </g>
    <g id="line2d_15"/>
    <g id="text_16">
     <!-- 63  K -->
     <g transform="translate(847.654688 53.594687)scale(0.1 -0.1)">
      <defs>
       <path d="M 628 4666 
L 1259 4666 
L 1259 2694 
L 3353 4666 
L 4166 4666 
L 1850 2491 
L 4331 0 
L 3500 0 
L 1259 2247 
L 1259 0 
L 628 0 
L 628 4666 
z
" id="DejaVuSans-4b" transform="scale(0.015625)"/>
      </defs>
      <use xlink:href="#DejaVuSans-36"/>
      <use x="63.623047" xlink:href="#DejaVuSans-33"/>
      <use x="127.246094" xlink:href="#DejaVuSans-20"/>
      <use x="159.033203" xlink:href="#DejaVuSans-20"/>
      <use x="190.820312" xlink:href="#DejaVuSans-4b"/>
     </g>
    </g>
   </g>
  </g>
 </g>
 <defs>
  <clipPath id="p547f607eb7">
   <rect height="326.16" width="837" x="50.14375" y="22.318125"/>
  </clipPath>
 </defs>
</svg>
