<?xml version="1.0" encoding="utf-8" standalone="no"?>
<!DOCTYPE svg PUBLIC "-//W3C//DTD SVG 1.1//EN"
  "http://www.w3.org/Graphics/SVG/1.1/DTD/svg11.dtd">
<svg height="386.034375pt" version="1.1" viewBox="0 0 900.432657 386.034375" width="900.432657pt" xmlns="http://www.w3.org/2000/svg" xmlns:xlink="http://www.w3.org/1999/xlink">
 <metadata>
  <rdf:RDF xmlns:cc="http://creativecommons.org/ns#" xmlns:dc="http://purl.org/dc/elements/1.1/" xmlns:rdf="http://www.w3.org/1999/02/22-rdf-syntax-ns#">
   <cc:Work>
    <dc:type rdf:resource="http://purl.org/dc/dcmitype/StillImage"/>
    <dc:date>2022-10-18T18:26:19.618168</dc:date>
    <dc:format>image/svg+xml</dc:format>
    <dc:creator>
     <cc:Agent>
      <dc:title>Matplotlib v3.4.3, https://matplotlib.org/</dc:title>
     </cc:Agent>
    </dc:creator>
   </cc:Work>
  </rdf:RDF>
 </metadata>
 <defs>
  <style type="text/css">*{stroke-linecap:butt;stroke-linejoin:round;}</style>
 </defs>
 <g id="figure_1">
  <g id="patch_1">
   <path d="M 0 386.034375 
L 900.432657 386.034375 
L 900.432657 0 
L 0 0 
z
" style="fill:#ffffff;"/>
  </g>
  <g id="axes_1">
   <g id="patch_2">
    <path d="M 50.14375 348.478125 
L 887.14375 348.478125 
L 887.14375 22.318125 
L 50.14375 22.318125 
z
" style="fill:#ffffff;"/>
   </g>
   <g id="matplotlib.axis_1">
    <g id="xtick_1">
     <g id="line2d_1">
      <defs>
       <path d="M 0 0 
L 0 3.5 
" id="m4b6091aead" style="stroke:#000000;stroke-width:0.8;"/>
      </defs>
      <g>
       <use style="stroke:#000000;stroke-width:0.8;" x="111.058443" xlink:href="#m4b6091aead" y="348.478125"/>
      </g>
     </g>
     <g id="text_1">
      <!-- 6612.5 -->
      <g transform="translate(93.56313 363.076562)scale(0.1 -0.1)">
       <defs>
        <path d="M 2113 2584 
Q 1688 2584 1439 2293 
Q 1191 2003 1191 1497 
Q 1191 994 1439 701 
Q 1688 409 2113 409 
Q 2538 409 2786 701 
Q 3034 994 3034 1497 
Q 3034 2003 2786 2293 
Q 2538 2584 2113 2584 
z
M 3366 4563 
L 3366 3988 
Q 3128 4100 2886 4159 
Q 2644 4219 2406 4219 
Q 1781 4219 1451 3797 
Q 1122 3375 1075 2522 
Q 1259 2794 1537 2939 
Q 1816 3084 2150 3084 
Q 2853 3084 3261 2657 
Q 3669 2231 3669 1497 
Q 3669 778 3244 343 
Q 2819 -91 2113 -91 
Q 1303 -91 875 529 
Q 447 1150 447 2328 
Q 447 3434 972 4092 
Q 1497 4750 2381 4750 
Q 2619 4750 2861 4703 
Q 3103 4656 3366 4563 
z
" id="DejaVuSans-36" transform="scale(0.015625)"/>
        <path d="M 794 531 
L 1825 531 
L 1825 4091 
L 703 3866 
L 703 4441 
L 1819 4666 
L 2450 4666 
L 2450 531 
L 3481 531 
L 3481 0 
L 794 0 
L 794 531 
z
" id="DejaVuSans-31" transform="scale(0.015625)"/>
        <path d="M 1228 531 
L 3431 531 
L 3431 0 
L 469 0 
L 469 531 
Q 828 903 1448 1529 
Q 2069 2156 2228 2338 
Q 2531 2678 2651 2914 
Q 2772 3150 2772 3378 
Q 2772 3750 2511 3984 
Q 2250 4219 1831 4219 
Q 1534 4219 1204 4116 
Q 875 4013 500 3803 
L 500 4441 
Q 881 4594 1212 4672 
Q 1544 4750 1819 4750 
Q 2544 4750 2975 4387 
Q 3406 4025 3406 3419 
Q 3406 3131 3298 2873 
Q 3191 2616 2906 2266 
Q 2828 2175 2409 1742 
Q 1991 1309 1228 531 
z
" id="DejaVuSans-32" transform="scale(0.015625)"/>
        <path d="M 684 794 
L 1344 794 
L 1344 0 
L 684 0 
L 684 794 
z
" id="DejaVuSans-2e" transform="scale(0.015625)"/>
        <path d="M 691 4666 
L 3169 4666 
L 3169 4134 
L 1269 4134 
L 1269 2991 
Q 1406 3038 1543 3061 
Q 1681 3084 1819 3084 
Q 2600 3084 3056 2656 
Q 3513 2228 3513 1497 
Q 3513 744 3044 326 
Q 2575 -91 1722 -91 
Q 1428 -91 1123 -41 
Q 819 9 494 109 
L 494 744 
Q 775 591 1075 516 
Q 1375 441 1709 441 
Q 2250 441 2565 725 
Q 2881 1009 2881 1497 
Q 2881 1984 2565 2268 
Q 2250 2553 1709 2553 
Q 1456 2553 1204 2497 
Q 953 2441 691 2322 
L 691 4666 
z
" id="DejaVuSans-35" transform="scale(0.015625)"/>
       </defs>
       <use xlink:href="#DejaVuSans-36"/>
       <use x="63.623047" xlink:href="#DejaVuSans-36"/>
       <use x="127.246094" xlink:href="#DejaVuSans-31"/>
       <use x="190.869141" xlink:href="#DejaVuSans-32"/>
       <use x="254.492188" xlink:href="#DejaVuSans-2e"/>
       <use x="286.279297" xlink:href="#DejaVuSans-35"/>
      </g>
     </g>
    </g>
    <g id="xtick_2">
     <g id="line2d_2">
      <g>
       <use style="stroke:#000000;stroke-width:0.8;" x="206.643306" xlink:href="#m4b6091aead" y="348.478125"/>
      </g>
     </g>
     <g id="text_2">
      <!-- 6613.0 -->
      <g transform="translate(189.147993 363.076562)scale(0.1 -0.1)">
       <defs>
        <path d="M 2597 2516 
Q 3050 2419 3304 2112 
Q 3559 1806 3559 1356 
Q 3559 666 3084 287 
Q 2609 -91 1734 -91 
Q 1441 -91 1130 -33 
Q 819 25 488 141 
L 488 750 
Q 750 597 1062 519 
Q 1375 441 1716 441 
Q 2309 441 2620 675 
Q 2931 909 2931 1356 
Q 2931 1769 2642 2001 
Q 2353 2234 1838 2234 
L 1294 2234 
L 1294 2753 
L 1863 2753 
Q 2328 2753 2575 2939 
Q 2822 3125 2822 3475 
Q 2822 3834 2567 4026 
Q 2313 4219 1838 4219 
Q 1578 4219 1281 4162 
Q 984 4106 628 3988 
L 628 4550 
Q 988 4650 1302 4700 
Q 1616 4750 1894 4750 
Q 2613 4750 3031 4423 
Q 3450 4097 3450 3541 
Q 3450 3153 3228 2886 
Q 3006 2619 2597 2516 
z
" id="DejaVuSans-33" transform="scale(0.015625)"/>
        <path d="M 2034 4250 
Q 1547 4250 1301 3770 
Q 1056 3291 1056 2328 
Q 1056 1369 1301 889 
Q 1547 409 2034 409 
Q 2525 409 2770 889 
Q 3016 1369 3016 2328 
Q 3016 3291 2770 3770 
Q 2525 4250 2034 4250 
z
M 2034 4750 
Q 2819 4750 3233 4129 
Q 3647 3509 3647 2328 
Q 3647 1150 3233 529 
Q 2819 -91 2034 -91 
Q 1250 -91 836 529 
Q 422 1150 422 2328 
Q 422 3509 836 4129 
Q 1250 4750 2034 4750 
z
" id="DejaVuSans-30" transform="scale(0.015625)"/>
       </defs>
       <use xlink:href="#DejaVuSans-36"/>
       <use x="63.623047" xlink:href="#DejaVuSans-36"/>
       <use x="127.246094" xlink:href="#DejaVuSans-31"/>
       <use x="190.869141" xlink:href="#DejaVuSans-33"/>
       <use x="254.492188" xlink:href="#DejaVuSans-2e"/>
       <use x="286.279297" xlink:href="#DejaVuSans-30"/>
      </g>
     </g>
    </g>
    <g id="xtick_3">
     <g id="line2d_3">
      <g>
       <use style="stroke:#000000;stroke-width:0.8;" x="302.228168" xlink:href="#m4b6091aead" y="348.478125"/>
      </g>
     </g>
     <g id="text_3">
      <!-- 6613.5 -->
      <g transform="translate(284.732856 363.076562)scale(0.1 -0.1)">
       <use xlink:href="#DejaVuSans-36"/>
       <use x="63.623047" xlink:href="#DejaVuSans-36"/>
       <use x="127.246094" xlink:href="#DejaVuSans-31"/>
       <use x="190.869141" xlink:href="#DejaVuSans-33"/>
       <use x="254.492188" xlink:href="#DejaVuSans-2e"/>
       <use x="286.279297" xlink:href="#DejaVuSans-35"/>
      </g>
     </g>
    </g>
    <g id="xtick_4">
     <g id="line2d_4">
      <g>
       <use style="stroke:#000000;stroke-width:0.8;" x="397.813031" xlink:href="#m4b6091aead" y="348.478125"/>
      </g>
     </g>
     <g id="text_4">
      <!-- 6614.0 -->
      <g transform="translate(380.317718 363.076562)scale(0.1 -0.1)">
       <defs>
        <path d="M 2419 4116 
L 825 1625 
L 2419 1625 
L 2419 4116 
z
M 2253 4666 
L 3047 4666 
L 3047 1625 
L 3713 1625 
L 3713 1100 
L 3047 1100 
L 3047 0 
L 2419 0 
L 2419 1100 
L 313 1100 
L 313 1709 
L 2253 4666 
z
" id="DejaVuSans-34" transform="scale(0.015625)"/>
       </defs>
       <use xlink:href="#DejaVuSans-36"/>
       <use x="63.623047" xlink:href="#DejaVuSans-36"/>
       <use x="127.246094" xlink:href="#DejaVuSans-31"/>
       <use x="190.869141" xlink:href="#DejaVuSans-34"/>
       <use x="254.492188" xlink:href="#DejaVuSans-2e"/>
       <use x="286.279297" xlink:href="#DejaVuSans-30"/>
      </g>
     </g>
    </g>
    <g id="xtick_5">
     <g id="line2d_5">
      <g>
       <use style="stroke:#000000;stroke-width:0.8;" x="493.397894" xlink:href="#m4b6091aead" y="348.478125"/>
      </g>
     </g>
     <g id="text_5">
      <!-- 6614.5 -->
      <g transform="translate(475.902581 363.076562)scale(0.1 -0.1)">
       <use xlink:href="#DejaVuSans-36"/>
       <use x="63.623047" xlink:href="#DejaVuSans-36"/>
       <use x="127.246094" xlink:href="#DejaVuSans-31"/>
       <use x="190.869141" xlink:href="#DejaVuSans-34"/>
       <use x="254.492188" xlink:href="#DejaVuSans-2e"/>
       <use x="286.279297" xlink:href="#DejaVuSans-35"/>
      </g>
     </g>
    </g>
    <g id="xtick_6">
     <g id="line2d_6">
      <g>
       <use style="stroke:#000000;stroke-width:0.8;" x="588.982756" xlink:href="#m4b6091aead" y="348.478125"/>
      </g>
     </g>
     <g id="text_6">
      <!-- 6615.0 -->
      <g transform="translate(571.487444 363.076562)scale(0.1 -0.1)">
       <use xlink:href="#DejaVuSans-36"/>
       <use x="63.623047" xlink:href="#DejaVuSans-36"/>
       <use x="127.246094" xlink:href="#DejaVuSans-31"/>
       <use x="190.869141" xlink:href="#DejaVuSans-35"/>
       <use x="254.492188" xlink:href="#DejaVuSans-2e"/>
       <use x="286.279297" xlink:href="#DejaVuSans-30"/>
      </g>
     </g>
    </g>
    <g id="xtick_7">
     <g id="line2d_7">
      <g>
       <use style="stroke:#000000;stroke-width:0.8;" x="684.567619" xlink:href="#m4b6091aead" y="348.478125"/>
      </g>
     </g>
     <g id="text_7">
      <!-- 6615.5 -->
      <g transform="translate(667.072306 363.076562)scale(0.1 -0.1)">
       <use xlink:href="#DejaVuSans-36"/>
       <use x="63.623047" xlink:href="#DejaVuSans-36"/>
       <use x="127.246094" xlink:href="#DejaVuSans-31"/>
       <use x="190.869141" xlink:href="#DejaVuSans-35"/>
       <use x="254.492188" xlink:href="#DejaVuSans-2e"/>
       <use x="286.279297" xlink:href="#DejaVuSans-35"/>
      </g>
     </g>
    </g>
    <g id="xtick_8">
     <g id="line2d_8">
      <g>
       <use style="stroke:#000000;stroke-width:0.8;" x="780.152482" xlink:href="#m4b6091aead" y="348.478125"/>
      </g>
     </g>
     <g id="text_8">
      <!-- 6616.0 -->
      <g transform="translate(762.657169 363.076562)scale(0.1 -0.1)">
       <use xlink:href="#DejaVuSans-36"/>
       <use x="63.623047" xlink:href="#DejaVuSans-36"/>
       <use x="127.246094" xlink:href="#DejaVuSans-31"/>
       <use x="190.869141" xlink:href="#DejaVuSans-36"/>
       <use x="254.492188" xlink:href="#DejaVuSans-2e"/>
       <use x="286.279297" xlink:href="#DejaVuSans-30"/>
      </g>
     </g>
    </g>
    <g id="xtick_9">
     <g id="line2d_9">
      <g>
       <use style="stroke:#000000;stroke-width:0.8;" x="875.737344" xlink:href="#m4b6091aead" y="348.478125"/>
      </g>
     </g>
     <g id="text_9">
      <!-- 6616.5 -->
      <g transform="translate(858.242032 363.076562)scale(0.1 -0.1)">
       <use xlink:href="#DejaVuSans-36"/>
       <use x="63.623047" xlink:href="#DejaVuSans-36"/>
       <use x="127.246094" xlink:href="#DejaVuSans-31"/>
       <use x="190.869141" xlink:href="#DejaVuSans-36"/>
       <use x="254.492188" xlink:href="#DejaVuSans-2e"/>
       <use x="286.279297" xlink:href="#DejaVuSans-35"/>
      </g>
     </g>
    </g>
    <g id="text_10">
     <!-- Wavelength -->
     <g transform="translate(438.98125 376.754687)scale(0.1 -0.1)">
      <defs>
       <path d="M 213 4666 
L 850 4666 
L 1831 722 
L 2809 4666 
L 3519 4666 
L 4500 722 
L 5478 4666 
L 6119 4666 
L 4947 0 
L 4153 0 
L 3169 4050 
L 2175 0 
L 1381 0 
L 213 4666 
z
" id="DejaVuSans-57" transform="scale(0.015625)"/>
       <path d="M 2194 1759 
Q 1497 1759 1228 1600 
Q 959 1441 959 1056 
Q 959 750 1161 570 
Q 1363 391 1709 391 
Q 2188 391 2477 730 
Q 2766 1069 2766 1631 
L 2766 1759 
L 2194 1759 
z
M 3341 1997 
L 3341 0 
L 2766 0 
L 2766 531 
Q 2569 213 2275 61 
Q 1981 -91 1556 -91 
Q 1019 -91 701 211 
Q 384 513 384 1019 
Q 384 1609 779 1909 
Q 1175 2209 1959 2209 
L 2766 2209 
L 2766 2266 
Q 2766 2663 2505 2880 
Q 2244 3097 1772 3097 
Q 1472 3097 1187 3025 
Q 903 2953 641 2809 
L 641 3341 
Q 956 3463 1253 3523 
Q 1550 3584 1831 3584 
Q 2591 3584 2966 3190 
Q 3341 2797 3341 1997 
z
" id="DejaVuSans-61" transform="scale(0.015625)"/>
       <path d="M 191 3500 
L 800 3500 
L 1894 563 
L 2988 3500 
L 3597 3500 
L 2284 0 
L 1503 0 
L 191 3500 
z
" id="DejaVuSans-76" transform="scale(0.015625)"/>
       <path d="M 3597 1894 
L 3597 1613 
L 953 1613 
Q 991 1019 1311 708 
Q 1631 397 2203 397 
Q 2534 397 2845 478 
Q 3156 559 3463 722 
L 3463 178 
Q 3153 47 2828 -22 
Q 2503 -91 2169 -91 
Q 1331 -91 842 396 
Q 353 884 353 1716 
Q 353 2575 817 3079 
Q 1281 3584 2069 3584 
Q 2775 3584 3186 3129 
Q 3597 2675 3597 1894 
z
M 3022 2063 
Q 3016 2534 2758 2815 
Q 2500 3097 2075 3097 
Q 1594 3097 1305 2825 
Q 1016 2553 972 2059 
L 3022 2063 
z
" id="DejaVuSans-65" transform="scale(0.015625)"/>
       <path d="M 603 4863 
L 1178 4863 
L 1178 0 
L 603 0 
L 603 4863 
z
" id="DejaVuSans-6c" transform="scale(0.015625)"/>
       <path d="M 3513 2113 
L 3513 0 
L 2938 0 
L 2938 2094 
Q 2938 2591 2744 2837 
Q 2550 3084 2163 3084 
Q 1697 3084 1428 2787 
Q 1159 2491 1159 1978 
L 1159 0 
L 581 0 
L 581 3500 
L 1159 3500 
L 1159 2956 
Q 1366 3272 1645 3428 
Q 1925 3584 2291 3584 
Q 2894 3584 3203 3211 
Q 3513 2838 3513 2113 
z
" id="DejaVuSans-6e" transform="scale(0.015625)"/>
       <path d="M 2906 1791 
Q 2906 2416 2648 2759 
Q 2391 3103 1925 3103 
Q 1463 3103 1205 2759 
Q 947 2416 947 1791 
Q 947 1169 1205 825 
Q 1463 481 1925 481 
Q 2391 481 2648 825 
Q 2906 1169 2906 1791 
z
M 3481 434 
Q 3481 -459 3084 -895 
Q 2688 -1331 1869 -1331 
Q 1566 -1331 1297 -1286 
Q 1028 -1241 775 -1147 
L 775 -588 
Q 1028 -725 1275 -790 
Q 1522 -856 1778 -856 
Q 2344 -856 2625 -561 
Q 2906 -266 2906 331 
L 2906 616 
Q 2728 306 2450 153 
Q 2172 0 1784 0 
Q 1141 0 747 490 
Q 353 981 353 1791 
Q 353 2603 747 3093 
Q 1141 3584 1784 3584 
Q 2172 3584 2450 3431 
Q 2728 3278 2906 2969 
L 2906 3500 
L 3481 3500 
L 3481 434 
z
" id="DejaVuSans-67" transform="scale(0.015625)"/>
       <path d="M 1172 4494 
L 1172 3500 
L 2356 3500 
L 2356 3053 
L 1172 3053 
L 1172 1153 
Q 1172 725 1289 603 
Q 1406 481 1766 481 
L 2356 481 
L 2356 0 
L 1766 0 
Q 1100 0 847 248 
Q 594 497 594 1153 
L 594 3053 
L 172 3053 
L 172 3500 
L 594 3500 
L 594 4494 
L 1172 4494 
z
" id="DejaVuSans-74" transform="scale(0.015625)"/>
       <path d="M 3513 2113 
L 3513 0 
L 2938 0 
L 2938 2094 
Q 2938 2591 2744 2837 
Q 2550 3084 2163 3084 
Q 1697 3084 1428 2787 
Q 1159 2491 1159 1978 
L 1159 0 
L 581 0 
L 581 4863 
L 1159 4863 
L 1159 2956 
Q 1366 3272 1645 3428 
Q 1925 3584 2291 3584 
Q 2894 3584 3203 3211 
Q 3513 2838 3513 2113 
z
" id="DejaVuSans-68" transform="scale(0.015625)"/>
      </defs>
      <use xlink:href="#DejaVuSans-57"/>
      <use x="92.501953" xlink:href="#DejaVuSans-61"/>
      <use x="153.78125" xlink:href="#DejaVuSans-76"/>
      <use x="212.960938" xlink:href="#DejaVuSans-65"/>
      <use x="274.484375" xlink:href="#DejaVuSans-6c"/>
      <use x="302.267578" xlink:href="#DejaVuSans-65"/>
      <use x="363.791016" xlink:href="#DejaVuSans-6e"/>
      <use x="427.169922" xlink:href="#DejaVuSans-67"/>
      <use x="490.646484" xlink:href="#DejaVuSans-74"/>
      <use x="529.855469" xlink:href="#DejaVuSans-68"/>
     </g>
    </g>
   </g>
   <g id="matplotlib.axis_2">
    <g id="ytick_1">
     <g id="line2d_10">
      <defs>
       <path d="M 0 0 
L -3.5 0 
" id="m1efc89e8f6" style="stroke:#000000;stroke-width:0.8;"/>
      </defs>
      <g>
       <use style="stroke:#000000;stroke-width:0.8;" x="50.14375" xlink:href="#m1efc89e8f6" y="333.65267"/>
      </g>
     </g>
     <g id="text_11">
      <!-- 0.90 -->
      <g transform="translate(20.878125 337.451889)scale(0.1 -0.1)">
       <defs>
        <path d="M 703 97 
L 703 672 
Q 941 559 1184 500 
Q 1428 441 1663 441 
Q 2288 441 2617 861 
Q 2947 1281 2994 2138 
Q 2813 1869 2534 1725 
Q 2256 1581 1919 1581 
Q 1219 1581 811 2004 
Q 403 2428 403 3163 
Q 403 3881 828 4315 
Q 1253 4750 1959 4750 
Q 2769 4750 3195 4129 
Q 3622 3509 3622 2328 
Q 3622 1225 3098 567 
Q 2575 -91 1691 -91 
Q 1453 -91 1209 -44 
Q 966 3 703 97 
z
M 1959 2075 
Q 2384 2075 2632 2365 
Q 2881 2656 2881 3163 
Q 2881 3666 2632 3958 
Q 2384 4250 1959 4250 
Q 1534 4250 1286 3958 
Q 1038 3666 1038 3163 
Q 1038 2656 1286 2365 
Q 1534 2075 1959 2075 
z
" id="DejaVuSans-39" transform="scale(0.015625)"/>
       </defs>
       <use xlink:href="#DejaVuSans-30"/>
       <use x="63.623047" xlink:href="#DejaVuSans-2e"/>
       <use x="95.410156" xlink:href="#DejaVuSans-39"/>
       <use x="159.033203" xlink:href="#DejaVuSans-30"/>
      </g>
     </g>
    </g>
    <g id="ytick_2">
     <g id="line2d_11">
      <g>
       <use style="stroke:#000000;stroke-width:0.8;" x="50.14375" xlink:href="#m1efc89e8f6" y="274.350852"/>
      </g>
     </g>
     <g id="text_12">
      <!-- 0.92 -->
      <g transform="translate(20.878125 278.150071)scale(0.1 -0.1)">
       <use xlink:href="#DejaVuSans-30"/>
       <use x="63.623047" xlink:href="#DejaVuSans-2e"/>
       <use x="95.410156" xlink:href="#DejaVuSans-39"/>
       <use x="159.033203" xlink:href="#DejaVuSans-32"/>
      </g>
     </g>
    </g>
    <g id="ytick_3">
     <g id="line2d_12">
      <g>
       <use style="stroke:#000000;stroke-width:0.8;" x="50.14375" xlink:href="#m1efc89e8f6" y="215.049034"/>
      </g>
     </g>
     <g id="text_13">
      <!-- 0.94 -->
      <g transform="translate(20.878125 218.848253)scale(0.1 -0.1)">
       <use xlink:href="#DejaVuSans-30"/>
       <use x="63.623047" xlink:href="#DejaVuSans-2e"/>
       <use x="95.410156" xlink:href="#DejaVuSans-39"/>
       <use x="159.033203" xlink:href="#DejaVuSans-34"/>
      </g>
     </g>
    </g>
    <g id="ytick_4">
     <g id="line2d_13">
      <g>
       <use style="stroke:#000000;stroke-width:0.8;" x="50.14375" xlink:href="#m1efc89e8f6" y="155.747216"/>
      </g>
     </g>
     <g id="text_14">
      <!-- 0.96 -->
      <g transform="translate(20.878125 159.546435)scale(0.1 -0.1)">
       <use xlink:href="#DejaVuSans-30"/>
       <use x="63.623047" xlink:href="#DejaVuSans-2e"/>
       <use x="95.410156" xlink:href="#DejaVuSans-39"/>
       <use x="159.033203" xlink:href="#DejaVuSans-36"/>
      </g>
     </g>
    </g>
    <g id="ytick_5">
     <g id="line2d_14">
      <g>
       <use style="stroke:#000000;stroke-width:0.8;" x="50.14375" xlink:href="#m1efc89e8f6" y="96.445398"/>
      </g>
     </g>
     <g id="text_15">
      <!-- 0.98 -->
      <g transform="translate(20.878125 100.244616)scale(0.1 -0.1)">
       <defs>
        <path d="M 2034 2216 
Q 1584 2216 1326 1975 
Q 1069 1734 1069 1313 
Q 1069 891 1326 650 
Q 1584 409 2034 409 
Q 2484 409 2743 651 
Q 3003 894 3003 1313 
Q 3003 1734 2745 1975 
Q 2488 2216 2034 2216 
z
M 1403 2484 
Q 997 2584 770 2862 
Q 544 3141 544 3541 
Q 544 4100 942 4425 
Q 1341 4750 2034 4750 
Q 2731 4750 3128 4425 
Q 3525 4100 3525 3541 
Q 3525 3141 3298 2862 
Q 3072 2584 2669 2484 
Q 3125 2378 3379 2068 
Q 3634 1759 3634 1313 
Q 3634 634 3220 271 
Q 2806 -91 2034 -91 
Q 1263 -91 848 271 
Q 434 634 434 1313 
Q 434 1759 690 2068 
Q 947 2378 1403 2484 
z
M 1172 3481 
Q 1172 3119 1398 2916 
Q 1625 2713 2034 2713 
Q 2441 2713 2670 2916 
Q 2900 3119 2900 3481 
Q 2900 3844 2670 4047 
Q 2441 4250 2034 4250 
Q 1625 4250 1398 4047 
Q 1172 3844 1172 3481 
z
" id="DejaVuSans-38" transform="scale(0.015625)"/>
       </defs>
       <use xlink:href="#DejaVuSans-30"/>
       <use x="63.623047" xlink:href="#DejaVuSans-2e"/>
       <use x="95.410156" xlink:href="#DejaVuSans-39"/>
       <use x="159.033203" xlink:href="#DejaVuSans-38"/>
      </g>
     </g>
    </g>
    <g id="ytick_6">
     <g id="line2d_15">
      <g>
       <use style="stroke:#000000;stroke-width:0.8;" x="50.14375" xlink:href="#m1efc89e8f6" y="37.14358"/>
      </g>
     </g>
     <g id="text_16">
      <!-- 1.00 -->
      <g transform="translate(20.878125 40.942798)scale(0.1 -0.1)">
       <use xlink:href="#DejaVuSans-31"/>
       <use x="63.623047" xlink:href="#DejaVuSans-2e"/>
       <use x="95.410156" xlink:href="#DejaVuSans-30"/>
       <use x="159.033203" xlink:href="#DejaVuSans-30"/>
      </g>
     </g>
    </g>
    <g id="text_17">
     <!-- Normalized Intenisty -->
     <g transform="translate(14.798438 237.105156)rotate(-90)scale(0.1 -0.1)">
      <defs>
       <path d="M 628 4666 
L 1478 4666 
L 3547 763 
L 3547 4666 
L 4159 4666 
L 4159 0 
L 3309 0 
L 1241 3903 
L 1241 0 
L 628 0 
L 628 4666 
z
" id="DejaVuSans-4e" transform="scale(0.015625)"/>
       <path d="M 1959 3097 
Q 1497 3097 1228 2736 
Q 959 2375 959 1747 
Q 959 1119 1226 758 
Q 1494 397 1959 397 
Q 2419 397 2687 759 
Q 2956 1122 2956 1747 
Q 2956 2369 2687 2733 
Q 2419 3097 1959 3097 
z
M 1959 3584 
Q 2709 3584 3137 3096 
Q 3566 2609 3566 1747 
Q 3566 888 3137 398 
Q 2709 -91 1959 -91 
Q 1206 -91 779 398 
Q 353 888 353 1747 
Q 353 2609 779 3096 
Q 1206 3584 1959 3584 
z
" id="DejaVuSans-6f" transform="scale(0.015625)"/>
       <path d="M 2631 2963 
Q 2534 3019 2420 3045 
Q 2306 3072 2169 3072 
Q 1681 3072 1420 2755 
Q 1159 2438 1159 1844 
L 1159 0 
L 581 0 
L 581 3500 
L 1159 3500 
L 1159 2956 
Q 1341 3275 1631 3429 
Q 1922 3584 2338 3584 
Q 2397 3584 2469 3576 
Q 2541 3569 2628 3553 
L 2631 2963 
z
" id="DejaVuSans-72" transform="scale(0.015625)"/>
       <path d="M 3328 2828 
Q 3544 3216 3844 3400 
Q 4144 3584 4550 3584 
Q 5097 3584 5394 3201 
Q 5691 2819 5691 2113 
L 5691 0 
L 5113 0 
L 5113 2094 
Q 5113 2597 4934 2840 
Q 4756 3084 4391 3084 
Q 3944 3084 3684 2787 
Q 3425 2491 3425 1978 
L 3425 0 
L 2847 0 
L 2847 2094 
Q 2847 2600 2669 2842 
Q 2491 3084 2119 3084 
Q 1678 3084 1418 2786 
Q 1159 2488 1159 1978 
L 1159 0 
L 581 0 
L 581 3500 
L 1159 3500 
L 1159 2956 
Q 1356 3278 1631 3431 
Q 1906 3584 2284 3584 
Q 2666 3584 2933 3390 
Q 3200 3197 3328 2828 
z
" id="DejaVuSans-6d" transform="scale(0.015625)"/>
       <path d="M 603 3500 
L 1178 3500 
L 1178 0 
L 603 0 
L 603 3500 
z
M 603 4863 
L 1178 4863 
L 1178 4134 
L 603 4134 
L 603 4863 
z
" id="DejaVuSans-69" transform="scale(0.015625)"/>
       <path d="M 353 3500 
L 3084 3500 
L 3084 2975 
L 922 459 
L 3084 459 
L 3084 0 
L 275 0 
L 275 525 
L 2438 3041 
L 353 3041 
L 353 3500 
z
" id="DejaVuSans-7a" transform="scale(0.015625)"/>
       <path d="M 2906 2969 
L 2906 4863 
L 3481 4863 
L 3481 0 
L 2906 0 
L 2906 525 
Q 2725 213 2448 61 
Q 2172 -91 1784 -91 
Q 1150 -91 751 415 
Q 353 922 353 1747 
Q 353 2572 751 3078 
Q 1150 3584 1784 3584 
Q 2172 3584 2448 3432 
Q 2725 3281 2906 2969 
z
M 947 1747 
Q 947 1113 1208 752 
Q 1469 391 1925 391 
Q 2381 391 2643 752 
Q 2906 1113 2906 1747 
Q 2906 2381 2643 2742 
Q 2381 3103 1925 3103 
Q 1469 3103 1208 2742 
Q 947 2381 947 1747 
z
" id="DejaVuSans-64" transform="scale(0.015625)"/>
       <path id="DejaVuSans-20" transform="scale(0.015625)"/>
       <path d="M 628 4666 
L 1259 4666 
L 1259 0 
L 628 0 
L 628 4666 
z
" id="DejaVuSans-49" transform="scale(0.015625)"/>
       <path d="M 2834 3397 
L 2834 2853 
Q 2591 2978 2328 3040 
Q 2066 3103 1784 3103 
Q 1356 3103 1142 2972 
Q 928 2841 928 2578 
Q 928 2378 1081 2264 
Q 1234 2150 1697 2047 
L 1894 2003 
Q 2506 1872 2764 1633 
Q 3022 1394 3022 966 
Q 3022 478 2636 193 
Q 2250 -91 1575 -91 
Q 1294 -91 989 -36 
Q 684 19 347 128 
L 347 722 
Q 666 556 975 473 
Q 1284 391 1588 391 
Q 1994 391 2212 530 
Q 2431 669 2431 922 
Q 2431 1156 2273 1281 
Q 2116 1406 1581 1522 
L 1381 1569 
Q 847 1681 609 1914 
Q 372 2147 372 2553 
Q 372 3047 722 3315 
Q 1072 3584 1716 3584 
Q 2034 3584 2315 3537 
Q 2597 3491 2834 3397 
z
" id="DejaVuSans-73" transform="scale(0.015625)"/>
       <path d="M 2059 -325 
Q 1816 -950 1584 -1140 
Q 1353 -1331 966 -1331 
L 506 -1331 
L 506 -850 
L 844 -850 
Q 1081 -850 1212 -737 
Q 1344 -625 1503 -206 
L 1606 56 
L 191 3500 
L 800 3500 
L 1894 763 
L 2988 3500 
L 3597 3500 
L 2059 -325 
z
" id="DejaVuSans-79" transform="scale(0.015625)"/>
      </defs>
      <use xlink:href="#DejaVuSans-4e"/>
      <use x="74.804688" xlink:href="#DejaVuSans-6f"/>
      <use x="135.986328" xlink:href="#DejaVuSans-72"/>
      <use x="175.349609" xlink:href="#DejaVuSans-6d"/>
      <use x="272.761719" xlink:href="#DejaVuSans-61"/>
      <use x="334.041016" xlink:href="#DejaVuSans-6c"/>
      <use x="361.824219" xlink:href="#DejaVuSans-69"/>
      <use x="389.607422" xlink:href="#DejaVuSans-7a"/>
      <use x="442.097656" xlink:href="#DejaVuSans-65"/>
      <use x="503.621094" xlink:href="#DejaVuSans-64"/>
      <use x="567.097656" xlink:href="#DejaVuSans-20"/>
      <use x="598.884766" xlink:href="#DejaVuSans-49"/>
      <use x="628.376953" xlink:href="#DejaVuSans-6e"/>
      <use x="691.755859" xlink:href="#DejaVuSans-74"/>
      <use x="730.964844" xlink:href="#DejaVuSans-65"/>
      <use x="792.488281" xlink:href="#DejaVuSans-6e"/>
      <use x="855.867188" xlink:href="#DejaVuSans-69"/>
      <use x="883.650391" xlink:href="#DejaVuSans-73"/>
      <use x="935.75" xlink:href="#DejaVuSans-74"/>
      <use x="974.958984" xlink:href="#DejaVuSans-79"/>
     </g>
    </g>
   </g>
   <g id="line2d_16">
    <path clip-path="url(#p243b47c845)" d="M 575.724181 37.14358 
L 525.674319 37.25201 
L 517.868734 37.505518 
L 512.358968 37.908423 
L 508.226674 38.415859 
L 504.553548 39.074107 
L 501.339579 39.853539 
L 498.125627 40.862891 
L 495.370823 41.941148 
L 492.616032 43.243077 
L 489.861253 44.794653 
L 487.106486 46.622427 
L 484.351731 48.753916 
L 481.596987 51.21817 
L 479.301377 53.548382 
L 477.005775 56.150926 
L 474.710182 59.046987 
L 472.414597 62.259453 
L 470.11902 65.81288 
L 467.823451 69.733244 
L 465.527891 74.04745 
L 463.232339 78.782533 
L 460.936796 83.96453 
L 458.641261 89.616984 
L 455.88663 97.047517 
L 453.13201 105.203063 
L 450.377403 114.084161 
L 447.622808 123.665187 
L 444.409129 135.648429 
L 440.736373 150.207892 
L 433.850012 178.70714 
L 429.259147 197.196708 
L 426.045561 209.172344 
L 423.750153 216.996195 
L 421.454752 224.079061 
L 419.618438 229.151173 
L 417.78213 233.661342 
L 415.945826 237.594933 
L 414.109528 240.95447 
L 412.273235 243.760566 
L 410.436948 246.052201 
L 408.600666 247.886299 
L 406.764389 249.336565 
L 404.928117 250.491564 
L 402.17372 251.893445 
L 398.501209 253.733535 
L 396.664962 254.898982 
L 394.82872 256.373239 
L 393.451542 257.739812 
L 392.074367 259.369017 
L 390.697195 261.289359 
L 389.320026 263.522202 
L 387.483805 267.007339 
L 385.647589 271.078337 
L 383.811379 275.713332 
L 381.516124 282.217902 
L 378.761829 290.836019 
L 370.499015 317.45557 
L 368.662849 322.426338 
L 367.285728 325.684042 
L 365.90861 328.461584 
L 364.531495 330.696572 
L 363.61342 331.857964 
L 362.695346 332.740131 
L 361.777274 333.331374 
L 360.859203 333.622219 
L 359.941133 333.605541 
L 359.023065 333.276676 
L 358.104998 332.633497 
L 357.186932 331.676463 
L 356.268868 330.408651 
L 355.350805 328.835742 
L 353.973713 325.923066 
L 352.596623 322.381436 
L 351.219537 318.261136 
L 349.383427 311.974392 
L 347.088297 303.086305 
L 344.334152 291.422198 
L 338.366879 265.733552 
L 336.071788 256.872285 
L 334.235722 250.562468 
L 332.399662 245.095628 
L 331.022619 241.613303 
L 329.64558 238.697122 
L 328.268544 236.368268 
L 327.350522 235.147555 
L 326.432501 234.193166 
L 325.514481 233.503531 
L 324.596463 233.075125 
L 323.678446 232.902551 
L 322.76043 232.978637 
L 321.842416 233.294538 
L 320.924402 233.839848 
L 320.006391 234.602719 
L 318.629376 236.125817 
L 317.252364 238.05915 
L 315.875354 240.348236 
L 314.039347 243.851843 
L 311.744345 248.747742 
L 304.85939 263.946119 
L 303.023414 267.387506 
L 301.646436 269.620895 
L 300.269461 271.492628 
L 298.892489 272.949305 
L 297.974509 273.665343 
L 297.056531 274.161503 
L 296.138554 274.425348 
L 295.220578 274.445522 
L 294.302604 274.211808 
L 293.384631 273.715204 
L 292.466659 272.947986 
L 291.548688 271.903769 
L 290.630719 270.577569 
L 289.253768 268.052228 
L 287.87682 264.879258 
L 286.499875 261.06095 
L 285.122933 256.607621 
L 283.287015 249.714983 
L 281.451102 241.792597 
L 279.615195 232.930025 
L 277.320318 220.701387 
L 274.566476 204.686078 
L 270.435737 178.99594 
L 264.010196 138.936092 
L 260.79745 120.510473 
L 258.043681 106.162232 
L 255.748882 95.396294 
L 253.454092 85.786377 
L 251.618266 78.943408 
L 249.782445 72.839971 
L 247.94663 67.449363 
L 246.11082 62.732915 
L 244.275015 58.643061 
L 242.439215 55.126319 
L 240.603421 52.126023 
L 238.767632 49.584719 
L 236.931849 47.446141 
L 235.096071 45.656754 
L 233.260298 44.166871 
L 231.42453 42.931358 
L 229.129828 41.683888 
L 226.835135 40.703792 
L 224.081513 39.802544 
L 221.327904 39.129339 
L 217.656444 38.487618 
L 213.526076 38.006018 
L 208.018962 37.613257 
L 200.676217 37.342332 
L 189.662259 37.19017 
L 165.34045 37.144307 
L 117.158497 37.14358 
L 117.158497 37.14358 
" style="fill:none;stroke:#e77e63;stroke-linecap:square;"/>
   </g>
   <g id="line2d_17">
    <path clip-path="url(#p243b47c845)" d="M 88.189205 38.224345 
L 92.012868 41.584325 
L 95.836532 45.980392 
L 99.660196 41.689452 
L 103.48386 42.006002 
L 107.307523 45.835842 
L 111.131187 44.980516 
L 114.954851 43.066034 
L 118.778515 40.399017 
L 122.602179 37.14358 
L 126.425842 39.874841 
L 130.249506 44.750404 
L 134.07317 44.107377 
L 137.896834 45.766633 
L 141.720497 47.721998 
L 145.544161 45.576236 
L 153.191489 47.643445 
L 157.015152 43.641313 
L 160.838816 46.1045 
L 164.66248 47.969631 
L 168.486144 44.813481 
L 172.309808 41.879849 
L 176.133471 39.5653 
L 179.957135 39.433015 
L 183.780799 40.585033 
L 187.604463 42.373947 
L 191.428126 45.79788 
L 195.25179 45.072794 
L 199.075454 45.278376 
L 202.899118 46.857912 
L 206.722782 47.918236 
L 210.546445 47.488966 
L 214.370109 44.460721 
L 218.193773 49.072298 
L 222.017437 49.4528 
L 225.8411 46.576112 
L 229.664764 55.803647 
L 233.488428 60.991088 
L 237.312092 64.422321 
L 241.135755 72.945212 
L 244.959419 81.04555 
L 248.783083 89.848488 
L 252.606747 108.864236 
L 256.430411 123.751116 
L 260.254074 139.366001 
L 264.077738 167.603151 
L 267.901402 185.362922 
L 271.725066 202.378334 
L 279.372393 243.245635 
L 283.196057 260.516856 
L 287.019721 268.893153 
L 290.843385 268.393507 
L 294.667048 267.292885 
L 298.490712 266.362801 
L 302.314376 263.215704 
L 306.13804 257.815089 
L 309.961703 248.26458 
L 313.785367 244.17747 
L 317.609031 242.960623 
L 321.432695 244.433279 
L 325.256358 248.760137 
L 329.080022 254.368962 
L 332.903686 260.933569 
L 336.72735 277.910726 
L 340.551014 292.941571 
L 344.374677 307.317124 
L 348.198341 320.896923 
L 352.022005 328.553683 
L 355.845669 332.826517 
L 363.492996 321.817661 
L 367.31666 314.188935 
L 371.140324 296.777252 
L 374.963988 287.739822 
L 378.787651 279.021569 
L 382.611315 268.354377 
L 386.434979 258.032351 
L 390.258643 249.516761 
L 394.082306 245.163913 
L 397.90597 239.117058 
L 401.729634 237.300403 
L 405.553298 242.66948 
L 409.376962 243.809525 
L 413.200625 245.900679 
L 417.024289 249.210432 
L 420.847953 235.823658 
L 424.671617 229.763955 
L 428.49528 228.582734 
L 432.318944 218.920382 
L 436.142608 206.114728 
L 439.966272 191.205655 
L 443.789935 179.162465 
L 447.613599 171.245223 
L 451.437263 164.90518 
L 455.260927 158.047678 
L 462.908254 140.419608 
L 466.731918 132.139094 
L 470.555582 132.388187 
L 474.379246 132.416805 
L 478.202909 128.48505 
L 482.026573 125.623547 
L 485.850237 123.322723 
L 489.673901 122.651953 
L 493.497565 117.914807 
L 497.321228 112.520033 
L 501.144892 105.880962 
L 504.968556 106.302346 
L 512.615883 105.840955 
L 516.439547 95.942651 
L 520.263211 90.291191 
L 524.086875 86.666056 
L 527.910538 87.531311 
L 531.734202 86.388929 
L 535.557866 85.085937 
L 539.38153 88.768307 
L 543.205194 88.84102 
L 547.028857 87.514958 
L 550.852521 83.652411 
L 554.676185 82.493969 
L 558.499849 81.576734 
L 562.323512 81.239452 
L 566.147176 77.369605 
L 569.97084 74.878967 
L 573.794504 75.455707 
L 577.618168 74.625202 
L 581.441831 73.006828 
L 585.265495 70.8196 
L 589.089159 65.9417 
L 592.912823 63.88588 
L 596.736486 64.271347 
L 600.56015 65.1147 
L 604.383814 62.597781 
L 608.207478 58.592437 
L 612.031142 60.197378 
L 615.854805 59.220864 
L 619.678469 57.561899 
L 623.502133 56.54567 
L 627.325797 55.23158 
L 631.14946 53.678911 
L 634.973124 50.004717 
L 638.796788 52.42235 
L 642.620452 53.075306 
L 646.444115 46.254599 
L 650.267779 50.57182 
L 654.091443 51.328443 
L 657.915107 44.963287 
L 661.738771 46.91982 
L 665.562434 46.139251 
L 669.386098 42.140331 
L 673.209762 50.217308 
L 677.033426 48.702017 
L 680.857089 41.475694 
L 684.680753 47.268783 
L 688.504417 48.762173 
L 692.328081 49.00893 
L 696.151745 50.093783 
L 699.975408 46.71745 
L 703.799072 43.180214 
L 707.622736 44.526133 
L 715.270063 44.534018 
L 719.093727 44.333984 
L 722.917391 48.957242 
L 726.741055 51.306542 
L 730.564718 48.899714 
L 734.388382 48.886865 
L 738.212046 48.197699 
L 742.03571 47.028159 
L 745.859374 43.115969 
L 749.683037 42.29481 
L 753.506701 43.329436 
L 757.330365 40.15372 
L 761.154029 42.580113 
L 764.977692 47.021151 
L 768.801356 49.866592 
L 772.62502 51.350053 
L 776.448684 51.789251 
L 780.272348 48.914023 
L 784.096011 48.83839 
L 787.919675 49.263863 
L 791.743339 50.896546 
L 795.567003 50.972179 
L 799.390666 49.691672 
L 803.21433 45.846939 
L 807.037994 48.144259 
L 810.861658 47.136791 
L 814.685321 42.847603 
L 818.508985 43.59459 
L 822.332649 45.034248 
L 826.156313 47.255351 
L 829.979977 50.317179 
L 833.80364 53.049608 
L 837.627304 54.720838 
L 841.450968 46.553043 
L 845.274632 46.311834 
L 849.098295 47.45042 
L 849.098295 47.45042 
" style="fill:none;stroke:#000000;stroke-linecap:square;stroke-width:1.5;"/>
   </g>
   <g id="patch_3">
    <path d="M 50.14375 348.478125 
L 50.14375 22.318125 
" style="fill:none;stroke:#000000;stroke-linecap:square;stroke-linejoin:miter;stroke-width:0.8;"/>
   </g>
   <g id="patch_4">
    <path d="M 887.14375 348.478125 
L 887.14375 22.318125 
" style="fill:none;stroke:#000000;stroke-linecap:square;stroke-linejoin:miter;stroke-width:0.8;"/>
   </g>
   <g id="patch_5">
    <path d="M 50.14375 348.478125 
L 887.14375 348.478125 
" style="fill:none;stroke:#000000;stroke-linecap:square;stroke-linejoin:miter;stroke-width:0.8;"/>
   </g>
   <g id="patch_6">
    <path d="M 50.14375 22.318125 
L 887.14375 22.318125 
" style="fill:none;stroke:#000000;stroke-linecap:square;stroke-linejoin:miter;stroke-width:0.8;"/>
   </g>
   <g id="text_18">
    <!-- Circumcoronene (C54H18) :  ground_B =  0.00219 cm-1    Delta_B = -0.11,    Delta_C = 0.07    zeta = -0.36 -->
    <g transform="translate(145.396563 16.318125)scale(0.12 -0.12)">
     <defs>
      <path d="M 4122 4306 
L 4122 3641 
Q 3803 3938 3442 4084 
Q 3081 4231 2675 4231 
Q 1875 4231 1450 3742 
Q 1025 3253 1025 2328 
Q 1025 1406 1450 917 
Q 1875 428 2675 428 
Q 3081 428 3442 575 
Q 3803 722 4122 1019 
L 4122 359 
Q 3791 134 3420 21 
Q 3050 -91 2638 -91 
Q 1578 -91 968 557 
Q 359 1206 359 2328 
Q 359 3453 968 4101 
Q 1578 4750 2638 4750 
Q 3056 4750 3426 4639 
Q 3797 4528 4122 4306 
z
" id="DejaVuSans-43" transform="scale(0.015625)"/>
      <path d="M 3122 3366 
L 3122 2828 
Q 2878 2963 2633 3030 
Q 2388 3097 2138 3097 
Q 1578 3097 1268 2742 
Q 959 2388 959 1747 
Q 959 1106 1268 751 
Q 1578 397 2138 397 
Q 2388 397 2633 464 
Q 2878 531 3122 666 
L 3122 134 
Q 2881 22 2623 -34 
Q 2366 -91 2075 -91 
Q 1284 -91 818 406 
Q 353 903 353 1747 
Q 353 2603 823 3093 
Q 1294 3584 2113 3584 
Q 2378 3584 2631 3529 
Q 2884 3475 3122 3366 
z
" id="DejaVuSans-63" transform="scale(0.015625)"/>
      <path d="M 544 1381 
L 544 3500 
L 1119 3500 
L 1119 1403 
Q 1119 906 1312 657 
Q 1506 409 1894 409 
Q 2359 409 2629 706 
Q 2900 1003 2900 1516 
L 2900 3500 
L 3475 3500 
L 3475 0 
L 2900 0 
L 2900 538 
Q 2691 219 2414 64 
Q 2138 -91 1772 -91 
Q 1169 -91 856 284 
Q 544 659 544 1381 
z
M 1991 3584 
L 1991 3584 
z
" id="DejaVuSans-75" transform="scale(0.015625)"/>
      <path d="M 1984 4856 
Q 1566 4138 1362 3434 
Q 1159 2731 1159 2009 
Q 1159 1288 1364 580 
Q 1569 -128 1984 -844 
L 1484 -844 
Q 1016 -109 783 600 
Q 550 1309 550 2009 
Q 550 2706 781 3412 
Q 1013 4119 1484 4856 
L 1984 4856 
z
" id="DejaVuSans-28" transform="scale(0.015625)"/>
      <path d="M 628 4666 
L 1259 4666 
L 1259 2753 
L 3553 2753 
L 3553 4666 
L 4184 4666 
L 4184 0 
L 3553 0 
L 3553 2222 
L 1259 2222 
L 1259 0 
L 628 0 
L 628 4666 
z
" id="DejaVuSans-48" transform="scale(0.015625)"/>
      <path d="M 513 4856 
L 1013 4856 
Q 1481 4119 1714 3412 
Q 1947 2706 1947 2009 
Q 1947 1309 1714 600 
Q 1481 -109 1013 -844 
L 513 -844 
Q 928 -128 1133 580 
Q 1338 1288 1338 2009 
Q 1338 2731 1133 3434 
Q 928 4138 513 4856 
z
" id="DejaVuSans-29" transform="scale(0.015625)"/>
      <path d="M 750 794 
L 1409 794 
L 1409 0 
L 750 0 
L 750 794 
z
M 750 3309 
L 1409 3309 
L 1409 2516 
L 750 2516 
L 750 3309 
z
" id="DejaVuSans-3a" transform="scale(0.015625)"/>
      <path d="M 3263 -1063 
L 3263 -1509 
L -63 -1509 
L -63 -1063 
L 3263 -1063 
z
" id="DejaVuSans-5f" transform="scale(0.015625)"/>
      <path d="M 1259 2228 
L 1259 519 
L 2272 519 
Q 2781 519 3026 730 
Q 3272 941 3272 1375 
Q 3272 1813 3026 2020 
Q 2781 2228 2272 2228 
L 1259 2228 
z
M 1259 4147 
L 1259 2741 
L 2194 2741 
Q 2656 2741 2882 2914 
Q 3109 3088 3109 3444 
Q 3109 3797 2882 3972 
Q 2656 4147 2194 4147 
L 1259 4147 
z
M 628 4666 
L 2241 4666 
Q 2963 4666 3353 4366 
Q 3744 4066 3744 3513 
Q 3744 3084 3544 2831 
Q 3344 2578 2956 2516 
Q 3422 2416 3680 2098 
Q 3938 1781 3938 1306 
Q 3938 681 3513 340 
Q 3088 0 2303 0 
L 628 0 
L 628 4666 
z
" id="DejaVuSans-42" transform="scale(0.015625)"/>
      <path d="M 678 2906 
L 4684 2906 
L 4684 2381 
L 678 2381 
L 678 2906 
z
M 678 1631 
L 4684 1631 
L 4684 1100 
L 678 1100 
L 678 1631 
z
" id="DejaVuSans-3d" transform="scale(0.015625)"/>
      <path d="M 313 2009 
L 1997 2009 
L 1997 1497 
L 313 1497 
L 313 2009 
z
" id="DejaVuSans-2d" transform="scale(0.015625)"/>
      <path d="M 1259 4147 
L 1259 519 
L 2022 519 
Q 2988 519 3436 956 
Q 3884 1394 3884 2338 
Q 3884 3275 3436 3711 
Q 2988 4147 2022 4147 
L 1259 4147 
z
M 628 4666 
L 1925 4666 
Q 3281 4666 3915 4102 
Q 4550 3538 4550 2338 
Q 4550 1131 3912 565 
Q 3275 0 1925 0 
L 628 0 
L 628 4666 
z
" id="DejaVuSans-44" transform="scale(0.015625)"/>
      <path d="M 750 794 
L 1409 794 
L 1409 256 
L 897 -744 
L 494 -744 
L 750 256 
L 750 794 
z
" id="DejaVuSans-2c" transform="scale(0.015625)"/>
      <path d="M 525 4666 
L 3525 4666 
L 3525 4397 
L 1831 0 
L 1172 0 
L 2766 4134 
L 525 4134 
L 525 4666 
z
" id="DejaVuSans-37" transform="scale(0.015625)"/>
     </defs>
     <use xlink:href="#DejaVuSans-43"/>
     <use x="69.824219" xlink:href="#DejaVuSans-69"/>
     <use x="97.607422" xlink:href="#DejaVuSans-72"/>
     <use x="136.470703" xlink:href="#DejaVuSans-63"/>
     <use x="191.451172" xlink:href="#DejaVuSans-75"/>
     <use x="254.830078" xlink:href="#DejaVuSans-6d"/>
     <use x="352.242188" xlink:href="#DejaVuSans-63"/>
     <use x="407.222656" xlink:href="#DejaVuSans-6f"/>
     <use x="468.404297" xlink:href="#DejaVuSans-72"/>
     <use x="507.267578" xlink:href="#DejaVuSans-6f"/>
     <use x="568.449219" xlink:href="#DejaVuSans-6e"/>
     <use x="631.828125" xlink:href="#DejaVuSans-65"/>
     <use x="693.351562" xlink:href="#DejaVuSans-6e"/>
     <use x="756.730469" xlink:href="#DejaVuSans-65"/>
     <use x="818.253906" xlink:href="#DejaVuSans-20"/>
     <use x="850.041016" xlink:href="#DejaVuSans-28"/>
     <use x="889.054688" xlink:href="#DejaVuSans-43"/>
     <use x="958.878906" xlink:href="#DejaVuSans-35"/>
     <use x="1022.501953" xlink:href="#DejaVuSans-34"/>
     <use x="1086.125" xlink:href="#DejaVuSans-48"/>
     <use x="1161.320312" xlink:href="#DejaVuSans-31"/>
     <use x="1224.943359" xlink:href="#DejaVuSans-38"/>
     <use x="1288.566406" xlink:href="#DejaVuSans-29"/>
     <use x="1327.580078" xlink:href="#DejaVuSans-20"/>
     <use x="1359.367188" xlink:href="#DejaVuSans-3a"/>
     <use x="1393.058594" xlink:href="#DejaVuSans-20"/>
     <use x="1424.845703" xlink:href="#DejaVuSans-20"/>
     <use x="1456.632812" xlink:href="#DejaVuSans-67"/>
     <use x="1520.109375" xlink:href="#DejaVuSans-72"/>
     <use x="1558.972656" xlink:href="#DejaVuSans-6f"/>
     <use x="1620.154297" xlink:href="#DejaVuSans-75"/>
     <use x="1683.533203" xlink:href="#DejaVuSans-6e"/>
     <use x="1746.912109" xlink:href="#DejaVuSans-64"/>
     <use x="1810.388672" xlink:href="#DejaVuSans-5f"/>
     <use x="1860.388672" xlink:href="#DejaVuSans-42"/>
     <use x="1928.992188" xlink:href="#DejaVuSans-20"/>
     <use x="1960.779297" xlink:href="#DejaVuSans-3d"/>
     <use x="2044.568359" xlink:href="#DejaVuSans-20"/>
     <use x="2076.355469" xlink:href="#DejaVuSans-20"/>
     <use x="2108.142578" xlink:href="#DejaVuSans-30"/>
     <use x="2171.765625" xlink:href="#DejaVuSans-2e"/>
     <use x="2203.552734" xlink:href="#DejaVuSans-30"/>
     <use x="2267.175781" xlink:href="#DejaVuSans-30"/>
     <use x="2330.798828" xlink:href="#DejaVuSans-32"/>
     <use x="2394.421875" xlink:href="#DejaVuSans-31"/>
     <use x="2458.044922" xlink:href="#DejaVuSans-39"/>
     <use x="2521.667969" xlink:href="#DejaVuSans-20"/>
     <use x="2553.455078" xlink:href="#DejaVuSans-63"/>
     <use x="2608.435547" xlink:href="#DejaVuSans-6d"/>
     <use x="2705.847656" xlink:href="#DejaVuSans-2d"/>
     <use x="2741.931641" xlink:href="#DejaVuSans-31"/>
     <use x="2805.554688" xlink:href="#DejaVuSans-20"/>
     <use x="2837.341797" xlink:href="#DejaVuSans-20"/>
     <use x="2869.128906" xlink:href="#DejaVuSans-20"/>
     <use x="2900.916016" xlink:href="#DejaVuSans-20"/>
     <use x="2932.703125" xlink:href="#DejaVuSans-44"/>
     <use x="3009.705078" xlink:href="#DejaVuSans-65"/>
     <use x="3071.228516" xlink:href="#DejaVuSans-6c"/>
     <use x="3099.011719" xlink:href="#DejaVuSans-74"/>
     <use x="3138.220703" xlink:href="#DejaVuSans-61"/>
     <use x="3199.5" xlink:href="#DejaVuSans-5f"/>
     <use x="3249.5" xlink:href="#DejaVuSans-42"/>
     <use x="3318.103516" xlink:href="#DejaVuSans-20"/>
     <use x="3349.890625" xlink:href="#DejaVuSans-3d"/>
     <use x="3433.679688" xlink:href="#DejaVuSans-20"/>
     <use x="3465.466797" xlink:href="#DejaVuSans-2d"/>
     <use x="3501.550781" xlink:href="#DejaVuSans-30"/>
     <use x="3565.173828" xlink:href="#DejaVuSans-2e"/>
     <use x="3596.960938" xlink:href="#DejaVuSans-31"/>
     <use x="3660.583984" xlink:href="#DejaVuSans-31"/>
     <use x="3724.207031" xlink:href="#DejaVuSans-2c"/>
     <use x="3755.994141" xlink:href="#DejaVuSans-20"/>
     <use x="3787.78125" xlink:href="#DejaVuSans-20"/>
     <use x="3819.568359" xlink:href="#DejaVuSans-20"/>
     <use x="3851.355469" xlink:href="#DejaVuSans-20"/>
     <use x="3883.142578" xlink:href="#DejaVuSans-44"/>
     <use x="3960.144531" xlink:href="#DejaVuSans-65"/>
     <use x="4021.667969" xlink:href="#DejaVuSans-6c"/>
     <use x="4049.451172" xlink:href="#DejaVuSans-74"/>
     <use x="4088.660156" xlink:href="#DejaVuSans-61"/>
     <use x="4149.939453" xlink:href="#DejaVuSans-5f"/>
     <use x="4199.939453" xlink:href="#DejaVuSans-43"/>
     <use x="4269.763672" xlink:href="#DejaVuSans-20"/>
     <use x="4301.550781" xlink:href="#DejaVuSans-3d"/>
     <use x="4385.339844" xlink:href="#DejaVuSans-20"/>
     <use x="4417.126953" xlink:href="#DejaVuSans-30"/>
     <use x="4480.75" xlink:href="#DejaVuSans-2e"/>
     <use x="4512.537109" xlink:href="#DejaVuSans-30"/>
     <use x="4576.160156" xlink:href="#DejaVuSans-37"/>
     <use x="4639.783203" xlink:href="#DejaVuSans-20"/>
     <use x="4671.570312" xlink:href="#DejaVuSans-20"/>
     <use x="4703.357422" xlink:href="#DejaVuSans-20"/>
     <use x="4735.144531" xlink:href="#DejaVuSans-20"/>
     <use x="4766.931641" xlink:href="#DejaVuSans-7a"/>
     <use x="4819.421875" xlink:href="#DejaVuSans-65"/>
     <use x="4880.945312" xlink:href="#DejaVuSans-74"/>
     <use x="4920.154297" xlink:href="#DejaVuSans-61"/>
     <use x="4981.433594" xlink:href="#DejaVuSans-20"/>
     <use x="5013.220703" xlink:href="#DejaVuSans-3d"/>
     <use x="5097.009766" xlink:href="#DejaVuSans-20"/>
     <use x="5128.796875" xlink:href="#DejaVuSans-2d"/>
     <use x="5164.880859" xlink:href="#DejaVuSans-30"/>
     <use x="5228.503906" xlink:href="#DejaVuSans-2e"/>
     <use x="5260.291016" xlink:href="#DejaVuSans-33"/>
     <use x="5323.914062" xlink:href="#DejaVuSans-36"/>
    </g>
   </g>
   <g id="legend_1">
    <g id="patch_7">
     <path d="M 57.14375 343.478125 
L 124.482813 343.478125 
Q 126.482813 343.478125 126.482813 341.478125 
L 126.482813 313.121875 
Q 126.482813 311.121875 124.482813 311.121875 
L 57.14375 311.121875 
Q 55.14375 311.121875 55.14375 313.121875 
L 55.14375 341.478125 
Q 55.14375 343.478125 57.14375 343.478125 
z
" style="fill:#ffffff;opacity:0.8;stroke:#cccccc;stroke-linejoin:miter;"/>
    </g>
    <g id="text_19">
     <!-- Temperature -->
     <g transform="translate(59.14375 322.720312)scale(0.1 -0.1)">
      <defs>
       <path d="M -19 4666 
L 3928 4666 
L 3928 4134 
L 2272 4134 
L 2272 0 
L 1638 0 
L 1638 4134 
L -19 4134 
L -19 4666 
z
" id="DejaVuSans-54" transform="scale(0.015625)"/>
       <path d="M 1159 525 
L 1159 -1331 
L 581 -1331 
L 581 3500 
L 1159 3500 
L 1159 2969 
Q 1341 3281 1617 3432 
Q 1894 3584 2278 3584 
Q 2916 3584 3314 3078 
Q 3713 2572 3713 1747 
Q 3713 922 3314 415 
Q 2916 -91 2278 -91 
Q 1894 -91 1617 61 
Q 1341 213 1159 525 
z
M 3116 1747 
Q 3116 2381 2855 2742 
Q 2594 3103 2138 3103 
Q 1681 3103 1420 2742 
Q 1159 2381 1159 1747 
Q 1159 1113 1420 752 
Q 1681 391 2138 391 
Q 2594 391 2855 752 
Q 3116 1113 3116 1747 
z
" id="DejaVuSans-70" transform="scale(0.015625)"/>
      </defs>
      <use xlink:href="#DejaVuSans-54"/>
      <use x="44.083984" xlink:href="#DejaVuSans-65"/>
      <use x="105.607422" xlink:href="#DejaVuSans-6d"/>
      <use x="203.019531" xlink:href="#DejaVuSans-70"/>
      <use x="266.496094" xlink:href="#DejaVuSans-65"/>
      <use x="328.019531" xlink:href="#DejaVuSans-72"/>
      <use x="369.132812" xlink:href="#DejaVuSans-61"/>
      <use x="430.412109" xlink:href="#DejaVuSans-74"/>
      <use x="469.621094" xlink:href="#DejaVuSans-75"/>
      <use x="533" xlink:href="#DejaVuSans-72"/>
      <use x="571.863281" xlink:href="#DejaVuSans-65"/>
     </g>
    </g>
    <g id="line2d_18">
     <path d="M 60.8125 333.898437 
L 80.8125 333.898437 
" style="fill:none;stroke:#e77e63;stroke-linecap:square;"/>
    </g>
    <g id="line2d_19"/>
    <g id="text_20">
     <!-- 110  K -->
     <g transform="translate(88.8125 337.398437)scale(0.1 -0.1)">
      <defs>
       <path d="M 628 4666 
L 1259 4666 
L 1259 2694 
L 3353 4666 
L 4166 4666 
L 1850 2491 
L 4331 0 
L 3500 0 
L 1259 2247 
L 1259 0 
L 628 0 
L 628 4666 
z
" id="DejaVuSans-4b" transform="scale(0.015625)"/>
      </defs>
      <use xlink:href="#DejaVuSans-31"/>
      <use x="63.623047" xlink:href="#DejaVuSans-31"/>
      <use x="127.246094" xlink:href="#DejaVuSans-30"/>
      <use x="190.869141" xlink:href="#DejaVuSans-20"/>
      <use x="222.65625" xlink:href="#DejaVuSans-20"/>
      <use x="254.443359" xlink:href="#DejaVuSans-4b"/>
     </g>
    </g>
   </g>
  </g>
 </g>
 <defs>
  <clipPath id="p243b47c845">
   <rect height="326.16" width="837" x="50.14375" y="22.318125"/>
  </clipPath>
 </defs>
</svg>
