<?xml version="1.0" encoding="utf-8" standalone="no"?>
<!DOCTYPE svg PUBLIC "-//W3C//DTD SVG 1.1//EN"
  "http://www.w3.org/Graphics/SVG/1.1/DTD/svg11.dtd">
<svg height="386.034375pt" version="1.1" viewBox="0 0 911.839062 386.034375" width="911.839062pt" xmlns="http://www.w3.org/2000/svg" xmlns:xlink="http://www.w3.org/1999/xlink">
 <metadata>
  <rdf:RDF xmlns:cc="http://creativecommons.org/ns#" xmlns:dc="http://purl.org/dc/elements/1.1/" xmlns:rdf="http://www.w3.org/1999/02/22-rdf-syntax-ns#">
   <cc:Work>
    <dc:type rdf:resource="http://purl.org/dc/dcmitype/StillImage"/>
    <dc:date>2022-10-18T19:42:21.242849</dc:date>
    <dc:format>image/svg+xml</dc:format>
    <dc:creator>
     <cc:Agent>
      <dc:title>Matplotlib v3.4.3, https://matplotlib.org/</dc:title>
     </cc:Agent>
    </dc:creator>
   </cc:Work>
  </rdf:RDF>
 </metadata>
 <defs>
  <style type="text/css">*{stroke-linecap:butt;stroke-linejoin:round;}</style>
 </defs>
 <g id="figure_1">
  <g id="patch_1">
   <path d="M 0 386.034375 
L 911.839062 386.034375 
L 911.839062 0 
L 0 0 
z
" style="fill:#ffffff;"/>
  </g>
  <g id="axes_1">
   <g id="patch_2">
    <path d="M 50.14375 348.478125 
L 887.14375 348.478125 
L 887.14375 22.318125 
L 50.14375 22.318125 
z
" style="fill:#ffffff;"/>
   </g>
   <g id="matplotlib.axis_1">
    <g id="xtick_1">
     <g id="line2d_1">
      <defs>
       <path d="M 0 0 
L 0 3.5 
" id="ma91c8aadf2" style="stroke:#000000;stroke-width:0.8;"/>
      </defs>
      <g>
       <use style="stroke:#000000;stroke-width:0.8;" x="50.14375" xlink:href="#ma91c8aadf2" y="348.478125"/>
      </g>
     </g>
     <g id="text_1">
      <!-- 6612.0 -->
      <g transform="translate(32.648438 363.076562)scale(0.1 -0.1)">
       <defs>
        <path d="M 2113 2584 
Q 1688 2584 1439 2293 
Q 1191 2003 1191 1497 
Q 1191 994 1439 701 
Q 1688 409 2113 409 
Q 2538 409 2786 701 
Q 3034 994 3034 1497 
Q 3034 2003 2786 2293 
Q 2538 2584 2113 2584 
z
M 3366 4563 
L 3366 3988 
Q 3128 4100 2886 4159 
Q 2644 4219 2406 4219 
Q 1781 4219 1451 3797 
Q 1122 3375 1075 2522 
Q 1259 2794 1537 2939 
Q 1816 3084 2150 3084 
Q 2853 3084 3261 2657 
Q 3669 2231 3669 1497 
Q 3669 778 3244 343 
Q 2819 -91 2113 -91 
Q 1303 -91 875 529 
Q 447 1150 447 2328 
Q 447 3434 972 4092 
Q 1497 4750 2381 4750 
Q 2619 4750 2861 4703 
Q 3103 4656 3366 4563 
z
" id="DejaVuSans-36" transform="scale(0.015625)"/>
        <path d="M 794 531 
L 1825 531 
L 1825 4091 
L 703 3866 
L 703 4441 
L 1819 4666 
L 2450 4666 
L 2450 531 
L 3481 531 
L 3481 0 
L 794 0 
L 794 531 
z
" id="DejaVuSans-31" transform="scale(0.015625)"/>
        <path d="M 1228 531 
L 3431 531 
L 3431 0 
L 469 0 
L 469 531 
Q 828 903 1448 1529 
Q 2069 2156 2228 2338 
Q 2531 2678 2651 2914 
Q 2772 3150 2772 3378 
Q 2772 3750 2511 3984 
Q 2250 4219 1831 4219 
Q 1534 4219 1204 4116 
Q 875 4013 500 3803 
L 500 4441 
Q 881 4594 1212 4672 
Q 1544 4750 1819 4750 
Q 2544 4750 2975 4387 
Q 3406 4025 3406 3419 
Q 3406 3131 3298 2873 
Q 3191 2616 2906 2266 
Q 2828 2175 2409 1742 
Q 1991 1309 1228 531 
z
" id="DejaVuSans-32" transform="scale(0.015625)"/>
        <path d="M 684 794 
L 1344 794 
L 1344 0 
L 684 0 
L 684 794 
z
" id="DejaVuSans-2e" transform="scale(0.015625)"/>
        <path d="M 2034 4250 
Q 1547 4250 1301 3770 
Q 1056 3291 1056 2328 
Q 1056 1369 1301 889 
Q 1547 409 2034 409 
Q 2525 409 2770 889 
Q 3016 1369 3016 2328 
Q 3016 3291 2770 3770 
Q 2525 4250 2034 4250 
z
M 2034 4750 
Q 2819 4750 3233 4129 
Q 3647 3509 3647 2328 
Q 3647 1150 3233 529 
Q 2819 -91 2034 -91 
Q 1250 -91 836 529 
Q 422 1150 422 2328 
Q 422 3509 836 4129 
Q 1250 4750 2034 4750 
z
" id="DejaVuSans-30" transform="scale(0.015625)"/>
       </defs>
       <use xlink:href="#DejaVuSans-36"/>
       <use x="63.623047" xlink:href="#DejaVuSans-36"/>
       <use x="127.246094" xlink:href="#DejaVuSans-31"/>
       <use x="190.869141" xlink:href="#DejaVuSans-32"/>
       <use x="254.492188" xlink:href="#DejaVuSans-2e"/>
       <use x="286.279297" xlink:href="#DejaVuSans-30"/>
      </g>
     </g>
    </g>
    <g id="xtick_2">
     <g id="line2d_2">
      <g>
       <use style="stroke:#000000;stroke-width:0.8;" x="154.76875" xlink:href="#ma91c8aadf2" y="348.478125"/>
      </g>
     </g>
     <g id="text_2">
      <!-- 6612.5 -->
      <g transform="translate(137.273438 363.076562)scale(0.1 -0.1)">
       <defs>
        <path d="M 691 4666 
L 3169 4666 
L 3169 4134 
L 1269 4134 
L 1269 2991 
Q 1406 3038 1543 3061 
Q 1681 3084 1819 3084 
Q 2600 3084 3056 2656 
Q 3513 2228 3513 1497 
Q 3513 744 3044 326 
Q 2575 -91 1722 -91 
Q 1428 -91 1123 -41 
Q 819 9 494 109 
L 494 744 
Q 775 591 1075 516 
Q 1375 441 1709 441 
Q 2250 441 2565 725 
Q 2881 1009 2881 1497 
Q 2881 1984 2565 2268 
Q 2250 2553 1709 2553 
Q 1456 2553 1204 2497 
Q 953 2441 691 2322 
L 691 4666 
z
" id="DejaVuSans-35" transform="scale(0.015625)"/>
       </defs>
       <use xlink:href="#DejaVuSans-36"/>
       <use x="63.623047" xlink:href="#DejaVuSans-36"/>
       <use x="127.246094" xlink:href="#DejaVuSans-31"/>
       <use x="190.869141" xlink:href="#DejaVuSans-32"/>
       <use x="254.492188" xlink:href="#DejaVuSans-2e"/>
       <use x="286.279297" xlink:href="#DejaVuSans-35"/>
      </g>
     </g>
    </g>
    <g id="xtick_3">
     <g id="line2d_3">
      <g>
       <use style="stroke:#000000;stroke-width:0.8;" x="259.39375" xlink:href="#ma91c8aadf2" y="348.478125"/>
      </g>
     </g>
     <g id="text_3">
      <!-- 6613.0 -->
      <g transform="translate(241.898438 363.076562)scale(0.1 -0.1)">
       <defs>
        <path d="M 2597 2516 
Q 3050 2419 3304 2112 
Q 3559 1806 3559 1356 
Q 3559 666 3084 287 
Q 2609 -91 1734 -91 
Q 1441 -91 1130 -33 
Q 819 25 488 141 
L 488 750 
Q 750 597 1062 519 
Q 1375 441 1716 441 
Q 2309 441 2620 675 
Q 2931 909 2931 1356 
Q 2931 1769 2642 2001 
Q 2353 2234 1838 2234 
L 1294 2234 
L 1294 2753 
L 1863 2753 
Q 2328 2753 2575 2939 
Q 2822 3125 2822 3475 
Q 2822 3834 2567 4026 
Q 2313 4219 1838 4219 
Q 1578 4219 1281 4162 
Q 984 4106 628 3988 
L 628 4550 
Q 988 4650 1302 4700 
Q 1616 4750 1894 4750 
Q 2613 4750 3031 4423 
Q 3450 4097 3450 3541 
Q 3450 3153 3228 2886 
Q 3006 2619 2597 2516 
z
" id="DejaVuSans-33" transform="scale(0.015625)"/>
       </defs>
       <use xlink:href="#DejaVuSans-36"/>
       <use x="63.623047" xlink:href="#DejaVuSans-36"/>
       <use x="127.246094" xlink:href="#DejaVuSans-31"/>
       <use x="190.869141" xlink:href="#DejaVuSans-33"/>
       <use x="254.492188" xlink:href="#DejaVuSans-2e"/>
       <use x="286.279297" xlink:href="#DejaVuSans-30"/>
      </g>
     </g>
    </g>
    <g id="xtick_4">
     <g id="line2d_4">
      <g>
       <use style="stroke:#000000;stroke-width:0.8;" x="364.01875" xlink:href="#ma91c8aadf2" y="348.478125"/>
      </g>
     </g>
     <g id="text_4">
      <!-- 6613.5 -->
      <g transform="translate(346.523438 363.076562)scale(0.1 -0.1)">
       <use xlink:href="#DejaVuSans-36"/>
       <use x="63.623047" xlink:href="#DejaVuSans-36"/>
       <use x="127.246094" xlink:href="#DejaVuSans-31"/>
       <use x="190.869141" xlink:href="#DejaVuSans-33"/>
       <use x="254.492188" xlink:href="#DejaVuSans-2e"/>
       <use x="286.279297" xlink:href="#DejaVuSans-35"/>
      </g>
     </g>
    </g>
    <g id="xtick_5">
     <g id="line2d_5">
      <g>
       <use style="stroke:#000000;stroke-width:0.8;" x="468.64375" xlink:href="#ma91c8aadf2" y="348.478125"/>
      </g>
     </g>
     <g id="text_5">
      <!-- 6614.0 -->
      <g transform="translate(451.148438 363.076562)scale(0.1 -0.1)">
       <defs>
        <path d="M 2419 4116 
L 825 1625 
L 2419 1625 
L 2419 4116 
z
M 2253 4666 
L 3047 4666 
L 3047 1625 
L 3713 1625 
L 3713 1100 
L 3047 1100 
L 3047 0 
L 2419 0 
L 2419 1100 
L 313 1100 
L 313 1709 
L 2253 4666 
z
" id="DejaVuSans-34" transform="scale(0.015625)"/>
       </defs>
       <use xlink:href="#DejaVuSans-36"/>
       <use x="63.623047" xlink:href="#DejaVuSans-36"/>
       <use x="127.246094" xlink:href="#DejaVuSans-31"/>
       <use x="190.869141" xlink:href="#DejaVuSans-34"/>
       <use x="254.492188" xlink:href="#DejaVuSans-2e"/>
       <use x="286.279297" xlink:href="#DejaVuSans-30"/>
      </g>
     </g>
    </g>
    <g id="xtick_6">
     <g id="line2d_6">
      <g>
       <use style="stroke:#000000;stroke-width:0.8;" x="573.26875" xlink:href="#ma91c8aadf2" y="348.478125"/>
      </g>
     </g>
     <g id="text_6">
      <!-- 6614.5 -->
      <g transform="translate(555.773438 363.076562)scale(0.1 -0.1)">
       <use xlink:href="#DejaVuSans-36"/>
       <use x="63.623047" xlink:href="#DejaVuSans-36"/>
       <use x="127.246094" xlink:href="#DejaVuSans-31"/>
       <use x="190.869141" xlink:href="#DejaVuSans-34"/>
       <use x="254.492188" xlink:href="#DejaVuSans-2e"/>
       <use x="286.279297" xlink:href="#DejaVuSans-35"/>
      </g>
     </g>
    </g>
    <g id="xtick_7">
     <g id="line2d_7">
      <g>
       <use style="stroke:#000000;stroke-width:0.8;" x="677.89375" xlink:href="#ma91c8aadf2" y="348.478125"/>
      </g>
     </g>
     <g id="text_7">
      <!-- 6615.0 -->
      <g transform="translate(660.398438 363.076562)scale(0.1 -0.1)">
       <use xlink:href="#DejaVuSans-36"/>
       <use x="63.623047" xlink:href="#DejaVuSans-36"/>
       <use x="127.246094" xlink:href="#DejaVuSans-31"/>
       <use x="190.869141" xlink:href="#DejaVuSans-35"/>
       <use x="254.492188" xlink:href="#DejaVuSans-2e"/>
       <use x="286.279297" xlink:href="#DejaVuSans-30"/>
      </g>
     </g>
    </g>
    <g id="xtick_8">
     <g id="line2d_8">
      <g>
       <use style="stroke:#000000;stroke-width:0.8;" x="782.51875" xlink:href="#ma91c8aadf2" y="348.478125"/>
      </g>
     </g>
     <g id="text_8">
      <!-- 6615.5 -->
      <g transform="translate(765.023438 363.076562)scale(0.1 -0.1)">
       <use xlink:href="#DejaVuSans-36"/>
       <use x="63.623047" xlink:href="#DejaVuSans-36"/>
       <use x="127.246094" xlink:href="#DejaVuSans-31"/>
       <use x="190.869141" xlink:href="#DejaVuSans-35"/>
       <use x="254.492188" xlink:href="#DejaVuSans-2e"/>
       <use x="286.279297" xlink:href="#DejaVuSans-35"/>
      </g>
     </g>
    </g>
    <g id="xtick_9">
     <g id="line2d_9">
      <g>
       <use style="stroke:#000000;stroke-width:0.8;" x="887.14375" xlink:href="#ma91c8aadf2" y="348.478125"/>
      </g>
     </g>
     <g id="text_9">
      <!-- 6616.0 -->
      <g transform="translate(869.648438 363.076562)scale(0.1 -0.1)">
       <use xlink:href="#DejaVuSans-36"/>
       <use x="63.623047" xlink:href="#DejaVuSans-36"/>
       <use x="127.246094" xlink:href="#DejaVuSans-31"/>
       <use x="190.869141" xlink:href="#DejaVuSans-36"/>
       <use x="254.492188" xlink:href="#DejaVuSans-2e"/>
       <use x="286.279297" xlink:href="#DejaVuSans-30"/>
      </g>
     </g>
    </g>
    <g id="text_10">
     <!-- Wavelength -->
     <g transform="translate(438.98125 376.754687)scale(0.1 -0.1)">
      <defs>
       <path d="M 213 4666 
L 850 4666 
L 1831 722 
L 2809 4666 
L 3519 4666 
L 4500 722 
L 5478 4666 
L 6119 4666 
L 4947 0 
L 4153 0 
L 3169 4050 
L 2175 0 
L 1381 0 
L 213 4666 
z
" id="DejaVuSans-57" transform="scale(0.015625)"/>
       <path d="M 2194 1759 
Q 1497 1759 1228 1600 
Q 959 1441 959 1056 
Q 959 750 1161 570 
Q 1363 391 1709 391 
Q 2188 391 2477 730 
Q 2766 1069 2766 1631 
L 2766 1759 
L 2194 1759 
z
M 3341 1997 
L 3341 0 
L 2766 0 
L 2766 531 
Q 2569 213 2275 61 
Q 1981 -91 1556 -91 
Q 1019 -91 701 211 
Q 384 513 384 1019 
Q 384 1609 779 1909 
Q 1175 2209 1959 2209 
L 2766 2209 
L 2766 2266 
Q 2766 2663 2505 2880 
Q 2244 3097 1772 3097 
Q 1472 3097 1187 3025 
Q 903 2953 641 2809 
L 641 3341 
Q 956 3463 1253 3523 
Q 1550 3584 1831 3584 
Q 2591 3584 2966 3190 
Q 3341 2797 3341 1997 
z
" id="DejaVuSans-61" transform="scale(0.015625)"/>
       <path d="M 191 3500 
L 800 3500 
L 1894 563 
L 2988 3500 
L 3597 3500 
L 2284 0 
L 1503 0 
L 191 3500 
z
" id="DejaVuSans-76" transform="scale(0.015625)"/>
       <path d="M 3597 1894 
L 3597 1613 
L 953 1613 
Q 991 1019 1311 708 
Q 1631 397 2203 397 
Q 2534 397 2845 478 
Q 3156 559 3463 722 
L 3463 178 
Q 3153 47 2828 -22 
Q 2503 -91 2169 -91 
Q 1331 -91 842 396 
Q 353 884 353 1716 
Q 353 2575 817 3079 
Q 1281 3584 2069 3584 
Q 2775 3584 3186 3129 
Q 3597 2675 3597 1894 
z
M 3022 2063 
Q 3016 2534 2758 2815 
Q 2500 3097 2075 3097 
Q 1594 3097 1305 2825 
Q 1016 2553 972 2059 
L 3022 2063 
z
" id="DejaVuSans-65" transform="scale(0.015625)"/>
       <path d="M 603 4863 
L 1178 4863 
L 1178 0 
L 603 0 
L 603 4863 
z
" id="DejaVuSans-6c" transform="scale(0.015625)"/>
       <path d="M 3513 2113 
L 3513 0 
L 2938 0 
L 2938 2094 
Q 2938 2591 2744 2837 
Q 2550 3084 2163 3084 
Q 1697 3084 1428 2787 
Q 1159 2491 1159 1978 
L 1159 0 
L 581 0 
L 581 3500 
L 1159 3500 
L 1159 2956 
Q 1366 3272 1645 3428 
Q 1925 3584 2291 3584 
Q 2894 3584 3203 3211 
Q 3513 2838 3513 2113 
z
" id="DejaVuSans-6e" transform="scale(0.015625)"/>
       <path d="M 2906 1791 
Q 2906 2416 2648 2759 
Q 2391 3103 1925 3103 
Q 1463 3103 1205 2759 
Q 947 2416 947 1791 
Q 947 1169 1205 825 
Q 1463 481 1925 481 
Q 2391 481 2648 825 
Q 2906 1169 2906 1791 
z
M 3481 434 
Q 3481 -459 3084 -895 
Q 2688 -1331 1869 -1331 
Q 1566 -1331 1297 -1286 
Q 1028 -1241 775 -1147 
L 775 -588 
Q 1028 -725 1275 -790 
Q 1522 -856 1778 -856 
Q 2344 -856 2625 -561 
Q 2906 -266 2906 331 
L 2906 616 
Q 2728 306 2450 153 
Q 2172 0 1784 0 
Q 1141 0 747 490 
Q 353 981 353 1791 
Q 353 2603 747 3093 
Q 1141 3584 1784 3584 
Q 2172 3584 2450 3431 
Q 2728 3278 2906 2969 
L 2906 3500 
L 3481 3500 
L 3481 434 
z
" id="DejaVuSans-67" transform="scale(0.015625)"/>
       <path d="M 1172 4494 
L 1172 3500 
L 2356 3500 
L 2356 3053 
L 1172 3053 
L 1172 1153 
Q 1172 725 1289 603 
Q 1406 481 1766 481 
L 2356 481 
L 2356 0 
L 1766 0 
Q 1100 0 847 248 
Q 594 497 594 1153 
L 594 3053 
L 172 3053 
L 172 3500 
L 594 3500 
L 594 4494 
L 1172 4494 
z
" id="DejaVuSans-74" transform="scale(0.015625)"/>
       <path d="M 3513 2113 
L 3513 0 
L 2938 0 
L 2938 2094 
Q 2938 2591 2744 2837 
Q 2550 3084 2163 3084 
Q 1697 3084 1428 2787 
Q 1159 2491 1159 1978 
L 1159 0 
L 581 0 
L 581 4863 
L 1159 4863 
L 1159 2956 
Q 1366 3272 1645 3428 
Q 1925 3584 2291 3584 
Q 2894 3584 3203 3211 
Q 3513 2838 3513 2113 
z
" id="DejaVuSans-68" transform="scale(0.015625)"/>
      </defs>
      <use xlink:href="#DejaVuSans-57"/>
      <use x="92.501953" xlink:href="#DejaVuSans-61"/>
      <use x="153.78125" xlink:href="#DejaVuSans-76"/>
      <use x="212.960938" xlink:href="#DejaVuSans-65"/>
      <use x="274.484375" xlink:href="#DejaVuSans-6c"/>
      <use x="302.267578" xlink:href="#DejaVuSans-65"/>
      <use x="363.791016" xlink:href="#DejaVuSans-6e"/>
      <use x="427.169922" xlink:href="#DejaVuSans-67"/>
      <use x="490.646484" xlink:href="#DejaVuSans-74"/>
      <use x="529.855469" xlink:href="#DejaVuSans-68"/>
     </g>
    </g>
   </g>
   <g id="matplotlib.axis_2">
    <g id="ytick_1">
     <g id="line2d_10">
      <defs>
       <path d="M 0 0 
L -3.5 0 
" id="m7c73cafcae" style="stroke:#000000;stroke-width:0.8;"/>
      </defs>
      <g>
       <use style="stroke:#000000;stroke-width:0.8;" x="50.14375" xlink:href="#m7c73cafcae" y="333.65267"/>
      </g>
     </g>
     <g id="text_11">
      <!-- 0.90 -->
      <g transform="translate(20.878125 337.451889)scale(0.1 -0.1)">
       <defs>
        <path d="M 703 97 
L 703 672 
Q 941 559 1184 500 
Q 1428 441 1663 441 
Q 2288 441 2617 861 
Q 2947 1281 2994 2138 
Q 2813 1869 2534 1725 
Q 2256 1581 1919 1581 
Q 1219 1581 811 2004 
Q 403 2428 403 3163 
Q 403 3881 828 4315 
Q 1253 4750 1959 4750 
Q 2769 4750 3195 4129 
Q 3622 3509 3622 2328 
Q 3622 1225 3098 567 
Q 2575 -91 1691 -91 
Q 1453 -91 1209 -44 
Q 966 3 703 97 
z
M 1959 2075 
Q 2384 2075 2632 2365 
Q 2881 2656 2881 3163 
Q 2881 3666 2632 3958 
Q 2384 4250 1959 4250 
Q 1534 4250 1286 3958 
Q 1038 3666 1038 3163 
Q 1038 2656 1286 2365 
Q 1534 2075 1959 2075 
z
" id="DejaVuSans-39" transform="scale(0.015625)"/>
       </defs>
       <use xlink:href="#DejaVuSans-30"/>
       <use x="63.623047" xlink:href="#DejaVuSans-2e"/>
       <use x="95.410156" xlink:href="#DejaVuSans-39"/>
       <use x="159.033203" xlink:href="#DejaVuSans-30"/>
      </g>
     </g>
    </g>
    <g id="ytick_2">
     <g id="line2d_11">
      <g>
       <use style="stroke:#000000;stroke-width:0.8;" x="50.14375" xlink:href="#m7c73cafcae" y="274.350852"/>
      </g>
     </g>
     <g id="text_12">
      <!-- 0.92 -->
      <g transform="translate(20.878125 278.150071)scale(0.1 -0.1)">
       <use xlink:href="#DejaVuSans-30"/>
       <use x="63.623047" xlink:href="#DejaVuSans-2e"/>
       <use x="95.410156" xlink:href="#DejaVuSans-39"/>
       <use x="159.033203" xlink:href="#DejaVuSans-32"/>
      </g>
     </g>
    </g>
    <g id="ytick_3">
     <g id="line2d_12">
      <g>
       <use style="stroke:#000000;stroke-width:0.8;" x="50.14375" xlink:href="#m7c73cafcae" y="215.049034"/>
      </g>
     </g>
     <g id="text_13">
      <!-- 0.94 -->
      <g transform="translate(20.878125 218.848253)scale(0.1 -0.1)">
       <use xlink:href="#DejaVuSans-30"/>
       <use x="63.623047" xlink:href="#DejaVuSans-2e"/>
       <use x="95.410156" xlink:href="#DejaVuSans-39"/>
       <use x="159.033203" xlink:href="#DejaVuSans-34"/>
      </g>
     </g>
    </g>
    <g id="ytick_4">
     <g id="line2d_13">
      <g>
       <use style="stroke:#000000;stroke-width:0.8;" x="50.14375" xlink:href="#m7c73cafcae" y="155.747216"/>
      </g>
     </g>
     <g id="text_14">
      <!-- 0.96 -->
      <g transform="translate(20.878125 159.546435)scale(0.1 -0.1)">
       <use xlink:href="#DejaVuSans-30"/>
       <use x="63.623047" xlink:href="#DejaVuSans-2e"/>
       <use x="95.410156" xlink:href="#DejaVuSans-39"/>
       <use x="159.033203" xlink:href="#DejaVuSans-36"/>
      </g>
     </g>
    </g>
    <g id="ytick_5">
     <g id="line2d_14">
      <g>
       <use style="stroke:#000000;stroke-width:0.8;" x="50.14375" xlink:href="#m7c73cafcae" y="96.445398"/>
      </g>
     </g>
     <g id="text_15">
      <!-- 0.98 -->
      <g transform="translate(20.878125 100.244616)scale(0.1 -0.1)">
       <defs>
        <path d="M 2034 2216 
Q 1584 2216 1326 1975 
Q 1069 1734 1069 1313 
Q 1069 891 1326 650 
Q 1584 409 2034 409 
Q 2484 409 2743 651 
Q 3003 894 3003 1313 
Q 3003 1734 2745 1975 
Q 2488 2216 2034 2216 
z
M 1403 2484 
Q 997 2584 770 2862 
Q 544 3141 544 3541 
Q 544 4100 942 4425 
Q 1341 4750 2034 4750 
Q 2731 4750 3128 4425 
Q 3525 4100 3525 3541 
Q 3525 3141 3298 2862 
Q 3072 2584 2669 2484 
Q 3125 2378 3379 2068 
Q 3634 1759 3634 1313 
Q 3634 634 3220 271 
Q 2806 -91 2034 -91 
Q 1263 -91 848 271 
Q 434 634 434 1313 
Q 434 1759 690 2068 
Q 947 2378 1403 2484 
z
M 1172 3481 
Q 1172 3119 1398 2916 
Q 1625 2713 2034 2713 
Q 2441 2713 2670 2916 
Q 2900 3119 2900 3481 
Q 2900 3844 2670 4047 
Q 2441 4250 2034 4250 
Q 1625 4250 1398 4047 
Q 1172 3844 1172 3481 
z
" id="DejaVuSans-38" transform="scale(0.015625)"/>
       </defs>
       <use xlink:href="#DejaVuSans-30"/>
       <use x="63.623047" xlink:href="#DejaVuSans-2e"/>
       <use x="95.410156" xlink:href="#DejaVuSans-39"/>
       <use x="159.033203" xlink:href="#DejaVuSans-38"/>
      </g>
     </g>
    </g>
    <g id="ytick_6">
     <g id="line2d_15">
      <g>
       <use style="stroke:#000000;stroke-width:0.8;" x="50.14375" xlink:href="#m7c73cafcae" y="37.14358"/>
      </g>
     </g>
     <g id="text_16">
      <!-- 1.00 -->
      <g transform="translate(20.878125 40.942798)scale(0.1 -0.1)">
       <use xlink:href="#DejaVuSans-31"/>
       <use x="63.623047" xlink:href="#DejaVuSans-2e"/>
       <use x="95.410156" xlink:href="#DejaVuSans-30"/>
       <use x="159.033203" xlink:href="#DejaVuSans-30"/>
      </g>
     </g>
    </g>
    <g id="text_17">
     <!-- Normalized Intenisty -->
     <g transform="translate(14.798438 237.105156)rotate(-90)scale(0.1 -0.1)">
      <defs>
       <path d="M 628 4666 
L 1478 4666 
L 3547 763 
L 3547 4666 
L 4159 4666 
L 4159 0 
L 3309 0 
L 1241 3903 
L 1241 0 
L 628 0 
L 628 4666 
z
" id="DejaVuSans-4e" transform="scale(0.015625)"/>
       <path d="M 1959 3097 
Q 1497 3097 1228 2736 
Q 959 2375 959 1747 
Q 959 1119 1226 758 
Q 1494 397 1959 397 
Q 2419 397 2687 759 
Q 2956 1122 2956 1747 
Q 2956 2369 2687 2733 
Q 2419 3097 1959 3097 
z
M 1959 3584 
Q 2709 3584 3137 3096 
Q 3566 2609 3566 1747 
Q 3566 888 3137 398 
Q 2709 -91 1959 -91 
Q 1206 -91 779 398 
Q 353 888 353 1747 
Q 353 2609 779 3096 
Q 1206 3584 1959 3584 
z
" id="DejaVuSans-6f" transform="scale(0.015625)"/>
       <path d="M 2631 2963 
Q 2534 3019 2420 3045 
Q 2306 3072 2169 3072 
Q 1681 3072 1420 2755 
Q 1159 2438 1159 1844 
L 1159 0 
L 581 0 
L 581 3500 
L 1159 3500 
L 1159 2956 
Q 1341 3275 1631 3429 
Q 1922 3584 2338 3584 
Q 2397 3584 2469 3576 
Q 2541 3569 2628 3553 
L 2631 2963 
z
" id="DejaVuSans-72" transform="scale(0.015625)"/>
       <path d="M 3328 2828 
Q 3544 3216 3844 3400 
Q 4144 3584 4550 3584 
Q 5097 3584 5394 3201 
Q 5691 2819 5691 2113 
L 5691 0 
L 5113 0 
L 5113 2094 
Q 5113 2597 4934 2840 
Q 4756 3084 4391 3084 
Q 3944 3084 3684 2787 
Q 3425 2491 3425 1978 
L 3425 0 
L 2847 0 
L 2847 2094 
Q 2847 2600 2669 2842 
Q 2491 3084 2119 3084 
Q 1678 3084 1418 2786 
Q 1159 2488 1159 1978 
L 1159 0 
L 581 0 
L 581 3500 
L 1159 3500 
L 1159 2956 
Q 1356 3278 1631 3431 
Q 1906 3584 2284 3584 
Q 2666 3584 2933 3390 
Q 3200 3197 3328 2828 
z
" id="DejaVuSans-6d" transform="scale(0.015625)"/>
       <path d="M 603 3500 
L 1178 3500 
L 1178 0 
L 603 0 
L 603 3500 
z
M 603 4863 
L 1178 4863 
L 1178 4134 
L 603 4134 
L 603 4863 
z
" id="DejaVuSans-69" transform="scale(0.015625)"/>
       <path d="M 353 3500 
L 3084 3500 
L 3084 2975 
L 922 459 
L 3084 459 
L 3084 0 
L 275 0 
L 275 525 
L 2438 3041 
L 353 3041 
L 353 3500 
z
" id="DejaVuSans-7a" transform="scale(0.015625)"/>
       <path d="M 2906 2969 
L 2906 4863 
L 3481 4863 
L 3481 0 
L 2906 0 
L 2906 525 
Q 2725 213 2448 61 
Q 2172 -91 1784 -91 
Q 1150 -91 751 415 
Q 353 922 353 1747 
Q 353 2572 751 3078 
Q 1150 3584 1784 3584 
Q 2172 3584 2448 3432 
Q 2725 3281 2906 2969 
z
M 947 1747 
Q 947 1113 1208 752 
Q 1469 391 1925 391 
Q 2381 391 2643 752 
Q 2906 1113 2906 1747 
Q 2906 2381 2643 2742 
Q 2381 3103 1925 3103 
Q 1469 3103 1208 2742 
Q 947 2381 947 1747 
z
" id="DejaVuSans-64" transform="scale(0.015625)"/>
       <path id="DejaVuSans-20" transform="scale(0.015625)"/>
       <path d="M 628 4666 
L 1259 4666 
L 1259 0 
L 628 0 
L 628 4666 
z
" id="DejaVuSans-49" transform="scale(0.015625)"/>
       <path d="M 2834 3397 
L 2834 2853 
Q 2591 2978 2328 3040 
Q 2066 3103 1784 3103 
Q 1356 3103 1142 2972 
Q 928 2841 928 2578 
Q 928 2378 1081 2264 
Q 1234 2150 1697 2047 
L 1894 2003 
Q 2506 1872 2764 1633 
Q 3022 1394 3022 966 
Q 3022 478 2636 193 
Q 2250 -91 1575 -91 
Q 1294 -91 989 -36 
Q 684 19 347 128 
L 347 722 
Q 666 556 975 473 
Q 1284 391 1588 391 
Q 1994 391 2212 530 
Q 2431 669 2431 922 
Q 2431 1156 2273 1281 
Q 2116 1406 1581 1522 
L 1381 1569 
Q 847 1681 609 1914 
Q 372 2147 372 2553 
Q 372 3047 722 3315 
Q 1072 3584 1716 3584 
Q 2034 3584 2315 3537 
Q 2597 3491 2834 3397 
z
" id="DejaVuSans-73" transform="scale(0.015625)"/>
       <path d="M 2059 -325 
Q 1816 -950 1584 -1140 
Q 1353 -1331 966 -1331 
L 506 -1331 
L 506 -850 
L 844 -850 
Q 1081 -850 1212 -737 
Q 1344 -625 1503 -206 
L 1606 56 
L 191 3500 
L 800 3500 
L 1894 763 
L 2988 3500 
L 3597 3500 
L 2059 -325 
z
" id="DejaVuSans-79" transform="scale(0.015625)"/>
      </defs>
      <use xlink:href="#DejaVuSans-4e"/>
      <use x="74.804688" xlink:href="#DejaVuSans-6f"/>
      <use x="135.986328" xlink:href="#DejaVuSans-72"/>
      <use x="175.349609" xlink:href="#DejaVuSans-6d"/>
      <use x="272.761719" xlink:href="#DejaVuSans-61"/>
      <use x="334.041016" xlink:href="#DejaVuSans-6c"/>
      <use x="361.824219" xlink:href="#DejaVuSans-69"/>
      <use x="389.607422" xlink:href="#DejaVuSans-7a"/>
      <use x="442.097656" xlink:href="#DejaVuSans-65"/>
      <use x="503.621094" xlink:href="#DejaVuSans-64"/>
      <use x="567.097656" xlink:href="#DejaVuSans-20"/>
      <use x="598.884766" xlink:href="#DejaVuSans-49"/>
      <use x="628.376953" xlink:href="#DejaVuSans-6e"/>
      <use x="691.755859" xlink:href="#DejaVuSans-74"/>
      <use x="730.964844" xlink:href="#DejaVuSans-65"/>
      <use x="792.488281" xlink:href="#DejaVuSans-6e"/>
      <use x="855.867188" xlink:href="#DejaVuSans-69"/>
      <use x="883.650391" xlink:href="#DejaVuSans-73"/>
      <use x="935.75" xlink:href="#DejaVuSans-74"/>
      <use x="974.958984" xlink:href="#DejaVuSans-79"/>
     </g>
    </g>
   </g>
   <g id="line2d_16">
    <path clip-path="url(#p268f38998a)" d="M 912.839062 37.143583 
L 695.266006 37.243585 
L 671.34718 37.472089 
L 658.0593 37.789548 
L 647.429179 38.254228 
L 639.456696 38.80656 
L 631.484305 39.621408 
L 626.169429 40.363706 
L 620.854593 41.312586 
L 615.539798 42.517492 
L 610.225044 44.036444 
L 604.910331 45.936352 
L 602.25299 47.05248 
L 599.595659 48.292866 
L 596.938338 49.668207 
L 594.281027 51.189603 
L 591.623727 52.86849 
L 588.966437 54.716547 
L 586.309157 56.74559 
L 583.651887 58.967443 
L 580.994627 61.39379 
L 578.337378 64.036005 
L 575.680138 66.904959 
L 573.022909 70.010808 
L 570.365691 73.362758 
L 567.708482 76.968811 
L 565.051283 80.835494 
L 562.394095 84.967569 
L 559.736917 89.36774 
L 557.079749 94.036341 
L 554.422592 98.971032 
L 551.765444 104.166494 
L 546.45118 115.301826 
L 541.136957 127.329659 
L 535.822774 140.073823 
L 527.851577 159.982335 
L 519.880471 179.84531 
L 514.566452 192.401291 
L 511.909457 198.312362 
L 509.252473 203.907258 
L 506.595499 209.134809 
L 503.938535 213.947649 
L 501.281582 218.303894 
L 498.624638 222.168979 
L 495.967705 225.517615 
L 493.310782 228.335834 
L 490.653869 230.623071 
L 487.996967 232.394219 
L 485.340074 233.681557 
L 482.683192 234.536442 
L 480.02632 235.030596 
L 477.369459 235.256809 
L 469.398934 235.561222 
L 466.742113 236.035855 
L 464.085303 236.974426 
L 461.428502 238.546186 
L 458.771712 240.909139 
L 456.114932 244.198309 
L 453.458162 248.512871 
L 450.801402 253.903022 
L 448.144652 260.357781 
L 445.487913 267.795153 
L 442.831184 276.056206 
L 437.517756 294.032216 
L 434.861057 303.072985 
L 432.204369 311.622231 
L 429.547691 319.262985 
L 426.891023 325.595796 
L 424.234365 330.269882 
L 421.577718 333.0124 
L 418.92108 333.65267 
L 416.264453 332.138557 
L 413.607836 328.543042 
L 410.951229 323.060093 
L 408.294633 315.990219 
L 405.638046 307.717254 
L 400.324904 289.334205 
L 397.668348 280.131042 
L 395.011803 271.476951 
L 392.355267 263.715347 
L 389.698742 257.10887 
L 387.042227 251.830393 
L 384.385723 247.96147 
L 381.729228 245.497274 
L 379.072744 244.35662 
L 376.416269 244.395468 
L 373.759805 245.422255 
L 371.103352 247.213646 
L 368.446908 249.529516 
L 360.477638 257.237061 
L 357.821236 259.336798 
L 355.164843 260.900217 
L 352.508461 261.790308 
L 349.852088 261.901425 
L 347.195726 261.158894 
L 344.539375 259.517623 
L 341.883033 256.959966 
L 339.226702 253.493061 
L 336.57038 249.145849 
L 333.914069 243.965915 
L 331.257769 238.016268 
L 328.601478 231.37218 
L 325.945198 224.118128 
L 323.288927 216.344918 
L 317.976417 199.620163 
L 310.007729 172.998587 
L 302.039133 146.585613 
L 296.726786 130.016713 
L 294.070628 122.198736 
L 291.41448 114.741076 
L 288.758342 107.67067 
L 286.102215 101.00686 
L 283.446098 94.7619 
L 280.78999 88.941555 
L 278.133894 83.545749 
L 275.477807 78.569263 
L 272.82173 74.002444 
L 270.165664 69.831908 
L 267.509608 66.041232 
L 264.853562 62.611613 
L 262.197526 59.522481 
L 259.541501 56.752067 
L 256.885486 54.277909 
L 254.229481 52.077302 
L 251.573486 50.127686 
L 248.917501 48.406971 
L 246.261526 46.893806 
L 243.605562 45.567791 
L 240.949608 44.409633 
L 238.293664 43.401265 
L 235.63773 42.525909 
L 230.325893 41.113771 
L 225.014097 40.065449 
L 219.702342 39.293299 
L 214.390627 38.727811 
L 206.423132 38.152764 
L 195.799948 37.707664 
L 182.521196 37.426477 
L 161.275725 37.243982 
L 118.786738 37.157078 
L -1 37.143604 
L -1 37.143604 
" style="fill:none;stroke:#e77e63;stroke-linecap:square;"/>
   </g>
   <g id="line2d_17">
    <path clip-path="url(#p268f38998a)" d="M 126.597856 38.224345 
L 130.783151 41.584325 
L 134.968445 45.980392 
L 139.15374 41.689452 
L 143.339035 42.006002 
L 147.524329 45.835842 
L 151.709624 44.980516 
L 155.894919 43.066034 
L 160.080214 40.399017 
L 164.265508 37.14358 
L 168.450803 39.874841 
L 172.636098 44.750404 
L 176.821393 44.107377 
L 181.006687 45.766633 
L 185.191982 47.721998 
L 189.377277 45.576236 
L 197.747866 47.643445 
L 201.933161 43.641313 
L 206.118456 46.1045 
L 210.30375 47.969631 
L 214.489045 44.813481 
L 218.67434 41.879849 
L 222.859635 39.5653 
L 227.044929 39.433015 
L 231.230224 40.585033 
L 235.415519 42.373947 
L 239.600814 45.79788 
L 243.786108 45.072794 
L 247.971403 45.278376 
L 252.156698 46.857912 
L 256.341993 47.918236 
L 260.527287 47.488966 
L 264.712582 44.460721 
L 268.897877 49.072298 
L 273.083171 49.4528 
L 277.268466 46.576112 
L 281.453761 55.803647 
L 285.639056 60.991088 
L 289.82435 64.422321 
L 294.009645 72.945212 
L 298.19494 81.04555 
L 302.380235 89.848488 
L 306.565529 108.864236 
L 310.750824 123.751116 
L 314.936119 139.366001 
L 319.121414 167.603151 
L 323.306708 185.362922 
L 327.492003 202.378334 
L 335.862592 243.245635 
L 340.047887 260.516856 
L 344.233182 268.893153 
L 348.418477 268.393507 
L 352.603771 267.292885 
L 356.789066 266.362801 
L 360.974361 263.215704 
L 365.159656 257.815089 
L 369.34495 248.26458 
L 373.530245 244.17747 
L 377.71554 242.960623 
L 381.900835 244.433279 
L 386.086129 248.760137 
L 390.271424 254.368962 
L 394.456719 260.933569 
L 398.642013 277.910726 
L 402.827308 292.941571 
L 407.012603 307.317124 
L 411.197898 320.896923 
L 415.383192 328.553683 
L 419.568487 332.826517 
L 427.939077 321.817661 
L 432.124371 314.188935 
L 436.309666 296.777252 
L 440.494961 287.739822 
L 444.680256 279.021569 
L 448.86555 268.354377 
L 453.050845 258.032351 
L 457.23614 249.516761 
L 461.421434 245.163913 
L 465.606729 239.117058 
L 469.792024 237.300403 
L 473.977319 242.66948 
L 478.162613 243.809525 
L 482.347908 245.900679 
L 486.533203 249.210432 
L 490.718498 235.823658 
L 494.903792 229.763955 
L 499.089087 228.582734 
L 503.274382 218.920382 
L 507.459677 206.114728 
L 511.644971 191.205655 
L 515.830266 179.162465 
L 520.015561 171.245223 
L 524.200855 164.90518 
L 528.38615 158.047678 
L 536.75674 140.419608 
L 540.942034 132.139094 
L 545.127329 132.388187 
L 549.312624 132.416805 
L 553.497919 128.48505 
L 557.683213 125.623547 
L 561.868508 123.322723 
L 566.053803 122.651953 
L 570.239098 117.914807 
L 574.424392 112.520033 
L 578.609687 105.880962 
L 582.794982 106.302346 
L 591.165571 105.840955 
L 595.350866 95.942651 
L 599.536161 90.291191 
L 603.721455 86.666056 
L 607.90675 87.531311 
L 612.092045 86.388929 
L 616.27734 85.085937 
L 620.462634 88.768307 
L 624.647929 88.84102 
L 628.833224 87.514958 
L 633.018519 83.652411 
L 637.203813 82.493969 
L 641.389108 81.576734 
L 645.574403 81.239452 
L 649.759697 77.369605 
L 653.944992 74.878967 
L 658.130287 75.455707 
L 662.315582 74.625202 
L 666.500876 73.006828 
L 670.686171 70.8196 
L 674.871466 65.9417 
L 679.056761 63.88588 
L 683.242055 64.271347 
L 687.42735 65.1147 
L 691.612645 62.597781 
L 695.79794 58.592437 
L 699.983234 60.197378 
L 704.168529 59.220864 
L 708.353824 57.561899 
L 712.539118 56.54567 
L 716.724413 55.23158 
L 720.909708 53.678911 
L 725.095003 50.004717 
L 729.280297 52.42235 
L 733.465592 53.075306 
L 737.650887 46.254599 
L 741.836182 50.57182 
L 746.021476 51.328443 
L 750.206771 44.963287 
L 754.392066 46.91982 
L 758.577361 46.139251 
L 762.762655 42.140331 
L 766.94795 50.217308 
L 771.133245 48.702017 
L 775.318539 41.475694 
L 779.503834 47.268783 
L 783.689129 48.762173 
L 787.874424 49.00893 
L 792.059718 50.093783 
L 796.245013 46.71745 
L 800.430308 43.180214 
L 804.615603 44.526133 
L 812.986192 44.534018 
L 817.171487 44.333984 
L 821.356782 48.957242 
L 825.542076 51.306542 
L 829.727371 48.899714 
L 833.912666 48.886865 
L 838.09796 48.197699 
L 842.283255 47.028159 
L 846.46855 43.115969 
L 850.653845 42.29481 
L 854.839139 43.329436 
L 859.024434 40.15372 
L 863.209729 42.580113 
L 867.395024 47.021151 
L 871.580318 49.866592 
L 875.765613 51.350053 
L 879.950908 51.789251 
L 884.136203 48.914023 
L 888.321497 48.83839 
L 892.506792 49.263863 
L 896.692087 50.896546 
L 900.877381 50.972179 
L 905.062676 49.691672 
L 909.247971 45.846939 
L 912.839062 47.818099 
L 912.839062 47.818099 
" style="fill:none;stroke:#000000;stroke-linecap:square;stroke-width:1.5;"/>
   </g>
   <g id="patch_3">
    <path d="M 50.14375 348.478125 
L 50.14375 22.318125 
" style="fill:none;stroke:#000000;stroke-linecap:square;stroke-linejoin:miter;stroke-width:0.8;"/>
   </g>
   <g id="patch_4">
    <path d="M 887.14375 348.478125 
L 887.14375 22.318125 
" style="fill:none;stroke:#000000;stroke-linecap:square;stroke-linejoin:miter;stroke-width:0.8;"/>
   </g>
   <g id="patch_5">
    <path d="M 50.14375 348.478125 
L 887.14375 348.478125 
" style="fill:none;stroke:#000000;stroke-linecap:square;stroke-linejoin:miter;stroke-width:0.8;"/>
   </g>
   <g id="patch_6">
    <path d="M 50.14375 22.318125 
L 887.14375 22.318125 
" style="fill:none;stroke:#000000;stroke-linecap:square;stroke-linejoin:miter;stroke-width:0.8;"/>
   </g>
   <g id="text_18">
    <!-- Triphenylene (C18H12) :  ground_B =  0.017 cm-1    Delta_B = -0.22,    Delta_C = -0.25    zeta = -0.35 -->
    <g transform="translate(161.539375 16.318125)scale(0.12 -0.12)">
     <defs>
      <path d="M -19 4666 
L 3928 4666 
L 3928 4134 
L 2272 4134 
L 2272 0 
L 1638 0 
L 1638 4134 
L -19 4134 
L -19 4666 
z
" id="DejaVuSans-54" transform="scale(0.015625)"/>
      <path d="M 1159 525 
L 1159 -1331 
L 581 -1331 
L 581 3500 
L 1159 3500 
L 1159 2969 
Q 1341 3281 1617 3432 
Q 1894 3584 2278 3584 
Q 2916 3584 3314 3078 
Q 3713 2572 3713 1747 
Q 3713 922 3314 415 
Q 2916 -91 2278 -91 
Q 1894 -91 1617 61 
Q 1341 213 1159 525 
z
M 3116 1747 
Q 3116 2381 2855 2742 
Q 2594 3103 2138 3103 
Q 1681 3103 1420 2742 
Q 1159 2381 1159 1747 
Q 1159 1113 1420 752 
Q 1681 391 2138 391 
Q 2594 391 2855 752 
Q 3116 1113 3116 1747 
z
" id="DejaVuSans-70" transform="scale(0.015625)"/>
      <path d="M 1984 4856 
Q 1566 4138 1362 3434 
Q 1159 2731 1159 2009 
Q 1159 1288 1364 580 
Q 1569 -128 1984 -844 
L 1484 -844 
Q 1016 -109 783 600 
Q 550 1309 550 2009 
Q 550 2706 781 3412 
Q 1013 4119 1484 4856 
L 1984 4856 
z
" id="DejaVuSans-28" transform="scale(0.015625)"/>
      <path d="M 4122 4306 
L 4122 3641 
Q 3803 3938 3442 4084 
Q 3081 4231 2675 4231 
Q 1875 4231 1450 3742 
Q 1025 3253 1025 2328 
Q 1025 1406 1450 917 
Q 1875 428 2675 428 
Q 3081 428 3442 575 
Q 3803 722 4122 1019 
L 4122 359 
Q 3791 134 3420 21 
Q 3050 -91 2638 -91 
Q 1578 -91 968 557 
Q 359 1206 359 2328 
Q 359 3453 968 4101 
Q 1578 4750 2638 4750 
Q 3056 4750 3426 4639 
Q 3797 4528 4122 4306 
z
" id="DejaVuSans-43" transform="scale(0.015625)"/>
      <path d="M 628 4666 
L 1259 4666 
L 1259 2753 
L 3553 2753 
L 3553 4666 
L 4184 4666 
L 4184 0 
L 3553 0 
L 3553 2222 
L 1259 2222 
L 1259 0 
L 628 0 
L 628 4666 
z
" id="DejaVuSans-48" transform="scale(0.015625)"/>
      <path d="M 513 4856 
L 1013 4856 
Q 1481 4119 1714 3412 
Q 1947 2706 1947 2009 
Q 1947 1309 1714 600 
Q 1481 -109 1013 -844 
L 513 -844 
Q 928 -128 1133 580 
Q 1338 1288 1338 2009 
Q 1338 2731 1133 3434 
Q 928 4138 513 4856 
z
" id="DejaVuSans-29" transform="scale(0.015625)"/>
      <path d="M 750 794 
L 1409 794 
L 1409 0 
L 750 0 
L 750 794 
z
M 750 3309 
L 1409 3309 
L 1409 2516 
L 750 2516 
L 750 3309 
z
" id="DejaVuSans-3a" transform="scale(0.015625)"/>
      <path d="M 544 1381 
L 544 3500 
L 1119 3500 
L 1119 1403 
Q 1119 906 1312 657 
Q 1506 409 1894 409 
Q 2359 409 2629 706 
Q 2900 1003 2900 1516 
L 2900 3500 
L 3475 3500 
L 3475 0 
L 2900 0 
L 2900 538 
Q 2691 219 2414 64 
Q 2138 -91 1772 -91 
Q 1169 -91 856 284 
Q 544 659 544 1381 
z
M 1991 3584 
L 1991 3584 
z
" id="DejaVuSans-75" transform="scale(0.015625)"/>
      <path d="M 3263 -1063 
L 3263 -1509 
L -63 -1509 
L -63 -1063 
L 3263 -1063 
z
" id="DejaVuSans-5f" transform="scale(0.015625)"/>
      <path d="M 1259 2228 
L 1259 519 
L 2272 519 
Q 2781 519 3026 730 
Q 3272 941 3272 1375 
Q 3272 1813 3026 2020 
Q 2781 2228 2272 2228 
L 1259 2228 
z
M 1259 4147 
L 1259 2741 
L 2194 2741 
Q 2656 2741 2882 2914 
Q 3109 3088 3109 3444 
Q 3109 3797 2882 3972 
Q 2656 4147 2194 4147 
L 1259 4147 
z
M 628 4666 
L 2241 4666 
Q 2963 4666 3353 4366 
Q 3744 4066 3744 3513 
Q 3744 3084 3544 2831 
Q 3344 2578 2956 2516 
Q 3422 2416 3680 2098 
Q 3938 1781 3938 1306 
Q 3938 681 3513 340 
Q 3088 0 2303 0 
L 628 0 
L 628 4666 
z
" id="DejaVuSans-42" transform="scale(0.015625)"/>
      <path d="M 678 2906 
L 4684 2906 
L 4684 2381 
L 678 2381 
L 678 2906 
z
M 678 1631 
L 4684 1631 
L 4684 1100 
L 678 1100 
L 678 1631 
z
" id="DejaVuSans-3d" transform="scale(0.015625)"/>
      <path d="M 525 4666 
L 3525 4666 
L 3525 4397 
L 1831 0 
L 1172 0 
L 2766 4134 
L 525 4134 
L 525 4666 
z
" id="DejaVuSans-37" transform="scale(0.015625)"/>
      <path d="M 3122 3366 
L 3122 2828 
Q 2878 2963 2633 3030 
Q 2388 3097 2138 3097 
Q 1578 3097 1268 2742 
Q 959 2388 959 1747 
Q 959 1106 1268 751 
Q 1578 397 2138 397 
Q 2388 397 2633 464 
Q 2878 531 3122 666 
L 3122 134 
Q 2881 22 2623 -34 
Q 2366 -91 2075 -91 
Q 1284 -91 818 406 
Q 353 903 353 1747 
Q 353 2603 823 3093 
Q 1294 3584 2113 3584 
Q 2378 3584 2631 3529 
Q 2884 3475 3122 3366 
z
" id="DejaVuSans-63" transform="scale(0.015625)"/>
      <path d="M 313 2009 
L 1997 2009 
L 1997 1497 
L 313 1497 
L 313 2009 
z
" id="DejaVuSans-2d" transform="scale(0.015625)"/>
      <path d="M 1259 4147 
L 1259 519 
L 2022 519 
Q 2988 519 3436 956 
Q 3884 1394 3884 2338 
Q 3884 3275 3436 3711 
Q 2988 4147 2022 4147 
L 1259 4147 
z
M 628 4666 
L 1925 4666 
Q 3281 4666 3915 4102 
Q 4550 3538 4550 2338 
Q 4550 1131 3912 565 
Q 3275 0 1925 0 
L 628 0 
L 628 4666 
z
" id="DejaVuSans-44" transform="scale(0.015625)"/>
      <path d="M 750 794 
L 1409 794 
L 1409 256 
L 897 -744 
L 494 -744 
L 750 256 
L 750 794 
z
" id="DejaVuSans-2c" transform="scale(0.015625)"/>
     </defs>
     <use xlink:href="#DejaVuSans-54"/>
     <use x="46.333984" xlink:href="#DejaVuSans-72"/>
     <use x="87.447266" xlink:href="#DejaVuSans-69"/>
     <use x="115.230469" xlink:href="#DejaVuSans-70"/>
     <use x="178.707031" xlink:href="#DejaVuSans-68"/>
     <use x="242.085938" xlink:href="#DejaVuSans-65"/>
     <use x="303.609375" xlink:href="#DejaVuSans-6e"/>
     <use x="366.988281" xlink:href="#DejaVuSans-79"/>
     <use x="426.167969" xlink:href="#DejaVuSans-6c"/>
     <use x="453.951172" xlink:href="#DejaVuSans-65"/>
     <use x="515.474609" xlink:href="#DejaVuSans-6e"/>
     <use x="578.853516" xlink:href="#DejaVuSans-65"/>
     <use x="640.376953" xlink:href="#DejaVuSans-20"/>
     <use x="672.164062" xlink:href="#DejaVuSans-28"/>
     <use x="711.177734" xlink:href="#DejaVuSans-43"/>
     <use x="781.001953" xlink:href="#DejaVuSans-31"/>
     <use x="844.625" xlink:href="#DejaVuSans-38"/>
     <use x="908.248047" xlink:href="#DejaVuSans-48"/>
     <use x="983.443359" xlink:href="#DejaVuSans-31"/>
     <use x="1047.066406" xlink:href="#DejaVuSans-32"/>
     <use x="1110.689453" xlink:href="#DejaVuSans-29"/>
     <use x="1149.703125" xlink:href="#DejaVuSans-20"/>
     <use x="1181.490234" xlink:href="#DejaVuSans-3a"/>
     <use x="1215.181641" xlink:href="#DejaVuSans-20"/>
     <use x="1246.96875" xlink:href="#DejaVuSans-20"/>
     <use x="1278.755859" xlink:href="#DejaVuSans-67"/>
     <use x="1342.232422" xlink:href="#DejaVuSans-72"/>
     <use x="1381.095703" xlink:href="#DejaVuSans-6f"/>
     <use x="1442.277344" xlink:href="#DejaVuSans-75"/>
     <use x="1505.65625" xlink:href="#DejaVuSans-6e"/>
     <use x="1569.035156" xlink:href="#DejaVuSans-64"/>
     <use x="1632.511719" xlink:href="#DejaVuSans-5f"/>
     <use x="1682.511719" xlink:href="#DejaVuSans-42"/>
     <use x="1751.115234" xlink:href="#DejaVuSans-20"/>
     <use x="1782.902344" xlink:href="#DejaVuSans-3d"/>
     <use x="1866.691406" xlink:href="#DejaVuSans-20"/>
     <use x="1898.478516" xlink:href="#DejaVuSans-20"/>
     <use x="1930.265625" xlink:href="#DejaVuSans-30"/>
     <use x="1993.888672" xlink:href="#DejaVuSans-2e"/>
     <use x="2025.675781" xlink:href="#DejaVuSans-30"/>
     <use x="2089.298828" xlink:href="#DejaVuSans-31"/>
     <use x="2152.921875" xlink:href="#DejaVuSans-37"/>
     <use x="2216.544922" xlink:href="#DejaVuSans-20"/>
     <use x="2248.332031" xlink:href="#DejaVuSans-63"/>
     <use x="2303.3125" xlink:href="#DejaVuSans-6d"/>
     <use x="2400.724609" xlink:href="#DejaVuSans-2d"/>
     <use x="2436.808594" xlink:href="#DejaVuSans-31"/>
     <use x="2500.431641" xlink:href="#DejaVuSans-20"/>
     <use x="2532.21875" xlink:href="#DejaVuSans-20"/>
     <use x="2564.005859" xlink:href="#DejaVuSans-20"/>
     <use x="2595.792969" xlink:href="#DejaVuSans-20"/>
     <use x="2627.580078" xlink:href="#DejaVuSans-44"/>
     <use x="2704.582031" xlink:href="#DejaVuSans-65"/>
     <use x="2766.105469" xlink:href="#DejaVuSans-6c"/>
     <use x="2793.888672" xlink:href="#DejaVuSans-74"/>
     <use x="2833.097656" xlink:href="#DejaVuSans-61"/>
     <use x="2894.376953" xlink:href="#DejaVuSans-5f"/>
     <use x="2944.376953" xlink:href="#DejaVuSans-42"/>
     <use x="3012.980469" xlink:href="#DejaVuSans-20"/>
     <use x="3044.767578" xlink:href="#DejaVuSans-3d"/>
     <use x="3128.556641" xlink:href="#DejaVuSans-20"/>
     <use x="3160.34375" xlink:href="#DejaVuSans-2d"/>
     <use x="3196.427734" xlink:href="#DejaVuSans-30"/>
     <use x="3260.050781" xlink:href="#DejaVuSans-2e"/>
     <use x="3291.837891" xlink:href="#DejaVuSans-32"/>
     <use x="3355.460938" xlink:href="#DejaVuSans-32"/>
     <use x="3419.083984" xlink:href="#DejaVuSans-2c"/>
     <use x="3450.871094" xlink:href="#DejaVuSans-20"/>
     <use x="3482.658203" xlink:href="#DejaVuSans-20"/>
     <use x="3514.445312" xlink:href="#DejaVuSans-20"/>
     <use x="3546.232422" xlink:href="#DejaVuSans-20"/>
     <use x="3578.019531" xlink:href="#DejaVuSans-44"/>
     <use x="3655.021484" xlink:href="#DejaVuSans-65"/>
     <use x="3716.544922" xlink:href="#DejaVuSans-6c"/>
     <use x="3744.328125" xlink:href="#DejaVuSans-74"/>
     <use x="3783.537109" xlink:href="#DejaVuSans-61"/>
     <use x="3844.816406" xlink:href="#DejaVuSans-5f"/>
     <use x="3894.816406" xlink:href="#DejaVuSans-43"/>
     <use x="3964.640625" xlink:href="#DejaVuSans-20"/>
     <use x="3996.427734" xlink:href="#DejaVuSans-3d"/>
     <use x="4080.216797" xlink:href="#DejaVuSans-20"/>
     <use x="4112.003906" xlink:href="#DejaVuSans-2d"/>
     <use x="4148.087891" xlink:href="#DejaVuSans-30"/>
     <use x="4211.710938" xlink:href="#DejaVuSans-2e"/>
     <use x="4243.498047" xlink:href="#DejaVuSans-32"/>
     <use x="4307.121094" xlink:href="#DejaVuSans-35"/>
     <use x="4370.744141" xlink:href="#DejaVuSans-20"/>
     <use x="4402.53125" xlink:href="#DejaVuSans-20"/>
     <use x="4434.318359" xlink:href="#DejaVuSans-20"/>
     <use x="4466.105469" xlink:href="#DejaVuSans-20"/>
     <use x="4497.892578" xlink:href="#DejaVuSans-7a"/>
     <use x="4550.382812" xlink:href="#DejaVuSans-65"/>
     <use x="4611.90625" xlink:href="#DejaVuSans-74"/>
     <use x="4651.115234" xlink:href="#DejaVuSans-61"/>
     <use x="4712.394531" xlink:href="#DejaVuSans-20"/>
     <use x="4744.181641" xlink:href="#DejaVuSans-3d"/>
     <use x="4827.970703" xlink:href="#DejaVuSans-20"/>
     <use x="4859.757812" xlink:href="#DejaVuSans-2d"/>
     <use x="4895.841797" xlink:href="#DejaVuSans-30"/>
     <use x="4959.464844" xlink:href="#DejaVuSans-2e"/>
     <use x="4991.251953" xlink:href="#DejaVuSans-33"/>
     <use x="5054.875" xlink:href="#DejaVuSans-35"/>
    </g>
   </g>
   <g id="legend_1">
    <g id="patch_7">
     <path d="M 57.14375 343.478125 
L 124.482813 343.478125 
Q 126.482813 343.478125 126.482813 341.478125 
L 126.482813 313.121875 
Q 126.482813 311.121875 124.482813 311.121875 
L 57.14375 311.121875 
Q 55.14375 311.121875 55.14375 313.121875 
L 55.14375 341.478125 
Q 55.14375 343.478125 57.14375 343.478125 
z
" style="fill:#ffffff;opacity:0.8;stroke:#cccccc;stroke-linejoin:miter;"/>
    </g>
    <g id="text_19">
     <!-- Temperature -->
     <g transform="translate(59.14375 322.720312)scale(0.1 -0.1)">
      <use xlink:href="#DejaVuSans-54"/>
      <use x="44.083984" xlink:href="#DejaVuSans-65"/>
      <use x="105.607422" xlink:href="#DejaVuSans-6d"/>
      <use x="203.019531" xlink:href="#DejaVuSans-70"/>
      <use x="266.496094" xlink:href="#DejaVuSans-65"/>
      <use x="328.019531" xlink:href="#DejaVuSans-72"/>
      <use x="369.132812" xlink:href="#DejaVuSans-61"/>
      <use x="430.412109" xlink:href="#DejaVuSans-74"/>
      <use x="469.621094" xlink:href="#DejaVuSans-75"/>
      <use x="533" xlink:href="#DejaVuSans-72"/>
      <use x="571.863281" xlink:href="#DejaVuSans-65"/>
     </g>
    </g>
    <g id="line2d_18">
     <path d="M 63.99375 333.898437 
L 83.99375 333.898437 
" style="fill:none;stroke:#e77e63;stroke-linecap:square;"/>
    </g>
    <g id="line2d_19"/>
    <g id="text_20">
     <!-- 14  K -->
     <g transform="translate(91.99375 337.398437)scale(0.1 -0.1)">
      <defs>
       <path d="M 628 4666 
L 1259 4666 
L 1259 2694 
L 3353 4666 
L 4166 4666 
L 1850 2491 
L 4331 0 
L 3500 0 
L 1259 2247 
L 1259 0 
L 628 0 
L 628 4666 
z
" id="DejaVuSans-4b" transform="scale(0.015625)"/>
      </defs>
      <use xlink:href="#DejaVuSans-31"/>
      <use x="63.623047" xlink:href="#DejaVuSans-34"/>
      <use x="127.246094" xlink:href="#DejaVuSans-20"/>
      <use x="159.033203" xlink:href="#DejaVuSans-20"/>
      <use x="190.820312" xlink:href="#DejaVuSans-4b"/>
     </g>
    </g>
   </g>
  </g>
 </g>
 <defs>
  <clipPath id="p268f38998a">
   <rect height="326.16" width="837" x="50.14375" y="22.318125"/>
  </clipPath>
 </defs>
</svg>
