<?xml version="1.0" encoding="utf-8" standalone="no"?>
<!DOCTYPE svg PUBLIC "-//W3C//DTD SVG 1.1//EN"
  "http://www.w3.org/Graphics/SVG/1.1/DTD/svg11.dtd">
<svg height="508.577656pt" version="1.1" viewBox="0 0 910.315625 508.577656" width="910.315625pt" xmlns="http://www.w3.org/2000/svg" xmlns:xlink="http://www.w3.org/1999/xlink">
 <metadata>
  <rdf:RDF xmlns:cc="http://creativecommons.org/ns#" xmlns:dc="http://purl.org/dc/elements/1.1/" xmlns:rdf="http://www.w3.org/1999/02/22-rdf-syntax-ns#">
   <cc:Work>
    <dc:type rdf:resource="http://purl.org/dc/dcmitype/StillImage"/>
    <dc:date>2022-12-15T09:49:24.767133</dc:date>
    <dc:format>image/svg+xml</dc:format>
    <dc:creator>
     <cc:Agent>
      <dc:title>Matplotlib v3.4.3, https://matplotlib.org/</dc:title>
     </cc:Agent>
    </dc:creator>
   </cc:Work>
  </rdf:RDF>
 </metadata>
 <defs>
  <style type="text/css">*{stroke-linecap:butt;stroke-linejoin:round;}</style>
 </defs>
 <g id="figure_1">
  <g id="patch_1">
   <path d="M 0 508.577656 
L 910.315625 508.577656 
L 910.315625 0 
L 0 0 
z
" style="fill:#ffffff;"/>
  </g>
  <g id="axes_1">
   <g id="patch_2">
    <path d="M 66.115625 460.260469 
L 903.115625 460.260469 
L 903.115625 25.380469 
L 66.115625 25.380469 
z
" style="fill:#ffffff;"/>
   </g>
   <g id="matplotlib.axis_1">
    <g id="xtick_1">
     <g id="line2d_1">
      <defs>
       <path d="M 0 0 
L 0 3.5 
" id="m82faf0c959" style="stroke:#000000;stroke-width:0.8;"/>
      </defs>
      <g>
       <use style="stroke:#000000;stroke-width:0.8;" x="149.815625" xlink:href="#m82faf0c959" y="460.260469"/>
      </g>
     </g>
     <g id="text_1">
      <!-- −2 -->
      <g transform="translate(138.758984 478.658125)scale(0.15 -0.15)">
       <defs>
        <path d="M 678 2272 
L 4684 2272 
L 4684 1741 
L 678 1741 
L 678 2272 
z
" id="DejaVuSans-2212" transform="scale(0.015625)"/>
        <path d="M 1228 531 
L 3431 531 
L 3431 0 
L 469 0 
L 469 531 
Q 828 903 1448 1529 
Q 2069 2156 2228 2338 
Q 2531 2678 2651 2914 
Q 2772 3150 2772 3378 
Q 2772 3750 2511 3984 
Q 2250 4219 1831 4219 
Q 1534 4219 1204 4116 
Q 875 4013 500 3803 
L 500 4441 
Q 881 4594 1212 4672 
Q 1544 4750 1819 4750 
Q 2544 4750 2975 4387 
Q 3406 4025 3406 3419 
Q 3406 3131 3298 2873 
Q 3191 2616 2906 2266 
Q 2828 2175 2409 1742 
Q 1991 1309 1228 531 
z
" id="DejaVuSans-32" transform="scale(0.015625)"/>
       </defs>
       <use xlink:href="#DejaVuSans-2212"/>
       <use x="83.789062" xlink:href="#DejaVuSans-32"/>
      </g>
     </g>
    </g>
    <g id="xtick_2">
     <g id="line2d_2">
      <g>
       <use style="stroke:#000000;stroke-width:0.8;" x="317.215625" xlink:href="#m82faf0c959" y="460.260469"/>
      </g>
     </g>
     <g id="text_2">
      <!-- −1 -->
      <g transform="translate(306.158984 478.658125)scale(0.15 -0.15)">
       <defs>
        <path d="M 794 531 
L 1825 531 
L 1825 4091 
L 703 3866 
L 703 4441 
L 1819 4666 
L 2450 4666 
L 2450 531 
L 3481 531 
L 3481 0 
L 794 0 
L 794 531 
z
" id="DejaVuSans-31" transform="scale(0.015625)"/>
       </defs>
       <use xlink:href="#DejaVuSans-2212"/>
       <use x="83.789062" xlink:href="#DejaVuSans-31"/>
      </g>
     </g>
    </g>
    <g id="xtick_3">
     <g id="line2d_3">
      <g>
       <use style="stroke:#000000;stroke-width:0.8;" x="484.615625" xlink:href="#m82faf0c959" y="460.260469"/>
      </g>
     </g>
     <g id="text_3">
      <!-- 0 -->
      <g transform="translate(479.84375 478.658125)scale(0.15 -0.15)">
       <defs>
        <path d="M 2034 4250 
Q 1547 4250 1301 3770 
Q 1056 3291 1056 2328 
Q 1056 1369 1301 889 
Q 1547 409 2034 409 
Q 2525 409 2770 889 
Q 3016 1369 3016 2328 
Q 3016 3291 2770 3770 
Q 2525 4250 2034 4250 
z
M 2034 4750 
Q 2819 4750 3233 4129 
Q 3647 3509 3647 2328 
Q 3647 1150 3233 529 
Q 2819 -91 2034 -91 
Q 1250 -91 836 529 
Q 422 1150 422 2328 
Q 422 3509 836 4129 
Q 1250 4750 2034 4750 
z
" id="DejaVuSans-30" transform="scale(0.015625)"/>
       </defs>
       <use xlink:href="#DejaVuSans-30"/>
      </g>
     </g>
    </g>
    <g id="xtick_4">
     <g id="line2d_4">
      <g>
       <use style="stroke:#000000;stroke-width:0.8;" x="652.015625" xlink:href="#m82faf0c959" y="460.260469"/>
      </g>
     </g>
     <g id="text_4">
      <!-- 1 -->
      <g transform="translate(647.24375 478.658125)scale(0.15 -0.15)">
       <use xlink:href="#DejaVuSans-31"/>
      </g>
     </g>
    </g>
    <g id="xtick_5">
     <g id="line2d_5">
      <g>
       <use style="stroke:#000000;stroke-width:0.8;" x="819.415625" xlink:href="#m82faf0c959" y="460.260469"/>
      </g>
     </g>
     <g id="text_5">
      <!-- 2 -->
      <g transform="translate(814.64375 478.658125)scale(0.15 -0.15)">
       <use xlink:href="#DejaVuSans-32"/>
      </g>
     </g>
    </g>
    <g id="xtick_6">
     <g id="line2d_6">
      <defs>
       <path d="M 0 0 
L 0 2 
" id="m4cd77998b1" style="stroke:#000000;stroke-width:0.6;"/>
      </defs>
      <g>
       <use style="stroke:#000000;stroke-width:0.6;" x="66.115625" xlink:href="#m4cd77998b1" y="460.260469"/>
      </g>
     </g>
    </g>
    <g id="xtick_7">
     <g id="line2d_7">
      <g>
       <use style="stroke:#000000;stroke-width:0.6;" x="233.515625" xlink:href="#m4cd77998b1" y="460.260469"/>
      </g>
     </g>
    </g>
    <g id="xtick_8">
     <g id="line2d_8">
      <g>
       <use style="stroke:#000000;stroke-width:0.6;" x="400.915625" xlink:href="#m4cd77998b1" y="460.260469"/>
      </g>
     </g>
    </g>
    <g id="xtick_9">
     <g id="line2d_9">
      <g>
       <use style="stroke:#000000;stroke-width:0.6;" x="568.315625" xlink:href="#m4cd77998b1" y="460.260469"/>
      </g>
     </g>
    </g>
    <g id="xtick_10">
     <g id="line2d_10">
      <g>
       <use style="stroke:#000000;stroke-width:0.6;" x="735.715625" xlink:href="#m4cd77998b1" y="460.260469"/>
      </g>
     </g>
    </g>
    <g id="xtick_11">
     <g id="line2d_11">
      <g>
       <use style="stroke:#000000;stroke-width:0.6;" x="903.115625" xlink:href="#m4cd77998b1" y="460.260469"/>
      </g>
     </g>
    </g>
    <g id="text_6">
     <!-- Wavenumber (in cm$^{-1}$) -->
     <g transform="translate(397.315625 498.258125)scale(0.15 -0.15)">
      <defs>
       <path d="M 213 4666 
L 850 4666 
L 1831 722 
L 2809 4666 
L 3519 4666 
L 4500 722 
L 5478 4666 
L 6119 4666 
L 4947 0 
L 4153 0 
L 3169 4050 
L 2175 0 
L 1381 0 
L 213 4666 
z
" id="DejaVuSans-57" transform="scale(0.015625)"/>
       <path d="M 2194 1759 
Q 1497 1759 1228 1600 
Q 959 1441 959 1056 
Q 959 750 1161 570 
Q 1363 391 1709 391 
Q 2188 391 2477 730 
Q 2766 1069 2766 1631 
L 2766 1759 
L 2194 1759 
z
M 3341 1997 
L 3341 0 
L 2766 0 
L 2766 531 
Q 2569 213 2275 61 
Q 1981 -91 1556 -91 
Q 1019 -91 701 211 
Q 384 513 384 1019 
Q 384 1609 779 1909 
Q 1175 2209 1959 2209 
L 2766 2209 
L 2766 2266 
Q 2766 2663 2505 2880 
Q 2244 3097 1772 3097 
Q 1472 3097 1187 3025 
Q 903 2953 641 2809 
L 641 3341 
Q 956 3463 1253 3523 
Q 1550 3584 1831 3584 
Q 2591 3584 2966 3190 
Q 3341 2797 3341 1997 
z
" id="DejaVuSans-61" transform="scale(0.015625)"/>
       <path d="M 191 3500 
L 800 3500 
L 1894 563 
L 2988 3500 
L 3597 3500 
L 2284 0 
L 1503 0 
L 191 3500 
z
" id="DejaVuSans-76" transform="scale(0.015625)"/>
       <path d="M 3597 1894 
L 3597 1613 
L 953 1613 
Q 991 1019 1311 708 
Q 1631 397 2203 397 
Q 2534 397 2845 478 
Q 3156 559 3463 722 
L 3463 178 
Q 3153 47 2828 -22 
Q 2503 -91 2169 -91 
Q 1331 -91 842 396 
Q 353 884 353 1716 
Q 353 2575 817 3079 
Q 1281 3584 2069 3584 
Q 2775 3584 3186 3129 
Q 3597 2675 3597 1894 
z
M 3022 2063 
Q 3016 2534 2758 2815 
Q 2500 3097 2075 3097 
Q 1594 3097 1305 2825 
Q 1016 2553 972 2059 
L 3022 2063 
z
" id="DejaVuSans-65" transform="scale(0.015625)"/>
       <path d="M 3513 2113 
L 3513 0 
L 2938 0 
L 2938 2094 
Q 2938 2591 2744 2837 
Q 2550 3084 2163 3084 
Q 1697 3084 1428 2787 
Q 1159 2491 1159 1978 
L 1159 0 
L 581 0 
L 581 3500 
L 1159 3500 
L 1159 2956 
Q 1366 3272 1645 3428 
Q 1925 3584 2291 3584 
Q 2894 3584 3203 3211 
Q 3513 2838 3513 2113 
z
" id="DejaVuSans-6e" transform="scale(0.015625)"/>
       <path d="M 544 1381 
L 544 3500 
L 1119 3500 
L 1119 1403 
Q 1119 906 1312 657 
Q 1506 409 1894 409 
Q 2359 409 2629 706 
Q 2900 1003 2900 1516 
L 2900 3500 
L 3475 3500 
L 3475 0 
L 2900 0 
L 2900 538 
Q 2691 219 2414 64 
Q 2138 -91 1772 -91 
Q 1169 -91 856 284 
Q 544 659 544 1381 
z
M 1991 3584 
L 1991 3584 
z
" id="DejaVuSans-75" transform="scale(0.015625)"/>
       <path d="M 3328 2828 
Q 3544 3216 3844 3400 
Q 4144 3584 4550 3584 
Q 5097 3584 5394 3201 
Q 5691 2819 5691 2113 
L 5691 0 
L 5113 0 
L 5113 2094 
Q 5113 2597 4934 2840 
Q 4756 3084 4391 3084 
Q 3944 3084 3684 2787 
Q 3425 2491 3425 1978 
L 3425 0 
L 2847 0 
L 2847 2094 
Q 2847 2600 2669 2842 
Q 2491 3084 2119 3084 
Q 1678 3084 1418 2786 
Q 1159 2488 1159 1978 
L 1159 0 
L 581 0 
L 581 3500 
L 1159 3500 
L 1159 2956 
Q 1356 3278 1631 3431 
Q 1906 3584 2284 3584 
Q 2666 3584 2933 3390 
Q 3200 3197 3328 2828 
z
" id="DejaVuSans-6d" transform="scale(0.015625)"/>
       <path d="M 3116 1747 
Q 3116 2381 2855 2742 
Q 2594 3103 2138 3103 
Q 1681 3103 1420 2742 
Q 1159 2381 1159 1747 
Q 1159 1113 1420 752 
Q 1681 391 2138 391 
Q 2594 391 2855 752 
Q 3116 1113 3116 1747 
z
M 1159 2969 
Q 1341 3281 1617 3432 
Q 1894 3584 2278 3584 
Q 2916 3584 3314 3078 
Q 3713 2572 3713 1747 
Q 3713 922 3314 415 
Q 2916 -91 2278 -91 
Q 1894 -91 1617 61 
Q 1341 213 1159 525 
L 1159 0 
L 581 0 
L 581 4863 
L 1159 4863 
L 1159 2969 
z
" id="DejaVuSans-62" transform="scale(0.015625)"/>
       <path d="M 2631 2963 
Q 2534 3019 2420 3045 
Q 2306 3072 2169 3072 
Q 1681 3072 1420 2755 
Q 1159 2438 1159 1844 
L 1159 0 
L 581 0 
L 581 3500 
L 1159 3500 
L 1159 2956 
Q 1341 3275 1631 3429 
Q 1922 3584 2338 3584 
Q 2397 3584 2469 3576 
Q 2541 3569 2628 3553 
L 2631 2963 
z
" id="DejaVuSans-72" transform="scale(0.015625)"/>
       <path id="DejaVuSans-20" transform="scale(0.015625)"/>
       <path d="M 1984 4856 
Q 1566 4138 1362 3434 
Q 1159 2731 1159 2009 
Q 1159 1288 1364 580 
Q 1569 -128 1984 -844 
L 1484 -844 
Q 1016 -109 783 600 
Q 550 1309 550 2009 
Q 550 2706 781 3412 
Q 1013 4119 1484 4856 
L 1984 4856 
z
" id="DejaVuSans-28" transform="scale(0.015625)"/>
       <path d="M 603 3500 
L 1178 3500 
L 1178 0 
L 603 0 
L 603 3500 
z
M 603 4863 
L 1178 4863 
L 1178 4134 
L 603 4134 
L 603 4863 
z
" id="DejaVuSans-69" transform="scale(0.015625)"/>
       <path d="M 3122 3366 
L 3122 2828 
Q 2878 2963 2633 3030 
Q 2388 3097 2138 3097 
Q 1578 3097 1268 2742 
Q 959 2388 959 1747 
Q 959 1106 1268 751 
Q 1578 397 2138 397 
Q 2388 397 2633 464 
Q 2878 531 3122 666 
L 3122 134 
Q 2881 22 2623 -34 
Q 2366 -91 2075 -91 
Q 1284 -91 818 406 
Q 353 903 353 1747 
Q 353 2603 823 3093 
Q 1294 3584 2113 3584 
Q 2378 3584 2631 3529 
Q 2884 3475 3122 3366 
z
" id="DejaVuSans-63" transform="scale(0.015625)"/>
       <path d="M 513 4856 
L 1013 4856 
Q 1481 4119 1714 3412 
Q 1947 2706 1947 2009 
Q 1947 1309 1714 600 
Q 1481 -109 1013 -844 
L 513 -844 
Q 928 -128 1133 580 
Q 1338 1288 1338 2009 
Q 1338 2731 1133 3434 
Q 928 4138 513 4856 
z
" id="DejaVuSans-29" transform="scale(0.015625)"/>
      </defs>
      <use transform="translate(0 0.684375)" xlink:href="#DejaVuSans-57"/>
      <use transform="translate(98.876953 0.684375)" xlink:href="#DejaVuSans-61"/>
      <use transform="translate(160.15625 0.684375)" xlink:href="#DejaVuSans-76"/>
      <use transform="translate(219.335938 0.684375)" xlink:href="#DejaVuSans-65"/>
      <use transform="translate(280.859375 0.684375)" xlink:href="#DejaVuSans-6e"/>
      <use transform="translate(344.238281 0.684375)" xlink:href="#DejaVuSans-75"/>
      <use transform="translate(407.617188 0.684375)" xlink:href="#DejaVuSans-6d"/>
      <use transform="translate(505.029297 0.684375)" xlink:href="#DejaVuSans-62"/>
      <use transform="translate(568.505859 0.684375)" xlink:href="#DejaVuSans-65"/>
      <use transform="translate(630.029297 0.684375)" xlink:href="#DejaVuSans-72"/>
      <use transform="translate(671.142578 0.684375)" xlink:href="#DejaVuSans-20"/>
      <use transform="translate(702.929688 0.684375)" xlink:href="#DejaVuSans-28"/>
      <use transform="translate(741.943359 0.684375)" xlink:href="#DejaVuSans-69"/>
      <use transform="translate(769.726562 0.684375)" xlink:href="#DejaVuSans-6e"/>
      <use transform="translate(833.105469 0.684375)" xlink:href="#DejaVuSans-20"/>
      <use transform="translate(864.892578 0.684375)" xlink:href="#DejaVuSans-63"/>
      <use transform="translate(919.873047 0.684375)" xlink:href="#DejaVuSans-6d"/>
      <use transform="translate(1018.242188 38.965625)scale(0.7)" xlink:href="#DejaVuSans-2212"/>
      <use transform="translate(1076.894531 38.965625)scale(0.7)" xlink:href="#DejaVuSans-31"/>
      <use transform="translate(1124.165039 0.684375)" xlink:href="#DejaVuSans-29"/>
     </g>
    </g>
   </g>
   <g id="matplotlib.axis_2">
    <g id="ytick_1">
     <g id="line2d_12">
      <defs>
       <path d="M 0 0 
L -3.5 0 
" id="m7ed9b77005" style="stroke:#000000;stroke-width:0.8;"/>
      </defs>
      <g>
       <use style="stroke:#000000;stroke-width:0.8;" x="66.115625" xlink:href="#m7ed9b77005" y="440.493196"/>
      </g>
     </g>
     <g id="text_7">
      <!-- 0.90 -->
      <g transform="translate(25.717188 446.192024)scale(0.15 -0.15)">
       <defs>
        <path d="M 684 794 
L 1344 794 
L 1344 0 
L 684 0 
L 684 794 
z
" id="DejaVuSans-2e" transform="scale(0.015625)"/>
        <path d="M 703 97 
L 703 672 
Q 941 559 1184 500 
Q 1428 441 1663 441 
Q 2288 441 2617 861 
Q 2947 1281 2994 2138 
Q 2813 1869 2534 1725 
Q 2256 1581 1919 1581 
Q 1219 1581 811 2004 
Q 403 2428 403 3163 
Q 403 3881 828 4315 
Q 1253 4750 1959 4750 
Q 2769 4750 3195 4129 
Q 3622 3509 3622 2328 
Q 3622 1225 3098 567 
Q 2575 -91 1691 -91 
Q 1453 -91 1209 -44 
Q 966 3 703 97 
z
M 1959 2075 
Q 2384 2075 2632 2365 
Q 2881 2656 2881 3163 
Q 2881 3666 2632 3958 
Q 2384 4250 1959 4250 
Q 1534 4250 1286 3958 
Q 1038 3666 1038 3163 
Q 1038 2656 1286 2365 
Q 1534 2075 1959 2075 
z
" id="DejaVuSans-39" transform="scale(0.015625)"/>
       </defs>
       <use xlink:href="#DejaVuSans-30"/>
       <use x="63.623047" xlink:href="#DejaVuSans-2e"/>
       <use x="95.410156" xlink:href="#DejaVuSans-39"/>
       <use x="159.033203" xlink:href="#DejaVuSans-30"/>
      </g>
     </g>
    </g>
    <g id="ytick_2">
     <g id="line2d_13">
      <g>
       <use style="stroke:#000000;stroke-width:0.8;" x="66.115625" xlink:href="#m7ed9b77005" y="364.956136"/>
      </g>
     </g>
     <g id="text_8">
      <!-- 0.92 -->
      <g transform="translate(25.717188 370.654964)scale(0.15 -0.15)">
       <use xlink:href="#DejaVuSans-30"/>
       <use x="63.623047" xlink:href="#DejaVuSans-2e"/>
       <use x="95.410156" xlink:href="#DejaVuSans-39"/>
       <use x="159.033203" xlink:href="#DejaVuSans-32"/>
      </g>
     </g>
    </g>
    <g id="ytick_3">
     <g id="line2d_14">
      <g>
       <use style="stroke:#000000;stroke-width:0.8;" x="66.115625" xlink:href="#m7ed9b77005" y="289.419075"/>
      </g>
     </g>
     <g id="text_9">
      <!-- 0.94 -->
      <g transform="translate(25.717188 295.117903)scale(0.15 -0.15)">
       <defs>
        <path d="M 2419 4116 
L 825 1625 
L 2419 1625 
L 2419 4116 
z
M 2253 4666 
L 3047 4666 
L 3047 1625 
L 3713 1625 
L 3713 1100 
L 3047 1100 
L 3047 0 
L 2419 0 
L 2419 1100 
L 313 1100 
L 313 1709 
L 2253 4666 
z
" id="DejaVuSans-34" transform="scale(0.015625)"/>
       </defs>
       <use xlink:href="#DejaVuSans-30"/>
       <use x="63.623047" xlink:href="#DejaVuSans-2e"/>
       <use x="95.410156" xlink:href="#DejaVuSans-39"/>
       <use x="159.033203" xlink:href="#DejaVuSans-34"/>
      </g>
     </g>
    </g>
    <g id="ytick_4">
     <g id="line2d_15">
      <g>
       <use style="stroke:#000000;stroke-width:0.8;" x="66.115625" xlink:href="#m7ed9b77005" y="213.882015"/>
      </g>
     </g>
     <g id="text_10">
      <!-- 0.96 -->
      <g transform="translate(25.717188 219.580843)scale(0.15 -0.15)">
       <defs>
        <path d="M 2113 2584 
Q 1688 2584 1439 2293 
Q 1191 2003 1191 1497 
Q 1191 994 1439 701 
Q 1688 409 2113 409 
Q 2538 409 2786 701 
Q 3034 994 3034 1497 
Q 3034 2003 2786 2293 
Q 2538 2584 2113 2584 
z
M 3366 4563 
L 3366 3988 
Q 3128 4100 2886 4159 
Q 2644 4219 2406 4219 
Q 1781 4219 1451 3797 
Q 1122 3375 1075 2522 
Q 1259 2794 1537 2939 
Q 1816 3084 2150 3084 
Q 2853 3084 3261 2657 
Q 3669 2231 3669 1497 
Q 3669 778 3244 343 
Q 2819 -91 2113 -91 
Q 1303 -91 875 529 
Q 447 1150 447 2328 
Q 447 3434 972 4092 
Q 1497 4750 2381 4750 
Q 2619 4750 2861 4703 
Q 3103 4656 3366 4563 
z
" id="DejaVuSans-36" transform="scale(0.015625)"/>
       </defs>
       <use xlink:href="#DejaVuSans-30"/>
       <use x="63.623047" xlink:href="#DejaVuSans-2e"/>
       <use x="95.410156" xlink:href="#DejaVuSans-39"/>
       <use x="159.033203" xlink:href="#DejaVuSans-36"/>
      </g>
     </g>
    </g>
    <g id="ytick_5">
     <g id="line2d_16">
      <g>
       <use style="stroke:#000000;stroke-width:0.8;" x="66.115625" xlink:href="#m7ed9b77005" y="138.344954"/>
      </g>
     </g>
     <g id="text_11">
      <!-- 0.98 -->
      <g transform="translate(25.717188 144.043782)scale(0.15 -0.15)">
       <defs>
        <path d="M 2034 2216 
Q 1584 2216 1326 1975 
Q 1069 1734 1069 1313 
Q 1069 891 1326 650 
Q 1584 409 2034 409 
Q 2484 409 2743 651 
Q 3003 894 3003 1313 
Q 3003 1734 2745 1975 
Q 2488 2216 2034 2216 
z
M 1403 2484 
Q 997 2584 770 2862 
Q 544 3141 544 3541 
Q 544 4100 942 4425 
Q 1341 4750 2034 4750 
Q 2731 4750 3128 4425 
Q 3525 4100 3525 3541 
Q 3525 3141 3298 2862 
Q 3072 2584 2669 2484 
Q 3125 2378 3379 2068 
Q 3634 1759 3634 1313 
Q 3634 634 3220 271 
Q 2806 -91 2034 -91 
Q 1263 -91 848 271 
Q 434 634 434 1313 
Q 434 1759 690 2068 
Q 947 2378 1403 2484 
z
M 1172 3481 
Q 1172 3119 1398 2916 
Q 1625 2713 2034 2713 
Q 2441 2713 2670 2916 
Q 2900 3119 2900 3481 
Q 2900 3844 2670 4047 
Q 2441 4250 2034 4250 
Q 1625 4250 1398 4047 
Q 1172 3844 1172 3481 
z
" id="DejaVuSans-38" transform="scale(0.015625)"/>
       </defs>
       <use xlink:href="#DejaVuSans-30"/>
       <use x="63.623047" xlink:href="#DejaVuSans-2e"/>
       <use x="95.410156" xlink:href="#DejaVuSans-39"/>
       <use x="159.033203" xlink:href="#DejaVuSans-38"/>
      </g>
     </g>
    </g>
    <g id="ytick_6">
     <g id="line2d_17">
      <g>
       <use style="stroke:#000000;stroke-width:0.8;" x="66.115625" xlink:href="#m7ed9b77005" y="62.807894"/>
      </g>
     </g>
     <g id="text_12">
      <!-- 1.00 -->
      <g transform="translate(25.717188 68.506722)scale(0.15 -0.15)">
       <use xlink:href="#DejaVuSans-31"/>
       <use x="63.623047" xlink:href="#DejaVuSans-2e"/>
       <use x="95.410156" xlink:href="#DejaVuSans-30"/>
       <use x="159.033203" xlink:href="#DejaVuSans-30"/>
      </g>
     </g>
    </g>
    <g id="ytick_7">
     <g id="line2d_18">
      <defs>
       <path d="M 0 0 
L -2 0 
" id="md5b60e97b6" style="stroke:#000000;stroke-width:0.6;"/>
      </defs>
      <g>
       <use style="stroke:#000000;stroke-width:0.6;" x="66.115625" xlink:href="#md5b60e97b6" y="402.724666"/>
      </g>
     </g>
    </g>
    <g id="ytick_8">
     <g id="line2d_19">
      <g>
       <use style="stroke:#000000;stroke-width:0.6;" x="66.115625" xlink:href="#md5b60e97b6" y="327.187605"/>
      </g>
     </g>
    </g>
    <g id="ytick_9">
     <g id="line2d_20">
      <g>
       <use style="stroke:#000000;stroke-width:0.6;" x="66.115625" xlink:href="#md5b60e97b6" y="251.650545"/>
      </g>
     </g>
    </g>
    <g id="ytick_10">
     <g id="line2d_21">
      <g>
       <use style="stroke:#000000;stroke-width:0.6;" x="66.115625" xlink:href="#md5b60e97b6" y="176.113485"/>
      </g>
     </g>
    </g>
    <g id="ytick_11">
     <g id="line2d_22">
      <g>
       <use style="stroke:#000000;stroke-width:0.6;" x="66.115625" xlink:href="#md5b60e97b6" y="100.576424"/>
      </g>
     </g>
    </g>
    <g id="text_13">
     <!-- Normalized Intensity -->
     <g transform="translate(18.597656 320.381016)rotate(-90)scale(0.15 -0.15)">
      <defs>
       <path d="M 628 4666 
L 1478 4666 
L 3547 763 
L 3547 4666 
L 4159 4666 
L 4159 0 
L 3309 0 
L 1241 3903 
L 1241 0 
L 628 0 
L 628 4666 
z
" id="DejaVuSans-4e" transform="scale(0.015625)"/>
       <path d="M 1959 3097 
Q 1497 3097 1228 2736 
Q 959 2375 959 1747 
Q 959 1119 1226 758 
Q 1494 397 1959 397 
Q 2419 397 2687 759 
Q 2956 1122 2956 1747 
Q 2956 2369 2687 2733 
Q 2419 3097 1959 3097 
z
M 1959 3584 
Q 2709 3584 3137 3096 
Q 3566 2609 3566 1747 
Q 3566 888 3137 398 
Q 2709 -91 1959 -91 
Q 1206 -91 779 398 
Q 353 888 353 1747 
Q 353 2609 779 3096 
Q 1206 3584 1959 3584 
z
" id="DejaVuSans-6f" transform="scale(0.015625)"/>
       <path d="M 603 4863 
L 1178 4863 
L 1178 0 
L 603 0 
L 603 4863 
z
" id="DejaVuSans-6c" transform="scale(0.015625)"/>
       <path d="M 353 3500 
L 3084 3500 
L 3084 2975 
L 922 459 
L 3084 459 
L 3084 0 
L 275 0 
L 275 525 
L 2438 3041 
L 353 3041 
L 353 3500 
z
" id="DejaVuSans-7a" transform="scale(0.015625)"/>
       <path d="M 2906 2969 
L 2906 4863 
L 3481 4863 
L 3481 0 
L 2906 0 
L 2906 525 
Q 2725 213 2448 61 
Q 2172 -91 1784 -91 
Q 1150 -91 751 415 
Q 353 922 353 1747 
Q 353 2572 751 3078 
Q 1150 3584 1784 3584 
Q 2172 3584 2448 3432 
Q 2725 3281 2906 2969 
z
M 947 1747 
Q 947 1113 1208 752 
Q 1469 391 1925 391 
Q 2381 391 2643 752 
Q 2906 1113 2906 1747 
Q 2906 2381 2643 2742 
Q 2381 3103 1925 3103 
Q 1469 3103 1208 2742 
Q 947 2381 947 1747 
z
" id="DejaVuSans-64" transform="scale(0.015625)"/>
       <path d="M 628 4666 
L 1259 4666 
L 1259 0 
L 628 0 
L 628 4666 
z
" id="DejaVuSans-49" transform="scale(0.015625)"/>
       <path d="M 1172 4494 
L 1172 3500 
L 2356 3500 
L 2356 3053 
L 1172 3053 
L 1172 1153 
Q 1172 725 1289 603 
Q 1406 481 1766 481 
L 2356 481 
L 2356 0 
L 1766 0 
Q 1100 0 847 248 
Q 594 497 594 1153 
L 594 3053 
L 172 3053 
L 172 3500 
L 594 3500 
L 594 4494 
L 1172 4494 
z
" id="DejaVuSans-74" transform="scale(0.015625)"/>
       <path d="M 2834 3397 
L 2834 2853 
Q 2591 2978 2328 3040 
Q 2066 3103 1784 3103 
Q 1356 3103 1142 2972 
Q 928 2841 928 2578 
Q 928 2378 1081 2264 
Q 1234 2150 1697 2047 
L 1894 2003 
Q 2506 1872 2764 1633 
Q 3022 1394 3022 966 
Q 3022 478 2636 193 
Q 2250 -91 1575 -91 
Q 1294 -91 989 -36 
Q 684 19 347 128 
L 347 722 
Q 666 556 975 473 
Q 1284 391 1588 391 
Q 1994 391 2212 530 
Q 2431 669 2431 922 
Q 2431 1156 2273 1281 
Q 2116 1406 1581 1522 
L 1381 1569 
Q 847 1681 609 1914 
Q 372 2147 372 2553 
Q 372 3047 722 3315 
Q 1072 3584 1716 3584 
Q 2034 3584 2315 3537 
Q 2597 3491 2834 3397 
z
" id="DejaVuSans-73" transform="scale(0.015625)"/>
       <path d="M 2059 -325 
Q 1816 -950 1584 -1140 
Q 1353 -1331 966 -1331 
L 506 -1331 
L 506 -850 
L 844 -850 
Q 1081 -850 1212 -737 
Q 1344 -625 1503 -206 
L 1606 56 
L 191 3500 
L 800 3500 
L 1894 763 
L 2988 3500 
L 3597 3500 
L 2059 -325 
z
" id="DejaVuSans-79" transform="scale(0.015625)"/>
      </defs>
      <use xlink:href="#DejaVuSans-4e"/>
      <use x="74.804688" xlink:href="#DejaVuSans-6f"/>
      <use x="135.986328" xlink:href="#DejaVuSans-72"/>
      <use x="175.349609" xlink:href="#DejaVuSans-6d"/>
      <use x="272.761719" xlink:href="#DejaVuSans-61"/>
      <use x="334.041016" xlink:href="#DejaVuSans-6c"/>
      <use x="361.824219" xlink:href="#DejaVuSans-69"/>
      <use x="389.607422" xlink:href="#DejaVuSans-7a"/>
      <use x="442.097656" xlink:href="#DejaVuSans-65"/>
      <use x="503.621094" xlink:href="#DejaVuSans-64"/>
      <use x="567.097656" xlink:href="#DejaVuSans-20"/>
      <use x="598.884766" xlink:href="#DejaVuSans-49"/>
      <use x="628.376953" xlink:href="#DejaVuSans-6e"/>
      <use x="691.755859" xlink:href="#DejaVuSans-74"/>
      <use x="730.964844" xlink:href="#DejaVuSans-65"/>
      <use x="792.488281" xlink:href="#DejaVuSans-6e"/>
      <use x="855.867188" xlink:href="#DejaVuSans-73"/>
      <use x="907.966797" xlink:href="#DejaVuSans-69"/>
      <use x="935.75" xlink:href="#DejaVuSans-74"/>
      <use x="974.958984" xlink:href="#DejaVuSans-79"/>
     </g>
    </g>
   </g>
   <g id="line2d_23">
    <path clip-path="url(#pe5df44dfbd)" d="M 20.263872 62.84678 
L 68.992142 63.009895 
L 94.789462 63.285678 
L 111.987675 63.64709 
L 126.319519 64.137899 
L 137.784995 64.716936 
L 149.25047 65.528804 
L 157.849577 66.339142 
L 166.448683 67.369277 
L 175.04779 68.670425 
L 180.780527 69.717735 
L 186.513265 70.932175 
L 192.246003 72.335793 
L 197.97874 73.952545 
L 203.711478 75.808228 
L 209.444216 77.93037 
L 215.176954 80.348037 
L 220.909691 83.091557 
L 226.642429 86.192152 
L 232.375167 89.681453 
L 238.107904 93.590906 
L 243.840642 97.951041 
L 249.57338 102.790618 
L 255.306117 108.135634 
L 261.038855 114.008198 
L 266.771593 120.425299 
L 272.50433 127.397456 
L 278.237068 134.927316 
L 283.969806 143.008205 
L 289.702544 151.622705 
L 295.435281 160.741315 
L 301.168019 170.321279 
L 306.900757 180.305675 
L 315.499863 195.879861 
L 329.831707 222.638459 
L 338.430814 238.54091 
L 344.163552 248.810369 
L 349.896289 258.660251 
L 355.629027 267.966172 
L 361.361765 276.619137 
L 367.094502 284.534807 
L 369.960871 288.199026 
L 372.82724 291.663625 
L 375.693609 294.929553 
L 378.559978 298.001201 
L 381.426347 300.886676 
L 384.292715 303.598029 
L 390.025453 308.567248 
L 395.758191 313.088764 
L 407.223666 321.825803 
L 410.090035 324.17718 
L 412.956404 326.682047 
L 415.822773 329.383995 
L 418.689142 332.324824 
L 421.55551 335.543122 
L 424.421879 339.072752 
L 427.288248 342.941286 
L 430.154617 347.16843 
L 433.020986 351.76451 
L 435.887355 356.72907 
L 438.753723 362.049668 
L 441.620092 367.70093 
L 447.35283 379.826008 
L 461.684674 411.588273 
L 464.551043 417.422198 
L 467.417412 422.825204 
L 470.283781 427.685146 
L 473.15015 431.895307 
L 476.016518 435.358038 
L 478.882887 437.988276 
L 481.749256 439.71682 
L 484.615625 440.493196 
L 487.481994 440.287991 
L 490.348363 439.094527 
L 493.214732 436.929785 
L 496.0811 433.834532 
L 498.947469 429.872604 
L 501.813838 425.129368 
L 504.680207 419.709417 
L 507.546576 413.733569 
L 510.412945 407.335291 
L 524.744789 374.042292 
L 527.611158 368.095085 
L 530.477527 362.66358 
L 533.343895 357.835723 
L 536.210264 353.679455 
L 539.076633 350.241462 
L 541.943002 347.546646 
L 544.809371 345.59829 
L 547.67574 344.378875 
L 550.542108 343.851469 
L 553.408477 343.961603 
L 556.274846 344.639544 
L 559.141215 345.802846 
L 562.007584 347.359082 
L 564.873953 349.208655 
L 570.60669 353.370224 
L 576.339428 357.450416 
L 579.205797 359.20974 
L 582.072166 360.660056 
L 584.938535 361.720029 
L 587.804903 362.317746 
L 590.671272 362.391525 
L 593.537641 361.890432 
L 596.40401 360.774527 
L 599.270379 359.014874 
L 602.136748 356.593339 
L 605.003117 353.502197 
L 607.869485 349.743592 
L 610.735854 345.328872 
L 613.602223 340.277822 
L 616.468592 334.617832 
L 619.334961 328.383007 
L 622.20133 321.613258 
L 625.067698 314.353373 
L 627.934067 306.652095 
L 630.800436 298.561225 
L 636.533174 281.427988 
L 642.265912 263.397036 
L 659.464125 208.198952 
L 665.196862 190.683422 
L 670.9296 174.106544 
L 676.662338 158.675364 
L 679.528706 151.436991 
L 682.395075 144.534556 
L 685.261444 137.976908 
L 688.127813 131.769523 
L 690.994182 125.914727 
L 693.860551 120.41193 
L 696.72692 115.257892 
L 699.593288 110.446983 
L 702.459657 105.971465 
L 705.326026 101.821764 
L 708.192395 97.986742 
L 711.058764 94.453969 
L 713.925133 91.209976 
L 716.791501 88.240501 
L 719.65787 85.530714 
L 722.524239 83.065436 
L 725.390608 80.829328 
L 728.256977 78.807063 
L 731.123346 76.983488 
L 733.989715 75.343749 
L 736.856083 73.873414 
L 739.722452 72.558564 
L 742.588821 71.38587 
L 748.321559 69.416939 
L 754.054296 67.87372 
L 759.787034 66.675076 
L 765.519772 65.751647 
L 771.25251 65.045298 
L 779.851616 64.290695 
L 788.450723 63.794842 
L 799.916198 63.38934 
L 814.248042 63.117237 
L 837.178993 62.928754 
L 865.842681 62.847844 
L 865.842681 62.847844 
" style="fill:none;stroke:#de5d5c;stroke-linecap:square;stroke-width:1.5;"/>
   </g>
   <g id="line2d_24">
    <path clip-path="url(#pe5df44dfbd)" d="M 367.435625 460.260469 
L 367.435625 25.380469 
" style="fill:none;stroke:#000000;stroke-dasharray:1.5,2.475;stroke-dashoffset:0;stroke-width:1.5;"/>
   </g>
   <g id="line2d_25">
    <path clip-path="url(#pe5df44dfbd)" d="M 387.523625 460.260469 
L 387.523625 25.380469 
" style="fill:none;stroke:#000000;stroke-dasharray:1.5,2.475;stroke-dashoffset:0;stroke-width:1.5;"/>
   </g>
   <g id="line2d_26">
    <path clip-path="url(#pe5df44dfbd)" d="M 591.751625 460.260469 
L 591.751625 25.380469 
" style="fill:none;stroke:#000000;stroke-dasharray:1.5,2.475;stroke-dashoffset:0;stroke-width:1.5;"/>
   </g>
   <g id="line2d_27">
    <path clip-path="url(#pe5df44dfbd)" d="M 615.187625 460.260469 
L 615.187625 25.380469 
" style="fill:none;stroke:#000000;stroke-dasharray:1.5,2.475;stroke-dashoffset:0;stroke-width:1.5;"/>
   </g>
   <g id="line2d_28">
    <path clip-path="url(#pe5df44dfbd)" d="M -1 63.078846 
L 25.99661 63.371136 
L 46.061192 63.768828 
L 63.259405 64.313489 
L 77.591249 64.980857 
L 89.056724 65.706622 
L 100.5222 66.654812 
L 109.121306 67.547179 
L 117.720413 68.627308 
L 126.319519 69.928888 
L 134.918626 71.49 
L 143.517732 73.353234 
L 149.25047 74.786299 
L 154.983208 76.389482 
L 160.715945 78.178582 
L 166.448683 80.17011 
L 172.181421 82.381176 
L 177.914159 84.829351 
L 183.646896 87.532495 
L 189.379634 90.508539 
L 195.112372 93.775232 
L 200.845109 97.349849 
L 206.577847 101.248836 
L 212.310585 105.487434 
L 218.043322 110.079232 
L 223.77606 115.035696 
L 229.508798 120.365644 
L 235.241535 126.074689 
L 240.974273 132.164658 
L 246.707011 138.63299 
L 252.439749 145.472124 
L 258.172486 152.668908 
L 263.905224 160.204037 
L 269.637962 168.051539 
L 278.237068 180.33415 
L 286.836175 193.100497 
L 301.168019 214.9442 
L 312.633494 232.313326 
L 321.232601 244.866934 
L 326.965338 252.854797 
L 332.698076 260.44224 
L 338.430814 267.553048 
L 344.163552 274.120209 
L 349.896289 280.090367 
L 352.762658 282.839854 
L 355.629027 285.42883 
L 358.495396 287.856766 
L 361.361765 290.12499 
L 364.228133 292.23687 
L 367.094502 294.197984 
L 369.960871 296.016284 
L 375.693609 299.269043 
L 381.426347 302.111587 
L 398.62456 310.017969 
L 401.490928 311.562774 
L 404.357297 313.266911 
L 407.223666 315.168265 
L 410.090035 317.304509 
L 412.956404 319.712227 
L 415.822773 322.425945 
L 418.689142 325.47705 
L 421.55551 328.892636 
L 424.421879 332.694288 
L 427.288248 336.896844 
L 430.154617 341.507163 
L 433.020986 346.522955 
L 435.887355 351.931708 
L 438.753723 357.709785 
L 441.620092 363.821725 
L 447.35283 376.84403 
L 461.684674 410.459809 
L 464.551043 416.575047 
L 467.417412 422.225945 
L 470.283781 427.298452 
L 473.15015 431.683054 
L 476.016518 435.27806 
L 478.882887 437.992863 
L 481.749256 439.751044 
L 484.615625 440.493196 
L 487.481994 440.179354 
L 490.348363 438.790911 
L 493.214732 436.331928 
L 496.0811 432.829776 
L 498.947469 428.33505 
L 501.813838 422.920751 
L 504.680207 416.680744 
L 507.546576 409.727543 
L 510.412945 402.189494 
L 516.145682 385.931105 
L 524.744789 360.881791 
L 527.611158 352.962109 
L 530.477527 345.490126 
L 533.343895 338.586917 
L 536.210264 332.357347 
L 539.076633 326.888048 
L 541.943002 322.245994 
L 544.809371 318.477697 
L 547.67574 315.609009 
L 550.542108 313.645486 
L 553.408477 312.57328 
L 556.274846 312.360467 
L 559.141215 312.958757 
L 562.007584 314.305477 
L 564.873953 316.325768 
L 567.740322 318.934888 
L 570.60669 322.040553 
L 573.473059 325.545257 
L 576.339428 329.348483 
L 582.072166 337.445691 
L 587.804903 345.54215 
L 590.671272 349.359681 
L 593.537641 352.912014 
L 596.40401 356.124355 
L 599.270379 358.929654 
L 602.136748 361.269001 
L 605.003117 363.091845 
L 607.869485 364.356069 
L 610.735854 365.027927 
L 613.602223 365.081881 
L 616.468592 364.500341 
L 619.334961 363.273329 
L 622.20133 361.398087 
L 625.067698 358.878638 
L 627.934067 355.72531 
L 630.800436 351.954235 
L 633.666805 347.586829 
L 636.533174 342.649267 
L 639.399543 337.171939 
L 642.265912 331.188923 
L 645.13228 324.737443 
L 647.998649 317.857347 
L 650.865018 310.590585 
L 656.597756 295.072376 
L 662.330493 278.541725 
L 670.9296 252.637078 
L 682.395075 217.817996 
L 688.127813 200.969451 
L 693.860551 184.829138 
L 699.593288 169.592844 
L 705.326026 155.41013 
L 708.192395 148.748049 
L 711.058764 142.384834 
L 713.925133 136.3267 
L 716.791501 130.577379 
L 719.65787 125.138265 
L 722.524239 120.008578 
L 725.390608 115.18554 
L 728.256977 110.664555 
L 731.123346 106.4394 
L 733.989715 102.502412 
L 736.856083 98.844684 
L 739.722452 95.456252 
L 742.588821 92.326279 
L 745.45519 89.443231 
L 748.321559 86.795049 
L 751.187928 84.369307 
L 754.054296 82.153359 
L 756.920665 80.134478 
L 759.787034 78.299976 
L 762.653403 76.637318 
L 765.519772 75.134216 
L 768.386141 73.778714 
L 771.25251 72.559258 
L 776.985247 70.484628 
L 782.717985 68.827881 
L 788.450723 67.515571 
L 794.18346 66.483611 
L 799.916198 65.677146 
L 805.648936 65.05006 
L 814.248042 64.364336 
L 822.847149 63.898379 
L 834.312624 63.49954 
L 851.510837 63.173112 
L 877.308157 62.959199 
L 911.315625 62.857707 
L 911.315625 62.857707 
" style="fill:none;stroke:#9a3670;stroke-linecap:square;stroke-width:1.5;"/>
   </g>
   <g id="line2d_29">
    <path clip-path="url(#pe5df44dfbd)" d="M 367.435625 460.260469 
L 367.435625 25.380469 
" style="fill:none;stroke:#000000;stroke-dasharray:1.5,2.475;stroke-dashoffset:0;stroke-width:1.5;"/>
   </g>
   <g id="line2d_30">
    <path clip-path="url(#pe5df44dfbd)" d="M 387.523625 460.260469 
L 387.523625 25.380469 
" style="fill:none;stroke:#000000;stroke-dasharray:1.5,2.475;stroke-dashoffset:0;stroke-width:1.5;"/>
   </g>
   <g id="line2d_31">
    <path clip-path="url(#pe5df44dfbd)" d="M 591.751625 460.260469 
L 591.751625 25.380469 
" style="fill:none;stroke:#000000;stroke-dasharray:1.5,2.475;stroke-dashoffset:0;stroke-width:1.5;"/>
   </g>
   <g id="line2d_32">
    <path clip-path="url(#pe5df44dfbd)" d="M 615.187625 460.260469 
L 615.187625 25.380469 
" style="fill:none;stroke:#000000;stroke-dasharray:1.5,2.475;stroke-dashoffset:0;stroke-width:1.5;"/>
   </g>
   <g id="line2d_33">
    <path clip-path="url(#pe5df44dfbd)" d="M 911.315625 66.734997 
L 911.236251 66.744262 
L 895.413508 67.41876 
L 879.590863 64.624761 
L 863.768318 64.714334 
L 847.945871 57.081133 
L 832.123523 57.45547 
L 816.301274 64.039501 
L 800.479124 63.386389 
L 784.657072 66.560548 
L 768.83512 62.756553 
L 753.013267 67.39551 
L 737.191512 78.314732 
L 721.369856 91.463694 
L 705.5483 114.074073 
L 689.726842 155.170835 
L 673.905483 206.122775 
L 642.263061 313.599318 
L 626.441999 353.11892 
L 610.621035 353.935429 
L 594.800171 348.664536 
L 578.979405 329.020266 
L 563.158738 321.273378 
L 547.33817 329.367479 
L 531.517701 347.983833 
L 515.697331 390.815945 
L 499.877059 426.344513 
L 484.056887 436.657554 
L 468.236813 420.424648 
L 452.416838 385.792929 
L 436.596963 360.357381 
L 420.777186 333.428417 
L 404.957507 317.865467 
L 389.137928 318.123373 
L 373.318448 323.60751 
L 357.499066 312.933509 
L 341.679784 301.285631 
L 325.8606 271.309994 
L 310.041515 235.1623 
L 294.222529 215.84107 
L 278.403642 194.030818 
L 262.584854 173.996268 
L 246.766164 172.452168 
L 230.947574 164.014477 
L 215.129082 158.335987 
L 199.310689 143.179284 
L 183.492395 139.569448 
L 167.6742 130.261906 
L 151.856104 115.055993 
L 136.038107 113.752948 
L 120.220208 116.020192 
L 104.402408 115.043447 
L 88.584708 108.317527 
L 72.767106 106.27393 
L 56.949603 98.41889 
L 41.132199 97.52361 
L 25.314893 91.167586 
L 9.497687 84.02527 
L -1 84.078322 
L -1 84.078322 
" style="fill:none;stroke:#000000;stroke-linecap:square;stroke-width:1.5;"/>
   </g>
   <g id="line2d_34">
    <path clip-path="url(#pe5df44dfbd)" d="M 911.315625 59.027552 
L 910.319094 59.028892 
L 894.496251 60.3369 
L 878.673508 59.611185 
L 862.850863 61.680052 
L 847.028318 60.996298 
L 831.205871 59.981774 
L 815.383523 67.275525 
L 799.561274 59.602377 
L 783.739124 60.592158 
L 767.917072 73.500607 
L 752.09512 72.753895 
L 736.273267 84.030115 
L 720.451512 101.248737 
L 704.629856 126.404904 
L 688.8083 159.248101 
L 672.986842 209.903855 
L 657.165483 258.264471 
L 641.344222 315.017336 
L 625.523061 350.125876 
L 609.701999 374.531278 
L 593.881035 380.231248 
L 578.060171 369.172353 
L 562.239405 360.905638 
L 546.418738 366.6632 
L 530.59817 387.146172 
L 514.777701 413.338829 
L 498.957331 431.837252 
L 483.137059 439.386552 
L 451.496813 407.0998 
L 435.676838 382.817821 
L 419.856963 359.359126 
L 388.217507 343.28201 
L 372.397928 333.770183 
L 356.578448 319.653751 
L 340.759066 288.068805 
L 324.939784 263.492674 
L 309.1206 233.119061 
L 293.301515 208.80813 
L 277.482529 190.154581 
L 261.663642 167.920919 
L 245.844854 155.091935 
L 230.026164 145.341904 
L 214.207574 133.986183 
L 198.389082 126.340719 
L 182.570689 117.618209 
L 166.752395 112.268759 
L 150.9342 109.430201 
L 135.116104 107.784983 
L 119.298107 111.052974 
L 103.480208 109.243609 
L 87.662408 107.31002 
L 56.027106 99.685807 
L 40.209603 92.541506 
L 24.392199 89.681765 
L 8.574893 91.372452 
L -1 89.740841 
L -1 89.740841 
" style="fill:none;stroke:#808080;stroke-linecap:square;stroke-width:1.5;"/>
   </g>
   <g id="patch_3">
    <path d="M 66.115625 460.260469 
L 66.115625 25.380469 
" style="fill:none;stroke:#000000;stroke-linecap:square;stroke-linejoin:miter;stroke-width:0.8;"/>
   </g>
   <g id="patch_4">
    <path d="M 903.115625 460.260469 
L 903.115625 25.380469 
" style="fill:none;stroke:#000000;stroke-linecap:square;stroke-linejoin:miter;stroke-width:0.8;"/>
   </g>
   <g id="patch_5">
    <path d="M 66.115625 460.260469 
L 903.115625 460.260469 
" style="fill:none;stroke:#000000;stroke-linecap:square;stroke-linejoin:miter;stroke-width:0.8;"/>
   </g>
   <g id="patch_6">
    <path d="M 66.115625 25.380469 
L 903.115625 25.380469 
" style="fill:none;stroke:#000000;stroke-linecap:square;stroke-linejoin:miter;stroke-width:0.8;"/>
   </g>
   <g id="text_14">
    <!-- B = 0.00947 cm$^{-1}$   $\Delta B =$ -0.42% ,  $\Delta C =$ -0.42% -->
    <g transform="translate(301.990625 19.380469)scale(0.15 -0.15)">
     <defs>
      <path d="M 1259 2228 
L 1259 519 
L 2272 519 
Q 2781 519 3026 730 
Q 3272 941 3272 1375 
Q 3272 1813 3026 2020 
Q 2781 2228 2272 2228 
L 1259 2228 
z
M 1259 4147 
L 1259 2741 
L 2194 2741 
Q 2656 2741 2882 2914 
Q 3109 3088 3109 3444 
Q 3109 3797 2882 3972 
Q 2656 4147 2194 4147 
L 1259 4147 
z
M 628 4666 
L 2241 4666 
Q 2963 4666 3353 4366 
Q 3744 4066 3744 3513 
Q 3744 3084 3544 2831 
Q 3344 2578 2956 2516 
Q 3422 2416 3680 2098 
Q 3938 1781 3938 1306 
Q 3938 681 3513 340 
Q 3088 0 2303 0 
L 628 0 
L 628 4666 
z
" id="DejaVuSans-42" transform="scale(0.015625)"/>
      <path d="M 678 2906 
L 4684 2906 
L 4684 2381 
L 678 2381 
L 678 2906 
z
M 678 1631 
L 4684 1631 
L 4684 1100 
L 678 1100 
L 678 1631 
z
" id="DejaVuSans-3d" transform="scale(0.015625)"/>
      <path d="M 525 4666 
L 3525 4666 
L 3525 4397 
L 1831 0 
L 1172 0 
L 2766 4134 
L 525 4134 
L 525 4666 
z
" id="DejaVuSans-37" transform="scale(0.015625)"/>
      <path d="M 2188 4044 
L 906 525 
L 3472 525 
L 2188 4044 
z
M 50 0 
L 1831 4666 
L 2547 4666 
L 4325 0 
L 50 0 
z
" id="DejaVuSans-394" transform="scale(0.015625)"/>
      <path d="M 1081 4666 
L 2694 4666 
Q 3350 4666 3675 4422 
Q 4000 4178 4000 3688 
Q 4000 3238 3720 2911 
Q 3441 2584 2988 2516 
Q 3375 2428 3569 2181 
Q 3763 1934 3763 1522 
Q 3763 819 3242 409 
Q 2722 0 1819 0 
L 172 0 
L 1081 4666 
z
M 1234 2228 
L 903 519 
L 1919 519 
Q 2491 519 2800 781 
Q 3109 1044 3109 1522 
Q 3109 1891 2904 2059 
Q 2700 2228 2247 2228 
L 1234 2228 
z
M 1606 4147 
L 1331 2741 
L 2272 2741 
Q 2775 2741 3058 2959 
Q 3341 3178 3341 3566 
Q 3341 3869 3150 4008 
Q 2959 4147 2541 4147 
L 1606 4147 
z
" id="DejaVuSans-Oblique-42" transform="scale(0.015625)"/>
      <path d="M 313 2009 
L 1997 2009 
L 1997 1497 
L 313 1497 
L 313 2009 
z
" id="DejaVuSans-2d" transform="scale(0.015625)"/>
      <path d="M 4653 2053 
Q 4381 2053 4226 1822 
Q 4072 1591 4072 1178 
Q 4072 772 4226 539 
Q 4381 306 4653 306 
Q 4919 306 5073 539 
Q 5228 772 5228 1178 
Q 5228 1588 5073 1820 
Q 4919 2053 4653 2053 
z
M 4653 2450 
Q 5147 2450 5437 2106 
Q 5728 1763 5728 1178 
Q 5728 594 5436 251 
Q 5144 -91 4653 -91 
Q 4153 -91 3862 251 
Q 3572 594 3572 1178 
Q 3572 1766 3864 2108 
Q 4156 2450 4653 2450 
z
M 1428 4353 
Q 1159 4353 1004 4120 
Q 850 3888 850 3481 
Q 850 3069 1003 2837 
Q 1156 2606 1428 2606 
Q 1700 2606 1854 2837 
Q 2009 3069 2009 3481 
Q 2009 3884 1853 4118 
Q 1697 4353 1428 4353 
z
M 4250 4750 
L 4750 4750 
L 1831 -91 
L 1331 -91 
L 4250 4750 
z
M 1428 4750 
Q 1922 4750 2215 4408 
Q 2509 4066 2509 3481 
Q 2509 2891 2217 2550 
Q 1925 2209 1428 2209 
Q 931 2209 642 2551 
Q 353 2894 353 3481 
Q 353 4063 643 4406 
Q 934 4750 1428 4750 
z
" id="DejaVuSans-25" transform="scale(0.015625)"/>
      <path d="M 750 794 
L 1409 794 
L 1409 256 
L 897 -744 
L 494 -744 
L 750 256 
L 750 794 
z
" id="DejaVuSans-2c" transform="scale(0.015625)"/>
      <path d="M 4447 4306 
L 4319 3641 
Q 4019 3944 3683 4091 
Q 3347 4238 2956 4238 
Q 2422 4238 2017 3981 
Q 1613 3725 1319 3200 
Q 1131 2863 1032 2486 
Q 934 2109 934 1728 
Q 934 1091 1264 756 
Q 1594 422 2222 422 
Q 2656 422 3056 561 
Q 3456 700 3834 978 
L 3688 231 
Q 3316 72 2936 -9 
Q 2556 -91 2175 -91 
Q 1278 -91 773 396 
Q 269 884 269 1753 
Q 269 2309 461 2846 
Q 653 3384 1013 3828 
Q 1394 4300 1883 4525 
Q 2372 4750 3022 4750 
Q 3422 4750 3780 4639 
Q 4138 4528 4447 4306 
z
" id="DejaVuSans-Oblique-43" transform="scale(0.015625)"/>
     </defs>
     <use transform="translate(0 0.684375)" xlink:href="#DejaVuSans-42"/>
     <use transform="translate(68.603516 0.684375)" xlink:href="#DejaVuSans-20"/>
     <use transform="translate(100.390625 0.684375)" xlink:href="#DejaVuSans-3d"/>
     <use transform="translate(184.179688 0.684375)" xlink:href="#DejaVuSans-20"/>
     <use transform="translate(215.966797 0.684375)" xlink:href="#DejaVuSans-30"/>
     <use transform="translate(279.589844 0.684375)" xlink:href="#DejaVuSans-2e"/>
     <use transform="translate(311.376953 0.684375)" xlink:href="#DejaVuSans-30"/>
     <use transform="translate(375 0.684375)" xlink:href="#DejaVuSans-30"/>
     <use transform="translate(438.623047 0.684375)" xlink:href="#DejaVuSans-39"/>
     <use transform="translate(502.246094 0.684375)" xlink:href="#DejaVuSans-34"/>
     <use transform="translate(565.869141 0.684375)" xlink:href="#DejaVuSans-37"/>
     <use transform="translate(629.492188 0.684375)" xlink:href="#DejaVuSans-20"/>
     <use transform="translate(661.279297 0.684375)" xlink:href="#DejaVuSans-63"/>
     <use transform="translate(716.259766 0.684375)" xlink:href="#DejaVuSans-6d"/>
     <use transform="translate(814.628906 38.965625)scale(0.7)" xlink:href="#DejaVuSans-2212"/>
     <use transform="translate(873.28125 38.965625)scale(0.7)" xlink:href="#DejaVuSans-31"/>
     <use transform="translate(920.551758 0.684375)" xlink:href="#DejaVuSans-20"/>
     <use transform="translate(952.338867 0.684375)" xlink:href="#DejaVuSans-20"/>
     <use transform="translate(984.125977 0.684375)" xlink:href="#DejaVuSans-20"/>
     <use transform="translate(1015.913086 0.684375)" xlink:href="#DejaVuSans-394"/>
     <use transform="translate(1084.321289 0.684375)" xlink:href="#DejaVuSans-Oblique-42"/>
     <use transform="translate(1172.407227 0.684375)" xlink:href="#DejaVuSans-3d"/>
     <use transform="translate(1275.678711 0.684375)" xlink:href="#DejaVuSans-20"/>
     <use transform="translate(1307.46582 0.684375)" xlink:href="#DejaVuSans-2d"/>
     <use transform="translate(1343.549805 0.684375)" xlink:href="#DejaVuSans-30"/>
     <use transform="translate(1407.172852 0.684375)" xlink:href="#DejaVuSans-2e"/>
     <use transform="translate(1438.959961 0.684375)" xlink:href="#DejaVuSans-34"/>
     <use transform="translate(1502.583008 0.684375)" xlink:href="#DejaVuSans-32"/>
     <use transform="translate(1566.206055 0.684375)" xlink:href="#DejaVuSans-25"/>
     <use transform="translate(1661.225586 0.684375)" xlink:href="#DejaVuSans-20"/>
     <use transform="translate(1693.012695 0.684375)" xlink:href="#DejaVuSans-2c"/>
     <use transform="translate(1724.799805 0.684375)" xlink:href="#DejaVuSans-20"/>
     <use transform="translate(1756.586914 0.684375)" xlink:href="#DejaVuSans-20"/>
     <use transform="translate(1788.374023 0.684375)" xlink:href="#DejaVuSans-394"/>
     <use transform="translate(1856.782227 0.684375)" xlink:href="#DejaVuSans-Oblique-43"/>
     <use transform="translate(1946.088867 0.684375)" xlink:href="#DejaVuSans-3d"/>
     <use transform="translate(2049.360352 0.684375)" xlink:href="#DejaVuSans-20"/>
     <use transform="translate(2081.147461 0.684375)" xlink:href="#DejaVuSans-2d"/>
     <use transform="translate(2117.231445 0.684375)" xlink:href="#DejaVuSans-30"/>
     <use transform="translate(2180.854492 0.684375)" xlink:href="#DejaVuSans-2e"/>
     <use transform="translate(2212.641602 0.684375)" xlink:href="#DejaVuSans-34"/>
     <use transform="translate(2276.264648 0.684375)" xlink:href="#DejaVuSans-32"/>
     <use transform="translate(2339.887695 0.684375)" xlink:href="#DejaVuSans-25"/>
    </g>
   </g>
   <g id="legend_1">
    <g id="patch_7">
     <path d="M 76.615625 452.760469 
L 258.713281 452.760469 
Q 261.713281 452.760469 261.713281 449.760469 
L 261.713281 363.191719 
Q 261.713281 360.191719 258.713281 360.191719 
L 76.615625 360.191719 
Q 73.615625 360.191719 73.615625 363.191719 
L 73.615625 449.760469 
Q 73.615625 452.760469 76.615625 452.760469 
z
" style="fill:#ffffff;opacity:0.8;stroke:#cccccc;stroke-linejoin:miter;"/>
    </g>
    <g id="line2d_35">
     <path d="M 79.615625 372.339375 
L 109.615625 372.339375 
" style="fill:none;stroke:#de5d5c;stroke-linecap:square;stroke-width:1.5;"/>
    </g>
    <g id="line2d_36"/>
    <g id="text_15">
     <!-- Simulated at 15 K -->
     <g transform="translate(121.615625 377.589375)scale(0.15 -0.15)">
      <defs>
       <path d="M 3425 4513 
L 3425 3897 
Q 3066 4069 2747 4153 
Q 2428 4238 2131 4238 
Q 1616 4238 1336 4038 
Q 1056 3838 1056 3469 
Q 1056 3159 1242 3001 
Q 1428 2844 1947 2747 
L 2328 2669 
Q 3034 2534 3370 2195 
Q 3706 1856 3706 1288 
Q 3706 609 3251 259 
Q 2797 -91 1919 -91 
Q 1588 -91 1214 -16 
Q 841 59 441 206 
L 441 856 
Q 825 641 1194 531 
Q 1563 422 1919 422 
Q 2459 422 2753 634 
Q 3047 847 3047 1241 
Q 3047 1584 2836 1778 
Q 2625 1972 2144 2069 
L 1759 2144 
Q 1053 2284 737 2584 
Q 422 2884 422 3419 
Q 422 4038 858 4394 
Q 1294 4750 2059 4750 
Q 2388 4750 2728 4690 
Q 3069 4631 3425 4513 
z
" id="DejaVuSans-53" transform="scale(0.015625)"/>
       <path d="M 691 4666 
L 3169 4666 
L 3169 4134 
L 1269 4134 
L 1269 2991 
Q 1406 3038 1543 3061 
Q 1681 3084 1819 3084 
Q 2600 3084 3056 2656 
Q 3513 2228 3513 1497 
Q 3513 744 3044 326 
Q 2575 -91 1722 -91 
Q 1428 -91 1123 -41 
Q 819 9 494 109 
L 494 744 
Q 775 591 1075 516 
Q 1375 441 1709 441 
Q 2250 441 2565 725 
Q 2881 1009 2881 1497 
Q 2881 1984 2565 2268 
Q 2250 2553 1709 2553 
Q 1456 2553 1204 2497 
Q 953 2441 691 2322 
L 691 4666 
z
" id="DejaVuSans-35" transform="scale(0.015625)"/>
       <path d="M 628 4666 
L 1259 4666 
L 1259 2694 
L 3353 4666 
L 4166 4666 
L 1850 2491 
L 4331 0 
L 3500 0 
L 1259 2247 
L 1259 0 
L 628 0 
L 628 4666 
z
" id="DejaVuSans-4b" transform="scale(0.015625)"/>
      </defs>
      <use xlink:href="#DejaVuSans-53"/>
      <use x="63.476562" xlink:href="#DejaVuSans-69"/>
      <use x="91.259766" xlink:href="#DejaVuSans-6d"/>
      <use x="188.671875" xlink:href="#DejaVuSans-75"/>
      <use x="252.050781" xlink:href="#DejaVuSans-6c"/>
      <use x="279.833984" xlink:href="#DejaVuSans-61"/>
      <use x="341.113281" xlink:href="#DejaVuSans-74"/>
      <use x="380.322266" xlink:href="#DejaVuSans-65"/>
      <use x="441.845703" xlink:href="#DejaVuSans-64"/>
      <use x="505.322266" xlink:href="#DejaVuSans-20"/>
      <use x="537.109375" xlink:href="#DejaVuSans-61"/>
      <use x="598.388672" xlink:href="#DejaVuSans-74"/>
      <use x="637.597656" xlink:href="#DejaVuSans-20"/>
      <use x="669.384766" xlink:href="#DejaVuSans-31"/>
      <use x="733.007812" xlink:href="#DejaVuSans-35"/>
      <use x="796.630859" xlink:href="#DejaVuSans-20"/>
      <use x="828.417969" xlink:href="#DejaVuSans-4b"/>
     </g>
    </g>
    <g id="line2d_37">
     <path d="M 79.615625 394.356562 
L 109.615625 394.356562 
" style="fill:none;stroke:#9a3670;stroke-linecap:square;stroke-width:1.5;"/>
    </g>
    <g id="line2d_38"/>
    <g id="text_16">
     <!-- Simulated at 21 K -->
     <g transform="translate(121.615625 399.606562)scale(0.15 -0.15)">
      <use xlink:href="#DejaVuSans-53"/>
      <use x="63.476562" xlink:href="#DejaVuSans-69"/>
      <use x="91.259766" xlink:href="#DejaVuSans-6d"/>
      <use x="188.671875" xlink:href="#DejaVuSans-75"/>
      <use x="252.050781" xlink:href="#DejaVuSans-6c"/>
      <use x="279.833984" xlink:href="#DejaVuSans-61"/>
      <use x="341.113281" xlink:href="#DejaVuSans-74"/>
      <use x="380.322266" xlink:href="#DejaVuSans-65"/>
      <use x="441.845703" xlink:href="#DejaVuSans-64"/>
      <use x="505.322266" xlink:href="#DejaVuSans-20"/>
      <use x="537.109375" xlink:href="#DejaVuSans-61"/>
      <use x="598.388672" xlink:href="#DejaVuSans-74"/>
      <use x="637.597656" xlink:href="#DejaVuSans-20"/>
      <use x="669.384766" xlink:href="#DejaVuSans-32"/>
      <use x="733.007812" xlink:href="#DejaVuSans-31"/>
      <use x="796.630859" xlink:href="#DejaVuSans-20"/>
      <use x="828.417969" xlink:href="#DejaVuSans-4b"/>
     </g>
    </g>
    <g id="line2d_39">
     <path d="M 79.615625 416.37375 
L 109.615625 416.37375 
" style="fill:none;stroke:#000000;stroke-linecap:square;stroke-width:1.5;"/>
    </g>
    <g id="line2d_40"/>
    <g id="text_17">
     <!-- HD 166937 -->
     <g transform="translate(121.615625 421.62375)scale(0.15 -0.15)">
      <defs>
       <path d="M 628 4666 
L 1259 4666 
L 1259 2753 
L 3553 2753 
L 3553 4666 
L 4184 4666 
L 4184 0 
L 3553 0 
L 3553 2222 
L 1259 2222 
L 1259 0 
L 628 0 
L 628 4666 
z
" id="DejaVuSans-48" transform="scale(0.015625)"/>
       <path d="M 1259 4147 
L 1259 519 
L 2022 519 
Q 2988 519 3436 956 
Q 3884 1394 3884 2338 
Q 3884 3275 3436 3711 
Q 2988 4147 2022 4147 
L 1259 4147 
z
M 628 4666 
L 1925 4666 
Q 3281 4666 3915 4102 
Q 4550 3538 4550 2338 
Q 4550 1131 3912 565 
Q 3275 0 1925 0 
L 628 0 
L 628 4666 
z
" id="DejaVuSans-44" transform="scale(0.015625)"/>
       <path d="M 2597 2516 
Q 3050 2419 3304 2112 
Q 3559 1806 3559 1356 
Q 3559 666 3084 287 
Q 2609 -91 1734 -91 
Q 1441 -91 1130 -33 
Q 819 25 488 141 
L 488 750 
Q 750 597 1062 519 
Q 1375 441 1716 441 
Q 2309 441 2620 675 
Q 2931 909 2931 1356 
Q 2931 1769 2642 2001 
Q 2353 2234 1838 2234 
L 1294 2234 
L 1294 2753 
L 1863 2753 
Q 2328 2753 2575 2939 
Q 2822 3125 2822 3475 
Q 2822 3834 2567 4026 
Q 2313 4219 1838 4219 
Q 1578 4219 1281 4162 
Q 984 4106 628 3988 
L 628 4550 
Q 988 4650 1302 4700 
Q 1616 4750 1894 4750 
Q 2613 4750 3031 4423 
Q 3450 4097 3450 3541 
Q 3450 3153 3228 2886 
Q 3006 2619 2597 2516 
z
" id="DejaVuSans-33" transform="scale(0.015625)"/>
      </defs>
      <use xlink:href="#DejaVuSans-48"/>
      <use x="75.195312" xlink:href="#DejaVuSans-44"/>
      <use x="152.197266" xlink:href="#DejaVuSans-20"/>
      <use x="183.984375" xlink:href="#DejaVuSans-31"/>
      <use x="247.607422" xlink:href="#DejaVuSans-36"/>
      <use x="311.230469" xlink:href="#DejaVuSans-36"/>
      <use x="374.853516" xlink:href="#DejaVuSans-39"/>
      <use x="438.476562" xlink:href="#DejaVuSans-33"/>
      <use x="502.099609" xlink:href="#DejaVuSans-37"/>
     </g>
    </g>
    <g id="line2d_41">
     <path d="M 79.615625 438.390937 
L 109.615625 438.390937 
" style="fill:none;stroke:#808080;stroke-linecap:square;stroke-width:1.5;"/>
    </g>
    <g id="line2d_42"/>
    <g id="text_18">
     <!-- HD 185418 -->
     <g transform="translate(121.615625 443.640937)scale(0.15 -0.15)">
      <use xlink:href="#DejaVuSans-48"/>
      <use x="75.195312" xlink:href="#DejaVuSans-44"/>
      <use x="152.197266" xlink:href="#DejaVuSans-20"/>
      <use x="183.984375" xlink:href="#DejaVuSans-31"/>
      <use x="247.607422" xlink:href="#DejaVuSans-38"/>
      <use x="311.230469" xlink:href="#DejaVuSans-35"/>
      <use x="374.853516" xlink:href="#DejaVuSans-34"/>
      <use x="438.476562" xlink:href="#DejaVuSans-31"/>
      <use x="502.099609" xlink:href="#DejaVuSans-38"/>
     </g>
    </g>
   </g>
  </g>
 </g>
 <defs>
  <clipPath id="pe5df44dfbd">
   <rect height="434.88" width="837" x="66.115625" y="25.380469"/>
  </clipPath>
 </defs>
</svg>
